<?xml version="1.0" standalone="no"?>
<!DOCTYPE svg PUBLIC "-//W3C//DTD SVG 1.1//EN" "http://www.w3.org/Graphics/SVG/1.1/DTD/svg11.dtd" >
<svg xmlns="http://www.w3.org/2000/svg" xmlns:xlink="http://www.w3.org/1999/xlink" version="1.1">
<metadata>
Created by FontForge 20170731 at Tue Dec  1 16:59:51 2020
 By Aleksey,,,
Copyright 2020 The Imbue Project Authors (https://github.com/Etcetera-Type-Co/Imbue)
</metadata>
<defs>
<font id="Imbue11pt-SemiBold" horiz-adv-x="0" >
  <font-face 
    font-family="Imbue 11pt SemiBold"
    font-weight="600"
    font-stretch="normal"
    units-per-em="2000"
    panose-1="0 0 0 0 0 0 0 0 0 0"
    ascent="1600"
    descent="-400"
    x-height="1046"
    cap-height="1400"
    bbox="-371 -502 1546 2032"
    underline-thickness="50"
    underline-position="-175"
    unicode-range="U+000D-FB02"
  />
<missing-glyph horiz-adv-x="595" 
d="M138 133v947h317v-947h-317zM162 156h269v900h-269v-900zM299 889l-68 -69l-18 18l68 69l-68 69l18 19l68 -69l69 69l18 -19l-68 -69l68 -69l-18 -18zM299 582l-68 -69l-18 18l69 69l-69 69l18 18l68 -69l69 69l18 -18l-69 -69l69 -69l-18 -18zM299 274l-68 -69l-18 19
l68 69l-68 69l18 18l68 -69l69 69l18 -18l-68 -69l68 -69l-18 -19z" />
    <glyph glyph-name="f_f" unicode="ff" horiz-adv-x="1010" 
d="M28 0v72h117v903h-121v72h121v84q0 128 37.5 212.5t106.5 126t161 41.5q60 0 104.5 -26.5t69.5 -67t27 -83.5l-51 -84q-1 43 -14.5 85.5t-41 70.5t-70.5 28q-38 0 -62 -28.5t-36.5 -78t-17 -113.5t-4.5 -134v-21v-12h161v-72h-161v-903h109v-72h-435zM461 0v72h112v903
h-129v72h129v118q0 103 31 181t94 121.5t157 43.5q96 0 147.5 -72.5t51.5 -187.5q0 -59 -22.5 -90.5t-66.5 -31.5q-46 0 -66 29.5t-20 69.5q0 37 14.5 57t28.5 36t14 38q0 35 -19 57t-45 22q-28 0 -45.5 -21.5t-27.5 -59.5t-13 -89t-3 -110v-111h137v-72h-137v-903h114v-72
h-436z" />
    <glyph glyph-name="f_f_i" unicode="ffi" horiz-adv-x="1333" 
d="M28 0v72h117v903h-121v72h121v84q0 128 37.5 212.5t106.5 126t162 41.5q60 0 105.5 -27t71.5 -69t28 -89l-48 -93q-1 51 -16.5 97t-45 75t-72.5 29q-38 0 -62 -28.5t-36.5 -78t-17 -113.5t-4.5 -134v-21v-12h161v-72h-161v-903h104v-72h-430zM889 0v72h103v903h-103v72
h313v-975h104v-72h-417zM459 0v72h117v903h-136v72h136v78q0 131 48 216.5t128 127.5t176 42q77 0 145.5 -29.5t111.5 -85t43 -133.5q0 -47 -17 -73.5t-43 -37.5t-52 -11q-40 0 -74 22t-34 73q0 32 13 48.5t25 31.5t12 41q0 30 -18 46t-45 23t-55 7q-51 0 -85.5 -22.5
t-51.5 -93t-17 -213.5v-57h198v-72h-198v-903h119v-72h-446z" />
    <glyph glyph-name="f_f_l" unicode="ffl" horiz-adv-x="1402" 
d="M28 0v72h119v903h-123v72h123v84q0 128 37 212.5t106 126t162 41.5q60 0 105.5 -27t71.5 -69t29 -89l-49 -92q-1 50 -16.5 96t-44.5 75t-73 29q-39 0 -62.5 -28.5t-36 -78t-17 -113.5t-4.5 -134v-21v-12h161v-72h-161v-903h103v-72h-430zM953 0v72h103v1356h-103v72h312
v-1428h103v-72h-415zM479 0v72h104v903h-123v72h123v31q0 116 28.5 196.5t79 130t118 72.5t145.5 23v-72q-52 0 -84 -26.5t-49 -73.5t-22.5 -108.5t-5.5 -130.5v-26v-16h160v-72h-160v-903h119v-72h-433z" />
    <glyph glyph-name="f_i" unicode="fi" horiz-adv-x="916" 
d="M42 0v72h117v903h-135v72h135v78q0 131 48 216.5t128 127.5t176 42q78 0 146.5 -29.5t111 -85t42.5 -133.5q0 -47 -17 -73.5t-43 -37.5t-52 -11q-40 0 -73.5 22t-33.5 73q0 32 12.5 48.5t24.5 31.5t12 41q0 30 -18 46t-45 23t-54 7q-52 0 -86.5 -22.5t-51.5 -93
t-17 -213.5v-57h198v-72h-198v-903h119v-72h-446zM472 0v72h103v903h-103v72h313v-975h104v-72h-417z" />
    <glyph glyph-name="f_l" unicode="fl" horiz-adv-x="966" 
d="M42 0v72h105v903h-123v72h123v31q0 116 28 196.5t78.5 130t118 72.5t145.5 23v-72q-52 0 -84 -26.5t-48.5 -73.5t-22.5 -108.5t-6 -130.5v-26v-16h160v-72h-160v-903h119v-72h-433zM516 0v72h103v1356h-103v72h312v-1428h103v-72h-415z" />
    <glyph glyph-name=".notdef" horiz-adv-x="595" 
d="M138 133v947h317v-947h-317zM162 156h269v900h-269v-900zM299 889l-68 -69l-18 18l68 69l-68 69l18 19l68 -69l69 69l18 -19l-68 -69l68 -69l-18 -18zM299 582l-68 -69l-18 18l69 69l-69 69l18 18l68 -69l69 69l18 -18l-69 -69l69 -69l-18 -18zM299 274l-68 -69l-18 19
l68 69l-68 69l18 18l68 -69l69 69l18 -18l-68 -69l68 -69l-18 -19z" />
    <glyph glyph-name=".null" 
 />
    <glyph glyph-name="nonmarkingreturn" horiz-adv-x="666" 
 />
    <glyph glyph-name="CR" unicode="&#xd;" horiz-adv-x="340" 
 />
    <glyph glyph-name="space" unicode=" " horiz-adv-x="340" 
 />
    <glyph glyph-name="exclam" unicode="!" horiz-adv-x="354" 
d="M144 343q0 118 -11 236t-26 231.5t-26.5 220t-11.5 201.5q0 83 26.5 133.5t80.5 50.5q53 0 80 -50.5t27 -133.5q0 -95 -11 -201.5t-26 -220t-26 -231.5t-11 -236h-65zM173 -30q-51 0 -87.5 37t-36.5 88q0 52 36.5 88.5t87.5 36.5t87 -36.5t36 -88.5q0 -51 -36 -88
t-87 -37z" />
    <glyph glyph-name="quotedbl" unicode="&#x22;" horiz-adv-x="532" 
d="M127 1170q-7 35 -17.5 79.5t-18 90t-7.5 80.5q0 58 24 81t53 23t53 -23t24 -81q0 -35 -8.5 -80.5t-19 -90t-18.5 -79.5h-65zM338 1170q-7 35 -17.5 79.5t-18 90t-7.5 80.5q0 58 24 81t53 23t53 -23t24 -81q0 -35 -8.5 -80.5t-19 -90t-18.5 -79.5h-65z" />
    <glyph glyph-name="numbersign" unicode="#" horiz-adv-x="1148" 
d="M157 0l78 447h-172v72h186l70 411h-207v72h221l67 398h178l-69 -398h210l72 398h175l-71 -398h190v-72h-201l-72 -411h222v-72h-235l-79 -447h-176l81 447h-211l-80 -447h-177zM425 519h208l74 411h-209z" />
    <glyph glyph-name="dollar" unicode="$" horiz-adv-x="581" 
d="M257 -24v1442h59v-1442h-59zM289 63q-59 0 -88.5 19t-44.5 37.5t-31 18.5q-22 0 -22 -51h-56v293h61q2 -27 13.5 -68.5t34 -83.5t56 -70t76.5 -28q37 0 57.5 17.5t29.5 50.5t9 80q0 55 -22.5 112t-61.5 117.5t-89 127.5q-65 89 -100 162.5t-48.5 138.5t-13.5 128
q0 92 30 156t78 97t104 33q49 0 74.5 -16.5t39.5 -33.5t27 -17q10 0 16 10.5t6 36.5h57v-291h-61q-1 30 -11.5 71.5t-29.5 81.5t-47.5 66t-67.5 26q-46 0 -71 -35.5t-25 -99.5q0 -45 18 -96.5t55 -111t93 -132.5q84 -106 129.5 -210t45.5 -224q0 -88 -18 -148t-49 -96
t-70.5 -52t-82.5 -16z" />
    <glyph glyph-name="percent" unicode="%" horiz-adv-x="1088" 
d="M303 780q-57 0 -105.5 39t-77.5 109.5t-29 166.5q0 139 59 224t153 85q91 0 150.5 -79t59.5 -230q0 -148 -60.5 -231.5t-149.5 -83.5zM789 -11q-58 0 -107 39.5t-78.5 110.5t-29.5 165q0 140 60 225.5t155 85.5q89 0 149 -79.5t60 -231.5q0 -146 -60 -230.5t-149 -84.5z
M789 61q35 0 50.5 40.5t19 97.5t3.5 103q0 49 -3.5 106t-19 98.5t-50.5 41.5q-37 0 -54 -41.5t-21.5 -99.5t-4.5 -107q0 -47 4 -103t21 -96t55 -40zM303 850q37 0 53 41t20 98t4 104q0 48 -4 105.5t-20 99t-53 41.5q-36 0 -52.5 -42t-20.5 -100t-4 -106t4 -104.5t20.5 -96.5
t52.5 -40zM64 0l876 1400h86l-874 -1400h-88z" />
    <glyph glyph-name="ampersand" unicode="&#x26;" horiz-adv-x="1019" 
d="M797 -15q-59 0 -110 27.5t-85 96.5l-313 651q-16 30 -34.5 75t-35.5 99.5t-27.5 111.5t-10.5 113q0 77 25 127t64 79t83 41t81 12q38 0 79 -11.5t77.5 -39t58.5 -73t22 -113.5q0 -76 -27 -136t-64.5 -103.5t-71.5 -70.5t-47 -37l-43 64q34 33 64.5 103.5t30.5 180.5
q0 83 -19.5 127t-60.5 44t-59 -39t-18 -113q0 -45 13 -99t30 -103.5t32 -84t19 -43.5l347 -713q25 -51 40.5 -64t32.5 -13q16 0 33 13.5t26 33.5l47 -51q-23 -44 -73.5 -68t-105.5 -24zM341 -18q-97 0 -168.5 46t-109.5 126t-38 182q0 117 41.5 207t102.5 155t119 106
l55 -56q-32 -29 -59.5 -78t-44.5 -109.5t-17 -121.5q0 -97 19.5 -179t60.5 -131t103 -49q39 0 71 21.5t57 55t38 69.5l41 -60q-10 -30 -40 -73.5t-86 -77t-145 -33.5zM893 266q-35 0 -51.5 21t-16.5 52q0 24 9.5 39t18.5 26.5t9 24.5q0 16 -6 23.5t-24 7.5q-24 0 -47.5 -24
t-42.5 -59.5t-29 -70.5l-58 56q13 33 39.5 72.5t62.5 68.5t78 29q69 0 100.5 -46.5t31.5 -107.5q0 -54 -19 -83t-55 -29z" />
    <glyph glyph-name="quotesingle" unicode="'" horiz-adv-x="357" 
d="M145 1170q-7 35 -17.5 79.5t-18 90t-7.5 80.5q0 58 24 81t53 23t53 -23t24 -81q0 -35 -8.5 -80.5t-19 -90t-18.5 -79.5h-65z" />
    <glyph glyph-name="parenleft" unicode="(" horiz-adv-x="419" 
d="M334 -431q-12 15 -54.5 90.5t-93 202t-87 295.5t-36.5 369q0 228 37.5 405t88 301t94 193t55.5 82l57 -65q-15 -17 -54.5 -82.5t-84.5 -180t-77 -277.5t-32 -376q0 -189 33 -345.5t78.5 -273t84.5 -186t50 -85.5z" />
    <glyph glyph-name="parenright" unicode=")" horiz-adv-x="419" 
d="M86 -431l-60 67q12 16 51 85.5t84.5 186t78.5 273t33 345.5q0 213 -32 376t-77 277.5t-84.5 180t-55.5 82.5l58 65q12 -13 55 -82t94 -193t88.5 -301t37.5 -405q0 -200 -37 -369t-87 -295.5t-92.5 -202t-54.5 -90.5z" />
    <glyph glyph-name="asterisk" unicode="*" horiz-adv-x="813" 
d="M390 882q-21 0 -37 14t-16 41q0 24 5 45t9 51t4 78q-29 -22 -51.5 -42t-41 -36t-38.5 -26q-9 -4 -18 -6t-16 -2q-22 0 -36.5 12.5t-14.5 33.5q0 14 7.5 28t25.5 24q18 11 39.5 16t49 14t65.5 31q-37 23 -64.5 33t-48.5 17t-42 19q-31 19 -31 49q0 24 15.5 37t34.5 13
q16 0 35 -11q30 -15 52.5 -42.5t77.5 -62.5q0 73 -9 105.5t-9 68.5q0 27 16 40.5t37 13.5q22 0 38 -13.5t16 -40.5q0 -25 -6 -46.5t-12.5 -50.5t-6.5 -77q61 37 86 63.5t53 41.5q18 10 34 10q21 0 35 -15.5t14 -36.5q0 -29 -31 -47q-22 -12 -44.5 -18.5t-51 -16.5t-68.5 -33
q38 -20 67 -29t52.5 -15t43.5 -17q18 -8 25.5 -21.5t7.5 -27.5q0 -21 -14 -35t-37 -14q-9 0 -18.5 1.5t-18.5 6.5q-20 12 -38 27.5t-40 35t-56 41.5q0 -49 6 -78t11.5 -49.5t5.5 -46.5q0 -27 -15.5 -41t-37.5 -14z" />
    <glyph glyph-name="plus" unicode="+" horiz-adv-x="829" 
d="M380 251v624h72v-624h-72zM103 526v72h622v-72h-622z" />
    <glyph glyph-name="comma" unicode="," horiz-adv-x="360" 
d="M140 -217l-56 69q22 12 49 35t47.5 49t20.5 45q0 11 -7 11q-6 0 -14 -6t-30 -6q-27 0 -51.5 15t-40 42.5t-15.5 64.5q0 55 37 88t96 33t100.5 -36.5t41.5 -103.5q0 -84 -28.5 -143t-69.5 -96.5t-80 -60.5z" />
    <glyph glyph-name="hyphen" unicode="-" horiz-adv-x="689" 
d="M103 526v72h482v-72h-482z" />
    <glyph glyph-name="period" unicode="." horiz-adv-x="366" 
d="M177 -32q-50 0 -86.5 37.5t-36.5 87.5q0 52 36.5 89t86.5 37q52 0 88 -37t36 -89q0 -50 -36 -87.5t-88 -37.5z" />
    <glyph glyph-name="slash" unicode="/" horiz-adv-x="627" 
d="M34 -104l495 1608h74l-493 -1608h-76z" />
    <glyph glyph-name="zero" unicode="0" horiz-adv-x="867" 
d="M433 -23q-86 0 -160.5 76.5t-119.5 236t-45 408.5t45 409t119 237.5t161 77.5q86 0 160 -77.5t119.5 -237.5t45.5 -409t-45.5 -408.5t-119.5 -236t-160 -76.5zM433 51q26 0 47 53t36.5 144.5t24.5 207.5t9 242t-9 243t-24.5 209t-36.5 146t-47 54t-48 -52t-37.5 -143
t-23.5 -208.5t-8 -248.5q0 -130 8 -247t24 -207.5t37.5 -141.5t47.5 -51z" />
    <glyph glyph-name="one" unicode="1" horiz-adv-x="584" 
d="M80 0v72h105v1062q-8 -11 -26.5 -21.5t-40 -17.5t-37.5 -9v82q31 6 69 27.5t74.5 56.5t64 83t35.5 107h71v-1370h109v-72h-424z" />
    <glyph glyph-name="two" unicode="2" horiz-adv-x="760" 
d="M497 -11q-43 0 -77.5 14.5t-66 34t-63.5 34t-72 14.5q-44 0 -66.5 -29t-27.5 -57h-69q0 166 30 287.5t77.5 212.5t100.5 163.5t100 138t77 136.5t30 161q0 84 -18.5 140t-52 84t-79.5 28q-33 0 -59 -14t-41 -36t-15 -45q0 -20 11.5 -36t23 -36t11.5 -53q0 -51 -24.5 -73
t-61.5 -22q-38 0 -62 28.5t-24 92.5q0 73 33.5 132.5t97.5 96t154 36.5q53 0 107 -15.5t100 -52t74 -100t28 -160.5q0 -103 -25 -176.5t-67 -128.5t-93.5 -100.5t-105.5 -92t-102.5 -104t-84.5 -135t-52 -186.5q14 20 39.5 36t60 24.5t74.5 8.5q51 0 90 -14t70 -28.5
t58 -14.5q39 0 55.5 24t16.5 72h67v-40q0 -61 -16.5 -118.5t-55.5 -94.5t-105 -37z" />
    <glyph glyph-name="three" unicode="3" horiz-adv-x="768" 
d="M352 -24q-80 0 -141 36.5t-94.5 97.5t-33.5 133q0 63 31.5 95.5t68.5 32.5t57.5 -21t20.5 -66q0 -32 -13.5 -52t-28 -40t-14.5 -53q0 -35 32 -60.5t82 -25.5q40 0 72.5 25t51.5 91.5t19 193.5q0 110 -16.5 176.5t-43 100t-56.5 44.5t-57 11v76q28 0 59.5 8.5t60 40
t46 98.5t17.5 183q0 126 -40 185.5t-109 59.5q-50 0 -83 -24t-33 -59q0 -34 14 -54.5t27.5 -40.5t13.5 -53q0 -46 -20.5 -66.5t-57.5 -20.5t-68 32.5t-31 96.5q0 73 34.5 132.5t97.5 96t147 36.5t155 -36t114 -109t43 -181q0 -98 -29.5 -166t-74 -111t-91.5 -64t-82 -23
q35 -4 83.5 -25.5t95 -64.5t77.5 -111.5t31 -166.5q0 -116 -40.5 -203t-115 -136t-178.5 -49z" />
    <glyph glyph-name="four" unicode="4" horiz-adv-x="710" 
d="M193 0v72h106v276h-253v72l243 812q53 40 87.5 92t62.5 109h70v-1013h15q37 0 48.5 46.5t11.5 118.5h68v-237h-143v-276h106v-72h-422zM121 413l-10 7h190v642l-5 -67z" />
    <glyph glyph-name="five" unicode="5" horiz-adv-x="819" 
d="M354 -24q-80 0 -136.5 36.5t-85.5 97.5t-29 133q0 63 28 95.5t65 32.5t61 -22.5t24 -73.5q0 -30 -14.5 -49t-29.5 -37.5t-15 -46.5q0 -23 8.5 -44t31 -34.5t63.5 -13.5q62 0 96 45.5t46.5 130.5t12.5 202q0 124 -10 198.5t-28.5 113t-42.5 51t-51 12.5q-44 0 -73.5 -21.5
t-48 -52.5t-28.5 -62l-74 11l68 722h68q7 -20 38.5 -38.5t75 -30.5t85.5 -12q74 0 115.5 25t41.5 56h61q0 -60 -24.5 -117t-72.5 -93t-118 -36q-53 0 -91.5 16t-63 38t-37 40t-15.5 23l-42 -472q8 16 30.5 36t59.5 34t88 14q53 0 106.5 -22.5t99 -74t73.5 -138t28 -214.5
q0 -141 -32 -230.5t-84 -139t-112 -69t-116 -19.5z" />
    <glyph glyph-name="six" unicode="6" horiz-adv-x="838" 
d="M428 -24q-92 0 -155 52.5t-102 148.5t-57 226t-18 284q0 135 24 265.5t70.5 236.5t116 169.5t160.5 63.5q65 0 116.5 -36.5t82.5 -96t31 -132.5q0 -72 -26 -100.5t-63 -28.5t-61.5 23t-24.5 74q0 34 8.5 53.5t16 38t7.5 50.5q0 23 -11.5 42t-32 30.5t-48.5 11.5
q-41 0 -68 -32.5t-43.5 -89.5t-24.5 -131t-10.5 -156.5t-2.5 -167.5q2 12 20.5 38.5t55 50t90.5 23.5q41 0 88 -23.5t89 -75.5t68 -136.5t26 -206.5q0 -114 -24.5 -201.5t-68.5 -147t-102.5 -89.5t-126.5 -30zM425 47q36 0 60.5 34.5t37 120.5t12.5 239q0 137 -12 213
t-35.5 106.5t-58.5 30.5q-31 0 -55 -28.5t-39.5 -78t-21.5 -112.5q0 -146 5 -246.5t17 -162.5t34 -89t56 -27z" />
    <glyph glyph-name="seven" unicode="7" horiz-adv-x="717" 
d="M338 -20q-34 0 -61.5 19.5t-43.5 66t-16 126.5q0 147 36.5 278t90.5 247.5t108 223t90.5 206.5t36.5 197q-8 -30 -29 -54t-55 -37.5t-81 -13.5q-48 0 -75.5 9t-48 17.5t-48.5 8.5q-26 0 -43.5 -10.5t-28 -37.5t-12.5 -77h-71v251h568q0 -24 -3.5 -55t-10 -67.5t-15 -78
t-19 -87t-23.5 -93.5q-13 -50 -27 -106.5t-29 -119.5q-28 -120 -50 -267t-22 -334q0 -80 -15 -126.5t-41.5 -66t-61.5 -19.5z" />
    <glyph glyph-name="eight" unicode="8" horiz-adv-x="838" 
d="M403 -20q-52 0 -109.5 18.5t-108 60t-82.5 110.5t-32 170q0 94 30 160t72.5 109t83 67t62.5 33l71 -47q-30 -21 -63 -56.5t-56.5 -97t-23.5 -158.5q0 -150 43 -223.5t116 -73.5q72 0 115 60t43 165q0 73 -27.5 129t-79.5 109t-125 116q-64 55 -115.5 125t-81.5 153
t-30 175q0 116 44 191t114.5 112t150.5 37t147 -34.5t107 -104t40 -175.5q0 -82 -26.5 -143t-65.5 -104t-77 -69.5t-61 -37.5l-43 40q23 13 54.5 55.5t55.5 110t24 156.5q0 71 -18 124t-52 83t-83 30q-46 0 -83 -26t-58.5 -73.5t-21.5 -112.5t36 -131.5t88.5 -123.5
t100.5 -93q47 -35 95 -77t88.5 -94.5t65.5 -117t25 -144.5q0 -103 -31.5 -175.5t-84 -118.5t-114 -67t-119.5 -21z" />
    <glyph glyph-name="nine" unicode="9" horiz-adv-x="838" 
d="M418 1422q92 0 155.5 -52.5t102 -148t56.5 -226t18 -284.5q0 -134 -23.5 -265t-70 -237t-116.5 -169.5t-161 -63.5q-64 0 -116 36.5t-82.5 97t-30.5 131.5q0 73 25.5 101t62.5 28t61.5 -23t24.5 -74q0 -34 -7.5 -53.5t-16 -38t-8.5 -50.5q0 -23 11.5 -42t32.5 -30.5
t49 -11.5q41 0 68 32.5t43 89.5t24 131t11 156.5t3 167.5q-2 -11 -21 -38t-55 -50.5t-91 -23.5q-41 0 -87.5 23.5t-88.5 75.5t-68.5 136.5t-26.5 206.5q0 114 24.5 201.5t68.5 147t102.5 89.5t126.5 30zM421 1351q-36 0 -60.5 -34.5t-36.5 -120t-12 -239.5q0 -137 11.5 -213
t35 -106.5t58.5 -30.5q31 0 55.5 28.5t40 78.5t20.5 112q0 146 -5 246.5t-17 162.5t-34 89t-56 27z" />
    <glyph glyph-name="colon" unicode=":" horiz-adv-x="529" 
d="M248 823q-50 0 -86.5 37.5t-36.5 87.5q0 52 36.5 89t86.5 37q52 0 88 -37t36 -89q0 -50 -36 -87.5t-88 -37.5zM247 -33q-50 0 -86.5 37.5t-36.5 87.5q0 52 36.5 89t86.5 37q52 0 88 -37t36 -89q0 -50 -36 -87.5t-88 -37.5z" />
    <glyph glyph-name="semicolon" unicode=";" horiz-adv-x="529" 
d="M256 823q-50 0 -86.5 37.5t-36.5 87.5q0 52 36.5 89t86.5 37q52 0 88 -37t36 -89q0 -50 -36 -87.5t-88 -37.5zM213 -217l-56 69q22 12 49 35t47.5 49t20.5 45q0 11 -7 11q-6 0 -14 -6t-30 -6q-27 0 -51.5 15t-40 42.5t-15.5 64.5q0 55 37 88t96 33t100.5 -36.5
t41.5 -103.5q0 -84 -28.5 -143t-69.5 -96.5t-80 -60.5z" />
    <glyph glyph-name="less" unicode="&#x3c;" horiz-adv-x="784" 
d="M627 95l-467 405v76l467 400v-87l-415 -353l415 -353v-88z" />
    <glyph glyph-name="equal" unicode="=" horiz-adv-x="818" 
d="M97 726v72h622v-72h-622zM97 326v72h622v-72h-622z" />
    <glyph glyph-name="greater" unicode="&#x3e;" horiz-adv-x="784" 
d="M167 95v88l416 353l-416 353v87l467 -400v-76z" />
    <glyph glyph-name="question" unicode="?" horiz-adv-x="654" 
d="M239 303q0 122 18 215t44.5 167.5t53 140.5t44.5 132.5t18 145.5q0 128 -41 187t-114 59q-49 0 -73 -26t-24 -61q0 -27 13 -47t25.5 -40.5t12.5 -53.5q0 -51 -23 -72.5t-59 -21.5q-37 0 -64.5 33.5t-27.5 101.5q0 77 33 135t93 91t138 33q51 0 104.5 -14t99.5 -49
t74 -95.5t28 -152.5t-30 -163t-75 -136t-89.5 -136t-74.5 -160.5t-30 -212.5h-74zM277 -30q-51 0 -87.5 37t-36.5 88q0 52 36.5 88.5t87.5 36.5q50 0 87 -36.5t37 -88.5q0 -51 -37 -88t-87 -37z" />
    <glyph glyph-name="at" unicode="@" horiz-adv-x="943" 
d="M468 -22q-67 0 -137 35.5t-129 113t-95 201.5t-36 301q0 226 43.5 377.5t113 241.5t150 129t153.5 39q102 0 178.5 -58.5t119 -186.5t42.5 -339q0 -84 -15.5 -170t-44.5 -158.5t-71.5 -117t-98.5 -44.5q-39 0 -61.5 18t-31 43t-8.5 46q-14 -62 -54 -89t-88 -27
q-38 0 -77.5 24t-66 86.5t-26.5 177.5q0 100 17 182.5t49 142t76.5 91.5t99.5 32q36 0 59 -14.5t35 -34t14 -36.5l6 63h118l-44 -514q-1 -19 -2 -33t-1 -24q0 -20 5 -31t18 -11q25 0 51.5 53.5t44.5 144t18 202.5q0 243 -58.5 376t-195.5 133q-77 0 -147.5 -41.5t-125 -129
t-85.5 -223t-31 -322.5q0 -170 42.5 -299.5t115 -202.5t161.5 -73q94 0 145.5 40t96.5 102l59 -45q-28 -38 -70.5 -77.5t-100 -66.5t-130.5 -27zM450 425q20 0 36.5 16.5t28 44t19.5 61t11 65.5l21 249q0 26 -8 52.5t-23 45t-38 18.5q-33 0 -55 -35t-34.5 -90.5t-17.5 -120
t-5 -124.5q0 -79 16.5 -130.5t48.5 -51.5z" />
    <glyph glyph-name="A" unicode="A" horiz-adv-x="702" 
d="M2 0v72h80l187 1330h127l213 -1330h95v-72h-400v72h79l-114 865h1l-112 -865h71v-72h-227zM158 280v68h227v-68h-227z" />
    <glyph glyph-name="B" unicode="B" horiz-adv-x="823" 
d="M49 0v72h94v1256h-94v72h379q59 0 114 -17t99 -54.5t69.5 -98.5t25.5 -148q0 -85 -22.5 -147t-59 -103t-77.5 -63t-77 -27q37 -1 82.5 -19.5t87.5 -59t69.5 -106.5t27.5 -162q0 -134 -44.5 -221.5t-114.5 -130.5t-149 -43h-410zM350 72h63q33 0 64 35t51 106.5t20 181.5
q0 123 -22.5 190t-55.5 93t-65 26h-55v-632zM350 776h55q35 0 63 29.5t43.5 96.5t15.5 180q0 102 -19 155t-48 72t-60 19h-50v-552z" />
    <glyph glyph-name="C" unicode="C" horiz-adv-x="704" 
d="M419 -20q-157 0 -255.5 185t-98.5 533q0 133 22.5 262t67.5 233.5t113.5 166.5t159.5 62q63 0 111 -42t75 -104.5t27 -124.5q0 -55 -20.5 -88.5t-64.5 -33.5q-48 0 -69 27.5t-21 74.5q0 33 13.5 54.5t26.5 43.5t13 54q0 34 -15.5 49.5t-38.5 15.5q-38 0 -67.5 -42.5
t-50 -112.5t-33.5 -155.5t-19 -173.5t-6 -164q0 -113 7 -212t21 -179t34 -137.5t45 -88.5t55 -31q37 0 61 22t39.5 58t25.5 78l62 -34q-19 -55 -48 -99.5t-71 -70.5t-101 -26z" />
    <glyph glyph-name="D" unicode="D" horiz-adv-x="829" 
d="M49 0v72h93v1256h-93v72h360q97 0 180 -77t133.5 -229.5t50.5 -382.5q0 -232 -51 -390t-134 -239.5t-179 -81.5h-360zM353 72h38q45 0 84.5 69.5t65 211.5t25.5 358q0 195 -23.5 333t-60 211t-76.5 73h-53v-1256z" />
    <glyph glyph-name="E" unicode="E" horiz-adv-x="723" 
d="M49 0v72h94v1256h-94v72h597v-319h-72q0 81 -13.5 136.5t-43 83t-78.5 27.5h-85v-592h175v95h70v-258h-70v91h-175v-592h85q49 0 78.5 28.5t43 84.5t13.5 137h72v-322h-597z" />
    <glyph glyph-name="F" unicode="F" horiz-adv-x="727" 
d="M74 0v72h94v1256h-94v72h569v-319h-73q0 81 -8.5 136.5t-34 83t-79.5 27.5h-69v-572h167v93h72v-258h-72v93h-167v-612h94v-72h-399z" />
    <glyph glyph-name="G" unicode="G" horiz-adv-x="800" 
d="M427 -20q-100 0 -182 78t-131 237.5t-49 402.5q0 232 56 393t143 245t179 84q73 0 125.5 -37.5t81 -98t28.5 -133.5q0 -58 -23 -90t-67 -32q-46 0 -67.5 32t-21.5 77q0 31 12.5 51.5t24.5 40.5t12 50q0 27 -23.5 49.5t-60.5 22.5q-51 0 -86.5 -61t-57.5 -160t-32 -213
t-10 -220q0 -158 12.5 -278.5t33.5 -202t48 -122.5t58 -41q20 0 33.5 7t21.5 16v484h-81v72h359v-72h-86v-561h-70q-1 3 -11 10t-26 7q-17 0 -34.5 -9t-42.5 -18.5t-66 -9.5z" />
    <glyph glyph-name="H" unicode="H" horiz-adv-x="911" 
d="M49 0v72h93v1256h-93v72h371v-72h-69v-572h213v572h-68v72h367v-72h-96v-1256h96v-72h-367v72h68v612h-213v-612h69v-72h-371z" />
    <glyph glyph-name="I" unicode="I" horiz-adv-x="530" 
d="M64 0v72h97v1256h-97v72h403v-72h-98v-1256h98v-72h-403z" />
    <glyph glyph-name="J" unicode="J" horiz-adv-x="696" 
d="M266 -24q-78 0 -125 35.5t-68 96.5t-21 140q0 65 25.5 93t65.5 28q38 0 62.5 -25t24.5 -84q0 -39 -12 -60.5t-25 -39t-13 -44.5q0 -30 17.5 -46.5t42.5 -16.5q45 0 71 33t26 121v1121h-103v72h412v-72h-99v-918q0 -120 -18.5 -203t-55 -134t-88.5 -74t-119 -23z" />
    <glyph glyph-name="K" unicode="K" horiz-adv-x="841" 
d="M35 0v72h93v1256h-93v72h400v-72h-100v-560l288 560h-88v72h249v-72h-78l-244 -482l16 70l253 -844h75v-72h-367v72h66l-198 662l28 -13v-649h73v-72h-373z" />
    <glyph glyph-name="L" unicode="L" horiz-adv-x="673" 
d="M56 0v72h90v1256h-90v72h391v-72h-92v-1256h70q37 0 61.5 29.5t37.5 85t13 135.5h72v-322h-553z" />
    <glyph glyph-name="M" unicode="M" horiz-adv-x="1038" 
d="M29 0v72h92v1256h-89v72h360l140 -854h-29l169 854h336v-72h-90v-1256h95v-72h-401v72h96v1243h29l-263 -1241h-77l-224 1276h20v-1278h84v-72h-248z" />
    <glyph glyph-name="N" unicode="N" horiz-adv-x="825" 
d="M30 0v72h93v1256h-93v72h336l277 -928h-11v856h-89v72h252v-72h-89v-1328h-142l-381 1268h14v-1196h94v-72h-261z" />
    <glyph glyph-name="O" unicode="O" horiz-adv-x="814" 
d="M409 -22q-104 0 -181.5 87t-120 248t-42.5 385q0 225 42.5 387t120 249.5t181.5 87.5t182.5 -87.5t122.5 -249.5t44 -387q0 -224 -44 -385t-122.5 -248t-182.5 -87zM409 50q33 0 57 43.5t39.5 127.5t22.5 204.5t7 272.5t-7 273t-22.5 205.5t-39.5 129t-57 44.5t-56 -44.5
t-37.5 -129t-21 -205.5t-6.5 -273t6.5 -272.5t21 -204.5t37.5 -127.5t56 -43.5z" />
    <glyph glyph-name="P" unicode="P" horiz-adv-x="813" 
d="M49 0v72h108v1256h-108v72h417q49 0 101.5 -19t98 -63t74 -118.5t28.5 -184.5q0 -113 -29 -198.5t-74.5 -142.5t-98.5 -85.5t-100 -28.5h-101v-488h108v-72h-424zM365 632h50q38 0 68.5 45.5t48 131t17.5 207.5q0 114 -16 183t-44 99t-66 30h-58v-696z" />
    <glyph glyph-name="Q" unicode="Q" horiz-adv-x="814" 
d="M658 -382q-43 0 -72 31t-29 87q0 45 18.5 78t37 63.5t18.5 67.5q0 25 -19 47.5t-53 22.5q-12 0 -27.5 -4.5t-25.5 -8.5l14 72q6 5 29.5 10t43.5 5q94 0 134.5 -85t40.5 -229q0 -78 -32.5 -117.5t-77.5 -39.5zM409 -22q-104 0 -181.5 87t-120 248t-42.5 385
q0 225 42.5 387t120 249.5t181.5 87.5t182.5 -87.5t122.5 -249.5t44 -387q0 -224 -44 -385t-122.5 -248t-182.5 -87zM409 50q33 0 57 43.5t39.5 127.5t22.5 204.5t7 272.5t-7 273t-22.5 205.5t-39.5 129t-57 44.5t-56 -44.5t-37.5 -129t-21 -205.5t-6.5 -273t6.5 -272.5
t21 -204.5t37.5 -127.5t56 -43.5z" />
    <glyph glyph-name="R" unicode="R" horiz-adv-x="893" 
d="M734 -17q-84 0 -122.5 40t-49.5 110t-11 158q0 52 1.5 101.5t1.5 85.5q0 85 -11.5 129t-42 60.5t-87.5 16.5h-48v-612h100v-72h-412v72h104v1256h-104v72h422q85 0 153 -33.5t108 -105t40 -186.5q0 -86 -24 -150.5t-63 -107t-85.5 -66t-92.5 -29.5q102 -4 157 -38
t76 -102.5t21 -176.5q0 -53 -2.5 -105t-2.5 -98q0 -29 2 -61t9.5 -54.5t20.5 -22.5q12 0 18 10.5t6 23.5h67q-5 -40 -24 -65.5t-51 -37.5t-74 -12zM365 756h60q48 0 78.5 42.5t45.5 114t15 158.5q0 82 -13.5 139.5t-42.5 87.5t-78 30h-65v-572z" />
    <glyph glyph-name="S" unicode="S" horiz-adv-x="662" 
d="M347 -27q-52 0 -83.5 12.5t-50.5 29.5t-32 29.5t-27 12.5q-26 0 -26 -57h-66v330h72q1 -24 10.5 -60t26.5 -74t42.5 -71.5t58.5 -55t75 -21.5q43 0 67.5 19.5t35 57t10.5 89.5q0 64 -27 127.5t-72.5 132t-104.5 143.5q-78 101 -119.5 183.5t-57 155.5t-15.5 144
q0 104 35 176t92 109t123 37q59 0 89 -18.5t46 -37t32 -18.5q13 0 19.5 11t7.5 41h67v-327h-72q-2 33 -14 80t-34.5 91.5t-56.5 74t-80 29.5q-54 0 -83.5 -40t-29.5 -112q0 -52 21 -109.5t65 -124.5t111 -149q66 -79 112 -157t70 -160t24 -172q0 -99 -21.5 -166.5
t-58 -107.5t-83.5 -58.5t-98 -18.5z" />
    <glyph glyph-name="T" unicode="T" horiz-adv-x="784" 
d="M172 0v72h116v1256h-44q-59 0 -87.5 -24t-37.5 -78t-9 -145h-72v319h707v-319h-71q0 91 -9 145t-37.5 78t-86.5 24h-44v-1256h119v-72h-444z" />
    <glyph glyph-name="U" unicode="U" horiz-adv-x="799" 
d="M421 -24q-48 0 -98.5 14.5t-93 52.5t-69 107t-26.5 178v1000h-98v72h416v-72h-105v-1005q0 -140 32 -200.5t93 -60.5q25 0 47.5 11t40 37.5t27 73t9.5 117.5v1027h-86v72h254v-72h-95v-1036q0 -121 -30.5 -190t-86.5 -97.5t-131 -28.5z" />
    <glyph glyph-name="V" unicode="V" horiz-adv-x="717" 
d="M312 -1l-214 1329h-86v72h392v-72h-80l117 -842h-17l121 842h-82v72h248v-72h-87l-208 -1329h-104z" />
    <glyph glyph-name="W" unicode="W" horiz-adv-x="1146" 
d="M320 -1l-207 1329h-102v72h417v-72h-71l100 -840l-29 -65l136 859l22 -161l-42 207h-82v72h397v-72h-83l109 -826l-21 -64l121 890h-80v72h242v-72h-83l-202 -1329h-96l-177 1107l35 64l-209 -1171h-95z" />
    <glyph glyph-name="X" unicode="X" horiz-adv-x="812" 
d="M365 0v72h105l-349 1256h-87v72h417v-72h-100l349 -1256h87v-72h-422zM17 0v72h89l211 604l74 -27l-206 -577h89v-72h-257zM471 744l-69 32l195 552h-84v72h247v-72h-83z" />
    <glyph glyph-name="Y" unicode="Y" horiz-adv-x="798" 
d="M196 0v72h104v516l-184 740h-95v72h409v-72h-77l153 -679h-61l169 679h-82v72h253v-72h-94l-181 -707v-549h103v-72h-417z" />
    <glyph glyph-name="Z" unicode="Z" horiz-adv-x="709" 
d="M59 0v72l339 1256h-69q-77 0 -115.5 -27.5t-50.5 -83t-12 -136.5h-72v319h548v-71l-341 -1257h90q70 0 114.5 28.5t66 84.5t21.5 137h72v-322h-591z" />
    <glyph glyph-name="bracketleft" unicode="[" horiz-adv-x="294" 
d="M38 -440v1940h218v-72h-146v-1796h146v-72h-218z" />
    <glyph glyph-name="backslash" unicode="\" horiz-adv-x="649" 
d="M614 -104h-76l-493 1608h74z" />
    <glyph glyph-name="bracketright" unicode="]" horiz-adv-x="373" 
d="M336 -440h-218v72h146v1796h-146v72h218v-1940z" />
    <glyph glyph-name="asciicircum" unicode="^" horiz-adv-x="854" 
d="M118 949l266 451h88l264 -451h-83l-225 385l-227 -385h-83z" />
    <glyph glyph-name="underscore" unicode="_" horiz-adv-x="976" 
d="M20 -218v72h939v-72h-939z" />
    <glyph glyph-name="grave" unicode="`" horiz-adv-x="598" 
d="M366 1261l-204 97q-28 14 -42.5 28t-14.5 39q0 23 16.5 37t41.5 14q20 0 34 -8t28 -19l177 -145z" />
    <glyph glyph-name="a" unicode="a" horiz-adv-x="772" 
d="M281 -21q-64 0 -116.5 31.5t-83 90.5t-30.5 143q0 95 39 157t97 104.5t115.5 76.5t96.5 71t39 90q0 74 -12 126.5t-38 80t-67 27.5q-49 0 -80 -28t-31 -65q0 -25 9.5 -42t19 -35t9.5 -50q0 -43 -23.5 -68.5t-61.5 -25.5q-40 0 -63.5 34t-23.5 93q0 77 36.5 138t100.5 96
t149 35q84 0 148.5 -35.5t101 -113t36.5 -204.5v-551q0 -48 9 -64.5t27 -16.5q17 0 29.5 9t18.5 16l39 -58q-15 -20 -58 -38.5t-100 -18.5q-56 0 -88.5 16.5t-47.5 40.5t-20 46q-5 -15 -23 -40.5t-55 -46.5t-98 -21zM348 83q29 0 49 24.5t30.5 60t10.5 68.5v371
q-3 -28 -29.5 -53.5t-60 -59.5t-58.5 -88t-25 -138q0 -91 22.5 -138t60.5 -47z" />
    <glyph glyph-name="b" unicode="b" horiz-adv-x="803" 
d="M462 -20q-49 0 -80 24t-46 56.5t-18 56.5l-18 -117h-284v72h104v1356h-104v72h318v-550q3 13 18 39.5t45.5 47.5t79.5 21q70 0 128.5 -55t94.5 -174t36 -311q0 -203 -38 -320.5t-100.5 -167.5t-135.5 -50zM421 102q29 0 48.5 27t32 79.5t18 129t5.5 176.5q0 97 -5 173
t-17 129t-31.5 81.5t-47.5 28.5q-25 0 -44 -25.5t-31 -67.5t-15 -90v-383q1 -65 13 -124t31.5 -96.5t42.5 -37.5z" />
    <glyph glyph-name="c" unicode="c" horiz-adv-x="666" 
d="M383 -21q-71 0 -131 40t-105 113.5t-69.5 174.5t-24.5 223q0 140 32.5 240.5t84 164t110 94t109.5 30.5q73 0 125 -40t79.5 -103.5t27.5 -135.5q0 -56 -23.5 -86.5t-61.5 -30.5q-39 0 -63 26.5t-24 70.5q0 29 10.5 46t21 34.5t10.5 45.5q0 49 -26.5 74t-63.5 25
q-39 0 -64 -42t-39.5 -109t-20 -145.5t-5.5 -151.5q0 -81 6 -165.5t22 -155.5t45 -114.5t74 -43.5q56 0 86.5 32.5t45.5 75.5l55 -47q-20 -51 -75.5 -95.5t-147.5 -44.5z" />
    <glyph glyph-name="d" unicode="d" horiz-adv-x="811" 
d="M340 -20q-72 0 -134.5 50t-101.5 167.5t-39 320.5q0 192 37.5 311t97 174t126.5 55q54 0 84.5 -18.5t44 -42t16.5 -38.5v468h-118v73h332v-1428h114v-72h-293l-20 118q-2 -26 -19.5 -59t-48.5 -56t-78 -23zM380 102q27 0 46.5 36t31 92t13.5 114v399q-3 52 -15.5 94
t-32 67t-44.5 25q-26 0 -45 -30t-31.5 -84.5t-19 -130.5t-6.5 -170q0 -98 6.5 -174.5t19 -129.5t32 -80.5t45.5 -27.5z" />
    <glyph glyph-name="e" unicode="e" horiz-adv-x="721" 
d="M377 -21q-76 0 -136 38.5t-102 110t-63.5 172.5t-21.5 226q0 140 28 241t75.5 165.5t104 95.5t112.5 31q66 0 120 -35.5t91.5 -97.5t58 -145t20.5 -179q0 -21 -0.5 -41.5t-1.5 -40.5h-410v72h211q0 140 -9.5 226.5t-29 127t-50.5 40.5t-55.5 -41t-39 -135t-14.5 -254
q0 -120 7 -212.5t23 -155.5t42 -95.5t66 -32.5q68 0 107.5 36.5t55.5 72.5l61 -41q-21 -56 -89.5 -102.5t-160.5 -46.5z" />
    <glyph glyph-name="f" unicode="f" horiz-adv-x="589" 
d="M41 0v72h111v903h-128v72h128v118q0 103 31.5 181t94.5 121.5t157 43.5q96 0 147.5 -72.5t51.5 -187.5q0 -59 -22.5 -90.5t-66.5 -31.5q-47 0 -66.5 29.5t-19.5 69.5q0 37 14.5 57t28.5 36t14 38q0 35 -19 57t-45 22q-28 0 -45.5 -21.5t-27.5 -59.5t-13.5 -89t-3.5 -110
v-111h137v-72h-137v-903h115v-72h-436z" />
    <glyph glyph-name="g" unicode="g" horiz-adv-x="796" 
d="M390 -498q-89 0 -166.5 31t-125 90.5t-47.5 144.5q0 65 23 109.5t54.5 71t59 40t36.5 16.5q-8 2 -29.5 10.5t-46 28t-42 51t-17.5 78.5q0 38 13.5 64.5t34 43t39.5 21.5q5 1 12 2.5t9 1.5q-8 6 -26 27t-38 60.5t-34 100t-14 143.5q0 119 29 199.5t76 130t100.5 71
t101.5 21.5q96 0 162.5 -51t102 -143t35.5 -214q0 -125 -29 -206.5t-75 -128.5t-99 -66t-101 -19q-54 0 -87 12t-40 14q-1 1 -2 1h-3q-15 0 -30.5 -16t-15.5 -44q0 -40 46 -67t172 -49q149 -24 229 -91.5t80 -202.5q0 -81 -33.5 -136t-86.5 -88t-113 -47.5t-114 -14.5z
M390 -429q70 0 113 51.5t43 122.5q0 77 -22 117t-82 66q-20 9 -43.5 19t-44 18t-32.5 11q-24 -12 -45.5 -39.5t-35.5 -68.5t-14 -96q0 -57 19 -102.5t55 -72t89 -26.5zM388 305q25 0 46 24t34 97t13 221q0 142 -12.5 214.5t-33.5 97.5t-45 25t-45.5 -25t-35 -98.5
t-13.5 -217.5q0 -147 13.5 -219t35 -95.5t43.5 -23.5zM499 985q11 68 63.5 107t111.5 39q50 0 70.5 -23.5t20.5 -60.5q0 -35 -19.5 -54.5t-49.5 -19.5q-29 0 -41.5 13t-21 26t-29.5 13q-13 0 -23.5 -9t-10.5 -33z" />
    <glyph glyph-name="h" unicode="h" horiz-adv-x="869" 
d="M33 0v72h103v1356h-103v72h313v-551q1 10 22.5 37t61.5 50.5t97 23.5q59 0 108 -29.5t78.5 -101.5t29.5 -200v-657h104v-72h-386v72h72v642q0 121 -19 167.5t-59 46.5q-27 0 -51.5 -23.5t-40.5 -65.5t-17 -99v-668h76v-72h-389z" />
    <glyph glyph-name="i" unicode="i" horiz-adv-x="476" 
d="M31 0v72h104v903h-104v72h314v-975h105v-72h-419zM239 1198q-58 0 -99 41t-41 100q0 57 41 98t99 41q57 0 98 -41t41 -98q0 -59 -41 -100t-98 -41z" />
    <glyph glyph-name="j" unicode="j" horiz-adv-x="493" 
d="M100 -498q-59 0 -103 33.5t-68.5 90.5t-24.5 128q0 60 26.5 91t66.5 31q37 0 57 -26.5t20 -74.5q0 -32 -8 -53t-16.5 -39.5t-8.5 -42.5q0 -20 5.5 -34.5t16.5 -22t26 -7.5q50 0 68.5 55.5t18.5 163.5v1180h-114v72h324v-1108q0 -128 -25.5 -213t-67.5 -134t-92.5 -69.5
t-100.5 -20.5zM277 1198q-59 0 -100.5 41t-41.5 100q0 57 41.5 98t100.5 41q57 0 97.5 -41t40.5 -98q0 -59 -40.5 -100t-97.5 -41z" />
    <glyph glyph-name="k" unicode="k" horiz-adv-x="833" 
d="M31 0v72h103v1356h-103v72h313v-816l205 291h-96v72h289v-72h-106l-121 -190l237 -713h86v-72h-397v72h83l-171 519l-9 -29v-490h71v-72h-384z" />
    <glyph glyph-name="l" unicode="l" horiz-adv-x="485" 
d="M35 0v72h103v1356h-103v72h312v-1428h103v-72h-415z" />
    <glyph glyph-name="m" unicode="m" horiz-adv-x="1193" 
d="M30 0v72h98v903h-98v72h302v-111q2 16 22 45.5t60.5 53t99.5 23.5q58 0 94.5 -27.5t54.5 -61.5t22 -52q6 28 33.5 60.5t72.5 56.5t102 24q92 0 143.5 -74t51.5 -189v-723h94v-72h-377v72h73v625q0 81 -4.5 134.5t-19 80t-47.5 26.5q-34 0 -55 -27t-31 -73t-12 -103v-663
h74v-72h-353v72h71v625q0 121 -10 181t-60 60q-33 0 -53.5 -27.5t-29.5 -76.5t-10 -112v-650h71v-72h-379z" />
    <glyph glyph-name="n" unicode="n" horiz-adv-x="859" 
d="M33 0v72h105v903h-105v72h309v-103q4 17 26 44.5t60.5 49t92.5 21.5q57 0 105 -25.5t78 -95t30 -202.5v-664h103v-72h-390v72h77v656q0 111 -18 161t-58 50q-22 0 -40 -15t-31 -41.5t-20.5 -61.5t-8.5 -75v-674h74v-72h-389z" />
    <glyph glyph-name="o" unicode="o" horiz-adv-x="745" 
d="M370 -22q-59 0 -115.5 34.5t-102 103.5t-72 172t-26.5 239q0 148 28 250.5t74 164.5t102 89.5t112 27.5q55 0 111 -27.5t102.5 -89.5t75.5 -164.5t29 -250.5q0 -136 -27.5 -239t-73 -172t-102.5 -103.5t-115 -34.5zM370 58q48 0 76 111.5t28 357.5q0 245 -28 349t-76 104
q-47 0 -75.5 -104t-28.5 -349q0 -246 28.5 -357.5t75.5 -111.5z" />
    <glyph glyph-name="p" unicode="p" horiz-adv-x="788" 
d="M23 -500v72h102v1403h-102v72h312v-94q3 12 21.5 37.5t52.5 46.5t81 21q65 0 120.5 -55t89 -174t33.5 -311q0 -203 -37 -320.5t-97 -167.5t-130 -50q-41 0 -69 17.5t-43 39.5t-18 33v-498h103v-72h-419zM424 83q24 0 42 29.5t30.5 85t18.5 136t6 181.5q0 103 -6 183
t-18 135.5t-29.5 84t-41.5 28.5q-28 0 -45.5 -28t-26.5 -71.5t-15 -91.5v-458q2 -57 10.5 -106t26.5 -78.5t48 -29.5z" />
    <glyph glyph-name="q" unicode="q" horiz-adv-x="817" 
d="M377 -500v72h108v498q-3 -13 -18 -34.5t-42 -38.5t-69 -17q-70 0 -130.5 50t-97.5 167.5t-37 320.5q0 192 36.5 311t94 174t122.5 55q54 0 87 -21.5t49.5 -47.5t19.5 -42l16 100h182v-1475h104v-72h-425zM399 83q30 0 48 30t27.5 78.5t10.5 105.5v452q-3 52 -13 97
t-28.5 72.5t-46.5 27.5q-23 0 -41 -29.5t-30 -86t-18 -136t-6 -180.5t6 -180.5t18.5 -136t30.5 -85.5t42 -29z" />
    <glyph glyph-name="r" unicode="r" horiz-adv-x="675" 
d="M26 0v72h105v903h-105v72h296l12 -92q4 14 23.5 39t51.5 45t75 20q56 0 91 -36.5t52.5 -98t17.5 -136.5q0 -61 -23 -93t-63 -32q-37 0 -60 27t-23 75q0 31 12 50t23.5 37.5t11.5 49.5q0 39 -14 57t-42 18q-32 0 -61 -30t-47 -85.5t-18 -130.5v-659h105v-72h-420z" />
    <glyph glyph-name="s" unicode="s" horiz-adv-x="588" 
d="M302 -22q-57 0 -86.5 14t-45 28t-30.5 14q-13 0 -18 -8.5t-5 -25.5h-65v317h77q5 -56 18.5 -104.5t34.5 -85t50.5 -57t66.5 -20.5q34 0 54.5 15.5t30 41t9.5 56.5q0 45 -17 88t-50.5 88.5t-83.5 97.5q-77 80 -131 164t-54 207q0 87 33.5 142.5t87 82t112.5 26.5
q43 0 69 -11t41.5 -22.5t26.5 -11.5q9 0 14 7.5t5 25.5h66v-308h-76q-3 49 -13.5 94t-28.5 79t-42.5 54t-57.5 20q-48 0 -72.5 -36t-24.5 -86q0 -60 39 -113t109 -124q54 -54 97.5 -111t69 -123t25.5 -148q0 -90 -29.5 -149.5t-82.5 -88.5t-123 -29z" />
    <glyph glyph-name="t" unicode="t" horiz-adv-x="529" 
d="M355 -18q-55 0 -105.5 18t-81.5 68t-31 144v763h-137v72h137q37 15 65 60.5t46 107.5t24 127h75v-295h158v-72h-158v-845q0 -41 18.5 -55.5t36.5 -14.5q19 0 34 7.5t22 16.5l41 -58q-24 -19 -59.5 -31.5t-84.5 -12.5z" />
    <glyph glyph-name="u" unicode="u" horiz-adv-x="832" 
d="M346 -22q-61 0 -112.5 24.5t-82 92t-30.5 197.5v683h-103v71h313v-730q0 -95 8.5 -145t26 -67.5t43.5 -17.5q31 0 54.5 32t36.5 89.5t13 135.5v632h-93v71h303v-974h89v-72h-273l-12 108q-5 -25 -27.5 -55.5t-61 -52.5t-92.5 -22z" />
    <glyph glyph-name="v" unicode="v" horiz-adv-x="668" 
d="M292 -3l-196 978h-81v72h374v-72h-70l92 -569l95 569h-66v72h221v-72h-75l-185 -978h-109z" />
    <glyph glyph-name="w" unicode="w" horiz-adv-x="1085" 
d="M696 -3l-178 978h-77v72h367v-72h-72l84 -579l93 579h-62v72h221v-72h-77l-174 -978h-125zM269 -3l-175 978h-78v72h374v-72h-70l74 -579l96 579h-36v72h197v-72h-79l-179 -978h-124z" />
    <glyph glyph-name="x" unicode="x" horiz-adv-x="716" 
d="M16 0v72h91l176 471l81 8l154 424h-68v72h236v-72h-83l-180 -457l-76 -10l-154 -436h67v-72h-244zM336 0v72h72l-297 903h-84v72h289h88v-72h-70l298 -903h83v-72h-292h-87z" />
    <glyph glyph-name="y" unicode="y" horiz-adv-x="700" 
d="M209 -502q-47 0 -78.5 34t-47.5 91.5t-16 129.5q0 59 23.5 90t61.5 31t60.5 -27t22.5 -75q0 -37 -14 -60t-27.5 -42.5t-13.5 -49.5q0 -25 9.5 -44t28.5 -19q11 0 18.5 9t13.5 28t13 48l75 355l-241 978h-83v72h384v-72h-77l119 -527l106 527h-74v72h229v-72h-74
l-215 -982l-81 -367q-8 -41 -23 -69.5t-38.5 -43.5t-60.5 -15z" />
    <glyph glyph-name="z" unicode="z" horiz-adv-x="638" 
d="M76 0v72l270 903h-94q-48 0 -69.5 -19.5t-26.5 -70.5t-5 -146h-69v308h480v-72l-270 -903h91q52 0 73.5 20.5t26 73.5t4.5 151h72v-317h-483z" />
    <glyph glyph-name="braceleft" unicode="{" horiz-adv-x="419" 
d="M345 -320q-24 0 -58.5 10.5t-68 45t-56 105.5t-22.5 192q0 82 12 146t23.5 121t11.5 118q0 65 -13.5 102t-58.5 37v70q45 0 58.5 36t13.5 103q0 61 -11.5 117.5t-23.5 120.5t-12 145q0 121 22.5 192t56 105.5t68 45t58.5 10.5v-72q-12 0 -33 -8t-43.5 -36t-37 -85
t-14.5 -157q0 -79 12.5 -141t24.5 -118.5t12 -118.5q0 -97 -26 -131t-53 -42q27 -11 53 -45t26 -130q0 -62 -12 -119t-24.5 -119.5t-12.5 -141.5q0 -99 14.5 -156.5t37 -85.5t43.5 -36t33 -8v-72z" />
    <glyph glyph-name="bar" unicode="|" horiz-adv-x="207" 
d="M68 -329v1829h72v-1829h-72z" />
    <glyph glyph-name="braceright" unicode="}" horiz-adv-x="419" 
d="M74 -320v72q12 0 33.5 8t44 36t37 85.5t14.5 156.5q0 79 -12 141.5t-24.5 119.5t-12.5 119q0 96 26 130t53 45q-27 8 -53 42t-26 131q0 62 12.5 118.5t24.5 118.5t12 141q0 100 -14.5 157t-37 85t-44 36t-33.5 8v72q25 0 59.5 -10.5t68 -45t55.5 -105.5t22 -192
q0 -81 -11.5 -145t-23.5 -120.5t-12 -117.5q0 -67 14 -103t59 -36v-70q-45 0 -59 -37t-14 -102q0 -61 12 -118t23.5 -121t11.5 -146q0 -121 -22 -192t-55.5 -105.5t-68 -45t-59.5 -10.5z" />
    <glyph glyph-name="asciitilde" unicode="~" horiz-adv-x="741" 
d="M505 1269q-65 0 -110 22t-82 44t-82 22q-47 0 -80 -25t-41 -41l-60 46q10 17 31.5 41t59 43t93.5 19q66 0 110 -22t81.5 -44.5t80.5 -22.5q33 0 60 14t45 32t23 29l57 -49q-9 -19 -32.5 -44.5t-61.5 -44.5t-92 -19z" />
    <glyph glyph-name="uni00A0" unicode="&#xa0;" horiz-adv-x="340" 
 />
    <glyph glyph-name="exclamdown" unicode="&#xa1;" horiz-adv-x="346" 
d="M201 768q0 -118 11.5 -236t26.5 -231.5t26.5 -220t11.5 -201.5q0 -83 -26.5 -133.5t-81.5 -50.5q-53 0 -80 50.5t-27 133.5q0 95 11.5 201.5t26 220t26 231.5t11.5 236h64zM173 1141q51 0 87 -37t36 -88q0 -52 -36 -88.5t-87 -36.5t-87.5 36.5t-36.5 88.5q0 51 36.5 88
t87.5 37z" />
    <glyph glyph-name="cent" unicode="&#xa2;" horiz-adv-x="651" 
d="M248 -116l127 1225h54l-127 -1225h-54zM383 -21q-71 0 -131 40t-105 113.5t-69.5 174.5t-24.5 223q0 140 32.5 240.5t84 164t110 94t109.5 30.5q73 0 125 -40t79.5 -103.5t27.5 -135.5q0 -56 -23.5 -86.5t-61.5 -30.5q-39 0 -63 26.5t-24 70.5q0 29 10.5 46t21 34.5
t10.5 45.5q0 49 -26.5 74t-63.5 25q-39 0 -64 -42t-39.5 -109t-20 -145.5t-5.5 -151.5q0 -81 6 -165.5t22 -155.5t45 -114.5t74 -43.5q56 0 86.5 32.5t45.5 75.5l55 -47q-20 -51 -75.5 -95.5t-147.5 -44.5z" />
    <glyph glyph-name="sterling" unicode="&#xa3;" horiz-adv-x="639" 
d="M12 715v72h485v-72h-485zM126 -24q-40 0 -68 26t-28 79q0 56 28.5 95.5t74 62.5t94.5 30q3 15 6 47t3 79q0 61 -24.5 141t-57 168.5t-57 176t-24.5 162.5q0 134 40 217.5t105 122.5t141 39q104 0 161 -73t57 -181q0 -59 -23 -92.5t-63 -33.5q-38 0 -62.5 31.5t-24.5 79.5
q0 32 13 53.5t25.5 40t12.5 37.5q0 35 -22 48.5t-53 13.5q-44 0 -70 -37.5t-37 -98.5t-11 -132q0 -81 19.5 -179t39 -203t19.5 -208q0 -51 -6.5 -98t-13.5 -80t-11 -45q35 -7 59.5 -29t43.5 -47t37 -43t39 -18q26 0 39 18t14 37h62q0 -66 -16.5 -110t-47.5 -66t-73 -22
q-37 0 -65 23.5t-49.5 55t-38.5 57t-34 28.5q-20 -89 -58.5 -131t-94.5 -42zM130 47q22 0 44.5 28.5t32.5 83.5q-37 0 -69.5 -26.5t-32.5 -60.5q0 -13 7 -19t18 -6z" />
    <glyph glyph-name="currency" unicode="&#xa4;" horiz-adv-x="868" 
d="M433 51q-49 0 -104.5 23.5t-103 77.5t-78 146t-30.5 229q0 139 31 228t79.5 138t103 68t102.5 19t103 -19t104 -68t80 -138t31 -228q0 -137 -30.5 -229t-79 -146t-104 -77.5t-104.5 -23.5zM433 116q27 0 52.5 18t46 63t33 125t12.5 205q0 122 -12.5 198t-33 117.5
t-46 56.5t-52.5 15q-26 0 -52.5 -15t-47 -56.5t-33 -117.5t-12.5 -198q0 -125 12.5 -205t33 -125t47 -63t52.5 -18zM764 996l52 -52l-163 -158l-47 48zM773 45l-158 162l47 47l163 -158zM103 996l157 -162l-46 -48l-163 158zM94 45l-52 51l163 158l46 -47z" />
    <glyph glyph-name="yen" unicode="&#xa5;" horiz-adv-x="751" 
d="M157 553v72h488v-72h-488zM157 324v72h488v-72h-488zM196 0v72h104v516l-184 740h-95v72h409v-72h-77l153 -679h-61l169 679h-82v72h253v-72h-94l-181 -707v-549h103v-72h-417z" />
    <glyph glyph-name="brokenbar" unicode="&#xa6;" horiz-adv-x="207" 
d="M68 871v629h72v-629h-72zM68 -329v620h72v-620h-72z" />
    <glyph glyph-name="section" unicode="&#xa7;" horiz-adv-x="595" 
d="M271 -378q-55 0 -103.5 25t-79 71.5t-30.5 112.5q0 57 27 90t69 33q38 0 58 -21.5t20 -59.5q0 -32 -12.5 -48.5t-24.5 -29t-12 -34.5q0 -34 28 -50.5t54 -16.5q38 0 65 18.5t41.5 59t14.5 105.5q0 66 -35 120t-86 107.5t-102.5 116.5t-86.5 145.5t-35 195.5
q0 63 20 111.5t48.5 84t55 57.5t39.5 29q-33 40 -63.5 89t-49.5 108t-19 127q0 84 31.5 140t80.5 84t102 28q83 0 137.5 -55t54.5 -153q0 -55 -20.5 -89.5t-62.5 -34.5q-38 0 -58.5 22t-20.5 59q0 29 12.5 45.5t25 30.5t12.5 35q0 24 -10 39t-28 22t-41 7q-44 0 -70.5 -30
t-26.5 -101q0 -92 35.5 -154.5t88 -112.5t105.5 -104.5t88.5 -129.5t35.5 -188q0 -86 -31.5 -145t-71 -92.5t-63.5 -47.5q32 -36 64 -82.5t53 -106t21 -137.5q0 -95 -37 -161t-93.5 -100t-113.5 -34zM325 301q31 15 57 61t26 101q0 63 -19.5 118.5t-55.5 107.5t-84 103
q-31 -21 -58 -67t-27 -98t15 -98t39.5 -86.5t53 -75.5t53.5 -66z" />
    <glyph glyph-name="dieresis" unicode="&#xa8;" horiz-adv-x="794" 
d="M521 1242q-35 0 -59.5 25t-24.5 58q0 36 24.5 62t59.5 26q33 0 58.5 -26t25.5 -62q0 -33 -25.5 -58t-58.5 -25zM280 1242q-33 0 -57.5 25t-24.5 58q0 36 24.5 62t57.5 26q35 0 60 -26t25 -62q0 -33 -25 -58t-60 -25z" />
    <glyph glyph-name="copyright" unicode="&#xa9;" horiz-adv-x="1189" 
d="M596 -22q-106 0 -199 54.5t-163.5 152.5t-110.5 228.5t-40 282.5t40 282t110.5 228t163.5 152.5t199 54.5q105 0 197 -54.5t162.5 -152.5t110 -228t39.5 -282t-39.5 -282.5t-110 -228.5t-162.5 -152.5t-197 -54.5zM592 235q-73 0 -125.5 61.5t-80.5 168t-28 239.5
q0 123 30.5 229t88 171t135.5 65q74 0 115 -58.5t41 -138.5q0 -43 -16 -69t-46 -26q-32 0 -46.5 19t-14.5 47q0 24 9.5 36.5t19.5 22.5t10 26q0 32 -16.5 51t-51.5 19q-36 0 -58.5 -36.5t-35 -95t-17 -126.5t-4.5 -131q0 -64 4.5 -133.5t16.5 -129.5t33.5 -97.5t54.5 -37.5
q42 0 72 35.5t44 67.5l48 -62q-26 -55 -73 -86t-109 -31zM596 52q93 0 171.5 50t137 138t91 205t32.5 251t-32.5 250.5t-91 204.5t-137 138t-171.5 50t-172 -50t-137.5 -138t-91 -204.5t-32.5 -250.5t32.5 -251t91 -205t137.5 -138t172 -50z" />
    <glyph glyph-name="ordfeminine" unicode="&#xaa;" horiz-adv-x="521" 
d="M213 1135q-53 0 -83 23.5t-30 70.5q0 43 30.5 66.5t70 38t70 27t30.5 33.5q0 38 -5.5 48.5t-37.5 10.5q-21 0 -32 -5t-11 -13q0 -6 0.5 -15t0.5 -19q0 -17 -13.5 -30.5t-39.5 -13.5q-22 0 -34.5 16t-12.5 37q0 42 44 71.5t106 29.5q64 0 105.5 -27t41.5 -99v-158
q0 -30 23 -30q15 0 21 9l21 -44q-6 -9 -28.5 -17t-56.5 -8q-35 0 -56.5 11t-31.5 37q-2 -11 -23.5 -30.5t-68.5 -19.5zM256 1205q16 0 30.5 11.5t14.5 29.5v73q-2 -5 -15 -11t-28 -14.5t-26.5 -21t-11.5 -31.5q0 -20 8.5 -28t27.5 -8z" />
    <glyph glyph-name="guillemotleft" unicode="&#xab;" horiz-adv-x="744" 
d="M538 304l-224 232l224 233h79l-223 -233l226 -232h-82zM348 304l-224 232l224 233h79l-223 -233l226 -232h-82z" />
    <glyph glyph-name="logicalnot" unicode="&#xac;" horiz-adv-x="684" 
d="M487 327v235l32 -33h-430v67h465v-269h-67z" />
    <glyph glyph-name="uni00AD" unicode="&#xad;" horiz-adv-x="551" 
d="M103 526v72h345v-72h-345z" />
    <glyph glyph-name="registered" unicode="&#xae;" horiz-adv-x="916" 
d="M470 380q-113 0 -199 67t-134 184t-48 266q0 150 48 266t134 183t199 67q114 0 199 -67t132.5 -183.5t47.5 -265.5t-47.5 -266t-132.5 -184t-199 -67zM470 436q101 0 173 60.5t110.5 165t38.5 235.5t-38.5 235.5t-110.5 164.5t-173 60q-100 0 -172.5 -60t-111 -164.5
t-38.5 -235.5t38.5 -235.5t111 -165t172.5 -60.5zM605 566q-38 0 -65 19t-27 73q0 45 2 88t2 73q0 29 -15.5 49t-50.5 20h-20v-262h47v-52h-197v52h56v558h-56v53h197q54 0 101.5 -37.5t47.5 -113.5q0 -69 -27 -116.5t-87 -53.5q57 -2 81.5 -30t24.5 -78q0 -48 -2.5 -92.5
t-2.5 -72.5q0 -12 6.5 -19t11.5 -7q15 0 15 18h43q-2 -32 -23 -50.5t-62 -18.5zM432 939h20q24 0 40 19.5t24 52t8 72.5q0 38 -5.5 60t-19 31.5t-37.5 9.5h-30v-245z" />
    <glyph glyph-name="macron" unicode="&#xaf;" horiz-adv-x="927" 
d="M231 1355v72h603v-72h-603z" />
    <glyph glyph-name="degree" unicode="&#xb0;" horiz-adv-x="596" 
d="M297 1160q-42 0 -82.5 22.5t-66 65.5t-25.5 105q0 90 52 138.5t122 48.5q69 0 121.5 -45t52.5 -142t-53 -145t-121 -48zM297 1227q31 0 49.5 27.5t18.5 96.5q0 68 -18.5 96t-49.5 28q-29 0 -48.5 -29t-19.5 -97q0 -69 19.5 -95.5t48.5 -26.5z" />
    <glyph glyph-name="plusminus" unicode="&#xb1;" horiz-adv-x="829" 
d="M380 369v624h72v-624h-72zM103 644v72h622v-72h-622zM113 245v72h605v-72h-605z" />
    <glyph glyph-name="uni00B2" unicode="&#xb2;" horiz-adv-x="688" 
d="M445 697q-50 0 -89 18.5t-77 37t-84 18.5q-37 0 -57 -23.5t-23 -44.5h-60q0 117 35.5 192.5t87 126t103.5 89.5t87.5 80.5t35.5 100.5q0 33 -14.5 61t-41 45t-64.5 17q-25 0 -46 -5t-33.5 -13.5t-12.5 -19.5q0 -10 11.5 -19t23.5 -22.5t12 -39.5q0 -38 -23 -56t-58 -18
t-58.5 24t-23.5 70q0 66 66.5 108.5t177.5 42.5q47 0 95.5 -7t90.5 -27.5t68 -59.5t26 -102q0 -69 -30 -111.5t-78 -69t-104 -47t-109 -45t-93.5 -61.5t-56.5 -98q13 20 37.5 34t57 21.5t68.5 7.5q47 0 81.5 -13t62.5 -26.5t51 -13.5q32 0 45 14t13 37h57v-35q0 -33 -14 -72
t-48.5 -67.5t-94.5 -28.5z" />
    <glyph glyph-name="uni00B3" unicode="&#xb3;" horiz-adv-x="690" 
d="M311 690q-68 0 -119.5 20t-80 54.5t-28.5 77.5q0 46 22.5 74t61.5 28t57 -15.5t18 -46.5q0 -25 -13 -37.5l-26 -25t-13 -35.5q0 -17 25.5 -26.5t63.5 -9.5q30 0 55.5 10.5t41 43.5t15.5 99q0 52 -13 85t-33.5 51t-44 25t-45.5 7v56q23 0 47.5 4t46.5 19.5t36 48.5t14 90
q0 48 -15 75t-41 37.5t-62 10.5q-39 0 -64 -9.5t-25 -26.5q0 -23 13 -35t25.5 -24t12.5 -38q0 -32 -18 -48t-56 -16q-40 0 -62 28.5t-22 74.5q0 44 29 77.5t81 53.5t120 20q75 0 139.5 -18t104 -59t39.5 -109q0 -54 -27 -89.5t-67 -56t-81 -29.5t-69 -10q30 -1 72.5 -11
t84.5 -31t69.5 -60t27.5 -99q0 -90 -81 -147.5t-216 -57.5z" />
    <glyph glyph-name="acute" unicode="&#xb4;" horiz-adv-x="584" 
d="M207 1257l-49 52l184 139q32 29 62 25t43 -28q14 -23 0 -48t-49 -40z" />
    <glyph glyph-name="uni00B5" unicode="&#xb5;" horiz-adv-x="832" 
d="M369 -22q-61 0 -118.5 24.5t-93.5 92t-36 197.5v748h210v-724q0 -95 9.5 -145t27 -67.5t41.5 -17.5q31 0 54.5 32t36.5 89.5t13 135.5v703h210v-974h89v-72h-273l-12 108q-5 -25 -23.5 -55.5t-51.5 -52.5t-83 -22zM121 791h210v-1284h-210v1284z" />
    <glyph glyph-name="paragraph" unicode="&#xb6;" horiz-adv-x="785" 
d="M299 -260q-60 0 -98 26t-56.5 66t-18.5 82q0 44 21 71.5t57 27.5q37 0 57 -21t20 -59q0 -28 -6 -42t-13 -24t-7 -27q0 -18 10 -26.5t32 -8.5q35 0 56.5 25t31.5 73t10 117v678q-7 -38 -44 -62.5t-73 -24.5h-2q-104 0 -170.5 112t-66.5 293q0 117 36.5 203t97.5 133.5
t133 47.5h459v-72h-90v-1223q0 -99 -30 -165.5t-77.5 -106.5t-99.5 -60t-98 -26.5t-71 -6.5zM414 -188q53 24 84 76.5t31 166.5v1273h-62v-1321q0 -69 -8.5 -115t-44.5 -80z" />
    <glyph glyph-name="periodcentered" unicode="&#xb7;" horiz-adv-x="416" 
d="M221 683q-50 0 -86.5 37.5t-36.5 87.5q0 52 36.5 89t86.5 37q52 0 88 -37t36 -89q0 -50 -36 -87.5t-88 -37.5z" />
    <glyph glyph-name="cedilla" unicode="&#xb8;" horiz-adv-x="607" 
d="M288 -277q-50 0 -90.5 13t-55.5 21l26 64q10 -7 45.5 -18.5t74.5 -11.5q31 0 46 10.5t15 31.5q0 23 -14 29.5t-31 6.5q-14 0 -32 -5.5t-28 -15.5l-67 4l55 137h72l-39 -89q6 8 26.5 17t53.5 9q53 0 78 -25.5t25 -67.5q0 -53 -44 -81.5t-116 -28.5z" />
    <glyph glyph-name="uni00B9" unicode="&#xb9;" horiz-adv-x="512" 
d="M80 704v53h75v521q-11 -4 -35.5 -9.5t-41.5 -6.5v56q32 2 67.5 18t68.5 41t56 55.5t30 60.5h55v-736h76v-53h-351z" />
    <glyph glyph-name="ordmasculine" unicode="&#xba;" horiz-adv-x="510" 
d="M255 1140q-79 0 -135.5 54.5t-56.5 136.5q0 80 56.5 134.5t135.5 54.5t135.5 -54.5t56.5 -134.5q0 -82 -56.5 -136.5t-135.5 -54.5zM255 1207q36 0 58 37t22 87q0 49 -22 86t-58 37q-37 0 -58 -37t-21 -86q0 -50 21 -87t58 -37z" />
    <glyph glyph-name="guillemotright" unicode="&#xbb;" horiz-adv-x="751" 
d="M322 304l226 232l-222 233h79l223 -233l-223 -232h-83zM124 304l226 232l-222 233h79l223 -233l-223 -232h-83z" />
    <glyph glyph-name="onequarter" unicode="&#xbc;" horiz-adv-x="1370" 
d="M80 649v53h75v521q-11 -4 -35.5 -9.5t-41.5 -6.5v56q32 2 67.5 18t68.5 41t56 55.5t30 60.5h55v-736h76v-53h-351zM141 0l876 1400h87l-874 -1400h-89zM889 0v54h96v112h-206v53l206 428q46 8 88 44t55 79h63v-551h8q33 0 44 32.5t11 86.5h58v-172h-121v-112h94v-54h-396
zM844 213l-10 6h153v301l2 -14z" />
    <glyph glyph-name="onehalf" unicode="&#xbd;" horiz-adv-x="1421" 
d="M80 649v53h75v521q-11 -4 -35.5 -9.5t-41.5 -6.5v56q32 2 67.5 18t68.5 41t56 55.5t30 60.5h55v-736h76v-53h-351zM141 0l876 1400h87l-874 -1400h-89zM1178 -6q-50 0 -89 18.5t-77 37t-84 18.5q-37 0 -57 -23.5t-23 -44.5h-60q0 116 35.5 192t87 126.5t103.5 89.5
t87.5 80.5t35.5 100.5q0 33 -14.5 61t-41 45t-64.5 17q-25 0 -46 -5t-33.5 -13.5t-12.5 -19.5q0 -10 11.5 -19t23.5 -22.5t12 -39.5q0 -38 -23 -56t-58 -18t-58.5 24t-23.5 70q0 66 66.5 108.5t177.5 42.5q47 0 95.5 -7t90.5 -27.5t68 -59.5t26 -102q0 -69 -30 -111.5
t-78 -69t-104 -47t-109 -45t-93.5 -61.5t-56.5 -98q13 20 37.5 34t57 21.5t68.5 7.5q47 0 81.5 -13t62.5 -26.5t51 -13.5q32 0 45 14t13 37h57v-35q0 -33 -14 -72t-48.5 -67.5t-94.5 -28.5z" />
    <glyph glyph-name="threequarters" unicode="&#xbe;" horiz-adv-x="1548" 
d="M311 635q-68 0 -119.5 20t-80 54.5t-28.5 77.5q0 46 22.5 74t61.5 28t57 -15.5t18 -46.5q0 -25 -13 -37.5l-26 -25t-13 -35.5q0 -17 25.5 -26.5t63.5 -9.5q30 0 55.5 10.5t41 43.5t15.5 99q0 52 -13 85t-33.5 51t-44 25t-45.5 7v56q23 0 47.5 4t46.5 19.5t36 48.5t14 90
q0 48 -15 75t-41 37.5t-62 10.5q-39 0 -64 -9.5t-25 -26.5q0 -23 13 -35t25.5 -24t12.5 -38q0 -32 -18 -48t-56 -16q-40 0 -62 28.5t-22 74.5q0 44 29 77.5t81 53.5t120 20q75 0 139.5 -18t104 -59t39.5 -109q0 -54 -27 -89.5t-67 -56t-81 -29.5t-69 -10q30 -1 72.5 -11
t84.5 -31t69.5 -60t27.5 -99q0 -90 -81 -147.5t-216 -57.5zM319 0l876 1400h87l-874 -1400h-89zM1067 0v54h96v112h-206v53l206 428q46 8 88 44t55 79h63v-551h8q33 0 44 32.5t11 86.5h58v-172h-121v-112h94v-54h-396zM1022 213l-10 6h153v301l2 -14z" />
    <glyph glyph-name="questiondown" unicode="&#xbf;" horiz-adv-x="654" 
d="M449 804q0 -122 -18 -215t-44 -167.5t-52.5 -140.5t-44.5 -132.5t-18 -145.5q0 -127 40.5 -186.5t114.5 -59.5q49 0 72.5 26t23.5 61q0 28 -12.5 47.5t-25.5 40.5t-13 53q0 51 23 72.5t60 21.5t64 -33.5t27 -101.5q0 -76 -33 -134.5t-92 -91.5t-139 -33
q-50 0 -103.5 14.5t-99.5 49t-74.5 95t-28.5 152.5t30.5 163t75 136t89 136.5t75 161t30.5 211.5h73zM412 1138q50 0 87 -37.5t37 -87.5q0 -52 -37 -89t-87 -37t-87 37t-37 89q0 50 37 87.5t87 37.5z" />
    <glyph glyph-name="Agrave" unicode="&#xc0;" horiz-adv-x="702" 
d="M2 0v72h80l187 1330h127l213 -1330h95v-72h-400v72h79l-114 865h1l-112 -865h71v-72h-227zM158 280v68h227v-68h-227zM441 1448l-204 98q-28 13 -42.5 27t-14.5 39q0 23 16.5 37t41.5 14q20 0 34 -7.5t29 -19.5l176 -145z" />
    <glyph glyph-name="Aacute" unicode="&#xc1;" horiz-adv-x="702" 
d="M2 0v72h80l187 1330h127l213 -1330h95v-72h-400v72h79l-114 865h1l-112 -865h71v-72h-227zM158 280v68h227v-68h-227zM231 1442l-49 53l183 139q15 11 30 18t28 7q16 0 28.5 -8t19.5 -21q7 -11 7 -24q0 -19 -15 -36t-41 -28z" />
    <glyph glyph-name="Acircumflex" unicode="&#xc2;" horiz-adv-x="702" 
d="M2 0v72h80l187 1330h127l213 -1330h95v-72h-400v72h79l-114 865h1l-112 -865h71v-72h-227zM158 280v68h227v-68h-227zM153 1464l147 204h70l146 -204h-83l-99 133l-98 -133h-83z" />
    <glyph glyph-name="Atilde" unicode="&#xc3;" horiz-adv-x="702" 
d="M2 0v72h80l187 1330h127l213 -1330h95v-72h-400v72h79l-114 865h1l-112 -865h71v-72h-227zM158 280v68h227v-68h-227zM421 1486q-39 0 -65 14.5t-46.5 29t-44.5 14.5q-33 0 -50 -16t-22 -26l-71 30q5 18 23 42t45 42.5t60 18.5q43 0 68.5 -14.5t47 -29t50.5 -14.5
q31 0 45 14.5t19 25.5l70 -34q-4 -14 -21 -37t-44 -41.5t-64 -18.5z" />
    <glyph glyph-name="Adieresis" unicode="&#xc4;" horiz-adv-x="702" 
d="M2 0v72h80l187 1330h127l213 -1330h95v-72h-400v72h79l-114 865h1l-112 -865h71v-72h-227zM158 280v68h227v-68h-227zM455 1501q-35 0 -59.5 25t-24.5 58q0 36 24.5 62t59.5 26q33 0 58.5 -26t25.5 -62q0 -33 -25.5 -58t-58.5 -25zM214 1501q-33 0 -57.5 25t-24.5 58
q0 36 24.5 62t57.5 26q35 0 60 -26t25 -62q0 -33 -25 -58t-60 -25z" />
    <glyph glyph-name="Aring" unicode="&#xc5;" horiz-adv-x="702" 
d="M2 0v72h80l187 1330h127l213 -1330h95v-72h-400v72h79l-114 865h1l-112 -865h71v-72h-227zM158 280v68h227v-68h-227zM336 1466q-44 0 -77 32.5t-33 85.5q0 55 33 86.5t77 31.5q43 0 75 -31.5t32 -86.5q0 -53 -32 -85.5t-75 -32.5zM336 1522q25 0 36 19.5t11 44.5
q0 21 -11 40t-36 19t-37 -19t-12 -40q0 -25 12 -44.5t37 -19.5z" />
    <glyph glyph-name="AE" unicode="&#xc6;" horiz-adv-x="1082" 
d="M396 0v72h78v1328h513v-319h-72q0 77 -8 132.5t-39.5 85t-100.5 29.5h-84v-572h225v95h71v-258h-71v91h-225v-612h80q71 0 103 30t40.5 86.5t8.5 133.5h72v-322h-591zM212 311l4 72h282l-4 -72h-282zM17 0v72h56l342 1328h76l-335 -1328h76v-72h-215z" />
    <glyph glyph-name="Ccedilla" unicode="&#xc7;" horiz-adv-x="704" 
d="M419 -20q-157 0 -255.5 185t-98.5 533q0 133 22.5 262t67.5 233.5t113.5 166.5t159.5 62q63 0 111 -42t75 -104.5t27 -124.5q0 -55 -20.5 -88.5t-64.5 -33.5q-48 0 -69 27.5t-21 74.5q0 33 13.5 54.5t26.5 43.5t13 54q0 34 -15.5 49.5t-38.5 15.5q-38 0 -67.5 -42.5
t-50 -112.5t-33.5 -155.5t-19 -173.5t-6 -164q0 -113 7 -212t21 -179t34 -137.5t45 -88.5t55 -31q37 0 61 22t39.5 58t25.5 78l62 -34q-19 -55 -48 -99.5t-71 -70.5t-101 -26zM432 -315q-50 0 -92.5 10.5t-57.5 18.5l27 66q11 -7 44.5 -17.5t72.5 -10.5q31 0 54 16t23 44
q0 31 -15 41t-36 10q-16 0 -32 -6.5t-28 -20.5l-67 4l60 160h72l-43 -106q4 7 28 16.5t58 9.5q38 0 72 -24t34 -85q0 -43 -23.5 -71t-63 -41.5t-87.5 -13.5z" />
    <glyph glyph-name="Egrave" unicode="&#xc8;" horiz-adv-x="723" 
d="M49 0v72h94v1256h-94v72h597v-319h-72q0 81 -13.5 136.5t-43 83t-78.5 27.5h-85v-592h175v95h70v-258h-70v91h-175v-592h85q49 0 78.5 28.5t43 84.5t13.5 137h72v-322h-597zM479 1448l-204 98q-28 13 -42.5 27t-14.5 39q0 23 16.5 37t41.5 14q20 0 34 -7.5t29 -19.5
l176 -145z" />
    <glyph glyph-name="Eacute" unicode="&#xc9;" horiz-adv-x="723" 
d="M49 0v72h94v1256h-94v72h597v-319h-72q0 81 -13.5 136.5t-43 83t-78.5 27.5h-85v-592h175v95h70v-258h-70v91h-175v-592h85q49 0 78.5 28.5t43 84.5t13.5 137h72v-322h-597zM269 1442l-49 53l183 139q15 11 30 18t28 7q16 0 28.5 -8t19.5 -21q7 -11 7 -24q0 -19 -15 -36
t-41 -28z" />
    <glyph glyph-name="Ecircumflex" unicode="&#xca;" horiz-adv-x="723" 
d="M49 0v72h94v1256h-94v72h597v-319h-72q0 81 -13.5 136.5t-43 83t-78.5 27.5h-85v-592h175v95h70v-258h-70v91h-175v-592h85q49 0 78.5 28.5t43 84.5t13.5 137h72v-322h-597zM191 1464l147 204h70l146 -204h-83l-99 133l-98 -133h-83z" />
    <glyph glyph-name="Edieresis" unicode="&#xcb;" horiz-adv-x="723" 
d="M49 0v72h94v1256h-94v72h597v-319h-72q0 81 -13.5 136.5t-43 83t-78.5 27.5h-85v-592h175v95h70v-258h-70v91h-175v-592h85q49 0 78.5 28.5t43 84.5t13.5 137h72v-322h-597zM493 1501q-35 0 -59.5 25t-24.5 58q0 36 24.5 62t59.5 26q33 0 58.5 -26t25.5 -62
q0 -33 -25.5 -58t-58.5 -25zM252 1501q-33 0 -57.5 25t-24.5 58q0 36 24.5 62t57.5 26q35 0 60 -26t25 -62q0 -33 -25 -58t-60 -25z" />
    <glyph glyph-name="Igrave" unicode="&#xcc;" horiz-adv-x="530" 
d="M64 0v72h97v1256h-97v72h403v-72h-98v-1256h98v-72h-403zM373 1448l-204 98q-28 13 -42.5 27t-14.5 39q0 23 16.5 37t41.5 14q20 0 34 -7.5t29 -19.5l176 -145z" />
    <glyph glyph-name="Iacute" unicode="&#xcd;" horiz-adv-x="530" 
d="M64 0v72h97v1256h-97v72h403v-72h-98v-1256h98v-72h-403zM163 1442l-49 53l183 139q15 11 30 18t28 7q16 0 28.5 -8t19.5 -21q7 -11 7 -24q0 -19 -15 -36t-41 -28z" />
    <glyph glyph-name="Icircumflex" unicode="&#xce;" horiz-adv-x="530" 
d="M64 0v72h97v1256h-97v72h403v-72h-98v-1256h98v-72h-403zM85 1464l147 204h70l146 -204h-83l-99 133l-98 -133h-83z" />
    <glyph glyph-name="Idieresis" unicode="&#xcf;" horiz-adv-x="530" 
d="M64 0v72h97v1256h-97v72h403v-72h-98v-1256h98v-72h-403zM387 1501q-35 0 -59.5 25t-24.5 58q0 36 24.5 62t59.5 26q33 0 58.5 -26t25.5 -62q0 -33 -25.5 -58t-58.5 -25zM146 1501q-33 0 -57.5 25t-24.5 58q0 36 24.5 62t57.5 26q35 0 60 -26t25 -62q0 -33 -25 -58
t-60 -25z" />
    <glyph glyph-name="Eth" unicode="&#xd0;" horiz-adv-x="878" 
d="M49 681v72h434v-72h-434zM49 0v72h93v1256h-93v72h360q97 0 180 -77t133.5 -229.5t50.5 -382.5q0 -232 -51 -390t-134 -239.5t-179 -81.5h-360zM353 72h38q45 0 84.5 69.5t65 211.5t25.5 358q0 195 -23.5 333t-60 211t-76.5 73h-53v-1256z" />
    <glyph glyph-name="Ntilde" unicode="&#xd1;" horiz-adv-x="825" 
d="M30 0v72h93v1256h-93v72h336l277 -928h-11v856h-89v72h252v-72h-89v-1328h-142l-381 1268h14v-1196h94v-72h-261zM502 1486q-39 0 -65 14.5t-46.5 29t-44.5 14.5q-33 0 -50 -16t-22 -26l-71 30q5 18 23 42t45 42.5t60 18.5q43 0 68.5 -14.5t47 -29t50.5 -14.5
q31 0 45 14.5t19 25.5l70 -34q-4 -14 -21 -37t-44 -41.5t-64 -18.5z" />
    <glyph glyph-name="Ograve" unicode="&#xd2;" horiz-adv-x="814" 
d="M409 -22q-104 0 -181.5 87t-120 248t-42.5 385q0 225 42.5 387t120 249.5t181.5 87.5t182.5 -87.5t122.5 -249.5t44 -387q0 -224 -44 -385t-122.5 -248t-182.5 -87zM409 50q33 0 57 43.5t39.5 127.5t22.5 204.5t7 272.5t-7 273t-22.5 205.5t-39.5 129t-57 44.5t-56 -44.5
t-37.5 -129t-21 -205.5t-6.5 -273t6.5 -272.5t21 -204.5t37.5 -127.5t56 -43.5zM516 1448l-204 98q-28 13 -42.5 27t-14.5 39q0 23 16.5 37t41.5 14q20 0 34 -7.5t29 -19.5l176 -145z" />
    <glyph glyph-name="Oacute" unicode="&#xd3;" horiz-adv-x="814" 
d="M409 -22q-104 0 -181.5 87t-120 248t-42.5 385q0 225 42.5 387t120 249.5t181.5 87.5t182.5 -87.5t122.5 -249.5t44 -387q0 -224 -44 -385t-122.5 -248t-182.5 -87zM409 50q33 0 57 43.5t39.5 127.5t22.5 204.5t7 272.5t-7 273t-22.5 205.5t-39.5 129t-57 44.5t-56 -44.5
t-37.5 -129t-21 -205.5t-6.5 -273t6.5 -272.5t21 -204.5t37.5 -127.5t56 -43.5zM305 1442l-49 53l183 139q15 11 30 18t28 7q16 0 28.5 -8t19.5 -21q7 -11 7 -24q0 -19 -15 -36t-41 -28z" />
    <glyph glyph-name="Ocircumflex" unicode="&#xd4;" horiz-adv-x="814" 
d="M409 -22q-104 0 -181.5 87t-120 248t-42.5 385q0 225 42.5 387t120 249.5t181.5 87.5t182.5 -87.5t122.5 -249.5t44 -387q0 -224 -44 -385t-122.5 -248t-182.5 -87zM409 50q33 0 57 43.5t39.5 127.5t22.5 204.5t7 272.5t-7 273t-22.5 205.5t-39.5 129t-57 44.5t-56 -44.5
t-37.5 -129t-21 -205.5t-6.5 -273t6.5 -272.5t21 -204.5t37.5 -127.5t56 -43.5zM228 1464l147 204h70l146 -204h-83l-99 133l-98 -133h-83z" />
    <glyph glyph-name="Otilde" unicode="&#xd5;" horiz-adv-x="814" 
d="M409 -22q-104 0 -181.5 87t-120 248t-42.5 385q0 225 42.5 387t120 249.5t181.5 87.5t182.5 -87.5t122.5 -249.5t44 -387q0 -224 -44 -385t-122.5 -248t-182.5 -87zM409 50q33 0 57 43.5t39.5 127.5t22.5 204.5t7 272.5t-7 273t-22.5 205.5t-39.5 129t-57 44.5t-56 -44.5
t-37.5 -129t-21 -205.5t-6.5 -273t6.5 -272.5t21 -204.5t37.5 -127.5t56 -43.5zM495 1486q-39 0 -65 14.5t-46.5 29t-44.5 14.5q-33 0 -50 -16t-22 -26l-71 30q5 18 23 42t45 42.5t60 18.5q43 0 68.5 -14.5t47 -29t50.5 -14.5q31 0 45 14.5t19 25.5l70 -34q-4 -14 -21 -37
t-44 -41.5t-64 -18.5z" />
    <glyph glyph-name="Odieresis" unicode="&#xd6;" horiz-adv-x="814" 
d="M409 -22q-104 0 -181.5 87t-120 248t-42.5 385q0 225 42.5 387t120 249.5t181.5 87.5t182.5 -87.5t122.5 -249.5t44 -387q0 -224 -44 -385t-122.5 -248t-182.5 -87zM409 50q33 0 57 43.5t39.5 127.5t22.5 204.5t7 272.5t-7 273t-22.5 205.5t-39.5 129t-57 44.5t-56 -44.5
t-37.5 -129t-21 -205.5t-6.5 -273t6.5 -272.5t21 -204.5t37.5 -127.5t56 -43.5zM529 1501q-35 0 -59.5 25t-24.5 58q0 36 24.5 62t59.5 26q33 0 58.5 -26t25.5 -62q0 -33 -25.5 -58t-58.5 -25zM288 1501q-33 0 -57.5 25t-24.5 58q0 36 24.5 62t57.5 26q35 0 60 -26t25 -62
q0 -33 -25 -58t-60 -25z" />
    <glyph glyph-name="multiply" unicode="&#xd7;" horiz-adv-x="755" 
d="M608 293l-493 492l49 49l493 -492zM164 293l-45 45l490 491l46 -45z" />
    <glyph glyph-name="Oslash" unicode="&#xd8;" horiz-adv-x="835" 
d="M149 -104l495 1608h74l-494 -1608h-75zM409 -22q-104 0 -181.5 87t-120 248t-42.5 385q0 225 42.5 387t120 249.5t181.5 87.5t182.5 -87.5t122.5 -249.5t44 -387q0 -224 -44 -385t-122.5 -248t-182.5 -87zM409 50q33 0 57 43.5t39.5 127.5t22.5 204.5t7 272.5t-7 273
t-22.5 205.5t-39.5 129t-57 44.5t-56 -44.5t-37.5 -129t-21 -205.5t-6.5 -273t6.5 -272.5t21 -204.5t37.5 -127.5t56 -43.5z" />
    <glyph glyph-name="Ugrave" unicode="&#xd9;" horiz-adv-x="799" 
d="M421 -24q-48 0 -98.5 14.5t-93 52.5t-69 107t-26.5 178v1000h-98v72h416v-72h-105v-1005q0 -140 32 -200.5t93 -60.5q25 0 47.5 11t40 37.5t27 73t9.5 117.5v1027h-86v72h254v-72h-95v-1036q0 -121 -30.5 -190t-86.5 -97.5t-131 -28.5zM519 1448l-204 98q-28 13 -42.5 27
t-14.5 39q0 23 16.5 37t41.5 14q20 0 34 -7.5t29 -19.5l176 -145z" />
    <glyph glyph-name="Uacute" unicode="&#xda;" horiz-adv-x="799" 
d="M421 -24q-48 0 -98.5 14.5t-93 52.5t-69 107t-26.5 178v1000h-98v72h416v-72h-105v-1005q0 -140 32 -200.5t93 -60.5q25 0 47.5 11t40 37.5t27 73t9.5 117.5v1027h-86v72h254v-72h-95v-1036q0 -121 -30.5 -190t-86.5 -97.5t-131 -28.5zM308 1442l-49 53l183 139
q15 11 30 18t28 7q16 0 28.5 -8t19.5 -21q7 -11 7 -24q0 -19 -15 -36t-41 -28z" />
    <glyph glyph-name="Ucircumflex" unicode="&#xdb;" horiz-adv-x="799" 
d="M421 -24q-48 0 -98.5 14.5t-93 52.5t-69 107t-26.5 178v1000h-98v72h416v-72h-105v-1005q0 -140 32 -200.5t93 -60.5q25 0 47.5 11t40 37.5t27 73t9.5 117.5v1027h-86v72h254v-72h-95v-1036q0 -121 -30.5 -190t-86.5 -97.5t-131 -28.5zM231 1464l147 204h70l146 -204h-83
l-99 133l-98 -133h-83z" />
    <glyph glyph-name="Udieresis" unicode="&#xdc;" horiz-adv-x="799" 
d="M421 -24q-48 0 -98.5 14.5t-93 52.5t-69 107t-26.5 178v1000h-98v72h416v-72h-105v-1005q0 -140 32 -200.5t93 -60.5q25 0 47.5 11t40 37.5t27 73t9.5 117.5v1027h-86v72h254v-72h-95v-1036q0 -121 -30.5 -190t-86.5 -97.5t-131 -28.5zM532 1501q-35 0 -59.5 25t-24.5 58
q0 36 24.5 62t59.5 26q33 0 58.5 -26t25.5 -62q0 -33 -25.5 -58t-58.5 -25zM291 1501q-33 0 -57.5 25t-24.5 58q0 36 24.5 62t57.5 26q35 0 60 -26t25 -62q0 -33 -25 -58t-60 -25z" />
    <glyph glyph-name="Yacute" unicode="&#xdd;" horiz-adv-x="798" 
d="M196 0v72h104v516l-184 740h-95v72h409v-72h-77l153 -679h-61l169 679h-82v72h253v-72h-94l-181 -707v-549h103v-72h-417zM295 1442l-49 53l183 139q15 11 30 18t28 7q16 0 28.5 -8t19.5 -21q7 -11 7 -24q0 -19 -15 -36t-41 -28z" />
    <glyph glyph-name="Thorn" unicode="&#xde;" horiz-adv-x="895" 
d="M342 307v79h41q59 0 101 47t64.5 130.5t22.5 191.5q0 101 -20.5 178t-57.5 120t-88 43h-63v79h150q93 0 164 -52t111 -146.5t40 -222.5q0 -133 -41.5 -234t-115.5 -157t-172 -56h-136zM64 0v72h97v1256h-97v72h403v-72h-98v-1256h98v-72h-403z" />
    <glyph glyph-name="germandbls" unicode="&#xdf;" horiz-adv-x="938" 
d="M587 -23q-57 0 -101 37t-44 107q0 48 21 76.5t55 28.5q30 0 46.5 -19.5t16.5 -53.5q0 -21 -8 -34t-16 -21.5t-8 -19.5q0 -14 9 -22t30 -8q33 0 53 22.5t29.5 66.5t9.5 109q0 69 -22.5 121.5t-55 97t-66 88t-55.5 94t-22 115.5t19 111t46.5 81.5t55.5 71t47 77t19 100.5
q0 77 -32 113.5t-95 36.5q-62 0 -96.5 -46t-48.5 -121t-14 -162v-1024h-321v72h103v888q0 142 46.5 246t126.5 161t182 57t162.5 -57t60.5 -163q0 -74 -20.5 -129.5t-48 -98.5t-48 -79t-20.5 -73q0 -43 27.5 -85t68 -87t80.5 -96t67.5 -110.5t27.5 -132.5q0 -112 -37 -186.5
t-98 -112t-132 -37.5z" />
    <glyph glyph-name="agrave" unicode="&#xe0;" horiz-adv-x="772" 
d="M281 -21q-64 0 -116.5 31.5t-83 90.5t-30.5 143q0 95 39 157t97 104.5t115.5 76.5t96.5 71t39 90q0 74 -12 126.5t-38 80t-67 27.5q-49 0 -80 -28t-31 -65q0 -25 9.5 -42t19 -35t9.5 -50q0 -43 -23.5 -68.5t-61.5 -25.5q-40 0 -63.5 34t-23.5 93q0 77 36.5 138t100.5 96
t149 35q84 0 148.5 -35.5t101 -113t36.5 -204.5v-551q0 -48 9 -64.5t27 -16.5q17 0 29.5 9t18.5 16l39 -58q-15 -20 -58 -38.5t-100 -18.5q-56 0 -88.5 16.5t-47.5 40.5t-20 46q-5 -15 -23 -40.5t-55 -46.5t-98 -21zM348 83q29 0 49 24.5t30.5 60t10.5 68.5v371
q-3 -28 -29.5 -53.5t-60 -59.5t-58.5 -88t-25 -138q0 -91 22.5 -138t60.5 -47zM479 1104l-204 98q-28 13 -42.5 27t-14.5 39q0 23 16.5 37t41.5 14q20 0 34 -7.5t29 -19.5l176 -145z" />
    <glyph glyph-name="aacute" unicode="&#xe1;" horiz-adv-x="772" 
d="M281 -21q-64 0 -116.5 31.5t-83 90.5t-30.5 143q0 95 39 157t97 104.5t115.5 76.5t96.5 71t39 90q0 74 -12 126.5t-38 80t-67 27.5q-49 0 -80 -28t-31 -65q0 -25 9.5 -42t19 -35t9.5 -50q0 -43 -23.5 -68.5t-61.5 -25.5q-40 0 -63.5 34t-23.5 93q0 77 36.5 138t100.5 96
t149 35q84 0 148.5 -35.5t101 -113t36.5 -204.5v-551q0 -48 9 -64.5t27 -16.5q17 0 29.5 9t18.5 16l39 -58q-15 -20 -58 -38.5t-100 -18.5q-56 0 -88.5 16.5t-47.5 40.5t-20 46q-5 -15 -23 -40.5t-55 -46.5t-98 -21zM348 83q29 0 49 24.5t30.5 60t10.5 68.5v371
q-3 -28 -29.5 -53.5t-60 -59.5t-58.5 -88t-25 -138q0 -91 22.5 -138t60.5 -47zM268 1083l-49 52l184 140q14 11 29 18t28 7q16 0 28.5 -8t19.5 -21q7 -11 7 -25q0 -19 -15 -35.5t-41 -27.5z" />
    <glyph glyph-name="acircumflex" unicode="&#xe2;" horiz-adv-x="772" 
d="M281 -21q-64 0 -116.5 31.5t-83 90.5t-30.5 143q0 95 39 157t97 104.5t115.5 76.5t96.5 71t39 90q0 74 -12 126.5t-38 80t-67 27.5q-49 0 -80 -28t-31 -65q0 -25 9.5 -42t19 -35t9.5 -50q0 -43 -23.5 -68.5t-61.5 -25.5q-40 0 -63.5 34t-23.5 93q0 77 36.5 138t100.5 96
t149 35q84 0 148.5 -35.5t101 -113t36.5 -204.5v-551q0 -48 9 -64.5t27 -16.5q17 0 29.5 9t18.5 16l39 -58q-15 -20 -58 -38.5t-100 -18.5q-56 0 -88.5 16.5t-47.5 40.5t-20 46q-5 -15 -23 -40.5t-55 -46.5t-98 -21zM348 83q29 0 49 24.5t30.5 60t10.5 68.5v371
q-3 -28 -29.5 -53.5t-60 -59.5t-58.5 -88t-25 -138q0 -91 22.5 -138t60.5 -47zM191 1126l147 204h70l146 -204h-83l-99 133l-98 -133h-83z" />
    <glyph glyph-name="atilde" unicode="&#xe3;" horiz-adv-x="772" 
d="M281 -21q-64 0 -116.5 31.5t-83 90.5t-30.5 143q0 95 39 157t97 104.5t115.5 76.5t96.5 71t39 90q0 74 -12 126.5t-38 80t-67 27.5q-49 0 -80 -28t-31 -65q0 -25 9.5 -42t19 -35t9.5 -50q0 -43 -23.5 -68.5t-61.5 -25.5q-40 0 -63.5 34t-23.5 93q0 77 36.5 138t100.5 96
t149 35q84 0 148.5 -35.5t101 -113t36.5 -204.5v-551q0 -48 9 -64.5t27 -16.5q17 0 29.5 9t18.5 16l39 -58q-15 -20 -58 -38.5t-100 -18.5q-56 0 -88.5 16.5t-47.5 40.5t-20 46q-5 -15 -23 -40.5t-55 -46.5t-98 -21zM348 83q29 0 49 24.5t30.5 60t10.5 68.5v371
q-3 -28 -29.5 -53.5t-60 -59.5t-58.5 -88t-25 -138q0 -91 22.5 -138t60.5 -47zM458 1137q-39 0 -65 14.5t-46.5 29t-44.5 14.5q-33 0 -50 -16t-22 -26l-71 30q5 18 23 42t45 42.5t60 18.5q43 0 68.5 -14.5t47 -29t50.5 -14.5q31 0 45 14.5t19 25.5l70 -34q-4 -13 -21 -36.5
t-44 -42t-64 -18.5z" />
    <glyph glyph-name="adieresis" unicode="&#xe4;" horiz-adv-x="772" 
d="M281 -21q-64 0 -116.5 31.5t-83 90.5t-30.5 143q0 95 39 157t97 104.5t115.5 76.5t96.5 71t39 90q0 74 -12 126.5t-38 80t-67 27.5q-49 0 -80 -28t-31 -65q0 -25 9.5 -42t19 -35t9.5 -50q0 -43 -23.5 -68.5t-61.5 -25.5q-40 0 -63.5 34t-23.5 93q0 77 36.5 138t100.5 96
t149 35q84 0 148.5 -35.5t101 -113t36.5 -204.5v-551q0 -48 9 -64.5t27 -16.5q17 0 29.5 9t18.5 16l39 -58q-15 -20 -58 -38.5t-100 -18.5q-56 0 -88.5 16.5t-47.5 40.5t-20 46q-5 -15 -23 -40.5t-55 -46.5t-98 -21zM348 83q29 0 49 24.5t30.5 60t10.5 68.5v371
q-3 -28 -29.5 -53.5t-60 -59.5t-58.5 -88t-25 -138q0 -91 22.5 -138t60.5 -47zM492 1130q-35 0 -59.5 25.5t-24.5 58.5q0 35 24.5 61t59.5 26q33 0 58.5 -26t25.5 -61q0 -33 -25.5 -58.5t-58.5 -25.5zM251 1130q-33 0 -57.5 25.5t-24.5 58.5q0 35 24.5 61t57.5 26
q35 0 60 -26t25 -61q0 -33 -25 -58.5t-60 -25.5z" />
    <glyph glyph-name="aring" unicode="&#xe5;" horiz-adv-x="772" 
d="M281 -21q-64 0 -116.5 31.5t-83 90.5t-30.5 143q0 95 39 157t97 104.5t115.5 76.5t96.5 71t39 90q0 74 -12 126.5t-38 80t-67 27.5q-49 0 -80 -28t-31 -65q0 -25 9.5 -42t19 -35t9.5 -50q0 -43 -23.5 -68.5t-61.5 -25.5q-40 0 -63.5 34t-23.5 93q0 77 36.5 138t100.5 96
t149 35q84 0 148.5 -35.5t101 -113t36.5 -204.5v-551q0 -48 9 -64.5t27 -16.5q17 0 29.5 9t18.5 16l39 -58q-15 -20 -58 -38.5t-100 -18.5q-56 0 -88.5 16.5t-47.5 40.5t-20 46q-5 -15 -23 -40.5t-55 -46.5t-98 -21zM348 83q29 0 49 24.5t30.5 60t10.5 68.5v371
q-3 -28 -29.5 -53.5t-60 -59.5t-58.5 -88t-25 -138q0 -91 22.5 -138t60.5 -47zM373 1097q-44 0 -77 32.5t-33 85.5q0 55 33 86.5t77 31.5q43 0 75 -31.5t32 -86.5q0 -53 -32 -85.5t-75 -32.5zM373 1153q25 0 36 19.5t11 44.5q0 21 -11 40t-36 19t-37 -19t-12 -40
q0 -25 12 -44.5t37 -19.5z" />
    <glyph glyph-name="ae" unicode="&#xe6;" horiz-adv-x="1110" 
d="M305 -20q-134 0 -194 68.5t-60 180.5q0 100 38 164.5t94.5 108t113 77.5t94.5 71t38 90q0 67 -11.5 121t-36.5 85t-65 31q-42 0 -72 -22.5t-30 -62.5q0 -25 9 -42.5t18 -35.5t9 -50q0 -43 -23 -68t-62 -25q-40 0 -63 33.5t-23 92.5q0 74 34.5 133t97.5 94t146 35
q84 0 148 -39.5t99 -120.5t35 -208v-262q0 -89 -12 -155t-33 -113.5t-48 -80.5q-38 -42 -97 -71t-144 -29zM341 85q37 0 62.5 45.5t25.5 107.5v364q-3 -28 -28.5 -53.5t-57 -59.5t-55 -88.5t-23.5 -140.5q0 -55 8.5 -94t25.5 -60t42 -21zM766 -21q-76 0 -136 38.5t-102 110
t-63.5 172.5t-21.5 226q0 140 28 241t75.5 165.5t104 95.5t112.5 31q66 0 120 -35.5t91.5 -97.5t58 -145t20.5 -179q0 -21 -0.5 -41.5t-1.5 -40.5h-410v72h211q0 140 -9.5 226.5t-29 127t-50.5 40.5t-55.5 -41t-39 -135t-14.5 -254q0 -120 7 -212.5t23 -155.5t42 -95.5
t66 -32.5q68 0 107.5 36.5t55.5 72.5l61 -41q-21 -56 -89.5 -102.5t-160.5 -46.5z" />
    <glyph glyph-name="ccedilla" unicode="&#xe7;" horiz-adv-x="666" 
d="M383 -21q-71 0 -131 40t-105 113.5t-69.5 174.5t-24.5 223q0 140 32.5 240.5t84 164t110 94t109.5 30.5q73 0 125 -40t79.5 -103.5t27.5 -135.5q0 -56 -23.5 -86.5t-61.5 -30.5q-39 0 -63 26.5t-24 70.5q0 29 10.5 46t21 34.5t10.5 45.5q0 49 -26.5 74t-63.5 25
q-39 0 -64 -42t-39.5 -109t-20 -145.5t-5.5 -151.5q0 -81 6 -165.5t22 -155.5t45 -114.5t74 -43.5q56 0 86.5 32.5t45.5 75.5l55 -47q-20 -51 -75.5 -95.5t-147.5 -44.5zM420 -315q-50 0 -92.5 11t-57.5 19l27 66q11 -7 44.5 -17.5t71.5 -10.5q32 0 54.5 15.5t22.5 43.5
q0 32 -14.5 42t-35.5 10q-16 0 -32 -6.5t-28 -20.5l-68 4l61 160h72l-44 -106q5 6 29 15.5t57 9.5q39 0 73 -24t34 -85q0 -42 -23.5 -70t-63.5 -42t-87 -14z" />
    <glyph glyph-name="egrave" unicode="&#xe8;" horiz-adv-x="721" 
d="M377 -21q-76 0 -136 38.5t-102 110t-63.5 172.5t-21.5 226q0 140 28 241t75.5 165.5t104 95.5t112.5 31q66 0 120 -35.5t91.5 -97.5t58 -145t20.5 -179q0 -21 -0.5 -41.5t-1.5 -40.5h-410v72h211q0 140 -9.5 226.5t-29 127t-50.5 40.5t-55.5 -41t-39 -135t-14.5 -254
q0 -120 7 -212.5t23 -155.5t42 -95.5t66 -32.5q68 0 107.5 36.5t55.5 72.5l61 -41q-21 -56 -89.5 -102.5t-160.5 -46.5zM476 1103l-204 98q-28 13 -42.5 27t-14.5 39q0 23 16.5 37t41.5 14q20 0 34 -7.5t29 -19.5l176 -145z" />
    <glyph glyph-name="eacute" unicode="&#xe9;" horiz-adv-x="721" 
d="M377 -21q-76 0 -136 38.5t-102 110t-63.5 172.5t-21.5 226q0 140 28 241t75.5 165.5t104 95.5t112.5 31q66 0 120 -35.5t91.5 -97.5t58 -145t20.5 -179q0 -21 -0.5 -41.5t-1.5 -40.5h-410v72h211q0 140 -9.5 226.5t-29 127t-50.5 40.5t-55.5 -41t-39 -135t-14.5 -254
q0 -120 7 -212.5t23 -155.5t42 -95.5t66 -32.5q68 0 107.5 36.5t55.5 72.5l61 -41q-21 -56 -89.5 -102.5t-160.5 -46.5zM265 1083l-49 52l184 140q14 11 29 18t28 7q16 0 28.5 -8t19.5 -21q7 -11 7 -25q0 -19 -15 -35.5t-41 -27.5z" />
    <glyph glyph-name="ecircumflex" unicode="&#xea;" horiz-adv-x="721" 
d="M377 -21q-76 0 -136 38.5t-102 110t-63.5 172.5t-21.5 226q0 140 28 241t75.5 165.5t104 95.5t112.5 31q66 0 120 -35.5t91.5 -97.5t58 -145t20.5 -179q0 -21 -0.5 -41.5t-1.5 -40.5h-410v72h211q0 140 -9.5 226.5t-29 127t-50.5 40.5t-55.5 -41t-39 -135t-14.5 -254
q0 -120 7 -212.5t23 -155.5t42 -95.5t66 -32.5q68 0 107.5 36.5t55.5 72.5l61 -41q-21 -56 -89.5 -102.5t-160.5 -46.5zM188 1125l147 204h70l146 -204h-83l-99 133l-98 -133h-83z" />
    <glyph glyph-name="edieresis" unicode="&#xeb;" horiz-adv-x="721" 
d="M377 -21q-76 0 -136 38.5t-102 110t-63.5 172.5t-21.5 226q0 140 28 241t75.5 165.5t104 95.5t112.5 31q66 0 120 -35.5t91.5 -97.5t58 -145t20.5 -179q0 -21 -0.5 -41.5t-1.5 -40.5h-410v72h211q0 140 -9.5 226.5t-29 127t-50.5 40.5t-55.5 -41t-39 -135t-14.5 -254
q0 -120 7 -212.5t23 -155.5t42 -95.5t66 -32.5q68 0 107.5 36.5t55.5 72.5l61 -41q-21 -56 -89.5 -102.5t-160.5 -46.5zM489 1129q-35 0 -59.5 25.5t-24.5 58.5q0 35 24.5 61t59.5 26q33 0 58.5 -26t25.5 -61q0 -33 -25.5 -58.5t-58.5 -25.5zM248 1129q-33 0 -57.5 25.5
t-24.5 58.5q0 35 24.5 61t57.5 26q35 0 60 -26t25 -61q0 -33 -25 -58.5t-60 -25.5z" />
    <glyph glyph-name="igrave" unicode="&#xec;" horiz-adv-x="474" 
d="M31 0v72h103v903h-103v72h313v-975h103v-72h-416zM345 1104l-204 98q-28 13 -42.5 27t-14.5 39q0 23 16.5 37t41.5 14q20 0 34 -7.5t29 -19.5l176 -145z" />
    <glyph glyph-name="iacute" unicode="&#xed;" horiz-adv-x="474" 
d="M31 0v72h103v903h-103v72h313v-975h103v-72h-416zM135 1083l-49 52l184 140q14 11 29 18t28 7q16 0 28.5 -8t19.5 -21q7 -11 7 -25q0 -19 -15 -35.5t-41 -27.5z" />
    <glyph glyph-name="icircumflex" unicode="&#xee;" horiz-adv-x="474" 
d="M31 0v72h103v903h-103v72h313v-975h103v-72h-416zM57 1126l147 204h70l146 -204h-83l-99 133l-98 -133h-83z" />
    <glyph glyph-name="idieresis" unicode="&#xef;" horiz-adv-x="474" 
d="M31 0v72h103v903h-103v72h313v-975h103v-72h-416zM359 1130q-35 0 -59.5 25.5t-24.5 58.5q0 35 24.5 61t59.5 26q33 0 58.5 -26t25.5 -61q0 -33 -25.5 -58.5t-58.5 -25.5zM118 1130q-33 0 -57.5 25.5t-24.5 58.5q0 35 24.5 61t57.5 26q35 0 60 -26t25 -61
q0 -33 -25 -58.5t-60 -25.5z" />
    <glyph glyph-name="eth" unicode="&#xf0;" horiz-adv-x="785" 
d="M382 -22q-78 0 -147.5 68t-113 192.5t-43.5 290.5q0 134 27.5 233t72 163.5t98 96t106.5 31.5q25 0 44.5 -9.5t33.5 -22t20 -21.5q-6 52 -18.5 99t-29 84.5t-34.5 56.5l-60 -91l-60 42l65 93q-17 17 -59 36.5t-76 30.5l25 70q13 -3 38.5 -13t52.5 -22t42 -22l16 -10
l45 64l59 -40l-46 -68q54 -42 99 -105.5t78.5 -156.5t51.5 -221t18 -300q0 -171 -45 -294.5t-115 -189t-145 -65.5zM382 50q28 0 49 57t33 163.5t12 256.5q0 147 -12 248t-33 153.5t-49 52.5q-27 0 -48.5 -52.5t-34 -153.5t-12.5 -248q0 -150 12.5 -256.5t34 -163.5
t48.5 -57z" />
    <glyph glyph-name="ntilde" unicode="&#xf1;" horiz-adv-x="888" 
d="M33 0v72h105v903h-105v72h309v-103q4 17 26 44.5t60.5 49t92.5 21.5q57 0 105 -25.5t78 -95t30 -202.5v-664h103v-72h-390v72h77v656q0 111 -18 161t-58 50q-22 0 -40 -15t-31 -41.5t-20.5 -61.5t-8.5 -75v-674h74v-72h-389zM525 1137q-39 0 -65 14.5t-46.5 29
t-44.5 14.5q-33 0 -50 -16t-22 -26l-71 30q5 18 23 42t45 42.5t60 18.5q43 0 68.5 -14.5t47 -29t50.5 -14.5q31 0 45 14.5t19 25.5l70 -34q-4 -13 -21 -36.5t-44 -42t-64 -18.5z" />
    <glyph glyph-name="ograve" unicode="&#xf2;" horiz-adv-x="745" 
d="M370 -22q-59 0 -115.5 34.5t-102 103.5t-72 172t-26.5 239q0 148 28 250.5t74 164.5t102 89.5t112 27.5q55 0 111 -27.5t102.5 -89.5t75.5 -164.5t29 -250.5q0 -136 -27.5 -239t-73 -172t-102.5 -103.5t-115 -34.5zM370 58q48 0 76 111.5t28 357.5q0 245 -28 349t-76 104
q-47 0 -75.5 -104t-28.5 -349q0 -246 28.5 -357.5t75.5 -111.5zM477 1104l-204 98q-28 13 -42.5 27t-14.5 39q0 23 16.5 37t41.5 14q20 0 34 -7.5t29 -19.5l176 -145z" />
    <glyph glyph-name="oacute" unicode="&#xf3;" horiz-adv-x="745" 
d="M370 -22q-59 0 -115.5 34.5t-102 103.5t-72 172t-26.5 239q0 148 28 250.5t74 164.5t102 89.5t112 27.5q55 0 111 -27.5t102.5 -89.5t75.5 -164.5t29 -250.5q0 -136 -27.5 -239t-73 -172t-102.5 -103.5t-115 -34.5zM370 58q48 0 76 111.5t28 357.5q0 245 -28 349t-76 104
q-47 0 -75.5 -104t-28.5 -349q0 -246 28.5 -357.5t75.5 -111.5zM266 1083l-49 52l184 140q14 11 29 18t28 7q16 0 28.5 -8t19.5 -21q7 -11 7 -25q0 -19 -15 -35.5t-41 -27.5z" />
    <glyph glyph-name="ocircumflex" unicode="&#xf4;" horiz-adv-x="745" 
d="M370 -22q-59 0 -115.5 34.5t-102 103.5t-72 172t-26.5 239q0 148 28 250.5t74 164.5t102 89.5t112 27.5q55 0 111 -27.5t102.5 -89.5t75.5 -164.5t29 -250.5q0 -136 -27.5 -239t-73 -172t-102.5 -103.5t-115 -34.5zM370 58q48 0 76 111.5t28 357.5q0 245 -28 349t-76 104
q-47 0 -75.5 -104t-28.5 -349q0 -246 28.5 -357.5t75.5 -111.5zM189 1126l147 204h70l146 -204h-83l-99 133l-98 -133h-83z" />
    <glyph glyph-name="otilde" unicode="&#xf5;" horiz-adv-x="745" 
d="M370 -22q-59 0 -115.5 34.5t-102 103.5t-72 172t-26.5 239q0 148 28 250.5t74 164.5t102 89.5t112 27.5q55 0 111 -27.5t102.5 -89.5t75.5 -164.5t29 -250.5q0 -136 -27.5 -239t-73 -172t-102.5 -103.5t-115 -34.5zM370 58q48 0 76 111.5t28 357.5q0 245 -28 349t-76 104
q-47 0 -75.5 -104t-28.5 -349q0 -246 28.5 -357.5t75.5 -111.5zM456 1137q-39 0 -65 14.5t-46.5 29t-44.5 14.5q-33 0 -50 -16t-22 -26l-71 30q5 18 23 42t45 42.5t60 18.5q43 0 68.5 -14.5t47 -29t50.5 -14.5q31 0 45 14.5t19 25.5l70 -34q-4 -13 -21 -36.5t-44 -42
t-64 -18.5z" />
    <glyph glyph-name="odieresis" unicode="&#xf6;" horiz-adv-x="745" 
d="M370 -22q-59 0 -115.5 34.5t-102 103.5t-72 172t-26.5 239q0 148 28 250.5t74 164.5t102 89.5t112 27.5q55 0 111 -27.5t102.5 -89.5t75.5 -164.5t29 -250.5q0 -136 -27.5 -239t-73 -172t-102.5 -103.5t-115 -34.5zM370 58q48 0 76 111.5t28 357.5q0 245 -28 349t-76 104
q-47 0 -75.5 -104t-28.5 -349q0 -246 28.5 -357.5t75.5 -111.5zM490 1130q-35 0 -59.5 25.5t-24.5 58.5q0 35 24.5 61t59.5 26q33 0 58.5 -26t25.5 -61q0 -33 -25.5 -58.5t-58.5 -25.5zM249 1130q-33 0 -57.5 25.5t-24.5 58.5q0 35 24.5 61t57.5 26q35 0 60 -26t25 -61
q0 -33 -25 -58.5t-60 -25.5z" />
    <glyph glyph-name="divide" unicode="&#xf7;" horiz-adv-x="808" 
d="M408 284q-27 0 -47.5 21t-20.5 49t20.5 48.5t47.5 20.5q29 0 49 -20.5t20 -48.5t-20 -49t-49 -21zM408 673q-27 0 -47.5 21t-20.5 49q0 29 20.5 49t47.5 20q29 0 49 -20t20 -49q0 -28 -20 -49t-49 -21zM104 513v72h605v-72h-605z" />
    <glyph glyph-name="oslash" unicode="&#xf8;" horiz-adv-x="756" 
d="M88 -104l497 1224h76l-497 -1224h-76zM370 -22q-59 0 -115.5 34.5t-102 103.5t-72 172t-26.5 239q0 148 28 250.5t74 164.5t102 89.5t112 27.5q55 0 111 -27.5t102.5 -89.5t75.5 -164.5t29 -250.5q0 -136 -27.5 -239t-73 -172t-102.5 -103.5t-115 -34.5zM370 58
q48 0 76 111.5t28 357.5q0 245 -28 349t-76 104q-47 0 -75.5 -104t-28.5 -349q0 -246 28.5 -357.5t75.5 -111.5z" />
    <glyph glyph-name="ugrave" unicode="&#xf9;" horiz-adv-x="832" 
d="M346 -22q-61 0 -112.5 24.5t-82 92t-30.5 197.5v683h-103v71h313v-730q0 -95 8.5 -145t26 -67.5t43.5 -17.5q31 0 54.5 32t36.5 89.5t13 135.5v632h-93v71h303v-974h89v-72h-273l-12 108q-5 -25 -27.5 -55.5t-61 -52.5t-92.5 -22zM532 1104l-204 98q-28 13 -42.5 27
t-14.5 39q0 23 16.5 37t41.5 14q20 0 34 -7.5t29 -19.5l176 -145z" />
    <glyph glyph-name="uacute" unicode="&#xfa;" horiz-adv-x="832" 
d="M346 -22q-61 0 -112.5 24.5t-82 92t-30.5 197.5v683h-103v71h313v-730q0 -95 8.5 -145t26 -67.5t43.5 -17.5q31 0 54.5 32t36.5 89.5t13 135.5v632h-93v71h303v-974h89v-72h-273l-12 108q-5 -25 -27.5 -55.5t-61 -52.5t-92.5 -22zM322 1083l-49 52l184 140q14 11 29 18
t28 7q16 0 28.5 -8t19.5 -21q7 -11 7 -25q0 -19 -15 -35.5t-41 -27.5z" />
    <glyph glyph-name="ucircumflex" unicode="&#xfb;" horiz-adv-x="832" 
d="M346 -22q-61 0 -112.5 24.5t-82 92t-30.5 197.5v683h-103v71h313v-730q0 -95 8.5 -145t26 -67.5t43.5 -17.5q31 0 54.5 32t36.5 89.5t13 135.5v632h-93v71h303v-974h89v-72h-273l-12 108q-5 -25 -27.5 -55.5t-61 -52.5t-92.5 -22zM244 1126l147 204h70l146 -204h-83
l-99 133l-98 -133h-83z" />
    <glyph glyph-name="udieresis" unicode="&#xfc;" horiz-adv-x="832" 
d="M346 -22q-61 0 -112.5 24.5t-82 92t-30.5 197.5v683h-103v71h313v-730q0 -95 8.5 -145t26 -67.5t43.5 -17.5q31 0 54.5 32t36.5 89.5t13 135.5v632h-93v71h303v-974h89v-72h-273l-12 108q-5 -25 -27.5 -55.5t-61 -52.5t-92.5 -22zM546 1130q-35 0 -59.5 25.5t-24.5 58.5
q0 35 24.5 61t59.5 26q33 0 58.5 -26t25.5 -61q0 -33 -25.5 -58.5t-58.5 -25.5zM305 1130q-33 0 -57.5 25.5t-24.5 58.5q0 35 24.5 61t57.5 26q35 0 60 -26t25 -61q0 -33 -25 -58.5t-60 -25.5z" />
    <glyph glyph-name="yacute" unicode="&#xfd;" horiz-adv-x="700" 
d="M209 -502q-47 0 -78.5 34t-47.5 91.5t-16 129.5q0 59 23.5 90t61.5 31t60.5 -27t22.5 -75q0 -37 -14 -60t-27.5 -42.5t-13.5 -49.5q0 -25 9.5 -44t28.5 -19q11 0 18.5 9t13.5 28t13 48l75 355l-241 978h-83v72h384v-72h-77l119 -527l106 527h-74v72h229v-72h-74
l-215 -982l-81 -367q-8 -41 -23 -69.5t-38.5 -43.5t-60.5 -15zM254 1083l-49 52l184 140q14 11 29 18t28 7q16 0 28.5 -8t19.5 -21q7 -11 7 -25q0 -19 -15 -35.5t-41 -27.5z" />
    <glyph glyph-name="thorn" unicode="&#xfe;" horiz-adv-x="868" 
d="M40 -500v72h102v1856h-102v72h312v-554q3 10 19.5 35.5t48.5 47.5t79 22q84 0 145 -58t93.5 -176.5t32.5 -299.5q0 -189 -37 -307.5t-101 -174t-148 -55.5q-34 0 -58.5 10t-40.5 24.5t-23.5 29.5t-9.5 25v-497h98v-72h-410zM454 80q34 0 54 43t29.5 109.5t12.5 141.5
t3 139q0 50 -3.5 120.5t-13.5 139.5t-28 114.5t-47 45.5q-24 0 -44 -24t-34.5 -60.5t-22.5 -74.5t-8 -65v-432q4 -43 15.5 -88.5t33 -77t53.5 -31.5z" />
    <glyph glyph-name="ydieresis" unicode="&#xff;" horiz-adv-x="700" 
d="M209 -502q-47 0 -78.5 34t-47.5 91.5t-16 129.5q0 59 23.5 90t61.5 31t60.5 -27t22.5 -75q0 -37 -14 -60t-27.5 -42.5t-13.5 -49.5q0 -25 9.5 -44t28.5 -19q11 0 18.5 9t13.5 28t13 48l75 355l-241 978h-83v72h384v-72h-77l119 -527l106 527h-74v72h229v-72h-74
l-215 -982l-81 -367q-8 -41 -23 -69.5t-38.5 -43.5t-60.5 -15zM478 1129q-35 0 -59.5 25.5t-24.5 58.5q0 35 24.5 61t59.5 26q33 0 58.5 -26t25.5 -61q0 -33 -25.5 -58.5t-58.5 -25.5zM237 1129q-33 0 -57.5 25.5t-24.5 58.5q0 35 24.5 61t57.5 26q35 0 60 -26t25 -61
q0 -33 -25 -58.5t-60 -25.5z" />
    <glyph glyph-name="Amacron" unicode="&#x100;" horiz-adv-x="702" 
d="M2 0v72h80l187 1330h127l213 -1330h95v-72h-400v72h79l-114 865h1l-112 -865h71v-72h-227zM158 280v68h227v-68h-227zM34 1540v72h603v-72h-603z" />
    <glyph glyph-name="amacron" unicode="&#x101;" horiz-adv-x="772" 
d="M281 -21q-64 0 -116.5 31.5t-83 90.5t-30.5 143q0 95 39 157t97 104.5t115.5 76.5t96.5 71t39 90q0 74 -12 126.5t-38 80t-67 27.5q-49 0 -80 -28t-31 -65q0 -25 9.5 -42t19 -35t9.5 -50q0 -43 -23.5 -68.5t-61.5 -25.5q-40 0 -63.5 34t-23.5 93q0 77 36.5 138t100.5 96
t149 35q84 0 148.5 -35.5t101 -113t36.5 -204.5v-551q0 -48 9 -64.5t27 -16.5q17 0 29.5 9t18.5 16l39 -58q-15 -20 -58 -38.5t-100 -18.5q-56 0 -88.5 16.5t-47.5 40.5t-20 46q-5 -15 -23 -40.5t-55 -46.5t-98 -21zM348 83q29 0 49 24.5t30.5 60t10.5 68.5v371
q-3 -28 -29.5 -53.5t-60 -59.5t-58.5 -88t-25 -138q0 -91 22.5 -138t60.5 -47zM145 1137v72h455v-72h-455z" />
    <glyph glyph-name="Abreve" unicode="&#x102;" horiz-adv-x="702" 
d="M2 0v72h80l187 1330h127l213 -1330h95v-72h-400v72h79l-114 865h1l-112 -865h71v-72h-227zM158 280v68h227v-68h-227zM333 1497q-62 0 -100.5 28t-56 73t-17.5 93h71q4 -62 32 -92t71 -30q45 0 73 30t32 92h71q0 -48 -17.5 -93t-56 -73t-102.5 -28z" />
    <glyph glyph-name="abreve" unicode="&#x103;" horiz-adv-x="772" 
d="M281 -21q-64 0 -116.5 31.5t-83 90.5t-30.5 143q0 95 39 157t97 104.5t115.5 76.5t96.5 71t39 90q0 74 -12 126.5t-38 80t-67 27.5q-49 0 -80 -28t-31 -65q0 -25 9.5 -42t19 -35t9.5 -50q0 -43 -23.5 -68.5t-61.5 -25.5q-40 0 -63.5 34t-23.5 93q0 77 36.5 138t100.5 96
t149 35q84 0 148.5 -35.5t101 -113t36.5 -204.5v-551q0 -48 9 -64.5t27 -16.5q17 0 29.5 9t18.5 16l39 -58q-15 -20 -58 -38.5t-100 -18.5q-56 0 -88.5 16.5t-47.5 40.5t-20 46q-5 -15 -23 -40.5t-55 -46.5t-98 -21zM348 83q29 0 49 24.5t30.5 60t10.5 68.5v371
q-3 -28 -29.5 -53.5t-60 -59.5t-58.5 -88t-25 -138q0 -91 22.5 -138t60.5 -47zM370 1103q-62 0 -100.5 28t-56 73t-17.5 93h71q4 -62 32 -92t71 -30q45 0 73 30t32 92h71q0 -48 -17.5 -93t-56 -73t-102.5 -28z" />
    <glyph glyph-name="Aogonek" unicode="&#x104;" horiz-adv-x="702" 
d="M2 0v72h80l187 1330h127l213 -1330h95v-72h-400v72h79l-114 865h1l-112 -865h71v-72h-227zM158 280v68h227v-68h-227zM702 -302q-42 0 -80 14.5t-61.5 45.5t-23.5 79q0 52 24.5 88.5t57 60.5t56.5 38l29 -24q-22 -25 -42.5 -57.5t-20.5 -81.5q0 -44 30.5 -58t57.5 -14
q25 0 51.5 6.5t44.5 17.5l34 -64q-24 -21 -65.5 -36t-91.5 -15z" />
    <glyph glyph-name="aogonek" unicode="&#x105;" horiz-adv-x="772" 
d="M281 -21q-64 0 -116.5 31.5t-83 90.5t-30.5 143q0 95 39 157t97 104.5t115.5 76.5t96.5 71t39 90q0 74 -12 126.5t-38 80t-67 27.5q-49 0 -79 -28t-30 -65q0 -25 9 -43t18 -37t9 -50q0 -43 -23.5 -68.5t-61.5 -25.5q-40 0 -64 33.5t-24 92.5q0 77 36.5 139t101 98
t149.5 36q84 0 148.5 -35.5t101 -113t36.5 -204.5v-551q0 -48 9 -64.5t27 -16.5q17 0 29.5 9t18.5 16l39 -58q-15 -20 -58 -38.5t-100 -18.5q-56 0 -90.5 12t-50.5 31t-21 41q-5 -14 -22 -35t-52 -37.5t-96 -16.5zM348 83q29 0 49 24.5t30.5 60t10.5 68.5v371
q-3 -28 -29.5 -53.5t-60 -59.5t-58.5 -88t-25 -138q0 -91 22.5 -138t60.5 -47zM770 -261q-43 0 -81 14.5t-61 45.5t-23 80q0 51 24.5 87.5t56.5 61t56 37.5l29 -24q-21 -24 -42 -57t-21 -81q0 -45 30.5 -59t57.5 -14q25 0 51.5 7t44.5 18l35 -64q-25 -22 -66.5 -37
t-90.5 -15z" />
    <glyph glyph-name="Cacute" unicode="&#x106;" horiz-adv-x="704" 
d="M419 -20q-157 0 -255.5 185t-98.5 533q0 133 22.5 262t67.5 233.5t113.5 166.5t159.5 62q63 0 111 -42t75 -104.5t27 -124.5q0 -55 -20.5 -88.5t-64.5 -33.5q-48 0 -69 27.5t-21 74.5q0 33 13.5 54.5t26.5 43.5t13 54q0 34 -15.5 49.5t-38.5 15.5q-38 0 -67.5 -42.5
t-50 -112.5t-33.5 -155.5t-19 -173.5t-6 -164q0 -113 7 -212t21 -179t34 -137.5t45 -88.5t55 -31q37 0 61 22t39.5 58t25.5 78l62 -34q-19 -55 -48 -99.5t-71 -70.5t-101 -26zM320 1442l-49 53l183 139q15 11 30 18t28 7q16 0 28.5 -8t19.5 -21q7 -11 7 -24q0 -19 -15 -36
t-41 -28z" />
    <glyph glyph-name="cacute" unicode="&#x107;" horiz-adv-x="666" 
d="M383 -21q-71 0 -131 40t-105 113.5t-69.5 174.5t-24.5 223q0 140 32.5 240.5t84 164t110 94t109.5 30.5q73 0 125 -40t79.5 -103.5t27.5 -135.5q0 -56 -23.5 -86.5t-61.5 -30.5q-39 0 -63 26.5t-24 70.5q0 29 10.5 46t21 34.5t10.5 45.5q0 49 -26.5 74t-63.5 25
q-39 0 -64 -42t-39.5 -109t-20 -145.5t-5.5 -151.5q0 -81 6 -165.5t22 -155.5t45 -114.5t74 -43.5q56 0 86.5 32.5t45.5 75.5l55 -47q-20 -51 -75.5 -95.5t-147.5 -44.5zM277 1083l-49 52l184 140q14 11 29 18t28 7q16 0 28.5 -8t19.5 -21q7 -11 7 -25q0 -19 -15 -35.5
t-41 -27.5z" />
    <glyph glyph-name="ccircumflex" unicode="&#x109;" horiz-adv-x="666" 
d="M383 -21q-71 0 -131 40t-105 113.5t-69.5 174.5t-24.5 223q0 140 32.5 240.5t84 164t110 94t109.5 30.5q73 0 125 -40t79.5 -103.5t27.5 -135.5q0 -56 -23.5 -86.5t-61.5 -30.5q-39 0 -63 26.5t-24 70.5q0 29 10.5 46t21 34.5t10.5 45.5q0 49 -26.5 74t-63.5 25
q-39 0 -64 -42t-39.5 -109t-20 -145.5t-5.5 -151.5q0 -81 6 -165.5t22 -155.5t45 -114.5t74 -43.5q56 0 86.5 32.5t45.5 75.5l55 -47q-20 -51 -75.5 -95.5t-147.5 -44.5zM199 1126l147 204h70l146 -204h-83l-99 133l-98 -133h-83z" />
    <glyph glyph-name="Cdotaccent" unicode="&#x10a;" horiz-adv-x="704" 
d="M419 -20q-157 0 -255.5 185t-98.5 533q0 133 22.5 262t67.5 233.5t113.5 166.5t159.5 62q63 0 111 -42t75 -104.5t27 -124.5q0 -55 -20.5 -88.5t-64.5 -33.5q-48 0 -69 27.5t-21 74.5q0 33 13.5 54.5t26.5 43.5t13 54q0 34 -15.5 49.5t-38.5 15.5q-38 0 -67.5 -42.5
t-50 -112.5t-33.5 -155.5t-19 -173.5t-6 -164q0 -113 7 -212t21 -179t34 -137.5t45 -88.5t55 -31q37 0 61 22t39.5 58t25.5 78l62 -34q-19 -55 -48 -99.5t-71 -70.5t-101 -26zM425 1503q-35 0 -60 25t-25 59t25 59.5t60 25.5q32 0 57.5 -25.5t25.5 -59.5t-25.5 -59
t-57.5 -25z" />
    <glyph glyph-name="cdotaccent" unicode="&#x10b;" horiz-adv-x="666" 
d="M383 -21q-71 0 -131 40t-105 113.5t-69.5 174.5t-24.5 223q0 140 32.5 240.5t84 164t110 94t109.5 30.5q73 0 125 -40t79.5 -103.5t27.5 -135.5q0 -56 -23.5 -86.5t-61.5 -30.5q-39 0 -63 26.5t-24 70.5q0 29 10.5 46t21 34.5t10.5 45.5q0 49 -26.5 74t-63.5 25
q-39 0 -64 -42t-39.5 -109t-20 -145.5t-5.5 -151.5q0 -81 6 -165.5t22 -155.5t45 -114.5t74 -43.5q56 0 86.5 32.5t45.5 75.5l55 -47q-20 -51 -75.5 -95.5t-147.5 -44.5zM382 1136q-35 0 -60 25t-25 58q0 35 25 60.5t60 25.5q32 0 57.5 -25.5t25.5 -60.5q0 -33 -25.5 -58
t-57.5 -25z" />
    <glyph glyph-name="Ccaron" unicode="&#x10c;" horiz-adv-x="704" 
d="M419 -20q-157 0 -255.5 185t-98.5 533q0 133 22.5 262t67.5 233.5t113.5 166.5t159.5 62q63 0 111 -42t75 -104.5t27 -124.5q0 -55 -20.5 -88.5t-64.5 -33.5q-48 0 -69 27.5t-21 74.5q0 33 13.5 54.5t26.5 43.5t13 54q0 34 -15.5 49.5t-38.5 15.5q-38 0 -67.5 -42.5
t-50 -112.5t-33.5 -155.5t-19 -173.5t-6 -164q0 -113 7 -212t21 -179t34 -137.5t45 -88.5t55 -31q37 0 61 22t39.5 58t25.5 78l62 -34q-19 -55 -48 -99.5t-71 -70.5t-101 -26zM390 1470l-166 222h90l110 -150l110 150h91l-165 -222h-70z" />
    <glyph glyph-name="ccaron" unicode="&#x10d;" horiz-adv-x="666" 
d="M383 -21q-71 0 -131 40t-105 113.5t-69.5 174.5t-24.5 223q0 140 32.5 240.5t84 164t110 94t109.5 30.5q73 0 125 -40t79.5 -103.5t27.5 -135.5q0 -56 -23.5 -86.5t-61.5 -30.5q-39 0 -63 26.5t-24 70.5q0 29 10.5 46t21 34.5t10.5 45.5q0 49 -26.5 74t-63.5 25
q-39 0 -64 -42t-39.5 -109t-20 -145.5t-5.5 -151.5q0 -81 6 -165.5t22 -155.5t45 -114.5t74 -43.5q56 0 86.5 32.5t45.5 75.5l55 -47q-20 -51 -75.5 -95.5t-147.5 -44.5zM347 1107l-166 222h90l110 -150l110 150h91l-165 -222h-70z" />
    <glyph glyph-name="Dcaron" unicode="&#x10e;" horiz-adv-x="829" 
d="M49 0v72h93v1256h-93v72h360q97 0 180 -77t133.5 -229.5t50.5 -382.5q0 -232 -51 -390t-134 -239.5t-179 -81.5h-360zM353 72h38q45 0 84.5 69.5t65 211.5t25.5 358q0 195 -23.5 333t-60 211t-76.5 73h-53v-1256zM372 1470l-166 222h90l110 -150l110 150h91l-165 -222
h-70z" />
    <glyph glyph-name="dcaron" unicode="&#x10f;" horiz-adv-x="929" 
d="M755 1179q11 46 15 104.5t4 110.5q0 53 22 72.5t48 19.5q27 0 47 -18t20 -64q0 -66 -28 -135t-65 -116zM340 -20q-72 0 -134.5 50t-101.5 167.5t-39 320.5q0 192 37.5 311t97 174t126.5 55q54 0 84.5 -18.5t44 -42t16.5 -38.5v468h-118v73h332v-1428h114v-72h-293
l-20 118q-2 -26 -19.5 -59t-48.5 -56t-78 -23zM380 102q27 0 46.5 36t31 92t13.5 114v399q-3 52 -15.5 94t-32 67t-44.5 25q-26 0 -45 -30t-31.5 -84.5t-19 -130.5t-6.5 -170q0 -98 6.5 -174.5t19 -129.5t32 -80.5t45.5 -27.5z" />
    <glyph glyph-name="Dcroat" unicode="&#x110;" horiz-adv-x="878" 
d="M49 681v72h434v-72h-434zM49 0v72h93v1256h-93v72h360q97 0 180 -77t133.5 -229.5t50.5 -382.5q0 -232 -51 -390t-134 -239.5t-179 -81.5h-360zM353 72h38q45 0 84.5 69.5t65 211.5t25.5 358q0 195 -23.5 333t-60 211t-76.5 73h-53v-1256z" />
    <glyph glyph-name="dcroat" unicode="&#x111;" horiz-adv-x="811" 
d="M200 1240v72h584v-72h-584zM340 -20q-72 0 -134.5 50t-101.5 167.5t-39 320.5q0 192 37.5 311t97 174t126.5 55q54 0 84.5 -18.5t44 -42t16.5 -38.5v468h-118v73h332v-1428h114v-72h-293l-20 118q-2 -26 -19.5 -59t-48.5 -56t-78 -23zM380 102q27 0 46.5 36t31 92
t13.5 114v399q-3 52 -15.5 94t-32 67t-44.5 25q-26 0 -45 -30t-31.5 -84.5t-19 -130.5t-6.5 -170q0 -98 6.5 -174.5t19 -129.5t32 -80.5t45.5 -27.5z" />
    <glyph glyph-name="Emacron" unicode="&#x112;" horiz-adv-x="723" 
d="M49 0v72h94v1256h-94v72h597v-319h-72q0 81 -13.5 136.5t-43 83t-78.5 27.5h-85v-592h175v95h70v-258h-70v91h-175v-592h85q49 0 78.5 28.5t43 84.5t13.5 137h72v-322h-597zM72 1540v72h603v-72h-603z" />
    <glyph glyph-name="emacron" unicode="&#x113;" horiz-adv-x="721" 
d="M377 -21q-76 0 -136 38.5t-102 110t-63.5 172.5t-21.5 226q0 140 28 241t75.5 165.5t104 95.5t112.5 31q66 0 120 -35.5t91.5 -97.5t58 -145t20.5 -179q0 -21 -0.5 -41.5t-1.5 -40.5h-410v72h211q0 140 -9.5 226.5t-29 127t-50.5 40.5t-55.5 -41t-39 -135t-14.5 -254
q0 -120 7 -212.5t23 -155.5t42 -95.5t66 -32.5q68 0 107.5 36.5t55.5 72.5l61 -41q-21 -56 -89.5 -102.5t-160.5 -46.5zM142 1136v72h455v-72h-455z" />
    <glyph glyph-name="ebreve" unicode="&#x115;" horiz-adv-x="721" 
d="M377 -21q-76 0 -136 38.5t-102 110t-63.5 172.5t-21.5 226q0 140 28 241t75.5 165.5t104 95.5t112.5 31q66 0 120 -35.5t91.5 -97.5t58 -145t20.5 -179q0 -21 -0.5 -41.5t-1.5 -40.5h-410v72h211q0 140 -9.5 226.5t-29 127t-50.5 40.5t-55.5 -41t-39 -135t-14.5 -254
q0 -120 7 -212.5t23 -155.5t42 -95.5t66 -32.5q68 0 107.5 36.5t55.5 72.5l61 -41q-21 -56 -89.5 -102.5t-160.5 -46.5zM367 1102q-62 0 -100.5 28t-56 73t-17.5 93h71q4 -62 32 -92t71 -30q45 0 73 30t32 92h71q0 -48 -17.5 -93t-56 -73t-102.5 -28z" />
    <glyph glyph-name="Edotaccent" unicode="&#x116;" horiz-adv-x="723" 
d="M49 0v72h94v1256h-94v72h597v-319h-72q0 81 -13.5 136.5t-43 83t-78.5 27.5h-85v-592h175v95h70v-258h-70v91h-175v-592h85q49 0 78.5 28.5t43 84.5t13.5 137h72v-322h-597zM374 1503q-35 0 -60 25t-25 59t25 59.5t60 25.5q32 0 57.5 -25.5t25.5 -59.5t-25.5 -59
t-57.5 -25z" />
    <glyph glyph-name="edotaccent" unicode="&#x117;" horiz-adv-x="721" 
d="M377 -21q-76 0 -136 38.5t-102 110t-63.5 172.5t-21.5 226q0 140 28 241t75.5 165.5t104 95.5t112.5 31q66 0 120 -35.5t91.5 -97.5t58 -145t20.5 -179q0 -21 -0.5 -41.5t-1.5 -40.5h-410v72h211q0 140 -9.5 226.5t-29 127t-50.5 40.5t-55.5 -41t-39 -135t-14.5 -254
q0 -120 7 -212.5t23 -155.5t42 -95.5t66 -32.5q68 0 107.5 36.5t55.5 72.5l61 -41q-21 -56 -89.5 -102.5t-160.5 -46.5zM370 1135q-35 0 -60 25t-25 58q0 35 25 60.5t60 25.5q32 0 57.5 -25.5t25.5 -60.5q0 -33 -25.5 -58t-57.5 -25z" />
    <glyph glyph-name="Eogonek" unicode="&#x118;" horiz-adv-x="723" 
d="M49 0v72h94v1256h-94v72h597v-319h-72q0 81 -13.5 136.5t-43 83t-78.5 27.5h-85v-592h175v95h70v-258h-70v91h-175v-592h85q49 0 78.5 28.5t43 84.5t13.5 137h72v-322h-597zM644 -302q-43 0 -81 14.5t-61 45.5t-23 79q0 52 24.5 88.5t56.5 60.5t56 38l30 -24
q-22 -25 -43 -57.5t-21 -81.5q0 -44 30.5 -58t57.5 -14q25 0 51.5 6.5t44.5 17.5l35 -64q-25 -21 -66.5 -36t-90.5 -15z" />
    <glyph glyph-name="eogonek" unicode="&#x119;" horiz-adv-x="721" 
d="M377 -21q-76 0 -136 38.5t-102 110t-63.5 172.5t-21.5 226q0 140 28 241t75.5 165.5t104 95.5t112.5 31q66 0 120 -35.5t91.5 -100.5t58 -153t20.5 -193q0 -21 -0.5 -41t-1.5 -41h-410v72h211q0 140 -9.5 233t-29 139.5t-50.5 46.5t-55.5 -47t-39 -147t-14.5 -261
q0 -120 7 -209.5t23 -149t42 -89t66 -29.5q68 0 107.5 39.5t55.5 75.5l61 -41q-21 -56 -89.5 -102.5t-160.5 -46.5zM509 -287q-43 0 -81 14t-61.5 45t-23.5 80q0 52 24.5 88.5t57 60.5t56.5 37l29 -23q-22 -25 -42.5 -58t-20.5 -81q0 -45 30.5 -58.5t57.5 -13.5
q25 0 51.5 6.5t44.5 17.5l34 -64q-24 -22 -65.5 -36.5t-90.5 -14.5z" />
    <glyph glyph-name="Ecaron" unicode="&#x11a;" horiz-adv-x="723" 
d="M49 0v72h94v1256h-94v72h597v-319h-72q0 81 -13.5 136.5t-43 83t-78.5 27.5h-85v-592h175v95h70v-258h-70v91h-175v-592h85q49 0 78.5 28.5t43 84.5t13.5 137h72v-322h-597zM339 1470l-166 222h90l110 -150l110 150h91l-165 -222h-70z" />
    <glyph glyph-name="ecaron" unicode="&#x11b;" horiz-adv-x="721" 
d="M377 -21q-76 0 -136 38.5t-102 110t-63.5 172.5t-21.5 226q0 140 28 241t75.5 165.5t104 95.5t112.5 31q66 0 120 -35.5t91.5 -97.5t58 -145t20.5 -179q0 -21 -0.5 -41.5t-1.5 -40.5h-410v72h211q0 140 -9.5 226.5t-29 127t-50.5 40.5t-55.5 -41t-39 -135t-14.5 -254
q0 -120 7 -212.5t23 -155.5t42 -95.5t66 -32.5q68 0 107.5 36.5t55.5 72.5l61 -41q-21 -56 -89.5 -102.5t-160.5 -46.5zM335 1106l-166 222h90l110 -150l110 150h91l-165 -222h-70z" />
    <glyph glyph-name="gcircumflex" unicode="&#x11d;" horiz-adv-x="796" 
d="M390 -498q-89 0 -166.5 31t-125 90.5t-47.5 144.5q0 65 23 109.5t54.5 71t59 40t36.5 16.5q-8 2 -29.5 10.5t-46 28t-42 51t-17.5 78.5q0 38 13.5 64.5t34 43t39.5 21.5q5 1 12 2.5t9 1.5q-8 6 -26 27t-38 60.5t-34 100t-14 143.5q0 119 29 199.5t76 130t100.5 71
t101.5 21.5q96 0 162.5 -51t102 -143t35.5 -214q0 -125 -29 -206.5t-75 -128.5t-99 -66t-101 -19q-54 0 -87 12t-40 14q-1 1 -2 1h-3q-15 0 -30.5 -16t-15.5 -44q0 -40 46 -67t172 -49q149 -24 229 -91.5t80 -202.5q0 -81 -33.5 -136t-86.5 -88t-113 -47.5t-114 -14.5z
M390 -429q70 0 113 51.5t43 122.5q0 77 -22 117t-82 66q-20 9 -43.5 19t-44 18t-32.5 11q-24 -12 -45.5 -39.5t-35.5 -68.5t-14 -96q0 -57 19 -102.5t55 -72t89 -26.5zM388 305q25 0 46 24t34 97t13 221q0 142 -12.5 214.5t-33.5 97.5t-45 25t-45.5 -25t-35 -98.5
t-13.5 -217.5q0 -147 13.5 -219t35 -95.5t43.5 -23.5zM499 985q11 68 63.5 107t111.5 39q50 0 70.5 -23.5t20.5 -60.5q0 -35 -19.5 -54.5t-49.5 -19.5q-29 0 -41.5 13t-21 26t-29.5 13q-13 0 -23.5 -9t-10.5 -33zM207 1126l147 204h70l146 -204h-83l-99 133l-98 -133h-83z
" />
    <glyph glyph-name="Gbreve" unicode="&#x11e;" horiz-adv-x="800" 
d="M427 -20q-100 0 -182 78t-131 237.5t-49 402.5q0 232 56 393t143 245t179 84q73 0 125.5 -37.5t81 -98t28.5 -133.5q0 -58 -23 -90t-67 -32q-46 0 -67.5 32t-21.5 77q0 31 12.5 51.5t24.5 40.5t12 50q0 27 -23.5 49.5t-60.5 22.5q-51 0 -86.5 -61t-57.5 -160t-32 -213
t-10 -220q0 -158 12.5 -278.5t33.5 -202t48 -122.5t58 -41q20 0 33.5 7t21.5 16v484h-81v72h359v-72h-86v-561h-70q-1 3 -11 10t-26 7q-17 0 -34.5 -9t-42.5 -18.5t-66 -9.5zM426 1497q-62 0 -100.5 28t-56 73t-17.5 93h71q4 -62 32 -92t71 -30q45 0 73 30t32 92h71
q0 -48 -17.5 -93t-56 -73t-102.5 -28z" />
    <glyph glyph-name="gbreve" unicode="&#x11f;" horiz-adv-x="796" 
d="M390 -498q-89 0 -166.5 31t-125 90.5t-47.5 144.5q0 65 23 109.5t54.5 71t59 40t36.5 16.5q-8 2 -29.5 10.5t-46 28t-42 51t-17.5 78.5q0 38 13.5 64.5t34 43t39.5 21.5q5 1 12 2.5t9 1.5q-8 6 -26 27t-38 60.5t-34 100t-14 143.5q0 119 29 199.5t76 130t100.5 71
t101.5 21.5q96 0 162.5 -51t102 -143t35.5 -214q0 -125 -29 -206.5t-75 -128.5t-99 -66t-101 -19q-54 0 -87 12t-40 14q-1 1 -2 1h-3q-15 0 -30.5 -16t-15.5 -44q0 -40 46 -67t172 -49q149 -24 229 -91.5t80 -202.5q0 -81 -33.5 -136t-86.5 -88t-113 -47.5t-114 -14.5z
M390 -429q70 0 113 51.5t43 122.5q0 77 -22 117t-82 66q-20 9 -43.5 19t-44 18t-32.5 11q-24 -12 -45.5 -39.5t-35.5 -68.5t-14 -96q0 -57 19 -102.5t55 -72t89 -26.5zM388 305q25 0 46 24t34 97t13 221q0 142 -12.5 214.5t-33.5 97.5t-45 25t-45.5 -25t-35 -98.5
t-13.5 -217.5q0 -147 13.5 -219t35 -95.5t43.5 -23.5zM499 985q11 68 63.5 107t111.5 39q50 0 70.5 -23.5t20.5 -60.5q0 -35 -19.5 -54.5t-49.5 -19.5q-29 0 -41.5 13t-21 26t-29.5 13q-13 0 -23.5 -9t-10.5 -33zM386 1103q-62 0 -100.5 28t-56 73t-17.5 93h71q4 -62 32 -92
t71 -30q45 0 73 30t32 92h71q0 -48 -17.5 -93t-56 -73t-102.5 -28z" />
    <glyph glyph-name="Gdotaccent" unicode="&#x120;" horiz-adv-x="800" 
d="M427 -20q-100 0 -182 78t-131 237.5t-49 402.5q0 232 56 393t143 245t179 84q73 0 125.5 -37.5t81 -98t28.5 -133.5q0 -58 -23 -90t-67 -32q-46 0 -67.5 32t-21.5 77q0 31 12.5 51.5t24.5 40.5t12 50q0 27 -23.5 49.5t-60.5 22.5q-51 0 -86.5 -61t-57.5 -160t-32 -213
t-10 -220q0 -158 12.5 -278.5t33.5 -202t48 -122.5t58 -41q20 0 33.5 7t21.5 16v484h-81v72h359v-72h-86v-561h-70q-1 3 -11 10t-26 7q-17 0 -34.5 -9t-42.5 -18.5t-66 -9.5zM429 1503q-35 0 -60 25t-25 59t25 59.5t60 25.5q32 0 57.5 -25.5t25.5 -59.5t-25.5 -59t-57.5 -25
z" />
    <glyph glyph-name="gdotaccent" unicode="&#x121;" horiz-adv-x="796" 
d="M390 -498q-89 0 -166.5 31t-125 90.5t-47.5 144.5q0 65 23 109.5t54.5 71t59 40t36.5 16.5q-8 2 -29.5 10.5t-46 28t-42 51t-17.5 78.5q0 38 13.5 64.5t34 43t39.5 21.5q5 1 12 2.5t9 1.5q-8 6 -26 27t-38 60.5t-34 100t-14 143.5q0 119 29 199.5t76 130t100.5 71
t101.5 21.5q96 0 162.5 -51t102 -143t35.5 -214q0 -125 -29 -206.5t-75 -128.5t-99 -66t-101 -19q-54 0 -87 12t-40 14q-1 1 -2 1h-3q-15 0 -30.5 -16t-15.5 -44q0 -40 46 -67t172 -49q149 -24 229 -91.5t80 -202.5q0 -81 -33.5 -136t-86.5 -88t-113 -47.5t-114 -14.5z
M390 -429q70 0 113 51.5t43 122.5q0 77 -22 117t-82 66q-20 9 -43.5 19t-44 18t-32.5 11q-24 -12 -45.5 -39.5t-35.5 -68.5t-14 -96q0 -57 19 -102.5t55 -72t89 -26.5zM388 305q25 0 46 24t34 97t13 221q0 142 -12.5 214.5t-33.5 97.5t-45 25t-45.5 -25t-35 -98.5
t-13.5 -217.5q0 -147 13.5 -219t35 -95.5t43.5 -23.5zM499 985q11 68 63.5 107t111.5 39q50 0 70.5 -23.5t20.5 -60.5q0 -35 -19.5 -54.5t-49.5 -19.5q-29 0 -41.5 13t-21 26t-29.5 13q-13 0 -23.5 -9t-10.5 -33zM389 1136q-35 0 -60 25t-25 58q0 35 25 60.5t60 25.5
q32 0 57.5 -25.5t25.5 -60.5q0 -33 -25.5 -58t-57.5 -25z" />
    <glyph glyph-name="uni0122" unicode="&#x122;" horiz-adv-x="800" 
d="M427 -20q-100 0 -182 78t-131 237.5t-49 402.5q0 232 56 393t143 245t179 84q73 0 125.5 -37.5t81 -98t28.5 -133.5q0 -58 -23 -90t-67 -32q-46 0 -67.5 32t-21.5 77q0 31 12.5 51.5t24.5 40.5t12 50q0 27 -23.5 49.5t-60.5 22.5q-51 0 -86.5 -61t-57.5 -160t-32 -213
t-10 -220q0 -158 12.5 -278.5t33.5 -202t48 -122.5t58 -41q20 0 33.5 7t21.5 16v484h-81v72h359v-72h-86v-561h-70q-1 3 -11 10t-26 7q-17 0 -34.5 -9t-42.5 -18.5t-66 -9.5zM420 -356l-39 45q11 4 32 20t26 31q-2 -3 -11 -3q-32 0 -54 22t-22 54q0 33 22.5 54.5t54.5 21.5
q35 0 59.5 -22.5t24.5 -66.5q0 -41 -16.5 -72t-38.5 -51.5t-38 -32.5z" />
    <glyph glyph-name="uni0123" unicode="&#x123;" horiz-adv-x="796" 
d="M390 -498q-89 0 -166.5 31t-125 90.5t-47.5 144.5q0 65 23 109.5t54.5 71t59 40t36.5 16.5q-8 2 -29.5 10.5t-46 28t-42 51t-17.5 78.5q0 38 13.5 64.5t34 43t39.5 21.5q5 1 12 2.5t9 1.5q-8 6 -26 27t-38 60.5t-34 100t-14 143.5q0 119 29 199.5t76 130t100.5 71
t101.5 21.5q96 0 162.5 -51t102 -143t35.5 -214q0 -125 -29 -206.5t-75 -128.5t-99 -66t-101 -19q-54 0 -87 12t-40 14q-1 1 -2 1h-3q-15 0 -30.5 -16t-15.5 -44q0 -40 46 -67t172 -49q149 -24 229 -91.5t80 -202.5q0 -81 -33.5 -136t-86.5 -88t-113 -47.5t-114 -14.5z
M390 -429q70 0 113 51.5t43 122.5q0 77 -22 117t-82 66q-20 9 -43.5 19t-44 18t-32.5 11q-24 -12 -45.5 -39.5t-35.5 -68.5t-14 -96q0 -57 19 -102.5t55 -72t89 -26.5zM388 305q25 0 46 24t34 97t13 221q0 142 -12.5 214.5t-33.5 97.5t-45 25t-45.5 -25t-35 -98.5
t-13.5 -217.5q0 -147 13.5 -219t35 -95.5t43.5 -23.5zM499 985q11 68 63.5 107t111.5 39q50 0 70.5 -23.5t20.5 -60.5q0 -35 -19.5 -54.5t-49.5 -19.5q-29 0 -41.5 13t-21 26t-29.5 13q-13 0 -23.5 -9t-10.5 -33zM400 1359l40 -39q-11 -4 -34.5 -24.5t-28.5 -34.5q5 4 16 4
q31 0 53 -22t22 -54q0 -31 -22 -53t-54 -22q-35 0 -60.5 22.5t-25.5 65.5q0 42 16.5 72.5t38.5 51.5t39 33z" />
    <glyph glyph-name="hcircumflex" unicode="&#x125;" horiz-adv-x="869" 
d="M33 0v72h103v1356h-103v72h313v-551q1 10 22.5 37t61.5 50.5t97 23.5q59 0 108 -29.5t78.5 -101.5t29.5 -200v-657h104v-72h-386v72h72v642q0 121 -19 167.5t-59 46.5q-27 0 -51.5 -23.5t-40.5 -65.5t-17 -99v-668h76v-72h-389zM255 1579l147 204h70l146 -204h-83
l-99 133l-98 -133h-83z" />
    <glyph glyph-name="Hbar" unicode="&#x126;" horiz-adv-x="915" 
d="M84 1013v72h766v-72h-766zM49 0v72h93v1256h-93v72h371v-72h-69v-572h213v572h-68v72h367v-72h-96v-1256h96v-72h-367v72h68v612h-213v-612h69v-72h-371z" />
    <glyph glyph-name="hbar" unicode="&#x127;" horiz-adv-x="869" 
d="M31 1240v72h584v-72h-584zM33 0v72h103v1356h-103v72h313v-551q1 10 22.5 37t61.5 50.5t97 23.5q59 0 108 -29.5t78.5 -101.5t29.5 -200v-657h104v-72h-386v72h72v642q0 121 -19 167.5t-59 46.5q-27 0 -51.5 -23.5t-40.5 -65.5t-17 -99v-668h76v-72h-389z" />
    <glyph glyph-name="Itilde" unicode="&#x128;" horiz-adv-x="530" 
d="M64 0v72h97v1256h-97v72h403v-72h-98v-1256h98v-72h-403zM352 1486q-39 0 -65 14.5t-46.5 29t-44.5 14.5q-33 0 -50 -16t-22 -26l-71 30q5 18 23 42t45 42.5t60 18.5q43 0 68.5 -14.5t47 -29t50.5 -14.5q31 0 45 14.5t19 25.5l70 -34q-4 -14 -21 -37t-44 -41.5t-64 -18.5
z" />
    <glyph glyph-name="itilde" unicode="&#x129;" horiz-adv-x="474" 
d="M31 0v72h103v903h-103v72h313v-975h103v-72h-416zM324 1137q-39 0 -65 14.5t-46.5 29t-44.5 14.5q-33 0 -50 -16t-22 -26l-71 30q5 18 23 42t45 42.5t60 18.5q43 0 68.5 -14.5t47 -29t50.5 -14.5q31 0 45 14.5t19 25.5l70 -34q-4 -13 -21 -36.5t-44 -42t-64 -18.5z" />
    <glyph glyph-name="Imacron" unicode="&#x12a;" horiz-adv-x="530" 
d="M64 0v72h97v1256h-97v72h403v-72h-98v-1256h98v-72h-403zM-35 1540v72h603v-72h-603z" />
    <glyph glyph-name="imacron" unicode="&#x12b;" horiz-adv-x="474" 
d="M31 0v72h103v903h-103v72h313v-975h103v-72h-416zM11 1137v72h455v-72h-455z" />
    <glyph glyph-name="ibreve" unicode="&#x12d;" horiz-adv-x="474" 
d="M31 0v72h103v903h-103v72h313v-975h103v-72h-416zM236 1103q-62 0 -100.5 28t-56 73t-17.5 93h71q4 -62 32 -92t71 -30q45 0 73 30t32 92h71q0 -48 -17.5 -93t-56 -73t-102.5 -28z" />
    <glyph glyph-name="Iogonek" unicode="&#x12e;" horiz-adv-x="530" 
d="M64 0v72h97v1256h-97v72h403v-72h-98v-1256h98v-72h-403zM465 -302q-42 0 -80 14.5t-61.5 45.5t-23.5 79q0 52 24.5 88.5t57 60.5t56.5 38l29 -24q-22 -25 -42.5 -57.5t-20.5 -81.5q0 -44 30.5 -58t57.5 -14q25 0 51.5 6.5t44.5 17.5l34 -64q-24 -21 -65.5 -36t-91.5 -15
z" />
    <glyph glyph-name="iogonek" unicode="&#x12f;" horiz-adv-x="519" 
d="M246 1191q-58 0 -100 42t-42 98q0 58 42 101t100 43q54 0 96.5 -43t42.5 -101q0 -37 -19.5 -69t-51.5 -51.5t-68 -19.5zM31 0v72h103v903h-103v72h313v-975h104v-72h-417zM446 -302q-43 0 -81 14.5t-61 45.5t-23 79q0 52 24.5 88.5t57 60.5t55.5 38l30 -24
q-22 -25 -42.5 -57.5t-20.5 -81.5q0 -44 30 -58t58 -14q25 0 51.5 6.5t44.5 17.5l34 -64q-25 -21 -66 -36t-91 -15z" />
    <glyph glyph-name="Idotaccent" unicode="&#x130;" horiz-adv-x="530" 
d="M64 0v72h97v1256h-97v72h403v-72h-98v-1256h98v-72h-403zM267 1503q-35 0 -60 25t-25 59t25 59.5t60 25.5q32 0 57.5 -25.5t25.5 -59.5t-25.5 -59t-57.5 -25z" />
    <glyph glyph-name="dotlessi" unicode="&#x131;" horiz-adv-x="474" 
d="M31 0v72h103v903h-103v72h313v-975h103v-72h-416z" />
    <glyph glyph-name="jcircumflex" unicode="&#x135;" horiz-adv-x="493" 
d="M100 -498q-59 0 -103 33.5t-68.5 90.5t-24.5 128q0 60 26.5 91t66.5 31q37 0 57 -26.5t20 -74.5q0 -32 -8 -53t-16.5 -39.5t-8.5 -42.5q0 -20 5.5 -34.5t16.5 -22t26 -7.5q50 0 68.5 55.5t18.5 163.5v1180h-114v72h324v-1108q0 -128 -25.5 -213t-67.5 -134t-92.5 -69.5
t-100.5 -20.5zM89 1125l147 204h70l146 -204h-83l-99 133l-98 -133h-83z" />
    <glyph glyph-name="uni0136" unicode="&#x136;" horiz-adv-x="841" 
d="M35 0v72h93v1256h-93v72h400v-72h-100v-560l288 560h-88v72h249v-72h-78l-244 -482l16 70l253 -844h75v-72h-367v72h66l-198 662l28 -13v-649h73v-72h-373zM409 -356l-39 45q11 4 32 20t26 31q-2 -3 -11 -3q-32 0 -54 22t-22 54q0 33 22.5 54.5t54.5 21.5
q35 0 59.5 -22.5t24.5 -66.5q0 -41 -16.5 -72t-38.5 -51.5t-38 -32.5z" />
    <glyph glyph-name="uni0137" unicode="&#x137;" horiz-adv-x="833" 
d="M31 0v72h103v1356h-103v72h313v-816l205 291h-96v72h289v-72h-106l-121 -190l237 -713h86v-72h-397v72h83l-171 519l-9 -29v-490h71v-72h-384zM411 -356l-39 45q11 4 32 20t26 31q-2 -3 -11 -3q-32 0 -54 22t-22 54q0 33 22.5 54.5t54.5 21.5q35 0 59.5 -22.5t24.5 -66.5
q0 -41 -16.5 -72t-38.5 -51.5t-38 -32.5z" />
    <glyph glyph-name="kgreenlandic" unicode="&#x138;" horiz-adv-x="841" 
d="M35 0v72h93v902h-93v72h400v-72h-100v-387l289 387h-89v72h249v-72h-78l-244 -342l16 52l253 -612h75v-72h-367v72h67l-199 476l28 -9v-467h73v-72h-373z" />
    <glyph glyph-name="Lacute" unicode="&#x139;" horiz-adv-x="673" 
d="M56 0v72h90v1256h-90v72h391v-72h-92v-1256h70q37 0 61.5 29.5t37.5 85t13 135.5h72v-322h-553zM145 1442l-49 53l183 139q15 11 30 18t28 7q16 0 28.5 -8t19.5 -21q7 -11 7 -24q0 -19 -15 -36t-41 -28z" />
    <glyph glyph-name="lacute" unicode="&#x13a;" horiz-adv-x="485" 
d="M35 0v72h103v1356h-103v72h312v-1428h103v-72h-415zM141 1536l-49 52l184 140q14 11 29 18t28 7q16 0 28.5 -8t19.5 -21q7 -11 7 -25q0 -19 -15 -35.5t-41 -27.5z" />
    <glyph glyph-name="uni013B" unicode="&#x13b;" horiz-adv-x="673" 
d="M56 0v72h90v1256h-90v72h391v-72h-92v-1256h70q37 0 61.5 29.5t37.5 85t13 135.5h72v-322h-553zM336 -356l-39 45q11 4 32 20t26 31q-2 -3 -11 -3q-32 0 -54 22t-22 54q0 33 22.5 54.5t54.5 21.5q35 0 59.5 -22.5t24.5 -66.5q0 -41 -16.5 -72t-38.5 -51.5t-38 -32.5z" />
    <glyph glyph-name="uni013C" unicode="&#x13c;" horiz-adv-x="485" 
d="M35 0v72h103v1356h-103v72h312v-1428h103v-72h-415zM236 -356l-39 45q11 4 32 20t26 31q-2 -3 -11 -3q-32 0 -54 22t-22 54q0 33 22.5 54.5t54.5 21.5q35 0 59.5 -22.5t24.5 -66.5q0 -41 -16.5 -72t-38.5 -51.5t-38 -32.5z" />
    <glyph glyph-name="Lcaron" unicode="&#x13d;" horiz-adv-x="694" 
d="M522 1179q11 46 15 104.5t4 110.5q0 53 22 72.5t48 19.5t46.5 -18t20.5 -64q0 -66 -28.5 -135t-64.5 -116zM56 0v72h90v1256h-90v72h391v-72h-92v-1256h70q37 0 61.5 29.5t37.5 85t13 135.5h72v-322h-553z" />
    <glyph glyph-name="lcaron" unicode="&#x13e;" horiz-adv-x="585" 
d="M410 1179q11 46 15 104.5t4 110.5q0 53 22 72.5t48 19.5q27 0 47 -18t20 -64q0 -66 -28.5 -135t-64.5 -116zM35 0v72h103v1356h-103v72h312v-1428h103v-72h-415z" />
    <glyph glyph-name="ldot" unicode="&#x140;" horiz-adv-x="545" 
d="M35 0v72h103v1356h-103v72h312v-1428h103v-72h-415zM531 681q-50 0 -86.5 37.5t-36.5 87.5q0 52 36.5 89t86.5 37q52 0 88 -37t36 -89q0 -50 -36 -87.5t-88 -37.5z" />
    <glyph glyph-name="Lslash" unicode="&#x141;" horiz-adv-x="718" 
d="M45 428v83l478 360v-82zM56 0v72h90v1256h-90v72h391v-72h-92v-1256h70q37 0 61.5 29.5t37.5 85t13 135.5h72v-322h-553z" />
    <glyph glyph-name="lslash" unicode="&#x142;" horiz-adv-x="513" 
d="M29 424v87l411 353v-82zM35 0v72h103v1356h-103v72h312v-1428h103v-72h-415z" />
    <glyph glyph-name="Nacute" unicode="&#x143;" horiz-adv-x="825" 
d="M30 0v72h93v1256h-93v72h336l277 -928h-11v856h-89v72h252v-72h-89v-1328h-142l-381 1268h14v-1196h94v-72h-261zM313 1442l-49 53l183 139q15 11 30 18t28 7q16 0 28.5 -8t19.5 -21q7 -11 7 -24q0 -19 -15 -36t-41 -28z" />
    <glyph glyph-name="nacute" unicode="&#x144;" horiz-adv-x="859" 
d="M33 0v72h105v903h-105v72h309v-103q4 17 26 44.5t60.5 49t92.5 21.5q57 0 105 -25.5t78 -95t30 -202.5v-664h103v-72h-390v72h77v656q0 111 -18 161t-58 50q-22 0 -40 -15t-31 -41.5t-20.5 -61.5t-8.5 -75v-674h74v-72h-389zM336 1083l-49 52l184 140q14 11 29 18t28 7
q16 0 28.5 -8t19.5 -21q7 -11 7 -25q0 -19 -15 -35.5t-41 -27.5z" />
    <glyph glyph-name="uni0145" unicode="&#x145;" horiz-adv-x="825" 
d="M30 0v72h93v1256h-93v72h336l277 -928h-11v856h-89v72h252v-72h-89v-1328h-142l-381 1268h14v-1196h94v-72h-261zM408 -356l-39 45q11 4 32 20t26 31q-2 -3 -11 -3q-32 0 -54 22t-22 54q0 33 22.5 54.5t54.5 21.5q35 0 59.5 -22.5t24.5 -66.5q0 -41 -16.5 -72
t-38.5 -51.5t-38 -32.5z" />
    <glyph glyph-name="uni0146" unicode="&#x146;" horiz-adv-x="859" 
d="M33 0v72h105v903h-105v72h309v-103q4 17 26 44.5t60.5 49t92.5 21.5q57 0 105 -25.5t78 -95t30 -202.5v-664h103v-72h-390v72h77v656q0 111 -18 161t-58 50q-22 0 -40 -15t-31 -41.5t-20.5 -61.5t-8.5 -75v-674h74v-72h-389zM431 -356l-39 45q11 4 32 20t26 31
q-2 -3 -11 -3q-32 0 -54 22t-22 54q0 33 22.5 54.5t54.5 21.5q35 0 59.5 -22.5t24.5 -66.5q0 -41 -16.5 -72t-38.5 -51.5t-38 -32.5z" />
    <glyph glyph-name="Ncaron" unicode="&#x147;" horiz-adv-x="825" 
d="M30 0v72h93v1256h-93v72h336l277 -928h-11v856h-89v72h252v-72h-89v-1328h-142l-381 1268h14v-1196h94v-72h-261zM383 1470l-166 222h90l110 -150l110 150h91l-165 -222h-70z" />
    <glyph glyph-name="ncaron" unicode="&#x148;" horiz-adv-x="859" 
d="M33 0v72h105v903h-105v72h309v-103q4 17 26 44.5t60.5 49t92.5 21.5q57 0 105 -25.5t78 -95t30 -202.5v-664h103v-72h-390v72h77v656q0 111 -18 161t-58 50q-22 0 -40 -15t-31 -41.5t-20.5 -61.5t-8.5 -75v-674h74v-72h-389zM406 1107l-166 222h90l110 -150l110 150h91
l-165 -222h-70z" />
    <glyph glyph-name="Eng" unicode="&#x14a;" horiz-adv-x="825" 
d="M531 -393q-52 0 -89 25t-57 73t-20 117q0 52 24 76.5t57 24.5q26 0 48 -17.5t22 -61.5q0 -36 -12.5 -52.5t-12.5 -49.5q0 -27 12 -45.5t34 -18.5q33 0 53.5 27t31 74t10.5 106v168h74v-165q0 -74 -14 -127t-39 -87t-56.5 -50.5t-65.5 -16.5zM30 0v72h93v1256h-93v72h336
l277 -928h-11v856h-89v72h252v-72h-89v-1328h-142l-381 1268h14v-1196h94v-72h-261z" />
    <glyph glyph-name="eng" unicode="&#x14b;" horiz-adv-x="838" 
d="M447 -429q-77 0 -119.5 63t-42.5 161q0 51 20 80t56 29q32 0 50.5 -28t18.5 -69q0 -27 -9.5 -44t-19.5 -30.5t-10 -30.5q0 -22 7.5 -35t21 -19t30.5 -6q25 0 41.5 23.5t25.5 62.5t13 87.5t4 99.5v787q0 111 -17 167.5t-63 56.5q-24 0 -41.5 -18t-28.5 -47t-16 -60.5
t-5 -59.5v-669h84v-72h-395v72h101v903h-101v72h305v-98q8 15 30 39.5t56.5 44.5t79.5 20q70 0 119.5 -29.5t75.5 -100.5t26 -198v-795q0 -131 -41.5 -210t-109 -114t-146.5 -35z" />
    <glyph glyph-name="Omacron" unicode="&#x14c;" horiz-adv-x="814" 
d="M409 -22q-104 0 -181.5 87t-120 248t-42.5 385q0 225 42.5 387t120 249.5t181.5 87.5t182.5 -87.5t122.5 -249.5t44 -387q0 -224 -44 -385t-122.5 -248t-182.5 -87zM409 50q33 0 57 43.5t39.5 127.5t22.5 204.5t7 272.5t-7 273t-22.5 205.5t-39.5 129t-57 44.5t-56 -44.5
t-37.5 -129t-21 -205.5t-6.5 -273t6.5 -272.5t21 -204.5t37.5 -127.5t56 -43.5zM108 1540v72h603v-72h-603z" />
    <glyph glyph-name="omacron" unicode="&#x14d;" horiz-adv-x="745" 
d="M370 -22q-59 0 -115.5 34.5t-102 103.5t-72 172t-26.5 239q0 148 28 250.5t74 164.5t102 89.5t112 27.5q55 0 111 -27.5t102.5 -89.5t75.5 -164.5t29 -250.5q0 -136 -27.5 -239t-73 -172t-102.5 -103.5t-115 -34.5zM370 58q48 0 76 111.5t28 357.5q0 245 -28 349t-76 104
q-47 0 -75.5 -104t-28.5 -349q0 -246 28.5 -357.5t75.5 -111.5zM143 1137v72h455v-72h-455z" />
    <glyph glyph-name="obreve" unicode="&#x14f;" horiz-adv-x="745" 
d="M370 -22q-59 0 -115.5 34.5t-102 103.5t-72 172t-26.5 239q0 148 28 250.5t74 164.5t102 89.5t112 27.5q55 0 111 -27.5t102.5 -89.5t75.5 -164.5t29 -250.5q0 -136 -27.5 -239t-73 -172t-102.5 -103.5t-115 -34.5zM370 58q48 0 76 111.5t28 357.5q0 245 -28 349t-76 104
q-47 0 -75.5 -104t-28.5 -349q0 -246 28.5 -357.5t75.5 -111.5zM368 1103q-62 0 -100.5 28t-56 73t-17.5 93h71q4 -62 32 -92t71 -30q45 0 73 30t32 92h71q0 -48 -17.5 -93t-56 -73t-102.5 -28z" />
    <glyph glyph-name="Ohungarumlaut" unicode="&#x150;" horiz-adv-x="814" 
d="M409 -22q-104 0 -181.5 87t-120 248t-42.5 385q0 225 42.5 387t120 249.5t181.5 87.5t182.5 -87.5t122.5 -249.5t44 -387q0 -224 -44 -385t-122.5 -248t-182.5 -87zM409 50q33 0 57 43.5t39.5 127.5t22.5 204.5t7 272.5t-7 273t-22.5 205.5t-39.5 129t-57 44.5t-56 -44.5
t-37.5 -129t-21 -205.5t-6.5 -273t6.5 -272.5t21 -204.5t37.5 -127.5t56 -43.5zM346 1485l-48 49l122 143q14 17 26 25.5t24 8.5q19 0 32 -13.5t13 -32.5q0 -27 -31 -49zM426 1485l-47 49l119 143q14 17 27 25.5t25 8.5q18 0 31.5 -13.5t13.5 -32.5q0 -28 -31 -49z" />
    <glyph glyph-name="ohungarumlaut" unicode="&#x151;" horiz-adv-x="745" 
d="M370 -22q-59 0 -115.5 34.5t-102 103.5t-72 172t-26.5 239q0 148 28 250.5t74 164.5t102 89.5t112 27.5q55 0 111 -27.5t102.5 -89.5t75.5 -164.5t29 -250.5q0 -136 -27.5 -239t-73 -172t-102.5 -103.5t-115 -34.5zM370 58q48 0 76 111.5t28 357.5q0 245 -28 349t-76 104
q-47 0 -75.5 -104t-28.5 -349q0 -246 28.5 -357.5t75.5 -111.5zM261 1121l-48 49l122 143q14 17 26 25.5t24 8.5q19 0 32 -13.5t13 -32.5q0 -27 -31 -49zM341 1121l-47 49l119 143q14 17 27 25.5t25 8.5q18 0 31.5 -13.5t13.5 -32.5q0 -28 -31 -49z" />
    <glyph glyph-name="OE" unicode="&#x152;" horiz-adv-x="1100" 
d="M410 -22q-104 0 -182 95t-120.5 257.5t-42.5 367.5q0 206 43 369.5t121 259t182 95.5q50 0 97.5 -21t77.5 -66l-46 -64q-16 44 -47 61.5t-52 17.5q-47 0 -79.5 -51.5t-51 -142t-27 -208.5t-8.5 -250t8.5 -249.5t28 -207.5t51 -140.5t77.5 -50.5q26 0 48 15t37.5 37.5
t19.5 42.5l52 -62q-33 -53 -80.5 -79t-106.5 -26zM510 0v1400h513v-319h-72q0 81 -6.5 136.5t-35 83t-95.5 27.5h-96v-572h218v95h72v-258h-72v91h-218v-612h92q69 0 98 28.5t36 84.5t7 137h72v-322h-513z" />
    <glyph glyph-name="oe" unicode="&#x153;" horiz-adv-x="1152" 
d="M370 -22q-59 0 -115.5 34.5t-102 103.5t-72 172t-26.5 239q0 148 28 250.5t74 164.5t102 89.5t112 27.5q55 0 111 -27.5t102.5 -89.5t75.5 -164.5t29 -250.5q0 -136 -27.5 -239t-73 -172t-102.5 -103.5t-115 -34.5zM370 58q48 0 76 111.5t28 357.5q0 245 -28 349t-76 104
q-47 0 -75.5 -104t-28.5 -349q0 -246 28.5 -357.5t75.5 -111.5zM809 -21q-77 0 -137 38.5t-102 110t-63.5 172.5t-21.5 226q0 140 28 241t75.5 165.5t104 95.5t112.5 31q67 0 120.5 -35.5t91.5 -97.5t58 -145t20 -179q0 -21 -0.5 -41.5t-1.5 -40.5h-410v72h211
q0 140 -9.5 226.5t-29 127t-50.5 40.5t-55.5 -41t-39 -135t-14.5 -254q0 -120 7 -212.5t23 -156t42 -95.5t66 -32q68 0 107.5 36.5t55.5 72.5l61 -41q-21 -56 -89.5 -102.5t-159.5 -46.5z" />
    <glyph glyph-name="Racute" unicode="&#x154;" horiz-adv-x="893" 
d="M734 -17q-84 0 -122.5 40t-49.5 110t-11 158q0 52 1.5 101.5t1.5 85.5q0 85 -11.5 129t-42 60.5t-87.5 16.5h-48v-612h100v-72h-412v72h104v1256h-104v72h422q85 0 153 -33.5t108 -105t40 -186.5q0 -86 -24 -150.5t-63 -107t-85.5 -66t-92.5 -29.5q102 -4 157 -38
t76 -102.5t21 -176.5q0 -53 -2.5 -105t-2.5 -98q0 -29 2 -61t9.5 -54.5t20.5 -22.5q12 0 18 10.5t6 23.5h67q-5 -40 -24 -65.5t-51 -37.5t-74 -12zM365 756h60q48 0 78.5 42.5t45.5 114t15 158.5q0 82 -13.5 139.5t-42.5 87.5t-78 30h-65v-572zM345 1442l-49 53l183 139
q15 11 30 18t28 7q16 0 28.5 -8t19.5 -21q7 -11 7 -24q0 -19 -15 -36t-41 -28z" />
    <glyph glyph-name="racute" unicode="&#x155;" horiz-adv-x="675" 
d="M26 0v72h105v903h-105v72h296l12 -92q4 14 23.5 39t51.5 45t75 20q56 0 91 -36.5t52.5 -98t17.5 -136.5q0 -61 -23 -93t-63 -32q-37 0 -60 27t-23 75q0 31 12 50t23.5 37.5t11.5 49.5q0 39 -14 57t-42 18q-32 0 -61 -30t-47 -85.5t-18 -130.5v-659h105v-72h-420z
M307 1084l-49 52l184 140q14 11 29 18t28 7q16 0 28.5 -8t19.5 -21q7 -11 7 -25q0 -19 -15 -35.5t-41 -27.5z" />
    <glyph glyph-name="uni0156" unicode="&#x156;" horiz-adv-x="893" 
d="M734 -17q-84 0 -122.5 40t-49.5 110t-11 158q0 52 1.5 101.5t1.5 85.5q0 85 -11.5 129t-42 60.5t-87.5 16.5h-48v-612h100v-72h-412v72h104v1256h-104v72h422q85 0 153 -33.5t108 -105t40 -186.5q0 -86 -24 -150.5t-63 -107t-85.5 -66t-92.5 -29.5q102 -4 157 -38
t76 -102.5t21 -176.5q0 -53 -2.5 -105t-2.5 -98q0 -29 2 -61t9.5 -54.5t20.5 -22.5q12 0 18 10.5t6 23.5h67q-5 -40 -24 -65.5t-51 -37.5t-74 -12zM365 756h60q48 0 78.5 42.5t45.5 114t15 158.5q0 82 -13.5 139.5t-42.5 87.5t-78 30h-65v-572zM440 -356l-39 45q11 4 32 20
t26 31q-2 -3 -11 -3q-32 0 -54 22t-22 54q0 33 22.5 54.5t54.5 21.5q35 0 59.5 -22.5t24.5 -66.5q0 -41 -16.5 -72t-38.5 -51.5t-38 -32.5z" />
    <glyph glyph-name="uni0157" unicode="&#x157;" horiz-adv-x="675" 
d="M26 0v72h105v903h-105v72h296l12 -92q4 14 23.5 39t51.5 45t75 20q56 0 91 -36.5t52.5 -98t17.5 -136.5q0 -61 -23 -93t-63 -32q-37 0 -60 27t-23 75q0 31 12 50t23.5 37.5t11.5 49.5q0 39 -14 57t-42 18q-32 0 -61 -30t-47 -85.5t-18 -130.5v-659h105v-72h-420z
M275 -356l-39 45q11 4 32 20t26 31q-2 -3 -11 -3q-32 0 -54 22t-22 54q0 33 22.5 54.5t54.5 21.5q35 0 59.5 -22.5t24.5 -66.5q0 -41 -16.5 -72t-38.5 -51.5t-38 -32.5z" />
    <glyph glyph-name="Rcaron" unicode="&#x158;" horiz-adv-x="893" 
d="M734 -17q-84 0 -122.5 40t-49.5 110t-11 158q0 52 1.5 101.5t1.5 85.5q0 85 -11.5 129t-42 60.5t-87.5 16.5h-48v-612h100v-72h-412v72h104v1256h-104v72h422q85 0 153 -33.5t108 -105t40 -186.5q0 -86 -24 -150.5t-63 -107t-85.5 -66t-92.5 -29.5q102 -4 157 -38
t76 -102.5t21 -176.5q0 -53 -2.5 -105t-2.5 -98q0 -29 2 -61t9.5 -54.5t20.5 -22.5q12 0 18 10.5t6 23.5h67q-5 -40 -24 -65.5t-51 -37.5t-74 -12zM365 756h60q48 0 78.5 42.5t45.5 114t15 158.5q0 82 -13.5 139.5t-42.5 87.5t-78 30h-65v-572zM415 1470l-166 222h90
l110 -150l110 150h91l-165 -222h-70z" />
    <glyph glyph-name="rcaron" unicode="&#x159;" horiz-adv-x="675" 
d="M26 0v72h105v903h-105v72h296l12 -92q4 14 23.5 39t51.5 45t75 20q56 0 91 -36.5t52.5 -98t17.5 -136.5q0 -61 -23 -93t-63 -32q-37 0 -60 27t-23 75q0 31 12 50t23.5 37.5t11.5 49.5q0 39 -14 57t-42 18q-32 0 -61 -30t-47 -85.5t-18 -130.5v-659h105v-72h-420z
M377 1107l-166 222h90l110 -150l110 150h91l-165 -222h-70z" />
    <glyph glyph-name="Sacute" unicode="&#x15a;" horiz-adv-x="662" 
d="M347 -27q-52 0 -83.5 12.5t-50.5 29.5t-32 29.5t-27 12.5q-26 0 -26 -57h-66v330h72q1 -24 10.5 -60t26.5 -74t42.5 -71.5t58.5 -55t75 -21.5q43 0 67.5 19.5t35 57t10.5 89.5q0 64 -27 127.5t-72.5 132t-104.5 143.5q-78 101 -119.5 183.5t-57 155.5t-15.5 144
q0 104 35 176t92 109t123 37q59 0 89 -18.5t46 -37t32 -18.5q13 0 19.5 11t7.5 41h67v-327h-72q-2 33 -14 80t-34.5 91.5t-56.5 74t-80 29.5q-54 0 -83.5 -40t-29.5 -112q0 -52 21 -109.5t65 -124.5t111 -149q66 -79 112 -157t70 -160t24 -172q0 -99 -21.5 -166.5
t-58 -107.5t-83.5 -58.5t-98 -18.5zM234 1442l-49 53l183 139q15 11 30 18t28 7q16 0 28.5 -8t19.5 -21q7 -11 7 -24q0 -19 -15 -36t-41 -28z" />
    <glyph glyph-name="sacute" unicode="&#x15b;" horiz-adv-x="588" 
d="M302 -22q-57 0 -86.5 14t-45 28t-30.5 14q-13 0 -18 -8.5t-5 -25.5h-65v317h77q5 -56 18.5 -104.5t34.5 -85t50.5 -57t66.5 -20.5q34 0 54.5 15.5t30 41t9.5 56.5q0 45 -17 88t-50.5 88.5t-83.5 97.5q-77 80 -131 164t-54 207q0 87 33.5 142.5t87 82t112.5 26.5
q43 0 69 -11t41.5 -22.5t26.5 -11.5q9 0 14 7.5t5 25.5h66v-308h-76q-3 49 -13.5 94t-28.5 79t-42.5 54t-57.5 20q-48 0 -72.5 -36t-24.5 -86q0 -60 39 -113t109 -124q54 -54 97.5 -111t69 -123t25.5 -148q0 -90 -29.5 -149.5t-82.5 -88.5t-123 -29zM201 1083l-49 52
l184 140q14 11 29 18t28 7q16 0 28.5 -8t19.5 -21q7 -11 7 -25q0 -19 -15 -35.5t-41 -27.5z" />
    <glyph glyph-name="scircumflex" unicode="&#x15d;" horiz-adv-x="588" 
d="M302 -22q-57 0 -86.5 14t-45 28t-30.5 14q-13 0 -18 -8.5t-5 -25.5h-65v317h77q5 -56 18.5 -104.5t34.5 -85t50.5 -57t66.5 -20.5q34 0 54.5 15.5t30 41t9.5 56.5q0 45 -17 88t-50.5 88.5t-83.5 97.5q-77 80 -131 164t-54 207q0 87 33.5 142.5t87 82t112.5 26.5
q43 0 69 -11t41.5 -22.5t26.5 -11.5q9 0 14 7.5t5 25.5h66v-308h-76q-3 49 -13.5 94t-28.5 79t-42.5 54t-57.5 20q-48 0 -72.5 -36t-24.5 -86q0 -60 39 -113t109 -124q54 -54 97.5 -111t69 -123t25.5 -148q0 -90 -29.5 -149.5t-82.5 -88.5t-123 -29zM124 1126l147 204h70
l146 -204h-83l-99 133l-98 -133h-83z" />
    <glyph glyph-name="Scedilla" unicode="&#x15e;" horiz-adv-x="662" 
d="M347 -27q-52 0 -83.5 12.5t-50.5 29.5t-32 29.5t-27 12.5q-26 0 -26 -57h-66v330h72q1 -24 10.5 -60t26.5 -74t42.5 -71.5t58.5 -55t75 -21.5q43 0 67.5 19.5t35 57t10.5 89.5q0 64 -27 127.5t-72.5 132t-104.5 143.5q-78 101 -119.5 183.5t-57 155.5t-15.5 144
q0 104 35 176t92 109t123 37q59 0 89 -18.5t46 -37t32 -18.5q13 0 19.5 11t7.5 41h67v-327h-72q-2 33 -14 80t-34.5 91.5t-56.5 74t-80 29.5q-54 0 -83.5 -40t-29.5 -112q0 -52 21 -109.5t65 -124.5t111 -149q66 -79 112 -157t70 -160t24 -172q0 -99 -21.5 -166.5
t-58 -107.5t-83.5 -58.5t-98 -18.5zM357 -315q-50 0 -92.5 10.5t-57.5 18.5l27 66q11 -7 44.5 -17.5t71.5 -10.5q32 0 54.5 16t22.5 44q0 31 -14.5 41t-35.5 10q-16 0 -32 -6.5t-28 -20.5l-68 4l61 160h72l-44 -106q5 6 29 16t57 10q39 0 73 -24.5t34 -84.5q0 -43 -23.5 -71
t-63.5 -41.5t-87 -13.5z" />
    <glyph glyph-name="scedilla" unicode="&#x15f;" horiz-adv-x="588" 
d="M302 -22q-57 0 -86.5 14t-45 28t-30.5 14q-13 0 -18 -8.5t-5 -25.5h-65v317h71q5 -56 17.5 -104.5t33.5 -85t52 -57t73 -20.5q34 0 54.5 15.5t30 41t9.5 56.5q0 45 -17 88t-50.5 88.5t-83.5 97.5q-77 80 -131 164t-54 207q0 78 33.5 134.5t87 86.5t112.5 30q43 0 69 -11
t41.5 -22.5t26.5 -11.5q9 0 14 7.5t5 25.5h66v-308h-69q-4 49 -13.5 94t-27.5 79t-44.5 54t-63.5 20q-48 0 -72.5 -36t-24.5 -86q0 -60 39 -113t109 -124q54 -54 97.5 -111t69 -123t25.5 -148q0 -122 -64.5 -194.5t-170.5 -72.5zM316 -315q-50 0 -92 10.5t-57 18.5l27 66
q10 -7 44 -17.5t72 -10.5q31 0 54 16t23 44q0 31 -14.5 41t-36.5 10q-16 0 -32 -6.5t-27 -20.5l-68 4l60 160h72l-43 -106q4 6 28.5 16t57.5 10q39 0 73 -24t34 -85q0 -43 -24 -71t-63.5 -41.5t-87.5 -13.5z" />
    <glyph glyph-name="Scaron" unicode="&#x160;" horiz-adv-x="662" 
d="M347 -27q-52 0 -83.5 12.5t-50.5 29.5t-32 29.5t-27 12.5q-26 0 -26 -57h-66v330h72q1 -24 10.5 -60t26.5 -74t42.5 -71.5t58.5 -55t75 -21.5q43 0 67.5 19.5t35 57t10.5 89.5q0 64 -27 127.5t-72.5 132t-104.5 143.5q-78 101 -119.5 183.5t-57 155.5t-15.5 144
q0 104 35 176t92 109t123 37q59 0 89 -18.5t46 -37t32 -18.5q13 0 19.5 11t7.5 41h67v-327h-72q-2 33 -14 80t-34.5 91.5t-56.5 74t-80 29.5q-54 0 -83.5 -40t-29.5 -112q0 -52 21 -109.5t65 -124.5t111 -149q66 -79 112 -157t70 -160t24 -172q0 -99 -21.5 -166.5
t-58 -107.5t-83.5 -58.5t-98 -18.5zM304 1470l-166 222h90l110 -150l110 150h91l-165 -222h-70z" />
    <glyph glyph-name="scaron" unicode="&#x161;" horiz-adv-x="588" 
d="M302 -22q-57 0 -86.5 14t-45 28t-30.5 14q-13 0 -18 -8.5t-5 -25.5h-65v317h77q5 -56 18.5 -104.5t34.5 -85t50.5 -57t66.5 -20.5q34 0 54.5 15.5t30 41t9.5 56.5q0 45 -17 88t-50.5 88.5t-83.5 97.5q-77 80 -131 164t-54 207q0 87 33.5 142.5t87 82t112.5 26.5
q43 0 69 -11t41.5 -22.5t26.5 -11.5q9 0 14 7.5t5 25.5h66v-308h-76q-3 49 -13.5 94t-28.5 79t-42.5 54t-57.5 20q-48 0 -72.5 -36t-24.5 -86q0 -60 39 -113t109 -124q54 -54 97.5 -111t69 -123t25.5 -148q0 -90 -29.5 -149.5t-82.5 -88.5t-123 -29zM271 1107l-166 222h90
l110 -150l110 150h91l-165 -222h-70z" />
    <glyph glyph-name="uni0162" unicode="&#x162;" horiz-adv-x="784" 
d="M172 0v72h116v1256h-44q-59 0 -87.5 -24t-37.5 -78t-9 -145h-72v319h707v-319h-71q0 91 -9 145t-37.5 78t-86.5 24h-44v-1256h119v-72h-444zM403 -315q-50 0 -92 10.5t-57 18.5l27 66q10 -7 43.5 -17.5t72.5 -10.5q31 0 54 16t23 44q0 31 -15 41t-36 10q-16 0 -32 -6.5
t-28 -20.5l-67 4l60 160h72l-43 -106q4 7 28.5 16.5t57.5 9.5q39 0 73 -24t34 -85q0 -43 -24 -71t-63.5 -41.5t-87.5 -13.5z" />
    <glyph glyph-name="uni0163" unicode="&#x163;" horiz-adv-x="529" 
d="M355 -18q-55 0 -105.5 18t-81.5 68t-31 144v763h-137v72h137q37 15 65 60.5t46 107.5t24 127h75v-295h158v-72h-158v-845q0 -41 18.5 -55.5t36.5 -14.5q19 0 34 7.5t22 16.5l41 -58q-24 -19 -59.5 -31.5t-84.5 -12.5zM346 -301q-51 0 -93 10.5t-57 18.5l27 66
q11 -7 44.5 -17.5t71.5 -10.5q32 0 54.5 16t22.5 44q0 31 -14.5 41t-35.5 10q-16 0 -32.5 -6.5t-27.5 -20.5l-68 4l61 160h72l-44 -106q5 7 29 16.5t57 9.5q39 0 73 -24t34 -85q0 -43 -23.5 -71t-63.5 -41.5t-87 -13.5z" />
    <glyph glyph-name="Tcaron" unicode="&#x164;" horiz-adv-x="784" 
d="M172 0v72h116v1256h-44q-59 0 -87.5 -24t-37.5 -78t-9 -145h-72v319h707v-319h-71q0 91 -9 145t-37.5 78t-86.5 24h-44v-1256h119v-72h-444zM359 1478l-166 222h90l110 -150l110 150h91l-165 -222h-70z" />
    <glyph glyph-name="tcaron" unicode="&#x165;" horiz-adv-x="604" 
d="M451 1179q11 46 15 104.5t4 110.5q0 53 22 72.5t48 19.5t46.5 -18t20.5 -64q0 -66 -28.5 -135t-64.5 -116zM355 -18q-55 0 -105.5 18t-81.5 68t-31 144v763h-137v72h137q37 15 65 60.5t46 107.5t24 127h75v-295h158v-72h-158v-845q0 -41 18.5 -55.5t36.5 -14.5
q19 0 34 7.5t22 16.5l41 -58q-24 -19 -59.5 -31.5t-84.5 -12.5z" />
    <glyph glyph-name="Tbar" unicode="&#x166;" horiz-adv-x="784" 
d="M119 666v71h543v-71h-543zM172 0v72h116v1256h-44q-59 0 -87.5 -24t-37.5 -78t-9 -145h-72v319h707v-319h-71q0 91 -9 145t-37.5 78t-86.5 24h-44v-1256h119v-72h-444z" />
    <glyph glyph-name="tbar" unicode="&#x167;" horiz-adv-x="529" 
d="M24 617v60h461v-60h-461zM355 -18q-55 0 -105.5 18t-81.5 68t-31 144v763h-137v72h137q37 15 65 60.5t46 107.5t24 127h75v-295h158v-72h-158v-845q0 -41 18.5 -55.5t36.5 -14.5q19 0 34 7.5t22 16.5l41 -58q-24 -19 -59.5 -31.5t-84.5 -12.5z" />
    <glyph glyph-name="Utilde" unicode="&#x168;" horiz-adv-x="799" 
d="M421 -24q-48 0 -98.5 14.5t-93 52.5t-69 107t-26.5 178v1000h-98v72h416v-72h-105v-1005q0 -140 32 -200.5t93 -60.5q25 0 47.5 11t40 37.5t27 73t9.5 117.5v1027h-86v72h254v-72h-95v-1036q0 -121 -30.5 -190t-86.5 -97.5t-131 -28.5zM498 1486q-39 0 -65 14.5t-46.5 29
t-44.5 14.5q-33 0 -50 -16t-22 -26l-71 30q5 18 23 42t45 42.5t60 18.5q43 0 68.5 -14.5t47 -29t50.5 -14.5q31 0 45 14.5t19 25.5l70 -34q-4 -14 -21 -37t-44 -41.5t-64 -18.5z" />
    <glyph glyph-name="utilde" unicode="&#x169;" horiz-adv-x="832" 
d="M346 -22q-61 0 -112.5 24.5t-82 92t-30.5 197.5v683h-103v71h313v-730q0 -95 8.5 -145t26 -67.5t43.5 -17.5q31 0 54.5 32t36.5 89.5t13 135.5v632h-93v71h303v-974h89v-72h-273l-12 108q-5 -25 -27.5 -55.5t-61 -52.5t-92.5 -22zM511 1137q-39 0 -65 14.5t-46.5 29
t-44.5 14.5q-33 0 -50 -16t-22 -26l-71 30q5 18 23 42t45 42.5t60 18.5q43 0 68.5 -14.5t47 -29t50.5 -14.5q31 0 45 14.5t19 25.5l70 -34q-4 -13 -21 -36.5t-44 -42t-64 -18.5z" />
    <glyph glyph-name="Umacron" unicode="&#x16a;" horiz-adv-x="799" 
d="M421 -24q-48 0 -98.5 14.5t-93 52.5t-69 107t-26.5 178v1000h-98v72h416v-72h-105v-1005q0 -140 32 -200.5t93 -60.5q25 0 47.5 11t40 37.5t27 73t9.5 117.5v1027h-86v72h254v-72h-95v-1036q0 -121 -30.5 -190t-86.5 -97.5t-131 -28.5zM111 1540v72h603v-72h-603z" />
    <glyph glyph-name="umacron" unicode="&#x16b;" horiz-adv-x="832" 
d="M346 -22q-61 0 -112.5 24.5t-82 92t-30.5 197.5v683h-103v71h313v-730q0 -95 8.5 -145t26 -67.5t43.5 -17.5q31 0 54.5 32t36.5 89.5t13 135.5v632h-93v71h303v-974h89v-72h-273l-12 108q-5 -25 -27.5 -55.5t-61 -52.5t-92.5 -22zM198 1137v72h455v-72h-455z" />
    <glyph glyph-name="ubreve" unicode="&#x16d;" horiz-adv-x="832" 
d="M346 -22q-61 0 -112.5 24.5t-82 92t-30.5 197.5v683h-103v71h313v-730q0 -95 8.5 -145t26 -67.5t43.5 -17.5q31 0 54.5 32t36.5 89.5t13 135.5v632h-93v71h303v-974h89v-72h-273l-12 108q-5 -25 -27.5 -55.5t-61 -52.5t-92.5 -22zM423 1103q-62 0 -100.5 28t-56 73
t-17.5 93h71q4 -62 32 -92t71 -30q45 0 73 30t32 92h71q0 -48 -17.5 -93t-56 -73t-102.5 -28z" />
    <glyph glyph-name="Uring" unicode="&#x16e;" horiz-adv-x="799" 
d="M421 -24q-48 0 -98.5 14.5t-93 52.5t-69 107t-26.5 178v1000h-98v72h416v-72h-105v-1005q0 -140 32 -200.5t93 -60.5q25 0 47.5 11t40 37.5t27 73t9.5 117.5v1027h-86v72h254v-72h-95v-1036q0 -121 -30.5 -190t-86.5 -97.5t-131 -28.5zM413 1466q-44 0 -77 32.5t-33 85.5
q0 55 33 86.5t77 31.5q43 0 75 -31.5t32 -86.5q0 -53 -32 -85.5t-75 -32.5zM413 1522q25 0 36 19.5t11 44.5q0 21 -11 40t-36 19t-37 -19t-12 -40q0 -25 12 -44.5t37 -19.5z" />
    <glyph glyph-name="uring" unicode="&#x16f;" horiz-adv-x="832" 
d="M346 -22q-61 0 -112.5 24.5t-82 92t-30.5 197.5v683h-103v71h313v-730q0 -95 8.5 -145t26 -67.5t43.5 -17.5q31 0 54.5 32t36.5 89.5t13 135.5v632h-93v71h303v-974h89v-72h-273l-12 108q-5 -25 -27.5 -55.5t-61 -52.5t-92.5 -22zM426 1097q-44 0 -77 32.5t-33 85.5
q0 55 33 86.5t77 31.5q43 0 75 -31.5t32 -86.5q0 -53 -32 -85.5t-75 -32.5zM426 1153q25 0 36 19.5t11 44.5q0 21 -11 40t-36 19t-37 -19t-12 -40q0 -25 12 -44.5t37 -19.5z" />
    <glyph glyph-name="Uhungarumlaut" unicode="&#x170;" horiz-adv-x="799" 
d="M421 -24q-48 0 -98.5 14.5t-93 52.5t-69 107t-26.5 178v1000h-98v72h416v-72h-105v-1005q0 -140 32 -200.5t93 -60.5q25 0 47.5 11t40 37.5t27 73t9.5 117.5v1027h-86v72h254v-72h-95v-1036q0 -121 -30.5 -190t-86.5 -97.5t-131 -28.5zM349 1485l-48 49l122 143
q14 17 26 25.5t24 8.5q19 0 32 -13.5t13 -32.5q0 -27 -31 -49zM429 1485l-47 49l119 143q14 17 27 25.5t25 8.5q18 0 31.5 -13.5t13.5 -32.5q0 -28 -31 -49z" />
    <glyph glyph-name="uhungarumlaut" unicode="&#x171;" horiz-adv-x="832" 
d="M346 -22q-61 0 -112.5 24.5t-82 92t-30.5 197.5v683h-103v71h313v-730q0 -95 8.5 -145t26 -67.5t43.5 -17.5q31 0 54.5 32t36.5 89.5t13 135.5v632h-93v71h303v-974h89v-72h-273l-12 108q-5 -25 -27.5 -55.5t-61 -52.5t-92.5 -22zM316 1121l-48 49l122 143q14 17 26 25.5
t24 8.5q19 0 32 -13.5t13 -32.5q0 -27 -31 -49zM396 1121l-47 49l119 143q14 17 27 25.5t25 8.5q18 0 31.5 -13.5t13.5 -32.5q0 -28 -31 -49z" />
    <glyph glyph-name="Uogonek" unicode="&#x172;" horiz-adv-x="799" 
d="M421 -24q-48 0 -98.5 14.5t-93 52.5t-69 107t-26.5 178v1000h-98v72h416v-72h-105v-1005q0 -140 32 -200.5t93 -60.5q25 0 47.5 11t40 37.5t27 73t9.5 117.5v1027h-86v72h254v-72h-95v-1036q0 -121 -30.5 -190t-86.5 -97.5t-131 -28.5zM571 -283q-43 0 -81 14t-61 45
t-23 80q0 52 24.5 88.5t57 61t55.5 36.5l30 -23q-22 -25 -42.5 -57.5t-20.5 -81.5q0 -44 30 -58t58 -14q25 0 51.5 6.5t43.5 17.5l35 -64q-25 -22 -66 -36.5t-91 -14.5z" />
    <glyph glyph-name="uogonek" unicode="&#x173;" horiz-adv-x="832" 
d="M346 -22q-61 0 -112.5 24.5t-82 92t-30.5 197.5v683h-103v71h313v-730q0 -95 8.5 -145t26 -67.5t43.5 -17.5q31 0 54.5 32t36.5 89.5t13 135.5v632h-93v71h303v-974h89v-72h-273l-12 108q-5 -25 -27.5 -55.5t-61 -52.5t-92.5 -22zM810 -302q-43 0 -81 14.5t-61 45.5
t-23 79q0 52 24.5 88.5t56.5 60.5t56 38l30 -24q-22 -25 -42.5 -57.5t-20.5 -81.5q0 -44 30 -58t58 -14q25 0 51 6.5t44 17.5l35 -64q-25 -21 -66.5 -36t-90.5 -15z" />
    <glyph glyph-name="Wcircumflex" unicode="&#x174;" horiz-adv-x="1146" 
d="M320 -1l-207 1329h-102v72h417v-72h-71l100 -840l-29 -65l136 859l22 -161l-42 207h-82v72h397v-72h-83l109 -826l-21 -64l121 890h-80v72h242v-72h-83l-202 -1329h-96l-177 1107l35 64l-209 -1171h-95zM420 1464l147 204h70l146 -204h-83l-99 133l-98 -133h-83z" />
    <glyph glyph-name="wcircumflex" unicode="&#x175;" horiz-adv-x="1085" 
d="M696 -3l-178 978h-77v72h367v-72h-72l84 -579l93 579h-62v72h221v-72h-77l-174 -978h-125zM269 -3l-175 978h-78v72h374v-72h-70l74 -579l96 579h-36v72h197v-72h-79l-179 -978h-124zM375 1126l147 204h70l146 -204h-83l-99 133l-98 -133h-83z" />
    <glyph glyph-name="Ycircumflex" unicode="&#x176;" horiz-adv-x="798" 
d="M196 0v72h104v516l-184 740h-95v72h409v-72h-77l153 -679h-61l169 679h-82v72h253v-72h-94l-181 -707v-549h103v-72h-417zM218 1464l147 204h70l146 -204h-83l-99 133l-98 -133h-83z" />
    <glyph glyph-name="ycircumflex" unicode="&#x177;" horiz-adv-x="700" 
d="M209 -502q-47 0 -78.5 34t-47.5 91.5t-16 129.5q0 59 23.5 90t61.5 31t60.5 -27t22.5 -75q0 -37 -14 -60t-27.5 -42.5t-13.5 -49.5q0 -25 9.5 -44t28.5 -19q11 0 18.5 9t13.5 28t13 48l75 355l-241 978h-83v72h384v-72h-77l119 -527l106 527h-74v72h229v-72h-74
l-215 -982l-81 -367q-8 -41 -23 -69.5t-38.5 -43.5t-60.5 -15zM176 1125l147 204h70l146 -204h-83l-99 133l-98 -133h-83z" />
    <glyph glyph-name="Ydieresis" unicode="&#x178;" horiz-adv-x="798" 
d="M196 0v72h104v516l-184 740h-95v72h409v-72h-77l153 -679h-61l169 679h-82v72h253v-72h-94l-181 -707v-549h103v-72h-417zM519 1501q-35 0 -59.5 25t-24.5 58q0 36 24.5 62t59.5 26q33 0 58.5 -26t25.5 -62q0 -33 -25.5 -58t-58.5 -25zM278 1501q-33 0 -57.5 25t-24.5 58
q0 36 24.5 62t57.5 26q35 0 60 -26t25 -62q0 -33 -25 -58t-60 -25z" />
    <glyph glyph-name="Zacute" unicode="&#x179;" horiz-adv-x="709" 
d="M59 0v72l339 1256h-69q-77 0 -115.5 -27.5t-50.5 -83t-12 -136.5h-72v319h548v-71l-341 -1257h90q70 0 114.5 28.5t66 84.5t21.5 137h72v-322h-591zM259 1442l-49 53l183 139q15 11 30 18t28 7q16 0 28.5 -8t19.5 -21q7 -11 7 -24q0 -19 -15 -36t-41 -28z" />
    <glyph glyph-name="zacute" unicode="&#x17a;" horiz-adv-x="638" 
d="M76 0v72l270 903h-94q-48 0 -69.5 -19.5t-26.5 -70.5t-5 -146h-69v308h480v-72l-270 -903h91q52 0 73.5 20.5t26 73.5t4.5 151h72v-317h-483zM216 1083l-49 52l184 140q14 11 29 18t28 7q16 0 28.5 -8t19.5 -21q7 -11 7 -25q0 -19 -15 -35.5t-41 -27.5z" />
    <glyph glyph-name="Zdotaccent" unicode="&#x17b;" horiz-adv-x="709" 
d="M59 0v72l339 1256h-69q-77 0 -115.5 -27.5t-50.5 -83t-12 -136.5h-72v319h548v-71l-341 -1257h90q70 0 114.5 28.5t66 84.5t21.5 137h72v-322h-591zM363 1503q-35 0 -60 25t-25 59t25 59.5t60 25.5q32 0 57.5 -25.5t25.5 -59.5t-25.5 -59t-57.5 -25z" />
    <glyph glyph-name="zdotaccent" unicode="&#x17c;" horiz-adv-x="638" 
d="M76 0v72l270 903h-94q-48 0 -69.5 -19.5t-26.5 -70.5t-5 -146h-69v308h480v-72l-270 -903h91q52 0 73.5 20.5t26 73.5t4.5 151h72v-317h-483zM321 1136q-35 0 -60 25t-25 58q0 35 25 60.5t60 25.5q32 0 57.5 -25.5t25.5 -60.5q0 -33 -25.5 -58t-57.5 -25z" />
    <glyph glyph-name="Zcaron" unicode="&#x17d;" horiz-adv-x="709" 
d="M59 0v72l339 1256h-69q-77 0 -115.5 -27.5t-50.5 -83t-12 -136.5h-72v319h548v-71l-341 -1257h90q70 0 114.5 28.5t66 84.5t21.5 137h72v-322h-591zM328 1470l-166 222h90l110 -150l110 150h91l-165 -222h-70z" />
    <glyph glyph-name="zcaron" unicode="&#x17e;" horiz-adv-x="638" 
d="M76 0v72l270 903h-94q-48 0 -69.5 -19.5t-26.5 -70.5t-5 -146h-69v308h480v-72l-270 -903h91q52 0 73.5 20.5t26 73.5t4.5 151h72v-317h-483zM286 1107l-166 222h90l110 -150l110 150h91l-165 -222h-70z" />
    <glyph glyph-name="uni018F" unicode="&#x18f;" horiz-adv-x="830" 
d="M407 -25q-79 0 -141.5 47.5t-107 137.5t-68 216.5t-23.5 283.5q0 28 1 56t3 56h496v-72h-275q0 -214 11 -359t36.5 -219.5t67.5 -74.5t73.5 68.5t49.5 209t18 356.5q0 164 -6 288t-22.5 209.5t-49.5 128.5t-86 43q-58 0 -102 -28t-72.5 -67t-43.5 -72l-73 48
q21 48 66 93.5t107 75t136 29.5q95 0 164.5 -52t115.5 -149t69 -233.5t23 -306.5q0 -187 -32 -322t-85 -221.5t-118 -128t-132 -41.5zM68 1183v217h72q0 -32 5 -63.5t19 -31.5l2 -122h-98z" />
    <glyph glyph-name="florin" unicode="&#x192;" horiz-adv-x="698" 
d="M41 -420q-53 0 -92 21.5t-59.5 61t-20.5 94.5q0 42 17.5 67.5t50.5 25.5q34 0 50 -17t16 -49q0 -23 -7.5 -35t-15.5 -22t-8 -29t8.5 -33.5t26.5 -14.5q27 0 46 30t31.5 79t20 108.5t10.5 118.5l69 989h-104v72h108l4 55q12 162 53 250.5t101 123.5t130 35q58 0 102.5 -34
t69 -92t24.5 -130q0 -59 -23 -92.5t-62 -33.5q-38 0 -61 31.5t-23 80.5q0 32 13 53.5t26 39t13 37.5q0 33 -17.5 48.5t-47.5 15.5q-46 0 -70.5 -49t-35 -128t-17.5 -169l-3 -42h114v-72h-120l-66 -951q-3 -54 -10.5 -115t-23 -119t-42.5 -105.5t-69.5 -76t-105.5 -28.5z" />
    <glyph glyph-name="Ohorn" unicode="&#x1a0;" horiz-adv-x="814" 
d="M409 -22q-104 0 -181.5 87t-120 248t-42.5 385q0 225 42.5 387t120 249.5t181.5 87.5t182.5 -87.5t122.5 -249.5t44 -387q0 -224 -44 -385t-122.5 -248t-182.5 -87zM409 50q33 0 57 43.5t39.5 127.5t22.5 204.5t7 272.5t-7 273t-22.5 205.5t-39.5 129t-57 44.5t-56 -44.5
t-37.5 -129t-21 -205.5t-6.5 -273t6.5 -272.5t21 -204.5t37.5 -127.5t56 -43.5zM538 1309v72q46 0 83.5 12.5t37.5 59.5q0 19 -7 44t-7 45q0 33 17.5 52.5t49.5 19.5q33 0 50 -19t17 -53q0 -93 -39.5 -143.5t-95.5 -70t-106 -19.5z" />
    <glyph glyph-name="ohorn" unicode="&#x1a1;" horiz-adv-x="745" 
d="M370 -22q-59 0 -115.5 34.5t-102 103.5t-72 172t-26.5 239q0 148 28 250.5t74 164.5t102 89.5t112 27.5q55 0 111 -27.5t102.5 -89.5t75.5 -164.5t29 -250.5q0 -136 -27.5 -239t-73 -172t-102.5 -103.5t-115 -34.5zM370 58q48 0 76 111.5t28 357.5q0 245 -28 349t-76 104
q-47 0 -75.5 -104t-28.5 -349q0 -246 28.5 -357.5t75.5 -111.5zM506 944v72q46 0 83 12t37 60q0 19 -6.5 44t-6.5 45q0 33 17 52.5t50 19.5t50 -19t17 -53q0 -93 -39.5 -143.5t-95.5 -70t-106 -19.5z" />
    <glyph glyph-name="Uhorn" unicode="&#x1af;" horiz-adv-x="799" 
d="M421 -24q-48 0 -98.5 14.5t-93 52.5t-69 107t-26.5 178v1000h-98v72h416v-72h-105v-1005q0 -140 32 -200.5t93 -60.5q25 0 47.5 11t40 37.5t27 73t9.5 117.5v1027h-86v72h174v-72h-15v-1036q0 -121 -30.5 -190t-86.5 -97.5t-131 -28.5zM684 1328v72q46 0 83 12t37 60
q0 19 -6.5 44t-6.5 45q0 33 17 52.5t50 19.5t50 -19t17 -53q0 -93 -40 -143.5t-95.5 -70t-105.5 -19.5z" />
    <glyph glyph-name="uhorn" unicode="&#x1b0;" horiz-adv-x="832" 
d="M346 -22q-61 0 -112.5 24.5t-82 92t-30.5 197.5v683h-103v71h313v-730q0 -95 8.5 -145t26 -67.5t43.5 -17.5q31 0 54.5 32t36.5 89.5t13 135.5v632h-93v71h303v-974h89v-72h-273l-12 108q-5 -25 -27.5 -55.5t-61 -52.5t-92.5 -22zM678 974v72q46 0 83.5 12t37.5 60
q0 19 -7 44t-7 45q0 33 17.5 52.5t50.5 19.5q32 0 49.5 -19t17.5 -53q0 -93 -40 -143.5t-96 -70t-106 -19.5z" />
    <glyph glyph-name="uni01C6" unicode="&#x1c6;" horiz-adv-x="1449" 
d="M340 -20q-72 0 -134.5 50t-101.5 167.5t-39 320.5q0 192 37.5 311t97 174t126.5 55q54 0 84.5 -18.5t44 -42t16.5 -38.5v468h-118v73h332v-1428h114v-72h-293l-20 118q-2 -26 -19.5 -59t-48.5 -56t-78 -23zM380 102q27 0 46.5 36t31 92t13.5 114v399q-3 52 -15.5 94
t-32 67t-44.5 25q-26 0 -45 -30t-31.5 -84.5t-19 -130.5t-6.5 -170q0 -98 6.5 -174.5t19 -129.5t32 -80.5t45.5 -27.5zM887 0v72l270 903h-94q-48 0 -69.5 -19.5t-26.5 -70.5t-5 -146h-69v308h480v-72l-270 -903h91q52 0 73.5 20.5t26 73.5t4.5 151h72v-317h-483zM1096 1107
l-166 222h90l110 -150l110 150h91l-165 -222h-70z" />
    <glyph glyph-name="uni01C7" unicode="&#x1c7;" horiz-adv-x="1370" 
d="M56 0v72h90v1256h-90v72h391v-72h-92v-1256h70q37 0 61.5 29.5t37.5 85t13 135.5h72v-322h-553zM939 -24q-78 0 -125 35.5t-68 96.5t-21 140q0 65 25.5 93t65.5 28q38 0 62.5 -25t24.5 -84q0 -39 -12 -60.5t-25 -39t-13 -44.5q0 -30 17.5 -46.5t42.5 -16.5q45 0 71 33
t26 121v1121h-103v72h412v-72h-99v-918q0 -120 -18.5 -203t-55 -134t-88.5 -74t-119 -23z" />
    <glyph glyph-name="uni01C8" unicode="&#x1c8;" horiz-adv-x="1093" 
d="M56 0v72h90v1256h-90v72h391v-72h-92v-1256h70q37 0 61.5 29.5t37.5 85t13 135.5h72v-322h-553zM700 -498q-59 0 -103 33.5t-68.5 90.5t-24.5 128q0 60 26.5 91t66.5 31q37 0 57 -26.5t20 -74.5q0 -32 -8 -53t-16.5 -39.5t-8.5 -42.5q0 -20 5.5 -34.5t16.5 -22t26 -7.5
q50 0 68.5 55.5t18.5 163.5v1180h-114v72h324v-1108q0 -128 -25.5 -213t-67.5 -134t-92.5 -69.5t-100.5 -20.5zM877 1198q-59 0 -100.5 41t-41.5 100q0 57 41.5 98t100.5 41q57 0 97.5 -41t40.5 -98q0 -59 -40.5 -100t-97.5 -41z" />
    <glyph glyph-name="uni01C9" unicode="&#x1c9;" horiz-adv-x="923" 
d="M35 0v72h103v1356h-103v72h312v-1428h103v-72h-415zM530 -498q-59 0 -103 33.5t-68.5 90.5t-24.5 128q0 60 26.5 91t66.5 31q37 0 57 -26.5t20 -74.5q0 -32 -8 -53t-16.5 -39.5t-8.5 -42.5q0 -20 5.5 -34.5t16.5 -22t26 -7.5q50 0 68.5 55.5t18.5 163.5v1180h-114v72h324
v-1108q0 -128 -25.5 -213t-67.5 -134t-92.5 -69.5t-100.5 -20.5zM707 1198q-59 0 -100.5 41t-41.5 100q0 57 41.5 98t100.5 41q57 0 97.5 -41t40.5 -98q0 -59 -40.5 -100t-97.5 -41z" />
    <glyph glyph-name="uni01CA" unicode="&#x1ca;" horiz-adv-x="1479" 
d="M30 0v72h93v1256h-93v72h336l277 -928h-11v856h-89v72h252v-72h-89v-1328h-142l-381 1268h14v-1196h94v-72h-261zM1048 -24q-78 0 -125 35.5t-68 96.5t-21 140q0 65 25.5 93t65.5 28q38 0 62.5 -25t24.5 -84q0 -39 -12 -60.5t-25 -39t-13 -44.5q0 -30 17.5 -46.5
t42.5 -16.5q45 0 71 33t26 121v1121h-103v72h412v-72h-99v-918q0 -120 -18.5 -203t-55 -134t-88.5 -74t-119 -23z" />
    <glyph glyph-name="uni01CB" unicode="&#x1cb;" horiz-adv-x="1282" 
d="M30 0v72h93v1256h-93v72h336l277 -928h-11v856h-89v72h252v-72h-89v-1328h-142l-381 1268h14v-1196h94v-72h-261zM889 -498q-59 0 -103 33.5t-68.5 90.5t-24.5 128q0 60 26.5 91t66.5 31q37 0 57 -26.5t20 -74.5q0 -32 -8 -53t-16.5 -39.5t-8.5 -42.5q0 -20 5.5 -34.5
t16.5 -22t26 -7.5q50 0 68.5 55.5t18.5 163.5v1180h-114v72h324v-1108q0 -128 -25.5 -213t-67.5 -134t-92.5 -69.5t-100.5 -20.5zM1066 1198q-59 0 -100.5 41t-41.5 100q0 57 41.5 98t100.5 41q57 0 97.5 -41t40.5 -98q0 -59 -40.5 -100t-97.5 -41z" />
    <glyph glyph-name="uni01CC" unicode="&#x1cc;" horiz-adv-x="1286" 
d="M33 0v72h105v903h-105v72h309v-103q4 17 26 44.5t60.5 49t92.5 21.5q57 0 105 -25.5t78 -95t30 -202.5v-664h103v-72h-390v72h77v656q0 111 -18 161t-58 50q-22 0 -40 -15t-31 -41.5t-20.5 -61.5t-8.5 -75v-674h74v-72h-389zM893 -498q-59 0 -103 33.5t-68.5 90.5
t-24.5 128q0 60 26.5 91t66.5 31q37 0 57 -26.5t20 -74.5q0 -32 -8 -53t-16.5 -39.5t-8.5 -42.5q0 -20 5.5 -34.5t16.5 -22t26 -7.5q50 0 68.5 55.5t18.5 163.5v1180h-114v72h324v-1108q0 -128 -25.5 -213t-67.5 -134t-92.5 -69.5t-100.5 -20.5zM1070 1198q-59 0 -100.5 41
t-41.5 100q0 57 41.5 98t100.5 41q57 0 97.5 -41t40.5 -98q0 -59 -40.5 -100t-97.5 -41z" />
    <glyph glyph-name="uni01CE" unicode="&#x1ce;" horiz-adv-x="772" 
d="M281 -21q-64 0 -116.5 31.5t-83 90.5t-30.5 143q0 95 39 157t97 104.5t115.5 76.5t96.5 71t39 90q0 74 -12 126.5t-38 80t-67 27.5q-49 0 -80 -28t-31 -65q0 -25 9.5 -42t19 -35t9.5 -50q0 -43 -23.5 -68.5t-61.5 -25.5q-40 0 -63.5 34t-23.5 93q0 77 36.5 138t100.5 96
t149 35q84 0 148.5 -35.5t101 -113t36.5 -204.5v-551q0 -48 9 -64.5t27 -16.5q17 0 29.5 9t18.5 16l39 -58q-15 -20 -58 -38.5t-100 -18.5q-56 0 -88.5 16.5t-47.5 40.5t-20 46q-5 -15 -23 -40.5t-55 -46.5t-98 -21zM348 83q29 0 49 24.5t30.5 60t10.5 68.5v371
q-3 -28 -29.5 -53.5t-60 -59.5t-58.5 -88t-25 -138q0 -91 22.5 -138t60.5 -47zM338 1107l-166 222h90l110 -150l110 150h91l-165 -222h-70z" />
    <glyph glyph-name="uni01D0" unicode="&#x1d0;" horiz-adv-x="474" 
d="M31 0v72h103v903h-103v72h313v-975h103v-72h-416zM205 1107l-166 222h90l110 -150l110 150h91l-165 -222h-70z" />
    <glyph glyph-name="uni01D2" unicode="&#x1d2;" horiz-adv-x="745" 
d="M370 -22q-59 0 -115.5 34.5t-102 103.5t-72 172t-26.5 239q0 148 28 250.5t74 164.5t102 89.5t112 27.5q55 0 111 -27.5t102.5 -89.5t75.5 -164.5t29 -250.5q0 -136 -27.5 -239t-73 -172t-102.5 -103.5t-115 -34.5zM370 58q48 0 76 111.5t28 357.5q0 245 -28 349t-76 104
q-47 0 -75.5 -104t-28.5 -349q0 -246 28.5 -357.5t75.5 -111.5zM336 1107l-166 222h90l110 -150l110 150h91l-165 -222h-70z" />
    <glyph glyph-name="uni01D4" unicode="&#x1d4;" horiz-adv-x="832" 
d="M346 -22q-61 0 -112.5 24.5t-82 92t-30.5 197.5v683h-103v71h313v-730q0 -95 8.5 -145t26 -67.5t43.5 -17.5q31 0 54.5 32t36.5 89.5t13 135.5v632h-93v71h303v-974h89v-72h-273l-12 108q-5 -25 -27.5 -55.5t-61 -52.5t-92.5 -22zM392 1107l-166 222h90l110 -150l110 150
h91l-165 -222h-70z" />
    <glyph glyph-name="uni01D6" unicode="&#x1d6;" horiz-adv-x="832" 
d="M346 -22q-61 0 -112.5 24.5t-82 92t-30.5 197.5v683h-103v71h313v-730q0 -95 8.5 -145t26 -67.5t43.5 -17.5q31 0 54.5 32t36.5 89.5t13 135.5v632h-93v71h303v-974h89v-72h-273l-12 108q-5 -25 -27.5 -55.5t-61 -52.5t-92.5 -22zM546 1130q-35 0 -59.5 25.5t-24.5 58.5
q0 35 24.5 61t59.5 26q33 0 58.5 -26t25.5 -61q0 -33 -25.5 -58.5t-58.5 -25.5zM305 1130q-33 0 -57.5 25.5t-24.5 58.5q0 35 24.5 61t57.5 26q35 0 60 -26t25 -61q0 -33 -25 -58.5t-60 -25.5zM198 1392v72h455v-72h-455z" />
    <glyph glyph-name="uni01D8" unicode="&#x1d8;" horiz-adv-x="832" 
d="M346 -22q-61 0 -112.5 24.5t-82 92t-30.5 197.5v683h-103v71h313v-730q0 -95 8.5 -145t26 -67.5t43.5 -17.5q31 0 54.5 32t36.5 89.5t13 135.5v632h-93v71h303v-974h89v-72h-273l-12 108q-5 -25 -27.5 -55.5t-61 -52.5t-92.5 -22zM546 1130q-35 0 -59.5 25.5t-24.5 58.5
q0 35 24.5 61t59.5 26q33 0 58.5 -26t25.5 -61q0 -33 -25.5 -58.5t-58.5 -25.5zM305 1130q-33 0 -57.5 25.5t-24.5 58.5q0 35 24.5 61t57.5 26q35 0 60 -26t25 -61q0 -33 -25 -58.5t-60 -25.5zM322 1339l-49 52l184 140q14 11 29 18t28 7q16 0 28.5 -8t19.5 -21q7 -11 7 -25
q0 -19 -15 -35.5t-41 -27.5z" />
    <glyph glyph-name="uni01DA" unicode="&#x1da;" horiz-adv-x="832" 
d="M346 -22q-61 0 -112.5 24.5t-82 92t-30.5 197.5v683h-103v71h313v-730q0 -95 8.5 -145t26 -67.5t43.5 -17.5q31 0 54.5 32t36.5 89.5t13 135.5v632h-93v71h303v-974h89v-72h-273l-12 108q-5 -25 -27.5 -55.5t-61 -52.5t-92.5 -22zM546 1130q-35 0 -59.5 25.5t-24.5 58.5
q0 35 24.5 61t59.5 26q33 0 58.5 -26t25.5 -61q0 -33 -25.5 -58.5t-58.5 -25.5zM305 1130q-33 0 -57.5 25.5t-24.5 58.5q0 35 24.5 61t57.5 26q35 0 60 -26t25 -61q0 -33 -25 -58.5t-60 -25.5zM392 1362l-166 222h90l110 -150l110 150h91l-165 -222h-70z" />
    <glyph glyph-name="uni01DC" unicode="&#x1dc;" horiz-adv-x="832" 
d="M346 -22q-61 0 -112.5 24.5t-82 92t-30.5 197.5v683h-103v71h313v-730q0 -95 8.5 -145t26 -67.5t43.5 -17.5q31 0 54.5 32t36.5 89.5t13 135.5v632h-93v71h303v-974h89v-72h-273l-12 108q-5 -25 -27.5 -55.5t-61 -52.5t-92.5 -22zM546 1130q-35 0 -59.5 25.5t-24.5 58.5
q0 35 24.5 61t59.5 26q33 0 58.5 -26t25.5 -61q0 -33 -25.5 -58.5t-58.5 -25.5zM305 1130q-33 0 -57.5 25.5t-24.5 58.5q0 35 24.5 61t57.5 26q35 0 60 -26t25 -61q0 -33 -25 -58.5t-60 -25.5zM532 1359l-204 98q-28 13 -42.5 27t-14.5 39q0 23 16.5 37t41.5 14
q20 0 34 -7.5t29 -19.5l176 -145z" />
    <glyph glyph-name="uni01DF" unicode="&#x1df;" horiz-adv-x="772" 
d="M281 -21q-64 0 -116.5 31.5t-83 90.5t-30.5 143q0 95 39 157t97 104.5t115.5 76.5t96.5 71t39 90q0 74 -12 126.5t-38 80t-67 27.5q-49 0 -80 -28t-31 -65q0 -25 9.5 -42t19 -35t9.5 -50q0 -43 -23.5 -68.5t-61.5 -25.5q-40 0 -63.5 34t-23.5 93q0 77 36.5 138t100.5 96
t149 35q84 0 148.5 -35.5t101 -113t36.5 -204.5v-551q0 -48 9 -64.5t27 -16.5q17 0 29.5 9t18.5 16l39 -58q-15 -20 -58 -38.5t-100 -18.5q-56 0 -88.5 16.5t-47.5 40.5t-20 46q-5 -15 -23 -40.5t-55 -46.5t-98 -21zM348 83q29 0 49 24.5t30.5 60t10.5 68.5v371
q-3 -28 -29.5 -53.5t-60 -59.5t-58.5 -88t-25 -138q0 -91 22.5 -138t60.5 -47zM492 1130q-35 0 -59.5 25.5t-24.5 58.5q0 35 24.5 61t59.5 26q33 0 58.5 -26t25.5 -61q0 -33 -25.5 -58.5t-58.5 -25.5zM251 1130q-33 0 -57.5 25.5t-24.5 58.5q0 35 24.5 61t57.5 26
q35 0 60 -26t25 -61q0 -33 -25 -58.5t-60 -25.5zM145 1392v72h455v-72h-455z" />
    <glyph glyph-name="gcaron" unicode="&#x1e7;" horiz-adv-x="796" 
d="M390 -498q-89 0 -166.5 31t-125 90.5t-47.5 144.5q0 65 23 109.5t54.5 71t59 40t36.5 16.5q-8 2 -29.5 10.5t-46 28t-42 51t-17.5 78.5q0 38 13.5 64.5t34 43t39.5 21.5q5 1 12 2.5t9 1.5q-8 6 -26 27t-38 60.5t-34 100t-14 143.5q0 119 29 199.5t76 130t100.5 71
t101.5 21.5q96 0 162.5 -51t102 -143t35.5 -214q0 -125 -29 -206.5t-75 -128.5t-99 -66t-101 -19q-54 0 -87 12t-40 14q-1 1 -2 1h-3q-15 0 -30.5 -16t-15.5 -44q0 -40 46 -67t172 -49q149 -24 229 -91.5t80 -202.5q0 -81 -33.5 -136t-86.5 -88t-113 -47.5t-114 -14.5z
M390 -429q70 0 113 51.5t43 122.5q0 77 -22 117t-82 66q-20 9 -43.5 19t-44 18t-32.5 11q-24 -12 -45.5 -39.5t-35.5 -68.5t-14 -96q0 -57 19 -102.5t55 -72t89 -26.5zM388 305q25 0 46 24t34 97t13 221q0 142 -12.5 214.5t-33.5 97.5t-45 25t-45.5 -25t-35 -98.5
t-13.5 -217.5q0 -147 13.5 -219t35 -95.5t43.5 -23.5zM499 985q11 68 63.5 107t111.5 39q50 0 70.5 -23.5t20.5 -60.5q0 -35 -19.5 -54.5t-49.5 -19.5q-29 0 -41.5 13t-21 26t-29.5 13q-13 0 -23.5 -9t-10.5 -33zM354 1107l-166 222h90l110 -150l110 150h91l-165 -222h-70z
" />
    <glyph glyph-name="uni01EA" unicode="&#x1ea;" horiz-adv-x="814" 
d="M409 -22q-104 0 -181.5 87t-120 248t-42.5 385q0 225 42.5 387t120 249.5t181.5 87.5t182.5 -87.5t122.5 -249.5t44 -387q0 -224 -44 -385t-122.5 -248t-182.5 -87zM409 50q33 0 57 43.5t39.5 127.5t22.5 204.5t7 272.5t-7 273t-22.5 205.5t-39.5 129t-57 44.5t-56 -44.5
t-37.5 -129t-21 -205.5t-6.5 -273t6.5 -272.5t21 -204.5t37.5 -127.5t56 -43.5zM516 -295q-43 0 -81 14.5t-61.5 45.5t-23.5 79q0 52 24.5 88.5t57 60.5t56.5 38l29 -24q-22 -25 -42.5 -57.5t-20.5 -81.5q0 -44 30.5 -58t57.5 -14q25 0 51.5 6.5t44.5 17.5l34 -64
q-24 -21 -65.5 -36t-90.5 -15z" />
    <glyph glyph-name="uni01EB" unicode="&#x1eb;" horiz-adv-x="745" 
d="M370 -22q-59 0 -115.5 34.5t-102 103.5t-72 172t-26.5 239q0 148 28 250.5t74 164.5t102 89.5t112 27.5q55 0 111 -27.5t102.5 -89.5t75.5 -164.5t29 -250.5q0 -136 -27.5 -239t-73 -172t-102.5 -103.5t-115 -34.5zM370 58q48 0 76 111.5t28 357.5q0 245 -28 349t-76 104
q-47 0 -75.5 -104t-28.5 -349q0 -246 28.5 -357.5t75.5 -111.5zM487 -284q-43 0 -81 14.5t-61.5 45.5t-23.5 79q0 52 24.5 88.5t57 61t56.5 37.5l29 -24q-21 -25 -42 -57.5t-21 -81.5q0 -44 30.5 -58t57.5 -14q25 0 51.5 6.5t44.5 17.5l34 -64q-24 -21 -65.5 -36t-90.5 -15z
" />
    <glyph glyph-name="aringacute" unicode="&#x1fb;" horiz-adv-x="772" 
d="M281 -21q-64 0 -116.5 31.5t-83 90.5t-30.5 143q0 95 39 157t97 104.5t115.5 76.5t96.5 71t39 90q0 74 -12 126.5t-38 80t-67 27.5q-49 0 -80 -28t-31 -65q0 -25 9.5 -42t19 -35t9.5 -50q0 -43 -23.5 -68.5t-61.5 -25.5q-40 0 -63.5 34t-23.5 93q0 77 36.5 138t100.5 96
t149 35q84 0 148.5 -35.5t101 -113t36.5 -204.5v-551q0 -48 9 -64.5t27 -16.5q17 0 29.5 9t18.5 16l39 -58q-15 -20 -58 -38.5t-100 -18.5q-56 0 -88.5 16.5t-47.5 40.5t-20 46q-5 -15 -23 -40.5t-55 -46.5t-98 -21zM348 83q29 0 49 24.5t30.5 60t10.5 68.5v371
q-3 -28 -29.5 -53.5t-60 -59.5t-58.5 -88t-25 -138q0 -91 22.5 -138t60.5 -47zM373 1097q-44 0 -77 32.5t-33 85.5q0 55 33 86.5t77 31.5q43 0 75 -31.5t32 -86.5q0 -53 -32 -85.5t-75 -32.5zM373 1153q25 0 36 19.5t11 44.5q0 21 -11 40t-36 19t-37 -19t-12 -40
q0 -25 12 -44.5t37 -19.5zM269 1369l-49 52l184 140q14 11 29 18t28 7q16 0 28.5 -8t19.5 -21q7 -11 7 -25q0 -19 -15 -35.5t-41 -27.5z" />
    <glyph glyph-name="aeacute" unicode="&#x1fd;" horiz-adv-x="1110" 
d="M305 -20q-134 0 -194 68.5t-60 180.5q0 100 38 164.5t94.5 108t113 77.5t94.5 71t38 90q0 67 -11.5 121t-36.5 85t-65 31q-42 0 -72 -22.5t-30 -62.5q0 -25 9 -42.5t18 -35.5t9 -50q0 -43 -23 -68t-62 -25q-40 0 -63 33.5t-23 92.5q0 74 34.5 133t97.5 94t146 35
q84 0 148 -39.5t99 -120.5t35 -208v-262q0 -89 -12 -155t-33 -113.5t-48 -80.5q-38 -42 -97 -71t-144 -29zM341 85q37 0 62.5 45.5t25.5 107.5v364q-3 -28 -28.5 -53.5t-57 -59.5t-55 -88.5t-23.5 -140.5q0 -55 8.5 -94t25.5 -60t42 -21zM766 -21q-76 0 -136 38.5t-102 110
t-63.5 172.5t-21.5 226q0 140 28 241t75.5 165.5t104 95.5t112.5 31q66 0 120 -35.5t91.5 -97.5t58 -145t20.5 -179q0 -21 -0.5 -41.5t-1.5 -40.5h-410v72h211q0 140 -9.5 226.5t-29 127t-50.5 40.5t-55.5 -41t-39 -135t-14.5 -254q0 -120 7 -212.5t23 -155.5t42 -95.5
t66 -32.5q68 0 107.5 36.5t55.5 72.5l61 -41q-21 -56 -89.5 -102.5t-160.5 -46.5zM473 1083l-49 52l184 140q14 11 29 18t28 7q16 0 28.5 -8t19.5 -21q7 -11 7 -25q0 -19 -15 -35.5t-41 -27.5z" />
    <glyph glyph-name="Oslashacute" unicode="&#x1fe;" horiz-adv-x="835" 
d="M149 -104l495 1608h74l-494 -1608h-75zM409 -22q-104 0 -181.5 87t-120 248t-42.5 385q0 225 42.5 387t120 249.5t181.5 87.5t182.5 -87.5t122.5 -249.5t44 -387q0 -224 -44 -385t-122.5 -248t-182.5 -87zM409 50q33 0 57 43.5t39.5 127.5t22.5 204.5t7 272.5t-7 273
t-22.5 205.5t-39.5 129t-57 44.5t-56 -44.5t-37.5 -129t-21 -205.5t-6.5 -273t6.5 -272.5t21 -204.5t37.5 -127.5t56 -43.5zM305 1442l-49 53l183 139q15 11 30 18t28 7q16 0 28.5 -8t19.5 -21q7 -11 7 -24q0 -19 -15 -36t-41 -28z" />
    <glyph glyph-name="oslashacute" unicode="&#x1ff;" horiz-adv-x="756" 
d="M88 -104l497 1224h76l-497 -1224h-76zM370 -22q-59 0 -115.5 34.5t-102 103.5t-72 172t-26.5 239q0 148 28 250.5t74 164.5t102 89.5t112 27.5q55 0 111 -27.5t102.5 -89.5t75.5 -164.5t29 -250.5q0 -136 -27.5 -239t-73 -172t-102.5 -103.5t-115 -34.5zM370 58
q48 0 76 111.5t28 357.5q0 245 -28 349t-76 104q-47 0 -75.5 -104t-28.5 -349q0 -246 28.5 -357.5t75.5 -111.5zM266 1083l-49 52l184 140q14 11 29 18t28 7q16 0 28.5 -8t19.5 -21q7 -11 7 -25q0 -19 -15 -35.5t-41 -27.5z" />
    <glyph glyph-name="uni0201" unicode="&#x201;" horiz-adv-x="772" 
d="M281 -21q-64 0 -116.5 31.5t-83 90.5t-30.5 143q0 95 39 157t97 104.5t115.5 76.5t96.5 71t39 90q0 74 -12 126.5t-38 80t-67 27.5q-49 0 -80 -28t-31 -65q0 -25 9.5 -42t19 -35t9.5 -50q0 -43 -23.5 -68.5t-61.5 -25.5q-40 0 -63.5 34t-23.5 93q0 77 36.5 138t100.5 96
t149 35q84 0 148.5 -35.5t101 -113t36.5 -204.5v-551q0 -48 9 -64.5t27 -16.5q17 0 29.5 9t18.5 16l39 -58q-15 -20 -58 -38.5t-100 -18.5q-56 0 -88.5 16.5t-47.5 40.5t-20 46q-5 -15 -23 -40.5t-55 -46.5t-98 -21zM348 83q29 0 49 24.5t30.5 60t10.5 68.5v371
q-3 -28 -29.5 -53.5t-60 -59.5t-58.5 -88t-25 -138q0 -91 22.5 -138t60.5 -47zM483 1106l-159 161q-16 16 -25 30t-9 30q0 26 16 41t38 15q28 0 44.5 -16t28.5 -37l115 -196zM283 1106l-159 161q-17 17 -26 30.5t-9 29.5q0 26 16.5 41t38.5 15q28 0 44.5 -16t28.5 -37
l115 -196z" />
    <glyph glyph-name="uni0203" unicode="&#x203;" horiz-adv-x="772" 
d="M281 -21q-64 0 -116.5 31.5t-83 90.5t-30.5 143q0 95 39 157t97 104.5t115.5 76.5t96.5 71t39 90q0 74 -12 126.5t-38 80t-67 27.5q-49 0 -80 -28t-31 -65q0 -25 9.5 -42t19 -35t9.5 -50q0 -43 -23.5 -68.5t-61.5 -25.5q-40 0 -63.5 34t-23.5 93q0 77 36.5 138t100.5 96
t149 35q84 0 148.5 -35.5t101 -113t36.5 -204.5v-551q0 -48 9 -64.5t27 -16.5q17 0 29.5 9t18.5 16l39 -58q-15 -20 -58 -38.5t-100 -18.5q-56 0 -88.5 16.5t-47.5 40.5t-20 46q-5 -15 -23 -40.5t-55 -46.5t-98 -21zM348 83q29 0 49 24.5t30.5 60t10.5 68.5v371
q-3 -28 -29.5 -53.5t-60 -59.5t-58.5 -88t-25 -138q0 -91 22.5 -138t60.5 -47zM373 1314q63 0 101.5 -28.5t56 -73t17.5 -92.5h-71q-4 62 -32 91.5t-72 29.5t-71.5 -29.5t-32.5 -91.5h-70q0 48 17.5 92.5t55.5 73t101 28.5z" />
    <glyph glyph-name="uni0205" unicode="&#x205;" horiz-adv-x="721" 
d="M377 -21q-76 0 -136 38.5t-102 110t-63.5 172.5t-21.5 226q0 140 28 241t75.5 165.5t104 95.5t112.5 31q66 0 120 -35.5t91.5 -97.5t58 -145t20.5 -179q0 -21 -0.5 -41.5t-1.5 -40.5h-410v72h211q0 140 -9.5 226.5t-29 127t-50.5 40.5t-55.5 -41t-39 -135t-14.5 -254
q0 -120 7 -212.5t23 -155.5t42 -95.5t66 -32.5q68 0 107.5 36.5t55.5 72.5l61 -41q-21 -56 -89.5 -102.5t-160.5 -46.5zM540 1105l-158 161q-17 16 -26 30t-9 30q0 26 16.5 41t37.5 15q28 0 45 -16t29 -37l114 -196zM340 1105l-159 161q-16 17 -25 30.5t-9 29.5q0 26 16 41
t38 15q28 0 45 -16t28 -37l115 -196z" />
    <glyph glyph-name="uni0207" unicode="&#x207;" horiz-adv-x="721" 
d="M377 -21q-76 0 -136 38.5t-102 110t-63.5 172.5t-21.5 226q0 140 28 241t75.5 165.5t104 95.5t112.5 31q66 0 120 -35.5t91.5 -97.5t58 -145t20.5 -179q0 -21 -0.5 -41.5t-1.5 -40.5h-410v72h211q0 140 -9.5 226.5t-29 127t-50.5 40.5t-55.5 -41t-39 -135t-14.5 -254
q0 -120 7 -212.5t23 -155.5t42 -95.5t66 -32.5q68 0 107.5 36.5t55.5 72.5l61 -41q-21 -56 -89.5 -102.5t-160.5 -46.5zM370 1313q63 0 101.5 -28.5t56 -73t17.5 -92.5h-71q-4 62 -32 91.5t-72 29.5t-71.5 -29.5t-32.5 -91.5h-70q0 48 17.5 92.5t55.5 73t101 28.5z" />
    <glyph glyph-name="uni0209" unicode="&#x209;" horiz-adv-x="474" 
d="M31 0v72h103v903h-103v72h313v-975h103v-72h-416zM410 1106l-158 161q-17 16 -26 30t-9 30q0 26 16.5 41t37.5 15q28 0 45 -16t29 -37l114 -196zM210 1106l-159 161q-16 17 -25 30.5t-9 29.5q0 26 16 41t38 15q28 0 45 -16t28 -37l115 -196z" />
    <glyph glyph-name="uni020B" unicode="&#x20b;" horiz-adv-x="474" 
d="M31 0v72h103v903h-103v72h313v-975h103v-72h-416zM239 1314q63 0 101.5 -28.5t56 -73t17.5 -92.5h-71q-4 62 -32 91.5t-72 29.5t-71.5 -29.5t-32.5 -91.5h-70q0 48 17.5 92.5t55.5 73t101 28.5z" />
    <glyph glyph-name="uni020D" unicode="&#x20d;" horiz-adv-x="745" 
d="M370 -22q-59 0 -115.5 34.5t-102 103.5t-72 172t-26.5 239q0 148 28 250.5t74 164.5t102 89.5t112 27.5q55 0 111 -27.5t102.5 -89.5t75.5 -164.5t29 -250.5q0 -136 -27.5 -239t-73 -172t-102.5 -103.5t-115 -34.5zM370 58q48 0 76 111.5t28 357.5q0 245 -28 349t-76 104
q-47 0 -75.5 -104t-28.5 -349q0 -246 28.5 -357.5t75.5 -111.5zM542 1106l-158 161q-17 16 -26 30t-9 30q0 26 16.5 41t37.5 15q28 0 45 -16t29 -37l114 -196zM342 1106l-159 161q-16 17 -25 30.5t-9 29.5q0 26 16 41t38 15q28 0 45 -16t28 -37l115 -196z" />
    <glyph glyph-name="uni020F" unicode="&#x20f;" horiz-adv-x="745" 
d="M370 -22q-59 0 -115.5 34.5t-102 103.5t-72 172t-26.5 239q0 148 28 250.5t74 164.5t102 89.5t112 27.5q55 0 111 -27.5t102.5 -89.5t75.5 -164.5t29 -250.5q0 -136 -27.5 -239t-73 -172t-102.5 -103.5t-115 -34.5zM370 58q48 0 76 111.5t28 357.5q0 245 -28 349t-76 104
q-47 0 -75.5 -104t-28.5 -349q0 -246 28.5 -357.5t75.5 -111.5zM371 1314q63 0 101.5 -28.5t56 -73t17.5 -92.5h-71q-4 62 -32 91.5t-72 29.5t-71.5 -29.5t-32.5 -91.5h-70q0 48 17.5 92.5t55.5 73t101 28.5z" />
    <glyph glyph-name="uni0211" unicode="&#x211;" horiz-adv-x="675" 
d="M26 0v72h105v903h-105v72h296l12 -92q4 14 23.5 39t51.5 45t75 20q56 0 91 -36.5t52.5 -98t17.5 -136.5q0 -61 -23 -93t-63 -32q-37 0 -60 27t-23 75q0 31 12 50t23.5 37.5t11.5 49.5q0 39 -14 57t-42 18q-32 0 -61 -30t-47 -85.5t-18 -130.5v-659h105v-72h-420z
M582 1106l-158 161q-17 16 -26 30t-9 30q0 26 16.5 41t37.5 15q28 0 45 -16t29 -37l114 -196zM382 1106l-159 161q-16 17 -25 30.5t-9 29.5q0 26 16 41t38 15q28 0 45 -16t28 -37l115 -196z" />
    <glyph glyph-name="uni0213" unicode="&#x213;" horiz-adv-x="675" 
d="M26 0v72h105v903h-105v72h296l12 -92q4 14 23.5 39t51.5 45t75 20q56 0 91 -36.5t52.5 -98t17.5 -136.5q0 -61 -23 -93t-63 -32q-37 0 -60 27t-23 75q0 31 12 50t23.5 37.5t11.5 49.5q0 39 -14 57t-42 18q-32 0 -61 -30t-47 -85.5t-18 -130.5v-659h105v-72h-420z
M411 1314q63 0 101.5 -28.5t56 -73t17.5 -92.5h-71q-4 62 -32 91.5t-72 29.5t-71.5 -29.5t-32.5 -91.5h-70q0 48 17.5 92.5t55.5 73t101 28.5z" />
    <glyph glyph-name="uni0215" unicode="&#x215;" horiz-adv-x="832" 
d="M346 -22q-61 0 -112.5 24.5t-82 92t-30.5 197.5v683h-103v71h313v-730q0 -95 8.5 -145t26 -67.5t43.5 -17.5q31 0 54.5 32t36.5 89.5t13 135.5v632h-93v71h303v-974h89v-72h-273l-12 108q-5 -25 -27.5 -55.5t-61 -52.5t-92.5 -22zM597 1106l-158 161q-17 16 -26 30t-9 30
q0 26 16.5 41t37.5 15q28 0 45 -16t29 -37l114 -196zM397 1106l-159 161q-16 17 -25 30.5t-9 29.5q0 26 16 41t38 15q28 0 45 -16t28 -37l115 -196z" />
    <glyph glyph-name="uni0217" unicode="&#x217;" horiz-adv-x="832" 
d="M346 -22q-61 0 -112.5 24.5t-82 92t-30.5 197.5v683h-103v71h313v-730q0 -95 8.5 -145t26 -67.5t43.5 -17.5q31 0 54.5 32t36.5 89.5t13 135.5v632h-93v71h303v-974h89v-72h-273l-12 108q-5 -25 -27.5 -55.5t-61 -52.5t-92.5 -22zM426 1314q63 0 101.5 -28.5t56 -73
t17.5 -92.5h-71q-4 62 -32 91.5t-72 29.5t-71.5 -29.5t-32.5 -91.5h-70q0 48 17.5 92.5t55.5 73t101 28.5z" />
    <glyph glyph-name="uni0218" unicode="&#x218;" horiz-adv-x="662" 
d="M347 -27q-52 0 -83.5 12.5t-50.5 29.5t-32 29.5t-27 12.5q-26 0 -26 -57h-66v330h72q1 -24 10.5 -60t26.5 -74t42.5 -71.5t58.5 -55t75 -21.5q43 0 67.5 19.5t35 57t10.5 89.5q0 64 -27 127.5t-72.5 132t-104.5 143.5q-78 101 -119.5 183.5t-57 155.5t-15.5 144
q0 104 35 176t92 109t123 37q59 0 89 -18.5t46 -37t32 -18.5q13 0 19.5 11t7.5 41h67v-327h-72q-2 33 -14 80t-34.5 91.5t-56.5 74t-80 29.5q-54 0 -83.5 -40t-29.5 -112q0 -52 21 -109.5t65 -124.5t111 -149q66 -79 112 -157t70 -160t24 -172q0 -99 -21.5 -166.5
t-58 -107.5t-83.5 -58.5t-98 -18.5zM337 -356l-39 45q11 4 32 20t26 31q-2 -3 -11 -3q-32 0 -54 22t-22 54q0 33 22.5 54.5t54.5 21.5q35 0 59.5 -22.5t24.5 -66.5q0 -41 -16.5 -72t-38.5 -51.5t-38 -32.5z" />
    <glyph glyph-name="uni0219" unicode="&#x219;" horiz-adv-x="588" 
d="M302 -22q-57 0 -86.5 14t-45 28t-30.5 14q-13 0 -18 -8.5t-5 -25.5h-65v317h77q5 -56 18.5 -104.5t34.5 -85t50.5 -57t66.5 -20.5q34 0 54.5 15.5t30 41t9.5 56.5q0 45 -17 88t-50.5 88.5t-83.5 97.5q-77 80 -131 164t-54 207q0 87 33.5 142.5t87 82t112.5 26.5
q43 0 69 -11t41.5 -22.5t26.5 -11.5q9 0 14 7.5t5 25.5h66v-308h-76q-3 49 -13.5 94t-28.5 79t-42.5 54t-57.5 20q-48 0 -72.5 -36t-24.5 -86q0 -60 39 -113t109 -124q54 -54 97.5 -111t69 -123t25.5 -148q0 -90 -29.5 -149.5t-82.5 -88.5t-123 -29zM297 -356l-39 45
q11 4 32 20t26 31q-2 -3 -11 -3q-32 0 -54 22t-22 54q0 33 22.5 54.5t54.5 21.5q35 0 59.5 -22.5t24.5 -66.5q0 -41 -16.5 -72t-38.5 -51.5t-38 -32.5z" />
    <glyph glyph-name="uni021A" unicode="&#x21a;" horiz-adv-x="784" 
d="M172 0v72h116v1256h-44q-59 0 -87.5 -24t-37.5 -78t-9 -145h-72v319h707v-319h-71q0 91 -9 145t-37.5 78t-86.5 24h-44v-1256h119v-72h-444zM384 -356l-39 45q11 4 32 20t26 31q-2 -3 -11 -3q-32 0 -54 22t-22 54q0 33 22.5 54.5t54.5 21.5q35 0 59.5 -22.5t24.5 -66.5
q0 -41 -16.5 -72t-38.5 -51.5t-38 -32.5z" />
    <glyph glyph-name="uni021B" unicode="&#x21b;" horiz-adv-x="529" 
d="M355 -18q-55 0 -105.5 18t-81.5 68t-31 144v763h-137v72h137q37 15 65 60.5t46 107.5t24 127h75v-295h158v-72h-158v-845q0 -41 18.5 -55.5t36.5 -14.5q19 0 34 7.5t22 16.5l41 -58q-24 -19 -59.5 -31.5t-84.5 -12.5zM326 -342l-39 45q11 4 32 20t26 31q-2 -3 -11 -3
q-32 0 -54 22t-22 54q0 33 22.5 54.5t54.5 21.5q35 0 59.5 -22.5t24.5 -66.5q0 -41 -16.5 -72t-38.5 -51.5t-38 -32.5z" />
    <glyph glyph-name="uni0229" unicode="&#x229;" horiz-adv-x="721" 
d="M377 -21q-76 0 -136 38.5t-102 110t-63.5 172.5t-21.5 226q0 140 28 241t75.5 165.5t104 95.5t112.5 31q66 0 120 -35.5t91.5 -100.5t58 -153t20.5 -193q0 -21 -0.5 -41t-1.5 -41h-410v72h211q0 140 -9.5 233t-29 139.5t-50.5 46.5t-55.5 -47t-39 -147t-14.5 -261
q0 -120 7 -209.5t23 -149t42 -89t66 -29.5q68 0 107.5 39.5t55.5 75.5l61 -41q-21 -56 -89.5 -102.5t-160.5 -46.5zM421 -315q-50 0 -92 10.5t-57 18.5l27 66q10 -7 43.5 -17.5t72.5 -10.5q31 0 54 16t23 44q0 31 -15 41t-36 10q-16 0 -32 -6.5t-28 -20.5l-67 4l60 160h72
l-43 -106q4 7 28 16.5t58 9.5q39 0 73 -24t34 -85q0 -43 -24 -71t-63.5 -41.5t-87.5 -13.5z" />
    <glyph glyph-name="uni022B" unicode="&#x22b;" horiz-adv-x="745" 
d="M370 -22q-59 0 -115.5 34.5t-102 103.5t-72 172t-26.5 239q0 148 28 250.5t74 164.5t102 89.5t112 27.5q55 0 111 -27.5t102.5 -89.5t75.5 -164.5t29 -250.5q0 -136 -27.5 -239t-73 -172t-102.5 -103.5t-115 -34.5zM370 58q48 0 76 111.5t28 357.5q0 245 -28 349t-76 104
q-47 0 -75.5 -104t-28.5 -349q0 -246 28.5 -357.5t75.5 -111.5zM490 1130q-35 0 -59.5 25.5t-24.5 58.5q0 35 24.5 61t59.5 26q33 0 58.5 -26t25.5 -61q0 -33 -25.5 -58.5t-58.5 -25.5zM249 1130q-33 0 -57.5 25.5t-24.5 58.5q0 35 24.5 61t57.5 26q35 0 60 -26t25 -61
q0 -33 -25 -58.5t-60 -25.5zM143 1392v72h455v-72h-455z" />
    <glyph glyph-name="uni022D" unicode="&#x22d;" horiz-adv-x="745" 
d="M370 -22q-59 0 -115.5 34.5t-102 103.5t-72 172t-26.5 239q0 148 28 250.5t74 164.5t102 89.5t112 27.5q55 0 111 -27.5t102.5 -89.5t75.5 -164.5t29 -250.5q0 -136 -27.5 -239t-73 -172t-102.5 -103.5t-115 -34.5zM370 58q48 0 76 111.5t28 357.5q0 245 -28 349t-76 104
q-47 0 -75.5 -104t-28.5 -349q0 -246 28.5 -357.5t75.5 -111.5zM456 1137q-39 0 -65 14.5t-46.5 29t-44.5 14.5q-33 0 -50 -16t-22 -26l-71 30q5 18 23 42t45 42.5t60 18.5q43 0 68.5 -14.5t47 -29t50.5 -14.5q31 0 45 14.5t19 25.5l70 -34q-4 -13 -21 -36.5t-44 -42
t-64 -18.5zM103 1378v72h536v-72h-536z" />
    <glyph glyph-name="uni0231" unicode="&#x231;" horiz-adv-x="745" 
d="M370 -22q-59 0 -115.5 34.5t-102 103.5t-72 172t-26.5 239q0 148 28 250.5t74 164.5t102 89.5t112 27.5q55 0 111 -27.5t102.5 -89.5t75.5 -164.5t29 -250.5q0 -136 -27.5 -239t-73 -172t-102.5 -103.5t-115 -34.5zM370 58q48 0 76 111.5t28 357.5q0 245 -28 349t-76 104
q-47 0 -75.5 -104t-28.5 -349q0 -246 28.5 -357.5t75.5 -111.5zM371 1136q-35 0 -60 25t-25 58q0 35 25 60.5t60 25.5q32 0 57.5 -25.5t25.5 -60.5q0 -33 -25.5 -58t-57.5 -25zM104 1395v72h536v-72h-536z" />
    <glyph glyph-name="uni0233" unicode="&#x233;" horiz-adv-x="700" 
d="M209 -502q-47 0 -78.5 34t-47.5 91.5t-16 129.5q0 59 23.5 90t61.5 31t60.5 -27t22.5 -75q0 -37 -14 -60t-27.5 -42.5t-13.5 -49.5q0 -25 9.5 -44t28.5 -19q11 0 18.5 9t13.5 28t13 48l75 355l-241 978h-83v72h384v-72h-77l119 -527l106 527h-74v72h229v-72h-74
l-215 -982l-81 -367q-8 -41 -23 -69.5t-38.5 -43.5t-60.5 -15zM90 1136v72h536v-72h-536z" />
    <glyph glyph-name="uni0237" unicode="&#x237;" horiz-adv-x="493" 
d="M100 -498q-59 0 -103 33.5t-68.5 90.5t-24.5 128q0 60 26.5 91t66.5 31q37 0 57 -26.5t20 -74.5q0 -32 -8 -53t-16.5 -39.5t-8.5 -42.5q0 -20 5.5 -34.5t16.5 -22t26 -7.5q50 0 68.5 55.5t18.5 163.5v1180h-114v72h324v-1108q0 -128 -25.5 -213t-67.5 -134t-92.5 -69.5
t-100.5 -20.5z" />
    <glyph glyph-name="uni0244" unicode="&#x244;" horiz-adv-x="814" 
d="M79 831v72h681v-72h-681zM421 -24q-48 0 -98.5 14.5t-93 52.5t-69 107t-26.5 178v1000h-98v72h416v-72h-105v-1005q0 -140 32 -200.5t93 -60.5q25 0 47.5 11t40 37.5t27 73t9.5 117.5v1027h-86v72h254v-72h-95v-1036q0 -121 -30.5 -190t-86.5 -97.5t-131 -28.5z" />
    <glyph glyph-name="uni0259" unicode="&#x259;" horiz-adv-x="726" 
d="M64 1046h68q0 -32 6.5 -48.5t18.5 -16.5l7 -92h-100v157zM346 1067q76 0 136 -38.5t102 -110t63.5 -172.5t21.5 -226q0 -140 -28 -241t-75.5 -165.5t-103.5 -95.5t-113 -31q-66 0 -120 35.5t-91.5 100.5t-58 153t-20.5 193q0 21 0.5 41.5t1.5 40.5h411v-72h-211
q0 -140 9 -233t29 -139.5t50 -46.5q32 0 56 47t38.5 147.5t14.5 260.5q0 120 -7 209.5t-22.5 149t-42 89t-65.5 29.5q-69 0 -108.5 -39t-55.5 -76l-61 41q22 56 90.5 102.5t159.5 46.5z" />
    <glyph glyph-name="uni0289" unicode="&#x289;" horiz-adv-x="886" 
d="M38 595v72h769v-72h-769zM346 -22q-61 0 -112.5 24.5t-82 92t-30.5 197.5v683h-103v71h313v-730q0 -95 8.5 -145t26 -67.5t43.5 -17.5q31 0 54.5 32t36.5 89.5t13 135.5v632h-93v71h303v-974h89v-72h-273l-12 108q-5 -25 -27.5 -55.5t-61 -52.5t-92.5 -22z" />
    <glyph glyph-name="uni02BC" unicode="&#x2bc;" horiz-adv-x="544" 
d="M276 1165l-56 64q14 7 45 29.5t38 44.5q-2 -1 -6 -2.5t-10 -1.5q-46 0 -77.5 32t-31.5 78q0 47 32.5 78t76.5 31q52 0 87 -32.5t35 -95.5q0 -59 -23.5 -103.5t-55 -74.5t-54.5 -47z" />
    <glyph glyph-name="circumflex" unicode="&#x2c6;" horiz-adv-x="696" 
d="M203 1272l148 204h70l146 -204h-83l-99 133l-98 -133h-84z" />
    <glyph glyph-name="caron" unicode="&#x2c7;" horiz-adv-x="694" 
d="M351 1257l-165 221h89l110 -150l110 150h91l-165 -221h-70z" />
    <glyph glyph-name="uni02C9" unicode="&#x2c9;" horiz-adv-x="927" 
d="M231 1355v72h603v-72h-603z" />
    <glyph glyph-name="breve" unicode="&#x2d8;" horiz-adv-x="698" 
d="M347 1261q-62 0 -100.5 28t-56 73t-17.5 93h71q4 -62 32 -92t71 -30q45 0 73 30t32 92h71q0 -48 -17.5 -93t-56 -73t-102.5 -28z" />
    <glyph glyph-name="dotaccent" unicode="&#x2d9;" horiz-adv-x="661" 
d="M311 1305q-34 0 -59.5 25t-25.5 58q0 35 25.5 60.5t59.5 25.5q33 0 58 -25.5t25 -60.5q0 -33 -25 -58t-58 -25z" />
    <glyph glyph-name="ring" unicode="&#x2da;" horiz-adv-x="487" 
d="M250 1144q-44 0 -77 32.5t-33 85.5q0 55 33 86.5t77 31.5q43 0 75 -31.5t32 -86.5q0 -53 -32 -85.5t-75 -32.5zM250 1200q25 0 36 19.5t11 44.5q0 21 -11 40.5t-36 19.5t-37 -19.5t-12 -40.5q0 -25 12 -44.5t37 -19.5z" />
    <glyph glyph-name="ogonek" unicode="&#x2db;" horiz-adv-x="647" 
d="M347 -302q-43 0 -81 14.5t-61.5 45.5t-23.5 79q0 52 24.5 88.5t57 60.5t56.5 38l29 -24q-22 -25 -42.5 -57.5t-20.5 -81.5q0 -44 30.5 -58t57.5 -14q25 0 51.5 6.5t44.5 17.5l34 -64q-24 -21 -65.5 -36t-90.5 -15z" />
    <glyph glyph-name="tilde" unicode="&#x2dc;" horiz-adv-x="707" 
d="M433 1284q-39 0 -66 15t-48.5 29.5t-45.5 14.5q-33 0 -51 -16t-23 -27l-69 28q6 19 24.5 43.5t46.5 43.5t61 19q43 0 69 -14.5t47.5 -29t50.5 -14.5q34 0 48.5 14.5t19.5 25.5l68 -30q-3 -14 -21 -38t-46 -44t-65 -20z" />
    <glyph glyph-name="hungarumlaut" unicode="&#x2dd;" horiz-adv-x="967" 
d="M378 1224l-48 49l123 143q19 31 42 33.5t38 -12.5t13.5 -38t-30.5 -44zM458 1224l-47 49l120 143q20 31 43 33.5t39 -12.5t14 -38t-31 -44z" />
    <glyph glyph-name="gravecomb" unicode="&#x300;" 
d="M366 1104l-204 98q-28 13 -42.5 27t-14.5 39q0 23 16.5 37t41.5 14q20 0 34 -7.5t29 -19.5l176 -145z" />
    <glyph glyph-name="acutecomb" unicode="&#x301;" 
d="M207 1098l-49 52l184 140q14 11 29 18t28 7q16 0 28.5 -8t19.5 -21q7 -11 7 -25q0 -19 -15 -35.5t-41 -27.5z" />
    <glyph glyph-name="uni0302" unicode="&#x302;" 
d="M164 1116l147 204h70l146 -204h-83l-99 133l-98 -133h-83z" />
    <glyph glyph-name="tildecomb" unicode="&#x303;" 
d="M433 1136q-39 0 -65 14.5t-46.5 29t-44.5 14.5q-33 0 -50 -16t-22 -26l-71 30q5 18 23 42t45 42.5t60 18.5q43 0 68.5 -14.5t47 -29t50.5 -14.5q31 0 45 14.5t19 25.5l70 -34q-4 -13 -21 -36.5t-44 -42t-64 -18.5z" />
    <glyph glyph-name="uni0304" unicode="&#x304;" 
d="M271 1136v72h536v-72h-536z" />
    <glyph glyph-name="uni0306" unicode="&#x306;" 
d="M345 1102q-62 0 -100.5 28t-56 73t-17.5 93h71q4 -62 32 -92t71 -30q45 0 73 30t32 92h71q0 -48 -17.5 -93t-56 -73t-102.5 -28z" />
    <glyph glyph-name="uni0307" unicode="&#x307;" 
d="M308 1135q-35 0 -60 25t-25 58q0 35 25 60.5t60 25.5q32 0 57.5 -25.5t25.5 -60.5q0 -33 -25.5 -58t-57.5 -25z" />
    <glyph glyph-name="uni0308" unicode="&#x308;" 
d="M521 1130q-35 0 -59.5 25.5t-24.5 58.5q0 35 24.5 61t59.5 26q33 0 58.5 -26t25.5 -61q0 -33 -25.5 -58.5t-58.5 -25.5zM280 1130q-33 0 -57.5 25.5t-24.5 58.5q0 35 24.5 61t57.5 26q35 0 60 -26t25 -61q0 -33 -25 -58.5t-60 -25.5z" />
    <glyph glyph-name="hookabovecomb" unicode="&#x309;" 
d="M298 1414q57 0 100 -24t43 -84q0 -44 -27 -72t-53.5 -49t-26.5 -48h-61q0 41 16.5 67t33 48t16.5 49q0 28 -15 38t-42 10q-25 0 -43.5 -7.5t-32.5 -20.5l-48 47q18 20 57 33t83 13z" />
    <glyph glyph-name="uni030A" unicode="&#x30a;" 
d="M250 1097q-44 0 -77 32.5t-33 85.5q0 55 33 86.5t77 31.5q43 0 75 -31.5t32 -86.5q0 -53 -32 -85.5t-75 -32.5zM250 1153q25 0 36 19.5t11 44.5q0 21 -11 40t-36 19t-37 -19t-12 -40q0 -25 12 -44.5t37 -19.5z" />
    <glyph glyph-name="uni030B" unicode="&#x30b;" 
d="M378 1120l-48 49l122 143q14 17 26 25.5t24 8.5q19 0 32 -13.5t13 -32.5q0 -27 -31 -49zM458 1120l-47 49l119 143q14 17 27 25.5t25 8.5q18 0 31.5 -13.5t13.5 -32.5q0 -28 -31 -49z" />
    <glyph glyph-name="uni030C" unicode="&#x30c;" 
d="M315 1106l-166 222h90l110 -150l110 150h91l-165 -222h-70z" />
    <glyph glyph-name="uni030F" unicode="&#x30f;" 
d="M449 1105l-158 161q-17 16 -26 30t-9 30q0 26 16.5 41t37.5 15q28 0 45 -16t29 -37l114 -196zM249 1105l-159 161q-16 17 -25 30.5t-9 29.5q0 26 16 41t38 15q28 0 45 -16t28 -37l115 -196z" />
    <glyph glyph-name="uni0311" unicode="&#x311;" 
d="M336 1313q63 0 101.5 -28.5t56 -73t17.5 -92.5h-71q-4 62 -32 91.5t-72 29.5t-71.5 -29.5t-32.5 -91.5h-70q0 48 17.5 92.5t55.5 73t101 28.5z" />
    <glyph glyph-name="uni0312" unicode="&#x312;" 
d="M252 1358l40 -39q-11 -4 -34.5 -24.5t-28.5 -34.5q5 4 16 4q31 0 53 -22t22 -54q0 -31 -22 -53t-54 -22q-35 0 -60.5 22.5t-25.5 65.5q0 42 16.5 72.5t38.5 51.5t39 33z" />
    <glyph glyph-name="uni031B" unicode="&#x31b;" 
d="M236 974v72q46 0 83.5 12t37.5 60q0 19 -7 44t-7 45q0 33 17.5 52.5t50.5 19.5q32 0 49 -19t17 -53q0 -93 -39.5 -143.5t-95.5 -70t-106 -19.5z" />
    <glyph glyph-name="dotbelowcomb" unicode="&#x323;" 
d="M308 -266q-35 0 -60 25t-25 58q0 35 25 60.5t60 25.5q32 0 57.5 -25.5t25.5 -60.5q0 -33 -25.5 -58t-57.5 -25z" />
    <glyph glyph-name="uni0324" unicode="&#x324;" 
d="M415 -263q-35 0 -60 25t-25 58q0 36 25 62t60 26q33 0 58 -26t25 -62q0 -33 -25 -58t-58 -25zM173 -263q-32 0 -57 25t-25 58q0 36 25 62t57 26q35 0 60.5 -26t25.5 -62q0 -33 -25.5 -58t-60.5 -25z" />
    <glyph glyph-name="uni0326" unicode="&#x326;" 
d="M215 -356l-39 45q11 4 32 20t26 31q-2 -3 -11 -3q-32 0 -54 22t-22 54q0 33 22.5 54.5t54.5 21.5q35 0 59.5 -22.5t24.5 -66.5q0 -41 -16.5 -72t-38.5 -51.5t-38 -32.5z" />
    <glyph glyph-name="uni0327" unicode="&#x327;" 
d="M304 -315q-50 0 -92 10.5t-57 18.5l27 66q10 -7 43.5 -17.5t72.5 -10.5q31 0 54 16t23 44q0 31 -15 41t-36 10q-16 0 -32 -6.5t-28 -20.5l-67 4l60 160h72l-43 -106q4 7 28.5 16.5t57.5 9.5q39 0 73 -24t34 -85q0 -43 -24 -71t-63.5 -41.5t-87.5 -13.5z" />
    <glyph glyph-name="uni0328" unicode="&#x328;" 
d="M347 -302q-43 0 -81 14.5t-61.5 45.5t-23.5 79q0 52 24.5 88.5t57 60.5t56.5 38l29 -24q-22 -25 -42.5 -57.5t-20.5 -81.5q0 -44 30.5 -58t57.5 -14q25 0 51.5 6.5t44.5 17.5l34 -64q-24 -21 -65.5 -36t-90.5 -15z" />
    <glyph glyph-name="uni032E" unicode="&#x32e;" 
d="M265 -298q-62 0 -100.5 28t-56 73t-17.5 93h70q5 -62 32.5 -92t71.5 -30q45 0 73 30t32 92h70q0 -48 -17.5 -93t-56 -73t-101.5 -28z" />
    <glyph glyph-name="uni0331" unicode="&#x331;" 
d="M225 -206v60h604v-60h-604z" />
    <glyph glyph-name="uni0335" unicode="&#x335;" 
d="M103 526v72h482v-72h-482z" />
    <glyph glyph-name="uni0336" unicode="&#x336;" 
d="M103 526v72h482v-72h-482z" />
    <glyph glyph-name="uni0337" unicode="&#x337;" 
d="M34 -104l495 1608h74l-493 -1608h-76z" />
    <glyph glyph-name="uni0338" unicode="&#x338;" 
d="M34 -104l495 1608h74l-493 -1608h-76z" />
    <glyph glyph-name="uni1E05" unicode="&#x1e05;" horiz-adv-x="803" 
d="M462 -20q-49 0 -80 24t-46 56.5t-18 56.5l-18 -117h-284v72h104v1356h-104v72h318v-550q3 13 18 39.5t45.5 47.5t79.5 21q70 0 128.5 -55t94.5 -174t36 -311q0 -203 -38 -320.5t-100.5 -167.5t-135.5 -50zM421 102q29 0 48.5 27t32 79.5t18 129t5.5 176.5q0 97 -5 173
t-17 129t-31.5 81.5t-47.5 28.5q-25 0 -44 -25.5t-31 -67.5t-15 -90v-383q1 -65 13 -124t31.5 -96.5t42.5 -37.5zM399 -266q-35 0 -60 25t-25 58q0 35 25 60.5t60 25.5q32 0 57.5 -25.5t25.5 -60.5q0 -33 -25.5 -58t-57.5 -25z" />
    <glyph glyph-name="uni1E08" unicode="&#x1e08;" horiz-adv-x="704" 
d="M419 -20q-157 0 -255.5 185t-98.5 533q0 133 22.5 262t67.5 233.5t113.5 166.5t159.5 62q63 0 111 -42t75 -104.5t27 -124.5q0 -55 -20.5 -88.5t-64.5 -33.5q-48 0 -69 27.5t-21 74.5q0 33 13.5 54.5t26.5 43.5t13 54q0 34 -15.5 49.5t-38.5 15.5q-38 0 -67.5 -42.5
t-50 -112.5t-33.5 -155.5t-19 -173.5t-6 -164q0 -113 7 -212t21 -179t34 -137.5t45 -88.5t55 -31q37 0 61 22t39.5 58t25.5 78l62 -34q-19 -55 -48 -99.5t-71 -70.5t-101 -26zM432 -315q-50 0 -92.5 10.5t-57.5 18.5l27 66q11 -7 44.5 -17.5t72.5 -10.5q31 0 54 16t23 44
q0 31 -15 41t-36 10q-16 0 -32 -6.5t-28 -20.5l-67 4l60 160h72l-43 -106q4 7 28 16.5t58 9.5q38 0 72 -24t34 -85q0 -43 -23.5 -71t-63 -41.5t-87.5 -13.5zM307 1462l-49 53l183 139q15 11 30 18t28 7q16 0 28.5 -8t19.5 -21q7 -11 7 -24q0 -19 -15 -36t-41 -28z" />
    <glyph glyph-name="uni1E09" unicode="&#x1e09;" horiz-adv-x="666" 
d="M277 1083l-49 52l184 140q14 11 29 18t28 7q16 0 28.5 -8t19.5 -21q7 -11 7 -25q0 -19 -15 -35.5t-41 -27.5zM383 -21q-71 0 -131 40t-105 113.5t-69.5 174.5t-24.5 223q0 140 32.5 240.5t84 164t110 94t109.5 30.5q73 0 125 -40t79.5 -103.5t27.5 -135.5
q0 -56 -23.5 -86.5t-61.5 -30.5q-39 0 -63 26.5t-24 70.5q0 29 10.5 46t21 34.5t10.5 45.5q0 49 -26.5 74t-63.5 25q-39 0 -64 -42t-39.5 -109t-20 -145.5t-5.5 -151.5q0 -81 6 -165.5t22 -155.5t45 -114.5t74 -43.5q56 0 86.5 32.5t45.5 75.5l55 -47q-20 -51 -75.5 -95.5
t-147.5 -44.5zM420 -315q-50 0 -92.5 11t-57.5 19l27 66q11 -7 44.5 -17.5t71.5 -10.5q32 0 54.5 15.5t22.5 43.5q0 32 -14.5 42t-35.5 10q-16 0 -32 -6.5t-28 -20.5l-68 4l61 160h72l-44 -106q5 6 29 15.5t57 9.5q39 0 73 -24t34 -85q0 -42 -23.5 -70t-63.5 -42t-87 -14z
" />
    <glyph glyph-name="uni1E0D" unicode="&#x1e0d;" horiz-adv-x="811" 
d="M340 -20q-72 0 -134.5 50t-101.5 167.5t-39 320.5q0 192 37.5 311t97 174t126.5 55q54 0 84.5 -18.5t44 -42t16.5 -38.5v468h-118v73h332v-1428h114v-72h-293l-20 118q-2 -26 -19.5 -59t-48.5 -56t-78 -23zM380 102q27 0 46.5 36t31 92t13.5 114v399q-3 52 -15.5 94
t-32 67t-44.5 25q-26 0 -45 -30t-31.5 -84.5t-19 -130.5t-6.5 -170q0 -98 6.5 -174.5t19 -129.5t32 -80.5t45.5 -27.5zM408 -266q-35 0 -60 25t-25 58q0 35 25 60.5t60 25.5q32 0 57.5 -25.5t25.5 -60.5q0 -33 -25.5 -58t-57.5 -25z" />
    <glyph glyph-name="uni1E0F" unicode="&#x1e0f;" horiz-adv-x="811" 
d="M340 -20q-72 0 -134.5 50t-101.5 167.5t-39 320.5q0 192 37.5 311t97 174t126.5 55q54 0 84.5 -18.5t44 -42t16.5 -38.5v468h-118v73h332v-1428h114v-72h-293l-20 118q-2 -26 -19.5 -59t-48.5 -56t-78 -23zM380 102q27 0 46.5 36t31 92t13.5 114v399q-3 52 -15.5 94
t-32 67t-44.5 25q-26 0 -45 -30t-31.5 -84.5t-19 -130.5t-6.5 -170q0 -98 6.5 -174.5t19 -129.5t32 -80.5t45.5 -27.5zM88 -253v72h536v-72h-536z" />
    <glyph glyph-name="uni1E15" unicode="&#x1e15;" horiz-adv-x="721" 
d="M377 -21q-76 0 -136 38.5t-102 110t-63.5 172.5t-21.5 226q0 140 28 241t75.5 165.5t104 95.5t112.5 31q66 0 120 -35.5t91.5 -97.5t58 -145t20.5 -179q0 -21 -0.5 -41.5t-1.5 -40.5h-410v72h211q0 140 -9.5 226.5t-29 127t-50.5 40.5t-55.5 -41t-39 -135t-14.5 -254
q0 -120 7 -212.5t23 -155.5t42 -95.5t66 -32.5q68 0 107.5 36.5t55.5 72.5l61 -41q-21 -56 -89.5 -102.5t-160.5 -46.5zM102 1136v72h536v-72h-536zM476 1266l-204 98q-28 13 -42.5 27t-14.5 39q0 23 16.5 37t41.5 14q20 0 34 -7.5t29 -19.5l176 -145z" />
    <glyph glyph-name="uni1E17" unicode="&#x1e17;" horiz-adv-x="721" 
d="M377 -21q-76 0 -136 38.5t-102 110t-63.5 172.5t-21.5 226q0 140 28 241t75.5 165.5t104 95.5t112.5 31q66 0 120 -35.5t91.5 -97.5t58 -145t20.5 -179q0 -21 -0.5 -41.5t-1.5 -40.5h-410v72h211q0 140 -9.5 226.5t-29 127t-50.5 40.5t-55.5 -41t-39 -135t-14.5 -254
q0 -120 7 -212.5t23 -155.5t42 -95.5t66 -32.5q68 0 107.5 36.5t55.5 72.5l61 -41q-21 -56 -89.5 -102.5t-160.5 -46.5zM102 1136v72h536v-72h-536zM265 1246l-49 52l184 140q14 11 29 18t28 7q16 0 28.5 -8t19.5 -21q7 -11 7 -25q0 -19 -15 -35.5t-41 -27.5z" />
    <glyph glyph-name="uni1E1D" unicode="&#x1e1d;" horiz-adv-x="721" 
d="M367 1102q-62 0 -100.5 28t-56 73t-17.5 93h71q4 -62 32 -92t71 -30q45 0 73 30t32 92h71q0 -48 -17.5 -93t-56 -73t-102.5 -28zM377 -21q-76 0 -136 38.5t-102 110t-63.5 172.5t-21.5 226q0 140 28 241t75.5 165.5t104 95.5t112.5 31q66 0 120 -35.5t91.5 -100.5
t58 -153t20.5 -193q0 -21 -0.5 -41t-1.5 -41h-410v72h211q0 140 -9.5 233t-29 139.5t-50.5 46.5t-55.5 -47t-39 -147t-14.5 -261q0 -120 7 -209.5t23 -149t42 -89t66 -29.5q68 0 107.5 39.5t55.5 75.5l61 -41q-21 -56 -89.5 -102.5t-160.5 -46.5zM421 -315q-50 0 -92 10.5
t-57 18.5l27 66q10 -7 43.5 -17.5t72.5 -10.5q31 0 54 16t23 44q0 31 -15 41t-36 10q-16 0 -32 -6.5t-28 -20.5l-67 4l60 160h72l-43 -106q4 7 28 16.5t58 9.5q39 0 73 -24t34 -85q0 -43 -24 -71t-63.5 -41.5t-87.5 -13.5z" />
    <glyph glyph-name="uni1E21" unicode="&#x1e21;" horiz-adv-x="796" 
d="M390 -498q-89 0 -166.5 31t-125 90.5t-47.5 144.5q0 65 23 109.5t54.5 71t59 40t36.5 16.5q-8 2 -29.5 10.5t-46 28t-42 51t-17.5 78.5q0 38 13.5 64.5t34 43t39.5 21.5q5 1 12 2.5t9 1.5q-8 6 -26 27t-38 60.5t-34 100t-14 143.5q0 119 29 199.5t76 130t100.5 71
t101.5 21.5q96 0 162.5 -51t102 -143t35.5 -214q0 -125 -29 -206.5t-75 -128.5t-99 -66t-101 -19q-54 0 -87 12t-40 14q-1 1 -2 1h-3q-15 0 -30.5 -16t-15.5 -44q0 -40 46 -67t172 -49q149 -24 229 -91.5t80 -202.5q0 -81 -33.5 -136t-86.5 -88t-113 -47.5t-114 -14.5z
M390 -429q70 0 113 51.5t43 122.5q0 77 -22 117t-82 66q-20 9 -43.5 19t-44 18t-32.5 11q-24 -12 -45.5 -39.5t-35.5 -68.5t-14 -96q0 -57 19 -102.5t55 -72t89 -26.5zM388 305q25 0 46 24t34 97t13 221q0 142 -12.5 214.5t-33.5 97.5t-45 25t-45.5 -25t-35 -98.5
t-13.5 -217.5q0 -147 13.5 -219t35 -95.5t43.5 -23.5zM499 985q11 68 63.5 107t111.5 39q50 0 70.5 -23.5t20.5 -60.5q0 -35 -19.5 -54.5t-49.5 -19.5q-29 0 -41.5 13t-21 26t-29.5 13q-13 0 -23.5 -9t-10.5 -33zM121 1137v72h536v-72h-536z" />
    <glyph glyph-name="uni1E25" unicode="&#x1e25;" horiz-adv-x="869" 
d="M33 0v72h103v1356h-103v72h313v-551q1 10 22.5 37t61.5 50.5t97 23.5q59 0 108 -29.5t78.5 -101.5t29.5 -200v-657h104v-72h-386v72h72v642q0 121 -19 167.5t-59 46.5q-27 0 -51.5 -23.5t-40.5 -65.5t-17 -99v-668h76v-72h-389zM437 -266q-35 0 -60 25t-25 58
q0 35 25 60.5t60 25.5q32 0 57.5 -25.5t25.5 -60.5q0 -33 -25.5 -58t-57.5 -25z" />
    <glyph glyph-name="uni1E2B" unicode="&#x1e2b;" horiz-adv-x="869" 
d="M33 0v72h103v1356h-103v72h313v-551q1 10 22.5 37t61.5 50.5t97 23.5q59 0 108 -29.5t78.5 -101.5t29.5 -200v-657h104v-72h-386v72h72v642q0 121 -19 167.5t-59 46.5q-27 0 -51.5 -23.5t-40.5 -65.5t-17 -99v-668h76v-72h-389zM437 -298q-62 0 -100.5 28t-56 73
t-17.5 93h70q5 -62 32.5 -92t71.5 -30q45 0 73 30t32 92h70q0 -48 -17.5 -93t-56 -73t-101.5 -28z" />
    <glyph glyph-name="uni1E2F" unicode="&#x1e2f;" horiz-adv-x="474" 
d="M31 0v72h103v903h-103v72h313v-975h103v-72h-416zM359 1130q-35 0 -59.5 25.5t-24.5 58.5q0 35 24.5 61t59.5 26q33 0 58.5 -26t25.5 -61q0 -33 -25.5 -58.5t-58.5 -25.5zM118 1130q-33 0 -57.5 25.5t-24.5 58.5q0 35 24.5 61t57.5 26q35 0 60 -26t25 -61
q0 -33 -25 -58.5t-60 -25.5zM135 1339l-49 52l184 140q14 11 29 18t28 7q16 0 28.5 -8t19.5 -21q7 -11 7 -25q0 -19 -15 -35.5t-41 -27.5z" />
    <glyph glyph-name="uni1E37" unicode="&#x1e37;" horiz-adv-x="485" 
d="M35 0v72h103v1356h-103v72h312v-1428h103v-72h-415zM245 -266q-35 0 -60 25t-25 58q0 35 25 60.5t60 25.5q32 0 57.5 -25.5t25.5 -60.5q0 -33 -25.5 -58t-57.5 -25z" />
    <glyph glyph-name="uni1E3B" unicode="&#x1e3b;" horiz-adv-x="485" 
d="M35 0v72h103v1356h-103v72h312v-1428h103v-72h-415zM-57 -206v60h604v-60h-604z" />
    <glyph glyph-name="uni1E3F" unicode="&#x1e3f;" horiz-adv-x="1193" 
d="M30 0v72h98v903h-98v72h302v-111q2 16 22 45.5t60.5 53t99.5 23.5q58 0 94.5 -27.5t54.5 -61.5t22 -52q6 28 33.5 60.5t72.5 56.5t102 24q92 0 143.5 -74t51.5 -189v-723h94v-72h-377v72h73v625q0 81 -4.5 134.5t-19 80t-47.5 26.5q-34 0 -55 -27t-31 -73t-12 -103v-663
h74v-72h-353v72h71v625q0 121 -10 181t-60 60q-33 0 -53.5 -27.5t-29.5 -76.5t-10 -112v-650h71v-72h-379zM505 1083l-49 52l184 140q14 11 29 18t28 7q16 0 28.5 -8t19.5 -21q7 -11 7 -25q0 -19 -15 -35.5t-41 -27.5z" />
    <glyph glyph-name="uni1E43" unicode="&#x1e43;" horiz-adv-x="1193" 
d="M30 0v72h98v903h-98v72h302v-111q2 16 22 45.5t60.5 53t99.5 23.5q58 0 94.5 -27.5t54.5 -61.5t22 -52q6 28 33.5 60.5t72.5 56.5t102 24q92 0 143.5 -74t51.5 -189v-723h94v-72h-377v72h73v625q0 81 -4.5 134.5t-19 80t-47.5 26.5q-34 0 -55 -27t-31 -73t-12 -103v-663
h74v-72h-353v72h71v625q0 121 -10 181t-60 60q-33 0 -53.5 -27.5t-29.5 -76.5t-10 -112v-650h71v-72h-379zM610 -266q-35 0 -60 25t-25 58q0 35 25 60.5t60 25.5q32 0 57.5 -25.5t25.5 -60.5q0 -33 -25.5 -58t-57.5 -25z" />
    <glyph glyph-name="uni1E45" unicode="&#x1e45;" horiz-adv-x="859" 
d="M33 0v72h105v903h-105v72h309v-103q4 17 26 44.5t60.5 49t92.5 21.5q57 0 105 -25.5t78 -95t30 -202.5v-664h103v-72h-390v72h77v656q0 111 -18 161t-58 50q-22 0 -40 -15t-31 -41.5t-20.5 -61.5t-8.5 -75v-674h74v-72h-389zM441 1136q-35 0 -60 25t-25 58q0 35 25 60.5
t60 25.5q32 0 57.5 -25.5t25.5 -60.5q0 -33 -25.5 -58t-57.5 -25z" />
    <glyph glyph-name="uni1E47" unicode="&#x1e47;" horiz-adv-x="859" 
d="M33 0v72h105v903h-105v72h309v-103q4 17 26 44.5t60.5 49t92.5 21.5q57 0 105 -25.5t78 -95t30 -202.5v-664h103v-72h-390v72h77v656q0 111 -18 161t-58 50q-22 0 -40 -15t-31 -41.5t-20.5 -61.5t-8.5 -75v-674h74v-72h-389zM441 -266q-35 0 -60 25t-25 58q0 35 25 60.5
t60 25.5q32 0 57.5 -25.5t25.5 -60.5q0 -33 -25.5 -58t-57.5 -25z" />
    <glyph glyph-name="uni1E49" unicode="&#x1e49;" horiz-adv-x="859" 
d="M33 0v72h105v903h-105v72h309v-103q4 17 26 44.5t60.5 49t92.5 21.5q57 0 105 -25.5t78 -95t30 -202.5v-664h103v-72h-390v72h77v656q0 111 -18 161t-58 50q-22 0 -40 -15t-31 -41.5t-20.5 -61.5t-8.5 -75v-674h74v-72h-389zM138 -206v60h604v-60h-604z" />
    <glyph glyph-name="uni1E4D" unicode="&#x1e4d;" horiz-adv-x="745" 
d="M370 -22q-59 0 -115.5 34.5t-102 103.5t-72 172t-26.5 239q0 148 28 250.5t74 164.5t102 89.5t112 27.5q55 0 111 -27.5t102.5 -89.5t75.5 -164.5t29 -250.5q0 -136 -27.5 -239t-73 -172t-102.5 -103.5t-115 -34.5zM370 58q48 0 76 111.5t28 357.5q0 245 -28 349t-76 104
q-47 0 -75.5 -104t-28.5 -349q0 -246 28.5 -357.5t75.5 -111.5zM456 1137q-39 0 -65 14.5t-46.5 29t-44.5 14.5q-33 0 -50 -16t-22 -26l-71 30q5 18 23 42t45 42.5t60 18.5q43 0 68.5 -14.5t47 -29t50.5 -14.5q31 0 45 14.5t19 25.5l70 -34q-4 -13 -21 -36.5t-44 -42
t-64 -18.5zM266 1324l-49 52l184 140q14 11 29 18t28 7q16 0 28.5 -8t19.5 -21q7 -11 7 -25q0 -19 -15 -35.5t-41 -27.5z" />
    <glyph glyph-name="uni1E4F" unicode="&#x1e4f;" horiz-adv-x="745" 
d="M370 -22q-59 0 -115.5 34.5t-102 103.5t-72 172t-26.5 239q0 148 28 250.5t74 164.5t102 89.5t112 27.5q55 0 111 -27.5t102.5 -89.5t75.5 -164.5t29 -250.5q0 -136 -27.5 -239t-73 -172t-102.5 -103.5t-115 -34.5zM370 58q48 0 76 111.5t28 357.5q0 245 -28 349t-76 104
q-47 0 -75.5 -104t-28.5 -349q0 -246 28.5 -357.5t75.5 -111.5zM456 1137q-39 0 -65 14.5t-46.5 29t-44.5 14.5q-33 0 -50 -16t-22 -26l-71 30q5 18 23 42t45 42.5t60 18.5q43 0 68.5 -14.5t47 -29t50.5 -14.5q31 0 45 14.5t19 25.5l70 -34q-4 -13 -21 -36.5t-44 -42
t-64 -18.5zM490 1371q-35 0 -59.5 25.5t-24.5 58.5q0 35 24.5 61t59.5 26q33 0 58.5 -26t25.5 -61q0 -33 -25.5 -58.5t-58.5 -25.5zM249 1371q-33 0 -57.5 25.5t-24.5 58.5q0 35 24.5 61t57.5 26q35 0 60 -26t25 -61q0 -33 -25 -58.5t-60 -25.5z" />
    <glyph glyph-name="uni1E51" unicode="&#x1e51;" horiz-adv-x="745" 
d="M370 -22q-59 0 -115.5 34.5t-102 103.5t-72 172t-26.5 239q0 148 28 250.5t74 164.5t102 89.5t112 27.5q55 0 111 -27.5t102.5 -89.5t75.5 -164.5t29 -250.5q0 -136 -27.5 -239t-73 -172t-102.5 -103.5t-115 -34.5zM370 58q48 0 76 111.5t28 357.5q0 245 -28 349t-76 104
q-47 0 -75.5 -104t-28.5 -349q0 -246 28.5 -357.5t75.5 -111.5zM143 1137v72h455v-72h-455zM477 1267l-204 98q-28 13 -42.5 27t-14.5 39q0 23 16.5 37t41.5 14q20 0 34 -7.5t29 -19.5l176 -145z" />
    <glyph glyph-name="uni1E53" unicode="&#x1e53;" horiz-adv-x="745" 
d="M370 -22q-59 0 -115.5 34.5t-102 103.5t-72 172t-26.5 239q0 148 28 250.5t74 164.5t102 89.5t112 27.5q55 0 111 -27.5t102.5 -89.5t75.5 -164.5t29 -250.5q0 -136 -27.5 -239t-73 -172t-102.5 -103.5t-115 -34.5zM370 58q48 0 76 111.5t28 357.5q0 245 -28 349t-76 104
q-47 0 -75.5 -104t-28.5 -349q0 -246 28.5 -357.5t75.5 -111.5zM143 1137v72h455v-72h-455zM266 1246l-49 52l184 140q14 11 29 18t28 7q16 0 28.5 -8t19.5 -21q7 -11 7 -25q0 -19 -15 -35.5t-41 -27.5z" />
    <glyph glyph-name="uni1E5B" unicode="&#x1e5b;" horiz-adv-x="675" 
d="M26 0v72h105v903h-105v72h296l12 -92q4 14 23.5 39t51.5 45t75 20q56 0 91 -36.5t52.5 -98t17.5 -136.5q0 -61 -23 -93t-63 -32q-37 0 -60 27t-23 75q0 31 12 50t23.5 37.5t11.5 49.5q0 39 -14 57t-42 18q-32 0 -61 -30t-47 -85.5t-18 -130.5v-659h105v-72h-420z
M284 -266q-35 0 -60 25t-25 58q0 35 25 60.5t60 25.5q32 0 57.5 -25.5t25.5 -60.5q0 -33 -25.5 -58t-57.5 -25z" />
    <glyph glyph-name="uni1E5F" unicode="&#x1e5f;" horiz-adv-x="675" 
d="M26 0v72h105v903h-105v72h296l12 -92q4 14 23.5 39t51.5 45t75 20q56 0 91 -36.5t52.5 -98t17.5 -136.5q0 -61 -23 -93t-63 -32q-37 0 -60 27t-23 75q0 31 12 50t23.5 37.5t11.5 49.5q0 39 -14 57t-42 18q-32 0 -61 -30t-47 -85.5t-18 -130.5v-659h105v-72h-420z
M-19 -206v60h604v-60h-604z" />
    <glyph glyph-name="uni1E61" unicode="&#x1e61;" horiz-adv-x="588" 
d="M302 -22q-57 0 -86.5 14t-45 28t-30.5 14q-13 0 -18 -8.5t-5 -25.5h-65v317h77q5 -56 18.5 -104.5t34.5 -85t50.5 -57t66.5 -20.5q34 0 54.5 15.5t30 41t9.5 56.5q0 45 -17 88t-50.5 88.5t-83.5 97.5q-77 80 -131 164t-54 207q0 87 33.5 142.5t87 82t112.5 26.5
q43 0 69 -11t41.5 -22.5t26.5 -11.5q9 0 14 7.5t5 25.5h66v-308h-76q-3 49 -13.5 94t-28.5 79t-42.5 54t-57.5 20q-48 0 -72.5 -36t-24.5 -86q0 -60 39 -113t109 -124q54 -54 97.5 -111t69 -123t25.5 -148q0 -90 -29.5 -149.5t-82.5 -88.5t-123 -29zM306 1136q-35 0 -60 25
t-25 58q0 35 25 60.5t60 25.5q32 0 57.5 -25.5t25.5 -60.5q0 -33 -25.5 -58t-57.5 -25z" />
    <glyph glyph-name="uni1E63" unicode="&#x1e63;" horiz-adv-x="588" 
d="M302 -22q-57 0 -86.5 14t-45 28t-30.5 14q-13 0 -18 -8.5t-5 -25.5h-65v317h77q5 -56 18.5 -104.5t34.5 -85t50.5 -57t66.5 -20.5q34 0 54.5 15.5t30 41t9.5 56.5q0 45 -17 88t-50.5 88.5t-83.5 97.5q-77 80 -131 164t-54 207q0 87 33.5 142.5t87 82t112.5 26.5
q43 0 69 -11t41.5 -22.5t26.5 -11.5q9 0 14 7.5t5 25.5h66v-308h-76q-3 49 -13.5 94t-28.5 79t-42.5 54t-57.5 20q-48 0 -72.5 -36t-24.5 -86q0 -60 39 -113t109 -124q54 -54 97.5 -111t69 -123t25.5 -148q0 -90 -29.5 -149.5t-82.5 -88.5t-123 -29zM306 -266q-35 0 -60 25
t-25 58q0 35 25 60.5t60 25.5q32 0 57.5 -25.5t25.5 -60.5q0 -33 -25.5 -58t-57.5 -25z" />
    <glyph glyph-name="uni1E65" unicode="&#x1e65;" horiz-adv-x="588" 
d="M302 -22q-57 0 -86.5 14t-45 28t-30.5 14q-13 0 -18 -8.5t-5 -25.5h-65v317h77q5 -56 18.5 -104.5t34.5 -85t50.5 -57t66.5 -20.5q34 0 54.5 15.5t30 41t9.5 56.5q0 45 -17 88t-50.5 88.5t-83.5 97.5q-77 80 -131 164t-54 207q0 87 33.5 142.5t87 82t112.5 26.5
q43 0 69 -11t41.5 -22.5t26.5 -11.5q9 0 14 7.5t5 25.5h66v-308h-76q-3 49 -13.5 94t-28.5 79t-42.5 54t-57.5 20q-48 0 -72.5 -36t-24.5 -86q0 -60 39 -113t109 -124q54 -54 97.5 -111t69 -123t25.5 -148q0 -90 -29.5 -149.5t-82.5 -88.5t-123 -29zM201 1083l-49 52
l184 140q14 11 29 18t28 7q16 0 28.5 -8t19.5 -21q7 -11 7 -25q0 -19 -15 -35.5t-41 -27.5zM306 1388q-35 0 -60 25t-25 58q0 35 25 60.5t60 25.5q32 0 57.5 -25.5t25.5 -60.5q0 -33 -25.5 -58t-57.5 -25z" />
    <glyph glyph-name="uni1E67" unicode="&#x1e67;" horiz-adv-x="588" 
d="M302 -22q-57 0 -86.5 14t-45 28t-30.5 14q-13 0 -18 -8.5t-5 -25.5h-65v317h77q5 -56 18.5 -104.5t34.5 -85t50.5 -57t66.5 -20.5q34 0 54.5 15.5t30 41t9.5 56.5q0 45 -17 88t-50.5 88.5t-83.5 97.5q-77 80 -131 164t-54 207q0 87 33.5 142.5t87 82t112.5 26.5
q43 0 69 -11t41.5 -22.5t26.5 -11.5q9 0 14 7.5t5 25.5h66v-308h-76q-3 49 -13.5 94t-28.5 79t-42.5 54t-57.5 20q-48 0 -72.5 -36t-24.5 -86q0 -60 39 -113t109 -124q54 -54 97.5 -111t69 -123t25.5 -148q0 -90 -29.5 -149.5t-82.5 -88.5t-123 -29zM271 1107l-166 222h90
l110 -150l110 150h91l-165 -222h-70zM306 1391q-35 0 -60 25t-25 58q0 35 25 60.5t60 25.5q32 0 57.5 -25.5t25.5 -60.5q0 -33 -25.5 -58t-57.5 -25z" />
    <glyph glyph-name="uni1E69" unicode="&#x1e69;" horiz-adv-x="588" 
d="M302 -22q-57 0 -86.5 14t-45 28t-30.5 14q-13 0 -18 -8.5t-5 -25.5h-65v317h77q5 -56 18.5 -104.5t34.5 -85t50.5 -57t66.5 -20.5q34 0 54.5 15.5t30 41t9.5 56.5q0 45 -17 88t-50.5 88.5t-83.5 97.5q-77 80 -131 164t-54 207q0 87 33.5 142.5t87 82t112.5 26.5
q43 0 69 -11t41.5 -22.5t26.5 -11.5q9 0 14 7.5t5 25.5h66v-308h-76q-3 49 -13.5 94t-28.5 79t-42.5 54t-57.5 20q-48 0 -72.5 -36t-24.5 -86q0 -60 39 -113t109 -124q54 -54 97.5 -111t69 -123t25.5 -148q0 -90 -29.5 -149.5t-82.5 -88.5t-123 -29zM306 -266q-35 0 -60 25
t-25 58q0 35 25 60.5t60 25.5q32 0 57.5 -25.5t25.5 -60.5q0 -33 -25.5 -58t-57.5 -25zM306 1136q-35 0 -60 25t-25 58q0 35 25 60.5t60 25.5q32 0 57.5 -25.5t25.5 -60.5q0 -33 -25.5 -58t-57.5 -25z" />
    <glyph glyph-name="uni1E6D" unicode="&#x1e6d;" horiz-adv-x="529" 
d="M355 -18q-55 0 -105.5 18t-81.5 68t-31 144v763h-137v72h137q37 15 65 60.5t46 107.5t24 127h75v-295h158v-72h-158v-845q0 -41 18.5 -55.5t36.5 -14.5q19 0 34 7.5t22 16.5l41 -58q-24 -19 -59.5 -31.5t-84.5 -12.5zM336 -252q-35 0 -60 25t-25 58q0 35 25 60.5t60 25.5
q32 0 57.5 -25.5t25.5 -60.5q0 -33 -25.5 -58t-57.5 -25z" />
    <glyph glyph-name="uni1E6F" unicode="&#x1e6f;" horiz-adv-x="523" 
d="M65 -184v72h415v-72h-415zM355 -18q-55 0 -105.5 18t-81.5 68t-31 144v763h-137v72h137q37 15 65 60.5t46 107.5t24 127h75v-295h158v-72h-158v-845q0 -41 18.5 -55.5t36.5 -14.5q19 0 34 7.5t22 16.5l41 -58q-24 -19 -59.5 -31.5t-84.5 -12.5z" />
    <glyph glyph-name="uni1E79" unicode="&#x1e79;" horiz-adv-x="832" 
d="M346 -22q-61 0 -112.5 24.5t-82 92t-30.5 197.5v683h-103v71h313v-730q0 -95 8.5 -145t26 -67.5t43.5 -17.5q31 0 54.5 32t36.5 89.5t13 135.5v632h-93v71h303v-974h89v-72h-273l-12 108q-5 -25 -27.5 -55.5t-61 -52.5t-92.5 -22zM511 1137q-39 0 -65 14.5t-46.5 29
t-44.5 14.5q-33 0 -50 -16t-22 -26l-71 30q5 18 23 42t45 42.5t60 18.5q43 0 68.5 -14.5t47 -29t50.5 -14.5q31 0 45 14.5t19 25.5l70 -34q-4 -13 -21 -36.5t-44 -42t-64 -18.5zM322 1324l-49 52l184 140q14 11 29 18t28 7q16 0 28.5 -8t19.5 -21q7 -11 7 -25
q0 -19 -15 -35.5t-41 -27.5z" />
    <glyph glyph-name="uni1E7B" unicode="&#x1e7b;" horiz-adv-x="832" 
d="M346 -22q-61 0 -112.5 24.5t-82 92t-30.5 197.5v683h-103v71h313v-730q0 -95 8.5 -145t26 -67.5t43.5 -17.5q31 0 54.5 32t36.5 89.5t13 135.5v632h-93v71h303v-974h89v-72h-273l-12 108q-5 -25 -27.5 -55.5t-61 -52.5t-92.5 -22zM158 1137v72h536v-72h-536zM546 1293
q-35 0 -59.5 25.5t-24.5 58.5q0 35 24.5 61t59.5 26q33 0 58.5 -26t25.5 -61q0 -33 -25.5 -58.5t-58.5 -25.5zM305 1293q-33 0 -57.5 25.5t-24.5 58.5q0 35 24.5 61t57.5 26q35 0 60 -26t25 -61q0 -33 -25 -58.5t-60 -25.5z" />
    <glyph glyph-name="Wgrave" unicode="&#x1e80;" horiz-adv-x="1146" 
d="M320 -1l-207 1329h-102v72h417v-72h-71l100 -840l-29 -65l136 859l22 -161l-42 207h-82v72h397v-72h-83l109 -826l-21 -64l121 890h-80v72h242v-72h-83l-202 -1329h-96l-177 1107l35 64l-209 -1171h-95zM708 1448l-204 98q-28 13 -42.5 27t-14.5 39q0 23 16.5 37t41.5 14
q20 0 34 -7.5t29 -19.5l176 -145z" />
    <glyph glyph-name="wgrave" unicode="&#x1e81;" horiz-adv-x="1085" 
d="M696 -3l-178 978h-77v72h367v-72h-72l84 -579l93 579h-62v72h221v-72h-77l-174 -978h-125zM269 -3l-175 978h-78v72h374v-72h-70l74 -579l96 579h-36v72h197v-72h-79l-179 -978h-124zM662 1104l-204 98q-28 13 -42.5 27t-14.5 39q0 23 16.5 37t41.5 14q20 0 34 -7.5
t29 -19.5l176 -145z" />
    <glyph glyph-name="Wacute" unicode="&#x1e82;" horiz-adv-x="1146" 
d="M320 -1l-207 1329h-102v72h417v-72h-71l100 -840l-29 -65l136 859l22 -161l-42 207h-82v72h397v-72h-83l109 -826l-21 -64l121 890h-80v72h242v-72h-83l-202 -1329h-96l-177 1107l35 64l-209 -1171h-95zM498 1442l-49 53l183 139q15 11 30 18t28 7q16 0 28.5 -8t19.5 -21
q7 -11 7 -24q0 -19 -15 -36t-41 -28z" />
    <glyph glyph-name="wacute" unicode="&#x1e83;" horiz-adv-x="1085" 
d="M696 -3l-178 978h-77v72h367v-72h-72l84 -579l93 579h-62v72h221v-72h-77l-174 -978h-125zM269 -3l-175 978h-78v72h374v-72h-70l74 -579l96 579h-36v72h197v-72h-79l-179 -978h-124zM452 1083l-49 52l184 140q14 11 29 18t28 7q16 0 28.5 -8t19.5 -21q7 -11 7 -25
q0 -19 -15 -35.5t-41 -27.5z" />
    <glyph glyph-name="Wdieresis" unicode="&#x1e84;" horiz-adv-x="1146" 
d="M320 -1l-207 1329h-102v72h417v-72h-71l100 -840l-29 -65l136 859l22 -161l-42 207h-82v72h397v-72h-83l109 -826l-21 -64l121 890h-80v72h242v-72h-83l-202 -1329h-96l-177 1107l35 64l-209 -1171h-95zM722 1501q-35 0 -59.5 25t-24.5 58q0 36 24.5 62t59.5 26
q33 0 58.5 -26t25.5 -62q0 -33 -25.5 -58t-58.5 -25zM481 1501q-33 0 -57.5 25t-24.5 58q0 36 24.5 62t57.5 26q35 0 60 -26t25 -62q0 -33 -25 -58t-60 -25z" />
    <glyph glyph-name="wdieresis" unicode="&#x1e85;" horiz-adv-x="1085" 
d="M696 -3l-178 978h-77v72h367v-72h-72l84 -579l93 579h-62v72h221v-72h-77l-174 -978h-125zM269 -3l-175 978h-78v72h374v-72h-70l74 -579l96 579h-36v72h197v-72h-79l-179 -978h-124zM676 1130q-35 0 -59.5 25.5t-24.5 58.5q0 35 24.5 61t59.5 26q33 0 58.5 -26t25.5 -61
q0 -33 -25.5 -58.5t-58.5 -25.5zM435 1130q-33 0 -57.5 25.5t-24.5 58.5q0 35 24.5 61t57.5 26q35 0 60 -26t25 -61q0 -33 -25 -58.5t-60 -25.5z" />
    <glyph glyph-name="uni1E8F" unicode="&#x1e8f;" horiz-adv-x="700" 
d="M209 -502q-47 0 -78.5 34t-47.5 91.5t-16 129.5q0 59 23.5 90t61.5 31t60.5 -27t22.5 -75q0 -37 -14 -60t-27.5 -42.5t-13.5 -49.5q0 -25 9.5 -44t28.5 -19q11 0 18.5 9t13.5 28t13 48l75 355l-241 978h-83v72h384v-72h-77l119 -527l106 527h-74v72h229v-72h-74
l-215 -982l-81 -367q-8 -41 -23 -69.5t-38.5 -43.5t-60.5 -15zM358 1135q-35 0 -60 25t-25 58q0 35 25 60.5t60 25.5q32 0 57.5 -25.5t25.5 -60.5q0 -33 -25.5 -58t-57.5 -25z" />
    <glyph glyph-name="uni1E93" unicode="&#x1e93;" horiz-adv-x="638" 
d="M76 0v72l270 903h-94q-48 0 -69.5 -19.5t-26.5 -70.5t-5 -146h-69v308h480v-72l-270 -903h91q52 0 73.5 20.5t26 73.5t4.5 151h72v-317h-483zM321 -266q-35 0 -60 25t-25 58q0 35 25 60.5t60 25.5q32 0 57.5 -25.5t25.5 -60.5q0 -33 -25.5 -58t-57.5 -25z" />
    <glyph glyph-name="uni1E97" unicode="&#x1e97;" horiz-adv-x="529" 
d="M355 -18q-55 0 -105.5 18t-81.5 68t-31 144v763h-137v72h137q37 15 65 60.5t46 107.5t24 127h75v-295h158v-72h-158v-845q0 -41 18.5 -55.5t36.5 -14.5q19 0 34 7.5t22 16.5l41 -58q-24 -19 -59.5 -31.5t-84.5 -12.5zM384 1392q-35 0 -59.5 25.5t-24.5 58.5q0 35 24.5 61
t59.5 26q33 0 58.5 -26t25.5 -61q0 -33 -25.5 -58.5t-58.5 -25.5zM143 1392q-33 0 -57.5 25.5t-24.5 58.5q0 35 24.5 61t57.5 26q35 0 60 -26t25 -61q0 -33 -25 -58.5t-60 -25.5z" />
    <glyph glyph-name="uni1E9E" unicode="&#x1e9e;" horiz-adv-x="938" 
d="M587 -23q-57 0 -100.5 40.5t-43.5 117.5q0 50 21.5 78t53.5 28q31 0 49 -20.5t18 -55.5q0 -28 -8.5 -43t-17 -25t-8.5 -23q0 -12 8 -21t24 -9q37 0 59.5 25.5t34 73.5t11.5 114q0 98 -24.5 172t-60.5 131.5t-72.5 106t-60.5 93.5t-24 95q0 33 25 82.5t66 107t88 115.5
t92.5 109t78.5 89h-292q-62 0 -92 -33.5t-39 -100t-9 -164.5v-1060h-315v69h97v922q0 145 44.5 241t124 144t183.5 48h347l39 -69q-47 -54 -107 -124t-114.5 -140.5t-90 -126.5t-35.5 -85q0 -32 32.5 -68t80.5 -80.5t95.5 -103t80 -134.5t32.5 -175q0 -116 -37.5 -192
t-99.5 -112.5t-134 -36.5z" />
    <glyph glyph-name="uni1EA0" unicode="&#x1ea0;" horiz-adv-x="702" 
d="M2 0v72h80l187 1330h127l213 -1330h95v-72h-400v72h79l-114 865h1l-112 -865h71v-72h-227zM158 280v68h227v-68h-227zM325 -266q-35 0 -60 25t-25 58q0 35 25 60.5t60 25.5q32 0 57.5 -25.5t25.5 -60.5q0 -33 -25.5 -58t-57.5 -25z" />
    <glyph glyph-name="uni1EA1" unicode="&#x1ea1;" horiz-adv-x="772" 
d="M281 -21q-64 0 -116.5 31.5t-83 90.5t-30.5 143q0 95 39 157t97 104.5t115.5 76.5t96.5 71t39 90q0 74 -12 126.5t-38 80t-67 27.5q-49 0 -80 -28t-31 -65q0 -25 9.5 -42t19 -35t9.5 -50q0 -43 -23.5 -68.5t-61.5 -25.5q-40 0 -63.5 34t-23.5 93q0 77 36.5 138t100.5 96
t149 35q84 0 148.5 -35.5t101 -113t36.5 -204.5v-551q0 -48 9 -64.5t27 -16.5q17 0 29.5 9t18.5 16l39 -58q-15 -20 -58 -38.5t-100 -18.5q-56 0 -88.5 16.5t-47.5 40.5t-20 46q-5 -15 -23 -40.5t-55 -46.5t-98 -21zM348 83q29 0 49 24.5t30.5 60t10.5 68.5v371
q-3 -28 -29.5 -53.5t-60 -59.5t-58.5 -88t-25 -138q0 -91 22.5 -138t60.5 -47zM399 -266q-35 0 -60 25t-25 58q0 35 25 60.5t60 25.5q32 0 57.5 -25.5t25.5 -60.5q0 -33 -25.5 -58t-57.5 -25z" />
    <glyph glyph-name="uni1EA2" unicode="&#x1ea2;" horiz-adv-x="702" 
d="M2 0v72h80l187 1330h127l213 -1330h95v-72h-400v72h79l-114 865h1l-112 -865h71v-72h-227zM158 280v68h227v-68h-227zM329 1744q57 0 100 -24t43 -84q0 -44 -27 -72t-53.5 -49t-26.5 -48h-61q0 41 16.5 67t33 48t16.5 49q0 28 -15 38t-42 10q-25 0 -43.5 -7.5
t-32.5 -20.5l-48 47q18 20 57 33t83 13z" />
    <glyph glyph-name="uni1EA3" unicode="&#x1ea3;" horiz-adv-x="772" 
d="M281 -21q-64 0 -116.5 31.5t-83 90.5t-30.5 143q0 95 39 157t97 104.5t115.5 76.5t96.5 71t39 90q0 74 -12 126.5t-38 80t-67 27.5q-49 0 -80 -28t-31 -65q0 -25 9.5 -42t19 -35t9.5 -50q0 -43 -23.5 -68.5t-61.5 -25.5q-40 0 -63.5 34t-23.5 93q0 77 36.5 138t100.5 96
t149 35q84 0 148.5 -35.5t101 -113t36.5 -204.5v-551q0 -48 9 -64.5t27 -16.5q17 0 29.5 9t18.5 16l39 -58q-15 -20 -58 -38.5t-100 -18.5q-56 0 -88.5 16.5t-47.5 40.5t-20 46q-5 -15 -23 -40.5t-55 -46.5t-98 -21zM348 83q29 0 49 24.5t30.5 60t10.5 68.5v371
q-3 -28 -29.5 -53.5t-60 -59.5t-58.5 -88t-25 -138q0 -91 22.5 -138t60.5 -47zM366 1415q57 0 100 -24t43 -84q0 -44 -27 -72t-53.5 -49t-26.5 -48h-61q0 41 16.5 67t33 48t16.5 49q0 28 -15 38t-42 10q-25 0 -43.5 -7.5t-32.5 -20.5l-48 47q18 20 57 33t83 13z" />
    <glyph glyph-name="uni1EA4" unicode="&#x1ea4;" horiz-adv-x="702" 
d="M2 0v72h80l187 1330h127l213 -1330h95v-72h-400v72h79l-114 865h1l-112 -865h71v-72h-227zM158 280v68h227v-68h-227zM153 1469l148 164h70l146 -164h-83l-99 93l-98 -93h-84zM469 1604l-42 45l156 118q27 22 49 22q14 0 24.5 -7.5t16.5 -17.5q6 -11 6 -22
q0 -16 -13 -29.5t-34 -23.5z" />
    <glyph glyph-name="uni1EA5" unicode="&#x1ea5;" horiz-adv-x="772" 
d="M281 -21q-64 0 -116.5 31.5t-83 90.5t-30.5 143q0 95 39 157t97 104.5t115.5 76.5t96.5 71t39 90q0 74 -12 126.5t-38 80t-67 27.5q-49 0 -80 -28t-31 -65q0 -25 9.5 -42t19 -35t9.5 -50q0 -43 -23.5 -68.5t-61.5 -25.5q-40 0 -63.5 34t-23.5 93q0 77 36.5 138t100.5 96
t149 35q84 0 148.5 -35.5t101 -113t36.5 -204.5v-551q0 -48 9 -64.5t27 -16.5q17 0 29.5 9t18.5 16l39 -58q-15 -20 -58 -38.5t-100 -18.5q-56 0 -88.5 16.5t-47.5 40.5t-20 46q-5 -15 -23 -40.5t-55 -46.5t-98 -21zM348 83q29 0 49 24.5t30.5 60t10.5 68.5v371
q-3 -28 -29.5 -53.5t-60 -59.5t-58.5 -88t-25 -138q0 -91 22.5 -138t60.5 -47zM190 1116l148 204h70l146 -204h-83l-99 133l-98 -133h-84zM506 1291l-42 45l156 118q27 22 49 22q14 0 24.5 -7.5t16.5 -17.5q6 -11 6 -22q0 -16 -13 -29.5t-34 -23.5z" />
    <glyph glyph-name="uni1EA6" unicode="&#x1ea6;" horiz-adv-x="702" 
d="M2 0v72h80l187 1330h127l213 -1330h95v-72h-400v72h79l-114 865h1l-112 -865h71v-72h-227zM158 280v68h227v-68h-227zM153 1469l148 164h70l146 -164h-83l-99 93l-98 -93h-84zM529 1609l-176 83q-24 12 -36.5 23.5t-12.5 34.5q0 20 14.5 32t35.5 12q17 0 29.5 -6.5
t25.5 -16.5l151 -125z" />
    <glyph glyph-name="uni1EA7" unicode="&#x1ea7;" horiz-adv-x="772" 
d="M281 -21q-64 0 -116.5 31.5t-83 90.5t-30.5 143q0 95 39 157t97 104.5t115.5 76.5t96.5 71t39 90q0 74 -12 126.5t-38 80t-67 27.5q-49 0 -80 -28t-31 -65q0 -25 9.5 -42t19 -35t9.5 -50q0 -43 -23.5 -68.5t-61.5 -25.5q-40 0 -63.5 34t-23.5 93q0 77 36.5 138t100.5 96
t149 35q84 0 148.5 -35.5t101 -113t36.5 -204.5v-551q0 -48 9 -64.5t27 -16.5q17 0 29.5 9t18.5 16l39 -58q-15 -20 -58 -38.5t-100 -18.5q-56 0 -88.5 16.5t-47.5 40.5t-20 46q-5 -15 -23 -40.5t-55 -46.5t-98 -21zM348 83q29 0 49 24.5t30.5 60t10.5 68.5v371
q-3 -28 -29.5 -53.5t-60 -59.5t-58.5 -88t-25 -138q0 -91 22.5 -138t60.5 -47zM190 1116l148 204h70l146 -204h-83l-99 133l-98 -133h-84zM566 1296l-176 83q-24 12 -36.5 23.5t-12.5 34.5q0 20 14.5 32t35.5 12q17 0 29.5 -6.5t25.5 -16.5l151 -125z" />
    <glyph glyph-name="uni1EA8" unicode="&#x1ea8;" horiz-adv-x="702" 
d="M2 0v72h80l187 1330h127l213 -1330h95v-72h-400v72h79l-114 865h1l-112 -865h71v-72h-227zM158 280v68h227v-68h-227zM151 1470l148 164h70l146 -164h-83l-99 93l-98 -93h-84zM479 1811q45 0 79.5 -19t34.5 -68q0 -35 -21.5 -57t-43 -39t-21.5 -39h-48q0 34 13.5 54.5
t26.5 38t13 38.5q0 22 -12 30.5t-33 8.5q-20 0 -34.5 -6t-25.5 -17l-39 37q15 16 46 27t65 11z" />
    <glyph glyph-name="uni1EA9" unicode="&#x1ea9;" horiz-adv-x="772" 
d="M281 -21q-64 0 -116.5 31.5t-83 90.5t-30.5 143q0 95 39 157t97 104.5t115.5 76.5t96.5 71t39 90q0 74 -12 126.5t-38 80t-67 27.5q-49 0 -80 -28t-31 -65q0 -25 9.5 -42t19 -35t9.5 -50q0 -43 -23.5 -68.5t-61.5 -25.5q-40 0 -63.5 34t-23.5 93q0 77 36.5 138t100.5 96
t149 35q84 0 148.5 -35.5t101 -113t36.5 -204.5v-551q0 -48 9 -64.5t27 -16.5q17 0 29.5 9t18.5 16l39 -58q-15 -20 -58 -38.5t-100 -18.5q-56 0 -88.5 16.5t-47.5 40.5t-20 46q-5 -15 -23 -40.5t-55 -46.5t-98 -21zM348 83q29 0 49 24.5t30.5 60t10.5 68.5v371
q-3 -28 -29.5 -53.5t-60 -59.5t-58.5 -88t-25 -138q0 -91 22.5 -138t60.5 -47zM188 1117l148 204h70l146 -204h-83l-99 133l-98 -133h-84zM516 1498q45 0 79.5 -19t34.5 -68q0 -35 -21.5 -57t-43 -39t-21.5 -39h-48q0 34 13.5 54.5t26.5 38t13 38.5q0 22 -12 30.5t-33 8.5
q-20 0 -34.5 -6t-25.5 -17l-39 37q15 16 46 27t65 11z" />
    <glyph glyph-name="uni1EAA" unicode="&#x1eaa;" horiz-adv-x="702" 
d="M2 0v72h80l187 1330h127l213 -1330h95v-72h-400v72h79l-114 865h1l-112 -865h71v-72h-227zM158 280v68h227v-68h-227zM156 1470l147 164h70l146 -164h-83l-99 93l-98 -93h-83zM424 1669q-40 0 -67 14.5t-48.5 29t-45.5 14.5q-32 0 -50 -16t-23 -26l-70 28q6 18 24.5 43
t46.5 43.5t61 18.5q44 0 69.5 -14.5t47 -29t50.5 -14.5q34 0 48.5 14.5t19.5 25.5l68 -30q-3 -14 -21 -38t-46 -43.5t-64 -19.5z" />
    <glyph glyph-name="uni1EAB" unicode="&#x1eab;" horiz-adv-x="772" 
d="M281 -21q-64 0 -116.5 31.5t-83 90.5t-30.5 143q0 95 39 157t97 104.5t115.5 76.5t96.5 71t39 90q0 74 -12 126.5t-38 80t-67 27.5q-49 0 -80 -28t-31 -65q0 -25 9.5 -42t19 -35t9.5 -50q0 -43 -23.5 -68.5t-61.5 -25.5q-40 0 -63.5 34t-23.5 93q0 77 36.5 138t100.5 96
t149 35q84 0 148.5 -35.5t101 -113t36.5 -204.5v-551q0 -48 9 -64.5t27 -16.5q17 0 29.5 9t18.5 16l39 -58q-15 -20 -58 -38.5t-100 -18.5q-56 0 -88.5 16.5t-47.5 40.5t-20 46q-5 -15 -23 -40.5t-55 -46.5t-98 -21zM348 83q29 0 49 24.5t30.5 60t10.5 68.5v371
q-3 -28 -29.5 -53.5t-60 -59.5t-58.5 -88t-25 -138q0 -91 22.5 -138t60.5 -47zM192 1117l148 204h70l146 -204h-83l-99 133l-98 -133h-84zM460 1356q-39 0 -66 14.5t-48.5 29t-45.5 14.5q-33 0 -51 -16t-23 -26l-69 28q6 18 24.5 42.5t46.5 43.5t61 19q43 0 69 -14.5
t47.5 -29t50.5 -14.5q34 0 48.5 14.5t19.5 25.5l68 -30q-3 -14 -21 -38t-46 -43.5t-65 -19.5z" />
    <glyph glyph-name="uni1EAC" unicode="&#x1eac;" horiz-adv-x="702" 
d="M2 0v72h80l187 1330h127l213 -1330h95v-72h-400v72h79l-114 865h1l-112 -865h71v-72h-227zM158 280v68h227v-68h-227zM325 -266q-35 0 -60 25t-25 58q0 35 25 60.5t60 25.5q32 0 57.5 -25.5t25.5 -60.5q0 -33 -25.5 -58t-57.5 -25zM153 1464l147 204h70l146 -204h-83
l-99 133l-98 -133h-83z" />
    <glyph glyph-name="uni1EAD" unicode="&#x1ead;" horiz-adv-x="772" 
d="M281 -21q-64 0 -116.5 31.5t-83 90.5t-30.5 143q0 95 39 157t97 104.5t115.5 76.5t96.5 71t39 90q0 74 -12 126.5t-38 80t-67 27.5q-49 0 -80 -28t-31 -65q0 -25 9.5 -42t19 -35t9.5 -50q0 -43 -23.5 -68.5t-61.5 -25.5q-40 0 -63.5 34t-23.5 93q0 77 36.5 138t100.5 96
t149 35q84 0 148.5 -35.5t101 -113t36.5 -204.5v-551q0 -48 9 -64.5t27 -16.5q17 0 29.5 9t18.5 16l39 -58q-15 -20 -58 -38.5t-100 -18.5q-56 0 -88.5 16.5t-47.5 40.5t-20 46q-5 -15 -23 -40.5t-55 -46.5t-98 -21zM348 83q29 0 49 24.5t30.5 60t10.5 68.5v371
q-3 -28 -29.5 -53.5t-60 -59.5t-58.5 -88t-25 -138q0 -91 22.5 -138t60.5 -47zM399 -266q-35 0 -60 25t-25 58q0 35 25 60.5t60 25.5q32 0 57.5 -25.5t25.5 -60.5q0 -33 -25.5 -58t-57.5 -25zM191 1126l147 204h70l146 -204h-83l-99 133l-98 -133h-83z" />
    <glyph glyph-name="uni1EAE" unicode="&#x1eae;" horiz-adv-x="702" 
d="M2 0v72h80l187 1330h127l213 -1330h95v-72h-400v72h79l-114 865h1l-112 -865h71v-72h-227zM158 280v68h227v-68h-227zM333 1497q-62 0 -100.5 28t-56 73t-17.5 93h71q4 -62 32 -92t71 -30q45 0 73 30t32 92h71q0 -48 -17.5 -93t-56 -73t-102.5 -28zM231 1730l-49 53
l183 139q15 11 30 18t28 7q16 0 28.5 -8t19.5 -21q7 -11 7 -24q0 -19 -15 -36t-41 -28z" />
    <glyph glyph-name="uni1EAF" unicode="&#x1eaf;" horiz-adv-x="772" 
d="M281 -21q-64 0 -116.5 31.5t-83 90.5t-30.5 143q0 95 39 157t97 104.5t115.5 76.5t96.5 71t39 90q0 74 -12 126.5t-38 80t-67 27.5q-49 0 -80 -28t-31 -65q0 -25 9.5 -42t19 -35t9.5 -50q0 -43 -23.5 -68.5t-61.5 -25.5q-40 0 -63.5 34t-23.5 93q0 77 36.5 138t100.5 96
t149 35q84 0 148.5 -35.5t101 -113t36.5 -204.5v-551q0 -48 9 -64.5t27 -16.5q17 0 29.5 9t18.5 16l39 -58q-15 -20 -58 -38.5t-100 -18.5q-56 0 -88.5 16.5t-47.5 40.5t-20 46q-5 -15 -23 -40.5t-55 -46.5t-98 -21zM348 83q29 0 49 24.5t30.5 60t10.5 68.5v371
q-3 -28 -29.5 -53.5t-60 -59.5t-58.5 -88t-25 -138q0 -91 22.5 -138t60.5 -47zM370 1111q-62 0 -100.5 28.5t-56 73t-17.5 93.5h71q4 -63 32 -92.5t71 -29.5q45 0 73 29.5t32 92.5h71q0 -49 -17.5 -93.5t-56 -73t-102.5 -28.5zM276 1335l-49 52l184 140q14 11 29 18t28 7
q16 0 28.5 -8t19.5 -21q7 -11 7 -25q0 -19 -15 -35.5t-41 -27.5z" />
    <glyph glyph-name="uni1EB0" unicode="&#x1eb0;" horiz-adv-x="702" 
d="M2 0v72h80l187 1330h127l213 -1330h95v-72h-400v72h79l-114 865h1l-112 -865h71v-72h-227zM158 280v68h227v-68h-227zM333 1497q-62 0 -100.5 28t-56 73t-17.5 93h71q4 -62 32 -92t71 -30q45 0 73 30t32 92h71q0 -48 -17.5 -93t-56 -73t-102.5 -28zM441 1736l-204 98
q-28 13 -42.5 27t-14.5 39q0 23 16.5 37t41.5 14q20 0 34 -7.5t29 -19.5l176 -145z" />
    <glyph glyph-name="uni1EB1" unicode="&#x1eb1;" horiz-adv-x="772" 
d="M281 -21q-64 0 -116.5 31.5t-83 90.5t-30.5 143q0 95 39 157t97 104.5t115.5 76.5t96.5 71t39 90q0 74 -12 126.5t-38 80t-67 27.5q-49 0 -80 -28t-31 -65q0 -25 9.5 -42t19 -35t9.5 -50q0 -43 -23.5 -68.5t-61.5 -25.5q-40 0 -63.5 34t-23.5 93q0 77 36.5 138t100.5 96
t149 35q84 0 148.5 -35.5t101 -113t36.5 -204.5v-551q0 -48 9 -64.5t27 -16.5q17 0 29.5 9t18.5 16l39 -58q-15 -20 -58 -38.5t-100 -18.5q-56 0 -88.5 16.5t-47.5 40.5t-20 46q-5 -15 -23 -40.5t-55 -46.5t-98 -21zM348 83q29 0 49 24.5t30.5 60t10.5 68.5v371
q-3 -28 -29.5 -53.5t-60 -59.5t-58.5 -88t-25 -138q0 -91 22.5 -138t60.5 -47zM370 1131q-62 0 -100.5 28.5t-56 73t-17.5 92.5h71q4 -62 32 -91.5t71 -29.5q45 0 73 29.5t32 91.5h71q0 -48 -17.5 -92.5t-56 -73t-102.5 -28.5zM484 1353l-204 98q-28 13 -42.5 27t-14.5 40
q0 23 16.5 36.5t41.5 13.5q21 0 34.5 -7.5t28.5 -19.5l177 -144z" />
    <glyph glyph-name="uni1EB2" unicode="&#x1eb2;" horiz-adv-x="702" 
d="M2 0v72h80l187 1330h127l213 -1330h95v-72h-400v72h79l-114 865h1l-112 -865h71v-72h-227zM158 280v68h227v-68h-227zM333 1497q-62 0 -100.5 28t-56 73t-17.5 93h71q4 -62 32 -92t71 -30q45 0 73 30t32 92h71q0 -48 -17.5 -93t-56 -73t-102.5 -28zM329 2032
q57 0 100 -24t43 -84q0 -44 -27 -72t-53.5 -49t-26.5 -48h-61q0 41 16.5 67t33 48t16.5 49q0 28 -15 38t-42 10q-25 0 -43.5 -7.5t-32.5 -20.5l-48 47q18 20 57 33t83 13z" />
    </font>
</defs>
</svg>
