<?xml version="1.0" standalone="no"?>
<!DOCTYPE svg PUBLIC "-//W3C//DTD SVG 1.1//EN" "http://www.w3.org/Graphics/SVG/1.1/DTD/svg11.dtd" >
<svg xmlns="http://www.w3.org/2000/svg" xmlns:xlink="http://www.w3.org/1999/xlink" version="1.1">
<metadata>
Created by FontForge 20170731 at Tue Dec  1 16:59:51 2020
 By Aleksey,,,
Copyright 2020 The Imbue Project Authors (https://github.com/Etcetera-Type-Co/Imbue)
</metadata>
<defs>
<font id="Imbue10pt-ExtraLight" horiz-adv-x="0" >
  <font-face 
    font-family="Imbue 10pt ExtraLight"
    font-weight="250"
    font-stretch="normal"
    units-per-em="2000"
    panose-1="0 0 0 0 0 0 0 0 0 0"
    ascent="1600"
    descent="-400"
    x-height="1046"
    cap-height="1400"
    bbox="-362 -502 1440 2018"
    underline-thickness="50"
    underline-position="-175"
    unicode-range="U+000D-FB02"
  />
<missing-glyph horiz-adv-x="578" 
d="M129 133v947h317v-947h-317zM153 156h269v900h-269v-900zM290 889l-68 -69l-18 18l68 69l-68 69l18 19l68 -69l68 69l19 -19l-68 -69l68 -69l-19 -18zM290 582l-68 -69l-18 18l68 69l-68 69l18 18l68 -69l68 69l19 -18l-69 -69l69 -69l-19 -18zM290 274l-68 -69l-18 19
l68 69l-68 69l18 18l68 -69l68 69l19 -18l-68 -69l68 -69l-19 -19z" />
    <glyph glyph-name="f_f" unicode="ff" horiz-adv-x="768" 
d="M43 0v63h108v922h-116v62h116v72q0 155 30 240.5t78 118.5t102 33q47 0 81.5 -29.5t54 -67.5t19.5 -63l-40 -86q0 46 -13.5 87t-38 67.5t-59.5 26.5q-37 0 -61.5 -25.5t-38.5 -73t-19.5 -115t-5.5 -150.5v-18.5v-16.5h142v-62h-142v-922h125v-63h-322zM363 0v63h107v922
h-120v62h120v155q0 107 21.5 175.5t62 101t96.5 32.5q71 0 107.5 -67t36.5 -170q0 -36 -11.5 -55.5t-36.5 -19.5t-36 17.5t-11 44.5q0 20 5.5 33t10 26.5t4.5 33.5q0 35 -17.5 64.5t-48.5 29.5q-24 0 -41.5 -15.5t-29 -46.5t-17 -76t-5.5 -104v-159h122v-62h-122v-922h108
v-63h-305z" />
    <glyph glyph-name="f_f_i" unicode="ffi" horiz-adv-x="1037" 
d="M43 0v63h108v922h-116v62h116v72q0 155 30 240.5t78 118.5t102 33q47 0 84.5 -30.5t59.5 -72.5t22 -76l-33 -106q-1 63 -18.5 113t-46.5 78.5t-64 28.5q-37 0 -61.5 -25.5t-38.5 -73t-19.5 -115t-5.5 -150.5v-18.5v-16.5h142v-62h-142v-922h124v-63h-321zM703 0v63h108
v922h-108v62h198v-984h109v-63h-307zM375 0v63h108v922h-120v62h120v102q0 146 34 224.5t88 108t113 29.5q58 0 104 -26t72 -77.5t26 -130.5q0 -26 -7 -43t-19 -25t-28 -8q-24 0 -38 17t-14 46q0 19 5 29.5t9.5 22.5t4.5 33q0 39 -17 59.5t-42.5 29t-53.5 8.5
q-42 0 -75.5 -20t-52.5 -87t-19 -206v-86h198v-62h-198v-922h110v-63h-308z" />
    <glyph glyph-name="f_f_l" unicode="ffl" horiz-adv-x="1063" 
d="M43 0v63h110v922h-118v62h118v72q0 155 29.5 240.5t77 118.5t101.5 33q47 0 84.5 -30.5t60 -72.5t22.5 -76l-34 -106q0 63 -18 113t-47 78.5t-63 28.5q-38 0 -62.5 -25.5t-38.5 -73t-19.5 -115t-5.5 -150.5v-18.5v-16.5h142v-62h-142v-922h124v-63h-321zM744 0v63h92
v1375h-92v62h180v-1437h94v-63h-274zM379 0v63h106v922h-118v62h118v62q0 126 22 203.5t59 118t83.5 55t94.5 14.5v-62q-52 0 -85 -22.5t-52 -65.5t-26.5 -106t-7.5 -144v-30v-23h143v-62h-143v-922h110v-63h-304z" />
    <glyph glyph-name="f_i" unicode="fi" horiz-adv-x="710" 
d="M48 0v63h108v922h-121v62h121v102q0 146 34 224.5t87.5 108t112.5 29.5t104.5 -26t72 -77.5t26.5 -130.5q0 -26 -7 -43t-19 -25t-29 -8q-23 0 -37.5 17t-14.5 46q0 19 5 29.5t9.5 22.5t4.5 33q0 39 -16.5 59.5t-42 29t-53.5 8.5q-43 0 -76 -20t-52 -87t-19 -206v-86h198
v-62h-198v-922h109v-63h-307zM375 0v63h108v922h-108v62h198v-984h110v-63h-308z" />
    <glyph glyph-name="f_l" unicode="fl" horiz-adv-x="732" 
d="M48 0v63h105v922h-118v62h118v62q0 126 22.5 203.5t59.5 118t83.5 55t94.5 14.5v-62q-52 0 -85 -22.5t-52 -65.5t-26.5 -106t-7.5 -144v-30v-23h142v-62h-142v-922h109v-63h-303zM413 0v63h92v1375h-92v62h180v-1437h93v-63h-273z" />
    <glyph glyph-name=".notdef" horiz-adv-x="578" 
d="M129 133v947h317v-947h-317zM153 156h269v900h-269v-900zM290 889l-68 -69l-18 18l68 69l-68 69l18 19l68 -69l68 69l19 -19l-68 -69l68 -69l-19 -18zM290 582l-68 -69l-18 18l68 69l-68 69l18 18l68 -69l68 69l19 -18l-69 -69l69 -69l-19 -18zM290 274l-68 -69l-18 19
l68 69l-68 69l18 18l68 -69l68 69l19 -18l-68 -69l68 -69l-19 -19z" />
    <glyph glyph-name=".null" 
 />
    <glyph glyph-name="nonmarkingreturn" horiz-adv-x="666" 
 />
    <glyph glyph-name="CR" unicode="&#xd;" horiz-adv-x="274" 
 />
    <glyph glyph-name="space" unicode=" " horiz-adv-x="274" 
 />
    <glyph glyph-name="exclam" unicode="!" horiz-adv-x="263" 
d="M102 273q0 162 -4.5 305.5t-10.5 267.5t-10.5 228.5t-4.5 187.5q0 60 10.5 107t41.5 47q29 0 40.5 -47t11.5 -107q0 -83 -4.5 -187.5t-10.5 -228.5t-10 -267.5t-4 -305.5h-45zM122 -15q-34 0 -59 25.5t-25 59.5q0 36 25 60t59 24t58.5 -24t24.5 -60q0 -34 -24.5 -59.5
t-58.5 -25.5z" />
    <glyph glyph-name="quotedbl" unicode="&#x22;" horiz-adv-x="464" 
d="M113 1184q-3 35 -9 82t-11 92t-5 74q0 52 14 72t35 20q22 0 35.5 -20t13.5 -72q0 -29 -5.5 -74t-11.5 -92t-10 -82h-46zM303 1184q-3 35 -9 82t-11 92t-5 74q0 52 14 72t35 20q22 0 35.5 -20t13.5 -72q0 -29 -5.5 -74t-11.5 -92t-10 -82h-46z" />
    <glyph glyph-name="numbersign" unicode="#" horiz-adv-x="1030" 
d="M170 0l78 447h-189v63h201l73 430h-225v62h238l67 398h83l-68 -398h251l71 398h82l-71 -398h210v-62h-221l-76 -430h246v-63h-255l-80 -447h-82l82 447h-253l-80 -447h-82zM341 510h250l75 430h-249z" />
    <glyph glyph-name="dollar" unicode="$" horiz-adv-x="500" 
d="M224 -24v1442h46v-1442h-46zM255 63q-45 0 -71.5 18t-42.5 36t-29 18q-16 0 -16 -48h-44v248h53q2 -36 13 -74t31 -69.5t47 -51t62 -19.5q46 0 69 27t31 73t8 106q0 65 -22 130t-58 127.5t-77 120.5q-62 89 -95 159.5t-45.5 129.5t-12.5 111q0 75 23 130t63 85t90 30
q42 0 64 -15.5t33.5 -31.5t21.5 -16q8 0 13.5 10.5t5.5 32.5h44v-246h-53q-1 38 -9.5 75t-24.5 67.5t-38.5 48.5t-53.5 18q-51 0 -80.5 -41t-29.5 -116q0 -50 9 -98t37 -105.5t83 -140.5q71 -103 127 -216.5t56 -233.5q0 -66 -10.5 -118t-33.5 -87.5t-57 -54.5t-81 -19z" />
    <glyph glyph-name="percent" unicode="%" horiz-adv-x="1018" 
d="M269 780q-53 0 -94 39t-65 109.5t-24 166.5q0 139 48 224t135 85q84 0 132 -79t48 -230q0 -148 -49 -231.5t-131 -83.5zM754 -11q-53 0 -94.5 39.5t-65.5 110.5t-24 165q0 140 48.5 225.5t135.5 85.5q83 0 130.5 -79.5t47.5 -231.5q0 -146 -48 -230.5t-130 -84.5zM754 52
q48 0 70.5 42t28.5 100.5t6 107.5q0 51 -6 110t-28.5 102.5t-70.5 43.5q-49 0 -72.5 -43.5t-30 -103.5t-6.5 -111q0 -50 6 -108t29.5 -99t73.5 -41zM269 841q50 0 72 42.5t28.5 101.5t6.5 108q0 50 -6.5 110t-28.5 103t-72 43q-49 0 -72 -44t-29.5 -104t-6.5 -110
t6.5 -108.5t29.5 -100t72 -41.5zM40 0l878 1400h59l-876 -1400h-61z" />
    <glyph glyph-name="ampersand" unicode="&#x26;" horiz-adv-x="831" 
d="M661 -13q-45 0 -75 26t-55 87l-280 693q-6 12 -21.5 56.5t-32.5 105.5t-29.5 126t-12.5 118q0 64 15.5 106.5t41 67t56 35t59.5 10.5q27 0 55 -10t52.5 -34t39.5 -65.5t15 -102.5q0 -75 -17.5 -138t-43.5 -112t-52.5 -83.5t-43.5 -52.5l-29 58q48 55 78 140t30 188
q0 78 -20 119.5t-66 41.5q-45 0 -65.5 -39t-20.5 -116q0 -47 11 -105t26.5 -113t29.5 -95t18 -52l284 -698q23 -56 38.5 -73t36.5 -17q18 0 35.5 14t27.5 40l41 -39q-16 -39 -51.5 -63t-74.5 -24zM268 -18q-77 0 -130.5 47t-80.5 127.5t-27 182.5q0 115 33.5 211t87 171
t111.5 125l31 -56q-39 -37 -79 -99t-67 -140t-27 -165q0 -94 16.5 -170t54.5 -121t100 -45q45 0 80 36.5t60.5 93t40.5 116.5l39 -64q-14 -53 -40.5 -111t-75 -98.5t-127.5 -40.5zM724 296q-22 0 -31.5 15t-9.5 36q0 15 3.5 27t7.5 24t4 26q0 26 -6.5 36t-27.5 10
q-22 0 -46.5 -28t-44 -68.5t-29.5 -76.5l-48 47q11 35 34 79t56.5 77t75.5 33q61 0 84 -48.5t23 -108.5q0 -36 -12 -58t-33 -22z" />
    <glyph glyph-name="quotesingle" unicode="'" horiz-adv-x="310" 
d="M131 1184q-3 35 -9 82t-11 92t-5 74q0 52 14 72t35 20q22 0 35.5 -20t13.5 -72q0 -29 -5.5 -74t-11.5 -92t-10 -82h-46z" />
    <glyph glyph-name="parenleft" unicode="(" horiz-adv-x="411" 
d="M328 -429q-12 15 -52.5 87.5t-88.5 196.5t-83 293.5t-35 377.5q0 235 35.5 413t84.5 299.5t90 188t53 78.5l50 -56q-15 -16 -53 -80t-81.5 -177t-75 -279t-31.5 -387q0 -196 31.5 -354t75 -274t81.5 -184t51 -85z" />
    <glyph glyph-name="parenright" unicode=")" horiz-adv-x="411" 
d="M83 -429l-51 58q12 17 50 85t81.5 184t75 274t31.5 354q0 221 -31.5 387t-74.5 279t-81.5 177t-52.5 80l49 56q12 -12 53.5 -78.5t90 -188t84 -299.5t35.5 -413q0 -208 -35 -377.5t-83 -293.5t-88.5 -196.5t-52.5 -87.5z" />
    <glyph glyph-name="asterisk" unicode="*" horiz-adv-x="797" 
d="M381 882q-17 0 -28.5 12.5t-11.5 36.5q0 17 2.5 38t5.5 55.5t3 90.5q-31 -20 -60 -40t-52.5 -36t-38.5 -25q-9 -5 -17 -6.5t-14 -1.5q-14 0 -24 10t-10 23q0 11 6.5 22t20.5 19q15 9 36 16t53 20.5t80 41.5q-49 29 -80 43.5t-51.5 23t-36.5 18.5q-28 17 -28 39
q0 17 11.5 26t23.5 9q13 0 33 -11q23 -11 50 -35.5t98 -66.5q0 86 -5.5 123t-5.5 64q0 23 11.5 35t28.5 12q16 0 28 -12t12 -35q0 -18 -4.5 -40t-8.5 -56.5t-4 -90.5q75 42 104.5 66t52.5 36q20 11 33 11q17 0 26 -12.5t9 -24.5q0 -22 -30 -40q-15 -8 -36.5 -16t-54 -22.5
t-83.5 -43.5q49 -27 82.5 -41t56.5 -21.5t38 -15.5t21 -18t6 -21q0 -13 -10.5 -24.5t-26.5 -11.5q-8 0 -16.5 1.5t-16.5 7.5q-14 11 -36.5 26.5t-52.5 35.5t-64 39q0 -56 3.5 -90.5t6.5 -55t3 -38.5q0 -24 -11 -36.5t-27 -12.5z" />
    <glyph glyph-name="plus" unicode="+" horiz-adv-x="820" 
d="M380 251v624h63v-624h-63zM99 532v62h622v-62h-622z" />
    <glyph glyph-name="comma" unicode="," horiz-adv-x="277" 
d="M106 -202l-37 48q21 11 42 37t34.5 54t13.5 45q0 8 -7 8q-3 0 -8.5 -3.5t-19.5 -3.5q-22 0 -40 11.5t-28.5 31t-10.5 42.5q0 35 24 60t70 25q45 0 72 -28t27 -69q0 -60 -20 -112t-50.5 -89.5t-61.5 -56.5z" />
    <glyph glyph-name="hyphen" unicode="-" horiz-adv-x="600" 
d="M99 532v62h402v-62h-402z" />
    <glyph glyph-name="period" unicode="." horiz-adv-x="277" 
d="M133 -15q-34 0 -58.5 25.5t-24.5 59.5q0 36 24.5 60t58.5 24t59 -24t25 -60q0 -34 -25 -59.5t-59 -25.5z" />
    <glyph glyph-name="slash" unicode="/" horiz-adv-x="618" 
d="M30 -104l505 1608h64l-502 -1608h-67z" />
    <glyph glyph-name="zero" unicode="0" horiz-adv-x="728" 
d="M364 -22q-71 0 -131 76.5t-95.5 236t-35.5 407.5q0 249 35.5 409t95.5 237.5t131 77.5t130.5 -77.5t95.5 -237.5t36 -409q0 -248 -36 -407.5t-95.5 -236t-130.5 -76.5zM364 42q34 0 65 45.5t55.5 131.5t38 207t13.5 272q0 152 -13.5 273.5t-38 208.5t-55.5 133.5
t-65 46.5q-35 0 -66 -46t-55.5 -133t-38 -208.5t-13.5 -274.5q0 -152 14 -273t38 -207t55 -131t66 -45z" />
    <glyph glyph-name="one" unicode="1" horiz-adv-x="483" 
d="M84 0v63h110v1175q-4 -16 -25 -33t-46 -29.5t-43 -16.5v75q23 8 45 22.5t41.5 39t34.5 60.5t22 86h61v-1379h114v-63h-314z" />
    <glyph glyph-name="two" unicode="2" horiz-adv-x="638" 
d="M411 -11q-34 0 -58.5 10t-47 23t-45.5 23t-52 10q-39 0 -59.5 -18.5t-23.5 -36.5h-64q0 157 28.5 275.5t74 210t97 167t97 144t74.5 142t29 162.5q0 102 -23 157.5t-62.5 77.5t-87.5 22q-38 0 -67 -19t-45.5 -46.5t-16.5 -52.5q0 -21 3 -32.5t6 -22.5t3 -32
q0 -35 -13 -49t-33 -14q-19 0 -33 17t-14 63q0 66 25.5 123t77.5 93t130 36q42 0 85 -14t79 -48.5t58 -95.5t22 -156q0 -91 -20.5 -161t-54.5 -127.5t-75.5 -110.5t-84 -110.5t-81 -126.5t-66 -158t-38.5 -207q6 7 19 14.5t33.5 13.5t46.5 6q30 0 62 -14.5t62.5 -29
t54.5 -14.5q35 0 55.5 29t20.5 107h62v-29q0 -61 -16 -106t-47 -70t-77 -25z" />
    <glyph glyph-name="three" unicode="3" horiz-adv-x="644" 
d="M300 -24q-76 0 -125 36t-72.5 94.5t-23.5 123.5q0 45 15.5 62.5t35.5 17.5q19 0 30.5 -14.5t11.5 -49.5q0 -21 -4 -33.5t-7.5 -26t-3.5 -37.5q0 -38 36 -73.5t95 -35.5q49 0 90 26.5t65.5 95.5t24.5 195q0 119 -27 188t-64.5 102t-70.5 42.5t-46 9.5v66q13 0 47 9.5
t72.5 42.5t66 103.5t27.5 191.5q0 118 -47 182.5t-130 64.5q-59 0 -98 -33t-39 -69q0 -28 3.5 -43.5t6.5 -27.5t3 -33q0 -36 -11.5 -50t-30.5 -14q-20 0 -35.5 17.5t-15.5 63.5q0 66 25.5 123t77.5 93t129 36t133.5 -38.5t88 -108.5t31.5 -164q0 -86 -20.5 -155t-54 -118.5
t-72 -76.5t-74.5 -28q36 -2 75 -27.5t72.5 -74.5t54.5 -117.5t21 -154.5q0 -101 -29 -188t-88 -141t-149 -54z" />
    <glyph glyph-name="four" unicode="4" horiz-adv-x="580" 
d="M193 0v63h111v305h-263v63l225 825q19 39 35 84.5t31 87.5h62v-997h24q25 0 34.5 30t9.5 94h58v-187h-126v-305h112v-63h-313zM106 426l-4 5h204v757l-33 -150z" />
    <glyph glyph-name="five" unicode="5" horiz-adv-x="721" 
d="M312 -24q-76 0 -123 36t-68.5 94.5t-21.5 123.5q0 45 15 62.5t34 17.5t31.5 -15t12.5 -51q0 -20 -4.5 -32.5t-9 -24t-4.5 -32.5q0 -24 10.5 -51.5t37.5 -46.5t76 -19q70 0 110.5 43.5t58 132t17.5 220.5q0 116 -13 190t-35 115t-51 57.5t-61 16.5q-48 0 -77.5 -19.5
t-47 -52.5t-31.5 -74l-63 11l54 722h62q7 -20 34.5 -40t67 -33.5t82.5 -13.5q62 0 93.5 24.5t31.5 62.5h52q0 -57 -23.5 -94.5t-63.5 -55.5t-90 -18q-42 0 -75 10t-57 25t-38 28t-18 18l-37 -523q7 20 26.5 41.5t53.5 36t82 14.5q46 0 89 -23.5t78 -75.5t55 -137.5
t20 -209.5q0 -137 -25 -226.5t-65.5 -140.5t-88.5 -72t-93 -21z" />
    <glyph glyph-name="six" unicode="6" horiz-adv-x="692" 
d="M347 -24q-78 0 -128 57t-77.5 155.5t-38.5 223t-11 261.5q0 131 13 263t44.5 242t86 177t135.5 67q54 0 95 -36t64.5 -93t23.5 -123q0 -47 -14.5 -64t-33.5 -17q-20 0 -34 18t-14 53q0 25 3 38.5t5 26t2 35.5q0 25 -12.5 47.5t-35.5 36.5t-56 14q-45 0 -76 -37.5
t-51 -102t-30.5 -144t-15 -164.5t-4.5 -163q5 22 28.5 54.5t65 57.5t96.5 25q52 0 93.5 -28t71.5 -83.5t46 -137.5t16 -189q0 -102 -16.5 -188.5t-49 -149.5t-80 -97.5t-111.5 -34.5zM347 38q46 0 81.5 37.5t55.5 127t20 243.5q0 132 -13 212t-45.5 116t-89.5 36
q-45 0 -80.5 -32.5t-57.5 -85t-29 -112.5q0 -116 8.5 -214.5t26.5 -172.5t48 -114.5t75 -40.5z" />
    <glyph glyph-name="seven" unicode="7" horiz-adv-x="640" 
d="M283 -20q-21 0 -32.5 15.5t-17 49.5t-5.5 89q0 152 29 292.5t71.5 269t85 244t71.5 217.5t29 189q-4 -8 -19.5 -16t-41 -12.5t-60.5 -4.5q-39 0 -65 7t-46.5 13.5t-42.5 6.5t-43.5 -7.5t-36.5 -35t-17 -88.5h-59v191h498q0 -29 -3 -62t-9.5 -69.5t-15 -76t-18.5 -81
t-22 -84.5q-16 -59 -35 -119l-38 -120q-41 -126 -72 -290t-31 -364q0 -55 -5 -89t-17 -49.5t-32 -15.5z" />
    <glyph glyph-name="eight" unicode="8" horiz-adv-x="692" 
d="M329 -20q-46 0 -91 18.5t-81 58.5t-58 104.5t-22 156.5q0 95 24 167.5t60 124t72.5 84t59.5 48.5l47 -38q-29 -25 -70.5 -71.5t-73 -121t-31.5 -184.5q0 -153 48 -219.5t121 -66.5q74 0 125.5 65t51.5 200q0 93 -21 154t-67.5 116t-124.5 128q-47 44 -90.5 106.5
t-71.5 140t-28 164.5q0 91 30.5 160t83 109t118.5 40q62 0 113 -32t81.5 -99t30.5 -173q0 -85 -22 -150t-54.5 -112.5t-64.5 -77.5t-52 -44l-43 34q24 18 61.5 63t67.5 117.5t30 172.5q0 64 -15 119t-47 89t-85 34q-48 0 -82.5 -32.5t-53 -86.5t-18.5 -120q0 -71 26 -139
t67 -125.5t88 -97.5q41 -35 82.5 -76.5t75 -93t54 -116t20.5 -146.5q0 -91 -22.5 -157t-61 -109t-87 -64.5t-100.5 -21.5z" />
    <glyph glyph-name="nine" unicode="9" horiz-adv-x="692" 
d="M349 1422q78 0 128 -57t77.5 -155t38.5 -223t11 -262q0 -130 -13.5 -262.5t-44.5 -242.5t-85.5 -177t-135.5 -67q-54 0 -95 36t-64.5 94t-23.5 122q0 48 14.5 64.5t33.5 16.5q20 0 34 -17.5t14 -53.5q0 -25 -2.5 -38.5t-5.5 -26t-3 -35.5q0 -24 13 -46.5t36 -37t55 -14.5
q45 0 76 37.5t51.5 102t31 144.5t14.5 164.5t4 162.5q-3 -21 -27 -53.5t-65 -58t-97 -25.5q-52 0 -94 28t-72 83.5t-45.5 137.5t-15.5 189q0 102 16.5 188.5t49 149.5t80.5 97.5t111 34.5zM349 1361q-46 0 -81.5 -38t-55.5 -127t-20 -244q0 -132 13 -212t45.5 -116t89.5 -36
q45 0 80 32.5t58 85t29 112.5q0 116 -8.5 215t-26.5 172.5t-48 114.5t-75 41z" />
    <glyph glyph-name="colon" unicode=":" horiz-adv-x="520" 
d="M204 894q-34 0 -58.5 25.5t-24.5 59.5q0 36 24.5 60t58.5 24t59 -24t25 -60q0 -34 -25 -59.5t-59 -25.5zM204 -18q-34 0 -58.5 25.5t-24.5 59.5q0 36 24.5 60t58.5 24t59 -24t25 -60q0 -34 -25 -59.5t-59 -25.5z" />
    <glyph glyph-name="semicolon" unicode=";" horiz-adv-x="520" 
d="M222 894q-34 0 -58.5 25.5t-24.5 59.5q0 36 24.5 60t58.5 24t59 -24t25 -60q0 -34 -25 -59.5t-59 -25.5zM185 -202l-37 48q21 11 42 37t34.5 54t13.5 45q0 8 -7 8q-3 0 -8.5 -3.5t-19.5 -3.5q-22 0 -40 11.5t-28.5 31t-10.5 42.5q0 35 24 60t70 25q45 0 72 -28t27 -69
q0 -60 -20 -112t-50.5 -89.5t-61.5 -56.5z" />
    <glyph glyph-name="less" unicode="&#x3c;" horiz-adv-x="784" 
d="M623 95l-467 411v64l467 406v-77l-416 -363l416 -364v-77z" />
    <glyph glyph-name="equal" unicode="=" horiz-adv-x="818" 
d="M98 732v62h622v-62h-622zM98 332v62h622v-62h-622z" />
    <glyph glyph-name="greater" unicode="&#x3e;" horiz-adv-x="784" 
d="M163 95v77l416 364l-416 363v77l467 -406v-64z" />
    <glyph glyph-name="question" unicode="?" horiz-adv-x="544" 
d="M185 263q0 131 22 231t54.5 179.5t65 149.5t54.5 141t22 154q0 125 -37.5 183.5t-125.5 58.5q-60 0 -91.5 -32.5t-31.5 -70.5q0 -22 4 -37.5t7.5 -30t3.5 -35.5q0 -37 -13 -51t-32 -14q-20 0 -35 19.5t-15 77.5q0 75 26 128t76 80.5t120 27.5q48 0 90.5 -14.5t75.5 -48.5
t52 -91.5t19 -144.5q0 -89 -25 -162.5t-61.5 -143t-73 -148t-61 -176.5t-24.5 -230h-66zM217 -15q-34 0 -58.5 25.5t-24.5 59.5q0 36 24.5 60t58.5 24t59 -24t25 -60q0 -34 -25 -59.5t-59 -25.5z" />
    <glyph glyph-name="at" unicode="@" horiz-adv-x="916" 
d="M458 -22q-67 0 -135.5 35t-125.5 112t-92 201t-35 303q0 226 42.5 377.5t110.5 241.5t147 129t152 39q102 0 178 -58t117 -186t41 -339q0 -94 -16 -181.5t-47 -157.5t-74.5 -111t-97.5 -41q-33 0 -50 17.5t-23.5 43.5t-6.5 52q-14 -59 -53 -90.5t-86 -31.5
q-29 0 -64 19.5t-59.5 77.5t-24.5 170q0 77 12.5 159t39 152.5t68 114t98.5 43.5q37 0 59.5 -17t33.5 -40t13 -40l6 75h72l-45 -514q-1 -14 -1.5 -27t-0.5 -23q0 -27 6 -45.5t25 -18.5q42 0 75 57.5t52 152t19 206.5q0 256 -62.5 387t-194.5 131q-78 0 -148.5 -42
t-125 -130.5t-86 -225.5t-31.5 -328q0 -175 41 -306.5t113 -204.5t164 -73q95 0 152 40.5t98 101.5l53 -37q-25 -38 -68 -77.5t-102 -66t-133 -26.5zM423 402q25 0 45.5 21.5t37 54.5t27 67.5t12.5 60.5l22 238q0 33 -12 67.5t-33 57.5t-49 23q-37 0 -62.5 -41.5t-41 -104.5
t-22 -130.5t-6.5 -120.5q0 -86 20.5 -139.5t61.5 -53.5z" />
    <glyph glyph-name="A" unicode="A" horiz-adv-x="651" 
d="M13 0v63h78l183 1341h89l182 -1341h98v-63h-284v63h90l-143 1145h-1l-148 -1145h78v-63h-222zM170 342v60h265v-60h-265z" />
    <glyph glyph-name="B" unicode="B" horiz-adv-x="686" 
d="M58 0v63h94v1275h-94v62h279q52 0 98 -17.5t81.5 -55t55.5 -97t20 -142.5q0 -82 -14.5 -144t-40 -104.5t-58 -66.5t-68.5 -31q37 -1 75 -22.5t70.5 -65t52.5 -110.5t20 -159q0 -122 -32 -208t-88 -131.5t-131 -45.5h-320zM241 63h121q43 0 82 30t64 101t25 192
q0 119 -31.5 190t-77.5 102.5t-90 31.5h-93v-647zM241 772h93q43 0 80.5 30.5t61 99.5t23.5 186q0 109 -25.5 162.5t-63.5 70.5t-77 17h-92v-566z" />
    <glyph glyph-name="C" unicode="C" horiz-adv-x="603" 
d="M366 -20q-132 0 -218.5 181t-86.5 537q0 128 19.5 255.5t59 233.5t98 170.5t136.5 64.5q52 0 89.5 -38t57.5 -96t20 -119q0 -44 -13 -62t-36 -18q-25 0 -38.5 16.5t-13.5 50.5q0 21 5 37t10 36t5 52q0 37 -22 57.5t-50 20.5q-45 0 -82 -41t-65 -110t-46.5 -155
t-28 -177.5t-9.5 -175.5q0 -123 11 -226t31 -183t47 -135t59 -84t68 -29q37 0 63 25.5t43.5 62t27.5 70.5l56 -25q-16 -49 -43 -93.5t-65.5 -73.5t-88.5 -29z" />
    <glyph glyph-name="D" unicode="D" horiz-adv-x="708" 
d="M58 0v63h90v1275h-90v62h257q92 0 167.5 -74.5t121 -227t45.5 -387.5q0 -237 -45.5 -395t-121.5 -237t-167 -79h-257zM238 63h53q68 0 128 64.5t97.5 207t37.5 376.5q0 202 -33.5 341.5t-85.5 212.5t-109 73h-88v-1275z" />
    <glyph glyph-name="E" unicode="E" horiz-adv-x="639" 
d="M58 0v63h91v1275h-91v62h503v-259h-62q0 81 -6.5 123.5t-24 58t-55.5 15.5h-173v-606h216v99h58v-258h-58v97h-216v-607h173q38 0 55.5 16t24 59t6.5 124h62v-262h-503z" />
    <glyph glyph-name="F" unicode="F" horiz-adv-x="638" 
d="M83 0v63h91v1275h-91v62h474v-259h-63q0 81 -4 123.5t-21.5 58t-58.5 15.5h-146v-602h199v99h62v-258h-62v97h-199v-611h91v-63h-272z" />
    <glyph glyph-name="G" unicode="G" horiz-adv-x="679" 
d="M361 -20q-80 0 -144.5 84.5t-102.5 245t-38 388.5q0 238 43.5 398.5t114 242t148.5 81.5q65 0 105 -36t59 -93.5t19 -121.5q0 -45 -13.5 -62.5t-36.5 -17.5t-37 18.5t-14 49.5q0 21 5 37t10.5 35t5.5 48q0 31 -26 56t-71 25q-56 0 -97.5 -61t-68 -160.5t-40 -215
t-13.5 -223.5q0 -154 16 -275.5t44 -206.5t64 -130t75 -45q34 0 59.5 12t37.5 23v495h-92v62h269v-62h-91v-571h-51q-1 2 -6 4.5t-11 2.5q-12 0 -27 -6.5t-37.5 -13.5t-57.5 -7z" />
    <glyph glyph-name="H" unicode="H" horiz-adv-x="787" 
d="M58 0v63h90v1275h-90v62h264v-62h-85v-586h312v586h-85v62h267v-62h-93v-1275h93v-63h-267v63h85v627h-312v-627h85v-63h-264z" />
    <glyph glyph-name="I" unicode="I" horiz-adv-x="414" 
d="M68 0v63h94v1275h-94v62h278v-62h-94v-1275h94v-63h-278z" />
    <glyph glyph-name="J" unicode="J" horiz-adv-x="551" 
d="M210 -26q-59 0 -96.5 28t-55 83t-17.5 136q0 49 15 68t38 19t36.5 -16t13.5 -52q0 -22 -5.5 -38t-11 -34.5t-5.5 -49.5q0 -34 24 -56.5t58 -22.5q52 0 86.5 48t34.5 182v1069h-98v62h282v-62h-94v-978q0 -112 -14.5 -186.5t-41.5 -118t-65 -62.5t-84 -19z" />
    <glyph glyph-name="K" unicode="K" horiz-adv-x="679" 
d="M41 0v63h93v1275h-93v62h277v-62h-95v-585l268 585h-84v62h223v-62h-67l-284 -616l-3 60l272 -719h86v-63h-258v63h72l-239 631h14v-631h90v-63h-272z" />
    <glyph glyph-name="L" unicode="L" horiz-adv-x="580" 
d="M67 0v63h90v1275h-90v62h271v-62h-91v-1275h136q26 0 42 16t24.5 59t8.5 124h62v-262h-453z" />
    <glyph glyph-name="M" unicode="M" horiz-adv-x="928" 
d="M45 0v63h91v1275h-83v62h228l189 -1188h-10l199 1188h222v-62h-82v-1275h93v-63h-275v63h92v1285h7l-227 -1279h-81l-215 1273h6v-1279h95v-63h-249z" />
    <glyph glyph-name="N" unicode="N" horiz-adv-x="776" 
d="M34 0v63h92v1275h-92v62h224l335 -1214h-4v1152h-92v62h245v-62h-89v-1338h-107l-360 1315h5v-1252h104v-63h-261z" />
    <glyph glyph-name="O" unicode="O" horiz-adv-x="693" 
d="M345 -22q-93 0 -156.5 93.5t-95.5 255.5t-32 371q0 210 32 373t95.5 257t156.5 94q95 0 159 -94t96.5 -257t32.5 -373q0 -209 -32.5 -371t-96.5 -255.5t-159 -93.5zM345 41q48 0 83.5 49t60 138t37 209t12.5 261t-12.5 261.5t-37 210t-60 140t-83.5 50.5
q-47 0 -82.5 -50.5t-59 -140t-35 -210t-11.5 -261.5t11.5 -261t35 -209t59 -138t82.5 -49z" />
    <glyph glyph-name="P" unicode="P" horiz-adv-x="673" 
d="M56 0v63h105v1275h-105v62h315q42 0 86 -19t82.5 -63t62 -118.5t23.5 -184.5q0 -113 -24 -197.5t-62.5 -140.5t-83 -83.5t-84.5 -27.5h-120v-503h104v-63h-299zM251 628h97q44 0 86 44.5t69 130.5t27 213q0 120 -25 190.5t-65 101t-85 30.5h-104v-710z" />
    <glyph glyph-name="Q" unicode="Q" horiz-adv-x="693" 
d="M598 -342q-26 0 -42 22t-16 56q0 31 8.5 56t17 54t8.5 73q0 31 -20.5 68t-64.5 37q-12 0 -29 -6.5t-28 -13.5l19 59q5 4 20 10t41 6q76 0 115 -78.5t39 -211.5q0 -66 -18.5 -98.5t-49.5 -32.5zM345 -22q-93 0 -156.5 93.5t-95.5 255.5t-32 371q0 210 32 373t95.5 257
t156.5 94q95 0 159 -94t96.5 -257t32.5 -373q0 -209 -32.5 -371t-96.5 -255.5t-159 -93.5zM345 41q48 0 83.5 49t60 138t37 209t12.5 261t-12.5 261.5t-37 210t-60 140t-83.5 50.5q-47 0 -82.5 -50.5t-59 -140t-35 -210t-11.5 -261.5t11.5 -261t35 -209t59 -138t82.5 -49z
" />
    <glyph glyph-name="R" unicode="R" horiz-adv-x="751" 
d="M634 -15q-51 0 -75.5 32t-32 85t-7.5 116q0 51 2 104t2 102q0 109 -14.5 166t-58.5 78.5t-133 21.5h-66v-627h94v-63h-279v63h95v1275h-95v62h314q75 0 132 -33.5t88.5 -105t31.5 -186.5q0 -88 -16.5 -153t-45.5 -108t-67.5 -65.5t-81.5 -26.5q82 -1 123.5 -37t56.5 -104
t15 -162q0 -49 -2 -101t-2 -102q0 -34 2.5 -75t10.5 -70t24 -29q8 0 15 11t7 24h57q-1 -31 -15 -51t-35.5 -30.5t-43.5 -10.5zM251 752h96q69 0 111.5 43.5t62.5 115.5t20 160q0 81 -14.5 141t-54 93t-112.5 33h-109v-586z" />
    <glyph glyph-name="S" unicode="S" horiz-adv-x="572" 
d="M307 -27q-40 0 -67 12t-45.5 28.5t-31.5 28.5t-24 12q-20 0 -20 -54h-51v280h62q2 -33 11 -67.5t24 -65.5t36.5 -55.5t49 -38.5t59.5 -14q55 0 82.5 29.5t37 82t9.5 119.5q0 74 -26.5 147t-69 143.5t-90.5 134.5q-74 101 -113 180.5t-53.5 146t-14.5 124.5q0 85 27 147
t74.5 95.5t107.5 33.5q50 0 75.5 -17.5t38.5 -35t25 -17.5t17.5 11.5t5.5 36.5h52v-277h-62q-2 42 -12 84.5t-28.5 76t-46 54t-63.5 20.5q-60 0 -94.5 -46t-34.5 -130q0 -58 10.5 -111.5t44 -118.5t98.5 -158q56 -77 105 -159.5t80 -170t31 -177.5q0 -75 -13.5 -133
t-39.5 -98t-66.5 -61.5t-96.5 -21.5z" />
    <glyph glyph-name="T" unicode="T" horiz-adv-x="676" 
d="M182 0v63h112v1275h-101q-45 0 -64 -14.5t-23.5 -57t-4.5 -125.5h-63v259h600v-259h-62q0 83 -5 125.5t-24 57t-64 14.5h-100v-1275h116v-63h-317z" />
    <glyph glyph-name="U" unicode="U" horiz-adv-x="708" 
d="M358 -24q-42 0 -82 15.5t-72 51t-51.5 96.5t-19.5 152v1047h-95v62h281v-62h-95v-1036q0 -149 41 -204t103 -55q31 0 57.5 12t46 40.5t31 78t11.5 123.5v1041h-83v62h240v-62h-95v-1054q0 -117 -30 -184.5t-79.5 -95.5t-108.5 -28z" />
    <glyph glyph-name="V" unicode="V" horiz-adv-x="659" 
d="M281 -3l-183 1341h-81v62h256v-62h-80l150 -1171h-5l145 1171h-90v62h254v-62h-96l-176 -1341h-94z" />
    <glyph glyph-name="W" unicode="W" horiz-adv-x="1010" 
d="M284 -3l-153 1341h-106v62h299v-62h-94l121 -1182l-13 -13l152 1187l17 -137l-24 145h-102v62h299v-62h-100l154 -1179l-10 -13l122 1192h-83v62h240v-62h-88l-156 -1341h-88l-159 1179l25 28l-166 -1207h-87z" />
    <glyph glyph-name="X" unicode="X" horiz-adv-x="721" 
d="M403 0v63h97l-357 1275h-90v62h281v-62h-93l356 -1275h92v-63h-286zM19 0v63h95l213 659l58 -38l-204 -621h92v-63h-254zM402 707l-51 46l188 585h-92v62h249v-62h-91z" />
    <glyph glyph-name="Y" unicode="Y" horiz-adv-x="670" 
d="M199 0v63h96v526l-177 749h-91v62h271v-62h-74l155 -714h-44l169 714h-76v62h234v-62h-92l-185 -743v-532h87v-63h-273z" />
    <glyph glyph-name="Z" unicode="Z" horiz-adv-x="588" 
d="M58 0v63l349 1275h-111q-77 0 -111.5 -15.5t-43.5 -58t-9 -123.5h-62v259h439v-61l-354 -1276h157q69 0 101.5 16t42.5 59t10 124h63v-262h-471z" />
    <glyph glyph-name="bracketleft" unicode="[" horiz-adv-x="286" 
d="M38 -440v1940h209v-62h-146v-1815h146v-63h-209z" />
    <glyph glyph-name="backslash" unicode="\" horiz-adv-x="640" 
d="M610 -104h-66l-503 1608h65z" />
    <glyph glyph-name="bracketright" unicode="]" horiz-adv-x="366" 
d="M328 -440h-209v63h147v1815h-147v62h209v-1940z" />
    <glyph glyph-name="asciicircum" unicode="^" horiz-adv-x="846" 
d="M114 949l271 451h78l269 -451h-73l-235 390l-236 -390h-74z" />
    <glyph glyph-name="underscore" unicode="_" horiz-adv-x="898" 
d="M16 -214v62h868v-62h-868z" />
    <glyph glyph-name="grave" unicode="`" horiz-adv-x="589" 
d="M368 1272l-196 91q-24 11 -37 22t-13 34q0 20 13.5 30.5t33.5 10.5q18 0 31 -7t26 -18l166 -134z" />
    <glyph glyph-name="a" unicode="a" horiz-adv-x="595" 
d="M250 -20q-57 0 -100 28.5t-67.5 86t-24.5 143.5q0 91 33.5 151.5t83 103t99 77.5t83 73t33.5 91q0 77 -11 134t-37.5 88.5t-72.5 31.5q-51 0 -84.5 -36.5t-33.5 -82.5q0 -20 4.5 -31t8 -21.5t3.5 -29.5q0 -27 -11.5 -45.5t-35.5 -18.5q-23 0 -34.5 20.5t-11.5 56.5
q0 72 25 129.5t71 91t107 33.5q62 0 107.5 -30.5t70.5 -98t25 -179.5v-626q0 -38 9.5 -51t27.5 -13q15 0 24.5 5.5t13.5 10.5l31 -55q-11 -11 -34.5 -19t-53.5 -8q-27 0 -49 10.5t-34.5 30.5t-13.5 50q-6 -19 -23 -43t-48 -41t-80 -17zM263 50q43 0 71 32.5t42 75.5t14 73
v372q-2 -28 -38 -56.5t-81 -66t-80 -94.5t-35 -144q0 -94 27.5 -143t79.5 -49z" />
    <glyph glyph-name="b" unicode="b" horiz-adv-x="625" 
d="M345 -20q-46 0 -73.5 26.5t-41.5 62t-17 62.5l-3 -131h-192v63h108v1375h-108v62h198v-577q5 20 20.5 51t44.5 55t75 24q61 0 106.5 -53t70.5 -170.5t25 -311.5q0 -193 -27 -311.5t-74.5 -172.5t-111.5 -54zM336 54q33 0 57 28.5t39.5 85.5t23.5 143t8 202
q0 103 -6.5 186.5t-21.5 143.5t-38 93t-56 33q-34 0 -61 -34.5t-43.5 -82.5t-21.5 -90v-419q4 -61 18.5 -128t40.5 -114t61 -47z" />
    <glyph glyph-name="c" unicode="c" horiz-adv-x="548" 
d="M311 -20q-70 0 -119.5 49.5t-81 131t-46 179.5t-14.5 194q0 125 21.5 222t58.5 163t84 100.5t97 34.5q61 0 101 -38t60 -96.5t20 -121.5q0 -36 -11.5 -55.5t-34.5 -19.5t-35.5 18t-12.5 45q0 19 4.5 29t9 21.5t4.5 32.5q0 55 -28.5 88t-74.5 33q-44 0 -75.5 -38t-52 -102
t-30 -144.5t-9.5 -166.5q0 -81 8.5 -168t28 -161t52.5 -119.5t83 -45.5q52 0 80.5 26t43.5 71l47 -38q-16 -38 -58 -81t-120 -43z" />
    <glyph glyph-name="d" unicode="d" horiz-adv-x="629" 
d="M285 -20q-63 0 -110 54t-73 172.5t-26 311.5q0 194 26 311.5t72 170.5t105 53q46 0 75 -20.5t44.5 -49t19.5 -52.5v506h-111v63h202v-1437h109v-63h-193l-4 132q-2 -26 -18 -62.5t-45 -63t-73 -26.5zM299 54q34 0 59 42.5t41 105t19 122.5v438q-4 50 -22 98t-45 79
t-58 31q-36 0 -60 -35.5t-38 -98t-20 -145t-6 -178.5q0 -115 7.5 -201.5t23 -143.5t40 -85.5t59.5 -28.5z" />
    <glyph glyph-name="e" unicode="e" horiz-adv-x="538" 
d="M277 -22q-69 0 -113.5 48t-69 127.5t-34 176.5t-9.5 195q0 129 16 228t46 166t72 101t93 34q60 0 99 -39.5t61.5 -104.5t31.5 -143t9 -154v-42.5t-1 -40.5h-347v62h256q0 111 -9 201.5t-32.5 144.5t-67.5 54q-41 0 -71.5 -53t-46.5 -150.5t-16 -232.5q0 -98 5.5 -190
t20 -164.5t41.5 -115t71 -42.5q56 0 85.5 35t39.5 67l55 -26q-15 -57 -66 -99.5t-119 -42.5z" />
    <glyph glyph-name="f" unicode="f" horiz-adv-x="452" 
d="M47 0v63h108v922h-120v62h120v155q0 107 21 175.5t62 101t96 32.5q72 0 108.5 -67t36.5 -170q0 -36 -11.5 -55.5t-36.5 -19.5t-36 17.5t-11 44.5q0 20 5 33t10 26.5t5 33.5q0 35 -18 64.5t-48 29.5q-24 0 -41.5 -15.5t-29 -46.5t-17 -76t-5.5 -104v-159h121v-62h-121
v-922h108v-63h-306z" />
    <glyph glyph-name="g" unicode="g" horiz-adv-x="611" 
d="M309 -498q-86 0 -143.5 38.5t-86 99.5t-28.5 129q0 61 14 104t35.5 71t43.5 44t38 23q-10 2 -28 11t-36.5 26t-32.5 45.5t-14 69.5t16 69.5t38 43.5t41 16q3 1 8 1t6 -1q-13 12 -28.5 39t-28.5 69.5t-21 100t-8 130.5q0 119 16.5 200t46.5 130t69.5 71t86.5 22
q72 0 117.5 -49.5t67 -140t21.5 -213.5q0 -110 -15 -189.5t-43.5 -131t-67.5 -75.5t-86 -24q-40 0 -61.5 11t-24.5 12q-1 1 -2.5 1.5t-5.5 0.5q-21 0 -44.5 -23.5t-23.5 -59.5q0 -50 37 -77t137 -40q132 -16 192 -82t60 -189q0 -71 -21 -124t-58 -88.5t-83.5 -53
t-99.5 -17.5zM309 -439q78 0 126 56.5t48 143.5q0 106 -31.5 152t-108.5 61q-21 4 -40 8.5t-33.5 8t-21.5 4.5q-39 -21 -63 -55t-35.5 -76t-11.5 -87q0 -52 18.5 -101.5t56.5 -82t96 -32.5zM307 294q33 0 60 28.5t42.5 105t15.5 219.5q0 140 -15.5 214t-41 102t-57.5 28
t-60 -28t-45 -104t-17 -218q0 -141 16.5 -215.5t43.5 -103t58 -28.5zM385 994q7 52 46.5 83t81.5 31q36 0 51 -15t15 -43q0 -22 -13 -36.5t-35 -14.5q-17 0 -25.5 8t-15 16t-20.5 8t-23.5 -11.5t-9.5 -30.5z" />
    <glyph glyph-name="h" unicode="h" horiz-adv-x="708" 
d="M35 0v63h101v1375h-101v62h191v-576q3 19 25.5 50.5t60.5 56.5t86 25q43 0 84 -24t68 -91t27 -198v-680h103v-63h-278v63h85v656q0 141 -27 200t-87 59q-39 0 -72 -35t-53.5 -86t-21.5 -101v-693h86v-63h-277z" />
    <glyph glyph-name="i" unicode="i" horiz-adv-x="373" 
d="M38 0v63h108v922h-108v62h198v-984h110v-63h-308zM189 1272q-36 0 -60 24t-24 58q0 35 24 59t60 24q32 0 56 -24t24 -59q0 -34 -24 -58t-56 -24z" />
    <glyph glyph-name="j" unicode="j" horiz-adv-x="349" 
d="M48 -498q-46 0 -78 28.5t-49 77.5t-17 112q0 36 14 56t37 20t35 -18t12 -45q0 -19 -3 -36t-7 -34.5t-4 -38.5q0 -25 9.5 -37.5t22.5 -16t26 -3.5q57 0 86.5 68t29.5 196v1154h-110v62h200v-1148q0 -106 -15.5 -181t-43.5 -123t-65 -70.5t-80 -22.5zM203 1272
q-36 0 -60.5 24t-24.5 58q0 35 24.5 59t60.5 24q33 0 56 -24t23 -59q0 -34 -23 -58t-56 -24z" />
    <glyph glyph-name="k" unicode="k" horiz-adv-x="671" 
d="M41 0v63h102v1375h-102v62h192v-851l193 336h-81v62h232v-62h-82l-159 -288l236 -634h85v-63h-273v63h86l-200 537l-37 -75v-462h88v-63h-280z" />
    <glyph glyph-name="l" unicode="l" horiz-adv-x="365" 
d="M46 0v63h92v1375h-92v62h180v-1437h94v-63h-274z" />
    <glyph glyph-name="m" unicode="m" horiz-adv-x="969" 
d="M37 0v63h97v922h-97v62h186v-115q3 20 21 48.5t52.5 50.5t85.5 22q55 0 86 -29t44.5 -62t14.5 -46q6 29 29 61t61.5 54t89.5 22q84 0 119.5 -73.5t35.5 -174.5v-742h93v-63h-273v63h90v621q0 88 -4.5 153.5t-24 101.5t-64.5 36q-47 0 -77.5 -38.5t-45.5 -97.5t-16 -119
v-657h91v-63h-269v63h89v621q0 133 -14 212t-82 79q-46 0 -75 -39t-42 -98.5t-14 -120.5v-654h87v-63h-274z" />
    <glyph glyph-name="n" unicode="n" horiz-adv-x="689" 
d="M35 0v63h101v922h-101v62h190v-112q6 28 28.5 55.5t58 45.5t78.5 18q38 0 77 -20.5t66 -83.5t27 -189v-698h101v-63h-284v63h93v675q0 131 -26.5 186t-82.5 55q-29 0 -54 -21t-43 -55t-28 -73t-10 -75v-692h93v-63h-284z" />
    <glyph glyph-name="o" unicode="o" horiz-adv-x="585" 
d="M288 -22q-52 0 -95.5 37.5t-75.5 108.5t-49 172.5t-17 230.5q0 141 18.5 241.5t51 163.5t75.5 92.5t92 29.5t92 -29.5t76 -92.5t51.5 -163.5t18.5 -241.5q0 -129 -17 -230.5t-49 -172.5t-76 -108.5t-96 -37.5zM288 41q61 0 102 119.5t41 366.5q0 243 -41 354t-102 111
q-62 0 -103 -111t-41 -354q0 -247 41 -366.5t103 -119.5z" />
    <glyph glyph-name="p" unicode="p" horiz-adv-x="606" 
d="M26 -500v63h101v1422h-101v62h191v-117q6 21 23.5 49.5t47 51t70.5 22.5q53 0 98.5 -53t73 -170.5t27.5 -311.5q0 -193 -28 -311.5t-76 -172.5t-107 -54q-40 0 -67.5 22.5t-42.5 52.5t-18 51v-543h100v-63h-292zM338 56q33 0 56.5 34.5t39 96.5t22.5 146t7 182
q0 97 -7 180t-21.5 144.5t-37.5 95.5t-54 34q-40 0 -66.5 -38t-40 -89.5t-18.5 -92.5v-419q3 -59 15.5 -122.5t38 -107.5t66.5 -44z" />
    <glyph glyph-name="q" unicode="q" horiz-adv-x="649" 
d="M326 -500v63h107v543q-2 -21 -17.5 -51t-43 -52.5t-66.5 -22.5q-59 0 -107 54t-76.5 172.5t-28.5 311.5q0 194 28 311.5t74 170.5t98 53q43 0 72.5 -22.5t47 -51.5t22.5 -50l3 118h85v-1484h108v-63h-306zM313 56q42 0 67 44t37.5 107.5t15.5 122.5v417q-4 43 -18.5 94.5
t-40.5 89.5t-66 38q-32 0 -54.5 -34.5t-37.5 -96.5t-22 -145t-7 -180t7 -181t23 -146t39.5 -96t56.5 -34z" />
    <glyph glyph-name="r" unicode="r" horiz-adv-x="518" 
d="M24 0v63h102v922h-102v62h188l3 -104q2 10 19 37t48 50.5t76 23.5q46 0 74 -32.5t40.5 -88t12.5 -126.5q0 -42 -12.5 -63t-36.5 -21q-21 0 -34 16.5t-13 50.5q0 19 5 31t9 27.5t4 41.5q0 49 -17.5 71t-44.5 22q-40 0 -69 -34.5t-44.5 -85t-15.5 -97.5v-703h105v-63h-297z
" />
    <glyph glyph-name="s" unicode="s" horiz-adv-x="502" 
d="M261 -22q-49 0 -74.5 12.5t-38.5 24.5t-25 12q-10 0 -14.5 -7.5t-4.5 -19.5h-49v277h59q4 -66 13.5 -111t26 -72.5t42 -40t61.5 -12.5q41 0 64.5 24.5t34 61t10.5 70.5q0 57 -13.5 106.5t-44.5 101t-85 110.5q-63 71 -109.5 145.5t-46.5 183.5q0 69 25 115.5t65 70.5
t86 24q38 0 61 -8t36 -17t21 -9q9 0 12 7t3 20h52v-268h-58q-4 64 -13 105.5t-24.5 64.5t-37 33t-50.5 10q-48 0 -75 -36t-27 -98q0 -72 33 -130.5t101 -135.5q58 -67 96 -126t56 -116.5t18 -121.5q0 -69 -21 -125.5t-62.5 -90.5t-102.5 -34z" />
    <glyph glyph-name="t" unicode="t" horiz-adv-x="391" 
d="M249 -18q-30 0 -59 11.5t-48 43t-19 93.5v855h-117v62h117q8 35 13.5 83.5t9 99.5t4.5 94h63v-277h140v-62h-140v-872q0 -42 16.5 -55.5t32.5 -13.5q21 0 34 9t21 19l37 -49q-15 -16 -43 -28.5t-62 -12.5z" />
    <glyph glyph-name="u" unicode="u" horiz-adv-x="661" 
d="M302 -22q-46 0 -87.5 21.5t-67 81.5t-25.5 175v729h-104v61h194v-782q0 -88 15 -134t39 -62.5t52 -16.5q45 0 76 45t46.5 114t15.5 143v632h-103v61h193v-983h93v-63h-173l-3 130q-4 -31 -23 -66t-53 -60.5t-85 -25.5z" />
    <glyph glyph-name="v" unicode="v" horiz-adv-x="602" 
d="M270 -6l-158 991h-86v62h256v-62h-72l116 -828l117 828h-71v62h224v-62h-84l-156 -991h-86z" />
    <glyph glyph-name="w" unicode="w" horiz-adv-x="927" 
d="M599 -6l-142 991h-93v62h255v-62h-70l111 -846l104 846h-73v62h219v-62h-80l-130 -991h-101zM231 -6l-132 991h-80v62h251v-62h-76l100 -846l114 846h-63v62h217v-62h-90l-140 -991h-101z" />
    <glyph glyph-name="x" unicode="x" horiz-adv-x="611" 
d="M19 0v63h93l160 490l23 17l134 415h-81v62h232v-62h-84l-157 -467l-19 -24l-139 -431h75v-63h-237zM335 0v63h74l-284 922h-84v62h166h88v-62h-72l284 -922h80v-63h-166h-86z" />
    <glyph glyph-name="y" unicode="y" horiz-adv-x="597" 
d="M166 -502q-37 0 -59 28.5t-31.5 77.5t-9.5 112q0 36 11 56t34 20t33.5 -18t10.5 -45q0 -20 -5 -34.5t-10.5 -28.5t-5.5 -35q0 -28 7.5 -55t26.5 -27q12 0 20 14t14.5 41t13.5 63l68 356l-177 962h-82v62h251v-62h-73l125 -710l121 710h-74v62h224v-62h-81l-178 -992
l-67 -343q-10 -51 -23.5 -85t-33.5 -50.5t-50 -16.5z" />
    <glyph glyph-name="z" unicode="z" horiz-adv-x="501" 
d="M72 0v63l259 922h-100q-45 0 -64 -13.5t-23.5 -57.5t-4.5 -135h-60v268h343v-62l-259 -922h91q53 0 75 14.5t27 61t5 138.5h62v-277h-351z" />
    <glyph glyph-name="braceleft" unicode="{" horiz-adv-x="411" 
d="M341 -320q-22 0 -56.5 10.5t-68.5 45t-57 105.5t-23 192q0 77 12 142.5t23.5 126t11.5 121.5q0 65 -16 101.5t-61 36.5v60q45 0 61 36.5t16 103.5q0 61 -11.5 121t-23.5 125.5t-12 141.5q0 121 23 192t57 105.5t68.5 45t56.5 10.5v-62q-12 0 -35 -9t-47 -38t-40.5 -88
t-16.5 -161q0 -74 12.5 -137.5t24.5 -123.5t12 -122q0 -92 -26 -126t-54 -42q28 -11 54 -44.5t26 -125.5q0 -62 -12 -122.5t-24.5 -124.5t-12.5 -138q0 -101 16.5 -160.5t40.5 -88.5t47 -37.5t35 -8.5v-63z" />
    <glyph glyph-name="bar" unicode="|" horiz-adv-x="198" 
d="M69 -329v1829h62v-1829h-62z" />
    <glyph glyph-name="braceright" unicode="}" horiz-adv-x="411" 
d="M70 -320v63q12 0 35 8.5t47 37.5t40.5 88.5t16.5 160.5q0 74 -12 138t-24.5 124.5t-12.5 122.5q0 92 26 125.5t54 44.5q-28 8 -54 42t-26 126q0 62 12.5 122t24.5 123.5t12 137.5q0 102 -16.5 161t-40.5 88t-47 38t-35 9v62q24 0 58 -10.5t67.5 -45t56.5 -105.5t23 -192
q0 -76 -12 -141.5t-23.5 -125.5t-11.5 -121q0 -67 16 -103.5t61 -36.5v-60q-45 0 -61 -36.5t-16 -101.5q0 -61 11.5 -121.5t23.5 -126t12 -142.5q0 -121 -23 -192t-56.5 -105.5t-67.5 -45t-58 -10.5z" />
    <glyph glyph-name="asciitilde" unicode="~" horiz-adv-x="742" 
d="M506 1274q-60 0 -103.5 22t-82.5 44t-89 22q-47 0 -80 -27.5t-41 -43.5l-60 46q10 17 31.5 40t59 40.5t93.5 17.5q61 0 103.5 -22t81.5 -44.5t88 -22.5q32 0 59 15.5t45 34.5t23 30l58 -49q-9 -19 -32.5 -43.5t-61.5 -42t-92 -17.5z" />
    <glyph glyph-name="uni00A0" unicode="&#xa0;" horiz-adv-x="274" 
 />
    <glyph glyph-name="exclamdown" unicode="&#xa1;" horiz-adv-x="244" 
d="M140 853q0 -161 4.5 -305t10.5 -268.5t10.5 -228.5t4.5 -187q0 -61 -10.5 -108t-41.5 -47q-29 0 -40.5 47t-11.5 108q0 83 4.5 187t10.5 228.5t10 268.5t4 305h45zM120 1140q34 0 59 -25.5t25 -59.5q0 -36 -25 -60t-59 -24t-58.5 24t-24.5 60q0 34 24.5 59.5t58.5 25.5z
" />
    <glyph glyph-name="cent" unicode="&#xa2;" horiz-adv-x="529" 
d="M211 -116l75 1225h49l-75 -1225h-49zM311 -20q-70 0 -119.5 49.5t-81 131t-46 179.5t-14.5 194q0 125 21.5 222t58.5 163t84 100.5t97 34.5q61 0 101 -38t60 -96.5t20 -121.5q0 -36 -11.5 -55.5t-34.5 -19.5t-35.5 18t-12.5 45q0 19 4.5 29t9 21.5t4.5 32.5
q0 55 -28.5 88t-74.5 33q-44 0 -75.5 -38t-52 -102t-30 -144.5t-9.5 -166.5q0 -81 8.5 -168t28 -161t52.5 -119.5t83 -45.5q52 0 80.5 26t43.5 71l47 -38q-16 -38 -58 -81t-120 -43z" />
    <glyph glyph-name="sterling" unicode="&#xa3;" horiz-adv-x="570" 
d="M23 725v62h405v-62h-405zM94 -25q-42 0 -63.5 27t-21.5 65q0 49 23.5 84t63.5 55.5t86 23.5q3 17 8 67t5 113q0 72 -13.5 152t-32 163.5t-32 163t-13.5 148.5q0 122 24.5 208t72 131.5t115.5 45.5q89 0 130 -69.5t41 -164.5q0 -36 -10.5 -56t-34.5 -20t-35.5 18.5
t-11.5 45.5q0 20 3.5 33t6.5 26t3 33q0 52 -27 70.5t-60 18.5q-47 0 -75 -42t-40.5 -113t-12.5 -156q0 -81 17.5 -182.5t35 -211t17.5 -214.5q0 -48 -4 -92t-9 -75t-8 -44q42 -7 69.5 -33t46.5 -56.5t37.5 -52.5t42.5 -22q35 0 44 23.5t10 42.5h57q0 -41 -14.5 -73.5
t-40 -51.5t-59.5 -19q-41 0 -66 24t-45 56.5t-41 60t-54 34.5q-16 -95 -52.5 -140t-82.5 -45zM97 38q21 0 42.5 34t31.5 91q-38 0 -68 -27.5t-30 -66.5q0 -13 6 -22t18 -9z" />
    <glyph glyph-name="currency" unicode="&#xa4;" horiz-adv-x="861" 
d="M428 51q-49 0 -102.5 23.5t-98.5 77.5t-73.5 146t-28.5 229q0 139 29 228t75 138t98.5 68t100.5 19q47 0 100 -19t99.5 -68t75.5 -138t29 -228q0 -137 -28.5 -229t-74.5 -146t-99 -77.5t-102 -23.5zM428 107q32 0 69.5 18t71 62.5t55 127t21.5 212.5q0 127 -21.5 205.5
t-55 120t-71 56t-69.5 14.5q-31 0 -69 -14.5t-71.5 -56t-55.5 -120t-22 -205.5q0 -130 22 -212.5t55.5 -127t71.5 -62.5t69 -18zM764 996l47 -47l-163 -158l-42 43zM773 45l-158 162l42 43l163 -158zM94 996l157 -162l-42 -43l-163 158zM85 45l-48 47l163 158l42 -43z" />
    <glyph glyph-name="yen" unicode="&#xa5;" horiz-adv-x="632" 
d="M131 557v62h408v-62h-408zM131 328v62h408v-62h-408zM199 0v63h96v526l-177 749h-91v62h271v-62h-74l155 -714h-44l169 714h-76v62h234v-62h-92l-185 -743v-532h87v-63h-273z" />
    <glyph glyph-name="brokenbar" unicode="&#xa6;" horiz-adv-x="198" 
d="M69 871v629h62v-629h-62zM69 -329v620h62v-620h-62z" />
    <glyph glyph-name="section" unicode="&#xa7;" horiz-adv-x="531" 
d="M237 -378q-52 0 -90 27t-58 74.5t-20 109.5q0 35 11.5 55.5t35.5 20.5t34 -17t10 -42q0 -19 -3.5 -30.5t-7.5 -22.5t-4 -31q0 -46 33 -63.5t58 -17.5q43 0 74 28.5t47.5 76.5t16.5 104q0 74 -33 135t-82 119.5t-98 121.5t-82 140t-33 177q0 56 14.5 103t37 85.5t47 66
t44.5 41.5q-44 56 -68 107t-33.5 103t-9.5 108q0 69 23.5 117.5t63 75t90.5 26.5q80 0 118.5 -58.5t38.5 -151.5q0 -35 -10.5 -56t-34.5 -21q-23 0 -33.5 17t-10.5 42q0 20 4 30.5t7.5 21t3.5 30.5q0 35 -13.5 52.5t-33 24.5t-36.5 7q-48 0 -76.5 -38t-28.5 -97
q0 -108 33 -179t81 -125l96 -108t81 -126.5t33 -182.5q0 -73 -25 -131t-60.5 -98t-69.5 -61q41 -47 70.5 -92t45 -96t15.5 -117q0 -79 -27.5 -144t-75.5 -103t-110 -38zM279 260q50 26 84.5 89t34.5 135q0 68 -14.5 119.5t-52 105.5t-107.5 130q-43 -41 -74.5 -100
t-31.5 -123q0 -54 7.5 -94.5t26 -78.5t49.5 -81.5t78 -101.5z" />
    <glyph glyph-name="dieresis" unicode="&#xa8;" horiz-adv-x="786" 
d="M506 1239q-28 0 -48 19.5t-20 46.5q0 29 20 50t48 21q27 0 47 -21t20 -50q0 -27 -20 -46.5t-47 -19.5zM286 1239q-26 0 -46.5 19.5t-20.5 46.5q0 29 20.5 50t46.5 21q27 0 48.5 -21t21.5 -50q0 -27 -21.5 -46.5t-48.5 -19.5z" />
    <glyph glyph-name="copyright" unicode="&#xa9;" horiz-adv-x="1180" 
d="M592 -22q-106 0 -199 54.5t-163.5 152.5t-110.5 228.5t-40 282.5t40 282t110.5 228t163.5 152.5t199 54.5q105 0 197 -54.5t162.5 -152.5t110 -228t39.5 -282t-39.5 -282.5t-110 -228.5t-162.5 -152.5t-197 -54.5zM586 236q-72 0 -120 68.5t-71 177t-23 228.5
q0 130 29 234t81 164.5t119 60.5q79 0 115.5 -67.5t36.5 -156.5q0 -33 -10 -51.5t-31 -18.5q-22 0 -32 16.5t-10 40.5q0 17 3 27.5t6 21.5t3 30q0 51 -23.5 72.5t-56.5 21.5q-44 0 -72.5 -37.5t-45 -96.5t-23.5 -125.5t-7 -124.5q0 -74 7 -148t24 -135.5t45 -98.5t69 -37
q50 0 84.5 37.5t49.5 72.5l39 -55q-29 -61 -77.5 -91t-108.5 -30zM592 43q94 0 174.5 50.5t140.5 140t93.5 208t33.5 254.5t-33.5 254t-93.5 207.5t-140.5 140.5t-174.5 51q-95 0 -175.5 -51t-141 -140.5t-93.5 -207.5t-33 -254t33 -254.5t93.5 -208t141 -140t175.5 -50.5z
" />
    <glyph glyph-name="ordfeminine" unicode="&#xaa;" horiz-adv-x="504" 
d="M222 1129q-49 0 -83.5 21.5t-34.5 77.5q0 44 31.5 69t71.5 39.5t71.5 27t31.5 29.5q0 41 -7 55t-49 14q-29 0 -46.5 -6.5t-17.5 -17.5q0 -7 1 -13t1 -14q0 -15 -8 -27t-27 -12q-17 0 -26.5 13.5t-9.5 30.5q0 39 40 67.5t99 28.5q66 0 95 -32t29 -93v-174q0 -29 26 -29
q16 0 23 10l20 -45q-5 -6 -23.5 -12t-43.5 -6q-27 0 -48 13.5t-24 37.5q-5 -13 -28 -33t-64 -20zM237 1187q25 0 49 17t24 41v84q-5 -9 -24.5 -16t-43 -16.5t-41 -23.5t-17.5 -37q0 -27 11.5 -38t41.5 -11z" />
    <glyph glyph-name="guillemotleft" unicode="&#xab;" horiz-adv-x="735" 
d="M540 304l-224 232l224 233h69l-223 -233l226 -232h-72zM349 304l-224 232l224 233h69l-223 -233l226 -232h-72z" />
    <glyph glyph-name="logicalnot" unicode="&#xac;" horiz-adv-x="627" 
d="M444 331v231l28 -28h-383v58h413v-261h-58z" />
    <glyph glyph-name="uni00AD" unicode="&#xad;" horiz-adv-x="486" 
d="M99 532v62h287v-62h-287z" />
    <glyph glyph-name="registered" unicode="&#xae;" horiz-adv-x="852" 
d="M433 366q-105 0 -190.5 64.5t-136 182.5t-50.5 277t50.5 276t136 182t190.5 65t189.5 -64.5t134.5 -182.5t50 -276q0 -159 -50 -277t-134.5 -182.5t-189.5 -64.5zM433 418q93 0 165.5 58.5t114 165t41.5 248.5q0 141 -41.5 247t-114 165t-165.5 59t-166 -59t-114.5 -165
t-41.5 -247q0 -142 41.5 -248.5t114.5 -165t166 -58.5zM572 553q-22 0 -44.5 13t-22.5 66q0 46 1 85t1 80t-25 67.5t-84 26.5h-24v-289h54v-43h-169v43h56v596h-56v44h166q61 0 106.5 -39.5t45.5 -111.5q0 -78 -29 -126t-81 -51q46 -1 74 -29.5t28 -86.5q0 -47 -0.5 -85
t-0.5 -80q0 -16 3.5 -24.5t11.5 -8.5q15 0 15 21h43q0 -38 -24 -53t-45 -15zM375 931h29q42 0 66 23.5t34 59.5t10 74q0 31 -7.5 56t-29 39.5t-63.5 14.5h-39v-267z" />
    <glyph glyph-name="macron" unicode="&#xaf;" horiz-adv-x="918" 
d="M226 1359v62h604v-62h-604z" />
    <glyph glyph-name="degree" unicode="&#xb0;" horiz-adv-x="547" 
d="M273 1160q-40 0 -75.5 22.5t-57 65.5t-21.5 105q0 90 43.5 138.5t110.5 48.5t110.5 -45t43.5 -142t-44 -145t-110 -48zM273 1218q42 0 63 32.5t21 100.5q0 67 -21 100.5t-63 33.5q-40 0 -62.5 -34.5t-22.5 -101.5q0 -68 22.5 -99.5t62.5 -31.5z" />
    <glyph glyph-name="plusminus" unicode="&#xb1;" horiz-adv-x="820" 
d="M380 369v624h63v-624h-63zM99 650v62h622v-62h-622zM108 249v62h606v-62h-606z" />
    <glyph glyph-name="uni00B2" unicode="&#xb2;" horiz-adv-x="566" 
d="M360 697q-38 0 -65 11t-52 21.5t-58 10.5t-50.5 -12.5t-19.5 -24.5h-54q0 106 33.5 178.5t83.5 125t99.5 95t83 88t33.5 104.5q0 51 -18.5 78.5t-50.5 39t-72 11.5q-31 0 -55 -8.5t-37.5 -21t-13.5 -26.5q0 -10 3 -16t6 -12.5t3 -20.5q0 -22 -12 -32t-30 -10
q-17 0 -29.5 12.5t-12.5 40.5q0 55 50.5 96.5t147.5 41.5q35 0 71.5 -7.5t68 -26t50.5 -52.5t19 -88q0 -59 -23 -101t-60 -75t-80.5 -64.5t-84 -68.5t-71 -87t-40.5 -122q6 7 18 14t30 12t40 5q27 0 54.5 -8.5t53.5 -17.5t46 -9q29 0 45.5 13t16.5 51h52v-18
q0 -33 -13.5 -60t-39.5 -43.5t-66 -16.5z" />
    <glyph glyph-name="uni00B3" unicode="&#xb3;" horiz-adv-x="571" 
d="M259 690q-63 0 -103 19.5t-58.5 51.5t-18.5 68q0 28 13 41t31 13t28 -9t10 -29q0 -14 -3.5 -21.5t-7.5 -15t-4 -22.5q0 -20 27.5 -35.5t74.5 -15.5q40 0 75.5 12.5t57 47t21.5 101.5q0 59 -19 94t-47.5 53t-57 24.5t-47.5 6.5v45q19 0 47.5 5.5t57.5 23t48.5 53.5
t19.5 97q0 44 -18.5 71t-52.5 40t-79 13q-47 0 -76.5 -14.5t-29.5 -33.5q0 -17 3.5 -25t7 -14t3.5 -20q0 -22 -10.5 -31.5t-28.5 -9.5t-31 13.5t-13 41.5q0 37 20.5 68t62 50.5t105.5 19.5q66 0 116 -20.5t79 -58.5t29 -92q0 -48 -18.5 -85t-47.5 -62t-61.5 -38.5
t-61.5 -13.5q29 -1 62 -14t62 -38t48 -62.5t19 -87.5q0 -80 -60 -142.5t-174 -62.5z" />
    <glyph glyph-name="acute" unicode="&#xb4;" horiz-adv-x="575" 
d="M196 1270l-29 32l170 131q24 22 52.5 26.5t41.5 -20.5q14 -23 -6.5 -44t-49.5 -36z" />
    <glyph glyph-name="uni00B5" unicode="&#xb5;" horiz-adv-x="661" 
d="M307 -22q-47 0 -89.5 21.5t-69 81.5t-26.5 175v789h90v-781q0 -88 15 -134t39.5 -62.5t51.5 -16.5q45 0 76 45t46.5 114t15.5 143v693h90v-983h93v-63h-173l-3 130q-4 -31 -22 -66t-51 -60.5t-83 -25.5zM122 450h90v-943h-90v943z" />
    <glyph glyph-name="paragraph" unicode="&#xb6;" horiz-adv-x="612" 
d="M211 -260q-63 0 -93 32t-39.5 73.5t-9.5 71.5q0 37 12 61.5t40 24.5q29 0 41 -21.5t12 -53.5q0 -28 -2.5 -41.5t-5.5 -23t-3 -26.5q0 -22 10 -31.5t36 -9.5q29 0 51 27t34.5 77.5t12.5 119.5v678q-7 -38 -34.5 -62.5t-62.5 -24.5h-2q-69 0 -118.5 112t-49.5 293
q0 117 25 203t70 133.5t102 47.5h341v-62h-79v-1273q0 -84 -20.5 -141.5t-54.5 -94t-73 -55.5t-76 -26.5t-64 -7.5zM303 -197q47 22 83 78.5t36 173.5v1283h-55v-1331q0 -75 -13 -123t-51 -81z" />
    <glyph glyph-name="periodcentered" unicode="&#xb7;" horiz-adv-x="327" 
d="M177 722q-34 0 -58.5 25.5t-24.5 59.5q0 36 24.5 60t58.5 24t59 -24t25 -60q0 -34 -25 -59.5t-59 -25.5z" />
    <glyph glyph-name="cedilla" unicode="&#xb8;" horiz-adv-x="598" 
d="M292 -263q-55 0 -91.5 12.5t-51.5 20.5l20 47q10 -7 43 -16.5t82 -9.5q32 0 49 11t17 33t-14.5 31t-37.5 9q-15 0 -36.5 -7.5t-34.5 -20.5l-59 4l55 138h62l-43 -96q10 11 30 21t49 10q40 0 65.5 -23t25.5 -66q0 -57 -41.5 -77.5t-88.5 -20.5z" />
    <glyph glyph-name="uni00B9" unicode="&#xb9;" horiz-adv-x="410" 
d="M83 704v44h79v608q-5 -12 -34.5 -24t-47.5 -15v48q20 4 38 13.5t34.5 25t28 36.5t17.5 48h45v-740h82v-44h-242z" />
    <glyph glyph-name="ordmasculine" unicode="&#xba;" horiz-adv-x="483" 
d="M241 1140q-74 0 -128 54.5t-54 136.5q0 80 54 134.5t128 54.5q76 0 129.5 -54.5t53.5 -134.5q0 -82 -53.5 -136.5t-129.5 -54.5zM241 1193q46 0 80 36t34 102q0 64 -34 101t-80 37q-44 0 -77.5 -37t-33.5 -101q0 -66 33.5 -102t77.5 -36z" />
    <glyph glyph-name="guillemotright" unicode="&#xbb;" horiz-adv-x="742" 
d="M323 304l226 232l-222 233h69l223 -233l-223 -232h-73zM125 304l226 232l-222 233h69l223 -233l-223 -232h-73z" />
    <glyph glyph-name="onequarter" unicode="&#xbc;" horiz-adv-x="1130" 
d="M83 649v44h79v608q-5 -12 -34.5 -24t-47.5 -15v48q20 4 38 13.5t34.5 25t28 36.5t17.5 48h45v-740h82v-44h-242zM48 0l878 1400h59l-876 -1400h-61zM779 0v44h101v141h-216v44l188 442q16 18 32 44.5t26 53.5h56v-540h18q20 0 28.5 20.5t8.5 62.5h50v-127h-105v-141h100
v-44h-287zM719 226l-4 3h167v389l-25 -69z" />
    <glyph glyph-name="onehalf" unicode="&#xbd;" horiz-adv-x="1188" 
d="M83 649v44h79v608q-5 -12 -34.5 -24t-47.5 -15v48q20 4 38 13.5t34.5 25t28 36.5t17.5 48h45v-740h82v-44h-242zM48 0l878 1400h59l-876 -1400h-61zM983 -6q-38 0 -65 10.5t-52 21.5t-58 11t-50.5 -12.5t-19.5 -24.5h-54q0 106 33.5 178.5t83.5 125t99.5 95t83 88
t33.5 104.5q0 51 -18.5 78.5t-50.5 39t-72 11.5q-31 0 -55 -8.5t-37.5 -21t-13.5 -26.5q0 -10 3 -16t6 -12.5t3 -20.5q0 -22 -12 -32t-30 -10q-17 0 -29.5 12.5t-12.5 40.5q0 55 50.5 96.5t147.5 41.5q35 0 71.5 -7.5t68 -26t50.5 -52.5t19 -88q0 -59 -23 -101t-60 -75
t-80.5 -64.5t-84 -68.5t-71 -87t-40.5 -122q6 7 18 14t30 12t40 5q27 0 54.5 -8.5t53.5 -17.5t46 -9q29 0 45.5 13t16.5 51h52v-18q0 -33 -13.5 -60t-39.5 -43.5t-66 -16.5z" />
    <glyph glyph-name="threequarters" unicode="&#xbe;" horiz-adv-x="1291" 
d="M259 635q-63 0 -103 19.5t-58.5 51.5t-18.5 68q0 28 13 41t31 13t28 -9t10 -29q0 -14 -3.5 -21.5t-7.5 -15t-4 -22.5q0 -20 27.5 -35.5t74.5 -15.5q40 0 75.5 12.5t57 47t21.5 101.5q0 59 -19 94t-47.5 53t-57 24.5t-47.5 6.5v45q19 0 47.5 5.5t57.5 23t48.5 53.5
t19.5 97q0 44 -18.5 71t-52.5 40t-79 13q-47 0 -76.5 -14.5t-29.5 -33.5q0 -17 3.5 -25t7 -14t3.5 -20q0 -22 -10.5 -31.5t-28.5 -9.5t-31 13.5t-13 41.5q0 37 20.5 68t62 50.5t105.5 19.5q66 0 116 -20.5t79 -58.5t29 -92q0 -48 -18.5 -85t-47.5 -62t-61.5 -38.5
t-61.5 -13.5q29 -1 62 -14t62 -38t48 -62.5t19 -87.5q0 -80 -60 -142.5t-174 -62.5zM209 0l878 1400h59l-876 -1400h-61zM939 0v44h101v141h-216v44l188 442q16 18 32 44.5t26 53.5h56v-540h18q20 0 28.5 20.5t8.5 62.5h50v-127h-105v-141h100v-44h-287zM879 226l-4 3h167
v389l-25 -69z" />
    <glyph glyph-name="questiondown" unicode="&#xbf;" horiz-adv-x="544" 
d="M359 862q0 -131 -22 -231t-54.5 -179.5t-65.5 -149.5t-55 -141t-22 -155q0 -124 38 -182.5t125 -58.5q60 0 91.5 32.5t31.5 69.5q0 24 -3.5 39t-7.5 29.5t-4 35.5q0 36 13 50.5t33 14.5q19 0 34.5 -19.5t15.5 -77.5q0 -74 -26 -127.5t-76 -81t-120 -27.5q-48 0 -91 14.5
t-76 48.5t-52 91.5t-19 144.5q0 89 25 162t61.5 143t73 148.5t61.5 177t25 229.5h66zM326 1140q35 0 59.5 -25.5t24.5 -59.5q0 -36 -24.5 -60.5t-59.5 -24.5q-34 0 -59 24.5t-25 60.5q0 34 25 59.5t59 25.5z" />
    <glyph glyph-name="Agrave" unicode="&#xc0;" horiz-adv-x="651" 
d="M13 0v63h78l183 1341h89l182 -1341h98v-63h-284v63h90l-143 1145h-1l-148 -1145h78v-63h-222zM170 342v60h265v-60h-265zM433 1446l-196 91q-24 12 -37 22.5t-13 33.5q0 21 13.5 31t33.5 10q18 0 31.5 -6.5t26.5 -17.5l165 -135z" />
    <glyph glyph-name="Aacute" unicode="&#xc1;" horiz-adv-x="651" 
d="M13 0v63h78l183 1341h89l182 -1341h98v-63h-284v63h90l-143 1145h-1l-148 -1145h78v-63h-222zM170 342v60h265v-60h-265zM209 1445l-29 32l169 131q14 11 30 19.5t30 8.5q11 0 20.5 -5.5t14.5 -15.5q5 -8 5 -18q0 -19 -18.5 -35t-42.5 -27z" />
    <glyph glyph-name="Acircumflex" unicode="&#xc2;" horiz-adv-x="651" 
d="M13 0v63h78l183 1341h89l182 -1341h98v-63h-284v63h90l-143 1145h-1l-148 -1145h78v-63h-222zM170 342v60h265v-60h-265zM137 1458l147 208h71l146 -208h-65l-117 141l-117 -141h-65z" />
    <glyph glyph-name="Atilde" unicode="&#xc3;" horiz-adv-x="651" 
d="M13 0v63h78l183 1341h89l182 -1341h98v-63h-284v63h90l-143 1145h-1l-148 -1145h78v-63h-222zM170 342v60h265v-60h-265zM404 1473q-38 0 -64 18t-48 35.5t-48 17.5q-30 0 -45.5 -21t-20.5 -34l-59 33q5 19 20 41.5t39.5 40t58.5 17.5q39 0 66.5 -18t51 -36.5t50.5 -18.5
q24 0 37.5 16.5t19.5 29.5l58 -38q-5 -16 -20 -35.5t-39 -33.5t-57 -14z" />
    <glyph glyph-name="Adieresis" unicode="&#xc4;" horiz-adv-x="651" 
d="M13 0v63h78l183 1341h89l182 -1341h98v-63h-284v63h90l-143 1145h-1l-148 -1145h78v-63h-222zM170 342v60h265v-60h-265zM429 1499q-28 0 -48 19.5t-20 46.5q0 29 20 50t48 21q26 0 46.5 -21t20.5 -50q0 -27 -20.5 -46.5t-46.5 -19.5zM209 1499q-26 0 -46.5 19.5
t-20.5 46.5q0 29 20.5 50t46.5 21q27 0 48.5 -21t21.5 -50q0 -27 -21.5 -46.5t-48.5 -19.5z" />
    <glyph glyph-name="Aring" unicode="&#xc5;" horiz-adv-x="651" 
d="M13 0v63h78l183 1341h89l182 -1341h98v-63h-284v63h90l-143 1145h-1l-148 -1145h78v-63h-222zM170 342v60h265v-60h-265zM320 1461q-45 0 -75 32.5t-30 85.5q0 55 30 86.5t75 31.5q44 0 74.5 -31.5t30.5 -86.5q0 -53 -30.5 -85.5t-74.5 -32.5zM320 1505q28 0 40 22t12 54
q0 28 -12 50.5t-40 22.5q-26 0 -39 -22.5t-13 -50.5q0 -32 13 -54t39 -22z" />
    <glyph glyph-name="AE" unicode="&#xc6;" horiz-adv-x="974" 
d="M382 0v63h88v1337h414v-259h-63q0 72 -5.5 115t-30 62.5t-82.5 19.5h-143v-586h244v99h61v-258h-61v97h-244v-627h133q63 0 89.5 19.5t32.5 63.5t6 116h63v-262h-502zM208 315l4 62h282l-4 -62h-282zM18 0v63h61l344 1337h63l-337 -1337h74v-63h-205z" />
    <glyph glyph-name="Ccedilla" unicode="&#xc7;" horiz-adv-x="603" 
d="M366 -20q-132 0 -218.5 181t-86.5 537q0 128 19.5 255.5t59 233.5t98 170.5t136.5 64.5q52 0 89.5 -38t57.5 -96t20 -119q0 -44 -13 -62t-36 -18q-25 0 -38.5 16.5t-13.5 50.5q0 21 5 37t10 36t5 52q0 37 -22 57.5t-50 20.5q-45 0 -82 -41t-65 -110t-46.5 -155
t-28 -177.5t-9.5 -175.5q0 -123 11 -226t31 -183t47 -135t59 -84t68 -29q37 0 63 25.5t43.5 62t27.5 70.5l56 -25q-16 -49 -43 -93.5t-65.5 -73.5t-88.5 -29zM382 -287q-55 0 -91.5 9.5t-51.5 17.5l22 52q10 -7 41.5 -16t79.5 -9q32 0 58.5 15t26.5 43q0 30 -18 39t-42 9
q-16 0 -37 -7t-35 -21l-59 4l63 151h62l-48 -103q5 7 28 16.5t51 9.5q37 0 69 -22t32 -77q0 -42 -24.5 -66.5t-60 -34.5t-66.5 -10z" />
    <glyph glyph-name="Egrave" unicode="&#xc8;" horiz-adv-x="639" 
d="M58 0v63h91v1275h-91v62h503v-259h-62q0 81 -6.5 123.5t-24 58t-55.5 15.5h-173v-606h216v99h58v-258h-58v97h-216v-607h173q38 0 55.5 16t24 59t6.5 124h62v-262h-503zM443 1446l-196 91q-24 12 -37 22.5t-13 33.5q0 21 13.5 31t33.5 10q18 0 31.5 -6.5t26.5 -17.5
l165 -135z" />
    <glyph glyph-name="Eacute" unicode="&#xc9;" horiz-adv-x="639" 
d="M58 0v63h91v1275h-91v62h503v-259h-62q0 81 -6.5 123.5t-24 58t-55.5 15.5h-173v-606h216v99h58v-258h-58v97h-216v-607h173q38 0 55.5 16t24 59t6.5 124h62v-262h-503zM219 1445l-29 32l169 131q14 11 30 19.5t30 8.5q11 0 20.5 -5.5t14.5 -15.5q5 -8 5 -18
q0 -19 -18.5 -35t-42.5 -27z" />
    <glyph glyph-name="Ecircumflex" unicode="&#xca;" horiz-adv-x="639" 
d="M58 0v63h91v1275h-91v62h503v-259h-62q0 81 -6.5 123.5t-24 58t-55.5 15.5h-173v-606h216v99h58v-258h-58v97h-216v-607h173q38 0 55.5 16t24 59t6.5 124h62v-262h-503zM147 1458l147 208h71l146 -208h-65l-117 141l-117 -141h-65z" />
    <glyph glyph-name="Edieresis" unicode="&#xcb;" horiz-adv-x="639" 
d="M58 0v63h91v1275h-91v62h503v-259h-62q0 81 -6.5 123.5t-24 58t-55.5 15.5h-173v-606h216v99h58v-258h-58v97h-216v-607h173q38 0 55.5 16t24 59t6.5 124h62v-262h-503zM439 1499q-28 0 -48 19.5t-20 46.5q0 29 20 50t48 21q26 0 46.5 -21t20.5 -50q0 -27 -20.5 -46.5
t-46.5 -19.5zM219 1499q-26 0 -46.5 19.5t-20.5 46.5q0 29 20.5 50t46.5 21q27 0 48.5 -21t21.5 -50q0 -27 -21.5 -46.5t-48.5 -19.5z" />
    <glyph glyph-name="Igrave" unicode="&#xcc;" horiz-adv-x="414" 
d="M68 0v63h94v1275h-94v62h278v-62h-94v-1275h94v-63h-278zM321 1446l-196 91q-24 12 -37 22.5t-13 33.5q0 21 13.5 31t33.5 10q18 0 31.5 -6.5t26.5 -17.5l165 -135z" />
    <glyph glyph-name="Iacute" unicode="&#xcd;" horiz-adv-x="414" 
d="M68 0v63h94v1275h-94v62h278v-62h-94v-1275h94v-63h-278zM98 1445l-29 32l169 131q14 11 30 19.5t30 8.5q11 0 20.5 -5.5t14.5 -15.5q5 -8 5 -18q0 -19 -18.5 -35t-42.5 -27z" />
    <glyph glyph-name="Icircumflex" unicode="&#xce;" horiz-adv-x="414" 
d="M68 0v63h94v1275h-94v62h278v-62h-94v-1275h94v-63h-278zM26 1458l147 208h71l146 -208h-65l-117 141l-117 -141h-65z" />
    <glyph glyph-name="Idieresis" unicode="&#xcf;" horiz-adv-x="414" 
d="M68 0v63h94v1275h-94v62h278v-62h-94v-1275h94v-63h-278zM318 1499q-28 0 -48 19.5t-20 46.5q0 29 20 50t48 21q26 0 46.5 -21t20.5 -50q0 -27 -20.5 -46.5t-46.5 -19.5zM98 1499q-26 0 -46.5 19.5t-20.5 46.5q0 29 20.5 50t46.5 21q27 0 48.5 -21t21.5 -50
q0 -27 -21.5 -46.5t-48.5 -19.5z" />
    <glyph glyph-name="Eth" unicode="&#xd0;" horiz-adv-x="766" 
d="M46 687v62h362v-62h-362zM58 0v63h90v1275h-90v62h257q92 0 167.5 -74.5t121 -227t45.5 -387.5q0 -237 -45.5 -395t-121.5 -237t-167 -79h-257zM238 63h53q68 0 128 64.5t97.5 207t37.5 376.5q0 202 -33.5 341.5t-85.5 212.5t-109 73h-88v-1275z" />
    <glyph glyph-name="Ntilde" unicode="&#xd1;" horiz-adv-x="776" 
d="M34 0v63h92v1275h-92v62h224l335 -1214h-4v1152h-92v62h245v-62h-89v-1338h-107l-360 1315h5v-1252h104v-63h-261zM471 1473q-38 0 -64 18t-48 35.5t-48 17.5q-30 0 -45.5 -21t-20.5 -34l-59 33q5 19 20 41.5t39.5 40t58.5 17.5q39 0 66.5 -18t51 -36.5t50.5 -18.5
q24 0 37.5 16.5t19.5 29.5l58 -38q-5 -16 -20 -35.5t-39 -33.5t-57 -14z" />
    <glyph glyph-name="Ograve" unicode="&#xd2;" horiz-adv-x="693" 
d="M345 -22q-93 0 -156.5 93.5t-95.5 255.5t-32 371q0 210 32 373t95.5 257t156.5 94q95 0 159 -94t96.5 -257t32.5 -373q0 -209 -32.5 -371t-96.5 -255.5t-159 -93.5zM345 41q48 0 83.5 49t60 138t37 209t12.5 261t-12.5 261.5t-37 210t-60 140t-83.5 50.5
q-47 0 -82.5 -50.5t-59 -140t-35 -210t-11.5 -261.5t11.5 -261t35 -209t59 -138t82.5 -49zM460 1446l-196 91q-24 12 -37 22.5t-13 33.5q0 21 13.5 31t33.5 10q18 0 31.5 -6.5t26.5 -17.5l165 -135z" />
    <glyph glyph-name="Oacute" unicode="&#xd3;" horiz-adv-x="693" 
d="M345 -22q-93 0 -156.5 93.5t-95.5 255.5t-32 371q0 210 32 373t95.5 257t156.5 94q95 0 159 -94t96.5 -257t32.5 -373q0 -209 -32.5 -371t-96.5 -255.5t-159 -93.5zM345 41q48 0 83.5 49t60 138t37 209t12.5 261t-12.5 261.5t-37 210t-60 140t-83.5 50.5
q-47 0 -82.5 -50.5t-59 -140t-35 -210t-11.5 -261.5t11.5 -261t35 -209t59 -138t82.5 -49zM237 1445l-29 32l169 131q14 11 30 19.5t30 8.5q11 0 20.5 -5.5t14.5 -15.5q5 -8 5 -18q0 -19 -18.5 -35t-42.5 -27z" />
    <glyph glyph-name="Ocircumflex" unicode="&#xd4;" horiz-adv-x="693" 
d="M345 -22q-93 0 -156.5 93.5t-95.5 255.5t-32 371q0 210 32 373t95.5 257t156.5 94q95 0 159 -94t96.5 -257t32.5 -373q0 -209 -32.5 -371t-96.5 -255.5t-159 -93.5zM345 41q48 0 83.5 49t60 138t37 209t12.5 261t-12.5 261.5t-37 210t-60 140t-83.5 50.5
q-47 0 -82.5 -50.5t-59 -140t-35 -210t-11.5 -261.5t11.5 -261t35 -209t59 -138t82.5 -49zM165 1458l147 208h71l146 -208h-65l-117 141l-117 -141h-65z" />
    <glyph glyph-name="Otilde" unicode="&#xd5;" horiz-adv-x="693" 
d="M345 -22q-93 0 -156.5 93.5t-95.5 255.5t-32 371q0 210 32 373t95.5 257t156.5 94q95 0 159 -94t96.5 -257t32.5 -373q0 -209 -32.5 -371t-96.5 -255.5t-159 -93.5zM345 41q48 0 83.5 49t60 138t37 209t12.5 261t-12.5 261.5t-37 210t-60 140t-83.5 50.5
q-47 0 -82.5 -50.5t-59 -140t-35 -210t-11.5 -261.5t11.5 -261t35 -209t59 -138t82.5 -49zM432 1473q-38 0 -64 18t-48 35.5t-48 17.5q-30 0 -45.5 -21t-20.5 -34l-59 33q5 19 20 41.5t39.5 40t58.5 17.5q39 0 66.5 -18t51 -36.5t50.5 -18.5q24 0 37.5 16.5t19.5 29.5
l58 -38q-5 -16 -20 -35.5t-39 -33.5t-57 -14z" />
    <glyph glyph-name="Odieresis" unicode="&#xd6;" horiz-adv-x="693" 
d="M345 -22q-93 0 -156.5 93.5t-95.5 255.5t-32 371q0 210 32 373t95.5 257t156.5 94q95 0 159 -94t96.5 -257t32.5 -373q0 -209 -32.5 -371t-96.5 -255.5t-159 -93.5zM345 41q48 0 83.5 49t60 138t37 209t12.5 261t-12.5 261.5t-37 210t-60 140t-83.5 50.5
q-47 0 -82.5 -50.5t-59 -140t-35 -210t-11.5 -261.5t11.5 -261t35 -209t59 -138t82.5 -49zM457 1499q-28 0 -48 19.5t-20 46.5q0 29 20 50t48 21q26 0 46.5 -21t20.5 -50q0 -27 -20.5 -46.5t-46.5 -19.5zM237 1499q-26 0 -46.5 19.5t-20.5 46.5q0 29 20.5 50t46.5 21
q27 0 48.5 -21t21.5 -50q0 -27 -21.5 -46.5t-48.5 -19.5z" />
    <glyph glyph-name="multiply" unicode="&#xd7;" horiz-adv-x="760" 
d="M613 293l-493 492l49 49l493 -492zM169 293l-45 45l490 491l46 -45z" />
    <glyph glyph-name="Oslash" unicode="&#xd8;" horiz-adv-x="742" 
d="M101 -104l505 1608h64l-502 -1608h-67zM345 -22q-93 0 -156.5 93.5t-95.5 255.5t-32 371q0 210 32 373t95.5 257t156.5 94q95 0 159 -94t96.5 -257t32.5 -373q0 -209 -32.5 -371t-96.5 -255.5t-159 -93.5zM345 41q48 0 83.5 49t60 138t37 209t12.5 261t-12.5 261.5
t-37 210t-60 140t-83.5 50.5q-47 0 -82.5 -50.5t-59 -140t-35 -210t-11.5 -261.5t11.5 -261t35 -209t59 -138t82.5 -49z" />
    <glyph glyph-name="Ugrave" unicode="&#xd9;" horiz-adv-x="708" 
d="M358 -24q-42 0 -82 15.5t-72 51t-51.5 96.5t-19.5 152v1047h-95v62h281v-62h-95v-1036q0 -149 41 -204t103 -55q31 0 57.5 12t46 40.5t31 78t11.5 123.5v1041h-83v62h240v-62h-95v-1054q0 -117 -30 -184.5t-79.5 -95.5t-108.5 -28zM468 1446l-196 91q-24 12 -37 22.5
t-13 33.5q0 21 13.5 31t33.5 10q18 0 31.5 -6.5t26.5 -17.5l165 -135z" />
    <glyph glyph-name="Uacute" unicode="&#xda;" horiz-adv-x="708" 
d="M358 -24q-42 0 -82 15.5t-72 51t-51.5 96.5t-19.5 152v1047h-95v62h281v-62h-95v-1036q0 -149 41 -204t103 -55q31 0 57.5 12t46 40.5t31 78t11.5 123.5v1041h-83v62h240v-62h-95v-1054q0 -117 -30 -184.5t-79.5 -95.5t-108.5 -28zM244 1445l-29 32l169 131
q14 11 30 19.5t30 8.5q11 0 20.5 -5.5t14.5 -15.5q5 -8 5 -18q0 -19 -18.5 -35t-42.5 -27z" />
    <glyph glyph-name="Ucircumflex" unicode="&#xdb;" horiz-adv-x="708" 
d="M358 -24q-42 0 -82 15.5t-72 51t-51.5 96.5t-19.5 152v1047h-95v62h281v-62h-95v-1036q0 -149 41 -204t103 -55q31 0 57.5 12t46 40.5t31 78t11.5 123.5v1041h-83v62h240v-62h-95v-1054q0 -117 -30 -184.5t-79.5 -95.5t-108.5 -28zM172 1458l147 208h71l146 -208h-65
l-117 141l-117 -141h-65z" />
    <glyph glyph-name="Udieresis" unicode="&#xdc;" horiz-adv-x="708" 
d="M358 -24q-42 0 -82 15.5t-72 51t-51.5 96.5t-19.5 152v1047h-95v62h281v-62h-95v-1036q0 -149 41 -204t103 -55q31 0 57.5 12t46 40.5t31 78t11.5 123.5v1041h-83v62h240v-62h-95v-1054q0 -117 -30 -184.5t-79.5 -95.5t-108.5 -28zM464 1499q-28 0 -48 19.5t-20 46.5
q0 29 20 50t48 21q26 0 46.5 -21t20.5 -50q0 -27 -20.5 -46.5t-46.5 -19.5zM244 1499q-26 0 -46.5 19.5t-20.5 46.5q0 29 20.5 50t46.5 21q27 0 48.5 -21t21.5 -50q0 -27 -21.5 -46.5t-48.5 -19.5z" />
    <glyph glyph-name="Yacute" unicode="&#xdd;" horiz-adv-x="670" 
d="M199 0v63h96v526l-177 749h-91v62h271v-62h-74l155 -714h-44l169 714h-76v62h234v-62h-92l-185 -743v-532h87v-63h-273zM226 1445l-29 32l169 131q14 11 30 19.5t30 8.5q11 0 20.5 -5.5t14.5 -15.5q5 -8 5 -18q0 -19 -18.5 -35t-42.5 -27z" />
    <glyph glyph-name="Thorn" unicode="&#xde;" horiz-adv-x="739" 
d="M220 301v68h76q75 0 129.5 47.5t84.5 133t30 199.5q0 106 -27.5 185t-77.5 122.5t-117 43.5h-98v69h130q81 0 148 -51.5t107 -146.5t40 -223q0 -133 -41.5 -233.5t-111.5 -157t-156 -56.5h-116zM68 0v63h94v1275h-94v62h278v-62h-94v-1275h94v-63h-278z" />
    <glyph glyph-name="germandbls" unicode="&#xdf;" horiz-adv-x="784" 
d="M493 -24q-54 0 -86 29t-32 85q0 33 15.5 51t38.5 18q20 0 30.5 -11t10.5 -36q0 -13 -3.5 -20.5t-7.5 -13.5t-4 -16q0 -11 6 -17.5t26 -6.5q43 0 71 30.5t42 88t14 138.5q0 62 -21 114t-52 98.5t-62.5 91t-52.5 90.5t-21 98q0 46 11 84t28 72.5t33.5 72.5t28 83.5
t11.5 104.5q0 85 -30 122.5t-81 37.5q-59 0 -93.5 -46.5t-49.5 -122t-15 -161.5v-1034h-204v63h114v963q0 122 29.5 211.5t84 138t128.5 48.5t128 -57.5t54 -162.5q0 -75 -16 -133t-36.5 -105t-36.5 -86.5t-16 -76.5q0 -40 23.5 -82t57 -88t67 -97t57 -109t23.5 -126
q0 -95 -28 -168.5t-76 -115t-108 -41.5z" />
    <glyph glyph-name="agrave" unicode="&#xe0;" horiz-adv-x="595" 
d="M250 -20q-57 0 -100 28.5t-67.5 86t-24.5 143.5q0 91 33.5 151.5t83 103t99 77.5t83 73t33.5 91q0 77 -11 134t-37.5 88.5t-72.5 31.5q-51 0 -84.5 -36.5t-33.5 -82.5q0 -20 4.5 -31t8 -21.5t3.5 -29.5q0 -27 -11.5 -45.5t-35.5 -18.5q-23 0 -34.5 20.5t-11.5 56.5
q0 72 25 129.5t71 91t107 33.5q62 0 107.5 -30.5t70.5 -98t25 -179.5v-626q0 -38 9.5 -51t27.5 -13q15 0 24.5 5.5t13.5 10.5l31 -55q-11 -11 -34.5 -19t-53.5 -8q-27 0 -49 10.5t-34.5 30.5t-13.5 50q-6 -19 -23 -43t-48 -41t-80 -17zM263 50q43 0 71 32.5t42 75.5t14 73
v372q-2 -28 -38 -56.5t-81 -66t-80 -94.5t-35 -144q0 -94 27.5 -143t79.5 -49zM396 1102l-196 91q-24 12 -37 22.5t-13 33.5q0 21 13.5 31t33.5 10q18 0 31.5 -6.5t26.5 -17.5l165 -135z" />
    <glyph glyph-name="aacute" unicode="&#xe1;" horiz-adv-x="595" 
d="M250 -20q-57 0 -100 28.5t-67.5 86t-24.5 143.5q0 91 33.5 151.5t83 103t99 77.5t83 73t33.5 91q0 77 -11 134t-37.5 88.5t-72.5 31.5q-51 0 -84.5 -36.5t-33.5 -82.5q0 -20 4.5 -31t8 -21.5t3.5 -29.5q0 -27 -11.5 -45.5t-35.5 -18.5q-23 0 -34.5 20.5t-11.5 56.5
q0 72 25 129.5t71 91t107 33.5q62 0 107.5 -30.5t70.5 -98t25 -179.5v-626q0 -38 9.5 -51t27.5 -13q15 0 24.5 5.5t13.5 10.5l31 -55q-11 -11 -34.5 -19t-53.5 -8q-27 0 -49 10.5t-34.5 30.5t-13.5 50q-6 -19 -23 -43t-48 -41t-80 -17zM263 50q43 0 71 32.5t42 75.5t14 73
v372q-2 -28 -38 -56.5t-81 -66t-80 -94.5t-35 -144q0 -94 27.5 -143t79.5 -49zM172 1077l-29 32l169 131q15 12 30.5 20t29.5 8q11 0 20.5 -5.5t14.5 -15.5q5 -8 5 -18q0 -19 -18.5 -35t-42.5 -27z" />
    <glyph glyph-name="acircumflex" unicode="&#xe2;" horiz-adv-x="595" 
d="M250 -20q-57 0 -100 28.5t-67.5 86t-24.5 143.5q0 91 33.5 151.5t83 103t99 77.5t83 73t33.5 91q0 77 -11 134t-37.5 88.5t-72.5 31.5q-51 0 -84.5 -36.5t-33.5 -82.5q0 -20 4.5 -31t8 -21.5t3.5 -29.5q0 -27 -11.5 -45.5t-35.5 -18.5q-23 0 -34.5 20.5t-11.5 56.5
q0 72 25 129.5t71 91t107 33.5q62 0 107.5 -30.5t70.5 -98t25 -179.5v-626q0 -38 9.5 -51t27.5 -13q15 0 24.5 5.5t13.5 10.5l31 -55q-11 -11 -34.5 -19t-53.5 -8q-27 0 -49 10.5t-34.5 30.5t-13.5 50q-6 -19 -23 -43t-48 -41t-80 -17zM263 50q43 0 71 32.5t42 75.5t14 73
v372q-2 -28 -38 -56.5t-81 -66t-80 -94.5t-35 -144q0 -94 27.5 -143t79.5 -49zM100 1119l147 208h71l146 -208h-65l-117 141l-117 -141h-65z" />
    <glyph glyph-name="atilde" unicode="&#xe3;" horiz-adv-x="595" 
d="M250 -20q-57 0 -100 28.5t-67.5 86t-24.5 143.5q0 91 33.5 151.5t83 103t99 77.5t83 73t33.5 91q0 77 -11 134t-37.5 88.5t-72.5 31.5q-51 0 -84.5 -36.5t-33.5 -82.5q0 -20 4.5 -31t8 -21.5t3.5 -29.5q0 -27 -11.5 -45.5t-35.5 -18.5q-23 0 -34.5 20.5t-11.5 56.5
q0 72 25 129.5t71 91t107 33.5q62 0 107.5 -30.5t70.5 -98t25 -179.5v-626q0 -38 9.5 -51t27.5 -13q15 0 24.5 5.5t13.5 10.5l31 -55q-11 -11 -34.5 -19t-53.5 -8q-27 0 -49 10.5t-34.5 30.5t-13.5 50q-6 -19 -23 -43t-48 -41t-80 -17zM263 50q43 0 71 32.5t42 75.5t14 73
v372q-2 -28 -38 -56.5t-81 -66t-80 -94.5t-35 -144q0 -94 27.5 -143t79.5 -49zM367 1124q-38 0 -64 18t-48 35.5t-48 17.5q-30 0 -45.5 -21t-20.5 -34l-59 33q5 19 20 41.5t39.5 40t58.5 17.5q39 0 66.5 -18t51 -36.5t50.5 -18.5q24 0 37.5 16.5t19.5 29.5l58 -38
q-5 -16 -20 -35.5t-39 -33.5t-57 -14z" />
    <glyph glyph-name="adieresis" unicode="&#xe4;" horiz-adv-x="595" 
d="M250 -20q-57 0 -100 28.5t-67.5 86t-24.5 143.5q0 91 33.5 151.5t83 103t99 77.5t83 73t33.5 91q0 77 -11 134t-37.5 88.5t-72.5 31.5q-51 0 -84.5 -36.5t-33.5 -82.5q0 -20 4.5 -31t8 -21.5t3.5 -29.5q0 -27 -11.5 -45.5t-35.5 -18.5q-23 0 -34.5 20.5t-11.5 56.5
q0 72 25 129.5t71 91t107 33.5q62 0 107.5 -30.5t70.5 -98t25 -179.5v-626q0 -38 9.5 -51t27.5 -13q15 0 24.5 5.5t13.5 10.5l31 -55q-11 -11 -34.5 -19t-53.5 -8q-27 0 -49 10.5t-34.5 30.5t-13.5 50q-6 -19 -23 -43t-48 -41t-80 -17zM263 50q43 0 71 32.5t42 75.5t14 73
v372q-2 -28 -38 -56.5t-81 -66t-80 -94.5t-35 -144q0 -94 27.5 -143t79.5 -49zM392 1123q-28 0 -48 20t-20 46q0 29 20 50t48 21q26 0 46.5 -21t20.5 -50q0 -26 -20.5 -46t-46.5 -20zM172 1123q-26 0 -46.5 20t-20.5 46q0 29 20.5 50t46.5 21q27 0 48.5 -21t21.5 -50
q0 -26 -21.5 -46t-48.5 -20z" />
    <glyph glyph-name="aring" unicode="&#xe5;" horiz-adv-x="595" 
d="M250 -20q-57 0 -100 28.5t-67.5 86t-24.5 143.5q0 91 33.5 151.5t83 103t99 77.5t83 73t33.5 91q0 77 -11 134t-37.5 88.5t-72.5 31.5q-51 0 -84.5 -36.5t-33.5 -82.5q0 -20 4.5 -31t8 -21.5t3.5 -29.5q0 -27 -11.5 -45.5t-35.5 -18.5q-23 0 -34.5 20.5t-11.5 56.5
q0 72 25 129.5t71 91t107 33.5q62 0 107.5 -30.5t70.5 -98t25 -179.5v-626q0 -38 9.5 -51t27.5 -13q15 0 24.5 5.5t13.5 10.5l31 -55q-11 -11 -34.5 -19t-53.5 -8q-27 0 -49 10.5t-34.5 30.5t-13.5 50q-6 -19 -23 -43t-48 -41t-80 -17zM263 50q43 0 71 32.5t42 75.5t14 73
v372q-2 -28 -38 -56.5t-81 -66t-80 -94.5t-35 -144q0 -94 27.5 -143t79.5 -49zM283 1092q-45 0 -75 32.5t-30 85.5q0 55 30 86.5t75 31.5q44 0 74.5 -31.5t30.5 -86.5q0 -53 -30.5 -85.5t-74.5 -32.5zM283 1136q28 0 40 22t12 54q0 28 -12 50.5t-40 22.5q-26 0 -39 -22.5
t-13 -50.5q0 -32 13 -54t39 -22z" />
    <glyph glyph-name="ae" unicode="&#xe6;" horiz-adv-x="853" 
d="M234 -17q-85 0 -130.5 62t-45.5 158q0 101 31.5 167.5t77.5 112t92.5 80.5t77.5 73t31 90q0 62 -9.5 122.5t-33.5 100t-68 39.5q-36 0 -67 -24t-31 -76q0 -21 3 -33t6 -22.5t3 -29.5q0 -27 -11 -44.5t-35 -17.5q-23 0 -34 20t-11 56q0 64 21.5 117.5t63.5 86.5t102 33
q61 0 103.5 -39.5t65 -115.5t22.5 -188v-405q0 -51 -5 -90t-17.5 -72t-35.5 -70q-18 -28 -62.5 -59.5t-103.5 -31.5zM248 55q48 0 84 54t36 125v358q-2 -28 -34.5 -56.5t-74 -66.5t-73 -97t-31.5 -148q0 -49 8.5 -87.5t29.5 -60t55 -21.5zM592 -22q-69 0 -113.5 48
t-69 127.5t-34.5 176.5t-10 195q0 129 16.5 228t46.5 166t71.5 101t93.5 34q59 0 98.5 -39.5t61.5 -104.5t31.5 -143t9.5 -154v-42.5t-1 -40.5h-347v62h256q0 111 -9 201.5t-32.5 144.5t-67.5 54q-42 0 -72 -53t-46 -150.5t-16 -232.5q0 -98 5.5 -190t19.5 -164.5t41.5 -115
t71.5 -42.5q56 0 85.5 35t38.5 67l56 -26q-16 -57 -66.5 -99.5t-118.5 -42.5z" />
    <glyph glyph-name="ccedilla" unicode="&#xe7;" horiz-adv-x="548" 
d="M311 -20q-70 0 -119.5 49.5t-81 131t-46 179.5t-14.5 194q0 125 21.5 222t58.5 163t84 100.5t97 34.5q61 0 101 -38t60 -96.5t20 -121.5q0 -36 -11.5 -55.5t-34.5 -19.5t-35.5 18t-12.5 45q0 19 4.5 29t9 21.5t4.5 32.5q0 55 -28.5 88t-74.5 33q-44 0 -75.5 -38t-52 -102
t-30 -144.5t-9.5 -166.5q0 -81 8.5 -168t28 -161t52.5 -119.5t83 -45.5q52 0 80.5 26t43.5 71l47 -38q-16 -38 -58 -81t-120 -43zM346 -285q-54 0 -90.5 9.5t-51.5 17.5l22 52q10 -7 41 -16t80 -9q32 0 58.5 15t26.5 43q0 30 -18 39t-43 9q-16 0 -36.5 -7t-34.5 -21l-59 4
l62 151h63l-48 -103q5 7 28 16.5t51 9.5q37 0 69 -22t32 -77q0 -43 -24.5 -67t-60 -34t-67.5 -10z" />
    <glyph glyph-name="egrave" unicode="&#xe8;" horiz-adv-x="538" 
d="M277 -22q-69 0 -113.5 48t-69 127.5t-34 176.5t-9.5 195q0 129 16 228t46 166t72 101t93 34q60 0 99 -39.5t61.5 -104.5t31.5 -143t9 -154v-42.5t-1 -40.5h-347v62h256q0 111 -9 201.5t-32.5 144.5t-67.5 54q-41 0 -71.5 -53t-46.5 -150.5t-16 -232.5q0 -98 5.5 -190
t20 -164.5t41.5 -115t71 -42.5q56 0 85.5 35t39.5 67l55 -26q-15 -57 -66 -99.5t-119 -42.5zM389 1100l-196 91q-24 12 -37 22.5t-13 33.5q0 21 13.5 31t33.5 10q18 0 31.5 -6.5t26.5 -17.5l165 -135z" />
    <glyph glyph-name="eacute" unicode="&#xe9;" horiz-adv-x="538" 
d="M277 -22q-69 0 -113.5 48t-69 127.5t-34 176.5t-9.5 195q0 129 16 228t46 166t72 101t93 34q60 0 99 -39.5t61.5 -104.5t31.5 -143t9 -154v-42.5t-1 -40.5h-347v62h256q0 111 -9 201.5t-32.5 144.5t-67.5 54q-41 0 -71.5 -53t-46.5 -150.5t-16 -232.5q0 -98 5.5 -190
t20 -164.5t41.5 -115t71 -42.5q56 0 85.5 35t39.5 67l55 -26q-15 -57 -66 -99.5t-119 -42.5zM165 1075l-29 32l169 131q15 12 30.5 20t29.5 8q11 0 20.5 -5.5t14.5 -15.5q5 -8 5 -18q0 -19 -18.5 -35t-42.5 -27z" />
    <glyph glyph-name="ecircumflex" unicode="&#xea;" horiz-adv-x="538" 
d="M277 -22q-69 0 -113.5 48t-69 127.5t-34 176.5t-9.5 195q0 129 16 228t46 166t72 101t93 34q60 0 99 -39.5t61.5 -104.5t31.5 -143t9 -154v-42.5t-1 -40.5h-347v62h256q0 111 -9 201.5t-32.5 144.5t-67.5 54q-41 0 -71.5 -53t-46.5 -150.5t-16 -232.5q0 -98 5.5 -190
t20 -164.5t41.5 -115t71 -42.5q56 0 85.5 35t39.5 67l55 -26q-15 -57 -66 -99.5t-119 -42.5zM93 1117l147 208h71l146 -208h-65l-117 141l-117 -141h-65z" />
    <glyph glyph-name="edieresis" unicode="&#xeb;" horiz-adv-x="538" 
d="M277 -22q-69 0 -113.5 48t-69 127.5t-34 176.5t-9.5 195q0 129 16 228t46 166t72 101t93 34q60 0 99 -39.5t61.5 -104.5t31.5 -143t9 -154v-42.5t-1 -40.5h-347v62h256q0 111 -9 201.5t-32.5 144.5t-67.5 54q-41 0 -71.5 -53t-46.5 -150.5t-16 -232.5q0 -98 5.5 -190
t20 -164.5t41.5 -115t71 -42.5q56 0 85.5 35t39.5 67l55 -26q-15 -57 -66 -99.5t-119 -42.5zM385 1121q-28 0 -48 20t-20 46q0 29 20 50t48 21q26 0 46.5 -21t20.5 -50q0 -26 -20.5 -46t-46.5 -20zM165 1121q-26 0 -46.5 20t-20.5 46q0 29 20.5 50t46.5 21q27 0 48.5 -21
t21.5 -50q0 -26 -21.5 -46t-48.5 -20z" />
    <glyph glyph-name="igrave" unicode="&#xec;" horiz-adv-x="373" 
d="M38 0v63h108v922h-108v62h198v-984h110v-63h-308zM305 1102l-196 91q-24 12 -37 22.5t-13 33.5q0 21 13.5 31t33.5 10q18 0 31.5 -6.5t26.5 -17.5l165 -135z" />
    <glyph glyph-name="iacute" unicode="&#xed;" horiz-adv-x="373" 
d="M38 0v63h108v922h-108v62h198v-984h110v-63h-308zM81 1077l-29 32l169 131q15 12 30.5 20t29.5 8q11 0 20.5 -5.5t14.5 -15.5q5 -8 5 -18q0 -19 -18.5 -35t-42.5 -27z" />
    <glyph glyph-name="icircumflex" unicode="&#xee;" horiz-adv-x="373" 
d="M38 0v63h108v922h-108v62h198v-984h110v-63h-308zM9 1119l147 208h71l146 -208h-65l-117 141l-117 -141h-65z" />
    <glyph glyph-name="idieresis" unicode="&#xef;" horiz-adv-x="373" 
d="M38 0v63h108v922h-108v62h198v-984h110v-63h-308zM301 1123q-28 0 -48 20t-20 46q0 29 20 50t48 21q26 0 46.5 -21t20.5 -50q0 -26 -20.5 -46t-46.5 -20zM81 1123q-26 0 -46.5 20t-20.5 46q0 29 20.5 50t46.5 21q27 0 48.5 -21t21.5 -50q0 -26 -21.5 -46t-48.5 -20z" />
    <glyph glyph-name="eth" unicode="&#xf0;" horiz-adv-x="689" 
d="M333 -22q-74 0 -127.5 72.5t-82.5 197.5t-29 281q0 127 18.5 224.5t51.5 164t76.5 101t92.5 34.5q36 0 62.5 -17t42.5 -40.5t23 -43.5q-10 72 -29 130.5t-43 102.5t-52 69l-63 -99l-46 33l70 106q-22 21 -62 44t-72 33l21 51q17 -5 40.5 -15t46.5 -22.5t37 -23.5l22 -16
l46 73l46 -31l-50 -78q54 -50 92 -118.5t63 -162.5t36 -217t11 -284t-32 -285t-86.5 -194t-123.5 -70zM333 41q33 0 66 47.5t55 154.5t22 284q0 174 -22 275.5t-55 145t-66 43.5q-32 0 -66 -43.5t-57 -145t-23 -275.5q0 -177 23 -284t57 -154.5t66 -47.5z" />
    <glyph glyph-name="ntilde" unicode="&#xf1;" horiz-adv-x="722" 
d="M35 0v63h101v922h-101v62h190v-112q6 28 28.5 55.5t58 45.5t78.5 18q38 0 77 -20.5t66 -83.5t27 -189v-698h101v-63h-284v63h93v675q0 131 -26.5 186t-82.5 55q-29 0 -54 -21t-43 -55t-28 -73t-10 -75v-692h93v-63h-284zM439 1124q-38 0 -64 18t-48 35.5t-48 17.5
q-30 0 -45.5 -21t-20.5 -34l-59 33q5 19 20 41.5t39.5 40t58.5 17.5q39 0 66.5 -18t51 -36.5t50.5 -18.5q24 0 37.5 16.5t19.5 29.5l58 -38q-5 -16 -20 -35.5t-39 -33.5t-57 -14z" />
    <glyph glyph-name="ograve" unicode="&#xf2;" horiz-adv-x="585" 
d="M288 -22q-52 0 -95.5 37.5t-75.5 108.5t-49 172.5t-17 230.5q0 141 18.5 241.5t51 163.5t75.5 92.5t92 29.5t92 -29.5t76 -92.5t51.5 -163.5t18.5 -241.5q0 -129 -17 -230.5t-49 -172.5t-76 -108.5t-96 -37.5zM288 41q61 0 102 119.5t41 366.5q0 243 -41 354t-102 111
q-62 0 -103 -111t-41 -354q0 -247 41 -366.5t103 -119.5zM404 1102l-196 91q-24 12 -37 22.5t-13 33.5q0 21 13.5 31t33.5 10q18 0 31.5 -6.5t26.5 -17.5l165 -135z" />
    <glyph glyph-name="oacute" unicode="&#xf3;" horiz-adv-x="585" 
d="M288 -22q-52 0 -95.5 37.5t-75.5 108.5t-49 172.5t-17 230.5q0 141 18.5 241.5t51 163.5t75.5 92.5t92 29.5t92 -29.5t76 -92.5t51.5 -163.5t18.5 -241.5q0 -129 -17 -230.5t-49 -172.5t-76 -108.5t-96 -37.5zM288 41q61 0 102 119.5t41 366.5q0 243 -41 354t-102 111
q-62 0 -103 -111t-41 -354q0 -247 41 -366.5t103 -119.5zM180 1077l-29 32l169 131q15 12 30.5 20t29.5 8q11 0 20.5 -5.5t14.5 -15.5q5 -8 5 -18q0 -19 -18.5 -35t-42.5 -27z" />
    <glyph glyph-name="ocircumflex" unicode="&#xf4;" horiz-adv-x="585" 
d="M288 -22q-52 0 -95.5 37.5t-75.5 108.5t-49 172.5t-17 230.5q0 141 18.5 241.5t51 163.5t75.5 92.5t92 29.5t92 -29.5t76 -92.5t51.5 -163.5t18.5 -241.5q0 -129 -17 -230.5t-49 -172.5t-76 -108.5t-96 -37.5zM288 41q61 0 102 119.5t41 366.5q0 243 -41 354t-102 111
q-62 0 -103 -111t-41 -354q0 -247 41 -366.5t103 -119.5zM108 1119l147 208h71l146 -208h-65l-117 141l-117 -141h-65z" />
    <glyph glyph-name="otilde" unicode="&#xf5;" horiz-adv-x="585" 
d="M288 -22q-52 0 -95.5 37.5t-75.5 108.5t-49 172.5t-17 230.5q0 141 18.5 241.5t51 163.5t75.5 92.5t92 29.5t92 -29.5t76 -92.5t51.5 -163.5t18.5 -241.5q0 -129 -17 -230.5t-49 -172.5t-76 -108.5t-96 -37.5zM288 41q61 0 102 119.5t41 366.5q0 243 -41 354t-102 111
q-62 0 -103 -111t-41 -354q0 -247 41 -366.5t103 -119.5zM375 1124q-38 0 -64 18t-48 35.5t-48 17.5q-30 0 -45.5 -21t-20.5 -34l-59 33q5 19 20 41.5t39.5 40t58.5 17.5q39 0 66.5 -18t51 -36.5t50.5 -18.5q24 0 37.5 16.5t19.5 29.5l58 -38q-5 -16 -20 -35.5t-39 -33.5
t-57 -14z" />
    <glyph glyph-name="odieresis" unicode="&#xf6;" horiz-adv-x="585" 
d="M288 -22q-52 0 -95.5 37.5t-75.5 108.5t-49 172.5t-17 230.5q0 141 18.5 241.5t51 163.5t75.5 92.5t92 29.5t92 -29.5t76 -92.5t51.5 -163.5t18.5 -241.5q0 -129 -17 -230.5t-49 -172.5t-76 -108.5t-96 -37.5zM288 41q61 0 102 119.5t41 366.5q0 243 -41 354t-102 111
q-62 0 -103 -111t-41 -354q0 -247 41 -366.5t103 -119.5zM400 1123q-28 0 -48 20t-20 46q0 29 20 50t48 21q26 0 46.5 -21t20.5 -50q0 -26 -20.5 -46t-46.5 -20zM180 1123q-26 0 -46.5 20t-20.5 46q0 29 20.5 50t46.5 21q27 0 48.5 -21t21.5 -50q0 -26 -21.5 -46t-48.5 -20z
" />
    <glyph glyph-name="divide" unicode="&#xf7;" horiz-adv-x="803" 
d="M401 302q-22 0 -38.5 16.5t-16.5 40.5t16.5 40t38.5 16q23 0 39.5 -16t16.5 -40t-16.5 -40.5t-39.5 -16.5zM401 680q-22 0 -38.5 16.5t-16.5 40.5t16.5 40t38.5 16q23 0 39.5 -16t16.5 -40t-16.5 -40.5t-39.5 -16.5zM99 517v62h606v-62h-606z" />
    <glyph glyph-name="oslash" unicode="&#xf8;" horiz-adv-x="611" 
d="M66 -104l421 1224h58l-423 -1224h-56zM288 -22q-52 0 -95.5 37.5t-75.5 108.5t-49 172.5t-17 230.5q0 141 18.5 241.5t51 163.5t75.5 92.5t92 29.5t92 -29.5t76 -92.5t51.5 -163.5t18.5 -241.5q0 -129 -17 -230.5t-49 -172.5t-76 -108.5t-96 -37.5zM288 41
q61 0 102 119.5t41 366.5q0 243 -41 354t-102 111q-62 0 -103 -111t-41 -354q0 -247 41 -366.5t103 -119.5z" />
    <glyph glyph-name="ugrave" unicode="&#xf9;" horiz-adv-x="661" 
d="M302 -22q-46 0 -87.5 21.5t-67 81.5t-25.5 175v729h-104v61h194v-782q0 -88 15 -134t39 -62.5t52 -16.5q45 0 76 45t46.5 114t15.5 143v632h-103v61h193v-983h93v-63h-173l-3 130q-4 -31 -23 -66t-53 -60.5t-85 -25.5zM448 1102l-196 91q-24 12 -37 22.5t-13 33.5
q0 21 13.5 31t33.5 10q18 0 31.5 -6.5t26.5 -17.5l165 -135z" />
    <glyph glyph-name="uacute" unicode="&#xfa;" horiz-adv-x="661" 
d="M302 -22q-46 0 -87.5 21.5t-67 81.5t-25.5 175v729h-104v61h194v-782q0 -88 15 -134t39 -62.5t52 -16.5q45 0 76 45t46.5 114t15.5 143v632h-103v61h193v-983h93v-63h-173l-3 130q-4 -31 -23 -66t-53 -60.5t-85 -25.5zM224 1077l-29 32l169 131q15 12 30.5 20t29.5 8
q11 0 20.5 -5.5t14.5 -15.5q5 -8 5 -18q0 -19 -18.5 -35t-42.5 -27z" />
    <glyph glyph-name="ucircumflex" unicode="&#xfb;" horiz-adv-x="661" 
d="M302 -22q-46 0 -87.5 21.5t-67 81.5t-25.5 175v729h-104v61h194v-782q0 -88 15 -134t39 -62.5t52 -16.5q45 0 76 45t46.5 114t15.5 143v632h-103v61h193v-983h93v-63h-173l-3 130q-4 -31 -23 -66t-53 -60.5t-85 -25.5zM152 1119l147 208h71l146 -208h-65l-117 141
l-117 -141h-65z" />
    <glyph glyph-name="udieresis" unicode="&#xfc;" horiz-adv-x="661" 
d="M302 -22q-46 0 -87.5 21.5t-67 81.5t-25.5 175v729h-104v61h194v-782q0 -88 15 -134t39 -62.5t52 -16.5q45 0 76 45t46.5 114t15.5 143v632h-103v61h193v-983h93v-63h-173l-3 130q-4 -31 -23 -66t-53 -60.5t-85 -25.5zM444 1123q-28 0 -48 20t-20 46q0 29 20 50t48 21
q26 0 46.5 -21t20.5 -50q0 -26 -20.5 -46t-46.5 -20zM224 1123q-26 0 -46.5 20t-20.5 46q0 29 20.5 50t46.5 21q27 0 48.5 -21t21.5 -50q0 -26 -21.5 -46t-48.5 -20z" />
    <glyph glyph-name="yacute" unicode="&#xfd;" horiz-adv-x="597" 
d="M166 -502q-37 0 -59 28.5t-31.5 77.5t-9.5 112q0 36 11 56t34 20t33.5 -18t10.5 -45q0 -20 -5 -34.5t-10.5 -28.5t-5.5 -35q0 -28 7.5 -55t26.5 -27q12 0 20 14t14.5 41t13.5 63l68 356l-177 962h-82v62h251v-62h-73l125 -710l121 710h-74v62h224v-62h-81l-178 -992
l-67 -343q-10 -51 -23.5 -85t-33.5 -50.5t-50 -16.5zM198 1077l-29 32l169 131q15 12 30.5 20t29.5 8q11 0 20.5 -5.5t14.5 -15.5q5 -8 5 -18q0 -19 -18.5 -35t-42.5 -27z" />
    <glyph glyph-name="thorn" unicode="&#xfe;" horiz-adv-x="675" 
d="M40 -500v63h108v1875h-108v62h198v-571q2 8 17 38t45 57t77 27q62 0 108 -53.5t71.5 -171t25.5 -308.5q0 -189 -26 -308t-73.5 -175t-111.5 -56q-39 0 -64.5 16.5t-40 39t-21 42.5t-7.5 29v-543h98v-63h-296zM360 50q41 0 65.5 39.5t37 106t17 149.5t4.5 168q0 64 -4 142
t-15.5 150t-34.5 119t-63 47q-29 0 -52.5 -23.5t-41 -61t-26.5 -81t-9 -82.5v-415q4 -57 16.5 -116.5t38.5 -100.5t67 -41z" />
    <glyph glyph-name="ydieresis" unicode="&#xff;" horiz-adv-x="597" 
d="M166 -502q-37 0 -59 28.5t-31.5 77.5t-9.5 112q0 36 11 56t34 20t33.5 -18t10.5 -45q0 -20 -5 -34.5t-10.5 -28.5t-5.5 -35q0 -28 7.5 -55t26.5 -27q12 0 20 14t14.5 41t13.5 63l68 356l-177 962h-82v62h251v-62h-73l125 -710l121 710h-74v62h224v-62h-81l-178 -992
l-67 -343q-10 -51 -23.5 -85t-33.5 -50.5t-50 -16.5zM418 1123q-28 0 -48 20t-20 46q0 29 20 50t48 21q26 0 46.5 -21t20.5 -50q0 -26 -20.5 -46t-46.5 -20zM198 1123q-26 0 -46.5 20t-20.5 46q0 29 20.5 50t46.5 21q27 0 48.5 -21t21.5 -50q0 -26 -21.5 -46t-48.5 -20z" />
    <glyph glyph-name="Amacron" unicode="&#x100;" horiz-adv-x="651" 
d="M13 0v63h78l183 1341h89l182 -1341h98v-63h-284v63h90l-143 1145h-1l-148 -1145h78v-63h-222zM170 342v60h265v-60h-265zM17 1534v62h604v-62h-604z" />
    <glyph glyph-name="amacron" unicode="&#x101;" horiz-adv-x="595" 
d="M250 -20q-57 0 -100 28.5t-67.5 86t-24.5 143.5q0 91 33.5 151.5t83 103t99 77.5t83 73t33.5 91q0 77 -11 134t-37.5 88.5t-72.5 31.5q-51 0 -84.5 -36.5t-33.5 -82.5q0 -20 4.5 -31t8 -21.5t3.5 -29.5q0 -27 -11.5 -45.5t-35.5 -18.5q-23 0 -34.5 20.5t-11.5 56.5
q0 72 25 129.5t71 91t107 33.5q62 0 107.5 -30.5t70.5 -98t25 -179.5v-626q0 -38 9.5 -51t27.5 -13q15 0 24.5 5.5t13.5 10.5l31 -55q-11 -11 -34.5 -19t-53.5 -8q-27 0 -49 10.5t-34.5 30.5t-13.5 50q-6 -19 -23 -43t-48 -41t-80 -17zM263 50q43 0 71 32.5t42 75.5t14 73
v372q-2 -28 -38 -56.5t-81 -66t-80 -94.5t-35 -144q0 -94 27.5 -143t79.5 -49zM93 1131v62h379v-62h-379z" />
    <glyph glyph-name="Abreve" unicode="&#x102;" horiz-adv-x="651" 
d="M13 0v63h78l183 1341h89l182 -1341h98v-63h-284v63h90l-143 1145h-1l-148 -1145h78v-63h-222zM170 342v60h265v-60h-265zM317 1495q-57 0 -92.5 24.5t-52 66.5t-16.5 92h59q4 -59 29.5 -89.5t72.5 -30.5q48 0 73.5 30.5t29.5 89.5h60q0 -50 -16 -92t-52.5 -66.5
t-94.5 -24.5z" />
    <glyph glyph-name="abreve" unicode="&#x103;" horiz-adv-x="595" 
d="M250 -20q-57 0 -100 28.5t-67.5 86t-24.5 143.5q0 91 33.5 151.5t83 103t99 77.5t83 73t33.5 91q0 77 -11 134t-37.5 88.5t-72.5 31.5q-51 0 -84.5 -36.5t-33.5 -82.5q0 -20 4.5 -31t8 -21.5t3.5 -29.5q0 -27 -11.5 -45.5t-35.5 -18.5q-23 0 -34.5 20.5t-11.5 56.5
q0 72 25 129.5t71 91t107 33.5q62 0 107.5 -30.5t70.5 -98t25 -179.5v-626q0 -38 9.5 -51t27.5 -13q15 0 24.5 5.5t13.5 10.5l31 -55q-11 -11 -34.5 -19t-53.5 -8q-27 0 -49 10.5t-34.5 30.5t-13.5 50q-6 -19 -23 -43t-48 -41t-80 -17zM263 50q43 0 71 32.5t42 75.5t14 73
v372q-2 -28 -38 -56.5t-81 -66t-80 -94.5t-35 -144q0 -94 27.5 -143t79.5 -49zM280 1101q-57 0 -92.5 24.5t-52 66.5t-16.5 92h59q4 -59 29.5 -89.5t72.5 -30.5q48 0 73.5 30.5t29.5 89.5h60q0 -50 -16 -92t-52.5 -66.5t-94.5 -24.5z" />
    <glyph glyph-name="Aogonek" unicode="&#x104;" horiz-adv-x="651" 
d="M13 0v63h78l183 1341h89l182 -1341h98v-63h-284v63h90l-143 1145h-1l-148 -1145h78v-63h-222zM170 342v60h265v-60h-265zM650 -287q-37 0 -75 13t-63 43.5t-25 82.5q0 43 23 76t54 57t53 35l26 -20q-21 -20 -46.5 -56t-25.5 -84q0 -53 32.5 -66.5t65.5 -13.5
q23 0 55.5 6.5t54.5 18.5l28 -46q-22 -17 -63.5 -31.5t-93.5 -14.5z" />
    <glyph glyph-name="aogonek" unicode="&#x105;" horiz-adv-x="595" 
d="M250 -20q-57 0 -100 28.5t-67.5 86t-24.5 143.5q0 91 33.5 151.5t83 103t99 77.5t83 73t33.5 91q0 77 -11 134t-37.5 88.5t-72.5 31.5q-51 0 -83 -36.5t-32 -82.5q0 -20 3.5 -33.5t6.5 -26t3 -31.5q0 -27 -11.5 -45t-35.5 -18q-23 0 -35.5 20.5t-12.5 56.5
q0 72 25.5 131.5t72 95t107.5 35.5q62 0 107.5 -30.5t70.5 -98t25 -179.5v-626q0 -38 9.5 -51t27.5 -13q15 0 24.5 5.5t13.5 10.5l31 -55q-11 -11 -34.5 -19t-53.5 -8q-27 0 -49 9.5t-35 29t-14 49.5q-7 -20 -23.5 -43t-47 -39t-79.5 -16zM263 50q43 0 71 32.5t42 75.5
t14 73v372q-2 -28 -38 -56.5t-81 -66t-80 -94.5t-35 -144q0 -94 27.5 -143t79.5 -49zM594 -270q-37 0 -75 13t-63 43.5t-25 82.5q0 43 23 76t54 57t53 35l25 -20q-20 -20 -45.5 -55.5t-25.5 -84.5q0 -52 32.5 -66t65.5 -14q23 0 55.5 6.5t54.5 18.5l28 -46
q-22 -17 -63.5 -31.5t-93.5 -14.5z" />
    <glyph glyph-name="Cacute" unicode="&#x106;" horiz-adv-x="603" 
d="M366 -20q-132 0 -218.5 181t-86.5 537q0 128 19.5 255.5t59 233.5t98 170.5t136.5 64.5q52 0 89.5 -38t57.5 -96t20 -119q0 -44 -13 -62t-36 -18q-25 0 -38.5 16.5t-13.5 50.5q0 21 5 37t10 36t5 52q0 37 -22 57.5t-50 20.5q-45 0 -82 -41t-65 -110t-46.5 -155
t-28 -177.5t-9.5 -175.5q0 -123 11 -226t31 -183t47 -135t59 -84t68 -29q37 0 63 25.5t43.5 62t27.5 70.5l56 -25q-16 -49 -43 -93.5t-65.5 -73.5t-88.5 -29zM256 1445l-29 32l169 131q14 11 30 19.5t30 8.5q11 0 20.5 -5.5t14.5 -15.5q5 -8 5 -18q0 -19 -18.5 -35
t-42.5 -27z" />
    <glyph glyph-name="cacute" unicode="&#x107;" horiz-adv-x="548" 
d="M311 -20q-70 0 -119.5 49.5t-81 131t-46 179.5t-14.5 194q0 125 21.5 222t58.5 163t84 100.5t97 34.5q61 0 101 -38t60 -96.5t20 -121.5q0 -36 -11.5 -55.5t-34.5 -19.5t-35.5 18t-12.5 45q0 19 4.5 29t9 21.5t4.5 32.5q0 55 -28.5 88t-74.5 33q-44 0 -75.5 -38t-52 -102
t-30 -144.5t-9.5 -166.5q0 -81 8.5 -168t28 -161t52.5 -119.5t83 -45.5q52 0 80.5 26t43.5 71l47 -38q-16 -38 -58 -81t-120 -43zM186 1077l-29 32l169 131q15 12 30.5 20t29.5 8q11 0 20.5 -5.5t14.5 -15.5q5 -8 5 -18q0 -19 -18.5 -35t-42.5 -27z" />
    <glyph glyph-name="ccircumflex" unicode="&#x109;" horiz-adv-x="548" 
d="M311 -20q-70 0 -119.5 49.5t-81 131t-46 179.5t-14.5 194q0 125 21.5 222t58.5 163t84 100.5t97 34.5q61 0 101 -38t60 -96.5t20 -121.5q0 -36 -11.5 -55.5t-34.5 -19.5t-35.5 18t-12.5 45q0 19 4.5 29t9 21.5t4.5 32.5q0 55 -28.5 88t-74.5 33q-44 0 -75.5 -38t-52 -102
t-30 -144.5t-9.5 -166.5q0 -81 8.5 -168t28 -161t52.5 -119.5t83 -45.5q52 0 80.5 26t43.5 71l47 -38q-16 -38 -58 -81t-120 -43zM114 1119l147 208h71l146 -208h-65l-117 141l-117 -141h-65z" />
    <glyph glyph-name="Cdotaccent" unicode="&#x10a;" horiz-adv-x="603" 
d="M366 -20q-132 0 -218.5 181t-86.5 537q0 128 19.5 255.5t59 233.5t98 170.5t136.5 64.5q52 0 89.5 -38t57.5 -96t20 -119q0 -44 -13 -62t-36 -18q-25 0 -38.5 16.5t-13.5 50.5q0 21 5 37t10 36t5 52q0 37 -22 57.5t-50 20.5q-45 0 -82 -41t-65 -110t-46.5 -155
t-28 -177.5t-9.5 -175.5q0 -123 11 -226t31 -183t47 -135t59 -84t68 -29q37 0 63 25.5t43.5 62t27.5 70.5l56 -25q-16 -49 -43 -93.5t-65.5 -73.5t-88.5 -29zM367 1505q-27 0 -48 19.5t-21 46.5q0 28 21 49t48 21q26 0 47 -21t21 -49q0 -27 -21 -46.5t-47 -19.5z" />
    <glyph glyph-name="cdotaccent" unicode="&#x10b;" horiz-adv-x="548" 
d="M311 -20q-70 0 -119.5 49.5t-81 131t-46 179.5t-14.5 194q0 125 21.5 222t58.5 163t84 100.5t97 34.5q61 0 101 -38t60 -96.5t20 -121.5q0 -36 -11.5 -55.5t-34.5 -19.5t-35.5 18t-12.5 45q0 19 4.5 29t9 21.5t4.5 32.5q0 55 -28.5 88t-74.5 33q-44 0 -75.5 -38t-52 -102
t-30 -144.5t-9.5 -166.5q0 -81 8.5 -168t28 -161t52.5 -119.5t83 -45.5q52 0 80.5 26t43.5 71l47 -38q-16 -38 -58 -81t-120 -43zM296 1127q-27 0 -48 20t-21 46q0 28 21 49t48 21q26 0 47 -21t21 -49q0 -26 -21 -46t-47 -20z" />
    <glyph glyph-name="Ccaron" unicode="&#x10c;" horiz-adv-x="603" 
d="M366 -20q-132 0 -218.5 181t-86.5 537q0 128 19.5 255.5t59 233.5t98 170.5t136.5 64.5q52 0 89.5 -38t57.5 -96t20 -119q0 -44 -13 -62t-36 -18q-25 0 -38.5 16.5t-13.5 50.5q0 21 5 37t10 36t5 52q0 37 -22 57.5t-50 20.5q-45 0 -82 -41t-65 -110t-46.5 -155
t-28 -177.5t-9.5 -175.5q0 -123 11 -226t31 -183t47 -135t59 -84t68 -29q37 0 63 25.5t43.5 62t27.5 70.5l56 -25q-16 -49 -43 -93.5t-65.5 -73.5t-88.5 -29zM332 1465l-151 212h66l120 -144l119 144h67l-150 -212h-71z" />
    <glyph glyph-name="ccaron" unicode="&#x10d;" horiz-adv-x="548" 
d="M311 -20q-70 0 -119.5 49.5t-81 131t-46 179.5t-14.5 194q0 125 21.5 222t58.5 163t84 100.5t97 34.5q61 0 101 -38t60 -96.5t20 -121.5q0 -36 -11.5 -55.5t-34.5 -19.5t-35.5 18t-12.5 45q0 19 4.5 29t9 21.5t4.5 32.5q0 55 -28.5 88t-74.5 33q-44 0 -75.5 -38t-52 -102
t-30 -144.5t-9.5 -166.5q0 -81 8.5 -168t28 -161t52.5 -119.5t83 -45.5q52 0 80.5 26t43.5 71l47 -38q-16 -38 -58 -81t-120 -43zM261 1102l-151 212h66l120 -144l119 144h67l-150 -212h-71z" />
    <glyph glyph-name="Dcaron" unicode="&#x10e;" horiz-adv-x="708" 
d="M58 0v63h90v1275h-90v62h257q92 0 167.5 -74.5t121 -227t45.5 -387.5q0 -237 -45.5 -395t-121.5 -237t-167 -79h-257zM238 63h53q68 0 128 64.5t97.5 207t37.5 376.5q0 202 -33.5 341.5t-85.5 212.5t-109 73h-88v-1275zM288 1465l-151 212h66l120 -144l119 144h67
l-150 -212h-71z" />
    <glyph glyph-name="dcaron" unicode="&#x10f;" horiz-adv-x="718" 
d="M573 1200q11 44 17.5 96.5t6.5 102.5q0 38 10 57.5t31 19.5t29.5 -17.5t8.5 -49.5q0 -46 -13.5 -109t-39.5 -121zM285 -20q-63 0 -110 54t-73 172.5t-26 311.5q0 194 26 311.5t72 170.5t105 53q46 0 75 -20.5t44.5 -49t19.5 -52.5v506h-111v63h202v-1437h109v-63h-193
l-4 132q-2 -26 -18 -62.5t-45 -63t-73 -26.5zM299 54q34 0 59 42.5t41 105t19 122.5v438q-4 50 -22 98t-45 79t-58 31q-36 0 -60 -35.5t-38 -98t-20 -145t-6 -178.5q0 -115 7.5 -201.5t23 -143.5t40 -85.5t59.5 -28.5z" />
    <glyph glyph-name="Dcroat" unicode="&#x110;" horiz-adv-x="766" 
d="M46 687v62h362v-62h-362zM58 0v63h90v1275h-90v62h257q92 0 167.5 -74.5t121 -227t45.5 -387.5q0 -237 -45.5 -395t-121.5 -237t-167 -79h-257zM238 63h53q68 0 128 64.5t97.5 207t37.5 376.5q0 202 -33.5 341.5t-85.5 212.5t-109 73h-88v-1275z" />
    <glyph glyph-name="dcroat" unicode="&#x111;" horiz-adv-x="629" 
d="M194 1252v63h423v-63h-423zM285 -20q-63 0 -110 54t-73 172.5t-26 311.5q0 194 26 311.5t72 170.5t105 53q46 0 75 -20.5t44.5 -49t19.5 -52.5v506h-111v63h202v-1437h109v-63h-193l-4 132q-2 -26 -18 -62.5t-45 -63t-73 -26.5zM299 54q34 0 59 42.5t41 105t19 122.5v438
q-4 50 -22 98t-45 79t-58 31q-36 0 -60 -35.5t-38 -98t-20 -145t-6 -178.5q0 -115 7.5 -201.5t23 -143.5t40 -85.5t59.5 -28.5z" />
    <glyph glyph-name="Emacron" unicode="&#x112;" horiz-adv-x="639" 
d="M58 0v63h91v1275h-91v62h503v-259h-62q0 81 -6.5 123.5t-24 58t-55.5 15.5h-173v-606h216v99h58v-258h-58v97h-216v-607h173q38 0 55.5 16t24 59t6.5 124h62v-262h-503zM27 1534v62h604v-62h-604z" />
    <glyph glyph-name="emacron" unicode="&#x113;" horiz-adv-x="538" 
d="M277 -22q-69 0 -113.5 48t-69 127.5t-34 176.5t-9.5 195q0 129 16 228t46 166t72 101t93 34q60 0 99 -39.5t61.5 -104.5t31.5 -143t9 -154v-42.5t-1 -40.5h-347v62h256q0 111 -9 201.5t-32.5 144.5t-67.5 54q-41 0 -71.5 -53t-46.5 -150.5t-16 -232.5q0 -98 5.5 -190
t20 -164.5t41.5 -115t71 -42.5q56 0 85.5 35t39.5 67l55 -26q-15 -57 -66 -99.5t-119 -42.5zM86 1129v62h379v-62h-379z" />
    <glyph glyph-name="ebreve" unicode="&#x115;" horiz-adv-x="538" 
d="M277 -22q-69 0 -113.5 48t-69 127.5t-34 176.5t-9.5 195q0 129 16 228t46 166t72 101t93 34q60 0 99 -39.5t61.5 -104.5t31.5 -143t9 -154v-42.5t-1 -40.5h-347v62h256q0 111 -9 201.5t-32.5 144.5t-67.5 54q-41 0 -71.5 -53t-46.5 -150.5t-16 -232.5q0 -98 5.5 -190
t20 -164.5t41.5 -115t71 -42.5q56 0 85.5 35t39.5 67l55 -26q-15 -57 -66 -99.5t-119 -42.5zM273 1099q-57 0 -92.5 24.5t-52 66.5t-16.5 92h59q4 -59 29.5 -89.5t72.5 -30.5q48 0 73.5 30.5t29.5 89.5h60q0 -50 -16 -92t-52.5 -66.5t-94.5 -24.5z" />
    <glyph glyph-name="Edotaccent" unicode="&#x116;" horiz-adv-x="639" 
d="M58 0v63h91v1275h-91v62h503v-259h-62q0 81 -6.5 123.5t-24 58t-55.5 15.5h-173v-606h216v99h58v-258h-58v97h-216v-607h173q38 0 55.5 16t24 59t6.5 124h62v-262h-503zM329 1505q-27 0 -48 19.5t-21 46.5q0 28 21 49t48 21q26 0 47 -21t21 -49q0 -27 -21 -46.5
t-47 -19.5z" />
    <glyph glyph-name="edotaccent" unicode="&#x117;" horiz-adv-x="538" 
d="M277 -22q-69 0 -113.5 48t-69 127.5t-34 176.5t-9.5 195q0 129 16 228t46 166t72 101t93 34q60 0 99 -39.5t61.5 -104.5t31.5 -143t9 -154v-42.5t-1 -40.5h-347v62h256q0 111 -9 201.5t-32.5 144.5t-67.5 54q-41 0 -71.5 -53t-46.5 -150.5t-16 -232.5q0 -98 5.5 -190
t20 -164.5t41.5 -115t71 -42.5q56 0 85.5 35t39.5 67l55 -26q-15 -57 -66 -99.5t-119 -42.5zM276 1125q-27 0 -48 20t-21 46q0 28 21 49t48 21q26 0 47 -21t21 -49q0 -26 -21 -46t-47 -20z" />
    <glyph glyph-name="Eogonek" unicode="&#x118;" horiz-adv-x="639" 
d="M58 0v63h91v1275h-91v62h503v-259h-62q0 81 -6.5 123.5t-24 58t-55.5 15.5h-173v-606h216v99h58v-258h-58v97h-216v-607h173q38 0 55.5 16t24 59t6.5 124h62v-262h-503zM569 -287q-38 0 -76 13t-63 43.5t-25 82.5q0 43 23.5 76t54.5 57t53 35l25 -20q-20 -20 -46 -56
t-26 -84q0 -53 33 -66.5t66 -13.5q23 0 55.5 6.5t54.5 18.5l28 -46q-23 -17 -64.5 -31.5t-92.5 -14.5z" />
    <glyph glyph-name="eogonek" unicode="&#x119;" horiz-adv-x="538" 
d="M277 -22q-69 0 -113.5 48t-69 127.5t-34 176.5t-9.5 195q0 129 16 228t46 166t72 101t93 34q60 0 99 -40t61.5 -105t31.5 -144t9 -157v-42.5t-1 -40.5h-347v62h256q0 111 -9 203t-32.5 147t-67.5 55q-41 0 -71.5 -54.5t-46.5 -153t-16 -233.5q0 -98 5.5 -189t20 -163
t41.5 -114t71 -42q56 0 85.5 35.5t39.5 67.5l55 -26q-15 -57 -66 -99.5t-119 -42.5zM391 -273q-38 0 -76 13t-63 43.5t-25 82.5q0 43 23.5 76t54 57t53.5 35l25 -20q-20 -20 -46 -55.5t-26 -84.5q0 -52 33 -66t65 -14q24 0 56.5 6.5t54.5 18.5l28 -46q-23 -17 -64.5 -31.5
t-92.5 -14.5z" />
    <glyph glyph-name="Ecaron" unicode="&#x11a;" horiz-adv-x="639" 
d="M58 0v63h91v1275h-91v62h503v-259h-62q0 81 -6.5 123.5t-24 58t-55.5 15.5h-173v-606h216v99h58v-258h-58v97h-216v-607h173q38 0 55.5 16t24 59t6.5 124h62v-262h-503zM294 1465l-151 212h66l120 -144l119 144h67l-150 -212h-71z" />
    <glyph glyph-name="ecaron" unicode="&#x11b;" horiz-adv-x="538" 
d="M277 -22q-69 0 -113.5 48t-69 127.5t-34 176.5t-9.5 195q0 129 16 228t46 166t72 101t93 34q60 0 99 -39.5t61.5 -104.5t31.5 -143t9 -154v-42.5t-1 -40.5h-347v62h256q0 111 -9 201.5t-32.5 144.5t-67.5 54q-41 0 -71.5 -53t-46.5 -150.5t-16 -232.5q0 -98 5.5 -190
t20 -164.5t41.5 -115t71 -42.5q56 0 85.5 35t39.5 67l55 -26q-15 -57 -66 -99.5t-119 -42.5zM241 1100l-151 212h66l120 -144l119 144h67l-150 -212h-71z" />
    <glyph glyph-name="gcircumflex" unicode="&#x11d;" horiz-adv-x="611" 
d="M309 -498q-86 0 -143.5 38.5t-86 99.5t-28.5 129q0 61 14 104t35.5 71t43.5 44t38 23q-10 2 -28 11t-36.5 26t-32.5 45.5t-14 69.5t16 69.5t38 43.5t41 16q3 1 8 1t6 -1q-13 12 -28.5 39t-28.5 69.5t-21 100t-8 130.5q0 119 16.5 200t46.5 130t69.5 71t86.5 22
q72 0 117.5 -49.5t67 -140t21.5 -213.5q0 -110 -15 -189.5t-43.5 -131t-67.5 -75.5t-86 -24q-40 0 -61.5 11t-24.5 12q-1 1 -2.5 1.5t-5.5 0.5q-21 0 -44.5 -23.5t-23.5 -59.5q0 -50 37 -77t137 -40q132 -16 192 -82t60 -189q0 -71 -21 -124t-58 -88.5t-83.5 -53
t-99.5 -17.5zM309 -439q78 0 126 56.5t48 143.5q0 106 -31.5 152t-108.5 61q-21 4 -40 8.5t-33.5 8t-21.5 4.5q-39 -21 -63 -55t-35.5 -76t-11.5 -87q0 -52 18.5 -101.5t56.5 -82t96 -32.5zM307 294q33 0 60 28.5t42.5 105t15.5 219.5q0 140 -15.5 214t-41 102t-57.5 28
t-60 -28t-45 -104t-17 -218q0 -141 16.5 -215.5t43.5 -103t58 -28.5zM385 994q7 52 46.5 83t81.5 31q36 0 51 -15t15 -43q0 -22 -13 -36.5t-35 -14.5q-17 0 -25.5 8t-15 16t-20.5 8t-23.5 -11.5t-9.5 -30.5zM124 1119l147 208h71l146 -208h-65l-117 141l-117 -141h-65z" />
    <glyph glyph-name="Gbreve" unicode="&#x11e;" horiz-adv-x="679" 
d="M361 -20q-80 0 -144.5 84.5t-102.5 245t-38 388.5q0 238 43.5 398.5t114 242t148.5 81.5q65 0 105 -36t59 -93.5t19 -121.5q0 -45 -13.5 -62.5t-36.5 -17.5t-37 18.5t-14 49.5q0 21 5 37t10.5 35t5.5 48q0 31 -26 56t-71 25q-56 0 -97.5 -61t-68 -160.5t-40 -215
t-13.5 -223.5q0 -154 16 -275.5t44 -206.5t64 -130t75 -45q34 0 59.5 12t37.5 23v495h-92v62h269v-62h-91v-571h-51q-1 2 -6 4.5t-11 2.5q-12 0 -27 -6.5t-37.5 -13.5t-57.5 -7zM370 1495q-57 0 -92.5 24.5t-52 66.5t-16.5 92h59q4 -59 29.5 -89.5t72.5 -30.5
q48 0 73.5 30.5t29.5 89.5h60q0 -50 -16 -92t-52.5 -66.5t-94.5 -24.5z" />
    <glyph glyph-name="gbreve" unicode="&#x11f;" horiz-adv-x="611" 
d="M309 -498q-86 0 -143.5 38.5t-86 99.5t-28.5 129q0 61 14 104t35.5 71t43.5 44t38 23q-10 2 -28 11t-36.5 26t-32.5 45.5t-14 69.5t16 69.5t38 43.5t41 16q3 1 8 1t6 -1q-13 12 -28.5 39t-28.5 69.5t-21 100t-8 130.5q0 119 16.5 200t46.5 130t69.5 71t86.5 22
q72 0 117.5 -49.5t67 -140t21.5 -213.5q0 -110 -15 -189.5t-43.5 -131t-67.5 -75.5t-86 -24q-40 0 -61.5 11t-24.5 12q-1 1 -2.5 1.5t-5.5 0.5q-21 0 -44.5 -23.5t-23.5 -59.5q0 -50 37 -77t137 -40q132 -16 192 -82t60 -189q0 -71 -21 -124t-58 -88.5t-83.5 -53
t-99.5 -17.5zM309 -439q78 0 126 56.5t48 143.5q0 106 -31.5 152t-108.5 61q-21 4 -40 8.5t-33.5 8t-21.5 4.5q-39 -21 -63 -55t-35.5 -76t-11.5 -87q0 -52 18.5 -101.5t56.5 -82t96 -32.5zM307 294q33 0 60 28.5t42.5 105t15.5 219.5q0 140 -15.5 214t-41 102t-57.5 28
t-60 -28t-45 -104t-17 -218q0 -141 16.5 -215.5t43.5 -103t58 -28.5zM385 994q7 52 46.5 83t81.5 31q36 0 51 -15t15 -43q0 -22 -13 -36.5t-35 -14.5q-17 0 -25.5 8t-15 16t-20.5 8t-23.5 -11.5t-9.5 -30.5zM304 1101q-57 0 -92.5 24.5t-52 66.5t-16.5 92h59
q4 -59 29.5 -89.5t72.5 -30.5q48 0 73.5 30.5t29.5 89.5h60q0 -50 -16 -92t-52.5 -66.5t-94.5 -24.5z" />
    <glyph glyph-name="Gdotaccent" unicode="&#x120;" horiz-adv-x="679" 
d="M361 -20q-80 0 -144.5 84.5t-102.5 245t-38 388.5q0 238 43.5 398.5t114 242t148.5 81.5q65 0 105 -36t59 -93.5t19 -121.5q0 -45 -13.5 -62.5t-36.5 -17.5t-37 18.5t-14 49.5q0 21 5 37t10.5 35t5.5 48q0 31 -26 56t-71 25q-56 0 -97.5 -61t-68 -160.5t-40 -215
t-13.5 -223.5q0 -154 16 -275.5t44 -206.5t64 -130t75 -45q34 0 59.5 12t37.5 23v495h-92v62h269v-62h-91v-571h-51q-1 2 -6 4.5t-11 2.5q-12 0 -27 -6.5t-37.5 -13.5t-57.5 -7zM372 1505q-27 0 -48 19.5t-21 46.5q0 28 21 49t48 21q26 0 47 -21t21 -49q0 -27 -21 -46.5
t-47 -19.5z" />
    <glyph glyph-name="gdotaccent" unicode="&#x121;" horiz-adv-x="611" 
d="M309 -498q-86 0 -143.5 38.5t-86 99.5t-28.5 129q0 61 14 104t35.5 71t43.5 44t38 23q-10 2 -28 11t-36.5 26t-32.5 45.5t-14 69.5t16 69.5t38 43.5t41 16q3 1 8 1t6 -1q-13 12 -28.5 39t-28.5 69.5t-21 100t-8 130.5q0 119 16.5 200t46.5 130t69.5 71t86.5 22
q72 0 117.5 -49.5t67 -140t21.5 -213.5q0 -110 -15 -189.5t-43.5 -131t-67.5 -75.5t-86 -24q-40 0 -61.5 11t-24.5 12q-1 1 -2.5 1.5t-5.5 0.5q-21 0 -44.5 -23.5t-23.5 -59.5q0 -50 37 -77t137 -40q132 -16 192 -82t60 -189q0 -71 -21 -124t-58 -88.5t-83.5 -53
t-99.5 -17.5zM309 -439q78 0 126 56.5t48 143.5q0 106 -31.5 152t-108.5 61q-21 4 -40 8.5t-33.5 8t-21.5 4.5q-39 -21 -63 -55t-35.5 -76t-11.5 -87q0 -52 18.5 -101.5t56.5 -82t96 -32.5zM307 294q33 0 60 28.5t42.5 105t15.5 219.5q0 140 -15.5 214t-41 102t-57.5 28
t-60 -28t-45 -104t-17 -218q0 -141 16.5 -215.5t43.5 -103t58 -28.5zM385 994q7 52 46.5 83t81.5 31q36 0 51 -15t15 -43q0 -22 -13 -36.5t-35 -14.5q-17 0 -25.5 8t-15 16t-20.5 8t-23.5 -11.5t-9.5 -30.5zM306 1127q-27 0 -48 20t-21 46q0 28 21 49t48 21q26 0 47 -21
t21 -49q0 -26 -21 -46t-47 -20z" />
    <glyph glyph-name="uni0122" unicode="&#x122;" horiz-adv-x="679" 
d="M361 -20q-80 0 -144.5 84.5t-102.5 245t-38 388.5q0 238 43.5 398.5t114 242t148.5 81.5q65 0 105 -36t59 -93.5t19 -121.5q0 -45 -13.5 -62.5t-36.5 -17.5t-37 18.5t-14 49.5q0 21 5 37t10.5 35t5.5 48q0 31 -26 56t-71 25q-56 0 -97.5 -61t-68 -160.5t-40 -215
t-13.5 -223.5q0 -154 16 -275.5t44 -206.5t64 -130t75 -45q34 0 59.5 12t37.5 23v495h-92v62h269v-62h-91v-571h-51q-1 2 -6 4.5t-11 2.5q-12 0 -27 -6.5t-37.5 -13.5t-57.5 -7zM365 -330l-29 33q10 6 27.5 23.5t18.5 29.5q-2 -4 -12 -4q-25 0 -41 17t-16 41q0 25 17.5 41
t41.5 16q29 0 46 -19t17 -51q0 -30 -11 -54.5t-27.5 -42.5t-31.5 -30z" />
    <glyph glyph-name="uni0123" unicode="&#x123;" horiz-adv-x="611" 
d="M309 -498q-86 0 -143.5 38.5t-86 99.5t-28.5 129q0 61 14 104t35.5 71t43.5 44t38 23q-10 2 -28 11t-36.5 26t-32.5 45.5t-14 69.5t16 69.5t38 43.5t41 16q3 1 8 1t6 -1q-13 12 -28.5 39t-28.5 69.5t-21 100t-8 130.5q0 119 16.5 200t46.5 130t69.5 71t86.5 22
q72 0 117.5 -49.5t67 -140t21.5 -213.5q0 -110 -15 -189.5t-43.5 -131t-67.5 -75.5t-86 -24q-40 0 -61.5 11t-24.5 12q-1 1 -2.5 1.5t-5.5 0.5q-21 0 -44.5 -23.5t-23.5 -59.5q0 -50 37 -77t137 -40q132 -16 192 -82t60 -189q0 -71 -21 -124t-58 -88.5t-83.5 -53
t-99.5 -17.5zM309 -439q78 0 126 56.5t48 143.5q0 106 -31.5 152t-108.5 61q-21 4 -40 8.5t-33.5 8t-21.5 4.5q-39 -21 -63 -55t-35.5 -76t-11.5 -87q0 -52 18.5 -101.5t56.5 -82t96 -32.5zM307 294q33 0 60 28.5t42.5 105t15.5 219.5q0 140 -15.5 214t-41 102t-57.5 28
t-60 -28t-45 -104t-17 -218q0 -141 16.5 -215.5t43.5 -103t58 -28.5zM385 994q7 52 46.5 83t81.5 31q36 0 51 -15t15 -43q0 -22 -13 -36.5t-35 -14.5q-17 0 -25.5 8t-15 16t-20.5 8t-23.5 -11.5t-9.5 -30.5zM311 1321l30 -33q-10 -6 -28 -24t-19 -30q2 4 12 4q25 0 41.5 -17
t16.5 -41t-17.5 -40.5t-41.5 -16.5q-29 0 -48 19t-19 51q0 30 12 54.5t29.5 43.5t31.5 30z" />
    <glyph glyph-name="hcircumflex" unicode="&#x125;" horiz-adv-x="708" 
d="M35 0v63h101v1375h-101v62h191v-576q3 19 25.5 50.5t60.5 56.5t86 25q43 0 84 -24t68 -91t27 -198v-680h103v-63h-278v63h85v656q0 141 -27 200t-87 59q-39 0 -72 -35t-53.5 -86t-21.5 -101v-693h86v-63h-277zM176 1572l147 208h71l146 -208h-65l-117 141l-117 -141h-65z
" />
    <glyph glyph-name="Hbar" unicode="&#x126;" horiz-adv-x="795" 
d="M72 1017v62h664v-62h-664zM58 0v63h90v1275h-90v62h264v-62h-85v-586h312v586h-85v62h267v-62h-93v-1275h93v-63h-267v63h85v627h-312v-627h85v-63h-264z" />
    <glyph glyph-name="hbar" unicode="&#x127;" horiz-adv-x="708" 
d="M33 1252v63h422v-63h-422zM35 0v63h101v1375h-101v62h191v-576q3 19 25.5 50.5t60.5 56.5t86 25q43 0 84 -24t68 -91t27 -198v-680h103v-63h-278v63h85v656q0 141 -27 200t-87 59q-39 0 -72 -35t-53.5 -86t-21.5 -101v-693h86v-63h-277z" />
    <glyph glyph-name="Itilde" unicode="&#x128;" horiz-adv-x="414" 
d="M68 0v63h94v1275h-94v62h278v-62h-94v-1275h94v-63h-278zM293 1473q-38 0 -64 18t-48 35.5t-48 17.5q-30 0 -45.5 -21t-20.5 -34l-59 33q5 19 20 41.5t39.5 40t58.5 17.5q39 0 66.5 -18t51 -36.5t50.5 -18.5q24 0 37.5 16.5t19.5 29.5l58 -38q-5 -16 -20 -35.5t-39 -33.5
t-57 -14z" />
    <glyph glyph-name="itilde" unicode="&#x129;" horiz-adv-x="373" 
d="M38 0v63h108v922h-108v62h198v-984h110v-63h-308zM276 1124q-38 0 -64 18t-48 35.5t-48 17.5q-30 0 -45.5 -21t-20.5 -34l-59 33q5 19 20 41.5t39.5 40t58.5 17.5q39 0 66.5 -18t51 -36.5t50.5 -18.5q24 0 37.5 16.5t19.5 29.5l58 -38q-5 -16 -20 -35.5t-39 -33.5
t-57 -14z" />
    <glyph glyph-name="Imacron" unicode="&#x12a;" horiz-adv-x="414" 
d="M68 0v63h94v1275h-94v62h278v-62h-94v-1275h94v-63h-278zM-94 1534v62h604v-62h-604z" />
    <glyph glyph-name="imacron" unicode="&#x12b;" horiz-adv-x="373" 
d="M38 0v63h108v922h-108v62h198v-984h110v-63h-308zM1 1131v62h379v-62h-379z" />
    <glyph glyph-name="ibreve" unicode="&#x12d;" horiz-adv-x="373" 
d="M38 0v63h108v922h-108v62h198v-984h110v-63h-308zM189 1101q-57 0 -92.5 24.5t-52 66.5t-16.5 92h59q4 -59 29.5 -89.5t72.5 -30.5q48 0 73.5 30.5t29.5 89.5h60q0 -50 -16 -92t-52.5 -66.5t-94.5 -24.5z" />
    <glyph glyph-name="Iogonek" unicode="&#x12e;" horiz-adv-x="414" 
d="M68 0v63h94v1275h-94v62h278v-62h-94v-1275h94v-63h-278zM354 -287q-37 0 -75 13t-63.5 43.5t-25.5 82.5q0 43 23.5 76t54.5 57t53 35l25 -20q-20 -20 -46 -56t-26 -84q0 -53 33 -66.5t66 -13.5q23 0 55.5 6.5t54.5 18.5l28 -46q-23 -17 -64.5 -31.5t-92.5 -14.5z" />
    <glyph glyph-name="iogonek" unicode="&#x12f;" horiz-adv-x="392" 
d="M203 1265q-34 0 -61 25.5t-27 59.5q0 36 27 62.5t61 26.5t60.5 -26.5t26.5 -62.5q0 -22 -12.5 -42t-32.5 -31.5t-42 -11.5zM38 0v63h108v922h-108v62h198v-984h110v-63h-308zM353 -287q-37 0 -75 13t-63 43.5t-25 82.5q0 43 23 76t54 57t54 35l25 -20q-21 -20 -46.5 -56
t-25.5 -84q0 -53 33 -66.5t65 -13.5q24 0 56.5 6.5t54.5 18.5l27 -46q-22 -17 -63.5 -31.5t-93.5 -14.5z" />
    <glyph glyph-name="Idotaccent" unicode="&#x130;" horiz-adv-x="414" 
d="M68 0v63h94v1275h-94v62h278v-62h-94v-1275h94v-63h-278zM208 1505q-27 0 -48 19.5t-21 46.5q0 28 21 49t48 21q26 0 47 -21t21 -49q0 -27 -21 -46.5t-47 -19.5z" />
    <glyph glyph-name="dotlessi" unicode="&#x131;" horiz-adv-x="373" 
d="M38 0v63h108v922h-108v62h198v-984h110v-63h-308z" />
    <glyph glyph-name="jcircumflex" unicode="&#x135;" horiz-adv-x="349" 
d="M48 -498q-46 0 -78 28.5t-49 77.5t-17 112q0 36 14 56t37 20t35 -18t12 -45q0 -19 -3 -36t-7 -34.5t-4 -38.5q0 -25 9.5 -37.5t22.5 -16t26 -3.5q57 0 86.5 68t29.5 196v1154h-110v62h200v-1148q0 -106 -15.5 -181t-43.5 -123t-65 -70.5t-80 -22.5zM12 1118l147 208h71
l146 -208h-65l-117 141l-117 -141h-65z" />
    <glyph glyph-name="uni0136" unicode="&#x136;" horiz-adv-x="679" 
d="M41 0v63h93v1275h-93v62h277v-62h-95v-585l268 585h-84v62h223v-62h-67l-284 -616l-3 60l272 -719h86v-63h-258v63h72l-239 631h14v-631h90v-63h-272zM333 -330l-29 33q10 6 27.5 23.5t18.5 29.5q-2 -4 -12 -4q-25 0 -41 17t-16 41q0 25 17.5 41t41.5 16q29 0 46 -19
t17 -51q0 -30 -11 -54.5t-27.5 -42.5t-31.5 -30z" />
    <glyph glyph-name="uni0137" unicode="&#x137;" horiz-adv-x="671" 
d="M41 0v63h102v1375h-102v62h192v-851l193 336h-81v62h232v-62h-82l-159 -288l236 -634h85v-63h-273v63h86l-200 537l-37 -75v-462h88v-63h-280zM339 -330l-29 33q10 6 27.5 23.5t18.5 29.5q-2 -4 -12 -4q-25 0 -41 17t-16 41q0 25 17.5 41t41.5 16q29 0 46 -19t17 -51
q0 -30 -11 -54.5t-27.5 -42.5t-31.5 -30z" />
    <glyph glyph-name="kgreenlandic" unicode="&#x138;" horiz-adv-x="679" 
d="M41 0v63h93v921h-93v62h277v-62h-95v-415l271 415h-87v62h223v-62h-67l-284 -445l-3 46l272 -522h86v-63h-258v63h73l-240 456h14v-456h90v-63h-272z" />
    <glyph glyph-name="Lacute" unicode="&#x139;" horiz-adv-x="580" 
d="M67 0v63h90v1275h-90v62h271v-62h-91v-1275h136q26 0 42 16t24.5 59t8.5 124h62v-262h-453zM92 1445l-29 32l169 131q14 11 30 19.5t30 8.5q11 0 20.5 -5.5t14.5 -15.5q5 -8 5 -18q0 -19 -18.5 -35t-42.5 -27z" />
    <glyph glyph-name="lacute" unicode="&#x13a;" horiz-adv-x="365" 
d="M46 0v63h92v1375h-92v62h180v-1437h94v-63h-274zM76 1530l-29 32l169 131q15 12 30.5 20t29.5 8q11 0 20.5 -5.5t14.5 -15.5q5 -8 5 -18q0 -19 -18.5 -35t-42.5 -27z" />
    <glyph glyph-name="uni013B" unicode="&#x13b;" horiz-adv-x="580" 
d="M67 0v63h90v1275h-90v62h271v-62h-91v-1275h136q26 0 42 16t24.5 59t8.5 124h62v-262h-453zM293 -330l-29 33q10 6 27.5 23.5t18.5 29.5q-2 -4 -12 -4q-25 0 -41 17t-16 41q0 25 17.5 41t41.5 16q29 0 46 -19t17 -51q0 -30 -11 -54.5t-27.5 -42.5t-31.5 -30z" />
    <glyph glyph-name="uni013C" unicode="&#x13c;" horiz-adv-x="365" 
d="M46 0v63h92v1375h-92v62h180v-1437h94v-63h-274zM179 -330l-29 33q10 6 27.5 23.5t18.5 29.5q-2 -4 -12 -4q-25 0 -41 17t-16 41q0 25 17.5 41t41.5 16q29 0 46 -19t17 -51q0 -30 -11 -54.5t-27.5 -42.5t-31.5 -30z" />
    <glyph glyph-name="Lcaron" unicode="&#x13d;" horiz-adv-x="584" 
d="M443 1200q11 44 17.5 96.5t6.5 102.5q0 38 10.5 57.5t30.5 19.5q21 0 29.5 -17.5t8.5 -49.5q0 -46 -13.5 -109t-39.5 -121zM67 0v63h90v1275h-90v62h271v-62h-91v-1275h136q26 0 42 16t24.5 59t8.5 124h62v-262h-453z" />
    <glyph glyph-name="lcaron" unicode="&#x13e;" horiz-adv-x="440" 
d="M292 1200q12 44 18 96.5t6 102.5q0 38 10.5 57.5t31.5 19.5t29.5 -17.5t8.5 -49.5q0 -46 -14 -109t-39 -121zM46 0v63h92v1375h-92v62h180v-1437h94v-63h-274z" />
    <glyph glyph-name="ldot" unicode="&#x140;" horiz-adv-x="377" 
d="M46 0v63h92v1375h-92v62h180v-1437h94v-63h-274zM369 734q-34 0 -58.5 25.5t-24.5 59.5q0 36 24.5 60t58.5 24t59 -24t25 -60q0 -34 -25 -59.5t-59 -25.5z" />
    <glyph glyph-name="Lslash" unicode="&#x141;" horiz-adv-x="620" 
d="M41 438v75l428 358v-75zM67 0v63h90v1275h-90v62h271v-62h-91v-1275h136q26 0 42 16t24.5 59t8.5 124h62v-262h-453z" />
    <glyph glyph-name="lslash" unicode="&#x142;" horiz-adv-x="384" 
d="M20 434v80l317 350v-75zM46 0v63h92v1375h-92v62h180v-1437h94v-63h-274z" />
    <glyph glyph-name="Nacute" unicode="&#x143;" horiz-adv-x="776" 
d="M34 0v63h92v1275h-92v62h224l335 -1214h-4v1152h-92v62h245v-62h-89v-1338h-107l-360 1315h5v-1252h104v-63h-261zM276 1445l-29 32l169 131q14 11 30 19.5t30 8.5q11 0 20.5 -5.5t14.5 -15.5q5 -8 5 -18q0 -19 -18.5 -35t-42.5 -27z" />
    <glyph glyph-name="nacute" unicode="&#x144;" horiz-adv-x="689" 
d="M35 0v63h101v922h-101v62h190v-112q6 28 28.5 55.5t58 45.5t78.5 18q38 0 77 -20.5t66 -83.5t27 -189v-698h101v-63h-284v63h93v675q0 131 -26.5 186t-82.5 55q-29 0 -54 -21t-43 -55t-28 -73t-10 -75v-692h93v-63h-284zM244 1077l-29 32l169 131q15 12 30.5 20t29.5 8
q11 0 20.5 -5.5t14.5 -15.5q5 -8 5 -18q0 -19 -18.5 -35t-42.5 -27z" />
    <glyph glyph-name="uni0145" unicode="&#x145;" horiz-adv-x="776" 
d="M34 0v63h92v1275h-92v62h224l335 -1214h-4v1152h-92v62h245v-62h-89v-1338h-107l-360 1315h5v-1252h104v-63h-261zM379 -330l-29 33q10 6 27.5 23.5t18.5 29.5q-2 -4 -12 -4q-25 0 -41 17t-16 41q0 25 17.5 41t41.5 16q29 0 46 -19t17 -51q0 -30 -11 -54.5t-27.5 -42.5
t-31.5 -30z" />
    <glyph glyph-name="uni0146" unicode="&#x146;" horiz-adv-x="689" 
d="M35 0v63h101v922h-101v62h190v-112q6 28 28.5 55.5t58 45.5t78.5 18q38 0 77 -20.5t66 -83.5t27 -189v-698h101v-63h-284v63h93v675q0 131 -26.5 186t-82.5 55q-29 0 -54 -21t-43 -55t-28 -73t-10 -75v-692h93v-63h-284zM348 -330l-29 33q10 6 27.5 23.5t18.5 29.5
q-2 -4 -12 -4q-25 0 -41 17t-16 41q0 25 17.5 41t41.5 16q29 0 46 -19t17 -51q0 -30 -11 -54.5t-27.5 -42.5t-31.5 -30z" />
    <glyph glyph-name="Ncaron" unicode="&#x147;" horiz-adv-x="776" 
d="M34 0v63h92v1275h-92v62h224l335 -1214h-4v1152h-92v62h245v-62h-89v-1338h-107l-360 1315h5v-1252h104v-63h-261zM351 1465l-151 212h66l120 -144l119 144h67l-150 -212h-71z" />
    <glyph glyph-name="ncaron" unicode="&#x148;" horiz-adv-x="689" 
d="M35 0v63h101v922h-101v62h190v-112q6 28 28.5 55.5t58 45.5t78.5 18q38 0 77 -20.5t66 -83.5t27 -189v-698h101v-63h-284v63h93v675q0 131 -26.5 186t-82.5 55q-29 0 -54 -21t-43 -55t-28 -73t-10 -75v-692h93v-63h-284zM320 1102l-151 212h66l120 -144l119 144h67
l-150 -212h-71z" />
    <glyph glyph-name="Eng" unicode="&#x14a;" horiz-adv-x="776" 
d="M473 -391q-49 0 -76.5 32t-38.5 86t-11 118q0 43 14 59.5t32 16.5q17 0 31 -14t14 -49q0 -29 -8 -41.5t-8 -56.5q0 -36 14 -62.5t38 -26.5q38 0 63.5 33t38.5 94t13 144v181h64v-151q0 -115 -18.5 -186.5t-47 -109.5t-60 -52.5t-54.5 -14.5zM34 0v63h92v1275h-92v62h224
l335 -1214h-4v1152h-92v62h245v-62h-89v-1338h-107l-360 1315h5v-1252h104v-63h-261z" />
    <glyph glyph-name="eng" unicode="&#x14b;" horiz-adv-x="673" 
d="M378 -429q-77 0 -106.5 60.5t-29.5 153.5q0 34 12.5 53t34.5 19t32.5 -18t10.5 -45q0 -17 -4 -27.5t-8.5 -21.5t-4.5 -30q0 -34 10.5 -51t25 -23t27.5 -6q28 0 50 20t36 55t21 80t7 97v837q0 107 -20 179t-81 72q-34 0 -60.5 -25.5t-44.5 -62.5t-27.5 -72.5t-9.5 -58.5
v-693h104v-63h-300v63h106v922h-106v62h195v-111q7 21 29 48.5t55 48t73 20.5q47 0 87 -21t65 -85.5t25 -196.5v-812q0 -133 -26.5 -214t-73 -117t-104.5 -36z" />
    <glyph glyph-name="Omacron" unicode="&#x14c;" horiz-adv-x="693" 
d="M345 -22q-93 0 -156.5 93.5t-95.5 255.5t-32 371q0 210 32 373t95.5 257t156.5 94q95 0 159 -94t96.5 -257t32.5 -373q0 -209 -32.5 -371t-96.5 -255.5t-159 -93.5zM345 41q48 0 83.5 49t60 138t37 209t12.5 261t-12.5 261.5t-37 210t-60 140t-83.5 50.5
q-47 0 -82.5 -50.5t-59 -140t-35 -210t-11.5 -261.5t11.5 -261t35 -209t59 -138t82.5 -49zM45 1534v62h604v-62h-604z" />
    <glyph glyph-name="omacron" unicode="&#x14d;" horiz-adv-x="585" 
d="M288 -22q-52 0 -95.5 37.5t-75.5 108.5t-49 172.5t-17 230.5q0 141 18.5 241.5t51 163.5t75.5 92.5t92 29.5t92 -29.5t76 -92.5t51.5 -163.5t18.5 -241.5q0 -129 -17 -230.5t-49 -172.5t-76 -108.5t-96 -37.5zM288 41q61 0 102 119.5t41 366.5q0 243 -41 354t-102 111
q-62 0 -103 -111t-41 -354q0 -247 41 -366.5t103 -119.5zM100 1131v62h379v-62h-379z" />
    <glyph glyph-name="obreve" unicode="&#x14f;" horiz-adv-x="585" 
d="M288 -22q-52 0 -95.5 37.5t-75.5 108.5t-49 172.5t-17 230.5q0 141 18.5 241.5t51 163.5t75.5 92.5t92 29.5t92 -29.5t76 -92.5t51.5 -163.5t18.5 -241.5q0 -129 -17 -230.5t-49 -172.5t-76 -108.5t-96 -37.5zM288 41q61 0 102 119.5t41 366.5q0 243 -41 354t-102 111
q-62 0 -103 -111t-41 -354q0 -247 41 -366.5t103 -119.5zM288 1101q-57 0 -92.5 24.5t-52 66.5t-16.5 92h59q4 -59 29.5 -89.5t72.5 -30.5q48 0 73.5 30.5t29.5 89.5h60q0 -50 -16 -92t-52.5 -66.5t-94.5 -24.5z" />
    <glyph glyph-name="Ohungarumlaut" unicode="&#x150;" horiz-adv-x="693" 
d="M345 -22q-93 0 -156.5 93.5t-95.5 255.5t-32 371q0 210 32 373t95.5 257t156.5 94q95 0 159 -94t96.5 -257t32.5 -373q0 -209 -32.5 -371t-96.5 -255.5t-159 -93.5zM345 41q48 0 83.5 49t60 138t37 209t12.5 261t-12.5 261.5t-37 210t-60 140t-83.5 50.5
q-47 0 -82.5 -50.5t-59 -140t-35 -210t-11.5 -261.5t11.5 -261t35 -209t59 -138t82.5 -49zM413 1497l-30 31l105 130q14 17 25.5 25.5t23.5 8.5q14 0 24 -10t10 -25q0 -24 -29 -45zM238 1497l-30 31l105 130q14 17 25.5 25.5t22.5 8.5q15 0 25 -10t10 -25q0 -24 -29 -45z
" />
    <glyph glyph-name="ohungarumlaut" unicode="&#x151;" horiz-adv-x="585" 
d="M288 -22q-52 0 -95.5 37.5t-75.5 108.5t-49 172.5t-17 230.5q0 141 18.5 241.5t51 163.5t75.5 92.5t92 29.5t92 -29.5t76 -92.5t51.5 -163.5t18.5 -241.5q0 -129 -17 -230.5t-49 -172.5t-76 -108.5t-96 -37.5zM288 41q61 0 102 119.5t41 366.5q0 243 -41 354t-102 111
q-62 0 -103 -111t-41 -354q0 -247 41 -366.5t103 -119.5zM315 1133l-30 31l105 130q14 17 25.5 25.5t23.5 8.5q14 0 24 -10t10 -25q0 -24 -29 -45zM140 1133l-30 31l105 130q14 17 25.5 25.5t22.5 8.5q15 0 25 -10t10 -25q0 -24 -29 -45z" />
    <glyph glyph-name="OE" unicode="&#x152;" horiz-adv-x="951" 
d="M359 -22q-95 0 -161.5 95t-101.5 257.5t-35 367.5q0 206 36 369.5t103.5 259t160.5 95.5q34 0 72 -10t60 -35l-17 -67q-21 29 -51.5 39.5t-56.5 10.5q-56 0 -96 -55.5t-66.5 -150t-39 -213t-12.5 -243.5t12.5 -243t38 -211.5t65 -148t95.5 -54.5q36 0 58.5 8t36 23
t22.5 33l25 -67q-24 -30 -62 -45t-86 -15zM459 0v1400h414v-259h-62q0 81 -6 123.5t-30.5 58t-80.5 15.5h-145v-586h227v99h62v-258h-62v97h-227v-627h136q59 0 85.5 16t33.5 59t7 124h62v-262h-414z" />
    <glyph glyph-name="oe" unicode="&#x153;" horiz-adv-x="926" 
d="M288 -22q-52 0 -95.5 37.5t-75.5 108.5t-49 172.5t-17 230.5q0 141 18.5 241.5t51 163.5t75.5 92.5t92 29.5t92 -29.5t76 -92.5t51.5 -163.5t18.5 -241.5q0 -129 -17 -230.5t-49 -172.5t-76 -108.5t-96 -37.5zM288 41q61 0 102 119.5t41 366.5q0 243 -41 354t-102 111
q-62 0 -103 -111t-41 -354q0 -247 41 -366.5t103 -119.5zM665 -22q-69 0 -113.5 48t-69 127.5t-34 176.5t-9.5 195q0 129 16 228t46 166t72 101t93 34q60 0 99 -39.5t61.5 -104.5t31.5 -143t9 -154v-42.5t-1 -40.5h-347v62h256q0 111 -9 201.5t-32.5 144.5t-67.5 54
q-41 0 -71.5 -53t-46.5 -150.5t-16 -232.5q0 -98 5.5 -190t20 -164.5t41.5 -115t71 -42.5q56 0 85.5 35t39.5 67l55 -26q-15 -57 -66 -99.5t-119 -42.5z" />
    <glyph glyph-name="Racute" unicode="&#x154;" horiz-adv-x="751" 
d="M634 -15q-51 0 -75.5 32t-32 85t-7.5 116q0 51 2 104t2 102q0 109 -14.5 166t-58.5 78.5t-133 21.5h-66v-627h94v-63h-279v63h95v1275h-95v62h314q75 0 132 -33.5t88.5 -105t31.5 -186.5q0 -88 -16.5 -153t-45.5 -108t-67.5 -65.5t-81.5 -26.5q82 -1 123.5 -37t56.5 -104
t15 -162q0 -49 -2 -101t-2 -102q0 -34 2.5 -75t10.5 -70t24 -29q8 0 15 11t7 24h57q-1 -31 -15 -51t-35.5 -30.5t-43.5 -10.5zM251 752h96q69 0 111.5 43.5t62.5 115.5t20 160q0 81 -14.5 141t-54 93t-112.5 33h-109v-586zM266 1445l-29 32l169 131q14 11 30 19.5t30 8.5
q11 0 20.5 -5.5t14.5 -15.5q5 -8 5 -18q0 -19 -18.5 -35t-42.5 -27z" />
    <glyph glyph-name="racute" unicode="&#x155;" horiz-adv-x="518" 
d="M24 0v63h102v922h-102v62h188l3 -104q2 10 19 37t48 50.5t76 23.5q46 0 74 -32.5t40.5 -88t12.5 -126.5q0 -42 -12.5 -63t-36.5 -21q-21 0 -34 16.5t-13 50.5q0 19 5 31t9 27.5t4 41.5q0 49 -17.5 71t-44.5 22q-40 0 -69 -34.5t-44.5 -85t-15.5 -97.5v-703h105v-63h-297z
M210 1077l-29 32l169 131q15 12 30.5 20t29.5 8q11 0 20.5 -5.5t14.5 -15.5q5 -8 5 -18q0 -19 -18.5 -35t-42.5 -27z" />
    <glyph glyph-name="uni0156" unicode="&#x156;" horiz-adv-x="751" 
d="M634 -15q-51 0 -75.5 32t-32 85t-7.5 116q0 51 2 104t2 102q0 109 -14.5 166t-58.5 78.5t-133 21.5h-66v-627h94v-63h-279v63h95v1275h-95v62h314q75 0 132 -33.5t88.5 -105t31.5 -186.5q0 -88 -16.5 -153t-45.5 -108t-67.5 -65.5t-81.5 -26.5q82 -1 123.5 -37t56.5 -104
t15 -162q0 -49 -2 -101t-2 -102q0 -34 2.5 -75t10.5 -70t24 -29q8 0 15 11t7 24h57q-1 -31 -15 -51t-35.5 -30.5t-43.5 -10.5zM251 752h96q69 0 111.5 43.5t62.5 115.5t20 160q0 81 -14.5 141t-54 93t-112.5 33h-109v-586zM370 -330l-29 33q10 6 27.5 23.5t18.5 29.5
q-2 -4 -12 -4q-25 0 -41 17t-16 41q0 25 17.5 41t41.5 16q29 0 46 -19t17 -51q0 -30 -11 -54.5t-27.5 -42.5t-31.5 -30z" />
    <glyph glyph-name="uni0157" unicode="&#x157;" horiz-adv-x="518" 
d="M24 0v63h102v922h-102v62h188l3 -104q2 10 19 37t48 50.5t76 23.5q46 0 74 -32.5t40.5 -88t12.5 -126.5q0 -42 -12.5 -63t-36.5 -21q-21 0 -34 16.5t-13 50.5q0 19 5 31t9 27.5t4 41.5q0 49 -17.5 71t-44.5 22q-40 0 -69 -34.5t-44.5 -85t-15.5 -97.5v-703h105v-63h-297z
M240 -330l-29 33q10 6 27.5 23.5t18.5 29.5q-2 -4 -12 -4q-25 0 -41 17t-16 41q0 25 17.5 41t41.5 16q29 0 46 -19t17 -51q0 -30 -11 -54.5t-27.5 -42.5t-31.5 -30z" />
    <glyph glyph-name="Rcaron" unicode="&#x158;" horiz-adv-x="751" 
d="M634 -15q-51 0 -75.5 32t-32 85t-7.5 116q0 51 2 104t2 102q0 109 -14.5 166t-58.5 78.5t-133 21.5h-66v-627h94v-63h-279v63h95v1275h-95v62h314q75 0 132 -33.5t88.5 -105t31.5 -186.5q0 -88 -16.5 -153t-45.5 -108t-67.5 -65.5t-81.5 -26.5q82 -1 123.5 -37t56.5 -104
t15 -162q0 -49 -2 -101t-2 -102q0 -34 2.5 -75t10.5 -70t24 -29q8 0 15 11t7 24h57q-1 -31 -15 -51t-35.5 -30.5t-43.5 -10.5zM251 752h96q69 0 111.5 43.5t62.5 115.5t20 160q0 81 -14.5 141t-54 93t-112.5 33h-109v-586zM341 1465l-151 212h66l120 -144l119 144h67
l-150 -212h-71z" />
    <glyph glyph-name="rcaron" unicode="&#x159;" horiz-adv-x="518" 
d="M24 0v63h102v922h-102v62h188l3 -104q2 10 19 37t48 50.5t76 23.5q46 0 74 -32.5t40.5 -88t12.5 -126.5q0 -42 -12.5 -63t-36.5 -21q-21 0 -34 16.5t-13 50.5q0 19 5 31t9 27.5t4 41.5q0 49 -17.5 71t-44.5 22q-40 0 -69 -34.5t-44.5 -85t-15.5 -97.5v-703h105v-63h-297z
M286 1102l-151 212h66l120 -144l119 144h67l-150 -212h-71z" />
    <glyph glyph-name="Sacute" unicode="&#x15a;" horiz-adv-x="572" 
d="M307 -27q-40 0 -67 12t-45.5 28.5t-31.5 28.5t-24 12q-20 0 -20 -54h-51v280h62q2 -33 11 -67.5t24 -65.5t36.5 -55.5t49 -38.5t59.5 -14q55 0 82.5 29.5t37 82t9.5 119.5q0 74 -26.5 147t-69 143.5t-90.5 134.5q-74 101 -113 180.5t-53.5 146t-14.5 124.5q0 85 27 147
t74.5 95.5t107.5 33.5q50 0 75.5 -17.5t38.5 -35t25 -17.5t17.5 11.5t5.5 36.5h52v-277h-62q-2 42 -12 84.5t-28.5 76t-46 54t-63.5 20.5q-60 0 -94.5 -46t-34.5 -130q0 -58 10.5 -111.5t44 -118.5t98.5 -158q56 -77 105 -159.5t80 -170t31 -177.5q0 -75 -13.5 -133
t-39.5 -98t-66.5 -61.5t-96.5 -21.5zM184 1445l-29 32l169 131q14 11 30 19.5t30 8.5q11 0 20.5 -5.5t14.5 -15.5q5 -8 5 -18q0 -19 -18.5 -35t-42.5 -27z" />
    <glyph glyph-name="sacute" unicode="&#x15b;" horiz-adv-x="502" 
d="M261 -22q-49 0 -74.5 12.5t-38.5 24.5t-25 12q-10 0 -14.5 -7.5t-4.5 -19.5h-49v277h59q4 -66 13.5 -111t26 -72.5t42 -40t61.5 -12.5q41 0 64.5 24.5t34 61t10.5 70.5q0 57 -13.5 106.5t-44.5 101t-85 110.5q-63 71 -109.5 145.5t-46.5 183.5q0 69 25 115.5t65 70.5
t86 24q38 0 61 -8t36 -17t21 -9q9 0 12 7t3 20h52v-268h-58q-4 64 -13 105.5t-24.5 64.5t-37 33t-50.5 10q-48 0 -75 -36t-27 -98q0 -72 33 -130.5t101 -135.5q58 -67 96 -126t56 -116.5t18 -121.5q0 -69 -21 -125.5t-62.5 -90.5t-102.5 -34zM143 1077l-29 32l169 131
q15 12 30.5 20t29.5 8q11 0 20.5 -5.5t14.5 -15.5q5 -8 5 -18q0 -19 -18.5 -35t-42.5 -27z" />
    <glyph glyph-name="scircumflex" unicode="&#x15d;" horiz-adv-x="502" 
d="M261 -22q-49 0 -74.5 12.5t-38.5 24.5t-25 12q-10 0 -14.5 -7.5t-4.5 -19.5h-49v277h59q4 -66 13.5 -111t26 -72.5t42 -40t61.5 -12.5q41 0 64.5 24.5t34 61t10.5 70.5q0 57 -13.5 106.5t-44.5 101t-85 110.5q-63 71 -109.5 145.5t-46.5 183.5q0 69 25 115.5t65 70.5
t86 24q38 0 61 -8t36 -17t21 -9q9 0 12 7t3 20h52v-268h-58q-4 64 -13 105.5t-24.5 64.5t-37 33t-50.5 10q-48 0 -75 -36t-27 -98q0 -72 33 -130.5t101 -135.5q58 -67 96 -126t56 -116.5t18 -121.5q0 -69 -21 -125.5t-62.5 -90.5t-102.5 -34zM71 1119l147 208h71l146 -208
h-65l-117 141l-117 -141h-65z" />
    <glyph glyph-name="Scedilla" unicode="&#x15e;" horiz-adv-x="572" 
d="M307 -27q-40 0 -67 12t-45.5 28.5t-31.5 28.5t-24 12q-20 0 -20 -54h-51v280h62q2 -33 11 -67.5t24 -65.5t36.5 -55.5t49 -38.5t59.5 -14q55 0 82.5 29.5t37 82t9.5 119.5q0 74 -26.5 147t-69 143.5t-90.5 134.5q-74 101 -113 180.5t-53.5 146t-14.5 124.5q0 85 27 147
t74.5 95.5t107.5 33.5q50 0 75.5 -17.5t38.5 -35t25 -17.5t17.5 11.5t5.5 36.5h52v-277h-62q-2 42 -12 84.5t-28.5 76t-46 54t-63.5 20.5q-60 0 -94.5 -46t-34.5 -130q0 -58 10.5 -111.5t44 -118.5t98.5 -158q56 -77 105 -159.5t80 -170t31 -177.5q0 -75 -13.5 -133
t-39.5 -98t-66.5 -61.5t-96.5 -21.5zM319 -287q-54 0 -90.5 9.5t-51.5 17.5l22 52q10 -7 41 -16t80 -9q32 0 58.5 15t26.5 43q0 30 -18 39t-43 9q-16 0 -36.5 -7t-34.5 -21l-59 4l62 151h63l-48 -103q5 7 28 16.5t51 9.5q37 0 69 -22t32 -77q0 -42 -24.5 -66.5t-60 -34.5
t-67.5 -10z" />
    <glyph glyph-name="scedilla" unicode="&#x15f;" horiz-adv-x="502" 
d="M261 -22q-49 0 -74.5 12.5t-38.5 24.5t-25 12q-10 0 -14.5 -7.5t-4.5 -19.5h-49v277h58q4 -66 13.5 -111t26 -72.5t42 -40t62.5 -12.5q41 0 64.5 24.5t34 61t10.5 70.5q0 57 -13.5 106.5t-44.5 101t-85 110.5q-63 71 -109.5 145.5t-46.5 183.5q0 67 25 114t65 71.5
t86 24.5q38 0 61 -8t36 -17t21 -9q9 0 12 7t3 20h52v-268h-57q-4 64 -12.5 105.5t-24.5 64.5t-37.5 33t-51.5 10q-48 0 -75 -36t-27 -98q0 -72 33 -130.5t101 -135.5q58 -67 96 -126t56 -116.5t18 -121.5q0 -101 -47.5 -175.5t-138.5 -74.5zM265 -287q-55 0 -91.5 9.5
t-51.5 17.5l22 52q11 -7 42 -16t79 -9q32 0 58.5 15t26.5 43q0 30 -18 39t-42 9q-16 0 -37 -7t-34 -21l-60 4l63 151h62l-47 -103q4 7 27 16.5t51 9.5q38 0 70 -22t32 -77q0 -42 -25 -66.5t-60.5 -34.5t-66.5 -10z" />
    <glyph glyph-name="Scaron" unicode="&#x160;" horiz-adv-x="572" 
d="M307 -27q-40 0 -67 12t-45.5 28.5t-31.5 28.5t-24 12q-20 0 -20 -54h-51v280h62q2 -33 11 -67.5t24 -65.5t36.5 -55.5t49 -38.5t59.5 -14q55 0 82.5 29.5t37 82t9.5 119.5q0 74 -26.5 147t-69 143.5t-90.5 134.5q-74 101 -113 180.5t-53.5 146t-14.5 124.5q0 85 27 147
t74.5 95.5t107.5 33.5q50 0 75.5 -17.5t38.5 -35t25 -17.5t17.5 11.5t5.5 36.5h52v-277h-62q-2 42 -12 84.5t-28.5 76t-46 54t-63.5 20.5q-60 0 -94.5 -46t-34.5 -130q0 -58 10.5 -111.5t44 -118.5t98.5 -158q56 -77 105 -159.5t80 -170t31 -177.5q0 -75 -13.5 -133
t-39.5 -98t-66.5 -61.5t-96.5 -21.5zM259 1465l-151 212h66l120 -144l119 144h67l-150 -212h-71z" />
    <glyph glyph-name="scaron" unicode="&#x161;" horiz-adv-x="502" 
d="M261 -22q-49 0 -74.5 12.5t-38.5 24.5t-25 12q-10 0 -14.5 -7.5t-4.5 -19.5h-49v277h59q4 -66 13.5 -111t26 -72.5t42 -40t61.5 -12.5q41 0 64.5 24.5t34 61t10.5 70.5q0 57 -13.5 106.5t-44.5 101t-85 110.5q-63 71 -109.5 145.5t-46.5 183.5q0 69 25 115.5t65 70.5
t86 24q38 0 61 -8t36 -17t21 -9q9 0 12 7t3 20h52v-268h-58q-4 64 -13 105.5t-24.5 64.5t-37 33t-50.5 10q-48 0 -75 -36t-27 -98q0 -72 33 -130.5t101 -135.5q58 -67 96 -126t56 -116.5t18 -121.5q0 -69 -21 -125.5t-62.5 -90.5t-102.5 -34zM218 1102l-151 212h66l120 -144
l119 144h67l-150 -212h-71z" />
    <glyph glyph-name="uni0162" unicode="&#x162;" horiz-adv-x="676" 
d="M182 0v63h112v1275h-101q-45 0 -64 -14.5t-23.5 -57t-4.5 -125.5h-63v259h600v-259h-62q0 83 -5 125.5t-24 57t-64 14.5h-100v-1275h116v-63h-317zM348 -287q-55 0 -91 9.5t-51 17.5l22 52q10 -7 41 -16t80 -9q32 0 58.5 15t26.5 43q0 30 -18.5 39t-42.5 9
q-16 0 -36.5 -7t-34.5 -21l-59 4l62 151h63l-48 -103q5 7 27.5 16.5t51.5 9.5q37 0 69 -22t32 -77q0 -42 -24.5 -66.5t-60.5 -34.5t-67 -10z" />
    <glyph glyph-name="uni0163" unicode="&#x163;" horiz-adv-x="391" 
d="M249 -18q-30 0 -59 11.5t-48 43t-19 93.5v855h-117v62h117q8 35 13.5 83.5t9 99.5t4.5 94h63v-277h140v-62h-140v-872q0 -42 16.5 -55.5t32.5 -13.5q21 0 34 9t21 19l37 -49q-15 -16 -43 -28.5t-62 -12.5zM265 -281q-55 0 -91.5 9.5t-51.5 17.5l23 52q10 -7 41 -16t80 -9
q31 0 58 15t27 43q0 30 -18.5 39t-42.5 9q-16 0 -37 -7t-34 -21l-59 4l62 151h63l-48 -103q5 7 27.5 16.5t51.5 9.5q37 0 69 -22t32 -77q0 -42 -25 -66.5t-60.5 -34.5t-66.5 -10z" />
    <glyph glyph-name="Tcaron" unicode="&#x164;" horiz-adv-x="676" 
d="M182 0v63h112v1275h-101q-45 0 -64 -14.5t-23.5 -57t-4.5 -125.5h-63v259h600v-259h-62q0 83 -5 125.5t-24 57t-64 14.5h-100v-1275h116v-63h-317zM309 1483l-151 212h66l120 -144l119 144h67l-150 -212h-71z" />
    <glyph glyph-name="tcaron" unicode="&#x165;" horiz-adv-x="406" 
d="M309 1200q11 44 17.5 96.5t6.5 102.5q0 38 10 57.5t31 19.5t29.5 -17.5t8.5 -49.5q0 -46 -13.5 -109t-39.5 -121zM249 -18q-30 0 -59 11.5t-48 43t-19 93.5v855h-117v62h117q8 35 13.5 83.5t9 99.5t4.5 94h63v-277h140v-62h-140v-872q0 -42 16.5 -55.5t32.5 -13.5
q21 0 34 9t21 19l37 -49q-15 -16 -43 -28.5t-62 -12.5z" />
    <glyph glyph-name="Tbar" unicode="&#x166;" horiz-adv-x="676" 
d="M133 668v63h415v-63h-415zM182 0v63h112v1275h-101q-45 0 -64 -14.5t-23.5 -57t-4.5 -125.5h-63v259h600v-259h-62q0 83 -5 125.5t-24 57t-64 14.5h-100v-1275h116v-63h-317z" />
    <glyph glyph-name="tbar" unicode="&#x167;" horiz-adv-x="391" 
d="M19 617v60h321v-60h-321zM249 -18q-30 0 -59 11.5t-48 43t-19 93.5v855h-117v62h117q8 35 13.5 83.5t9 99.5t4.5 94h63v-277h140v-62h-140v-872q0 -42 16.5 -55.5t32.5 -13.5q21 0 34 9t21 19l37 -49q-15 -16 -43 -28.5t-62 -12.5z" />
    <glyph glyph-name="Utilde" unicode="&#x168;" horiz-adv-x="708" 
d="M358 -24q-42 0 -82 15.5t-72 51t-51.5 96.5t-19.5 152v1047h-95v62h281v-62h-95v-1036q0 -149 41 -204t103 -55q31 0 57.5 12t46 40.5t31 78t11.5 123.5v1041h-83v62h240v-62h-95v-1054q0 -117 -30 -184.5t-79.5 -95.5t-108.5 -28zM439 1473q-38 0 -64 18t-48 35.5
t-48 17.5q-30 0 -45.5 -21t-20.5 -34l-59 33q5 19 20 41.5t39.5 40t58.5 17.5q39 0 66.5 -18t51 -36.5t50.5 -18.5q24 0 37.5 16.5t19.5 29.5l58 -38q-5 -16 -20 -35.5t-39 -33.5t-57 -14z" />
    <glyph glyph-name="utilde" unicode="&#x169;" horiz-adv-x="661" 
d="M302 -22q-46 0 -87.5 21.5t-67 81.5t-25.5 175v729h-104v61h194v-782q0 -88 15 -134t39 -62.5t52 -16.5q45 0 76 45t46.5 114t15.5 143v632h-103v61h193v-983h93v-63h-173l-3 130q-4 -31 -23 -66t-53 -60.5t-85 -25.5zM419 1124q-38 0 -64 18t-48 35.5t-48 17.5
q-30 0 -45.5 -21t-20.5 -34l-59 33q5 19 20 41.5t39.5 40t58.5 17.5q39 0 66.5 -18t51 -36.5t50.5 -18.5q24 0 37.5 16.5t19.5 29.5l58 -38q-5 -16 -20 -35.5t-39 -33.5t-57 -14z" />
    <glyph glyph-name="Umacron" unicode="&#x16a;" horiz-adv-x="708" 
d="M358 -24q-42 0 -82 15.5t-72 51t-51.5 96.5t-19.5 152v1047h-95v62h281v-62h-95v-1036q0 -149 41 -204t103 -55q31 0 57.5 12t46 40.5t31 78t11.5 123.5v1041h-83v62h240v-62h-95v-1054q0 -117 -30 -184.5t-79.5 -95.5t-108.5 -28zM52 1534v62h604v-62h-604z" />
    <glyph glyph-name="umacron" unicode="&#x16b;" horiz-adv-x="661" 
d="M302 -22q-46 0 -87.5 21.5t-67 81.5t-25.5 175v729h-104v61h194v-782q0 -88 15 -134t39 -62.5t52 -16.5q45 0 76 45t46.5 114t15.5 143v632h-103v61h193v-983h93v-63h-173l-3 130q-4 -31 -23 -66t-53 -60.5t-85 -25.5zM144 1131v62h379v-62h-379z" />
    <glyph glyph-name="ubreve" unicode="&#x16d;" horiz-adv-x="661" 
d="M302 -22q-46 0 -87.5 21.5t-67 81.5t-25.5 175v729h-104v61h194v-782q0 -88 15 -134t39 -62.5t52 -16.5q45 0 76 45t46.5 114t15.5 143v632h-103v61h193v-983h93v-63h-173l-3 130q-4 -31 -23 -66t-53 -60.5t-85 -25.5zM332 1101q-57 0 -92.5 24.5t-52 66.5t-16.5 92h59
q4 -59 29.5 -89.5t72.5 -30.5q48 0 73.5 30.5t29.5 89.5h60q0 -50 -16 -92t-52.5 -66.5t-94.5 -24.5z" />
    <glyph glyph-name="Uring" unicode="&#x16e;" horiz-adv-x="708" 
d="M358 -24q-42 0 -82 15.5t-72 51t-51.5 96.5t-19.5 152v1047h-95v62h281v-62h-95v-1036q0 -149 41 -204t103 -55q31 0 57.5 12t46 40.5t31 78t11.5 123.5v1041h-83v62h240v-62h-95v-1054q0 -117 -30 -184.5t-79.5 -95.5t-108.5 -28zM355 1461q-45 0 -75 32.5t-30 85.5
q0 55 30 86.5t75 31.5q44 0 74.5 -31.5t30.5 -86.5q0 -53 -30.5 -85.5t-74.5 -32.5zM355 1505q28 0 40 22t12 54q0 28 -12 50.5t-40 22.5q-26 0 -39 -22.5t-13 -50.5q0 -32 13 -54t39 -22z" />
    <glyph glyph-name="uring" unicode="&#x16f;" horiz-adv-x="661" 
d="M302 -22q-46 0 -87.5 21.5t-67 81.5t-25.5 175v729h-104v61h194v-782q0 -88 15 -134t39 -62.5t52 -16.5q45 0 76 45t46.5 114t15.5 143v632h-103v61h193v-983h93v-63h-173l-3 130q-4 -31 -23 -66t-53 -60.5t-85 -25.5zM335 1092q-45 0 -75 32.5t-30 85.5q0 55 30 86.5
t75 31.5q44 0 74.5 -31.5t30.5 -86.5q0 -53 -30.5 -85.5t-74.5 -32.5zM335 1136q28 0 40 22t12 54q0 28 -12 50.5t-40 22.5q-26 0 -39 -22.5t-13 -50.5q0 -32 13 -54t39 -22z" />
    <glyph glyph-name="Uhungarumlaut" unicode="&#x170;" horiz-adv-x="708" 
d="M358 -24q-42 0 -82 15.5t-72 51t-51.5 96.5t-19.5 152v1047h-95v62h281v-62h-95v-1036q0 -149 41 -204t103 -55q31 0 57.5 12t46 40.5t31 78t11.5 123.5v1041h-83v62h240v-62h-95v-1054q0 -117 -30 -184.5t-79.5 -95.5t-108.5 -28zM420 1497l-30 31l105 130
q14 17 25.5 25.5t23.5 8.5q14 0 24 -10t10 -25q0 -24 -29 -45zM245 1497l-30 31l105 130q14 17 25.5 25.5t22.5 8.5q15 0 25 -10t10 -25q0 -24 -29 -45z" />
    <glyph glyph-name="uhungarumlaut" unicode="&#x171;" horiz-adv-x="661" 
d="M302 -22q-46 0 -87.5 21.5t-67 81.5t-25.5 175v729h-104v61h194v-782q0 -88 15 -134t39 -62.5t52 -16.5q45 0 76 45t46.5 114t15.5 143v632h-103v61h193v-983h93v-63h-173l-3 130q-4 -31 -23 -66t-53 -60.5t-85 -25.5zM359 1133l-30 31l105 130q14 17 25.5 25.5t23.5 8.5
q14 0 24 -10t10 -25q0 -24 -29 -45zM184 1133l-30 31l105 130q14 17 25.5 25.5t22.5 8.5q15 0 25 -10t10 -25q0 -24 -29 -45z" />
    <glyph glyph-name="Uogonek" unicode="&#x172;" horiz-adv-x="708" 
d="M358 -24q-42 0 -82 15.5t-72 51t-51.5 96.5t-19.5 152v1047h-95v62h281v-62h-95v-1036q0 -149 41 -204t103 -55q31 0 57.5 12t46 40.5t31 78t11.5 123.5v1041h-83v62h240v-62h-95v-1054q0 -117 -30 -184.5t-79.5 -95.5t-108.5 -28zM496 -267q-37 0 -75 13t-63.5 43.5
t-25.5 81.5q0 43 23.5 76.5t54.5 57t53 35.5l25 -20q-20 -20 -46 -56t-26 -84q0 -53 33 -66.5t66 -13.5q23 0 55.5 6t54.5 19l28 -47q-23 -17 -64.5 -31t-92.5 -14z" />
    <glyph glyph-name="uogonek" unicode="&#x173;" horiz-adv-x="661" 
d="M302 -22q-46 0 -87.5 21.5t-67 81.5t-25.5 175v729h-104v61h194v-782q0 -88 15 -134t39 -62.5t52 -16.5q45 0 76 45t46.5 114t15.5 143v632h-103v61h193v-983h93v-63h-173l-3 130q-4 -31 -23 -66t-53 -60.5t-85 -25.5zM647 -287q-37 0 -75 13t-63.5 43.5t-25.5 82.5
q0 43 23.5 76t54.5 57t53 35l25 -20q-20 -20 -46 -56t-26 -84q0 -53 33 -66.5t66 -13.5q23 0 55.5 6.5t54.5 18.5l28 -46q-23 -17 -64.5 -31.5t-92.5 -14.5z" />
    <glyph glyph-name="Wcircumflex" unicode="&#x174;" horiz-adv-x="1010" 
d="M284 -3l-153 1341h-106v62h299v-62h-94l121 -1182l-13 -13l152 1187l17 -137l-24 145h-102v62h299v-62h-100l154 -1179l-10 -13l122 1192h-83v62h240v-62h-88l-156 -1341h-88l-159 1179l25 28l-166 -1207h-87zM334 1458l147 208h71l146 -208h-65l-117 141l-117 -141h-65z
" />
    <glyph glyph-name="wcircumflex" unicode="&#x175;" horiz-adv-x="927" 
d="M599 -6l-142 991h-93v62h255v-62h-70l111 -846l104 846h-73v62h219v-62h-80l-130 -991h-101zM231 -6l-132 991h-80v62h251v-62h-76l100 -846l114 846h-63v62h217v-62h-90l-140 -991h-101zM272 1119l147 208h71l146 -208h-65l-117 141l-117 -141h-65z" />
    <glyph glyph-name="Ycircumflex" unicode="&#x176;" horiz-adv-x="670" 
d="M199 0v63h96v526l-177 749h-91v62h271v-62h-74l155 -714h-44l169 714h-76v62h234v-62h-92l-185 -743v-532h87v-63h-273zM154 1458l147 208h71l146 -208h-65l-117 141l-117 -141h-65z" />
    <glyph glyph-name="ycircumflex" unicode="&#x177;" horiz-adv-x="597" 
d="M166 -502q-37 0 -59 28.5t-31.5 77.5t-9.5 112q0 36 11 56t34 20t33.5 -18t10.5 -45q0 -20 -5 -34.5t-10.5 -28.5t-5.5 -35q0 -28 7.5 -55t26.5 -27q12 0 20 14t14.5 41t13.5 63l68 356l-177 962h-82v62h251v-62h-73l125 -710l121 710h-74v62h224v-62h-81l-178 -992
l-67 -343q-10 -51 -23.5 -85t-33.5 -50.5t-50 -16.5zM126 1119l147 208h71l146 -208h-65l-117 141l-117 -141h-65z" />
    <glyph glyph-name="Ydieresis" unicode="&#x178;" horiz-adv-x="670" 
d="M199 0v63h96v526l-177 749h-91v62h271v-62h-74l155 -714h-44l169 714h-76v62h234v-62h-92l-185 -743v-532h87v-63h-273zM446 1499q-28 0 -48 19.5t-20 46.5q0 29 20 50t48 21q26 0 46.5 -21t20.5 -50q0 -27 -20.5 -46.5t-46.5 -19.5zM226 1499q-26 0 -46.5 19.5
t-20.5 46.5q0 29 20.5 50t46.5 21q27 0 48.5 -21t21.5 -50q0 -27 -21.5 -46.5t-48.5 -19.5z" />
    <glyph glyph-name="Zacute" unicode="&#x179;" horiz-adv-x="588" 
d="M58 0v63l349 1275h-111q-77 0 -111.5 -15.5t-43.5 -58t-9 -123.5h-62v259h439v-61l-354 -1276h157q69 0 101.5 16t42.5 59t10 124h63v-262h-471zM194 1445l-29 32l169 131q14 11 30 19.5t30 8.5q11 0 20.5 -5.5t14.5 -15.5q5 -8 5 -18q0 -19 -18.5 -35t-42.5 -27z" />
    <glyph glyph-name="zacute" unicode="&#x17a;" horiz-adv-x="501" 
d="M72 0v63l259 922h-100q-45 0 -64 -13.5t-23.5 -57.5t-4.5 -135h-60v268h343v-62l-259 -922h91q53 0 75 14.5t27 61t5 138.5h62v-277h-351zM142 1077l-29 32l169 131q15 12 30.5 20t29.5 8q11 0 20.5 -5.5t14.5 -15.5q5 -8 5 -18q0 -19 -18.5 -35t-42.5 -27z" />
    <glyph glyph-name="Zdotaccent" unicode="&#x17b;" horiz-adv-x="588" 
d="M58 0v63l349 1275h-111q-77 0 -111.5 -15.5t-43.5 -58t-9 -123.5h-62v259h439v-61l-354 -1276h157q69 0 101.5 16t42.5 59t10 124h63v-262h-471zM304 1505q-27 0 -48 19.5t-21 46.5q0 28 21 49t48 21q26 0 47 -21t21 -49q0 -27 -21 -46.5t-47 -19.5z" />
    <glyph glyph-name="zdotaccent" unicode="&#x17c;" horiz-adv-x="501" 
d="M72 0v63l259 922h-100q-45 0 -64 -13.5t-23.5 -57.5t-4.5 -135h-60v268h343v-62l-259 -922h91q53 0 75 14.5t27 61t5 138.5h62v-277h-351zM252 1127q-27 0 -48 20t-21 46q0 28 21 49t48 21q26 0 47 -21t21 -49q0 -26 -21 -46t-47 -20z" />
    <glyph glyph-name="Zcaron" unicode="&#x17d;" horiz-adv-x="588" 
d="M58 0v63l349 1275h-111q-77 0 -111.5 -15.5t-43.5 -58t-9 -123.5h-62v259h439v-61l-354 -1276h157q69 0 101.5 16t42.5 59t10 124h63v-262h-471zM269 1465l-151 212h66l120 -144l119 144h67l-150 -212h-71z" />
    <glyph glyph-name="zcaron" unicode="&#x17e;" horiz-adv-x="501" 
d="M72 0v63l259 922h-100q-45 0 -64 -13.5t-23.5 -57.5t-4.5 -135h-60v268h343v-62l-259 -922h91q53 0 75 14.5t27 61t5 138.5h62v-277h-351zM217 1102l-151 212h66l120 -144l119 144h67l-150 -212h-71z" />
    <glyph glyph-name="uni018F" unicode="&#x18f;" horiz-adv-x="645" 
d="M310 -25q-70 0 -117.5 55t-75 146.5t-39.5 206t-12 235.5q0 29 0.5 57.5t1.5 55.5h440v-62h-345q0 -179 12 -322t44 -226t91 -83q57 0 97 78.5t61.5 217.5t21.5 320q0 134 -6 261t-25 229t-55.5 162.5t-96.5 60.5q-50 0 -84 -28t-54 -66t-28 -68l-61 34q19 51 53.5 94.5
t80 70.5t97.5 27q87 0 141 -65t83 -173t40 -239.5t11 -264.5q0 -169 -19 -301t-54 -224t-86 -140.5t-117 -48.5zM62 1205v195h61q0 -26 6 -56t14 -30l-2 -109h-79z" />
    <glyph glyph-name="florin" unicode="&#x192;" horiz-adv-x="620" 
d="M-5 -420q-45 0 -73.5 22t-42.5 63.5t-14 101.5q0 32 10.5 50.5t32.5 18.5q21 0 31 -15.5t10 -39.5q0 -18 -3 -25t-5.5 -14.5t-2.5 -27.5q0 -24 10 -48.5t34 -24.5q33 0 56.5 35.5t39.5 88.5t25 108.5t12 95.5l89 1016h-106v62h107l4 45q16 170 47 261t76.5 124.5
t104.5 33.5q54 0 89 -33t52 -86.5t17 -116.5q0 -36 -11.5 -56t-35.5 -20q-21 0 -30.5 19t-9.5 49q0 19 3.5 30t6.5 23t3 32q0 50 -25 72t-58 22q-55 0 -83 -45.5t-40.5 -126t-22.5 -185.5l-4 -42h124v-62h-131l-78 -972q-5 -56 -14 -116.5t-23.5 -117t-37 -101.5t-55 -71.5
t-78.5 -26.5z" />
    <glyph glyph-name="Ohorn" unicode="&#x1a0;" horiz-adv-x="693" 
d="M345 -22q-93 0 -156.5 93.5t-95.5 255.5t-32 371q0 210 32 373t95.5 257t156.5 94q95 0 159 -94t96.5 -257t32.5 -373q0 -209 -32.5 -371t-96.5 -255.5t-159 -93.5zM345 41q48 0 83.5 49t60 138t37 209t12.5 261t-12.5 261.5t-37 210t-60 140t-83.5 50.5
q-47 0 -82.5 -50.5t-59 -140t-35 -210t-11.5 -261.5t11.5 -261t35 -209t59 -138t82.5 -49zM444 1327v63q52 0 94 15t42 66q0 19 -2.5 43t-2.5 41q0 30 15.5 47.5t39.5 17.5q23 0 39 -17t16 -48q0 -93 -39.5 -142.5t-95.5 -67.5t-106 -18z" />
    <glyph glyph-name="ohorn" unicode="&#x1a1;" horiz-adv-x="585" 
d="M288 -22q-52 0 -95.5 37.5t-75.5 108.5t-49 172.5t-17 230.5q0 141 18.5 241.5t51 163.5t75.5 92.5t92 29.5t92 -29.5t76 -92.5t51.5 -163.5t18.5 -241.5q0 -129 -17 -230.5t-49 -172.5t-76 -108.5t-96 -37.5zM288 41q61 0 102 119.5t41 366.5q0 243 -41 354t-102 111
q-62 0 -103 -111t-41 -354q0 -247 41 -366.5t103 -119.5zM384 954v62q52 0 94 15t42 66q0 19 -2.5 43t-2.5 41q0 30 15.5 47.5t39.5 17.5q23 0 39 -17t16 -48q0 -93 -39.5 -142.5t-95.5 -67t-106 -17.5z" />
    <glyph glyph-name="Uhorn" unicode="&#x1af;" horiz-adv-x="708" 
d="M358 -24q-42 0 -82 15.5t-72 51t-51.5 96.5t-19.5 152v1047h-95v62h281v-62h-95v-1036q0 -149 41 -204t103 -55q31 0 57.5 12t46 40.5t31 78t11.5 123.5v1041h-83v62h167v-62h-22v-1054q0 -117 -30 -184.5t-79.5 -95.5t-108.5 -28zM598 1338v62q53 0 95 15t42 66
q0 19 -3 43t-3 41q0 30 16 47.5t40 17.5q23 0 39 -17t16 -48q0 -93 -40 -142.5t-96 -67t-106 -17.5z" />
    <glyph glyph-name="uhorn" unicode="&#x1b0;" horiz-adv-x="661" 
d="M302 -22q-46 0 -87.5 21.5t-67 81.5t-25.5 175v729h-104v61h194v-782q0 -88 15 -134t39 -62.5t52 -16.5q45 0 76 45t46.5 114t15.5 143v632h-103v61h193v-983h93v-63h-173l-3 130q-4 -31 -23 -66t-53 -60.5t-85 -25.5zM521 984v62q53 0 94.5 15t41.5 66q0 19 -2.5 43
t-2.5 41q0 30 16 47.5t39 17.5q24 0 39.5 -17t15.5 -48q0 -93 -39.5 -142.5t-95.5 -67t-106 -17.5z" />
    <glyph glyph-name="uni01C6" unicode="&#x1c6;" horiz-adv-x="1130" 
d="M285 -20q-63 0 -110 54t-73 172.5t-26 311.5q0 194 26 311.5t72 170.5t105 53q46 0 75 -20.5t44.5 -49t19.5 -52.5v506h-111v63h202v-1437h109v-63h-193l-4 132q-2 -26 -18 -62.5t-45 -63t-73 -26.5zM299 54q34 0 59 42.5t41 105t19 122.5v438q-4 50 -22 98t-45 79
t-58 31q-36 0 -60 -35.5t-38 -98t-20 -145t-6 -178.5q0 -115 7.5 -201.5t23 -143.5t40 -85.5t59.5 -28.5zM701 0v63l259 922h-100q-45 0 -64 -13.5t-23.5 -57.5t-4.5 -135h-60v268h343v-62l-259 -922h91q53 0 75 14.5t27 61t5 138.5h62v-277h-351zM846 1102l-151 212h66
l120 -144l119 144h67l-150 -212h-71z" />
    <glyph glyph-name="uni01C7" unicode="&#x1c7;" horiz-adv-x="1131" 
d="M67 0v63h90v1275h-90v62h271v-62h-91v-1275h136q26 0 42 16t24.5 59t8.5 124h62v-262h-453zM790 -26q-59 0 -96.5 28t-55 83t-17.5 136q0 49 15 68t38 19t36.5 -16t13.5 -52q0 -22 -5.5 -38t-11 -34.5t-5.5 -49.5q0 -34 24 -56.5t58 -22.5q52 0 86.5 48t34.5 182v1069
h-98v62h282v-62h-94v-978q0 -112 -14.5 -186.5t-41.5 -118t-65 -62.5t-84 -19z" />
    <glyph glyph-name="uni01C8" unicode="&#x1c8;" horiz-adv-x="856" 
d="M67 0v63h90v1275h-90v62h271v-62h-91v-1275h136q26 0 42 16t24.5 59t8.5 124h62v-262h-453zM555 -498q-46 0 -78 28.5t-49 77.5t-17 112q0 36 14 56t37 20t35 -18t12 -45q0 -19 -3 -36t-7 -34.5t-4 -38.5q0 -25 9.5 -37.5t22.5 -16t26 -3.5q57 0 86.5 68t29.5 196v1154
h-110v62h200v-1148q0 -106 -15.5 -181t-43.5 -123t-65 -70.5t-80 -22.5zM710 1272q-36 0 -60.5 24t-24.5 58q0 35 24.5 59t60.5 24q33 0 56 -24t23 -59q0 -34 -23 -58t-56 -24z" />
    <glyph glyph-name="uni01C9" unicode="&#x1c9;" horiz-adv-x="659" 
d="M46 0v63h92v1375h-92v62h180v-1437h94v-63h-274zM358 -498q-46 0 -78 28.5t-49 77.5t-17 112q0 36 14 56t37 20t35 -18t12 -45q0 -19 -3 -36t-7 -34.5t-4 -38.5q0 -25 9.5 -37.5t22.5 -16t26 -3.5q57 0 86.5 68t29.5 196v1154h-110v62h200v-1148q0 -106 -15.5 -181
t-43.5 -123t-65 -70.5t-80 -22.5zM513 1272q-36 0 -60.5 24t-24.5 58q0 35 24.5 59t60.5 24q33 0 56 -24t23 -59q0 -34 -23 -58t-56 -24z" />
    <glyph glyph-name="uni01CA" unicode="&#x1ca;" horiz-adv-x="1275" 
d="M34 0v63h92v1275h-92v62h224l335 -1214h-4v1152h-92v62h245v-62h-89v-1338h-107l-360 1315h5v-1252h104v-63h-261zM934 -26q-59 0 -96.5 28t-55 83t-17.5 136q0 49 15 68t38 19t36.5 -16t13.5 -52q0 -22 -5.5 -38t-11 -34.5t-5.5 -49.5q0 -34 24 -56.5t58 -22.5
q52 0 86.5 48t34.5 182v1069h-98v62h282v-62h-94v-978q0 -112 -14.5 -186.5t-41.5 -118t-65 -62.5t-84 -19z" />
    <glyph glyph-name="uni01CB" unicode="&#x1cb;" horiz-adv-x="1090" 
d="M34 0v63h92v1275h-92v62h224l335 -1214h-4v1152h-92v62h245v-62h-89v-1338h-107l-360 1315h5v-1252h104v-63h-261zM788 -498q-46 0 -78 28.5t-49 77.5t-17 112q0 36 14 56t37 20t35 -18t12 -45q0 -19 -3 -36t-7 -34.5t-4 -38.5q0 -25 9.5 -37.5t22.5 -16t26 -3.5
q57 0 86.5 68t29.5 196v1154h-110v62h200v-1148q0 -106 -15.5 -181t-43.5 -123t-65 -70.5t-80 -22.5zM943 1272q-36 0 -60.5 24t-24.5 58q0 35 24.5 59t60.5 24q33 0 56 -24t23 -59q0 -34 -23 -58t-56 -24z" />
    <glyph glyph-name="uni01CC" unicode="&#x1cc;" horiz-adv-x="981" 
d="M35 0v63h101v922h-101v62h190v-112q6 28 28.5 55.5t58 45.5t78.5 18q38 0 77 -20.5t66 -83.5t27 -189v-698h101v-63h-284v63h93v675q0 131 -26.5 186t-82.5 55q-29 0 -54 -21t-43 -55t-28 -73t-10 -75v-692h93v-63h-284zM680 -498q-46 0 -78 28.5t-49 77.5t-17 112
q0 36 14 56t37 20t35 -18t12 -45q0 -19 -3 -36t-7 -34.5t-4 -38.5q0 -25 9.5 -37.5t22.5 -16t26 -3.5q57 0 86.5 68t29.5 196v1154h-110v62h200v-1148q0 -106 -15.5 -181t-43.5 -123t-65 -70.5t-80 -22.5zM835 1272q-36 0 -60.5 24t-24.5 58q0 35 24.5 59t60.5 24
q33 0 56 -24t23 -59q0 -34 -23 -58t-56 -24z" />
    <glyph glyph-name="uni01CE" unicode="&#x1ce;" horiz-adv-x="595" 
d="M250 -20q-57 0 -100 28.5t-67.5 86t-24.5 143.5q0 91 33.5 151.5t83 103t99 77.5t83 73t33.5 91q0 77 -11 134t-37.5 88.5t-72.5 31.5q-51 0 -84.5 -36.5t-33.5 -82.5q0 -20 4.5 -31t8 -21.5t3.5 -29.5q0 -27 -11.5 -45.5t-35.5 -18.5q-23 0 -34.5 20.5t-11.5 56.5
q0 72 25 129.5t71 91t107 33.5q62 0 107.5 -30.5t70.5 -98t25 -179.5v-626q0 -38 9.5 -51t27.5 -13q15 0 24.5 5.5t13.5 10.5l31 -55q-11 -11 -34.5 -19t-53.5 -8q-27 0 -49 10.5t-34.5 30.5t-13.5 50q-6 -19 -23 -43t-48 -41t-80 -17zM263 50q43 0 71 32.5t42 75.5t14 73
v372q-2 -28 -38 -56.5t-81 -66t-80 -94.5t-35 -144q0 -94 27.5 -143t79.5 -49zM248 1102l-151 212h66l120 -144l119 144h67l-150 -212h-71z" />
    <glyph glyph-name="uni01D0" unicode="&#x1d0;" horiz-adv-x="373" 
d="M38 0v63h108v922h-108v62h198v-984h110v-63h-308zM156 1102l-151 212h66l120 -144l119 144h67l-150 -212h-71z" />
    <glyph glyph-name="uni01D2" unicode="&#x1d2;" horiz-adv-x="585" 
d="M288 -22q-52 0 -95.5 37.5t-75.5 108.5t-49 172.5t-17 230.5q0 141 18.5 241.5t51 163.5t75.5 92.5t92 29.5t92 -29.5t76 -92.5t51.5 -163.5t18.5 -241.5q0 -129 -17 -230.5t-49 -172.5t-76 -108.5t-96 -37.5zM288 41q61 0 102 119.5t41 366.5q0 243 -41 354t-102 111
q-62 0 -103 -111t-41 -354q0 -247 41 -366.5t103 -119.5zM255 1102l-151 212h66l120 -144l119 144h67l-150 -212h-71z" />
    <glyph glyph-name="uni01D4" unicode="&#x1d4;" horiz-adv-x="661" 
d="M302 -22q-46 0 -87.5 21.5t-67 81.5t-25.5 175v729h-104v61h194v-782q0 -88 15 -134t39 -62.5t52 -16.5q45 0 76 45t46.5 114t15.5 143v632h-103v61h193v-983h93v-63h-173l-3 130q-4 -31 -23 -66t-53 -60.5t-85 -25.5zM299 1102l-151 212h66l120 -144l119 144h67
l-150 -212h-71z" />
    <glyph glyph-name="uni01D6" unicode="&#x1d6;" horiz-adv-x="661" 
d="M302 -22q-46 0 -87.5 21.5t-67 81.5t-25.5 175v729h-104v61h194v-782q0 -88 15 -134t39 -62.5t52 -16.5q45 0 76 45t46.5 114t15.5 143v632h-103v61h193v-983h93v-63h-173l-3 130q-4 -31 -23 -66t-53 -60.5t-85 -25.5zM444 1123q-28 0 -48 20t-20 46q0 29 20 50t48 21
q26 0 46.5 -21t20.5 -50q0 -26 -20.5 -46t-46.5 -20zM224 1123q-26 0 -46.5 20t-20.5 46q0 29 20.5 50t46.5 21q27 0 48.5 -21t21.5 -50q0 -26 -21.5 -46t-48.5 -20zM144 1345v62h379v-62h-379z" />
    <glyph glyph-name="uni01D8" unicode="&#x1d8;" horiz-adv-x="661" 
d="M302 -22q-46 0 -87.5 21.5t-67 81.5t-25.5 175v729h-104v61h194v-782q0 -88 15 -134t39 -62.5t52 -16.5q45 0 76 45t46.5 114t15.5 143v632h-103v61h193v-983h93v-63h-173l-3 130q-4 -31 -23 -66t-53 -60.5t-85 -25.5zM444 1123q-28 0 -48 20t-20 46q0 29 20 50t48 21
q26 0 46.5 -21t20.5 -50q0 -26 -20.5 -46t-46.5 -20zM224 1123q-26 0 -46.5 20t-20.5 46q0 29 20.5 50t46.5 21q27 0 48.5 -21t21.5 -50q0 -26 -21.5 -46t-48.5 -20zM224 1291l-29 32l169 131q15 12 30.5 20t29.5 8q11 0 20.5 -5.5t14.5 -15.5q5 -8 5 -18q0 -19 -18.5 -35
t-42.5 -27z" />
    <glyph glyph-name="uni01DA" unicode="&#x1da;" horiz-adv-x="661" 
d="M302 -22q-46 0 -87.5 21.5t-67 81.5t-25.5 175v729h-104v61h194v-782q0 -88 15 -134t39 -62.5t52 -16.5q45 0 76 45t46.5 114t15.5 143v632h-103v61h193v-983h93v-63h-173l-3 130q-4 -31 -23 -66t-53 -60.5t-85 -25.5zM444 1123q-28 0 -48 20t-20 46q0 29 20 50t48 21
q26 0 46.5 -21t20.5 -50q0 -26 -20.5 -46t-46.5 -20zM224 1123q-26 0 -46.5 20t-20.5 46q0 29 20.5 50t46.5 21q27 0 48.5 -21t21.5 -50q0 -26 -21.5 -46t-48.5 -20zM299 1316l-151 212h66l120 -144l119 144h67l-150 -212h-71z" />
    <glyph glyph-name="uni01DC" unicode="&#x1dc;" horiz-adv-x="661" 
d="M302 -22q-46 0 -87.5 21.5t-67 81.5t-25.5 175v729h-104v61h194v-782q0 -88 15 -134t39 -62.5t52 -16.5q45 0 76 45t46.5 114t15.5 143v632h-103v61h193v-983h93v-63h-173l-3 130q-4 -31 -23 -66t-53 -60.5t-85 -25.5zM444 1123q-28 0 -48 20t-20 46q0 29 20 50t48 21
q26 0 46.5 -21t20.5 -50q0 -26 -20.5 -46t-46.5 -20zM224 1123q-26 0 -46.5 20t-20.5 46q0 29 20.5 50t46.5 21q27 0 48.5 -21t21.5 -50q0 -26 -21.5 -46t-48.5 -20zM448 1316l-196 91q-24 12 -37 22.5t-13 33.5q0 21 13.5 31t33.5 10q18 0 31.5 -6.5t26.5 -17.5l165 -135z
" />
    <glyph glyph-name="uni01DF" unicode="&#x1df;" horiz-adv-x="595" 
d="M250 -20q-57 0 -100 28.5t-67.5 86t-24.5 143.5q0 91 33.5 151.5t83 103t99 77.5t83 73t33.5 91q0 77 -11 134t-37.5 88.5t-72.5 31.5q-51 0 -84.5 -36.5t-33.5 -82.5q0 -20 4.5 -31t8 -21.5t3.5 -29.5q0 -27 -11.5 -45.5t-35.5 -18.5q-23 0 -34.5 20.5t-11.5 56.5
q0 72 25 129.5t71 91t107 33.5q62 0 107.5 -30.5t70.5 -98t25 -179.5v-626q0 -38 9.5 -51t27.5 -13q15 0 24.5 5.5t13.5 10.5l31 -55q-11 -11 -34.5 -19t-53.5 -8q-27 0 -49 10.5t-34.5 30.5t-13.5 50q-6 -19 -23 -43t-48 -41t-80 -17zM263 50q43 0 71 32.5t42 75.5t14 73
v372q-2 -28 -38 -56.5t-81 -66t-80 -94.5t-35 -144q0 -94 27.5 -143t79.5 -49zM392 1123q-28 0 -48 20t-20 46q0 29 20 50t48 21q26 0 46.5 -21t20.5 -50q0 -26 -20.5 -46t-46.5 -20zM172 1123q-26 0 -46.5 20t-20.5 46q0 29 20.5 50t46.5 21q27 0 48.5 -21t21.5 -50
q0 -26 -21.5 -46t-48.5 -20zM93 1345v62h379v-62h-379z" />
    <glyph glyph-name="gcaron" unicode="&#x1e7;" horiz-adv-x="611" 
d="M309 -498q-86 0 -143.5 38.5t-86 99.5t-28.5 129q0 61 14 104t35.5 71t43.5 44t38 23q-10 2 -28 11t-36.5 26t-32.5 45.5t-14 69.5t16 69.5t38 43.5t41 16q3 1 8 1t6 -1q-13 12 -28.5 39t-28.5 69.5t-21 100t-8 130.5q0 119 16.5 200t46.5 130t69.5 71t86.5 22
q72 0 117.5 -49.5t67 -140t21.5 -213.5q0 -110 -15 -189.5t-43.5 -131t-67.5 -75.5t-86 -24q-40 0 -61.5 11t-24.5 12q-1 1 -2.5 1.5t-5.5 0.5q-21 0 -44.5 -23.5t-23.5 -59.5q0 -50 37 -77t137 -40q132 -16 192 -82t60 -189q0 -71 -21 -124t-58 -88.5t-83.5 -53
t-99.5 -17.5zM309 -439q78 0 126 56.5t48 143.5q0 106 -31.5 152t-108.5 61q-21 4 -40 8.5t-33.5 8t-21.5 4.5q-39 -21 -63 -55t-35.5 -76t-11.5 -87q0 -52 18.5 -101.5t56.5 -82t96 -32.5zM307 294q33 0 60 28.5t42.5 105t15.5 219.5q0 140 -15.5 214t-41 102t-57.5 28
t-60 -28t-45 -104t-17 -218q0 -141 16.5 -215.5t43.5 -103t58 -28.5zM385 994q7 52 46.5 83t81.5 31q36 0 51 -15t15 -43q0 -22 -13 -36.5t-35 -14.5q-17 0 -25.5 8t-15 16t-20.5 8t-23.5 -11.5t-9.5 -30.5zM271 1102l-151 212h66l120 -144l119 144h67l-150 -212h-71z" />
    <glyph glyph-name="uni01EA" unicode="&#x1ea;" horiz-adv-x="693" 
d="M345 -22q-93 0 -156.5 93.5t-95.5 255.5t-32 371q0 210 32 373t95.5 257t156.5 94q95 0 159 -94t96.5 -257t32.5 -373q0 -209 -32.5 -371t-96.5 -255.5t-159 -93.5zM345 41q48 0 83.5 49t60 138t37 209t12.5 261t-12.5 261.5t-37 210t-60 140t-83.5 50.5
q-47 0 -82.5 -50.5t-59 -140t-35 -210t-11.5 -261.5t11.5 -261t35 -209t59 -138t82.5 -49zM444 -282q-37 0 -75 13t-63 43.5t-25 82.5q0 43 23 76t54 57t53 35l26 -20q-21 -20 -46.5 -56t-25.5 -84q0 -53 32.5 -66.5t65.5 -13.5q23 0 55.5 6.5t54.5 18.5l28 -46
q-22 -17 -63.5 -31.5t-93.5 -14.5z" />
    <glyph glyph-name="uni01EB" unicode="&#x1eb;" horiz-adv-x="585" 
d="M288 -22q-52 0 -95.5 37.5t-75.5 108.5t-49 172.5t-17 230.5q0 141 18.5 241.5t51 163.5t75.5 92.5t92 29.5t92 -29.5t76 -92.5t51.5 -163.5t18.5 -241.5q0 -129 -17 -230.5t-49 -172.5t-76 -108.5t-96 -37.5zM288 41q61 0 102 119.5t41 366.5q0 243 -41 354t-102 111
q-62 0 -103 -111t-41 -354q0 -247 41 -366.5t103 -119.5zM396 -265q-38 0 -76 13t-63 43.5t-25 82.5q0 43 23.5 76t54.5 57t53 35l25 -20q-20 -20 -46 -56t-26 -84q0 -53 33 -66.5t66 -13.5q23 0 55.5 6.5t54.5 18.5l28 -46q-23 -17 -64.5 -31.5t-92.5 -14.5z" />
    <glyph glyph-name="aringacute" unicode="&#x1fb;" horiz-adv-x="595" 
d="M250 -20q-57 0 -100 28.5t-67.5 86t-24.5 143.5q0 91 33.5 151.5t83 103t99 77.5t83 73t33.5 91q0 77 -11 134t-37.5 88.5t-72.5 31.5q-51 0 -84.5 -36.5t-33.5 -82.5q0 -20 4.5 -31t8 -21.5t3.5 -29.5q0 -27 -11.5 -45.5t-35.5 -18.5q-23 0 -34.5 20.5t-11.5 56.5
q0 72 25 129.5t71 91t107 33.5q62 0 107.5 -30.5t70.5 -98t25 -179.5v-626q0 -38 9.5 -51t27.5 -13q15 0 24.5 5.5t13.5 10.5l31 -55q-11 -11 -34.5 -19t-53.5 -8q-27 0 -49 10.5t-34.5 30.5t-13.5 50q-6 -19 -23 -43t-48 -41t-80 -17zM263 50q43 0 71 32.5t42 75.5t14 73
v372q-2 -28 -38 -56.5t-81 -66t-80 -94.5t-35 -144q0 -94 27.5 -143t79.5 -49zM283 1092q-45 0 -75 32.5t-30 85.5q0 55 30 86.5t75 31.5q44 0 74.5 -31.5t30.5 -86.5q0 -53 -30.5 -85.5t-74.5 -32.5zM283 1136q28 0 40 22t12 54q0 28 -12 50.5t-40 22.5q-26 0 -39 -22.5
t-13 -50.5q0 -32 13 -54t39 -22zM172 1358l-29 32l169 131q15 12 30.5 20t29.5 8q11 0 20.5 -5.5t14.5 -15.5q5 -8 5 -18q0 -19 -18.5 -35t-42.5 -27z" />
    <glyph glyph-name="aeacute" unicode="&#x1fd;" horiz-adv-x="853" 
d="M234 -17q-85 0 -130.5 62t-45.5 158q0 101 31.5 167.5t77.5 112t92.5 80.5t77.5 73t31 90q0 62 -9.5 122.5t-33.5 100t-68 39.5q-36 0 -67 -24t-31 -76q0 -21 3 -33t6 -22.5t3 -29.5q0 -27 -11 -44.5t-35 -17.5q-23 0 -34 20t-11 56q0 64 21.5 117.5t63.5 86.5t102 33
q61 0 103.5 -39.5t65 -115.5t22.5 -188v-405q0 -51 -5 -90t-17.5 -72t-35.5 -70q-18 -28 -62.5 -59.5t-103.5 -31.5zM248 55q48 0 84 54t36 125v358q-2 -28 -34.5 -56.5t-74 -66.5t-73 -97t-31.5 -148q0 -49 8.5 -87.5t29.5 -60t55 -21.5zM592 -22q-69 0 -113.5 48
t-69 127.5t-34.5 176.5t-10 195q0 129 16.5 228t46.5 166t71.5 101t93.5 34q59 0 98.5 -39.5t61.5 -104.5t31.5 -143t9.5 -154v-42.5t-1 -40.5h-347v62h256q0 111 -9 201.5t-32.5 144.5t-67.5 54q-42 0 -72 -53t-46 -150.5t-16 -232.5q0 -98 5.5 -190t19.5 -164.5t41.5 -115
t71.5 -42.5q56 0 85.5 35t38.5 67l56 -26q-16 -57 -66.5 -99.5t-118.5 -42.5zM337 1077l-29 32l169 131q15 12 30.5 20t29.5 8q11 0 20.5 -5.5t14.5 -15.5q5 -8 5 -18q0 -19 -18.5 -35t-42.5 -27z" />
    <glyph glyph-name="Oslashacute" unicode="&#x1fe;" horiz-adv-x="742" 
d="M101 -104l505 1608h64l-502 -1608h-67zM345 -22q-93 0 -156.5 93.5t-95.5 255.5t-32 371q0 210 32 373t95.5 257t156.5 94q95 0 159 -94t96.5 -257t32.5 -373q0 -209 -32.5 -371t-96.5 -255.5t-159 -93.5zM345 41q48 0 83.5 49t60 138t37 209t12.5 261t-12.5 261.5
t-37 210t-60 140t-83.5 50.5q-47 0 -82.5 -50.5t-59 -140t-35 -210t-11.5 -261.5t11.5 -261t35 -209t59 -138t82.5 -49zM237 1445l-29 32l169 131q14 11 30 19.5t30 8.5q11 0 20.5 -5.5t14.5 -15.5q5 -8 5 -18q0 -19 -18.5 -35t-42.5 -27z" />
    <glyph glyph-name="oslashacute" unicode="&#x1ff;" horiz-adv-x="611" 
d="M66 -104l421 1224h58l-423 -1224h-56zM288 -22q-52 0 -95.5 37.5t-75.5 108.5t-49 172.5t-17 230.5q0 141 18.5 241.5t51 163.5t75.5 92.5t92 29.5t92 -29.5t76 -92.5t51.5 -163.5t18.5 -241.5q0 -129 -17 -230.5t-49 -172.5t-76 -108.5t-96 -37.5zM288 41
q61 0 102 119.5t41 366.5q0 243 -41 354t-102 111q-62 0 -103 -111t-41 -354q0 -247 41 -366.5t103 -119.5zM180 1077l-29 32l169 131q15 12 30.5 20t29.5 8q11 0 20.5 -5.5t14.5 -15.5q5 -8 5 -18q0 -19 -18.5 -35t-42.5 -27z" />
    <glyph glyph-name="uni0201" unicode="&#x201;" horiz-adv-x="595" 
d="M250 -20q-57 0 -100 28.5t-67.5 86t-24.5 143.5q0 91 33.5 151.5t83 103t99 77.5t83 73t33.5 91q0 77 -11 134t-37.5 88.5t-72.5 31.5q-51 0 -84.5 -36.5t-33.5 -82.5q0 -20 4.5 -31t8 -21.5t3.5 -29.5q0 -27 -11.5 -45.5t-35.5 -18.5q-23 0 -34.5 20.5t-11.5 56.5
q0 72 25 129.5t71 91t107 33.5q62 0 107.5 -30.5t70.5 -98t25 -179.5v-626q0 -38 9.5 -51t27.5 -13q15 0 24.5 5.5t13.5 10.5l31 -55q-11 -11 -34.5 -19t-53.5 -8q-27 0 -49 10.5t-34.5 30.5t-13.5 50q-6 -19 -23 -43t-48 -41t-80 -17zM263 50q43 0 71 32.5t42 75.5t14 73
v372q-2 -28 -38 -56.5t-81 -66t-80 -94.5t-35 -144q0 -94 27.5 -143t79.5 -49zM396 1109l-154 152q-14 15 -22.5 27t-8.5 25q0 23 13 34.5t30 11.5q27 0 41.5 -15t24.5 -33l107 -183zM216 1109l-153 152q-15 15 -23.5 27t-8.5 25q0 23 13.5 34.5t30.5 11.5q27 0 41 -15
t25 -33l107 -183z" />
    <glyph glyph-name="uni0203" unicode="&#x203;" horiz-adv-x="595" 
d="M250 -20q-57 0 -100 28.5t-67.5 86t-24.5 143.5q0 91 33.5 151.5t83 103t99 77.5t83 73t33.5 91q0 77 -11 134t-37.5 88.5t-72.5 31.5q-51 0 -84.5 -36.5t-33.5 -82.5q0 -20 4.5 -31t8 -21.5t3.5 -29.5q0 -27 -11.5 -45.5t-35.5 -18.5q-23 0 -34.5 20.5t-11.5 56.5
q0 72 25 129.5t71 91t107 33.5q62 0 107.5 -30.5t70.5 -98t25 -179.5v-626q0 -38 9.5 -51t27.5 -13q15 0 24.5 5.5t13.5 10.5l31 -55q-11 -11 -34.5 -19t-53.5 -8q-27 0 -49 10.5t-34.5 30.5t-13.5 50q-6 -19 -23 -43t-48 -41t-80 -17zM263 50q43 0 71 32.5t42 75.5t14 73
v372q-2 -28 -38 -56.5t-81 -66t-80 -94.5t-35 -144q0 -94 27.5 -143t79.5 -49zM282 1304q58 0 94.5 -24t52.5 -65.5t16 -92.5h-60q-4 59 -29.5 89.5t-73.5 30.5q-47 0 -72.5 -30.5t-29.5 -89.5h-59q0 51 16.5 92.5t52 65.5t92.5 24z" />
    <glyph glyph-name="uni0205" unicode="&#x205;" horiz-adv-x="538" 
d="M277 -22q-69 0 -113.5 48t-69 127.5t-34 176.5t-9.5 195q0 129 16 228t46 166t72 101t93 34q60 0 99 -39.5t61.5 -104.5t31.5 -143t9 -154v-42.5t-1 -40.5h-347v62h256q0 111 -9 201.5t-32.5 144.5t-67.5 54q-41 0 -71.5 -53t-46.5 -150.5t-16 -232.5q0 -98 5.5 -190
t20 -164.5t41.5 -115t71 -42.5q56 0 85.5 35t39.5 67l55 -26q-15 -57 -66 -99.5t-119 -42.5zM440 1107l-154 152q-14 15 -22.5 27t-8.5 25q0 23 13 34.5t30 11.5q28 0 42 -15t24 -33l107 -183zM260 1107l-153 152q-14 15 -23 27t-9 25q0 23 13.5 34.5t30.5 11.5
q27 0 41.5 -15t24.5 -33l107 -183z" />
    <glyph glyph-name="uni0207" unicode="&#x207;" horiz-adv-x="538" 
d="M277 -22q-69 0 -113.5 48t-69 127.5t-34 176.5t-9.5 195q0 129 16 228t46 166t72 101t93 34q60 0 99 -39.5t61.5 -104.5t31.5 -143t9 -154v-42.5t-1 -40.5h-347v62h256q0 111 -9 201.5t-32.5 144.5t-67.5 54q-41 0 -71.5 -53t-46.5 -150.5t-16 -232.5q0 -98 5.5 -190
t20 -164.5t41.5 -115t71 -42.5q56 0 85.5 35t39.5 67l55 -26q-15 -57 -66 -99.5t-119 -42.5zM275 1302q58 0 94.5 -24t52.5 -65.5t16 -92.5h-60q-4 59 -29.5 89.5t-73.5 30.5q-47 0 -72.5 -30.5t-29.5 -89.5h-59q0 51 16.5 92.5t52 65.5t92.5 24z" />
    <glyph glyph-name="uni0209" unicode="&#x209;" horiz-adv-x="373" 
d="M38 0v63h108v922h-108v62h198v-984h110v-63h-308zM355 1109l-154 152q-14 15 -22.5 27t-8.5 25q0 23 13 34.5t30 11.5q28 0 42 -15t24 -33l107 -183zM175 1109l-153 152q-14 15 -23 27t-9 25q0 23 13.5 34.5t30.5 11.5q27 0 41.5 -15t24.5 -33l107 -183z" />
    <glyph glyph-name="uni020B" unicode="&#x20b;" horiz-adv-x="373" 
d="M38 0v63h108v922h-108v62h198v-984h110v-63h-308zM191 1304q58 0 94.5 -24t52.5 -65.5t16 -92.5h-60q-4 59 -29.5 89.5t-73.5 30.5q-47 0 -72.5 -30.5t-29.5 -89.5h-59q0 51 16.5 92.5t52 65.5t92.5 24z" />
    <glyph glyph-name="uni020D" unicode="&#x20d;" horiz-adv-x="585" 
d="M288 -22q-52 0 -95.5 37.5t-75.5 108.5t-49 172.5t-17 230.5q0 141 18.5 241.5t51 163.5t75.5 92.5t92 29.5t92 -29.5t76 -92.5t51.5 -163.5t18.5 -241.5q0 -129 -17 -230.5t-49 -172.5t-76 -108.5t-96 -37.5zM288 41q61 0 102 119.5t41 366.5q0 243 -41 354t-102 111
q-62 0 -103 -111t-41 -354q0 -247 41 -366.5t103 -119.5zM454 1109l-154 152q-14 15 -22.5 27t-8.5 25q0 23 13 34.5t30 11.5q28 0 42 -15t24 -33l107 -183zM274 1109l-153 152q-14 15 -23 27t-9 25q0 23 13.5 34.5t30.5 11.5q27 0 41.5 -15t24.5 -33l107 -183z" />
    <glyph glyph-name="uni020F" unicode="&#x20f;" horiz-adv-x="585" 
d="M288 -22q-52 0 -95.5 37.5t-75.5 108.5t-49 172.5t-17 230.5q0 141 18.5 241.5t51 163.5t75.5 92.5t92 29.5t92 -29.5t76 -92.5t51.5 -163.5t18.5 -241.5q0 -129 -17 -230.5t-49 -172.5t-76 -108.5t-96 -37.5zM288 41q61 0 102 119.5t41 366.5q0 243 -41 354t-102 111
q-62 0 -103 -111t-41 -354q0 -247 41 -366.5t103 -119.5zM290 1304q58 0 94.5 -24t52.5 -65.5t16 -92.5h-60q-4 59 -29.5 89.5t-73.5 30.5q-47 0 -72.5 -30.5t-29.5 -89.5h-59q0 51 16.5 92.5t52 65.5t92.5 24z" />
    <glyph glyph-name="uni0211" unicode="&#x211;" horiz-adv-x="518" 
d="M24 0v63h102v922h-102v62h188l3 -104q2 10 19 37t48 50.5t76 23.5q46 0 74 -32.5t40.5 -88t12.5 -126.5q0 -42 -12.5 -63t-36.5 -21q-21 0 -34 16.5t-13 50.5q0 19 5 31t9 27.5t4 41.5q0 49 -17.5 71t-44.5 22q-40 0 -69 -34.5t-44.5 -85t-15.5 -97.5v-703h105v-63h-297z
M485 1109l-154 152q-14 15 -22.5 27t-8.5 25q0 23 13 34.5t30 11.5q28 0 42 -15t24 -33l107 -183zM305 1109l-153 152q-14 15 -23 27t-9 25q0 23 13.5 34.5t30.5 11.5q27 0 41.5 -15t24.5 -33l107 -183z" />
    <glyph glyph-name="uni0213" unicode="&#x213;" horiz-adv-x="518" 
d="M24 0v63h102v922h-102v62h188l3 -104q2 10 19 37t48 50.5t76 23.5q46 0 74 -32.5t40.5 -88t12.5 -126.5q0 -42 -12.5 -63t-36.5 -21q-21 0 -34 16.5t-13 50.5q0 19 5 31t9 27.5t4 41.5q0 49 -17.5 71t-44.5 22q-40 0 -69 -34.5t-44.5 -85t-15.5 -97.5v-703h105v-63h-297z
M320 1304q58 0 94.5 -24t52.5 -65.5t16 -92.5h-60q-4 59 -29.5 89.5t-73.5 30.5q-47 0 -72.5 -30.5t-29.5 -89.5h-59q0 51 16.5 92.5t52 65.5t92.5 24z" />
    <glyph glyph-name="uni0215" unicode="&#x215;" horiz-adv-x="661" 
d="M302 -22q-46 0 -87.5 21.5t-67 81.5t-25.5 175v729h-104v61h194v-782q0 -88 15 -134t39 -62.5t52 -16.5q45 0 76 45t46.5 114t15.5 143v632h-103v61h193v-983h93v-63h-173l-3 130q-4 -31 -23 -66t-53 -60.5t-85 -25.5zM498 1109l-154 152q-14 15 -22.5 27t-8.5 25
q0 23 13 34.5t30 11.5q28 0 42 -15t24 -33l107 -183zM318 1109l-153 152q-14 15 -23 27t-9 25q0 23 13.5 34.5t30.5 11.5q27 0 41.5 -15t24.5 -33l107 -183z" />
    <glyph glyph-name="uni0217" unicode="&#x217;" horiz-adv-x="661" 
d="M302 -22q-46 0 -87.5 21.5t-67 81.5t-25.5 175v729h-104v61h194v-782q0 -88 15 -134t39 -62.5t52 -16.5q45 0 76 45t46.5 114t15.5 143v632h-103v61h193v-983h93v-63h-173l-3 130q-4 -31 -23 -66t-53 -60.5t-85 -25.5zM334 1304q58 0 94.5 -24t52.5 -65.5t16 -92.5h-60
q-4 59 -29.5 89.5t-73.5 30.5q-47 0 -72.5 -30.5t-29.5 -89.5h-59q0 51 16.5 92.5t52 65.5t92.5 24z" />
    <glyph glyph-name="uni0218" unicode="&#x218;" horiz-adv-x="572" 
d="M307 -27q-40 0 -67 12t-45.5 28.5t-31.5 28.5t-24 12q-20 0 -20 -54h-51v280h62q2 -33 11 -67.5t24 -65.5t36.5 -55.5t49 -38.5t59.5 -14q55 0 82.5 29.5t37 82t9.5 119.5q0 74 -26.5 147t-69 143.5t-90.5 134.5q-74 101 -113 180.5t-53.5 146t-14.5 124.5q0 85 27 147
t74.5 95.5t107.5 33.5q50 0 75.5 -17.5t38.5 -35t25 -17.5t17.5 11.5t5.5 36.5h52v-277h-62q-2 42 -12 84.5t-28.5 76t-46 54t-63.5 20.5q-60 0 -94.5 -46t-34.5 -130q0 -58 10.5 -111.5t44 -118.5t98.5 -158q56 -77 105 -159.5t80 -170t31 -177.5q0 -75 -13.5 -133
t-39.5 -98t-66.5 -61.5t-96.5 -21.5zM301 -330l-29 33q10 6 27.5 23.5t18.5 29.5q-2 -4 -12 -4q-25 0 -41 17t-16 41q0 25 17.5 41t41.5 16q29 0 46 -19t17 -51q0 -30 -11 -54.5t-27.5 -42.5t-31.5 -30z" />
    <glyph glyph-name="uni0219" unicode="&#x219;" horiz-adv-x="502" 
d="M261 -22q-49 0 -74.5 12.5t-38.5 24.5t-25 12q-10 0 -14.5 -7.5t-4.5 -19.5h-49v277h59q4 -66 13.5 -111t26 -72.5t42 -40t61.5 -12.5q41 0 64.5 24.5t34 61t10.5 70.5q0 57 -13.5 106.5t-44.5 101t-85 110.5q-63 71 -109.5 145.5t-46.5 183.5q0 69 25 115.5t65 70.5
t86 24q38 0 61 -8t36 -17t21 -9q9 0 12 7t3 20h52v-268h-58q-4 64 -13 105.5t-24.5 64.5t-37 33t-50.5 10q-48 0 -75 -36t-27 -98q0 -72 33 -130.5t101 -135.5q58 -67 96 -126t56 -116.5t18 -121.5q0 -69 -21 -125.5t-62.5 -90.5t-102.5 -34zM246 -330l-29 33
q10 6 27.5 23.5t18.5 29.5q-2 -4 -12 -4q-25 0 -41 17t-16 41q0 25 17.5 41t41.5 16q29 0 46 -19t17 -51q0 -30 -11 -54.5t-27.5 -42.5t-31.5 -30z" />
    <glyph glyph-name="uni021A" unicode="&#x21a;" horiz-adv-x="676" 
d="M182 0v63h112v1275h-101q-45 0 -64 -14.5t-23.5 -57t-4.5 -125.5h-63v259h600v-259h-62q0 83 -5 125.5t-24 57t-64 14.5h-100v-1275h116v-63h-317zM330 -330l-29 33q10 6 27.5 23.5t18.5 29.5q-2 -4 -12 -4q-25 0 -41 17t-16 41q0 25 17.5 41t41.5 16q29 0 46 -19t17 -51
q0 -30 -11 -54.5t-27.5 -42.5t-31.5 -30z" />
    <glyph glyph-name="uni021B" unicode="&#x21b;" horiz-adv-x="391" 
d="M249 -18q-30 0 -59 11.5t-48 43t-19 93.5v855h-117v62h117q8 35 13.5 83.5t9 99.5t4.5 94h63v-277h140v-62h-140v-872q0 -42 16.5 -55.5t32.5 -13.5q21 0 34 9t21 19l37 -49q-15 -16 -43 -28.5t-62 -12.5zM247 -324l-29 33q10 6 27.5 23.5t18.5 29.5q-2 -4 -12 -4
q-25 0 -41 17t-16 41q0 25 17.5 41t41.5 16q29 0 46 -19t17 -51q0 -30 -11 -54.5t-27.5 -42.5t-31.5 -30z" />
    <glyph glyph-name="uni0229" unicode="&#x229;" horiz-adv-x="538" 
d="M277 -22q-69 0 -113.5 48t-69 127.5t-34 176.5t-9.5 195q0 129 16 228t46 166t72 101t93 34q60 0 99 -40t61.5 -105t31.5 -144t9 -157v-42.5t-1 -40.5h-347v62h256q0 111 -9 203t-32.5 147t-67.5 55q-41 0 -71.5 -54.5t-46.5 -153t-16 -233.5q0 -98 5.5 -189t20 -163
t41.5 -114t71 -42q56 0 85.5 35.5t39.5 67.5l55 -26q-15 -57 -66 -99.5t-119 -42.5zM315 -287q-55 0 -91.5 9.5t-51.5 17.5l22 52q10 -7 41.5 -16t79.5 -9q32 0 58.5 15t26.5 43q0 30 -18 39t-42 9q-16 0 -37 -7t-35 -21l-59 4l63 151h62l-48 -103q5 7 28 16.5t51 9.5
q37 0 69 -22t32 -77q0 -42 -24.5 -66.5t-60 -34.5t-66.5 -10z" />
    <glyph glyph-name="uni022B" unicode="&#x22b;" horiz-adv-x="585" 
d="M288 -22q-52 0 -95.5 37.5t-75.5 108.5t-49 172.5t-17 230.5q0 141 18.5 241.5t51 163.5t75.5 92.5t92 29.5t92 -29.5t76 -92.5t51.5 -163.5t18.5 -241.5q0 -129 -17 -230.5t-49 -172.5t-76 -108.5t-96 -37.5zM288 41q61 0 102 119.5t41 366.5q0 243 -41 354t-102 111
q-62 0 -103 -111t-41 -354q0 -247 41 -366.5t103 -119.5zM400 1123q-28 0 -48 20t-20 46q0 29 20 50t48 21q26 0 46.5 -21t20.5 -50q0 -26 -20.5 -46t-46.5 -20zM180 1123q-26 0 -46.5 20t-20.5 46q0 29 20.5 50t46.5 21q27 0 48.5 -21t21.5 -50q0 -26 -21.5 -46t-48.5 -20z
M100 1345v62h379v-62h-379z" />
    <glyph glyph-name="uni022D" unicode="&#x22d;" horiz-adv-x="585" 
d="M288 -22q-52 0 -95.5 37.5t-75.5 108.5t-49 172.5t-17 230.5q0 141 18.5 241.5t51 163.5t75.5 92.5t92 29.5t92 -29.5t76 -92.5t51.5 -163.5t18.5 -241.5q0 -129 -17 -230.5t-49 -172.5t-76 -108.5t-96 -37.5zM288 41q61 0 102 119.5t41 366.5q0 243 -41 354t-102 111
q-62 0 -103 -111t-41 -354q0 -247 41 -366.5t103 -119.5zM375 1124q-38 0 -64 18t-48 35.5t-48 17.5q-30 0 -45.5 -21t-20.5 -34l-59 33q5 19 20 41.5t39.5 40t58.5 17.5q39 0 66.5 -18t51 -36.5t50.5 -18.5q24 0 37.5 16.5t19.5 29.5l58 -38q-5 -16 -20 -35.5t-39 -33.5
t-57 -14zM27 1357v62h527v-62h-527z" />
    <glyph glyph-name="uni0231" unicode="&#x231;" horiz-adv-x="585" 
d="M288 -22q-52 0 -95.5 37.5t-75.5 108.5t-49 172.5t-17 230.5q0 141 18.5 241.5t51 163.5t75.5 92.5t92 29.5t92 -29.5t76 -92.5t51.5 -163.5t18.5 -241.5q0 -129 -17 -230.5t-49 -172.5t-76 -108.5t-96 -37.5zM288 41q61 0 102 119.5t41 366.5q0 243 -41 354t-102 111
q-62 0 -103 -111t-41 -354q0 -247 41 -366.5t103 -119.5zM290 1127q-27 0 -48 20t-21 46q0 28 21 49t48 21q26 0 47 -21t21 -49q0 -26 -21 -46t-47 -20zM28 1347v62h527v-62h-527z" />
    <glyph glyph-name="uni0233" unicode="&#x233;" horiz-adv-x="597" 
d="M166 -502q-37 0 -59 28.5t-31.5 77.5t-9.5 112q0 36 11 56t34 20t33.5 -18t10.5 -45q0 -20 -5 -34.5t-10.5 -28.5t-5.5 -35q0 -28 7.5 -55t26.5 -27q12 0 20 14t14.5 41t13.5 63l68 356l-177 962h-82v62h251v-62h-73l125 -710l121 710h-74v62h224v-62h-81l-178 -992
l-67 -343q-10 -51 -23.5 -85t-33.5 -50.5t-50 -16.5zM45 1131v62h527v-62h-527z" />
    <glyph glyph-name="uni0237" unicode="&#x237;" horiz-adv-x="349" 
d="M48 -498q-46 0 -78 28.5t-49 77.5t-17 112q0 36 14 56t37 20t35 -18t12 -45q0 -19 -3 -36t-7 -34.5t-4 -38.5q0 -25 9.5 -37.5t22.5 -16t26 -3.5q57 0 86.5 68t29.5 196v1154h-110v62h200v-1148q0 -106 -15.5 -181t-43.5 -123t-65 -70.5t-80 -22.5z" />
    <glyph glyph-name="uni0244" unicode="&#x244;" horiz-adv-x="743" 
d="M74 835v62h622v-62h-622zM358 -24q-42 0 -82 15.5t-72 51t-51.5 96.5t-19.5 152v1047h-95v62h281v-62h-95v-1036q0 -149 41 -204t103 -55q31 0 57.5 12t46 40.5t31 78t11.5 123.5v1041h-83v62h240v-62h-95v-1054q0 -117 -30 -184.5t-79.5 -95.5t-108.5 -28z" />
    <glyph glyph-name="uni0259" unicode="&#x259;" horiz-adv-x="551" 
d="M53 1046h53q0 -25 3 -45t8 -20l7 -78h-71v143zM266 1068q70 0 114 -48t68.5 -127.5t34 -176.5t9.5 -195q0 -129 -16 -228t-46 -166t-72 -101t-93 -34q-60 0 -99 40t-61.5 105t-31.5 144t-9 157v42.5t1 41.5h347v-63h-256q0 -111 9 -203t32.5 -146.5t67.5 -54.5
q42 0 72 54t46 153.5t16 232.5q0 98 -5.5 189.5t-20 163t-41.5 113.5t-71 42q-56 0 -85.5 -35t-39.5 -68l-55 26q15 57 66.5 99.5t118.5 42.5z" />
    <glyph glyph-name="uni0289" unicode="&#x289;" horiz-adv-x="727" 
d="M34 599v62h616v-62h-616zM302 -22q-46 0 -87.5 21.5t-67 81.5t-25.5 175v729h-104v61h194v-782q0 -88 15 -134t39 -62.5t52 -16.5q45 0 76 45t46.5 114t15.5 143v632h-103v61h193v-983h93v-63h-173l-3 130q-4 -31 -23 -66t-53 -60.5t-85 -25.5z" />
    <glyph glyph-name="uni02BC" unicode="&#x2bc;" horiz-adv-x="535" 
d="M294 1202l-42 49q14 8 39.5 33t26.5 42q-1 -1 -6 -2.5t-11 -1.5q-36 0 -59.5 24t-23.5 58q0 37 25.5 60t59.5 23q42 0 67 -28t25 -74q0 -43 -16.5 -78t-40 -61.5t-44.5 -43.5z" />
    <glyph glyph-name="circumflex" unicode="&#x2c6;" horiz-adv-x="687" 
d="M199 1282l147 208h71l146 -208h-65l-117 141l-117 -141h-65z" />
    <glyph glyph-name="caron" unicode="&#x2c7;" horiz-adv-x="686" 
d="M346 1247l-150 211h66l119 -144l120 144h66l-150 -211h-71z" />
    <glyph glyph-name="uni02C9" unicode="&#x2c9;" horiz-adv-x="918" 
d="M226 1359v62h604v-62h-604z" />
    <glyph glyph-name="breve" unicode="&#x2d8;" horiz-adv-x="689" 
d="M343 1257q-57 0 -92.5 24.5t-52 66t-16.5 92.5h59q4 -59 29.5 -89.5t72.5 -30.5q48 0 73.5 30.5t29.5 89.5h60q0 -51 -16 -92.5t-52.5 -66t-94.5 -24.5z" />
    <glyph glyph-name="dotaccent" unicode="&#x2d9;" horiz-adv-x="653" 
d="M306 1307q-27 0 -48 19.5t-21 46.5q0 28 21 49t48 21t47.5 -21t20.5 -49q0 -27 -20.5 -46.5t-47.5 -19.5z" />
    <glyph glyph-name="ring" unicode="&#x2da;" horiz-adv-x="478" 
d="M244 1144q-45 0 -75 32.5t-30 85.5q0 55 30 86.5t75 31.5q44 0 74.5 -31.5t30.5 -86.5q0 -53 -30.5 -85.5t-74.5 -32.5zM244 1187q28 0 40 22.5t12 54.5q0 28 -12 50.5t-40 22.5q-26 0 -39 -22.5t-13 -50.5q0 -32 13 -54.5t39 -22.5z" />
    <glyph glyph-name="ogonek" unicode="&#x2db;" horiz-adv-x="638" 
d="M346 -287q-37 0 -75 13t-63 43.5t-25 82.5q0 43 23 76t54 57t53 35l26 -20q-21 -20 -46.5 -56t-25.5 -84q0 -53 32.5 -66.5t65.5 -13.5q23 0 55.5 6.5t54.5 18.5l28 -46q-22 -17 -63.5 -31.5t-93.5 -14.5z" />
    <glyph glyph-name="tilde" unicode="&#x2dc;" horiz-adv-x="698" 
d="M428 1275q-38 0 -66 18t-52.5 35.5t-50.5 17.5q-30 0 -48 -20.5t-23 -34.5l-54 28q5 18 22.5 42.5t44 43t60.5 18.5q39 0 66.5 -18t52.5 -36.5t52 -18.5q30 0 44.5 16.5t21.5 29.5l54 -29q-4 -17 -21.5 -38.5t-43.5 -37.5t-59 -16z" />
    <glyph glyph-name="hungarumlaut" unicode="&#x2dd;" horiz-adv-x="958" 
d="M503 1235l-30 31l106 130q18 29 38 33.5t33 -7.5t11 -32t-29 -40zM328 1235l-30 31l106 130q17 29 37.5 33.5t33.5 -7.5t11 -32t-29 -40z" />
    <glyph glyph-name="gravecomb" unicode="&#x300;" 
d="M368 1102l-196 91q-24 12 -37 22.5t-13 33.5q0 21 13.5 31t33.5 10q18 0 31.5 -6.5t26.5 -17.5l165 -135z" />
    <glyph glyph-name="acutecomb" unicode="&#x301;" 
d="M196 1110l-29 32l169 131q15 12 30.5 20t29.5 8q11 0 20.5 -5.5t14.5 -15.5q5 -8 5 -18q0 -19 -18.5 -35t-42.5 -27z" />
    <glyph glyph-name="uni0302" unicode="&#x302;" 
d="M159 1110l147 208h71l146 -208h-65l-117 141l-117 -141h-65z" />
    <glyph glyph-name="tildecomb" unicode="&#x303;" 
d="M428 1123q-38 0 -64 18t-48 35.5t-48 17.5q-30 0 -45.5 -21t-20.5 -34l-59 33q5 19 20 41.5t39.5 40t58.5 17.5q39 0 66.5 -18t51 -36.5t50.5 -18.5q24 0 37.5 16.5t19.5 29.5l58 -38q-5 -16 -20 -35.5t-39 -33.5t-57 -14z" />
    <glyph glyph-name="uni0304" unicode="&#x304;" 
d="M266 1130v62h527v-62h-527z" />
    <glyph glyph-name="uni0306" unicode="&#x306;" 
d="M341 1100q-57 0 -92.5 24.5t-52 66.5t-16.5 92h59q4 -59 29.5 -89.5t72.5 -30.5q48 0 73.5 30.5t29.5 89.5h60q0 -50 -16 -92t-52.5 -66.5t-94.5 -24.5z" />
    <glyph glyph-name="uni0307" unicode="&#x307;" 
d="M304 1126q-27 0 -48 20t-21 46q0 28 21 49t48 21q26 0 47 -21t21 -49q0 -26 -21 -46t-47 -20z" />
    <glyph glyph-name="uni0308" unicode="&#x308;" 
d="M506 1123q-28 0 -48 20t-20 46q0 29 20 50t48 21q26 0 46.5 -21t20.5 -50q0 -26 -20.5 -46t-46.5 -20zM286 1123q-26 0 -46.5 20t-20.5 46q0 29 20.5 50t46.5 21q27 0 48.5 -21t21.5 -50q0 -26 -21.5 -46t-48.5 -20z" />
    <glyph glyph-name="hookabovecomb" unicode="&#x309;" 
d="M302 1409q54 0 94 -25t40 -79q0 -44 -25 -72.5t-51 -50t-26 -46.5h-57q0 40 21.5 64.5t42 46t20.5 53.5q0 33 -20.5 43t-55.5 10q-24 0 -46.5 -8t-36.5 -20l-41 42q18 20 59 31t82 11z" />
    <glyph glyph-name="uni030A" unicode="&#x30a;" 
d="M244 1092q-45 0 -75 32.5t-30 85.5q0 55 30 86.5t75 31.5q44 0 74.5 -31.5t30.5 -86.5q0 -53 -30.5 -85.5t-74.5 -32.5zM244 1136q28 0 40 22t12 54q0 28 -12 50.5t-40 22.5q-26 0 -39 -22.5t-13 -50.5q0 -32 13 -54t39 -22z" />
    <glyph glyph-name="uni030B" unicode="&#x30b;" 
d="M503 1132l-30 31l105 130q14 17 25.5 25.5t23.5 8.5q14 0 24 -10t10 -25q0 -24 -29 -45zM328 1132l-30 31l105 130q14 17 25.5 25.5t22.5 8.5q15 0 25 -10t10 -25q0 -24 -29 -45z" />
    <glyph glyph-name="uni030C" unicode="&#x30c;" 
d="M315 1101l-151 212h66l120 -144l119 144h67l-150 -212h-71z" />
    <glyph glyph-name="uni030F" unicode="&#x30f;" 
d="M447 1108l-154 152q-14 15 -22.5 27t-8.5 25q0 23 13 34.5t30 11.5q28 0 42 -15t24 -33l107 -183zM267 1108l-153 152q-14 15 -23 27t-9 25q0 23 13.5 34.5t30.5 11.5q27 0 41.5 -15t24.5 -33l107 -183z" />
    <glyph glyph-name="uni0311" unicode="&#x311;" 
d="M319 1303q58 0 94.5 -24t52.5 -65.5t16 -92.5h-60q-4 59 -29.5 89.5t-73.5 30.5q-47 0 -72.5 -30.5t-29.5 -89.5h-59q0 51 16.5 92.5t52 65.5t92.5 24z" />
    <glyph glyph-name="uni0312" unicode="&#x312;" 
d="M244 1320l30 -33q-10 -6 -28 -24t-19 -30q2 4 12 4q25 0 41.5 -17t16.5 -41t-17.5 -40.5t-41.5 -16.5q-29 0 -48 19t-19 51q0 30 12 54.5t29.5 43.5t31.5 30z" />
    <glyph glyph-name="uni031B" unicode="&#x31b;" 
d="M236 984v62q52 0 94 15t42 66q0 19 -2.5 43t-2.5 41q0 30 16 47.5t39 17.5q24 0 39.5 -17t15.5 -48q0 -93 -39.5 -142.5t-95.5 -67t-106 -17.5z" />
    <glyph glyph-name="dotbelowcomb" unicode="&#x323;" 
d="M304 -253q-27 0 -48 19.5t-21 46.5q0 28 21 49t48 21q26 0 47 -21t21 -49q0 -27 -21 -46.5t-47 -19.5z" />
    <glyph glyph-name="uni0324" unicode="&#x324;" 
d="M378 -249q-28 0 -48 19.5t-20 46.5q0 29 20 50t48 21q27 0 47 -21t20 -50q0 -27 -20 -46.5t-47 -19.5zM158 -249q-26 0 -46.5 19.5t-20.5 46.5q0 29 20.5 50t46.5 21q28 0 49 -21t21 -50q0 -27 -21 -46.5t-49 -19.5z" />
    <glyph glyph-name="uni0326" unicode="&#x326;" 
d="M226 -330l-29 33q10 6 27.5 23.5t18.5 29.5q-2 -4 -12 -4q-25 0 -41 17t-16 41q0 25 17.5 41t41.5 16q29 0 46 -19t17 -51q0 -30 -11 -54.5t-27.5 -42.5t-31.5 -30z" />
    <glyph glyph-name="uni0327" unicode="&#x327;" 
d="M303 -287q-55 0 -91 9.5t-51 17.5l22 52q10 -7 41 -16t80 -9q32 0 58.5 15t26.5 43q0 30 -18.5 39t-42.5 9q-16 0 -36.5 -7t-34.5 -21l-59 4l62 151h63l-48 -103q5 7 27.5 16.5t51.5 9.5q37 0 69 -22t32 -77q0 -42 -24.5 -66.5t-60.5 -34.5t-67 -10z" />
    <glyph glyph-name="uni0328" unicode="&#x328;" 
d="M346 -287q-37 0 -75 13t-63 43.5t-25 82.5q0 43 23 76t54 57t53 35l26 -20q-21 -20 -46.5 -56t-25.5 -84q0 -53 32.5 -66.5t65.5 -13.5q23 0 55.5 6.5t54.5 18.5l28 -46q-22 -17 -63.5 -31.5t-93.5 -14.5z" />
    <glyph glyph-name="uni032E" unicode="&#x32e;" 
d="M252 -284q-57 0 -92.5 24.5t-52 66.5t-16.5 92h59q4 -59 29.5 -89.5t72.5 -30.5q48 0 74 30.5t30 89.5h59q0 -50 -16 -92t-52 -66.5t-95 -24.5z" />
    <glyph glyph-name="uni0331" unicode="&#x331;" 
d="M225 -206v60h604v-60h-604z" />
    <glyph glyph-name="uni0335" unicode="&#x335;" 
d="M99 532v62h402v-62h-402z" />
    <glyph glyph-name="uni0336" unicode="&#x336;" 
d="M99 532v62h402v-62h-402z" />
    <glyph glyph-name="uni0337" unicode="&#x337;" 
d="M30 -104l505 1608h64l-502 -1608h-67z" />
    <glyph glyph-name="uni0338" unicode="&#x338;" 
d="M30 -104l505 1608h64l-502 -1608h-67z" />
    <glyph glyph-name="uni1E05" unicode="&#x1e05;" horiz-adv-x="625" 
d="M345 -20q-46 0 -73.5 26.5t-41.5 62t-17 62.5l-3 -131h-192v63h108v1375h-108v62h198v-577q5 20 20.5 51t44.5 55t75 24q61 0 106.5 -53t70.5 -170.5t25 -311.5q0 -193 -27 -311.5t-74.5 -172.5t-111.5 -54zM336 54q33 0 57 28.5t39.5 85.5t23.5 143t8 202
q0 103 -6.5 186.5t-21.5 143.5t-38 93t-56 33q-34 0 -61 -34.5t-43.5 -82.5t-21.5 -90v-419q4 -61 18.5 -128t40.5 -114t61 -47zM317 -253q-27 0 -48 19.5t-21 46.5q0 28 21 49t48 21q26 0 47 -21t21 -49q0 -27 -21 -46.5t-47 -19.5z" />
    <glyph glyph-name="uni1E08" unicode="&#x1e08;" horiz-adv-x="603" 
d="M366 -20q-132 0 -218.5 181t-86.5 537q0 128 19.5 255.5t59 233.5t98 170.5t136.5 64.5q52 0 89.5 -38t57.5 -96t20 -119q0 -44 -13 -62t-36 -18q-25 0 -38.5 16.5t-13.5 50.5q0 21 5 37t10 36t5 52q0 37 -22 57.5t-50 20.5q-45 0 -82 -41t-65 -110t-46.5 -155
t-28 -177.5t-9.5 -175.5q0 -123 11 -226t31 -183t47 -135t59 -84t68 -29q37 0 63 25.5t43.5 62t27.5 70.5l56 -25q-16 -49 -43 -93.5t-65.5 -73.5t-88.5 -29zM382 -287q-55 0 -91.5 9.5t-51.5 17.5l22 52q10 -7 41.5 -16t79.5 -9q32 0 58.5 15t26.5 43q0 30 -18 39t-42 9
q-16 0 -37 -7t-35 -21l-59 4l63 151h62l-48 -103q5 7 28 16.5t51 9.5q37 0 69 -22t32 -77q0 -42 -24.5 -66.5t-60 -34.5t-66.5 -10zM248 1465l-29 32l169 131q14 11 30 19.5t30 8.5q11 0 20.5 -5.5t14.5 -15.5q5 -8 5 -18q0 -19 -18.5 -35t-42.5 -27z" />
    <glyph glyph-name="uni1E09" unicode="&#x1e09;" horiz-adv-x="548" 
d="M186 1077l-29 32l169 131q15 12 30.5 20t29.5 8q11 0 20.5 -5.5t14.5 -15.5q5 -8 5 -18q0 -19 -18.5 -35t-42.5 -27zM311 -20q-70 0 -119.5 49.5t-81 131t-46 179.5t-14.5 194q0 125 21.5 222t58.5 163t84 100.5t97 34.5q61 0 101 -38t60 -96.5t20 -121.5
q0 -36 -11.5 -55.5t-34.5 -19.5t-35.5 18t-12.5 45q0 19 4.5 29t9 21.5t4.5 32.5q0 55 -28.5 88t-74.5 33q-44 0 -75.5 -38t-52 -102t-30 -144.5t-9.5 -166.5q0 -81 8.5 -168t28 -161t52.5 -119.5t83 -45.5q52 0 80.5 26t43.5 71l47 -38q-16 -38 -58 -81t-120 -43zM346 -285
q-54 0 -90.5 9.5t-51.5 17.5l22 52q10 -7 41 -16t80 -9q32 0 58.5 15t26.5 43q0 30 -18 39t-43 9q-16 0 -36.5 -7t-34.5 -21l-59 4l62 151h63l-48 -103q5 7 28 16.5t51 9.5q37 0 69 -22t32 -77q0 -43 -24.5 -67t-60 -34t-67.5 -10z" />
    <glyph glyph-name="uni1E0D" unicode="&#x1e0d;" horiz-adv-x="629" 
d="M285 -20q-63 0 -110 54t-73 172.5t-26 311.5q0 194 26 311.5t72 170.5t105 53q46 0 75 -20.5t44.5 -49t19.5 -52.5v506h-111v63h202v-1437h109v-63h-193l-4 132q-2 -26 -18 -62.5t-45 -63t-73 -26.5zM299 54q34 0 59 42.5t41 105t19 122.5v438q-4 50 -22 98t-45 79
t-58 31q-36 0 -60 -35.5t-38 -98t-20 -145t-6 -178.5q0 -115 7.5 -201.5t23 -143.5t40 -85.5t59.5 -28.5zM319 -253q-27 0 -48 19.5t-21 46.5q0 28 21 49t48 21q26 0 47 -21t21 -49q0 -27 -21 -46.5t-47 -19.5z" />
    <glyph glyph-name="uni1E0F" unicode="&#x1e0f;" horiz-adv-x="629" 
d="M285 -20q-63 0 -110 54t-73 172.5t-26 311.5q0 194 26 311.5t72 170.5t105 53q46 0 75 -20.5t44.5 -49t19.5 -52.5v506h-111v63h202v-1437h109v-63h-193l-4 132q-2 -26 -18 -62.5t-45 -63t-73 -26.5zM299 54q34 0 59 42.5t41 105t19 122.5v438q-4 50 -22 98t-45 79
t-58 31q-36 0 -60 -35.5t-38 -98t-20 -145t-6 -178.5q0 -115 7.5 -201.5t23 -143.5t40 -85.5t59.5 -28.5zM2 -259v62h527v-62h-527z" />
    <glyph glyph-name="uni1E15" unicode="&#x1e15;" horiz-adv-x="538" 
d="M277 -22q-69 0 -113.5 48t-69 127.5t-34 176.5t-9.5 195q0 129 16 228t46 166t72 101t93 34q60 0 99 -39.5t61.5 -104.5t31.5 -143t9 -154v-42.5t-1 -40.5h-347v62h256q0 111 -9 201.5t-32.5 144.5t-67.5 54q-41 0 -71.5 -53t-46.5 -150.5t-16 -232.5q0 -98 5.5 -190
t20 -164.5t41.5 -115t71 -42.5q56 0 85.5 35t39.5 67l55 -26q-15 -57 -66 -99.5t-119 -42.5zM12 1129v62h527v-62h-527zM389 1245l-196 91q-24 12 -37 22.5t-13 33.5q0 21 13.5 31t33.5 10q18 0 31.5 -6.5t26.5 -17.5l165 -135z" />
    <glyph glyph-name="uni1E17" unicode="&#x1e17;" horiz-adv-x="538" 
d="M277 -22q-69 0 -113.5 48t-69 127.5t-34 176.5t-9.5 195q0 129 16 228t46 166t72 101t93 34q60 0 99 -39.5t61.5 -104.5t31.5 -143t9 -154v-42.5t-1 -40.5h-347v62h256q0 111 -9 201.5t-32.5 144.5t-67.5 54q-41 0 -71.5 -53t-46.5 -150.5t-16 -232.5q0 -98 5.5 -190
t20 -164.5t41.5 -115t71 -42.5q56 0 85.5 35t39.5 67l55 -26q-15 -57 -66 -99.5t-119 -42.5zM12 1129v62h527v-62h-527zM165 1220l-29 32l169 131q15 12 30.5 20t29.5 8q11 0 20.5 -5.5t14.5 -15.5q5 -8 5 -18q0 -19 -18.5 -35t-42.5 -27z" />
    <glyph glyph-name="uni1E1D" unicode="&#x1e1d;" horiz-adv-x="538" 
d="M273 1099q-57 0 -92.5 24.5t-52 66.5t-16.5 92h59q4 -59 29.5 -89.5t72.5 -30.5q48 0 73.5 30.5t29.5 89.5h60q0 -50 -16 -92t-52.5 -66.5t-94.5 -24.5zM277 -22q-69 0 -113.5 48t-69 127.5t-34 176.5t-9.5 195q0 129 16 228t46 166t72 101t93 34q60 0 99 -40t61.5 -105
t31.5 -144t9 -157v-42.5t-1 -40.5h-347v62h256q0 111 -9 203t-32.5 147t-67.5 55q-41 0 -71.5 -54.5t-46.5 -153t-16 -233.5q0 -98 5.5 -189t20 -163t41.5 -114t71 -42q56 0 85.5 35.5t39.5 67.5l55 -26q-15 -57 -66 -99.5t-119 -42.5zM315 -287q-55 0 -91.5 9.5t-51.5 17.5
l22 52q10 -7 41.5 -16t79.5 -9q32 0 58.5 15t26.5 43q0 30 -18 39t-42 9q-16 0 -37 -7t-35 -21l-59 4l63 151h62l-48 -103q5 7 28 16.5t51 9.5q37 0 69 -22t32 -77q0 -42 -24.5 -66.5t-60 -34.5t-66.5 -10z" />
    <glyph glyph-name="uni1E21" unicode="&#x1e21;" horiz-adv-x="611" 
d="M309 -498q-86 0 -143.5 38.5t-86 99.5t-28.5 129q0 61 14 104t35.5 71t43.5 44t38 23q-10 2 -28 11t-36.5 26t-32.5 45.5t-14 69.5t16 69.5t38 43.5t41 16q3 1 8 1t6 -1q-13 12 -28.5 39t-28.5 69.5t-21 100t-8 130.5q0 119 16.5 200t46.5 130t69.5 71t86.5 22
q72 0 117.5 -49.5t67 -140t21.5 -213.5q0 -110 -15 -189.5t-43.5 -131t-67.5 -75.5t-86 -24q-40 0 -61.5 11t-24.5 12q-1 1 -2.5 1.5t-5.5 0.5q-21 0 -44.5 -23.5t-23.5 -59.5q0 -50 37 -77t137 -40q132 -16 192 -82t60 -189q0 -71 -21 -124t-58 -88.5t-83.5 -53
t-99.5 -17.5zM309 -439q78 0 126 56.5t48 143.5q0 106 -31.5 152t-108.5 61q-21 4 -40 8.5t-33.5 8t-21.5 4.5q-39 -21 -63 -55t-35.5 -76t-11.5 -87q0 -52 18.5 -101.5t56.5 -82t96 -32.5zM307 294q33 0 60 28.5t42.5 105t15.5 219.5q0 140 -15.5 214t-41 102t-57.5 28
t-60 -28t-45 -104t-17 -218q0 -141 16.5 -215.5t43.5 -103t58 -28.5zM385 994q7 52 46.5 83t81.5 31q36 0 51 -15t15 -43q0 -22 -13 -36.5t-35 -14.5q-17 0 -25.5 8t-15 16t-20.5 8t-23.5 -11.5t-9.5 -30.5zM42 1131v62h527v-62h-527z" />
    <glyph glyph-name="uni1E25" unicode="&#x1e25;" horiz-adv-x="708" 
d="M35 0v63h101v1375h-101v62h191v-576q3 19 25.5 50.5t60.5 56.5t86 25q43 0 84 -24t68 -91t27 -198v-680h103v-63h-278v63h85v656q0 141 -27 200t-87 59q-39 0 -72 -35t-53.5 -86t-21.5 -101v-693h86v-63h-277zM358 -253q-27 0 -48 19.5t-21 46.5q0 28 21 49t48 21
q26 0 47 -21t21 -49q0 -27 -21 -46.5t-47 -19.5z" />
    <glyph glyph-name="uni1E2B" unicode="&#x1e2b;" horiz-adv-x="708" 
d="M35 0v63h101v1375h-101v62h191v-576q3 19 25.5 50.5t60.5 56.5t86 25q43 0 84 -24t68 -91t27 -198v-680h103v-63h-278v63h85v656q0 141 -27 200t-87 59q-39 0 -72 -35t-53.5 -86t-21.5 -101v-693h86v-63h-277zM358 -284q-57 0 -92.5 24.5t-52 66.5t-16.5 92h59
q4 -59 29.5 -89.5t72.5 -30.5q48 0 74 30.5t30 89.5h59q0 -50 -16 -92t-52 -66.5t-95 -24.5z" />
    <glyph glyph-name="uni1E2F" unicode="&#x1e2f;" horiz-adv-x="373" 
d="M38 0v63h108v922h-108v62h198v-984h110v-63h-308zM301 1123q-28 0 -48 20t-20 46q0 29 20 50t48 21q26 0 46.5 -21t20.5 -50q0 -26 -20.5 -46t-46.5 -20zM81 1123q-26 0 -46.5 20t-20.5 46q0 29 20.5 50t46.5 21q27 0 48.5 -21t21.5 -50q0 -26 -21.5 -46t-48.5 -20z
M81 1291l-29 32l169 131q15 12 30.5 20t29.5 8q11 0 20.5 -5.5t14.5 -15.5q5 -8 5 -18q0 -19 -18.5 -35t-42.5 -27z" />
    <glyph glyph-name="uni1E37" unicode="&#x1e37;" horiz-adv-x="365" 
d="M46 0v63h92v1375h-92v62h180v-1437h94v-63h-274zM186 -253q-27 0 -48 19.5t-21 46.5q0 28 21 49t48 21q26 0 47 -21t21 -49q0 -27 -21 -46.5t-47 -19.5z" />
    <glyph glyph-name="uni1E3B" unicode="&#x1e3b;" horiz-adv-x="365" 
d="M46 0v63h92v1375h-92v62h180v-1437h94v-63h-274zM-116 -206v60h604v-60h-604z" />
    <glyph glyph-name="uni1E3F" unicode="&#x1e3f;" horiz-adv-x="969" 
d="M37 0v63h97v922h-97v62h186v-115q3 20 21 48.5t52.5 50.5t85.5 22q55 0 86 -29t44.5 -62t14.5 -46q6 29 29 61t61.5 54t89.5 22q84 0 119.5 -73.5t35.5 -174.5v-742h93v-63h-273v63h90v621q0 88 -4.5 153.5t-24 101.5t-64.5 36q-47 0 -77.5 -38.5t-45.5 -97.5t-16 -119
v-657h91v-63h-269v63h89v621q0 133 -14 212t-82 79q-46 0 -75 -39t-42 -98.5t-14 -120.5v-654h87v-63h-274zM389 1077l-29 32l169 131q15 12 30.5 20t29.5 8q11 0 20.5 -5.5t14.5 -15.5q5 -8 5 -18q0 -19 -18.5 -35t-42.5 -27z" />
    <glyph glyph-name="uni1E43" unicode="&#x1e43;" horiz-adv-x="969" 
d="M37 0v63h97v922h-97v62h186v-115q3 20 21 48.5t52.5 50.5t85.5 22q55 0 86 -29t44.5 -62t14.5 -46q6 29 29 61t61.5 54t89.5 22q84 0 119.5 -73.5t35.5 -174.5v-742h93v-63h-273v63h90v621q0 88 -4.5 153.5t-24 101.5t-64.5 36q-47 0 -77.5 -38.5t-45.5 -97.5t-16 -119
v-657h91v-63h-269v63h89v621q0 133 -14 212t-82 79q-46 0 -75 -39t-42 -98.5t-14 -120.5v-654h87v-63h-274zM499 -253q-27 0 -48 19.5t-21 46.5q0 28 21 49t48 21q26 0 47 -21t21 -49q0 -27 -21 -46.5t-47 -19.5z" />
    <glyph glyph-name="uni1E45" unicode="&#x1e45;" horiz-adv-x="689" 
d="M35 0v63h101v922h-101v62h190v-112q6 28 28.5 55.5t58 45.5t78.5 18q38 0 77 -20.5t66 -83.5t27 -189v-698h101v-63h-284v63h93v675q0 131 -26.5 186t-82.5 55q-29 0 -54 -21t-43 -55t-28 -73t-10 -75v-692h93v-63h-284zM355 1127q-27 0 -48 20t-21 46q0 28 21 49t48 21
q26 0 47 -21t21 -49q0 -26 -21 -46t-47 -20z" />
    <glyph glyph-name="uni1E47" unicode="&#x1e47;" horiz-adv-x="689" 
d="M35 0v63h101v922h-101v62h190v-112q6 28 28.5 55.5t58 45.5t78.5 18q38 0 77 -20.5t66 -83.5t27 -189v-698h101v-63h-284v63h93v675q0 131 -26.5 186t-82.5 55q-29 0 -54 -21t-43 -55t-28 -73t-10 -75v-692h93v-63h-284zM355 -253q-27 0 -48 19.5t-21 46.5q0 28 21 49
t48 21q26 0 47 -21t21 -49q0 -27 -21 -46.5t-47 -19.5z" />
    <glyph glyph-name="uni1E49" unicode="&#x1e49;" horiz-adv-x="689" 
d="M35 0v63h101v922h-101v62h190v-112q6 28 28.5 55.5t58 45.5t78.5 18q38 0 77 -20.5t66 -83.5t27 -189v-698h101v-63h-284v63h93v675q0 131 -26.5 186t-82.5 55q-29 0 -54 -21t-43 -55t-28 -73t-10 -75v-692h93v-63h-284zM52 -206v60h604v-60h-604z" />
    <glyph glyph-name="uni1E4D" unicode="&#x1e4d;" horiz-adv-x="585" 
d="M288 -22q-52 0 -95.5 37.5t-75.5 108.5t-49 172.5t-17 230.5q0 141 18.5 241.5t51 163.5t75.5 92.5t92 29.5t92 -29.5t76 -92.5t51.5 -163.5t18.5 -241.5q0 -129 -17 -230.5t-49 -172.5t-76 -108.5t-96 -37.5zM288 41q61 0 102 119.5t41 366.5q0 243 -41 354t-102 111
q-62 0 -103 -111t-41 -354q0 -247 41 -366.5t103 -119.5zM375 1124q-38 0 -64 18t-48 35.5t-48 17.5q-30 0 -45.5 -21t-20.5 -34l-59 33q5 19 20 41.5t39.5 40t58.5 17.5q39 0 66.5 -18t51 -36.5t50.5 -18.5q24 0 37.5 16.5t19.5 29.5l58 -38q-5 -16 -20 -35.5t-39 -33.5
t-57 -14zM180 1303l-29 32l169 131q15 12 30.5 20t29.5 8q11 0 20.5 -5.5t14.5 -15.5q5 -8 5 -18q0 -19 -18.5 -35t-42.5 -27z" />
    <glyph glyph-name="uni1E4F" unicode="&#x1e4f;" horiz-adv-x="585" 
d="M288 -22q-52 0 -95.5 37.5t-75.5 108.5t-49 172.5t-17 230.5q0 141 18.5 241.5t51 163.5t75.5 92.5t92 29.5t92 -29.5t76 -92.5t51.5 -163.5t18.5 -241.5q0 -129 -17 -230.5t-49 -172.5t-76 -108.5t-96 -37.5zM288 41q61 0 102 119.5t41 366.5q0 243 -41 354t-102 111
q-62 0 -103 -111t-41 -354q0 -247 41 -366.5t103 -119.5zM375 1124q-38 0 -64 18t-48 35.5t-48 17.5q-30 0 -45.5 -21t-20.5 -34l-59 33q5 19 20 41.5t39.5 40t58.5 17.5q39 0 66.5 -18t51 -36.5t50.5 -18.5q24 0 37.5 16.5t19.5 29.5l58 -38q-5 -16 -20 -35.5t-39 -33.5
t-57 -14zM400 1349q-28 0 -48 20t-20 46q0 29 20 50t48 21q26 0 46.5 -21t20.5 -50q0 -26 -20.5 -46t-46.5 -20zM180 1349q-26 0 -46.5 20t-20.5 46q0 29 20.5 50t46.5 21q27 0 48.5 -21t21.5 -50q0 -26 -21.5 -46t-48.5 -20z" />
    <glyph glyph-name="uni1E51" unicode="&#x1e51;" horiz-adv-x="585" 
d="M288 -22q-52 0 -95.5 37.5t-75.5 108.5t-49 172.5t-17 230.5q0 141 18.5 241.5t51 163.5t75.5 92.5t92 29.5t92 -29.5t76 -92.5t51.5 -163.5t18.5 -241.5q0 -129 -17 -230.5t-49 -172.5t-76 -108.5t-96 -37.5zM288 41q61 0 102 119.5t41 366.5q0 243 -41 354t-102 111
q-62 0 -103 -111t-41 -354q0 -247 41 -366.5t103 -119.5zM100 1131v62h379v-62h-379zM404 1247l-196 91q-24 12 -37 22.5t-13 33.5q0 21 13.5 31t33.5 10q18 0 31.5 -6.5t26.5 -17.5l165 -135z" />
    <glyph glyph-name="uni1E53" unicode="&#x1e53;" horiz-adv-x="585" 
d="M288 -22q-52 0 -95.5 37.5t-75.5 108.5t-49 172.5t-17 230.5q0 141 18.5 241.5t51 163.5t75.5 92.5t92 29.5t92 -29.5t76 -92.5t51.5 -163.5t18.5 -241.5q0 -129 -17 -230.5t-49 -172.5t-76 -108.5t-96 -37.5zM288 41q61 0 102 119.5t41 366.5q0 243 -41 354t-102 111
q-62 0 -103 -111t-41 -354q0 -247 41 -366.5t103 -119.5zM100 1131v62h379v-62h-379zM180 1221l-29 32l169 131q15 12 30.5 20t29.5 8q11 0 20.5 -5.5t14.5 -15.5q5 -8 5 -18q0 -19 -18.5 -35t-42.5 -27z" />
    <glyph glyph-name="uni1E5B" unicode="&#x1e5b;" horiz-adv-x="518" 
d="M24 0v63h102v922h-102v62h188l3 -104q2 10 19 37t48 50.5t76 23.5q46 0 74 -32.5t40.5 -88t12.5 -126.5q0 -42 -12.5 -63t-36.5 -21q-21 0 -34 16.5t-13 50.5q0 19 5 31t9 27.5t4 41.5q0 49 -17.5 71t-44.5 22q-40 0 -69 -34.5t-44.5 -85t-15.5 -97.5v-703h105v-63h-297z
M247 -253q-27 0 -48 19.5t-21 46.5q0 28 21 49t48 21q26 0 47 -21t21 -49q0 -27 -21 -46.5t-47 -19.5z" />
    <glyph glyph-name="uni1E5F" unicode="&#x1e5f;" horiz-adv-x="518" 
d="M24 0v63h102v922h-102v62h188l3 -104q2 10 19 37t48 50.5t76 23.5q46 0 74 -32.5t40.5 -88t12.5 -126.5q0 -42 -12.5 -63t-36.5 -21q-21 0 -34 16.5t-13 50.5q0 19 5 31t9 27.5t4 41.5q0 49 -17.5 71t-44.5 22q-40 0 -69 -34.5t-44.5 -85t-15.5 -97.5v-703h105v-63h-297z
M-55 -206v60h604v-60h-604z" />
    <glyph glyph-name="uni1E61" unicode="&#x1e61;" horiz-adv-x="502" 
d="M261 -22q-49 0 -74.5 12.5t-38.5 24.5t-25 12q-10 0 -14.5 -7.5t-4.5 -19.5h-49v277h59q4 -66 13.5 -111t26 -72.5t42 -40t61.5 -12.5q41 0 64.5 24.5t34 61t10.5 70.5q0 57 -13.5 106.5t-44.5 101t-85 110.5q-63 71 -109.5 145.5t-46.5 183.5q0 69 25 115.5t65 70.5
t86 24q38 0 61 -8t36 -17t21 -9q9 0 12 7t3 20h52v-268h-58q-4 64 -13 105.5t-24.5 64.5t-37 33t-50.5 10q-48 0 -75 -36t-27 -98q0 -72 33 -130.5t101 -135.5q58 -67 96 -126t56 -116.5t18 -121.5q0 -69 -21 -125.5t-62.5 -90.5t-102.5 -34zM253 1127q-27 0 -48 20t-21 46
q0 28 21 49t48 21q26 0 47 -21t21 -49q0 -26 -21 -46t-47 -20z" />
    <glyph glyph-name="uni1E63" unicode="&#x1e63;" horiz-adv-x="502" 
d="M261 -22q-49 0 -74.5 12.5t-38.5 24.5t-25 12q-10 0 -14.5 -7.5t-4.5 -19.5h-49v277h59q4 -66 13.5 -111t26 -72.5t42 -40t61.5 -12.5q41 0 64.5 24.5t34 61t10.5 70.5q0 57 -13.5 106.5t-44.5 101t-85 110.5q-63 71 -109.5 145.5t-46.5 183.5q0 69 25 115.5t65 70.5
t86 24q38 0 61 -8t36 -17t21 -9q9 0 12 7t3 20h52v-268h-58q-4 64 -13 105.5t-24.5 64.5t-37 33t-50.5 10q-48 0 -75 -36t-27 -98q0 -72 33 -130.5t101 -135.5q58 -67 96 -126t56 -116.5t18 -121.5q0 -69 -21 -125.5t-62.5 -90.5t-102.5 -34zM253 -253q-27 0 -48 19.5
t-21 46.5q0 28 21 49t48 21q26 0 47 -21t21 -49q0 -27 -21 -46.5t-47 -19.5z" />
    <glyph glyph-name="uni1E65" unicode="&#x1e65;" horiz-adv-x="502" 
d="M261 -22q-49 0 -74.5 12.5t-38.5 24.5t-25 12q-10 0 -14.5 -7.5t-4.5 -19.5h-49v277h59q4 -66 13.5 -111t26 -72.5t42 -40t61.5 -12.5q41 0 64.5 24.5t34 61t10.5 70.5q0 57 -13.5 106.5t-44.5 101t-85 110.5q-63 71 -109.5 145.5t-46.5 183.5q0 69 25 115.5t65 70.5
t86 24q38 0 61 -8t36 -17t21 -9q9 0 12 7t3 20h52v-268h-58q-4 64 -13 105.5t-24.5 64.5t-37 33t-50.5 10q-48 0 -75 -36t-27 -98q0 -72 33 -130.5t101 -135.5q58 -67 96 -126t56 -116.5t18 -121.5q0 -69 -21 -125.5t-62.5 -90.5t-102.5 -34zM143 1077l-29 32l169 131
q15 12 30.5 20t29.5 8q11 0 20.5 -5.5t14.5 -15.5q5 -8 5 -18q0 -19 -18.5 -35t-42.5 -27zM253 1346q-27 0 -48 20t-21 46q0 28 21 49t48 21q26 0 47 -21t21 -49q0 -26 -21 -46t-47 -20z" />
    <glyph glyph-name="uni1E67" unicode="&#x1e67;" horiz-adv-x="502" 
d="M261 -22q-49 0 -74.5 12.5t-38.5 24.5t-25 12q-10 0 -14.5 -7.5t-4.5 -19.5h-49v277h59q4 -66 13.5 -111t26 -72.5t42 -40t61.5 -12.5q41 0 64.5 24.5t34 61t10.5 70.5q0 57 -13.5 106.5t-44.5 101t-85 110.5q-63 71 -109.5 145.5t-46.5 183.5q0 69 25 115.5t65 70.5
t86 24q38 0 61 -8t36 -17t21 -9q9 0 12 7t3 20h52v-268h-58q-4 64 -13 105.5t-24.5 64.5t-37 33t-50.5 10q-48 0 -75 -36t-27 -98q0 -72 33 -130.5t101 -135.5q58 -67 96 -126t56 -116.5t18 -121.5q0 -69 -21 -125.5t-62.5 -90.5t-102.5 -34zM218 1102l-151 212h66l120 -144
l119 144h67l-150 -212h-71zM253 1372q-27 0 -48 20t-21 46q0 28 21 49t48 21q26 0 47 -21t21 -49q0 -26 -21 -46t-47 -20z" />
    <glyph glyph-name="uni1E69" unicode="&#x1e69;" horiz-adv-x="502" 
d="M261 -22q-49 0 -74.5 12.5t-38.5 24.5t-25 12q-10 0 -14.5 -7.5t-4.5 -19.5h-49v277h59q4 -66 13.5 -111t26 -72.5t42 -40t61.5 -12.5q41 0 64.5 24.5t34 61t10.5 70.5q0 57 -13.5 106.5t-44.5 101t-85 110.5q-63 71 -109.5 145.5t-46.5 183.5q0 69 25 115.5t65 70.5
t86 24q38 0 61 -8t36 -17t21 -9q9 0 12 7t3 20h52v-268h-58q-4 64 -13 105.5t-24.5 64.5t-37 33t-50.5 10q-48 0 -75 -36t-27 -98q0 -72 33 -130.5t101 -135.5q58 -67 96 -126t56 -116.5t18 -121.5q0 -69 -21 -125.5t-62.5 -90.5t-102.5 -34zM253 -253q-27 0 -48 19.5
t-21 46.5q0 28 21 49t48 21q26 0 47 -21t21 -49q0 -27 -21 -46.5t-47 -19.5zM253 1127q-27 0 -48 20t-21 46q0 28 21 49t48 21q26 0 47 -21t21 -49q0 -26 -21 -46t-47 -20z" />
    <glyph glyph-name="uni1E6D" unicode="&#x1e6d;" horiz-adv-x="391" 
d="M249 -18q-30 0 -59 11.5t-48 43t-19 93.5v855h-117v62h117q8 35 13.5 83.5t9 99.5t4.5 94h63v-277h140v-62h-140v-872q0 -42 16.5 -55.5t32.5 -13.5q21 0 34 9t21 19l37 -49q-15 -16 -43 -28.5t-62 -12.5zM254 -247q-27 0 -48 19.5t-21 46.5q0 28 21 49t48 21
q26 0 47 -21t21 -49q0 -27 -21 -46.5t-47 -19.5z" />
    <glyph glyph-name="uni1E6F" unicode="&#x1e6f;" horiz-adv-x="389" 
d="M55 -179v62h293v-62h-293zM249 -18q-30 0 -59 11.5t-48 43t-19 93.5v855h-117v62h117q8 35 13.5 83.5t9 99.5t4.5 94h63v-277h140v-62h-140v-872q0 -42 16.5 -55.5t32.5 -13.5q21 0 34 9t21 19l37 -49q-15 -16 -43 -28.5t-62 -12.5z" />
    <glyph glyph-name="uni1E79" unicode="&#x1e79;" horiz-adv-x="661" 
d="M302 -22q-46 0 -87.5 21.5t-67 81.5t-25.5 175v729h-104v61h194v-782q0 -88 15 -134t39 -62.5t52 -16.5q45 0 76 45t46.5 114t15.5 143v632h-103v61h193v-983h93v-63h-173l-3 130q-4 -31 -23 -66t-53 -60.5t-85 -25.5zM419 1124q-38 0 -64 18t-48 35.5t-48 17.5
q-30 0 -45.5 -21t-20.5 -34l-59 33q5 19 20 41.5t39.5 40t58.5 17.5q39 0 66.5 -18t51 -36.5t50.5 -18.5q24 0 37.5 16.5t19.5 29.5l58 -38q-5 -16 -20 -35.5t-39 -33.5t-57 -14zM224 1303l-29 32l169 131q15 12 30.5 20t29.5 8q11 0 20.5 -5.5t14.5 -15.5q5 -8 5 -18
q0 -19 -18.5 -35t-42.5 -27z" />
    <glyph glyph-name="uni1E7B" unicode="&#x1e7b;" horiz-adv-x="661" 
d="M302 -22q-46 0 -87.5 21.5t-67 81.5t-25.5 175v729h-104v61h194v-782q0 -88 15 -134t39 -62.5t52 -16.5q45 0 76 45t46.5 114t15.5 143v632h-103v61h193v-983h93v-63h-173l-3 130q-4 -31 -23 -66t-53 -60.5t-85 -25.5zM71 1131v62h527v-62h-527zM444 1268q-28 0 -48 20
t-20 46q0 29 20 50t48 21q26 0 46.5 -21t20.5 -50q0 -26 -20.5 -46t-46.5 -20zM224 1268q-26 0 -46.5 20t-20.5 46q0 29 20.5 50t46.5 21q27 0 48.5 -21t21.5 -50q0 -26 -21.5 -46t-48.5 -20z" />
    <glyph glyph-name="Wgrave" unicode="&#x1e80;" horiz-adv-x="1010" 
d="M284 -3l-153 1341h-106v62h299v-62h-94l121 -1182l-13 -13l152 1187l17 -137l-24 145h-102v62h299v-62h-100l154 -1179l-10 -13l122 1192h-83v62h240v-62h-88l-156 -1341h-88l-159 1179l25 28l-166 -1207h-87zM630 1446l-196 91q-24 12 -37 22.5t-13 33.5q0 21 13.5 31
t33.5 10q18 0 31.5 -6.5t26.5 -17.5l165 -135z" />
    <glyph glyph-name="wgrave" unicode="&#x1e81;" horiz-adv-x="927" 
d="M599 -6l-142 991h-93v62h255v-62h-70l111 -846l104 846h-73v62h219v-62h-80l-130 -991h-101zM231 -6l-132 991h-80v62h251v-62h-76l100 -846l114 846h-63v62h217v-62h-90l-140 -991h-101zM568 1102l-196 91q-24 12 -37 22.5t-13 33.5q0 21 13.5 31t33.5 10
q18 0 31.5 -6.5t26.5 -17.5l165 -135z" />
    <glyph glyph-name="Wacute" unicode="&#x1e82;" horiz-adv-x="1010" 
d="M284 -3l-153 1341h-106v62h299v-62h-94l121 -1182l-13 -13l152 1187l17 -137l-24 145h-102v62h299v-62h-100l154 -1179l-10 -13l122 1192h-83v62h240v-62h-88l-156 -1341h-88l-159 1179l25 28l-166 -1207h-87zM406 1445l-29 32l169 131q14 11 30 19.5t30 8.5
q11 0 20.5 -5.5t14.5 -15.5q5 -8 5 -18q0 -19 -18.5 -35t-42.5 -27z" />
    <glyph glyph-name="wacute" unicode="&#x1e83;" horiz-adv-x="927" 
d="M599 -6l-142 991h-93v62h255v-62h-70l111 -846l104 846h-73v62h219v-62h-80l-130 -991h-101zM231 -6l-132 991h-80v62h251v-62h-76l100 -846l114 846h-63v62h217v-62h-90l-140 -991h-101zM344 1077l-29 32l169 131q15 12 30.5 20t29.5 8q11 0 20.5 -5.5t14.5 -15.5
q5 -8 5 -18q0 -19 -18.5 -35t-42.5 -27z" />
    <glyph glyph-name="Wdieresis" unicode="&#x1e84;" horiz-adv-x="1010" 
d="M284 -3l-153 1341h-106v62h299v-62h-94l121 -1182l-13 -13l152 1187l17 -137l-24 145h-102v62h299v-62h-100l154 -1179l-10 -13l122 1192h-83v62h240v-62h-88l-156 -1341h-88l-159 1179l25 28l-166 -1207h-87zM626 1499q-28 0 -48 19.5t-20 46.5q0 29 20 50t48 21
q26 0 46.5 -21t20.5 -50q0 -27 -20.5 -46.5t-46.5 -19.5zM406 1499q-26 0 -46.5 19.5t-20.5 46.5q0 29 20.5 50t46.5 21q27 0 48.5 -21t21.5 -50q0 -27 -21.5 -46.5t-48.5 -19.5z" />
    <glyph glyph-name="wdieresis" unicode="&#x1e85;" horiz-adv-x="927" 
d="M599 -6l-142 991h-93v62h255v-62h-70l111 -846l104 846h-73v62h219v-62h-80l-130 -991h-101zM231 -6l-132 991h-80v62h251v-62h-76l100 -846l114 846h-63v62h217v-62h-90l-140 -991h-101zM564 1123q-28 0 -48 20t-20 46q0 29 20 50t48 21q26 0 46.5 -21t20.5 -50
q0 -26 -20.5 -46t-46.5 -20zM344 1123q-26 0 -46.5 20t-20.5 46q0 29 20.5 50t46.5 21q27 0 48.5 -21t21.5 -50q0 -26 -21.5 -46t-48.5 -20z" />
    <glyph glyph-name="uni1E8F" unicode="&#x1e8f;" horiz-adv-x="597" 
d="M166 -502q-37 0 -59 28.5t-31.5 77.5t-9.5 112q0 36 11 56t34 20t33.5 -18t10.5 -45q0 -20 -5 -34.5t-10.5 -28.5t-5.5 -35q0 -28 7.5 -55t26.5 -27q12 0 20 14t14.5 41t13.5 63l68 356l-177 962h-82v62h251v-62h-73l125 -710l121 710h-74v62h224v-62h-81l-178 -992
l-67 -343q-10 -51 -23.5 -85t-33.5 -50.5t-50 -16.5zM309 1127q-27 0 -48 20t-21 46q0 28 21 49t48 21q26 0 47 -21t21 -49q0 -26 -21 -46t-47 -20z" />
    <glyph glyph-name="uni1E93" unicode="&#x1e93;" horiz-adv-x="501" 
d="M72 0v63l259 922h-100q-45 0 -64 -13.5t-23.5 -57.5t-4.5 -135h-60v268h343v-62l-259 -922h91q53 0 75 14.5t27 61t5 138.5h62v-277h-351zM252 -253q-27 0 -48 19.5t-21 46.5q0 28 21 49t48 21q26 0 47 -21t21 -49q0 -27 -21 -46.5t-47 -19.5z" />
    <glyph glyph-name="uni1E97" unicode="&#x1e97;" horiz-adv-x="391" 
d="M249 -18q-30 0 -59 11.5t-48 43t-19 93.5v855h-117v62h117q8 35 13.5 83.5t9 99.5t4.5 94h63v-277h140v-62h-140v-872q0 -42 16.5 -55.5t32.5 -13.5q21 0 34 9t21 19l37 -49q-15 -16 -43 -28.5t-62 -12.5zM296 1394q-28 0 -48 20t-20 46q0 29 20 50t48 21q26 0 46.5 -21
t20.5 -50q0 -26 -20.5 -46t-46.5 -20zM76 1394q-26 0 -46.5 20t-20.5 46q0 29 20.5 50t46.5 21q27 0 48.5 -21t21.5 -50q0 -26 -21.5 -46t-48.5 -20z" />
    <glyph glyph-name="uni1E9E" unicode="&#x1e9e;" horiz-adv-x="785" 
d="M489 -24q-55 0 -85 37.5t-30 109.5q0 39 16 55t35 16q20 0 34 -13t14 -42q0 -18 -5 -29.5t-10 -19.5t-5 -19q0 -12 7.5 -24t28.5 -12q41 0 72.5 29.5t49 88t17.5 144.5q0 84 -27 157.5t-67.5 136.5t-81 117t-68 99t-27.5 82q0 23 21 65.5t55.5 96.5t76 111.5t82.5 110.5
t73 95h-258q-60 0 -93.5 -23.5t-47.5 -78t-14 -147.5v-1119h-194v63h103v1034q0 131 28.5 202t84 98t135.5 27h290l36 -56q-43 -57 -97 -129t-102.5 -142.5t-80 -123.5t-31.5 -75t28.5 -61.5t71 -93.5t85 -120.5t71.5 -145t29 -165.5q0 -105 -29 -180.5t-78.5 -115.5
t-112.5 -40z" />
    <glyph glyph-name="uni1EA0" unicode="&#x1ea0;" horiz-adv-x="651" 
d="M13 0v63h78l183 1341h89l182 -1341h98v-63h-284v63h90l-143 1145h-1l-148 -1145h78v-63h-222zM170 342v60h265v-60h-265zM320 -253q-27 0 -48 19.5t-21 46.5q0 28 21 49t48 21q26 0 47 -21t21 -49q0 -27 -21 -46.5t-47 -19.5z" />
    <glyph glyph-name="uni1EA1" unicode="&#x1ea1;" horiz-adv-x="595" 
d="M250 -20q-57 0 -100 28.5t-67.5 86t-24.5 143.5q0 91 33.5 151.5t83 103t99 77.5t83 73t33.5 91q0 77 -11 134t-37.5 88.5t-72.5 31.5q-51 0 -84.5 -36.5t-33.5 -82.5q0 -20 4.5 -31t8 -21.5t3.5 -29.5q0 -27 -11.5 -45.5t-35.5 -18.5q-23 0 -34.5 20.5t-11.5 56.5
q0 72 25 129.5t71 91t107 33.5q62 0 107.5 -30.5t70.5 -98t25 -179.5v-626q0 -38 9.5 -51t27.5 -13q15 0 24.5 5.5t13.5 10.5l31 -55q-11 -11 -34.5 -19t-53.5 -8q-27 0 -49 10.5t-34.5 30.5t-13.5 50q-6 -19 -23 -43t-48 -41t-80 -17zM263 50q43 0 71 32.5t42 75.5t14 73
v372q-2 -28 -38 -56.5t-81 -66t-80 -94.5t-35 -144q0 -94 27.5 -143t79.5 -49zM316 -253q-27 0 -48 19.5t-21 46.5q0 28 21 49t48 21q26 0 47 -21t21 -49q0 -27 -21 -46.5t-47 -19.5z" />
    <glyph glyph-name="uni1EA2" unicode="&#x1ea2;" horiz-adv-x="651" 
d="M13 0v63h78l183 1341h89l182 -1341h98v-63h-284v63h90l-143 1145h-1l-148 -1145h78v-63h-222zM170 342v60h265v-60h-265zM314 1739q54 0 94 -25t40 -79q0 -44 -25 -72.5t-51 -50t-26 -46.5h-57q0 40 21.5 64.5t42 46t20.5 53.5q0 33 -20.5 43t-55.5 10q-24 0 -46.5 -8
t-36.5 -20l-41 42q18 20 59 31t82 11z" />
    <glyph glyph-name="uni1EA3" unicode="&#x1ea3;" horiz-adv-x="595" 
d="M250 -20q-57 0 -100 28.5t-67.5 86t-24.5 143.5q0 91 33.5 151.5t83 103t99 77.5t83 73t33.5 91q0 77 -11 134t-37.5 88.5t-72.5 31.5q-51 0 -84.5 -36.5t-33.5 -82.5q0 -20 4.5 -31t8 -21.5t3.5 -29.5q0 -27 -11.5 -45.5t-35.5 -18.5q-23 0 -34.5 20.5t-11.5 56.5
q0 72 25 129.5t71 91t107 33.5q62 0 107.5 -30.5t70.5 -98t25 -179.5v-626q0 -38 9.5 -51t27.5 -13q15 0 24.5 5.5t13.5 10.5l31 -55q-11 -11 -34.5 -19t-53.5 -8q-27 0 -49 10.5t-34.5 30.5t-13.5 50q-6 -19 -23 -43t-48 -41t-80 -17zM263 50q43 0 71 32.5t42 75.5t14 73
v372q-2 -28 -38 -56.5t-81 -66t-80 -94.5t-35 -144q0 -94 27.5 -143t79.5 -49zM277 1410q54 0 94 -25t40 -79q0 -44 -25 -72.5t-51 -50t-26 -46.5h-57q0 40 21.5 64.5t42 46t20.5 53.5q0 33 -20.5 43t-55.5 10q-24 0 -46.5 -8t-36.5 -20l-41 42q18 20 59 31t82 11z" />
    <glyph glyph-name="uni1EA4" unicode="&#x1ea4;" horiz-adv-x="651" 
d="M13 0v63h78l183 1341h89l182 -1341h98v-63h-284v63h90l-143 1145h-1l-148 -1145h78v-63h-222zM170 342v60h265v-60h-265zM137 1463l147 168h71l146 -168h-65l-117 101l-117 -101h-65zM448 1614l-25 28l143 111q28 23 52 23q9 0 17 -4.5t13 -13.5q4 -6 4 -15
q0 -16 -16 -29.5t-36 -22.5z" />
    <glyph glyph-name="uni1EA5" unicode="&#x1ea5;" horiz-adv-x="595" 
d="M250 -20q-57 0 -100 28.5t-67.5 86t-24.5 143.5q0 91 33.5 151.5t83 103t99 77.5t83 73t33.5 91q0 77 -11 134t-37.5 88.5t-72.5 31.5q-51 0 -84.5 -36.5t-33.5 -82.5q0 -20 4.5 -31t8 -21.5t3.5 -29.5q0 -27 -11.5 -45.5t-35.5 -18.5q-23 0 -34.5 20.5t-11.5 56.5
q0 72 25 129.5t71 91t107 33.5q62 0 107.5 -30.5t70.5 -98t25 -179.5v-626q0 -38 9.5 -51t27.5 -13q15 0 24.5 5.5t13.5 10.5l31 -55q-11 -11 -34.5 -19t-53.5 -8q-27 0 -49 10.5t-34.5 30.5t-13.5 50q-6 -19 -23 -43t-48 -41t-80 -17zM263 50q43 0 71 32.5t42 75.5t14 73
v372q-2 -28 -38 -56.5t-81 -66t-80 -94.5t-35 -144q0 -94 27.5 -143t79.5 -49zM100 1110l147 208h71l146 -208h-65l-117 141l-117 -141h-65zM411 1301l-25 28l143 111q28 23 52 23q9 0 17 -4.5t13 -13.5q4 -6 4 -15q0 -16 -16 -29.5t-36 -22.5z" />
    <glyph glyph-name="uni1EA6" unicode="&#x1ea6;" horiz-adv-x="651" 
d="M13 0v63h78l183 1341h89l182 -1341h98v-63h-284v63h90l-143 1145h-1l-148 -1145h78v-63h-222zM170 342v60h265v-60h-265zM137 1463l147 168h71l146 -168h-65l-117 101l-117 -101h-65zM519 1607l-169 78q-20 9 -31.5 19t-11.5 29q0 18 11.5 27t28.5 9q16 0 28 -5.5
t23 -15.5l140 -115z" />
    <glyph glyph-name="uni1EA7" unicode="&#x1ea7;" horiz-adv-x="595" 
d="M250 -20q-57 0 -100 28.5t-67.5 86t-24.5 143.5q0 91 33.5 151.5t83 103t99 77.5t83 73t33.5 91q0 77 -11 134t-37.5 88.5t-72.5 31.5q-51 0 -84.5 -36.5t-33.5 -82.5q0 -20 4.5 -31t8 -21.5t3.5 -29.5q0 -27 -11.5 -45.5t-35.5 -18.5q-23 0 -34.5 20.5t-11.5 56.5
q0 72 25 129.5t71 91t107 33.5q62 0 107.5 -30.5t70.5 -98t25 -179.5v-626q0 -38 9.5 -51t27.5 -13q15 0 24.5 5.5t13.5 10.5l31 -55q-11 -11 -34.5 -19t-53.5 -8q-27 0 -49 10.5t-34.5 30.5t-13.5 50q-6 -19 -23 -43t-48 -41t-80 -17zM263 50q43 0 71 32.5t42 75.5t14 73
v372q-2 -28 -38 -56.5t-81 -66t-80 -94.5t-35 -144q0 -94 27.5 -143t79.5 -49zM100 1110l147 208h71l146 -208h-65l-117 141l-117 -141h-65zM482 1294l-169 78q-20 9 -31.5 19t-11.5 29q0 18 11.5 27t28.5 9q16 0 28 -5.5t23 -15.5l140 -115z" />
    <glyph glyph-name="uni1EA8" unicode="&#x1ea8;" horiz-adv-x="651" 
d="M13 0v63h78l183 1341h89l182 -1341h98v-63h-284v63h90l-143 1145h-1l-148 -1145h78v-63h-222zM170 342v60h265v-60h-265zM135 1464l147 168h71l146 -168h-65l-117 101l-117 -101h-65zM466 1804q42 0 74 -20.5t32 -62.5q0 -35 -20 -58t-41 -40t-21 -37h-44q0 31 17 50.5
t33.5 37.5t16.5 43t-17 33.5t-44 8.5q-19 0 -37 -6.5t-29 -16.5l-32 34q14 16 47 25t65 9z" />
    <glyph glyph-name="uni1EA9" unicode="&#x1ea9;" horiz-adv-x="595" 
d="M250 -20q-57 0 -100 28.5t-67.5 86t-24.5 143.5q0 91 33.5 151.5t83 103t99 77.5t83 73t33.5 91q0 77 -11 134t-37.5 88.5t-72.5 31.5q-51 0 -84.5 -36.5t-33.5 -82.5q0 -20 4.5 -31t8 -21.5t3.5 -29.5q0 -27 -11.5 -45.5t-35.5 -18.5q-23 0 -34.5 20.5t-11.5 56.5
q0 72 25 129.5t71 91t107 33.5q62 0 107.5 -30.5t70.5 -98t25 -179.5v-626q0 -38 9.5 -51t27.5 -13q15 0 24.5 5.5t13.5 10.5l31 -55q-11 -11 -34.5 -19t-53.5 -8q-27 0 -49 10.5t-34.5 30.5t-13.5 50q-6 -19 -23 -43t-48 -41t-80 -17zM263 50q43 0 71 32.5t42 75.5t14 73
v372q-2 -28 -38 -56.5t-81 -66t-80 -94.5t-35 -144q0 -94 27.5 -143t79.5 -49zM98 1111l147 208h71l146 -208h-65l-117 141l-117 -141h-65zM429 1491q42 0 74 -20.5t32 -62.5q0 -35 -20 -58t-41 -40t-21 -37h-44q0 31 17 50.5t33.5 37.5t16.5 43t-17 33.5t-44 8.5
q-19 0 -37 -6.5t-29 -16.5l-32 34q14 16 47 25t65 9z" />
    <glyph glyph-name="uni1EAA" unicode="&#x1eaa;" horiz-adv-x="651" 
d="M13 0v63h78l183 1341h89l182 -1341h98v-63h-284v63h90l-143 1145h-1l-148 -1145h78v-63h-222zM170 342v60h265v-60h-265zM137 1464l148 168h70l146 -168h-64l-118 101l-117 -101h-65zM405 1671q-39 0 -67 17.5t-52.5 35.5t-50.5 18q-30 0 -48 -21t-23 -34l-54 27
q5 19 22.5 43t44.5 42.5t60 18.5q39 0 67 -18t52.5 -36t52.5 -18q29 0 43.5 16.5t21.5 29.5l55 -30q-5 -16 -22 -37.5t-43 -37.5t-59 -16z" />
    <glyph glyph-name="uni1EAB" unicode="&#x1eab;" horiz-adv-x="595" 
d="M250 -20q-57 0 -100 28.5t-67.5 86t-24.5 143.5q0 91 33.5 151.5t83 103t99 77.5t83 73t33.5 91q0 77 -11 134t-37.5 88.5t-72.5 31.5q-51 0 -84.5 -36.5t-33.5 -82.5q0 -20 4.5 -31t8 -21.5t3.5 -29.5q0 -27 -11.5 -45.5t-35.5 -18.5q-23 0 -34.5 20.5t-11.5 56.5
q0 72 25 129.5t71 91t107 33.5q62 0 107.5 -30.5t70.5 -98t25 -179.5v-626q0 -38 9.5 -51t27.5 -13q15 0 24.5 5.5t13.5 10.5l31 -55q-11 -11 -34.5 -19t-53.5 -8q-27 0 -49 10.5t-34.5 30.5t-13.5 50q-6 -19 -23 -43t-48 -41t-80 -17zM263 50q43 0 71 32.5t42 75.5t14 73
v372q-2 -28 -38 -56.5t-81 -66t-80 -94.5t-35 -144q0 -94 27.5 -143t79.5 -49zM101 1111l147 208h71l146 -208h-65l-117 141l-117 -141h-65zM368 1358q-38 0 -66 17.5t-52.5 35t-50.5 17.5q-30 0 -48 -20.5t-23 -33.5l-54 27q5 19 22.5 43t44 42.5t60.5 18.5q39 0 66.5 -18
t52.5 -36t52 -18q30 0 44.5 16.5t21.5 28.5l54 -29q-4 -16 -21.5 -38t-43.5 -37.5t-59 -15.5z" />
    <glyph glyph-name="uni1EAC" unicode="&#x1eac;" horiz-adv-x="651" 
d="M13 0v63h78l183 1341h89l182 -1341h98v-63h-284v63h90l-143 1145h-1l-148 -1145h78v-63h-222zM170 342v60h265v-60h-265zM320 -253q-27 0 -48 19.5t-21 46.5q0 28 21 49t48 21q26 0 47 -21t21 -49q0 -27 -21 -46.5t-47 -19.5zM137 1458l147 208h71l146 -208h-65l-117 141
l-117 -141h-65z" />
    <glyph glyph-name="uni1EAD" unicode="&#x1ead;" horiz-adv-x="595" 
d="M250 -20q-57 0 -100 28.5t-67.5 86t-24.5 143.5q0 91 33.5 151.5t83 103t99 77.5t83 73t33.5 91q0 77 -11 134t-37.5 88.5t-72.5 31.5q-51 0 -84.5 -36.5t-33.5 -82.5q0 -20 4.5 -31t8 -21.5t3.5 -29.5q0 -27 -11.5 -45.5t-35.5 -18.5q-23 0 -34.5 20.5t-11.5 56.5
q0 72 25 129.5t71 91t107 33.5q62 0 107.5 -30.5t70.5 -98t25 -179.5v-626q0 -38 9.5 -51t27.5 -13q15 0 24.5 5.5t13.5 10.5l31 -55q-11 -11 -34.5 -19t-53.5 -8q-27 0 -49 10.5t-34.5 30.5t-13.5 50q-6 -19 -23 -43t-48 -41t-80 -17zM263 50q43 0 71 32.5t42 75.5t14 73
v372q-2 -28 -38 -56.5t-81 -66t-80 -94.5t-35 -144q0 -94 27.5 -143t79.5 -49zM316 -253q-27 0 -48 19.5t-21 46.5q0 28 21 49t48 21q26 0 47 -21t21 -49q0 -27 -21 -46.5t-47 -19.5zM100 1119l147 208h71l146 -208h-65l-117 141l-117 -141h-65z" />
    <glyph glyph-name="uni1EAE" unicode="&#x1eae;" horiz-adv-x="651" 
d="M13 0v63h78l183 1341h89l182 -1341h98v-63h-284v63h90l-143 1145h-1l-148 -1145h78v-63h-222zM170 342v60h265v-60h-265zM317 1495q-57 0 -92.5 24.5t-52 66.5t-16.5 92h59q4 -59 29.5 -89.5t72.5 -30.5q48 0 73.5 30.5t29.5 89.5h60q0 -50 -16 -92t-52.5 -66.5
t-94.5 -24.5zM209 1724l-29 32l169 131q14 11 30 19.5t30 8.5q11 0 20.5 -5.5t14.5 -15.5q5 -8 5 -18q0 -19 -18.5 -35t-42.5 -27z" />
    <glyph glyph-name="uni1EAF" unicode="&#x1eaf;" horiz-adv-x="595" 
d="M250 -20q-57 0 -100 28.5t-67.5 86t-24.5 143.5q0 91 33.5 151.5t83 103t99 77.5t83 73t33.5 91q0 77 -11 134t-37.5 88.5t-72.5 31.5q-51 0 -84.5 -36.5t-33.5 -82.5q0 -20 4.5 -31t8 -21.5t3.5 -29.5q0 -27 -11.5 -45.5t-35.5 -18.5q-23 0 -34.5 20.5t-11.5 56.5
q0 72 25 129.5t71 91t107 33.5q62 0 107.5 -30.5t70.5 -98t25 -179.5v-626q0 -38 9.5 -51t27.5 -13q15 0 24.5 5.5t13.5 10.5l31 -55q-11 -11 -34.5 -19t-53.5 -8q-27 0 -49 10.5t-34.5 30.5t-13.5 50q-6 -19 -23 -43t-48 -41t-80 -17zM263 50q43 0 71 32.5t42 75.5t14 73
v372q-2 -28 -38 -56.5t-81 -66t-80 -94.5t-35 -144q0 -94 27.5 -143t79.5 -49zM280 1106q-57 0 -92.5 24.5t-52 66.5t-16.5 92h59q4 -59 29.5 -89.5t72.5 -30.5q48 0 73.5 30.5t29.5 89.5h60q0 -50 -16 -92t-52.5 -66.5t-94.5 -24.5zM179 1318l-29 32l169 132q15 11 30.5 19
t29.5 8q11 0 20.5 -5.5t14.5 -15.5q5 -8 5 -18q0 -19 -18.5 -35t-42.5 -27z" />
    <glyph glyph-name="uni1EB0" unicode="&#x1eb0;" horiz-adv-x="651" 
d="M13 0v63h78l183 1341h89l182 -1341h98v-63h-284v63h90l-143 1145h-1l-148 -1145h78v-63h-222zM170 342v60h265v-60h-265zM317 1495q-57 0 -92.5 24.5t-52 66.5t-16.5 92h59q4 -59 29.5 -89.5t72.5 -30.5q48 0 73.5 30.5t29.5 89.5h60q0 -50 -16 -92t-52.5 -66.5
t-94.5 -24.5zM433 1725l-196 91q-24 12 -37 22.5t-13 33.5q0 21 13.5 31t33.5 10q18 0 31.5 -6.5t26.5 -17.5l165 -135z" />
    <glyph glyph-name="uni1EB1" unicode="&#x1eb1;" horiz-adv-x="595" 
d="M250 -20q-57 0 -100 28.5t-67.5 86t-24.5 143.5q0 91 33.5 151.5t83 103t99 77.5t83 73t33.5 91q0 77 -11 134t-37.5 88.5t-72.5 31.5q-51 0 -84.5 -36.5t-33.5 -82.5q0 -20 4.5 -31t8 -21.5t3.5 -29.5q0 -27 -11.5 -45.5t-35.5 -18.5q-23 0 -34.5 20.5t-11.5 56.5
q0 72 25 129.5t71 91t107 33.5q62 0 107.5 -30.5t70.5 -98t25 -179.5v-626q0 -38 9.5 -51t27.5 -13q15 0 24.5 5.5t13.5 10.5l31 -55q-11 -11 -34.5 -19t-53.5 -8q-27 0 -49 10.5t-34.5 30.5t-13.5 50q-6 -19 -23 -43t-48 -41t-80 -17zM263 50q43 0 71 32.5t42 75.5t14 73
v372q-2 -28 -38 -56.5t-81 -66t-80 -94.5t-35 -144q0 -94 27.5 -143t79.5 -49zM280 1126q-57 0 -92.5 24.5t-52 66.5t-16.5 92h59q4 -59 29.5 -89.5t72.5 -30.5q48 0 73.5 30.5t29.5 89.5h60q0 -50 -16 -92t-52.5 -66.5t-94.5 -24.5zM394 1338l-196 91q-24 11 -37 22t-13 33
q0 21 13 31.5t33 10.5q19 0 32 -7t26 -18l165 -134z" />
    <glyph glyph-name="uni1EB2" unicode="&#x1eb2;" horiz-adv-x="651" 
d="M13 0v63h78l183 1341h89l182 -1341h98v-63h-284v63h90l-143 1145h-1l-148 -1145h78v-63h-222zM170 342v60h265v-60h-265zM317 1495q-57 0 -92.5 24.5t-52 66.5t-16.5 92h59q4 -59 29.5 -89.5t72.5 -30.5q48 0 73.5 30.5t29.5 89.5h60q0 -50 -16 -92t-52.5 -66.5
t-94.5 -24.5zM314 2018q54 0 94 -25t40 -79q0 -44 -25 -72.5t-51 -50t-26 -46.5h-57q0 40 21.5 64.5t42 46t20.5 53.5q0 33 -20.5 43t-55.5 10q-24 0 -46.5 -8t-36.5 -20l-41 42q18 20 59 31t82 11z" />
    <glyph glyph-name="uni1EB3" unicode="&#x1eb3;" horiz-adv-x="595" 
d="M250 -20q-57 0 -100 28.5t-67.5 86t-24.5 143.5q0 91 33.5 151.5t83 103t99 77.5t83 73t33.5 91q0 77 -11 134t-37.5 88.5t-72.5 31.5q-51 0 -84.5 -36.5t-33.5 -82.5q0 -20 4.5 -31t8 -21.5t3.5 -29.5q0 -27 -11.5 -45.5t-35.5 -18.5q-23 0 -34.5 20.5t-11.5 56.5
q0 72 25 129.5t71 91t107 33.5q62 0 107.5 -30.5t70.5 -98t25 -179.5v-626q0 -38 9.5 -51t27.5 -13q15 0 24.5 5.5t13.5 10.5l31 -55q-11 -11 -34.5 -19t-53.5 -8q-27 0 -49 10.5t-34.5 30.5t-13.5 50q-6 -19 -23 -43t-48 -41t-80 -17zM263 50q43 0 71 32.5t42 75.5t14 73
v372q-2 -28 -38 -56.5t-81 -66t-80 -94.5t-35 -144q0 -94 27.5 -143t79.5 -49zM281 1127q-57 0 -92.5 24.5t-52 66.5t-16.5 92h59q4 -59 29.5 -89.5t72.5 -30.5q48 0 73.5 30.5t29.5 89.5h60q0 -50 -16 -92t-52.5 -66.5t-94.5 -24.5zM279 1556q54 0 94 -25t40 -79
q0 -44 -25 -72.5t-51 -50t-26 -46.5h-57q0 40 21.5 64.5t42.5 46t21 53.5q0 33 -21 43t-56 10q-24 0 -46.5 -8t-36.5 -20l-41 42q18 20 59 31t82 11z" />
    <glyph glyph-name="uni1EB4" unicode="&#x1eb4;" horiz-adv-x="651" 
d="M13 0v63h78l183 1341h89l182 -1341h98v-63h-284v63h90l-143 1145h-1l-148 -1145h78v-63h-222zM170 342v60h265v-60h-265zM317 1495q-57 0 -92.5 24.5t-52 66.5t-16.5 92h59q4 -59 29.5 -89.5t72.5 -30.5q48 0 73.5 30.5t29.5 89.5h60q0 -50 -16 -92t-52.5 -66.5
t-94.5 -24.5zM404 1752q-38 0 -64 18t-48 35.5t-48 17.5q-30 0 -45.5 -21t-20.5 -34l-59 33q5 19 20 41.5t39.5 40t58.5 17.5q39 0 66.5 -18t51 -36.5t50.5 -18.5q24 0 37.5 16.5t19.5 29.5l58 -38q-5 -16 -20 -35.5t-39 -33.5t-57 -14z" />
    </font>
</defs>
</svg>
