<?xml version="1.0" standalone="no"?>
<!DOCTYPE svg PUBLIC "-//W3C//DTD SVG 1.1//EN" "http://www.w3.org/Graphics/SVG/1.1/DTD/svg11.dtd" >
<svg xmlns="http://www.w3.org/2000/svg" xmlns:xlink="http://www.w3.org/1999/xlink" version="1.1">
<metadata>
Created by FontForge 20170731 at Tue Dec  1 16:59:51 2020
 By Aleksey,,,
Copyright 2020 The Imbue Project Authors (https://github.com/Etcetera-Type-Co/Imbue)
</metadata>
<defs>
<font id="Imbue10pt-Bold" horiz-adv-x="0" >
  <font-face 
    font-family="Imbue 10pt"
    font-weight="700"
    font-stretch="normal"
    units-per-em="2000"
    panose-1="0 0 0 0 0 0 0 0 0 0"
    ascent="1600"
    descent="-400"
    x-height="1046"
    cap-height="1400"
    bbox="-374 -502 1592 2037"
    underline-thickness="50"
    underline-position="-175"
    unicode-range="U+000D-FB02"
  />
<missing-glyph horiz-adv-x="600" 
d="M141 133v947h317v-947h-317zM165 156h269v900h-269v-900zM302 889l-68 -69l-18 18l68 69l-68 69l18 19l68 -69l68 69l19 -19l-68 -69l68 -69l-19 -18zM302 582l-68 -69l-18 18l68 69l-68 69l18 18l68 -69l68 69l19 -18l-69 -69l69 -69l-19 -18zM302 274l-68 -69l-18 19
l68 69l-68 69l18 18l68 -69l68 69l19 -18l-68 -69l68 -69l-19 -19z" />
    <glyph glyph-name="f_f" unicode="ff" horiz-adv-x="1071" 
d="M24 0v75h119v897h-122v75h122v87q0 122 40 206t114 127.5t176 43.5q64 0 110.5 -25.5t73 -66.5t28.5 -89l-54 -84q-1 42 -14.5 84.5t-41.5 71t-73 28.5q-39 0 -62.5 -29t-36 -79t-16.5 -112.5t-4 -130.5v-20.5v-11.5h166v-75h-166v-897h106v-75h-465zM486 0v75h113v897
h-132v75h132v109q0 102 33.5 182.5t102 126.5t172.5 46q103 0 158 -74t55 -192q0 -65 -25 -99.5t-75 -34.5q-52 0 -73.5 32.5t-21.5 76.5q0 41 16.5 63t33 38.5t16.5 38.5q0 35 -19.5 55t-44.5 20q-29 0 -46.5 -23t-26.5 -63t-12 -92t-3 -111v-99h141v-75h-141v-897h116v-75
h-469z" />
    <glyph glyph-name="f_f_i" unicode="ffi" horiz-adv-x="1407" 
d="M24 0v75h119v897h-122v75h122v87q0 122 40 206t114 127.5t176 43.5q64 0 111.5 -26t74.5 -68t30 -92l-53 -90q-1 47 -15.5 92t-44 74t-74.5 29q-39 0 -62.5 -29t-36 -79t-16.5 -112.5t-4 -130.5v-20.5v-11.5h166v-75h-166v-897h99v-75h-458zM936 0v75h102v897h-102v75
h342v-972h103v-75h-445zM480 0v75h120v897h-140v75h140v72q0 128 51.5 215t138 132t191.5 45q82 0 156.5 -30t121.5 -86.5t47 -134.5q0 -52 -20 -81.5t-49 -41t-58 -11.5q-45 0 -83 23t-38 80q0 35 14.5 53t28.5 34t14 42q0 28 -18.5 43t-46 21.5t-54.5 6.5q-54 0 -88.5 -23
t-51 -94t-16.5 -215v-50h198v-75h-198v-897h122v-75h-482z" />
    <glyph glyph-name="f_f_l" unicode="ffl" horiz-adv-x="1488" 
d="M24 0v75h121v897h-124v75h124v87q0 122 39.5 206t113.5 127.5t177 43.5q63 0 110.5 -26t74.5 -68t30 -92l-52 -90q-2 47 -16.5 92t-43.5 74t-75 29q-39 0 -63 -29t-35.5 -79t-16 -112.5t-4.5 -130.5v-20.5v-11.5h165v-75h-165v-897h98v-75h-458zM1006 0v75h105v1350h-105
v75h345v-1425h106v-75h-451zM504 0v75h105v897h-125v75h125v24q0 113 29.5 194t83 133t126.5 77t158 25v-75q-52 0 -83.5 -27.5t-47.5 -75.5t-21.5 -108.5t-5.5 -126.5v-25.5v-14.5h165v-75h-165v-897h122v-75h-466z" />
    <glyph glyph-name="f_i" unicode="fi" horiz-adv-x="968" 
d="M41 0v75h119v897h-139v75h139v72q0 128 51.5 215t138 132t192.5 45q82 0 156 -30t121.5 -86.5t47.5 -134.5q0 -52 -20 -81.5t-49 -41t-58 -11.5q-45 0 -83.5 23t-38.5 80q0 35 15 53t29 34t14 42q0 28 -18.5 43t-46 21.5t-54.5 6.5q-55 0 -89.5 -23t-51 -94t-16.5 -215
v-50h198v-75h-198v-897h122v-75h-481zM497 0v75h102v897h-102v75h342v-972h103v-75h-445z" />
    <glyph glyph-name="f_l" unicode="fl" horiz-adv-x="1025" 
d="M41 0v75h104v897h-124v75h124v24q0 113 30 194t83.5 133t126.5 77t158 25v-75q-52 0 -83.5 -27.5t-47.5 -75.5t-21.5 -108.5t-5.5 -126.5v-25.5v-14.5h165v-75h-165v-897h122v-75h-466zM542 0v75h106v1350h-106v75h345v-1425h106v-75h-451z" />
    <glyph glyph-name=".notdef" horiz-adv-x="600" 
d="M141 133v947h317v-947h-317zM165 156h269v900h-269v-900zM302 889l-68 -69l-18 18l68 69l-68 69l18 19l68 -69l68 69l19 -19l-68 -69l68 -69l-19 -18zM302 582l-68 -69l-18 18l68 69l-68 69l18 18l68 -69l68 69l19 -18l-69 -69l69 -69l-19 -18zM302 274l-68 -69l-18 19
l68 69l-68 69l18 18l68 -69l68 69l19 -18l-68 -69l68 -69l-19 -19z" />
    <glyph glyph-name=".null" 
 />
    <glyph glyph-name="nonmarkingreturn" horiz-adv-x="666" 
 />
    <glyph glyph-name="CR" unicode="&#xd;" horiz-adv-x="356" 
 />
    <glyph glyph-name="space" unicode=" " horiz-adv-x="356" 
 />
    <glyph glyph-name="exclam" unicode="!" horiz-adv-x="377" 
d="M155 360q0 107 -13 218.5t-30 222.5t-30 218t-13 205q0 89 30.5 140.5t90.5 51.5q59 0 89.5 -51.5t30.5 -140.5q0 -98 -13 -205t-29.5 -218t-29.5 -222.5t-13 -218.5h-70zM186 -34q-55 0 -94.5 40t-39.5 95q0 56 39.5 95.5t94.5 39.5t94 -39.5t39 -95.5q0 -55 -39 -95
t-94 -40z" />
    <glyph glyph-name="quotedbl" unicode="&#x22;" horiz-adv-x="549" 
d="M131 1167q-9 34 -20 78t-19 89.5t-8 82.5q0 59 26.5 83t57.5 24q30 0 56.5 -24t26.5 -83q0 -37 -8.5 -82.5t-20.5 -89.5t-21 -78h-70zM348 1167q-9 34 -20 78t-19 89.5t-8 82.5q0 59 26.5 83t57.5 24q30 0 56.5 -24t26.5 -83q0 -37 -8.5 -82.5t-20.5 -89.5t-21 -78h-70z
" />
    <glyph glyph-name="numbersign" unicode="#" horiz-adv-x="1179" 
d="M154 0l78 447h-167v75h182l69 405h-202v75h216l67 398h202l-69 -398h199l73 398h198l-71 -398h185v-75h-196l-72 -405h217v-75h-230l-79 -447h-199l80 447h-200l-80 -447h-201zM447 522h197l74 405h-199z" />
    <glyph glyph-name="dollar" unicode="$" horiz-adv-x="602" 
d="M266 -24v1442h62v-1442h-62zM298 63q-62 0 -92 19t-45 38t-32 19q-23 0 -23 -52h-60v304h64q1 -24 13 -66.5t35 -86.5t57.5 -74.5t81.5 -30.5q34 0 54 15.5t28.5 45t8.5 72.5q0 53 -22 108t-62 115t-92 129q-66 89 -101.5 163t-49 140.5t-13.5 132.5q0 96 31.5 162
t81.5 100t108 34q51 0 77 -17t40.5 -34t28.5 -17q11 0 16.5 10t6.5 38h60v-302h-63q-1 28 -12 70.5t-30.5 84.5t-49.5 70.5t-71 28.5q-45 0 -69 -34.5t-24 -94.5q0 -45 20.5 -97t59.5 -112t96 -131q87 -107 130 -208.5t43 -221.5q0 -93 -20 -155t-53 -98t-74 -51.5
t-83 -15.5z" />
    <glyph glyph-name="percent" unicode="%" horiz-adv-x="1106" 
d="M312 780q-59 0 -109 39t-80 109.5t-30 166.5q0 139 61.5 224t157.5 85q93 0 155.5 -79t62.5 -230q0 -148 -63.5 -231.5t-154.5 -83.5zM798 -11q-60 0 -110.5 39.5t-81 110.5t-30.5 165q0 140 62.5 225.5t159.5 85.5q91 0 153.5 -79.5t62.5 -231.5q0 -146 -62.5 -230.5
t-153.5 -84.5zM798 64q31 0 45 40.5t17 96.5t3 101q0 48 -3 104.5t-17 97.5t-45 41q-34 0 -49 -41t-19 -98.5t-4 -105.5q0 -46 3.5 -101.5t18.5 -95t50 -39.5zM312 853q34 0 48.5 41t18 97t3.5 102q0 47 -3.5 104t-18 98t-48.5 41q-33 0 -47.5 -41.5t-18 -99t-3.5 -104.5
t3.5 -102.5t18 -95.5t47.5 -40zM69 0l878 1400h94l-876 -1400h-96z" />
    <glyph glyph-name="ampersand" unicode="&#x26;" horiz-adv-x="1067" 
d="M832 -15q-63 0 -119.5 28t-92.5 99l-321 640q-18 35 -38 80t-36.5 97.5t-27 108t-10.5 111.5q0 80 28 132t70.5 82t89.5 42.5t86 12.5q41 0 85.5 -12t83.5 -40t63.5 -75t24.5 -116q0 -76 -30 -135.5t-70.5 -101.5t-76 -67t-47.5 -34l-47 66q31 28 61.5 95t30.5 179
q0 84 -19.5 128t-58.5 44q-40 0 -57.5 -38.5t-17.5 -111.5q0 -45 13.5 -98t31 -101t32.5 -81.5t18 -41.5l364 -717q25 -49 40.5 -61t31.5 -12t32.5 13.5t25.5 31.5l49 -54q-25 -45 -79 -69t-113 -24zM360 -18q-102 0 -178 46t-117 126t-41 181q0 118 43.5 206.5t106 151
t120.5 101.5l62 -57q-30 -27 -55 -73t-39.5 -101.5t-14.5 -110.5q0 -98 20.5 -181t62 -133.5t103.5 -50.5q37 0 69 18t56.5 46.5t37.5 57.5l42 -60q-9 -23 -40 -63t-89 -72t-149 -32zM936 259q-39 0 -57 22.5t-18 54.5q0 27 10.5 43t21 27t10.5 23q0 14 -5.5 21t-23.5 7
q-24 0 -47.5 -23t-42 -57.5t-28.5 -67.5l-61 57q14 34 41 72t64 66t79 28q71 0 105 -46t34 -108q0 -58 -21.5 -88.5t-60.5 -30.5z" />
    <glyph glyph-name="quotesingle" unicode="'" horiz-adv-x="369" 
d="M149 1167q-9 34 -20 78t-19 89.5t-8 82.5q0 59 26.5 83t57.5 24q30 0 56.5 -24t26.5 -83q0 -37 -8.5 -82.5t-20.5 -89.5t-21 -78h-70z" />
    <glyph glyph-name="parenleft" unicode="(" horiz-adv-x="422" 
d="M335 -432q-12 15 -55 91.5t-93.5 204t-88 296t-37.5 366.5q0 226 38 403t89.5 301.5t95 194.5t55.5 83l61 -68q-16 -18 -56 -83.5t-85.5 -180t-78 -277t-32.5 -373.5q0 -187 34 -343t80 -272.5t85 -186.5t51 -86z" />
    <glyph glyph-name="parenright" unicode=")" horiz-adv-x="422" 
d="M87 -432l-62 70q11 16 50.5 86t85.5 186.5t79.5 272.5t33.5 343q0 211 -32.5 373.5t-77.5 277t-85.5 180t-55.5 83.5l60 68q12 -13 56 -83t95 -194.5t89 -301.5t38 -403q0 -198 -37 -366.5t-88 -296t-94 -204t-55 -91.5z" />
    <glyph glyph-name="asterisk" unicode="*" horiz-adv-x="817" 
d="M393 882q-22 0 -39 14.5t-17 42.5q0 26 5 47t9.5 49t4.5 74q-29 -22 -49.5 -42t-37.5 -35.5t-39 -25.5q-9 -5 -18 -6.5t-17 -1.5q-24 0 -39.5 13t-15.5 36q0 15 8 29.5t27 25.5t40 15.5t47.5 12t62.5 28.5q-35 21 -61 30t-47.5 15.5t-43.5 19.5q-32 19 -32 52
q0 25 16.5 39t37.5 14q17 0 36 -10q31 -16 52.5 -44.5t72.5 -60.5q0 69 -9.5 100t-9.5 69q0 28 17 42t39 14q23 0 40 -14t17 -42q0 -27 -6.5 -48t-13.5 -48t-7 -73q58 35 82 61.5t53 43.5q17 9 33 9q24 0 39 -16.5t15 -38.5q0 -31 -32 -50q-23 -13 -46.5 -19t-50.5 -15
t-64 -30q35 -18 63 -26t51.5 -13.5t44.5 -16.5q19 -9 27 -23t8 -29q0 -23 -15.5 -38t-39.5 -15q-10 0 -19 1.5t-19 7.5q-21 12 -38 27t-37.5 34.5t-53.5 41.5q0 -46 6.5 -74t13 -48.5t6.5 -47.5q0 -28 -17 -42.5t-40 -14.5z" />
    <glyph glyph-name="plus" unicode="+" horiz-adv-x="832" 
d="M380 251v624h75v-624h-75zM105 525v75h622v-75h-622z" />
    <glyph glyph-name="comma" unicode="," horiz-adv-x="381" 
d="M148 -221l-60 76q21 11 50 33.5t51 47.5t22 45q0 11 -7 11q-6 0 -14.5 -6t-33.5 -6q-28 0 -54 15.5t-42.5 45t-16.5 69.5q0 61 40.5 95.5t102.5 34.5t107 -38t45 -112q0 -90 -30.5 -150.5t-74.5 -98.5t-85 -62z" />
    <glyph glyph-name="hyphen" unicode="-" horiz-adv-x="712" 
d="M105 525v75h502v-75h-502z" />
    <glyph glyph-name="period" unicode="." horiz-adv-x="389" 
d="M189 -36q-55 0 -94 40.5t-39 94.5q0 56 39 96t94 40t94.5 -40t39.5 -96q0 -54 -39.5 -94.5t-94.5 -40.5z" />
    <glyph glyph-name="slash" unicode="/" horiz-adv-x="630" 
d="M36 -104l492 1608h77l-490 -1608h-79z" />
    <glyph glyph-name="zero" unicode="0" horiz-adv-x="902" 
d="M451 -23q-90 0 -168 76.5t-125.5 236t-47.5 408.5t47.5 409t125 237.5t168.5 77.5q90 0 167.5 -77.5t125 -237.5t47.5 -409t-47.5 -408.5t-125 -236t-167.5 -76.5zM451 54q23 0 41.5 55t32 147.5t21 207.5t7.5 234q0 120 -7.5 235.5t-21 209t-32 149t-41.5 55.5
q-25 0 -44.5 -53.5t-33 -145.5t-20 -208t-6.5 -242q0 -125 7 -240.5t20.5 -207t32.5 -144t44 -52.5z" />
    <glyph glyph-name="one" unicode="1" horiz-adv-x="610" 
d="M79 0v75h104v1032q-9 -9 -27 -18t-38.5 -14.5t-36.5 -6.5v83q33 6 75 29t83 61t71 89t39 112h74v-1367h109v-75h-453z" />
    <glyph glyph-name="two" unicode="2" horiz-adv-x="792" 
d="M519 -11q-45 0 -82 16t-70.5 36.5t-68 36.5t-76.5 16q-46 0 -69 -32t-28 -62h-71q0 168 30.5 290.5t78 213t101 162t101 136.5t78 135.5t30.5 160.5q0 79 -17.5 135t-50 85.5t-77.5 29.5q-31 0 -56.5 -12.5t-40 -33t-14.5 -43.5q0 -19 13.5 -36.5t27 -39.5t13.5 -57
q0 -55 -27 -79.5t-68 -24.5q-43 0 -69.5 32t-26.5 100q0 74 35.5 134.5t102.5 97t160 36.5q55 0 112.5 -15.5t105.5 -53t77.5 -101.5t29.5 -161q0 -106 -26 -180.5t-70 -128.5t-98 -98t-110.5 -87.5t-107.5 -98t-89.5 -129.5t-54.5 -181q15 23 43.5 40.5t66.5 27t81 9.5
q56 0 96.5 -14t72 -28.5t59.5 -14.5q39 0 54.5 22.5t15.5 63.5h69v-43q0 -61 -17 -121.5t-57.5 -100.5t-111.5 -40z" />
    <glyph glyph-name="three" unicode="3" horiz-adv-x="799" 
d="M365 -24q-81 0 -144.5 36.5t-99.5 98t-36 136.5q0 67 35 103t77 36q41 0 64 -22t23 -70q0 -35 -16.5 -57t-33 -43.5t-16.5 -55.5q0 -35 30.5 -58t78.5 -23q37 0 67.5 24.5t48.5 90.5t18 192q0 109 -14 174t-37.5 99t-53 45t-59.5 11v79q31 0 62 8.5t57 40t41 97.5t15 181
q0 127 -38.5 185.5t-103.5 58.5q-48 0 -79 -22.5t-31 -56.5q0 -36 16.5 -57.5t33 -43.5t16.5 -57q0 -49 -23.5 -71t-64.5 -22t-76.5 36.5t-35.5 104.5q0 74 37 134.5t103 97t152 36.5t160.5 -35.5t120 -109t45.5 -185.5q0 -100 -31 -168t-78.5 -109.5t-96.5 -61t-84 -21.5
q35 -4 86 -24.5t100.5 -62.5t82.5 -110.5t33 -169.5q0 -120 -43 -207t-121.5 -134.5t-186.5 -47.5z" />
    <glyph glyph-name="four" unicode="4" horiz-adv-x="743" 
d="M193 0v75h105v268h-251v75l248 807q62 41 100.5 94.5t69.5 115.5h73v-1017h13q39 0 51.5 50.5t12.5 123.5h70v-249h-147v-268h105v-75h-450zM125 410l-11 8h186v610l2 -46z" />
    <glyph glyph-name="five" unicode="5" horiz-adv-x="844" 
d="M364 -24q-81 0 -139.5 36.5t-89 98t-30.5 136.5q0 67 31 103t73 36q40 0 67.5 -24.5t27.5 -78.5q0 -32 -17 -53t-35 -40.5t-18 -50.5q0 -22 8.5 -41.5t29.5 -31.5t60 -12q60 0 92 46t44 130t12 197q0 125 -10 200t-27 112.5t-40 49t-48 11.5q-43 0 -73 -22t-48 -52.5
t-27 -58.5l-78 11l71 722h71q7 -20 39 -38t76.5 -29.5t86.5 -11.5q77 0 120.5 25t43.5 54h64q0 -61 -24.5 -122.5t-74.5 -102t-126 -40.5q-56 0 -95.5 17t-63.5 40.5t-36.5 43t-14.5 24.5l-43 -458q8 15 30.5 34t61 33.5t89.5 14.5q54 0 110.5 -22.5t105 -74t78 -138
t29.5 -215.5q0 -142 -34 -232t-88.5 -139t-117.5 -68t-123 -19z" />
    <glyph glyph-name="six" unicode="6" horiz-adv-x="875" 
d="M449 -24q-96 0 -162.5 51.5t-108 146.5t-61 226.5t-19.5 290.5q0 135 26 265.5t76.5 235.5t124 167.5t167.5 62.5q67 0 121.5 -36.5t87 -97t32.5 -134.5q0 -79 -28.5 -110t-70.5 -31q-41 0 -68 24.5t-27 78.5q0 36 9.5 57t18 41t8.5 54q0 23 -11 41t-30.5 28.5
t-47.5 10.5q-40 0 -66 -31t-41 -86t-22.5 -127t-10 -154.5t-2.5 -168.5q2 10 19.5 35t52.5 47.5t89 22.5q38 0 86 -22t93 -73t74 -136t29 -212q0 -116 -26.5 -204t-73.5 -146.5t-108 -87.5t-130 -29zM445 50q34 0 55.5 33.5t32 118.5t10.5 238q0 137 -11.5 212t-33 104.5
t-50.5 29.5q-28 0 -49.5 -28t-35 -77t-18.5 -112q0 -153 4 -254t14.5 -159t30.5 -82t51 -24z" />
    <glyph glyph-name="seven" unicode="7" horiz-adv-x="737" 
d="M352 -20q-38 0 -69 20.5t-49.5 70t-18.5 135.5q0 147 38 275t95 242t113.5 218t95 203t38.5 199q-8 -36 -30.5 -64t-58.5 -43t-86 -15q-51 0 -78.5 9t-48 18t-50.5 9q-26 0 -43 -11t-25.5 -37.5t-11.5 -74.5h-74v266h585q0 -22 -3.5 -52t-10 -66.5t-15 -79t-19 -88.5
t-23.5 -95q-12 -49 -25 -104.5t-26 -119.5q-26 -118 -46 -261t-20 -328q0 -86 -17.5 -135.5t-48 -70t-68.5 -20.5z" />
    <glyph glyph-name="eight" unicode="8" horiz-adv-x="876" 
d="M421 -20q-53 0 -113.5 18.5t-114.5 60.5t-88.5 112t-34.5 174q0 93 31 157.5t75.5 105.5t86 62.5t62.5 28.5l79 -50q-30 -19 -61.5 -52t-53 -90.5t-21.5 -152.5q0 -148 42 -223t114 -75t113 58.5t41 155.5q0 68 -29.5 122.5t-82.5 107.5t-125 113q-69 57 -122.5 129
t-84 156.5t-30.5 178.5q0 122 47.5 198t122.5 112.5t158 36.5q86 0 156.5 -35t113 -105t42.5 -177q0 -80 -27.5 -140.5t-68 -102.5t-80 -67t-63.5 -36l-43 41q22 13 52 54.5t53 108t23 152.5q0 72 -19 125t-53.5 81.5t-82.5 28.5q-45 0 -83 -24.5t-60.5 -70.5t-22.5 -109
q0 -64 39.5 -130.5t94.5 -123t104 -91.5q47 -35 97 -77.5t92 -95t68.5 -117t26.5 -143.5q0 -107 -34.5 -181t-90 -120.5t-120 -67.5t-125.5 -21z" />
    <glyph glyph-name="nine" unicode="9" horiz-adv-x="876" 
d="M436 1422q95 0 162 -51.5t108.5 -146.5t61 -226.5t19.5 -290.5q0 -135 -26.5 -265t-76.5 -235.5t-123.5 -168t-167.5 -62.5q-67 0 -121.5 36.5t-87 97.5t-32.5 135q0 79 28.5 110t70.5 31q41 0 68 -24.5t27 -79.5q0 -36 -9 -56.5t-18.5 -40.5t-9.5 -55q0 -22 11.5 -40.5
t31 -29t46.5 -10.5q40 0 66 31t41.5 86t23 127t9.5 154.5t2 168.5q-1 -8 -18.5 -34t-52.5 -48.5t-89 -22.5q-39 0 -87 22.5t-93 73t-73.5 136t-28.5 211.5q0 116 26.5 204t73 146.5t108 87.5t130.5 29zM440 1348q-34 0 -55.5 -33.5t-32 -118t-10.5 -238.5q0 -137 11.5 -212
t32.5 -104.5t51 -29.5q27 0 48.5 28t35.5 77.5t19 112.5q0 153 -4 253.5t-14.5 159t-30.5 82t-51 23.5z" />
    <glyph glyph-name="colon" unicode=":" horiz-adv-x="532" 
d="M260 806q-55 0 -94 40.5t-39 94.5q0 56 39 96t94 40t94.5 -40t39.5 -96q0 -54 -39.5 -94.5t-94.5 -40.5zM259 -37q-55 0 -94 40.5t-39 94.5q0 56 39 96t94 40t94.5 -40t39.5 -96q0 -54 -39.5 -94.5t-94.5 -40.5z" />
    <glyph glyph-name="semicolon" unicode=";" horiz-adv-x="532" 
d="M265 806q-55 0 -94 40.5t-39 94.5q0 56 39 96t94 40t94.5 -40t39.5 -96q0 -54 -39.5 -94.5t-94.5 -40.5zM220 -221l-60 76q21 11 50 33.5t51 47.5t22 45q0 11 -7 11q-6 0 -14.5 -6t-33.5 -6q-28 0 -54 15.5t-42.5 45t-16.5 69.5q0 61 40.5 95.5t102.5 34.5t107 -38
t45 -112q0 -90 -30.5 -150.5t-74.5 -98.5t-85 -62z" />
    <glyph glyph-name="less" unicode="&#x3c;" horiz-adv-x="784" 
d="M629 95l-467 404v78l467 399v-90l-415 -350l415 -349v-92z" />
    <glyph glyph-name="equal" unicode="=" horiz-adv-x="818" 
d="M97 725v75h622v-75h-622zM97 325v75h622v-75h-622z" />
    <glyph glyph-name="greater" unicode="&#x3e;" horiz-adv-x="784" 
d="M169 95v92l414 349l-414 350v90l467 -399v-78z" />
    <glyph glyph-name="question" unicode="?" horiz-adv-x="683" 
d="M253 313q0 120 17 211.5t41.5 164.5t49.5 138t42 130.5t17 142.5q0 130 -41.5 188.5t-111.5 58.5q-45 0 -67 -24t-22 -59q0 -28 15 -49t30 -43.5t15 -57.5q0 -55 -25.5 -78t-66.5 -23q-42 0 -72 37t-30 108q0 77 34.5 136.5t97 93.5t142.5 34q52 0 108 -14t105 -49
t80 -96t31 -155q0 -92 -32 -163t-78.5 -134.5t-93 -133t-78 -156.5t-31.5 -208h-76zM292 -34q-55 0 -94.5 40t-39.5 95q0 56 39.5 95.5t94.5 39.5q54 0 94 -39.5t40 -95.5q0 -55 -40 -95t-94 -40z" />
    <glyph glyph-name="at" unicode="@" horiz-adv-x="950" 
d="M470 -22q-67 0 -137 36t-129.5 113t-96 201t-36.5 301q0 226 44 377.5t114 241.5t151 129t154 39q102 0 179 -58.5t119.5 -186.5t42.5 -339q0 -81 -15 -167t-44 -159t-71.5 -118.5t-97.5 -45.5q-42 0 -65.5 18t-32.5 43t-9 44q-14 -62 -54.5 -88t-87.5 -26q-41 0 -82 25
t-68 88.5t-27 179.5q0 106 18.5 188.5t52 139.5t79 86t98.5 29q36 0 59.5 -13.5t36 -32.5t14.5 -36l4 60h130l-43 -514q-1 -20 -2 -34t-1 -24q0 -18 4.5 -27t15.5 -9q21 0 45.5 52t42 141.5t17.5 201.5q0 239 -57 372.5t-195 133.5q-77 0 -147 -41.5t-124.5 -128.5
t-85.5 -222t-31 -321q0 -168 43 -297t115.5 -202t159.5 -73q95 0 144.5 40t95.5 102l61 -48q-28 -38 -70.5 -77.5t-99.5 -66.5t-131 -27zM457 432q20 0 34.5 15t25.5 41.5t18 59t10 67.5l21 250q0 24 -7 48.5t-20.5 41.5t-35.5 17q-32 0 -53 -33t-32.5 -86.5t-16.5 -117
t-5 -125.5q0 -77 15.5 -127.5t45.5 -50.5z" />
    <glyph glyph-name="A" unicode="A" horiz-adv-x="715" 
d="M0 0v75h80l188 1326h137l221 -1326h94v-75h-429v75h77l-108 796h2l-103 -796h69v-75h-228zM155 264v70h219v-70h-219z" />
    <glyph glyph-name="B" unicode="B" horiz-adv-x="858" 
d="M47 0v75h94v1250h-94v75h404q61 0 118.5 -17t103.5 -54.5t73 -99t27 -148.5q0 -86 -25 -148t-64 -102.5t-82 -62t-79 -26.5q37 -1 84 -19t91.5 -57.5t74 -105.5t29.5 -163q0 -137 -47.5 -224.5t-121 -130t-153.5 -42.5h-433zM377 75h49q31 0 60 36t47.5 108t18.5 179
q0 124 -20 190t-50 90.5t-59 24.5h-46v-628zM377 778h46q33 0 58.5 29t39.5 95.5t14 178.5q0 100 -17.5 152.5t-44.5 72t-56 19.5h-40v-547z" />
    <glyph glyph-name="C" unicode="C" horiz-adv-x="730" 
d="M433 -20q-163 0 -265 186t-102 532q0 135 23 264t70 233t118 165.5t166 61.5q65 0 116 -43t79.5 -106.5t28.5 -125.5q0 -58 -22.5 -95.5t-71.5 -37.5q-54 0 -76.5 30t-22.5 81q0 36 15 59t30 45t15 54q0 34 -13.5 47.5t-35.5 13.5q-37 0 -64.5 -42.5t-46.5 -113
t-30 -155.5t-16.5 -172t-5.5 -161q0 -111 6.5 -209t18.5 -178t30 -137.5t41.5 -89t52.5 -31.5q37 0 60 21t38 57t26 80l63 -37q-19 -57 -48.5 -101t-72 -69.5t-104.5 -25.5z" />
    <glyph glyph-name="D" unicode="D" horiz-adv-x="860" 
d="M47 0v75h94v1250h-94v75h386q98 0 182.5 -77.5t136.5 -230t52 -381.5q0 -230 -52 -388.5t-137 -240.5t-182 -82h-386zM382 75h35q39 0 73.5 70.5t56.5 212t22 353.5q0 193 -21 330.5t-53.5 210.5t-67.5 73h-45v-1250z" />
    <glyph glyph-name="E" unicode="E" horiz-adv-x="745" 
d="M47 0v75h94v1250h-94v75h620v-334h-75q0 81 -15 139.5t-47 89t-85 30.5h-62v-587h165v93h73v-258h-73v90h-165v-588h62q53 0 85 32t47 90.5t15 139.5h75v-337h-620z" />
    <glyph glyph-name="F" unicode="F" horiz-adv-x="750" 
d="M72 0v75h95v1250h-95v75h592v-334h-75q0 81 -9.5 139.5t-37 89t-83.5 30.5h-51v-564h159v92h75v-258h-75v91h-159v-611h95v-75h-431z" />
    <glyph glyph-name="G" unicode="G" horiz-adv-x="831" 
d="M443 -20q-105 0 -191 76.5t-137.5 236t-51.5 405.5q0 231 58.5 392t150 245.5t187.5 84.5q75 0 131 -37.5t86.5 -99t30.5 -136.5q0 -61 -25.5 -97t-74.5 -36q-52 0 -75.5 35.5t-23.5 84.5q0 33 14 54.5t28 42t14 50.5q0 25 -23 47t-57 22q-50 0 -84 -61t-55 -159.5
t-30 -212.5t-9 -219q0 -160 11 -279.5t30.5 -200t45 -120.5t52.5 -40q18 0 28.5 6t16.5 14v480h-78v75h382v-75h-86v-558h-74q-1 3 -12.5 11t-29.5 8q-19 0 -36.5 -9.5t-43.5 -19.5t-69 -10z" />
    <glyph glyph-name="H" unicode="H" horiz-adv-x="943" 
d="M47 0v75h94v1250h-94v75h397v-75h-65v-567h189v567h-64v75h392v-75h-96v-1250h96v-75h-392v75h64v608h-189v-608h65v-75h-397z" />
    <glyph glyph-name="I" unicode="I" horiz-adv-x="560" 
d="M64 0v75h97v1250h-97v75h434v-75h-99v-1250h99v-75h-434z" />
    <glyph glyph-name="J" unicode="J" horiz-adv-x="733" 
d="M280 -23q-83 0 -132.5 37t-71 100t-21.5 141q0 69 28.5 99.5t72.5 30.5q42 0 69.5 -27.5t27.5 -92.5q0 -43 -14 -65.5t-28.5 -39.5t-14.5 -43q0 -30 15.5 -45t37.5 -15q44 0 68 29t24 105v1134h-105v75h445v-75h-100v-903q0 -122 -19.5 -206.5t-58 -137.5t-94.5 -77
t-129 -24z" />
    <glyph glyph-name="K" unicode="K" horiz-adv-x="882" 
d="M34 0v75h93v1250h-93v75h431v-75h-101v-553l292 553h-89v75h256v-75h-80l-235 -449l22 73l247 -874h73v-75h-395v75h65l-189 669l33 -16v-653h68v-75h-398z" />
    <glyph glyph-name="L" unicode="L" horiz-adv-x="697" 
d="M54 0v75h90v1250h-90v75h421v-75h-93v-1250h53q40 0 66.5 32.5t41 91.5t14.5 138h75v-337h-578z" />
    <glyph glyph-name="M" unicode="M" horiz-adv-x="1066" 
d="M24 0v75h93v1250h-90v75h393l127 -771h-33l162 771h364v-75h-91v-1250h95v-75h-433v75h98v1231h34l-272 -1229h-76l-227 1274h24v-1276h81v-75h-249z" />
    <glyph glyph-name="N" unicode="N" horiz-adv-x="838" 
d="M29 0v75h93v1250h-93v75h365l262 -856h-13v781h-88v75h254v-75h-89v-1325h-152l-385 1257h16v-1182h92v-75h-262z" />
    <glyph glyph-name="O" unicode="O" horiz-adv-x="845" 
d="M425 -22q-106 0 -187 85.5t-126.5 246.5t-45.5 388q0 229 45.5 390.5t126.5 247.5t187 86q107 0 189.5 -86t129 -247.5t46.5 -390.5q0 -227 -46.5 -388t-129 -246.5t-189.5 -85.5zM425 53q30 0 50.5 42.5t34 125t19.5 202.5t6 275t-6 275.5t-19.5 204t-34 126.5t-50.5 43
q-29 0 -49 -43t-32 -126.5t-17.5 -204t-5.5 -275.5t5.5 -275t17.5 -202.5t32 -125t49 -42.5z" />
    <glyph glyph-name="P" unicode="P" horiz-adv-x="848" 
d="M48 0v75h109v1250h-109v75h442q51 0 105.5 -19t102 -63t77 -118.5t29.5 -184.5q0 -113 -30 -198.5t-77.5 -143t-102.5 -86t-104 -28.5h-96v-484h109v-75h-455zM394 634h38q37 0 64.5 45.5t42.5 131t15 204.5q0 114 -13.5 182t-38.5 98t-61 30h-47v-691z" />
    <glyph glyph-name="Q" unicode="Q" horiz-adv-x="845" 
d="M673 -392q-47 0 -79 33t-32 95q0 49 21 84t42 65.5t21 65.5q0 24 -18.5 43t-49.5 19q-12 0 -27.5 -4t-24.5 -8l12 77q6 5 31.5 10t44.5 5q98 0 139 -87t41 -233q0 -82 -36 -123.5t-85 -41.5zM425 -22q-106 0 -187 85.5t-126.5 246.5t-45.5 388q0 229 45.5 390.5
t126.5 247.5t187 86q107 0 189.5 -86t129 -247.5t46.5 -390.5q0 -227 -46.5 -388t-129 -246.5t-189.5 -85.5zM425 53q30 0 50.5 42.5t34 125t19.5 202.5t6 275t-6 275.5t-19.5 204t-34 126.5t-50.5 43q-29 0 -49 -43t-32 -126.5t-17.5 -204t-5.5 -275.5t5.5 -275
t17.5 -202.5t32 -125t49 -42.5z" />
    <glyph glyph-name="R" unicode="R" horiz-adv-x="930" 
d="M759 -17q-92 0 -134 42t-54 116t-12 169q0 53 1.5 101t1.5 80q0 79 -10.5 120t-38 56.5t-76.5 15.5h-43v-608h102v-75h-446v75h107v1250h-107v75h449q88 0 158.5 -33.5t112.5 -105t42 -186.5q0 -86 -25.5 -150t-67 -106.5t-90 -66t-94.5 -30.5q107 -4 165 -37.5
t80.5 -102t22.5 -180.5q0 -53 -3 -105.5t-3 -98.5q0 -27 2 -56.5t9 -50t20 -20.5t18.5 10t6.5 23h69q-5 -42 -25.5 -69t-55 -39.5t-82.5 -12.5zM394 758h52q42 0 69.5 42t41 113.5t13.5 157.5q0 82 -13 138.5t-40 86t-68 29.5h-55v-567z" />
    <glyph glyph-name="S" unicode="S" horiz-adv-x="685" 
d="M358 -27q-55 0 -88 13t-52 30t-31.5 29.5t-27.5 12.5q-28 0 -28 -58h-70v342h75q1 -21 10.5 -57t27 -76t43.5 -76t60.5 -59t79.5 -23q40 0 63.5 17t34 50.5t10.5 82.5q0 61 -26.5 122t-73.5 129t-108 145q-79 101 -121 184.5t-58 158.5t-16 148q0 110 37 184t96.5 112
t127.5 38q61 0 92 -19t48 -38t34 -19q13 0 19.5 11.5t7.5 42.5h71v-340h-75q-2 32 -14.5 79.5t-35.5 94.5t-58.5 79t-84.5 32q-52 0 -80.5 -38.5t-28.5 -106.5q0 -51 24 -109.5t70.5 -126t113.5 -146.5q69 -80 114 -157t67.5 -157.5t22.5 -170.5q0 -105 -23.5 -174.5
t-63 -110t-88 -58t-97.5 -17.5z" />
    <glyph glyph-name="T" unicode="T" horiz-adv-x="811" 
d="M169 0v75h118v1250h-30q-62 0 -92.5 -26t-41 -83t-10.5 -150h-75v334h735v-334h-75q0 93 -10 150t-40.5 83t-92.5 26h-30v-1250h121v-75h-477z" />
    <glyph glyph-name="U" unicode="U" horiz-adv-x="822" 
d="M437 -24q-49 0 -102.5 14.5t-98.5 53t-73 109.5t-28 184v988h-99v75h450v-75h-108v-996q0 -139 30 -200t91 -61q24 0 45 10.5t37.5 36.5t26 71.5t9.5 115.5v1023h-87v75h258v-75h-95v-1031q0 -121 -31 -190.5t-88.5 -98.5t-136.5 -29z" />
    <glyph glyph-name="V" unicode="V" horiz-adv-x="732" 
d="M320 -1l-222 1326h-87v75h426v-75h-80l109 -760h-20l114 760h-80v75h248v-75h-85l-216 -1326h-107z" />
    <glyph glyph-name="W" unicode="W" horiz-adv-x="1180" 
d="M329 -1l-220 1326h-102v75h447v-75h-65l94 -755l-33 -77l133 778l23 -168l-46 222h-77v75h421v-75h-78l97 -738l-24 -77l121 815h-80v75h244v-75h-82l-214 -1326h-98l-181 1089l38 73l-220 -1162h-98z" />
    <glyph glyph-name="X" unicode="X" horiz-adv-x="835" 
d="M355 0v75h107l-347 1250h-85v75h451v-75h-101l346 -1250h85v-75h-456zM16 0v75h88l210 590l78 -25l-205 -565h88v-75h-259zM489 753l-74 29l196 543h-82v75h248v-75h-82z" />
    <glyph glyph-name="Y" unicode="Y" horiz-adv-x="831" 
d="M195 0v75h107v513l-185 737h-98v75h444v-75h-77l152 -670h-66l169 670h-84v75h259v-75h-94l-180 -698v-552h107v-75h-454z" />
    <glyph glyph-name="Z" unicode="Z" horiz-adv-x="740" 
d="M60 0v75l336 1250h-58q-78 0 -117 -30.5t-51.5 -89t-12.5 -139.5h-75v334h574v-74l-337 -1251h73q71 0 118.5 32t71.5 90.5t24 139.5h75v-337h-621z" />
    <glyph glyph-name="bracketleft" unicode="[" horiz-adv-x="297" 
d="M38 -440v1940h221v-75h-146v-1790h146v-75h-221z" />
    <glyph glyph-name="backslash" unicode="\" horiz-adv-x="652" 
d="M616 -104h-79l-490 1608h77z" />
    <glyph glyph-name="bracketright" unicode="]" horiz-adv-x="377" 
d="M340 -440h-222v75h147v1790h-147v75h222v-1940z" />
    <glyph glyph-name="asciicircum" unicode="^" horiz-adv-x="857" 
d="M120 949l264 451h91l263 -451h-86l-222 383l-224 -383h-86z" />
    <glyph glyph-name="underscore" unicode="_" horiz-adv-x="997" 
d="M22 -220v75h956v-75h-956z" />
    <glyph glyph-name="grave" unicode="`" horiz-adv-x="601" 
d="M365 1258l-206 99q-29 14 -43.5 28.5t-14.5 41.5q0 24 17.5 38.5t43.5 14.5q21 0 35 -8t28 -20l181 -147z" />
    <glyph glyph-name="a" unicode="a" horiz-adv-x="817" 
d="M289 -21q-66 0 -120.5 32t-87 92t-32.5 143q0 96 40.5 158.5t100.5 105t120 76t100.5 70.5t40.5 90q0 73 -12.5 124t-38.5 77.5t-66 26.5q-48 0 -78.5 -26t-30.5 -60q0 -27 11 -45t22 -38t11 -55q0 -47 -26.5 -74.5t-68.5 -27.5q-44 0 -70.5 37.5t-26.5 101.5
q0 79 39 140.5t108 97.5t159 36t159.5 -37t109 -117t39.5 -211v-532q0 -50 8.5 -67t26.5 -17t31 9.5t19 16.5l42 -58q-16 -23 -64 -44t-112 -21t-99 18t-50.5 42.5t-21.5 44.5q-4 -13 -22.5 -39t-57 -48t-102.5 -22zM369 92q26 0 44 22.5t28 56.5t10 68v368
q-4 -28 -28.5 -52.5t-54.5 -57.5t-52.5 -86t-22.5 -137q0 -89 21 -135.5t55 -46.5z" />
    <glyph glyph-name="b" unicode="b" horiz-adv-x="849" 
d="M492 -20q-51 0 -82.5 23.5t-46.5 55.5t-18 54l-23 -113h-306v75h103v1350h-103v75h347v-543q4 12 18.5 37t45 45.5t81.5 20.5q71 0 133.5 -55.5t101.5 -175.5t39 -311q0 -205 -41.5 -322.5t-107.5 -166.5t-141 -49zM443 116q27 0 45.5 26t30 77t17 125.5t5.5 170.5
q0 95 -5 168.5t-16.5 125t-29.5 78.5t-46 27q-22 0 -39 -23.5t-27.5 -63t-14.5 -89.5v-372q1 -65 12.5 -122.5t29.5 -92.5t38 -35z" />
    <glyph glyph-name="c" unicode="c" horiz-adv-x="697" 
d="M401 -21q-71 0 -133.5 37.5t-111 109t-75.5 173.5t-27 230q0 144 35.5 245.5t90 164.5t116.5 92.5t113 29.5q77 0 132 -40.5t84 -105.5t29 -139q0 -62 -26.5 -95t-67.5 -33q-43 0 -70.5 28.5t-27.5 76.5q0 31 12 50l24 38t12 49q0 47 -26 70.5t-60 23.5q-38 0 -62 -43
t-37 -111t-17.5 -146t-4.5 -148q0 -81 6 -164.5t20.5 -153.5t42.5 -113t73 -43q57 0 88 34t46 76l57 -49q-21 -54 -80 -99t-155 -45z" />
    <glyph glyph-name="d" unicode="d" horiz-adv-x="857" 
d="M354 -20q-74 0 -140.5 49t-108.5 166.5t-42 322.5q0 191 40 311t103 175.5t132 55.5q56 0 87 -18t44 -40.5t16 -34.5v457h-121v76h366v-1425h115v-75h-318l-24 115q-2 -27 -19.5 -58.5t-50 -54t-79.5 -22.5zM401 116q26 0 43.5 34.5t28.5 88.5t12 112v387q-3 51 -14 92
t-28.5 64.5t-41.5 23.5q-23 0 -41.5 -28.5t-30.5 -81t-18.5 -126.5t-6.5 -167q0 -94 6 -168.5t18 -125.5t30 -78t43 -27z" />
    <glyph glyph-name="e" unicode="e" horiz-adv-x="767" 
d="M403 -20q-78 0 -142.5 35.5t-110.5 105t-70.5 171.5t-24.5 235q0 142 31 243.5t82.5 165.5t112 94.5t117.5 30.5q69 0 126 -34.5t99 -96t65 -146t23 -185.5q0 -21 -0.5 -41t-2.5 -41h-426v75h200q0 148 -9.5 233.5t-28 122t-46.5 36.5t-51.5 -37.5t-37 -130.5t-13.5 -260
q0 -125 7 -217.5t23.5 -153.5t42.5 -90.5t64 -29.5q71 0 113 36.5t60 73.5l63 -45q-23 -55 -96 -102.5t-170 -47.5z" />
    <glyph glyph-name="f" unicode="f" horiz-adv-x="624" 
d="M39 0v75h113v897h-131v75h131v109q0 102 33.5 182.5t102.5 126.5t173 46q102 0 157 -74t55 -192q0 -65 -25 -99.5t-74 -34.5q-52 0 -74 32.5t-22 76.5q0 41 16.5 63t33 38.5t16.5 38.5q0 35 -19.5 55t-43.5 20q-29 0 -46.5 -23t-27 -63t-12.5 -92t-3 -111v-99h141v-75
h-141v-897h117v-75h-470z" />
    <glyph glyph-name="g" unicode="g" horiz-adv-x="843" 
d="M411 -498q-91 0 -173.5 29.5t-134.5 88t-52 148.5q0 66 25 111t59.5 71t63 38.5t35.5 14.5q-7 2 -29 11t-48 28.5t-45 52.5t-19 82q0 36 13.5 62t33 42.5t39.5 22.5q4 2 11.5 4t10.5 1q-6 5 -24.5 25t-40.5 58.5t-37.5 99.5t-15.5 147q0 119 32.5 199.5t83.5 129.5
t107.5 71t105.5 22q102 0 174 -52t111 -144t39 -214q0 -128 -32.5 -210.5t-83.5 -128.5t-107.5 -63.5t-103.5 -17.5q-58 0 -93.5 12t-44.5 15q-1 1 -1.5 1h-2.5q-13 0 -26.5 -14.5t-13.5 -40.5q0 -37 48 -64t181 -51q153 -27 238 -94.5t85 -205.5q0 -83 -36.5 -139
t-93.5 -88.5t-120.5 -46t-117.5 -13.5zM411 -425q68 0 109.5 50t41.5 116q0 70 -20 108.5t-75 66.5q-20 11 -44.5 22.5t-46.5 20.5t-35 13q-20 -11 -41 -36.5t-35.5 -66t-14.5 -98.5t19 -102t55 -69t87 -25zM409 309q23 0 42.5 22.5t32 94.5t12.5 221q0 143 -12.5 214.5
t-32 96t-41.5 24.5t-42 -24.5t-32.5 -97.5t-12.5 -217q0 -148 13 -219t32.5 -93t40.5 -22zM528 983q11 72 67.5 113t119.5 41q53 0 75 -26t22 -65q0 -38 -21 -59t-53 -21t-45.5 14.5t-22.5 28.5t-32 14q-13 0 -23.5 -8t-10.5 -34z" />
    <glyph glyph-name="h" unicode="h" horiz-adv-x="910" 
d="M32 0v75h104v1350h-104v75h344v-544q1 7 22 33t62 49t100 23q63 0 114 -30.5t81.5 -104t30.5 -201.5v-650h103v-75h-413v75h70v638q0 116 -18 159t-53 43q-24 0 -46 -20.5t-36.5 -60.5t-16.5 -99v-660h74v-75h-418z" />
    <glyph glyph-name="i" unicode="i" horiz-adv-x="503" 
d="M29 0v75h104v897h-104v75h344v-972h104v-75h-448zM253 1179q-65 0 -110 45.5t-45 110.5q0 63 45 108.5t110 45.5q62 0 107.5 -45.5t45.5 -108.5q0 -65 -45.5 -110.5t-107.5 -45.5z" />
    <glyph glyph-name="j" unicode="j" horiz-adv-x="530" 
d="M114 -498q-63 0 -110 34.5t-73.5 93.5t-26.5 133q0 65 30 99t74 34q41 0 63 -28.5t22 -81.5q0 -35 -9 -57t-19 -41t-10 -43q0 -19 4.5 -34t15 -23.5t25.5 -8.5q48 0 64 52t16 156v1185h-116v75h356v-1098q0 -134 -28 -221t-73.5 -136.5t-99.5 -69.5t-105 -20zM296 1179
q-65 0 -110.5 45.5t-45.5 110.5q0 63 45.5 108.5t110.5 45.5q63 0 108 -45.5t45 -108.5q0 -65 -45 -110.5t-108 -45.5z" />
    <glyph glyph-name="k" unicode="k" horiz-adv-x="875" 
d="M28 0v75h104v1350h-104v75h344v-806l207 278h-100v75h304v-75h-111l-112 -165l237 -732h87v-75h-428v75h82l-164 514l-2 -18v-496h66v-75h-410z" />
    <glyph glyph-name="l" unicode="l" horiz-adv-x="515" 
d="M33 0v75h105v1350h-105v75h345v-1425h106v-75h-451z" />
    <glyph glyph-name="m" unicode="m" horiz-adv-x="1249" 
d="M29 0v75h98v897h-98v75h331v-109q1 14 22 43.5t62.5 54t102.5 24.5q59 0 96.5 -27.5t57 -61t24.5 -52.5q6 26 34.5 59t75 57.5t105.5 24.5q95 0 150 -74.5t55 -193.5v-717h94v-75h-403v75h69v626q0 78 -4 128.5t-18 75t-43 24.5q-31 0 -49.5 -24.5t-28 -67.5t-10.5 -99
v-663h70v-75h-374v75h67v626q0 117 -10 172.5t-54 55.5q-30 0 -48.5 -25t-26.5 -71t-9 -110v-648h66v-75h-404z" />
    <glyph glyph-name="n" unicode="n" horiz-adv-x="903" 
d="M32 0v75h107v897h-107v75h340v-100q3 13 24.5 40.5t61.5 50.5t96 23q62 0 112.5 -27t80.5 -98.5t30 -205.5v-655h105v-75h-417v75h72v651q0 105 -15.5 153.5t-51.5 48.5q-20 0 -36 -13.5t-28 -38.5t-19 -59t-8 -75v-667h69v-75h-416z" />
    <glyph glyph-name="o" unicode="o" horiz-adv-x="785" 
d="M390 -22q-60 0 -119.5 34t-108.5 102.5t-78 171.5t-29 241q0 150 30.5 253t80 164.5t108.5 89t116 27.5t116.5 -27.5t109.5 -89t81 -164.5t31 -253q0 -138 -29.5 -241t-78.5 -171.5t-109 -102.5t-121 -34zM390 64q45 0 70 109t25 354t-25 347t-70 102q-42 0 -67.5 -102
t-25.5 -347t25.5 -354t67.5 -109z" />
    <glyph glyph-name="p" unicode="p" horiz-adv-x="834" 
d="M22 -500v75h104v1397h-104v75h343v-88q2 11 21 35t54 45t84 21q68 0 125.5 -55.5t92.5 -175.5t35 -311q0 -205 -38.5 -322.5t-101.5 -166.5t-137 -49q-42 0 -69.5 16t-42.5 36t-18 28v-485h104v-75h-452zM446 90q22 0 38.5 28.5t28 82.5t17 133.5t5.5 180.5
q0 104 -5.5 183t-16.5 133t-27.5 81.5t-38.5 27.5q-25 0 -40 -25.5t-23 -67.5t-14 -91v-467q1 -56 9 -101t24 -71.5t43 -26.5z" />
    <glyph glyph-name="q" unicode="q" horiz-adv-x="859" 
d="M390 -500v75h108v485q-3 -10 -17.5 -29t-41.5 -35t-69 -16q-74 0 -137.5 49t-102.5 166.5t-39 322.5q0 191 38 311t99 175.5t128 55.5q58 0 92 -21.5t50.5 -46.5t18.5 -39l19 94h206v-1472h103v-75h-455zM422 90q26 0 42.5 26.5t24.5 72t9 100.5v460q-2 54 -11.5 97.5
t-25.5 68.5t-41 25q-22 0 -38.5 -28.5t-27.5 -83.5t-17 -133.5t-6 -179.5q0 -102 6 -181t17.5 -133.5t28 -82.5t39.5 -28z" />
    <glyph glyph-name="r" unicode="r" horiz-adv-x="715" 
d="M26 0v75h107v897h-107v75h323l15 -89q5 15 25 39.5t52.5 44t73.5 19.5q59 0 96.5 -37.5t55.5 -100.5t18 -139q0 -66 -25.5 -101t-69.5 -35q-41 0 -66.5 29.5t-25.5 81.5q0 34 14 54.5t27.5 40t13.5 50.5q0 37 -13.5 54t-42.5 17t-58 -29t-47.5 -85.5t-18.5 -138.5v-647
h105v-75h-452z" />
    <glyph glyph-name="s" unicode="s" horiz-adv-x="610" 
d="M313 -22q-59 0 -89.5 14.5t-46.5 29t-32 14.5q-14 0 -19 -9t-5 -27h-69v327h81q6 -54 20.5 -103t36.5 -87.5t52.5 -61t66.5 -22.5q33 0 53 13t29 36t9 52q0 43 -18 84.5t-52 85.5t-83 94q-80 82 -136 168t-56 212q0 93 35.5 150.5t92 85t119.5 27.5q44 0 70.5 -12
t43 -24.5t27.5 -12.5q9 0 14.5 8t5.5 27h71v-318h-81q-3 46 -14 91t-29.5 82t-44 59.5t-59.5 22.5q-48 0 -71 -36t-23 -83q0 -57 39.5 -108.5t111.5 -120.5q52 -51 97 -107.5t72 -124.5t27 -154q0 -96 -31 -156t-86.5 -88t-128.5 -28z" />
    <glyph glyph-name="t" unicode="t" horiz-adv-x="564" 
d="M383 -18q-62 0 -117.5 20t-90.5 74t-35 156v740h-141v75h141q45 10 78.5 55t55 109.5t28.5 134.5h78v-299h164v-75h-164v-837q0 -41 19.5 -55.5t37.5 -14.5q19 0 34 7t23 15l42 -60q-26 -20 -63.5 -32.5t-89.5 -12.5z" />
    <glyph glyph-name="u" unicode="u" horiz-adv-x="875" 
d="M358 -22q-65 0 -119 25.5t-86 95t-32 203.5v670h-103v74h343v-717q0 -96 7 -146.5t23 -69t41 -18.5q28 0 50 29t34 84t12 134v630h-91v74h331v-971h88v-75h-298l-15 102q-5 -23 -28.5 -52t-63 -50.5t-93.5 -21.5z" />
    <glyph glyph-name="v" unicode="v" horiz-adv-x="685" 
d="M297 -2l-204 974h-80v75h403v-75h-69l86 -504l89 504h-65v75h221v-75h-73l-192 -974h-116z" />
    <glyph glyph-name="w" unicode="w" horiz-adv-x="1126" 
d="M721 -2l-187 974h-73v75h395v-75h-72l76 -512l91 512h-60v75h223v-75h-77l-185 -974h-131zM278 -2l-185 974h-78v75h406v-75h-69l67 -512l91 512h-29v75h193v-75h-77l-188 -974h-131z" />
    <glyph glyph-name="x" unicode="x" horiz-adv-x="743" 
d="M15 0v75h91l180 466l95 4l160 427h-65v75h238v-75h-84l-185 -455l-90 -6l-157 -436h65v-75h-248zM336 0v75h72l-301 897h-84v75h321h88v-75h-70l302 -897h83v-75h-323h-88z" />
    <glyph glyph-name="y" unicode="y" horiz-adv-x="726" 
d="M220 -502q-49 0 -83.5 35.5t-51.5 95t-17 133.5q0 65 26 99t69 34q42 0 67 -29.5t25 -82.5q0 -41 -15.5 -66t-31 -46.5t-15.5 -52.5q0 -24 9.5 -41t28.5 -17q11 0 18 7t13 24t13 45l76 355l-255 981h-84v75h418v-75h-78l116 -480l102 480h-74v75h231v-75h-72l-224 -979
l-84 -374q-8 -37 -23.5 -64.5t-40 -42t-63.5 -14.5z" />
    <glyph glyph-name="z" unicode="z" horiz-adv-x="673" 
d="M78 0v75l272 897h-92q-50 0 -71.5 -20.5t-26 -73.5t-4.5 -149h-73v318h514v-75l-272 -897h91q51 0 72.5 22t26 76.5t4.5 153.5h75v-327h-516z" />
    <glyph glyph-name="braceleft" unicode="{" horiz-adv-x="422" 
d="M347 -320q-25 0 -59.5 10.5t-68 45t-55.5 105.5t-22 192q0 84 12 147t23.5 119.5t11.5 117.5q0 65 -13 101.5t-58 36.5v73q45 0 58 36t13 103q0 61 -11.5 117t-23.5 119.5t-12 145.5q0 121 22 192t55.5 105.5t68 45t59.5 10.5v-75q-12 0 -33 -8t-42.5 -35t-36 -84
t-14.5 -156q0 -80 12.5 -141.5t24.5 -117.5t12 -118q0 -98 -26 -132t-52 -42q26 -11 52 -45t26 -131q0 -62 -12 -118.5t-24.5 -118.5t-12.5 -142q0 -98 14.5 -155.5t36 -84.5t42.5 -35t33 -8v-75z" />
    <glyph glyph-name="bar" unicode="|" horiz-adv-x="210" 
d="M68 -329v1829h75v-1829h-75z" />
    <glyph glyph-name="braceright" unicode="}" horiz-adv-x="422" 
d="M76 -320v75q12 0 33 8t42.5 35t35.5 84.5t14 155.5q0 80 -12 142t-24.5 118.5t-12.5 118.5q0 97 26 131t53 45q-27 8 -53 42t-26 132q0 62 12.5 118t24.5 117.5t12 141.5q0 99 -14 156t-35.5 84t-42.5 35t-33 8v75q25 0 59.5 -10.5t67.5 -45t55.5 -105.5t22.5 -192
q0 -82 -11.5 -145.5t-23.5 -119.5t-12 -117q0 -67 13 -103t58 -36v-73q-45 0 -58 -36.5t-13 -101.5q0 -61 12 -117.5t23.5 -119.5t11.5 -147q0 -121 -22.5 -192t-55.5 -105.5t-67.5 -45t-59.5 -10.5z" />
    <glyph glyph-name="asciitilde" unicode="~" horiz-adv-x="742" 
d="M506 1268q-66 0 -112 22t-82.5 44t-80.5 22q-47 0 -80 -24.5t-41 -40.5l-60 46q10 17 31.5 41.5t59 44t93.5 19.5q68 0 112.5 -22t81.5 -44.5t79 -22.5q32 0 59 13.5t45 31t23 28.5l58 -49q-9 -19 -32.5 -45t-61.5 -45t-92 -19z" />
    <glyph glyph-name="uni00A0" unicode="&#xa0;" horiz-adv-x="356" 
 />
    <glyph glyph-name="exclamdown" unicode="&#xa1;" horiz-adv-x="372" 
d="M217 747q0 -106 13 -217.5t30.5 -223t30.5 -218.5t13 -205q0 -88 -30.5 -140t-91.5 -52q-59 0 -89.5 52t-30.5 140q0 98 13 205t29.5 218.5t29.5 223t13 217.5h70zM187 1142q54 0 93.5 -40.5t39.5 -94.5q0 -56 -39.5 -96t-93.5 -40q-56 0 -95 40t-39 96q0 54 39 94.5
t95 40.5z" />
    <glyph glyph-name="cent" unicode="&#xa2;" horiz-adv-x="682" 
d="M257 -116l140 1225h56l-139 -1225h-57zM401 -21q-71 0 -133.5 37.5t-111 109t-75.5 173.5t-27 230q0 144 35.5 245.5t90 164.5t116.5 92.5t113 29.5q77 0 132 -40.5t84 -105.5t29 -139q0 -62 -26.5 -95t-67.5 -33q-43 0 -70.5 28.5t-27.5 76.5q0 31 12 50l24 38t12 49
q0 47 -26 70.5t-60 23.5q-38 0 -62 -43t-37 -111t-17.5 -146t-4.5 -148q0 -81 6 -164.5t20.5 -153.5t42.5 -113t73 -43q57 0 88 34t46 76l57 -49q-21 -54 -80 -99t-155 -45z" />
    <glyph glyph-name="sterling" unicode="&#xa3;" horiz-adv-x="657" 
d="M10 712v75h505v-75h-505zM135 -24q-41 0 -70 26t-29 82q0 59 29.5 99.5t76.5 64t97 31.5q3 15 5.5 42.5t2.5 70.5q0 58 -27.5 137.5t-63.5 169.5t-63 179.5t-27 165.5q0 137 44 220.5t113 120.5t147 37q107 0 168 -74t61 -185q0 -64 -25.5 -101.5t-69.5 -37.5
q-42 0 -69.5 35t-27.5 88q0 35 15 59t30 43t15 38q0 31 -20.5 43t-51.5 12q-43 0 -68.5 -36t-36 -94.5t-10.5 -125.5q0 -81 20 -178t40 -201t20 -207q0 -51 -7 -98.5t-15 -81t-12 -46.5q33 -7 57 -27.5t42.5 -44t36.5 -40.5t38 -17q24 0 38 16.5t16 35.5h63
q0 -73 -17.5 -120t-49.5 -69.5t-76 -22.5q-36 0 -64.5 23.5t-51 55t-38.5 56t-27 26.5q-22 -87 -61 -128.5t-97 -41.5zM139 50q22 0 44.5 26.5t33.5 81.5q-37 0 -70.5 -26.5t-33.5 -58.5q0 -13 7.5 -18t18.5 -5z" />
    <glyph glyph-name="currency" unicode="&#xa4;" horiz-adv-x="870" 
d="M435 51q-49 0 -105 23.5t-105 77.5t-80 146t-31 229q0 139 31.5 228t81.5 138t105 68t103 19q47 0 102.5 -19t105.5 -68t81.5 -138t31.5 -228q0 -137 -31 -229t-80.5 -146t-105 -77.5t-104.5 -23.5zM435 119q25 0 47.5 18t40 62.5t27.5 124.5t10 203q0 121 -10 196.5
t-27.5 116.5t-40 56.5t-47.5 15.5q-26 0 -49 -15.5t-40.5 -56.5t-28 -116.5t-10.5 -196.5q0 -123 10.5 -203t28 -124.5t40.5 -62.5t49 -18zM764 996l53 -53l-163 -158l-48 49zM773 45l-158 162l48 49l163 -158zM106 996l157 -162l-48 -49l-162 158zM97 45l-54 53l163 158
l48 -49z" />
    <glyph glyph-name="yen" unicode="&#xa5;" horiz-adv-x="781" 
d="M165 551v75h507v-75h-507zM165 322v75h507v-75h-507zM195 0v75h107v513l-185 737h-98v75h444v-75h-77l152 -670h-66l169 670h-84v75h259v-75h-94l-180 -698v-552h107v-75h-454z" />
    <glyph glyph-name="brokenbar" unicode="&#xa6;" horiz-adv-x="210" 
d="M68 871v629h75v-629h-75zM68 -329v620h75v-620h-75z" />
    <glyph glyph-name="section" unicode="&#xa7;" horiz-adv-x="611" 
d="M279 -378q-55 0 -106 24.5t-84 71t-33 112.5q0 63 30.5 99t76.5 36q42 0 65 -22.5t23 -63.5q0 -35 -14.5 -52.5t-29.5 -30.5t-15 -36q0 -31 27 -47t54 -16q37 0 63 16t39.5 54t13.5 106q0 64 -35 116.5t-87 104.5t-104 115t-87.5 147t-35.5 200q0 65 21.5 114t51.5 83.5
t57 55t38 26.5q-31 36 -62.5 84t-53.5 109t-22 132q0 88 34 145.5t85.5 86t104.5 28.5q83 0 141.5 -54t58.5 -154q0 -60 -23 -97.5t-69 -37.5q-41 0 -64 23t-23 63q0 32 14.5 49.5t29 32t14.5 36.5t-9 36t-27 21t-42 7q-43 0 -69 -28t-26 -101q0 -89 36.5 -149t90.5 -109
t107.5 -103.5t90 -130t36.5 -190.5q0 -89 -33 -148t-73.5 -91t-63.5 -44q31 -33 63.5 -80t55 -109t22.5 -142q0 -100 -39.5 -166t-98 -99t-115.5 -33zM337 312q26 11 50 53t24 93q0 61 -21 118t-56 108t-78 96q-28 -15 -54.5 -58t-26.5 -92q0 -51 17.5 -98.5t43.5 -88.5
t53.5 -74.5t47.5 -56.5z" />
    <glyph glyph-name="dieresis" unicode="&#xa8;" horiz-adv-x="797" 
d="M525 1243q-36 0 -62 26t-26 61q0 38 26 65t62 27q35 0 61.5 -27t26.5 -65q0 -35 -26.5 -61t-61.5 -26zM279 1243q-35 0 -60.5 26t-25.5 61q0 38 25.5 65t60.5 27q36 0 62.5 -27t26.5 -65q0 -35 -26.5 -61t-62.5 -26z" />
    <glyph glyph-name="copyright" unicode="&#xa9;" horiz-adv-x="1192" 
d="M598 -22q-106 0 -199 54.5t-163.5 152.5t-110.5 228.5t-40 282.5t40 282t110.5 228t163.5 152.5t199 54.5q105 0 197 -54.5t162.5 -152.5t110 -228t39.5 -282t-39.5 -282.5t-110 -228.5t-162.5 -152.5t-197 -54.5zM593 235q-72 0 -125.5 60t-83.5 166t-30 242
q0 121 31.5 227.5t90 172.5t139.5 66q73 0 115 -56.5t42 -133.5q0 -46 -17.5 -74t-49.5 -28q-35 0 -50.5 20t-15.5 49q0 25 11.5 38t22.5 22.5t11 25.5q0 27 -14.5 45t-49.5 18t-56 -36t-32 -94.5t-15 -126t-4 -132.5q0 -62 3.5 -130t14.5 -127.5t31 -97t51 -37.5
q40 0 68.5 35.5t42.5 65.5l51 -64q-25 -54 -72 -85t-110 -31zM598 55q92 0 170 49.5t136 137.5t90.5 204t32.5 250q0 133 -32.5 249.5t-90.5 204t-136 137t-170 49.5t-171 -49.5t-137 -137t-90 -204t-32 -249.5q0 -134 32 -250t90 -204t137 -137.5t171 -49.5z" />
    <glyph glyph-name="ordfeminine" unicode="&#xaa;" horiz-adv-x="526" 
d="M211 1136q-54 0 -83 24t-29 69q0 43 30.5 66.5t70 38t69.5 27t30 34.5q0 36 -5 45.5t-34 9.5q-19 0 -28.5 -4.5t-9.5 -11.5q0 -6 0.5 -15.5t0.5 -19.5q0 -18 -15 -31.5t-43 -13.5q-23 0 -36.5 16t-13.5 38q0 44 45 73.5t107 29.5q64 0 109 -26t45 -100v-153q0 -31 22 -31
q15 0 20 9l22 -44q-7 -11 -30.5 -19.5t-59.5 -8.5q-37 0 -59 10.5t-33 37.5q-2 -10 -22.5 -30t-69.5 -20zM261 1209q14 0 26 10.5t12 27.5v69q-2 -4 -13 -9.5t-24 -14t-22.5 -20.5t-9.5 -29q0 -19 7.5 -26.5t23.5 -7.5z" />
    <glyph glyph-name="guillemotleft" unicode="&#xab;" horiz-adv-x="747" 
d="M538 304l-224 232l224 233h82l-223 -233l226 -232h-85zM348 304l-224 232l224 233h82l-223 -233l226 -232h-85z" />
    <glyph glyph-name="logicalnot" unicode="&#xac;" horiz-adv-x="699" 
d="M498 325v237l33 -34h-442v70h479v-273h-70z" />
    <glyph glyph-name="uni00AD" unicode="&#xad;" horiz-adv-x="568" 
d="M105 525v75h358v-75h-358z" />
    <glyph glyph-name="registered" unicode="&#xae;" horiz-adv-x="932" 
d="M480 384q-115 0 -201 67.5t-133.5 184t-47.5 263.5t47.5 263t133.5 183.5t201 67.5q116 0 201.5 -67.5t132.5 -184t47 -262.5t-47 -263t-132.5 -184.5t-201.5 -67.5zM480 441q103 0 174.5 60.5t109 164.5t37.5 233t-37.5 232.5t-109 164t-174.5 60.5q-102 0 -174.5 -60.5
t-110 -164t-37.5 -232.5t37.5 -233t110 -164.5t174.5 -60.5zM614 570q-42 0 -70.5 20t-28.5 74q0 46 2.5 89.5t2.5 70.5q0 26 -13 45t-42 19h-19v-255h46v-55h-205v55h55v547h-55v56h205q52 0 100 -37t48 -114q0 -66 -26 -114t-88 -55q59 -1 82.5 -29t23.5 -76t-3 -94
t-3 -71q0 -12 7 -18t12 -6q15 0 15 16h43q-2 -30 -22.5 -49t-66.5 -19zM447 942h18q19 0 33 18t21.5 50t7.5 72q0 39 -5 60t-16.5 29.5t-31.5 8.5h-27v-238z" />
    <glyph glyph-name="macron" unicode="&#xaf;" horiz-adv-x="930" 
d="M233 1353v75h603v-75h-603z" />
    <glyph glyph-name="degree" unicode="&#xb0;" horiz-adv-x="609" 
d="M304 1160q-43 0 -84.5 22.5t-68 65.5t-26.5 105q0 90 54 138.5t125 48.5q70 0 124.5 -45t54.5 -142t-55 -145t-124 -48zM304 1230q28 0 45.5 26t17.5 95q0 68 -17.5 94.5t-45.5 26.5q-27 0 -45.5 -27.5t-18.5 -95.5q0 -69 18.5 -94t45.5 -25z" />
    <glyph glyph-name="plusminus" unicode="&#xb1;" horiz-adv-x="832" 
d="M380 369v624h75v-624h-75zM105 643v75h622v-75h-622zM115 243v75h605v-75h-605z" />
    <glyph glyph-name="uni00B2" unicode="&#xb2;" horiz-adv-x="720" 
d="M467 697q-53 0 -95 20.5t-83 41t-90 20.5q-39 0 -59.5 -26t-24.5 -50h-61q0 120 35.5 196.5t88 126.5t105 87.5t88 78.5t35.5 99q0 29 -13 57t-38.5 46.5t-62.5 18.5q-24 0 -44 -4t-32 -11.5t-12 -18.5q0 -10 14 -19.5t27.5 -25t13.5 -44.5q0 -41 -26 -61.5t-64 -20.5
q-40 0 -66 27t-26 78q0 68 70.5 111t184.5 43q50 0 101.5 -7t96.5 -27.5t72 -61t27 -106.5q0 -71 -31 -113.5t-81.5 -67.5t-110 -43t-115.5 -39t-99 -54.5t-61 -91.5q15 23 42.5 38.5t63.5 23.5t76 8q52 0 88 -14t64.5 -28.5t51.5 -14.5q34 0 45.5 14.5t11.5 32.5h59v-39
q0 -33 -14.5 -75t-50.5 -73.5t-101 -31.5z" />
    <glyph glyph-name="uni00B3" unicode="&#xb3;" horiz-adv-x="720" 
d="M324 690q-69 0 -123 20.5t-85 55.5t-31 80q0 50 24.5 82t69.5 32q44 0 64 -17t20 -51q0 -28 -15.5 -42t-31 -27t-15.5 -39q0 -16 25 -24t61 -8q28 0 51 10t37 42.5t14 98.5q0 50 -11.5 82t-30 50t-41 25.5t-44.5 7.5v58q23 0 47 4t44 19t32.5 47t12.5 89q0 49 -14 75.5
t-38.5 36t-57.5 9.5q-37 0 -61 -8t-24 -25q0 -24 15.5 -37t30.5 -26.5t15 -41.5q0 -35 -20.5 -52.5t-63.5 -17.5q-44 0 -69 32t-25 83q0 45 31.5 79.5t86.5 54.5t124 20q77 0 144.5 -17t110 -59t42.5 -114q0 -55 -29 -90t-72 -54.5t-86 -27.5t-71 -9q31 -1 76 -10
t89.5 -29.5t74.5 -59.5t30 -102q0 -92 -86 -148.5t-227 -56.5z" />
    <glyph glyph-name="acute" unicode="&#xb4;" horiz-adv-x="587" 
d="M210 1254l-54 57l188 141q34 30 64.5 24t43.5 -30q14 -23 1.5 -48.5t-49.5 -41.5z" />
    <glyph glyph-name="uni00B5" unicode="&#xb5;" horiz-adv-x="875" 
d="M385 -22q-64 0 -125 25.5t-100 95t-39 203.5v737h240v-710q0 -96 8.5 -146.5t24.5 -69t38 -18.5q28 0 50 29t34 84t12 134v704h240v-971h88v-75h-298l-15 102q-5 -23 -23 -52t-51.5 -50.5t-83.5 -21.5zM121 876h240v-1369h-240v1369z" />
    <glyph glyph-name="paragraph" unicode="&#xb6;" horiz-adv-x="829" 
d="M321 -260q-59 0 -99 24.5t-60.5 64t-20.5 84.5q0 46 23 74t61 28q39 0 61 -20.5t22 -60.5q0 -28 -7 -41.5t-14.5 -23.5t-7.5 -27q0 -18 10 -26t31 -8q35 0 57 24.5t31.5 71.5t9.5 116v678q-8 -38 -47 -62.5t-76 -24.5h-2q-112 0 -183 112t-71 293q0 117 39 203t104 133.5
t142 47.5h489v-75h-92v-1210q0 -103 -33 -171.5t-83.5 -109.5t-106.5 -61t-103.5 -26.5t-73.5 -6.5zM442 -185q56 24 85.5 75.5t29.5 164.5v1270h-63v-1318q0 -67 -8 -112t-44 -80z" />
    <glyph glyph-name="periodcentered" unicode="&#xb7;" horiz-adv-x="439" 
d="M233 673q-55 0 -94 40.5t-39 94.5q0 56 39 96t94 40t94.5 -40t39.5 -96q0 -54 -39.5 -94.5t-94.5 -40.5z" />
    <glyph glyph-name="cedilla" unicode="&#xb8;" horiz-adv-x="610" 
d="M287 -280q-49 0 -90.5 13t-56.5 21l28 69q10 -7 46.5 -19.5t72.5 -12.5q31 0 45.5 10.5t14.5 30.5q0 24 -14.5 30t-28.5 6t-31 -5.5t-26 -13.5l-70 4l55 136h75l-38 -87q5 7 25 15.5t55 8.5q56 0 80.5 -25.5t24.5 -68.5q0 -52 -44.5 -82t-122.5 -30z" />
    <glyph glyph-name="uni00B9" unicode="&#xb9;" horiz-adv-x="537" 
d="M79 704v56h75v499q-13 -3 -36 -6.5t-40 -4.5v59q35 1 75 18.5t76.5 45t62.5 60t33 64.5h58v-735h76v-56h-380z" />
    <glyph glyph-name="ordmasculine" unicode="&#xba;" horiz-adv-x="517" 
d="M258 1140q-79 0 -136 54.5t-57 136.5q0 80 57 134.5t136 54.5q81 0 138 -54.5t57 -134.5q0 -82 -57 -136.5t-138 -54.5zM258 1211q35 0 53.5 37t18.5 83q0 45 -18.5 82t-53.5 37q-34 0 -52 -37t-18 -82q0 -46 18 -83t52 -37z" />
    <glyph glyph-name="guillemotright" unicode="&#xbb;" horiz-adv-x="754" 
d="M322 304l226 232l-222 233h82l223 -233l-223 -232h-86zM124 304l226 232l-222 233h82l223 -233l-223 -232h-86z" />
    <glyph glyph-name="onequarter" unicode="&#xbc;" horiz-adv-x="1431" 
d="M79 649v56h75v499q-13 -3 -36 -6.5t-40 -4.5v59q35 1 75 18.5t76.5 45t62.5 60t33 64.5h58v-735h76v-56h-380zM163 0l878 1400h94l-876 -1400h-96zM917 0v57h95v104h-204v56l211 424q53 5 102 43.5t62 85.5h65v-553h6q36 0 47.5 35t11.5 92h60v-183h-125v-104h93v-57
h-424zM876 210l-11 7h149v277h10z" />
    <glyph glyph-name="onehalf" unicode="&#xbd;" horiz-adv-x="1480" 
d="M79 649v56h75v499q-13 -3 -36 -6.5t-40 -4.5v59q35 1 75 18.5t76.5 45t62.5 60t33 64.5h58v-735h76v-56h-380zM163 0l878 1400h94l-876 -1400h-96zM1228 -6q-53 0 -95 20.5t-83 41t-90 20.5q-39 0 -59.5 -26t-24.5 -50h-61q0 119 35.5 196t88 127t105 87.5t88 78.5
t35.5 99q0 29 -13 57t-38.5 46.5t-62.5 18.5q-24 0 -44 -4t-32 -11.5t-12 -18.5q0 -10 14 -19.5t27.5 -25t13.5 -44.5q0 -41 -26 -61.5t-64 -20.5q-40 0 -66 27t-26 78q0 68 70.5 111t184.5 43q50 0 101.5 -7t96.5 -27.5t72 -61t27 -106.5q0 -71 -31 -113.5t-81.5 -67.5
t-110 -43t-115.5 -39t-99 -54.5t-61 -91.5q15 23 42.5 38.5t63.5 23.5t76 8q52 0 88 -14t64.5 -28.5t51.5 -14.5q34 0 45.5 14.5t11.5 32.5h59v-39q0 -33 -14.5 -75t-50.5 -73.5t-101 -31.5z" />
    <glyph glyph-name="threequarters" unicode="&#xbe;" horiz-adv-x="1614" 
d="M324 635q-69 0 -123 20.5t-85 55.5t-31 80q0 50 24.5 82t69.5 32q44 0 64 -17t20 -51q0 -28 -15.5 -42t-31 -27t-15.5 -39q0 -16 25 -24t61 -8q28 0 51 10t37 42.5t14 98.5q0 50 -11.5 82t-30 50t-41 25.5t-44.5 7.5v58q23 0 47 4t44 19t32.5 47t12.5 89q0 49 -14 75.5
t-38.5 36t-57.5 9.5q-37 0 -61 -8t-24 -25q0 -24 15.5 -37t30.5 -26.5t15 -41.5q0 -35 -20.5 -52.5t-63.5 -17.5q-44 0 -69 32t-25 83q0 45 31.5 79.5t86.5 54.5t124 20q77 0 144.5 -17t110 -59t42.5 -114q0 -55 -29 -90t-72 -54.5t-86 -27.5t-71 -9q31 -1 76 -10
t89.5 -29.5t74.5 -59.5t30 -102q0 -92 -86 -148.5t-227 -56.5zM346 0l878 1400h94l-876 -1400h-96zM1100 0v57h95v104h-204v56l211 424q53 5 102 43.5t62 85.5h65v-553h6q36 0 47.5 35t11.5 92h60v-183h-125v-104h93v-57h-424zM1059 210l-11 7h149v277h10z" />
    <glyph glyph-name="questiondown" unicode="&#xbf;" horiz-adv-x="683" 
d="M473 790q0 -120 -17 -211.5t-42 -164.5t-50 -138t-42 -130.5t-17 -142.5q0 -129 41.5 -188t111.5 -59q47 0 68.5 24t21.5 59q0 29 -15 49.5t-30 43t-15 57.5q0 55 25.5 78t66.5 23t71 -37t30 -108q0 -76 -34.5 -136t-96 -94t-143.5 -34q-51 0 -107.5 14t-105.5 49
t-79.5 96t-30.5 155q0 92 31.5 163t78 134.5t93 133t78.5 157t32 207.5h76zM433 1137q55 0 95 -40t40 -95q0 -56 -40 -95.5t-95 -39.5q-54 0 -94 39.5t-40 95.5q0 55 40 95t94 40z" />
    <glyph glyph-name="Agrave" unicode="&#xc0;" horiz-adv-x="715" 
d="M0 0v75h80l188 1326h137l221 -1326h94v-75h-429v75h77l-108 796h2l-103 -796h69v-75h-228zM155 264v70h219v-70h-219zM443 1448l-206 100q-29 14 -43.5 28.5t-14.5 40.5q0 24 17.5 39t43.5 15q21 0 35 -8t29 -20l180 -147z" />
    <glyph glyph-name="Aacute" unicode="&#xc1;" horiz-adv-x="715" 
d="M0 0v75h80l188 1326h137l221 -1326h94v-75h-429v75h77l-108 796h2l-103 -796h69v-75h-228zM155 264v70h219v-70h-219zM237 1442l-54 57l187 141q15 11 29.5 18t27.5 7q18 0 31.5 -9t20.5 -22q7 -12 7 -26q0 -19 -14 -36t-41 -28z" />
    <glyph glyph-name="Acircumflex" unicode="&#xc2;" horiz-adv-x="715" 
d="M0 0v75h80l188 1326h137l221 -1326h94v-75h-429v75h77l-108 796h2l-103 -796h69v-75h-228zM155 264v70h219v-70h-219zM157 1466l148 203h70l146 -203h-89l-93 131l-94 -131h-88z" />
    <glyph glyph-name="Atilde" unicode="&#xc3;" horiz-adv-x="715" 
d="M0 0v75h80l188 1326h137l221 -1326h94v-75h-429v75h77l-108 796h2l-103 -796h69v-75h-228zM155 264v70h219v-70h-219zM425 1489q-40 0 -66 14t-46 27.5t-43 13.5q-33 0 -50.5 -15t-22.5 -24l-75 30q5 18 23.5 42.5t46 43t61.5 18.5q44 0 69 -13.5t45.5 -27t50.5 -13.5
q32 0 46.5 14t18.5 24l74 -33q-4 -13 -21.5 -37t-45 -44t-65.5 -20z" />
    <glyph glyph-name="Adieresis" unicode="&#xc4;" horiz-adv-x="715" 
d="M0 0v75h80l188 1326h137l221 -1326h94v-75h-429v75h77l-108 796h2l-103 -796h69v-75h-228zM155 264v70h219v-70h-219zM462 1502q-36 0 -62 26.5t-26 60.5q0 38 26 65t62 27q35 0 61.5 -27t26.5 -65q0 -34 -26.5 -60.5t-61.5 -26.5zM216 1502q-35 0 -60.5 26.5t-25.5 60.5
q0 38 25.5 65t60.5 27q36 0 62.5 -27t26.5 -65q0 -34 -26.5 -60.5t-62.5 -26.5z" />
    <glyph glyph-name="Aring" unicode="&#xc5;" horiz-adv-x="715" 
d="M0 0v75h80l188 1326h137l221 -1326h94v-75h-429v75h77l-108 796h2l-103 -796h69v-75h-228zM155 264v70h219v-70h-219zM340 1467q-44 0 -77.5 32.5t-33.5 85.5q0 55 33.5 86.5t77.5 31.5q43 0 75.5 -31.5t32.5 -86.5q0 -53 -32.5 -85.5t-75.5 -32.5zM340 1527
q24 0 35 18.5t11 41.5q0 19 -11 37.5t-35 18.5q-25 0 -36.5 -18.5t-11.5 -37.5q0 -23 11.5 -41.5t36.5 -18.5z" />
    <glyph glyph-name="AE" unicode="&#xc6;" horiz-adv-x="1109" 
d="M400 0v75h76v1325h537v-334h-75q0 79 -8.5 137t-41.5 90t-105 32h-69v-567h219v93h75v-258h-75v90h-219v-608h66q74 0 107.5 33t42 92t8.5 137h75v-337h-613zM214 309l4 75h282l-4 -75h-282zM17 0v75h55l341 1325h80l-335 -1325h77v-75h-218z" />
    <glyph glyph-name="Ccedilla" unicode="&#xc7;" horiz-adv-x="730" 
d="M433 -20q-163 0 -265 186t-102 532q0 135 23 264t70 233t118 165.5t166 61.5q65 0 116 -43t79.5 -106.5t28.5 -125.5q0 -58 -22.5 -95.5t-71.5 -37.5q-54 0 -76.5 30t-22.5 81q0 36 15 59t30 45t15 54q0 34 -13.5 47.5t-35.5 13.5q-37 0 -64.5 -42.5t-46.5 -113
t-30 -155.5t-16.5 -172t-5.5 -161q0 -111 6.5 -209t18.5 -178t30 -137.5t41.5 -89t52.5 -31.5q37 0 60 21t38 57t26 80l63 -37q-19 -57 -48.5 -101t-72 -69.5t-104.5 -25.5zM445 -323q-49 0 -93 11t-59 19l29 71q11 -7 45 -18t70 -11q31 0 53 16t22 44q0 31 -13.5 41
t-34.5 10q-16 0 -31 -6t-26 -20l-70 4l60 162h75l-42 -106q4 6 28.5 15.5t58.5 9.5q39 0 73.5 -24.5t34.5 -86.5q0 -43 -23.5 -72t-64 -44t-92.5 -15z" />
    <glyph glyph-name="Egrave" unicode="&#xc8;" horiz-adv-x="745" 
d="M47 0v75h94v1250h-94v75h620v-334h-75q0 81 -15 139.5t-47 89t-85 30.5h-62v-587h165v93h73v-258h-73v90h-165v-588h62q53 0 85 32t47 90.5t15 139.5h75v-337h-620zM488 1448l-206 100q-29 14 -43.5 28.5t-14.5 40.5q0 24 17.5 39t43.5 15q21 0 35 -8t29 -20l180 -147z
" />
    <glyph glyph-name="Eacute" unicode="&#xc9;" horiz-adv-x="745" 
d="M47 0v75h94v1250h-94v75h620v-334h-75q0 81 -15 139.5t-47 89t-85 30.5h-62v-587h165v93h73v-258h-73v90h-165v-588h62q53 0 85 32t47 90.5t15 139.5h75v-337h-620zM282 1442l-54 57l187 141q15 11 29.5 18t27.5 7q18 0 31.5 -9t20.5 -22q7 -12 7 -26q0 -19 -14 -36
t-41 -28z" />
    <glyph glyph-name="Ecircumflex" unicode="&#xca;" horiz-adv-x="745" 
d="M47 0v75h94v1250h-94v75h620v-334h-75q0 81 -15 139.5t-47 89t-85 30.5h-62v-587h165v93h73v-258h-73v90h-165v-588h62q53 0 85 32t47 90.5t15 139.5h75v-337h-620zM202 1466l148 203h70l146 -203h-89l-93 131l-94 -131h-88z" />
    <glyph glyph-name="Edieresis" unicode="&#xcb;" horiz-adv-x="745" 
d="M47 0v75h94v1250h-94v75h620v-334h-75q0 81 -15 139.5t-47 89t-85 30.5h-62v-587h165v93h73v-258h-73v90h-165v-588h62q53 0 85 32t47 90.5t15 139.5h75v-337h-620zM507 1502q-36 0 -62 26.5t-26 60.5q0 38 26 65t62 27q35 0 61.5 -27t26.5 -65q0 -34 -26.5 -60.5
t-61.5 -26.5zM261 1502q-35 0 -60.5 26.5t-25.5 60.5q0 38 25.5 65t60.5 27q36 0 62.5 -27t26.5 -65q0 -34 -26.5 -60.5t-62.5 -26.5z" />
    <glyph glyph-name="Igrave" unicode="&#xcc;" horiz-adv-x="560" 
d="M64 0v75h97v1250h-97v75h434v-75h-99v-1250h99v-75h-434zM385 1448l-206 100q-29 14 -43.5 28.5t-14.5 40.5q0 24 17.5 39t43.5 15q21 0 35 -8t29 -20l180 -147z" />
    <glyph glyph-name="Iacute" unicode="&#xcd;" horiz-adv-x="560" 
d="M64 0v75h97v1250h-97v75h434v-75h-99v-1250h99v-75h-434zM179 1442l-54 57l187 141q15 11 29.5 18t27.5 7q18 0 31.5 -9t20.5 -22q7 -12 7 -26q0 -19 -14 -36t-41 -28z" />
    <glyph glyph-name="Icircumflex" unicode="&#xce;" horiz-adv-x="560" 
d="M64 0v75h97v1250h-97v75h434v-75h-99v-1250h99v-75h-434zM100 1466l148 203h70l146 -203h-89l-93 131l-94 -131h-88z" />
    <glyph glyph-name="Idieresis" unicode="&#xcf;" horiz-adv-x="560" 
d="M64 0v75h97v1250h-97v75h434v-75h-99v-1250h99v-75h-434zM404 1502q-36 0 -62 26.5t-26 60.5q0 38 26 65t62 27q35 0 61.5 -27t26.5 -65q0 -34 -26.5 -60.5t-61.5 -26.5zM158 1502q-35 0 -60.5 26.5t-25.5 60.5q0 38 25.5 65t60.5 27q36 0 62.5 -27t26.5 -65
q0 -34 -26.5 -60.5t-62.5 -26.5z" />
    <glyph glyph-name="Eth" unicode="&#xd0;" horiz-adv-x="907" 
d="M50 680v75h452v-75h-452zM47 0v75h94v1250h-94v75h386q98 0 182.5 -77.5t136.5 -230t52 -381.5q0 -230 -52 -388.5t-137 -240.5t-182 -82h-386zM382 75h35q39 0 73.5 70.5t56.5 212t22 353.5q0 193 -21 330.5t-53.5 210.5t-67.5 73h-45v-1250z" />
    <glyph glyph-name="Ntilde" unicode="&#xd1;" horiz-adv-x="838" 
d="M29 0v75h93v1250h-93v75h365l262 -856h-13v781h-88v75h254v-75h-89v-1325h-152l-385 1257h16v-1182h92v-75h-262zM511 1489q-40 0 -66 14t-46 27.5t-43 13.5q-33 0 -50.5 -15t-22.5 -24l-75 30q5 18 23.5 42.5t46 43t61.5 18.5q44 0 69 -13.5t45.5 -27t50.5 -13.5
q32 0 46.5 14t18.5 24l74 -33q-4 -13 -21.5 -37t-45 -44t-65.5 -20z" />
    <glyph glyph-name="Ograve" unicode="&#xd2;" horiz-adv-x="845" 
d="M425 -22q-106 0 -187 85.5t-126.5 246.5t-45.5 388q0 229 45.5 390.5t126.5 247.5t187 86q107 0 189.5 -86t129 -247.5t46.5 -390.5q0 -227 -46.5 -388t-129 -246.5t-189.5 -85.5zM425 53q30 0 50.5 42.5t34 125t19.5 202.5t6 275t-6 275.5t-19.5 204t-34 126.5t-50.5 43
q-29 0 -49 -43t-32 -126.5t-17.5 -204t-5.5 -275.5t5.5 -275t17.5 -202.5t32 -125t49 -42.5zM529 1448l-206 100q-29 14 -43.5 28.5t-14.5 40.5q0 24 17.5 39t43.5 15q21 0 35 -8t29 -20l180 -147z" />
    <glyph glyph-name="Oacute" unicode="&#xd3;" horiz-adv-x="845" 
d="M425 -22q-106 0 -187 85.5t-126.5 246.5t-45.5 388q0 229 45.5 390.5t126.5 247.5t187 86q107 0 189.5 -86t129 -247.5t46.5 -390.5q0 -227 -46.5 -388t-129 -246.5t-189.5 -85.5zM425 53q30 0 50.5 42.5t34 125t19.5 202.5t6 275t-6 275.5t-19.5 204t-34 126.5t-50.5 43
q-29 0 -49 -43t-32 -126.5t-17.5 -204t-5.5 -275.5t5.5 -275t17.5 -202.5t32 -125t49 -42.5zM323 1442l-54 57l187 141q15 11 29.5 18t27.5 7q18 0 31.5 -9t20.5 -22q7 -12 7 -26q0 -19 -14 -36t-41 -28z" />
    <glyph glyph-name="Ocircumflex" unicode="&#xd4;" horiz-adv-x="845" 
d="M425 -22q-106 0 -187 85.5t-126.5 246.5t-45.5 388q0 229 45.5 390.5t126.5 247.5t187 86q107 0 189.5 -86t129 -247.5t46.5 -390.5q0 -227 -46.5 -388t-129 -246.5t-189.5 -85.5zM425 53q30 0 50.5 42.5t34 125t19.5 202.5t6 275t-6 275.5t-19.5 204t-34 126.5t-50.5 43
q-29 0 -49 -43t-32 -126.5t-17.5 -204t-5.5 -275.5t5.5 -275t17.5 -202.5t32 -125t49 -42.5zM244 1466l148 203h70l146 -203h-89l-93 131l-94 -131h-88z" />
    <glyph glyph-name="Otilde" unicode="&#xd5;" horiz-adv-x="845" 
d="M425 -22q-106 0 -187 85.5t-126.5 246.5t-45.5 388q0 229 45.5 390.5t126.5 247.5t187 86q107 0 189.5 -86t129 -247.5t46.5 -390.5q0 -227 -46.5 -388t-129 -246.5t-189.5 -85.5zM425 53q30 0 50.5 42.5t34 125t19.5 202.5t6 275t-6 275.5t-19.5 204t-34 126.5t-50.5 43
q-29 0 -49 -43t-32 -126.5t-17.5 -204t-5.5 -275.5t5.5 -275t17.5 -202.5t32 -125t49 -42.5zM512 1489q-40 0 -66 14t-46 27.5t-43 13.5q-33 0 -50.5 -15t-22.5 -24l-75 30q5 18 23.5 42.5t46 43t61.5 18.5q44 0 69 -13.5t45.5 -27t50.5 -13.5q32 0 46.5 14t18.5 24l74 -33
q-4 -13 -21.5 -37t-45 -44t-65.5 -20z" />
    <glyph glyph-name="Odieresis" unicode="&#xd6;" horiz-adv-x="845" 
d="M425 -22q-106 0 -187 85.5t-126.5 246.5t-45.5 388q0 229 45.5 390.5t126.5 247.5t187 86q107 0 189.5 -86t129 -247.5t46.5 -390.5q0 -227 -46.5 -388t-129 -246.5t-189.5 -85.5zM425 53q30 0 50.5 42.5t34 125t19.5 202.5t6 275t-6 275.5t-19.5 204t-34 126.5t-50.5 43
q-29 0 -49 -43t-32 -126.5t-17.5 -204t-5.5 -275.5t5.5 -275t17.5 -202.5t32 -125t49 -42.5zM548 1502q-36 0 -62 26.5t-26 60.5q0 38 26 65t62 27q35 0 61.5 -27t26.5 -65q0 -34 -26.5 -60.5t-61.5 -26.5zM302 1502q-35 0 -60.5 26.5t-25.5 60.5q0 38 25.5 65t60.5 27
q36 0 62.5 -27t26.5 -65q0 -34 -26.5 -60.5t-62.5 -26.5z" />
    <glyph glyph-name="multiply" unicode="&#xd7;" horiz-adv-x="755" 
d="M607 293l-493 492l49 49l493 -492zM163 293l-45 45l490 491l46 -45z" />
    <glyph glyph-name="Oslash" unicode="&#xd8;" horiz-adv-x="859" 
d="M161 -104l492 1608h77l-490 -1608h-79zM425 -22q-106 0 -187 85.5t-126.5 246.5t-45.5 388q0 229 45.5 390.5t126.5 247.5t187 86q107 0 189.5 -86t129 -247.5t46.5 -390.5q0 -227 -46.5 -388t-129 -246.5t-189.5 -85.5zM425 53q30 0 50.5 42.5t34 125t19.5 202.5t6 275
t-6 275.5t-19.5 204t-34 126.5t-50.5 43q-29 0 -49 -43t-32 -126.5t-17.5 -204t-5.5 -275.5t5.5 -275t17.5 -202.5t32 -125t49 -42.5z" />
    <glyph glyph-name="Ugrave" unicode="&#xd9;" horiz-adv-x="822" 
d="M437 -24q-49 0 -102.5 14.5t-98.5 53t-73 109.5t-28 184v988h-99v75h450v-75h-108v-996q0 -139 30 -200t91 -61q24 0 45 10.5t37.5 36.5t26 71.5t9.5 115.5v1023h-87v75h258v-75h-95v-1031q0 -121 -31 -190.5t-88.5 -98.5t-136.5 -29zM531 1448l-206 100
q-29 14 -43.5 28.5t-14.5 40.5q0 24 17.5 39t43.5 15q21 0 35 -8t29 -20l180 -147z" />
    <glyph glyph-name="Uacute" unicode="&#xda;" horiz-adv-x="822" 
d="M437 -24q-49 0 -102.5 14.5t-98.5 53t-73 109.5t-28 184v988h-99v75h450v-75h-108v-996q0 -139 30 -200t91 -61q24 0 45 10.5t37.5 36.5t26 71.5t9.5 115.5v1023h-87v75h258v-75h-95v-1031q0 -121 -31 -190.5t-88.5 -98.5t-136.5 -29zM325 1442l-54 57l187 141
q15 11 29.5 18t27.5 7q18 0 31.5 -9t20.5 -22q7 -12 7 -26q0 -19 -14 -36t-41 -28z" />
    <glyph glyph-name="Ucircumflex" unicode="&#xdb;" horiz-adv-x="822" 
d="M437 -24q-49 0 -102.5 14.5t-98.5 53t-73 109.5t-28 184v988h-99v75h450v-75h-108v-996q0 -139 30 -200t91 -61q24 0 45 10.5t37.5 36.5t26 71.5t9.5 115.5v1023h-87v75h258v-75h-95v-1031q0 -121 -31 -190.5t-88.5 -98.5t-136.5 -29zM245 1466l148 203h70l146 -203h-89
l-93 131l-94 -131h-88z" />
    <glyph glyph-name="Udieresis" unicode="&#xdc;" horiz-adv-x="822" 
d="M437 -24q-49 0 -102.5 14.5t-98.5 53t-73 109.5t-28 184v988h-99v75h450v-75h-108v-996q0 -139 30 -200t91 -61q24 0 45 10.5t37.5 36.5t26 71.5t9.5 115.5v1023h-87v75h258v-75h-95v-1031q0 -121 -31 -190.5t-88.5 -98.5t-136.5 -29zM550 1502q-36 0 -62 26.5t-26 60.5
q0 38 26 65t62 27q35 0 61.5 -27t26.5 -65q0 -34 -26.5 -60.5t-61.5 -26.5zM304 1502q-35 0 -60.5 26.5t-25.5 60.5q0 38 25.5 65t60.5 27q36 0 62.5 -27t26.5 -65q0 -34 -26.5 -60.5t-62.5 -26.5z" />
    <glyph glyph-name="Yacute" unicode="&#xdd;" horiz-adv-x="831" 
d="M195 0v75h107v513l-185 737h-98v75h444v-75h-77l152 -670h-66l169 670h-84v75h259v-75h-94l-180 -698v-552h107v-75h-454zM313 1442l-54 57l187 141q15 11 29.5 18t27.5 7q18 0 31.5 -9t20.5 -22q7 -12 7 -26q0 -19 -14 -36t-41 -28z" />
    <glyph glyph-name="Thorn" unicode="&#xde;" horiz-adv-x="935" 
d="M372 309v82h33q55 0 93.5 47t59.5 129.5t21 188.5q0 101 -18.5 177t-53 118.5t-80.5 42.5h-55v83h156q95 0 167 -52t112.5 -146.5t40.5 -223.5q0 -132 -42 -233t-117 -157t-175 -56h-142zM64 0v75h97v1250h-97v75h434v-75h-99v-1250h99v-75h-434z" />
    <glyph glyph-name="germandbls" unicode="&#xdf;" horiz-adv-x="978" 
d="M611 -22q-58 0 -105 38.5t-47 112.5q0 51 22 82.5t60 31.5q32 0 50 -21.5t18 -57.5q0 -24 -9 -37.5t-18 -23t-9 -20.5q0 -15 9.5 -23.5t31.5 -8.5q30 0 48 20.5t26 61t8 101.5q0 71 -22.5 123.5t-55.5 96.5t-66.5 87.5t-56 95t-22.5 119.5q0 70 20.5 118t51 84t61 70.5
t51.5 75t21 99.5q0 75 -32 111t-98 36q-63 0 -97.5 -46t-48 -120.5t-13.5 -162.5v-1021h-351v75h101v869q0 146 50.5 254t137 167t195.5 59t171.5 -56.5t62.5 -163.5q0 -74 -22 -128.5t-51.5 -96.5t-51.5 -77.5t-22 -71.5q0 -44 29 -86t71 -87t84 -96t70.5 -111t28.5 -134
q0 -116 -39.5 -191t-103.5 -111t-138 -36z" />
    <glyph glyph-name="agrave" unicode="&#xe0;" horiz-adv-x="817" 
d="M289 -21q-66 0 -120.5 32t-87 92t-32.5 143q0 96 40.5 158.5t100.5 105t120 76t100.5 70.5t40.5 90q0 73 -12.5 124t-38.5 77.5t-66 26.5q-48 0 -78.5 -26t-30.5 -60q0 -27 11 -45t22 -38t11 -55q0 -47 -26.5 -74.5t-68.5 -27.5q-44 0 -70.5 37.5t-26.5 101.5
q0 79 39 140.5t108 97.5t159 36t159.5 -37t109 -117t39.5 -211v-532q0 -50 8.5 -67t26.5 -17t31 9.5t19 16.5l42 -58q-16 -23 -64 -44t-112 -21t-99 18t-50.5 42.5t-21.5 44.5q-4 -13 -22.5 -39t-57 -48t-102.5 -22zM369 92q26 0 44 22.5t28 56.5t10 68v368
q-4 -28 -28.5 -52.5t-54.5 -57.5t-52.5 -86t-22.5 -137q0 -89 21 -135.5t55 -46.5zM499 1104l-206 100q-29 14 -43.5 28.5t-14.5 40.5q0 24 17.5 39t43.5 15q21 0 35 -8t29 -20l180 -147z" />
    <glyph glyph-name="aacute" unicode="&#xe1;" horiz-adv-x="817" 
d="M289 -21q-66 0 -120.5 32t-87 92t-32.5 143q0 96 40.5 158.5t100.5 105t120 76t100.5 70.5t40.5 90q0 73 -12.5 124t-38.5 77.5t-66 26.5q-48 0 -78.5 -26t-30.5 -60q0 -27 11 -45t22 -38t11 -55q0 -47 -26.5 -74.5t-68.5 -27.5q-44 0 -70.5 37.5t-26.5 101.5
q0 79 39 140.5t108 97.5t159 36t159.5 -37t109 -117t39.5 -211v-532q0 -50 8.5 -67t26.5 -17t31 9.5t19 16.5l42 -58q-16 -23 -64 -44t-112 -21t-99 18t-50.5 42.5t-21.5 44.5q-4 -13 -22.5 -39t-57 -48t-102.5 -22zM369 92q26 0 44 22.5t28 56.5t10 68v368
q-4 -28 -28.5 -52.5t-54.5 -57.5t-52.5 -86t-22.5 -137q0 -89 21 -135.5t55 -46.5zM293 1086l-54 58l187 141q15 11 29.5 18t27.5 7q18 0 31.5 -9t20.5 -22q7 -12 7 -27q0 -19 -14 -35.5t-41 -27.5z" />
    <glyph glyph-name="acircumflex" unicode="&#xe2;" horiz-adv-x="817" 
d="M289 -21q-66 0 -120.5 32t-87 92t-32.5 143q0 96 40.5 158.5t100.5 105t120 76t100.5 70.5t40.5 90q0 73 -12.5 124t-38.5 77.5t-66 26.5q-48 0 -78.5 -26t-30.5 -60q0 -27 11 -45t22 -38t11 -55q0 -47 -26.5 -74.5t-68.5 -27.5q-44 0 -70.5 37.5t-26.5 101.5
q0 79 39 140.5t108 97.5t159 36t159.5 -37t109 -117t39.5 -211v-532q0 -50 8.5 -67t26.5 -17t31 9.5t19 16.5l42 -58q-16 -23 -64 -44t-112 -21t-99 18t-50.5 42.5t-21.5 44.5q-4 -13 -22.5 -39t-57 -48t-102.5 -22zM369 92q26 0 44 22.5t28 56.5t10 68v368
q-4 -28 -28.5 -52.5t-54.5 -57.5t-52.5 -86t-22.5 -137q0 -89 21 -135.5t55 -46.5zM213 1128l148 203h70l146 -203h-89l-93 131l-94 -131h-88z" />
    <glyph glyph-name="atilde" unicode="&#xe3;" horiz-adv-x="817" 
d="M289 -21q-66 0 -120.5 32t-87 92t-32.5 143q0 96 40.5 158.5t100.5 105t120 76t100.5 70.5t40.5 90q0 73 -12.5 124t-38.5 77.5t-66 26.5q-48 0 -78.5 -26t-30.5 -60q0 -27 11 -45t22 -38t11 -55q0 -47 -26.5 -74.5t-68.5 -27.5q-44 0 -70.5 37.5t-26.5 101.5
q0 79 39 140.5t108 97.5t159 36t159.5 -37t109 -117t39.5 -211v-532q0 -50 8.5 -67t26.5 -17t31 9.5t19 16.5l42 -58q-16 -23 -64 -44t-112 -21t-99 18t-50.5 42.5t-21.5 44.5q-4 -13 -22.5 -39t-57 -48t-102.5 -22zM369 92q26 0 44 22.5t28 56.5t10 68v368
q-4 -28 -28.5 -52.5t-54.5 -57.5t-52.5 -86t-22.5 -137q0 -89 21 -135.5t55 -46.5zM481 1140q-40 0 -66 14t-46 27.5t-43 13.5q-33 0 -50.5 -15t-22.5 -24l-75 30q5 18 23.5 42.5t46 43t61.5 18.5q44 0 69 -13.5t45.5 -27t50.5 -13.5q32 0 46.5 14t18.5 24l74 -33
q-4 -13 -21.5 -37t-45 -44t-65.5 -20z" />
    <glyph glyph-name="adieresis" unicode="&#xe4;" horiz-adv-x="817" 
d="M289 -21q-66 0 -120.5 32t-87 92t-32.5 143q0 96 40.5 158.5t100.5 105t120 76t100.5 70.5t40.5 90q0 73 -12.5 124t-38.5 77.5t-66 26.5q-48 0 -78.5 -26t-30.5 -60q0 -27 11 -45t22 -38t11 -55q0 -47 -26.5 -74.5t-68.5 -27.5q-44 0 -70.5 37.5t-26.5 101.5
q0 79 39 140.5t108 97.5t159 36t159.5 -37t109 -117t39.5 -211v-532q0 -50 8.5 -67t26.5 -17t31 9.5t19 16.5l42 -58q-16 -23 -64 -44t-112 -21t-99 18t-50.5 42.5t-21.5 44.5q-4 -13 -22.5 -39t-57 -48t-102.5 -22zM369 92q26 0 44 22.5t28 56.5t10 68v368
q-4 -28 -28.5 -52.5t-54.5 -57.5t-52.5 -86t-22.5 -137q0 -89 21 -135.5t55 -46.5zM518 1132q-36 0 -62 26.5t-26 61.5q0 37 26 64.5t62 27.5q35 0 61.5 -27.5t26.5 -64.5q0 -35 -26.5 -61.5t-61.5 -26.5zM272 1132q-35 0 -60.5 26.5t-25.5 61.5q0 37 25.5 64.5t60.5 27.5
q36 0 62.5 -27.5t26.5 -64.5q0 -35 -26.5 -61.5t-62.5 -26.5z" />
    <glyph glyph-name="aring" unicode="&#xe5;" horiz-adv-x="817" 
d="M289 -21q-66 0 -120.5 32t-87 92t-32.5 143q0 96 40.5 158.5t100.5 105t120 76t100.5 70.5t40.5 90q0 73 -12.5 124t-38.5 77.5t-66 26.5q-48 0 -78.5 -26t-30.5 -60q0 -27 11 -45t22 -38t11 -55q0 -47 -26.5 -74.5t-68.5 -27.5q-44 0 -70.5 37.5t-26.5 101.5
q0 79 39 140.5t108 97.5t159 36t159.5 -37t109 -117t39.5 -211v-532q0 -50 8.5 -67t26.5 -17t31 9.5t19 16.5l42 -58q-16 -23 -64 -44t-112 -21t-99 18t-50.5 42.5t-21.5 44.5q-4 -13 -22.5 -39t-57 -48t-102.5 -22zM369 92q26 0 44 22.5t28 56.5t10 68v368
q-4 -28 -28.5 -52.5t-54.5 -57.5t-52.5 -86t-22.5 -137q0 -89 21 -135.5t55 -46.5zM396 1098q-44 0 -77.5 32.5t-33.5 85.5q0 55 33.5 86.5t77.5 31.5q43 0 75.5 -31.5t32.5 -86.5q0 -53 -32.5 -85.5t-75.5 -32.5zM396 1158q24 0 35 18.5t11 41.5q0 19 -11 37.5t-35 18.5
q-25 0 -36.5 -18.5t-11.5 -37.5q0 -23 11.5 -41.5t36.5 -18.5z" />
    <glyph glyph-name="ae" unicode="&#xe6;" horiz-adv-x="1175" 
d="M323 -20q-147 0 -210.5 70t-63.5 186q0 99 40 163.5t99 107.5t118 76.5t99 70.5t40 90q0 68 -12 120t-37.5 81t-64.5 29q-44 0 -73.5 -22.5t-29.5 -58.5q0 -27 10.5 -45t21 -38.5t10.5 -54.5q0 -47 -26 -74.5t-69 -27.5q-44 0 -70 37.5t-26 101.5q0 76 38 137t106 96.5
t157 35.5q90 0 159 -39.5t107.5 -122t38.5 -213.5v-226q0 -98 -14 -171t-37 -124t-52 -84q-42 -45 -105 -73t-154 -28zM365 94q34 0 57 43t23 103v364q-4 -28 -27.5 -53t-52.5 -58t-51 -86t-22 -138q0 -56 8.5 -95t25 -59.5t39.5 -20.5zM811 -20q-79 0 -143 35.5t-110 105
t-71 171.5t-25 235q0 142 31.5 243.5t83 165.5t111.5 94.5t118 30.5q68 0 125.5 -34.5t99 -96t64.5 -146t23 -185.5v-41t-2 -41h-426v75h200q0 148 -9.5 233.5t-28 122t-46.5 36.5t-51.5 -37.5t-37.5 -130.5t-14 -260q0 -125 7.5 -217.5t23.5 -153.5t42 -90.5t65 -29.5
q71 0 113 36.5t59 73.5l63 -45q-23 -55 -95.5 -102.5t-169.5 -47.5z" />
    <glyph glyph-name="ccedilla" unicode="&#xe7;" horiz-adv-x="697" 
d="M401 -21q-71 0 -133.5 37.5t-111 109t-75.5 173.5t-27 230q0 144 35.5 245.5t90 164.5t116.5 92.5t113 29.5q77 0 132 -40.5t84 -105.5t29 -139q0 -62 -26.5 -95t-67.5 -33q-43 0 -70.5 28.5t-27.5 76.5q0 31 12 50l24 38t12 49q0 47 -26 70.5t-60 23.5q-38 0 -62 -43
t-37 -111t-17.5 -146t-4.5 -148q0 -81 6 -164.5t20.5 -153.5t42.5 -113t73 -43q57 0 88 34t46 76l57 -49q-21 -54 -80 -99t-155 -45zM438 -322q-49 0 -92.5 11t-58.5 19l28 70q11 -7 45.5 -18t70.5 -11q31 0 53 16t22 44q0 32 -14 42t-34 10q-16 0 -31 -6.5t-26 -20.5l-71 4
l60 163h75l-42 -107q4 6 28.5 15.5t59.5 9.5q39 0 73.5 -24.5t34.5 -86.5q0 -43 -23.5 -72t-64.5 -43.5t-93 -14.5z" />
    <glyph glyph-name="egrave" unicode="&#xe8;" horiz-adv-x="767" 
d="M403 -20q-78 0 -142.5 35.5t-110.5 105t-70.5 171.5t-24.5 235q0 142 31 243.5t82.5 165.5t112 94.5t117.5 30.5q69 0 126 -34.5t99 -96t65 -146t23 -185.5q0 -21 -0.5 -41t-2.5 -41h-426v75h200q0 148 -9.5 233.5t-28 122t-46.5 36.5t-51.5 -37.5t-37 -130.5t-13.5 -260
q0 -125 7 -217.5t23.5 -153.5t42.5 -90.5t64 -29.5q71 0 113 36.5t60 73.5l63 -45q-23 -55 -96 -102.5t-170 -47.5zM497 1104l-206 100q-29 14 -43.5 28.5t-14.5 40.5q0 24 17.5 39t43.5 15q21 0 35 -8t29 -20l180 -147z" />
    <glyph glyph-name="eacute" unicode="&#xe9;" horiz-adv-x="767" 
d="M403 -20q-78 0 -142.5 35.5t-110.5 105t-70.5 171.5t-24.5 235q0 142 31 243.5t82.5 165.5t112 94.5t117.5 30.5q69 0 126 -34.5t99 -96t65 -146t23 -185.5q0 -21 -0.5 -41t-2.5 -41h-426v75h200q0 148 -9.5 233.5t-28 122t-46.5 36.5t-51.5 -37.5t-37 -130.5t-13.5 -260
q0 -125 7 -217.5t23.5 -153.5t42.5 -90.5t64 -29.5q71 0 113 36.5t60 73.5l63 -45q-23 -55 -96 -102.5t-170 -47.5zM291 1085l-54 58l187 141q15 11 29.5 18t27.5 7q18 0 31.5 -9t20.5 -22q7 -12 7 -27q0 -19 -14 -35.5t-41 -27.5z" />
    <glyph glyph-name="ecircumflex" unicode="&#xea;" horiz-adv-x="767" 
d="M403 -20q-78 0 -142.5 35.5t-110.5 105t-70.5 171.5t-24.5 235q0 142 31 243.5t82.5 165.5t112 94.5t117.5 30.5q69 0 126 -34.5t99 -96t65 -146t23 -185.5q0 -21 -0.5 -41t-2.5 -41h-426v75h200q0 148 -9.5 233.5t-28 122t-46.5 36.5t-51.5 -37.5t-37 -130.5t-13.5 -260
q0 -125 7 -217.5t23.5 -153.5t42.5 -90.5t64 -29.5q71 0 113 36.5t60 73.5l63 -45q-23 -55 -96 -102.5t-170 -47.5zM211 1127l148 203h70l146 -203h-89l-93 131l-94 -131h-88z" />
    <glyph glyph-name="edieresis" unicode="&#xeb;" horiz-adv-x="767" 
d="M403 -20q-78 0 -142.5 35.5t-110.5 105t-70.5 171.5t-24.5 235q0 142 31 243.5t82.5 165.5t112 94.5t117.5 30.5q69 0 126 -34.5t99 -96t65 -146t23 -185.5q0 -21 -0.5 -41t-2.5 -41h-426v75h200q0 148 -9.5 233.5t-28 122t-46.5 36.5t-51.5 -37.5t-37 -130.5t-13.5 -260
q0 -125 7 -217.5t23.5 -153.5t42.5 -90.5t64 -29.5q71 0 113 36.5t60 73.5l63 -45q-23 -55 -96 -102.5t-170 -47.5zM516 1132q-36 0 -62 26.5t-26 61.5q0 37 26 64.5t62 27.5q35 0 61.5 -27.5t26.5 -64.5q0 -35 -26.5 -61.5t-61.5 -26.5zM270 1132q-35 0 -60.5 26.5
t-25.5 61.5q0 37 25.5 64.5t60.5 27.5q36 0 62.5 -27.5t26.5 -64.5q0 -35 -26.5 -61.5t-62.5 -26.5z" />
    <glyph glyph-name="igrave" unicode="&#xec;" horiz-adv-x="500" 
d="M29 0v75h102v897h-102v75h342v-972h103v-75h-445zM355 1104l-206 100q-29 14 -43.5 28.5t-14.5 40.5q0 24 17.5 39t43.5 15q21 0 35 -8t29 -20l180 -147z" />
    <glyph glyph-name="iacute" unicode="&#xed;" horiz-adv-x="500" 
d="M29 0v75h102v897h-102v75h342v-972h103v-75h-445zM149 1086l-54 58l187 141q15 11 29.5 18t27.5 7q18 0 31.5 -9t20.5 -22q7 -12 7 -27q0 -19 -14 -35.5t-41 -27.5z" />
    <glyph glyph-name="icircumflex" unicode="&#xee;" horiz-adv-x="500" 
d="M29 0v75h102v897h-102v75h342v-972h103v-75h-445zM69 1128l148 203h70l146 -203h-89l-93 131l-94 -131h-88z" />
    <glyph glyph-name="idieresis" unicode="&#xef;" horiz-adv-x="500" 
d="M29 0v75h102v897h-102v75h342v-972h103v-75h-445zM374 1132q-36 0 -62 26.5t-26 61.5q0 37 26 64.5t62 27.5q35 0 61.5 -27.5t26.5 -64.5q0 -35 -26.5 -61.5t-61.5 -26.5zM128 1132q-35 0 -60.5 26.5t-25.5 61.5q0 37 25.5 64.5t60.5 27.5q36 0 62.5 -27.5t26.5 -64.5
q0 -35 -26.5 -61.5t-62.5 -26.5z" />
    <glyph glyph-name="eth" unicode="&#xf0;" horiz-adv-x="810" 
d="M395 -22q-79 0 -152.5 67t-120.5 191t-47 293q0 136 29 235t77 163t104 95t110 31q21 0 39.5 -7.5t32 -17t18.5 -16.5q-5 47 -16 91.5t-25.5 79.5t-29.5 53l-59 -89l-64 45l63 89q-16 16 -58.5 34.5t-75.5 29.5l25 76q13 -2 39 -12t53.5 -22t43.5 -22l14 -8l44 61l64 -42
l-46 -65q54 -40 101 -102.5t82.5 -155t55 -222t19.5 -304.5q0 -174 -48.5 -297t-122 -187.5t-149.5 -64.5zM395 53q27 0 45 59t27 165.5t9 249.5q0 140 -9 241t-27 155.5t-45 54.5q-26 0 -44.5 -54.5t-28.5 -155.5t-10 -241q0 -143 10 -249.5t28.5 -165.5t44.5 -59z" />
    <glyph glyph-name="ntilde" unicode="&#xf1;" horiz-adv-x="930" 
d="M32 0v75h107v897h-107v75h340v-100q3 13 24.5 40.5t61.5 50.5t96 23q62 0 112.5 -27t80.5 -98.5t30 -205.5v-655h105v-75h-417v75h72v651q0 105 -15.5 153.5t-51.5 48.5q-20 0 -36 -13.5t-28 -38.5t-19 -59t-8 -75v-667h69v-75h-416zM548 1140q-40 0 -66 14t-46 27.5
t-43 13.5q-33 0 -50.5 -15t-22.5 -24l-75 30q5 18 23.5 42.5t46 43t61.5 18.5q44 0 69 -13.5t45.5 -27t50.5 -13.5q32 0 46.5 14t18.5 24l74 -33q-4 -13 -21.5 -37t-45 -44t-65.5 -20z" />
    <glyph glyph-name="ograve" unicode="&#xf2;" horiz-adv-x="785" 
d="M390 -22q-60 0 -119.5 34t-108.5 102.5t-78 171.5t-29 241q0 150 30.5 253t80 164.5t108.5 89t116 27.5t116.5 -27.5t109.5 -89t81 -164.5t31 -253q0 -138 -29.5 -241t-78.5 -171.5t-109 -102.5t-121 -34zM390 64q45 0 70 109t25 354t-25 347t-70 102q-42 0 -67.5 -102
t-25.5 -347t25.5 -354t67.5 -109zM495 1104l-206 100q-29 14 -43.5 28.5t-14.5 40.5q0 24 17.5 39t43.5 15q21 0 35 -8t29 -20l180 -147z" />
    <glyph glyph-name="oacute" unicode="&#xf3;" horiz-adv-x="785" 
d="M390 -22q-60 0 -119.5 34t-108.5 102.5t-78 171.5t-29 241q0 150 30.5 253t80 164.5t108.5 89t116 27.5t116.5 -27.5t109.5 -89t81 -164.5t31 -253q0 -138 -29.5 -241t-78.5 -171.5t-109 -102.5t-121 -34zM390 64q45 0 70 109t25 354t-25 347t-70 102q-42 0 -67.5 -102
t-25.5 -347t25.5 -354t67.5 -109zM288 1086l-54 58l187 141q15 11 29.5 18t27.5 7q18 0 31.5 -9t20.5 -22q7 -12 7 -27q0 -19 -14 -35.5t-41 -27.5z" />
    <glyph glyph-name="ocircumflex" unicode="&#xf4;" horiz-adv-x="785" 
d="M390 -22q-60 0 -119.5 34t-108.5 102.5t-78 171.5t-29 241q0 150 30.5 253t80 164.5t108.5 89t116 27.5t116.5 -27.5t109.5 -89t81 -164.5t31 -253q0 -138 -29.5 -241t-78.5 -171.5t-109 -102.5t-121 -34zM390 64q45 0 70 109t25 354t-25 347t-70 102q-42 0 -67.5 -102
t-25.5 -347t25.5 -354t67.5 -109zM209 1128l148 203h70l146 -203h-89l-93 131l-94 -131h-88z" />
    <glyph glyph-name="otilde" unicode="&#xf5;" horiz-adv-x="785" 
d="M390 -22q-60 0 -119.5 34t-108.5 102.5t-78 171.5t-29 241q0 150 30.5 253t80 164.5t108.5 89t116 27.5t116.5 -27.5t109.5 -89t81 -164.5t31 -253q0 -138 -29.5 -241t-78.5 -171.5t-109 -102.5t-121 -34zM390 64q45 0 70 109t25 354t-25 347t-70 102q-42 0 -67.5 -102
t-25.5 -347t25.5 -354t67.5 -109zM477 1140q-40 0 -66 14t-46 27.5t-43 13.5q-33 0 -50.5 -15t-22.5 -24l-75 30q5 18 23.5 42.5t46 43t61.5 18.5q44 0 69 -13.5t45.5 -27t50.5 -13.5q32 0 46.5 14t18.5 24l74 -33q-4 -13 -21.5 -37t-45 -44t-65.5 -20z" />
    <glyph glyph-name="odieresis" unicode="&#xf6;" horiz-adv-x="785" 
d="M390 -22q-60 0 -119.5 34t-108.5 102.5t-78 171.5t-29 241q0 150 30.5 253t80 164.5t108.5 89t116 27.5t116.5 -27.5t109.5 -89t81 -164.5t31 -253q0 -138 -29.5 -241t-78.5 -171.5t-109 -102.5t-121 -34zM390 64q45 0 70 109t25 354t-25 347t-70 102q-42 0 -67.5 -102
t-25.5 -347t25.5 -354t67.5 -109zM513 1132q-36 0 -62 26.5t-26 61.5q0 37 26 64.5t62 27.5q35 0 61.5 -27.5t26.5 -64.5q0 -35 -26.5 -61.5t-61.5 -26.5zM267 1132q-35 0 -60.5 26.5t-25.5 61.5q0 37 25.5 64.5t60.5 27.5q36 0 62.5 -27.5t26.5 -64.5q0 -35 -26.5 -61.5
t-62.5 -26.5z" />
    <glyph glyph-name="divide" unicode="&#xf7;" horiz-adv-x="810" 
d="M410 280q-29 0 -50 21.5t-21 51.5q0 29 21 50.5t50 21.5q30 0 51 -21.5t21 -50.5q0 -30 -21 -51.5t-51 -21.5zM410 672q-29 0 -50 21.5t-21 51.5t21 51t50 21q30 0 51 -21t21 -51t-21 -51.5t-51 -21.5zM106 511v75h605v-75h-605z" />
    <glyph glyph-name="oslash" unicode="&#xf8;" horiz-adv-x="793" 
d="M94 -104l517 1224h80l-517 -1224h-80zM390 -22q-60 0 -119.5 34t-108.5 102.5t-78 171.5t-29 241q0 150 30.5 253t80 164.5t108.5 89t116 27.5t116.5 -27.5t109.5 -89t81 -164.5t31 -253q0 -138 -29.5 -241t-78.5 -171.5t-109 -102.5t-121 -34zM390 64q45 0 70 109
t25 354t-25 347t-70 102q-42 0 -67.5 -102t-25.5 -347t25.5 -354t67.5 -109z" />
    <glyph glyph-name="ugrave" unicode="&#xf9;" horiz-adv-x="875" 
d="M358 -22q-65 0 -119 25.5t-86 95t-32 203.5v670h-103v74h343v-717q0 -96 7 -146.5t23 -69t41 -18.5q28 0 50 29t34 84t12 134v630h-91v74h331v-971h88v-75h-298l-15 102q-5 -23 -28.5 -52t-63 -50.5t-93.5 -21.5zM553 1104l-206 100q-29 14 -43.5 28.5t-14.5 40.5
q0 24 17.5 39t43.5 15q21 0 35 -8t29 -20l180 -147z" />
    <glyph glyph-name="uacute" unicode="&#xfa;" horiz-adv-x="875" 
d="M358 -22q-65 0 -119 25.5t-86 95t-32 203.5v670h-103v74h343v-717q0 -96 7 -146.5t23 -69t41 -18.5q28 0 50 29t34 84t12 134v630h-91v74h331v-971h88v-75h-298l-15 102q-5 -23 -28.5 -52t-63 -50.5t-93.5 -21.5zM347 1086l-54 58l187 141q15 11 29.5 18t27.5 7
q18 0 31.5 -9t20.5 -22q7 -12 7 -27q0 -19 -14 -35.5t-41 -27.5z" />
    <glyph glyph-name="ucircumflex" unicode="&#xfb;" horiz-adv-x="875" 
d="M358 -22q-65 0 -119 25.5t-86 95t-32 203.5v670h-103v74h343v-717q0 -96 7 -146.5t23 -69t41 -18.5q28 0 50 29t34 84t12 134v630h-91v74h331v-971h88v-75h-298l-15 102q-5 -23 -28.5 -52t-63 -50.5t-93.5 -21.5zM267 1128l148 203h70l146 -203h-89l-93 131l-94 -131h-88
z" />
    <glyph glyph-name="udieresis" unicode="&#xfc;" horiz-adv-x="875" 
d="M358 -22q-65 0 -119 25.5t-86 95t-32 203.5v670h-103v74h343v-717q0 -96 7 -146.5t23 -69t41 -18.5q28 0 50 29t34 84t12 134v630h-91v74h331v-971h88v-75h-298l-15 102q-5 -23 -28.5 -52t-63 -50.5t-93.5 -21.5zM572 1132q-36 0 -62 26.5t-26 61.5q0 37 26 64.5t62 27.5
q35 0 61.5 -27.5t26.5 -64.5q0 -35 -26.5 -61.5t-61.5 -26.5zM326 1132q-35 0 -60.5 26.5t-25.5 61.5q0 37 25.5 64.5t60.5 27.5q36 0 62.5 -27.5t26.5 -64.5q0 -35 -26.5 -61.5t-62.5 -26.5z" />
    <glyph glyph-name="yacute" unicode="&#xfd;" horiz-adv-x="726" 
d="M220 -502q-49 0 -83.5 35.5t-51.5 95t-17 133.5q0 65 26 99t69 34q42 0 67 -29.5t25 -82.5q0 -41 -15.5 -66t-31 -46.5t-15.5 -52.5q0 -24 9.5 -41t28.5 -17q11 0 18 7t13 24t13 45l76 355l-255 981h-84v75h418v-75h-78l116 -480l102 480h-74v75h231v-75h-72l-224 -979
l-84 -374q-8 -37 -23.5 -64.5t-40 -42t-63.5 -14.5zM268 1085l-54 58l187 141q15 11 29.5 18t27.5 7q18 0 31.5 -9t20.5 -22q7 -12 7 -27q0 -19 -14 -35.5t-41 -27.5z" />
    <glyph glyph-name="thorn" unicode="&#xfe;" horiz-adv-x="917" 
d="M40 -500v75h101v1850h-101v75h341v-549q3 11 20.5 35.5t49.5 44.5t79 20q90 0 154 -59t98.5 -177.5t34.5 -297.5q0 -189 -39 -307.5t-107.5 -174t-157.5 -55.5q-34 0 -58 8t-40 21t-24 26.5t-10 23.5v-484h98v-75h-439zM477 89q33 0 51.5 43.5t27.5 110t12 139.5t3 131
q0 46 -4 115t-13 136.5t-26 113t-44 45.5q-22 0 -41 -24.5t-33 -60.5t-21.5 -72.5t-7.5 -60.5v-435q4 -40 15 -82t31.5 -70.5t49.5 -28.5z" />
    <glyph glyph-name="ydieresis" unicode="&#xff;" horiz-adv-x="726" 
d="M220 -502q-49 0 -83.5 35.5t-51.5 95t-17 133.5q0 65 26 99t69 34q42 0 67 -29.5t25 -82.5q0 -41 -15.5 -66t-31 -46.5t-15.5 -52.5q0 -24 9.5 -41t28.5 -17q11 0 18 7t13 24t13 45l76 355l-255 981h-84v75h418v-75h-78l116 -480l102 480h-74v75h231v-75h-72l-224 -979
l-84 -374q-8 -37 -23.5 -64.5t-40 -42t-63.5 -14.5zM493 1131q-36 0 -62 26.5t-26 61.5q0 37 26 64.5t62 27.5q35 0 61.5 -27.5t26.5 -64.5q0 -35 -26.5 -61.5t-61.5 -26.5zM247 1131q-35 0 -60.5 26.5t-25.5 61.5q0 37 25.5 64.5t60.5 27.5q36 0 62.5 -27.5t26.5 -64.5
q0 -35 -26.5 -61.5t-62.5 -26.5z" />
    <glyph glyph-name="Amacron" unicode="&#x100;" horiz-adv-x="715" 
d="M0 0v75h80l188 1326h137l221 -1326h94v-75h-429v75h77l-108 796h2l-103 -796h69v-75h-228zM155 264v70h219v-70h-219zM38 1541v75h603v-75h-603z" />
    <glyph glyph-name="amacron" unicode="&#x101;" horiz-adv-x="817" 
d="M289 -21q-66 0 -120.5 32t-87 92t-32.5 143q0 96 40.5 158.5t100.5 105t120 76t100.5 70.5t40.5 90q0 73 -12.5 124t-38.5 77.5t-66 26.5q-48 0 -78.5 -26t-30.5 -60q0 -27 11 -45t22 -38t11 -55q0 -47 -26.5 -74.5t-68.5 -27.5q-44 0 -70.5 37.5t-26.5 101.5
q0 79 39 140.5t108 97.5t159 36t159.5 -37t109 -117t39.5 -211v-532q0 -50 8.5 -67t26.5 -17t31 9.5t19 16.5l42 -58q-16 -23 -64 -44t-112 -21t-99 18t-50.5 42.5t-21.5 44.5q-4 -13 -22.5 -39t-57 -48t-102.5 -22zM369 92q26 0 44 22.5t28 56.5t10 68v368
q-4 -28 -28.5 -52.5t-54.5 -57.5t-52.5 -86t-22.5 -137q0 -89 21 -135.5t55 -46.5zM159 1138v75h474v-75h-474z" />
    <glyph glyph-name="Abreve" unicode="&#x102;" horiz-adv-x="715" 
d="M0 0v75h80l188 1326h137l221 -1326h94v-75h-429v75h77l-108 796h2l-103 -796h69v-75h-228zM155 264v70h219v-70h-219zM337 1497q-64 0 -103 29.5t-57 75t-18 93.5h74q5 -64 33 -93.5t71 -29.5q44 0 72 29.5t32 93.5h75q0 -48 -18 -93.5t-57.5 -75t-103.5 -29.5z" />
    <glyph glyph-name="abreve" unicode="&#x103;" horiz-adv-x="817" 
d="M289 -21q-66 0 -120.5 32t-87 92t-32.5 143q0 96 40.5 158.5t100.5 105t120 76t100.5 70.5t40.5 90q0 73 -12.5 124t-38.5 77.5t-66 26.5q-48 0 -78.5 -26t-30.5 -60q0 -27 11 -45t22 -38t11 -55q0 -47 -26.5 -74.5t-68.5 -27.5q-44 0 -70.5 37.5t-26.5 101.5
q0 79 39 140.5t108 97.5t159 36t159.5 -37t109 -117t39.5 -211v-532q0 -50 8.5 -67t26.5 -17t31 9.5t19 16.5l42 -58q-16 -23 -64 -44t-112 -21t-99 18t-50.5 42.5t-21.5 44.5q-4 -13 -22.5 -39t-57 -48t-102.5 -22zM369 92q26 0 44 22.5t28 56.5t10 68v368
q-4 -28 -28.5 -52.5t-54.5 -57.5t-52.5 -86t-22.5 -137q0 -89 21 -135.5t55 -46.5zM393 1103q-64 0 -103 29.5t-57 75t-18 93.5h74q5 -64 33 -93.5t71 -29.5q44 0 72 29.5t32 93.5h75q0 -48 -18 -93.5t-57.5 -75t-103.5 -29.5z" />
    <glyph glyph-name="Aogonek" unicode="&#x104;" horiz-adv-x="715" 
d="M0 0v75h80l188 1326h137l221 -1326h94v-75h-429v75h77l-108 796h2l-103 -796h69v-75h-228zM155 264v70h219v-70h-219zM716 -306q-44 0 -82 14.5t-61 46t-23 79.5q0 54 25 91.5t57.5 61.5t56.5 38l31 -25q-22 -26 -41.5 -58t-19.5 -80q0 -43 29.5 -56.5t55.5 -13.5
q25 0 50 6.5t42 17.5l37 -69q-25 -23 -66.5 -38t-90.5 -15z" />
    <glyph glyph-name="aogonek" unicode="&#x105;" horiz-adv-x="817" 
d="M289 -21q-66 0 -120.5 32t-87 92t-32.5 143q0 96 40.5 158.5t100.5 105t120 76t100.5 70.5t40.5 90q0 73 -12.5 124t-38.5 77.5t-66 26.5q-48 0 -78 -26t-30 -60q0 -27 11 -45.5t21.5 -39.5t10.5 -56q0 -47 -26.5 -74t-68.5 -27q-44 0 -71 37t-27 102q0 78 39.5 140.5
t108.5 99t159 36.5t159.5 -37t109 -117t39.5 -211v-532q0 -50 8.5 -67t26.5 -17t31 9.5t19 16.5l42 -58q-16 -23 -64 -44t-112 -21t-101 12.5t-54 31.5t-23 38q-4 -13 -21 -33.5t-53.5 -36.5t-100.5 -16zM369 92q26 0 44 22.5t28 56.5t10 68v368q-4 -28 -28.5 -52.5
t-54.5 -57.5t-52.5 -86t-22.5 -137q0 -89 21 -135.5t55 -46.5zM814 -258q-44 0 -82 14.5t-61 46t-23 79.5q0 54 25 91t57.5 62t57.5 38l30 -25q-22 -26 -41.5 -58t-19.5 -81q0 -42 30 -56t55 -14q26 0 51 7t42 18l36 -69q-25 -23 -66.5 -38t-90.5 -15z" />
    <glyph glyph-name="Cacute" unicode="&#x106;" horiz-adv-x="730" 
d="M433 -20q-163 0 -265 186t-102 532q0 135 23 264t70 233t118 165.5t166 61.5q65 0 116 -43t79.5 -106.5t28.5 -125.5q0 -58 -22.5 -95.5t-71.5 -37.5q-54 0 -76.5 30t-22.5 81q0 36 15 59t30 45t15 54q0 34 -13.5 47.5t-35.5 13.5q-37 0 -64.5 -42.5t-46.5 -113
t-30 -155.5t-16.5 -172t-5.5 -161q0 -111 6.5 -209t18.5 -178t30 -137.5t41.5 -89t52.5 -31.5q37 0 60 21t38 57t26 80l63 -37q-19 -57 -48.5 -101t-72 -69.5t-104.5 -25.5zM337 1442l-54 57l187 141q15 11 29.5 18t27.5 7q18 0 31.5 -9t20.5 -22q7 -12 7 -26q0 -19 -14 -36
t-41 -28z" />
    <glyph glyph-name="cacute" unicode="&#x107;" horiz-adv-x="697" 
d="M401 -21q-71 0 -133.5 37.5t-111 109t-75.5 173.5t-27 230q0 144 35.5 245.5t90 164.5t116.5 92.5t113 29.5q77 0 132 -40.5t84 -105.5t29 -139q0 -62 -26.5 -95t-67.5 -33q-43 0 -70.5 28.5t-27.5 76.5q0 31 12 50l24 38t12 49q0 47 -26 70.5t-60 23.5q-38 0 -62 -43
t-37 -111t-17.5 -146t-4.5 -148q0 -81 6 -164.5t20.5 -153.5t42.5 -113t73 -43q57 0 88 34t46 76l57 -49q-21 -54 -80 -99t-155 -45zM300 1086l-54 58l187 141q15 11 29.5 18t27.5 7q18 0 31.5 -9t20.5 -22q7 -12 7 -27q0 -19 -14 -35.5t-41 -27.5z" />
    <glyph glyph-name="ccircumflex" unicode="&#x109;" horiz-adv-x="697" 
d="M401 -21q-71 0 -133.5 37.5t-111 109t-75.5 173.5t-27 230q0 144 35.5 245.5t90 164.5t116.5 92.5t113 29.5q77 0 132 -40.5t84 -105.5t29 -139q0 -62 -26.5 -95t-67.5 -33q-43 0 -70.5 28.5t-27.5 76.5q0 31 12 50l24 38t12 49q0 47 -26 70.5t-60 23.5q-38 0 -62 -43
t-37 -111t-17.5 -146t-4.5 -148q0 -81 6 -164.5t20.5 -153.5t42.5 -113t73 -43q57 0 88 34t46 76l57 -49q-21 -54 -80 -99t-155 -45zM221 1128l148 203h70l146 -203h-89l-93 131l-94 -131h-88z" />
    <glyph glyph-name="Cdotaccent" unicode="&#x10a;" horiz-adv-x="730" 
d="M433 -20q-163 0 -265 186t-102 532q0 135 23 264t70 233t118 165.5t166 61.5q65 0 116 -43t79.5 -106.5t28.5 -125.5q0 -58 -22.5 -95.5t-71.5 -37.5q-54 0 -76.5 30t-22.5 81q0 36 15 59t30 45t15 54q0 34 -13.5 47.5t-35.5 13.5q-37 0 -64.5 -42.5t-46.5 -113
t-30 -155.5t-16.5 -172t-5.5 -161q0 -111 6.5 -209t18.5 -178t30 -137.5t41.5 -89t52.5 -31.5q37 0 60 21t38 57t26 80l63 -37q-19 -57 -48.5 -101t-72 -69.5t-104.5 -25.5zM440 1503q-36 0 -62.5 26.5t-26.5 60.5q0 37 26.5 63.5t62.5 26.5q34 0 60.5 -26.5t26.5 -63.5
q0 -34 -26.5 -60.5t-60.5 -26.5z" />
    <glyph glyph-name="cdotaccent" unicode="&#x10b;" horiz-adv-x="697" 
d="M401 -21q-71 0 -133.5 37.5t-111 109t-75.5 173.5t-27 230q0 144 35.5 245.5t90 164.5t116.5 92.5t113 29.5q77 0 132 -40.5t84 -105.5t29 -139q0 -62 -26.5 -95t-67.5 -33q-43 0 -70.5 28.5t-27.5 76.5q0 31 12 50l24 38t12 49q0 47 -26 70.5t-60 23.5q-38 0 -62 -43
t-37 -111t-17.5 -146t-4.5 -148q0 -81 6 -164.5t20.5 -153.5t42.5 -113t73 -43q57 0 88 34t46 76l57 -49q-21 -54 -80 -99t-155 -45zM403 1138q-36 0 -62.5 26.5t-26.5 60.5q0 37 26.5 63.5t62.5 26.5q34 0 60.5 -26.5t26.5 -63.5q0 -34 -26.5 -60.5t-60.5 -26.5z" />
    <glyph glyph-name="Ccaron" unicode="&#x10c;" horiz-adv-x="730" 
d="M433 -20q-163 0 -265 186t-102 532q0 135 23 264t70 233t118 165.5t166 61.5q65 0 116 -43t79.5 -106.5t28.5 -125.5q0 -58 -22.5 -95.5t-71.5 -37.5q-54 0 -76.5 30t-22.5 81q0 36 15 59t30 45t15 54q0 34 -13.5 47.5t-35.5 13.5q-37 0 -64.5 -42.5t-46.5 -113
t-30 -155.5t-16.5 -172t-5.5 -161q0 -111 6.5 -209t18.5 -178t30 -137.5t41.5 -89t52.5 -31.5q37 0 60 21t38 57t26 80l63 -37q-19 -57 -48.5 -101t-72 -69.5t-104.5 -25.5zM405 1472l-169 224h96l107 -152l107 152h99l-170 -224h-70z" />
    <glyph glyph-name="ccaron" unicode="&#x10d;" horiz-adv-x="697" 
d="M401 -21q-71 0 -133.5 37.5t-111 109t-75.5 173.5t-27 230q0 144 35.5 245.5t90 164.5t116.5 92.5t113 29.5q77 0 132 -40.5t84 -105.5t29 -139q0 -62 -26.5 -95t-67.5 -33q-43 0 -70.5 28.5t-27.5 76.5q0 31 12 50l24 38t12 49q0 47 -26 70.5t-60 23.5q-38 0 -62 -43
t-37 -111t-17.5 -146t-4.5 -148q0 -81 6 -164.5t20.5 -153.5t42.5 -113t73 -43q57 0 88 34t46 76l57 -49q-21 -54 -80 -99t-155 -45zM368 1109l-169 224h96l107 -152l107 152h99l-170 -224h-70z" />
    <glyph glyph-name="Dcaron" unicode="&#x10e;" horiz-adv-x="860" 
d="M47 0v75h94v1250h-94v75h386q98 0 182.5 -77.5t136.5 -230t52 -381.5q0 -230 -52 -388.5t-137 -240.5t-182 -82h-386zM382 75h35q39 0 73.5 70.5t56.5 212t22 353.5q0 193 -21 330.5t-53.5 210.5t-67.5 73h-45v-1250zM392 1472l-169 224h96l107 -152l107 152h99
l-170 -224h-70z" />
    <glyph glyph-name="dcaron" unicode="&#x10f;" horiz-adv-x="982" 
d="M801 1174q12 47 15 106.5t3 112.5q0 56 25 75.5t53 19.5q27 0 50 -17.5t23 -67.5q0 -71 -31.5 -141.5t-70.5 -115.5zM354 -20q-74 0 -140.5 49t-108.5 166.5t-42 322.5q0 191 40 311t103 175.5t132 55.5q56 0 87 -18t44 -40.5t16 -34.5v457h-121v76h366v-1425h115v-75
h-318l-24 115q-2 -27 -19.5 -58.5t-50 -54t-79.5 -22.5zM401 116q26 0 43.5 34.5t28.5 88.5t12 112v387q-3 51 -14 92t-28.5 64.5t-41.5 23.5q-23 0 -41.5 -28.5t-30.5 -81t-18.5 -126.5t-6.5 -167q0 -94 6 -168.5t18 -125.5t30 -78t43 -27z" />
    <glyph glyph-name="Dcroat" unicode="&#x110;" horiz-adv-x="907" 
d="M50 680v75h452v-75h-452zM47 0v75h94v1250h-94v75h386q98 0 182.5 -77.5t136.5 -230t52 -381.5q0 -230 -52 -388.5t-137 -240.5t-182 -82h-386zM382 75h35q39 0 73.5 70.5t56.5 212t22 353.5q0 193 -21 330.5t-53.5 210.5t-67.5 73h-45v-1250z" />
    <glyph glyph-name="dcroat" unicode="&#x111;" horiz-adv-x="857" 
d="M201 1237v75h625v-75h-625zM354 -20q-74 0 -140.5 49t-108.5 166.5t-42 322.5q0 191 40 311t103 175.5t132 55.5q56 0 87 -18t44 -40.5t16 -34.5v457h-121v76h366v-1425h115v-75h-318l-24 115q-2 -27 -19.5 -58.5t-50 -54t-79.5 -22.5zM401 116q26 0 43.5 34.5t28.5 88.5
t12 112v387q-3 51 -14 92t-28.5 64.5t-41.5 23.5q-23 0 -41.5 -28.5t-30.5 -81t-18.5 -126.5t-6.5 -167q0 -94 6 -168.5t18 -125.5t30 -78t43 -27z" />
    <glyph glyph-name="Emacron" unicode="&#x112;" horiz-adv-x="745" 
d="M47 0v75h94v1250h-94v75h620v-334h-75q0 81 -15 139.5t-47 89t-85 30.5h-62v-587h165v93h73v-258h-73v90h-165v-588h62q53 0 85 32t47 90.5t15 139.5h75v-337h-620zM83 1541v75h603v-75h-603z" />
    <glyph glyph-name="emacron" unicode="&#x113;" horiz-adv-x="767" 
d="M403 -20q-78 0 -142.5 35.5t-110.5 105t-70.5 171.5t-24.5 235q0 142 31 243.5t82.5 165.5t112 94.5t117.5 30.5q69 0 126 -34.5t99 -96t65 -146t23 -185.5q0 -21 -0.5 -41t-2.5 -41h-426v75h200q0 148 -9.5 233.5t-28 122t-46.5 36.5t-51.5 -37.5t-37 -130.5t-13.5 -260
q0 -125 7 -217.5t23.5 -153.5t42.5 -90.5t64 -29.5q71 0 113 36.5t60 73.5l63 -45q-23 -55 -96 -102.5t-170 -47.5zM157 1138v75h474v-75h-474z" />
    <glyph glyph-name="ebreve" unicode="&#x115;" horiz-adv-x="767" 
d="M403 -20q-78 0 -142.5 35.5t-110.5 105t-70.5 171.5t-24.5 235q0 142 31 243.5t82.5 165.5t112 94.5t117.5 30.5q69 0 126 -34.5t99 -96t65 -146t23 -185.5q0 -21 -0.5 -41t-2.5 -41h-426v75h200q0 148 -9.5 233.5t-28 122t-46.5 36.5t-51.5 -37.5t-37 -130.5t-13.5 -260
q0 -125 7 -217.5t23.5 -153.5t42.5 -90.5t64 -29.5q71 0 113 36.5t60 73.5l63 -45q-23 -55 -96 -102.5t-170 -47.5zM391 1103q-64 0 -103 29.5t-57 75t-18 93.5h74q5 -64 33 -93.5t71 -29.5q44 0 72 29.5t32 93.5h75q0 -48 -18 -93.5t-57.5 -75t-103.5 -29.5z" />
    <glyph glyph-name="Edotaccent" unicode="&#x116;" horiz-adv-x="745" 
d="M47 0v75h94v1250h-94v75h620v-334h-75q0 81 -15 139.5t-47 89t-85 30.5h-62v-587h165v93h73v-258h-73v90h-165v-588h62q53 0 85 32t47 90.5t15 139.5h75v-337h-620zM385 1503q-36 0 -62.5 26.5t-26.5 60.5q0 37 26.5 63.5t62.5 26.5q34 0 60.5 -26.5t26.5 -63.5
q0 -34 -26.5 -60.5t-60.5 -26.5z" />
    <glyph glyph-name="edotaccent" unicode="&#x117;" horiz-adv-x="767" 
d="M403 -20q-78 0 -142.5 35.5t-110.5 105t-70.5 171.5t-24.5 235q0 142 31 243.5t82.5 165.5t112 94.5t117.5 30.5q69 0 126 -34.5t99 -96t65 -146t23 -185.5q0 -21 -0.5 -41t-2.5 -41h-426v75h200q0 148 -9.5 233.5t-28 122t-46.5 36.5t-51.5 -37.5t-37 -130.5t-13.5 -260
q0 -125 7 -217.5t23.5 -153.5t42.5 -90.5t64 -29.5q71 0 113 36.5t60 73.5l63 -45q-23 -55 -96 -102.5t-170 -47.5zM394 1138q-36 0 -62.5 26.5t-26.5 60.5q0 37 26.5 63.5t62.5 26.5q34 0 60.5 -26.5t26.5 -63.5q0 -34 -26.5 -60.5t-60.5 -26.5z" />
    <glyph glyph-name="Eogonek" unicode="&#x118;" horiz-adv-x="745" 
d="M47 0v75h94v1250h-94v75h620v-334h-75q0 81 -15 139.5t-47 89t-85 30.5h-62v-587h165v93h73v-258h-73v90h-165v-588h62q53 0 85 32t47 90.5t15 139.5h75v-337h-620zM663 -306q-45 0 -83 14.5t-60.5 46t-22.5 79.5q0 54 24.5 91.5t57.5 61.5t57 38l31 -25
q-22 -26 -41.5 -58t-19.5 -80q0 -43 29.5 -56.5t55.5 -13.5q25 0 50 6.5t42 17.5l37 -69q-25 -23 -66.5 -38t-90.5 -15z" />
    <glyph glyph-name="eogonek" unicode="&#x119;" horiz-adv-x="767" 
d="M403 -20q-78 0 -142.5 35.5t-110.5 105t-70.5 171.5t-24.5 235q0 142 31 243.5t82.5 165.5t112 94.5t117.5 30.5q69 0 126 -35t99 -99.5t65 -155t23 -202.5q0 -21 -0.5 -41t-2.5 -41h-426v75h200q0 148 -9.5 241t-28 137t-46.5 44t-51.5 -45t-37 -145.5t-13.5 -267.5
q0 -125 7 -214t23.5 -145t42.5 -82.5t64 -26.5q71 0 113 40t60 77l63 -45q-23 -55 -96 -102.5t-170 -47.5zM538 -291q-44 0 -82 14.5t-61 46t-23 79.5q0 54 25 91t57.5 62t57.5 38l30 -25q-22 -26 -41.5 -58t-19.5 -81q0 -42 30 -56t55 -14q26 0 51 7t42 18l36 -69
q-25 -23 -66.5 -38t-90.5 -15z" />
    <glyph glyph-name="Ecaron" unicode="&#x11a;" horiz-adv-x="745" 
d="M47 0v75h94v1250h-94v75h620v-334h-75q0 81 -15 139.5t-47 89t-85 30.5h-62v-587h165v93h73v-258h-73v90h-165v-588h62q53 0 85 32t47 90.5t15 139.5h75v-337h-620zM350 1472l-169 224h96l107 -152l107 152h99l-170 -224h-70z" />
    <glyph glyph-name="ecaron" unicode="&#x11b;" horiz-adv-x="767" 
d="M403 -20q-78 0 -142.5 35.5t-110.5 105t-70.5 171.5t-24.5 235q0 142 31 243.5t82.5 165.5t112 94.5t117.5 30.5q69 0 126 -34.5t99 -96t65 -146t23 -185.5q0 -21 -0.5 -41t-2.5 -41h-426v75h200q0 148 -9.5 233.5t-28 122t-46.5 36.5t-51.5 -37.5t-37 -130.5t-13.5 -260
q0 -125 7 -217.5t23.5 -153.5t42.5 -90.5t64 -29.5q71 0 113 36.5t60 73.5l63 -45q-23 -55 -96 -102.5t-170 -47.5zM359 1109l-169 224h96l107 -152l107 152h99l-170 -224h-70z" />
    <glyph glyph-name="gcircumflex" unicode="&#x11d;" horiz-adv-x="843" 
d="M411 -498q-91 0 -173.5 29.5t-134.5 88t-52 148.5q0 66 25 111t59.5 71t63 38.5t35.5 14.5q-7 2 -29 11t-48 28.5t-45 52.5t-19 82q0 36 13.5 62t33 42.5t39.5 22.5q4 2 11.5 4t10.5 1q-6 5 -24.5 25t-40.5 58.5t-37.5 99.5t-15.5 147q0 119 32.5 199.5t83.5 129.5
t107.5 71t105.5 22q102 0 174 -52t111 -144t39 -214q0 -128 -32.5 -210.5t-83.5 -128.5t-107.5 -63.5t-103.5 -17.5q-58 0 -93.5 12t-44.5 15q-1 1 -1.5 1h-2.5q-13 0 -26.5 -14.5t-13.5 -40.5q0 -37 48 -64t181 -51q153 -27 238 -94.5t85 -205.5q0 -83 -36.5 -139
t-93.5 -88.5t-120.5 -46t-117.5 -13.5zM411 -425q68 0 109.5 50t41.5 116q0 70 -20 108.5t-75 66.5q-20 11 -44.5 22.5t-46.5 20.5t-35 13q-20 -11 -41 -36.5t-35.5 -66t-14.5 -98.5t19 -102t55 -69t87 -25zM409 309q23 0 42.5 22.5t32 94.5t12.5 221q0 143 -12.5 214.5
t-32 96t-41.5 24.5t-42 -24.5t-32.5 -97.5t-12.5 -217q0 -148 13 -219t32.5 -93t40.5 -22zM528 983q11 72 67.5 113t119.5 41q53 0 75 -26t22 -65q0 -38 -21 -59t-53 -21t-45.5 14.5t-22.5 28.5t-32 14q-13 0 -23.5 -8t-10.5 -34zM228 1128l148 203h70l146 -203h-89l-93 131
l-94 -131h-88z" />
    <glyph glyph-name="Gbreve" unicode="&#x11e;" horiz-adv-x="831" 
d="M443 -20q-105 0 -191 76.5t-137.5 236t-51.5 405.5q0 231 58.5 392t150 245.5t187.5 84.5q75 0 131 -37.5t86.5 -99t30.5 -136.5q0 -61 -25.5 -97t-74.5 -36q-52 0 -75.5 35.5t-23.5 84.5q0 33 14 54.5t28 42t14 50.5q0 25 -23 47t-57 22q-50 0 -84 -61t-55 -159.5
t-30 -212.5t-9 -219q0 -160 11 -279.5t30.5 -200t45 -120.5t52.5 -40q18 0 28.5 6t16.5 14v480h-78v75h382v-75h-86v-558h-74q-1 3 -12.5 11t-29.5 8q-19 0 -36.5 -9.5t-43.5 -19.5t-69 -10zM441 1497q-64 0 -103 29.5t-57 75t-18 93.5h74q5 -64 33 -93.5t71 -29.5
q44 0 72 29.5t32 93.5h75q0 -48 -18 -93.5t-57.5 -75t-103.5 -29.5z" />
    <glyph glyph-name="gbreve" unicode="&#x11f;" horiz-adv-x="843" 
d="M411 -498q-91 0 -173.5 29.5t-134.5 88t-52 148.5q0 66 25 111t59.5 71t63 38.5t35.5 14.5q-7 2 -29 11t-48 28.5t-45 52.5t-19 82q0 36 13.5 62t33 42.5t39.5 22.5q4 2 11.5 4t10.5 1q-6 5 -24.5 25t-40.5 58.5t-37.5 99.5t-15.5 147q0 119 32.5 199.5t83.5 129.5
t107.5 71t105.5 22q102 0 174 -52t111 -144t39 -214q0 -128 -32.5 -210.5t-83.5 -128.5t-107.5 -63.5t-103.5 -17.5q-58 0 -93.5 12t-44.5 15q-1 1 -1.5 1h-2.5q-13 0 -26.5 -14.5t-13.5 -40.5q0 -37 48 -64t181 -51q153 -27 238 -94.5t85 -205.5q0 -83 -36.5 -139
t-93.5 -88.5t-120.5 -46t-117.5 -13.5zM411 -425q68 0 109.5 50t41.5 116q0 70 -20 108.5t-75 66.5q-20 11 -44.5 22.5t-46.5 20.5t-35 13q-20 -11 -41 -36.5t-35.5 -66t-14.5 -98.5t19 -102t55 -69t87 -25zM409 309q23 0 42.5 22.5t32 94.5t12.5 221q0 143 -12.5 214.5
t-32 96t-41.5 24.5t-42 -24.5t-32.5 -97.5t-12.5 -217q0 -148 13 -219t32.5 -93t40.5 -22zM528 983q11 72 67.5 113t119.5 41q53 0 75 -26t22 -65q0 -38 -21 -59t-53 -21t-45.5 14.5t-22.5 28.5t-32 14q-13 0 -23.5 -8t-10.5 -34zM408 1103q-64 0 -103 29.5t-57 75t-18 93.5
h74q5 -64 33 -93.5t71 -29.5q44 0 72 29.5t32 93.5h75q0 -48 -18 -93.5t-57.5 -75t-103.5 -29.5z" />
    <glyph glyph-name="Gdotaccent" unicode="&#x120;" horiz-adv-x="831" 
d="M443 -20q-105 0 -191 76.5t-137.5 236t-51.5 405.5q0 231 58.5 392t150 245.5t187.5 84.5q75 0 131 -37.5t86.5 -99t30.5 -136.5q0 -61 -25.5 -97t-74.5 -36q-52 0 -75.5 35.5t-23.5 84.5q0 33 14 54.5t28 42t14 50.5q0 25 -23 47t-57 22q-50 0 -84 -61t-55 -159.5
t-30 -212.5t-9 -219q0 -160 11 -279.5t30.5 -200t45 -120.5t52.5 -40q18 0 28.5 6t16.5 14v480h-78v75h382v-75h-86v-558h-74q-1 3 -12.5 11t-29.5 8q-19 0 -36.5 -9.5t-43.5 -19.5t-69 -10zM444 1503q-36 0 -62.5 26.5t-26.5 60.5q0 37 26.5 63.5t62.5 26.5
q34 0 60.5 -26.5t26.5 -63.5q0 -34 -26.5 -60.5t-60.5 -26.5z" />
    <glyph glyph-name="gdotaccent" unicode="&#x121;" horiz-adv-x="843" 
d="M411 -498q-91 0 -173.5 29.5t-134.5 88t-52 148.5q0 66 25 111t59.5 71t63 38.5t35.5 14.5q-7 2 -29 11t-48 28.5t-45 52.5t-19 82q0 36 13.5 62t33 42.5t39.5 22.5q4 2 11.5 4t10.5 1q-6 5 -24.5 25t-40.5 58.5t-37.5 99.5t-15.5 147q0 119 32.5 199.5t83.5 129.5
t107.5 71t105.5 22q102 0 174 -52t111 -144t39 -214q0 -128 -32.5 -210.5t-83.5 -128.5t-107.5 -63.5t-103.5 -17.5q-58 0 -93.5 12t-44.5 15q-1 1 -1.5 1h-2.5q-13 0 -26.5 -14.5t-13.5 -40.5q0 -37 48 -64t181 -51q153 -27 238 -94.5t85 -205.5q0 -83 -36.5 -139
t-93.5 -88.5t-120.5 -46t-117.5 -13.5zM411 -425q68 0 109.5 50t41.5 116q0 70 -20 108.5t-75 66.5q-20 11 -44.5 22.5t-46.5 20.5t-35 13q-20 -11 -41 -36.5t-35.5 -66t-14.5 -98.5t19 -102t55 -69t87 -25zM409 309q23 0 42.5 22.5t32 94.5t12.5 221q0 143 -12.5 214.5
t-32 96t-41.5 24.5t-42 -24.5t-32.5 -97.5t-12.5 -217q0 -148 13 -219t32.5 -93t40.5 -22zM528 983q11 72 67.5 113t119.5 41q53 0 75 -26t22 -65q0 -38 -21 -59t-53 -21t-45.5 14.5t-22.5 28.5t-32 14q-13 0 -23.5 -8t-10.5 -34zM410 1138q-36 0 -62.5 26.5t-26.5 60.5
q0 37 26.5 63.5t62.5 26.5q34 0 60.5 -26.5t26.5 -63.5q0 -34 -26.5 -60.5t-60.5 -26.5z" />
    <glyph glyph-name="uni0122" unicode="&#x122;" horiz-adv-x="831" 
d="M443 -20q-105 0 -191 76.5t-137.5 236t-51.5 405.5q0 231 58.5 392t150 245.5t187.5 84.5q75 0 131 -37.5t86.5 -99t30.5 -136.5q0 -61 -25.5 -97t-74.5 -36q-52 0 -75.5 35.5t-23.5 84.5q0 33 14 54.5t28 42t14 50.5q0 25 -23 47t-57 22q-50 0 -84 -61t-55 -159.5
t-30 -212.5t-9 -219q0 -160 11 -279.5t30.5 -200t45 -120.5t52.5 -40q18 0 28.5 6t16.5 14v480h-78v75h382v-75h-86v-558h-74q-1 3 -12.5 11t-29.5 8q-19 0 -36.5 -9.5t-43.5 -19.5t-69 -10zM434 -363l-42 48q10 4 32.5 19.5t28.5 30.5q-2 -1 -11 -1q-33 0 -56.5 23
t-23.5 57q0 35 23.5 57.5t57.5 22.5q37 0 63 -23t26 -70q0 -44 -17.5 -76.5t-40.5 -53.5t-40 -34z" />
    <glyph glyph-name="uni0123" unicode="&#x123;" horiz-adv-x="843" 
d="M411 -498q-91 0 -173.5 29.5t-134.5 88t-52 148.5q0 66 25 111t59.5 71t63 38.5t35.5 14.5q-7 2 -29 11t-48 28.5t-45 52.5t-19 82q0 36 13.5 62t33 42.5t39.5 22.5q4 2 11.5 4t10.5 1q-6 5 -24.5 25t-40.5 58.5t-37.5 99.5t-15.5 147q0 119 32.5 199.5t83.5 129.5
t107.5 71t105.5 22q102 0 174 -52t111 -144t39 -214q0 -128 -32.5 -210.5t-83.5 -128.5t-107.5 -63.5t-103.5 -17.5q-58 0 -93.5 12t-44.5 15q-1 1 -1.5 1h-2.5q-13 0 -26.5 -14.5t-13.5 -40.5q0 -37 48 -64t181 -51q153 -27 238 -94.5t85 -205.5q0 -83 -36.5 -139
t-93.5 -88.5t-120.5 -46t-117.5 -13.5zM411 -425q68 0 109.5 50t41.5 116q0 70 -20 108.5t-75 66.5q-20 11 -44.5 22.5t-46.5 20.5t-35 13q-20 -11 -41 -36.5t-35.5 -66t-14.5 -98.5t19 -102t55 -69t87 -25zM409 309q23 0 42.5 22.5t32 94.5t12.5 221q0 143 -12.5 214.5
t-32 96t-41.5 24.5t-42 -24.5t-32.5 -97.5t-12.5 -217q0 -148 13 -219t32.5 -93t40.5 -22zM528 983q11 72 67.5 113t119.5 41q53 0 75 -26t22 -65q0 -38 -21 -59t-53 -21t-45.5 14.5t-22.5 28.5t-32 14q-13 0 -23.5 -8t-10.5 -34zM423 1369l42 -41q-10 -4 -35 -24.5
t-31 -35.5q5 4 15 4q34 0 57 -23t23 -57t-23.5 -57t-56.5 -23q-37 0 -64 23t-27 70q0 45 17.5 77t41 53.5t41.5 33.5z" />
    <glyph glyph-name="hcircumflex" unicode="&#x125;" horiz-adv-x="910" 
d="M32 0v75h104v1350h-104v75h344v-544q1 7 22 33t62 49t100 23q63 0 114 -30.5t81.5 -104t30.5 -201.5v-650h103v-75h-413v75h70v638q0 116 -18 159t-53 43q-24 0 -46 -20.5t-36.5 -60.5t-16.5 -99v-660h74v-75h-418zM275 1581l148 203h70l146 -203h-89l-93 131l-94 -131
h-88z" />
    <glyph glyph-name="Hbar" unicode="&#x126;" horiz-adv-x="945" 
d="M87 1011v75h792v-75h-792zM47 0v75h94v1250h-94v75h397v-75h-65v-567h189v567h-64v75h392v-75h-96v-1250h96v-75h-392v75h64v608h-189v-608h65v-75h-397z" />
    <glyph glyph-name="hbar" unicode="&#x127;" horiz-adv-x="910" 
d="M30 1237v75h625v-75h-625zM32 0v75h104v1350h-104v75h344v-544q1 7 22 33t62 49t100 23q63 0 114 -30.5t81.5 -104t30.5 -201.5v-650h103v-75h-413v75h70v638q0 116 -18 159t-53 43q-24 0 -46 -20.5t-36.5 -60.5t-16.5 -99v-660h74v-75h-418z" />
    <glyph glyph-name="Itilde" unicode="&#x128;" horiz-adv-x="560" 
d="M64 0v75h97v1250h-97v75h434v-75h-99v-1250h99v-75h-434zM368 1489q-40 0 -66 14t-46 27.5t-43 13.5q-33 0 -50.5 -15t-22.5 -24l-75 30q5 18 23.5 42.5t46 43t61.5 18.5q44 0 69 -13.5t45.5 -27t50.5 -13.5q32 0 46.5 14t18.5 24l74 -33q-4 -13 -21.5 -37t-45 -44
t-65.5 -20z" />
    <glyph glyph-name="itilde" unicode="&#x129;" horiz-adv-x="500" 
d="M29 0v75h102v897h-102v75h342v-972h103v-75h-445zM337 1140q-40 0 -66 14t-46 27.5t-43 13.5q-33 0 -50.5 -15t-22.5 -24l-75 30q5 18 23.5 42.5t46 43t61.5 18.5q44 0 69 -13.5t45.5 -27t50.5 -13.5q32 0 46.5 14t18.5 24l74 -33q-4 -13 -21.5 -37t-45 -44t-65.5 -20z
" />
    <glyph glyph-name="Imacron" unicode="&#x12a;" horiz-adv-x="560" 
d="M64 0v75h97v1250h-97v75h434v-75h-99v-1250h99v-75h-434zM-19 1541v75h603v-75h-603z" />
    <glyph glyph-name="imacron" unicode="&#x12b;" horiz-adv-x="500" 
d="M29 0v75h102v897h-102v75h342v-972h103v-75h-445zM15 1138v75h474v-75h-474z" />
    <glyph glyph-name="ibreve" unicode="&#x12d;" horiz-adv-x="500" 
d="M29 0v75h102v897h-102v75h342v-972h103v-75h-445zM249 1103q-64 0 -103 29.5t-57 75t-18 93.5h74q5 -64 33 -93.5t71 -29.5q44 0 72 29.5t32 93.5h75q0 -48 -18 -93.5t-57.5 -75t-103.5 -29.5z" />
    <glyph glyph-name="Iogonek" unicode="&#x12e;" horiz-adv-x="560" 
d="M64 0v75h97v1250h-97v75h434v-75h-99v-1250h99v-75h-434zM493 -306q-44 0 -82 14.5t-61 46t-23 79.5q0 54 25 91.5t58 61.5t57 38l31 -25q-23 -26 -42.5 -58t-19.5 -80q0 -43 30 -56.5t56 -13.5q25 0 50 6.5t42 17.5l36 -69q-25 -23 -66.5 -38t-90.5 -15z" />
    <glyph glyph-name="iogonek" unicode="&#x12f;" horiz-adv-x="551" 
d="M257 1172q-64 0 -110 46.5t-46 108.5q0 63 46 110t110 47q59 0 105.5 -47t46.5 -110q0 -41 -21.5 -76.5t-56 -57t-74.5 -21.5zM29 0v75h102v897h-102v75h342v-972h103v-75h-445zM470 -306q-45 0 -83 14.5t-60.5 46t-22.5 79.5q0 54 24.5 91.5t57.5 61.5t57 38l31 -25
q-22 -26 -41.5 -58t-19.5 -80q0 -43 29.5 -56.5t55.5 -13.5q25 0 50 6.5t42 17.5l37 -69q-25 -23 -66.5 -38t-90.5 -15z" />
    <glyph glyph-name="Idotaccent" unicode="&#x130;" horiz-adv-x="560" 
d="M64 0v75h97v1250h-97v75h434v-75h-99v-1250h99v-75h-434zM282 1503q-36 0 -62.5 26.5t-26.5 60.5q0 37 26.5 63.5t62.5 26.5q34 0 60.5 -26.5t26.5 -63.5q0 -34 -26.5 -60.5t-60.5 -26.5z" />
    <glyph glyph-name="dotlessi" unicode="&#x131;" horiz-adv-x="500" 
d="M29 0v75h102v897h-102v75h342v-972h103v-75h-445z" />
    <glyph glyph-name="jcircumflex" unicode="&#x135;" horiz-adv-x="530" 
d="M114 -498q-63 0 -110 34.5t-73.5 93.5t-26.5 133q0 65 30 99t74 34q41 0 63 -28.5t22 -81.5q0 -35 -9 -57t-19 -41t-10 -43q0 -19 4.5 -34t15 -23.5t25.5 -8.5q48 0 64 52t16 156v1185h-116v75h356v-1098q0 -134 -28 -221t-73.5 -136.5t-99.5 -69.5t-105 -20zM108 1127
l148 203h70l146 -203h-89l-93 131l-94 -131h-88z" />
    <glyph glyph-name="uni0136" unicode="&#x136;" horiz-adv-x="882" 
d="M34 0v75h93v1250h-93v75h431v-75h-101v-553l292 553h-89v75h256v-75h-80l-235 -449l22 73l247 -874h73v-75h-395v75h65l-189 669l33 -16v-653h68v-75h-398zM429 -363l-42 48q10 4 32.5 19.5t28.5 30.5q-2 -1 -11 -1q-33 0 -56.5 23t-23.5 57q0 35 23.5 57.5t57.5 22.5
q37 0 63 -23t26 -70q0 -44 -17.5 -76.5t-40.5 -53.5t-40 -34z" />
    <glyph glyph-name="uni0137" unicode="&#x137;" horiz-adv-x="875" 
d="M28 0v75h104v1350h-104v75h344v-806l207 278h-100v75h304v-75h-111l-112 -165l237 -732h87v-75h-428v75h82l-164 514l-2 -18v-496h66v-75h-410zM430 -363l-42 48q10 4 32.5 19.5t28.5 30.5q-2 -1 -11 -1q-33 0 -56.5 23t-23.5 57q0 35 23.5 57.5t57.5 22.5q37 0 63 -23
t26 -70q0 -44 -17.5 -76.5t-40.5 -53.5t-40 -34z" />
    <glyph glyph-name="kgreenlandic" unicode="&#x138;" horiz-adv-x="882" 
d="M34 0v75h93v896h-93v75h431v-75h-101v-379l293 379h-90v75h256v-75h-80l-235 -316l22 54l247 -634h73v-75h-395v75h66l-190 481l33 -11v-470h68v-75h-398z" />
    <glyph glyph-name="Lacute" unicode="&#x139;" horiz-adv-x="697" 
d="M54 0v75h90v1250h-90v75h421v-75h-93v-1250h53q40 0 66.5 32.5t41 91.5t14.5 138h75v-337h-578zM158 1442l-54 57l187 141q15 11 29.5 18t27.5 7q18 0 31.5 -9t20.5 -22q7 -12 7 -26q0 -19 -14 -36t-41 -28z" />
    <glyph glyph-name="lacute" unicode="&#x13a;" horiz-adv-x="515" 
d="M33 0v75h105v1350h-105v75h345v-1425h106v-75h-451zM157 1539l-54 58l187 141q15 11 29.5 18t27.5 7q18 0 31.5 -9t20.5 -22q7 -12 7 -27q0 -19 -14 -35.5t-41 -27.5z" />
    <glyph glyph-name="uni013B" unicode="&#x13b;" horiz-adv-x="697" 
d="M54 0v75h90v1250h-90v75h421v-75h-93v-1250h53q40 0 66.5 32.5t41 91.5t14.5 138h75v-337h-578zM347 -363l-42 48q10 4 32.5 19.5t28.5 30.5q-2 -1 -11 -1q-33 0 -56.5 23t-23.5 57q0 35 23.5 57.5t57.5 22.5q37 0 63 -23t26 -70q0 -44 -17.5 -76.5t-40.5 -53.5t-40 -34z
" />
    <glyph glyph-name="uni013C" unicode="&#x13c;" horiz-adv-x="515" 
d="M33 0v75h105v1350h-105v75h345v-1425h106v-75h-451zM251 -363l-42 48q10 4 32.5 19.5t28.5 30.5q-2 -1 -11 -1q-33 0 -56.5 23t-23.5 57q0 35 23.5 57.5t57.5 22.5q37 0 63 -23t26 -70q0 -44 -17.5 -76.5t-40.5 -53.5t-40 -34z" />
    <glyph glyph-name="Lcaron" unicode="&#x13d;" horiz-adv-x="722" 
d="M542 1174q11 47 14.5 106.5t3.5 112.5q0 56 25 75.5t52 19.5q28 0 51 -17.5t23 -67.5q0 -71 -31.5 -141.5t-70.5 -115.5zM54 0v75h90v1250h-90v75h421v-75h-93v-1250h53q40 0 66.5 32.5t41 91.5t14.5 138h75v-337h-578z" />
    <glyph glyph-name="lcaron" unicode="&#x13e;" horiz-adv-x="622" 
d="M439 1174q12 47 15.5 106.5t3.5 112.5q0 56 25 75.5t52 19.5q28 0 51 -17.5t23 -67.5q0 -71 -32 -141.5t-70 -115.5zM33 0v75h105v1350h-105v75h345v-1425h106v-75h-451z" />
    <glyph glyph-name="ldot" unicode="&#x140;" horiz-adv-x="587" 
d="M33 0v75h105v1350h-105v75h345v-1425h106v-75h-451zM572 667q-55 0 -94 40.5t-39 94.5q0 56 39 96t94 40t94.5 -40t39.5 -96q0 -54 -39.5 -94.5t-94.5 -40.5z" />
    <glyph glyph-name="Lslash" unicode="&#x141;" horiz-adv-x="744" 
d="M47 425v85l490 361v-85zM54 0v75h90v1250h-90v75h421v-75h-93v-1250h53q40 0 66.5 32.5t41 91.5t14.5 138h75v-337h-578z" />
    <glyph glyph-name="lslash" unicode="&#x142;" horiz-adv-x="546" 
d="M32 421v90l434 353v-84zM33 0v75h105v1350h-105v75h345v-1425h106v-75h-451z" />
    <glyph glyph-name="Nacute" unicode="&#x143;" horiz-adv-x="838" 
d="M29 0v75h93v1250h-93v75h365l262 -856h-13v781h-88v75h254v-75h-89v-1325h-152l-385 1257h16v-1182h92v-75h-262zM322 1442l-54 57l187 141q15 11 29.5 18t27.5 7q18 0 31.5 -9t20.5 -22q7 -12 7 -26q0 -19 -14 -36t-41 -28z" />
    <glyph glyph-name="nacute" unicode="&#x144;" horiz-adv-x="903" 
d="M32 0v75h107v897h-107v75h340v-100q3 13 24.5 40.5t61.5 50.5t96 23q62 0 112.5 -27t80.5 -98.5t30 -205.5v-655h105v-75h-417v75h72v651q0 105 -15.5 153.5t-51.5 48.5q-20 0 -36 -13.5t-28 -38.5t-19 -59t-8 -75v-667h69v-75h-416zM359 1086l-54 58l187 141
q15 11 29.5 18t27.5 7q18 0 31.5 -9t20.5 -22q7 -12 7 -27q0 -19 -14 -35.5t-41 -27.5z" />
    <glyph glyph-name="uni0145" unicode="&#x145;" horiz-adv-x="838" 
d="M29 0v75h93v1250h-93v75h365l262 -856h-13v781h-88v75h254v-75h-89v-1325h-152l-385 1257h16v-1182h92v-75h-262zM416 -363l-42 48q10 4 32.5 19.5t28.5 30.5q-2 -1 -11 -1q-33 0 -56.5 23t-23.5 57q0 35 23.5 57.5t57.5 22.5q37 0 63 -23t26 -70q0 -44 -17.5 -76.5
t-40.5 -53.5t-40 -34z" />
    <glyph glyph-name="uni0146" unicode="&#x146;" horiz-adv-x="903" 
d="M32 0v75h107v897h-107v75h340v-100q3 13 24.5 40.5t61.5 50.5t96 23q62 0 112.5 -27t80.5 -98.5t30 -205.5v-655h105v-75h-417v75h72v651q0 105 -15.5 153.5t-51.5 48.5q-20 0 -36 -13.5t-28 -38.5t-19 -59t-8 -75v-667h69v-75h-416zM453 -363l-42 48q10 4 32.5 19.5
t28.5 30.5q-2 -1 -11 -1q-33 0 -56.5 23t-23.5 57q0 35 23.5 57.5t57.5 22.5q37 0 63 -23t26 -70q0 -44 -17.5 -76.5t-40.5 -53.5t-40 -34z" />
    <glyph glyph-name="Ncaron" unicode="&#x147;" horiz-adv-x="838" 
d="M29 0v75h93v1250h-93v75h365l262 -856h-13v781h-88v75h254v-75h-89v-1325h-152l-385 1257h16v-1182h92v-75h-262zM390 1472l-169 224h96l107 -152l107 152h99l-170 -224h-70z" />
    <glyph glyph-name="ncaron" unicode="&#x148;" horiz-adv-x="903" 
d="M32 0v75h107v897h-107v75h340v-100q3 13 24.5 40.5t61.5 50.5t96 23q62 0 112.5 -27t80.5 -98.5t30 -205.5v-655h105v-75h-417v75h72v651q0 105 -15.5 153.5t-51.5 48.5q-20 0 -36 -13.5t-28 -38.5t-19 -59t-8 -75v-667h69v-75h-416zM427 1109l-169 224h96l107 -152
l107 152h99l-170 -224h-70z" />
    <glyph glyph-name="Eng" unicode="&#x14a;" horiz-adv-x="838" 
d="M545 -394q-52 0 -92 23.5t-62 70t-22 116.5q0 54 27 81t63 27q28 0 52.5 -18.5t24.5 -65.5q0 -37 -14 -54.5t-14 -47.5q0 -25 12 -41t33 -16q31 0 50.5 25t29.5 68.5t10 96.5v164h77v-169q0 -63 -13 -111.5t-37 -81.5t-55.5 -50t-69.5 -17zM29 0v75h93v1250h-93v75h365
l262 -856h-13v781h-88v75h254v-75h-89v-1325h-152l-385 1257h16v-1182h92v-75h-262z" />
    <glyph glyph-name="eng" unicode="&#x14b;" horiz-adv-x="880" 
d="M465 -429q-77 0 -123 64t-46 162q0 56 22.5 87.5t60.5 31.5q36 0 56 -30.5t20 -75.5q0 -29 -11 -47.5t-22 -32.5t-11 -31q0 -18 7 -30t19.5 -18t30.5 -6q25 0 40 24t23 64t10.5 89.5t2.5 99.5v774q0 112 -16 164t-58 52q-22 0 -37 -16t-24 -42.5t-13 -57t-4 -59.5v-662
h79v-75h-419v75h100v897h-100v75h333v-94q7 13 29 37t57.5 43.5t80.5 19.5q77 0 128.5 -31.5t77.5 -104.5t26 -198v-791q0 -130 -45 -208.5t-118 -113.5t-156 -35z" />
    <glyph glyph-name="Omacron" unicode="&#x14c;" horiz-adv-x="845" 
d="M425 -22q-106 0 -187 85.5t-126.5 246.5t-45.5 388q0 229 45.5 390.5t126.5 247.5t187 86q107 0 189.5 -86t129 -247.5t46.5 -390.5q0 -227 -46.5 -388t-129 -246.5t-189.5 -85.5zM425 53q30 0 50.5 42.5t34 125t19.5 202.5t6 275t-6 275.5t-19.5 204t-34 126.5t-50.5 43
q-29 0 -49 -43t-32 -126.5t-17.5 -204t-5.5 -275.5t5.5 -275t17.5 -202.5t32 -125t49 -42.5zM125 1541v75h603v-75h-603z" />
    <glyph glyph-name="omacron" unicode="&#x14d;" horiz-adv-x="785" 
d="M390 -22q-60 0 -119.5 34t-108.5 102.5t-78 171.5t-29 241q0 150 30.5 253t80 164.5t108.5 89t116 27.5t116.5 -27.5t109.5 -89t81 -164.5t31 -253q0 -138 -29.5 -241t-78.5 -171.5t-109 -102.5t-121 -34zM390 64q45 0 70 109t25 354t-25 347t-70 102q-42 0 -67.5 -102
t-25.5 -347t25.5 -354t67.5 -109zM154 1138v75h474v-75h-474z" />
    <glyph glyph-name="obreve" unicode="&#x14f;" horiz-adv-x="785" 
d="M390 -22q-60 0 -119.5 34t-108.5 102.5t-78 171.5t-29 241q0 150 30.5 253t80 164.5t108.5 89t116 27.5t116.5 -27.5t109.5 -89t81 -164.5t31 -253q0 -138 -29.5 -241t-78.5 -171.5t-109 -102.5t-121 -34zM390 64q45 0 70 109t25 354t-25 347t-70 102q-42 0 -67.5 -102
t-25.5 -347t25.5 -354t67.5 -109zM389 1103q-64 0 -103 29.5t-57 75t-18 93.5h74q5 -64 33 -93.5t71 -29.5q44 0 72 29.5t32 93.5h75q0 -48 -18 -93.5t-57.5 -75t-103.5 -29.5z" />
    <glyph glyph-name="Ohungarumlaut" unicode="&#x150;" horiz-adv-x="845" 
d="M425 -22q-106 0 -187 85.5t-126.5 246.5t-45.5 388q0 229 45.5 390.5t126.5 247.5t187 86q107 0 189.5 -86t129 -247.5t46.5 -390.5q0 -227 -46.5 -388t-129 -246.5t-189.5 -85.5zM425 53q30 0 50.5 42.5t34 125t19.5 202.5t6 275t-6 275.5t-19.5 204t-34 126.5t-50.5 43
q-29 0 -49 -43t-32 -126.5t-17.5 -204t-5.5 -275.5t5.5 -275t17.5 -202.5t32 -125t49 -42.5zM328 1482l-53 54l126 146q14 17 26.5 25.5t24.5 8.5q19 0 33 -14t14 -34q0 -28 -32 -51zM477 1482l-52 54l123 146q14 17 27 25.5t26 8.5q19 0 33 -14.5t14 -33.5q0 -29 -31 -51z
" />
    <glyph glyph-name="ohungarumlaut" unicode="&#x151;" horiz-adv-x="785" 
d="M390 -22q-60 0 -119.5 34t-108.5 102.5t-78 171.5t-29 241q0 150 30.5 253t80 164.5t108.5 89t116 27.5t116.5 -27.5t109.5 -89t81 -164.5t31 -253q0 -138 -29.5 -241t-78.5 -171.5t-109 -102.5t-121 -34zM390 64q45 0 70 109t25 354t-25 347t-70 102q-42 0 -67.5 -102
t-25.5 -347t25.5 -354t67.5 -109zM246 1118l-53 54l126 146q14 17 26.5 25.5t24.5 8.5q19 0 33 -14t14 -34q0 -28 -32 -51zM395 1118l-52 54l123 146q14 17 27 25.5t26 8.5q19 0 33 -14.5t14 -33.5q0 -29 -31 -51z" />
    <glyph glyph-name="OE" unicode="&#x152;" horiz-adv-x="1138" 
d="M423 -22q-107 0 -187.5 95t-125 257.5t-44.5 367.5q0 206 45 369.5t125.5 259t186.5 95.5q55 0 104.5 -24t82.5 -73l-54 -65q-14 48 -45 67.5t-51 19.5q-46 0 -76 -50.5t-47 -139.5t-24 -207t-7 -252t7.5 -251.5t25.5 -206t47.5 -138t72.5 -49.5q24 0 46 17t37.5 41.5
t18.5 44.5l59 -62q-35 -58 -85.5 -87t-111.5 -29zM523 0v1400h537v-334h-75q0 81 -6 139.5t-35.5 89t-98.5 30.5h-84v-567h214v93h75v-258h-75v90h-214v-608h81q71 0 100.5 32t36 90.5t6.5 139.5h75v-337h-537z" />
    <glyph glyph-name="oe" unicode="&#x153;" horiz-adv-x="1210" 
d="M390 -22q-60 0 -119.5 34t-108.5 102.5t-78 171.5t-29 241q0 150 30.5 253t80 164.5t108.5 89t116 27.5t116.5 -27.5t109.5 -89t81 -164.5t31 -253q0 -138 -29.5 -241t-78.5 -171.5t-109 -102.5t-121 -34zM390 64q45 0 70 109t25 354t-25 347t-70 102q-42 0 -67.5 -102
t-25.5 -347t25.5 -354t67.5 -109zM845 -20q-78 0 -142 35.5t-110 105t-71 171.5t-25 235q0 142 31.5 243.5t83 165.5t111.5 94.5t117 30.5q69 0 126 -34.5t99 -96t65 -146t23 -185.5q0 -21 -0.5 -41t-2.5 -41h-426v75h200q0 148 -9 233.5t-27.5 122t-47.5 36.5
q-28 0 -51 -37.5t-37 -130.5t-14 -260q0 -125 7 -217.5t23.5 -153.5t42.5 -90.5t64 -29.5q71 0 113 36.5t60 73.5l63 -45q-23 -55 -96 -102.5t-170 -47.5z" />
    <glyph glyph-name="Racute" unicode="&#x154;" horiz-adv-x="930" 
d="M759 -17q-92 0 -134 42t-54 116t-12 169q0 53 1.5 101t1.5 80q0 79 -10.5 120t-38 56.5t-76.5 15.5h-43v-608h102v-75h-446v75h107v1250h-107v75h449q88 0 158.5 -33.5t112.5 -105t42 -186.5q0 -86 -25.5 -150t-67 -106.5t-90 -66t-94.5 -30.5q107 -4 165 -37.5
t80.5 -102t22.5 -180.5q0 -53 -3 -105.5t-3 -98.5q0 -27 2 -56.5t9 -50t20 -20.5t18.5 10t6.5 23h69q-5 -42 -25.5 -69t-55 -39.5t-82.5 -12.5zM394 758h52q42 0 69.5 42t41 113.5t13.5 157.5q0 82 -13 138.5t-40 86t-68 29.5h-55v-567zM365 1442l-54 57l187 141
q15 11 29.5 18t27.5 7q18 0 31.5 -9t20.5 -22q7 -12 7 -26q0 -19 -14 -36t-41 -28z" />
    <glyph glyph-name="racute" unicode="&#x155;" horiz-adv-x="715" 
d="M26 0v75h107v897h-107v75h323l15 -89q5 15 25 39.5t52.5 44t73.5 19.5q59 0 96.5 -37.5t55.5 -100.5t18 -139q0 -66 -25.5 -101t-69.5 -35q-41 0 -66.5 29.5t-25.5 81.5q0 34 14 54.5t27.5 40t13.5 50.5q0 37 -13.5 54t-42.5 17t-58 -29t-47.5 -85.5t-18.5 -138.5v-647
h105v-75h-452zM331 1086l-54 58l187 141q15 11 29.5 18t27.5 7q18 0 31.5 -9t20.5 -22q7 -12 7 -27q0 -19 -14 -35.5t-41 -27.5z" />
    <glyph glyph-name="uni0156" unicode="&#x156;" horiz-adv-x="930" 
d="M759 -17q-92 0 -134 42t-54 116t-12 169q0 53 1.5 101t1.5 80q0 79 -10.5 120t-38 56.5t-76.5 15.5h-43v-608h102v-75h-446v75h107v1250h-107v75h449q88 0 158.5 -33.5t112.5 -105t42 -186.5q0 -86 -25.5 -150t-67 -106.5t-90 -66t-94.5 -30.5q107 -4 165 -37.5
t80.5 -102t22.5 -180.5q0 -53 -3 -105.5t-3 -98.5q0 -27 2 -56.5t9 -50t20 -20.5t18.5 10t6.5 23h69q-5 -42 -25.5 -69t-55 -39.5t-82.5 -12.5zM394 758h52q42 0 69.5 42t41 113.5t13.5 157.5q0 82 -13 138.5t-40 86t-68 29.5h-55v-567zM459 -363l-42 48q10 4 32.5 19.5
t28.5 30.5q-2 -1 -11 -1q-33 0 -56.5 23t-23.5 57q0 35 23.5 57.5t57.5 22.5q37 0 63 -23t26 -70q0 -44 -17.5 -76.5t-40.5 -53.5t-40 -34z" />
    <glyph glyph-name="uni0157" unicode="&#x157;" horiz-adv-x="715" 
d="M26 0v75h107v897h-107v75h323l15 -89q5 15 25 39.5t52.5 44t73.5 19.5q59 0 96.5 -37.5t55.5 -100.5t18 -139q0 -66 -25.5 -101t-69.5 -35q-41 0 -66.5 29.5t-25.5 81.5q0 34 14 54.5t27.5 40t13.5 50.5q0 37 -13.5 54t-42.5 17t-58 -29t-47.5 -85.5t-18.5 -138.5v-647
h105v-75h-452zM284 -363l-42 48q10 4 32.5 19.5t28.5 30.5q-2 -1 -11 -1q-33 0 -56.5 23t-23.5 57q0 35 23.5 57.5t57.5 22.5q37 0 63 -23t26 -70q0 -44 -17.5 -76.5t-40.5 -53.5t-40 -34z" />
    <glyph glyph-name="Rcaron" unicode="&#x158;" horiz-adv-x="930" 
d="M759 -17q-92 0 -134 42t-54 116t-12 169q0 53 1.5 101t1.5 80q0 79 -10.5 120t-38 56.5t-76.5 15.5h-43v-608h102v-75h-446v75h107v1250h-107v75h449q88 0 158.5 -33.5t112.5 -105t42 -186.5q0 -86 -25.5 -150t-67 -106.5t-90 -66t-94.5 -30.5q107 -4 165 -37.5
t80.5 -102t22.5 -180.5q0 -53 -3 -105.5t-3 -98.5q0 -27 2 -56.5t9 -50t20 -20.5t18.5 10t6.5 23h69q-5 -42 -25.5 -69t-55 -39.5t-82.5 -12.5zM394 758h52q42 0 69.5 42t41 113.5t13.5 157.5q0 82 -13 138.5t-40 86t-68 29.5h-55v-567zM433 1472l-169 224h96l107 -152
l107 152h99l-170 -224h-70z" />
    <glyph glyph-name="rcaron" unicode="&#x159;" horiz-adv-x="715" 
d="M26 0v75h107v897h-107v75h323l15 -89q5 15 25 39.5t52.5 44t73.5 19.5q59 0 96.5 -37.5t55.5 -100.5t18 -139q0 -66 -25.5 -101t-69.5 -35q-41 0 -66.5 29.5t-25.5 81.5q0 34 14 54.5t27.5 40t13.5 50.5q0 37 -13.5 54t-42.5 17t-58 -29t-47.5 -85.5t-18.5 -138.5v-647
h105v-75h-452zM399 1109l-169 224h96l107 -152l107 152h99l-170 -224h-70z" />
    <glyph glyph-name="Sacute" unicode="&#x15a;" horiz-adv-x="685" 
d="M358 -27q-55 0 -88 13t-52 30t-31.5 29.5t-27.5 12.5q-28 0 -28 -58h-70v342h75q1 -21 10.5 -57t27 -76t43.5 -76t60.5 -59t79.5 -23q40 0 63.5 17t34 50.5t10.5 82.5q0 61 -26.5 122t-73.5 129t-108 145q-79 101 -121 184.5t-58 158.5t-16 148q0 110 37 184t96.5 112
t127.5 38q61 0 92 -19t48 -38t34 -19q13 0 19.5 11.5t7.5 42.5h71v-340h-75q-2 32 -14.5 79.5t-35.5 94.5t-58.5 79t-84.5 32q-52 0 -80.5 -38.5t-28.5 -106.5q0 -51 24 -109.5t70.5 -126t113.5 -146.5q69 -80 114 -157t67.5 -157.5t22.5 -170.5q0 -105 -23.5 -174.5
t-63 -110t-88 -58t-97.5 -17.5zM247 1442l-54 57l187 141q15 11 29.5 18t27.5 7q18 0 31.5 -9t20.5 -22q7 -12 7 -26q0 -19 -14 -36t-41 -28z" />
    <glyph glyph-name="sacute" unicode="&#x15b;" horiz-adv-x="610" 
d="M313 -22q-59 0 -89.5 14.5t-46.5 29t-32 14.5q-14 0 -19 -9t-5 -27h-69v327h81q6 -54 20.5 -103t36.5 -87.5t52.5 -61t66.5 -22.5q33 0 53 13t29 36t9 52q0 43 -18 84.5t-52 85.5t-83 94q-80 82 -136 168t-56 212q0 93 35.5 150.5t92 85t119.5 27.5q44 0 70.5 -12
t43 -24.5t27.5 -12.5q9 0 14.5 8t5.5 27h71v-318h-81q-3 46 -14 91t-29.5 82t-44 59.5t-59.5 22.5q-48 0 -71 -36t-23 -83q0 -57 39.5 -108.5t111.5 -120.5q52 -51 97 -107.5t72 -124.5t27 -154q0 -96 -31 -156t-86.5 -88t-128.5 -28zM216 1086l-54 58l187 141
q15 11 29.5 18t27.5 7q18 0 31.5 -9t20.5 -22q7 -12 7 -27q0 -19 -14 -35.5t-41 -27.5z" />
    <glyph glyph-name="scircumflex" unicode="&#x15d;" horiz-adv-x="610" 
d="M313 -22q-59 0 -89.5 14.5t-46.5 29t-32 14.5q-14 0 -19 -9t-5 -27h-69v327h81q6 -54 20.5 -103t36.5 -87.5t52.5 -61t66.5 -22.5q33 0 53 13t29 36t9 52q0 43 -18 84.5t-52 85.5t-83 94q-80 82 -136 168t-56 212q0 93 35.5 150.5t92 85t119.5 27.5q44 0 70.5 -12
t43 -24.5t27.5 -12.5q9 0 14.5 8t5.5 27h71v-318h-81q-3 46 -14 91t-29.5 82t-44 59.5t-59.5 22.5q-48 0 -71 -36t-23 -83q0 -57 39.5 -108.5t111.5 -120.5q52 -51 97 -107.5t72 -124.5t27 -154q0 -96 -31 -156t-86.5 -88t-128.5 -28zM137 1128l148 203h70l146 -203h-89
l-93 131l-94 -131h-88z" />
    <glyph glyph-name="Scedilla" unicode="&#x15e;" horiz-adv-x="685" 
d="M358 -27q-55 0 -88 13t-52 30t-31.5 29.5t-27.5 12.5q-28 0 -28 -58h-70v342h75q1 -21 10.5 -57t27 -76t43.5 -76t60.5 -59t79.5 -23q40 0 63.5 17t34 50.5t10.5 82.5q0 61 -26.5 122t-73.5 129t-108 145q-79 101 -121 184.5t-58 158.5t-16 148q0 110 37 184t96.5 112
t127.5 38q61 0 92 -19t48 -38t34 -19q13 0 19.5 11.5t7.5 42.5h71v-340h-75q-2 32 -14.5 79.5t-35.5 94.5t-58.5 79t-84.5 32q-52 0 -80.5 -38.5t-28.5 -106.5q0 -51 24 -109.5t70.5 -126t113.5 -146.5q69 -80 114 -157t67.5 -157.5t22.5 -170.5q0 -105 -23.5 -174.5
t-63 -110t-88 -58t-97.5 -17.5zM366 -323q-49 0 -92.5 11t-58.5 19l28 71q11 -7 45.5 -18t70.5 -11q31 0 53 16t22 44q0 31 -14 41t-34 10q-16 0 -31 -6t-26 -20l-71 4l60 162h75l-42 -106q4 6 28.5 15.5t59.5 9.5q39 0 73.5 -24.5t34.5 -86.5q0 -43 -23.5 -72t-64.5 -44
t-93 -15z" />
    <glyph glyph-name="scedilla" unicode="&#x15f;" horiz-adv-x="610" 
d="M313 -22q-59 0 -89.5 14.5t-46.5 29t-32 14.5q-14 0 -19 -9t-5 -27h-69v327h74q5 -54 18.5 -103t36 -87.5t54.5 -61t74 -22.5q33 0 53 13t29 36t9 52q0 43 -18 84.5t-52 85.5t-83 94q-80 82 -136 168t-56 212q0 82 35.5 140.5t92 90.5t119.5 32q44 0 70.5 -12t43 -24.5
t27.5 -12.5q9 0 14.5 8t5.5 27h71v-318h-74q-3 46 -13 91t-28.5 82t-46 59.5t-66.5 22.5q-48 0 -71 -36t-23 -83q0 -57 39.5 -108.5t111.5 -120.5q52 -51 97 -107.5t72 -124.5t27 -154q0 -127 -68.5 -199.5t-177.5 -72.5zM329 -323q-49 0 -92.5 11t-58.5 19l28 71
q11 -7 45.5 -18t70.5 -11q31 0 53 16t22 44q0 31 -14 41t-34 10q-16 0 -31 -6t-26 -20l-71 4l60 162h75l-42 -106q4 6 28.5 15.5t59.5 9.5q39 0 73.5 -24.5t34.5 -86.5q0 -43 -23.5 -72t-64.5 -44t-93 -15z" />
    <glyph glyph-name="Scaron" unicode="&#x160;" horiz-adv-x="685" 
d="M358 -27q-55 0 -88 13t-52 30t-31.5 29.5t-27.5 12.5q-28 0 -28 -58h-70v342h75q1 -21 10.5 -57t27 -76t43.5 -76t60.5 -59t79.5 -23q40 0 63.5 17t34 50.5t10.5 82.5q0 61 -26.5 122t-73.5 129t-108 145q-79 101 -121 184.5t-58 158.5t-16 148q0 110 37 184t96.5 112
t127.5 38q61 0 92 -19t48 -38t34 -19q13 0 19.5 11.5t7.5 42.5h71v-340h-75q-2 32 -14.5 79.5t-35.5 94.5t-58.5 79t-84.5 32q-52 0 -80.5 -38.5t-28.5 -106.5q0 -51 24 -109.5t70.5 -126t113.5 -146.5q69 -80 114 -157t67.5 -157.5t22.5 -170.5q0 -105 -23.5 -174.5
t-63 -110t-88 -58t-97.5 -17.5zM315 1472l-169 224h96l107 -152l107 152h99l-170 -224h-70z" />
    <glyph glyph-name="scaron" unicode="&#x161;" horiz-adv-x="610" 
d="M313 -22q-59 0 -89.5 14.5t-46.5 29t-32 14.5q-14 0 -19 -9t-5 -27h-69v327h81q6 -54 20.5 -103t36.5 -87.5t52.5 -61t66.5 -22.5q33 0 53 13t29 36t9 52q0 43 -18 84.5t-52 85.5t-83 94q-80 82 -136 168t-56 212q0 93 35.5 150.5t92 85t119.5 27.5q44 0 70.5 -12
t43 -24.5t27.5 -12.5q9 0 14.5 8t5.5 27h71v-318h-81q-3 46 -14 91t-29.5 82t-44 59.5t-59.5 22.5q-48 0 -71 -36t-23 -83q0 -57 39.5 -108.5t111.5 -120.5q52 -51 97 -107.5t72 -124.5t27 -154q0 -96 -31 -156t-86.5 -88t-128.5 -28zM285 1109l-169 224h96l107 -152
l107 152h99l-170 -224h-70z" />
    <glyph glyph-name="uni0162" unicode="&#x162;" horiz-adv-x="811" 
d="M169 0v75h118v1250h-30q-62 0 -92.5 -26t-41 -83t-10.5 -150h-75v334h735v-334h-75q0 93 -10 150t-40.5 83t-92.5 26h-30v-1250h121v-75h-477zM417 -323q-50 0 -93.5 11t-58.5 19l29 71q10 -7 44.5 -18t70.5 -11q31 0 53 16t22 44q0 31 -14 41t-34 10q-16 0 -31 -6
t-26 -20l-70 4l60 162h75l-43 -106q5 6 29 15.5t59 9.5q39 0 73.5 -24.5t34.5 -86.5q0 -43 -23.5 -72t-64.5 -44t-92 -15z" />
    <glyph glyph-name="uni0163" unicode="&#x163;" horiz-adv-x="564" 
d="M383 -18q-62 0 -117.5 20t-90.5 74t-35 156v740h-141v75h141q45 10 78.5 55t55 109.5t28.5 134.5h78v-299h164v-75h-164v-837q0 -41 19.5 -55.5t37.5 -14.5q19 0 34 7t23 15l42 -60q-26 -20 -63.5 -32.5t-89.5 -12.5zM366 -307q-49 0 -93 11t-59 19l29 71q11 -7 45 -18
t70 -11q31 0 53 16t22 44q0 31 -13.5 41t-34.5 10q-16 0 -31 -6t-26 -20l-70 4l60 162h75l-42 -106q4 6 28.5 15.5t58.5 9.5q39 0 73.5 -24.5t34.5 -86.5q0 -43 -23.5 -72t-64 -44t-92.5 -15z" />
    <glyph glyph-name="Tcaron" unicode="&#x164;" horiz-adv-x="811" 
d="M169 0v75h118v1250h-30q-62 0 -92.5 -26t-41 -83t-10.5 -150h-75v334h735v-334h-75q0 93 -10 150t-40.5 83t-92.5 26h-30v-1250h121v-75h-477zM372 1477l-169 224h96l107 -152l107 152h99l-170 -224h-70z" />
    <glyph glyph-name="tcaron" unicode="&#x165;" horiz-adv-x="655" 
d="M487 1174q12 47 15 106.5t3 112.5q0 56 25 75.5t53 19.5q27 0 50 -17.5t23 -67.5q0 -71 -31.5 -141.5t-70.5 -115.5zM383 -18q-62 0 -117.5 20t-90.5 74t-35 156v740h-141v75h141q45 10 78.5 55t55 109.5t28.5 134.5h78v-299h164v-75h-164v-837q0 -41 19.5 -55.5
t37.5 -14.5q19 0 34 7t23 15l42 -60q-26 -20 -63.5 -32.5t-89.5 -12.5z" />
    <glyph glyph-name="Tbar" unicode="&#x166;" horiz-adv-x="811" 
d="M115 665v75h576v-75h-576zM169 0v75h118v1250h-30q-62 0 -92.5 -26t-41 -83t-10.5 -150h-75v334h735v-334h-75q0 93 -10 150t-40.5 83t-92.5 26h-30v-1250h121v-75h-477z" />
    <glyph glyph-name="tbar" unicode="&#x167;" horiz-adv-x="564" 
d="M26 617v60h496v-60h-496zM383 -18q-62 0 -117.5 20t-90.5 74t-35 156v740h-141v75h141q45 10 78.5 55t55 109.5t28.5 134.5h78v-299h164v-75h-164v-837q0 -41 19.5 -55.5t37.5 -14.5q19 0 34 7t23 15l42 -60q-26 -20 -63.5 -32.5t-89.5 -12.5z" />
    <glyph glyph-name="Utilde" unicode="&#x168;" horiz-adv-x="822" 
d="M437 -24q-49 0 -102.5 14.5t-98.5 53t-73 109.5t-28 184v988h-99v75h450v-75h-108v-996q0 -139 30 -200t91 -61q24 0 45 10.5t37.5 36.5t26 71.5t9.5 115.5v1023h-87v75h258v-75h-95v-1031q0 -121 -31 -190.5t-88.5 -98.5t-136.5 -29zM513 1489q-40 0 -66 14t-46 27.5
t-43 13.5q-33 0 -50.5 -15t-22.5 -24l-75 30q5 18 23.5 42.5t46 43t61.5 18.5q44 0 69 -13.5t45.5 -27t50.5 -13.5q32 0 46.5 14t18.5 24l74 -33q-4 -13 -21.5 -37t-45 -44t-65.5 -20z" />
    <glyph glyph-name="utilde" unicode="&#x169;" horiz-adv-x="875" 
d="M358 -22q-65 0 -119 25.5t-86 95t-32 203.5v670h-103v74h343v-717q0 -96 7 -146.5t23 -69t41 -18.5q28 0 50 29t34 84t12 134v630h-91v74h331v-971h88v-75h-298l-15 102q-5 -23 -28.5 -52t-63 -50.5t-93.5 -21.5zM535 1140q-40 0 -66 14t-46 27.5t-43 13.5
q-33 0 -50.5 -15t-22.5 -24l-75 30q5 18 23.5 42.5t46 43t61.5 18.5q44 0 69 -13.5t45.5 -27t50.5 -13.5q32 0 46.5 14t18.5 24l74 -33q-4 -13 -21.5 -37t-45 -44t-65.5 -20z" />
    <glyph glyph-name="Umacron" unicode="&#x16a;" horiz-adv-x="822" 
d="M437 -24q-49 0 -102.5 14.5t-98.5 53t-73 109.5t-28 184v988h-99v75h450v-75h-108v-996q0 -139 30 -200t91 -61q24 0 45 10.5t37.5 36.5t26 71.5t9.5 115.5v1023h-87v75h258v-75h-95v-1031q0 -121 -31 -190.5t-88.5 -98.5t-136.5 -29zM126 1541v75h603v-75h-603z" />
    <glyph glyph-name="umacron" unicode="&#x16b;" horiz-adv-x="875" 
d="M358 -22q-65 0 -119 25.5t-86 95t-32 203.5v670h-103v74h343v-717q0 -96 7 -146.5t23 -69t41 -18.5q28 0 50 29t34 84t12 134v630h-91v74h331v-971h88v-75h-298l-15 102q-5 -23 -28.5 -52t-63 -50.5t-93.5 -21.5zM213 1138v75h474v-75h-474z" />
    <glyph glyph-name="ubreve" unicode="&#x16d;" horiz-adv-x="875" 
d="M358 -22q-65 0 -119 25.5t-86 95t-32 203.5v670h-103v74h343v-717q0 -96 7 -146.5t23 -69t41 -18.5q28 0 50 29t34 84t12 134v630h-91v74h331v-971h88v-75h-298l-15 102q-5 -23 -28.5 -52t-63 -50.5t-93.5 -21.5zM447 1103q-64 0 -103 29.5t-57 75t-18 93.5h74
q5 -64 33 -93.5t71 -29.5q44 0 72 29.5t32 93.5h75q0 -48 -18 -93.5t-57.5 -75t-103.5 -29.5z" />
    <glyph glyph-name="Uring" unicode="&#x16e;" horiz-adv-x="822" 
d="M437 -24q-49 0 -102.5 14.5t-98.5 53t-73 109.5t-28 184v988h-99v75h450v-75h-108v-996q0 -139 30 -200t91 -61q24 0 45 10.5t37.5 36.5t26 71.5t9.5 115.5v1023h-87v75h258v-75h-95v-1031q0 -121 -31 -190.5t-88.5 -98.5t-136.5 -29zM428 1467q-44 0 -77.5 32.5
t-33.5 85.5q0 55 33.5 86.5t77.5 31.5q43 0 75.5 -31.5t32.5 -86.5q0 -53 -32.5 -85.5t-75.5 -32.5zM428 1527q24 0 35 18.5t11 41.5q0 19 -11 37.5t-35 18.5q-25 0 -36.5 -18.5t-11.5 -37.5q0 -23 11.5 -41.5t36.5 -18.5z" />
    <glyph glyph-name="uring" unicode="&#x16f;" horiz-adv-x="875" 
d="M358 -22q-65 0 -119 25.5t-86 95t-32 203.5v670h-103v74h343v-717q0 -96 7 -146.5t23 -69t41 -18.5q28 0 50 29t34 84t12 134v630h-91v74h331v-971h88v-75h-298l-15 102q-5 -23 -28.5 -52t-63 -50.5t-93.5 -21.5zM450 1098q-44 0 -77.5 32.5t-33.5 85.5q0 55 33.5 86.5
t77.5 31.5q43 0 75.5 -31.5t32.5 -86.5q0 -53 -32.5 -85.5t-75.5 -32.5zM450 1158q24 0 35 18.5t11 41.5q0 19 -11 37.5t-35 18.5q-25 0 -36.5 -18.5t-11.5 -37.5q0 -23 11.5 -41.5t36.5 -18.5z" />
    <glyph glyph-name="Uhungarumlaut" unicode="&#x170;" horiz-adv-x="822" 
d="M437 -24q-49 0 -102.5 14.5t-98.5 53t-73 109.5t-28 184v988h-99v75h450v-75h-108v-996q0 -139 30 -200t91 -61q24 0 45 10.5t37.5 36.5t26 71.5t9.5 115.5v1023h-87v75h258v-75h-95v-1031q0 -121 -31 -190.5t-88.5 -98.5t-136.5 -29zM329 1482l-53 54l126 146
q14 17 26.5 25.5t24.5 8.5q19 0 33 -14t14 -34q0 -28 -32 -51zM478 1482l-52 54l123 146q14 17 27 25.5t26 8.5q19 0 33 -14.5t14 -33.5q0 -29 -31 -51z" />
    <glyph glyph-name="uhungarumlaut" unicode="&#x171;" horiz-adv-x="875" 
d="M358 -22q-65 0 -119 25.5t-86 95t-32 203.5v670h-103v74h343v-717q0 -96 7 -146.5t23 -69t41 -18.5q28 0 50 29t34 84t12 134v630h-91v74h331v-971h88v-75h-298l-15 102q-5 -23 -28.5 -52t-63 -50.5t-93.5 -21.5zM304 1118l-53 54l126 146q14 17 26.5 25.5t24.5 8.5
q19 0 33 -14t14 -34q0 -28 -32 -51zM453 1118l-52 54l123 146q14 17 27 25.5t26 8.5q19 0 33 -14.5t14 -33.5q0 -29 -31 -51z" />
    <glyph glyph-name="Uogonek" unicode="&#x172;" horiz-adv-x="822" 
d="M437 -24q-49 0 -102.5 14.5t-98.5 53t-73 109.5t-28 184v988h-99v75h450v-75h-108v-996q0 -139 30 -200t91 -61q24 0 45 10.5t37.5 36.5t26 71.5t9.5 115.5v1023h-87v75h258v-75h-95v-1031q0 -121 -31 -190.5t-88.5 -98.5t-136.5 -29zM590 -288q-44 0 -82 15t-61 46
t-23 80q0 53 25 90.5t58 62t57 38.5l31 -25q-23 -26 -42.5 -58t-19.5 -81q0 -42 30 -56t56 -14q25 0 50 7t42 17l36 -69q-25 -22 -66.5 -37.5t-90.5 -15.5z" />
    <glyph glyph-name="uogonek" unicode="&#x173;" horiz-adv-x="875" 
d="M358 -22q-65 0 -119 25.5t-86 95t-32 203.5v670h-103v74h343v-717q0 -96 7 -146.5t23 -69t41 -18.5q28 0 50 29t34 84t12 134v630h-91v74h331v-971h88v-75h-298l-15 102q-5 -23 -28.5 -52t-63 -50.5t-93.5 -21.5zM851 -306q-44 0 -82 14.5t-61 46t-23 79.5q0 54 25 91.5
t58 61.5t57 38l31 -25q-23 -26 -42.5 -58t-19.5 -80q0 -43 30 -56.5t56 -13.5q25 0 50 6.5t42 17.5l36 -69q-25 -23 -66.5 -38t-90.5 -15z" />
    <glyph glyph-name="Wcircumflex" unicode="&#x174;" horiz-adv-x="1180" 
d="M329 -1l-220 1326h-102v75h447v-75h-65l94 -755l-33 -77l133 778l23 -168l-46 222h-77v75h421v-75h-78l97 -738l-24 -77l121 815h-80v75h244v-75h-82l-214 -1326h-98l-181 1089l38 73l-220 -1162h-98zM442 1466l148 203h70l146 -203h-89l-93 131l-94 -131h-88z" />
    <glyph glyph-name="wcircumflex" unicode="&#x175;" horiz-adv-x="1126" 
d="M721 -2l-187 974h-73v75h395v-75h-72l76 -512l91 512h-60v75h223v-75h-77l-185 -974h-131zM278 -2l-185 974h-78v75h406v-75h-69l67 -512l91 512h-29v75h193v-75h-77l-188 -974h-131zM400 1128l148 203h70l146 -203h-89l-93 131l-94 -131h-88z" />
    <glyph glyph-name="Ycircumflex" unicode="&#x176;" horiz-adv-x="831" 
d="M195 0v75h107v513l-185 737h-98v75h444v-75h-77l152 -670h-66l169 670h-84v75h259v-75h-94l-180 -698v-552h107v-75h-454zM234 1466l148 203h70l146 -203h-89l-93 131l-94 -131h-88z" />
    <glyph glyph-name="ycircumflex" unicode="&#x177;" horiz-adv-x="726" 
d="M220 -502q-49 0 -83.5 35.5t-51.5 95t-17 133.5q0 65 26 99t69 34q42 0 67 -29.5t25 -82.5q0 -41 -15.5 -66t-31 -46.5t-15.5 -52.5q0 -24 9.5 -41t28.5 -17q11 0 18 7t13 24t13 45l76 355l-255 981h-84v75h418v-75h-78l116 -480l102 480h-74v75h231v-75h-72l-224 -979
l-84 -374q-8 -37 -23.5 -64.5t-40 -42t-63.5 -14.5zM189 1127l148 203h70l146 -203h-89l-93 131l-94 -131h-88z" />
    <glyph glyph-name="Ydieresis" unicode="&#x178;" horiz-adv-x="831" 
d="M195 0v75h107v513l-185 737h-98v75h444v-75h-77l152 -670h-66l169 670h-84v75h259v-75h-94l-180 -698v-552h107v-75h-454zM538 1502q-36 0 -62 26.5t-26 60.5q0 38 26 65t62 27q35 0 61.5 -27t26.5 -65q0 -34 -26.5 -60.5t-61.5 -26.5zM292 1502q-35 0 -60.5 26.5
t-25.5 60.5q0 38 25.5 65t60.5 27q36 0 62.5 -27t26.5 -65q0 -34 -26.5 -60.5t-62.5 -26.5z" />
    <glyph glyph-name="Zacute" unicode="&#x179;" horiz-adv-x="740" 
d="M60 0v75l336 1250h-58q-78 0 -117 -30.5t-51.5 -89t-12.5 -139.5h-75v334h574v-74l-337 -1251h73q71 0 118.5 32t71.5 90.5t24 139.5h75v-337h-621zM275 1442l-54 57l187 141q15 11 29.5 18t27.5 7q18 0 31.5 -9t20.5 -22q7 -12 7 -26q0 -19 -14 -36t-41 -28z" />
    <glyph glyph-name="zacute" unicode="&#x17a;" horiz-adv-x="673" 
d="M78 0v75l272 897h-92q-50 0 -71.5 -20.5t-26 -73.5t-4.5 -149h-73v318h514v-75l-272 -897h91q51 0 72.5 22t26 76.5t4.5 153.5h75v-327h-516zM235 1086l-54 58l187 141q15 11 29.5 18t27.5 7q18 0 31.5 -9t20.5 -22q7 -12 7 -27q0 -19 -14 -35.5t-41 -27.5z" />
    <glyph glyph-name="Zdotaccent" unicode="&#x17b;" horiz-adv-x="740" 
d="M60 0v75l336 1250h-58q-78 0 -117 -30.5t-51.5 -89t-12.5 -139.5h-75v334h574v-74l-337 -1251h73q71 0 118.5 32t71.5 90.5t24 139.5h75v-337h-621zM378 1503q-36 0 -62.5 26.5t-26.5 60.5q0 37 26.5 63.5t62.5 26.5q34 0 60.5 -26.5t26.5 -63.5q0 -34 -26.5 -60.5
t-60.5 -26.5z" />
    <glyph glyph-name="zdotaccent" unicode="&#x17c;" horiz-adv-x="673" 
d="M78 0v75l272 897h-92q-50 0 -71.5 -20.5t-26 -73.5t-4.5 -149h-73v318h514v-75l-272 -897h91q51 0 72.5 22t26 76.5t4.5 153.5h75v-327h-516zM338 1138q-36 0 -62.5 26.5t-26.5 60.5q0 37 26.5 63.5t62.5 26.5q34 0 60.5 -26.5t26.5 -63.5q0 -34 -26.5 -60.5t-60.5 -26.5
z" />
    <glyph glyph-name="Zcaron" unicode="&#x17d;" horiz-adv-x="740" 
d="M60 0v75l336 1250h-58q-78 0 -117 -30.5t-51.5 -89t-12.5 -139.5h-75v334h574v-74l-337 -1251h73q71 0 118.5 32t71.5 90.5t24 139.5h75v-337h-621zM343 1472l-169 224h96l107 -152l107 152h99l-170 -224h-70z" />
    <glyph glyph-name="zcaron" unicode="&#x17e;" horiz-adv-x="673" 
d="M78 0v75l272 897h-92q-50 0 -71.5 -20.5t-26 -73.5t-4.5 -149h-73v318h514v-75l-272 -897h91q51 0 72.5 22t26 76.5t4.5 153.5h75v-327h-516zM303 1109l-169 224h96l107 -152l107 152h99l-170 -224h-70z" />
    <glyph glyph-name="uni018F" unicode="&#x18f;" horiz-adv-x="877" 
d="M432 -25q-81 0 -148 46t-115.5 135t-74.5 218.5t-26 297.5q0 27 1 55t3 56h510v-75h-258q0 -222 11 -368t35 -218t62 -72t67.5 66t46 206.5t16.5 365.5q0 171 -5.5 294.5t-21.5 204.5t-47.5 120t-83.5 39q-60 0 -106.5 -28t-77 -67.5t-46.5 -73.5l-77 52q21 47 68.5 93
t114 76.5t145.5 30.5q97 0 170.5 -48.5t124 -143t76 -232.5t25.5 -317q0 -191 -35.5 -327t-92.5 -221t-125.5 -125t-135.5 -40zM70 1177v223h75q0 -34 4.5 -65.5t20.5 -31.5l4 -126h-104z" />
    <glyph glyph-name="florin" unicode="&#x192;" horiz-adv-x="719" 
d="M52 -420q-55 0 -96 21.5t-63 60.5t-22 92q0 45 19 72t55 27t54.5 -17t18.5 -51q0 -25 -9 -38t-18.5 -23.5t-9.5 -28.5t8 -30t25 -12q25 0 42.5 28.5t29.5 76.5t19 108.5t11 124.5l63 981h-103v75h108l4 57q11 160 54.5 248.5t107.5 123.5t136 35q59 0 106 -34.5
t73.5 -93.5t26.5 -133q0 -64 -26 -101.5t-69 -37.5q-42 0 -68.5 35t-26.5 89q0 35 15.5 58.5t30.5 43t15 38.5q0 29 -15 42.5t-45 13.5q-43 0 -66.5 -49.5t-34 -127.5t-16.5 -165l-2 -42h110v-75h-116l-63 -947q-3 -53 -10.5 -114t-22.5 -119.5t-43.5 -106.5t-73.5 -76.5
t-113 -28.5z" />
    <glyph glyph-name="Ohorn" unicode="&#x1a0;" horiz-adv-x="845" 
d="M425 -22q-106 0 -187 85.5t-126.5 246.5t-45.5 388q0 229 45.5 390.5t126.5 247.5t187 86q107 0 189.5 -86t129 -247.5t46.5 -390.5q0 -227 -46.5 -388t-129 -246.5t-189.5 -85.5zM425 53q30 0 50.5 42.5t34 125t19.5 202.5t6 275t-6 275.5t-19.5 204t-34 126.5t-50.5 43
q-29 0 -49 -43t-32 -126.5t-17.5 -204t-5.5 -275.5t5.5 -275t17.5 -202.5t32 -125t49 -42.5zM562 1304v75q44 0 80.5 11.5t36.5 58.5q0 19 -8 44t-8 46q0 34 17.5 54t53.5 20q35 0 52.5 -19.5t17.5 -54.5q0 -93 -40 -144t-96 -71t-106 -20z" />
    <glyph glyph-name="ohorn" unicode="&#x1a1;" horiz-adv-x="785" 
d="M390 -22q-60 0 -119.5 34t-108.5 102.5t-78 171.5t-29 241q0 150 30.5 253t80 164.5t108.5 89t116 27.5t116.5 -27.5t109.5 -89t81 -164.5t31 -253q0 -138 -29.5 -241t-78.5 -171.5t-109 -102.5t-121 -34zM390 64q45 0 70 109t25 354t-25 347t-70 102q-42 0 -67.5 -102
t-25.5 -347t25.5 -354t67.5 -109zM537 941v75q44 0 80.5 11.5t36.5 58.5q0 19 -8 44t-8 45q0 35 17.5 55t53.5 20q35 0 52.5 -19.5t17.5 -55.5q0 -93 -40 -143.5t-96 -70.5t-106 -20z" />
    <glyph glyph-name="Uhorn" unicode="&#x1af;" horiz-adv-x="822" 
d="M437 -24q-49 0 -102.5 14.5t-98.5 53t-73 109.5t-28 184v988h-99v75h450v-75h-108v-996q0 -139 30 -200t91 -61q24 0 45 10.5t37.5 36.5t26 71.5t9.5 115.5v1023h-87v75h175v-75h-12v-1031q0 -121 -31 -190.5t-88.5 -98.5t-136.5 -29zM705 1325v75q45 0 81 11.5t36 58.5
q0 19 -8 44t-8 45q0 35 18 55t53 20t52.5 -19.5t17.5 -55.5q0 -93 -40 -143.5t-96 -70.5t-106 -20z" />
    <glyph glyph-name="uhorn" unicode="&#x1b0;" horiz-adv-x="875" 
d="M358 -22q-65 0 -119 25.5t-86 95t-32 203.5v670h-103v74h343v-717q0 -96 7 -146.5t23 -69t41 -18.5q28 0 50 29t34 84t12 134v630h-91v74h331v-971h88v-75h-298l-15 102q-5 -23 -28.5 -52t-63 -50.5t-93.5 -21.5zM718 971v75q44 0 80 11.5t36 58.5q0 19 -7.5 44t-7.5 45
q0 35 17.5 55t52.5 20q36 0 53 -19.5t17 -55.5q0 -93 -39.5 -143.5t-95.5 -70.5t-106 -20z" />
    <glyph glyph-name="uni01C6" unicode="&#x1c6;" horiz-adv-x="1529" 
d="M354 -20q-74 0 -140.5 49t-108.5 166.5t-42 322.5q0 191 40 311t103 175.5t132 55.5q56 0 87 -18t44 -40.5t16 -34.5v457h-121v76h366v-1425h115v-75h-318l-24 115q-2 -27 -19.5 -58.5t-50 -54t-79.5 -22.5zM401 116q26 0 43.5 34.5t28.5 88.5t12 112v387q-3 51 -14 92
t-28.5 64.5t-41.5 23.5q-23 0 -41.5 -28.5t-30.5 -81t-18.5 -126.5t-6.5 -167q0 -94 6 -168.5t18 -125.5t30 -78t43 -27zM935 0v75l272 897h-92q-50 0 -71.5 -20.5t-26 -73.5t-4.5 -149h-73v318h514v-75l-272 -897h91q51 0 72.5 22t26 76.5t4.5 153.5h75v-327h-516z
M1160 1109l-169 224h96l107 -152l107 152h99l-170 -224h-70z" />
    <glyph glyph-name="uni01C7" unicode="&#x1c7;" horiz-adv-x="1430" 
d="M54 0v75h90v1250h-90v75h421v-75h-93v-1250h53q40 0 66.5 32.5t41 91.5t14.5 138h75v-337h-578zM977 -23q-83 0 -132.5 37t-71 100t-21.5 141q0 69 28.5 99.5t72.5 30.5q42 0 69.5 -27.5t27.5 -92.5q0 -43 -14 -65.5t-28.5 -39.5t-14.5 -43q0 -30 15.5 -45t37.5 -15
q44 0 68 29t24 105v1134h-105v75h445v-75h-100v-903q0 -122 -19.5 -206.5t-58 -137.5t-94.5 -77t-129 -24z" />
    <glyph glyph-name="uni01C8" unicode="&#x1c8;" horiz-adv-x="1154" 
d="M54 0v75h90v1250h-90v75h421v-75h-93v-1250h53q40 0 66.5 32.5t41 91.5t14.5 138h75v-337h-578zM738 -498q-63 0 -110 34.5t-73.5 93.5t-26.5 133q0 65 30 99t74 34q41 0 63 -28.5t22 -81.5q0 -35 -9 -57t-19 -41t-10 -43q0 -19 4.5 -34t15 -23.5t25.5 -8.5q48 0 64 52
t16 156v1185h-116v75h356v-1098q0 -134 -28 -221t-73.5 -136.5t-99.5 -69.5t-105 -20zM920 1179q-65 0 -110.5 45.5t-45.5 110.5q0 63 45.5 108.5t110.5 45.5q63 0 108 -45.5t45 -108.5q0 -65 -45 -110.5t-108 -45.5z" />
    <glyph glyph-name="uni01C9" unicode="&#x1c9;" horiz-adv-x="990" 
d="M33 0v75h105v1350h-105v75h345v-1425h106v-75h-451zM574 -498q-63 0 -110 34.5t-73.5 93.5t-26.5 133q0 65 30 99t74 34q41 0 63 -28.5t22 -81.5q0 -35 -9 -57t-19 -41t-10 -43q0 -19 4.5 -34t15 -23.5t25.5 -8.5q48 0 64 52t16 156v1185h-116v75h356v-1098
q0 -134 -28 -221t-73.5 -136.5t-99.5 -69.5t-105 -20zM756 1179q-65 0 -110.5 45.5t-45.5 110.5q0 63 45.5 108.5t110.5 45.5q63 0 108 -45.5t45 -108.5q0 -65 -45 -110.5t-108 -45.5z" />
    <glyph glyph-name="uni01CA" unicode="&#x1ca;" horiz-adv-x="1531" 
d="M29 0v75h93v1250h-93v75h365l262 -856h-13v781h-88v75h254v-75h-89v-1325h-152l-385 1257h16v-1182h92v-75h-262zM1078 -23q-83 0 -132.5 37t-71 100t-21.5 141q0 69 28.5 99.5t72.5 30.5q42 0 69.5 -27.5t27.5 -92.5q0 -43 -14 -65.5t-28.5 -39.5t-14.5 -43
q0 -30 15.5 -45t37.5 -15q44 0 68 29t24 105v1134h-105v75h445v-75h-100v-903q0 -122 -19.5 -206.5t-58 -137.5t-94.5 -77t-129 -24z" />
    <glyph glyph-name="uni01CB" unicode="&#x1cb;" horiz-adv-x="1332" 
d="M29 0v75h93v1250h-93v75h365l262 -856h-13v781h-88v75h254v-75h-89v-1325h-152l-385 1257h16v-1182h92v-75h-262zM916 -498q-63 0 -110 34.5t-73.5 93.5t-26.5 133q0 65 30 99t74 34q41 0 63 -28.5t22 -81.5q0 -35 -9 -57t-19 -41t-10 -43q0 -19 4.5 -34t15 -23.5
t25.5 -8.5q48 0 64 52t16 156v1185h-116v75h356v-1098q0 -134 -28 -221t-73.5 -136.5t-99.5 -69.5t-105 -20zM1098 1179q-65 0 -110.5 45.5t-45.5 110.5q0 63 45.5 108.5t110.5 45.5q63 0 108 -45.5t45 -108.5q0 -65 -45 -110.5t-108 -45.5z" />
    <glyph glyph-name="uni01CC" unicode="&#x1cc;" horiz-adv-x="1364" 
d="M32 0v75h107v897h-107v75h340v-100q3 13 24.5 40.5t61.5 50.5t96 23q62 0 112.5 -27t80.5 -98.5t30 -205.5v-655h105v-75h-417v75h72v651q0 105 -15.5 153.5t-51.5 48.5q-20 0 -36 -13.5t-28 -38.5t-19 -59t-8 -75v-667h69v-75h-416zM948 -498q-63 0 -110 34.5
t-73.5 93.5t-26.5 133q0 65 30 99t74 34q41 0 63 -28.5t22 -81.5q0 -35 -9 -57t-19 -41t-10 -43q0 -19 4.5 -34t15 -23.5t25.5 -8.5q48 0 64 52t16 156v1185h-116v75h356v-1098q0 -134 -28 -221t-73.5 -136.5t-99.5 -69.5t-105 -20zM1130 1179q-65 0 -110.5 45.5
t-45.5 110.5q0 63 45.5 108.5t110.5 45.5q63 0 108 -45.5t45 -108.5q0 -65 -45 -110.5t-108 -45.5z" />
    <glyph glyph-name="uni01CE" unicode="&#x1ce;" horiz-adv-x="817" 
d="M289 -21q-66 0 -120.5 32t-87 92t-32.5 143q0 96 40.5 158.5t100.5 105t120 76t100.5 70.5t40.5 90q0 73 -12.5 124t-38.5 77.5t-66 26.5q-48 0 -78.5 -26t-30.5 -60q0 -27 11 -45t22 -38t11 -55q0 -47 -26.5 -74.5t-68.5 -27.5q-44 0 -70.5 37.5t-26.5 101.5
q0 79 39 140.5t108 97.5t159 36t159.5 -37t109 -117t39.5 -211v-532q0 -50 8.5 -67t26.5 -17t31 9.5t19 16.5l42 -58q-16 -23 -64 -44t-112 -21t-99 18t-50.5 42.5t-21.5 44.5q-4 -13 -22.5 -39t-57 -48t-102.5 -22zM369 92q26 0 44 22.5t28 56.5t10 68v368
q-4 -28 -28.5 -52.5t-54.5 -57.5t-52.5 -86t-22.5 -137q0 -89 21 -135.5t55 -46.5zM361 1109l-169 224h96l107 -152l107 152h99l-170 -224h-70z" />
    <glyph glyph-name="uni01D0" unicode="&#x1d0;" horiz-adv-x="500" 
d="M29 0v75h102v897h-102v75h342v-972h103v-75h-445zM217 1109l-169 224h96l107 -152l107 152h99l-170 -224h-70z" />
    <glyph glyph-name="uni01D2" unicode="&#x1d2;" horiz-adv-x="785" 
d="M390 -22q-60 0 -119.5 34t-108.5 102.5t-78 171.5t-29 241q0 150 30.5 253t80 164.5t108.5 89t116 27.5t116.5 -27.5t109.5 -89t81 -164.5t31 -253q0 -138 -29.5 -241t-78.5 -171.5t-109 -102.5t-121 -34zM390 64q45 0 70 109t25 354t-25 347t-70 102q-42 0 -67.5 -102
t-25.5 -347t25.5 -354t67.5 -109zM357 1109l-169 224h96l107 -152l107 152h99l-170 -224h-70z" />
    <glyph glyph-name="uni01D4" unicode="&#x1d4;" horiz-adv-x="875" 
d="M358 -22q-65 0 -119 25.5t-86 95t-32 203.5v670h-103v74h343v-717q0 -96 7 -146.5t23 -69t41 -18.5q28 0 50 29t34 84t12 134v630h-91v74h331v-971h88v-75h-298l-15 102q-5 -23 -28.5 -52t-63 -50.5t-93.5 -21.5zM415 1109l-169 224h96l107 -152l107 152h99l-170 -224
h-70z" />
    <glyph glyph-name="uni01D6" unicode="&#x1d6;" horiz-adv-x="875" 
d="M358 -22q-65 0 -119 25.5t-86 95t-32 203.5v670h-103v74h343v-717q0 -96 7 -146.5t23 -69t41 -18.5q28 0 50 29t34 84t12 134v630h-91v74h331v-971h88v-75h-298l-15 102q-5 -23 -28.5 -52t-63 -50.5t-93.5 -21.5zM572 1132q-36 0 -62 26.5t-26 61.5q0 37 26 64.5t62 27.5
q35 0 61.5 -27.5t26.5 -64.5q0 -35 -26.5 -61.5t-61.5 -26.5zM326 1132q-35 0 -60.5 26.5t-25.5 61.5q0 37 25.5 64.5t60.5 27.5q36 0 62.5 -27.5t26.5 -64.5q0 -35 -26.5 -61.5t-62.5 -26.5zM213 1404v75h474v-75h-474z" />
    <glyph glyph-name="uni01D8" unicode="&#x1d8;" horiz-adv-x="875" 
d="M358 -22q-65 0 -119 25.5t-86 95t-32 203.5v670h-103v74h343v-717q0 -96 7 -146.5t23 -69t41 -18.5q28 0 50 29t34 84t12 134v630h-91v74h331v-971h88v-75h-298l-15 102q-5 -23 -28.5 -52t-63 -50.5t-93.5 -21.5zM572 1132q-36 0 -62 26.5t-26 61.5q0 37 26 64.5t62 27.5
q35 0 61.5 -27.5t26.5 -64.5q0 -35 -26.5 -61.5t-61.5 -26.5zM326 1132q-35 0 -60.5 26.5t-25.5 61.5q0 37 25.5 64.5t60.5 27.5q36 0 62.5 -27.5t26.5 -64.5q0 -35 -26.5 -61.5t-62.5 -26.5zM347 1351l-54 58l187 141q15 11 29.5 18t27.5 7q18 0 31.5 -9t20.5 -22
q7 -12 7 -27q0 -19 -14 -35.5t-41 -27.5z" />
    <glyph glyph-name="uni01DA" unicode="&#x1da;" horiz-adv-x="875" 
d="M358 -22q-65 0 -119 25.5t-86 95t-32 203.5v670h-103v74h343v-717q0 -96 7 -146.5t23 -69t41 -18.5q28 0 50 29t34 84t12 134v630h-91v74h331v-971h88v-75h-298l-15 102q-5 -23 -28.5 -52t-63 -50.5t-93.5 -21.5zM572 1132q-36 0 -62 26.5t-26 61.5q0 37 26 64.5t62 27.5
q35 0 61.5 -27.5t26.5 -64.5q0 -35 -26.5 -61.5t-61.5 -26.5zM326 1132q-35 0 -60.5 26.5t-25.5 61.5q0 37 25.5 64.5t60.5 27.5q36 0 62.5 -27.5t26.5 -64.5q0 -35 -26.5 -61.5t-62.5 -26.5zM415 1375l-169 224h96l107 -152l107 152h99l-170 -224h-70z" />
    <glyph glyph-name="uni01DC" unicode="&#x1dc;" horiz-adv-x="875" 
d="M358 -22q-65 0 -119 25.5t-86 95t-32 203.5v670h-103v74h343v-717q0 -96 7 -146.5t23 -69t41 -18.5q28 0 50 29t34 84t12 134v630h-91v74h331v-971h88v-75h-298l-15 102q-5 -23 -28.5 -52t-63 -50.5t-93.5 -21.5zM572 1132q-36 0 -62 26.5t-26 61.5q0 37 26 64.5t62 27.5
q35 0 61.5 -27.5t26.5 -64.5q0 -35 -26.5 -61.5t-61.5 -26.5zM326 1132q-35 0 -60.5 26.5t-25.5 61.5q0 37 25.5 64.5t60.5 27.5q36 0 62.5 -27.5t26.5 -64.5q0 -35 -26.5 -61.5t-62.5 -26.5zM553 1370l-206 100q-29 14 -43.5 28.5t-14.5 40.5q0 24 17.5 39t43.5 15
q21 0 35 -8t29 -20l180 -147z" />
    <glyph glyph-name="uni01DF" unicode="&#x1df;" horiz-adv-x="817" 
d="M289 -21q-66 0 -120.5 32t-87 92t-32.5 143q0 96 40.5 158.5t100.5 105t120 76t100.5 70.5t40.5 90q0 73 -12.5 124t-38.5 77.5t-66 26.5q-48 0 -78.5 -26t-30.5 -60q0 -27 11 -45t22 -38t11 -55q0 -47 -26.5 -74.5t-68.5 -27.5q-44 0 -70.5 37.5t-26.5 101.5
q0 79 39 140.5t108 97.5t159 36t159.5 -37t109 -117t39.5 -211v-532q0 -50 8.5 -67t26.5 -17t31 9.5t19 16.5l42 -58q-16 -23 -64 -44t-112 -21t-99 18t-50.5 42.5t-21.5 44.5q-4 -13 -22.5 -39t-57 -48t-102.5 -22zM369 92q26 0 44 22.5t28 56.5t10 68v368
q-4 -28 -28.5 -52.5t-54.5 -57.5t-52.5 -86t-22.5 -137q0 -89 21 -135.5t55 -46.5zM518 1132q-36 0 -62 26.5t-26 61.5q0 37 26 64.5t62 27.5q35 0 61.5 -27.5t26.5 -64.5q0 -35 -26.5 -61.5t-61.5 -26.5zM272 1132q-35 0 -60.5 26.5t-25.5 61.5q0 37 25.5 64.5t60.5 27.5
q36 0 62.5 -27.5t26.5 -64.5q0 -35 -26.5 -61.5t-62.5 -26.5zM159 1404v75h474v-75h-474z" />
    <glyph glyph-name="gcaron" unicode="&#x1e7;" horiz-adv-x="843" 
d="M411 -498q-91 0 -173.5 29.5t-134.5 88t-52 148.5q0 66 25 111t59.5 71t63 38.5t35.5 14.5q-7 2 -29 11t-48 28.5t-45 52.5t-19 82q0 36 13.5 62t33 42.5t39.5 22.5q4 2 11.5 4t10.5 1q-6 5 -24.5 25t-40.5 58.5t-37.5 99.5t-15.5 147q0 119 32.5 199.5t83.5 129.5
t107.5 71t105.5 22q102 0 174 -52t111 -144t39 -214q0 -128 -32.5 -210.5t-83.5 -128.5t-107.5 -63.5t-103.5 -17.5q-58 0 -93.5 12t-44.5 15q-1 1 -1.5 1h-2.5q-13 0 -26.5 -14.5t-13.5 -40.5q0 -37 48 -64t181 -51q153 -27 238 -94.5t85 -205.5q0 -83 -36.5 -139
t-93.5 -88.5t-120.5 -46t-117.5 -13.5zM411 -425q68 0 109.5 50t41.5 116q0 70 -20 108.5t-75 66.5q-20 11 -44.5 22.5t-46.5 20.5t-35 13q-20 -11 -41 -36.5t-35.5 -66t-14.5 -98.5t19 -102t55 -69t87 -25zM409 309q23 0 42.5 22.5t32 94.5t12.5 221q0 143 -12.5 214.5
t-32 96t-41.5 24.5t-42 -24.5t-32.5 -97.5t-12.5 -217q0 -148 13 -219t32.5 -93t40.5 -22zM528 983q11 72 67.5 113t119.5 41q53 0 75 -26t22 -65q0 -38 -21 -59t-53 -21t-45.5 14.5t-22.5 28.5t-32 14q-13 0 -23.5 -8t-10.5 -34zM375 1109l-169 224h96l107 -152l107 152h99
l-170 -224h-70z" />
    <glyph glyph-name="uni01EA" unicode="&#x1ea;" horiz-adv-x="845" 
d="M425 -22q-106 0 -187 85.5t-126.5 246.5t-45.5 388q0 229 45.5 390.5t126.5 247.5t187 86q107 0 189.5 -86t129 -247.5t46.5 -390.5q0 -227 -46.5 -388t-129 -246.5t-189.5 -85.5zM425 53q30 0 50.5 42.5t34 125t19.5 202.5t6 275t-6 275.5t-19.5 204t-34 126.5t-50.5 43
q-29 0 -49 -43t-32 -126.5t-17.5 -204t-5.5 -275.5t5.5 -275t17.5 -202.5t32 -125t49 -42.5zM534 -299q-44 0 -82 14.5t-61 46t-23 79.5q0 54 25 91.5t57.5 61.5t56.5 38l31 -25q-22 -26 -41.5 -58t-19.5 -80q0 -43 29.5 -56.5t55.5 -13.5q25 0 50 6.5t42 17.5l37 -69
q-25 -23 -66.5 -38t-90.5 -15z" />
    <glyph glyph-name="uni01EB" unicode="&#x1eb;" horiz-adv-x="785" 
d="M390 -22q-60 0 -119.5 34t-108.5 102.5t-78 171.5t-29 241q0 150 30.5 253t80 164.5t108.5 89t116 27.5t116.5 -27.5t109.5 -89t81 -164.5t31 -253q0 -138 -29.5 -241t-78.5 -171.5t-109 -102.5t-121 -34zM390 64q45 0 70 109t25 354t-25 347t-70 102q-42 0 -67.5 -102
t-25.5 -347t25.5 -354t67.5 -109zM510 -289q-45 0 -83 14.5t-60.5 46t-22.5 79.5q0 54 24.5 91.5t57.5 62t57 37.5l31 -25q-22 -26 -41.5 -58t-19.5 -80q0 -43 29.5 -56.5t55.5 -13.5q25 0 50 6.5t42 17.5l37 -69q-25 -23 -66.5 -38t-90.5 -15z" />
    <glyph glyph-name="aringacute" unicode="&#x1fb;" horiz-adv-x="817" 
d="M289 -21q-66 0 -120.5 32t-87 92t-32.5 143q0 96 40.5 158.5t100.5 105t120 76t100.5 70.5t40.5 90q0 73 -12.5 124t-38.5 77.5t-66 26.5q-48 0 -78.5 -26t-30.5 -60q0 -27 11 -45t22 -38t11 -55q0 -47 -26.5 -74.5t-68.5 -27.5q-44 0 -70.5 37.5t-26.5 101.5
q0 79 39 140.5t108 97.5t159 36t159.5 -37t109 -117t39.5 -211v-532q0 -50 8.5 -67t26.5 -17t31 9.5t19 16.5l42 -58q-16 -23 -64 -44t-112 -21t-99 18t-50.5 42.5t-21.5 44.5q-4 -13 -22.5 -39t-57 -48t-102.5 -22zM369 92q26 0 44 22.5t28 56.5t10 68v368
q-4 -28 -28.5 -52.5t-54.5 -57.5t-52.5 -86t-22.5 -137q0 -89 21 -135.5t55 -46.5zM396 1098q-44 0 -77.5 32.5t-33.5 85.5q0 55 33.5 86.5t77.5 31.5q43 0 75.5 -31.5t32.5 -86.5q0 -53 -32.5 -85.5t-75.5 -32.5zM396 1158q24 0 35 18.5t11 41.5q0 19 -11 37.5t-35 18.5
q-25 0 -36.5 -18.5t-11.5 -37.5q0 -23 11.5 -41.5t36.5 -18.5zM293 1372l-54 58l187 141q15 11 29.5 18t27.5 7q18 0 31.5 -9t20.5 -22q7 -12 7 -27q0 -19 -14 -35.5t-41 -27.5z" />
    <glyph glyph-name="aeacute" unicode="&#x1fd;" horiz-adv-x="1175" 
d="M323 -20q-147 0 -210.5 70t-63.5 186q0 99 40 163.5t99 107.5t118 76.5t99 70.5t40 90q0 68 -12 120t-37.5 81t-64.5 29q-44 0 -73.5 -22.5t-29.5 -58.5q0 -27 10.5 -45t21 -38.5t10.5 -54.5q0 -47 -26 -74.5t-69 -27.5q-44 0 -70 37.5t-26 101.5q0 76 38 137t106 96.5
t157 35.5q90 0 159 -39.5t107.5 -122t38.5 -213.5v-226q0 -98 -14 -171t-37 -124t-52 -84q-42 -45 -105 -73t-154 -28zM365 94q34 0 57 43t23 103v364q-4 -28 -27.5 -53t-52.5 -58t-51 -86t-22 -138q0 -56 8.5 -95t25 -59.5t39.5 -20.5zM811 -20q-79 0 -143 35.5t-110 105
t-71 171.5t-25 235q0 142 31.5 243.5t83 165.5t111.5 94.5t118 30.5q68 0 125.5 -34.5t99 -96t64.5 -146t23 -185.5v-41t-2 -41h-426v75h200q0 148 -9.5 233.5t-28 122t-46.5 36.5t-51.5 -37.5t-37.5 -130.5t-14 -260q0 -125 7.5 -217.5t23.5 -153.5t42 -90.5t65 -29.5
q71 0 113 36.5t59 73.5l63 -45q-23 -55 -95.5 -102.5t-169.5 -47.5zM507 1086l-54 58l187 141q15 11 29.5 18t27.5 7q18 0 31.5 -9t20.5 -22q7 -12 7 -27q0 -19 -14 -35.5t-41 -27.5z" />
    <glyph glyph-name="Oslashacute" unicode="&#x1fe;" horiz-adv-x="859" 
d="M161 -104l492 1608h77l-490 -1608h-79zM425 -22q-106 0 -187 85.5t-126.5 246.5t-45.5 388q0 229 45.5 390.5t126.5 247.5t187 86q107 0 189.5 -86t129 -247.5t46.5 -390.5q0 -227 -46.5 -388t-129 -246.5t-189.5 -85.5zM425 53q30 0 50.5 42.5t34 125t19.5 202.5t6 275
t-6 275.5t-19.5 204t-34 126.5t-50.5 43q-29 0 -49 -43t-32 -126.5t-17.5 -204t-5.5 -275.5t5.5 -275t17.5 -202.5t32 -125t49 -42.5zM323 1442l-54 57l187 141q15 11 29.5 18t27.5 7q18 0 31.5 -9t20.5 -22q7 -12 7 -26q0 -19 -14 -36t-41 -28z" />
    <glyph glyph-name="oslashacute" unicode="&#x1ff;" horiz-adv-x="793" 
d="M94 -104l517 1224h80l-517 -1224h-80zM390 -22q-60 0 -119.5 34t-108.5 102.5t-78 171.5t-29 241q0 150 30.5 253t80 164.5t108.5 89t116 27.5t116.5 -27.5t109.5 -89t81 -164.5t31 -253q0 -138 -29.5 -241t-78.5 -171.5t-109 -102.5t-121 -34zM390 64q45 0 70 109
t25 354t-25 347t-70 102q-42 0 -67.5 -102t-25.5 -347t25.5 -354t67.5 -109zM288 1086l-54 58l187 141q15 11 29.5 18t27.5 7q18 0 31.5 -9t20.5 -22q7 -12 7 -27q0 -19 -14 -35.5t-41 -27.5z" />
    <glyph glyph-name="uni0201" unicode="&#x201;" horiz-adv-x="817" 
d="M289 -21q-66 0 -120.5 32t-87 92t-32.5 143q0 96 40.5 158.5t100.5 105t120 76t100.5 70.5t40.5 90q0 73 -12.5 124t-38.5 77.5t-66 26.5q-48 0 -78.5 -26t-30.5 -60q0 -27 11 -45t22 -38t11 -55q0 -47 -26.5 -74.5t-68.5 -27.5q-44 0 -70.5 37.5t-26.5 101.5
q0 79 39 140.5t108 97.5t159 36t159.5 -37t109 -117t39.5 -211v-532q0 -50 8.5 -67t26.5 -17t31 9.5t19 16.5l42 -58q-16 -23 -64 -44t-112 -21t-99 18t-50.5 42.5t-21.5 44.5q-4 -13 -22.5 -39t-57 -48t-102.5 -22zM369 92q26 0 44 22.5t28 56.5t10 68v368
q-4 -28 -28.5 -52.5t-54.5 -57.5t-52.5 -86t-22.5 -137q0 -89 21 -135.5t55 -46.5zM505 1105l-159 163q-17 17 -26.5 31.5t-9.5 30.5q0 28 17 43.5t40 15.5q28 0 45.5 -16.5t29.5 -37.5l117 -200zM300 1105l-161 163q-17 18 -25.5 32t-8.5 30q0 28 17 43.5t39 15.5
q29 0 46 -16.5t30 -37.5l117 -200z" />
    <glyph glyph-name="uni0203" unicode="&#x203;" horiz-adv-x="817" 
d="M289 -21q-66 0 -120.5 32t-87 92t-32.5 143q0 96 40.5 158.5t100.5 105t120 76t100.5 70.5t40.5 90q0 73 -12.5 124t-38.5 77.5t-66 26.5q-48 0 -78.5 -26t-30.5 -60q0 -27 11 -45t22 -38t11 -55q0 -47 -26.5 -74.5t-68.5 -27.5q-44 0 -70.5 37.5t-26.5 101.5
q0 79 39 140.5t108 97.5t159 36t159.5 -37t109 -117t39.5 -211v-532q0 -50 8.5 -67t26.5 -17t31 9.5t19 16.5l42 -58q-16 -23 -64 -44t-112 -21t-99 18t-50.5 42.5t-21.5 44.5q-4 -13 -22.5 -39t-57 -48t-102.5 -22zM369 92q26 0 44 22.5t28 56.5t10 68v368
q-4 -28 -28.5 -52.5t-54.5 -57.5t-52.5 -86t-22.5 -137q0 -89 21 -135.5t55 -46.5zM395 1316q64 0 103.5 -29t57.5 -74.5t18 -93.5h-75q-4 64 -32 93t-72 29q-43 0 -71 -29t-33 -93h-74q0 48 18 93.5t57 74.5t103 29z" />
    <glyph glyph-name="uni0205" unicode="&#x205;" horiz-adv-x="767" 
d="M403 -20q-78 0 -142.5 35.5t-110.5 105t-70.5 171.5t-24.5 235q0 142 31 243.5t82.5 165.5t112 94.5t117.5 30.5q69 0 126 -34.5t99 -96t65 -146t23 -185.5q0 -21 -0.5 -41t-2.5 -41h-426v75h200q0 148 -9.5 233.5t-28 122t-46.5 36.5t-51.5 -37.5t-37 -130.5t-13.5 -260
q0 -125 7 -217.5t23.5 -153.5t42.5 -90.5t64 -29.5q71 0 113 36.5t60 73.5l63 -45q-23 -55 -96 -102.5t-170 -47.5zM567 1105l-160 163q-17 17 -26 31.5t-9 30.5q0 28 17 43.5t40 15.5q28 0 45.5 -16.5t29.5 -37.5l117 -200zM361 1105l-160 163q-17 18 -26 32t-9 30
q0 28 17 43.5t40 15.5q29 0 46 -16.5t29 -37.5l117 -200z" />
    <glyph glyph-name="uni0207" unicode="&#x207;" horiz-adv-x="767" 
d="M403 -20q-78 0 -142.5 35.5t-110.5 105t-70.5 171.5t-24.5 235q0 142 31 243.5t82.5 165.5t112 94.5t117.5 30.5q69 0 126 -34.5t99 -96t65 -146t23 -185.5q0 -21 -0.5 -41t-2.5 -41h-426v75h200q0 148 -9.5 233.5t-28 122t-46.5 36.5t-51.5 -37.5t-37 -130.5t-13.5 -260
q0 -125 7 -217.5t23.5 -153.5t42.5 -90.5t64 -29.5q71 0 113 36.5t60 73.5l63 -45q-23 -55 -96 -102.5t-170 -47.5zM393 1316q64 0 103.5 -29t57.5 -74.5t18 -93.5h-75q-4 64 -32 93t-72 29q-43 0 -71 -29t-33 -93h-74q0 48 18 93.5t57 74.5t103 29z" />
    <glyph glyph-name="uni0209" unicode="&#x209;" horiz-adv-x="500" 
d="M29 0v75h102v897h-102v75h342v-972h103v-75h-445zM425 1105l-160 163q-17 17 -26 31.5t-9 30.5q0 28 17 43.5t40 15.5q28 0 45.5 -16.5t29.5 -37.5l117 -200zM219 1105l-160 163q-17 18 -26 32t-9 30q0 28 17 43.5t40 15.5q29 0 46 -16.5t29 -37.5l117 -200z" />
    <glyph glyph-name="uni020B" unicode="&#x20b;" horiz-adv-x="500" 
d="M29 0v75h102v897h-102v75h342v-972h103v-75h-445zM251 1316q64 0 103.5 -29t57.5 -74.5t18 -93.5h-75q-4 64 -32 93t-72 29q-43 0 -71 -29t-33 -93h-74q0 48 18 93.5t57 74.5t103 29z" />
    <glyph glyph-name="uni020D" unicode="&#x20d;" horiz-adv-x="785" 
d="M390 -22q-60 0 -119.5 34t-108.5 102.5t-78 171.5t-29 241q0 150 30.5 253t80 164.5t108.5 89t116 27.5t116.5 -27.5t109.5 -89t81 -164.5t31 -253q0 -138 -29.5 -241t-78.5 -171.5t-109 -102.5t-121 -34zM390 64q45 0 70 109t25 354t-25 347t-70 102q-42 0 -67.5 -102
t-25.5 -347t25.5 -354t67.5 -109zM564 1105l-160 163q-17 17 -26 31.5t-9 30.5q0 28 17 43.5t40 15.5q28 0 45.5 -16.5t29.5 -37.5l117 -200zM358 1105l-160 163q-17 18 -26 32t-9 30q0 28 17 43.5t40 15.5q29 0 46 -16.5t29 -37.5l117 -200z" />
    <glyph glyph-name="uni020F" unicode="&#x20f;" horiz-adv-x="785" 
d="M390 -22q-60 0 -119.5 34t-108.5 102.5t-78 171.5t-29 241q0 150 30.5 253t80 164.5t108.5 89t116 27.5t116.5 -27.5t109.5 -89t81 -164.5t31 -253q0 -138 -29.5 -241t-78.5 -171.5t-109 -102.5t-121 -34zM390 64q45 0 70 109t25 354t-25 347t-70 102q-42 0 -67.5 -102
t-25.5 -347t25.5 -354t67.5 -109zM391 1316q64 0 103.5 -29t57.5 -74.5t18 -93.5h-75q-4 64 -32 93t-72 29q-43 0 -71 -29t-33 -93h-74q0 48 18 93.5t57 74.5t103 29z" />
    <glyph glyph-name="uni0211" unicode="&#x211;" horiz-adv-x="715" 
d="M26 0v75h107v897h-107v75h323l15 -89q5 15 25 39.5t52.5 44t73.5 19.5q59 0 96.5 -37.5t55.5 -100.5t18 -139q0 -66 -25.5 -101t-69.5 -35q-41 0 -66.5 29.5t-25.5 81.5q0 34 14 54.5t27.5 40t13.5 50.5q0 37 -13.5 54t-42.5 17t-58 -29t-47.5 -85.5t-18.5 -138.5v-647
h105v-75h-452zM607 1105l-160 163q-17 17 -26 31.5t-9 30.5q0 28 17 43.5t40 15.5q28 0 45.5 -16.5t29.5 -37.5l117 -200zM401 1105l-160 163q-17 18 -26 32t-9 30q0 28 17 43.5t40 15.5q29 0 46 -16.5t29 -37.5l117 -200z" />
    <glyph glyph-name="uni0213" unicode="&#x213;" horiz-adv-x="715" 
d="M26 0v75h107v897h-107v75h323l15 -89q5 15 25 39.5t52.5 44t73.5 19.5q59 0 96.5 -37.5t55.5 -100.5t18 -139q0 -66 -25.5 -101t-69.5 -35q-41 0 -66.5 29.5t-25.5 81.5q0 34 14 54.5t27.5 40t13.5 50.5q0 37 -13.5 54t-42.5 17t-58 -29t-47.5 -85.5t-18.5 -138.5v-647
h105v-75h-452zM433 1316q64 0 103.5 -29t57.5 -74.5t18 -93.5h-75q-4 64 -32 93t-72 29q-43 0 -71 -29t-33 -93h-74q0 48 18 93.5t57 74.5t103 29z" />
    <glyph glyph-name="uni0215" unicode="&#x215;" horiz-adv-x="875" 
d="M358 -22q-65 0 -119 25.5t-86 95t-32 203.5v670h-103v74h343v-717q0 -96 7 -146.5t23 -69t41 -18.5q28 0 50 29t34 84t12 134v630h-91v74h331v-971h88v-75h-298l-15 102q-5 -23 -28.5 -52t-63 -50.5t-93.5 -21.5zM623 1105l-160 163q-17 17 -26 31.5t-9 30.5
q0 28 17 43.5t40 15.5q28 0 45.5 -16.5t29.5 -37.5l117 -200zM417 1105l-160 163q-17 18 -26 32t-9 30q0 28 17 43.5t40 15.5q29 0 46 -16.5t29 -37.5l117 -200z" />
    <glyph glyph-name="uni0217" unicode="&#x217;" horiz-adv-x="875" 
d="M358 -22q-65 0 -119 25.5t-86 95t-32 203.5v670h-103v74h343v-717q0 -96 7 -146.5t23 -69t41 -18.5q28 0 50 29t34 84t12 134v630h-91v74h331v-971h88v-75h-298l-15 102q-5 -23 -28.5 -52t-63 -50.5t-93.5 -21.5zM449 1316q64 0 103.5 -29t57.5 -74.5t18 -93.5h-75
q-4 64 -32 93t-72 29q-43 0 -71 -29t-33 -93h-74q0 48 18 93.5t57 74.5t103 29z" />
    <glyph glyph-name="uni0218" unicode="&#x218;" horiz-adv-x="685" 
d="M358 -27q-55 0 -88 13t-52 30t-31.5 29.5t-27.5 12.5q-28 0 -28 -58h-70v342h75q1 -21 10.5 -57t27 -76t43.5 -76t60.5 -59t79.5 -23q40 0 63.5 17t34 50.5t10.5 82.5q0 61 -26.5 122t-73.5 129t-108 145q-79 101 -121 184.5t-58 158.5t-16 148q0 110 37 184t96.5 112
t127.5 38q61 0 92 -19t48 -38t34 -19q13 0 19.5 11.5t7.5 42.5h71v-340h-75q-2 32 -14.5 79.5t-35.5 94.5t-58.5 79t-84.5 32q-52 0 -80.5 -38.5t-28.5 -106.5q0 -51 24 -109.5t70.5 -126t113.5 -146.5q69 -80 114 -157t67.5 -157.5t22.5 -170.5q0 -105 -23.5 -174.5
t-63 -110t-88 -58t-97.5 -17.5zM347 -363l-42 48q10 4 32.5 19.5t28.5 30.5q-2 -1 -11 -1q-33 0 -56.5 23t-23.5 57q0 35 23.5 57.5t57.5 22.5q37 0 63 -23t26 -70q0 -44 -17.5 -76.5t-40.5 -53.5t-40 -34z" />
    <glyph glyph-name="uni0219" unicode="&#x219;" horiz-adv-x="610" 
d="M313 -22q-59 0 -89.5 14.5t-46.5 29t-32 14.5q-14 0 -19 -9t-5 -27h-69v327h81q6 -54 20.5 -103t36.5 -87.5t52.5 -61t66.5 -22.5q33 0 53 13t29 36t9 52q0 43 -18 84.5t-52 85.5t-83 94q-80 82 -136 168t-56 212q0 93 35.5 150.5t92 85t119.5 27.5q44 0 70.5 -12
t43 -24.5t27.5 -12.5q9 0 14.5 8t5.5 27h71v-318h-81q-3 46 -14 91t-29.5 82t-44 59.5t-59.5 22.5q-48 0 -71 -36t-23 -83q0 -57 39.5 -108.5t111.5 -120.5q52 -51 97 -107.5t72 -124.5t27 -154q0 -96 -31 -156t-86.5 -88t-128.5 -28zM310 -363l-42 48q10 4 32.5 19.5
t28.5 30.5q-2 -1 -11 -1q-33 0 -56.5 23t-23.5 57q0 35 23.5 57.5t57.5 22.5q37 0 63 -23t26 -70q0 -44 -17.5 -76.5t-40.5 -53.5t-40 -34z" />
    <glyph glyph-name="uni021A" unicode="&#x21a;" horiz-adv-x="811" 
d="M169 0v75h118v1250h-30q-62 0 -92.5 -26t-41 -83t-10.5 -150h-75v334h735v-334h-75q0 93 -10 150t-40.5 83t-92.5 26h-30v-1250h121v-75h-477zM398 -363l-42 48q10 4 32.5 19.5t28.5 30.5q-2 -1 -11 -1q-33 0 -56.5 23t-23.5 57q0 35 23.5 57.5t57.5 22.5q37 0 63 -23
t26 -70q0 -44 -17.5 -76.5t-40.5 -53.5t-40 -34z" />
    <glyph glyph-name="uni021B" unicode="&#x21b;" horiz-adv-x="564" 
d="M383 -18q-62 0 -117.5 20t-90.5 74t-35 156v740h-141v75h141q45 10 78.5 55t55 109.5t28.5 134.5h78v-299h164v-75h-164v-837q0 -41 19.5 -55.5t37.5 -14.5q19 0 34 7t23 15l42 -60q-26 -20 -63.5 -32.5t-89.5 -12.5zM347 -347l-42 48q10 4 32.5 19.5t28.5 30.5
q-2 -1 -11 -1q-33 0 -56.5 23t-23.5 57q0 35 23.5 57.5t57.5 22.5q37 0 63 -23t26 -70q0 -44 -17.5 -76.5t-40.5 -53.5t-40 -34z" />
    <glyph glyph-name="uni0229" unicode="&#x229;" horiz-adv-x="767" 
d="M403 -20q-78 0 -142.5 35.5t-110.5 105t-70.5 171.5t-24.5 235q0 142 31 243.5t82.5 165.5t112 94.5t117.5 30.5q69 0 126 -35t99 -99.5t65 -155t23 -202.5q0 -21 -0.5 -41t-2.5 -41h-426v75h200q0 148 -9.5 241t-28 137t-46.5 44t-51.5 -45t-37 -145.5t-13.5 -267.5
q0 -125 7 -214t23.5 -145t42.5 -82.5t64 -26.5q71 0 113 40t60 77l63 -45q-23 -55 -96 -102.5t-170 -47.5zM448 -323q-49 0 -93 11t-59 19l29 71q11 -7 45 -18t70 -11q31 0 53 16t22 44q0 31 -13.5 41t-34.5 10q-16 0 -31 -6t-26 -20l-70 4l60 162h75l-42 -106
q4 6 28.5 15.5t58.5 9.5q39 0 73.5 -24.5t34.5 -86.5q0 -43 -23.5 -72t-64 -44t-92.5 -15z" />
    <glyph glyph-name="uni022B" unicode="&#x22b;" horiz-adv-x="785" 
d="M390 -22q-60 0 -119.5 34t-108.5 102.5t-78 171.5t-29 241q0 150 30.5 253t80 164.5t108.5 89t116 27.5t116.5 -27.5t109.5 -89t81 -164.5t31 -253q0 -138 -29.5 -241t-78.5 -171.5t-109 -102.5t-121 -34zM390 64q45 0 70 109t25 354t-25 347t-70 102q-42 0 -67.5 -102
t-25.5 -347t25.5 -354t67.5 -109zM513 1132q-36 0 -62 26.5t-26 61.5q0 37 26 64.5t62 27.5q35 0 61.5 -27.5t26.5 -64.5q0 -35 -26.5 -61.5t-61.5 -26.5zM267 1132q-35 0 -60.5 26.5t-25.5 61.5q0 37 25.5 64.5t60.5 27.5q36 0 62.5 -27.5t26.5 -64.5q0 -35 -26.5 -61.5
t-62.5 -26.5zM154 1404v75h474v-75h-474z" />
    <glyph glyph-name="uni022D" unicode="&#x22d;" horiz-adv-x="785" 
d="M390 -22q-60 0 -119.5 34t-108.5 102.5t-78 171.5t-29 241q0 150 30.5 253t80 164.5t108.5 89t116 27.5t116.5 -27.5t109.5 -89t81 -164.5t31 -253q0 -138 -29.5 -241t-78.5 -171.5t-109 -102.5t-121 -34zM390 64q45 0 70 109t25 354t-25 347t-70 102q-42 0 -67.5 -102
t-25.5 -347t25.5 -354t67.5 -109zM477 1140q-40 0 -66 14t-46 27.5t-43 13.5q-33 0 -50.5 -15t-22.5 -24l-75 30q5 18 23.5 42.5t46 43t61.5 18.5q44 0 69 -13.5t45.5 -27t50.5 -13.5q32 0 46.5 14t18.5 24l74 -33q-4 -13 -21.5 -37t-45 -44t-65.5 -20zM123 1383v75h538v-75
h-538z" />
    <glyph glyph-name="uni0231" unicode="&#x231;" horiz-adv-x="785" 
d="M390 -22q-60 0 -119.5 34t-108.5 102.5t-78 171.5t-29 241q0 150 30.5 253t80 164.5t108.5 89t116 27.5t116.5 -27.5t109.5 -89t81 -164.5t31 -253q0 -138 -29.5 -241t-78.5 -171.5t-109 -102.5t-121 -34zM390 64q45 0 70 109t25 354t-25 347t-70 102q-42 0 -67.5 -102
t-25.5 -347t25.5 -354t67.5 -109zM392 1138q-36 0 -62.5 26.5t-26.5 60.5q0 37 26.5 63.5t62.5 26.5q34 0 60.5 -26.5t26.5 -63.5q0 -34 -26.5 -60.5t-60.5 -26.5zM124 1406v75h538v-75h-538z" />
    <glyph glyph-name="uni0233" unicode="&#x233;" horiz-adv-x="726" 
d="M220 -502q-49 0 -83.5 35.5t-51.5 95t-17 133.5q0 65 26 99t69 34q42 0 67 -29.5t25 -82.5q0 -41 -15.5 -66t-31 -46.5t-15.5 -52.5q0 -24 9.5 -41t28.5 -17q11 0 18 7t13 24t13 45l76 355l-255 981h-84v75h418v-75h-78l116 -480l102 480h-74v75h231v-75h-72l-224 -979
l-84 -374q-8 -37 -23.5 -64.5t-40 -42t-63.5 -14.5zM102 1137v75h538v-75h-538z" />
    <glyph glyph-name="uni0237" unicode="&#x237;" horiz-adv-x="530" 
d="M114 -498q-63 0 -110 34.5t-73.5 93.5t-26.5 133q0 65 30 99t74 34q41 0 63 -28.5t22 -81.5q0 -35 -9 -57t-19 -41t-10 -43q0 -19 4.5 -34t15 -23.5t25.5 -8.5q48 0 64 52t16 156v1185h-116v75h356v-1098q0 -134 -28 -221t-73.5 -136.5t-99.5 -69.5t-105 -20z" />
    <glyph glyph-name="uni0244" unicode="&#x244;" horiz-adv-x="832" 
d="M80 829v75h697v-75h-697zM437 -24q-49 0 -102.5 14.5t-98.5 53t-73 109.5t-28 184v988h-99v75h450v-75h-108v-996q0 -139 30 -200t91 -61q24 0 45 10.5t37.5 36.5t26 71.5t9.5 115.5v1023h-87v75h258v-75h-95v-1031q0 -121 -31 -190.5t-88.5 -98.5t-136.5 -29z" />
    <glyph glyph-name="uni0259" unicode="&#x259;" horiz-adv-x="771" 
d="M67 1046h73q0 -33 7 -49t21 -16l8 -95h-109v160zM366 1067q79 0 143 -36t110 -105.5t70.5 -171.5t24.5 -234q0 -143 -31 -244.5t-82.5 -165.5t-112 -94t-117.5 -30q-69 0 -126 34.5t-99 99t-65 155t-23 202.5q0 21 1 41t2 41h426v-75h-200q0 -147 9.5 -240t28 -137.5
t46.5 -44.5t51.5 45t37 146t13.5 267q0 125 -7 214t-23.5 145.5t-42.5 82.5t-64 26q-71 0 -113 -40t-60 -77l-63 45q23 56 96 103.5t170 47.5z" />
    <glyph glyph-name="uni0289" unicode="&#x289;" horiz-adv-x="926" 
d="M40 593v75h807v-75h-807zM358 -22q-65 0 -119 25.5t-86 95t-32 203.5v670h-103v74h343v-717q0 -96 7 -146.5t23 -69t41 -18.5q28 0 50 29t34 84t12 134v630h-91v74h331v-971h88v-75h-298l-15 102q-5 -23 -28.5 -52t-63 -50.5t-93.5 -21.5z" />
    <glyph glyph-name="uni02BC" unicode="&#x2bc;" horiz-adv-x="547" 
d="M271 1156l-59 69q14 6 46 27.5t41 44.5q-2 -1 -6 -2t-10 -1q-47 0 -81 34t-34 83t34.5 82t81.5 33q54 0 91.5 -34t37.5 -100q0 -64 -25 -110.5t-58.5 -77.5t-58.5 -48z" />
    <glyph glyph-name="circumflex" unicode="&#x2c6;" horiz-adv-x="699" 
d="M205 1269l148 203h70l146 -203h-89l-93 131l-94 -131h-88z" />
    <glyph glyph-name="caron" unicode="&#x2c7;" horiz-adv-x="697" 
d="M353 1259l-170 224h97l107 -152l107 152h98l-169 -224h-70z" />
    <glyph glyph-name="uni02C9" unicode="&#x2c9;" horiz-adv-x="930" 
d="M233 1353v75h603v-75h-603z" />
    <glyph glyph-name="breve" unicode="&#x2d8;" horiz-adv-x="701" 
d="M349 1262q-64 0 -103 29t-57 74.5t-18 93.5h74q5 -63 33 -92.5t71 -29.5q44 0 72 29.5t32 92.5h75q0 -48 -18 -93.5t-57.5 -74.5t-103.5 -29z" />
    <glyph glyph-name="dotaccent" unicode="&#x2d9;" horiz-adv-x="664" 
d="M313 1305q-37 0 -63 26.5t-26 60.5q0 37 26 63.5t63 26.5q34 0 60 -26.5t26 -63.5q0 -34 -26 -60.5t-60 -26.5z" />
    <glyph glyph-name="ring" unicode="&#x2da;" horiz-adv-x="490" 
d="M252 1144q-44 0 -77.5 32.5t-33.5 85.5q0 55 33.5 86.5t77.5 31.5q43 0 75.5 -31.5t32.5 -86.5q0 -53 -32.5 -85.5t-75.5 -32.5zM252 1204q24 0 35 18.5t11 41.5q0 19 -11 37.5t-35 18.5q-25 0 -36.5 -18.5t-11.5 -37.5q0 -23 11.5 -41.5t36.5 -18.5z" />
    <glyph glyph-name="ogonek" unicode="&#x2db;" horiz-adv-x="650" 
d="M347 -306q-44 0 -82 14.5t-61 46t-23 79.5q0 54 25 91.5t57.5 61.5t56.5 38l31 -25q-22 -26 -41.5 -58t-19.5 -80q0 -43 29.5 -56.5t55.5 -13.5q25 0 50 6.5t42 17.5l37 -69q-25 -23 -66.5 -38t-90.5 -15z" />
    <glyph glyph-name="tilde" unicode="&#x2dc;" horiz-adv-x="710" 
d="M435 1287q-40 0 -66.5 14t-47.5 27.5t-43 13.5q-34 0 -52 -15t-23 -24l-74 28q6 18 25 43t47 44t62 19q44 0 69 -13.5t46 -27.5t51 -14q34 0 48.5 14t19.5 25l72 -30q-3 -14 -21 -38.5t-46.5 -45t-66.5 -20.5z" />
    <glyph glyph-name="hungarumlaut" unicode="&#x2dd;" horiz-adv-x="970" 
d="M345 1221l-53 54l127 146q20 31 43.5 33.5t39 -13.5t14.5 -40t-32 -45zM494 1221l-52 54l124 146q21 31 44.5 33.5t40 -13.5t14.5 -40t-31 -45z" />
    <glyph glyph-name="gravecomb" unicode="&#x300;" 
d="M365 1104l-206 100q-29 14 -43.5 28.5t-14.5 40.5q0 24 17.5 39t43.5 15q21 0 35 -8t29 -20l180 -147z" />
    <glyph glyph-name="acutecomb" unicode="&#x301;" 
d="M210 1095l-54 58l187 141q15 11 29.5 18t27.5 7q18 0 31.5 -9t20.5 -22q7 -12 7 -27q0 -19 -14 -35.5t-41 -27.5z" />
    <glyph glyph-name="uni0302" unicode="&#x302;" 
d="M165 1118l148 203h70l146 -203h-89l-93 131l-94 -131h-88z" />
    <glyph glyph-name="tildecomb" unicode="&#x303;" 
d="M435 1139q-40 0 -66 14t-46 27.5t-43 13.5q-33 0 -50.5 -15t-22.5 -24l-75 30q5 18 23.5 42.5t46 43t61.5 18.5q44 0 69 -13.5t45.5 -27t50.5 -13.5q32 0 46.5 14t18.5 24l74 -33q-4 -13 -21.5 -37t-45 -44t-65.5 -20z" />
    <glyph glyph-name="uni0304" unicode="&#x304;" 
d="M273 1137v75h538v-75h-538z" />
    <glyph glyph-name="uni0306" unicode="&#x306;" 
d="M347 1102q-64 0 -103 29.5t-57 75t-18 93.5h74q5 -64 33 -93.5t71 -29.5q44 0 72 29.5t32 93.5h75q0 -48 -18 -93.5t-57.5 -75t-103.5 -29.5z" />
    <glyph glyph-name="uni0307" unicode="&#x307;" 
d="M309 1137q-36 0 -62.5 26.5t-26.5 60.5q0 37 26.5 63.5t62.5 26.5q34 0 60.5 -26.5t26.5 -63.5q0 -34 -26.5 -60.5t-60.5 -26.5z" />
    <glyph glyph-name="uni0308" unicode="&#x308;" 
d="M525 1132q-36 0 -62 26.5t-26 61.5q0 37 26 64.5t62 27.5q35 0 61.5 -27.5t26.5 -64.5q0 -35 -26.5 -61.5t-61.5 -26.5zM279 1132q-35 0 -60.5 26.5t-25.5 61.5q0 37 25.5 64.5t60.5 27.5q36 0 62.5 -27.5t26.5 -64.5q0 -35 -26.5 -61.5t-62.5 -26.5z" />
    <glyph glyph-name="hookabovecomb" unicode="&#x309;" 
d="M296 1416q59 0 102.5 -24t43.5 -86q0 -44 -27 -71.5t-54 -48.5t-27 -49h-63q0 42 16 68.5t31 48t15 47.5t-13 36.5t-38 10.5t-42.5 -7.5t-31.5 -20.5l-51 48q19 20 57 34t82 14z" />
    <glyph glyph-name="uni030A" unicode="&#x30a;" 
d="M252 1098q-44 0 -77.5 32.5t-33.5 85.5q0 55 33.5 86.5t77.5 31.5q43 0 75.5 -31.5t32.5 -86.5q0 -53 -32.5 -85.5t-75.5 -32.5zM252 1158q24 0 35 18.5t11 41.5q0 19 -11 37.5t-35 18.5q-25 0 -36.5 -18.5t-11.5 -37.5q0 -23 11.5 -41.5t36.5 -18.5z" />
    <glyph glyph-name="uni030B" unicode="&#x30b;" 
d="M345 1117l-53 54l126 146q14 17 26.5 25.5t24.5 8.5q19 0 33 -14t14 -34q0 -28 -32 -51zM494 1117l-52 54l123 146q14 17 27 25.5t26 8.5q19 0 33 -14.5t14 -33.5q0 -29 -31 -51z" />
    <glyph glyph-name="uni030C" unicode="&#x30c;" 
d="M315 1108l-169 224h96l107 -152l107 152h99l-170 -224h-70z" />
    <glyph glyph-name="uni030F" unicode="&#x30f;" 
d="M450 1104l-160 163q-17 17 -26 31.5t-9 30.5q0 28 17 43.5t40 15.5q28 0 45.5 -16.5t29.5 -37.5l117 -200zM244 1104l-160 163q-17 18 -26 32t-9 30q0 28 17 43.5t40 15.5q29 0 46 -16.5t29 -37.5l117 -200z" />
    <glyph glyph-name="uni0311" unicode="&#x311;" 
d="M340 1315q64 0 103.5 -29t57.5 -74.5t18 -93.5h-75q-4 64 -32 93t-72 29q-43 0 -71 -29t-33 -93h-74q0 48 18 93.5t57 74.5t103 29z" />
    <glyph glyph-name="uni0312" unicode="&#x312;" 
d="M255 1368l42 -41q-10 -4 -35 -24.5t-31 -35.5q5 4 15 4q34 0 57 -23t23 -57t-23.5 -57t-56.5 -23q-37 0 -64 23t-27 70q0 45 17.5 77t41 53.5t41.5 33.5z" />
    <glyph glyph-name="uni031B" unicode="&#x31b;" 
d="M236 971v75q44 0 80.5 11.5t36.5 58.5q0 19 -8 44t-8 45q0 35 18 55t53 20t52.5 -19.5t17.5 -55.5q0 -93 -40 -143.5t-96 -70.5t-106 -20z" />
    <glyph glyph-name="dotbelowcomb" unicode="&#x323;" 
d="M309 -269q-36 0 -62.5 26t-26.5 61q0 37 26.5 63.5t62.5 26.5q34 0 60.5 -26.5t26.5 -63.5q0 -35 -26.5 -61t-60.5 -26z" />
    <glyph glyph-name="uni0324" unicode="&#x324;" 
d="M424 -266q-37 0 -63 26.5t-26 60.5q0 38 26 65t63 27q35 0 61.5 -27t26.5 -65q0 -34 -26.5 -60.5t-61.5 -26.5zM177 -266q-34 0 -60 26.5t-26 60.5q0 38 26 65t60 27q37 0 63.5 -27t26.5 -65q0 -34 -26.5 -60.5t-63.5 -26.5z" />
    <glyph glyph-name="uni0326" unicode="&#x326;" 
d="M213 -363l-42 48q10 4 32.5 19.5t28.5 30.5q-2 -1 -11 -1q-33 0 -56.5 23t-23.5 57q0 35 23.5 57.5t57.5 22.5q37 0 63 -23t26 -70q0 -44 -17.5 -76.5t-40.5 -53.5t-40 -34z" />
    <glyph glyph-name="uni0327" unicode="&#x327;" 
d="M305 -323q-50 0 -93.5 11t-58.5 19l29 71q10 -7 44.5 -18t70.5 -11q31 0 53 16t22 44q0 31 -14 41t-34 10q-16 0 -31 -6t-26 -20l-70 4l60 162h75l-43 -106q5 6 29 15.5t59 9.5q39 0 73.5 -24.5t34.5 -86.5q0 -43 -23.5 -72t-64.5 -44t-92 -15z" />
    <glyph glyph-name="uni0328" unicode="&#x328;" 
d="M347 -306q-44 0 -82 14.5t-61 46t-23 79.5q0 54 25 91.5t57.5 61.5t56.5 38l31 -25q-22 -26 -41.5 -58t-19.5 -80q0 -43 29.5 -56.5t55.5 -13.5q25 0 50 6.5t42 17.5l37 -69q-25 -23 -66.5 -38t-90.5 -15z" />
    <glyph glyph-name="uni032E" unicode="&#x32e;" 
d="M269 -302q-64 0 -103 29.5t-57 75t-18 93.5h74q5 -64 33 -93.5t71 -29.5t71.5 29.5t32.5 93.5h74q0 -48 -17.5 -93.5t-57 -75t-103.5 -29.5z" />
    <glyph glyph-name="uni0331" unicode="&#x331;" 
d="M225 -206v60h604v-60h-604z" />
    <glyph glyph-name="uni0335" unicode="&#x335;" 
d="M105 525v75h502v-75h-502z" />
    <glyph glyph-name="uni0336" unicode="&#x336;" 
d="M105 525v75h502v-75h-502z" />
    <glyph glyph-name="uni0337" unicode="&#x337;" 
d="M36 -104l492 1608h77l-490 -1608h-79z" />
    <glyph glyph-name="uni0338" unicode="&#x338;" 
d="M36 -104l492 1608h77l-490 -1608h-79z" />
    <glyph glyph-name="uni1E05" unicode="&#x1e05;" horiz-adv-x="849" 
d="M492 -20q-51 0 -82.5 23.5t-46.5 55.5t-18 54l-23 -113h-306v75h103v1350h-103v75h347v-543q4 12 18.5 37t45 45.5t81.5 20.5q71 0 133.5 -55.5t101.5 -175.5t39 -311q0 -205 -41.5 -322.5t-107.5 -166.5t-141 -49zM443 116q27 0 45.5 26t30 77t17 125.5t5.5 170.5
q0 95 -5 168.5t-16.5 125t-29.5 78.5t-46 27q-22 0 -39 -23.5t-27.5 -63t-14.5 -89.5v-372q1 -65 12.5 -122.5t29.5 -92.5t38 -35zM420 -269q-36 0 -62.5 26t-26.5 61q0 37 26.5 63.5t62.5 26.5q34 0 60.5 -26.5t26.5 -63.5q0 -35 -26.5 -61t-60.5 -26z" />
    <glyph glyph-name="uni1E08" unicode="&#x1e08;" horiz-adv-x="730" 
d="M433 -20q-163 0 -265 186t-102 532q0 135 23 264t70 233t118 165.5t166 61.5q65 0 116 -43t79.5 -106.5t28.5 -125.5q0 -58 -22.5 -95.5t-71.5 -37.5q-54 0 -76.5 30t-22.5 81q0 36 15 59t30 45t15 54q0 34 -13.5 47.5t-35.5 13.5q-37 0 -64.5 -42.5t-46.5 -113
t-30 -155.5t-16.5 -172t-5.5 -161q0 -111 6.5 -209t18.5 -178t30 -137.5t41.5 -89t52.5 -31.5q37 0 60 21t38 57t26 80l63 -37q-19 -57 -48.5 -101t-72 -69.5t-104.5 -25.5zM445 -323q-49 0 -93 11t-59 19l29 71q11 -7 45 -18t70 -11q31 0 53 16t22 44q0 31 -13.5 41
t-34.5 10q-16 0 -31 -6t-26 -20l-70 4l60 162h75l-42 -106q4 6 28.5 15.5t58.5 9.5q39 0 73.5 -24.5t34.5 -86.5q0 -43 -23.5 -72t-64 -44t-92.5 -15zM322 1462l-54 57l187 141q15 11 29.5 18t27.5 7q18 0 31.5 -9t20.5 -22q7 -12 7 -26q0 -19 -14 -36t-41 -28z" />
    <glyph glyph-name="uni1E09" unicode="&#x1e09;" horiz-adv-x="697" 
d="M300 1086l-54 58l187 141q15 11 29.5 18t27.5 7q18 0 31.5 -9t20.5 -22q7 -12 7 -27q0 -19 -14 -35.5t-41 -27.5zM401 -21q-71 0 -133.5 37.5t-111 109t-75.5 173.5t-27 230q0 144 35.5 245.5t90 164.5t116.5 92.5t113 29.5q77 0 132 -40.5t84 -105.5t29 -139
q0 -62 -26.5 -95t-67.5 -33q-43 0 -70.5 28.5t-27.5 76.5q0 31 12 50l24 38t12 49q0 47 -26 70.5t-60 23.5q-38 0 -62 -43t-37 -111t-17.5 -146t-4.5 -148q0 -81 6 -164.5t20.5 -153.5t42.5 -113t73 -43q57 0 88 34t46 76l57 -49q-21 -54 -80 -99t-155 -45zM438 -322
q-49 0 -92.5 11t-58.5 19l28 70q11 -7 45.5 -18t70.5 -11q31 0 53 16t22 44q0 32 -14 42t-34 10q-16 0 -31 -6.5t-26 -20.5l-71 4l60 163h75l-42 -107q4 6 28.5 15.5t59.5 9.5q39 0 73.5 -24.5t34.5 -86.5q0 -43 -23.5 -72t-64.5 -43.5t-93 -14.5z" />
    <glyph glyph-name="uni1E0D" unicode="&#x1e0d;" horiz-adv-x="857" 
d="M354 -20q-74 0 -140.5 49t-108.5 166.5t-42 322.5q0 191 40 311t103 175.5t132 55.5q56 0 87 -18t44 -40.5t16 -34.5v457h-121v76h366v-1425h115v-75h-318l-24 115q-2 -27 -19.5 -58.5t-50 -54t-79.5 -22.5zM401 116q26 0 43.5 34.5t28.5 88.5t12 112v387q-3 51 -14 92
t-28.5 64.5t-41.5 23.5q-23 0 -41.5 -28.5t-30.5 -81t-18.5 -126.5t-6.5 -167q0 -94 6 -168.5t18 -125.5t30 -78t43 -27zM431 -269q-36 0 -62.5 26t-26.5 61q0 37 26.5 63.5t62.5 26.5q34 0 60.5 -26.5t26.5 -63.5q0 -35 -26.5 -61t-60.5 -26z" />
    <glyph glyph-name="uni1E0F" unicode="&#x1e0f;" horiz-adv-x="857" 
d="M354 -20q-74 0 -140.5 49t-108.5 166.5t-42 322.5q0 191 40 311t103 175.5t132 55.5q56 0 87 -18t44 -40.5t16 -34.5v457h-121v76h366v-1425h115v-75h-318l-24 115q-2 -27 -19.5 -58.5t-50 -54t-79.5 -22.5zM401 116q26 0 43.5 34.5t28.5 88.5t12 112v387q-3 51 -14 92
t-28.5 64.5t-41.5 23.5q-23 0 -41.5 -28.5t-30.5 -81t-18.5 -126.5t-6.5 -167q0 -94 6 -168.5t18 -125.5t30 -78t43 -27zM111 -252v75h538v-75h-538z" />
    <glyph glyph-name="uni1E15" unicode="&#x1e15;" horiz-adv-x="767" 
d="M403 -20q-78 0 -142.5 35.5t-110.5 105t-70.5 171.5t-24.5 235q0 142 31 243.5t82.5 165.5t112 94.5t117.5 30.5q69 0 126 -34.5t99 -96t65 -146t23 -185.5q0 -21 -0.5 -41t-2.5 -41h-426v75h200q0 148 -9.5 233.5t-28 122t-46.5 36.5t-51.5 -37.5t-37 -130.5t-13.5 -260
q0 -125 7 -217.5t23.5 -153.5t42.5 -90.5t64 -29.5q71 0 113 36.5t60 73.5l63 -45q-23 -55 -96 -102.5t-170 -47.5zM125 1138v75h538v-75h-538zM497 1271l-206 100q-29 14 -43.5 28.5t-14.5 40.5q0 24 17.5 39t43.5 15q21 0 35 -8t29 -20l180 -147z" />
    <glyph glyph-name="uni1E17" unicode="&#x1e17;" horiz-adv-x="767" 
d="M403 -20q-78 0 -142.5 35.5t-110.5 105t-70.5 171.5t-24.5 235q0 142 31 243.5t82.5 165.5t112 94.5t117.5 30.5q69 0 126 -34.5t99 -96t65 -146t23 -185.5q0 -21 -0.5 -41t-2.5 -41h-426v75h200q0 148 -9.5 233.5t-28 122t-46.5 36.5t-51.5 -37.5t-37 -130.5t-13.5 -260
q0 -125 7 -217.5t23.5 -153.5t42.5 -90.5t64 -29.5q71 0 113 36.5t60 73.5l63 -45q-23 -55 -96 -102.5t-170 -47.5zM125 1138v75h538v-75h-538zM291 1253l-54 58l187 141q15 11 29.5 18t27.5 7q18 0 31.5 -9t20.5 -22q7 -12 7 -27q0 -19 -14 -35.5t-41 -27.5z" />
    <glyph glyph-name="uni1E1D" unicode="&#x1e1d;" horiz-adv-x="767" 
d="M391 1103q-64 0 -103 29.5t-57 75t-18 93.5h74q5 -64 33 -93.5t71 -29.5q44 0 72 29.5t32 93.5h75q0 -48 -18 -93.5t-57.5 -75t-103.5 -29.5zM403 -20q-78 0 -142.5 35.5t-110.5 105t-70.5 171.5t-24.5 235q0 142 31 243.5t82.5 165.5t112 94.5t117.5 30.5q69 0 126 -35
t99 -99.5t65 -155t23 -202.5q0 -21 -0.5 -41t-2.5 -41h-426v75h200q0 148 -9.5 241t-28 137t-46.5 44t-51.5 -45t-37 -145.5t-13.5 -267.5q0 -125 7 -214t23.5 -145t42.5 -82.5t64 -26.5q71 0 113 40t60 77l63 -45q-23 -55 -96 -102.5t-170 -47.5zM448 -323q-49 0 -93 11
t-59 19l29 71q11 -7 45 -18t70 -11q31 0 53 16t22 44q0 31 -13.5 41t-34.5 10q-16 0 -31 -6t-26 -20l-70 4l60 162h75l-42 -106q4 6 28.5 15.5t58.5 9.5q39 0 73.5 -24.5t34.5 -86.5q0 -43 -23.5 -72t-64 -44t-92.5 -15z" />
    <glyph glyph-name="uni1E21" unicode="&#x1e21;" horiz-adv-x="843" 
d="M411 -498q-91 0 -173.5 29.5t-134.5 88t-52 148.5q0 66 25 111t59.5 71t63 38.5t35.5 14.5q-7 2 -29 11t-48 28.5t-45 52.5t-19 82q0 36 13.5 62t33 42.5t39.5 22.5q4 2 11.5 4t10.5 1q-6 5 -24.5 25t-40.5 58.5t-37.5 99.5t-15.5 147q0 119 32.5 199.5t83.5 129.5
t107.5 71t105.5 22q102 0 174 -52t111 -144t39 -214q0 -128 -32.5 -210.5t-83.5 -128.5t-107.5 -63.5t-103.5 -17.5q-58 0 -93.5 12t-44.5 15q-1 1 -1.5 1h-2.5q-13 0 -26.5 -14.5t-13.5 -40.5q0 -37 48 -64t181 -51q153 -27 238 -94.5t85 -205.5q0 -83 -36.5 -139
t-93.5 -88.5t-120.5 -46t-117.5 -13.5zM411 -425q68 0 109.5 50t41.5 116q0 70 -20 108.5t-75 66.5q-20 11 -44.5 22.5t-46.5 20.5t-35 13q-20 -11 -41 -36.5t-35.5 -66t-14.5 -98.5t19 -102t55 -69t87 -25zM409 309q23 0 42.5 22.5t32 94.5t12.5 221q0 143 -12.5 214.5
t-32 96t-41.5 24.5t-42 -24.5t-32.5 -97.5t-12.5 -217q0 -148 13 -219t32.5 -93t40.5 -22zM528 983q11 72 67.5 113t119.5 41q53 0 75 -26t22 -65q0 -38 -21 -59t-53 -21t-45.5 14.5t-22.5 28.5t-32 14q-13 0 -23.5 -8t-10.5 -34zM141 1138v75h538v-75h-538z" />
    <glyph glyph-name="uni1E25" unicode="&#x1e25;" horiz-adv-x="910" 
d="M32 0v75h104v1350h-104v75h344v-544q1 7 22 33t62 49t100 23q63 0 114 -30.5t81.5 -104t30.5 -201.5v-650h103v-75h-413v75h70v638q0 116 -18 159t-53 43q-24 0 -46 -20.5t-36.5 -60.5t-16.5 -99v-660h74v-75h-418zM457 -269q-36 0 -62.5 26t-26.5 61q0 37 26.5 63.5
t62.5 26.5q34 0 60.5 -26.5t26.5 -63.5q0 -35 -26.5 -61t-60.5 -26z" />
    <glyph glyph-name="uni1E2B" unicode="&#x1e2b;" horiz-adv-x="910" 
d="M32 0v75h104v1350h-104v75h344v-544q1 7 22 33t62 49t100 23q63 0 114 -30.5t81.5 -104t30.5 -201.5v-650h103v-75h-413v75h70v638q0 116 -18 159t-53 43q-24 0 -46 -20.5t-36.5 -60.5t-16.5 -99v-660h74v-75h-418zM457 -302q-64 0 -103 29.5t-57 75t-18 93.5h74
q5 -64 33 -93.5t71 -29.5t71.5 29.5t32.5 93.5h74q0 -48 -17.5 -93.5t-57 -75t-103.5 -29.5z" />
    <glyph glyph-name="uni1E2F" unicode="&#x1e2f;" horiz-adv-x="500" 
d="M29 0v75h102v897h-102v75h342v-972h103v-75h-445zM374 1132q-36 0 -62 26.5t-26 61.5q0 37 26 64.5t62 27.5q35 0 61.5 -27.5t26.5 -64.5q0 -35 -26.5 -61.5t-61.5 -26.5zM128 1132q-35 0 -60.5 26.5t-25.5 61.5q0 37 25.5 64.5t60.5 27.5q36 0 62.5 -27.5t26.5 -64.5
q0 -35 -26.5 -61.5t-62.5 -26.5zM149 1351l-54 58l187 141q15 11 29.5 18t27.5 7q18 0 31.5 -9t20.5 -22q7 -12 7 -27q0 -19 -14 -35.5t-41 -27.5z" />
    <glyph glyph-name="uni1E37" unicode="&#x1e37;" horiz-adv-x="515" 
d="M33 0v75h105v1350h-105v75h345v-1425h106v-75h-451zM260 -269q-36 0 -62.5 26t-26.5 61q0 37 26.5 63.5t62.5 26.5q34 0 60.5 -26.5t26.5 -63.5q0 -35 -26.5 -61t-60.5 -26z" />
    <glyph glyph-name="uni1E3B" unicode="&#x1e3b;" horiz-adv-x="515" 
d="M33 0v75h105v1350h-105v75h345v-1425h106v-75h-451zM-42 -206v60h604v-60h-604z" />
    <glyph glyph-name="uni1E3F" unicode="&#x1e3f;" horiz-adv-x="1249" 
d="M29 0v75h98v897h-98v75h331v-109q1 14 22 43.5t62.5 54t102.5 24.5q59 0 96.5 -27.5t57 -61t24.5 -52.5q6 26 34.5 59t75 57.5t105.5 24.5q95 0 150 -74.5t55 -193.5v-717h94v-75h-403v75h69v626q0 78 -4 128.5t-18 75t-43 24.5q-31 0 -49.5 -24.5t-28 -67.5t-10.5 -99
v-663h70v-75h-374v75h67v626q0 117 -10 172.5t-54 55.5q-30 0 -48.5 -25t-26.5 -71t-9 -110v-648h66v-75h-404zM535 1086l-54 58l187 141q15 11 29.5 18t27.5 7q18 0 31.5 -9t20.5 -22q7 -12 7 -27q0 -19 -14 -35.5t-41 -27.5z" />
    <glyph glyph-name="uni1E43" unicode="&#x1e43;" horiz-adv-x="1249" 
d="M29 0v75h98v897h-98v75h331v-109q1 14 22 43.5t62.5 54t102.5 24.5q59 0 96.5 -27.5t57 -61t24.5 -52.5q6 26 34.5 59t75 57.5t105.5 24.5q95 0 150 -74.5t55 -193.5v-717h94v-75h-403v75h69v626q0 78 -4 128.5t-18 75t-43 24.5q-31 0 -49.5 -24.5t-28 -67.5t-10.5 -99
v-663h70v-75h-374v75h67v626q0 117 -10 172.5t-54 55.5q-30 0 -48.5 -25t-26.5 -71t-9 -110v-648h66v-75h-404zM638 -269q-36 0 -62.5 26t-26.5 61q0 37 26.5 63.5t62.5 26.5q34 0 60.5 -26.5t26.5 -63.5q0 -35 -26.5 -61t-60.5 -26z" />
    <glyph glyph-name="uni1E45" unicode="&#x1e45;" horiz-adv-x="903" 
d="M32 0v75h107v897h-107v75h340v-100q3 13 24.5 40.5t61.5 50.5t96 23q62 0 112.5 -27t80.5 -98.5t30 -205.5v-655h105v-75h-417v75h72v651q0 105 -15.5 153.5t-51.5 48.5q-20 0 -36 -13.5t-28 -38.5t-19 -59t-8 -75v-667h69v-75h-416zM462 1138q-36 0 -62.5 26.5
t-26.5 60.5q0 37 26.5 63.5t62.5 26.5q34 0 60.5 -26.5t26.5 -63.5q0 -34 -26.5 -60.5t-60.5 -26.5z" />
    <glyph glyph-name="uni1E47" unicode="&#x1e47;" horiz-adv-x="903" 
d="M32 0v75h107v897h-107v75h340v-100q3 13 24.5 40.5t61.5 50.5t96 23q62 0 112.5 -27t80.5 -98.5t30 -205.5v-655h105v-75h-417v75h72v651q0 105 -15.5 153.5t-51.5 48.5q-20 0 -36 -13.5t-28 -38.5t-19 -59t-8 -75v-667h69v-75h-416zM462 -269q-36 0 -62.5 26t-26.5 61
q0 37 26.5 63.5t62.5 26.5q34 0 60.5 -26.5t26.5 -63.5q0 -35 -26.5 -61t-60.5 -26z" />
    <glyph glyph-name="uni1E49" unicode="&#x1e49;" horiz-adv-x="903" 
d="M32 0v75h107v897h-107v75h340v-100q3 13 24.5 40.5t61.5 50.5t96 23q62 0 112.5 -27t80.5 -98.5t30 -205.5v-655h105v-75h-417v75h72v651q0 105 -15.5 153.5t-51.5 48.5q-20 0 -36 -13.5t-28 -38.5t-19 -59t-8 -75v-667h69v-75h-416zM159 -206v60h604v-60h-604z" />
    <glyph glyph-name="uni1E4D" unicode="&#x1e4d;" horiz-adv-x="785" 
d="M390 -22q-60 0 -119.5 34t-108.5 102.5t-78 171.5t-29 241q0 150 30.5 253t80 164.5t108.5 89t116 27.5t116.5 -27.5t109.5 -89t81 -164.5t31 -253q0 -138 -29.5 -241t-78.5 -171.5t-109 -102.5t-121 -34zM390 64q45 0 70 109t25 354t-25 347t-70 102q-42 0 -67.5 -102
t-25.5 -347t25.5 -354t67.5 -109zM477 1140q-40 0 -66 14t-46 27.5t-43 13.5q-33 0 -50.5 -15t-22.5 -24l-75 30q5 18 23.5 42.5t46 43t61.5 18.5q44 0 69 -13.5t45.5 -27t50.5 -13.5q32 0 46.5 14t18.5 24l74 -33q-4 -13 -21.5 -37t-45 -44t-65.5 -20zM288 1330l-54 58
l187 141q15 11 29.5 18t27.5 7q18 0 31.5 -9t20.5 -22q7 -12 7 -27q0 -19 -14 -35.5t-41 -27.5z" />
    <glyph glyph-name="uni1E4F" unicode="&#x1e4f;" horiz-adv-x="785" 
d="M390 -22q-60 0 -119.5 34t-108.5 102.5t-78 171.5t-29 241q0 150 30.5 253t80 164.5t108.5 89t116 27.5t116.5 -27.5t109.5 -89t81 -164.5t31 -253q0 -138 -29.5 -241t-78.5 -171.5t-109 -102.5t-121 -34zM390 64q45 0 70 109t25 354t-25 347t-70 102q-42 0 -67.5 -102
t-25.5 -347t25.5 -354t67.5 -109zM477 1140q-40 0 -66 14t-46 27.5t-43 13.5q-33 0 -50.5 -15t-22.5 -24l-75 30q5 18 23.5 42.5t46 43t61.5 18.5q44 0 69 -13.5t45.5 -27t50.5 -13.5q32 0 46.5 14t18.5 24l74 -33q-4 -13 -21.5 -37t-45 -44t-65.5 -20zM513 1377
q-36 0 -62 26.5t-26 61.5q0 37 26 64.5t62 27.5q35 0 61.5 -27.5t26.5 -64.5q0 -35 -26.5 -61.5t-61.5 -26.5zM267 1377q-35 0 -60.5 26.5t-25.5 61.5q0 37 25.5 64.5t60.5 27.5q36 0 62.5 -27.5t26.5 -64.5q0 -35 -26.5 -61.5t-62.5 -26.5z" />
    <glyph glyph-name="uni1E51" unicode="&#x1e51;" horiz-adv-x="785" 
d="M390 -22q-60 0 -119.5 34t-108.5 102.5t-78 171.5t-29 241q0 150 30.5 253t80 164.5t108.5 89t116 27.5t116.5 -27.5t109.5 -89t81 -164.5t31 -253q0 -138 -29.5 -241t-78.5 -171.5t-109 -102.5t-121 -34zM390 64q45 0 70 109t25 354t-25 347t-70 102q-42 0 -67.5 -102
t-25.5 -347t25.5 -354t67.5 -109zM154 1138v75h474v-75h-474zM495 1272l-206 100q-29 14 -43.5 28.5t-14.5 40.5q0 24 17.5 39t43.5 15q21 0 35 -8t29 -20l180 -147z" />
    <glyph glyph-name="uni1E53" unicode="&#x1e53;" horiz-adv-x="785" 
d="M390 -22q-60 0 -119.5 34t-108.5 102.5t-78 171.5t-29 241q0 150 30.5 253t80 164.5t108.5 89t116 27.5t116.5 -27.5t109.5 -89t81 -164.5t31 -253q0 -138 -29.5 -241t-78.5 -171.5t-109 -102.5t-121 -34zM390 64q45 0 70 109t25 354t-25 347t-70 102q-42 0 -67.5 -102
t-25.5 -347t25.5 -354t67.5 -109zM154 1138v75h474v-75h-474zM288 1253l-54 58l187 141q15 11 29.5 18t27.5 7q18 0 31.5 -9t20.5 -22q7 -12 7 -27q0 -19 -14 -35.5t-41 -27.5z" />
    <glyph glyph-name="uni1E5B" unicode="&#x1e5b;" horiz-adv-x="715" 
d="M26 0v75h107v897h-107v75h323l15 -89q5 15 25 39.5t52.5 44t73.5 19.5q59 0 96.5 -37.5t55.5 -100.5t18 -139q0 -66 -25.5 -101t-69.5 -35q-41 0 -66.5 29.5t-25.5 81.5q0 34 14 54.5t27.5 40t13.5 50.5q0 37 -13.5 54t-42.5 17t-58 -29t-47.5 -85.5t-18.5 -138.5v-647
h105v-75h-452zM294 -269q-36 0 -62.5 26t-26.5 61q0 37 26.5 63.5t62.5 26.5q34 0 60.5 -26.5t26.5 -63.5q0 -35 -26.5 -61t-60.5 -26z" />
    <glyph glyph-name="uni1E5F" unicode="&#x1e5f;" horiz-adv-x="715" 
d="M26 0v75h107v897h-107v75h323l15 -89q5 15 25 39.5t52.5 44t73.5 19.5q59 0 96.5 -37.5t55.5 -100.5t18 -139q0 -66 -25.5 -101t-69.5 -35q-41 0 -66.5 29.5t-25.5 81.5q0 34 14 54.5t27.5 40t13.5 50.5q0 37 -13.5 54t-42.5 17t-58 -29t-47.5 -85.5t-18.5 -138.5v-647
h105v-75h-452zM-9 -206v60h604v-60h-604z" />
    <glyph glyph-name="uni1E61" unicode="&#x1e61;" horiz-adv-x="610" 
d="M313 -22q-59 0 -89.5 14.5t-46.5 29t-32 14.5q-14 0 -19 -9t-5 -27h-69v327h81q6 -54 20.5 -103t36.5 -87.5t52.5 -61t66.5 -22.5q33 0 53 13t29 36t9 52q0 43 -18 84.5t-52 85.5t-83 94q-80 82 -136 168t-56 212q0 93 35.5 150.5t92 85t119.5 27.5q44 0 70.5 -12
t43 -24.5t27.5 -12.5q9 0 14.5 8t5.5 27h71v-318h-81q-3 46 -14 91t-29.5 82t-44 59.5t-59.5 22.5q-48 0 -71 -36t-23 -83q0 -57 39.5 -108.5t111.5 -120.5q52 -51 97 -107.5t72 -124.5t27 -154q0 -96 -31 -156t-86.5 -88t-128.5 -28zM320 1138q-36 0 -62.5 26.5t-26.5 60.5
q0 37 26.5 63.5t62.5 26.5q34 0 60.5 -26.5t26.5 -63.5q0 -34 -26.5 -60.5t-60.5 -26.5z" />
    <glyph glyph-name="uni1E63" unicode="&#x1e63;" horiz-adv-x="610" 
d="M313 -22q-59 0 -89.5 14.5t-46.5 29t-32 14.5q-14 0 -19 -9t-5 -27h-69v327h81q6 -54 20.5 -103t36.5 -87.5t52.5 -61t66.5 -22.5q33 0 53 13t29 36t9 52q0 43 -18 84.5t-52 85.5t-83 94q-80 82 -136 168t-56 212q0 93 35.5 150.5t92 85t119.5 27.5q44 0 70.5 -12
t43 -24.5t27.5 -12.5q9 0 14.5 8t5.5 27h71v-318h-81q-3 46 -14 91t-29.5 82t-44 59.5t-59.5 22.5q-48 0 -71 -36t-23 -83q0 -57 39.5 -108.5t111.5 -120.5q52 -51 97 -107.5t72 -124.5t27 -154q0 -96 -31 -156t-86.5 -88t-128.5 -28zM320 -269q-36 0 -62.5 26t-26.5 61
q0 37 26.5 63.5t62.5 26.5q34 0 60.5 -26.5t26.5 -63.5q0 -35 -26.5 -61t-60.5 -26z" />
    <glyph glyph-name="uni1E65" unicode="&#x1e65;" horiz-adv-x="610" 
d="M313 -22q-59 0 -89.5 14.5t-46.5 29t-32 14.5q-14 0 -19 -9t-5 -27h-69v327h81q6 -54 20.5 -103t36.5 -87.5t52.5 -61t66.5 -22.5q33 0 53 13t29 36t9 52q0 43 -18 84.5t-52 85.5t-83 94q-80 82 -136 168t-56 212q0 93 35.5 150.5t92 85t119.5 27.5q44 0 70.5 -12
t43 -24.5t27.5 -12.5q9 0 14.5 8t5.5 27h71v-318h-81q-3 46 -14 91t-29.5 82t-44 59.5t-59.5 22.5q-48 0 -71 -36t-23 -83q0 -57 39.5 -108.5t111.5 -120.5q52 -51 97 -107.5t72 -124.5t27 -154q0 -96 -31 -156t-86.5 -88t-128.5 -28zM216 1086l-54 58l187 141
q15 11 29.5 18t27.5 7q18 0 31.5 -9t20.5 -22q7 -12 7 -27q0 -19 -14 -35.5t-41 -27.5zM320 1399q-36 0 -62.5 26.5t-26.5 60.5q0 37 26.5 63.5t62.5 26.5q34 0 60.5 -26.5t26.5 -63.5q0 -34 -26.5 -60.5t-60.5 -26.5z" />
    <glyph glyph-name="uni1E67" unicode="&#x1e67;" horiz-adv-x="610" 
d="M313 -22q-59 0 -89.5 14.5t-46.5 29t-32 14.5q-14 0 -19 -9t-5 -27h-69v327h81q6 -54 20.5 -103t36.5 -87.5t52.5 -61t66.5 -22.5q33 0 53 13t29 36t9 52q0 43 -18 84.5t-52 85.5t-83 94q-80 82 -136 168t-56 212q0 93 35.5 150.5t92 85t119.5 27.5q44 0 70.5 -12
t43 -24.5t27.5 -12.5q9 0 14.5 8t5.5 27h71v-318h-81q-3 46 -14 91t-29.5 82t-44 59.5t-59.5 22.5q-48 0 -71 -36t-23 -83q0 -57 39.5 -108.5t111.5 -120.5q52 -51 97 -107.5t72 -124.5t27 -154q0 -96 -31 -156t-86.5 -88t-128.5 -28zM285 1109l-169 224h96l107 -152
l107 152h99l-170 -224h-70zM320 1396q-36 0 -62.5 26.5t-26.5 60.5q0 37 26.5 63.5t62.5 26.5q34 0 60.5 -26.5t26.5 -63.5q0 -34 -26.5 -60.5t-60.5 -26.5z" />
    <glyph glyph-name="uni1E69" unicode="&#x1e69;" horiz-adv-x="610" 
d="M313 -22q-59 0 -89.5 14.5t-46.5 29t-32 14.5q-14 0 -19 -9t-5 -27h-69v327h81q6 -54 20.5 -103t36.5 -87.5t52.5 -61t66.5 -22.5q33 0 53 13t29 36t9 52q0 43 -18 84.5t-52 85.5t-83 94q-80 82 -136 168t-56 212q0 93 35.5 150.5t92 85t119.5 27.5q44 0 70.5 -12
t43 -24.5t27.5 -12.5q9 0 14.5 8t5.5 27h71v-318h-81q-3 46 -14 91t-29.5 82t-44 59.5t-59.5 22.5q-48 0 -71 -36t-23 -83q0 -57 39.5 -108.5t111.5 -120.5q52 -51 97 -107.5t72 -124.5t27 -154q0 -96 -31 -156t-86.5 -88t-128.5 -28zM320 -269q-36 0 -62.5 26t-26.5 61
q0 37 26.5 63.5t62.5 26.5q34 0 60.5 -26.5t26.5 -63.5q0 -35 -26.5 -61t-60.5 -26zM320 1138q-36 0 -62.5 26.5t-26.5 60.5q0 37 26.5 63.5t62.5 26.5q34 0 60.5 -26.5t26.5 -63.5q0 -34 -26.5 -60.5t-60.5 -26.5z" />
    <glyph glyph-name="uni1E6D" unicode="&#x1e6d;" horiz-adv-x="564" 
d="M383 -18q-62 0 -117.5 20t-90.5 74t-35 156v740h-141v75h141q45 10 78.5 55t55 109.5t28.5 134.5h78v-299h164v-75h-164v-837q0 -41 19.5 -55.5t37.5 -14.5q19 0 34 7t23 15l42 -60q-26 -20 -63.5 -32.5t-89.5 -12.5zM356 -253q-36 0 -62.5 26t-26.5 61q0 37 26.5 63.5
t62.5 26.5q34 0 60.5 -26.5t26.5 -63.5q0 -35 -26.5 -61t-60.5 -26z" />
    <glyph glyph-name="uni1E6F" unicode="&#x1e6f;" horiz-adv-x="556" 
d="M68 -185v75h446v-75h-446zM383 -18q-62 0 -117.5 20t-90.5 74t-35 156v740h-141v75h141q45 10 78.5 55t55 109.5t28.5 134.5h78v-299h164v-75h-164v-837q0 -41 19.5 -55.5t37.5 -14.5q19 0 34 7t23 15l42 -60q-26 -20 -63.5 -32.5t-89.5 -12.5z" />
    <glyph glyph-name="uni1E79" unicode="&#x1e79;" horiz-adv-x="875" 
d="M358 -22q-65 0 -119 25.5t-86 95t-32 203.5v670h-103v74h343v-717q0 -96 7 -146.5t23 -69t41 -18.5q28 0 50 29t34 84t12 134v630h-91v74h331v-971h88v-75h-298l-15 102q-5 -23 -28.5 -52t-63 -50.5t-93.5 -21.5zM535 1140q-40 0 -66 14t-46 27.5t-43 13.5
q-33 0 -50.5 -15t-22.5 -24l-75 30q5 18 23.5 42.5t46 43t61.5 18.5q44 0 69 -13.5t45.5 -27t50.5 -13.5q32 0 46.5 14t18.5 24l74 -33q-4 -13 -21.5 -37t-45 -44t-65.5 -20zM347 1330l-54 58l187 141q15 11 29.5 18t27.5 7q18 0 31.5 -9t20.5 -22q7 -12 7 -27
q0 -19 -14 -35.5t-41 -27.5z" />
    <glyph glyph-name="uni1E7B" unicode="&#x1e7b;" horiz-adv-x="875" 
d="M358 -22q-65 0 -119 25.5t-86 95t-32 203.5v670h-103v74h343v-717q0 -96 7 -146.5t23 -69t41 -18.5q28 0 50 29t34 84t12 134v630h-91v74h331v-971h88v-75h-298l-15 102q-5 -23 -28.5 -52t-63 -50.5t-93.5 -21.5zM181 1138v75h538v-75h-538zM572 1300q-36 0 -62 26.5
t-26 61.5q0 37 26 64.5t62 27.5q35 0 61.5 -27.5t26.5 -64.5q0 -35 -26.5 -61.5t-61.5 -26.5zM326 1300q-35 0 -60.5 26.5t-25.5 61.5q0 37 25.5 64.5t60.5 27.5q36 0 62.5 -27.5t26.5 -64.5q0 -35 -26.5 -61.5t-62.5 -26.5z" />
    <glyph glyph-name="Wgrave" unicode="&#x1e80;" horiz-adv-x="1180" 
d="M329 -1l-220 1326h-102v75h447v-75h-65l94 -755l-33 -77l133 778l23 -168l-46 222h-77v75h421v-75h-78l97 -738l-24 -77l121 815h-80v75h244v-75h-82l-214 -1326h-98l-181 1089l38 73l-220 -1162h-98zM727 1448l-206 100q-29 14 -43.5 28.5t-14.5 40.5q0 24 17.5 39
t43.5 15q21 0 35 -8t29 -20l180 -147z" />
    <glyph glyph-name="wgrave" unicode="&#x1e81;" horiz-adv-x="1126" 
d="M721 -2l-187 974h-73v75h395v-75h-72l76 -512l91 512h-60v75h223v-75h-77l-185 -974h-131zM278 -2l-185 974h-78v75h406v-75h-69l67 -512l91 512h-29v75h193v-75h-77l-188 -974h-131zM686 1104l-206 100q-29 14 -43.5 28.5t-14.5 40.5q0 24 17.5 39t43.5 15q21 0 35 -8
t29 -20l180 -147z" />
    <glyph glyph-name="Wacute" unicode="&#x1e82;" horiz-adv-x="1180" 
d="M329 -1l-220 1326h-102v75h447v-75h-65l94 -755l-33 -77l133 778l23 -168l-46 222h-77v75h421v-75h-78l97 -738l-24 -77l121 815h-80v75h244v-75h-82l-214 -1326h-98l-181 1089l38 73l-220 -1162h-98zM521 1442l-54 57l187 141q15 11 29.5 18t27.5 7q18 0 31.5 -9
t20.5 -22q7 -12 7 -26q0 -19 -14 -36t-41 -28z" />
    <glyph glyph-name="wacute" unicode="&#x1e83;" horiz-adv-x="1126" 
d="M721 -2l-187 974h-73v75h395v-75h-72l76 -512l91 512h-60v75h223v-75h-77l-185 -974h-131zM278 -2l-185 974h-78v75h406v-75h-69l67 -512l91 512h-29v75h193v-75h-77l-188 -974h-131zM480 1086l-54 58l187 141q15 11 29.5 18t27.5 7q18 0 31.5 -9t20.5 -22q7 -12 7 -27
q0 -19 -14 -35.5t-41 -27.5z" />
    <glyph glyph-name="Wdieresis" unicode="&#x1e84;" horiz-adv-x="1180" 
d="M329 -1l-220 1326h-102v75h447v-75h-65l94 -755l-33 -77l133 778l23 -168l-46 222h-77v75h421v-75h-78l97 -738l-24 -77l121 815h-80v75h244v-75h-82l-214 -1326h-98l-181 1089l38 73l-220 -1162h-98zM746 1502q-36 0 -62 26.5t-26 60.5q0 38 26 65t62 27q35 0 61.5 -27
t26.5 -65q0 -34 -26.5 -60.5t-61.5 -26.5zM500 1502q-35 0 -60.5 26.5t-25.5 60.5q0 38 25.5 65t60.5 27q36 0 62.5 -27t26.5 -65q0 -34 -26.5 -60.5t-62.5 -26.5z" />
    <glyph glyph-name="wdieresis" unicode="&#x1e85;" horiz-adv-x="1126" 
d="M721 -2l-187 974h-73v75h395v-75h-72l76 -512l91 512h-60v75h223v-75h-77l-185 -974h-131zM278 -2l-185 974h-78v75h406v-75h-69l67 -512l91 512h-29v75h193v-75h-77l-188 -974h-131zM705 1132q-36 0 -62 26.5t-26 61.5q0 37 26 64.5t62 27.5q35 0 61.5 -27.5t26.5 -64.5
q0 -35 -26.5 -61.5t-61.5 -26.5zM459 1132q-35 0 -60.5 26.5t-25.5 61.5q0 37 25.5 64.5t60.5 27.5q36 0 62.5 -27.5t26.5 -64.5q0 -35 -26.5 -61.5t-62.5 -26.5z" />
    <glyph glyph-name="uni1E8F" unicode="&#x1e8f;" horiz-adv-x="726" 
d="M220 -502q-49 0 -83.5 35.5t-51.5 95t-17 133.5q0 65 26 99t69 34q42 0 67 -29.5t25 -82.5q0 -41 -15.5 -66t-31 -46.5t-15.5 -52.5q0 -24 9.5 -41t28.5 -17q11 0 18 7t13 24t13 45l76 355l-255 981h-84v75h418v-75h-78l116 -480l102 480h-74v75h231v-75h-72l-224 -979
l-84 -374q-8 -37 -23.5 -64.5t-40 -42t-63.5 -14.5zM371 1137q-36 0 -62.5 26.5t-26.5 60.5q0 37 26.5 63.5t62.5 26.5q34 0 60.5 -26.5t26.5 -63.5q0 -34 -26.5 -60.5t-60.5 -26.5z" />
    <glyph glyph-name="uni1E93" unicode="&#x1e93;" horiz-adv-x="673" 
d="M78 0v75l272 897h-92q-50 0 -71.5 -20.5t-26 -73.5t-4.5 -149h-73v318h514v-75l-272 -897h91q51 0 72.5 22t26 76.5t4.5 153.5h75v-327h-516zM338 -269q-36 0 -62.5 26t-26.5 61q0 37 26.5 63.5t62.5 26.5q34 0 60.5 -26.5t26.5 -63.5q0 -35 -26.5 -61t-60.5 -26z" />
    <glyph glyph-name="uni1E97" unicode="&#x1e97;" horiz-adv-x="564" 
d="M383 -18q-62 0 -117.5 20t-90.5 74t-35 156v740h-141v75h141q45 10 78.5 55t55 109.5t28.5 134.5h78v-299h164v-75h-164v-837q0 -41 19.5 -55.5t37.5 -14.5q19 0 34 7t23 15l42 -60q-26 -20 -63.5 -32.5t-89.5 -12.5zM406 1392q-36 0 -62 26.5t-26 61.5q0 37 26 64.5
t62 27.5q35 0 61.5 -27.5t26.5 -64.5q0 -35 -26.5 -61.5t-61.5 -26.5zM160 1392q-35 0 -60.5 26.5t-25.5 61.5q0 37 25.5 64.5t60.5 27.5q36 0 62.5 -27.5t26.5 -64.5q0 -35 -26.5 -61.5t-62.5 -26.5z" />
    <glyph glyph-name="uni1E9E" unicode="&#x1e9e;" horiz-adv-x="977" 
d="M613 -22q-59 0 -105.5 41t-46.5 120q0 52 22.5 83t58.5 31q33 0 52 -22t19 -60q0 -29 -9 -45t-18 -26.5t-9 -23.5q0 -12 7.5 -20.5t23.5 -8.5q34 0 55 24.5t30.5 69.5t9.5 107q0 101 -23.5 175t-58.5 130t-70 103t-58.5 92t-23.5 98q0 36 26 87t68 109.5t91 116.5
t95 108.5t80 87.5h-300q-63 0 -91.5 -36t-36.5 -105t-8 -168v-1046h-346v72h96v892q0 149 48.5 251.5t134 155.5t195.5 53h361l40 -72q-48 -54 -109 -123.5t-117 -140t-92.5 -127.5t-36.5 -86q0 -35 33 -70t82.5 -77.5t98.5 -98.5t82 -132t33 -178q0 -118 -40 -194
t-105 -111.5t-138 -35.5z" />
    <glyph glyph-name="uni1EA0" unicode="&#x1ea0;" horiz-adv-x="715" 
d="M0 0v75h80l188 1326h137l221 -1326h94v-75h-429v75h77l-108 796h2l-103 -796h69v-75h-228zM155 264v70h219v-70h-219zM327 -269q-36 0 -62.5 26t-26.5 61q0 37 26.5 63.5t62.5 26.5q34 0 60.5 -26.5t26.5 -63.5q0 -35 -26.5 -61t-60.5 -26z" />
    <glyph glyph-name="uni1EA1" unicode="&#x1ea1;" horiz-adv-x="817" 
d="M289 -21q-66 0 -120.5 32t-87 92t-32.5 143q0 96 40.5 158.5t100.5 105t120 76t100.5 70.5t40.5 90q0 73 -12.5 124t-38.5 77.5t-66 26.5q-48 0 -78.5 -26t-30.5 -60q0 -27 11 -45t22 -38t11 -55q0 -47 -26.5 -74.5t-68.5 -27.5q-44 0 -70.5 37.5t-26.5 101.5
q0 79 39 140.5t108 97.5t159 36t159.5 -37t109 -117t39.5 -211v-532q0 -50 8.5 -67t26.5 -17t31 9.5t19 16.5l42 -58q-16 -23 -64 -44t-112 -21t-99 18t-50.5 42.5t-21.5 44.5q-4 -13 -22.5 -39t-57 -48t-102.5 -22zM369 92q26 0 44 22.5t28 56.5t10 68v368
q-4 -28 -28.5 -52.5t-54.5 -57.5t-52.5 -86t-22.5 -137q0 -89 21 -135.5t55 -46.5zM420 -269q-36 0 -62.5 26t-26.5 61q0 37 26.5 63.5t62.5 26.5q34 0 60.5 -26.5t26.5 -63.5q0 -35 -26.5 -61t-60.5 -26z" />
    <glyph glyph-name="uni1EA2" unicode="&#x1ea2;" horiz-adv-x="715" 
d="M0 0v75h80l188 1326h137l221 -1326h94v-75h-429v75h77l-108 796h2l-103 -796h69v-75h-228zM155 264v70h219v-70h-219zM332 1746q59 0 102.5 -24t43.5 -86q0 -44 -27 -71.5t-54 -48.5t-27 -49h-63q0 42 16 68.5t31 48t15 47.5t-13 36.5t-38 10.5t-42.5 -7.5t-31.5 -20.5
l-51 48q19 20 57 34t82 14z" />
    <glyph glyph-name="uni1EA3" unicode="&#x1ea3;" horiz-adv-x="817" 
d="M289 -21q-66 0 -120.5 32t-87 92t-32.5 143q0 96 40.5 158.5t100.5 105t120 76t100.5 70.5t40.5 90q0 73 -12.5 124t-38.5 77.5t-66 26.5q-48 0 -78.5 -26t-30.5 -60q0 -27 11 -45t22 -38t11 -55q0 -47 -26.5 -74.5t-68.5 -27.5q-44 0 -70.5 37.5t-26.5 101.5
q0 79 39 140.5t108 97.5t159 36t159.5 -37t109 -117t39.5 -211v-532q0 -50 8.5 -67t26.5 -17t31 9.5t19 16.5l42 -58q-16 -23 -64 -44t-112 -21t-99 18t-50.5 42.5t-21.5 44.5q-4 -13 -22.5 -39t-57 -48t-102.5 -22zM369 92q26 0 44 22.5t28 56.5t10 68v368
q-4 -28 -28.5 -52.5t-54.5 -57.5t-52.5 -86t-22.5 -137q0 -89 21 -135.5t55 -46.5zM388 1417q59 0 102.5 -24t43.5 -86q0 -44 -27 -71.5t-54 -48.5t-27 -49h-63q0 42 16 68.5t31 48t15 47.5t-13 36.5t-38 10.5t-42.5 -7.5t-31.5 -20.5l-51 48q19 20 57 34t82 14z" />
    <glyph glyph-name="uni1EA4" unicode="&#x1ea4;" horiz-adv-x="715" 
d="M0 0v75h80l188 1326h137l221 -1326h94v-75h-429v75h77l-108 796h2l-103 -796h69v-75h-228zM155 264v70h219v-70h-219zM157 1471l148 163h70l146 -163h-89l-93 91l-94 -91h-88zM474 1601l-47 50l160 119q27 22 49 22q14 0 25.5 -8t17.5 -19t6 -23q0 -16 -12 -29.5
t-34 -23.5z" />
    <glyph glyph-name="uni1EA5" unicode="&#x1ea5;" horiz-adv-x="817" 
d="M289 -21q-66 0 -120.5 32t-87 92t-32.5 143q0 96 40.5 158.5t100.5 105t120 76t100.5 70.5t40.5 90q0 73 -12.5 124t-38.5 77.5t-66 26.5q-48 0 -78.5 -26t-30.5 -60q0 -27 11 -45t22 -38t11 -55q0 -47 -26.5 -74.5t-68.5 -27.5q-44 0 -70.5 37.5t-26.5 101.5
q0 79 39 140.5t108 97.5t159 36t159.5 -37t109 -117t39.5 -211v-532q0 -50 8.5 -67t26.5 -17t31 9.5t19 16.5l42 -58q-16 -23 -64 -44t-112 -21t-99 18t-50.5 42.5t-21.5 44.5q-4 -13 -22.5 -39t-57 -48t-102.5 -22zM369 92q26 0 44 22.5t28 56.5t10 68v368
q-4 -28 -28.5 -52.5t-54.5 -57.5t-52.5 -86t-22.5 -137q0 -89 21 -135.5t55 -46.5zM213 1118l148 203h70l146 -203h-89l-93 131l-94 -131h-88zM530 1288l-47 50l160 119q27 22 49 22q14 0 25.5 -8t17.5 -19t6 -23q0 -16 -12 -29.5t-34 -23.5z" />
    <glyph glyph-name="uni1EA6" unicode="&#x1ea6;" horiz-adv-x="715" 
d="M0 0v75h80l188 1326h137l221 -1326h94v-75h-429v75h77l-108 796h2l-103 -796h69v-75h-228zM155 264v70h219v-70h-219zM157 1471l148 163h70l146 -163h-89l-93 91l-94 -91h-88zM530 1609l-177 85q-25 12 -37.5 24.5t-12.5 36.5q0 20 15 32.5t37 12.5q18 0 30.5 -6.5
t25.5 -16.5l153 -127z" />
    <glyph glyph-name="uni1EA7" unicode="&#x1ea7;" horiz-adv-x="817" 
d="M289 -21q-66 0 -120.5 32t-87 92t-32.5 143q0 96 40.5 158.5t100.5 105t120 76t100.5 70.5t40.5 90q0 73 -12.5 124t-38.5 77.5t-66 26.5q-48 0 -78.5 -26t-30.5 -60q0 -27 11 -45t22 -38t11 -55q0 -47 -26.5 -74.5t-68.5 -27.5q-44 0 -70.5 37.5t-26.5 101.5
q0 79 39 140.5t108 97.5t159 36t159.5 -37t109 -117t39.5 -211v-532q0 -50 8.5 -67t26.5 -17t31 9.5t19 16.5l42 -58q-16 -23 -64 -44t-112 -21t-99 18t-50.5 42.5t-21.5 44.5q-4 -13 -22.5 -39t-57 -48t-102.5 -22zM369 92q26 0 44 22.5t28 56.5t10 68v368
q-4 -28 -28.5 -52.5t-54.5 -57.5t-52.5 -86t-22.5 -137q0 -89 21 -135.5t55 -46.5zM213 1118l148 203h70l146 -203h-89l-93 131l-94 -131h-88zM586 1296l-177 85q-25 12 -37.5 24.5t-12.5 36.5q0 20 15 32.5t37 12.5q18 0 30.5 -6.5t25.5 -16.5l153 -127z" />
    <glyph glyph-name="uni1EA8" unicode="&#x1ea8;" horiz-adv-x="715" 
d="M0 0v75h80l188 1326h137l221 -1326h94v-75h-429v75h77l-108 796h2l-103 -796h69v-75h-228zM155 264v70h219v-70h-219zM155 1472l148 163h70l146 -163h-89l-93 91l-94 -91h-88zM482 1813q46 0 81 -19t35 -69q0 -35 -21.5 -56.5t-43.5 -38.5t-22 -40h-49q0 34 12.5 55
t24.5 38.5t12 37.5q0 21 -10.5 29t-30.5 8q-19 0 -33 -5.5t-25 -16.5l-41 38q15 16 45.5 27.5t65.5 11.5z" />
    <glyph glyph-name="uni1EA9" unicode="&#x1ea9;" horiz-adv-x="817" 
d="M289 -21q-66 0 -120.5 32t-87 92t-32.5 143q0 96 40.5 158.5t100.5 105t120 76t100.5 70.5t40.5 90q0 73 -12.5 124t-38.5 77.5t-66 26.5q-48 0 -78.5 -26t-30.5 -60q0 -27 11 -45t22 -38t11 -55q0 -47 -26.5 -74.5t-68.5 -27.5q-44 0 -70.5 37.5t-26.5 101.5
q0 79 39 140.5t108 97.5t159 36t159.5 -37t109 -117t39.5 -211v-532q0 -50 8.5 -67t26.5 -17t31 9.5t19 16.5l42 -58q-16 -23 -64 -44t-112 -21t-99 18t-50.5 42.5t-21.5 44.5q-4 -13 -22.5 -39t-57 -48t-102.5 -22zM369 92q26 0 44 22.5t28 56.5t10 68v368
q-4 -28 -28.5 -52.5t-54.5 -57.5t-52.5 -86t-22.5 -137q0 -89 21 -135.5t55 -46.5zM211 1119l148 203h70l146 -203h-89l-93 131l-94 -131h-88zM538 1500q46 0 81 -19t35 -69q0 -35 -21.5 -56.5t-43.5 -38.5t-22 -40h-49q0 34 12.5 55t24.5 38.5t12 37.5q0 21 -10.5 29
t-30.5 8q-19 0 -33 -5.5t-25 -16.5l-41 38q15 16 45.5 27.5t65.5 11.5z" />
    <glyph glyph-name="uni1EAA" unicode="&#x1eaa;" horiz-adv-x="715" 
d="M0 0v75h80l188 1326h137l221 -1326h94v-75h-429v75h77l-108 796h2l-103 -796h69v-75h-228zM155 264v70h219v-70h-219zM160 1472l148 163h70l146 -163h-88l-94 91l-93 -91h-89zM429 1669q-40 0 -67 14t-47.5 27.5t-43.5 13.5q-33 0 -51 -15t-23 -24l-74 28q5 18 24 43
t47.5 44t62.5 19q44 0 69 -13.5t45.5 -27.5t50.5 -14q34 0 48.5 14t19.5 25l73 -30q-4 -14 -22 -38.5t-46.5 -45t-65.5 -20.5z" />
    <glyph glyph-name="uni1EAB" unicode="&#x1eab;" horiz-adv-x="817" 
d="M289 -21q-66 0 -120.5 32t-87 92t-32.5 143q0 96 40.5 158.5t100.5 105t120 76t100.5 70.5t40.5 90q0 73 -12.5 124t-38.5 77.5t-66 26.5q-48 0 -78.5 -26t-30.5 -60q0 -27 11 -45t22 -38t11 -55q0 -47 -26.5 -74.5t-68.5 -27.5q-44 0 -70.5 37.5t-26.5 101.5
q0 79 39 140.5t108 97.5t159 36t159.5 -37t109 -117t39.5 -211v-532q0 -50 8.5 -67t26.5 -17t31 9.5t19 16.5l42 -58q-16 -23 -64 -44t-112 -21t-99 18t-50.5 42.5t-21.5 44.5q-4 -13 -22.5 -39t-57 -48t-102.5 -22zM369 92q26 0 44 22.5t28 56.5t10 68v368
q-4 -28 -28.5 -52.5t-54.5 -57.5t-52.5 -86t-22.5 -137q0 -89 21 -135.5t55 -46.5zM216 1119l148 203h70l146 -203h-89l-93 131l-94 -131h-88zM484 1355q-40 0 -66.5 14t-47.5 27.5t-43 13.5q-34 0 -52 -14.5t-23 -24.5l-74 29q6 18 25 42.5t47 43.5t62 19q44 0 69 -13.5
t46 -27t51 -13.5q34 0 48.5 14t19.5 25l72 -31q-3 -13 -21 -38t-46.5 -45.5t-66.5 -20.5z" />
    <glyph glyph-name="uni1EAC" unicode="&#x1eac;" horiz-adv-x="715" 
d="M0 0v75h80l188 1326h137l221 -1326h94v-75h-429v75h77l-108 796h2l-103 -796h69v-75h-228zM155 264v70h219v-70h-219zM327 -269q-36 0 -62.5 26t-26.5 61q0 37 26.5 63.5t62.5 26.5q34 0 60.5 -26.5t26.5 -63.5q0 -35 -26.5 -61t-60.5 -26zM157 1466l148 203h70l146 -203
h-89l-93 131l-94 -131h-88z" />
    <glyph glyph-name="uni1EAD" unicode="&#x1ead;" horiz-adv-x="817" 
d="M289 -21q-66 0 -120.5 32t-87 92t-32.5 143q0 96 40.5 158.5t100.5 105t120 76t100.5 70.5t40.5 90q0 73 -12.5 124t-38.5 77.5t-66 26.5q-48 0 -78.5 -26t-30.5 -60q0 -27 11 -45t22 -38t11 -55q0 -47 -26.5 -74.5t-68.5 -27.5q-44 0 -70.5 37.5t-26.5 101.5
q0 79 39 140.5t108 97.5t159 36t159.5 -37t109 -117t39.5 -211v-532q0 -50 8.5 -67t26.5 -17t31 9.5t19 16.5l42 -58q-16 -23 -64 -44t-112 -21t-99 18t-50.5 42.5t-21.5 44.5q-4 -13 -22.5 -39t-57 -48t-102.5 -22zM369 92q26 0 44 22.5t28 56.5t10 68v368
q-4 -28 -28.5 -52.5t-54.5 -57.5t-52.5 -86t-22.5 -137q0 -89 21 -135.5t55 -46.5zM420 -269q-36 0 -62.5 26t-26.5 61q0 37 26.5 63.5t62.5 26.5q34 0 60.5 -26.5t26.5 -63.5q0 -35 -26.5 -61t-60.5 -26zM213 1128l148 203h70l146 -203h-89l-93 131l-94 -131h-88z" />
    <glyph glyph-name="uni1EAE" unicode="&#x1eae;" horiz-adv-x="715" 
d="M0 0v75h80l188 1326h137l221 -1326h94v-75h-429v75h77l-108 796h2l-103 -796h69v-75h-228zM155 264v70h219v-70h-219zM337 1497q-64 0 -103 29.5t-57 75t-18 93.5h74q5 -64 33 -93.5t71 -29.5q44 0 72 29.5t32 93.5h75q0 -48 -18 -93.5t-57.5 -75t-103.5 -29.5zM237 1733
l-54 57l187 141q15 11 29.5 18t27.5 7q18 0 31.5 -9t20.5 -22q7 -12 7 -26q0 -19 -14 -36t-41 -28z" />
    <glyph glyph-name="uni1EAF" unicode="&#x1eaf;" horiz-adv-x="817" 
d="M289 -21q-66 0 -120.5 32t-87 92t-32.5 143q0 96 40.5 158.5t100.5 105t120 76t100.5 70.5t40.5 90q0 73 -12.5 124t-38.5 77.5t-66 26.5q-48 0 -78.5 -26t-30.5 -60q0 -27 11 -45t22 -38t11 -55q0 -47 -26.5 -74.5t-68.5 -27.5q-44 0 -70.5 37.5t-26.5 101.5
q0 79 39 140.5t108 97.5t159 36t159.5 -37t109 -117t39.5 -211v-532q0 -50 8.5 -67t26.5 -17t31 9.5t19 16.5l42 -58q-16 -23 -64 -44t-112 -21t-99 18t-50.5 42.5t-21.5 44.5q-4 -13 -22.5 -39t-57 -48t-102.5 -22zM369 92q26 0 44 22.5t28 56.5t10 68v368
q-4 -28 -28.5 -52.5t-54.5 -57.5t-52.5 -86t-22.5 -137q0 -89 21 -135.5t55 -46.5zM393 1113q-64 0 -103 29t-57 74.5t-18 93.5h74q5 -63 33 -92.5t71 -29.5q44 0 72 29.5t32 92.5h75q0 -48 -18 -93.5t-57.5 -74.5t-103.5 -29zM300 1340l-54 57l187 142q15 11 29.5 17.5
t27.5 6.5q18 0 31.5 -9t20.5 -22q7 -12 7 -26q0 -19 -14 -36t-41 -28z" />
    <glyph glyph-name="uni1EB0" unicode="&#x1eb0;" horiz-adv-x="715" 
d="M0 0v75h80l188 1326h137l221 -1326h94v-75h-429v75h77l-108 796h2l-103 -796h69v-75h-228zM155 264v70h219v-70h-219zM337 1497q-64 0 -103 29.5t-57 75t-18 93.5h74q5 -64 33 -93.5t71 -29.5q44 0 72 29.5t32 93.5h75q0 -48 -18 -93.5t-57.5 -75t-103.5 -29.5zM443 1739
l-206 100q-29 14 -43.5 28.5t-14.5 40.5q0 24 17.5 39t43.5 15q21 0 35 -8t29 -20l180 -147z" />
    <glyph glyph-name="uni1EB1" unicode="&#x1eb1;" horiz-adv-x="817" 
d="M289 -21q-66 0 -120.5 32t-87 92t-32.5 143q0 96 40.5 158.5t100.5 105t120 76t100.5 70.5t40.5 90q0 73 -12.5 124t-38.5 77.5t-66 26.5q-48 0 -78.5 -26t-30.5 -60q0 -27 11 -45t22 -38t11 -55q0 -47 -26.5 -74.5t-68.5 -27.5q-44 0 -70.5 37.5t-26.5 101.5
q0 79 39 140.5t108 97.5t159 36t159.5 -37t109 -117t39.5 -211v-532q0 -50 8.5 -67t26.5 -17t31 9.5t19 16.5l42 -58q-16 -23 -64 -44t-112 -21t-99 18t-50.5 42.5t-21.5 44.5q-4 -13 -22.5 -39t-57 -48t-102.5 -22zM369 92q26 0 44 22.5t28 56.5t10 68v368
q-4 -28 -28.5 -52.5t-54.5 -57.5t-52.5 -86t-22.5 -137q0 -89 21 -135.5t55 -46.5zM393 1133q-64 0 -103 29t-57 74.5t-18 93.5h74q5 -63 33 -92.5t71 -29.5q44 0 72 29.5t32 92.5h75q0 -48 -18 -93.5t-57.5 -74.5t-103.5 -29zM506 1357l-206 100q-29 14 -43.5 28.5
t-14.5 40.5q0 24 17.5 39t43.5 15q21 0 35 -8t28 -20l180 -147z" />
    <glyph glyph-name="uni1EB2" unicode="&#x1eb2;" horiz-adv-x="715" 
d="M0 0v75h80l188 1326h137l221 -1326h94v-75h-429v75h77l-108 796h2l-103 -796h69v-75h-228zM155 264v70h219v-70h-219zM337 1497q-64 0 -103 29.5t-57 75t-18 93.5h74q5 -64 33 -93.5t71 -29.5q44 0 72 29.5t32 93.5h75q0 -48 -18 -93.5t-57.5 -75t-103.5 -29.5zM332 2037
q59 0 102.5 -24t43.5 -86q0 -44 -27 -71.5t-54 -48.5t-27 -49h-63q0 42 16 68.5t31 48t15 47.5t-13 36.5t-38 10.5t-42.5 -7.5t-31.5 -20.5l-51 48q19 20 57 34t82 14z" />
    </font>
</defs>
</svg>
