<?xml version="1.0" standalone="no"?>
<!DOCTYPE svg PUBLIC "-//W3C//DTD SVG 1.1//EN" "http://www.w3.org/Graphics/SVG/1.1/DTD/svg11.dtd" >
<svg xmlns="http://www.w3.org/2000/svg" xmlns:xlink="http://www.w3.org/1999/xlink" version="1.1">
<metadata>
Created by FontForge 20170731 at Tue Dec  1 16:59:51 2020
 By Aleksey,,,
Copyright 2020 The Imbue Project Authors (https://github.com/Etcetera-Type-Co/Imbue)
</metadata>
<defs>
<font id="Imbue-ExtraBold" horiz-adv-x="0" >
  <font-face 
    font-family="Imbue ExtraBold"
    font-weight="800"
    font-stretch="normal"
    units-per-em="2000"
    panose-1="0 0 0 0 0 0 0 0 0 0"
    ascent="1600"
    descent="-400"
    x-height="1046"
    cap-height="1400"
    bbox="-372 -502 1641 2040"
    underline-thickness="50"
    underline-position="-175"
    unicode-range="U+000D-FB02"
  />
<missing-glyph horiz-adv-x="602" 
d="M142 133v947h317v-947h-317zM166 156h269v900h-269v-900zM303 889l-68 -69l-18 18l68 69l-68 69l18 19l68 -69l68 69l19 -19l-68 -69l68 -69l-19 -18zM303 582l-68 -69l-18 18l68 69l-68 69l18 18l68 -69l68 69l19 -18l-69 -69l69 -69l-19 -18zM303 274l-68 -69l-18 19
l68 69l-68 69l18 18l68 -69l68 69l19 -18l-68 -69l68 -69l-19 -19z" />
    <glyph glyph-name="f_f" unicode="ff" horiz-adv-x="1129" 
d="M20 0v75h120v897h-122v75h122v90q0 115 42 198.5t121.5 129.5t190.5 46q66 0 115 -25t77 -66.5t30 -92.5l-55 -82q-1 42 -15 84.5t-43 71.5t-76 29q-39 0 -62.5 -30.5t-35 -81.5t-15.5 -113t-4 -126v-22v-10h170v-75h-170v-897h101v-75h-491zM510 0v75h113v897h-133v75
h133v100q0 101 36 183.5t110.5 131.5t187.5 49q109 0 167.5 -75.5t58.5 -196.5q0 -70 -27.5 -107.5t-81.5 -37.5q-57 0 -81 35t-24 84q0 44 18.5 68t37 41.5t18.5 40.5q0 35 -19.5 53t-43.5 18q-30 0 -47 -24.5t-26 -66.5t-11.5 -96t-2.5 -113v-87h144v-75h-144v-897h117
v-75h-500z" />
    <glyph glyph-name="f_f_i" unicode="ffi" horiz-adv-x="1478" 
d="M21 0v75h119v897h-122v75h122v90q0 115 42 198.5t121.5 129.5t192.5 46q66 0 115 -25t77.5 -67t31.5 -95l-55 -84q-1 44 -15.5 88t-44.5 73t-77 29q-39 0 -63 -30.5t-35.5 -81.5t-15.5 -113t-4 -126v-22v-10h170v-75h-170v-897h93v-75h-482zM981 0v75h100v897h-100v75
h370v-972h100v-75h-470zM500 0v75h121v897h-142v75h142v65q0 124 55 213.5t148.5 137.5t207.5 48q87 0 166.5 -31t131 -88.5t51.5 -135.5q0 -57 -22.5 -88.5t-55 -44t-63.5 -12.5q-49 0 -92.5 24.5t-43.5 87.5q0 38 17 57.5t33 36.5t16 45q0 26 -18.5 40t-46.5 20t-55 6
q-57 0 -92 -24t-51 -96.5t-16 -218.5v-42h197v-75h-197v-897h123v-75h-514z" />
    <glyph glyph-name="f_f_l" unicode="ffl" horiz-adv-x="1569" 
d="M21 0v75h121v897h-124v75h124v90q0 115 41.5 198.5t121 129.5t192.5 46q67 0 116 -25t77.5 -67t31.5 -95l-55 -84q-1 44 -16 87.5t-44.5 73t-76.5 29.5q-40 0 -64 -30.5t-35.5 -81.5t-15 -113t-3.5 -126v-22v-10h169v-75h-169v-897h91v-75h-482zM1056 0v75h107v1350h-107
v75h377v-1425h107v-75h-484zM527 0v75h103v897h-124v75h124v16q0 110 31.5 192t88.5 136t135.5 81.5t171.5 27.5v-75q-52 0 -83.5 -29t-47.5 -78.5t-21 -110t-5 -123.5v-24.5v-12.5h170v-75h-170v-897h122v-75h-495z" />
    <glyph glyph-name="f_i" unicode="fi" horiz-adv-x="1017" 
d="M39 0v75h121v897h-142v75h142v65q0 124 55 213.5t148 137.5t207 48q88 0 167.5 -31t131 -88.5t51.5 -135.5q0 -57 -22.5 -88.5t-55 -44t-64.5 -12.5q-48 0 -91.5 24.5t-43.5 87.5q0 38 16.5 57.5t33 36.5t16.5 45q0 26 -18.5 40t-46.5 20t-55 6q-57 0 -92 -24t-51 -96.5
t-16 -218.5v-42h196v-75h-196v-897h123v-75h-514zM520 0v75h100v897h-100v75h370v-972h100v-75h-470z" />
    <glyph glyph-name="f_l" unicode="fl" horiz-adv-x="1081" 
d="M39 0v75h103v897h-124v75h124v16q0 110 31.5 192t88.5 136t135.5 81.5t171.5 27.5v-75q-53 0 -84 -29t-47 -78.5t-21 -110t-5 -123.5v-24.5v-12.5h170v-75h-170v-897h122v-75h-495zM568 0v75h107v1350h-107v75h377v-1425h107v-75h-484z" />
    <glyph glyph-name=".notdef" horiz-adv-x="602" 
d="M142 133v947h317v-947h-317zM166 156h269v900h-269v-900zM303 889l-68 -69l-18 18l68 69l-68 69l18 19l68 -69l68 69l19 -19l-68 -69l68 -69l-19 -18zM303 582l-68 -69l-18 18l68 69l-68 69l18 18l68 -69l68 69l19 -18l-69 -69l69 -69l-19 -18zM303 274l-68 -69l-18 19
l68 69l-68 69l18 18l68 -69l68 69l19 -18l-68 -69l68 -69l-19 -19z" />
    <glyph glyph-name=".null" 
 />
    <glyph glyph-name="nonmarkingreturn" horiz-adv-x="666" 
 />
    <glyph glyph-name="CR" unicode="&#xd;" horiz-adv-x="372" 
 />
    <glyph glyph-name="space" unicode=" " horiz-adv-x="372" 
 />
    <glyph glyph-name="exclam" unicode="!" horiz-adv-x="398" 
d="M165 378q0 97 -14.5 202t-34 213t-34.5 215.5t-15 208.5q0 94 34.5 146.5t100.5 52.5q65 0 99.5 -52.5t34.5 -146.5q0 -101 -15 -208.5t-34 -215.5t-34 -213t-15 -202h-73zM197 -38q-59 0 -101 43t-42 102q0 60 42 103t101 43q60 0 102 -43t42 -103q0 -59 -42 -102
t-102 -43z" />
    <glyph glyph-name="quotedbl" unicode="&#x22;" horiz-adv-x="564" 
d="M134 1164q-10 34 -22.5 77.5t-21 89t-8.5 84.5q0 60 29 84.5t62 24.5q31 0 60.5 -24.5t29.5 -84.5q0 -39 -9.5 -84.5t-22.5 -89t-24 -77.5h-73zM356 1164q-10 34 -22.5 77.5t-21 89t-8.5 84.5q0 60 29 84.5t62 24.5q31 0 60.5 -24.5t29.5 -84.5q0 -39 -9.5 -84.5
t-22.5 -89t-24 -77.5h-73z" />
    <glyph glyph-name="numbersign" unicode="#" horiz-adv-x="1206" 
d="M149 0l78 447h-162v75h178l69 405h-198v75h212l67 398h225l-69 -398h189l73 398h221l-71 -398h180v-75h-190l-72 -405h211v-75h-225l-78 -447h-223l80 447h-190l-80 -447h-225zM466 522h187l74 405h-188z" />
    <glyph glyph-name="dollar" unicode="$" horiz-adv-x="620" 
d="M274 -24v1442h63v-1442h-63zM305 63q-65 0 -96 19t-46.5 37.5t-32.5 18.5q-24 0 -24 -51h-61v315h64q1 -22 13 -65.5t36 -90.5t60 -80.5t85 -33.5q32 0 51.5 13.5t28.5 40.5t9 66q0 52 -22 105t-63 112.5t-95 130.5q-67 89 -103 164t-50 142.5t-14 136.5
q0 101 33.5 169.5t86 103t110.5 34.5q53 0 80.5 -17t42.5 -34t30 -17q11 0 17 10t7 38h61v-313h-63q-1 26 -12.5 70t-32.5 88.5t-52 75.5t-74 31q-44 0 -67 -33t-23 -92q0 -44 22.5 -97.5t64 -114t98.5 -128.5q90 -107 130.5 -206.5t40.5 -219.5q0 -98 -22 -162
t-57.5 -100.5t-78 -51t-82.5 -14.5z" />
    <glyph glyph-name="percent" unicode="%" horiz-adv-x="1121" 
d="M319 780q-59 0 -111 39t-83.5 109.5t-31.5 166.5q0 139 64 224t162 85q95 0 160.5 -79t65.5 -230q0 -148 -66.5 -231.5t-159.5 -83.5zM805 -11q-60 0 -112.5 39.5t-84.5 110.5t-32 165q0 140 65 225.5t164 85.5q93 0 159 -79.5t66 -231.5q0 -146 -66 -230.5t-159 -84.5z
M805 64q29 0 41 40t14.5 96.5t2.5 101.5q0 48 -2.5 104.5t-14.5 97.5t-41 41q-30 0 -43.5 -41t-17 -98.5t-3.5 -105.5q0 -46 3 -101.5t16.5 -95t44.5 -39.5zM319 853q31 0 44 40.5t16 97t3 102.5q0 47 -3 104t-16 98t-44 41q-29 0 -42 -41.5t-16 -99t-3 -104.5t3 -103
t15.5 -95.5t42.5 -39.5zM78 0l871 1400h98l-869 -1400h-100z" />
    <glyph glyph-name="ampersand" unicode="&#x26;" horiz-adv-x="1112" 
d="M865 -16q-67 0 -128.5 28.5t-100.5 101.5l-329 630q-20 39 -41 84t-37.5 96t-26.5 104.5t-10 110.5q0 83 30.5 137t76.5 85t96.5 44t91.5 13q43 0 90.5 -12.5t89.5 -41t68.5 -76.5t26.5 -118q0 -77 -32 -135.5t-76 -99t-81.5 -63.5t-48.5 -30l-49 65q27 22 58.5 86
t31.5 177q0 87 -20 132.5t-58 45.5q-39 0 -56 -39t-17 -113q0 -44 13.5 -96t31.5 -99t33.5 -79.5t18.5 -38.5l380 -721q26 -48 41.5 -59.5t31.5 -11.5q15 0 31 13t26 30l48 -55q-27 -46 -84.5 -70.5t-119.5 -24.5zM377 -18q-108 0 -188 46t-123.5 125.5t-43.5 180.5
q0 119 45.5 206t110.5 147t123 96l65 -56q-28 -24 -49.5 -67t-33 -94.5t-11.5 -100.5q0 -98 21.5 -182.5t64 -136.5t105.5 -52q35 0 66 14t54.5 36.5t36.5 44.5l41 -56q-8 -18 -40 -54.5t-91.5 -66.5t-152.5 -30zM976 252q-42 0 -61.5 24t-19.5 59q0 29 12 46t24 28.5
t12 22.5q0 12 -5.5 18t-22.5 6q-25 0 -48.5 -22t-42 -56t-28.5 -67l-61 58q14 33 42 70.5t65 64.5t80 27q72 0 108 -45t36 -107t-23.5 -94.5t-66.5 -32.5z" />
    <glyph glyph-name="quotesingle" unicode="'" horiz-adv-x="379" 
d="M152 1164q-10 34 -22.5 77.5t-21 89t-8.5 84.5q0 60 29 84.5t62 24.5q31 0 60.5 -24.5t29.5 -84.5q0 -39 -9.5 -84.5t-22.5 -89t-24 -77.5h-73z" />
    <glyph glyph-name="parenleft" unicode="(" horiz-adv-x="422" 
d="M335 -432q-12 15 -55 92t-93.5 205t-88 296t-37.5 365q0 224 38 401t89.5 302t95 195.5t55.5 83.5l61 -68q-16 -18 -56 -84t-85.5 -181t-78 -277t-32.5 -372q0 -186 34 -342t80 -273t85.5 -187t50.5 -86z" />
    <glyph glyph-name="parenright" unicode=")" horiz-adv-x="422" 
d="M87 -432l-62 70q11 16 50.5 86t85.5 187t79.5 273t33.5 342q0 210 -32.5 372t-77.5 277t-85.5 181t-55.5 84l60 68q12 -13 55.5 -83.5t95 -195.5t89.5 -302t38 -401q0 -197 -37 -365t-88 -296t-94 -205t-55 -92z" />
    <glyph glyph-name="asterisk" unicode="*" horiz-adv-x="819" 
d="M394 882q-23 0 -41 14.5t-18 43.5q0 28 5.5 49t11 48.5t5.5 72.5q-30 -23 -49 -43.5t-34.5 -36.5t-38.5 -26q-10 -5 -19 -6.5t-17 -1.5q-26 0 -42.5 14t-16.5 39q0 15 8 30t28 27t41 16t47.5 10.5t60.5 25.5q-33 20 -58.5 27.5t-47.5 14t-46 19.5q-32 20 -32 54
q0 26 17.5 41.5t39.5 15.5q18 0 37 -10q33 -17 53.5 -46.5t68.5 -61.5q0 67 -11 97.5t-11 70.5q0 29 18 43.5t41 14.5q24 0 42.5 -14.5t18.5 -43.5q0 -28 -7 -49t-15 -47.5t-8 -71.5q54 35 77.5 62.5t53.5 45.5q17 9 33 9q25 0 41.5 -17.5t16.5 -41.5q0 -33 -33 -51
q-24 -14 -48 -20t-50.5 -13.5t-61.5 -27.5q33 -17 60.5 -23.5t51 -11.5t46.5 -17q19 -9 27.5 -24t8.5 -30q0 -25 -16.5 -40.5t-42.5 -15.5q-10 0 -19 1.5t-19 6.5q-23 12 -39 27.5t-34.5 35t-52.5 43.5q0 -45 8 -72t15 -47.5t7 -50.5q0 -29 -18.5 -43.5t-42.5 -14.5z" />
    <glyph glyph-name="plus" unicode="+" horiz-adv-x="832" 
d="M380 251v624h75v-624h-75zM105 525v75h622v-75h-622z" />
    <glyph glyph-name="comma" unicode="," horiz-adv-x="400" 
d="M156 -226l-63 79q22 12 52.5 34.5t54 47.5t23.5 45q0 13 -7 13t-16.5 -7t-36.5 -7q-30 0 -57.5 16.5t-45.5 48t-18 75.5q0 65 43.5 102t109.5 37q64 0 112.5 -40.5t48.5 -120.5q0 -96 -32 -158.5t-78.5 -101t-89.5 -63.5z" />
    <glyph glyph-name="hyphen" unicode="-" horiz-adv-x="732" 
d="M105 525v75h522v-75h-522z" />
    <glyph glyph-name="period" unicode="." horiz-adv-x="409" 
d="M199 -40q-59 0 -101 43t-42 102q0 60 42 103t101 43q60 0 102 -43t42 -103q0 -59 -42 -102t-102 -43z" />
    <glyph glyph-name="slash" unicode="/" horiz-adv-x="630" 
d="M36 -104l492 1608h77l-490 -1608h-79z" />
    <glyph glyph-name="zero" unicode="0" horiz-adv-x="935" 
d="M468 -24q-94 0 -175.5 77t-131.5 236.5t-50 408.5t50 409t131 237.5t176 77.5q93 0 174 -77.5t131 -237.5t50 -409t-50 -408.5t-131 -236.5t-174 -77zM468 53q20 0 36 57.5t27.5 152t18 208t6.5 227.5t-6.5 228.5t-18 209.5t-27.5 153t-36 58q-23 0 -40 -55t-28 -148.5
t-16.5 -209t-5.5 -236.5q0 -120 5.5 -235t17 -207.5t28 -147.5t39.5 -55z" />
    <glyph glyph-name="one" unicode="1" horiz-adv-x="633" 
d="M78 0v75h102v1009q-10 -8 -27 -15.5t-36.5 -11.5t-35.5 -5v83q35 5 81 30t91 65.5t79 94t43 117.5h75v-1367h106v-75h-478z" />
    <glyph glyph-name="two" unicode="2" horiz-adv-x="820" 
d="M539 -11q-47 0 -86.5 17t-76 39.5t-73.5 39t-81 16.5q-47 0 -71 -34t-29 -67h-69q0 169 30.5 292.5t78.5 214.5t101.5 162t101.5 135.5t78.5 134.5t30.5 159q0 76 -16 132t-46.5 87.5t-75.5 31.5q-30 0 -55.5 -11.5t-39.5 -30.5t-14 -41q0 -20 16 -38.5t31.5 -43.5
t15.5 -63q0 -59 -30 -85.5t-75 -26.5q-48 0 -77 34.5t-29 106.5q0 77 37.5 138t107 97.5t165.5 36.5q58 0 118.5 -16t111 -54t81.5 -102.5t31 -162.5q0 -109 -27.5 -184t-74 -129t-103 -96t-116.5 -83.5t-113.5 -93.5t-93.5 -124.5t-58 -177.5q17 29 49.5 49.5t74.5 31
t89 10.5q61 0 103.5 -14t74.5 -28.5t61 -14.5q40 0 55 21.5t15 54.5h68v-46q0 -61 -17 -124.5t-60 -106.5t-119 -43z" />
    <glyph glyph-name="three" unicode="3" horiz-adv-x="828" 
d="M377 -24q-82 0 -148.5 36.5t-105 99t-38.5 138.5q0 72 39 111.5t85 39.5q45 0 70.5 -24t25.5 -75q0 -38 -19 -62t-38 -47t-19 -60q0 -34 30 -54.5t75 -20.5q36 0 63.5 24.5t44 90.5t16.5 192q0 107 -11 172t-32 99t-49.5 45.5t-62.5 11.5v79q35 0 65.5 8.5t53.5 39.5
t35.5 96.5t12.5 179.5q0 129 -36 187.5t-97 58.5q-46 0 -76 -20.5t-30 -53.5q0 -37 19 -60.5t38 -47.5t19 -62q0 -52 -25.5 -76.5t-71.5 -24.5q-45 0 -84 40.5t-39 112.5q0 77 39 138t107.5 97.5t155.5 36.5q88 0 166 -35t127 -109t49 -190q0 -103 -33.5 -171t-84 -107.5
t-101.5 -57.5t-87 -21q36 -4 89 -23.5t106 -60t89 -109t36 -172.5q0 -123 -46 -210t-128.5 -133.5t-193.5 -46.5z" />
    <glyph glyph-name="four" unicode="4" horiz-adv-x="773" 
d="M194 0v75h102v265h-249v75l254 806q69 40 113 95t79 120h73v-1021h11q42 0 55.5 54.5t13.5 130.5h70v-260h-150v-265h102v-75h-474zM126 407l-13 8h185v591l9 -24z" />
    <glyph glyph-name="five" unicode="5" horiz-adv-x="866" 
d="M374 -24q-82 0 -143 36.5t-93.5 99t-32.5 138.5q0 72 34 111.5t81 39.5q44 0 74.5 -26.5t30.5 -85.5q0 -34 -20 -57t-40 -44.5t-20 -53.5q0 -23 8 -41t28.5 -28.5t56.5 -10.5q58 0 88 47t40.5 131t10.5 193q0 128 -9 203t-25 112.5t-37.5 48.5t-45.5 11q-42 0 -72 -22.5
t-49 -53.5t-27 -57l-79 11l75 722h71q7 -20 40.5 -38t79 -29t88.5 -11q80 0 126 25.5t47 52.5h64q0 -62 -25 -128.5t-76.5 -111.5t-132.5 -45q-58 0 -99 19t-66 45t-37.5 47.5t-14.5 26.5l-45 -452q9 15 32.5 34.5t63 34t91.5 14.5q56 0 114.5 -22.5t110 -73.5t83 -138
t31.5 -217q0 -143 -35.5 -232.5t-93 -138.5t-123.5 -67.5t-128 -18.5z" />
    <glyph glyph-name="six" unicode="6" horiz-adv-x="909" 
d="M468 -24q-98 0 -168 50.5t-114.5 145t-66 227t-21.5 295.5q0 137 28.5 266.5t83 234t131.5 166t174 61.5q70 0 127 -36.5t91 -97.5t34 -138q0 -84 -31 -118.5t-78 -34.5q-45 0 -74.5 26.5t-29.5 84.5q0 39 11 61.5t21.5 44t10.5 58.5q0 22 -11 39.5t-30.5 27.5t-45.5 10
q-39 0 -64.5 -30.5t-39.5 -84t-21 -124.5t-9 -153.5t-2 -169.5q1 7 17.5 31t50.5 46.5t87 22.5q36 0 85.5 -21.5t97 -71.5t79 -135.5t31.5 -215.5q0 -120 -28.5 -208t-78.5 -145.5t-113.5 -85.5t-133.5 -28zM463 50q32 0 51 33t27 117.5t8 238.5q0 139 -10.5 213.5
t-29.5 103t-44 28.5q-23 0 -42 -26.5t-31.5 -74.5t-16.5 -112q0 -161 3 -263.5t12 -159t27 -77.5t46 -21z" />
    <glyph glyph-name="seven" unicode="7" horiz-adv-x="754" 
d="M365 -20q-41 0 -76.5 21.5t-56.5 73.5t-21 145q0 146 40 271.5t100 237t120 213.5t100 201t40 201q-9 -42 -33 -74t-62.5 -50t-91.5 -18t-81.5 10t-49.5 19.5t-51 9.5q-27 0 -43.5 -12t-24.5 -38.5t-11 -71.5h-74v281h601q0 -23 -3.5 -53.5t-10.5 -67t-16 -79.5t-20 -90
t-24 -99q-11 -46 -23 -100.5t-24 -117.5q-21 -117 -38 -255t-17 -318q0 -93 -20 -145t-53.5 -73.5t-75.5 -21.5z" />
    <glyph glyph-name="eight" unicode="8" horiz-adv-x="910" 
d="M439 -20q-55 0 -118.5 18.5t-121 60.5t-94.5 113.5t-37 177.5q0 93 32.5 156t78.5 102t89 58.5t64 25.5l81 -51q-30 -18 -59 -49t-48.5 -86t-19.5 -147q0 -148 41 -225.5t114 -77.5q72 0 110.5 57.5t38.5 148.5q0 62 -31 116t-85 106.5t-125 109.5q-74 61 -129.5 134.5
t-86.5 159.5t-31 181q0 128 51 205.5t130.5 113.5t166.5 36q89 0 163.5 -35.5t120 -106t45.5 -177.5q0 -80 -29 -139.5t-71.5 -100t-83.5 -64.5t-65 -34l-42 41q22 11 50.5 52t50 106.5t21.5 149.5q0 74 -19.5 127t-54.5 81t-83 28q-45 0 -83.5 -23.5t-61.5 -68t-23 -107.5
q0 -64 41 -129.5t99 -121.5t107 -91q49 -34 100.5 -77t95.5 -95.5t71.5 -117.5t27.5 -144q0 -109 -36.5 -185t-95.5 -123t-126.5 -68t-129.5 -21z" />
    <glyph glyph-name="nine" unicode="9" horiz-adv-x="910" 
d="M452 1422q98 0 168.5 -50.5t114.5 -144.5t65.5 -227t21.5 -296q0 -136 -28.5 -266t-83 -234.5t-131.5 -166t-174 -61.5q-69 0 -126.5 36.5t-91.5 98.5t-34 137q0 85 31 119t78 34q45 0 74.5 -26t29.5 -85q0 -39 -10.5 -61.5t-21 -44t-10.5 -58.5q0 -22 10.5 -39.5
t30 -27.5t46.5 -10q39 0 64 30.5t39 84t21 124.5t9 153.5t2 169.5q-1 -6 -17.5 -30.5t-50 -47t-87.5 -22.5q-36 0 -85 21.5t-97 71.5t-79.5 136t-31.5 215q0 120 28.5 208t78.5 145.5t113.5 85.5t133.5 28zM457 1348q-32 0 -50.5 -33t-27 -117t-8.5 -239q0 -139 10.5 -213.5
t29.5 -103t44 -28.5q23 0 42 26.5t31.5 75t16.5 111.5q0 161 -3 263.5t-12 159t-27 77.5t-46 21z" />
    <glyph glyph-name="colon" unicode=":" horiz-adv-x="532" 
d="M270 788q-59 0 -101 43t-42 102q0 60 42 103t101 43q60 0 102 -43t42 -103q0 -59 -42 -102t-102 -43zM269 -40q-59 0 -101 43t-42 102q0 60 42 103t101 43q60 0 102 -43t42 -103q0 -59 -42 -102t-102 -43z" />
    <glyph glyph-name="semicolon" unicode=";" horiz-adv-x="532" 
d="M273 788q-59 0 -101 43t-42 102q0 60 42 103t101 43q60 0 102 -43t42 -103q0 -59 -42 -102t-102 -43zM226 -226l-63 79q22 12 52.5 34.5t54 47.5t23.5 45q0 13 -7 13t-16.5 -7t-36.5 -7q-30 0 -57.5 16.5t-45.5 48t-18 75.5q0 65 43.5 102t109.5 37q64 0 112.5 -40.5
t48.5 -120.5q0 -96 -32 -158.5t-78.5 -101t-89.5 -63.5z" />
    <glyph glyph-name="less" unicode="&#x3c;" horiz-adv-x="782" 
d="M628 95l-467 404v78l467 399v-90l-415 -350l415 -349v-92z" />
    <glyph glyph-name="equal" unicode="=" horiz-adv-x="817" 
d="M97 725v75h622v-75h-622zM97 325v75h622v-75h-622z" />
    <glyph glyph-name="greater" unicode="&#x3e;" horiz-adv-x="782" 
d="M169 95v92l416 349l-416 350v90l467 -399v-78z" />
    <glyph glyph-name="question" unicode="?" horiz-adv-x="708" 
d="M267 323q0 118 15.5 207.5t38.5 161.5t46.5 135.5t39.5 128t16 141.5q0 130 -42 190t-108 60q-44 0 -64.5 -22.5t-20.5 -56.5q0 -29 17.5 -51.5t35 -47t17.5 -62.5q0 -58 -28 -84t-74 -26q-45 0 -78.5 40.5t-33.5 114.5q0 78 36.5 138.5t101 96t147.5 35.5q52 0 111 -14
t111 -49t85 -97t33 -157q0 -93 -33 -163t-81.5 -133t-97.5 -130t-82 -152.5t-33 -203.5h-75zM306 -38q-59 0 -102 43t-43 102q0 60 43 103t102 43q58 0 101 -43t43 -103q0 -59 -43 -102t-101 -43z" />
    <glyph glyph-name="at" unicode="@" horiz-adv-x="955" 
d="M471 -22q-67 0 -137.5 36t-130 113.5t-96 201.5t-36.5 300q0 226 44 377.5t114 241.5t151.5 129t154.5 39q102 0 179 -58.5t119.5 -187t42.5 -339.5q0 -78 -14.5 -163.5t-43 -159.5t-71 -120t-98.5 -46q-43 0 -67.5 18t-34 43t-9.5 44q-14 -63 -54.5 -88.5t-88.5 -25.5
q-43 0 -85 26t-69.5 91t-27.5 181q0 112 19.5 194.5t54.5 136.5t81 80.5t99 26.5q36 0 59.5 -13t36 -31.5t14.5 -35.5l4 58h142l-43 -514q-2 -22 -2.5 -36.5t-0.5 -25.5q0 -17 4 -24t14 -7q17 0 40.5 51.5t41 140t17.5 201.5q0 239 -57 373t-196 134q-77 0 -147.5 -41.5
t-125.5 -128.5t-86 -222t-31 -321q0 -169 43.5 -298t117 -201.5t159.5 -72.5q95 0 144 40t96 103l61 -49q-29 -38 -71.5 -77.5t-99 -66.5t-130.5 -27zM462 435q19 0 32.5 14.5t23.5 39.5t16.5 57t9.5 68l20 256q0 22 -5.5 45t-18 39t-32.5 16q-31 0 -50.5 -31t-31 -83.5
t-16 -116t-4.5 -127.5q0 -76 14 -126.5t42 -50.5z" />
    <glyph glyph-name="A" unicode="A" horiz-adv-x="726" 
d="M-3 0v75h81l190 1326h144l229 -1326h93v-75h-459v75h75l-101 726h3l-95 -726h67v-75h-227zM151 249v70h208v-70h-208z" />
    <glyph glyph-name="B" unicode="B" horiz-adv-x="890" 
d="M44 0v75h94v1250h-94v75h429q62 0 121.5 -17t108 -54.5t76.5 -99t28 -150.5q0 -87 -27 -149t-68.5 -102t-86.5 -61t-82 -25q37 -1 86 -18t96.5 -56t78.5 -104.5t31 -163.5q0 -140 -50.5 -228.5t-127 -130t-158.5 -41.5h-455zM403 75h35q29 0 55.5 37.5t44 109.5t17.5 177
q0 125 -17.5 190.5t-44 89.5t-53.5 24h-37v-628zM403 778h37q31 0 54 29t34.5 95t11.5 177q0 100 -15.5 152.5t-40 73t-51.5 20.5h-30v-547z" />
    <glyph glyph-name="C" unicode="C" horiz-adv-x="752" 
d="M444 -20q-169 0 -273.5 187t-104.5 531q0 136 24 265.5t72 233t121 164.5t171 61q69 0 122.5 -44t83.5 -109t30 -127q0 -61 -24.5 -102t-78.5 -41q-60 0 -84 33t-24 88q0 38 17 63t34 48t17 55t-12 44.5t-33 12.5q-35 0 -60 -43t-42 -114t-27 -156.5t-14.5 -171.5
t-4.5 -158q0 -107 5.5 -203.5t16 -177t26.5 -139.5t37.5 -92t48.5 -33q37 0 60.5 20.5t38.5 56t26 82.5l62 -38q-20 -58 -49.5 -102.5t-73.5 -69t-108 -24.5z" />
    <glyph glyph-name="D" unicode="D" horiz-adv-x="889" 
d="M44 0v75h95v1250h-95v75h412q99 0 185.5 -78t139.5 -231t53 -380q0 -229 -53.5 -387.5t-140 -241t-184.5 -82.5h-412zM410 75h31q33 0 62.5 72t48 214t18.5 350q0 192 -18 329.5t-46.5 211t-59.5 73.5h-36v-1250z" />
    <glyph glyph-name="E" unicode="E" horiz-adv-x="764" 
d="M44 0v75h95v1250h-95v75h643v-349h-75q0 81 -17 143t-52.5 96.5t-91.5 34.5h-40v-587h155v93h74v-258h-74v90h-155v-588h40q56 0 91.5 35.5t52.5 98t17 143.5h75v-352h-643z" />
    <glyph glyph-name="F" unicode="F" horiz-adv-x="770" 
d="M68 0v75h96v1250h-96v75h617v-349h-76q0 81 -11 143t-41.5 96.5t-89.5 34.5h-32v-561h152v91h75v-258h-75v92h-152v-614h96v-75h-463z" />
    <glyph glyph-name="G" unicode="G" horiz-adv-x="859" 
d="M459 -20q-111 0 -201.5 75t-144 234t-53.5 409q0 229 61.5 390.5t156.5 246.5t195 85q77 0 136 -38t92 -100.5t33 -139.5q0 -64 -28 -103.5t-82 -39.5q-58 0 -83.5 38.5t-25.5 91.5q0 36 16.5 59.5t32.5 44t16 50.5q0 24 -23 46t-55 22q-48 0 -81 -61.5t-52 -160.5
t-27.5 -212.5t-8.5 -218.5q0 -161 10.5 -280.5t27.5 -199.5t40 -120t49 -40q14 0 21.5 5.5t12.5 11.5v483h-75v75h404v-75h-85v-558h-77q-1 3 -13.5 12t-34.5 9q-20 0 -39 -10t-45.5 -20.5t-69.5 -10.5z" />
    <glyph glyph-name="H" unicode="H" horiz-adv-x="972" 
d="M44 0v75h95v1250h-95v75h424v-75h-61v-567h164v567h-60v75h417v-75h-96v-1250h96v-75h-417v75h60v608h-164v-608h61v-75h-424z" />
    <glyph glyph-name="I" unicode="I" horiz-adv-x="587" 
d="M62 0v75h97v1250h-97v75h465v-75h-100v-1250h100v-75h-465z" />
    <glyph glyph-name="J" unicode="J" horiz-adv-x="767" 
d="M293 -23q-87 0 -139 39t-75 103.5t-23 142.5q0 73 31.5 105.5t79.5 32.5q46 0 76 -30t30 -100q0 -47 -16 -72t-32.5 -42t-16.5 -42q0 -29 15 -42.5t34 -13.5q42 0 64 26t22 93v1148h-106v75h477v-75h-101v-890q0 -125 -21.5 -212.5t-62.5 -141.5t-100 -79t-136 -25z" />
    <glyph glyph-name="K" unicode="K" horiz-adv-x="920" 
d="M31 0v75h93v1250h-93v75h461v-75h-101v-552l299 552h-90v75h259v-75h-82l-224 -415l25 73l243 -908h70v-75h-421v75h63l-177 676l35 -18v-658h64v-75h-424z" />
    <glyph glyph-name="L" unicode="L" horiz-adv-x="719" 
d="M51 0v75h89v1250h-89v75h450v-75h-93v-1250h37q43 0 72.5 36.5t45 99t15.5 141.5h75v-352h-602z" />
    <glyph glyph-name="M" unicode="M" horiz-adv-x="1091" 
d="M21 0v75h93v1250h-92v75h425l114 -687h-36l152 687h392v-75h-93v-1250h95v-75h-463v75h98v1225h38l-279 -1225h-74l-229 1279h27v-1279h78v-75h-246z" />
    <glyph glyph-name="N" unicode="N" horiz-adv-x="848" 
d="M28 0v75h93v1250h-93v75h391l250 -784h-15v709h-88v75h254v-75h-89v-1325h-157l-394 1245h18v-1170h90v-75h-260z" />
    <glyph glyph-name="O" unicode="O" horiz-adv-x="874" 
d="M440 -22q-108 0 -192.5 84t-133 244.5t-48.5 391.5q0 232 48.5 393.5t133 246t192.5 84.5q109 0 195 -84.5t135 -246t49 -393.5q0 -231 -49 -391.5t-135 -244.5t-195 -84zM440 53q26 0 43.5 41t28.5 123t16 202.5t5 278.5t-5 279t-16 203.5t-28.5 124.5t-43.5 42t-43 -42
t-26.5 -124.5t-13.5 -203.5t-4 -279t4 -278.5t13.5 -202.5t26.5 -123t43 -41z" />
    <glyph glyph-name="P" unicode="P" horiz-adv-x="881" 
d="M45 0v75h110v1250h-110v75h468q52 0 109 -19t106 -63t80 -118.5t31 -184.5q0 -113 -31.5 -198.5t-81 -143t-106 -86t-107.5 -28.5h-92v-484h109v-75h-485zM421 634h27q34 0 59 45.5t38 131t13 204.5q0 113 -11.5 181t-34 98.5t-55.5 30.5h-36v-691z" />
    <glyph glyph-name="Q" unicode="Q" horiz-adv-x="874" 
d="M686 -402q-50 0 -85.5 35.5t-35.5 102.5q0 52 23.5 89t47 68t23.5 65q0 22 -18.5 37t-46.5 15q-12 0 -27 -3t-24 -6l11 78q6 4 33.5 9t44.5 5q103 0 144 -88t41 -236q0 -85 -39 -128t-92 -43zM440 -22q-108 0 -192.5 84t-133 244.5t-48.5 391.5q0 232 48.5 393.5t133 246
t192.5 84.5q109 0 195 -84.5t135 -246t49 -393.5q0 -231 -49 -391.5t-135 -244.5t-195 -84zM440 53q26 0 43.5 41t28.5 123t16 202.5t5 278.5t-5 279t-16 203.5t-28.5 124.5t-43.5 42t-43 -42t-26.5 -124.5t-13.5 -203.5t-4 -279t4 -278.5t13.5 -202.5t26.5 -123t43 -41z
" />
    <glyph glyph-name="R" unicode="R" horiz-adv-x="963" 
d="M783 -18q-100 0 -146 43.5t-59 121.5t-13 179q0 53 2 101t2 78q0 73 -10 110.5t-34 52.5t-65 15h-39v-608h103v-75h-477v75h108v1250h-108v75h475q90 0 163.5 -33.5t117.5 -105t44 -186.5q0 -86 -27.5 -149.5t-71.5 -106t-95 -66.5t-98 -31q113 -5 174.5 -38t85.5 -102.5
t24 -185.5q0 -54 -3 -105.5t-3 -95.5q0 -27 2 -55t9 -47t20 -19t18.5 10t5.5 23h70q-6 -44 -27.5 -71.5t-58.5 -40.5t-89 -13zM421 758h43q37 0 61 41.5t37 113t13 158.5q0 83 -13 139.5t-37.5 85.5t-59.5 29h-44v-567z" />
    <glyph glyph-name="S" unicode="S" horiz-adv-x="706" 
d="M366 -27q-57 0 -91 12.5t-54 30t-33 30t-28 12.5q-29 0 -29 -58h-72v355h75q1 -20 10.5 -56.5t28 -78.5t45.5 -80.5t63.5 -63.5t82.5 -25q38 0 61 14.5t33.5 45t10.5 75.5q0 59 -26.5 118t-74 126t-111.5 148q-79 100 -122 184.5t-59.5 160.5t-16.5 153q0 115 39.5 191.5
t101.5 115.5t131 39q62 0 94.5 -19t50.5 -38t36 -19q14 0 21 11t7 43h73v-352h-75q-2 29 -15 78t-37.5 99.5t-62 85t-88.5 34.5t-78 -37t-27 -103q0 -51 26.5 -110.5t76 -127.5t116.5 -145q72 -80 116 -155.5t65 -155t21 -169.5q0 -111 -26.5 -183t-68.5 -112t-92 -57
t-98 -17z" />
    <glyph glyph-name="T" unicode="T" horiz-adv-x="836" 
d="M167 0v75h117v1250h-16q-65 0 -98 -29.5t-45 -90t-12 -154.5h-75v349h760v-349h-75q0 94 -11.5 154.5t-44.5 90t-99 29.5h-15v-1250h120v-75h-506z" />
    <glyph glyph-name="U" unicode="U" horiz-adv-x="843" 
d="M451 -24q-51 0 -106.5 14t-103.5 53t-77.5 112t-29.5 191v979h-99v75h483v-75h-110v-991q0 -137 27.5 -200.5t87.5 -63.5q22 0 42.5 10.5t37 36t26 71t9.5 115.5v1022h-88v75h259v-75h-94v-1028q0 -123 -31.5 -193.5t-90.5 -99t-142 -28.5z" />
    <glyph glyph-name="V" unicode="V" horiz-adv-x="744" 
d="M327 0l-230 1325h-88v75h459v-75h-80l102 -680h-23l109 680h-77v75h243v-75h-83l-225 -1325h-107z" />
    <glyph glyph-name="W" unicode="W" horiz-adv-x="1212" 
d="M338 0l-235 1325h-100v75h477v-75h-60l90 -670l-37 -92l128 692l24 -170l-51 240h-72v75h446v-75h-74l87 -650l-27 -92l121 742h-79v75h242v-75h-81l-225 -1325h-98l-188 1072l40 79l-230 -1151h-98z" />
    <glyph glyph-name="X" unicode="X" horiz-adv-x="857" 
d="M347 0v75h108l-347 1250h-84v75h484v-75h-102l346 -1250h83v-75h-488zM16 0v75h87l211 578l79 -22l-207 -556h88v-75h-258zM504 762l-77 25l199 538h-80v75h245v-75h-80z" />
    <glyph glyph-name="Y" unicode="Y" horiz-adv-x="861" 
d="M194 0v75h108v512l-188 738h-98v75h478v-75h-77l152 -664h-68l170 664h-85v75h260v-75h-95l-179 -691v-559h110v-75h-488z" />
    <glyph glyph-name="Z" unicode="Z" horiz-adv-x="768" 
d="M60 0v75l333 1250h-47q-78 0 -118.5 -34.5t-55 -96.5t-14.5 -143h-74v349h600v-75l-333 -1250h56q71 0 121.5 35.5t78 98t27.5 143.5h75v-352h-649z" />
    <glyph glyph-name="bracketleft" unicode="[" horiz-adv-x="297" 
d="M38 -440v1940h221v-75h-146v-1790h146v-75h-221z" />
    <glyph glyph-name="backslash" unicode="\" horiz-adv-x="652" 
d="M616 -104h-79l-490 1608h77z" />
    <glyph glyph-name="bracketright" unicode="]" horiz-adv-x="374" 
d="M336 -440h-221v75h146v1790h-146v75h221v-1940z" />
    <glyph glyph-name="asciicircum" unicode="^" horiz-adv-x="857" 
d="M120 949l264 451h91l263 -451h-86l-222 384l-224 -384h-86z" />
    <glyph glyph-name="underscore" unicode="_" horiz-adv-x="1014" 
d="M22 -220v75h973v-75h-973z" />
    <glyph glyph-name="grave" unicode="`" horiz-adv-x="601" 
d="M365 1256l-209 101q-30 14 -44.5 29.5t-14.5 42.5q0 24 18 40t45 16q21 0 35.5 -8.5t29.5 -20.5l182 -150z" />
    <glyph glyph-name="a" unicode="a" horiz-adv-x="860" 
d="M297 -22q-69 0 -125.5 33t-90.5 93t-34 143q0 97 42 160t104 105.5t123.5 75.5t103.5 69.5t42 89.5q0 72 -12.5 123t-38 77t-65.5 26q-47 0 -77 -23.5t-30 -56.5q0 -28 12.5 -48t24.5 -42t12 -60q0 -51 -29 -80.5t-75 -29.5q-48 0 -77.5 40.5t-29.5 111.5
q0 79 41.5 141.5t115.5 98.5t169 36q96 0 170 -38t116.5 -120t42.5 -216v-517q0 -53 8.5 -71t26.5 -18q19 0 32.5 10.5t19.5 18.5l44 -58q-18 -24 -70 -47.5t-122 -23.5q-71 0 -109 19.5t-55 45.5t-23 44q-4 -12 -23 -39t-58.5 -50t-105.5 -23zM390 98q22 0 38.5 20t25 52
t8.5 66v375q-4 -28 -26 -53t-49 -57.5t-47 -84.5t-20 -136q0 -89 19.5 -135.5t50.5 -46.5z" />
    <glyph glyph-name="b" unicode="b" horiz-adv-x="891" 
d="M521 -20q-52 0 -84 23.5t-47.5 54t-18.5 52.5l-25 -110h-331v75h102v1350h-102v75h377v-538q3 10 17 34t45.5 44.5t83.5 20.5q73 0 138.5 -56t107 -176t41.5 -311q0 -208 -44 -325t-113.5 -165t-146.5 -48zM464 123q25 0 42.5 26.5t28 77.5t15 123.5t4.5 164.5
q0 93 -4.5 165.5t-15 123.5t-27.5 77.5t-43 26.5q-20 0 -35 -21.5t-24.5 -60t-12.5 -90.5v-373q0 -65 11 -120t27.5 -87.5t33.5 -32.5z" />
    <glyph glyph-name="c" unicode="c" horiz-adv-x="724" 
d="M418 -22q-71 0 -136.5 35.5t-117 105t-81 172t-29.5 237.5q0 148 38 250t96.5 164t123 90.5t115.5 28.5q80 0 137.5 -40.5t89 -106.5t31.5 -142q0 -67 -29.5 -103t-75.5 -36q-47 0 -77 30.5t-30 83.5q0 34 14 55.5t27.5 42.5t13.5 51q0 46 -25.5 67t-57.5 21
q-37 0 -59 -44t-33.5 -113t-15 -147t-3.5 -144q0 -81 5 -164.5t19 -153t40.5 -112.5t69.5 -43q59 0 91 35.5t46 77.5l58 -50q-23 -57 -84.5 -102.5t-160.5 -45.5z" />
    <glyph glyph-name="d" unicode="d" horiz-adv-x="900" 
d="M367 -20q-77 0 -147 48t-115 165t-45 325q0 191 42.5 311t109 176t137.5 56q58 0 89 -18t43.5 -40t14.5 -32v452h-120v77h397v-1425h116v-75h-345l-27 112q-1 -27 -19 -58t-50.5 -52.5t-80.5 -21.5zM420 123q23 0 40 32.5t26.5 84.5t9.5 110v386q-2 52 -11.5 91.5
t-25.5 62t-38 22.5q-21 0 -37.5 -27.5t-28 -79t-18 -125t-6.5 -165.5q0 -90 5.5 -162.5t16.5 -123.5t27.5 -78.5t39.5 -27.5z" />
    <glyph glyph-name="e" unicode="e" horiz-adv-x="810" 
d="M426 -20q-80 0 -148 33.5t-118 101.5t-77.5 171t-27.5 241q0 145 34 247t89.5 165.5t119.5 92.5t122 29q70 0 131 -33t106.5 -94t71.5 -146.5t26 -191.5q0 -20 -0.5 -40t-2.5 -41h-441v75h187q0 155 -9 240.5t-26.5 120t-42.5 34.5t-47 -35.5t-35 -128.5t-13 -267
q0 -130 7.5 -223t24 -151.5t42 -86t63.5 -27.5q75 0 120 37.5t64 75.5l63 -47q-25 -56 -101.5 -104t-181.5 -48z" />
    <glyph glyph-name="f" unicode="f" horiz-adv-x="656" 
d="M37 0v75h113v897h-132v75h132v100q0 101 36 183.5t110.5 131.5t188.5 49q108 0 167 -75.5t59 -196.5q0 -70 -28 -107.5t-82 -37.5q-57 0 -81 35t-24 84q0 44 19 68t37.5 41.5t18.5 40.5q0 35 -19.5 53t-43.5 18q-30 0 -47.5 -24.5t-26.5 -66.5t-11.5 -96t-2.5 -113v-87
h145v-75h-145v-897h118v-75h-501z" />
    <glyph glyph-name="g" unicode="g" horiz-adv-x="887" 
d="M430 -498q-91 0 -178.5 27.5t-144.5 86t-57 151.5q0 67 27 112t64 71t67.5 38t37.5 13q-7 2 -30.5 11t-51 29t-47.5 53.5t-20 83.5q0 35 13 61t33.5 43t39.5 23q5 2 13 4t10 2q-5 3 -24.5 22t-43 57t-41.5 100t-18 150q0 119 36 199.5t91 129.5t115 70.5t109 21.5
q108 0 185.5 -51.5t119.5 -144t42 -214.5q0 -132 -35.5 -215t-91 -127.5t-115 -61t-107.5 -16.5q-62 0 -100 12t-48 16h-1.5h-1.5q-12 0 -24.5 -12.5t-12.5 -36.5q0 -35 51.5 -61.5t190.5 -53.5q157 -28 247 -96.5t90 -208.5q0 -86 -39.5 -142.5t-100.5 -88t-128 -44.5
t-121 -13zM430 -425q66 0 106 49.5t40 112.5t-17.5 100t-68.5 68q-19 12 -44.5 25t-49.5 23t-38 14q-17 -8 -37 -32.5t-34.5 -65t-14.5 -99.5q0 -60 18.5 -103.5t54 -67.5t85.5 -24zM428 309q21 0 39 21.5t29.5 93.5t11.5 223q0 144 -11.5 215.5t-30 95.5t-38.5 24t-38 -24
t-29.5 -96.5t-11.5 -217.5q0 -151 12 -222t30 -92t37 -21zM557 980q12 76 70.5 119.5t126.5 43.5q56 0 79 -28t23 -70q0 -41 -22.5 -63t-56.5 -22q-35 0 -49.5 16t-24.5 31t-34 15q-12 0 -23 -8t-11 -34h-78z" />
    <glyph glyph-name="h" unicode="h" horiz-adv-x="948" 
d="M32 0v75h103v1350h-103v75h373v-539q1 5 21.5 30t61.5 48t103 23q67 0 120 -32t84 -106.5t31 -201.5v-647h103v-75h-440v75h67v637q0 112 -15.5 153.5t-45.5 41.5q-21 0 -41 -18t-33.5 -56t-15.5 -98v-660h71v-75h-444z" />
    <glyph glyph-name="i" unicode="i" horiz-adv-x="527" 
d="M26 0v75h103v897h-103v75h373v-972h102v-75h-475zM264 1161q-70 0 -119.5 49.5t-49.5 120.5q0 69 49.5 118.5t119.5 49.5q69 0 118.5 -49.5t49.5 -118.5q0 -71 -49.5 -120.5t-118.5 -49.5z" />
    <glyph glyph-name="j" unicode="j" horiz-adv-x="564" 
d="M126 -498q-67 0 -117 36t-78 97t-28 136q0 72 33 108.5t81 36.5q44 0 68.5 -31.5t24.5 -88.5q0 -38 -11 -61.5t-22 -43t-11 -44.5q0 -18 4 -33.5t13.5 -25t26.5 -9.5q45 0 58.5 49t13.5 150v1194h-115v75h385v-1088q0 -139 -30.5 -229t-79.5 -139.5t-106 -69t-110 -19.5z
M313 1161q-70 0 -120 49.5t-50 120.5q0 69 50 118.5t120 49.5q69 0 118.5 -49.5t49.5 -118.5q0 -71 -49.5 -120.5t-118.5 -49.5z" />
    <glyph glyph-name="k" unicode="k" horiz-adv-x="913" 
d="M25 0v75h103v1350h-103v75h373v-801l215 273h-103v75h313v-75h-115l-105 -143l237 -754h87v-75h-457v75h80l-156 511l4 -6v-505h63v-75h-436z" />
    <glyph glyph-name="l" unicode="l" horiz-adv-x="543" 
d="M30 0v75h107v1350h-107v75h377v-1425h107v-75h-484z" />
    <glyph glyph-name="m" unicode="m" horiz-adv-x="1303" 
d="M27 0v75h97v897h-97v75h360v-110q0 14 21.5 44t64 55t105.5 25q60 0 99.5 -27t60.5 -61.5t26 -56.5q6 28 35.5 61.5t77 58.5t107.5 25q97 0 156 -74t59 -197v-715h94v-75h-428v75h64v628q0 78 -4 126t-16.5 71t-38.5 23q-27 0 -43 -22t-24.5 -62.5t-10.5 -95.5v-668h66
v-75h-394v75h62v628q0 116 -9 168t-48 52q-26 0 -43 -22.5t-24 -66.5t-8 -107v-652h62v-75h-429z" />
    <glyph glyph-name="n" unicode="n" horiz-adv-x="943" 
d="M32 0v75h106v897h-106v75h369v-100q3 12 24 39.5t61.5 51t99.5 23.5q66 0 119 -28t83.5 -100.5t30.5 -208.5v-649h105v-75h-443v75h68v648q0 102 -13 150.5t-46 48.5q-17 0 -31.5 -12t-25 -35.5t-17 -56.5t-8.5 -75v-668h65v-75h-441z" />
    <glyph glyph-name="o" unicode="o" horiz-adv-x="823" 
d="M410 -22q-62 0 -124.5 33t-115 101t-84 171.5t-31.5 243.5q0 152 33 255t86 164.5t115 88t121 26.5q58 0 120.5 -26.5t116 -88t87 -164.5t33.5 -255q0 -140 -32 -243.5t-84.5 -171.5t-115.5 -101t-125 -33zM410 65q41 0 63 108.5t22 353.5t-22 347t-63 102
q-39 0 -61 -102t-22 -347t22 -353.5t61 -108.5z" />
    <glyph glyph-name="p" unicode="p" horiz-adv-x="877" 
d="M20 -500v75h104v1397h-104v75h373v-84q2 9 21 32.5t55 44.5t86 21q71 0 131 -56t97 -176t37 -311q0 -208 -41 -325t-107 -165t-142 -48q-43 0 -70.5 15t-42.5 33t-18 26v-479h104v-75h-483zM467 93q20 0 34.5 27.5t25.5 81t16 132.5t5 181q0 105 -5 183.5t-15 132
t-25.5 80t-34.5 26.5q-23 0 -36 -23t-20 -63t-13 -91v-482q1 -55 8 -97t21.5 -65t38.5 -23z" />
    <glyph glyph-name="q" unicode="q" horiz-adv-x="899" 
d="M403 -500v75h107v479q-3 -9 -17.5 -27t-41.5 -32.5t-70 -14.5q-76 0 -143 48t-108 165t-41 325q0 191 40 311t104 176t134 56q60 0 95 -21.5t51 -46.5t18 -38l21 92h232v-1472h102v-75h-483zM441 93q23 0 38 23.5t22.5 65.5t8.5 96v473q-3 57 -11 99t-22.5 64.5
t-35.5 22.5q-20 0 -35 -28t-25.5 -82t-16 -132.5t-5.5 -179.5q0 -102 5.5 -180.5t16 -132.5t25.5 -81.5t35 -27.5z" />
    <glyph glyph-name="r" unicode="r" horiz-adv-x="752" 
d="M26 0v75h107v897h-107v75h351l16 -88q6 16 26 40.5t53 43t73 18.5q61 0 100.5 -38t59 -102.5t19.5 -141.5q0 -71 -28.5 -108.5t-76.5 -37.5q-45 0 -72.5 32t-27.5 88q0 38 15.5 60t31 42.5t15.5 53.5q0 35 -12.5 51t-42.5 16q-27 0 -56 -28.5t-48 -86t-19 -144.5v-642
h105v-75h-482z" />
    <glyph glyph-name="s" unicode="s" horiz-adv-x="631" 
d="M321 -22q-59 0 -91 15t-49 30t-34 15q-15 0 -20.5 -9.5t-5.5 -28.5h-70v337h83q6 -51 21.5 -101.5t39.5 -91.5t55.5 -66t68.5 -25q31 0 50.5 11t28.5 31.5t9 48.5q0 40 -19.5 80t-54.5 83.5t-82 90.5q-83 85 -141 174t-58 218q0 97 38 156.5t98 87t125 27.5
q46 0 73.5 -12.5t44.5 -25t29 -12.5q10 0 15.5 7.5t6.5 28.5h71v-328h-82q-4 42 -15 88.5t-30 86.5t-46 65.5t-62 25.5q-48 0 -71 -35.5t-23 -80.5q0 -54 41.5 -105.5t113.5 -118.5q51 -48 97.5 -104.5t75.5 -127t29 -160.5q0 -100 -33 -160.5t-92 -87.5t-135 -27z" />
    <glyph glyph-name="t" unicode="t" horiz-adv-x="596" 
d="M407 -18q-68 0 -128.5 21.5t-98 80.5t-37.5 169v719h-145v75h145q51 5 91 49t65.5 111.5t33.5 143.5h80v-304h166v-75h-166v-835q0 -41 19.5 -56t38.5 -15q18 0 34 7t23 15l42 -60q-28 -21 -67.5 -33.5t-95.5 -12.5z" />
    <glyph glyph-name="u" unicode="u" horiz-adv-x="916" 
d="M368 -22q-69 0 -125.5 26t-90 97.5t-33.5 208.5v662h-100v74h370v-705q0 -98 5.5 -150.5t19.5 -71.5t39 -19t45 26t31 77.5t11 129.5v639h-87v74h357v-971h86v-75h-323l-16 97q-5 -22 -29 -50t-64.5 -48.5t-95.5 -20.5z" />
    <glyph glyph-name="v" unicode="v" horiz-adv-x="699" 
d="M303 -1l-215 973h-78v75h432v-75h-68l80 -441l84 441h-63v75h217v-75h-71l-200 -973h-118z" />
    <glyph glyph-name="w" unicode="w" horiz-adv-x="1162" 
d="M744 -1l-198 973h-69v75h423v-75h-72l71 -450l90 450h-58v75h220v-75h-75l-198 -973h-134zM288 -1l-197 973h-77v75h435v-75h-68l64 -450l88 450h-24v75h186v-75h-73l-200 -973h-134z" />
    <glyph glyph-name="x" unicode="x" horiz-adv-x="767" 
d="M13 0v75h91l184 462l111 8l164 427h-62v75h236v-75h-83l-189 -451l-106 -7l-163 -439h64v-75h-247zM336 0v75h71l-305 897h-83v75h350h88v-75h-69l307 -897h82v-75h-354h-87z" />
    <glyph glyph-name="y" unicode="y" horiz-adv-x="750" 
d="M230 -502q-51 0 -88 36.5t-56 98.5t-19 138q0 71 29 107.5t76 36.5q46 0 74 -32t28 -90q0 -45 -18 -72.5t-35.5 -50.5t-17.5 -56q0 -24 10 -39t29 -15q11 0 18.5 6.5t13.5 21.5t12 42l78 353l-272 989h-84v75h450v-75h-79l116 -440l100 440h-74v75h230v-75h-71l-234 -979
l-87 -380q-8 -34 -23.5 -60.5t-40.5 -40.5t-65 -14z" />
    <glyph glyph-name="z" unicode="z" horiz-adv-x="705" 
d="M78 0v75l274 897h-90q-51 0 -73.5 -23t-28 -78.5t-5.5 -151.5h-73v328h548v-75l-274 -897h90q51 0 73 24t27 81t5 157h75v-337h-548z" />
    <glyph glyph-name="braceleft" unicode="{" horiz-adv-x="422" 
d="M347 -320q-25 0 -59.5 10.5t-67.5 45t-55.5 105.5t-22.5 192q0 85 12 148t23.5 119t11.5 117q0 65 -13 101.5t-58 36.5v73q45 0 58 36t13 103q0 61 -11.5 116.5t-23.5 119t-12 146.5q0 121 22.5 192t55.5 105.5t67.5 45t59.5 10.5v-75q-12 0 -33 -8t-42.5 -35t-35.5 -84
t-14 -156q0 -81 12.5 -142.5t24.5 -116.5t12 -117q0 -98 -26 -132.5t-52 -42.5q26 -11 52 -45.5t26 -131.5q0 -62 -12 -117.5t-24.5 -117.5t-12.5 -143q0 -98 14 -155.5t35.5 -84.5t42.5 -35t33 -8v-75z" />
    <glyph glyph-name="bar" unicode="|" horiz-adv-x="210" 
d="M67 -329v1829h75v-1829h-75z" />
    <glyph glyph-name="braceright" unicode="}" horiz-adv-x="422" 
d="M76 -320v75q12 0 33 8t42.5 35t36 84.5t14.5 155.5q0 81 -12 143t-24.5 117.5t-12.5 117.5q0 97 25.5 131.5t52.5 45.5q-27 8 -52.5 42.5t-25.5 132.5q0 62 12.5 117t24.5 116.5t12 142.5q0 99 -14.5 156t-36 84t-42.5 35t-33 8v75q25 0 59.5 -10.5t68 -45t55.5 -105.5
t22 -192q0 -83 -11.5 -146.5t-23.5 -119t-12 -116.5q0 -67 13 -103t58 -36v-73q-45 0 -58 -36.5t-13 -101.5q0 -61 12 -117t23.5 -119t11.5 -148q0 -121 -22 -192t-55.5 -105.5t-68 -45t-59.5 -10.5z" />
    <glyph glyph-name="asciitilde" unicode="~" horiz-adv-x="739" 
d="M504 1267q-68 0 -113.5 22t-81.5 44t-79 22q-47 0 -80.5 -23.5t-41.5 -39.5l-58 44q10 17 31.5 41.5t58.5 44.5t93 20q68 0 113 -22t81 -44.5t78 -22.5q32 0 59 13t45 30.5t23 28.5l57 -48q-9 -19 -32.5 -45t-61.5 -45.5t-91 -19.5z" />
    <glyph glyph-name="uni00A0" unicode="&#xa0;" horiz-adv-x="372" 
 />
    <glyph glyph-name="exclamdown" unicode="&#xa1;" horiz-adv-x="395" 
d="M230 726q0 -97 15 -202.5t34.5 -213.5t34.5 -215t15 -208q0 -95 -34.5 -147.5t-100.5 -52.5q-65 0 -99.5 52.5t-34.5 147.5q0 101 15 208t34 215t34 213.5t15 202.5h72zM199 1141q58 0 100.5 -43t42.5 -102q0 -60 -42.5 -102.5t-100.5 -42.5q-60 0 -102 42.5t-42 102.5
q0 59 42 102t102 43z" />
    <glyph glyph-name="cent" unicode="&#xa2;" horiz-adv-x="710" 
d="M266 -116l153 1225h56l-152 -1225h-57zM418 -22q-71 0 -136.5 35.5t-117 105t-81 172t-29.5 237.5q0 148 38 250t96.5 164t123 90.5t115.5 28.5q80 0 137.5 -40.5t89 -106.5t31.5 -142q0 -67 -29.5 -103t-75.5 -36q-47 0 -77 30.5t-30 83.5q0 34 14 55.5t27.5 42.5
t13.5 51q0 46 -25.5 67t-57.5 21q-37 0 -59 -44t-33.5 -113t-15 -147t-3.5 -144q0 -81 5 -164.5t19 -153t40.5 -112.5t69.5 -43q59 0 91 35.5t46 77.5l58 -50q-23 -57 -84.5 -102.5t-160.5 -45.5z" />
    <glyph glyph-name="sterling" unicode="&#xa3;" horiz-adv-x="672" 
d="M7 712v75h522v-75h-522zM142 -24q-41 0 -71 26.5t-30 85.5q0 61 30.5 102t78.5 65.5t98 32.5q3 15 5 37.5t2 61.5q0 57 -29.5 137t-69 170.5t-69.5 181.5t-30 170q0 140 48 222.5t122 118t153 35.5q111 0 175.5 -75t64.5 -189q0 -70 -28.5 -110.5t-76.5 -40.5
q-45 0 -76 38t-31 96q0 38 17.5 65t35 48t17.5 40q0 26 -19.5 37t-49.5 11q-43 0 -68 -35.5t-35 -92t-10 -120.5q0 -81 20 -177.5t40 -199t20 -204.5q0 -52 -7 -100.5t-15.5 -82.5t-12.5 -46q31 -7 55 -26.5t43 -42t37 -38.5t38 -16q21 0 36 15t17 34h62q0 -78 -17.5 -128
t-51 -73.5t-79.5 -23.5q-34 0 -63.5 23.5t-52.5 54.5t-38 55t-23 26q-23 -86 -62.5 -127t-99.5 -41zM146 50q23 0 46 26t33 81q-38 0 -71.5 -26.5t-33.5 -57.5q0 -14 7.5 -18.5t18.5 -4.5z" />
    <glyph glyph-name="currency" unicode="&#xa4;" horiz-adv-x="872" 
d="M436 51q-49 0 -105.5 23.5t-105.5 77.5t-80.5 146t-31.5 229q0 139 32 228t82 138t105.5 68t103.5 19t103.5 -19t106 -68t82 -138t31.5 -228q0 -137 -31 -229t-81 -146t-106 -77.5t-105 -23.5zM436 119q24 0 43.5 18.5t33.5 63t21.5 124t7.5 202.5q0 120 -7.5 195.5
t-21.5 116.5t-33.5 57t-43.5 16t-44.5 -16t-34.5 -57t-22 -116.5t-8 -195.5q0 -123 8 -202.5t22 -124t34.5 -63t44.5 -18.5zM764 996l54 -53l-163 -158l-49 49zM773 45l-158 162l49 49l163 -158zM107 996l157 -162l-48 -49l-162 158zM98 45l-54 53l163 158l48 -49z" />
    <glyph glyph-name="yen" unicode="&#xa5;" horiz-adv-x="810" 
d="M170 551v75h528v-75h-528zM170 322v75h528v-75h-528zM194 0v75h108v512l-188 738h-98v75h478v-75h-77l152 -664h-68l170 664h-85v75h260v-75h-95l-179 -691v-559h110v-75h-488z" />
    <glyph glyph-name="brokenbar" unicode="&#xa6;" horiz-adv-x="210" 
d="M67 871v629h75v-629h-75zM67 -329v620h75v-620h-75z" />
    <glyph glyph-name="section" unicode="&#xa7;" horiz-adv-x="625" 
d="M286 -378q-55 0 -109 24t-89 70t-35 114t34 107t84 39q46 0 71.5 -23.5t25.5 -68.5q0 -38 -17 -57.5t-34 -33.5t-17 -36q0 -28 26 -44t53 -16q36 0 61 13.5t38 50.5t13 108q0 62 -35.5 112.5t-88 101.5t-105 113.5t-88 148t-35.5 205.5q0 66 22.5 115.5t53.5 83.5
t58.5 53t36.5 23q-27 32 -60.5 79.5t-57.5 110t-24 137.5q0 91 35.5 150.5t89.5 88.5t107 29q85 0 147 -53.5t62 -153.5q0 -65 -25 -106t-76 -41q-45 0 -71 24t-26 68q0 34 17 53.5t34 35t17 38.5q0 19 -8.5 32t-25.5 20.5t-43 7.5q-42 0 -67.5 -26.5t-25.5 -104.5
q0 -84 37 -142.5t92 -106.5t109.5 -102.5t92 -130.5t37.5 -191q0 -93 -35 -152t-76.5 -89.5t-61.5 -39.5q28 -31 61.5 -78.5t57.5 -111.5t24 -148q0 -103 -42 -169.5t-102.5 -98.5t-116.5 -32zM348 321q22 9 43 47t21 84q0 61 -22.5 119.5t-57.5 109t-72 88.5
q-26 -11 -50.5 -50.5t-24.5 -85.5q0 -51 19.5 -100t47.5 -90.5t55 -73.5t41 -48z" />
    <glyph glyph-name="dieresis" unicode="&#xa8;" horiz-adv-x="797" 
d="M528 1243q-38 0 -65.5 28t-27.5 64q0 39 27.5 67.5t65.5 28.5q36 0 64 -28.5t28 -67.5q0 -36 -28 -64t-64 -28zM276 1243q-36 0 -63 28t-27 64q0 39 27 67.5t63 28.5q39 0 66 -28.5t27 -67.5q0 -36 -27 -64t-66 -28z" />
    <glyph glyph-name="copyright" unicode="&#xa9;" horiz-adv-x="1192" 
d="M598 -22q-106 0 -199 54.5t-163.5 152.5t-110.5 228.5t-40 282.5t40 282t110.5 228t163.5 152.5t199 54.5q105 0 197 -54.5t162.5 -152.5t110 -228t39.5 -282t-39.5 -282.5t-110 -228.5t-162.5 -152.5t-197 -54.5zM594 235q-72 0 -127 58t-86 163t-31 245q0 120 31.5 227
t91.5 174t143 67q72 0 115.5 -54t43.5 -129q0 -49 -19 -78.5t-54 -29.5q-37 0 -53.5 20.5t-16.5 50.5q0 28 13 41.5t26 23.5t13 24q0 23 -13 40.5t-48 17.5q-33 0 -52.5 -36.5t-30 -95t-14 -127t-3.5 -134.5q0 -60 3.5 -127t13 -127t27.5 -97.5t48 -37.5q37 0 65 34.5
t42 64.5l52 -63q-25 -54 -71 -84.5t-109 -30.5zM598 55q92 0 170 49.5t136 137t90.5 204t32.5 250.5q0 133 -32.5 249.5t-90.5 204t-136 137t-170 49.5t-171 -49.5t-137 -137t-90 -204t-32 -249.5q0 -134 32 -250.5t90 -204t137 -137t171 -49.5z" />
    <glyph glyph-name="ordfeminine" unicode="&#xaa;" horiz-adv-x="528" 
d="M207 1138q-54 0 -82 24.5t-28 66.5q0 43 30 66t69.5 37.5t69.5 27t30 35.5q0 36 -5 45.5t-31 9.5q-18 0 -25.5 -5t-7.5 -11t0.5 -16t0.5 -21q0 -19 -16.5 -33t-46.5 -14q-24 0 -38 17t-14 40q0 44 45.5 73.5t109.5 29.5q63 0 111 -24.5t48 -101.5v-151q0 -31 21 -31
q16 0 20 9l21 -43q-6 -11 -30.5 -19.5t-62.5 -8.5q-40 0 -62 9.5t-34 37.5q-1 -10 -21.5 -29.5t-71.5 -19.5zM265 1212q11 0 21 9.5t10 23.5v71q-1 -4 -10.5 -9.5t-20.5 -13.5t-19 -20.5t-8 -28.5q0 -18 6.5 -25t20.5 -7z" />
    <glyph glyph-name="guillemotleft" unicode="&#xab;" horiz-adv-x="747" 
d="M537 304l-223 232l223 233h83l-224 -233l227 -232h-86zM347 304l-223 232l223 233h83l-224 -233l227 -232h-86z" />
    <glyph glyph-name="logicalnot" unicode="&#xac;" horiz-adv-x="709" 
d="M507 326v236l34 -35h-452v71h489v-272h-71z" />
    <glyph glyph-name="uni00AD" unicode="&#xad;" horiz-adv-x="582" 
d="M105 525v75h373v-75h-373z" />
    <glyph glyph-name="registered" unicode="&#xae;" horiz-adv-x="946" 
d="M487 387q-117 0 -202.5 68t-133 184t-47.5 262q0 145 47.5 261t133 183.5t202.5 67.5t203 -67.5t132 -184t46 -260.5q0 -145 -46 -261.5t-132 -184.5t-203 -68zM487 444q104 0 176 61t109 165t37 231t-37 230t-109 164.5t-176 61.5t-176 -61.5t-109.5 -164.5t-37.5 -230
t37.5 -231t109.5 -165t176 -61zM620 573q-45 0 -75 21.5t-30 75.5q0 46 2.5 90.5t2.5 68.5t-10.5 41.5t-33.5 17.5h-18v-251h43v-56h-210v56h55v542h-55v55h212q50 0 98.5 -36t48.5 -115q0 -64 -26 -111.5t-90 -55.5q62 -1 85 -29t23 -74q0 -48 -3.5 -96t-3.5 -70
q0 -11 8 -16.5t12 -5.5q15 0 15 15h42q-3 -28 -22.5 -47.5t-69.5 -19.5zM458 943h17q14 0 26 17.5t19 48.5t7 72t-4.5 61.5t-14 28t-24.5 7.5h-26v-235z" />
    <glyph glyph-name="macron" unicode="&#xaf;" horiz-adv-x="930" 
d="M233 1353v75h603v-75h-603z" />
    <glyph glyph-name="degree" unicode="&#xb0;" horiz-adv-x="619" 
d="M309 1160q-44 0 -86.5 22.5t-70 65.5t-27.5 105q0 90 56 138.5t128 48.5q70 0 127 -45t57 -142t-57.5 -145t-126.5 -48zM309 1230q25 0 42 25t17 96q0 69 -17 95t-42 26t-42.5 -27t-17.5 -96q0 -71 17.5 -95t42.5 -24z" />
    <glyph glyph-name="plusminus" unicode="&#xb1;" horiz-adv-x="832" 
d="M380 369v624h75v-624h-75zM105 643v75h622v-75h-622zM115 243v75h605v-75h-605z" />
    <glyph glyph-name="uni00B2" unicode="&#xb2;" horiz-adv-x="748" 
d="M488 697q-57 0 -102.5 22.5t-90 44.5t-96.5 22q-40 0 -60.5 -28.5t-25.5 -54.5h-61q0 122 36 199t89 126.5t106 86.5t89 77t36 98q0 25 -12 53.5t-36 49t-60 20.5q-23 0 -42.5 -3.5t-31.5 -10t-12 -16.5t16 -20.5t32 -28t16 -49.5q0 -45 -28.5 -67.5t-71.5 -22.5
q-45 0 -73.5 29.5t-28.5 84.5q0 72 75 115t192 43q52 0 107 -7t102.5 -28t76.5 -62.5t29 -109.5q0 -74 -33.5 -116.5t-87 -66t-116 -39t-122 -34t-105 -49t-64.5 -87.5q17 29 48 46.5t71 26.5t83 9q57 0 95.5 -15.5t67.5 -31t53 -15.5q34 0 45 14.5t11 29.5h59v-42
q0 -34 -14.5 -79t-52.5 -79.5t-108 -34.5z" />
    <glyph glyph-name="uni00B3" unicode="&#xb3;" horiz-adv-x="748" 
d="M336 690q-70 0 -127 20.5t-90.5 56t-33.5 82.5q0 55 27 90.5t77 35.5q49 0 71 -19t22 -56q0 -31 -17.5 -46.5t-35.5 -30t-18 -42.5q0 -15 25 -21.5t59 -6.5q25 0 45.5 10.5t32.5 42.5t12 97q0 49 -9.5 81t-26.5 50t-38 25.5t-44 7.5v60q24 0 47 3.5t41.5 18t29 46
t10.5 87.5q0 50 -12.5 77t-34.5 36.5t-52 9.5q-35 0 -59 -6.5t-24 -23.5q0 -26 18 -39.5t35.5 -29t17.5 -46.5q0 -38 -22.5 -58t-71.5 -20t-76 36t-27 91q0 48 33.5 83t91 55t127.5 20q79 0 150.5 -16.5t116.5 -59t45 -118.5q0 -57 -31.5 -91.5t-77.5 -52.5t-91 -25t-73 -9
q31 -1 78.5 -9t95.5 -27.5t80.5 -59t32.5 -104.5q0 -95 -91 -150t-238 -55z" />
    <glyph glyph-name="acute" unicode="&#xb4;" horiz-adv-x="587" 
d="M210 1252l-57 60l191 145q35 31 66 23t44 -32q14 -23 3.5 -49.5t-49.5 -42.5z" />
    <glyph glyph-name="uni00B5" unicode="&#xb5;" horiz-adv-x="916" 
d="M399 -22q-68 0 -132.5 26t-106 97.5t-41.5 208.5v727h270v-696q0 -98 7.5 -150.5t21.5 -71.5t35 -19q25 0 45 26t31 77.5t11 129.5v713h270v-971h86v-75h-323l-16 97q-5 -22 -23.5 -50t-51.5 -48.5t-83 -20.5zM119 961h270v-1454h-270v1454z" />
    <glyph glyph-name="paragraph" unicode="&#xb6;" horiz-adv-x="870" 
d="M342 -260q-57 0 -99 23t-65.5 62t-23.5 87t25 77t66 29t65 -21t24 -62q0 -28 -8 -42t-17 -24.5t-9 -27.5t10.5 -25t30.5 -8q37 0 58.5 24t30.5 71.5t9 116.5v678q-8 -38 -49.5 -62.5t-78.5 -24.5h-2q-120 0 -195.5 112t-75.5 293q0 117 42 203t111 133.5t149 47.5h516
v-75h-95v-1200q0 -107 -35 -178t-88.5 -112.5t-112.5 -62t-108.5 -26.5t-74.5 -6zM466 -185q57 25 86 76.5t29 163.5v1270h-66v-1318q0 -66 -6.5 -111.5t-42.5 -80.5z" />
    <glyph glyph-name="periodcentered" unicode="&#xb7;" horiz-adv-x="459" 
d="M243 664q-59 0 -101 43t-42 102q0 60 42 103t101 43q60 0 102 -43t42 -103q0 -59 -42 -102t-102 -43z" />
    <glyph glyph-name="cedilla" unicode="&#xb8;" horiz-adv-x="610" 
d="M287 -283q-48 0 -91 13t-58 21l29 71q11 -7 47 -20t70 -13q31 0 45 10.5t14 31.5q0 25 -14.5 30.5t-27.5 5.5q-14 0 -30 -5t-24 -13l-71 4l55 136h75l-37 -87q5 8 25.5 16.5t56.5 8.5q59 0 84 -26.5t25 -69.5q0 -50 -45 -82t-128 -32z" />
    <glyph glyph-name="uni00B9" unicode="&#xb9;" horiz-adv-x="561" 
d="M78 704v57h73v480q-14 -2 -35.5 -3.5t-37.5 -1.5v59q37 1 81.5 19.5t85.5 48.5t70 64.5t36 67.5h59v-734h74v-57h-406z" />
    <glyph glyph-name="ordmasculine" unicode="&#xba;" horiz-adv-x="522" 
d="M261 1140q-81 0 -138.5 54.5t-57.5 136.5q0 80 57.5 134.5t138.5 54.5t138.5 -54.5t57.5 -134.5q0 -82 -57.5 -136.5t-138.5 -54.5zM261 1212q32 0 47.5 38t15.5 81q0 42 -15.5 79.5t-47.5 37.5q-33 0 -48 -37.5t-15 -79.5q0 -43 15 -81t48 -38z" />
    <glyph glyph-name="guillemotright" unicode="&#xbb;" horiz-adv-x="754" 
d="M322 304l225 232l-222 233h83l223 -233l-223 -232h-86zM124 304l225 232l-222 233h83l223 -233l-223 -232h-86z" />
    <glyph glyph-name="onequarter" unicode="&#xbc;" horiz-adv-x="1486" 
d="M78 649v57h73v480q-14 -2 -35.5 -3.5t-37.5 -1.5v59q37 1 81.5 19.5t85.5 48.5t70 64.5t36 67.5h59v-734h74v-57h-406zM189 0l871 1400h98l-869 -1400h-100zM942 0v57h93v101h-202v57l216 420q60 3 116 43.5t71 91.5h65v-555h4q38 0 50.5 38t12.5 98h61v-193h-128v-101
h91v-57h-450zM902 208l-13 7h148v259l16 13z" />
    <glyph glyph-name="onehalf" unicode="&#xbd;" horiz-adv-x="1534" 
d="M78 649v57h73v480q-14 -2 -35.5 -3.5t-37.5 -1.5v59q37 1 81.5 19.5t85.5 48.5t70 64.5t36 67.5h59v-734h74v-57h-406zM189 0l871 1400h98l-869 -1400h-100zM1274 -6q-57 0 -102.5 22.5t-90 44.5t-96.5 22q-40 0 -60.5 -28.5t-25.5 -54.5h-61q0 121 36 198.5t89 127
t106 86.5t89 77t36 98q0 25 -12 53.5t-36 49t-60 20.5q-23 0 -42.5 -3.5t-31.5 -10t-12 -16.5t16 -20.5t32 -28t16 -49.5q0 -45 -28.5 -67.5t-71.5 -22.5q-45 0 -73.5 29.5t-28.5 84.5q0 72 75 115t192 43q52 0 107 -7t102.5 -28t76.5 -62.5t29 -109.5q0 -74 -33.5 -116.5
t-87 -66t-116 -39t-122 -34t-105 -49t-64.5 -87.5q17 29 48 46.5t71 26.5t83 9q57 0 95.5 -15.5t67.5 -31t53 -15.5q34 0 45 14.5t11 29.5h59v-42q0 -34 -14.5 -79t-52.5 -79.5t-108 -34.5z" />
    <glyph glyph-name="threequarters" unicode="&#xbe;" horiz-adv-x="1673" 
d="M336 635q-70 0 -127 20.5t-90.5 56t-33.5 82.5q0 55 27 90.5t77 35.5q49 0 71 -19t22 -56q0 -31 -17.5 -46.5t-35.5 -30t-18 -42.5q0 -15 25 -21.5t59 -6.5q25 0 45.5 10.5t32.5 42.5t12 97q0 49 -9.5 81t-26.5 50t-38 25.5t-44 7.5v60q24 0 47 3.5t41.5 18t29 46
t10.5 87.5q0 50 -12.5 77t-34.5 36.5t-52 9.5q-35 0 -59 -6.5t-24 -23.5q0 -26 18 -39.5t35.5 -29t17.5 -46.5q0 -38 -22.5 -58t-71.5 -20t-76 36t-27 91q0 48 33.5 83t91 55t127.5 20q79 0 150.5 -16.5t116.5 -59t45 -118.5q0 -57 -31.5 -91.5t-77.5 -52.5t-91 -25t-73 -9
q31 -1 78.5 -9t95.5 -27.5t80.5 -59t32.5 -104.5q0 -95 -91 -150t-238 -55zM376 0l871 1400h98l-869 -1400h-100zM1129 0v57h93v101h-202v57l216 420q60 3 116 43.5t71 91.5h65v-555h4q38 0 50.5 38t12.5 98h61v-193h-128v-101h91v-57h-450zM1089 208l-13 7h148v259l16 13z
" />
    <glyph glyph-name="questiondown" unicode="&#xbf;" horiz-adv-x="708" 
d="M493 775q0 -117 -16 -207t-39 -162t-46.5 -135.5t-39 -128t-15.5 -140.5q0 -129 41.5 -190t108.5 -61q44 0 64 23t20 56q0 31 -17.5 52.5t-34.5 46t-17 62.5q0 59 28 84.5t73 25.5q46 0 79 -40.5t33 -114.5q0 -77 -36.5 -138t-100.5 -96.5t-148 -35.5q-51 0 -110 14.5
t-111.5 49t-85.5 96.5t-33 157q0 93 33 163.5t82 133t97.5 130t81.5 153t33 202.5h76zM454 1137q58 0 101 -43.5t43 -101.5q0 -60 -43 -103t-101 -43t-101 43t-43 103q0 58 43 101.5t101 43.5z" />
    <glyph glyph-name="Agrave" unicode="&#xc0;" horiz-adv-x="726" 
d="M-3 0v75h81l190 1326h144l229 -1326h93v-75h-459v75h75l-101 726h3l-95 -726h67v-75h-227zM151 249v70h208v-70h-208zM446 1449l-209 100q-30 15 -44.5 30t-14.5 43q0 24 18 39.5t45 15.5q21 0 35.5 -8t29.5 -20l182 -151z" />
    <glyph glyph-name="Aacute" unicode="&#xc1;" horiz-adv-x="726" 
d="M-3 0v75h81l190 1326h144l229 -1326h93v-75h-459v75h75l-101 726h3l-95 -726h67v-75h-227zM151 249v70h208v-70h-208zM240 1442l-57 60l190 144q15 11 29.5 18t27.5 7q18 0 32.5 -10t21.5 -23q8 -13 8 -29q0 -18 -13 -35t-41 -28z" />
    <glyph glyph-name="Acircumflex" unicode="&#xc2;" horiz-adv-x="726" 
d="M-3 0v75h81l190 1326h144l229 -1326h93v-75h-459v75h75l-101 726h3l-95 -726h67v-75h-227zM151 249v70h208v-70h-208zM161 1466l148 203h70l146 -203h-90l-92 130l-92 -130h-90z" />
    <glyph glyph-name="Atilde" unicode="&#xc3;" horiz-adv-x="726" 
d="M-3 0v75h81l190 1326h144l229 -1326h93v-75h-459v75h75l-101 726h3l-95 -726h67v-75h-227zM151 249v70h208v-70h-208zM429 1492q-41 0 -66.5 13.5t-45.5 26t-42 12.5q-35 0 -52.5 -13.5t-22.5 -22.5l-76 28q6 18 24.5 43t46.5 43.5t62 18.5q45 0 69.5 -12.5t44.5 -25.5
t50 -13q34 0 48.5 13.5t19.5 24.5l73 -31q-3 -13 -20.5 -38t-46 -46t-66.5 -21z" />
    <glyph glyph-name="Adieresis" unicode="&#xc4;" horiz-adv-x="726" 
d="M-3 0v75h81l190 1326h144l229 -1326h93v-75h-459v75h75l-101 726h3l-95 -726h67v-75h-227zM151 249v70h208v-70h-208zM468 1502q-38 0 -65.5 28t-27.5 64q0 39 27.5 67.5t65.5 28.5q36 0 64 -28.5t28 -67.5q0 -36 -28 -64t-64 -28zM216 1502q-36 0 -63 28t-27 64
q0 39 27 67.5t63 28.5q39 0 66 -28.5t27 -67.5q0 -36 -27 -64t-66 -28z" />
    <glyph glyph-name="Aring" unicode="&#xc5;" horiz-adv-x="726" 
d="M-3 0v75h81l190 1326h144l229 -1326h93v-75h-459v75h75l-101 726h3l-95 -726h67v-75h-227zM151 249v70h208v-70h-208zM343 1468q-44 0 -78 32.5t-34 85.5q0 55 34 86.5t78 31.5q42 0 75.5 -31.5t33.5 -86.5q0 -53 -33.5 -85.5t-75.5 -32.5zM343 1529q23 0 33.5 18
t10.5 41q0 18 -10.5 36t-33.5 18q-25 0 -35.5 -18t-10.5 -36q0 -23 10.5 -41t35.5 -18z" />
    <glyph glyph-name="AE" unicode="&#xc6;" horiz-adv-x="1134" 
d="M402 0v75h74v1325h562v-349h-75q0 80 -10 142t-45 97t-110 35h-54v-567h216v93h75v-258h-75v90h-216v-608h52q76 0 111.5 36t45.5 98.5t10 142.5h75v-352h-636zM214 309l4 75h282l-4 -75h-282zM16 0v75h56l341 1325h80l-335 -1325h77v-75h-219z" />
    <glyph glyph-name="Ccedilla" unicode="&#xc7;" horiz-adv-x="752" 
d="M444 -20q-169 0 -273.5 187t-104.5 531q0 136 24 265.5t72 233t121 164.5t171 61q69 0 122.5 -44t83.5 -109t30 -127q0 -61 -24.5 -102t-78.5 -41q-60 0 -84 33t-24 88q0 38 17 63t34 48t17 55t-12 44.5t-33 12.5q-35 0 -60 -43t-42 -114t-27 -156.5t-14.5 -171.5
t-4.5 -158q0 -107 5.5 -203.5t16 -177t26.5 -139.5t37.5 -92t48.5 -33q37 0 60.5 20.5t38.5 56t26 82.5l62 -38q-20 -58 -49.5 -102.5t-73.5 -69t-108 -24.5zM458 -329q-48 0 -93.5 11.5t-60.5 19.5l29 72q11 -7 45.5 -18.5t67.5 -11.5q31 0 52.5 16.5t21.5 44.5
q0 32 -13.5 42.5t-33.5 10.5q-16 0 -29.5 -6t-24.5 -20l-70 4l59 164h75l-41 -108q4 6 29 16t61 10q40 0 75 -25t35 -89q0 -42 -23 -72t-64.5 -45.5t-96.5 -15.5z" />
    <glyph glyph-name="Egrave" unicode="&#xc8;" horiz-adv-x="764" 
d="M44 0v75h95v1250h-95v75h643v-349h-75q0 81 -17 143t-52.5 96.5t-91.5 34.5h-40v-587h155v93h74v-258h-74v90h-155v-588h40q56 0 91.5 35.5t52.5 98t17 143.5h75v-352h-643zM498 1449l-209 100q-30 15 -44.5 30t-14.5 43q0 24 18 39.5t45 15.5q21 0 35.5 -8t29.5 -20
l182 -151z" />
    <glyph glyph-name="Eacute" unicode="&#xc9;" horiz-adv-x="764" 
d="M44 0v75h95v1250h-95v75h643v-349h-75q0 81 -17 143t-52.5 96.5t-91.5 34.5h-40v-587h155v93h74v-258h-74v90h-155v-588h40q56 0 91.5 35.5t52.5 98t17 143.5h75v-352h-643zM292 1442l-57 60l190 144q15 11 29.5 18t27.5 7q18 0 32.5 -10t21.5 -23q8 -13 8 -29
q0 -18 -13 -35t-41 -28z" />
    <glyph glyph-name="Ecircumflex" unicode="&#xca;" horiz-adv-x="764" 
d="M44 0v75h95v1250h-95v75h643v-349h-75q0 81 -17 143t-52.5 96.5t-91.5 34.5h-40v-587h155v93h74v-258h-74v90h-155v-588h40q56 0 91.5 35.5t52.5 98t17 143.5h75v-352h-643zM212 1466l148 203h70l146 -203h-90l-92 130l-92 -130h-90z" />
    <glyph glyph-name="Edieresis" unicode="&#xcb;" horiz-adv-x="764" 
d="M44 0v75h95v1250h-95v75h643v-349h-75q0 81 -17 143t-52.5 96.5t-91.5 34.5h-40v-587h155v93h74v-258h-74v90h-155v-588h40q56 0 91.5 35.5t52.5 98t17 143.5h75v-352h-643zM520 1502q-38 0 -65.5 28t-27.5 64q0 39 27.5 67.5t65.5 28.5q36 0 64 -28.5t28 -67.5
q0 -36 -28 -64t-64 -28zM268 1502q-36 0 -63 28t-27 64q0 39 27 67.5t63 28.5q39 0 66 -28.5t27 -67.5q0 -36 -27 -64t-66 -28z" />
    <glyph glyph-name="Igrave" unicode="&#xcc;" horiz-adv-x="587" 
d="M62 0v75h97v1250h-97v75h465v-75h-100v-1250h100v-75h-465zM399 1449l-209 100q-30 15 -44.5 30t-14.5 43q0 24 18 39.5t45 15.5q21 0 35.5 -8t29.5 -20l182 -151z" />
    <glyph glyph-name="Iacute" unicode="&#xcd;" horiz-adv-x="587" 
d="M62 0v75h97v1250h-97v75h465v-75h-100v-1250h100v-75h-465zM193 1442l-57 60l190 144q15 11 29.5 18t27.5 7q18 0 32.5 -10t21.5 -23q8 -13 8 -29q0 -18 -13 -35t-41 -28z" />
    <glyph glyph-name="Icircumflex" unicode="&#xce;" horiz-adv-x="587" 
d="M62 0v75h97v1250h-97v75h465v-75h-100v-1250h100v-75h-465zM113 1466l148 203h70l146 -203h-90l-92 130l-92 -130h-90z" />
    <glyph glyph-name="Idieresis" unicode="&#xcf;" horiz-adv-x="587" 
d="M62 0v75h97v1250h-97v75h465v-75h-100v-1250h100v-75h-465zM421 1502q-38 0 -65.5 28t-27.5 64q0 39 27.5 67.5t65.5 28.5q36 0 64 -28.5t28 -67.5q0 -36 -28 -64t-64 -28zM169 1502q-36 0 -63 28t-27 64q0 39 27 67.5t63 28.5q39 0 66 -28.5t27 -67.5q0 -36 -27 -64
t-66 -28z" />
    <glyph glyph-name="Eth" unicode="&#xd0;" horiz-adv-x="933" 
d="M50 680v75h470v-75h-470zM44 0v75h95v1250h-95v75h412q99 0 185.5 -78t139.5 -231t53 -380q0 -229 -53.5 -387.5t-140 -241t-184.5 -82.5h-412zM410 75h31q33 0 62.5 72t48 214t18.5 350q0 192 -18 329.5t-46.5 211t-59.5 73.5h-36v-1250z" />
    <glyph glyph-name="Ntilde" unicode="&#xd1;" horiz-adv-x="848" 
d="M28 0v75h93v1250h-93v75h391l250 -784h-15v709h-88v75h254v-75h-89v-1325h-157l-394 1245h18v-1170h90v-75h-260zM517 1492q-41 0 -66.5 13.5t-45.5 26t-42 12.5q-35 0 -52.5 -13.5t-22.5 -22.5l-76 28q6 18 24.5 43t46.5 43.5t62 18.5q45 0 69.5 -12.5t44.5 -25.5
t50 -13q34 0 48.5 13.5t19.5 24.5l73 -31q-3 -13 -20.5 -38t-46 -46t-66.5 -21z" />
    <glyph glyph-name="Ograve" unicode="&#xd2;" horiz-adv-x="874" 
d="M440 -22q-108 0 -192.5 84t-133 244.5t-48.5 391.5q0 232 48.5 393.5t133 246t192.5 84.5q109 0 195 -84.5t135 -246t49 -393.5q0 -231 -49 -391.5t-135 -244.5t-195 -84zM440 53q26 0 43.5 41t28.5 123t16 202.5t5 278.5t-5 279t-16 203.5t-28.5 124.5t-43.5 42t-43 -42
t-26.5 -124.5t-13.5 -203.5t-4 -279t4 -278.5t13.5 -202.5t26.5 -123t43 -41zM544 1449l-209 100q-30 15 -44.5 30t-14.5 43q0 24 18 39.5t45 15.5q21 0 35.5 -8t29.5 -20l182 -151z" />
    <glyph glyph-name="Oacute" unicode="&#xd3;" horiz-adv-x="874" 
d="M440 -22q-108 0 -192.5 84t-133 244.5t-48.5 391.5q0 232 48.5 393.5t133 246t192.5 84.5q109 0 195 -84.5t135 -246t49 -393.5q0 -231 -49 -391.5t-135 -244.5t-195 -84zM440 53q26 0 43.5 41t28.5 123t16 202.5t5 278.5t-5 279t-16 203.5t-28.5 124.5t-43.5 42t-43 -42
t-26.5 -124.5t-13.5 -203.5t-4 -279t4 -278.5t13.5 -202.5t26.5 -123t43 -41zM337 1442l-57 60l190 144q15 11 29.5 18t27.5 7q18 0 32.5 -10t21.5 -23q8 -13 8 -29q0 -18 -13 -35t-41 -28z" />
    <glyph glyph-name="Ocircumflex" unicode="&#xd4;" horiz-adv-x="874" 
d="M440 -22q-108 0 -192.5 84t-133 244.5t-48.5 391.5q0 232 48.5 393.5t133 246t192.5 84.5q109 0 195 -84.5t135 -246t49 -393.5q0 -231 -49 -391.5t-135 -244.5t-195 -84zM440 53q26 0 43.5 41t28.5 123t16 202.5t5 278.5t-5 279t-16 203.5t-28.5 124.5t-43.5 42t-43 -42
t-26.5 -124.5t-13.5 -203.5t-4 -279t4 -278.5t13.5 -202.5t26.5 -123t43 -41zM258 1466l148 203h70l146 -203h-90l-92 130l-92 -130h-90z" />
    <glyph glyph-name="Otilde" unicode="&#xd5;" horiz-adv-x="874" 
d="M440 -22q-108 0 -192.5 84t-133 244.5t-48.5 391.5q0 232 48.5 393.5t133 246t192.5 84.5q109 0 195 -84.5t135 -246t49 -393.5q0 -231 -49 -391.5t-135 -244.5t-195 -84zM440 53q26 0 43.5 41t28.5 123t16 202.5t5 278.5t-5 279t-16 203.5t-28.5 124.5t-43.5 42t-43 -42
t-26.5 -124.5t-13.5 -203.5t-4 -279t4 -278.5t13.5 -202.5t26.5 -123t43 -41zM526 1492q-41 0 -66.5 13.5t-45.5 26t-42 12.5q-35 0 -52.5 -13.5t-22.5 -22.5l-76 28q6 18 24.5 43t46.5 43.5t62 18.5q45 0 69.5 -12.5t44.5 -25.5t50 -13q34 0 48.5 13.5t19.5 24.5l73 -31
q-3 -13 -20.5 -38t-46 -46t-66.5 -21z" />
    <glyph glyph-name="Odieresis" unicode="&#xd6;" horiz-adv-x="874" 
d="M440 -22q-108 0 -192.5 84t-133 244.5t-48.5 391.5q0 232 48.5 393.5t133 246t192.5 84.5q109 0 195 -84.5t135 -246t49 -393.5q0 -231 -49 -391.5t-135 -244.5t-195 -84zM440 53q26 0 43.5 41t28.5 123t16 202.5t5 278.5t-5 279t-16 203.5t-28.5 124.5t-43.5 42t-43 -42
t-26.5 -124.5t-13.5 -203.5t-4 -279t4 -278.5t13.5 -202.5t26.5 -123t43 -41zM565 1502q-38 0 -65.5 28t-27.5 64q0 39 27.5 67.5t65.5 28.5q36 0 64 -28.5t28 -67.5q0 -36 -28 -64t-64 -28zM313 1502q-36 0 -63 28t-27 64q0 39 27 67.5t63 28.5q39 0 66 -28.5t27 -67.5
q0 -36 -27 -64t-66 -28z" />
    <glyph glyph-name="multiply" unicode="&#xd7;" horiz-adv-x="751" 
d="M606 294l-493 492l47 47l493 -492zM160 294l-44 43l490 491l45 -43z" />
    <glyph glyph-name="Oslash" unicode="&#xd8;" horiz-adv-x="880" 
d="M171 -104l492 1608h77l-490 -1608h-79zM440 -22q-108 0 -192.5 84t-133 244.5t-48.5 391.5q0 232 48.5 393.5t133 246t192.5 84.5q109 0 195 -84.5t135 -246t49 -393.5q0 -231 -49 -391.5t-135 -244.5t-195 -84zM440 53q26 0 43.5 41t28.5 123t16 202.5t5 278.5t-5 279
t-16 203.5t-28.5 124.5t-43.5 42t-43 -42t-26.5 -124.5t-13.5 -203.5t-4 -279t4 -278.5t13.5 -202.5t26.5 -123t43 -41z" />
    <glyph glyph-name="Ugrave" unicode="&#xd9;" horiz-adv-x="843" 
d="M451 -24q-51 0 -106.5 14t-103.5 53t-77.5 112t-29.5 191v979h-99v75h483v-75h-110v-991q0 -137 27.5 -200.5t87.5 -63.5q22 0 42.5 10.5t37 36t26 71t9.5 115.5v1022h-88v75h259v-75h-94v-1028q0 -123 -31.5 -193.5t-90.5 -99t-142 -28.5zM544 1449l-209 100
q-30 15 -44.5 30t-14.5 43q0 24 18 39.5t45 15.5q21 0 35.5 -8t29.5 -20l182 -151z" />
    <glyph glyph-name="Uacute" unicode="&#xda;" horiz-adv-x="843" 
d="M451 -24q-51 0 -106.5 14t-103.5 53t-77.5 112t-29.5 191v979h-99v75h483v-75h-110v-991q0 -137 27.5 -200.5t87.5 -63.5q22 0 42.5 10.5t37 36t26 71t9.5 115.5v1022h-88v75h259v-75h-94v-1028q0 -123 -31.5 -193.5t-90.5 -99t-142 -28.5zM338 1442l-57 60l190 144
q15 11 29.5 18t27.5 7q18 0 32.5 -10t21.5 -23q8 -13 8 -29q0 -18 -13 -35t-41 -28z" />
    <glyph glyph-name="Ucircumflex" unicode="&#xdb;" horiz-adv-x="843" 
d="M451 -24q-51 0 -106.5 14t-103.5 53t-77.5 112t-29.5 191v979h-99v75h483v-75h-110v-991q0 -137 27.5 -200.5t87.5 -63.5q22 0 42.5 10.5t37 36t26 71t9.5 115.5v1022h-88v75h259v-75h-94v-1028q0 -123 -31.5 -193.5t-90.5 -99t-142 -28.5zM259 1466l148 203h70l146 -203
h-90l-92 130l-92 -130h-90z" />
    <glyph glyph-name="Udieresis" unicode="&#xdc;" horiz-adv-x="843" 
d="M451 -24q-51 0 -106.5 14t-103.5 53t-77.5 112t-29.5 191v979h-99v75h483v-75h-110v-991q0 -137 27.5 -200.5t87.5 -63.5q22 0 42.5 10.5t37 36t26 71t9.5 115.5v1022h-88v75h259v-75h-94v-1028q0 -123 -31.5 -193.5t-90.5 -99t-142 -28.5zM566 1502q-38 0 -65.5 28
t-27.5 64q0 39 27.5 67.5t65.5 28.5q36 0 64 -28.5t28 -67.5q0 -36 -28 -64t-64 -28zM314 1502q-36 0 -63 28t-27 64q0 39 27 67.5t63 28.5q39 0 66 -28.5t27 -67.5q0 -36 -27 -64t-66 -28z" />
    <glyph glyph-name="Yacute" unicode="&#xdd;" horiz-adv-x="861" 
d="M194 0v75h108v512l-188 738h-98v75h478v-75h-77l152 -664h-68l170 664h-85v75h260v-75h-95l-179 -691v-559h110v-75h-488zM327 1442l-57 60l190 144q15 11 29.5 18t27.5 7q18 0 32.5 -10t21.5 -23q8 -13 8 -29q0 -18 -13 -35t-41 -28z" />
    <glyph glyph-name="Thorn" unicode="&#xde;" horiz-adv-x="972" 
d="M402 310v82h24q51 0 86.5 47.5t54.5 130.5t19 188q0 98 -16.5 174.5t-48 119.5t-73.5 43h-46v83h161q98 0 171 -52t113.5 -147t40.5 -223q0 -133 -42 -233.5t-118 -156.5t-179 -56h-147zM62 0v75h97v1250h-97v75h465v-75h-100v-1250h100v-75h-465z" />
    <glyph glyph-name="germandbls" unicode="&#xdf;" horiz-adv-x="1014" 
d="M633 -22q-59 0 -108.5 40.5t-49.5 118.5q0 55 23 88.5t64 33.5q35 0 54.5 -23.5t19.5 -61.5q0 -26 -10.5 -41.5t-20.5 -25.5t-10 -23q0 -15 10 -24t32 -9q29 0 45 19t23 57t7 94q0 73 -23 126t-56.5 96.5t-67.5 86.5t-57 95.5t-23 124.5q0 74 23 124t56.5 86t67.5 70
t56.5 74t22.5 98q0 74 -34 110.5t-104 36.5q-63 0 -97 -46t-47 -121t-13 -163v-1019h-379v75h97v852q0 152 54.5 263t147.5 172.5t209 61.5t180 -56.5t64 -163.5q0 -74 -23 -128t-54 -95t-54.5 -75.5t-23.5 -70.5q0 -45 30 -87t74 -86.5t87.5 -95.5t73 -111.5t29.5 -135.5
q0 -120 -42 -195.5t-109 -110.5t-144 -35z" />
    <glyph glyph-name="agrave" unicode="&#xe0;" horiz-adv-x="860" 
d="M297 -22q-69 0 -125.5 33t-90.5 93t-34 143q0 97 42 160t104 105.5t123.5 75.5t103.5 69.5t42 89.5q0 72 -12.5 123t-38 77t-65.5 26q-47 0 -77 -23.5t-30 -56.5q0 -28 12.5 -48t24.5 -42t12 -60q0 -51 -29 -80.5t-75 -29.5q-48 0 -77.5 40.5t-29.5 111.5
q0 79 41.5 141.5t115.5 98.5t169 36q96 0 170 -38t116.5 -120t42.5 -216v-517q0 -53 8.5 -71t26.5 -18q19 0 32.5 10.5t19.5 18.5l44 -58q-18 -24 -70 -47.5t-122 -23.5q-71 0 -109 19.5t-55 45.5t-23 44q-4 -12 -23 -39t-58.5 -50t-105.5 -23zM390 98q22 0 38.5 20t25 52
t8.5 66v375q-4 -28 -26 -53t-49 -57.5t-47 -84.5t-20 -136q0 -89 19.5 -135.5t50.5 -46.5zM520 1105l-209 100q-30 15 -44.5 30t-14.5 43q0 24 18 39.5t45 15.5q21 0 35.5 -8t29.5 -20l182 -151z" />
    <glyph glyph-name="aacute" unicode="&#xe1;" horiz-adv-x="860" 
d="M297 -22q-69 0 -125.5 33t-90.5 93t-34 143q0 97 42 160t104 105.5t123.5 75.5t103.5 69.5t42 89.5q0 72 -12.5 123t-38 77t-65.5 26q-47 0 -77 -23.5t-30 -56.5q0 -28 12.5 -48t24.5 -42t12 -60q0 -51 -29 -80.5t-75 -29.5q-48 0 -77.5 40.5t-29.5 111.5
q0 79 41.5 141.5t115.5 98.5t169 36q96 0 170 -38t116.5 -120t42.5 -216v-517q0 -53 8.5 -71t26.5 -18q19 0 32.5 10.5t19.5 18.5l44 -58q-18 -24 -70 -47.5t-122 -23.5q-71 0 -109 19.5t-55 45.5t-23 44q-4 -12 -23 -39t-58.5 -50t-105.5 -23zM390 98q22 0 38.5 20t25 52
t8.5 66v375q-4 -28 -26 -53t-49 -57.5t-47 -84.5t-20 -136q0 -89 19.5 -135.5t50.5 -46.5zM314 1087l-57 61l190 144q15 11 29.5 18t27.5 7q18 0 32.5 -10t21.5 -24q8 -13 8 -28q0 -19 -13 -36t-41 -28z" />
    <glyph glyph-name="acircumflex" unicode="&#xe2;" horiz-adv-x="860" 
d="M297 -22q-69 0 -125.5 33t-90.5 93t-34 143q0 97 42 160t104 105.5t123.5 75.5t103.5 69.5t42 89.5q0 72 -12.5 123t-38 77t-65.5 26q-47 0 -77 -23.5t-30 -56.5q0 -28 12.5 -48t24.5 -42t12 -60q0 -51 -29 -80.5t-75 -29.5q-48 0 -77.5 40.5t-29.5 111.5
q0 79 41.5 141.5t115.5 98.5t169 36q96 0 170 -38t116.5 -120t42.5 -216v-517q0 -53 8.5 -71t26.5 -18q19 0 32.5 10.5t19.5 18.5l44 -58q-18 -24 -70 -47.5t-122 -23.5q-71 0 -109 19.5t-55 45.5t-23 44q-4 -12 -23 -39t-58.5 -50t-105.5 -23zM390 98q22 0 38.5 20t25 52
t8.5 66v375q-4 -28 -26 -53t-49 -57.5t-47 -84.5t-20 -136q0 -89 19.5 -135.5t50.5 -46.5zM235 1128l148 203h70l146 -203h-90l-92 130l-92 -130h-90z" />
    <glyph glyph-name="atilde" unicode="&#xe3;" horiz-adv-x="860" 
d="M297 -22q-69 0 -125.5 33t-90.5 93t-34 143q0 97 42 160t104 105.5t123.5 75.5t103.5 69.5t42 89.5q0 72 -12.5 123t-38 77t-65.5 26q-47 0 -77 -23.5t-30 -56.5q0 -28 12.5 -48t24.5 -42t12 -60q0 -51 -29 -80.5t-75 -29.5q-48 0 -77.5 40.5t-29.5 111.5
q0 79 41.5 141.5t115.5 98.5t169 36q96 0 170 -38t116.5 -120t42.5 -216v-517q0 -53 8.5 -71t26.5 -18q19 0 32.5 10.5t19.5 18.5l44 -58q-18 -24 -70 -47.5t-122 -23.5q-71 0 -109 19.5t-55 45.5t-23 44q-4 -12 -23 -39t-58.5 -50t-105.5 -23zM390 98q22 0 38.5 20t25 52
t8.5 66v375q-4 -28 -26 -53t-49 -57.5t-47 -84.5t-20 -136q0 -89 19.5 -135.5t50.5 -46.5zM503 1143q-41 0 -66.5 13.5t-45.5 26.5t-42 13q-35 0 -52.5 -14t-22.5 -23l-76 29q6 18 24.5 42.5t46.5 43.5t62 19q45 0 69.5 -12.5t44.5 -25.5t50 -13q34 0 48.5 13.5t19.5 23.5
l73 -31q-3 -13 -20.5 -37.5t-46 -46t-66.5 -21.5z" />
    <glyph glyph-name="adieresis" unicode="&#xe4;" horiz-adv-x="860" 
d="M297 -22q-69 0 -125.5 33t-90.5 93t-34 143q0 97 42 160t104 105.5t123.5 75.5t103.5 69.5t42 89.5q0 72 -12.5 123t-38 77t-65.5 26q-47 0 -77 -23.5t-30 -56.5q0 -28 12.5 -48t24.5 -42t12 -60q0 -51 -29 -80.5t-75 -29.5q-48 0 -77.5 40.5t-29.5 111.5
q0 79 41.5 141.5t115.5 98.5t169 36q96 0 170 -38t116.5 -120t42.5 -216v-517q0 -53 8.5 -71t26.5 -18q19 0 32.5 10.5t19.5 18.5l44 -58q-18 -24 -70 -47.5t-122 -23.5q-71 0 -109 19.5t-55 45.5t-23 44q-4 -12 -23 -39t-58.5 -50t-105.5 -23zM390 98q22 0 38.5 20t25 52
t8.5 66v375q-4 -28 -26 -53t-49 -57.5t-47 -84.5t-20 -136q0 -89 19.5 -135.5t50.5 -46.5zM542 1134q-38 0 -65.5 28t-27.5 64q0 39 27.5 67.5t65.5 28.5q36 0 64 -28.5t28 -67.5q0 -36 -28 -64t-64 -28zM290 1134q-36 0 -63 28t-27 64q0 39 27 67.5t63 28.5q39 0 66 -28.5
t27 -67.5q0 -36 -27 -64t-66 -28z" />
    <glyph glyph-name="aring" unicode="&#xe5;" horiz-adv-x="860" 
d="M297 -22q-69 0 -125.5 33t-90.5 93t-34 143q0 97 42 160t104 105.5t123.5 75.5t103.5 69.5t42 89.5q0 72 -12.5 123t-38 77t-65.5 26q-47 0 -77 -23.5t-30 -56.5q0 -28 12.5 -48t24.5 -42t12 -60q0 -51 -29 -80.5t-75 -29.5q-48 0 -77.5 40.5t-29.5 111.5
q0 79 41.5 141.5t115.5 98.5t169 36q96 0 170 -38t116.5 -120t42.5 -216v-517q0 -53 8.5 -71t26.5 -18q19 0 32.5 10.5t19.5 18.5l44 -58q-18 -24 -70 -47.5t-122 -23.5q-71 0 -109 19.5t-55 45.5t-23 44q-4 -12 -23 -39t-58.5 -50t-105.5 -23zM390 98q22 0 38.5 20t25 52
t8.5 66v375q-4 -28 -26 -53t-49 -57.5t-47 -84.5t-20 -136q0 -89 19.5 -135.5t50.5 -46.5zM418 1099q-44 0 -78 32.5t-34 85.5q0 55 34 86.5t78 31.5q42 0 75.5 -31.5t33.5 -86.5q0 -53 -33.5 -85.5t-75.5 -32.5zM418 1160q23 0 33.5 18t10.5 41q0 18 -10.5 36t-33.5 18
q-25 0 -35.5 -18t-10.5 -36q0 -23 10.5 -41t35.5 -18z" />
    <glyph glyph-name="ae" unicode="&#xe6;" horiz-adv-x="1236" 
d="M341 -21q-158 0 -226 71.5t-68 191.5q0 98 41.5 162t103 107t123 76t103 69.5t41.5 89.5q0 70 -12 121t-37.5 78.5t-64.5 27.5q-45 0 -74.5 -22t-29.5 -56q0 -28 12 -47.5t24 -42t12 -59.5q0 -52 -29 -81t-76 -29q-48 0 -77 40.5t-29 110.5q0 79 41 141t114.5 97.5
t168.5 35.5t169 -39t115.5 -122.5t41.5 -217.5v-194q0 -106 -15.5 -185t-40 -133t-54.5 -86q-46 -49 -113 -77t-164 -28zM388 99q31 0 51 41t20 97v372q-4 -28 -25.5 -52.5t-48 -57t-46 -85.5t-19.5 -136q0 -58 8 -98t23.5 -60.5t36.5 -20.5zM852 -20q-80 0 -148 33.5
t-118 101.5t-78 171t-28 241q0 145 34.5 247t90 165.5t119 92.5t122.5 29q70 0 131 -33t106.5 -94t71 -146.5t25.5 -191.5q0 -20 -0.5 -40t-2.5 -41h-440v75h187q0 155 -9 240.5t-26.5 120t-42.5 34.5q-26 0 -47.5 -35.5t-34.5 -128.5t-13 -267q0 -130 7.5 -223t23.5 -151.5
t42 -86t63 -27.5q75 0 120 37.5t65 75.5l62 -47q-24 -56 -101 -104t-181 -48z" />
    <glyph glyph-name="ccedilla" unicode="&#xe7;" horiz-adv-x="724" 
d="M418 -22q-71 0 -136.5 35.5t-117 105t-81 172t-29.5 237.5q0 148 38 250t96.5 164t123 90.5t115.5 28.5q80 0 137.5 -40.5t89 -106.5t31.5 -142q0 -67 -29.5 -103t-75.5 -36q-47 0 -77 30.5t-30 83.5q0 34 14 55.5t27.5 42.5t13.5 51q0 46 -25.5 67t-57.5 21
q-37 0 -59 -44t-33.5 -113t-15 -147t-3.5 -144q0 -81 5 -164.5t19 -153t40.5 -112.5t69.5 -43q59 0 91 35.5t46 77.5l58 -50q-23 -57 -84.5 -102.5t-160.5 -45.5zM457 -329q-48 0 -93 11.5t-60 19.5l28 72q11 -7 45.5 -18.5t67.5 -11.5q32 0 53 16.5t21 44.5
q0 32 -13.5 42.5t-33.5 10.5q-16 0 -29.5 -6t-24.5 -20l-70 4l60 164h74l-41 -108q4 7 29 16.5t61 9.5q40 0 75 -25t35 -88q0 -43 -23 -73t-64.5 -45.5t-96.5 -15.5z" />
    <glyph glyph-name="egrave" unicode="&#xe8;" horiz-adv-x="810" 
d="M426 -20q-80 0 -148 33.5t-118 101.5t-77.5 171t-27.5 241q0 145 34 247t89.5 165.5t119.5 92.5t122 29q70 0 131 -33t106.5 -94t71.5 -146.5t26 -191.5q0 -20 -0.5 -40t-2.5 -41h-441v75h187q0 155 -9 240.5t-26.5 120t-42.5 34.5t-47 -35.5t-35 -128.5t-13 -267
q0 -130 7.5 -223t24 -151.5t42 -86t63.5 -27.5q75 0 120 37.5t64 75.5l63 -47q-25 -56 -101.5 -104t-181.5 -48zM518 1105l-209 100q-30 15 -44.5 30t-14.5 43q0 24 18 39.5t45 15.5q21 0 35.5 -8t29.5 -20l182 -151z" />
    <glyph glyph-name="eacute" unicode="&#xe9;" horiz-adv-x="810" 
d="M426 -20q-80 0 -148 33.5t-118 101.5t-77.5 171t-27.5 241q0 145 34 247t89.5 165.5t119.5 92.5t122 29q70 0 131 -33t106.5 -94t71.5 -146.5t26 -191.5q0 -20 -0.5 -40t-2.5 -41h-441v75h187q0 155 -9 240.5t-26.5 120t-42.5 34.5t-47 -35.5t-35 -128.5t-13 -267
q0 -130 7.5 -223t24 -151.5t42 -86t63.5 -27.5q75 0 120 37.5t64 75.5l63 -47q-25 -56 -101.5 -104t-181.5 -48zM312 1087l-57 61l190 144q15 11 29.5 18t27.5 7q18 0 32.5 -10t21.5 -24q8 -13 8 -28q0 -19 -13 -36t-41 -28z" />
    <glyph glyph-name="ecircumflex" unicode="&#xea;" horiz-adv-x="810" 
d="M426 -20q-80 0 -148 33.5t-118 101.5t-77.5 171t-27.5 241q0 145 34 247t89.5 165.5t119.5 92.5t122 29q70 0 131 -33t106.5 -94t71.5 -146.5t26 -191.5q0 -20 -0.5 -40t-2.5 -41h-441v75h187q0 155 -9 240.5t-26.5 120t-42.5 34.5t-47 -35.5t-35 -128.5t-13 -267
q0 -130 7.5 -223t24 -151.5t42 -86t63.5 -27.5q75 0 120 37.5t64 75.5l63 -47q-25 -56 -101.5 -104t-181.5 -48zM233 1128l148 203h70l146 -203h-90l-92 130l-92 -130h-90z" />
    <glyph glyph-name="edieresis" unicode="&#xeb;" horiz-adv-x="810" 
d="M426 -20q-80 0 -148 33.5t-118 101.5t-77.5 171t-27.5 241q0 145 34 247t89.5 165.5t119.5 92.5t122 29q70 0 131 -33t106.5 -94t71.5 -146.5t26 -191.5q0 -20 -0.5 -40t-2.5 -41h-441v75h187q0 155 -9 240.5t-26.5 120t-42.5 34.5t-47 -35.5t-35 -128.5t-13 -267
q0 -130 7.5 -223t24 -151.5t42 -86t63.5 -27.5q75 0 120 37.5t64 75.5l63 -47q-25 -56 -101.5 -104t-181.5 -48zM540 1134q-38 0 -65.5 28t-27.5 64q0 39 27.5 67.5t65.5 28.5q36 0 64 -28.5t28 -67.5q0 -36 -28 -64t-64 -28zM288 1134q-36 0 -63 28t-27 64q0 39 27 67.5
t63 28.5q39 0 66 -28.5t27 -67.5q0 -36 -27 -64t-66 -28z" />
    <glyph glyph-name="igrave" unicode="&#xec;" horiz-adv-x="522" 
d="M26 0v75h100v897h-100v75h370v-972h100v-75h-470zM365 1105l-209 100q-30 15 -44.5 30t-14.5 43q0 24 18 39.5t45 15.5q21 0 35.5 -8t29.5 -20l182 -151z" />
    <glyph glyph-name="iacute" unicode="&#xed;" horiz-adv-x="522" 
d="M26 0v75h100v897h-100v75h370v-972h100v-75h-470zM159 1087l-57 61l190 144q15 11 29.5 18t27.5 7q18 0 32.5 -10t21.5 -24q8 -13 8 -28q0 -19 -13 -36t-41 -28z" />
    <glyph glyph-name="icircumflex" unicode="&#xee;" horiz-adv-x="522" 
d="M26 0v75h100v897h-100v75h370v-972h100v-75h-470zM79 1128l148 203h70l146 -203h-90l-92 130l-92 -130h-90z" />
    <glyph glyph-name="idieresis" unicode="&#xef;" horiz-adv-x="522" 
d="M26 0v75h100v897h-100v75h370v-972h100v-75h-470zM387 1134q-38 0 -65.5 28t-27.5 64q0 39 27.5 67.5t65.5 28.5q36 0 64 -28.5t28 -67.5q0 -36 -28 -64t-64 -28zM135 1134q-36 0 -63 28t-27 64q0 39 27 67.5t63 28.5q39 0 66 -28.5t27 -67.5q0 -36 -27 -64t-66 -28z" />
    <glyph glyph-name="eth" unicode="&#xf0;" horiz-adv-x="832" 
d="M406 -22q-80 0 -157.5 66t-128 190t-50.5 295q0 138 31.5 237.5t82 163t109 93.5t113.5 30q19 0 35.5 -5.5t29.5 -12.5t18 -11q-4 42 -14 84t-23 76t-25 51l-59 -87l-65 45l61 87q-14 14 -57.5 32.5t-77.5 30.5l26 77q12 -1 38.5 -11t55 -22t44.5 -21l13 -7l44 59l66 -43
l-45 -63q54 -38 103 -99.5t86.5 -154t59.5 -223.5t22 -308q0 -176 -51.5 -299t-129.5 -186.5t-155 -63.5zM406 53q26 0 41 61.5t21.5 168.5t6.5 244q0 134 -6.5 235.5t-21.5 158.5t-41 57q-25 0 -40.5 -57t-22.5 -158.5t-7 -235.5q0 -137 7 -244t22.5 -168.5t40.5 -61.5z
" />
    <glyph glyph-name="ntilde" unicode="&#xf1;" horiz-adv-x="969" 
d="M32 0v75h106v897h-106v75h369v-100q3 12 24 39.5t61.5 51t99.5 23.5q66 0 119 -28t83.5 -100.5t30.5 -208.5v-649h105v-75h-443v75h68v648q0 102 -13 150.5t-46 48.5q-17 0 -31.5 -12t-25 -35.5t-17 -56.5t-8.5 -75v-668h65v-75h-441zM568 1143q-41 0 -66.5 13.5
t-45.5 26.5t-42 13q-35 0 -52.5 -14t-22.5 -23l-76 29q6 18 24.5 42.5t46.5 43.5t62 19q45 0 69.5 -12.5t44.5 -25.5t50 -13q34 0 48.5 13.5t19.5 23.5l73 -31q-3 -13 -20.5 -37.5t-46 -46t-66.5 -21.5z" />
    <glyph glyph-name="ograve" unicode="&#xf2;" horiz-adv-x="823" 
d="M410 -22q-62 0 -124.5 33t-115 101t-84 171.5t-31.5 243.5q0 152 33 255t86 164.5t115 88t121 26.5q58 0 120.5 -26.5t116 -88t87 -164.5t33.5 -255q0 -140 -32 -243.5t-84.5 -171.5t-115.5 -101t-125 -33zM410 65q41 0 63 108.5t22 353.5t-22 347t-63 102
q-39 0 -61 -102t-22 -347t22 -353.5t61 -108.5zM513 1105l-209 100q-30 15 -44.5 30t-14.5 43q0 24 18 39.5t45 15.5q21 0 35.5 -8t29.5 -20l182 -151z" />
    <glyph glyph-name="oacute" unicode="&#xf3;" horiz-adv-x="823" 
d="M410 -22q-62 0 -124.5 33t-115 101t-84 171.5t-31.5 243.5q0 152 33 255t86 164.5t115 88t121 26.5q58 0 120.5 -26.5t116 -88t87 -164.5t33.5 -255q0 -140 -32 -243.5t-84.5 -171.5t-115.5 -101t-125 -33zM410 65q41 0 63 108.5t22 353.5t-22 347t-63 102
q-39 0 -61 -102t-22 -347t22 -353.5t61 -108.5zM307 1087l-57 61l190 144q15 11 29.5 18t27.5 7q18 0 32.5 -10t21.5 -24q8 -13 8 -28q0 -19 -13 -36t-41 -28z" />
    <glyph glyph-name="ocircumflex" unicode="&#xf4;" horiz-adv-x="823" 
d="M410 -22q-62 0 -124.5 33t-115 101t-84 171.5t-31.5 243.5q0 152 33 255t86 164.5t115 88t121 26.5q58 0 120.5 -26.5t116 -88t87 -164.5t33.5 -255q0 -140 -32 -243.5t-84.5 -171.5t-115.5 -101t-125 -33zM410 65q41 0 63 108.5t22 353.5t-22 347t-63 102
q-39 0 -61 -102t-22 -347t22 -353.5t61 -108.5zM228 1128l148 203h70l146 -203h-90l-92 130l-92 -130h-90z" />
    <glyph glyph-name="otilde" unicode="&#xf5;" horiz-adv-x="823" 
d="M410 -22q-62 0 -124.5 33t-115 101t-84 171.5t-31.5 243.5q0 152 33 255t86 164.5t115 88t121 26.5q58 0 120.5 -26.5t116 -88t87 -164.5t33.5 -255q0 -140 -32 -243.5t-84.5 -171.5t-115.5 -101t-125 -33zM410 65q41 0 63 108.5t22 353.5t-22 347t-63 102
q-39 0 -61 -102t-22 -347t22 -353.5t61 -108.5zM496 1143q-41 0 -66.5 13.5t-45.5 26.5t-42 13q-35 0 -52.5 -14t-22.5 -23l-76 29q6 18 24.5 42.5t46.5 43.5t62 19q45 0 69.5 -12.5t44.5 -25.5t50 -13q34 0 48.5 13.5t19.5 23.5l73 -31q-3 -13 -20.5 -37.5t-46 -46
t-66.5 -21.5z" />
    <glyph glyph-name="odieresis" unicode="&#xf6;" horiz-adv-x="823" 
d="M410 -22q-62 0 -124.5 33t-115 101t-84 171.5t-31.5 243.5q0 152 33 255t86 164.5t115 88t121 26.5q58 0 120.5 -26.5t116 -88t87 -164.5t33.5 -255q0 -140 -32 -243.5t-84.5 -171.5t-115.5 -101t-125 -33zM410 65q41 0 63 108.5t22 353.5t-22 347t-63 102
q-39 0 -61 -102t-22 -347t22 -353.5t61 -108.5zM535 1134q-38 0 -65.5 28t-27.5 64q0 39 27.5 67.5t65.5 28.5q36 0 64 -28.5t28 -67.5q0 -36 -28 -64t-64 -28zM283 1134q-36 0 -63 28t-27 64q0 39 27 67.5t63 28.5q39 0 66 -28.5t27 -67.5q0 -36 -27 -64t-66 -28z" />
    <glyph glyph-name="divide" unicode="&#xf7;" horiz-adv-x="809" 
d="M411 276q-30 0 -52.5 22.5t-22.5 53.5t22.5 53.5t52.5 22.5q31 0 53 -22.5t22 -53.5t-22 -53.5t-53 -22.5zM411 670q-30 0 -52.5 22.5t-22.5 53.5t22.5 53t52.5 22q31 0 53 -22t22 -53t-22 -53.5t-53 -22.5zM106 511v75h605v-75h-605z" />
    <glyph glyph-name="oslash" unicode="&#xf8;" horiz-adv-x="827" 
d="M101 -104l533 1224h82l-533 -1224h-82zM410 -22q-62 0 -124.5 33t-115 101t-84 171.5t-31.5 243.5q0 152 33 255t86 164.5t115 88t121 26.5q58 0 120.5 -26.5t116 -88t87 -164.5t33.5 -255q0 -140 -32 -243.5t-84.5 -171.5t-115.5 -101t-125 -33zM410 65q41 0 63 108.5
t22 353.5t-22 347t-63 102q-39 0 -61 -102t-22 -347t22 -353.5t61 -108.5z" />
    <glyph glyph-name="ugrave" unicode="&#xf9;" horiz-adv-x="916" 
d="M368 -22q-69 0 -125.5 26t-90 97.5t-33.5 208.5v662h-100v74h370v-705q0 -98 5.5 -150.5t19.5 -71.5t39 -19t45 26t31 77.5t11 129.5v639h-87v74h357v-971h86v-75h-323l-16 97q-5 -22 -29 -50t-64.5 -48.5t-95.5 -20.5zM574 1105l-209 100q-30 15 -44.5 30t-14.5 43
q0 24 18 39.5t45 15.5q21 0 35.5 -8t29.5 -20l182 -151z" />
    <glyph glyph-name="uacute" unicode="&#xfa;" horiz-adv-x="916" 
d="M368 -22q-69 0 -125.5 26t-90 97.5t-33.5 208.5v662h-100v74h370v-705q0 -98 5.5 -150.5t19.5 -71.5t39 -19t45 26t31 77.5t11 129.5v639h-87v74h357v-971h86v-75h-323l-16 97q-5 -22 -29 -50t-64.5 -48.5t-95.5 -20.5zM368 1087l-57 61l190 144q15 11 29.5 18t27.5 7
q18 0 32.5 -10t21.5 -24q8 -13 8 -28q0 -19 -13 -36t-41 -28z" />
    <glyph glyph-name="ucircumflex" unicode="&#xfb;" horiz-adv-x="916" 
d="M368 -22q-69 0 -125.5 26t-90 97.5t-33.5 208.5v662h-100v74h370v-705q0 -98 5.5 -150.5t19.5 -71.5t39 -19t45 26t31 77.5t11 129.5v639h-87v74h357v-971h86v-75h-323l-16 97q-5 -22 -29 -50t-64.5 -48.5t-95.5 -20.5zM288 1128l148 203h70l146 -203h-90l-92 130
l-92 -130h-90z" />
    <glyph glyph-name="udieresis" unicode="&#xfc;" horiz-adv-x="916" 
d="M368 -22q-69 0 -125.5 26t-90 97.5t-33.5 208.5v662h-100v74h370v-705q0 -98 5.5 -150.5t19.5 -71.5t39 -19t45 26t31 77.5t11 129.5v639h-87v74h357v-971h86v-75h-323l-16 97q-5 -22 -29 -50t-64.5 -48.5t-95.5 -20.5zM596 1134q-38 0 -65.5 28t-27.5 64q0 39 27.5 67.5
t65.5 28.5q36 0 64 -28.5t28 -67.5q0 -36 -28 -64t-64 -28zM344 1134q-36 0 -63 28t-27 64q0 39 27 67.5t63 28.5q39 0 66 -28.5t27 -67.5q0 -36 -27 -64t-66 -28z" />
    <glyph glyph-name="yacute" unicode="&#xfd;" horiz-adv-x="750" 
d="M230 -502q-51 0 -88 36.5t-56 98.5t-19 138q0 71 29 107.5t76 36.5q46 0 74 -32t28 -90q0 -45 -18 -72.5t-35.5 -50.5t-17.5 -56q0 -24 10 -39t29 -15q11 0 18.5 6.5t13.5 21.5t12 42l78 353l-272 989h-84v75h450v-75h-79l116 -440l100 440h-74v75h230v-75h-71l-234 -979
l-87 -380q-8 -34 -23.5 -60.5t-40.5 -40.5t-65 -14zM279 1086l-57 61l190 144q15 11 29.5 18t27.5 7q18 0 32.5 -10t21.5 -24q8 -13 8 -28q0 -19 -13 -36t-41 -28z" />
    <glyph glyph-name="thorn" unicode="&#xfe;" horiz-adv-x="963" 
d="M40 -500v75h98v1850h-98v75h368v-548q4 12 21.5 36t50 43.5t79.5 19.5q96 0 164 -60.5t104 -179t36 -295.5q0 -189 -42 -307t-114.5 -173.5t-166.5 -55.5q-33 0 -57 7t-40 18.5t-24.5 24t-10.5 23.5v-478h97v-75h-465zM499 92q31 0 49 44.5t26 112t10.5 139.5t2.5 125
q0 43 -3.5 111t-12.5 135.5t-24.5 113t-39.5 45.5q-22 0 -40 -25t-31 -61.5t-20.5 -72.5t-7.5 -57v-440q4 -37 15 -76.5t30.5 -66.5t45.5 -27z" />
    <glyph glyph-name="ydieresis" unicode="&#xff;" horiz-adv-x="750" 
d="M230 -502q-51 0 -88 36.5t-56 98.5t-19 138q0 71 29 107.5t76 36.5q46 0 74 -32t28 -90q0 -45 -18 -72.5t-35.5 -50.5t-17.5 -56q0 -24 10 -39t29 -15q11 0 18.5 6.5t13.5 21.5t12 42l78 353l-272 989h-84v75h450v-75h-79l116 -440l100 440h-74v75h230v-75h-71l-234 -979
l-87 -380q-8 -34 -23.5 -60.5t-40.5 -40.5t-65 -14zM507 1133q-38 0 -65.5 28t-27.5 64q0 39 27.5 67.5t65.5 28.5q36 0 64 -28.5t28 -67.5q0 -36 -28 -64t-64 -28zM255 1133q-36 0 -63 28t-27 64q0 39 27 67.5t63 28.5q39 0 66 -28.5t27 -67.5q0 -36 -27 -64t-66 -28z" />
    <glyph glyph-name="Amacron" unicode="&#x100;" horiz-adv-x="726" 
d="M-3 0v75h81l190 1326h144l229 -1326h93v-75h-459v75h75l-101 726h3l-95 -726h67v-75h-227zM151 249v70h208v-70h-208zM41 1544v75h603v-75h-603z" />
    <glyph glyph-name="amacron" unicode="&#x101;" horiz-adv-x="860" 
d="M297 -22q-69 0 -125.5 33t-90.5 93t-34 143q0 97 42 160t104 105.5t123.5 75.5t103.5 69.5t42 89.5q0 72 -12.5 123t-38 77t-65.5 26q-47 0 -77 -23.5t-30 -56.5q0 -28 12.5 -48t24.5 -42t12 -60q0 -51 -29 -80.5t-75 -29.5q-48 0 -77.5 40.5t-29.5 111.5
q0 79 41.5 141.5t115.5 98.5t169 36q96 0 170 -38t116.5 -120t42.5 -216v-517q0 -53 8.5 -71t26.5 -18q19 0 32.5 10.5t19.5 18.5l44 -58q-18 -24 -70 -47.5t-122 -23.5q-71 0 -109 19.5t-55 45.5t-23 44q-4 -12 -23 -39t-58.5 -50t-105.5 -23zM390 98q22 0 38.5 20t25 52
t8.5 66v375q-4 -28 -26 -53t-49 -57.5t-47 -84.5t-20 -136q0 -89 19.5 -135.5t50.5 -46.5zM171 1141v75h492v-75h-492z" />
    <glyph glyph-name="Abreve" unicode="&#x102;" horiz-adv-x="726" 
d="M-3 0v75h81l190 1326h144l229 -1326h93v-75h-459v75h75l-101 726h3l-95 -726h67v-75h-227zM151 249v70h208v-70h-208zM341 1498q-64 0 -104 30t-58 76t-18 93h74q5 -63 34.5 -92.5t71.5 -29.5q43 0 72.5 29.5t33.5 92.5h75q0 -47 -18.5 -93t-58 -76t-104.5 -30z" />
    <glyph glyph-name="abreve" unicode="&#x103;" horiz-adv-x="860" 
d="M297 -22q-69 0 -125.5 33t-90.5 93t-34 143q0 97 42 160t104 105.5t123.5 75.5t103.5 69.5t42 89.5q0 72 -12.5 123t-38 77t-65.5 26q-47 0 -77 -23.5t-30 -56.5q0 -28 12.5 -48t24.5 -42t12 -60q0 -51 -29 -80.5t-75 -29.5q-48 0 -77.5 40.5t-29.5 111.5
q0 79 41.5 141.5t115.5 98.5t169 36q96 0 170 -38t116.5 -120t42.5 -216v-517q0 -53 8.5 -71t26.5 -18q19 0 32.5 10.5t19.5 18.5l44 -58q-18 -24 -70 -47.5t-122 -23.5q-71 0 -109 19.5t-55 45.5t-23 44q-4 -12 -23 -39t-58.5 -50t-105.5 -23zM390 98q22 0 38.5 20t25 52
t8.5 66v375q-4 -28 -26 -53t-49 -57.5t-47 -84.5t-20 -136q0 -89 19.5 -135.5t50.5 -46.5zM415 1104q-64 0 -104 30t-58 76t-18 93h74q5 -63 34.5 -92.5t71.5 -29.5q43 0 72.5 29.5t33.5 92.5h75q0 -47 -18.5 -93t-58 -76t-104.5 -30z" />
    <glyph glyph-name="Aogonek" unicode="&#x104;" horiz-adv-x="726" 
d="M-3 0v75h81l190 1326h144l229 -1326h93v-75h-459v75h75l-101 726h3l-95 -726h67v-75h-227zM151 249v70h208v-70h-208zM728 -308q-45 0 -83 14.5t-60.5 45.5t-22.5 79q0 55 25 93t58 62.5t58 38.5l31 -25q-23 -27 -41 -58.5t-18 -79.5q0 -41 29.5 -55.5t54.5 -14.5
q26 0 49 7t39 17l37 -70q-25 -24 -66.5 -39t-89.5 -15z" />
    <glyph glyph-name="aogonek" unicode="&#x105;" horiz-adv-x="860" 
d="M297 -22q-69 0 -125.5 33t-90.5 93t-34 143q0 97 42 160t104 105.5t123.5 75.5t103.5 69.5t42 89.5q0 72 -12.5 123t-38 77t-65.5 26q-47 0 -76.5 -23.5t-29.5 -56.5q0 -28 12 -48t24 -42.5t12 -60.5q0 -51 -29 -80.5t-75 -29.5q-48 0 -77.5 40.5t-29.5 110.5
q0 80 41.5 143t115.5 99t169 36q96 0 170 -38t116.5 -120t42.5 -216v-517q0 -53 8.5 -71t26.5 -18q19 0 32.5 10.5t19.5 18.5l44 -58q-18 -24 -70 -47.5t-122 -23.5q-71 0 -111.5 13t-59 32.5t-25.5 38.5q-3 -12 -20 -32.5t-54.5 -37.5t-103.5 -17zM390 98q22 0 38.5 20
t25 52t8.5 66v375q-4 -28 -26 -53t-49 -57.5t-47 -84.5t-20 -136q0 -89 19.5 -135.5t50.5 -46.5zM857 -256q-45 0 -83 15t-60.5 46t-22.5 78q0 56 25 94t58 62.5t58 38.5l31 -26q-23 -26 -41 -57.5t-18 -80.5q0 -40 29.5 -54.5t54.5 -14.5q26 0 49 6.5t39 17.5l37 -71
q-25 -24 -66.5 -39t-89.5 -15z" />
    <glyph glyph-name="Cacute" unicode="&#x106;" horiz-adv-x="752" 
d="M444 -20q-169 0 -273.5 187t-104.5 531q0 136 24 265.5t72 233t121 164.5t171 61q69 0 122.5 -44t83.5 -109t30 -127q0 -61 -24.5 -102t-78.5 -41q-60 0 -84 33t-24 88q0 38 17 63t34 48t17 55t-12 44.5t-33 12.5q-35 0 -60 -43t-42 -114t-27 -156.5t-14.5 -171.5
t-4.5 -158q0 -107 5.5 -203.5t16 -177t26.5 -139.5t37.5 -92t48.5 -33q37 0 60.5 20.5t38.5 56t26 82.5l62 -38q-20 -58 -49.5 -102.5t-73.5 -69t-108 -24.5zM349 1442l-57 60l190 144q15 11 29.5 18t27.5 7q18 0 32.5 -10t21.5 -23q8 -13 8 -29q0 -18 -13 -35t-41 -28z" />
    <glyph glyph-name="cacute" unicode="&#x107;" horiz-adv-x="724" 
d="M418 -22q-71 0 -136.5 35.5t-117 105t-81 172t-29.5 237.5q0 148 38 250t96.5 164t123 90.5t115.5 28.5q80 0 137.5 -40.5t89 -106.5t31.5 -142q0 -67 -29.5 -103t-75.5 -36q-47 0 -77 30.5t-30 83.5q0 34 14 55.5t27.5 42.5t13.5 51q0 46 -25.5 67t-57.5 21
q-37 0 -59 -44t-33.5 -113t-15 -147t-3.5 -144q0 -81 5 -164.5t19 -153t40.5 -112.5t69.5 -43q59 0 91 35.5t46 77.5l58 -50q-23 -57 -84.5 -102.5t-160.5 -45.5zM320 1087l-57 61l190 144q15 11 29.5 18t27.5 7q18 0 32.5 -10t21.5 -24q8 -13 8 -28q0 -19 -13 -36t-41 -28z
" />
    <glyph glyph-name="ccircumflex" unicode="&#x109;" horiz-adv-x="724" 
d="M418 -22q-71 0 -136.5 35.5t-117 105t-81 172t-29.5 237.5q0 148 38 250t96.5 164t123 90.5t115.5 28.5q80 0 137.5 -40.5t89 -106.5t31.5 -142q0 -67 -29.5 -103t-75.5 -36q-47 0 -77 30.5t-30 83.5q0 34 14 55.5t27.5 42.5t13.5 51q0 46 -25.5 67t-57.5 21
q-37 0 -59 -44t-33.5 -113t-15 -147t-3.5 -144q0 -81 5 -164.5t19 -153t40.5 -112.5t69.5 -43q59 0 91 35.5t46 77.5l58 -50q-23 -57 -84.5 -102.5t-160.5 -45.5zM240 1128l148 203h70l146 -203h-90l-92 130l-92 -130h-90z" />
    <glyph glyph-name="Cdotaccent" unicode="&#x10a;" horiz-adv-x="752" 
d="M444 -20q-169 0 -273.5 187t-104.5 531q0 136 24 265.5t72 233t121 164.5t171 61q69 0 122.5 -44t83.5 -109t30 -127q0 -61 -24.5 -102t-78.5 -41q-60 0 -84 33t-24 88q0 38 17 63t34 48t17 55t-12 44.5t-33 12.5q-35 0 -60 -43t-42 -114t-27 -156.5t-14.5 -171.5
t-4.5 -158q0 -107 5.5 -203.5t16 -177t26.5 -139.5t37.5 -92t48.5 -33q37 0 60.5 20.5t38.5 56t26 82.5l62 -38q-20 -58 -49.5 -102.5t-73.5 -69t-108 -24.5zM453 1502q-38 0 -65.5 28t-27.5 64q0 38 27.5 66t65.5 28q35 0 62.5 -28t27.5 -66q0 -36 -27.5 -64t-62.5 -28z
" />
    <glyph glyph-name="cdotaccent" unicode="&#x10b;" horiz-adv-x="724" 
d="M418 -22q-71 0 -136.5 35.5t-117 105t-81 172t-29.5 237.5q0 148 38 250t96.5 164t123 90.5t115.5 28.5q80 0 137.5 -40.5t89 -106.5t31.5 -142q0 -67 -29.5 -103t-75.5 -36q-47 0 -77 30.5t-30 83.5q0 34 14 55.5t27.5 42.5t13.5 51q0 46 -25.5 67t-57.5 21
q-37 0 -59 -44t-33.5 -113t-15 -147t-3.5 -144q0 -81 5 -164.5t19 -153t40.5 -112.5t69.5 -43q59 0 91 35.5t46 77.5l58 -50q-23 -57 -84.5 -102.5t-160.5 -45.5zM423 1140q-38 0 -65.5 27.5t-27.5 64.5q0 38 27.5 66t65.5 28q35 0 62.5 -28t27.5 -66q0 -37 -27.5 -64.5
t-62.5 -27.5z" />
    <glyph glyph-name="Ccaron" unicode="&#x10c;" horiz-adv-x="752" 
d="M444 -20q-169 0 -273.5 187t-104.5 531q0 136 24 265.5t72 233t121 164.5t171 61q69 0 122.5 -44t83.5 -109t30 -127q0 -61 -24.5 -102t-78.5 -41q-60 0 -84 33t-24 88q0 38 17 63t34 48t17 55t-12 44.5t-33 12.5q-35 0 -60 -43t-42 -114t-27 -156.5t-14.5 -171.5
t-4.5 -158q0 -107 5.5 -203.5t16 -177t26.5 -139.5t37.5 -92t48.5 -33q37 0 60.5 20.5t38.5 56t26 82.5l62 -38q-20 -58 -49.5 -102.5t-73.5 -69t-108 -24.5zM418 1473l-172 226h99l107 -153l107 153h101l-172 -226h-70z" />
    <glyph glyph-name="ccaron" unicode="&#x10d;" horiz-adv-x="724" 
d="M418 -22q-71 0 -136.5 35.5t-117 105t-81 172t-29.5 237.5q0 148 38 250t96.5 164t123 90.5t115.5 28.5q80 0 137.5 -40.5t89 -106.5t31.5 -142q0 -67 -29.5 -103t-75.5 -36q-47 0 -77 30.5t-30 83.5q0 34 14 55.5t27.5 42.5t13.5 51q0 46 -25.5 67t-57.5 21
q-37 0 -59 -44t-33.5 -113t-15 -147t-3.5 -144q0 -81 5 -164.5t19 -153t40.5 -112.5t69.5 -43q59 0 91 35.5t46 77.5l58 -50q-23 -57 -84.5 -102.5t-160.5 -45.5zM389 1110l-172 226h99l107 -153l107 153h101l-172 -226h-70z" />
    <glyph glyph-name="Dcaron" unicode="&#x10e;" horiz-adv-x="889" 
d="M44 0v75h95v1250h-95v75h412q99 0 185.5 -78t139.5 -231t53 -380q0 -229 -53.5 -387.5t-140 -241t-184.5 -82.5h-412zM410 75h31q33 0 62.5 72t48 214t18.5 350q0 192 -18 329.5t-46.5 211t-59.5 73.5h-36v-1250zM413 1473l-172 226h99l107 -153l107 153h101l-172 -226
h-70z" />
    <glyph glyph-name="dcaron" unicode="&#x10f;" horiz-adv-x="1032" 
d="M845 1168q11 48 14 109t3 114q0 61 27.5 80.5t56.5 19.5t54.5 -18t25.5 -71q0 -76 -35 -147.5t-77 -114.5zM367 -20q-77 0 -147 48t-115 165t-45 325q0 191 42.5 311t109 176t137.5 56q58 0 89 -18t43.5 -40t14.5 -32v452h-120v77h397v-1425h116v-75h-345l-27 112
q-1 -27 -19 -58t-50.5 -52.5t-80.5 -21.5zM420 123q23 0 40 32.5t26.5 84.5t9.5 110v386q-2 52 -11.5 91.5t-25.5 62t-38 22.5q-21 0 -37.5 -27.5t-28 -79t-18 -125t-6.5 -165.5q0 -90 5.5 -162.5t16.5 -123.5t27.5 -78.5t39.5 -27.5z" />
    <glyph glyph-name="Dcroat" unicode="&#x110;" horiz-adv-x="933" 
d="M50 680v75h470v-75h-470zM44 0v75h95v1250h-95v75h412q99 0 185.5 -78t139.5 -231t53 -380q0 -229 -53.5 -387.5t-140 -241t-184.5 -82.5h-412zM410 75h31q33 0 62.5 72t48 214t18.5 350q0 192 -18 329.5t-46.5 211t-59.5 73.5h-36v-1250z" />
    <glyph glyph-name="dcroat" unicode="&#x111;" horiz-adv-x="900" 
d="M203 1236v75h664v-75h-664zM367 -20q-77 0 -147 48t-115 165t-45 325q0 191 42.5 311t109 176t137.5 56q58 0 89 -18t43.5 -40t14.5 -32v452h-120v77h397v-1425h116v-75h-345l-27 112q-1 -27 -19 -58t-50.5 -52.5t-80.5 -21.5zM420 123q23 0 40 32.5t26.5 84.5t9.5 110
v386q-2 52 -11.5 91.5t-25.5 62t-38 22.5q-21 0 -37.5 -27.5t-28 -79t-18 -125t-6.5 -165.5q0 -90 5.5 -162.5t16.5 -123.5t27.5 -78.5t39.5 -27.5z" />
    <glyph glyph-name="Emacron" unicode="&#x112;" horiz-adv-x="764" 
d="M44 0v75h95v1250h-95v75h643v-349h-75q0 81 -17 143t-52.5 96.5t-91.5 34.5h-40v-587h155v93h74v-258h-74v90h-155v-588h40q56 0 91.5 35.5t52.5 98t17 143.5h75v-352h-643zM93 1544v75h603v-75h-603z" />
    <glyph glyph-name="emacron" unicode="&#x113;" horiz-adv-x="810" 
d="M426 -20q-80 0 -148 33.5t-118 101.5t-77.5 171t-27.5 241q0 145 34 247t89.5 165.5t119.5 92.5t122 29q70 0 131 -33t106.5 -94t71.5 -146.5t26 -191.5q0 -20 -0.5 -40t-2.5 -41h-441v75h187q0 155 -9 240.5t-26.5 120t-42.5 34.5t-47 -35.5t-35 -128.5t-13 -267
q0 -130 7.5 -223t24 -151.5t42 -86t63.5 -27.5q75 0 120 37.5t64 75.5l63 -47q-25 -56 -101.5 -104t-181.5 -48zM169 1141v75h492v-75h-492z" />
    <glyph glyph-name="ebreve" unicode="&#x115;" horiz-adv-x="810" 
d="M426 -20q-80 0 -148 33.5t-118 101.5t-77.5 171t-27.5 241q0 145 34 247t89.5 165.5t119.5 92.5t122 29q70 0 131 -33t106.5 -94t71.5 -146.5t26 -191.5q0 -20 -0.5 -40t-2.5 -41h-441v75h187q0 155 -9 240.5t-26.5 120t-42.5 34.5t-47 -35.5t-35 -128.5t-13 -267
q0 -130 7.5 -223t24 -151.5t42 -86t63.5 -27.5q75 0 120 37.5t64 75.5l63 -47q-25 -56 -101.5 -104t-181.5 -48zM413 1104q-64 0 -104 30t-58 76t-18 93h74q5 -63 34.5 -92.5t71.5 -29.5q43 0 72.5 29.5t33.5 92.5h75q0 -47 -18.5 -93t-58 -76t-104.5 -30z" />
    <glyph glyph-name="Edotaccent" unicode="&#x116;" horiz-adv-x="764" 
d="M44 0v75h95v1250h-95v75h643v-349h-75q0 81 -17 143t-52.5 96.5t-91.5 34.5h-40v-587h155v93h74v-258h-74v90h-155v-588h40q56 0 91.5 35.5t52.5 98t17 143.5h75v-352h-643zM395 1502q-38 0 -65.5 28t-27.5 64q0 38 27.5 66t65.5 28q35 0 62.5 -28t27.5 -66
q0 -36 -27.5 -64t-62.5 -28z" />
    <glyph glyph-name="edotaccent" unicode="&#x117;" horiz-adv-x="810" 
d="M426 -20q-80 0 -148 33.5t-118 101.5t-77.5 171t-27.5 241q0 145 34 247t89.5 165.5t119.5 92.5t122 29q70 0 131 -33t106.5 -94t71.5 -146.5t26 -191.5q0 -20 -0.5 -40t-2.5 -41h-441v75h187q0 155 -9 240.5t-26.5 120t-42.5 34.5t-47 -35.5t-35 -128.5t-13 -267
q0 -130 7.5 -223t24 -151.5t42 -86t63.5 -27.5q75 0 120 37.5t64 75.5l63 -47q-25 -56 -101.5 -104t-181.5 -48zM416 1140q-38 0 -65.5 27.5t-27.5 64.5q0 38 27.5 66t65.5 28q35 0 62.5 -28t27.5 -66q0 -37 -27.5 -64.5t-62.5 -27.5z" />
    <glyph glyph-name="Eogonek" unicode="&#x118;" horiz-adv-x="764" 
d="M44 0v75h95v1250h-95v75h643v-349h-75q0 81 -17 143t-52.5 96.5t-91.5 34.5h-40v-587h155v93h74v-258h-74v90h-155v-588h40q56 0 91.5 35.5t52.5 98t17 143.5h75v-352h-643zM681 -308q-45 0 -82.5 14.5t-60 45.5t-22.5 79q0 55 25 93t58 62.5t57 38.5l31 -25
q-22 -27 -40 -58.5t-18 -79.5q0 -41 29 -55.5t54 -14.5q26 0 49.5 7t39.5 17l36 -70q-25 -24 -66.5 -39t-89.5 -15z" />
    <glyph glyph-name="eogonek" unicode="&#x119;" horiz-adv-x="810" 
d="M426 -20q-80 0 -148 33.5t-118 101.5t-77.5 171t-27.5 241q0 145 34 247t89.5 165.5t119.5 92.5t122 29q70 0 131 -33.5t106.5 -97.5t71.5 -156.5t26 -211.5q0 -20 -0.5 -40t-2.5 -41h-441v75h187q0 155 -9 249t-26.5 137t-42.5 43t-47 -44t-35 -145t-13 -275
q0 -130 7.5 -219t24 -142.5t42 -77.5t63.5 -24q75 0 120 41.5t64 79.5l63 -47q-25 -56 -101.5 -104t-181.5 -48zM568 -294q-46 0 -83.5 15t-60 46t-22.5 78q0 56 25 94t58 62.5t57 38.5l31 -25q-22 -27 -40 -58.5t-18 -80.5q0 -40 29 -54.5t54 -14.5q26 0 49.5 7t39.5 17
l37 -71q-26 -23 -67.5 -38.5t-88.5 -15.5z" />
    <glyph glyph-name="Ecaron" unicode="&#x11a;" horiz-adv-x="764" 
d="M44 0v75h95v1250h-95v75h643v-349h-75q0 81 -17 143t-52.5 96.5t-91.5 34.5h-40v-587h155v93h74v-258h-74v90h-155v-588h40q56 0 91.5 35.5t52.5 98t17 143.5h75v-352h-643zM361 1473l-172 226h99l107 -153l107 153h101l-172 -226h-70z" />
    <glyph glyph-name="ecaron" unicode="&#x11b;" horiz-adv-x="810" 
d="M426 -20q-80 0 -148 33.5t-118 101.5t-77.5 171t-27.5 241q0 145 34 247t89.5 165.5t119.5 92.5t122 29q70 0 131 -33t106.5 -94t71.5 -146.5t26 -191.5q0 -20 -0.5 -40t-2.5 -41h-441v75h187q0 155 -9 240.5t-26.5 120t-42.5 34.5t-47 -35.5t-35 -128.5t-13 -267
q0 -130 7.5 -223t24 -151.5t42 -86t63.5 -27.5q75 0 120 37.5t64 75.5l63 -47q-25 -56 -101.5 -104t-181.5 -48zM381 1110l-172 226h99l107 -153l107 153h101l-172 -226h-70z" />
    <glyph glyph-name="gcircumflex" unicode="&#x11d;" horiz-adv-x="887" 
d="M430 -498q-91 0 -178.5 27.5t-144.5 86t-57 151.5q0 67 27 112t64 71t67.5 38t37.5 13q-7 2 -30.5 11t-51 29t-47.5 53.5t-20 83.5q0 35 13 61t33.5 43t39.5 23q5 2 13 4t10 2q-5 3 -24.5 22t-43 57t-41.5 100t-18 150q0 119 36 199.5t91 129.5t115 70.5t109 21.5
q108 0 185.5 -51.5t119.5 -144t42 -214.5q0 -132 -35.5 -215t-91 -127.5t-115 -61t-107.5 -16.5q-62 0 -100 12t-48 16h-1.5h-1.5q-12 0 -24.5 -12.5t-12.5 -36.5q0 -35 51.5 -61.5t190.5 -53.5q157 -28 247 -96.5t90 -208.5q0 -86 -39.5 -142.5t-100.5 -88t-128 -44.5
t-121 -13zM430 -425q66 0 106 49.5t40 112.5t-17.5 100t-68.5 68q-19 12 -44.5 25t-49.5 23t-38 14q-17 -8 -37 -32.5t-34.5 -65t-14.5 -99.5q0 -60 18.5 -103.5t54 -67.5t85.5 -24zM428 309q21 0 39 21.5t29.5 93.5t11.5 223q0 144 -11.5 215.5t-30 95.5t-38.5 24t-38 -24
t-29.5 -96.5t-11.5 -217.5q0 -151 12 -222t30 -92t37 -21zM557 980q12 76 70.5 119.5t126.5 43.5q56 0 79 -28t23 -70q0 -41 -22.5 -63t-56.5 -22q-35 0 -49.5 16t-24.5 31t-34 15q-12 0 -23 -8t-11 -34h-78zM247 1128l148 203h70l146 -203h-90l-92 130l-92 -130h-90z" />
    <glyph glyph-name="Gbreve" unicode="&#x11e;" horiz-adv-x="859" 
d="M459 -20q-111 0 -201.5 75t-144 234t-53.5 409q0 229 61.5 390.5t156.5 246.5t195 85q77 0 136 -38t92 -100.5t33 -139.5q0 -64 -28 -103.5t-82 -39.5q-58 0 -83.5 38.5t-25.5 91.5q0 36 16.5 59.5t32.5 44t16 50.5q0 24 -23 46t-55 22q-48 0 -81 -61.5t-52 -160.5
t-27.5 -212.5t-8.5 -218.5q0 -161 10.5 -280.5t27.5 -199.5t40 -120t49 -40q14 0 21.5 5.5t12.5 11.5v483h-75v75h404v-75h-85v-558h-77q-1 3 -13.5 12t-34.5 9q-20 0 -39 -10t-45.5 -20.5t-69.5 -10.5zM454 1498q-64 0 -104 30t-58 76t-18 93h74q5 -63 34.5 -92.5
t71.5 -29.5q43 0 72.5 29.5t33.5 92.5h75q0 -47 -18.5 -93t-58 -76t-104.5 -30z" />
    <glyph glyph-name="gbreve" unicode="&#x11f;" horiz-adv-x="887" 
d="M430 -498q-91 0 -178.5 27.5t-144.5 86t-57 151.5q0 67 27 112t64 71t67.5 38t37.5 13q-7 2 -30.5 11t-51 29t-47.5 53.5t-20 83.5q0 35 13 61t33.5 43t39.5 23q5 2 13 4t10 2q-5 3 -24.5 22t-43 57t-41.5 100t-18 150q0 119 36 199.5t91 129.5t115 70.5t109 21.5
q108 0 185.5 -51.5t119.5 -144t42 -214.5q0 -132 -35.5 -215t-91 -127.5t-115 -61t-107.5 -16.5q-62 0 -100 12t-48 16h-1.5h-1.5q-12 0 -24.5 -12.5t-12.5 -36.5q0 -35 51.5 -61.5t190.5 -53.5q157 -28 247 -96.5t90 -208.5q0 -86 -39.5 -142.5t-100.5 -88t-128 -44.5
t-121 -13zM430 -425q66 0 106 49.5t40 112.5t-17.5 100t-68.5 68q-19 12 -44.5 25t-49.5 23t-38 14q-17 -8 -37 -32.5t-34.5 -65t-14.5 -99.5q0 -60 18.5 -103.5t54 -67.5t85.5 -24zM428 309q21 0 39 21.5t29.5 93.5t11.5 223q0 144 -11.5 215.5t-30 95.5t-38.5 24t-38 -24
t-29.5 -96.5t-11.5 -217.5q0 -151 12 -222t30 -92t37 -21zM557 980q12 76 70.5 119.5t126.5 43.5q56 0 79 -28t23 -70q0 -41 -22.5 -63t-56.5 -22q-35 0 -49.5 16t-24.5 31t-34 15q-12 0 -23 -8t-11 -34h-78zM427 1104q-64 0 -104 30t-58 76t-18 93h74q5 -63 34.5 -92.5
t71.5 -29.5q43 0 72.5 29.5t33.5 92.5h75q0 -47 -18.5 -93t-58 -76t-104.5 -30z" />
    <glyph glyph-name="Gdotaccent" unicode="&#x120;" horiz-adv-x="859" 
d="M459 -20q-111 0 -201.5 75t-144 234t-53.5 409q0 229 61.5 390.5t156.5 246.5t195 85q77 0 136 -38t92 -100.5t33 -139.5q0 -64 -28 -103.5t-82 -39.5q-58 0 -83.5 38.5t-25.5 91.5q0 36 16.5 59.5t32.5 44t16 50.5q0 24 -23 46t-55 22q-48 0 -81 -61.5t-52 -160.5
t-27.5 -212.5t-8.5 -218.5q0 -161 10.5 -280.5t27.5 -199.5t40 -120t49 -40q14 0 21.5 5.5t12.5 11.5v483h-75v75h404v-75h-85v-558h-77q-1 3 -13.5 12t-34.5 9q-20 0 -39 -10t-45.5 -20.5t-69.5 -10.5zM457 1502q-38 0 -65.5 28t-27.5 64q0 38 27.5 66t65.5 28
q35 0 62.5 -28t27.5 -66q0 -36 -27.5 -64t-62.5 -28z" />
    <glyph glyph-name="gdotaccent" unicode="&#x121;" horiz-adv-x="887" 
d="M430 -498q-91 0 -178.5 27.5t-144.5 86t-57 151.5q0 67 27 112t64 71t67.5 38t37.5 13q-7 2 -30.5 11t-51 29t-47.5 53.5t-20 83.5q0 35 13 61t33.5 43t39.5 23q5 2 13 4t10 2q-5 3 -24.5 22t-43 57t-41.5 100t-18 150q0 119 36 199.5t91 129.5t115 70.5t109 21.5
q108 0 185.5 -51.5t119.5 -144t42 -214.5q0 -132 -35.5 -215t-91 -127.5t-115 -61t-107.5 -16.5q-62 0 -100 12t-48 16h-1.5h-1.5q-12 0 -24.5 -12.5t-12.5 -36.5q0 -35 51.5 -61.5t190.5 -53.5q157 -28 247 -96.5t90 -208.5q0 -86 -39.5 -142.5t-100.5 -88t-128 -44.5
t-121 -13zM430 -425q66 0 106 49.5t40 112.5t-17.5 100t-68.5 68q-19 12 -44.5 25t-49.5 23t-38 14q-17 -8 -37 -32.5t-34.5 -65t-14.5 -99.5q0 -60 18.5 -103.5t54 -67.5t85.5 -24zM428 309q21 0 39 21.5t29.5 93.5t11.5 223q0 144 -11.5 215.5t-30 95.5t-38.5 24t-38 -24
t-29.5 -96.5t-11.5 -217.5q0 -151 12 -222t30 -92t37 -21zM557 980q12 76 70.5 119.5t126.5 43.5q56 0 79 -28t23 -70q0 -41 -22.5 -63t-56.5 -22q-35 0 -49.5 16t-24.5 31t-34 15q-12 0 -23 -8t-11 -34h-78zM430 1140q-38 0 -65.5 27.5t-27.5 64.5q0 38 27.5 66t65.5 28
q35 0 62.5 -28t27.5 -66q0 -37 -27.5 -64.5t-62.5 -27.5z" />
    <glyph glyph-name="uni0122" unicode="&#x122;" horiz-adv-x="859" 
d="M459 -20q-111 0 -201.5 75t-144 234t-53.5 409q0 229 61.5 390.5t156.5 246.5t195 85q77 0 136 -38t92 -100.5t33 -139.5q0 -64 -28 -103.5t-82 -39.5q-58 0 -83.5 38.5t-25.5 91.5q0 36 16.5 59.5t32.5 44t16 50.5q0 24 -23 46t-55 22q-48 0 -81 -61.5t-52 -160.5
t-27.5 -212.5t-8.5 -218.5q0 -161 10.5 -280.5t27.5 -199.5t40 -120t49 -40q14 0 21.5 5.5t12.5 11.5v483h-75v75h404v-75h-85v-558h-77q-1 3 -13.5 12t-34.5 9q-20 0 -39 -10t-45.5 -20.5t-69.5 -10.5zM446 -369l-42 49q11 4 34 19.5t30 32.5q-3 -2 -12 -2q-35 0 -60 24.5
t-25 60.5t25 60.5t60 24.5q39 0 67 -24.5t28 -72.5t-19 -82t-43.5 -55.5t-42.5 -34.5z" />
    <glyph glyph-name="uni0123" unicode="&#x123;" horiz-adv-x="887" 
d="M430 -498q-91 0 -178.5 27.5t-144.5 86t-57 151.5q0 67 27 112t64 71t67.5 38t37.5 13q-7 2 -30.5 11t-51 29t-47.5 53.5t-20 83.5q0 35 13 61t33.5 43t39.5 23q5 2 13 4t10 2q-5 3 -24.5 22t-43 57t-41.5 100t-18 150q0 119 36 199.5t91 129.5t115 70.5t109 21.5
q108 0 185.5 -51.5t119.5 -144t42 -214.5q0 -132 -35.5 -215t-91 -127.5t-115 -61t-107.5 -16.5q-62 0 -100 12t-48 16h-1.5h-1.5q-12 0 -24.5 -12.5t-12.5 -36.5q0 -35 51.5 -61.5t190.5 -53.5q157 -28 247 -96.5t90 -208.5q0 -86 -39.5 -142.5t-100.5 -88t-128 -44.5
t-121 -13zM430 -425q66 0 106 49.5t40 112.5t-17.5 100t-68.5 68q-19 12 -44.5 25t-49.5 23t-38 14q-17 -8 -37 -32.5t-34.5 -65t-14.5 -99.5q0 -60 18.5 -103.5t54 -67.5t85.5 -24zM428 309q21 0 39 21.5t29.5 93.5t11.5 223q0 144 -11.5 215.5t-30 95.5t-38.5 24t-38 -24
t-29.5 -96.5t-11.5 -217.5q0 -151 12 -222t30 -92t37 -21zM557 980q12 76 70.5 119.5t126.5 43.5q56 0 79 -28t23 -70q0 -41 -22.5 -63t-56.5 -22q-35 0 -49.5 16t-24.5 31t-34 15q-12 0 -23 -8t-11 -34h-78zM444 1378l43 -41q-11 -4 -37.5 -25.5t-33.5 -38.5q6 6 18 6
q35 0 60 -24.5t25 -60.5q0 -35 -25 -60t-60 -25q-39 0 -67 24.5t-28 72.5q0 49 18.5 82.5t43 55.5t43.5 34z" />
    <glyph glyph-name="hcircumflex" unicode="&#x125;" horiz-adv-x="948" 
d="M32 0v75h103v1350h-103v75h373v-539q1 5 21.5 30t61.5 48t103 23q67 0 120 -32t84 -106.5t31 -201.5v-647h103v-75h-440v75h67v637q0 112 -15.5 153.5t-45.5 41.5q-21 0 -41 -18t-33.5 -56t-15.5 -98v-660h71v-75h-444zM293 1581l148 203h70l146 -203h-90l-92 130
l-92 -130h-90z" />
    <glyph glyph-name="Hbar" unicode="&#x126;" horiz-adv-x="974" 
d="M89 1011v75h817v-75h-817zM44 0v75h95v1250h-95v75h424v-75h-61v-567h164v567h-60v75h417v-75h-96v-1250h96v-75h-417v75h60v608h-164v-608h61v-75h-424z" />
    <glyph glyph-name="hbar" unicode="&#x127;" horiz-adv-x="948" 
d="M30 1236v75h663v-75h-663zM32 0v75h103v1350h-103v75h373v-539q1 5 21.5 30t61.5 48t103 23q67 0 120 -32t84 -106.5t31 -201.5v-647h103v-75h-440v75h67v637q0 112 -15.5 153.5t-45.5 41.5q-21 0 -41 -18t-33.5 -56t-15.5 -98v-660h71v-75h-444z" />
    <glyph glyph-name="Itilde" unicode="&#x128;" horiz-adv-x="587" 
d="M62 0v75h97v1250h-97v75h465v-75h-100v-1250h100v-75h-465zM381 1492q-41 0 -66.5 13.5t-45.5 26t-42 12.5q-35 0 -52.5 -13.5t-22.5 -22.5l-76 28q6 18 24.5 43t46.5 43.5t62 18.5q45 0 69.5 -12.5t44.5 -25.5t50 -13q34 0 48.5 13.5t19.5 24.5l73 -31q-3 -13 -20.5 -38
t-46 -46t-66.5 -21z" />
    <glyph glyph-name="itilde" unicode="&#x129;" horiz-adv-x="522" 
d="M26 0v75h100v897h-100v75h370v-972h100v-75h-470zM347 1143q-41 0 -66.5 13.5t-45.5 26.5t-42 13q-35 0 -52.5 -14t-22.5 -23l-76 29q6 18 24.5 42.5t46.5 43.5t62 19q45 0 69.5 -12.5t44.5 -25.5t50 -13q34 0 48.5 13.5t19.5 23.5l73 -31q-3 -13 -20.5 -37.5t-46 -46
t-66.5 -21.5z" />
    <glyph glyph-name="Imacron" unicode="&#x12a;" horiz-adv-x="587" 
d="M62 0v75h97v1250h-97v75h465v-75h-100v-1250h100v-75h-465zM-6 1544v75h603v-75h-603z" />
    <glyph glyph-name="imacron" unicode="&#x12b;" horiz-adv-x="522" 
d="M26 0v75h100v897h-100v75h370v-972h100v-75h-470zM16 1141v75h492v-75h-492z" />
    <glyph glyph-name="ibreve" unicode="&#x12d;" horiz-adv-x="522" 
d="M26 0v75h100v897h-100v75h370v-972h100v-75h-470zM259 1104q-64 0 -104 30t-58 76t-18 93h74q5 -63 34.5 -92.5t71.5 -29.5q43 0 72.5 29.5t33.5 92.5h75q0 -47 -18.5 -93t-58 -76t-104.5 -30z" />
    <glyph glyph-name="Iogonek" unicode="&#x12e;" horiz-adv-x="587" 
d="M62 0v75h97v1250h-97v75h465v-75h-100v-1250h100v-75h-465zM521 -308q-45 0 -83 14.5t-60.5 45.5t-22.5 79q0 55 25 93t58 62.5t58 38.5l31 -25q-23 -27 -41 -58.5t-18 -79.5q0 -41 29.5 -55.5t54.5 -14.5q26 0 49 7t39 17l37 -70q-25 -24 -66.5 -39t-89.5 -15z" />
    <glyph glyph-name="iogonek" unicode="&#x12f;" horiz-adv-x="581" 
d="M267 1154q-69 0 -119 50t-50 118q0 69 50 120t119 51q65 0 115 -51t50 -120q0 -45 -23 -83t-60.5 -61.5t-81.5 -23.5zM28 0v75h100v897h-100v75h370v-972h100v-75h-470zM492 -308q-45 0 -82.5 14.5t-60 45.5t-22.5 79q0 55 25 93t58 62.5t57 38.5l31 -25
q-22 -27 -40 -58.5t-18 -79.5q0 -41 29 -55.5t54 -14.5q26 0 49.5 7t39.5 17l36 -70q-25 -24 -66.5 -39t-89.5 -15z" />
    <glyph glyph-name="Idotaccent" unicode="&#x130;" horiz-adv-x="587" 
d="M62 0v75h97v1250h-97v75h465v-75h-100v-1250h100v-75h-465zM296 1502q-38 0 -65.5 28t-27.5 64q0 38 27.5 66t65.5 28q35 0 62.5 -28t27.5 -66q0 -36 -27.5 -64t-62.5 -28z" />
    <glyph glyph-name="dotlessi" unicode="&#x131;" horiz-adv-x="522" 
d="M26 0v75h100v897h-100v75h370v-972h100v-75h-470z" />
    <glyph glyph-name="jcircumflex" unicode="&#x135;" horiz-adv-x="564" 
d="M126 -498q-67 0 -117 36t-78 97t-28 136q0 72 33 108.5t81 36.5q44 0 68.5 -31.5t24.5 -88.5q0 -38 -11 -61.5t-22 -43t-11 -44.5q0 -18 4 -33.5t13.5 -25t26.5 -9.5q45 0 58.5 49t13.5 150v1194h-115v75h385v-1088q0 -139 -30.5 -229t-79.5 -139.5t-106 -69t-110 -19.5z
M126 1127l148 203h70l146 -203h-90l-92 130l-92 -130h-90z" />
    <glyph glyph-name="uni0136" unicode="&#x136;" horiz-adv-x="920" 
d="M31 0v75h93v1250h-93v75h461v-75h-101v-552l299 552h-90v75h259v-75h-82l-224 -415l25 73l243 -908h70v-75h-421v75h63l-177 676l35 -18v-658h64v-75h-424zM447 -369l-42 49q11 4 34 19.5t30 32.5q-3 -2 -12 -2q-35 0 -60 24.5t-25 60.5t25 60.5t60 24.5q39 0 67 -24.5
t28 -72.5t-19 -82t-43.5 -55.5t-42.5 -34.5z" />
    <glyph glyph-name="uni0137" unicode="&#x137;" horiz-adv-x="913" 
d="M25 0v75h103v1350h-103v75h373v-801l215 273h-103v75h313v-75h-115l-105 -143l237 -754h87v-75h-457v75h80l-156 511l4 -6v-505h63v-75h-436zM446 -369l-42 49q11 4 34 19.5t30 32.5q-3 -2 -12 -2q-35 0 -60 24.5t-25 60.5t25 60.5t60 24.5q39 0 67 -24.5t28 -72.5
t-19 -82t-43.5 -55.5t-42.5 -34.5z" />
    <glyph glyph-name="kgreenlandic" unicode="&#x138;" horiz-adv-x="920" 
d="M31 0v75h93v896h-93v75h461v-75h-101v-377l299 377h-90v75h259v-75h-82l-224 -291l25 55l243 -660h70v-75h-421v75h64l-178 487l35 -13v-474h64v-75h-424z" />
    <glyph glyph-name="Lacute" unicode="&#x139;" horiz-adv-x="719" 
d="M51 0v75h89v1250h-89v75h450v-75h-93v-1250h37q43 0 72.5 36.5t45 99t15.5 141.5h75v-352h-602zM169 1442l-57 60l190 144q15 11 29.5 18t27.5 7q18 0 32.5 -10t21.5 -23q8 -13 8 -29q0 -18 -13 -35t-41 -28z" />
    <glyph glyph-name="lacute" unicode="&#x13a;" horiz-adv-x="543" 
d="M30 0v75h107v1350h-107v75h377v-1425h107v-75h-484zM171 1540l-57 61l190 144q15 11 29.5 18t27.5 7q18 0 32.5 -10t21.5 -24q8 -13 8 -28q0 -19 -13 -36t-41 -28z" />
    <glyph glyph-name="uni013B" unicode="&#x13b;" horiz-adv-x="719" 
d="M51 0v75h89v1250h-89v75h450v-75h-93v-1250h37q43 0 72.5 36.5t45 99t15.5 141.5h75v-352h-602zM356 -369l-42 49q11 4 34 19.5t30 32.5q-3 -2 -12 -2q-35 0 -60 24.5t-25 60.5t25 60.5t60 24.5q39 0 67 -24.5t28 -72.5t-19 -82t-43.5 -55.5t-42.5 -34.5z" />
    <glyph glyph-name="uni013C" unicode="&#x13c;" horiz-adv-x="543" 
d="M30 0v75h107v1350h-107v75h377v-1425h107v-75h-484zM263 -369l-42 49q11 4 34 19.5t30 32.5q-3 -2 -12 -2q-35 0 -60 24.5t-25 60.5t25 60.5t60 24.5q39 0 67 -24.5t28 -72.5t-19 -82t-43.5 -55.5t-42.5 -34.5z" />
    <glyph glyph-name="Lcaron" unicode="&#x13d;" horiz-adv-x="747" 
d="M560 1168q12 48 14.5 109t2.5 114q0 61 28 80.5t57 19.5q28 0 54 -18t26 -71q0 -76 -35.5 -147.5t-76.5 -114.5zM51 0v75h89v1250h-89v75h450v-75h-93v-1250h37q43 0 72.5 36.5t45 99t15.5 141.5h75v-352h-602z" />
    <glyph glyph-name="lcaron" unicode="&#x13e;" horiz-adv-x="656" 
d="M468 1168q12 48 14.5 109t2.5 114q0 61 28 80.5t56 19.5q29 0 55 -18t26 -71q0 -76 -35.5 -147.5t-77.5 -114.5zM30 0v75h107v1350h-107v75h377v-1425h107v-75h-484z" />
    <glyph glyph-name="ldot" unicode="&#x140;" horiz-adv-x="630" 
d="M30 0v75h107v1350h-107v75h377v-1425h107v-75h-484zM612 655q-59 0 -101 43t-42 102q0 60 42 103t101 43q60 0 102 -43t42 -103q0 -59 -42 -102t-102 -43z" />
    <glyph glyph-name="Lslash" unicode="&#x141;" horiz-adv-x="766" 
d="M47 425v85l502 361v-84zM51 0v75h89v1250h-89v75h450v-75h-93v-1250h37q43 0 72.5 36.5t45 99t15.5 141.5h75v-352h-602z" />
    <glyph glyph-name="lslash" unicode="&#x142;" horiz-adv-x="576" 
d="M34 421v89l457 354v-84zM30 0v75h107v1350h-107v75h377v-1425h107v-75h-484z" />
    <glyph glyph-name="Nacute" unicode="&#x143;" horiz-adv-x="848" 
d="M28 0v75h93v1250h-93v75h391l250 -784h-15v709h-88v75h254v-75h-89v-1325h-157l-394 1245h18v-1170h90v-75h-260zM329 1442l-57 60l190 144q15 11 29.5 18t27.5 7q18 0 32.5 -10t21.5 -23q8 -13 8 -29q0 -18 -13 -35t-41 -28z" />
    <glyph glyph-name="nacute" unicode="&#x144;" horiz-adv-x="943" 
d="M32 0v75h106v897h-106v75h369v-100q3 12 24 39.5t61.5 51t99.5 23.5q66 0 119 -28t83.5 -100.5t30.5 -208.5v-649h105v-75h-443v75h68v648q0 102 -13 150.5t-46 48.5q-17 0 -31.5 -12t-25 -35.5t-17 -56.5t-8.5 -75v-668h65v-75h-441zM379 1087l-57 61l190 144
q15 11 29.5 18t27.5 7q18 0 32.5 -10t21.5 -24q8 -13 8 -28q0 -19 -13 -36t-41 -28z" />
    <glyph glyph-name="uni0145" unicode="&#x145;" horiz-adv-x="848" 
d="M28 0v75h93v1250h-93v75h391l250 -784h-15v709h-88v75h254v-75h-89v-1325h-157l-394 1245h18v-1170h90v-75h-260zM421 -369l-42 49q11 4 34 19.5t30 32.5q-3 -2 -12 -2q-35 0 -60 24.5t-25 60.5t25 60.5t60 24.5q39 0 67 -24.5t28 -72.5t-19 -82t-43.5 -55.5t-42.5 -34.5
z" />
    <glyph glyph-name="uni0146" unicode="&#x146;" horiz-adv-x="943" 
d="M32 0v75h106v897h-106v75h369v-100q3 12 24 39.5t61.5 51t99.5 23.5q66 0 119 -28t83.5 -100.5t30.5 -208.5v-649h105v-75h-443v75h68v648q0 102 -13 150.5t-46 48.5q-17 0 -31.5 -12t-25 -35.5t-17 -56.5t-8.5 -75v-668h65v-75h-441zM472 -369l-42 49q11 4 34 19.5
t30 32.5q-3 -2 -12 -2q-35 0 -60 24.5t-25 60.5t25 60.5t60 24.5q39 0 67 -24.5t28 -72.5t-19 -82t-43.5 -55.5t-42.5 -34.5z" />
    <glyph glyph-name="Ncaron" unicode="&#x147;" horiz-adv-x="848" 
d="M28 0v75h93v1250h-93v75h391l250 -784h-15v709h-88v75h254v-75h-89v-1325h-157l-394 1245h18v-1170h90v-75h-260zM398 1473l-172 226h99l107 -153l107 153h101l-172 -226h-70z" />
    <glyph glyph-name="ncaron" unicode="&#x148;" horiz-adv-x="943" 
d="M32 0v75h106v897h-106v75h369v-100q3 12 24 39.5t61.5 51t99.5 23.5q66 0 119 -28t83.5 -100.5t30.5 -208.5v-649h105v-75h-443v75h68v648q0 102 -13 150.5t-46 48.5q-17 0 -31.5 -12t-25 -35.5t-17 -56.5t-8.5 -75v-668h65v-75h-441zM448 1110l-172 226h99l107 -153
l107 153h101l-172 -226h-70z" />
    <glyph glyph-name="Eng" unicode="&#x14a;" horiz-adv-x="848" 
d="M560 -394q-53 0 -95 21.5t-66.5 66.5t-24.5 116q0 57 29 85.5t69 28.5q31 0 57 -19t26 -68q0 -40 -15 -59t-15 -47q0 -22 11.5 -36.5t32.5 -14.5q30 0 48 24.5t27 64.5t9 87v162h78v-172q0 -53 -11.5 -96.5t-34 -76t-54 -50t-71.5 -17.5zM28 0v75h93v1250h-93v75h391
l250 -784h-15v709h-88v75h254v-75h-89v-1325h-157l-394 1245h18v-1170h90v-75h-260z" />
    <glyph glyph-name="eng" unicode="&#x14b;" horiz-adv-x="919" 
d="M481 -429q-77 0 -126 64.5t-49 164.5q0 59 24 93.5t66 34.5q38 0 60 -33t22 -82q0 -32 -12 -52.5t-25 -35.5t-13 -31t6.5 -27t19 -17t31.5 -6q23 0 37 25.5t21 66.5t9 92t2 101v762q0 114 -15 163.5t-53 49.5q-20 0 -33 -14.5t-20 -39t-10.5 -54t-3.5 -59.5v-662h74v-75
h-442v75h98v897h-98v75h361v-93q7 13 28.5 36.5t57 43t83.5 19.5q82 0 135.5 -33t80.5 -108t27 -199v-787q0 -130 -49 -208t-127 -112.5t-167 -34.5z" />
    <glyph glyph-name="Omacron" unicode="&#x14c;" horiz-adv-x="874" 
d="M440 -22q-108 0 -192.5 84t-133 244.5t-48.5 391.5q0 232 48.5 393.5t133 246t192.5 84.5q109 0 195 -84.5t135 -246t49 -393.5q0 -231 -49 -391.5t-135 -244.5t-195 -84zM440 53q26 0 43.5 41t28.5 123t16 202.5t5 278.5t-5 279t-16 203.5t-28.5 124.5t-43.5 42t-43 -42
t-26.5 -124.5t-13.5 -203.5t-4 -279t4 -278.5t13.5 -202.5t26.5 -123t43 -41zM139 1544v75h603v-75h-603z" />
    <glyph glyph-name="omacron" unicode="&#x14d;" horiz-adv-x="823" 
d="M410 -22q-62 0 -124.5 33t-115 101t-84 171.5t-31.5 243.5q0 152 33 255t86 164.5t115 88t121 26.5q58 0 120.5 -26.5t116 -88t87 -164.5t33.5 -255q0 -140 -32 -243.5t-84.5 -171.5t-115.5 -101t-125 -33zM410 65q41 0 63 108.5t22 353.5t-22 347t-63 102
q-39 0 -61 -102t-22 -347t22 -353.5t61 -108.5zM164 1141v75h492v-75h-492z" />
    <glyph glyph-name="obreve" unicode="&#x14f;" horiz-adv-x="823" 
d="M410 -22q-62 0 -124.5 33t-115 101t-84 171.5t-31.5 243.5q0 152 33 255t86 164.5t115 88t121 26.5q58 0 120.5 -26.5t116 -88t87 -164.5t33.5 -255q0 -140 -32 -243.5t-84.5 -171.5t-115.5 -101t-125 -33zM410 65q41 0 63 108.5t22 353.5t-22 347t-63 102
q-39 0 -61 -102t-22 -347t22 -353.5t61 -108.5zM408 1104q-64 0 -104 30t-58 76t-18 93h74q5 -63 34.5 -92.5t71.5 -29.5q43 0 72.5 29.5t33.5 92.5h75q0 -47 -18.5 -93t-58 -76t-104.5 -30z" />
    <glyph glyph-name="Ohungarumlaut" unicode="&#x150;" horiz-adv-x="874" 
d="M440 -22q-108 0 -192.5 84t-133 244.5t-48.5 391.5q0 232 48.5 393.5t133 246t192.5 84.5q109 0 195 -84.5t135 -246t49 -393.5q0 -231 -49 -391.5t-135 -244.5t-195 -84zM440 53q26 0 43.5 41t28.5 123t16 202.5t5 278.5t-5 279t-16 203.5t-28.5 124.5t-43.5 42t-43 -42
t-26.5 -124.5t-13.5 -203.5t-4 -279t4 -278.5t13.5 -202.5t26.5 -123t43 -41zM320 1479l-55 56l129 151q14 16 26 24.5t25 8.5q20 0 35 -14.5t15 -35.5q0 -29 -33 -52zM512 1479l-54 56l126 151q14 17 27 25t26 8q20 0 34.5 -15t14.5 -35q0 -30 -31 -52z" />
    <glyph glyph-name="ohungarumlaut" unicode="&#x151;" horiz-adv-x="823" 
d="M410 -22q-62 0 -124.5 33t-115 101t-84 171.5t-31.5 243.5q0 152 33 255t86 164.5t115 88t121 26.5q58 0 120.5 -26.5t116 -88t87 -164.5t33.5 -255q0 -140 -32 -243.5t-84.5 -171.5t-115.5 -101t-125 -33zM410 65q41 0 63 108.5t22 353.5t-22 347t-63 102
q-39 0 -61 -102t-22 -347t22 -353.5t61 -108.5zM240 1115l-55 56l129 151q14 16 26 24.5t25 8.5q20 0 35 -14.5t15 -35.5q0 -29 -33 -52zM432 1115l-54 56l126 151q14 17 27 25t26 8q20 0 34.5 -15t14.5 -35q0 -30 -31 -52z" />
    <glyph glyph-name="OE" unicode="&#x152;" horiz-adv-x="1174" 
d="M435 -22q-109 0 -192.5 95t-130 257.5t-46.5 367.5q0 206 47 369.5t130 259t192 95.5q59 0 110.5 -26.5t87.5 -81.5l-62 -61q-13 52 -44 73t-50 21q-44 0 -71.5 -50t-43 -138.5t-21.5 -206.5t-6 -254t7 -253.5t23.5 -205.5t43 -137t67.5 -49q21 0 43.5 18.5t38.5 44.5
t18 47l66 -58q-38 -64 -90.5 -95.5t-116.5 -31.5zM535 0v1400h562v-349h-75q0 81 -7 143t-37.5 96.5t-103.5 34.5h-71v-567h214v93h75v-258h-75v90h-214v-608h70q73 0 104 35.5t38 98t7 143.5h75v-352h-562z" />
    <glyph glyph-name="oe" unicode="&#x153;" horiz-adv-x="1262" 
d="M410 -22q-62 0 -124.5 33t-115 101t-84 171.5t-31.5 243.5q0 152 33 255t86 164.5t115 88t121 26.5q58 0 120.5 -26.5t116 -88t87 -164.5t33.5 -255q0 -140 -32 -243.5t-84.5 -171.5t-115.5 -101t-125 -33zM410 65q41 0 63 108.5t22 353.5t-22 347t-63 102
q-39 0 -61 -102t-22 -347t22 -353.5t61 -108.5zM879 -20q-81 0 -149 33.5t-118 101.5t-77.5 170.5t-27.5 241.5q0 145 34 247t90 165.5t119.5 92.5t121.5 29q70 0 131 -33t106.5 -94t71.5 -146.5t26 -191.5q0 -20 -0.5 -40.5t-2.5 -40.5h-441v74h188q0 156 -9.5 241.5
t-27 120t-42.5 34.5t-46.5 -35.5t-35 -128.5t-13.5 -267q0 -130 7.5 -223t24 -151.5t42 -86t63.5 -27.5q75 0 120 37t64 76l63 -48q-25 -55 -101.5 -103t-180.5 -48z" />
    <glyph glyph-name="Racute" unicode="&#x154;" horiz-adv-x="963" 
d="M783 -18q-100 0 -146 43.5t-59 121.5t-13 179q0 53 2 101t2 78q0 73 -10 110.5t-34 52.5t-65 15h-39v-608h103v-75h-477v75h108v1250h-108v75h475q90 0 163.5 -33.5t117.5 -105t44 -186.5q0 -86 -27.5 -149.5t-71.5 -106t-95 -66.5t-98 -31q113 -5 174.5 -38t85.5 -102.5
t24 -185.5q0 -54 -3 -105.5t-3 -95.5q0 -27 2 -55t9 -47t20 -19t18.5 10t5.5 23h70q-6 -44 -27.5 -71.5t-58.5 -40.5t-89 -13zM421 758h43q37 0 61 41.5t37 113t13 158.5q0 83 -13 139.5t-37.5 85.5t-59.5 29h-44v-567zM382 1442l-57 60l190 144q15 11 29.5 18t27.5 7
q18 0 32.5 -10t21.5 -23q8 -13 8 -29q0 -18 -13 -35t-41 -28z" />
    <glyph glyph-name="racute" unicode="&#x155;" horiz-adv-x="752" 
d="M26 0v75h107v897h-107v75h351l16 -88q6 16 26 40.5t53 43t73 18.5q61 0 100.5 -38t59 -102.5t19.5 -141.5q0 -71 -28.5 -108.5t-76.5 -37.5q-45 0 -72.5 32t-27.5 88q0 38 15.5 60t31 42.5t15.5 53.5q0 35 -12.5 51t-42.5 16q-27 0 -56 -28.5t-48 -86t-19 -144.5v-642
h105v-75h-482zM353 1087l-57 61l190 144q15 11 29.5 18t27.5 7q18 0 32.5 -10t21.5 -24q8 -13 8 -28q0 -19 -13 -36t-41 -28z" />
    <glyph glyph-name="uni0156" unicode="&#x156;" horiz-adv-x="963" 
d="M783 -18q-100 0 -146 43.5t-59 121.5t-13 179q0 53 2 101t2 78q0 73 -10 110.5t-34 52.5t-65 15h-39v-608h103v-75h-477v75h108v1250h-108v75h475q90 0 163.5 -33.5t117.5 -105t44 -186.5q0 -86 -27.5 -149.5t-71.5 -106t-95 -66.5t-98 -31q113 -5 174.5 -38t85.5 -102.5
t24 -185.5q0 -54 -3 -105.5t-3 -95.5q0 -27 2 -55t9 -47t20 -19t18.5 10t5.5 23h70q-6 -44 -27.5 -71.5t-58.5 -40.5t-89 -13zM421 758h43q37 0 61 41.5t37 113t13 158.5q0 83 -13 139.5t-37.5 85.5t-59.5 29h-44v-567zM474 -369l-42 49q11 4 34 19.5t30 32.5q-3 -2 -12 -2
q-35 0 -60 24.5t-25 60.5t25 60.5t60 24.5q39 0 67 -24.5t28 -72.5t-19 -82t-43.5 -55.5t-42.5 -34.5z" />
    <glyph glyph-name="uni0157" unicode="&#x157;" horiz-adv-x="752" 
d="M26 0v75h107v897h-107v75h351l16 -88q6 16 26 40.5t53 43t73 18.5q61 0 100.5 -38t59 -102.5t19.5 -141.5q0 -71 -28.5 -108.5t-76.5 -37.5q-45 0 -72.5 32t-27.5 88q0 38 15.5 60t31 42.5t15.5 53.5q0 35 -12.5 51t-42.5 16q-27 0 -56 -28.5t-48 -86t-19 -144.5v-642
h105v-75h-482zM290 -369l-42 49q11 4 34 19.5t30 32.5q-3 -2 -12 -2q-35 0 -60 24.5t-25 60.5t25 60.5t60 24.5q39 0 67 -24.5t28 -72.5t-19 -82t-43.5 -55.5t-42.5 -34.5z" />
    <glyph glyph-name="Rcaron" unicode="&#x158;" horiz-adv-x="963" 
d="M783 -18q-100 0 -146 43.5t-59 121.5t-13 179q0 53 2 101t2 78q0 73 -10 110.5t-34 52.5t-65 15h-39v-608h103v-75h-477v75h108v1250h-108v75h475q90 0 163.5 -33.5t117.5 -105t44 -186.5q0 -86 -27.5 -149.5t-71.5 -106t-95 -66.5t-98 -31q113 -5 174.5 -38t85.5 -102.5
t24 -185.5q0 -54 -3 -105.5t-3 -95.5q0 -27 2 -55t9 -47t20 -19t18.5 10t5.5 23h70q-6 -44 -27.5 -71.5t-58.5 -40.5t-89 -13zM421 758h43q37 0 61 41.5t37 113t13 158.5q0 83 -13 139.5t-37.5 85.5t-59.5 29h-44v-567zM451 1473l-172 226h99l107 -153l107 153h101
l-172 -226h-70z" />
    <glyph glyph-name="rcaron" unicode="&#x159;" horiz-adv-x="752" 
d="M26 0v75h107v897h-107v75h351l16 -88q6 16 26 40.5t53 43t73 18.5q61 0 100.5 -38t59 -102.5t19.5 -141.5q0 -71 -28.5 -108.5t-76.5 -37.5q-45 0 -72.5 32t-27.5 88q0 38 15.5 60t31 42.5t15.5 53.5q0 35 -12.5 51t-42.5 16q-27 0 -56 -28.5t-48 -86t-19 -144.5v-642
h105v-75h-482zM422 1110l-172 226h99l107 -153l107 153h101l-172 -226h-70z" />
    <glyph glyph-name="Sacute" unicode="&#x15a;" horiz-adv-x="706" 
d="M366 -27q-57 0 -91 12.5t-54 30t-33 30t-28 12.5q-29 0 -29 -58h-72v355h75q1 -20 10.5 -56.5t28 -78.5t45.5 -80.5t63.5 -63.5t82.5 -25q38 0 61 14.5t33.5 45t10.5 75.5q0 59 -26.5 118t-74 126t-111.5 148q-79 100 -122 184.5t-59.5 160.5t-16.5 153q0 115 39.5 191.5
t101.5 115.5t131 39q62 0 94.5 -19t50.5 -38t36 -19q14 0 21 11t7 43h73v-352h-75q-2 29 -15 78t-37.5 99.5t-62 85t-88.5 34.5t-78 -37t-27 -103q0 -51 26.5 -110.5t76 -127.5t116.5 -145q72 -80 116 -155.5t65 -155t21 -169.5q0 -111 -26.5 -183t-68.5 -112t-92 -57
t-98 -17zM257 1442l-57 60l190 144q15 11 29.5 18t27.5 7q18 0 32.5 -10t21.5 -23q8 -13 8 -29q0 -18 -13 -35t-41 -28z" />
    <glyph glyph-name="sacute" unicode="&#x15b;" horiz-adv-x="631" 
d="M321 -22q-59 0 -91 15t-49 30t-34 15q-15 0 -20.5 -9.5t-5.5 -28.5h-70v337h83q6 -51 21.5 -101.5t39.5 -91.5t55.5 -66t68.5 -25q31 0 50.5 11t28.5 31.5t9 48.5q0 40 -19.5 80t-54.5 83.5t-82 90.5q-83 85 -141 174t-58 218q0 97 38 156.5t98 87t125 27.5
q46 0 73.5 -12.5t44.5 -25t29 -12.5q10 0 15.5 7.5t6.5 28.5h71v-328h-82q-4 42 -15 88.5t-30 86.5t-46 65.5t-62 25.5q-48 0 -71 -35.5t-23 -80.5q0 -54 41.5 -105.5t113.5 -118.5q51 -48 97.5 -104.5t75.5 -127t29 -160.5q0 -100 -33 -160.5t-92 -87.5t-135 -27zM229 1087
l-57 61l190 144q15 11 29.5 18t27.5 7q18 0 32.5 -10t21.5 -24q8 -13 8 -28q0 -19 -13 -36t-41 -28z" />
    <glyph glyph-name="scircumflex" unicode="&#x15d;" horiz-adv-x="631" 
d="M321 -22q-59 0 -91 15t-49 30t-34 15q-15 0 -20.5 -9.5t-5.5 -28.5h-70v337h83q6 -51 21.5 -101.5t39.5 -91.5t55.5 -66t68.5 -25q31 0 50.5 11t28.5 31.5t9 48.5q0 40 -19.5 80t-54.5 83.5t-82 90.5q-83 85 -141 174t-58 218q0 97 38 156.5t98 87t125 27.5
q46 0 73.5 -12.5t44.5 -25t29 -12.5q10 0 15.5 7.5t6.5 28.5h71v-328h-82q-4 42 -15 88.5t-30 86.5t-46 65.5t-62 25.5q-48 0 -71 -35.5t-23 -80.5q0 -54 41.5 -105.5t113.5 -118.5q51 -48 97.5 -104.5t75.5 -127t29 -160.5q0 -100 -33 -160.5t-92 -87.5t-135 -27zM149 1128
l148 203h70l146 -203h-90l-92 130l-92 -130h-90z" />
    <glyph glyph-name="Scedilla" unicode="&#x15e;" horiz-adv-x="706" 
d="M366 -27q-57 0 -91 12.5t-54 30t-33 30t-28 12.5q-29 0 -29 -58h-72v355h75q1 -20 10.5 -56.5t28 -78.5t45.5 -80.5t63.5 -63.5t82.5 -25q38 0 61 14.5t33.5 45t10.5 75.5q0 59 -26.5 118t-74 126t-111.5 148q-79 100 -122 184.5t-59.5 160.5t-16.5 153q0 115 39.5 191.5
t101.5 115.5t131 39q62 0 94.5 -19t50.5 -38t36 -19q14 0 21 11t7 43h73v-352h-75q-2 29 -15 78t-37.5 99.5t-62 85t-88.5 34.5t-78 -37t-27 -103q0 -51 26.5 -110.5t76 -127.5t116.5 -145q72 -80 116 -155.5t65 -155t21 -169.5q0 -111 -26.5 -183t-68.5 -112t-92 -57
t-98 -17zM376 -329q-48 0 -93 11.5t-60 19.5l29 71q10 -7 44.5 -18.5t68.5 -11.5q31 0 52 16.5t21 45.5q0 32 -13.5 42.5t-33.5 10.5q-15 0 -29 -6.5t-25 -19.5l-70 4l60 164h75l-42 -108q5 6 30 16t60 10q40 0 75 -25.5t35 -88.5q0 -42 -23 -72t-64.5 -45.5t-96.5 -15.5z
" />
    <glyph glyph-name="scedilla" unicode="&#x15f;" horiz-adv-x="631" 
d="M321 -22q-59 0 -91 15t-49 30t-34 15q-15 0 -20.5 -9.5t-5.5 -28.5h-70v337h75q6 -51 20.5 -101.5t38 -91.5t57 -66t77.5 -25q31 0 50.5 11t28.5 31.5t9 48.5q0 40 -19.5 80t-54.5 83.5t-82 90.5q-83 85 -141 174t-58 218q0 84 38 145t98 93.5t125 32.5q46 0 73.5 -12.5
t44.5 -25t29 -12.5q10 0 15.5 7.5t6.5 28.5h71v-328h-74q-3 42 -13.5 88.5t-29.5 86.5t-48 65.5t-70 25.5q-48 0 -71 -35.5t-23 -80.5q0 -54 41.5 -105.5t113.5 -118.5q51 -48 97.5 -104.5t75.5 -127t29 -160.5q0 -132 -73 -203.5t-187 -71.5zM342 -329q-48 0 -93 11.5
t-60 19.5l29 71q11 -6 45.5 -17.5t67.5 -11.5q31 0 52 16t21 45q0 32 -13 42.5t-33 10.5q-16 0 -30 -6t-24 -20l-71 4l60 164h75l-42 -108q5 6 30 16t61 10q40 0 75 -25.5t35 -88.5q0 -42 -23 -72t-64.5 -45.5t-97.5 -15.5z" />
    <glyph glyph-name="Scaron" unicode="&#x160;" horiz-adv-x="706" 
d="M366 -27q-57 0 -91 12.5t-54 30t-33 30t-28 12.5q-29 0 -29 -58h-72v355h75q1 -20 10.5 -56.5t28 -78.5t45.5 -80.5t63.5 -63.5t82.5 -25q38 0 61 14.5t33.5 45t10.5 75.5q0 59 -26.5 118t-74 126t-111.5 148q-79 100 -122 184.5t-59.5 160.5t-16.5 153q0 115 39.5 191.5
t101.5 115.5t131 39q62 0 94.5 -19t50.5 -38t36 -19q14 0 21 11t7 43h73v-352h-75q-2 29 -15 78t-37.5 99.5t-62 85t-88.5 34.5t-78 -37t-27 -103q0 -51 26.5 -110.5t76 -127.5t116.5 -145q72 -80 116 -155.5t65 -155t21 -169.5q0 -111 -26.5 -183t-68.5 -112t-92 -57
t-98 -17zM326 1473l-172 226h99l107 -153l107 153h101l-172 -226h-70z" />
    <glyph glyph-name="scaron" unicode="&#x161;" horiz-adv-x="631" 
d="M321 -22q-59 0 -91 15t-49 30t-34 15q-15 0 -20.5 -9.5t-5.5 -28.5h-70v337h83q6 -51 21.5 -101.5t39.5 -91.5t55.5 -66t68.5 -25q31 0 50.5 11t28.5 31.5t9 48.5q0 40 -19.5 80t-54.5 83.5t-82 90.5q-83 85 -141 174t-58 218q0 97 38 156.5t98 87t125 27.5
q46 0 73.5 -12.5t44.5 -25t29 -12.5q10 0 15.5 7.5t6.5 28.5h71v-328h-82q-4 42 -15 88.5t-30 86.5t-46 65.5t-62 25.5q-48 0 -71 -35.5t-23 -80.5q0 -54 41.5 -105.5t113.5 -118.5q51 -48 97.5 -104.5t75.5 -127t29 -160.5q0 -100 -33 -160.5t-92 -87.5t-135 -27zM298 1110
l-172 226h99l107 -153l107 153h101l-172 -226h-70z" />
    <glyph glyph-name="uni0162" unicode="&#x162;" horiz-adv-x="836" 
d="M167 0v75h117v1250h-16q-65 0 -98 -29.5t-45 -90t-12 -154.5h-75v349h760v-349h-75q0 94 -11.5 154.5t-44.5 90t-99 29.5h-15v-1250h120v-75h-506zM430 -329q-48 0 -93 11.5t-60 19.5l29 72q11 -7 45.5 -18.5t67.5 -11.5q31 0 52 16.5t21 44.5q0 32 -13 42.5t-33 10.5
q-16 0 -30 -6t-24 -20l-71 4l60 164h75l-42 -108q5 6 30 16t61 10q40 0 75 -25t35 -89q0 -42 -23 -72t-64.5 -45.5t-97.5 -15.5z" />
    <glyph glyph-name="uni0163" unicode="&#x163;" horiz-adv-x="596" 
d="M407 -18q-68 0 -128.5 21.5t-98 80.5t-37.5 169v719h-145v75h145q51 5 91 49t65.5 111.5t33.5 143.5h80v-304h166v-75h-166v-835q0 -41 19.5 -56t38.5 -15q18 0 34 7t23 15l42 -60q-28 -21 -67.5 -33.5t-95.5 -12.5zM386 -311q-48 0 -93 11.5t-60 19.5l29 72
q11 -7 45.5 -18.5t67.5 -11.5q31 0 52 16.5t21 44.5q0 32 -13 42.5t-33 10.5q-16 0 -30 -6t-24 -20l-70 4l59 164h75l-42 -108q5 6 30 16t61 10q40 0 75 -25t35 -89q0 -42 -23 -72t-64.5 -45.5t-97.5 -15.5z" />
    <glyph glyph-name="Tcaron" unicode="&#x164;" horiz-adv-x="836" 
d="M167 0v75h117v1250h-16q-65 0 -98 -29.5t-45 -90t-12 -154.5h-75v349h760v-349h-75q0 94 -11.5 154.5t-44.5 90t-99 29.5h-15v-1250h120v-75h-506zM384 1476l-172 226h99l107 -153l107 153h101l-172 -226h-70z" />
    <glyph glyph-name="tcaron" unicode="&#x165;" horiz-adv-x="701" 
d="M520 1168q12 48 14.5 109t2.5 114q0 61 28 80.5t56 19.5q29 0 55 -18t26 -71q0 -76 -35.5 -147.5t-76.5 -114.5zM407 -18q-68 0 -128.5 21.5t-98 80.5t-37.5 169v719h-145v75h145q51 5 91 49t65.5 111.5t33.5 143.5h80v-304h166v-75h-166v-835q0 -41 19.5 -56t38.5 -15
q18 0 34 7t23 15l42 -60q-28 -21 -67.5 -33.5t-95.5 -12.5z" />
    <glyph glyph-name="Tbar" unicode="&#x166;" horiz-adv-x="836" 
d="M111 665v75h607v-75h-607zM167 0v75h117v1250h-16q-65 0 -98 -29.5t-45 -90t-12 -154.5h-75v349h760v-349h-75q0 94 -11.5 154.5t-44.5 90t-99 29.5h-15v-1250h120v-75h-506z" />
    <glyph glyph-name="tbar" unicode="&#x167;" horiz-adv-x="596" 
d="M27 618v58h529v-58h-529zM407 -18q-68 0 -128.5 21.5t-98 80.5t-37.5 169v719h-145v75h145q51 5 91 49t65.5 111.5t33.5 143.5h80v-304h166v-75h-166v-835q0 -41 19.5 -56t38.5 -15q18 0 34 7t23 15l42 -60q-28 -21 -67.5 -33.5t-95.5 -12.5z" />
    <glyph glyph-name="Utilde" unicode="&#x168;" horiz-adv-x="843" 
d="M451 -24q-51 0 -106.5 14t-103.5 53t-77.5 112t-29.5 191v979h-99v75h483v-75h-110v-991q0 -137 27.5 -200.5t87.5 -63.5q22 0 42.5 10.5t37 36t26 71t9.5 115.5v1022h-88v75h259v-75h-94v-1028q0 -123 -31.5 -193.5t-90.5 -99t-142 -28.5zM527 1492q-41 0 -66.5 13.5
t-45.5 26t-42 12.5q-35 0 -52.5 -13.5t-22.5 -22.5l-76 28q6 18 24.5 43t46.5 43.5t62 18.5q45 0 69.5 -12.5t44.5 -25.5t50 -13q34 0 48.5 13.5t19.5 24.5l73 -31q-3 -13 -20.5 -38t-46 -46t-66.5 -21z" />
    <glyph glyph-name="utilde" unicode="&#x169;" horiz-adv-x="916" 
d="M368 -22q-69 0 -125.5 26t-90 97.5t-33.5 208.5v662h-100v74h370v-705q0 -98 5.5 -150.5t19.5 -71.5t39 -19t45 26t31 77.5t11 129.5v639h-87v74h357v-971h86v-75h-323l-16 97q-5 -22 -29 -50t-64.5 -48.5t-95.5 -20.5zM557 1143q-41 0 -66.5 13.5t-45.5 26.5t-42 13
q-35 0 -52.5 -14t-22.5 -23l-76 29q6 18 24.5 42.5t46.5 43.5t62 19q45 0 69.5 -12.5t44.5 -25.5t50 -13q34 0 48.5 13.5t19.5 23.5l73 -31q-3 -13 -20.5 -37.5t-46 -46t-66.5 -21.5z" />
    <glyph glyph-name="Umacron" unicode="&#x16a;" horiz-adv-x="843" 
d="M451 -24q-51 0 -106.5 14t-103.5 53t-77.5 112t-29.5 191v979h-99v75h483v-75h-110v-991q0 -137 27.5 -200.5t87.5 -63.5q22 0 42.5 10.5t37 36t26 71t9.5 115.5v1022h-88v75h259v-75h-94v-1028q0 -123 -31.5 -193.5t-90.5 -99t-142 -28.5zM139 1544v75h603v-75h-603z
" />
    <glyph glyph-name="umacron" unicode="&#x16b;" horiz-adv-x="916" 
d="M368 -22q-69 0 -125.5 26t-90 97.5t-33.5 208.5v662h-100v74h370v-705q0 -98 5.5 -150.5t19.5 -71.5t39 -19t45 26t31 77.5t11 129.5v639h-87v74h357v-971h86v-75h-323l-16 97q-5 -22 -29 -50t-64.5 -48.5t-95.5 -20.5zM225 1141v75h492v-75h-492z" />
    <glyph glyph-name="ubreve" unicode="&#x16d;" horiz-adv-x="916" 
d="M368 -22q-69 0 -125.5 26t-90 97.5t-33.5 208.5v662h-100v74h370v-705q0 -98 5.5 -150.5t19.5 -71.5t39 -19t45 26t31 77.5t11 129.5v639h-87v74h357v-971h86v-75h-323l-16 97q-5 -22 -29 -50t-64.5 -48.5t-95.5 -20.5zM469 1104q-64 0 -104 30t-58 76t-18 93h74
q5 -63 34.5 -92.5t71.5 -29.5q43 0 72.5 29.5t33.5 92.5h75q0 -47 -18.5 -93t-58 -76t-104.5 -30z" />
    <glyph glyph-name="Uring" unicode="&#x16e;" horiz-adv-x="843" 
d="M451 -24q-51 0 -106.5 14t-103.5 53t-77.5 112t-29.5 191v979h-99v75h483v-75h-110v-991q0 -137 27.5 -200.5t87.5 -63.5q22 0 42.5 10.5t37 36t26 71t9.5 115.5v1022h-88v75h259v-75h-94v-1028q0 -123 -31.5 -193.5t-90.5 -99t-142 -28.5zM441 1468q-44 0 -78 32.5
t-34 85.5q0 55 34 86.5t78 31.5q42 0 75.5 -31.5t33.5 -86.5q0 -53 -33.5 -85.5t-75.5 -32.5zM441 1529q23 0 33.5 18t10.5 41q0 18 -10.5 36t-33.5 18q-25 0 -35.5 -18t-10.5 -36q0 -23 10.5 -41t35.5 -18z" />
    <glyph glyph-name="uring" unicode="&#x16f;" horiz-adv-x="916" 
d="M368 -22q-69 0 -125.5 26t-90 97.5t-33.5 208.5v662h-100v74h370v-705q0 -98 5.5 -150.5t19.5 -71.5t39 -19t45 26t31 77.5t11 129.5v639h-87v74h357v-971h86v-75h-323l-16 97q-5 -22 -29 -50t-64.5 -48.5t-95.5 -20.5zM471 1099q-44 0 -78 32.5t-34 85.5q0 55 34 86.5
t78 31.5q42 0 75.5 -31.5t33.5 -86.5q0 -53 -33.5 -85.5t-75.5 -32.5zM471 1160q23 0 33.5 18t10.5 41q0 18 -10.5 36t-33.5 18q-25 0 -35.5 -18t-10.5 -36q0 -23 10.5 -41t35.5 -18z" />
    <glyph glyph-name="Uhungarumlaut" unicode="&#x170;" horiz-adv-x="843" 
d="M451 -24q-51 0 -106.5 14t-103.5 53t-77.5 112t-29.5 191v979h-99v75h483v-75h-110v-991q0 -137 27.5 -200.5t87.5 -63.5q22 0 42.5 10.5t37 36t26 71t9.5 115.5v1022h-88v75h259v-75h-94v-1028q0 -123 -31.5 -193.5t-90.5 -99t-142 -28.5zM320 1479l-55 56l129 151
q14 16 26 24.5t25 8.5q20 0 35 -14.5t15 -35.5q0 -29 -33 -52zM512 1479l-54 56l126 151q14 17 27 25t26 8q20 0 34.5 -15t14.5 -35q0 -30 -31 -52z" />
    <glyph glyph-name="uhungarumlaut" unicode="&#x171;" horiz-adv-x="916" 
d="M368 -22q-69 0 -125.5 26t-90 97.5t-33.5 208.5v662h-100v74h370v-705q0 -98 5.5 -150.5t19.5 -71.5t39 -19t45 26t31 77.5t11 129.5v639h-87v74h357v-971h86v-75h-323l-16 97q-5 -22 -29 -50t-64.5 -48.5t-95.5 -20.5zM301 1115l-55 56l129 151q14 16 26 24.5t25 8.5
q20 0 35 -14.5t15 -35.5q0 -29 -33 -52zM493 1115l-54 56l126 151q14 17 27 25t26 8q20 0 34.5 -15t14.5 -35q0 -30 -31 -52z" />
    <glyph glyph-name="Uogonek" unicode="&#x172;" horiz-adv-x="843" 
d="M451 -24q-51 0 -106.5 14t-103.5 53t-77.5 112t-29.5 191v979h-99v75h483v-75h-110v-991q0 -137 27.5 -200.5t87.5 -63.5q22 0 42.5 10.5t37 36t26 71t9.5 115.5v1022h-88v75h259v-75h-94v-1028q0 -123 -31.5 -193.5t-90.5 -99t-142 -28.5zM608 -290q-45 0 -83 14.5
t-60.5 45.5t-22.5 79q0 55 25 93t58 63t58 38l30 -25q-22 -27 -40 -58.5t-18 -79.5q0 -41 29 -55.5t55 -14.5q25 0 48.5 7t39.5 17l37 -70q-26 -24 -67 -39t-89 -15z" />
    <glyph glyph-name="uogonek" unicode="&#x173;" horiz-adv-x="916" 
d="M368 -22q-69 0 -125.5 26t-90 97.5t-33.5 208.5v662h-100v74h370v-705q0 -98 5.5 -150.5t19.5 -71.5t39 -19t45 26t31 77.5t11 129.5v639h-87v74h357v-971h86v-75h-323l-16 97q-5 -22 -29 -50t-64.5 -48.5t-95.5 -20.5zM891 -308q-46 0 -83.5 14.5t-60 45.5t-22.5 79
q0 55 25 93t58 62.5t57 38.5l31 -25q-22 -27 -40 -58.5t-18 -79.5q0 -41 29 -55.5t54 -14.5q26 0 49.5 7t39.5 17l37 -70q-26 -24 -67.5 -39t-88.5 -15z" />
    <glyph glyph-name="Wcircumflex" unicode="&#x174;" horiz-adv-x="1212" 
d="M338 0l-235 1325h-100v75h477v-75h-60l90 -670l-37 -92l128 692l24 -170l-51 240h-72v75h446v-75h-74l87 -650l-27 -92l121 742h-79v75h242v-75h-81l-225 -1325h-98l-188 1072l40 79l-230 -1151h-98zM461 1466l148 203h70l146 -203h-90l-92 130l-92 -130h-90z" />
    <glyph glyph-name="wcircumflex" unicode="&#x175;" horiz-adv-x="1162" 
d="M744 -1l-198 973h-69v75h423v-75h-72l71 -450l90 450h-58v75h220v-75h-75l-198 -973h-134zM288 -1l-197 973h-77v75h435v-75h-68l64 -450l88 450h-24v75h186v-75h-73l-200 -973h-134zM423 1128l148 203h70l146 -203h-90l-92 130l-92 -130h-90z" />
    <glyph glyph-name="Ycircumflex" unicode="&#x176;" horiz-adv-x="861" 
d="M194 0v75h108v512l-188 738h-98v75h478v-75h-77l152 -664h-68l170 664h-85v75h260v-75h-95l-179 -691v-559h110v-75h-488zM248 1466l148 203h70l146 -203h-90l-92 130l-92 -130h-90z" />
    <glyph glyph-name="ycircumflex" unicode="&#x177;" horiz-adv-x="750" 
d="M230 -502q-51 0 -88 36.5t-56 98.5t-19 138q0 71 29 107.5t76 36.5q46 0 74 -32t28 -90q0 -45 -18 -72.5t-35.5 -50.5t-17.5 -56q0 -24 10 -39t29 -15q11 0 18.5 6.5t13.5 21.5t12 42l78 353l-272 989h-84v75h450v-75h-79l116 -440l100 440h-74v75h230v-75h-71l-234 -979
l-87 -380q-8 -34 -23.5 -60.5t-40.5 -40.5t-65 -14zM199 1127l148 203h70l146 -203h-90l-92 130l-92 -130h-90z" />
    <glyph glyph-name="Ydieresis" unicode="&#x178;" horiz-adv-x="861" 
d="M194 0v75h108v512l-188 738h-98v75h478v-75h-77l152 -664h-68l170 664h-85v75h260v-75h-95l-179 -691v-559h110v-75h-488zM555 1502q-38 0 -65.5 28t-27.5 64q0 39 27.5 67.5t65.5 28.5q36 0 64 -28.5t28 -67.5q0 -36 -28 -64t-64 -28zM303 1502q-36 0 -63 28t-27 64
q0 39 27 67.5t63 28.5q39 0 66 -28.5t27 -67.5q0 -36 -27 -64t-66 -28z" />
    <glyph glyph-name="Zacute" unicode="&#x179;" horiz-adv-x="768" 
d="M60 0v75l333 1250h-47q-78 0 -118.5 -34.5t-55 -96.5t-14.5 -143h-74v349h600v-75l-333 -1250h56q71 0 121.5 35.5t78 98t27.5 143.5h75v-352h-649zM289 1442l-57 60l190 144q15 11 29.5 18t27.5 7q18 0 32.5 -10t21.5 -23q8 -13 8 -29q0 -18 -13 -35t-41 -28z" />
    <glyph glyph-name="zacute" unicode="&#x17a;" horiz-adv-x="705" 
d="M78 0v75l274 897h-90q-51 0 -73.5 -23t-28 -78.5t-5.5 -151.5h-73v328h548v-75l-274 -897h90q51 0 73 24t27 81t5 157h75v-337h-548zM250 1087l-57 61l190 144q15 11 29.5 18t27.5 7q18 0 32.5 -10t21.5 -24q8 -13 8 -28q0 -19 -13 -36t-41 -28z" />
    <glyph glyph-name="Zdotaccent" unicode="&#x17b;" horiz-adv-x="768" 
d="M60 0v75l333 1250h-47q-78 0 -118.5 -34.5t-55 -96.5t-14.5 -143h-74v349h600v-75l-333 -1250h56q71 0 121.5 35.5t78 98t27.5 143.5h75v-352h-649zM392 1502q-38 0 -65.5 28t-27.5 64q0 38 27.5 66t65.5 28q35 0 62.5 -28t27.5 -66q0 -36 -27.5 -64t-62.5 -28z" />
    <glyph glyph-name="zdotaccent" unicode="&#x17c;" horiz-adv-x="705" 
d="M78 0v75l274 897h-90q-51 0 -73.5 -23t-28 -78.5t-5.5 -151.5h-73v328h548v-75l-274 -897h90q51 0 73 24t27 81t5 157h75v-337h-548zM354 1140q-38 0 -65.5 27.5t-27.5 64.5q0 38 27.5 66t65.5 28q35 0 62.5 -28t27.5 -66q0 -37 -27.5 -64.5t-62.5 -27.5z" />
    <glyph glyph-name="Zcaron" unicode="&#x17d;" horiz-adv-x="768" 
d="M60 0v75l333 1250h-47q-78 0 -118.5 -34.5t-55 -96.5t-14.5 -143h-74v349h600v-75l-333 -1250h56q71 0 121.5 35.5t78 98t27.5 143.5h75v-352h-649zM357 1473l-172 226h99l107 -153l107 153h101l-172 -226h-70z" />
    <glyph glyph-name="zcaron" unicode="&#x17e;" horiz-adv-x="705" 
d="M78 0v75l274 897h-90q-51 0 -73.5 -23t-28 -78.5t-5.5 -151.5h-73v328h548v-75l-274 -897h90q51 0 73 24t27 81t5 157h75v-337h-548zM319 1110l-172 226h99l107 -153l107 153h101l-172 -226h-70z" />
    <glyph glyph-name="uni018F" unicode="&#x18f;" horiz-adv-x="921" 
d="M455 -25q-84 0 -154.5 44t-123 132.5t-81.5 220.5t-29 308q0 27 1.5 54.5t2.5 55.5h523v-75h-239q0 -231 11 -378t33 -217t56 -70t61 63.5t43 205.5t16 376q0 177 -5.5 300.5t-21 200.5t-46.5 112.5t-81 35.5q-63 0 -112 -28t-82 -68t-51 -75l-78 54q23 46 72.5 92.5
t120 77.5t155.5 31q99 0 177 -45.5t132 -137.5t82.5 -231t28.5 -327q0 -195 -38.5 -331.5t-100 -220.5t-133.5 -122t-139 -38zM71 1173v227h76q0 -36 4 -68t21 -32l4 -127h-105z" />
    <glyph glyph-name="florin" unicode="&#x192;" horiz-adv-x="736" 
d="M62 -420q-56 0 -99.5 21t-67.5 59.5t-24 91.5q0 47 20.5 76t59.5 29t59 -18t20 -54q0 -26 -10 -41t-21 -26t-11 -30q0 -17 7.5 -26t23.5 -9q24 0 40 27.5t27 75t18 109.5t11 130l58 977h-103v75h108l4 60q11 158 57 245.5t113.5 123t141.5 35.5q61 0 110 -34.5t77.5 -95
t28.5 -136.5q0 -70 -29 -110.5t-76 -40.5q-46 0 -75.5 38t-29.5 96q0 38 17.5 65t35.5 48.5t18 40.5q0 24 -13.5 36.5t-42.5 12.5q-41 0 -63.5 -50.5t-32.5 -129t-15 -162.5l-2 -42h108v-75h-114l-59 -940q-4 -52 -10.5 -113.5t-22 -121.5t-45 -109t-77.5 -78.5t-120 -29.5z
" />
    <glyph glyph-name="Ohorn" unicode="&#x1a0;" horiz-adv-x="874" 
d="M440 -22q-108 0 -192.5 84t-133 244.5t-48.5 391.5q0 232 48.5 393.5t133 246t192.5 84.5q109 0 195 -84.5t135 -246t49 -393.5q0 -231 -49 -391.5t-135 -244.5t-195 -84zM440 53q26 0 43.5 41t28.5 123t16 202.5t5 278.5t-5 279t-16 203.5t-28.5 124.5t-43.5 42t-43 -42
t-26.5 -124.5t-13.5 -203.5t-4 -279t4 -278.5t13.5 -202.5t26.5 -123t43 -41zM584 1302v75q43 0 78 11t35 57q0 20 -9 45t-9 47q0 35 18 55.5t56 20.5q37 0 55 -20t18 -56q0 -93 -40 -143.5t-96 -71t-106 -20.5z" />
    <glyph glyph-name="ohorn" unicode="&#x1a1;" horiz-adv-x="823" 
d="M410 -22q-62 0 -124.5 33t-115 101t-84 171.5t-31.5 243.5q0 152 33 255t86 164.5t115 88t121 26.5q58 0 120.5 -26.5t116 -88t87 -164.5t33.5 -255q0 -140 -32 -243.5t-84.5 -171.5t-115.5 -101t-125 -33zM410 65q41 0 63 108.5t22 353.5t-22 347t-63 102
q-39 0 -61 -102t-22 -347t22 -353.5t61 -108.5zM564 941v75q44 0 79 11.5t35 56.5q0 20 -9 45t-9 47q0 35 18 55.5t55 20.5q38 0 55.5 -20t17.5 -56q0 -93 -40 -143.5t-96 -71t-106 -20.5z" />
    <glyph glyph-name="Uhorn" unicode="&#x1af;" horiz-adv-x="843" 
d="M451 -24q-51 0 -106.5 14t-103.5 53t-77.5 112t-29.5 191v979h-99v75h483v-75h-110v-991q0 -137 27.5 -200.5t87.5 -63.5q22 0 42.5 10.5t37 36t26 71t9.5 115.5v1022h-88v75h175v-75h-10v-1028q0 -123 -31.5 -193.5t-90.5 -99t-142 -28.5zM725 1325v75q44 0 79 11t35 57
q0 19 -9 44t-9 47q0 35 18 56t55 21q38 0 55.5 -20.5t17.5 -56.5q0 -92 -40 -143t-96 -71t-106 -20z" />
    <glyph glyph-name="uhorn" unicode="&#x1b0;" horiz-adv-x="916" 
d="M368 -22q-69 0 -125.5 26t-90 97.5t-33.5 208.5v662h-100v74h370v-705q0 -98 5.5 -150.5t19.5 -71.5t39 -19t45 26t31 77.5t11 129.5v639h-87v74h357v-971h86v-75h-323l-16 97q-5 -22 -29 -50t-64.5 -48.5t-95.5 -20.5zM756 971v75q43 0 78 11t35 57q0 19 -9 44t-9 47
q0 35 18.5 56t55.5 21t55 -20.5t18 -56.5q0 -92 -40 -143t-96 -71t-106 -20z" />
    <glyph glyph-name="uni01C6" unicode="&#x1c6;" horiz-adv-x="1605" 
d="M367 -20q-77 0 -147 48t-115 165t-45 325q0 191 42.5 311t109 176t137.5 56q58 0 89 -18t43.5 -40t14.5 -32v452h-120v77h397v-1425h116v-75h-345l-27 112q-1 -27 -19 -58t-50.5 -52.5t-80.5 -21.5zM420 123q23 0 40 32.5t26.5 84.5t9.5 110v386q-2 52 -11.5 91.5
t-25.5 62t-38 22.5q-21 0 -37.5 -27.5t-28 -79t-18 -125t-6.5 -165.5q0 -90 5.5 -162.5t16.5 -123.5t27.5 -78.5t39.5 -27.5zM978 0v75l274 897h-90q-51 0 -73.5 -23t-28 -78.5t-5.5 -151.5h-73v328h548v-75l-274 -897h90q51 0 73 24t27 81t5 157h75v-337h-548zM1219 1110
l-172 226h99l107 -153l107 153h101l-172 -226h-70z" />
    <glyph glyph-name="uni01C7" unicode="&#x1c7;" horiz-adv-x="1486" 
d="M51 0v75h89v1250h-89v75h450v-75h-93v-1250h37q43 0 72.5 36.5t45 99t15.5 141.5h75v-352h-602zM1012 -23q-87 0 -139 39t-75 103.5t-23 142.5q0 73 31.5 105.5t79.5 32.5q46 0 76 -30t30 -100q0 -47 -16 -72t-32.5 -42t-16.5 -42q0 -29 15 -42.5t34 -13.5q42 0 64 26
t22 93v1148h-106v75h477v-75h-101v-890q0 -125 -21.5 -212.5t-62.5 -141.5t-100 -79t-136 -25z" />
    <glyph glyph-name="uni01C8" unicode="&#x1c8;" horiz-adv-x="1209" 
d="M51 0v75h89v1250h-89v75h450v-75h-93v-1250h37q43 0 72.5 36.5t45 99t15.5 141.5h75v-352h-602zM772 -498q-67 0 -117 36t-78 97t-28 136q0 72 33 108.5t81 36.5q44 0 68.5 -31.5t24.5 -88.5q0 -38 -11 -61.5t-22 -43t-11 -44.5q0 -18 4 -33.5t13.5 -25t26.5 -9.5
q45 0 58.5 49t13.5 150v1194h-115v75h385v-1088q0 -139 -30.5 -229t-79.5 -139.5t-106 -69t-110 -19.5zM959 1161q-70 0 -120 49.5t-50 120.5q0 69 50 118.5t120 49.5q69 0 118.5 -49.5t49.5 -118.5q0 -71 -49.5 -120.5t-118.5 -49.5z" />
    <glyph glyph-name="uni01C9" unicode="&#x1c9;" horiz-adv-x="1051" 
d="M30 0v75h107v1350h-107v75h377v-1425h107v-75h-484zM614 -498q-67 0 -117 36t-78 97t-28 136q0 72 33 108.5t81 36.5q44 0 68.5 -31.5t24.5 -88.5q0 -38 -11 -61.5t-22 -43t-11 -44.5q0 -18 4 -33.5t13.5 -25t26.5 -9.5q45 0 58.5 49t13.5 150v1194h-115v75h385v-1088
q0 -139 -30.5 -229t-79.5 -139.5t-106 -69t-110 -19.5zM801 1161q-70 0 -120 49.5t-50 120.5q0 69 50 118.5t120 49.5q69 0 118.5 -49.5t49.5 -118.5q0 -71 -49.5 -120.5t-118.5 -49.5z" />
    <glyph glyph-name="uni01CA" unicode="&#x1ca;" horiz-adv-x="1577" 
d="M28 0v75h93v1250h-93v75h391l250 -784h-15v709h-88v75h254v-75h-89v-1325h-157l-394 1245h18v-1170h90v-75h-260zM1103 -23q-87 0 -139 39t-75 103.5t-23 142.5q0 73 31.5 105.5t79.5 32.5q46 0 76 -30t30 -100q0 -47 -16 -72t-32.5 -42t-16.5 -42q0 -29 15 -42.5
t34 -13.5q42 0 64 26t22 93v1148h-106v75h477v-75h-101v-890q0 -125 -21.5 -212.5t-62.5 -141.5t-100 -79t-136 -25z" />
    <glyph glyph-name="uni01CB" unicode="&#x1cb;" horiz-adv-x="1376" 
d="M28 0v75h93v1250h-93v75h391l250 -784h-15v709h-88v75h254v-75h-89v-1325h-157l-394 1245h18v-1170h90v-75h-260zM938 -498q-67 0 -117 36t-78 97t-28 136q0 72 33 108.5t81 36.5q44 0 68.5 -31.5t24.5 -88.5q0 -38 -11 -61.5t-22 -43t-11 -44.5q0 -18 4 -33.5t13.5 -25
t26.5 -9.5q45 0 58.5 49t13.5 150v1194h-115v75h385v-1088q0 -139 -30.5 -229t-79.5 -139.5t-106 -69t-110 -19.5zM1125 1161q-70 0 -120 49.5t-50 120.5q0 69 50 118.5t120 49.5q69 0 118.5 -49.5t49.5 -118.5q0 -71 -49.5 -120.5t-118.5 -49.5z" />
    <glyph glyph-name="uni01CC" unicode="&#x1cc;" horiz-adv-x="1436" 
d="M32 0v75h106v897h-106v75h369v-100q3 12 24 39.5t61.5 51t99.5 23.5q66 0 119 -28t83.5 -100.5t30.5 -208.5v-649h105v-75h-443v75h68v648q0 102 -13 150.5t-46 48.5q-17 0 -31.5 -12t-25 -35.5t-17 -56.5t-8.5 -75v-668h65v-75h-441zM998 -498q-67 0 -117 36t-78 97
t-28 136q0 72 33 108.5t81 36.5q44 0 68.5 -31.5t24.5 -88.5q0 -38 -11 -61.5t-22 -43t-11 -44.5q0 -18 4 -33.5t13.5 -25t26.5 -9.5q45 0 58.5 49t13.5 150v1194h-115v75h385v-1088q0 -139 -30.5 -229t-79.5 -139.5t-106 -69t-110 -19.5zM1185 1161q-70 0 -120 49.5
t-50 120.5q0 69 50 118.5t120 49.5q69 0 118.5 -49.5t49.5 -118.5q0 -71 -49.5 -120.5t-118.5 -49.5z" />
    <glyph glyph-name="uni01CE" unicode="&#x1ce;" horiz-adv-x="860" 
d="M297 -22q-69 0 -125.5 33t-90.5 93t-34 143q0 97 42 160t104 105.5t123.5 75.5t103.5 69.5t42 89.5q0 72 -12.5 123t-38 77t-65.5 26q-47 0 -77 -23.5t-30 -56.5q0 -28 12.5 -48t24.5 -42t12 -60q0 -51 -29 -80.5t-75 -29.5q-48 0 -77.5 40.5t-29.5 111.5
q0 79 41.5 141.5t115.5 98.5t169 36q96 0 170 -38t116.5 -120t42.5 -216v-517q0 -53 8.5 -71t26.5 -18q19 0 32.5 10.5t19.5 18.5l44 -58q-18 -24 -70 -47.5t-122 -23.5q-71 0 -109 19.5t-55 45.5t-23 44q-4 -12 -23 -39t-58.5 -50t-105.5 -23zM390 98q22 0 38.5 20t25 52
t8.5 66v375q-4 -28 -26 -53t-49 -57.5t-47 -84.5t-20 -136q0 -89 19.5 -135.5t50.5 -46.5zM383 1110l-172 226h99l107 -153l107 153h101l-172 -226h-70z" />
    <glyph glyph-name="uni01D0" unicode="&#x1d0;" horiz-adv-x="522" 
d="M26 0v75h100v897h-100v75h370v-972h100v-75h-470zM228 1110l-172 226h99l107 -153l107 153h101l-172 -226h-70z" />
    <glyph glyph-name="uni01D2" unicode="&#x1d2;" horiz-adv-x="823" 
d="M410 -22q-62 0 -124.5 33t-115 101t-84 171.5t-31.5 243.5q0 152 33 255t86 164.5t115 88t121 26.5q58 0 120.5 -26.5t116 -88t87 -164.5t33.5 -255q0 -140 -32 -243.5t-84.5 -171.5t-115.5 -101t-125 -33zM410 65q41 0 63 108.5t22 353.5t-22 347t-63 102
q-39 0 -61 -102t-22 -347t22 -353.5t61 -108.5zM376 1110l-172 226h99l107 -153l107 153h101l-172 -226h-70z" />
    <glyph glyph-name="uni01D4" unicode="&#x1d4;" horiz-adv-x="916" 
d="M368 -22q-69 0 -125.5 26t-90 97.5t-33.5 208.5v662h-100v74h370v-705q0 -98 5.5 -150.5t19.5 -71.5t39 -19t45 26t31 77.5t11 129.5v639h-87v74h357v-971h86v-75h-323l-16 97q-5 -22 -29 -50t-64.5 -48.5t-95.5 -20.5zM437 1110l-172 226h99l107 -153l107 153h101
l-172 -226h-70z" />
    <glyph glyph-name="uni01D6" unicode="&#x1d6;" horiz-adv-x="916" 
d="M368 -22q-69 0 -125.5 26t-90 97.5t-33.5 208.5v662h-100v74h370v-705q0 -98 5.5 -150.5t19.5 -71.5t39 -19t45 26t31 77.5t11 129.5v639h-87v74h357v-971h86v-75h-323l-16 97q-5 -22 -29 -50t-64.5 -48.5t-95.5 -20.5zM596 1134q-38 0 -65.5 28t-27.5 64q0 39 27.5 67.5
t65.5 28.5q36 0 64 -28.5t28 -67.5q0 -36 -28 -64t-64 -28zM344 1134q-36 0 -63 28t-27 64q0 39 27 67.5t63 28.5q39 0 66 -28.5t27 -67.5q0 -36 -27 -64t-66 -28zM225 1417v75h492v-75h-492z" />
    <glyph glyph-name="uni01D8" unicode="&#x1d8;" horiz-adv-x="916" 
d="M368 -22q-69 0 -125.5 26t-90 97.5t-33.5 208.5v662h-100v74h370v-705q0 -98 5.5 -150.5t19.5 -71.5t39 -19t45 26t31 77.5t11 129.5v639h-87v74h357v-971h86v-75h-323l-16 97q-5 -22 -29 -50t-64.5 -48.5t-95.5 -20.5zM596 1134q-38 0 -65.5 28t-27.5 64q0 39 27.5 67.5
t65.5 28.5q36 0 64 -28.5t28 -67.5q0 -36 -28 -64t-64 -28zM344 1134q-36 0 -63 28t-27 64q0 39 27 67.5t63 28.5q39 0 66 -28.5t27 -67.5q0 -36 -27 -64t-66 -28zM368 1362l-57 61l190 144q15 11 29.5 18t27.5 7q18 0 32.5 -10t21.5 -24q8 -13 8 -28q0 -19 -13 -36t-41 -28
z" />
    <glyph glyph-name="uni01DA" unicode="&#x1da;" horiz-adv-x="916" 
d="M368 -22q-69 0 -125.5 26t-90 97.5t-33.5 208.5v662h-100v74h370v-705q0 -98 5.5 -150.5t19.5 -71.5t39 -19t45 26t31 77.5t11 129.5v639h-87v74h357v-971h86v-75h-323l-16 97q-5 -22 -29 -50t-64.5 -48.5t-95.5 -20.5zM596 1134q-38 0 -65.5 28t-27.5 64q0 39 27.5 67.5
t65.5 28.5q36 0 64 -28.5t28 -67.5q0 -36 -28 -64t-64 -28zM344 1134q-36 0 -63 28t-27 64q0 39 27 67.5t63 28.5q39 0 66 -28.5t27 -67.5q0 -36 -27 -64t-66 -28zM437 1386l-172 226h99l107 -153l107 153h101l-172 -226h-70z" />
    <glyph glyph-name="uni01DC" unicode="&#x1dc;" horiz-adv-x="916" 
d="M368 -22q-69 0 -125.5 26t-90 97.5t-33.5 208.5v662h-100v74h370v-705q0 -98 5.5 -150.5t19.5 -71.5t39 -19t45 26t31 77.5t11 129.5v639h-87v74h357v-971h86v-75h-323l-16 97q-5 -22 -29 -50t-64.5 -48.5t-95.5 -20.5zM596 1134q-38 0 -65.5 28t-27.5 64q0 39 27.5 67.5
t65.5 28.5q36 0 64 -28.5t28 -67.5q0 -36 -28 -64t-64 -28zM344 1134q-36 0 -63 28t-27 64q0 39 27 67.5t63 28.5q39 0 66 -28.5t27 -67.5q0 -36 -27 -64t-66 -28zM574 1381l-209 100q-30 15 -44.5 30t-14.5 43q0 24 18 39.5t45 15.5q21 0 35.5 -8t29.5 -20l182 -151z" />
    <glyph glyph-name="uni01DF" unicode="&#x1df;" horiz-adv-x="860" 
d="M297 -22q-69 0 -125.5 33t-90.5 93t-34 143q0 97 42 160t104 105.5t123.5 75.5t103.5 69.5t42 89.5q0 72 -12.5 123t-38 77t-65.5 26q-47 0 -77 -23.5t-30 -56.5q0 -28 12.5 -48t24.5 -42t12 -60q0 -51 -29 -80.5t-75 -29.5q-48 0 -77.5 40.5t-29.5 111.5
q0 79 41.5 141.5t115.5 98.5t169 36q96 0 170 -38t116.5 -120t42.5 -216v-517q0 -53 8.5 -71t26.5 -18q19 0 32.5 10.5t19.5 18.5l44 -58q-18 -24 -70 -47.5t-122 -23.5q-71 0 -109 19.5t-55 45.5t-23 44q-4 -12 -23 -39t-58.5 -50t-105.5 -23zM390 98q22 0 38.5 20t25 52
t8.5 66v375q-4 -28 -26 -53t-49 -57.5t-47 -84.5t-20 -136q0 -89 19.5 -135.5t50.5 -46.5zM542 1134q-38 0 -65.5 28t-27.5 64q0 39 27.5 67.5t65.5 28.5q36 0 64 -28.5t28 -67.5q0 -36 -28 -64t-64 -28zM290 1134q-36 0 -63 28t-27 64q0 39 27 67.5t63 28.5q39 0 66 -28.5
t27 -67.5q0 -36 -27 -64t-66 -28zM171 1417v75h492v-75h-492z" />
    <glyph glyph-name="gcaron" unicode="&#x1e7;" horiz-adv-x="887" 
d="M430 -498q-91 0 -178.5 27.5t-144.5 86t-57 151.5q0 67 27 112t64 71t67.5 38t37.5 13q-7 2 -30.5 11t-51 29t-47.5 53.5t-20 83.5q0 35 13 61t33.5 43t39.5 23q5 2 13 4t10 2q-5 3 -24.5 22t-43 57t-41.5 100t-18 150q0 119 36 199.5t91 129.5t115 70.5t109 21.5
q108 0 185.5 -51.5t119.5 -144t42 -214.5q0 -132 -35.5 -215t-91 -127.5t-115 -61t-107.5 -16.5q-62 0 -100 12t-48 16h-1.5h-1.5q-12 0 -24.5 -12.5t-12.5 -36.5q0 -35 51.5 -61.5t190.5 -53.5q157 -28 247 -96.5t90 -208.5q0 -86 -39.5 -142.5t-100.5 -88t-128 -44.5
t-121 -13zM430 -425q66 0 106 49.5t40 112.5t-17.5 100t-68.5 68q-19 12 -44.5 25t-49.5 23t-38 14q-17 -8 -37 -32.5t-34.5 -65t-14.5 -99.5q0 -60 18.5 -103.5t54 -67.5t85.5 -24zM428 309q21 0 39 21.5t29.5 93.5t11.5 223q0 144 -11.5 215.5t-30 95.5t-38.5 24t-38 -24
t-29.5 -96.5t-11.5 -217.5q0 -151 12 -222t30 -92t37 -21zM557 980q12 76 70.5 119.5t126.5 43.5q56 0 79 -28t23 -70q0 -41 -22.5 -63t-56.5 -22q-35 0 -49.5 16t-24.5 31t-34 15q-12 0 -23 -8t-11 -34h-78zM395 1110l-172 226h99l107 -153l107 153h101l-172 -226h-70z" />
    <glyph glyph-name="uni01EA" unicode="&#x1ea;" horiz-adv-x="874" 
d="M440 -22q-108 0 -192.5 84t-133 244.5t-48.5 391.5q0 232 48.5 393.5t133 246t192.5 84.5q109 0 195 -84.5t135 -246t49 -393.5q0 -231 -49 -391.5t-135 -244.5t-195 -84zM440 53q26 0 43.5 41t28.5 123t16 202.5t5 278.5t-5 279t-16 203.5t-28.5 124.5t-43.5 42t-43 -42
t-26.5 -124.5t-13.5 -203.5t-4 -279t4 -278.5t13.5 -202.5t26.5 -123t43 -41zM552 -300q-45 0 -83 14.5t-60.5 45.5t-22.5 79q0 55 25 93t58 62.5t58 38.5l31 -25q-23 -27 -41 -58.5t-18 -79.5q0 -41 29.5 -55.5t54.5 -14.5q26 0 49 7t39 17l37 -70q-25 -24 -66.5 -39
t-89.5 -15z" />
    <glyph glyph-name="uni01EB" unicode="&#x1eb;" horiz-adv-x="823" 
d="M410 -22q-62 0 -124.5 33t-115 101t-84 171.5t-31.5 243.5q0 152 33 255t86 164.5t115 88t121 26.5q58 0 120.5 -26.5t116 -88t87 -164.5t33.5 -255q0 -140 -32 -243.5t-84.5 -171.5t-115.5 -101t-125 -33zM410 65q41 0 63 108.5t22 353.5t-22 347t-63 102
q-39 0 -61 -102t-22 -347t22 -353.5t61 -108.5zM532 -292q-45 0 -83 14.5t-60.5 45.5t-22.5 79q0 55 25 93t58 63t58 38l30 -25q-22 -27 -40 -58.5t-18 -79.5q0 -41 29 -55.5t55 -14.5q25 0 48.5 7t39.5 17l37 -70q-26 -24 -67 -39t-89 -15z" />
    <glyph glyph-name="aringacute" unicode="&#x1fb;" horiz-adv-x="860" 
d="M297 -22q-69 0 -125.5 33t-90.5 93t-34 143q0 97 42 160t104 105.5t123.5 75.5t103.5 69.5t42 89.5q0 72 -12.5 123t-38 77t-65.5 26q-47 0 -77 -23.5t-30 -56.5q0 -28 12.5 -48t24.5 -42t12 -60q0 -51 -29 -80.5t-75 -29.5q-48 0 -77.5 40.5t-29.5 111.5
q0 79 41.5 141.5t115.5 98.5t169 36q96 0 170 -38t116.5 -120t42.5 -216v-517q0 -53 8.5 -71t26.5 -18q19 0 32.5 10.5t19.5 18.5l44 -58q-18 -24 -70 -47.5t-122 -23.5q-71 0 -109 19.5t-55 45.5t-23 44q-4 -12 -23 -39t-58.5 -50t-105.5 -23zM390 98q22 0 38.5 20t25 52
t8.5 66v375q-4 -28 -26 -53t-49 -57.5t-47 -84.5t-20 -136q0 -89 19.5 -135.5t50.5 -46.5zM418 1099q-44 0 -78 32.5t-34 85.5q0 55 34 86.5t78 31.5q42 0 75.5 -31.5t33.5 -86.5q0 -53 -33.5 -85.5t-75.5 -32.5zM418 1160q23 0 33.5 18t10.5 41q0 18 -10.5 36t-33.5 18
q-25 0 -35.5 -18t-10.5 -36q0 -23 10.5 -41t35.5 -18zM315 1375l-57 61l190 144q15 11 29.5 18t27.5 7q18 0 32.5 -10t21.5 -24q8 -13 8 -28q0 -19 -13 -36t-41 -28z" />
    <glyph glyph-name="aeacute" unicode="&#x1fd;" horiz-adv-x="1236" 
d="M341 -21q-158 0 -226 71.5t-68 191.5q0 98 41.5 162t103 107t123 76t103 69.5t41.5 89.5q0 70 -12 121t-37.5 78.5t-64.5 27.5q-45 0 -74.5 -22t-29.5 -56q0 -28 12 -47.5t24 -42t12 -59.5q0 -52 -29 -81t-76 -29q-48 0 -77 40.5t-29 110.5q0 79 41 141t114.5 97.5
t168.5 35.5t169 -39t115.5 -122.5t41.5 -217.5v-194q0 -106 -15.5 -185t-40 -133t-54.5 -86q-46 -49 -113 -77t-164 -28zM388 99q31 0 51 41t20 97v372q-4 -28 -25.5 -52.5t-48 -57t-46 -85.5t-19.5 -136q0 -58 8 -98t23.5 -60.5t36.5 -20.5zM852 -20q-80 0 -148 33.5
t-118 101.5t-78 171t-28 241q0 145 34.5 247t90 165.5t119 92.5t122.5 29q70 0 131 -33t106.5 -94t71 -146.5t25.5 -191.5q0 -20 -0.5 -40t-2.5 -41h-440v75h187q0 155 -9 240.5t-26.5 120t-42.5 34.5q-26 0 -47.5 -35.5t-34.5 -128.5t-13 -267q0 -130 7.5 -223t23.5 -151.5
t42 -86t63 -27.5q75 0 120 37.5t65 75.5l62 -47q-24 -56 -101 -104t-181 -48zM537 1087l-57 61l190 144q15 11 29.5 18t27.5 7q18 0 32.5 -10t21.5 -24q8 -13 8 -28q0 -19 -13 -36t-41 -28z" />
    <glyph glyph-name="Oslashacute" unicode="&#x1fe;" horiz-adv-x="880" 
d="M171 -104l492 1608h77l-490 -1608h-79zM440 -22q-108 0 -192.5 84t-133 244.5t-48.5 391.5q0 232 48.5 393.5t133 246t192.5 84.5q109 0 195 -84.5t135 -246t49 -393.5q0 -231 -49 -391.5t-135 -244.5t-195 -84zM440 53q26 0 43.5 41t28.5 123t16 202.5t5 278.5t-5 279
t-16 203.5t-28.5 124.5t-43.5 42t-43 -42t-26.5 -124.5t-13.5 -203.5t-4 -279t4 -278.5t13.5 -202.5t26.5 -123t43 -41zM337 1442l-57 60l190 144q15 11 29.5 18t27.5 7q18 0 32.5 -10t21.5 -23q8 -13 8 -29q0 -18 -13 -35t-41 -28z" />
    <glyph glyph-name="oslashacute" unicode="&#x1ff;" horiz-adv-x="827" 
d="M101 -104l533 1224h82l-533 -1224h-82zM410 -22q-62 0 -124.5 33t-115 101t-84 171.5t-31.5 243.5q0 152 33 255t86 164.5t115 88t121 26.5q58 0 120.5 -26.5t116 -88t87 -164.5t33.5 -255q0 -140 -32 -243.5t-84.5 -171.5t-115.5 -101t-125 -33zM410 65q41 0 63 108.5
t22 353.5t-22 347t-63 102q-39 0 -61 -102t-22 -347t22 -353.5t61 -108.5zM307 1087l-57 61l190 144q15 11 29.5 18t27.5 7q18 0 32.5 -10t21.5 -24q8 -13 8 -28q0 -19 -13 -36t-41 -28z" />
    <glyph glyph-name="uni0201" unicode="&#x201;" horiz-adv-x="860" 
d="M297 -22q-69 0 -125.5 33t-90.5 93t-34 143q0 97 42 160t104 105.5t123.5 75.5t103.5 69.5t42 89.5q0 72 -12.5 123t-38 77t-65.5 26q-47 0 -77 -23.5t-30 -56.5q0 -28 12.5 -48t24.5 -42t12 -60q0 -51 -29 -80.5t-75 -29.5q-48 0 -77.5 40.5t-29.5 111.5
q0 79 41.5 141.5t115.5 98.5t169 36q96 0 170 -38t116.5 -120t42.5 -216v-517q0 -53 8.5 -71t26.5 -18q19 0 32.5 10.5t19.5 18.5l44 -58q-18 -24 -70 -47.5t-122 -23.5q-71 0 -109 19.5t-55 45.5t-23 44q-4 -12 -23 -39t-58.5 -50t-105.5 -23zM390 98q22 0 38.5 20t25 52
t8.5 66v375q-4 -28 -26 -53t-49 -57.5t-47 -84.5t-20 -136q0 -89 19.5 -135.5t50.5 -46.5zM528 1104l-162 165q-18 17 -27 32t-9 32q0 28 17.5 44.5t41.5 16.5q28 0 46 -16.5t31 -37.5l118 -205zM317 1104l-162 165q-18 18 -27 32.5t-9 31.5q0 28 18 44.5t42 16.5
q28 0 46 -16.5t31 -37.5l118 -205z" />
    <glyph glyph-name="uni0203" unicode="&#x203;" horiz-adv-x="860" 
d="M297 -22q-69 0 -125.5 33t-90.5 93t-34 143q0 97 42 160t104 105.5t123.5 75.5t103.5 69.5t42 89.5q0 72 -12.5 123t-38 77t-65.5 26q-47 0 -77 -23.5t-30 -56.5q0 -28 12.5 -48t24.5 -42t12 -60q0 -51 -29 -80.5t-75 -29.5q-48 0 -77.5 40.5t-29.5 111.5
q0 79 41.5 141.5t115.5 98.5t169 36q96 0 170 -38t116.5 -120t42.5 -216v-517q0 -53 8.5 -71t26.5 -18q19 0 32.5 10.5t19.5 18.5l44 -58q-18 -24 -70 -47.5t-122 -23.5q-71 0 -109 19.5t-55 45.5t-23 44q-4 -12 -23 -39t-58.5 -50t-105.5 -23zM390 98q22 0 38.5 20t25 52
t8.5 66v375q-4 -28 -26 -53t-49 -57.5t-47 -84.5t-20 -136q0 -89 19.5 -135.5t50.5 -46.5zM417 1318q65 0 104.5 -30t58 -76t18.5 -93h-75q-4 63 -33.5 92t-72.5 29t-72 -29t-34 -92h-74q0 47 18 93t58 76t104 30z" />
    <glyph glyph-name="uni0205" unicode="&#x205;" horiz-adv-x="810" 
d="M426 -20q-80 0 -148 33.5t-118 101.5t-77.5 171t-27.5 241q0 145 34 247t89.5 165.5t119.5 92.5t122 29q70 0 131 -33t106.5 -94t71.5 -146.5t26 -191.5q0 -20 -0.5 -40t-2.5 -41h-441v75h187q0 155 -9 240.5t-26.5 120t-42.5 34.5t-47 -35.5t-35 -128.5t-13 -267
q0 -130 7.5 -223t24 -151.5t42 -86t63.5 -27.5q75 0 120 37.5t64 75.5l63 -47q-25 -56 -101.5 -104t-181.5 -48zM591 1104l-162 165q-17 17 -26.5 32t-9.5 32q0 28 17.5 44.5t41.5 16.5q29 0 47 -16.5t30 -37.5l118 -205zM381 1104l-163 165q-18 18 -26.5 32.5t-8.5 31.5
q0 28 17.5 44.5t41.5 16.5q28 0 46 -16.5t31 -37.5l118 -205z" />
    <glyph glyph-name="uni0207" unicode="&#x207;" horiz-adv-x="810" 
d="M426 -20q-80 0 -148 33.5t-118 101.5t-77.5 171t-27.5 241q0 145 34 247t89.5 165.5t119.5 92.5t122 29q70 0 131 -33t106.5 -94t71.5 -146.5t26 -191.5q0 -20 -0.5 -40t-2.5 -41h-441v75h187q0 155 -9 240.5t-26.5 120t-42.5 34.5t-47 -35.5t-35 -128.5t-13 -267
q0 -130 7.5 -223t24 -151.5t42 -86t63.5 -27.5q75 0 120 37.5t64 75.5l63 -47q-25 -56 -101.5 -104t-181.5 -48zM415 1318q65 0 104.5 -30t58 -76t18.5 -93h-75q-4 63 -33.5 92t-72.5 29t-72 -29t-34 -92h-74q0 47 18 93t58 76t104 30z" />
    <glyph glyph-name="uni0209" unicode="&#x209;" horiz-adv-x="522" 
d="M26 0v75h100v897h-100v75h370v-972h100v-75h-470zM437 1104l-162 165q-17 17 -26.5 32t-9.5 32q0 28 17.5 44.5t41.5 16.5q29 0 47 -16.5t30 -37.5l118 -205zM227 1104l-163 165q-18 18 -26.5 32.5t-8.5 31.5q0 28 17.5 44.5t41.5 16.5q28 0 46 -16.5t31 -37.5l118 -205z
" />
    <glyph glyph-name="uni020B" unicode="&#x20b;" horiz-adv-x="522" 
d="M26 0v75h100v897h-100v75h370v-972h100v-75h-470zM262 1318q65 0 104.5 -30t58 -76t18.5 -93h-75q-4 63 -33.5 92t-72.5 29t-72 -29t-34 -92h-74q0 47 18 93t58 76t104 30z" />
    <glyph glyph-name="uni020D" unicode="&#x20d;" horiz-adv-x="823" 
d="M410 -22q-62 0 -124.5 33t-115 101t-84 171.5t-31.5 243.5q0 152 33 255t86 164.5t115 88t121 26.5q58 0 120.5 -26.5t116 -88t87 -164.5t33.5 -255q0 -140 -32 -243.5t-84.5 -171.5t-115.5 -101t-125 -33zM410 65q41 0 63 108.5t22 353.5t-22 347t-63 102
q-39 0 -61 -102t-22 -347t22 -353.5t61 -108.5zM586 1104l-162 165q-17 17 -26.5 32t-9.5 32q0 28 17.5 44.5t41.5 16.5q29 0 47 -16.5t30 -37.5l118 -205zM376 1104l-163 165q-18 18 -26.5 32.5t-8.5 31.5q0 28 17.5 44.5t41.5 16.5q28 0 46 -16.5t31 -37.5l118 -205z" />
    <glyph glyph-name="uni020F" unicode="&#x20f;" horiz-adv-x="823" 
d="M410 -22q-62 0 -124.5 33t-115 101t-84 171.5t-31.5 243.5q0 152 33 255t86 164.5t115 88t121 26.5q58 0 120.5 -26.5t116 -88t87 -164.5t33.5 -255q0 -140 -32 -243.5t-84.5 -171.5t-115.5 -101t-125 -33zM410 65q41 0 63 108.5t22 353.5t-22 347t-63 102
q-39 0 -61 -102t-22 -347t22 -353.5t61 -108.5zM410 1318q65 0 104.5 -30t58 -76t18.5 -93h-75q-4 63 -33.5 92t-72.5 29t-72 -29t-34 -92h-74q0 47 18 93t58 76t104 30z" />
    <glyph glyph-name="uni0211" unicode="&#x211;" horiz-adv-x="752" 
d="M26 0v75h107v897h-107v75h351l16 -88q6 16 26 40.5t53 43t73 18.5q61 0 100.5 -38t59 -102.5t19.5 -141.5q0 -71 -28.5 -108.5t-76.5 -37.5q-45 0 -72.5 32t-27.5 88q0 38 15.5 60t31 42.5t15.5 53.5q0 35 -12.5 51t-42.5 16q-27 0 -56 -28.5t-48 -86t-19 -144.5v-642
h105v-75h-482zM631 1104l-162 165q-17 17 -26.5 32t-9.5 32q0 28 17.5 44.5t41.5 16.5q29 0 47 -16.5t30 -37.5l118 -205zM421 1104l-163 165q-18 18 -26.5 32.5t-8.5 31.5q0 28 17.5 44.5t41.5 16.5q28 0 46 -16.5t31 -37.5l118 -205z" />
    <glyph glyph-name="uni0213" unicode="&#x213;" horiz-adv-x="752" 
d="M26 0v75h107v897h-107v75h351l16 -88q6 16 26 40.5t53 43t73 18.5q61 0 100.5 -38t59 -102.5t19.5 -141.5q0 -71 -28.5 -108.5t-76.5 -37.5q-45 0 -72.5 32t-27.5 88q0 38 15.5 60t31 42.5t15.5 53.5q0 35 -12.5 51t-42.5 16q-27 0 -56 -28.5t-48 -86t-19 -144.5v-642
h105v-75h-482zM456 1318q65 0 104.5 -30t58 -76t18.5 -93h-75q-4 63 -33.5 92t-72.5 29t-72 -29t-34 -92h-74q0 47 18 93t58 76t104 30z" />
    <glyph glyph-name="uni0215" unicode="&#x215;" horiz-adv-x="916" 
d="M368 -22q-69 0 -125.5 26t-90 97.5t-33.5 208.5v662h-100v74h370v-705q0 -98 5.5 -150.5t19.5 -71.5t39 -19t45 26t31 77.5t11 129.5v639h-87v74h357v-971h86v-75h-323l-16 97q-5 -22 -29 -50t-64.5 -48.5t-95.5 -20.5zM646 1104l-162 165q-17 17 -26.5 32t-9.5 32
q0 28 17.5 44.5t41.5 16.5q29 0 47 -16.5t30 -37.5l118 -205zM436 1104l-163 165q-18 18 -26.5 32.5t-8.5 31.5q0 28 17.5 44.5t41.5 16.5q28 0 46 -16.5t31 -37.5l118 -205z" />
    <glyph glyph-name="uni0217" unicode="&#x217;" horiz-adv-x="916" 
d="M368 -22q-69 0 -125.5 26t-90 97.5t-33.5 208.5v662h-100v74h370v-705q0 -98 5.5 -150.5t19.5 -71.5t39 -19t45 26t31 77.5t11 129.5v639h-87v74h357v-971h86v-75h-323l-16 97q-5 -22 -29 -50t-64.5 -48.5t-95.5 -20.5zM471 1318q65 0 104.5 -30t58 -76t18.5 -93h-75
q-4 63 -33.5 92t-72.5 29t-72 -29t-34 -92h-74q0 47 18 93t58 76t104 30z" />
    <glyph glyph-name="uni0218" unicode="&#x218;" horiz-adv-x="706" 
d="M366 -27q-57 0 -91 12.5t-54 30t-33 30t-28 12.5q-29 0 -29 -58h-72v355h75q1 -20 10.5 -56.5t28 -78.5t45.5 -80.5t63.5 -63.5t82.5 -25q38 0 61 14.5t33.5 45t10.5 75.5q0 59 -26.5 118t-74 126t-111.5 148q-79 100 -122 184.5t-59.5 160.5t-16.5 153q0 115 39.5 191.5
t101.5 115.5t131 39q62 0 94.5 -19t50.5 -38t36 -19q14 0 21 11t7 43h73v-352h-75q-2 29 -15 78t-37.5 99.5t-62 85t-88.5 34.5t-78 -37t-27 -103q0 -51 26.5 -110.5t76 -127.5t116.5 -145q72 -80 116 -155.5t65 -155t21 -169.5q0 -111 -26.5 -183t-68.5 -112t-92 -57
t-98 -17zM354 -369l-42 49q11 4 34 19.5t30 32.5q-3 -2 -12 -2q-35 0 -60 24.5t-25 60.5t25 60.5t60 24.5q39 0 67 -24.5t28 -72.5t-19 -82t-43.5 -55.5t-42.5 -34.5z" />
    <glyph glyph-name="uni0219" unicode="&#x219;" horiz-adv-x="631" 
d="M321 -22q-59 0 -91 15t-49 30t-34 15q-15 0 -20.5 -9.5t-5.5 -28.5h-70v337h83q6 -51 21.5 -101.5t39.5 -91.5t55.5 -66t68.5 -25q31 0 50.5 11t28.5 31.5t9 48.5q0 40 -19.5 80t-54.5 83.5t-82 90.5q-83 85 -141 174t-58 218q0 97 38 156.5t98 87t125 27.5
q46 0 73.5 -12.5t44.5 -25t29 -12.5q10 0 15.5 7.5t6.5 28.5h71v-328h-82q-4 42 -15 88.5t-30 86.5t-46 65.5t-62 25.5q-48 0 -71 -35.5t-23 -80.5q0 -54 41.5 -105.5t113.5 -118.5q51 -48 97.5 -104.5t75.5 -127t29 -160.5q0 -100 -33 -160.5t-92 -87.5t-135 -27zM320 -369
l-42 49q11 4 34 19.5t30 32.5q-3 -2 -12 -2q-35 0 -60 24.5t-25 60.5t25 60.5t60 24.5q39 0 67 -24.5t28 -72.5t-19 -82t-43.5 -55.5t-42.5 -34.5z" />
    <glyph glyph-name="uni021A" unicode="&#x21a;" horiz-adv-x="836" 
d="M167 0v75h117v1250h-16q-65 0 -98 -29.5t-45 -90t-12 -154.5h-75v349h760v-349h-75q0 94 -11.5 154.5t-44.5 90t-99 29.5h-15v-1250h120v-75h-506zM409 -369l-42 49q11 4 34 19.5t30 32.5q-3 -2 -12 -2q-35 0 -60 24.5t-25 60.5t25 60.5t60 24.5q39 0 67 -24.5t28 -72.5
t-19 -82t-43.5 -55.5t-42.5 -34.5z" />
    <glyph glyph-name="uni021B" unicode="&#x21b;" horiz-adv-x="596" 
d="M407 -18q-68 0 -128.5 21.5t-98 80.5t-37.5 169v719h-145v75h145q51 5 91 49t65.5 111.5t33.5 143.5h80v-304h166v-75h-166v-835q0 -41 19.5 -56t38.5 -15q18 0 34 7t23 15l42 -60q-28 -21 -67.5 -33.5t-95.5 -12.5zM364 -351l-42 49q11 4 34 19.5t30 32.5q-3 -2 -12 -2
q-35 0 -60 24.5t-25 60.5t25 60.5t60 24.5q39 0 67 -24.5t28 -72.5t-19 -82t-43.5 -55.5t-42.5 -34.5z" />
    <glyph glyph-name="uni0229" unicode="&#x229;" horiz-adv-x="810" 
d="M426 -20q-80 0 -148 33.5t-118 101.5t-77.5 171t-27.5 241q0 145 34 247t89.5 165.5t119.5 92.5t122 29q70 0 131 -33.5t106.5 -97.5t71.5 -156.5t26 -211.5q0 -20 -0.5 -40t-2.5 -41h-441v75h187q0 155 -9 249t-26.5 137t-42.5 43t-47 -44t-35 -145t-13 -275
q0 -130 7.5 -219t24 -142.5t42 -77.5t63.5 -24q75 0 120 41.5t64 79.5l63 -47q-25 -56 -101.5 -104t-181.5 -48zM474 -329q-48 0 -93 11.5t-60 19.5l29 72q11 -7 45.5 -18.5t67.5 -11.5q31 0 52 16.5t21 44.5q0 32 -13 42.5t-33 10.5q-16 0 -30 -6t-24 -20l-71 4l60 164h75
l-42 -108q5 6 30 16t61 10q40 0 75 -25t35 -89q0 -42 -23 -72t-64.5 -45.5t-97.5 -15.5z" />
    <glyph glyph-name="uni022B" unicode="&#x22b;" horiz-adv-x="823" 
d="M410 -22q-62 0 -124.5 33t-115 101t-84 171.5t-31.5 243.5q0 152 33 255t86 164.5t115 88t121 26.5q58 0 120.5 -26.5t116 -88t87 -164.5t33.5 -255q0 -140 -32 -243.5t-84.5 -171.5t-115.5 -101t-125 -33zM410 65q41 0 63 108.5t22 353.5t-22 347t-63 102
q-39 0 -61 -102t-22 -347t22 -353.5t61 -108.5zM535 1134q-38 0 -65.5 28t-27.5 64q0 39 27.5 67.5t65.5 28.5q36 0 64 -28.5t28 -67.5q0 -36 -28 -64t-64 -28zM283 1134q-36 0 -63 28t-27 64q0 39 27 67.5t63 28.5q39 0 66 -28.5t27 -67.5q0 -36 -27 -64t-66 -28zM164 1417
v75h492v-75h-492z" />
    <glyph glyph-name="uni022D" unicode="&#x22d;" horiz-adv-x="823" 
d="M410 -22q-62 0 -124.5 33t-115 101t-84 171.5t-31.5 243.5q0 152 33 255t86 164.5t115 88t121 26.5q58 0 120.5 -26.5t116 -88t87 -164.5t33.5 -255q0 -140 -32 -243.5t-84.5 -171.5t-115.5 -101t-125 -33zM410 65q41 0 63 108.5t22 353.5t-22 347t-63 102
q-39 0 -61 -102t-22 -347t22 -353.5t61 -108.5zM496 1143q-41 0 -66.5 13.5t-45.5 26.5t-42 13q-35 0 -52.5 -14t-22.5 -23l-76 29q6 18 24.5 42.5t46.5 43.5t62 19q45 0 69.5 -12.5t44.5 -25.5t50 -13q34 0 48.5 13.5t19.5 23.5l73 -31q-3 -13 -20.5 -37.5t-46 -46
t-66.5 -21.5zM140 1389v75h541v-75h-541z" />
    <glyph glyph-name="uni0231" unicode="&#x231;" horiz-adv-x="823" 
d="M410 -22q-62 0 -124.5 33t-115 101t-84 171.5t-31.5 243.5q0 152 33 255t86 164.5t115 88t121 26.5q58 0 120.5 -26.5t116 -88t87 -164.5t33.5 -255q0 -140 -32 -243.5t-84.5 -171.5t-115.5 -101t-125 -33zM410 65q41 0 63 108.5t22 353.5t-22 347t-63 102
q-39 0 -61 -102t-22 -347t22 -353.5t61 -108.5zM411 1140q-38 0 -65.5 27.5t-27.5 64.5q0 38 27.5 66t65.5 28q35 0 62.5 -28t27.5 -66q0 -37 -27.5 -64.5t-62.5 -27.5zM141 1420v75h541v-75h-541z" />
    <glyph glyph-name="uni0233" unicode="&#x233;" horiz-adv-x="750" 
d="M230 -502q-51 0 -88 36.5t-56 98.5t-19 138q0 71 29 107.5t76 36.5q46 0 74 -32t28 -90q0 -45 -18 -72.5t-35.5 -50.5t-17.5 -56q0 -24 10 -39t29 -15q11 0 18.5 6.5t13.5 21.5t12 42l78 353l-272 989h-84v75h450v-75h-79l116 -440l100 440h-74v75h230v-75h-71l-234 -979
l-87 -380q-8 -34 -23.5 -60.5t-40.5 -40.5t-65 -14zM111 1140v75h541v-75h-541z" />
    <glyph glyph-name="uni0237" unicode="&#x237;" horiz-adv-x="564" 
d="M126 -498q-67 0 -117 36t-78 97t-28 136q0 72 33 108.5t81 36.5q44 0 68.5 -31.5t24.5 -88.5q0 -38 -11 -61.5t-22 -43t-11 -44.5q0 -18 4 -33.5t13.5 -25t26.5 -9.5q45 0 58.5 49t13.5 150v1194h-115v75h385v-1088q0 -139 -30.5 -229t-79.5 -139.5t-106 -69t-110 -19.5z
" />
    <glyph glyph-name="uni0244" unicode="&#x244;" horiz-adv-x="848" 
d="M81 829v75h710v-75h-710zM451 -24q-51 0 -106.5 14t-103.5 53t-77.5 112t-29.5 191v979h-99v75h483v-75h-110v-991q0 -137 27.5 -200.5t87.5 -63.5q22 0 42.5 10.5t37 36t26 71t9.5 115.5v1022h-88v75h259v-75h-94v-1028q0 -123 -31.5 -193.5t-90.5 -99t-142 -28.5z" />
    <glyph glyph-name="uni0259" unicode="&#x259;" horiz-adv-x="812" 
d="M69 1046h74q0 -35 8 -50t23 -15l7 -97h-112v162zM385 1066q80 0 148 -33.5t118 -101.5t77.5 -171t27.5 -241q0 -145 -34 -247t-89.5 -165.5t-119.5 -92.5t-122 -29q-70 0 -131 33.5t-106.5 97.5t-71.5 156.5t-26 211.5q0 20 1 40t2 41h441v-75h-188q0 -155 9.5 -249
t27.5 -137t42 -43q25 0 47 44t35 145.5t13 274.5q0 130 -7.5 219t-24 142.5t-42 77.5t-63.5 24q-75 0 -120 -41.5t-64 -79.5l-63 47q25 56 102 104t181 48z" />
    <glyph glyph-name="uni0289" unicode="&#x289;" horiz-adv-x="964" 
d="M40 593v75h845v-75h-845zM368 -22q-69 0 -125.5 26t-90 97.5t-33.5 208.5v662h-100v74h370v-705q0 -98 5.5 -150.5t19.5 -71.5t39 -19t45 26t31 77.5t11 129.5v639h-87v74h357v-971h86v-75h-323l-16 97q-5 -22 -29 -50t-64.5 -48.5t-95.5 -20.5z" />
    <glyph glyph-name="uni02BC" unicode="&#x2bc;" horiz-adv-x="547" 
d="M265 1147l-60 71q15 6 48 27.5t44 46.5l-7.5 -2.5t-10.5 -1.5q-50 0 -86 36t-36 88q0 51 36 86t86 35q56 0 96 -34.5t40 -104.5q0 -69 -27 -118t-62.5 -80.5t-60.5 -48.5z" />
    <glyph glyph-name="circumflex" unicode="&#x2c6;" horiz-adv-x="699" 
d="M205 1267l148 203h70l146 -203h-90l-92 130l-92 -130h-90z" />
    <glyph glyph-name="caron" unicode="&#x2c7;" horiz-adv-x="697" 
d="M353 1262l-172 226h99l107 -153l107 153h101l-172 -226h-70z" />
    <glyph glyph-name="uni02C9" unicode="&#x2c9;" horiz-adv-x="930" 
d="M233 1353v75h603v-75h-603z" />
    <glyph glyph-name="breve" unicode="&#x2d8;" horiz-adv-x="701" 
d="M349 1263q-64 0 -104 30t-58 76t-18 93h74q5 -63 34.5 -92.5t71.5 -29.5q43 0 72.5 29.5t33.5 92.5h75q0 -47 -18.5 -93t-58 -76t-104.5 -30z" />
    <glyph glyph-name="dotaccent" unicode="&#x2d9;" horiz-adv-x="664" 
d="M313 1304q-38 0 -65.5 28t-27.5 64q0 38 27.5 66t65.5 28q35 0 62.5 -28t27.5 -66q0 -36 -27.5 -64t-62.5 -28z" />
    <glyph glyph-name="ring" unicode="&#x2da;" horiz-adv-x="490" 
d="M252 1144q-44 0 -78 32.5t-34 85.5q0 55 34 86.5t78 31.5q42 0 75.5 -31.5t33.5 -86.5q0 -53 -33.5 -85.5t-75.5 -32.5zM252 1205q23 0 33.5 18.5t10.5 40.5q0 18 -10.5 36.5t-33.5 18.5q-25 0 -35.5 -18.5t-10.5 -36.5q0 -22 10.5 -40.5t35.5 -18.5z" />
    <glyph glyph-name="ogonek" unicode="&#x2db;" horiz-adv-x="650" 
d="M346 -308q-45 0 -83 14.5t-60.5 45.5t-22.5 79q0 55 25 93t58 62.5t58 38.5l31 -25q-23 -27 -41 -58.5t-18 -79.5q0 -41 29.5 -55.5t54.5 -14.5q26 0 49 7t39 17l37 -70q-25 -24 -66.5 -39t-89.5 -15z" />
    <glyph glyph-name="tilde" unicode="&#x2dc;" horiz-adv-x="710" 
d="M435 1289q-41 0 -67 13.5t-46.5 26.5t-42.5 13q-34 0 -52.5 -14t-23.5 -22l-75 27q6 18 25 43t47.5 44t62.5 19q45 0 70 -12.5t44.5 -26t50.5 -13.5q35 0 49.5 13.5t18.5 24.5l74 -30q-3 -13 -21.5 -38t-47 -46.5t-66.5 -21.5z" />
    <glyph glyph-name="hungarumlaut" unicode="&#x2dd;" horiz-adv-x="970" 
d="M322 1219l-55 56l130 151q20 32 44.5 33.5t40.5 -15t15 -41t-33 -46.5zM514 1219l-54 56l127 151q21 32 45.5 33.5t41 -15t15 -41t-31.5 -46.5z" />
    <glyph glyph-name="gravecomb" unicode="&#x300;" 
d="M365 1105l-209 100q-30 15 -44.5 30t-14.5 43q0 24 18 39.5t45 15.5q21 0 35.5 -8t29.5 -20l182 -151z" />
    <glyph glyph-name="acutecomb" unicode="&#x301;" 
d="M210 1093l-57 61l190 144q15 11 29.5 18t27.5 7q18 0 32.5 -10t21.5 -24q8 -13 8 -28q0 -19 -13 -36t-41 -28z" />
    <glyph glyph-name="uni0302" unicode="&#x302;" 
d="M165 1118l148 203h70l146 -203h-90l-92 130l-92 -130h-90z" />
    <glyph glyph-name="tildecomb" unicode="&#x303;" 
d="M435 1142q-41 0 -66.5 13.5t-45.5 26.5t-42 13q-35 0 -52.5 -14t-22.5 -23l-76 29q6 18 24.5 42.5t46.5 43.5t62 19q45 0 69.5 -12.5t44.5 -25.5t50 -13q34 0 48.5 13.5t19.5 23.5l73 -31q-3 -13 -20.5 -37.5t-46 -46t-66.5 -21.5z" />
    <glyph glyph-name="uni0304" unicode="&#x304;" 
d="M272 1140v75h541v-75h-541z" />
    <glyph glyph-name="uni0306" unicode="&#x306;" 
d="M347 1103q-64 0 -104 30t-58 76t-18 93h74q5 -63 34.5 -92.5t71.5 -29.5q43 0 72.5 29.5t33.5 92.5h75q0 -47 -18.5 -93t-58 -76t-104.5 -30z" />
    <glyph glyph-name="uni0307" unicode="&#x307;" 
d="M309 1139q-38 0 -65.5 27.5t-27.5 64.5q0 38 27.5 66t65.5 28q35 0 62.5 -28t27.5 -66q0 -37 -27.5 -64.5t-62.5 -27.5z" />
    <glyph glyph-name="uni0308" unicode="&#x308;" 
d="M528 1134q-38 0 -65.5 28t-27.5 64q0 39 27.5 67.5t65.5 28.5q36 0 64 -28.5t28 -67.5q0 -36 -28 -64t-64 -28zM276 1134q-36 0 -63 28t-27 64q0 39 27 67.5t63 28.5q39 0 66 -28.5t27 -67.5q0 -36 -27 -64t-66 -28z" />
    <glyph glyph-name="hookabovecomb" unicode="&#x309;" 
d="M296 1417q59 0 102.5 -23.5t43.5 -87.5q0 -44 -27 -71t-54.5 -48.5t-27.5 -49.5h-62q0 42 14.5 69t28.5 48.5t14 46.5q0 26 -12 36.5t-36 10.5q-25 0 -41.5 -7t-30.5 -20l-51 47q19 20 56.5 34.5t82.5 14.5z" />
    <glyph glyph-name="uni030A" unicode="&#x30a;" 
d="M252 1099q-44 0 -78 32.5t-34 85.5q0 55 34 86.5t78 31.5q42 0 75.5 -31.5t33.5 -86.5q0 -53 -33.5 -85.5t-75.5 -32.5zM252 1160q23 0 33.5 18t10.5 41q0 18 -10.5 36t-33.5 18q-25 0 -35.5 -18t-10.5 -36q0 -23 10.5 -41t35.5 -18z" />
    <glyph glyph-name="uni030B" unicode="&#x30b;" 
d="M322 1114l-55 56l129 151q14 16 26 24.5t25 8.5q20 0 35 -14.5t15 -35.5q0 -29 -33 -52zM514 1114l-54 56l126 151q14 17 27 25t26 8q20 0 34.5 -15t14.5 -35q0 -30 -31 -52z" />
    <glyph glyph-name="uni030C" unicode="&#x30c;" 
d="M314 1109l-172 226h99l107 -153l107 153h101l-172 -226h-70z" />
    <glyph glyph-name="uni030F" unicode="&#x30f;" 
d="M452 1103l-162 165q-17 17 -26.5 32t-9.5 32q0 28 17.5 44.5t41.5 16.5q29 0 47 -16.5t30 -37.5l118 -205zM242 1103l-163 165q-18 18 -26.5 32.5t-8.5 31.5q0 28 17.5 44.5t41.5 16.5q28 0 46 -16.5t31 -37.5l118 -205z" />
    <glyph glyph-name="uni0311" unicode="&#x311;" 
d="M344 1317q65 0 104.5 -30t58 -76t18.5 -93h-75q-4 63 -33.5 92t-72.5 29t-72 -29t-34 -92h-74q0 47 18 93t58 76t104 30z" />
    <glyph glyph-name="uni0312" unicode="&#x312;" 
d="M256 1377l43 -41q-11 -4 -37.5 -25.5t-33.5 -38.5q6 6 18 6q35 0 60 -24.5t25 -60.5q0 -35 -25 -60t-60 -25q-39 0 -67 24.5t-28 72.5q0 49 18.5 82.5t43 55.5t43.5 34z" />
    <glyph glyph-name="uni031B" unicode="&#x31b;" 
d="M236 971v75q43 0 78.5 11t35.5 57q0 19 -9.5 44t-9.5 47q0 35 18.5 56t55.5 21t55 -20.5t18 -56.5q0 -92 -40 -143t-96 -71t-106 -20z" />
    <glyph glyph-name="dotbelowcomb" unicode="&#x323;" 
d="M309 -273q-38 0 -65.5 28t-27.5 64q0 38 27.5 66t65.5 28q35 0 62.5 -28t27.5 -66q0 -36 -27.5 -64t-62.5 -28z" />
    <glyph glyph-name="uni0324" unicode="&#x324;" 
d="M433 -270q-38 0 -65.5 28t-27.5 64q0 39 27.5 67.5t65.5 28.5q36 0 64 -28.5t28 -67.5q0 -36 -28 -64t-64 -28zM181 -270q-36 0 -63 28t-27 64q0 39 27 67.5t63 28.5q38 0 65.5 -28.5t27.5 -67.5q0 -36 -27.5 -64t-65.5 -28z" />
    <glyph glyph-name="uni0326" unicode="&#x326;" 
d="M208 -369l-42 49q11 4 34 19.5t30 32.5q-3 -2 -12 -2q-35 0 -60 24.5t-25 60.5t25 60.5t60 24.5q39 0 67 -24.5t28 -72.5t-19 -82t-43.5 -55.5t-42.5 -34.5z" />
    <glyph glyph-name="uni0327" unicode="&#x327;" 
d="M305 -329q-48 0 -93 11.5t-60 19.5l29 72q11 -7 45.5 -18.5t67.5 -11.5q31 0 52 16.5t21 44.5q0 32 -13 42.5t-33 10.5q-16 0 -30 -6t-24 -20l-71 4l60 164h75l-42 -108q5 6 30 16t61 10q40 0 75 -25t35 -89q0 -42 -23 -72t-64.5 -45.5t-97.5 -15.5z" />
    <glyph glyph-name="uni0328" unicode="&#x328;" 
d="M346 -308q-45 0 -83 14.5t-60.5 45.5t-22.5 79q0 55 25 93t58 62.5t58 38.5l31 -25q-23 -27 -41 -58.5t-18 -79.5q0 -41 29.5 -55.5t54.5 -14.5q26 0 49 7t39 17l37 -70q-25 -24 -66.5 -39t-89.5 -15z" />
    <glyph glyph-name="uni032E" unicode="&#x32e;" 
d="M271 -305q-64 0 -104 30t-58 76t-18 94h74q5 -64 34 -93t72 -29t72.5 29t33.5 93h75q0 -48 -18.5 -94t-58 -76t-104.5 -30z" />
    <glyph glyph-name="uni0331" unicode="&#x331;" 
d="M224 -205v58h604v-58h-604z" />
    <glyph glyph-name="uni0335" unicode="&#x335;" 
d="M105 525v75h522v-75h-522z" />
    <glyph glyph-name="uni0336" unicode="&#x336;" 
d="M105 525v75h522v-75h-522z" />
    <glyph glyph-name="uni0337" unicode="&#x337;" 
d="M36 -104l492 1608h77l-490 -1608h-79z" />
    <glyph glyph-name="uni0338" unicode="&#x338;" 
d="M36 -104l492 1608h77l-490 -1608h-79z" />
    <glyph glyph-name="uni1E05" unicode="&#x1e05;" horiz-adv-x="891" 
d="M521 -20q-52 0 -84 23.5t-47.5 54t-18.5 52.5l-25 -110h-331v75h102v1350h-102v75h377v-538q3 10 17 34t45.5 44.5t83.5 20.5q73 0 138.5 -56t107 -176t41.5 -311q0 -208 -44 -325t-113.5 -165t-146.5 -48zM464 123q25 0 42.5 26.5t28 77.5t15 123.5t4.5 164.5
q0 93 -4.5 165.5t-15 123.5t-27.5 77.5t-43 26.5q-20 0 -35 -21.5t-24.5 -60t-12.5 -90.5v-373q0 -65 11 -120t27.5 -87.5t33.5 -32.5zM440 -273q-38 0 -65.5 28t-27.5 64q0 38 27.5 66t65.5 28q35 0 62.5 -28t27.5 -66q0 -36 -27.5 -64t-62.5 -28z" />
    <glyph glyph-name="uni1E08" unicode="&#x1e08;" horiz-adv-x="752" 
d="M444 -20q-169 0 -273.5 187t-104.5 531q0 136 24 265.5t72 233t121 164.5t171 61q69 0 122.5 -44t83.5 -109t30 -127q0 -61 -24.5 -102t-78.5 -41q-60 0 -84 33t-24 88q0 38 17 63t34 48t17 55t-12 44.5t-33 12.5q-35 0 -60 -43t-42 -114t-27 -156.5t-14.5 -171.5
t-4.5 -158q0 -107 5.5 -203.5t16 -177t26.5 -139.5t37.5 -92t48.5 -33q37 0 60.5 20.5t38.5 56t26 82.5l62 -38q-20 -58 -49.5 -102.5t-73.5 -69t-108 -24.5zM458 -329q-48 0 -93.5 11.5t-60.5 19.5l29 72q11 -7 45.5 -18.5t67.5 -11.5q31 0 52.5 16.5t21.5 44.5
q0 32 -13.5 42.5t-33.5 10.5q-16 0 -29.5 -6t-24.5 -20l-70 4l59 164h75l-41 -108q4 6 29 16t61 10q40 0 75 -25t35 -89q0 -42 -23 -72t-64.5 -45.5t-96.5 -15.5zM335 1461l-57 60l190 144q15 11 29.5 18t27.5 7q18 0 32.5 -10t21.5 -23q8 -13 8 -29q0 -18 -13 -35t-41 -28z
" />
    <glyph glyph-name="uni1E09" unicode="&#x1e09;" horiz-adv-x="724" 
d="M320 1087l-57 61l190 144q15 11 29.5 18t27.5 7q18 0 32.5 -10t21.5 -24q8 -13 8 -28q0 -19 -13 -36t-41 -28zM418 -22q-71 0 -136.5 35.5t-117 105t-81 172t-29.5 237.5q0 148 38 250t96.5 164t123 90.5t115.5 28.5q80 0 137.5 -40.5t89 -106.5t31.5 -142
q0 -67 -29.5 -103t-75.5 -36q-47 0 -77 30.5t-30 83.5q0 34 14 55.5t27.5 42.5t13.5 51q0 46 -25.5 67t-57.5 21q-37 0 -59 -44t-33.5 -113t-15 -147t-3.5 -144q0 -81 5 -164.5t19 -153t40.5 -112.5t69.5 -43q59 0 91 35.5t46 77.5l58 -50q-23 -57 -84.5 -102.5
t-160.5 -45.5zM457 -329q-48 0 -93 11.5t-60 19.5l28 72q11 -7 45.5 -18.5t67.5 -11.5q32 0 53 16.5t21 44.5q0 32 -13.5 42.5t-33.5 10.5q-16 0 -29.5 -6t-24.5 -20l-70 4l60 164h74l-41 -108q4 7 29 16.5t61 9.5q40 0 75 -25t35 -88q0 -43 -23 -73t-64.5 -45.5
t-96.5 -15.5z" />
    <glyph glyph-name="uni1E0D" unicode="&#x1e0d;" horiz-adv-x="900" 
d="M367 -20q-77 0 -147 48t-115 165t-45 325q0 191 42.5 311t109 176t137.5 56q58 0 89 -18t43.5 -40t14.5 -32v452h-120v77h397v-1425h116v-75h-345l-27 112q-1 -27 -19 -58t-50.5 -52.5t-80.5 -21.5zM420 123q23 0 40 32.5t26.5 84.5t9.5 110v386q-2 52 -11.5 91.5
t-25.5 62t-38 22.5q-21 0 -37.5 -27.5t-28 -79t-18 -125t-6.5 -165.5q0 -90 5.5 -162.5t16.5 -123.5t27.5 -78.5t39.5 -27.5zM452 -273q-38 0 -65.5 28t-27.5 64q0 38 27.5 66t65.5 28q35 0 62.5 -28t27.5 -66q0 -36 -27.5 -64t-62.5 -28z" />
    <glyph glyph-name="uni1E0F" unicode="&#x1e0f;" horiz-adv-x="900" 
d="M367 -20q-77 0 -147 48t-115 165t-45 325q0 191 42.5 311t109 176t137.5 56q58 0 89 -18t43.5 -40t14.5 -32v452h-120v77h397v-1425h116v-75h-345l-27 112q-1 -27 -19 -58t-50.5 -52.5t-80.5 -21.5zM420 123q23 0 40 32.5t26.5 84.5t9.5 110v386q-2 52 -11.5 91.5
t-25.5 62t-38 22.5q-21 0 -37.5 -27.5t-28 -79t-18 -125t-6.5 -165.5q0 -90 5.5 -162.5t16.5 -123.5t27.5 -78.5t39.5 -27.5zM130 -249v75h541v-75h-541z" />
    <glyph glyph-name="uni1E15" unicode="&#x1e15;" horiz-adv-x="810" 
d="M426 -20q-80 0 -148 33.5t-118 101.5t-77.5 171t-27.5 241q0 145 34 247t89.5 165.5t119.5 92.5t122 29q70 0 131 -33t106.5 -94t71.5 -146.5t26 -191.5q0 -20 -0.5 -40t-2.5 -41h-441v75h187q0 155 -9 240.5t-26.5 120t-42.5 34.5t-47 -35.5t-35 -128.5t-13 -267
q0 -130 7.5 -223t24 -151.5t42 -86t63.5 -27.5q75 0 120 37.5t64 75.5l63 -47q-25 -56 -101.5 -104t-181.5 -48zM145 1141v75h541v-75h-541zM518 1276l-209 100q-30 15 -44.5 30t-14.5 43q0 24 18 39.5t45 15.5q21 0 35.5 -8t29.5 -20l182 -151z" />
    <glyph glyph-name="uni1E17" unicode="&#x1e17;" horiz-adv-x="810" 
d="M426 -20q-80 0 -148 33.5t-118 101.5t-77.5 171t-27.5 241q0 145 34 247t89.5 165.5t119.5 92.5t122 29q70 0 131 -33t106.5 -94t71.5 -146.5t26 -191.5q0 -20 -0.5 -40t-2.5 -41h-441v75h187q0 155 -9 240.5t-26.5 120t-42.5 34.5t-47 -35.5t-35 -128.5t-13 -267
q0 -130 7.5 -223t24 -151.5t42 -86t63.5 -27.5q75 0 120 37.5t64 75.5l63 -47q-25 -56 -101.5 -104t-181.5 -48zM145 1141v75h541v-75h-541zM312 1258l-57 61l190 144q15 11 29.5 18t27.5 7q18 0 32.5 -10t21.5 -24q8 -13 8 -28q0 -19 -13 -36t-41 -28z" />
    <glyph glyph-name="uni1E1D" unicode="&#x1e1d;" horiz-adv-x="810" 
d="M413 1104q-64 0 -104 30t-58 76t-18 93h74q5 -63 34.5 -92.5t71.5 -29.5q43 0 72.5 29.5t33.5 92.5h75q0 -47 -18.5 -93t-58 -76t-104.5 -30zM426 -20q-80 0 -148 33.5t-118 101.5t-77.5 171t-27.5 241q0 145 34 247t89.5 165.5t119.5 92.5t122 29q70 0 131 -33.5
t106.5 -97.5t71.5 -156.5t26 -211.5q0 -20 -0.5 -40t-2.5 -41h-441v75h187q0 155 -9 249t-26.5 137t-42.5 43t-47 -44t-35 -145t-13 -275q0 -130 7.5 -219t24 -142.5t42 -77.5t63.5 -24q75 0 120 41.5t64 79.5l63 -47q-25 -56 -101.5 -104t-181.5 -48zM474 -329
q-48 0 -93 11.5t-60 19.5l29 72q11 -7 45.5 -18.5t67.5 -11.5q31 0 52 16.5t21 44.5q0 32 -13 42.5t-33 10.5q-16 0 -30 -6t-24 -20l-71 4l60 164h75l-42 -108q5 6 30 16t61 10q40 0 75 -25t35 -89q0 -42 -23 -72t-64.5 -45.5t-97.5 -15.5z" />
    <glyph glyph-name="uni1E21" unicode="&#x1e21;" horiz-adv-x="887" 
d="M430 -498q-91 0 -178.5 27.5t-144.5 86t-57 151.5q0 67 27 112t64 71t67.5 38t37.5 13q-7 2 -30.5 11t-51 29t-47.5 53.5t-20 83.5q0 35 13 61t33.5 43t39.5 23q5 2 13 4t10 2q-5 3 -24.5 22t-43 57t-41.5 100t-18 150q0 119 36 199.5t91 129.5t115 70.5t109 21.5
q108 0 185.5 -51.5t119.5 -144t42 -214.5q0 -132 -35.5 -215t-91 -127.5t-115 -61t-107.5 -16.5q-62 0 -100 12t-48 16h-1.5h-1.5q-12 0 -24.5 -12.5t-12.5 -36.5q0 -35 51.5 -61.5t190.5 -53.5q157 -28 247 -96.5t90 -208.5q0 -86 -39.5 -142.5t-100.5 -88t-128 -44.5
t-121 -13zM430 -425q66 0 106 49.5t40 112.5t-17.5 100t-68.5 68q-19 12 -44.5 25t-49.5 23t-38 14q-17 -8 -37 -32.5t-34.5 -65t-14.5 -99.5q0 -60 18.5 -103.5t54 -67.5t85.5 -24zM428 309q21 0 39 21.5t29.5 93.5t11.5 223q0 144 -11.5 215.5t-30 95.5t-38.5 24t-38 -24
t-29.5 -96.5t-11.5 -217.5q0 -151 12 -222t30 -92t37 -21zM557 980q12 76 70.5 119.5t126.5 43.5q56 0 79 -28t23 -70q0 -41 -22.5 -63t-56.5 -22q-35 0 -49.5 16t-24.5 31t-34 15q-12 0 -23 -8t-11 -34h-78zM159 1141v75h541v-75h-541z" />
    <glyph glyph-name="uni1E25" unicode="&#x1e25;" horiz-adv-x="948" 
d="M32 0v75h103v1350h-103v75h373v-539q1 5 21.5 30t61.5 48t103 23q67 0 120 -32t84 -106.5t31 -201.5v-647h103v-75h-440v75h67v637q0 112 -15.5 153.5t-45.5 41.5q-21 0 -41 -18t-33.5 -56t-15.5 -98v-660h71v-75h-444zM476 -273q-38 0 -65.5 28t-27.5 64q0 38 27.5 66
t65.5 28q35 0 62.5 -28t27.5 -66q0 -36 -27.5 -64t-62.5 -28z" />
    <glyph glyph-name="uni1E2B" unicode="&#x1e2b;" horiz-adv-x="948" 
d="M32 0v75h103v1350h-103v75h373v-539q1 5 21.5 30t61.5 48t103 23q67 0 120 -32t84 -106.5t31 -201.5v-647h103v-75h-440v75h67v637q0 112 -15.5 153.5t-45.5 41.5q-21 0 -41 -18t-33.5 -56t-15.5 -98v-660h71v-75h-444zM476 -305q-64 0 -104 30t-58 76t-18 94h74
q5 -64 34 -93t72 -29t72.5 29t33.5 93h75q0 -48 -18.5 -94t-58 -76t-104.5 -30z" />
    <glyph glyph-name="uni1E2F" unicode="&#x1e2f;" horiz-adv-x="522" 
d="M26 0v75h100v897h-100v75h370v-972h100v-75h-470zM387 1134q-38 0 -65.5 28t-27.5 64q0 39 27.5 67.5t65.5 28.5q36 0 64 -28.5t28 -67.5q0 -36 -28 -64t-64 -28zM135 1134q-36 0 -63 28t-27 64q0 39 27 67.5t63 28.5q39 0 66 -28.5t27 -67.5q0 -36 -27 -64t-66 -28z
M159 1362l-57 61l190 144q15 11 29.5 18t27.5 7q18 0 32.5 -10t21.5 -24q8 -13 8 -28q0 -19 -13 -36t-41 -28z" />
    <glyph glyph-name="uni1E37" unicode="&#x1e37;" horiz-adv-x="543" 
d="M30 0v75h107v1350h-107v75h377v-1425h107v-75h-484zM274 -273q-38 0 -65.5 28t-27.5 64q0 38 27.5 66t65.5 28q35 0 62.5 -28t27.5 -66q0 -36 -27.5 -64t-62.5 -28z" />
    <glyph glyph-name="uni1E3B" unicode="&#x1e3b;" horiz-adv-x="543" 
d="M30 0v75h107v1350h-107v75h377v-1425h107v-75h-484zM-29 -205v58h604v-58h-604z" />
    <glyph glyph-name="uni1E3F" unicode="&#x1e3f;" horiz-adv-x="1303" 
d="M27 0v75h97v897h-97v75h360v-110q0 14 21.5 44t64 55t105.5 25q60 0 99.5 -27t60.5 -61.5t26 -56.5q6 28 35.5 61.5t77 58.5t107.5 25q97 0 156 -74t59 -197v-715h94v-75h-428v75h64v628q0 78 -4 126t-16.5 71t-38.5 23q-27 0 -43 -22t-24.5 -62.5t-10.5 -95.5v-668h66
v-75h-394v75h62v628q0 116 -9 168t-48 52q-26 0 -43 -22.5t-24 -66.5t-8 -107v-652h62v-75h-429zM561 1087l-57 61l190 144q15 11 29.5 18t27.5 7q18 0 32.5 -10t21.5 -24q8 -13 8 -28q0 -19 -13 -36t-41 -28z" />
    <glyph glyph-name="uni1E43" unicode="&#x1e43;" horiz-adv-x="1303" 
d="M27 0v75h97v897h-97v75h360v-110q0 14 21.5 44t64 55t105.5 25q60 0 99.5 -27t60.5 -61.5t26 -56.5q6 28 35.5 61.5t77 58.5t107.5 25q97 0 156 -74t59 -197v-715h94v-75h-428v75h64v628q0 78 -4 126t-16.5 71t-38.5 23q-27 0 -43 -22t-24.5 -62.5t-10.5 -95.5v-668h66
v-75h-394v75h62v628q0 116 -9 168t-48 52q-26 0 -43 -22.5t-24 -66.5t-8 -107v-652h62v-75h-429zM665 -273q-38 0 -65.5 28t-27.5 64q0 38 27.5 66t65.5 28q35 0 62.5 -28t27.5 -66q0 -36 -27.5 -64t-62.5 -28z" />
    <glyph glyph-name="uni1E45" unicode="&#x1e45;" horiz-adv-x="943" 
d="M32 0v75h106v897h-106v75h369v-100q3 12 24 39.5t61.5 51t99.5 23.5q66 0 119 -28t83.5 -100.5t30.5 -208.5v-649h105v-75h-443v75h68v648q0 102 -13 150.5t-46 48.5q-17 0 -31.5 -12t-25 -35.5t-17 -56.5t-8.5 -75v-668h65v-75h-441zM483 1140q-38 0 -65.5 27.5
t-27.5 64.5q0 38 27.5 66t65.5 28q35 0 62.5 -28t27.5 -66q0 -37 -27.5 -64.5t-62.5 -27.5z" />
    <glyph glyph-name="uni1E47" unicode="&#x1e47;" horiz-adv-x="943" 
d="M32 0v75h106v897h-106v75h369v-100q3 12 24 39.5t61.5 51t99.5 23.5q66 0 119 -28t83.5 -100.5t30.5 -208.5v-649h105v-75h-443v75h68v648q0 102 -13 150.5t-46 48.5q-17 0 -31.5 -12t-25 -35.5t-17 -56.5t-8.5 -75v-668h65v-75h-441zM483 -273q-38 0 -65.5 28t-27.5 64
q0 38 27.5 66t65.5 28q35 0 62.5 -28t27.5 -66q0 -36 -27.5 -64t-62.5 -28z" />
    <glyph glyph-name="uni1E49" unicode="&#x1e49;" horiz-adv-x="943" 
d="M32 0v75h106v897h-106v75h369v-100q3 12 24 39.5t61.5 51t99.5 23.5q66 0 119 -28t83.5 -100.5t30.5 -208.5v-649h105v-75h-443v75h68v648q0 102 -13 150.5t-46 48.5q-17 0 -31.5 -12t-25 -35.5t-17 -56.5t-8.5 -75v-668h65v-75h-441zM179 -205v58h604v-58h-604z" />
    <glyph glyph-name="uni1E4D" unicode="&#x1e4d;" horiz-adv-x="823" 
d="M410 -22q-62 0 -124.5 33t-115 101t-84 171.5t-31.5 243.5q0 152 33 255t86 164.5t115 88t121 26.5q58 0 120.5 -26.5t116 -88t87 -164.5t33.5 -255q0 -140 -32 -243.5t-84.5 -171.5t-115.5 -101t-125 -33zM410 65q41 0 63 108.5t22 353.5t-22 347t-63 102
q-39 0 -61 -102t-22 -347t22 -353.5t61 -108.5zM496 1143q-41 0 -66.5 13.5t-45.5 26.5t-42 13q-35 0 -52.5 -14t-22.5 -23l-76 29q6 18 24.5 42.5t46.5 43.5t62 19q45 0 69.5 -12.5t44.5 -25.5t50 -13q34 0 48.5 13.5t19.5 23.5l73 -31q-3 -13 -20.5 -37.5t-46 -46
t-66.5 -21.5zM307 1334l-57 61l190 144q15 11 29.5 18t27.5 7q18 0 32.5 -10t21.5 -24q8 -13 8 -28q0 -19 -13 -36t-41 -28z" />
    <glyph glyph-name="uni1E4F" unicode="&#x1e4f;" horiz-adv-x="823" 
d="M410 -22q-62 0 -124.5 33t-115 101t-84 171.5t-31.5 243.5q0 152 33 255t86 164.5t115 88t121 26.5q58 0 120.5 -26.5t116 -88t87 -164.5t33.5 -255q0 -140 -32 -243.5t-84.5 -171.5t-115.5 -101t-125 -33zM410 65q41 0 63 108.5t22 353.5t-22 347t-63 102
q-39 0 -61 -102t-22 -347t22 -353.5t61 -108.5zM496 1143q-41 0 -66.5 13.5t-45.5 26.5t-42 13q-35 0 -52.5 -14t-22.5 -23l-76 29q6 18 24.5 42.5t46.5 43.5t62 19q45 0 69.5 -12.5t44.5 -25.5t50 -13q34 0 48.5 13.5t19.5 23.5l73 -31q-3 -13 -20.5 -37.5t-46 -46
t-66.5 -21.5zM535 1382q-38 0 -65.5 28t-27.5 64q0 39 27.5 67.5t65.5 28.5q36 0 64 -28.5t28 -67.5q0 -36 -28 -64t-64 -28zM283 1382q-36 0 -63 28t-27 64q0 39 27 67.5t63 28.5q39 0 66 -28.5t27 -67.5q0 -36 -27 -64t-66 -28z" />
    <glyph glyph-name="uni1E51" unicode="&#x1e51;" horiz-adv-x="823" 
d="M410 -22q-62 0 -124.5 33t-115 101t-84 171.5t-31.5 243.5q0 152 33 255t86 164.5t115 88t121 26.5q58 0 120.5 -26.5t116 -88t87 -164.5t33.5 -255q0 -140 -32 -243.5t-84.5 -171.5t-115.5 -101t-125 -33zM410 65q41 0 63 108.5t22 353.5t-22 347t-63 102
q-39 0 -61 -102t-22 -347t22 -353.5t61 -108.5zM164 1141v75h492v-75h-492zM513 1276l-209 100q-30 15 -44.5 30t-14.5 43q0 24 18 39.5t45 15.5q21 0 35.5 -8t29.5 -20l182 -151z" />
    <glyph glyph-name="uni1E53" unicode="&#x1e53;" horiz-adv-x="823" 
d="M410 -22q-62 0 -124.5 33t-115 101t-84 171.5t-31.5 243.5q0 152 33 255t86 164.5t115 88t121 26.5q58 0 120.5 -26.5t116 -88t87 -164.5t33.5 -255q0 -140 -32 -243.5t-84.5 -171.5t-115.5 -101t-125 -33zM410 65q41 0 63 108.5t22 353.5t-22 347t-63 102
q-39 0 -61 -102t-22 -347t22 -353.5t61 -108.5zM164 1141v75h492v-75h-492zM307 1258l-57 61l190 144q15 11 29.5 18t27.5 7q18 0 32.5 -10t21.5 -24q8 -13 8 -28q0 -19 -13 -36t-41 -28z" />
    <glyph glyph-name="uni1E5B" unicode="&#x1e5b;" horiz-adv-x="752" 
d="M26 0v75h107v897h-107v75h351l16 -88q6 16 26 40.5t53 43t73 18.5q61 0 100.5 -38t59 -102.5t19.5 -141.5q0 -71 -28.5 -108.5t-76.5 -37.5q-45 0 -72.5 32t-27.5 88q0 38 15.5 60t31 42.5t15.5 53.5q0 35 -12.5 51t-42.5 16q-27 0 -56 -28.5t-48 -86t-19 -144.5v-642
h105v-75h-482zM302 -273q-38 0 -65.5 28t-27.5 64q0 38 27.5 66t65.5 28q35 0 62.5 -28t27.5 -66q0 -36 -27.5 -64t-62.5 -28z" />
    <glyph glyph-name="uni1E5F" unicode="&#x1e5f;" horiz-adv-x="752" 
d="M26 0v75h107v897h-107v75h351l16 -88q6 16 26 40.5t53 43t73 18.5q61 0 100.5 -38t59 -102.5t19.5 -141.5q0 -71 -28.5 -108.5t-76.5 -37.5q-45 0 -72.5 32t-27.5 88q0 38 15.5 60t31 42.5t15.5 53.5q0 35 -12.5 51t-42.5 16q-27 0 -56 -28.5t-48 -86t-19 -144.5v-642
h105v-75h-482zM-2 -205v58h604v-58h-604z" />
    <glyph glyph-name="uni1E61" unicode="&#x1e61;" horiz-adv-x="631" 
d="M321 -22q-59 0 -91 15t-49 30t-34 15q-15 0 -20.5 -9.5t-5.5 -28.5h-70v337h83q6 -51 21.5 -101.5t39.5 -91.5t55.5 -66t68.5 -25q31 0 50.5 11t28.5 31.5t9 48.5q0 40 -19.5 80t-54.5 83.5t-82 90.5q-83 85 -141 174t-58 218q0 97 38 156.5t98 87t125 27.5
q46 0 73.5 -12.5t44.5 -25t29 -12.5q10 0 15.5 7.5t6.5 28.5h71v-328h-82q-4 42 -15 88.5t-30 86.5t-46 65.5t-62 25.5q-48 0 -71 -35.5t-23 -80.5q0 -54 41.5 -105.5t113.5 -118.5q51 -48 97.5 -104.5t75.5 -127t29 -160.5q0 -100 -33 -160.5t-92 -87.5t-135 -27zM332 1140
q-38 0 -65.5 27.5t-27.5 64.5q0 38 27.5 66t65.5 28q35 0 62.5 -28t27.5 -66q0 -37 -27.5 -64.5t-62.5 -27.5z" />
    <glyph glyph-name="uni1E63" unicode="&#x1e63;" horiz-adv-x="631" 
d="M321 -22q-59 0 -91 15t-49 30t-34 15q-15 0 -20.5 -9.5t-5.5 -28.5h-70v337h83q6 -51 21.5 -101.5t39.5 -91.5t55.5 -66t68.5 -25q31 0 50.5 11t28.5 31.5t9 48.5q0 40 -19.5 80t-54.5 83.5t-82 90.5q-83 85 -141 174t-58 218q0 97 38 156.5t98 87t125 27.5
q46 0 73.5 -12.5t44.5 -25t29 -12.5q10 0 15.5 7.5t6.5 28.5h71v-328h-82q-4 42 -15 88.5t-30 86.5t-46 65.5t-62 25.5q-48 0 -71 -35.5t-23 -80.5q0 -54 41.5 -105.5t113.5 -118.5q51 -48 97.5 -104.5t75.5 -127t29 -160.5q0 -100 -33 -160.5t-92 -87.5t-135 -27zM331 -273
q-38 0 -65.5 28t-27.5 64q0 38 27.5 66t65.5 28q35 0 62.5 -28t27.5 -66q0 -36 -27.5 -64t-62.5 -28z" />
    <glyph glyph-name="uni1E65" unicode="&#x1e65;" horiz-adv-x="631" 
d="M321 -22q-59 0 -91 15t-49 30t-34 15q-15 0 -20.5 -9.5t-5.5 -28.5h-70v337h83q6 -51 21.5 -101.5t39.5 -91.5t55.5 -66t68.5 -25q31 0 50.5 11t28.5 31.5t9 48.5q0 40 -19.5 80t-54.5 83.5t-82 90.5q-83 85 -141 174t-58 218q0 97 38 156.5t98 87t125 27.5
q46 0 73.5 -12.5t44.5 -25t29 -12.5q10 0 15.5 7.5t6.5 28.5h71v-328h-82q-4 42 -15 88.5t-30 86.5t-46 65.5t-62 25.5q-48 0 -71 -35.5t-23 -80.5q0 -54 41.5 -105.5t113.5 -118.5q51 -48 97.5 -104.5t75.5 -127t29 -160.5q0 -100 -33 -160.5t-92 -87.5t-135 -27zM229 1087
l-57 61l190 144q15 11 29.5 18t27.5 7q18 0 32.5 -10t21.5 -24q8 -13 8 -28q0 -19 -13 -36t-41 -28zM332 1408q-38 0 -65.5 27.5t-27.5 64.5q0 38 27.5 66t65.5 28q35 0 62.5 -28t27.5 -66q0 -37 -27.5 -64.5t-62.5 -27.5z" />
    <glyph glyph-name="uni1E67" unicode="&#x1e67;" horiz-adv-x="631" 
d="M321 -22q-59 0 -91 15t-49 30t-34 15q-15 0 -20.5 -9.5t-5.5 -28.5h-70v337h83q6 -51 21.5 -101.5t39.5 -91.5t55.5 -66t68.5 -25q31 0 50.5 11t28.5 31.5t9 48.5q0 40 -19.5 80t-54.5 83.5t-82 90.5q-83 85 -141 174t-58 218q0 97 38 156.5t98 87t125 27.5
q46 0 73.5 -12.5t44.5 -25t29 -12.5q10 0 15.5 7.5t6.5 28.5h71v-328h-82q-4 42 -15 88.5t-30 86.5t-46 65.5t-62 25.5q-48 0 -71 -35.5t-23 -80.5q0 -54 41.5 -105.5t113.5 -118.5q51 -48 97.5 -104.5t75.5 -127t29 -160.5q0 -100 -33 -160.5t-92 -87.5t-135 -27zM298 1110
l-172 226h99l107 -153l107 153h101l-172 -226h-70zM332 1400q-38 0 -65.5 27.5t-27.5 64.5q0 38 27.5 66t65.5 28q35 0 62.5 -28t27.5 -66q0 -37 -27.5 -64.5t-62.5 -27.5z" />
    <glyph glyph-name="uni1E69" unicode="&#x1e69;" horiz-adv-x="631" 
d="M321 -22q-59 0 -91 15t-49 30t-34 15q-15 0 -20.5 -9.5t-5.5 -28.5h-70v337h83q6 -51 21.5 -101.5t39.5 -91.5t55.5 -66t68.5 -25q31 0 50.5 11t28.5 31.5t9 48.5q0 40 -19.5 80t-54.5 83.5t-82 90.5q-83 85 -141 174t-58 218q0 97 38 156.5t98 87t125 27.5
q46 0 73.5 -12.5t44.5 -25t29 -12.5q10 0 15.5 7.5t6.5 28.5h71v-328h-82q-4 42 -15 88.5t-30 86.5t-46 65.5t-62 25.5q-48 0 -71 -35.5t-23 -80.5q0 -54 41.5 -105.5t113.5 -118.5q51 -48 97.5 -104.5t75.5 -127t29 -160.5q0 -100 -33 -160.5t-92 -87.5t-135 -27zM331 -273
q-38 0 -65.5 28t-27.5 64q0 38 27.5 66t65.5 28q35 0 62.5 -28t27.5 -66q0 -36 -27.5 -64t-62.5 -28zM332 1140q-38 0 -65.5 27.5t-27.5 64.5q0 38 27.5 66t65.5 28q35 0 62.5 -28t27.5 -66q0 -37 -27.5 -64.5t-62.5 -27.5z" />
    <glyph glyph-name="uni1E6D" unicode="&#x1e6d;" horiz-adv-x="596" 
d="M407 -18q-68 0 -128.5 21.5t-98 80.5t-37.5 169v719h-145v75h145q51 5 91 49t65.5 111.5t33.5 143.5h80v-304h166v-75h-166v-835q0 -41 19.5 -56t38.5 -15q18 0 34 7t23 15l42 -60q-28 -21 -67.5 -33.5t-95.5 -12.5zM376 -255q-38 0 -65.5 28t-27.5 64q0 38 27.5 66
t65.5 28q35 0 62.5 -28t27.5 -66q0 -36 -27.5 -64t-62.5 -28z" />
    <glyph glyph-name="uni1E6F" unicode="&#x1e6f;" horiz-adv-x="588" 
d="M70 -185v74h475v-74h-475zM407 -18q-68 0 -128.5 21.5t-98 80.5t-37.5 169v719h-145v75h145q51 5 91 49t65.5 111.5t33.5 143.5h80v-304h166v-75h-166v-835q0 -41 19.5 -56t38.5 -15q18 0 34 7t23 15l42 -60q-28 -21 -67.5 -33.5t-95.5 -12.5z" />
    <glyph glyph-name="uni1E79" unicode="&#x1e79;" horiz-adv-x="916" 
d="M368 -22q-69 0 -125.5 26t-90 97.5t-33.5 208.5v662h-100v74h370v-705q0 -98 5.5 -150.5t19.5 -71.5t39 -19t45 26t31 77.5t11 129.5v639h-87v74h357v-971h86v-75h-323l-16 97q-5 -22 -29 -50t-64.5 -48.5t-95.5 -20.5zM557 1143q-41 0 -66.5 13.5t-45.5 26.5t-42 13
q-35 0 -52.5 -14t-22.5 -23l-76 29q6 18 24.5 42.5t46.5 43.5t62 19q45 0 69.5 -12.5t44.5 -25.5t50 -13q34 0 48.5 13.5t19.5 23.5l73 -31q-3 -13 -20.5 -37.5t-46 -46t-66.5 -21.5zM368 1334l-57 61l190 144q15 11 29.5 18t27.5 7q18 0 32.5 -10t21.5 -24q8 -13 8 -28
q0 -19 -13 -36t-41 -28z" />
    <glyph glyph-name="uni1E7B" unicode="&#x1e7b;" horiz-adv-x="916" 
d="M368 -22q-69 0 -125.5 26t-90 97.5t-33.5 208.5v662h-100v74h370v-705q0 -98 5.5 -150.5t19.5 -71.5t39 -19t45 26t31 77.5t11 129.5v639h-87v74h357v-971h86v-75h-323l-16 97q-5 -22 -29 -50t-64.5 -48.5t-95.5 -20.5zM200 1141v75h541v-75h-541zM596 1305
q-38 0 -65.5 28t-27.5 64q0 39 27.5 67.5t65.5 28.5q36 0 64 -28.5t28 -67.5q0 -36 -28 -64t-64 -28zM344 1305q-36 0 -63 28t-27 64q0 39 27 67.5t63 28.5q39 0 66 -28.5t27 -67.5q0 -36 -27 -64t-66 -28z" />
    <glyph glyph-name="Wgrave" unicode="&#x1e80;" horiz-adv-x="1212" 
d="M338 0l-235 1325h-100v75h477v-75h-60l90 -670l-37 -92l128 692l24 -170l-51 240h-72v75h446v-75h-74l87 -650l-27 -92l121 742h-79v75h242v-75h-81l-225 -1325h-98l-188 1072l40 79l-230 -1151h-98zM747 1449l-209 100q-30 15 -44.5 30t-14.5 43q0 24 18 39.5t45 15.5
q21 0 35.5 -8t29.5 -20l182 -151z" />
    <glyph glyph-name="wgrave" unicode="&#x1e81;" horiz-adv-x="1162" 
d="M744 -1l-198 973h-69v75h423v-75h-72l71 -450l90 450h-58v75h220v-75h-75l-198 -973h-134zM288 -1l-197 973h-77v75h435v-75h-68l64 -450l88 450h-24v75h186v-75h-73l-200 -973h-134zM709 1105l-209 100q-30 15 -44.5 30t-14.5 43q0 24 18 39.5t45 15.5q21 0 35.5 -8
t29.5 -20l182 -151z" />
    <glyph glyph-name="Wacute" unicode="&#x1e82;" horiz-adv-x="1212" 
d="M338 0l-235 1325h-100v75h477v-75h-60l90 -670l-37 -92l128 692l24 -170l-51 240h-72v75h446v-75h-74l87 -650l-27 -92l121 742h-79v75h242v-75h-81l-225 -1325h-98l-188 1072l40 79l-230 -1151h-98zM541 1442l-57 60l190 144q15 11 29.5 18t27.5 7q18 0 32.5 -10
t21.5 -23q8 -13 8 -29q0 -18 -13 -35t-41 -28z" />
    <glyph glyph-name="wacute" unicode="&#x1e83;" horiz-adv-x="1162" 
d="M744 -1l-198 973h-69v75h423v-75h-72l71 -450l90 450h-58v75h220v-75h-75l-198 -973h-134zM288 -1l-197 973h-77v75h435v-75h-68l64 -450l88 450h-24v75h186v-75h-73l-200 -973h-134zM503 1087l-57 61l190 144q15 11 29.5 18t27.5 7q18 0 32.5 -10t21.5 -24q8 -13 8 -28
q0 -19 -13 -36t-41 -28z" />
    <glyph glyph-name="Wdieresis" unicode="&#x1e84;" horiz-adv-x="1212" 
d="M338 0l-235 1325h-100v75h477v-75h-60l90 -670l-37 -92l128 692l24 -170l-51 240h-72v75h446v-75h-74l87 -650l-27 -92l121 742h-79v75h242v-75h-81l-225 -1325h-98l-188 1072l40 79l-230 -1151h-98zM769 1502q-38 0 -65.5 28t-27.5 64q0 39 27.5 67.5t65.5 28.5
q36 0 64 -28.5t28 -67.5q0 -36 -28 -64t-64 -28zM517 1502q-36 0 -63 28t-27 64q0 39 27 67.5t63 28.5q39 0 66 -28.5t27 -67.5q0 -36 -27 -64t-66 -28z" />
    <glyph glyph-name="wdieresis" unicode="&#x1e85;" horiz-adv-x="1162" 
d="M744 -1l-198 973h-69v75h423v-75h-72l71 -450l90 450h-58v75h220v-75h-75l-198 -973h-134zM288 -1l-197 973h-77v75h435v-75h-68l64 -450l88 450h-24v75h186v-75h-73l-200 -973h-134zM731 1134q-38 0 -65.5 28t-27.5 64q0 39 27.5 67.5t65.5 28.5q36 0 64 -28.5t28 -67.5
q0 -36 -28 -64t-64 -28zM479 1134q-36 0 -63 28t-27 64q0 39 27 67.5t63 28.5q39 0 66 -28.5t27 -67.5q0 -36 -27 -64t-66 -28z" />
    <glyph glyph-name="uni1E8F" unicode="&#x1e8f;" horiz-adv-x="750" 
d="M230 -502q-51 0 -88 36.5t-56 98.5t-19 138q0 71 29 107.5t76 36.5q46 0 74 -32t28 -90q0 -45 -18 -72.5t-35.5 -50.5t-17.5 -56q0 -24 10 -39t29 -15q11 0 18.5 6.5t13.5 21.5t12 42l78 353l-272 989h-84v75h450v-75h-79l116 -440l100 440h-74v75h230v-75h-71l-234 -979
l-87 -380q-8 -34 -23.5 -60.5t-40.5 -40.5t-65 -14zM382 1139q-38 0 -65.5 27.5t-27.5 64.5q0 38 27.5 66t65.5 28q35 0 62.5 -28t27.5 -66q0 -37 -27.5 -64.5t-62.5 -27.5z" />
    <glyph glyph-name="uni1E93" unicode="&#x1e93;" horiz-adv-x="705" 
d="M78 0v75l274 897h-90q-51 0 -73.5 -23t-28 -78.5t-5.5 -151.5h-73v328h548v-75l-274 -897h90q51 0 73 24t27 81t5 157h75v-337h-548zM354 -273q-38 0 -65.5 28t-27.5 64q0 38 27.5 66t65.5 28q35 0 62.5 -28t27.5 -66q0 -36 -27.5 -64t-62.5 -28z" />
    <glyph glyph-name="uni1E97" unicode="&#x1e97;" horiz-adv-x="596" 
d="M407 -18q-68 0 -128.5 21.5t-98 80.5t-37.5 169v719h-145v75h145q51 5 91 49t65.5 111.5t33.5 143.5h80v-304h166v-75h-166v-835q0 -41 19.5 -56t38.5 -15q18 0 34 7t23 15l42 -60q-28 -21 -67.5 -33.5t-95.5 -12.5zM427 1391q-38 0 -65.5 28t-27.5 64q0 39 27.5 67.5
t65.5 28.5q36 0 64 -28.5t28 -67.5q0 -36 -28 -64t-64 -28zM175 1391q-36 0 -63 28t-27 64q0 39 27 67.5t63 28.5q39 0 66 -28.5t27 -67.5q0 -36 -27 -64t-66 -28z" />
    <glyph glyph-name="uni1E9E" unicode="&#x1e9e;" horiz-adv-x="1012" 
d="M635 -22q-59 0 -109 41.5t-50 122.5q0 55 24 88.5t63 33.5q36 0 56 -23.5t20 -63.5q0 -31 -10 -48.5t-20.5 -28.5t-10.5 -25q0 -12 8.5 -20.5t22.5 -8.5q34 0 52.5 24t26.5 67t8 100q0 104 -23 178.5t-57 129t-68 100.5t-56.5 91t-22.5 102q0 38 27 91t71 112.5t95 118
t98.5 109t80.5 85.5h-310q-63 0 -91 -38.5t-34.5 -111.5t-6.5 -173v-1031h-375v71h93v867q0 152 52.5 260.5t144 167t207.5 58.5h376l40 -73q-50 -53 -112.5 -122.5t-120 -140t-95.5 -128.5t-38 -90q0 -36 34.5 -71t85.5 -75t101.5 -94t84.5 -129.5t34 -179.5
q0 -122 -42 -198t-110 -110.5t-144 -34.5z" />
    <glyph glyph-name="uni1EA0" unicode="&#x1ea0;" horiz-adv-x="726" 
d="M-3 0v75h81l190 1326h144l229 -1326h93v-75h-459v75h75l-101 726h3l-95 -726h67v-75h-227zM151 249v70h208v-70h-208zM327 -273q-38 0 -65.5 28t-27.5 64q0 38 27.5 66t65.5 28q35 0 62.5 -28t27.5 -66q0 -36 -27.5 -64t-62.5 -28z" />
    <glyph glyph-name="uni1EA1" unicode="&#x1ea1;" horiz-adv-x="860" 
d="M297 -22q-69 0 -125.5 33t-90.5 93t-34 143q0 97 42 160t104 105.5t123.5 75.5t103.5 69.5t42 89.5q0 72 -12.5 123t-38 77t-65.5 26q-47 0 -77 -23.5t-30 -56.5q0 -28 12.5 -48t24.5 -42t12 -60q0 -51 -29 -80.5t-75 -29.5q-48 0 -77.5 40.5t-29.5 111.5
q0 79 41.5 141.5t115.5 98.5t169 36q96 0 170 -38t116.5 -120t42.5 -216v-517q0 -53 8.5 -71t26.5 -18q19 0 32.5 10.5t19.5 18.5l44 -58q-18 -24 -70 -47.5t-122 -23.5q-71 0 -109 19.5t-55 45.5t-23 44q-4 -12 -23 -39t-58.5 -50t-105.5 -23zM390 98q22 0 38.5 20t25 52
t8.5 66v375q-4 -28 -26 -53t-49 -57.5t-47 -84.5t-20 -136q0 -89 19.5 -135.5t50.5 -46.5zM440 -273q-38 0 -65.5 28t-27.5 64q0 38 27.5 66t65.5 28q35 0 62.5 -28t27.5 -66q0 -36 -27.5 -64t-62.5 -28z" />
    <glyph glyph-name="uni1EA2" unicode="&#x1ea2;" horiz-adv-x="726" 
d="M-3 0v75h81l190 1326h144l229 -1326h93v-75h-459v75h75l-101 726h3l-95 -726h67v-75h-227zM151 249v70h208v-70h-208zM336 1747q59 0 102.5 -23.5t43.5 -87.5q0 -44 -27 -71t-54.5 -48.5t-27.5 -49.5h-62q0 42 14.5 69t28.5 48.5t14 46.5q0 26 -12 36.5t-36 10.5
q-25 0 -41.5 -7t-30.5 -20l-51 47q19 20 56.5 34.5t82.5 14.5z" />
    <glyph glyph-name="uni1EA3" unicode="&#x1ea3;" horiz-adv-x="860" 
d="M297 -22q-69 0 -125.5 33t-90.5 93t-34 143q0 97 42 160t104 105.5t123.5 75.5t103.5 69.5t42 89.5q0 72 -12.5 123t-38 77t-65.5 26q-47 0 -77 -23.5t-30 -56.5q0 -28 12.5 -48t24.5 -42t12 -60q0 -51 -29 -80.5t-75 -29.5q-48 0 -77.5 40.5t-29.5 111.5
q0 79 41.5 141.5t115.5 98.5t169 36q96 0 170 -38t116.5 -120t42.5 -216v-517q0 -53 8.5 -71t26.5 -18q19 0 32.5 10.5t19.5 18.5l44 -58q-18 -24 -70 -47.5t-122 -23.5q-71 0 -109 19.5t-55 45.5t-23 44q-4 -12 -23 -39t-58.5 -50t-105.5 -23zM390 98q22 0 38.5 20t25 52
t8.5 66v375q-4 -28 -26 -53t-49 -57.5t-47 -84.5t-20 -136q0 -89 19.5 -135.5t50.5 -46.5zM410 1418q59 0 102.5 -23.5t43.5 -87.5q0 -44 -27 -71t-54.5 -48.5t-27.5 -49.5h-62q0 42 14.5 69t28.5 48.5t14 46.5q0 26 -12 36.5t-36 10.5q-25 0 -41.5 -7t-30.5 -20l-51 47
q19 20 56.5 34.5t82.5 14.5z" />
    <glyph glyph-name="uni1EA4" unicode="&#x1ea4;" horiz-adv-x="726" 
d="M-3 0v75h81l190 1326h144l229 -1326h93v-75h-459v75h75l-101 726h3l-95 -726h67v-75h-227zM151 249v70h208v-70h-208zM161 1471l148 163h70l146 -163h-90l-92 90l-92 -90h-90zM478 1600l-49 51l161 123q27 21 49 21q16 0 27.5 -8.5t18.5 -19.5q7 -13 7 -25
q0 -16 -11.5 -30t-34.5 -24z" />
    <glyph glyph-name="uni1EA5" unicode="&#x1ea5;" horiz-adv-x="860" 
d="M297 -22q-69 0 -125.5 33t-90.5 93t-34 143q0 97 42 160t104 105.5t123.5 75.5t103.5 69.5t42 89.5q0 72 -12.5 123t-38 77t-65.5 26q-47 0 -77 -23.5t-30 -56.5q0 -28 12.5 -48t24.5 -42t12 -60q0 -51 -29 -80.5t-75 -29.5q-48 0 -77.5 40.5t-29.5 111.5
q0 79 41.5 141.5t115.5 98.5t169 36q96 0 170 -38t116.5 -120t42.5 -216v-517q0 -53 8.5 -71t26.5 -18q19 0 32.5 10.5t19.5 18.5l44 -58q-18 -24 -70 -47.5t-122 -23.5q-71 0 -109 19.5t-55 45.5t-23 44q-4 -12 -23 -39t-58.5 -50t-105.5 -23zM390 98q22 0 38.5 20t25 52
t8.5 66v375q-4 -28 -26 -53t-49 -57.5t-47 -84.5t-20 -136q0 -89 19.5 -135.5t50.5 -46.5zM235 1118l148 203h70l146 -203h-90l-92 130l-92 -130h-90zM552 1287l-49 51l161 123q27 21 49 21q16 0 27.5 -8.5t18.5 -19.5q7 -13 7 -25q0 -16 -11.5 -30t-34.5 -24z" />
    <glyph glyph-name="uni1EA6" unicode="&#x1ea6;" horiz-adv-x="726" 
d="M-3 0v75h81l190 1326h144l229 -1326h93v-75h-459v75h75l-101 726h3l-95 -726h67v-75h-227zM151 249v70h208v-70h-208zM161 1471l148 163h70l146 -163h-90l-92 90l-92 -90h-90zM534 1610l-180 86q-25 12 -38 25t-13 37q0 21 15.5 34t39.5 13q17 0 30 -6t26 -17l155 -130z
" />
    <glyph glyph-name="uni1EA7" unicode="&#x1ea7;" horiz-adv-x="860" 
d="M297 -22q-69 0 -125.5 33t-90.5 93t-34 143q0 97 42 160t104 105.5t123.5 75.5t103.5 69.5t42 89.5q0 72 -12.5 123t-38 77t-65.5 26q-47 0 -77 -23.5t-30 -56.5q0 -28 12.5 -48t24.5 -42t12 -60q0 -51 -29 -80.5t-75 -29.5q-48 0 -77.5 40.5t-29.5 111.5
q0 79 41.5 141.5t115.5 98.5t169 36q96 0 170 -38t116.5 -120t42.5 -216v-517q0 -53 8.5 -71t26.5 -18q19 0 32.5 10.5t19.5 18.5l44 -58q-18 -24 -70 -47.5t-122 -23.5q-71 0 -109 19.5t-55 45.5t-23 44q-4 -12 -23 -39t-58.5 -50t-105.5 -23zM390 98q22 0 38.5 20t25 52
t8.5 66v375q-4 -28 -26 -53t-49 -57.5t-47 -84.5t-20 -136q0 -89 19.5 -135.5t50.5 -46.5zM235 1118l148 203h70l146 -203h-90l-92 130l-92 -130h-90zM608 1297l-180 86q-25 12 -38 25t-13 37q0 21 15.5 34t39.5 13q17 0 30 -6t26 -17l155 -130z" />
    <glyph glyph-name="uni1EA8" unicode="&#x1ea8;" horiz-adv-x="726" 
d="M-3 0v75h81l190 1326h144l229 -1326h93v-75h-459v75h75l-101 726h3l-95 -726h67v-75h-227zM151 249v70h208v-70h-208zM159 1472l148 163h70l146 -163h-90l-92 90l-92 -90h-90zM485 1814q47 0 82 -18.5t35 -69.5q0 -35 -22 -56.5t-43.5 -39t-21.5 -39.5h-49q0 34 11 55
t22.5 38.5t11.5 37.5q0 21 -9.5 29t-28.5 8q-20 0 -33.5 -5.5t-24.5 -16.5l-41 38q15 16 45.5 27.5t65.5 11.5z" />
    <glyph glyph-name="uni1EA9" unicode="&#x1ea9;" horiz-adv-x="860" 
d="M297 -22q-69 0 -125.5 33t-90.5 93t-34 143q0 97 42 160t104 105.5t123.5 75.5t103.5 69.5t42 89.5q0 72 -12.5 123t-38 77t-65.5 26q-47 0 -77 -23.5t-30 -56.5q0 -28 12.5 -48t24.5 -42t12 -60q0 -51 -29 -80.5t-75 -29.5q-48 0 -77.5 40.5t-29.5 111.5
q0 79 41.5 141.5t115.5 98.5t169 36q96 0 170 -38t116.5 -120t42.5 -216v-517q0 -53 8.5 -71t26.5 -18q19 0 32.5 10.5t19.5 18.5l44 -58q-18 -24 -70 -47.5t-122 -23.5q-71 0 -109 19.5t-55 45.5t-23 44q-4 -12 -23 -39t-58.5 -50t-105.5 -23zM390 98q22 0 38.5 20t25 52
t8.5 66v375q-4 -28 -26 -53t-49 -57.5t-47 -84.5t-20 -136q0 -89 19.5 -135.5t50.5 -46.5zM233 1119l148 203h70l146 -203h-90l-92 130l-92 -130h-90zM559 1501q47 0 82 -18.5t35 -69.5q0 -35 -22 -56.5t-43.5 -39t-21.5 -39.5h-49q0 34 11 55t22.5 38.5t11.5 37.5
q0 21 -9.5 29t-28.5 8q-20 0 -33.5 -5.5t-24.5 -16.5l-41 38q15 16 45.5 27.5t65.5 11.5z" />
    <glyph glyph-name="uni1EAA" unicode="&#x1eaa;" horiz-adv-x="726" 
d="M-3 0v75h81l190 1326h144l229 -1326h93v-75h-459v75h75l-101 726h3l-95 -726h67v-75h-227zM151 249v70h208v-70h-208zM165 1472l147 163h70l146 -163h-90l-91 90l-92 -90h-90zM432 1667q-40 0 -66.5 13.5t-46.5 27t-42 13.5q-35 0 -53 -14t-23 -23l-75 28q6 18 25 43
t47.5 44t62.5 19q45 0 69.5 -13t44.5 -26t51 -13q35 0 49.5 13.5t18.5 23.5l74 -30q-4 -12 -22 -37.5t-46.5 -47t-67.5 -21.5z" />
    <glyph glyph-name="uni1EAB" unicode="&#x1eab;" horiz-adv-x="860" 
d="M297 -22q-69 0 -125.5 33t-90.5 93t-34 143q0 97 42 160t104 105.5t123.5 75.5t103.5 69.5t42 89.5q0 72 -12.5 123t-38 77t-65.5 26q-47 0 -77 -23.5t-30 -56.5q0 -28 12.5 -48t24.5 -42t12 -60q0 -51 -29 -80.5t-75 -29.5q-48 0 -77.5 40.5t-29.5 111.5
q0 79 41.5 141.5t115.5 98.5t169 36q96 0 170 -38t116.5 -120t42.5 -216v-517q0 -53 8.5 -71t26.5 -18q19 0 32.5 10.5t19.5 18.5l44 -58q-18 -24 -70 -47.5t-122 -23.5q-71 0 -109 19.5t-55 45.5t-23 44q-4 -12 -23 -39t-58.5 -50t-105.5 -23zM390 98q22 0 38.5 20t25 52
t8.5 66v375q-4 -28 -26 -53t-49 -57.5t-47 -84.5t-20 -136q0 -89 19.5 -135.5t50.5 -46.5zM238 1119l148 203h70l146 -203h-90l-92 130l-92 -130h-90zM506 1355q-41 0 -67 13.5t-46.5 26.5t-42.5 13q-34 0 -52.5 -14t-23.5 -23l-75 28q6 18 25 43t47.5 44t62.5 19
q45 0 70 -13t44.5 -26t50.5 -13q35 0 49.5 13.5t18.5 23.5l74 -29q-3 -13 -21.5 -38.5t-47 -46.5t-66.5 -21z" />
    <glyph glyph-name="uni1EAC" unicode="&#x1eac;" horiz-adv-x="726" 
d="M-3 0v75h81l190 1326h144l229 -1326h93v-75h-459v75h75l-101 726h3l-95 -726h67v-75h-227zM151 249v70h208v-70h-208zM327 -273q-38 0 -65.5 28t-27.5 64q0 38 27.5 66t65.5 28q35 0 62.5 -28t27.5 -66q0 -36 -27.5 -64t-62.5 -28zM161 1466l148 203h70l146 -203h-90
l-92 130l-92 -130h-90z" />
    <glyph glyph-name="uni1EAD" unicode="&#x1ead;" horiz-adv-x="860" 
d="M297 -22q-69 0 -125.5 33t-90.5 93t-34 143q0 97 42 160t104 105.5t123.5 75.5t103.5 69.5t42 89.5q0 72 -12.5 123t-38 77t-65.5 26q-47 0 -77 -23.5t-30 -56.5q0 -28 12.5 -48t24.5 -42t12 -60q0 -51 -29 -80.5t-75 -29.5q-48 0 -77.5 40.5t-29.5 111.5
q0 79 41.5 141.5t115.5 98.5t169 36q96 0 170 -38t116.5 -120t42.5 -216v-517q0 -53 8.5 -71t26.5 -18q19 0 32.5 10.5t19.5 18.5l44 -58q-18 -24 -70 -47.5t-122 -23.5q-71 0 -109 19.5t-55 45.5t-23 44q-4 -12 -23 -39t-58.5 -50t-105.5 -23zM390 98q22 0 38.5 20t25 52
t8.5 66v375q-4 -28 -26 -53t-49 -57.5t-47 -84.5t-20 -136q0 -89 19.5 -135.5t50.5 -46.5zM440 -273q-38 0 -65.5 28t-27.5 64q0 38 27.5 66t65.5 28q35 0 62.5 -28t27.5 -66q0 -36 -27.5 -64t-62.5 -28zM235 1128l148 203h70l146 -203h-90l-92 130l-92 -130h-90z" />
    <glyph glyph-name="uni1EAE" unicode="&#x1eae;" horiz-adv-x="726" 
d="M-3 0v75h81l190 1326h144l229 -1326h93v-75h-459v75h75l-101 726h3l-95 -726h67v-75h-227zM151 249v70h208v-70h-208zM341 1498q-64 0 -104 30t-58 76t-18 93h74q5 -63 34.5 -92.5t71.5 -29.5q43 0 72.5 29.5t33.5 92.5h75q0 -47 -18.5 -93t-58 -76t-104.5 -30zM240 1735
l-57 60l190 144q15 11 29.5 18t27.5 7q18 0 32.5 -10t21.5 -23q8 -13 8 -29q0 -18 -13 -35t-41 -28z" />
    <glyph glyph-name="uni1EAF" unicode="&#x1eaf;" horiz-adv-x="860" 
d="M297 -22q-69 0 -125.5 33t-90.5 93t-34 143q0 97 42 160t104 105.5t123.5 75.5t103.5 69.5t42 89.5q0 72 -12.5 123t-38 77t-65.5 26q-47 0 -77 -23.5t-30 -56.5q0 -28 12.5 -48t24.5 -42t12 -60q0 -51 -29 -80.5t-75 -29.5q-48 0 -77.5 40.5t-29.5 111.5
q0 79 41.5 141.5t115.5 98.5t169 36q96 0 170 -38t116.5 -120t42.5 -216v-517q0 -53 8.5 -71t26.5 -18q19 0 32.5 10.5t19.5 18.5l44 -58q-18 -24 -70 -47.5t-122 -23.5q-71 0 -109 19.5t-55 45.5t-23 44q-4 -12 -23 -39t-58.5 -50t-105.5 -23zM390 98q22 0 38.5 20t25 52
t8.5 66v375q-4 -28 -26 -53t-49 -57.5t-47 -84.5t-20 -136q0 -89 19.5 -135.5t50.5 -46.5zM415 1114q-64 0 -104 30t-58 76t-18 93h74q5 -63 34.5 -92.5t71.5 -29.5q43 0 72.5 29.5t33.5 92.5h75q0 -47 -18.5 -93t-58 -76t-104.5 -30zM322 1343l-57 61l190 144
q15 11 29.5 17.5t27.5 6.5q18 0 32.5 -9.5t21.5 -23.5q8 -13 8 -28q0 -19 -13 -36t-41 -28z" />
    <glyph glyph-name="uni1EB0" unicode="&#x1eb0;" horiz-adv-x="726" 
d="M-3 0v75h81l190 1326h144l229 -1326h93v-75h-459v75h75l-101 726h3l-95 -726h67v-75h-227zM151 249v70h208v-70h-208zM341 1498q-64 0 -104 30t-58 76t-18 93h74q5 -63 34.5 -92.5t71.5 -29.5q43 0 72.5 29.5t33.5 92.5h75q0 -47 -18.5 -93t-58 -76t-104.5 -30zM446 1742
l-209 100q-30 15 -44.5 30t-14.5 43q0 24 18 39.5t45 15.5q21 0 35.5 -8t29.5 -20l182 -151z" />
    <glyph glyph-name="uni1EB1" unicode="&#x1eb1;" horiz-adv-x="860" 
d="M297 -22q-69 0 -125.5 33t-90.5 93t-34 143q0 97 42 160t104 105.5t123.5 75.5t103.5 69.5t42 89.5q0 72 -12.5 123t-38 77t-65.5 26q-47 0 -77 -23.5t-30 -56.5q0 -28 12.5 -48t24.5 -42t12 -60q0 -51 -29 -80.5t-75 -29.5q-48 0 -77.5 40.5t-29.5 111.5
q0 79 41.5 141.5t115.5 98.5t169 36q96 0 170 -38t116.5 -120t42.5 -216v-517q0 -53 8.5 -71t26.5 -18q19 0 32.5 10.5t19.5 18.5l44 -58q-18 -24 -70 -47.5t-122 -23.5q-71 0 -109 19.5t-55 45.5t-23 44q-4 -12 -23 -39t-58.5 -50t-105.5 -23zM390 98q22 0 38.5 20t25 52
t8.5 66v375q-4 -28 -26 -53t-49 -57.5t-47 -84.5t-20 -136q0 -89 19.5 -135.5t50.5 -46.5zM415 1134q-64 0 -104 30t-58 76t-18 93h74q5 -63 34.5 -92.5t71.5 -29.5q43 0 72.5 29.5t33.5 92.5h75q0 -47 -18.5 -93t-58 -76t-104.5 -30zM529 1361l-209 100q-30 14 -44.5 29.5
t-14.5 42.5q0 25 18 40.5t45 15.5q21 0 35.5 -8.5t29.5 -20.5l182 -150z" />
    <glyph glyph-name="uni1EB2" unicode="&#x1eb2;" horiz-adv-x="726" 
d="M-3 0v75h81l190 1326h144l229 -1326h93v-75h-459v75h75l-101 726h3l-95 -726h67v-75h-227zM151 249v70h208v-70h-208zM341 1498q-64 0 -104 30t-58 76t-18 93h74q5 -63 34.5 -92.5t71.5 -29.5q43 0 72.5 29.5t33.5 92.5h75q0 -47 -18.5 -93t-58 -76t-104.5 -30zM336 2040
q59 0 102.5 -23.5t43.5 -87.5q0 -44 -27 -71t-54.5 -48.5t-27.5 -49.5h-62q0 42 14.5 69t28.5 48.5t14 46.5q0 26 -12 36.5t-36 10.5q-25 0 -41.5 -7t-30.5 -20l-51 47q19 20 56.5 34.5t82.5 14.5z" />
    </font>
</defs>
</svg>
