<?xml version="1.0" standalone="no"?>
<!DOCTYPE svg PUBLIC "-//W3C//DTD SVG 1.1//EN" "http://www.w3.org/Graphics/SVG/1.1/DTD/svg11.dtd" >
<svg xmlns="http://www.w3.org/2000/svg" xmlns:xlink="http://www.w3.org/1999/xlink" version="1.1">
<metadata>
Created by FontForge 20170731 at Tue Dec  1 16:59:51 2020
 By Aleksey,,,
Copyright 2020 The Imbue Project Authors (https://github.com/Etcetera-Type-Co/Imbue)
</metadata>
<defs>
<font id="Imbue11pt-Black" horiz-adv-x="0" >
  <font-face 
    font-family="Imbue 11pt Black"
    font-weight="900"
    font-stretch="normal"
    units-per-em="2000"
    panose-1="0 0 0 0 0 0 0 0 0 0"
    ascent="1600"
    descent="-400"
    x-height="1046"
    cap-height="1400"
    bbox="-378 -502 1703 2044"
    underline-thickness="50"
    underline-position="-175"
    unicode-range="U+000D-FB02"
  />
<missing-glyph horiz-adv-x="608" 
d="M145 133v947h317v-947h-317zM169 156h269v900h-269v-900zM306 889l-68 -69l-18 18l68 69l-68 69l18 19l68 -69l69 69l18 -19l-68 -69l68 -69l-18 -18zM306 582l-68 -69l-18 18l69 69l-69 69l18 18l68 -69l69 69l18 -18l-69 -69l69 -69l-18 -18zM306 274l-68 -69l-18 19
l68 69l-68 69l18 18l68 -69l69 69l18 -18l-68 -69l68 -69l-18 -19z" />
    <glyph glyph-name="f_f" unicode="ff" horiz-adv-x="1191" 
d="M16 0v79h124v889h-125v79h125v93q0 108 44 191.5t128.5 131.5t205.5 48q69 0 120.5 -24t81 -66.5t32.5 -98.5l-59 -83q-1 41 -15 84t-43.5 72.5t-78.5 29.5q-40 0 -63 -31t-34.5 -82t-15 -112t-3.5 -122v-22v-9h175v-79h-175v-889h98v-79h-522zM535 0v79h115v889h-136v79
h136v91q0 100 38.5 185t118.5 136.5t203 51.5q115 0 177.5 -77t62.5 -201q0 -76 -30.5 -116.5t-89.5 -40.5q-63 0 -89 38.5t-26 89.5q0 49 21 74.5t42 43t21 41.5q0 35 -20 51t-42 16q-31 0 -48.5 -26t-26 -69.5t-10.5 -98.5t-2 -114v-75h148v-79h-148v-889h119v-79h-534z
" />
    <glyph glyph-name="f_f_i" unicode="ffi" horiz-adv-x="1554" 
d="M16 0v79h124v889h-125v79h125v93q0 108 44 191.5t128.5 131.5t205.5 48q70 0 121.5 -24t81 -66.5t32.5 -98.5l-60 -83q-1 41 -14.5 84t-43 72.5t-79.5 29.5q-39 0 -62.5 -31t-35 -82t-15 -112t-3.5 -122v-22v-9h175v-79h-175v-889h88v-79h-512zM1029 0v79h99v889h-99v79
h399v-968h100v-79h-499zM522 0v79h123v889h-146v79h146v60q0 120 58.5 211t158.5 142t223 51q92 0 178 -32t141.5 -90t55.5 -136q0 -63 -25 -97t-61 -47t-70 -13q-53 0 -101 25.5t-48 93.5q0 41 18.5 62t36.5 39t18 47q0 23 -19 36t-47.5 18.5t-55.5 5.5q-59 0 -94 -24.5
t-51 -97t-16 -219.5v-35h198v-79h-198v-889h127v-79h-550z" />
    <glyph glyph-name="f_f_l" unicode="ffl" horiz-adv-x="1657" 
d="M16 0v79h126v889h-127v79h127v93q0 108 43.5 191.5t128 131.5t206.5 48q70 0 121.5 -24t80.5 -66.5t33 -98.5l-60 -83q-2 41 -15.5 84t-42.5 72.5t-79 29.5q-40 0 -63.5 -31t-34.5 -82t-14.5 -112t-3.5 -122v-22v-9h174v-79h-174v-889h86v-79h-512zM1109 0v79h111v1342
h-111v79h411v-1421h111v-79h-522zM553 0v79h104v889h-127v79h127v9q0 107 33 189.5t93 139t143.5 86t183.5 29.5v-79q-52 0 -83 -30.5t-46 -80t-19.5 -109.5t-4.5 -119v-24v-11h174v-79h-174v-889h126v-79h-530z" />
    <glyph glyph-name="f_i" unicode="fi" horiz-adv-x="1070" 
d="M38 0v79h124v889h-147v79h147v60q0 120 58.5 211t158 142t223.5 51q92 0 177.5 -32t141 -90t55.5 -136q0 -63 -25 -97t-61 -47t-70 -13q-53 0 -101 25.5t-48 93.5q0 41 18.5 62t36.5 39t18 47q0 23 -19 36t-47.5 18.5t-55.5 5.5q-59 0 -94 -24.5t-50.5 -97t-15.5 -219.5
v-35h197v-79h-197v-889h126v-79h-550zM545 0v79h99v889h-99v79h399v-968h100v-79h-499z" />
    <glyph glyph-name="f_l" unicode="fl" horiz-adv-x="1141" 
d="M38 0v79h104v889h-127v79h127v9q0 107 33 189.5t93 139t143.5 86t183.5 29.5v-79q-52 0 -83 -30.5t-46 -80t-19.5 -109.5t-4.5 -119v-24v-11h174v-79h-174v-889h126v-79h-530zM594 0v79h111v1342h-111v79h411v-1421h110v-79h-521z" />
    <glyph glyph-name=".notdef" horiz-adv-x="608" 
d="M145 133v947h317v-947h-317zM169 156h269v900h-269v-900zM306 889l-68 -69l-18 18l68 69l-68 69l18 19l68 -69l69 69l18 -19l-68 -69l68 -69l-18 -18zM306 582l-68 -69l-18 18l69 69l-69 69l18 18l68 -69l69 69l18 -18l-69 -69l69 -69l-18 -18zM306 274l-68 -69l-18 19
l68 69l-68 69l18 18l68 -69l69 69l18 -18l-68 -69l68 -69l-18 -19z" />
    <glyph glyph-name=".null" 
 />
    <glyph glyph-name="nonmarkingreturn" horiz-adv-x="666" 
 />
    <glyph glyph-name="CR" unicode="&#xd;" horiz-adv-x="389" 
 />
    <glyph glyph-name="space" unicode=" " horiz-adv-x="389" 
 />
    <glyph glyph-name="exclam" unicode="!" horiz-adv-x="422" 
d="M176 395q0 85 -16.5 183.5t-38 204.5t-38 214t-16.5 212q0 100 38.5 153.5t110.5 53.5q71 0 109.5 -53.5t38.5 -153.5q0 -104 -16.5 -212t-38 -214t-38 -204.5t-16.5 -183.5h-79zM211 -42q-63 0 -108 46t-45 109q0 64 45 110t108 46q64 0 109 -46t45 -110q0 -63 -45 -109
t-109 -46z" />
    <glyph glyph-name="quotedbl" unicode="&#x22;" horiz-adv-x="582" 
d="M138 1160q-11 33 -24.5 76t-22.5 89t-9 86q0 62 31.5 87.5t66.5 25.5q33 0 65 -25.5t32 -87.5q0 -40 -10 -86t-24.5 -89t-26.5 -76h-78zM365 1160q-11 33 -24.5 76t-22.5 89t-9 86q0 62 31.5 87.5t66.5 25.5q33 0 65 -25.5t32 -87.5q0 -40 -10 -86t-24.5 -89t-26.5 -76
h-78z" />
    <glyph glyph-name="numbersign" unicode="#" horiz-adv-x="1237" 
d="M147 0l78 447h-158v79h175l67 397h-193v79h208l67 398h249l-69 -398h178l73 398h245l-71 -398h175v-79h-186l-70 -397h205v-79h-220l-78 -447h-247l80 447h-179l-80 -447h-249zM489 526h176l73 397h-178z" />
    <glyph glyph-name="dollar" unicode="$" horiz-adv-x="642" 
d="M283 -24v1442h67v-1442h-67zM315 63q-69 0 -100.5 19.5t-46.5 38.5t-33 19q-26 0 -26 -53h-65v326h67q1 -19 13 -63.5t37 -93.5t62.5 -84.5t88.5 -35.5q30 0 48.5 11t27.5 34.5t9 59.5q0 49 -22 99.5t-63.5 109.5t-98.5 133q-68 89 -104.5 164.5t-50.5 145t-14 140.5
q0 105 35 175.5t89.5 106t114.5 35.5q55 0 83 -17.5t43.5 -35t31.5 -17.5q11 0 17 10t7 40h67v-324h-67q-2 24 -13.5 68.5t-33 91t-54 79.5t-77.5 33q-43 0 -64.5 -31.5t-21.5 -87.5q0 -42 24.5 -96t68.5 -115t101 -127q94 -108 131.5 -205t37.5 -217q0 -103 -23.5 -169
t-61 -102.5t-81.5 -50.5t-83 -14z" />
    <glyph glyph-name="percent" unicode="%" horiz-adv-x="1140" 
d="M329 780q-61 0 -114.5 39t-86.5 109.5t-33 166.5q0 139 67 224t167 85q97 0 165 -79t68 -230q0 -148 -69 -231.5t-164 -83.5zM815 -11q-62 0 -116 39.5t-87.5 110.5t-33.5 165q0 140 68 225.5t169 85.5q95 0 163.5 -79.5t68.5 -231.5q0 -146 -68.5 -230.5t-163.5 -84.5z
M815 68q25 0 35.5 40t12.5 95t2 99q0 47 -2 102.5t-12.5 96t-35.5 40.5q-27 0 -39 -41t-15 -97t-3 -103q0 -45 2.5 -99t14.5 -93.5t40 -39.5zM329 857q28 0 39 40.5t13.5 95.5t2.5 100q0 46 -2.5 101.5t-13.5 96.5t-39 41q-26 0 -37.5 -41.5t-14 -97.5t-2.5 -102t2.5 -100.5
t13.5 -94t38 -39.5zM81 0l876 1400h107l-874 -1400h-109z" />
    <glyph glyph-name="ampersand" unicode="&#x26;" horiz-adv-x="1160" 
d="M900 -16q-70 0 -137 28.5t-108 103.5l-337 620q-23 43 -44.5 88.5t-38 94.5t-26 101t-9.5 109q0 86 32.5 142t82 88t103.5 45.5t97 13.5q46 0 97 -13t96 -42.5t73 -78.5t28 -121q0 -77 -34.5 -135t-81.5 -97.5t-86.5 -60.5t-49.5 -26l-53 69q24 17 55 77t31 175
q0 86 -19 132t-56 46q-38 0 -54 -39t-16 -111q0 -44 14 -94.5t32.5 -96t34 -76.5l18.5 -37l396 -725q26 -46 41 -56t30 -10t31 12.5t25 28.5l50 -59q-28 -48 -89 -72t-128 -24zM397 -18q-113 0 -198 45.5t-131.5 125t-46.5 180.5q0 120 47.5 205.5t114 143t124.5 91.5
l73 -58q-26 -22 -44.5 -61.5t-28 -86t-9.5 -89.5q0 -99 22 -185t65 -138.5t105 -52.5q34 0 64.5 10.5t54.5 27.5t36 33l43 -57q-7 -12 -40 -44.5t-94.5 -61t-156.5 -28.5zM1020 244q-45 0 -67 25.5t-22 62.5q0 31 14 48.5t27 29t13 22.5q0 9 -5 14.5t-22 5.5q-25 0 -48 -21
t-41.5 -53t-28.5 -65l-65 62q15 33 43.5 69t66.5 61.5t81 25.5q75 0 113 -45t38 -107q0 -67 -25 -101t-72 -34z" />
    <glyph glyph-name="quotesingle" unicode="'" horiz-adv-x="392" 
d="M156 1160q-11 33 -24.5 76t-22.5 89t-9 86q0 62 31.5 87.5t66.5 25.5q33 0 65 -25.5t32 -87.5q0 -40 -10 -86t-24.5 -89t-26.5 -76h-78z" />
    <glyph glyph-name="parenleft" unicode="(" horiz-adv-x="425" 
d="M338 -433q-12 15 -56 93t-96 207t-90 297t-38 362q0 222 39 398.5t91.5 302.5t97 197.5t56.5 84.5l64 -73q-16 -17 -57 -84t-87 -182t-78.5 -276t-32.5 -368q0 -184 34 -339t81 -272t87 -187.5t51 -85.5z" />
    <glyph glyph-name="parenright" unicode=")" horiz-adv-x="425" 
d="M89 -433l-67 75q11 15 51 85.5t87 187.5t81.5 272t34.5 339q0 207 -33 368t-79 276t-87 182t-57 84l65 73q12 -13 56.5 -84.5t96.5 -197.5t91 -302.5t39 -398.5q0 -194 -38 -362t-89.5 -297t-95.5 -207t-56 -93z" />
    <glyph glyph-name="asterisk" unicode="*" horiz-adv-x="824" 
d="M398 882q-25 0 -44 15t-19 45q0 29 6 50t11.5 47t5.5 68q-29 -23 -46 -43t-31.5 -35.5t-38.5 -26.5q-10 -4 -19.5 -5.5t-17.5 -1.5q-28 0 -45.5 14t-17.5 41q0 16 8.5 32t29.5 29q20 12 41 15.5t45.5 8.5t55.5 23q-29 18 -53 24.5t-46 12.5t-47 20q-33 20 -33 57
q0 28 18.5 44t42.5 16q19 0 38 -10q34 -17 53.5 -47t62.5 -59q0 63 -11.5 91.5t-11.5 70.5q0 30 19 45t44 15t44.5 -15t19.5 -45t-7.5 -50.5t-15.5 -45t-9 -66.5q51 32 73 60t53 46q17 9 34 9q26 0 43.5 -18t17.5 -45q0 -34 -33 -53q-26 -15 -50 -20.5t-49.5 -12
t-57.5 -24.5q30 -15 56.5 -20.5t50 -10t47.5 -16.5q20 -10 28.5 -25.5t8.5 -31.5q0 -28 -17 -44t-45 -16q-10 0 -19.5 1.5t-19.5 6.5q-25 13 -39.5 28t-31 34t-50.5 43q1 -43 9 -68t15.5 -45.5t7.5 -51.5q0 -30 -19.5 -45t-44.5 -15z" />
    <glyph glyph-name="plus" unicode="+" horiz-adv-x="835" 
d="M380 251v624h79v-624h-79zM107 522v80h622v-80h-622z" />
    <glyph glyph-name="comma" unicode="," horiz-adv-x="422" 
d="M165 -229l-70 86q23 12 55 33.5t57 45t25 44.5q0 13 -7 13q-8 0 -17.5 -7.5t-38.5 -7.5q-31 0 -60 17.5t-48 51t-19 80.5q0 71 47 109.5t116 38.5q68 0 120.5 -42.5t52.5 -128.5q0 -103 -34.5 -167t-84 -102t-94.5 -64z" />
    <glyph glyph-name="hyphen" unicode="-" horiz-adv-x="755" 
d="M107 522v80h542v-80h-542z" />
    <glyph glyph-name="period" unicode="." horiz-adv-x="432" 
d="M211 -44q-63 0 -108 46t-45 109q0 64 45 110t108 46q64 0 109 -46t45 -110q0 -63 -45 -109t-109 -46z" />
    <glyph glyph-name="slash" unicode="/" horiz-adv-x="634" 
d="M38 -104l487 1608h82l-486 -1608h-83z" />
    <glyph glyph-name="zero" unicode="0" horiz-adv-x="971" 
d="M486 -24q-98 0 -183.5 77t-137.5 236.5t-52 408.5t52 409t137 237.5t184 77.5q97 0 181.5 -77.5t137 -237.5t52.5 -409t-52.5 -408.5t-137 -236.5t-181.5 -77zM486 57q18 0 31.5 59t23 155t14.5 208t5 219t-5 220t-14.5 209.5t-23 156t-31.5 59.5q-21 0 -36 -56.5
t-24 -151t-13 -208.5t-4 -229q0 -114 4.5 -227.5t13.5 -207.5t23.5 -150t35.5 -56z" />
    <glyph glyph-name="one" unicode="1" horiz-adv-x="660" 
d="M77 0v79h102v977q-11 -7 -28 -12.5t-35.5 -8.5t-34.5 -3v86q37 5 87 31.5t99.5 70t86 100t45.5 122.5h80v-1363h105v-79h-507z" />
    <glyph glyph-name="two" unicode="2" horiz-adv-x="852" 
d="M562 -11q-50 0 -92 18t-80 42t-77.5 42t-86.5 18q-48 0 -72.5 -37t-29.5 -72h-73q0 172 31 296t79.5 214.5t103 160.5t103 133.5t79.5 133t31 158.5q0 72 -15.5 128t-45 88.5t-73.5 32.5q-29 0 -53 -10t-37.5 -27.5t-13.5 -39.5q0 -19 18 -39t35.5 -46.5t17.5 -67.5
q0 -63 -32.5 -91.5t-82.5 -28.5q-52 0 -84 37.5t-32 114.5q0 78 39.5 140t112.5 98.5t172 36.5q61 0 124 -16.5t116 -55t85.5 -103.5t32.5 -163q0 -112 -28.5 -188t-77 -129t-107.5 -93t-121 -79t-118 -87.5t-98.5 -117.5t-61.5 -171q19 30 54 52t80.5 33t95.5 11
q66 0 110 -14t76 -28.5t61 -14.5q41 0 54.5 20t13.5 46h72v-49q0 -61 -17.5 -127.5t-62 -112.5t-125.5 -46z" />
    <glyph glyph-name="three" unicode="3" horiz-adv-x="860" 
d="M391 -24q-83 0 -152.5 36.5t-110.5 99.5t-41 141q0 77 43 120t94 43q49 0 77 -25t28 -78q0 -41 -21.5 -67t-43.5 -50.5t-22 -63.5q0 -33 28.5 -51t71.5 -18q33 0 59 24t41.5 89t15.5 191q0 104 -8.5 168t-26.5 98t-46 46t-66 12v84q39 0 69 8t50.5 38.5t30.5 95t10 176.5
q0 131 -35 187.5t-92 56.5q-44 0 -72 -18t-28 -51q0 -39 22 -63.5t43.5 -50.5t21.5 -67q0 -54 -28 -79.5t-78 -25.5t-93 44t-43 121q0 78 41.5 140t113 98.5t160.5 36.5q90 0 171.5 -34.5t133 -109t51.5 -194.5q0 -106 -35.5 -173.5t-89 -105.5t-106.5 -54.5t-88 -19.5
q35 -5 90.5 -23t112 -57.5t94.5 -108t38 -175.5q0 -127 -48.5 -214t-135 -132t-201.5 -45z" />
    <glyph glyph-name="four" unicode="4" horiz-adv-x="807" 
d="M193 0v79h103v255h-247v79l258 801q78 40 125.5 97t85.5 126h78v-1024h8q45 0 58.5 58.5t13.5 135.5h74v-273h-154v-255h101v-79h-504zM132 404l-15 9h181v554l15 -4z" />
    <glyph glyph-name="five" unicode="5" horiz-adv-x="892" 
d="M385 -24q-83 0 -146 36.5t-97.5 99.5t-34.5 141q0 77 37.5 120t88.5 43q49 0 82.5 -28t33.5 -90q0 -36 -22.5 -61t-45.5 -48t-23 -57q0 -22 7.5 -38.5t26.5 -25.5t53 -9q57 0 85.5 47.5t38 130t9.5 187.5q0 129 -8.5 204t-23.5 111t-35.5 46.5t-43.5 10.5q-41 0 -71 -23
t-49 -53.5t-26 -52.5l-83 11l78 722h74q7 -20 41.5 -37.5t80.5 -28t88 -10.5q83 0 131 25.5t49 50.5h69q0 -63 -25.5 -134t-79.5 -120.5t-140 -49.5q-61 0 -103 20t-66.5 47.5t-36.5 49.5t-14 26l-45 -433q8 13 32 31.5t64.5 32.5t93.5 14q57 0 118.5 -22t115.5 -73
t87.5 -138t33.5 -218q0 -144 -37.5 -234t-97.5 -138.5t-129.5 -66.5t-134.5 -18z" />
    <glyph glyph-name="six" unicode="6" horiz-adv-x="947" 
d="M489 -24q-102 0 -175.5 49.5t-120.5 143t-70 227.5t-23 302q0 137 31.5 266.5t89.5 233t139 164t180 60.5q73 0 132.5 -36.5t95.5 -98.5t36 -140q0 -91 -34 -128t-85 -37q-50 0 -82 27t-32 89q0 41 12 65l23.5 47t11.5 62q0 22 -10.5 38.5t-29 25.5t-43.5 9
q-38 0 -62 -29t-37.5 -80t-19.5 -120t-7.5 -150.5t-1.5 -170.5q0 4 15 26.5t48 44t86 21.5q33 0 83.5 -20t101.5 -69t85 -135.5t34 -220.5q0 -122 -30.5 -210.5t-83 -145t-119 -83.5t-138.5 -27zM484 54q29 0 45 32t22.5 115.5t6.5 236.5q0 139 -10.5 212.5t-27.5 100
t-36 26.5q-20 0 -36 -26t-26.5 -73.5t-14.5 -112.5q0 -168 2.5 -270t10 -154t23 -69.5t41.5 -17.5z" />
    <glyph glyph-name="seven" unicode="7" horiz-adv-x="775" 
d="M380 -20q-45 0 -84 22.5t-63 78t-24 154.5q0 145 42 268t104.5 231t125 207.5t104.5 197.5t42 203q-10 -47 -35 -83t-65 -55.5t-96 -19.5t-84.5 10t-49.5 20t-53 10q-28 0 -43 -12.5t-21.5 -39t-9.5 -68.5h-79v296h619q0 -20 -3.5 -49t-10 -65.5t-15 -80t-19.5 -91.5
t-24 -101q-10 -44 -21 -97.5t-22 -118.5q-19 -115 -34.5 -249.5t-15.5 -312.5q0 -99 -22.5 -154.5t-60 -78t-82.5 -22.5z" />
    <glyph glyph-name="eight" unicode="8" horiz-adv-x="948" 
d="M458 -20q-56 0 -123 18.5t-128 61t-100.5 115t-39.5 180.5q0 93 34 154.5t81.5 98t91.5 53.5t64 21l90 -54q-30 -17 -57.5 -45t-45 -79t-17.5 -139q0 -147 40 -225.5t112 -78.5q71 0 107.5 55.5t36.5 139.5q0 57 -32.5 109t-88 104t-125.5 107q-78 63 -135.5 138.5
t-89 163t-31.5 184.5q0 134 54.5 213t138.5 114t174 35q95 0 173.5 -36t126 -107.5t47.5 -178.5q0 -79 -30 -137.5t-74 -98t-86.5 -63t-67.5 -32.5l-43 44q21 10 48 50.5t47.5 104.5t20.5 145q0 75 -20.5 127t-56 79t-81.5 27q-44 0 -83.5 -22t-63.5 -64.5t-24 -105.5
q0 -61 44 -126.5t105 -121.5t110 -90q50 -34 103.5 -77t99 -96t74.5 -117.5t29 -142.5q0 -113 -39 -190.5t-101.5 -125t-133.5 -68.5t-135 -21z" />
    <glyph glyph-name="nine" unicode="9" horiz-adv-x="948" 
d="M471 1422q102 0 175 -49.5t120.5 -143t70.5 -227.5t23 -302q0 -137 -31.5 -266.5t-89.5 -233t-139 -164t-180 -60.5q-72 0 -132 36.5t-96 99t-36 139.5q0 92 34 128.5t85 36.5q50 0 82 -27t32 -89q0 -41 -11.5 -65t-24 -47t-12.5 -62q0 -22 10.5 -38.5t29.5 -25.5t44 -9
q38 0 62 29t37.5 80t19.5 120t7.5 150.5t1.5 170.5q0 -3 -15 -26t-47.5 -44.5t-86.5 -21.5q-33 0 -83.5 20t-101.5 69t-85 136t-34 220q0 122 30.5 210.5t83 145t119 83.5t138.5 27zM476 1344q-29 0 -45 -32t-22.5 -115t-6.5 -237q0 -139 10.5 -212.5t27.5 -100t36 -26.5
t35.5 26t27 74t14.5 112q0 168 -2.5 270t-10 154t-23 69.5t-41.5 17.5z" />
    <glyph glyph-name="colon" unicode=":" horiz-adv-x="535" 
d="M282 771q-63 0 -108 46t-45 109q0 64 45 110t108 46q64 0 109 -46t45 -110q0 -63 -45 -109t-109 -46zM281 -44q-63 0 -108 46t-45 109q0 64 45 110t108 46q64 0 109 -46t45 -110q0 -63 -45 -109t-109 -46z" />
    <glyph glyph-name="semicolon" unicode=";" horiz-adv-x="535" 
d="M282 771q-63 0 -108 46t-45 109q0 64 45 110t108 46q64 0 109 -46t45 -110q0 -63 -45 -109t-109 -46zM234 -229l-70 86q23 12 55 33.5t57 45t25 44.5q0 13 -7 13q-8 0 -17.5 -7.5t-38.5 -7.5q-31 0 -60 17.5t-48 51t-19 80.5q0 71 47 109.5t116 38.5q68 0 120.5 -42.5
t52.5 -128.5q0 -103 -34.5 -167t-84 -102t-94.5 -64z" />
    <glyph glyph-name="less" unicode="&#x3c;" horiz-adv-x="784" 
d="M631 95l-467 401v84l467 396v-95l-415 -345l415 -344v-97z" />
    <glyph glyph-name="equal" unicode="=" horiz-adv-x="818" 
d="M97 722v80h622v-80h-622zM97 322v80h622v-80h-622z" />
    <glyph glyph-name="greater" unicode="&#x3e;" horiz-adv-x="784" 
d="M171 95v97l414 344l-414 345v95l467 -396v-84z" />
    <glyph glyph-name="question" unicode="?" horiz-adv-x="737" 
d="M280 333q0 116 15 204t36.5 158.5t43.5 133t37 126t15 138.5q0 131 -43 190.5t-106 59.5q-40 0 -58 -21t-18 -54q0 -31 19.5 -54t39 -49t19.5 -67q0 -62 -30.5 -89t-80.5 -27t-86 44t-36 121q0 78 38 140t105 98.5t152 36.5q53 0 114.5 -14t117 -49t91 -97.5t35.5 -159.5
q0 -93 -34.5 -163t-85.5 -131.5t-101.5 -127t-85 -148.5t-34.5 -199h-79zM322 -42q-63 0 -109 46t-46 109q0 64 46 110t109 46q62 0 108 -46t46 -110q0 -63 -46 -109t-108 -46z" />
    <glyph glyph-name="at" unicode="@" horiz-adv-x="963" 
d="M475 -22q-67 0 -138 36t-131.5 113.5t-97.5 201.5t-37 300q0 226 44.5 377.5t115.5 241.5t152.5 129t154.5 39q102 0 179.5 -58.5t120.5 -187t43 -339.5q0 -76 -14.5 -161t-42.5 -159.5t-70.5 -121.5t-98.5 -47q-45 0 -70.5 18t-36 42.5t-10.5 41.5q-13 -64 -54 -87.5
t-89 -23.5q-45 0 -88.5 27t-71.5 93t-28 183q0 118 20.5 200.5t57 134t83.5 75t99 23.5q36 0 59.5 -12t36.5 -29.5t15 -34.5l4 54h153l-43 -514q-1 -22 -2 -36.5t-1 -25.5q0 -15 4 -20t12 -5q13 0 34 50t38 137.5t17 199.5q0 233 -55 368t-195 135q-77 0 -147 -41.5
t-125 -128t-86 -221t-31 -318.5q0 -166 44 -294.5t117.5 -201t158.5 -72.5q94 0 141 40t95 103l64 -53q-29 -38 -71.5 -77.5t-99 -66.5t-129.5 -27zM470 443q18 0 30.5 12.5t21 36.5t14.5 56t9 69l20 256q0 20 -4.5 41.5t-15.5 36t-30 14.5q-30 0 -49 -29.5t-29.5 -80
t-14.5 -112.5t-4 -127q0 -74 13.5 -123.5t38.5 -49.5z" />
    <glyph glyph-name="A" unicode="A" horiz-adv-x="740" 
d="M-5 0v79h81l189 1321h156l237 -1321h93v-79h-488v79h72l-94 656h4l-86 -656h65v-79h-229zM149 233v73h200v-73h-200z" />
    <glyph glyph-name="B" unicode="B" horiz-adv-x="926" 
d="M42 0v79h94v1242h-94v79h454q65 0 127 -17t112.5 -54.5t80 -99.5t29.5 -151q0 -88 -29 -150t-73.5 -101.5t-92 -60t-84.5 -24.5q37 -1 88.5 -17.5t101 -54.5t82.5 -103.5t33 -164.5q0 -143 -53.5 -231.5t-134 -129.5t-163.5 -41h-478zM431 79h20q27 0 52 38.5t41 111
t16 173.5q0 126 -15.5 190t-39 86t-47.5 22h-27v-621zM431 780h27q30 0 50.5 28.5t30.5 94t10 175.5q0 97 -14.5 149t-37 73t-46.5 21h-20v-541z" />
    <glyph glyph-name="C" unicode="C" horiz-adv-x="779" 
d="M459 -20q-175 0 -283 188t-108 530q0 138 24.5 267.5t74.5 232.5t125.5 163.5t177.5 60.5q71 0 127 -45t88 -111t32 -128q0 -64 -26.5 -109t-85.5 -45q-66 0 -92 35.5t-26 93.5q0 41 19 67.5t38 49.5t19 55t-10.5 43t-29.5 11q-33 0 -56.5 -43.5t-39 -114.5t-24 -156
t-12 -170t-3.5 -155q0 -106 4.5 -201.5t13.5 -176t23.5 -139t34 -91.5t45.5 -33q37 0 59.5 19.5t36.5 55t25 84.5l66 -42q-21 -60 -51.5 -104t-75 -68t-110.5 -24z" />
    <glyph glyph-name="D" unicode="D" horiz-adv-x="920" 
d="M42 0v79h96v1242h-96v79h438q101 0 189 -78.5t142.5 -231.5t54.5 -379q0 -228 -55 -386.5t-143 -241.5t-188 -83h-438zM440 79h27q27 0 51.5 73.5t40 214.5t15.5 344q0 189 -15.5 325.5t-40 210.5t-51.5 74h-27v-1242z" />
    <glyph glyph-name="E" unicode="E" horiz-adv-x="786" 
d="M42 0v79h96v1242h-96v79h667v-364h-80q0 81 -18.5 145.5t-56 102t-96.5 37.5h-18v-581h144v91h79v-258h-79v87h-144v-581h18q59 0 96.5 38.5t56 103.5t18.5 146h80v-367h-667z" />
    <glyph glyph-name="F" unicode="F" horiz-adv-x="794" 
d="M67 0v79h97v1242h-97v79h640v-364h-80q0 81 -11.5 145.5t-43.5 102t-94 37.5h-13v-551h144v90h79v-258h-79v89h-144v-612h97v-79h-495z" />
    <glyph glyph-name="G" unicode="G" horiz-adv-x="890" 
d="M476 -20q-115 0 -210 73.5t-151.5 232t-56.5 412.5q0 228 64.5 389.5t164 247t202.5 85.5q80 0 142 -38t97.5 -101.5t35.5 -142.5q0 -68 -30.5 -111t-89.5 -43q-64 0 -91.5 42t-27.5 98q0 38 18 62t35.5 45.5t17.5 51.5q0 23 -22 44t-52 21q-47 0 -78.5 -61.5t-50 -160
t-26 -211.5t-7.5 -217q0 -162 9.5 -281t25.5 -197.5t37 -117.5t44 -39q11 0 15.5 4t8.5 10v477h-73v79h428v-79h-84v-554h-84q-1 3 -15 13.5t-37 10.5q-21 0 -40 -11t-46 -22t-73 -11z" />
    <glyph glyph-name="H" unicode="H" horiz-adv-x="1005" 
d="M42 0v79h96v1242h-96v79h451v-79h-57v-561h139v561h-55v79h442v-79h-97v-1242h97v-79h-442v79h55v601h-139v-601h57v-79h-451z" />
    <glyph glyph-name="I" unicode="I" horiz-adv-x="617" 
d="M62 0v79h98v1242h-98v79h496v-79h-100v-1242h100v-79h-496z" />
    <glyph glyph-name="J" unicode="J" horiz-adv-x="805" 
d="M308 -22q-93 0 -147 40.5t-77.5 106.5t-23.5 144q0 77 34 111.5t86 34.5q50 0 83 -32t33 -108q0 -51 -17.5 -76.5t-36 -42.5t-18.5 -41q0 -28 13 -40t30 -12q40 0 60 22t20 75v1161h-107v79h509v-79h-102v-874q0 -126 -22 -215t-65 -145.5t-106 -82.5t-146 -26z" />
    <glyph glyph-name="K" unicode="K" horiz-adv-x="962" 
d="M31 0v79h93v1242h-93v79h492v-79h-103v-542l302 542h-91v79h268v-79h-85l-214 -382l30 76l238 -936h68v-79h-449v79h62l-169 684l40 -22v-662h60v-79h-449z" />
    <glyph glyph-name="L" unicode="L" horiz-adv-x="743" 
d="M49 0v79h89v1242h-89v79h480v-79h-93v-1242h20q45 0 76 39.5t47.5 104.5t16.5 144h80v-367h-627z" />
    <glyph glyph-name="M" unicode="M" horiz-adv-x="1120" 
d="M16 0v79h93v1242h-93v79h460l102 -604h-42l145 604h422v-79h-95v-1242h95v-79h-495v79h100v1211h45l-290 -1211h-74l-231 1276h31v-1276h75v-79h-248z" />
    <glyph glyph-name="N" unicode="N" horiz-adv-x="862" 
d="M27 0v79h93v1242h-93v79h420l234 -713h-16v634h-87v79h257v-79h-89v-1321h-169l-396 1233h20v-1154h87v-79h-261z" />
    <glyph glyph-name="O" unicode="O" horiz-adv-x="906" 
d="M457 -22q-111 0 -199 82.5t-139 242.5t-51 395q0 236 51 397t139 244t199 83q112 0 201.5 -83t141.5 -244t52 -397q0 -235 -52 -395t-141.5 -242.5t-201.5 -82.5zM457 57q23 0 37.5 39.5t23.5 120t12.5 200.5t3.5 281t-3.5 281.5t-12.5 201.5t-23.5 121.5t-37.5 40.5
q-22 0 -36 -40.5t-21.5 -121.5t-10.5 -201.5t-3 -281.5t3 -281t10.5 -200.5t21.5 -120t36 -39.5z" />
    <glyph glyph-name="P" unicode="P" horiz-adv-x="918" 
d="M44 0v79h111v1242h-111v79h494q54 0 112.5 -19t110 -63t83.5 -118.5t32 -184.5q0 -113 -32.5 -199t-84 -144t-110.5 -87t-111 -29h-87v-477h110v-79h-517zM451 636h15q33 0 55 46t32.5 131t10.5 202q0 111 -9 178t-28.5 97.5t-51.5 30.5h-24v-685z" />
    <glyph glyph-name="Q" unicode="Q" horiz-adv-x="906" 
d="M703 -412q-55 0 -93.5 37.5t-38.5 110.5q0 56 26 95t52 70t26 63q0 21 -18 32.5t-44 11.5q-12 0 -26.5 -2.5t-23.5 -5.5l10 83q6 5 35.5 9.5t45.5 4.5q107 0 149 -89.5t42 -241.5q0 -88 -43 -133t-99 -45zM457 -22q-111 0 -199 82.5t-139 242.5t-51 395q0 236 51 397
t139 244t199 83q112 0 201.5 -83t141.5 -244t52 -397q0 -235 -52 -395t-141.5 -242.5t-201.5 -82.5zM457 57q23 0 37.5 39.5t23.5 120t12.5 200.5t3.5 281t-3.5 281.5t-12.5 201.5t-23.5 121.5t-37.5 40.5q-22 0 -36 -40.5t-21.5 -121.5t-10.5 -201.5t-3 -281.5t3 -281
t10.5 -200.5t21.5 -120t36 -39.5z" />
    <glyph glyph-name="R" unicode="R" horiz-adv-x="1000" 
d="M809 -18q-108 0 -157.5 46t-63 128t-13.5 190q0 53 1.5 100t1.5 72q0 67 -9.5 101.5t-30 47.5t-53.5 13h-34v-601h104v-79h-511v79h111v1242h-111v79h503q92 0 168.5 -33.5t122.5 -105t46 -186.5q0 -85 -29 -148.5t-75.5 -106t-99.5 -66.5t-101 -32q118 -6 182.5 -38
t90.5 -101.5t26 -188.5q0 -55 -3.5 -107t-3.5 -96q0 -24 2 -49.5t8.5 -43t18.5 -17.5q14 0 19 10t6 23h74q-7 -46 -30 -75.5t-63 -43t-97 -13.5zM451 760h34q31 0 52.5 41.5t33 112.5t11.5 157q0 82 -12.5 138t-34.5 84t-51 28h-33v-561z" />
    <glyph glyph-name="S" unicode="S" horiz-adv-x="730" 
d="M378 -27q-61 0 -96 13t-55 30.5t-32.5 30.5t-28.5 13q-31 0 -31 -60h-77v367h79q1 -17 10.5 -53.5t28 -80t47 -84.5t66 -67.5t86.5 -26.5q35 0 57 12t32.5 38.5t10.5 67.5q0 56 -26.5 112.5t-75 123t-115.5 149.5q-80 101 -123.5 186t-60 163t-16.5 158q0 119 41 198
t105.5 119t135.5 40q65 0 98 -19.5t51.5 -39t37.5 -19.5q14 0 21 11t8 45h78v-365h-79q-2 27 -15.5 77t-38.5 102.5t-64 89.5t-92 37q-50 0 -75.5 -35.5t-25.5 -98.5q0 -48 29 -108.5t81 -129t119 -142.5q75 -81 118.5 -155.5t62.5 -152.5t19 -168q0 -117 -28 -191
t-72.5 -114.5t-96.5 -56.5t-98 -16z" />
    <glyph glyph-name="T" unicode="T" horiz-adv-x="864" 
d="M164 0v79h120v1242h-2q-69 0 -104 -31.5t-48 -94t-13 -159.5h-79v364h788v-364h-79q0 97 -12 159.5t-47 94t-104 31.5h-2v-1242h122v-79h-540z" />
    <glyph glyph-name="U" unicode="U" horiz-adv-x="867" 
d="M468 -24q-52 0 -110.5 14t-109 53.5t-82 114.5t-31.5 197v966h-100v79h517v-79h-112v-981q0 -135 25.5 -199t85.5 -64q20 0 39.5 10t35 35t24 69.5t8.5 112.5v1017h-89v79h265v-79h-95v-1023q0 -123 -31.5 -193.5t-92 -99.5t-147.5 -29z" />
    <glyph glyph-name="V" unicode="V" horiz-adv-x="760" 
d="M335 0l-237 1321h-89v79h493v-79h-80l93 -597h-26l102 597h-76v79h245v-79h-81l-233 -1321h-111z" />
    <glyph glyph-name="W" unicode="W" horiz-adv-x="1247" 
d="M347 0l-247 1321h-100v79h506v-79h-53l83 -586l-41 -102l125 613l26 -179l-55 254h-67v79h469v-79h-69l74 -563l-29 -102l120 665h-78v79h245v-79h-81l-236 -1321h-101l-191 1053l43 91l-242 -1144h-101z" />
    <glyph glyph-name="X" unicode="X" horiz-adv-x="881" 
d="M335 0v79h112l-343 1242h-84v79h519v-79h-104l343 -1242h82v-79h-525zM15 0v79h85l210 563l85 -20l-206 -543h87v-79h-261zM523 771l-83 22l200 528h-78v79h247v-79h-79z" />
    <glyph glyph-name="Y" unicode="Y" horiz-adv-x="894" 
d="M193 0v79h112v508l-189 734h-100v79h512v-79h-77l151 -654h-75l170 654h-87v79h268v-79h-96l-177 -681v-561h114v-79h-526z" />
    <glyph glyph-name="Z" unicode="Z" horiz-adv-x="800" 
d="M60 0v79l331 1242h-36q-79 0 -119.5 -37.5t-55 -102t-14.5 -145.5h-79v364h628v-79l-331 -1242h40q71 0 124.5 38.5t83.5 103.5t30 146h79v-367h-681z" />
    <glyph glyph-name="bracketleft" unicode="[" horiz-adv-x="301" 
d="M38 -440v1940h225v-79h-146v-1782h146v-79h-225z" />
    <glyph glyph-name="backslash" unicode="\" horiz-adv-x="655" 
d="M618 -104h-84l-485 1608h81z" />
    <glyph glyph-name="bracketright" unicode="]" horiz-adv-x="380" 
d="M343 -440h-226v79h146v1782h-146v79h226v-1940z" />
    <glyph glyph-name="asciicircum" unicode="^" horiz-adv-x="860" 
d="M122 949l262 451h95l261 -451h-91l-217 381l-220 -381h-90z" />
    <glyph glyph-name="underscore" unicode="_" horiz-adv-x="1035" 
d="M24 -222v80h991v-80h-991z" />
    <glyph glyph-name="grave" unicode="`" horiz-adv-x="604" 
d="M364 1252l-210 103q-31 15 -46 31t-15 44q0 25 19 41.5t47 16.5q22 0 36.5 -8.5t29.5 -20.5l186 -152z" />
    <glyph glyph-name="a" unicode="a" horiz-adv-x="906" 
d="M305 -22q-70 0 -129 33.5t-95 94.5t-36 143q0 98 43.5 161.5t107.5 106t128 75.5t107.5 69.5t43.5 89.5q0 71 -13 119.5t-38.5 73.5t-63.5 25q-47 0 -76 -21.5t-29 -52.5q0 -29 13.5 -50t27 -45t13.5 -65q0 -55 -32 -86t-82 -31q-52 0 -84.5 44t-32.5 120
q0 81 44.5 144.5t123 100t179.5 36.5q102 0 181 -39.5t124 -124.5t45 -223v-495q0 -56 8 -74.5t26 -18.5q20 0 34 11.5t21 19.5l46 -59q-18 -27 -75.5 -53.5t-134.5 -26.5q-79 0 -119.5 21t-57 47.5t-24.5 41.5q-3 -10 -22.5 -37t-60.5 -51t-111 -24zM411 108q19 0 33.5 18
t22.5 48.5t8 66.5v369q-4 -28 -24 -52t-44 -55t-42 -82t-18 -134q0 -88 18.5 -133.5t45.5 -45.5z" />
    <glyph glyph-name="b" unicode="b" horiz-adv-x="937" 
d="M551 -20q-53 0 -86 22.5t-49 52.5t-19 51l-30 -106h-352v79h101v1342h-101v79h407v-530q3 8 17 31t45.5 42.5t84.5 19.5q75 0 144 -57t113.5 -177.5t44.5 -310.5q0 -210 -47 -327t-120.5 -164t-152.5 -47zM485 139q25 0 41.5 25.5t26.5 74.5t13.5 118.5t3.5 157.5
q0 92 -3.5 162t-13.5 118.5t-26.5 73t-41.5 24.5q-18 0 -31 -19t-21 -55.5t-11 -89.5v-356q0 -67 10 -120.5t25 -83.5t28 -30z" />
    <glyph glyph-name="c" unicode="c" horiz-adv-x="755" 
d="M437 -22q-71 0 -139 33t-123 100.5t-87.5 171t-32.5 244.5q0 152 41 255t103 164.5t129.5 89t119.5 27.5q83 0 143.5 -41.5t94 -109t33.5 -145.5q0 -72 -32.5 -110.5t-82.5 -38.5t-83 32.5t-33 89.5q0 36 15 59t30 45t15 55q0 44 -25.5 63.5t-54.5 19.5
q-36 0 -56.5 -45.5t-30.5 -115t-12.5 -146.5t-2.5 -140q0 -81 4.5 -163t17.5 -151t39 -111t68 -42q60 0 92 37t46 78l61 -53q-24 -60 -89 -106t-168 -46z" />
    <glyph glyph-name="d" unicode="d" horiz-adv-x="947" 
d="M382 -20q-79 0 -153.5 47t-122.5 164t-48 327q0 190 45.5 310.5t115.5 177.5t143 57q60 0 91.5 -17t43.5 -37.5t14 -28.5v439h-124v81h431v-1421h118v-79h-370l-32 108q-1 -27 -19 -57t-51.5 -50.5t-81.5 -20.5zM442 139q21 0 36.5 31t24 82t8.5 108v369q-2 52 -10 90
t-22.5 58.5t-34.5 20.5q-18 0 -34 -25.5t-27.5 -74.5t-18 -120t-6.5 -163q0 -85 5.5 -154.5t16 -119t26 -76t36.5 -26.5z" />
    <glyph glyph-name="e" unicode="e" horiz-adv-x="858" 
d="M453 -20q-82 0 -154 31t-126.5 96.5t-85.5 169.5t-31 250q0 148 37.5 250.5t97.5 165.5t127.5 91.5t126.5 28.5q72 0 136.5 -32t114 -92.5t78 -147.5t28.5 -198q0 -20 -0.5 -40t-2.5 -41h-457v79h177q0 162 -9.5 246t-26 114.5t-38.5 30.5t-42.5 -32t-33.5 -123t-13 -271
q0 -136 8 -229t25 -149.5t42.5 -81t61.5 -24.5q77 0 124 37.5t68 76.5l66 -52q-26 -55 -107.5 -104.5t-190.5 -49.5z" />
    <glyph glyph-name="f" unicode="f" horiz-adv-x="692" 
d="M36 0v79h115v889h-136v79h136v91q0 100 38.5 185t118.5 136.5t203 51.5q115 0 177.5 -77t62.5 -201q0 -76 -30.5 -116.5t-89.5 -40.5q-63 0 -89 38.5t-26 89.5q0 49 21 74.5t42 43t21 41.5q0 35 -20 51t-42 16q-31 0 -48.5 -26t-26 -69.5t-10.5 -98.5t-2 -114v-75h148
v-79h-148v-889h119v-79h-534z" />
    <glyph glyph-name="g" unicode="g" horiz-adv-x="934" 
d="M451 -498q-92 0 -184.5 25.5t-154 83.5t-61.5 156q0 69 29.5 114.5t69 71t70.5 36.5t35 11q-6 2 -30 11t-52.5 29.5t-49.5 55t-21 86.5q0 34 12 59.5t31.5 42.5t39.5 25q5 2 13 4.5t11 2.5q-3 2 -23 19t-45 54t-44 99.5t-19 153.5q0 119 39 199.5t98.5 129.5t123 70.5
t112.5 21.5q114 0 197 -52.5t128.5 -145.5t45.5 -214q0 -136 -39 -219.5t-99 -127t-123.5 -58.5t-111.5 -15q-65 0 -106 12.5t-52 16.5h-1h-1q-10 0 -20 -11t-10 -33q0 -32 53 -58.5t199 -55.5q161 -31 256 -99.5t95 -211.5q0 -89 -42.5 -146t-108 -88t-135.5 -43t-125 -12z
M451 -421q64 0 103 48t39 106q0 56 -15 91t-62 69q-19 14 -45.5 28t-51.5 25t-41 16q-13 -6 -32.5 -28.5t-35 -62.5t-15.5 -102q0 -61 19 -103t54 -64.5t83 -22.5zM449 314q19 0 36 20t28 91t11 222q0 144 -11 214.5t-28.5 94t-35.5 23.5t-34.5 -23.5t-27.5 -95t-11 -216.5
q0 -151 11.5 -221t28.5 -89.5t33 -19.5zM585 978q13 80 76 125.5t135 45.5q59 0 83.5 -30.5t24.5 -74.5t-24 -67.5t-61 -23.5t-52.5 17t-26 33.5t-36.5 16.5q-12 0 -23 -7t-11 -35h-85z" />
    <glyph glyph-name="h" unicode="h" horiz-adv-x="990" 
d="M31 0v79h105v1342h-105v79h405v-532q0 3 20.5 26.5t62.5 46t106 22.5q71 0 126 -33.5t86.5 -109t31.5 -202.5v-639h103v-79h-467v79h64v632q0 105 -14 142t-39 37q-18 0 -35.5 -14.5t-30 -50t-14.5 -97.5v-649h69v-79h-474z" />
    <glyph glyph-name="i" unicode="i" horiz-adv-x="554" 
d="M25 0v79h102v889h-102v79h402v-968h102v-79h-504zM278 1142q-76 0 -129.5 54t-53.5 131q0 75 53.5 128.5t129.5 53.5q75 0 128.5 -53.5t53.5 -128.5q0 -77 -53.5 -131t-128.5 -54z" />
    <glyph glyph-name="j" unicode="j" horiz-adv-x="601" 
d="M140 -498q-70 0 -123 37t-83 100t-30 141q0 77 36.5 116.5t88.5 39.5q48 0 74 -33t26 -96q0 -41 -11.5 -65.5t-24 -44t-12.5 -45.5q0 -16 3 -32t12 -26.5t26 -10.5q44 0 54.5 46t10.5 140v1199h-118v79h418v-1078q0 -145 -33 -237t-85.5 -142t-113 -69t-115.5 -19z
M333 1142q-76 0 -130 54t-54 131q0 75 54 128.5t130 53.5q75 0 128.5 -53.5t53.5 -128.5q0 -77 -53.5 -131t-128.5 -54z" />
    <glyph glyph-name="k" unicode="k" horiz-adv-x="955" 
d="M23 0v79h104v1342h-104v79h404v-789l214 257h-107v79h331v-79h-123l-93 -117l237 -772h88v-79h-489v79h80l-150 505l12 5v-510h58v-79h-462z" />
    <glyph glyph-name="l" unicode="l" horiz-adv-x="574" 
d="M27 0v79h111v1342h-111v79h411v-1421h110v-79h-521z" />
    <glyph glyph-name="m" unicode="m" horiz-adv-x="1360" 
d="M25 0v79h99v889h-99v79h390v-107q0 12 22 42t66.5 55.5t109.5 25.5q61 0 101 -27t62 -61t28 -56q6 26 37 59.5t80 59t111 25.5q99 0 162 -75t63 -201v-708h95v-79h-454v79h59v629q0 74 -4 118.5t-15 64.5t-34 20q-24 0 -38 -18.5t-21 -55.5t-9 -92v-666h62v-79h-416v79
h58v629q0 110 -8 156.5t-43 46.5q-23 0 -37.5 -19t-20.5 -60.5t-7 -105.5v-647h58v-79h-457z" />
    <glyph glyph-name="n" unicode="n" horiz-adv-x="987" 
d="M31 0v79h109v889h-109v79h400v-96q2 8 23 35.5t62.5 52t103.5 24.5q71 0 126 -29.5t86.5 -104t31.5 -211.5v-639h105v-79h-469v79h64v642q0 94 -11 141t-40 47q-16 0 -28.5 -10.5t-22 -32t-15 -53.5t-7.5 -75v-659h60v-79h-469z" />
    <glyph glyph-name="o" unicode="o" horiz-adv-x="864" 
d="M431 -22q-63 0 -129 32.5t-122 100t-90 171t-34 245.5q0 154 35.5 257.5t92 164.5t122 87.5t125.5 26.5t126 -26.5t123 -87.5t93 -164.5t36 -257.5q0 -142 -34.5 -245.5t-90.5 -171t-122.5 -100t-130.5 -32.5zM431 72q38 0 57 105t19 350q0 246 -19 345t-57 99
q-35 0 -54 -99t-19 -345q0 -245 19 -350t54 -105z" />
    <glyph glyph-name="p" unicode="p" horiz-adv-x="924" 
d="M20 -500v79h105v1389h-105v79h404v-77q1 7 20.5 29.5t56.5 43t89 20.5q74 0 136.5 -57t100.5 -177.5t38 -310.5q0 -210 -43 -327t-112 -164t-148 -47q-43 0 -71 13.5t-42.5 29t-17.5 20.5v-464h105v-79h-516zM489 103q18 0 31.5 25.5t23.5 77t15 129t5 180.5
q0 107 -5 184.5t-14.5 128.5t-23.5 76t-32 25q-20 0 -30.5 -20.5t-16 -58.5t-11.5 -90v-488q0 -55 6 -93t18.5 -57t33.5 -19z" />
    <glyph glyph-name="q" unicode="q" horiz-adv-x="942" 
d="M416 -500v79h108v464q-3 -7 -17.5 -22t-41.5 -28t-70 -13q-79 0 -149 47t-113.5 164t-43.5 327q0 190 42.5 310.5t109.5 177.5t140 57q63 0 98.5 -21t51.5 -45t17 -36l26 86h255v-1468h101v-79h-514zM464 103q20 0 33.5 19.5t20 57.5t6.5 92v478q-2 59 -9.5 99t-19.5 60
t-31 20q-17 0 -31 -26t-24 -78.5t-15 -129.5t-5 -180t5 -180t15 -129t24 -77.5t31 -25.5z" />
    <glyph glyph-name="r" unicode="r" horiz-adv-x="793" 
d="M27 0v79h108v889h-108v79h377l20 -83q6 17 27 40.5t54 41t73 17.5q64 0 105 -39.5t61.5 -105t20.5 -143.5q0 -76 -31 -116.5t-83 -40.5q-49 0 -79 34.5t-30 94.5q0 40 17.5 63.5t34.5 45t17 55.5q0 32 -11.5 47t-41.5 15q-25 0 -54 -27t-49 -86t-20 -155v-626h106v-79
h-514z" />
    <glyph glyph-name="s" unicode="s" horiz-adv-x="653" 
d="M333 -22q-62 0 -94.5 15.5t-50.5 31t-35 15.5q-16 0 -21.5 -10t-5.5 -30h-75v347h89q6 -49 22.5 -100t41.5 -93.5t57 -69.5t69 -27q29 0 47.5 8.5t27.5 26t9 44.5q0 38 -20 76t-55.5 79.5t-82.5 87.5q-86 86 -146 177t-60 224q0 102 40 164t103 90.5t132 28.5
q47 0 75 -13.5t45.5 -27t30.5 -13.5q9 0 15.5 8t6.5 30h78v-338h-90q-3 38 -14.5 85t-31 89.5t-47 70.5t-63.5 28q-48 0 -69.5 -36t-21.5 -77q0 -51 42.5 -100.5t115.5 -114.5q50 -45 97.5 -100.5t78.5 -128t31 -167.5q0 -106 -35 -167.5t-96.5 -87t-139.5 -25.5z" />
    <glyph glyph-name="t" unicode="t" horiz-adv-x="632" 
d="M435 -18q-74 0 -140 23.5t-107 86.5t-41 181v695h-151v79h151q59 0 104 43.5t73.5 113.5t37.5 151h85v-308h172v-79h-172v-825q0 -41 20.5 -56t39.5 -15q18 0 34 6t23 14l44 -63q-31 -22 -72 -34.5t-101 -12.5z" />
    <glyph glyph-name="u" unicode="u" horiz-adv-x="960" 
d="M380 -22q-72 0 -131 27t-94 100.5t-35 214.5v648h-102v78h402v-691q0 -100 4 -152.5t16.5 -71.5t37.5 -19q21 0 39 22.5t28.5 72t10.5 129.5v632h-85v78h385v-967h85v-79h-347l-20 91q-5 -20 -30 -46.5t-67 -46.5t-97 -20z" />
    <glyph glyph-name="v" unicode="v" horiz-adv-x="717" 
d="M308 0l-223 968h-78v79h462v-79h-67l73 -376l78 376h-62v79h219v-79h-69l-207 -968h-126z" />
    <glyph glyph-name="w" unicode="w" horiz-adv-x="1204" 
d="M769 0l-206 968h-65v79h452v-79h-73l63 -381l85 381h-54v79h223v-79h-75l-207 -968h-143zM296 0l-205 968h-78v79h467v-79h-66l55 -381l83 381h-17v79h183v-79h-71l-208 -968h-143z" />
    <glyph glyph-name="x" unicode="x" horiz-adv-x="795" 
d="M13 0v79h91l187 457h124l170 432h-58v79h239v-79h-83l-196 -451l-119 1l-165 -439h61v-79h-251zM336 0v79h71l-307 889h-84v79h382h88v-79h-69l310 -889h83v-79h-385h-89z" />
    <glyph glyph-name="y" unicode="y" horiz-adv-x="777" 
d="M242 -502q-55 0 -94 38t-59 102t-20 142q0 77 32 116.5t83 39.5q49 0 80 -34t31 -97q0 -50 -20 -79.5t-39.5 -53.5t-19.5 -59q0 -23 10.5 -36t29.5 -13q10 0 17 4.5t13 17.5t12 38l80 354l-287 990h-84v79h483v-79h-79l113 -391l94 391h-74v79h234v-79h-70l-242 -975
l-91 -386q-7 -32 -23 -57t-42 -38.5t-68 -13.5z" />
    <glyph glyph-name="z" unicode="z" horiz-adv-x="740" 
d="M80 0v79l277 889h-88q-52 0 -75 -24t-28 -80.5t-5 -154.5h-77v338h582v-79l-277 -889h90q51 0 72.5 25t26 83t4.5 160h79v-347h-581z" />
    <glyph glyph-name="braceleft" unicode="{" horiz-adv-x="426" 
d="M349 -320q-26 0 -60.5 10.5t-67.5 45t-55 105.5t-22 192q0 86 12 148.5t23.5 117.5t11.5 116q0 65 -12 101.5t-57 36.5v78q45 0 57 35.5t12 102.5q0 61 -11.5 115.5t-23.5 117.5t-12 147q0 121 22 192t55 105.5t67.5 45t60.5 10.5v-79q-12 0 -32 -7.5t-41 -34.5
t-34.5 -83t-13.5 -154q0 -82 12.5 -143t24.5 -115.5t12 -116.5q0 -100 -26 -134t-52 -42q26 -11 52 -45t26 -133q0 -62 -12 -117t-24.5 -116.5t-12.5 -143.5q0 -97 13.5 -153.5t34.5 -83.5t41 -34.5t32 -7.5v-79z" />
    <glyph glyph-name="bar" unicode="|" horiz-adv-x="214" 
d="M67 -329v1829h79v-1829h-79z" />
    <glyph glyph-name="braceright" unicode="}" horiz-adv-x="426" 
d="M78 -320v79q12 0 32 7.5t40.5 34.5t34.5 83.5t14 153.5q0 82 -12 143.5t-24.5 116.5t-12.5 117q0 99 25.5 133t51.5 45q-26 8 -51.5 42t-25.5 134q0 62 12.5 116.5t24.5 115.5t12 143q0 98 -14 154t-34.5 83t-40.5 34.5t-32 7.5v79q26 0 60.5 -10.5t67.5 -45t55 -105.5
t22 -192q0 -84 -11.5 -147t-23.5 -117.5t-12 -115.5q0 -67 12 -102.5t57 -35.5v-78q-45 0 -57 -36.5t-12 -101.5q0 -61 12 -116t23.5 -117.5t11.5 -148.5q0 -121 -22 -192t-55 -105.5t-67.5 -45t-60.5 -10.5z" />
    <glyph glyph-name="asciitilde" unicode="~" horiz-adv-x="741" 
d="M505 1265q-68 0 -114.5 22t-82.5 44t-77 22q-47 0 -80 -23t-41 -39l-60 46q10 17 31.5 42t59 45t93.5 20q70 0 115.5 -22t81 -44.5t75.5 -22.5q33 0 60 13t45 30t23 28l57 -49q-9 -19 -32.5 -45.5t-61.5 -46.5t-92 -20z" />
    <glyph glyph-name="uni00A0" unicode="&#xa0;" horiz-adv-x="389" 
 />
    <glyph glyph-name="exclamdown" unicode="&#xa1;" horiz-adv-x="422" 
d="M247 705q0 -85 16.5 -183.5t38.5 -204.5t38.5 -214t16.5 -212q0 -100 -38.5 -153.5t-110.5 -53.5q-71 0 -109.5 53.5t-38.5 153.5q0 104 16.5 212t37.5 214t37.5 204.5t16.5 183.5h79zM213 1142q63 0 108 -46t45 -109q0 -64 -45 -110t-108 -46q-64 0 -109 46t-45 110
q0 63 45 109t109 46z" />
    <glyph glyph-name="cent" unicode="&#xa2;" horiz-adv-x="742" 
d="M275 -116l166 1225h59l-165 -1225h-60zM437 -22q-71 0 -139 33t-123 100.5t-87.5 171t-32.5 244.5q0 152 41 255t103 164.5t129.5 89t119.5 27.5q83 0 143.5 -41.5t94 -109t33.5 -145.5q0 -72 -32.5 -110.5t-82.5 -38.5t-83 32.5t-33 89.5q0 36 15 59t30 45t15 55
q0 44 -25.5 63.5t-54.5 19.5q-36 0 -56.5 -45.5t-30.5 -115t-12.5 -146.5t-2.5 -140q0 -81 4.5 -163t17.5 -151t39 -111t68 -42q60 0 92 37t46 78l61 -53q-24 -60 -89 -106t-168 -46z" />
    <glyph glyph-name="sterling" unicode="&#xa3;" horiz-adv-x="690" 
d="M5 708v79h543v-79h-543zM151 -24q-40 0 -72 26t-32 89t32 105.5t81.5 67.5t100.5 34q3 14 4.5 32.5t1.5 53.5q0 53 -32.5 132.5t-75.5 172t-75.5 186t-32.5 172.5q0 143 51.5 225t129.5 116t159 34q115 0 184 -76t69 -193q0 -76 -31.5 -120t-83.5 -44q-49 0 -83.5 41.5
t-34.5 104.5q0 41 20 69.5t40 50.5t20 41q0 22 -18 31.5t-48 9.5q-42 0 -66.5 -34t-34.5 -87.5t-10 -113.5q0 -81 21 -176.5t41.5 -197t20.5 -203.5q0 -53 -8 -102t-17 -83.5t-13 -46.5q30 -7 52.5 -25.5t41 -39.5t36 -36t36.5 -15t35 14t18 33h66q0 -86 -18.5 -138.5
t-53.5 -76.5t-83 -24q-33 0 -63 23.5t-53.5 54t-37.5 54t-17 23.5q-24 -83 -64 -123.5t-103 -40.5zM155 54q23 0 46 24t34 78q-37 0 -71.5 -26t-34.5 -55q0 -14 8 -17.5t18 -3.5z" />
    <glyph glyph-name="currency" unicode="&#xa4;" horiz-adv-x="874" 
d="M437 51q-49 0 -106 23.5t-107 77.5t-82 146t-32 229q0 139 32.5 228t83.5 138t107 68t104 19t104.5 -19t107.5 -68t83.5 -138t32.5 -228q0 -137 -32 -229t-82.5 -146t-107.5 -77.5t-106 -23.5zM437 123q23 0 39.5 18.5t27.5 63t16.5 123t5.5 199.5q0 118 -5.5 192.5
t-16.5 115.5t-27.5 57t-39.5 16t-40.5 -16t-28.5 -57t-16.5 -115.5t-5.5 -192.5q0 -121 5.5 -199.5t16.5 -123t28.5 -63t40.5 -18.5zM764 996l55 -55l-163 -158l-50 51zM773 45l-158 162l50 51l163 -158zM110 996l157 -162l-50 -51l-162 158zM101 45l-56 55l163 158l50 -51z
" />
    <glyph glyph-name="yen" unicode="&#xa5;" horiz-adv-x="840" 
d="M178 549v80h547v-80h-547zM178 320v80h547v-80h-547zM193 0v79h112v508l-189 734h-100v79h512v-79h-77l151 -654h-75l170 654h-87v79h268v-79h-96l-177 -681v-561h114v-79h-526z" />
    <glyph glyph-name="brokenbar" unicode="&#xa6;" horiz-adv-x="214" 
d="M67 871v629h79v-629h-79zM67 -329v620h79v-620h-79z" />
    <glyph glyph-name="section" unicode="&#xa7;" horiz-adv-x="642" 
d="M296 -378q-56 0 -112.5 23.5t-94.5 69.5t-38 114q0 74 38 116t93 42q49 0 77 -24.5t28 -71.5q0 -42 -19 -62t-38 -34.5t-19 -37.5q0 -25 24.5 -40.5t51.5 -15.5q35 0 59 11t36.5 45.5t12.5 107.5q0 60 -36 108.5t-89 98.5t-106.5 112.5t-89.5 149.5t-36 210
q0 68 24 117.5t57 83t61 51t35 19.5q-25 28 -60 75t-61.5 111.5t-26.5 142.5q0 95 38 156t94 90.5t110 29.5q85 0 151.5 -52.5t66.5 -154.5q0 -70 -28 -114t-83 -44q-49 0 -77 25t-28 71q0 37 19 57.5t38 37t19 39.5q0 16 -7.5 28.5t-24.5 20t-44 7.5q-41 0 -66 -24.5
t-25 -103.5q0 -81 38 -137t94 -103t112 -101.5t93.5 -131t37.5 -193.5q0 -96 -36 -155t-78.5 -88t-60.5 -37q26 -28 60 -75.5t59.5 -114t25.5 -152.5q0 -108 -44.5 -174.5t-107.5 -97.5t-117 -31zM360 333q17 5 36.5 38.5t19.5 75.5q0 59 -24 118t-58 109t-66 82
q-23 -5 -46.5 -41t-23.5 -79q0 -51 21 -101t50.5 -92t55.5 -71.5t35 -38.5z" />
    <glyph glyph-name="dieresis" unicode="&#xa8;" horiz-adv-x="800" 
d="M533 1244q-40 0 -68.5 29t-28.5 67q0 41 28.5 70.5t68.5 29.5q38 0 67 -29.5t29 -70.5q0 -38 -29 -67t-67 -29zM276 1244q-38 0 -66 29t-28 67q0 41 28 70.5t66 29.5q40 0 68.5 -29.5t28.5 -70.5q0 -38 -28.5 -67t-68.5 -29z" />
    <glyph glyph-name="copyright" unicode="&#xa9;" horiz-adv-x="1195" 
d="M600 -22q-106 0 -199 54.5t-163.5 152.5t-110.5 228.5t-40 282.5t40 282t110.5 228t163.5 152.5t199 54.5q105 0 197 -54.5t162.5 -152.5t110 -228t39.5 -282t-39.5 -282.5t-110 -228.5t-162.5 -152.5t-197 -54.5zM596 235q-72 0 -128 56.5t-88.5 161t-32.5 247.5
q0 118 32 225.5t93.5 175.5t147.5 68q71 0 115.5 -52t44.5 -124q0 -52 -20.5 -83.5t-57.5 -31.5q-40 0 -57.5 21t-17.5 52q0 29 14.5 43.5t29 23.5t14.5 23q0 18 -11 34.5t-47 16.5q-31 0 -49 -36t-27 -94t-12 -126.5t-3 -135.5q0 -57 2.5 -122.5t11 -124.5t25 -97t44.5 -38
q35 0 61.5 34.5t39.5 62.5l56 -66q-24 -52 -70 -83t-110 -31zM600 59q91 0 168 49t134.5 136.5t89.5 203t32 248.5q0 132 -32 247.5t-89.5 203t-134.5 136.5t-168 49t-169.5 -49t-135.5 -136.5t-89 -203t-32 -247.5q0 -133 32 -248.5t89 -203t135.5 -136.5t169.5 -49z" />
    <glyph glyph-name="ordfeminine" unicode="&#xaa;" horiz-adv-x="534" 
d="M206 1139q-55 0 -82 25t-27 65q0 43 30 66t69 37t69 27t30 36q0 35 -4.5 43t-28.5 8q-15 0 -21 -4.5t-6 -9.5v-16v-22q0 -19 -17.5 -33.5t-49.5 -14.5q-25 0 -40 17.5t-15 41.5q0 45 46.5 75t110.5 30q63 0 114 -23.5t51 -102.5v-145q0 -32 21 -32q15 0 19 9l22 -44
q-7 -12 -32.5 -21.5t-66.5 -9.5t-63 9t-36 37q-1 -9 -20.5 -28.5t-72.5 -19.5zM271 1218q9 0 16.5 8t7.5 21v64q-1 -2 -8.5 -7t-16.5 -13t-15.5 -19.5t-6.5 -26.5t6 -21t17 -6z" />
    <glyph glyph-name="guillemotleft" unicode="&#xab;" horiz-adv-x="750" 
d="M537 304l-223 232l223 233h87l-224 -233l227 -232h-90zM347 304l-223 232l223 233h87l-224 -233l227 -232h-90z" />
    <glyph glyph-name="logicalnot" unicode="&#xac;" horiz-adv-x="726" 
d="M519 323v239l35 -37h-465v75h504v-277h-74z" />
    <glyph glyph-name="uni00AD" unicode="&#xad;" horiz-adv-x="600" 
d="M107 522v80h387v-80h-387z" />
    <glyph glyph-name="registered" unicode="&#xae;" horiz-adv-x="963" 
d="M498 391q-119 0 -205 68.5t-132.5 184.5t-46.5 259q0 142 46.5 257.5t132.5 184t205 68.5q120 0 206 -68.5t131.5 -184.5t45.5 -257q0 -142 -45.5 -258.5t-131.5 -185t-206 -68.5zM498 450q106 0 177.5 61.5t108 164.5t36.5 227q0 123 -36.5 225.5t-108 164t-177.5 61.5
t-178 -61.5t-108 -164t-36 -225.5q0 -124 36 -227t108 -164.5t178 -61.5zM630 576q-50 0 -81 23t-31 78q0 46 3 91t3 67q0 20 -8 35.5t-25 15.5h-17v-242h42v-59h-218v59h54v530h-54v59h220q48 0 97 -35.5t49 -115.5q0 -61 -25 -109t-91 -56q65 -2 86.5 -29.5t21.5 -71.5
q0 -49 -4 -98t-4 -67q0 -10 8.5 -15t12.5 -5q15 0 15 14h43q-3 -27 -22.5 -48t-74.5 -21zM474 946h14q10 0 20 16t16.5 46t6.5 72t-4 61.5t-11.5 26t-18.5 6.5h-23v-228z" />
    <glyph glyph-name="macron" unicode="&#xaf;" horiz-adv-x="934" 
d="M235 1351v80h603v-80h-603z" />
    <glyph glyph-name="degree" unicode="&#xb0;" horiz-adv-x="632" 
d="M316 1160q-44 0 -88 22.5t-72.5 65.5t-28.5 105q0 90 58.5 138.5t130.5 48.5q71 0 130 -45t59 -142t-59.5 -145t-129.5 -48zM316 1234q22 0 38.5 23.5t16.5 93.5q0 68 -16.5 92.5t-38.5 24.5t-39 -25.5t-17 -93.5q0 -70 17 -92.5t39 -22.5z" />
    <glyph glyph-name="plusminus" unicode="&#xb1;" horiz-adv-x="835" 
d="M380 369v624h79v-624h-79zM107 640v80h622v-80h-622zM117 241v80h605v-80h-605z" />
    <glyph glyph-name="uni00B2" unicode="&#xb2;" horiz-adv-x="780" 
d="M510 697q-60 0 -108.5 24.5t-95.5 48.5t-103 24q-41 0 -62.5 -31t-25.5 -60h-64q0 125 36.5 203t90 127t107 85t90 75t36.5 97q0 20 -11 48t-34 49.5t-58 21.5q-22 0 -40.5 -2.5t-29.5 -8t-11 -15.5q0 -9 18 -20t36 -30t18 -54q0 -49 -31.5 -73.5t-78.5 -24.5
q-49 0 -80.5 32.5t-31.5 92.5q0 74 79 117.5t200 43.5q55 0 113 -7t108 -28.5t80.5 -64t30.5 -113.5q0 -76 -34.5 -118.5t-91 -64.5t-122 -34.5t-128 -27t-110.5 -42t-69 -80.5q19 30 53 49.5t77 28.5t90 9q62 0 102 -16.5t69 -33t54 -16.5q35 0 44.5 15t9.5 25h63v-47
q0 -33 -15 -81t-55 -85.5t-115 -37.5z" />
    <glyph glyph-name="uni00B3" unicode="&#xb3;" horiz-adv-x="779" 
d="M350 690q-71 0 -131 20.5t-96 57t-36 84.5q0 60 29.5 99t84.5 39q54 0 78 -20t24 -59q0 -34 -20 -51t-40 -32.5t-20 -45.5q0 -15 24 -19.5t55 -4.5q23 0 41.5 9.5t29 41t10.5 96.5q0 47 -8 78t-23 49t-35 25.5t-43 7.5v64q25 0 47 3.5t38.5 17t26 44t9.5 85.5
q0 52 -12 78t-32.5 35t-48.5 9q-33 0 -55 -5.5t-22 -21.5q0 -28 20 -42.5t40 -31.5t20 -51q0 -40 -24.5 -61t-77.5 -21q-55 0 -84.5 39.5t-29.5 99.5q0 49 36 85t96 56t131 20q82 0 156.5 -16t122 -59t47.5 -123q0 -58 -33 -92t-81.5 -51t-95.5 -23t-76 -8q31 -1 81.5 -8
t101.5 -26t85.5 -58.5t34.5 -107.5q0 -97 -96.5 -151t-248.5 -54z" />
    <glyph glyph-name="acute" unicode="&#xb4;" horiz-adv-x="590" 
d="M215 1247l-64 68l196 145q37 33 68.5 22.5t44.5 -33.5q14 -23 5 -50.5t-49 -43.5z" />
    <glyph glyph-name="uni00B5" unicode="&#xb5;" horiz-adv-x="960" 
d="M416 -22q-71 0 -139.5 27t-112.5 100.5t-44 214.5v716h300v-681q0 -100 6 -152.5t18.5 -71.5t33.5 -19t39 22.5t28.5 72t10.5 129.5v710h300v-967h85v-79h-347l-20 91q-5 -20 -23.5 -46.5t-51.5 -46.5t-83 -20zM120 1046h300v-1539h-300v1539z" />
    <glyph glyph-name="paragraph" unicode="&#xb6;" horiz-adv-x="915" 
d="M365 -260q-57 0 -101 21.5t-69.5 60t-25.5 89.5q0 50 27.5 79.5t70.5 29.5t69 -20.5t26 -63.5q0 -28 -9 -41.5t-18.5 -24t-9.5 -27.5q0 -16 10 -23.5t29 -7.5q38 0 59.5 23.5t30 69.5t8.5 115v678q-8 -38 -52 -62.5t-81 -24.5h-2q-129 0 -209 112t-80 293q0 117 45 203
t118 133.5t157 47.5h548v-79h-98v-1186q0 -111 -37.5 -184t-95 -115.5t-119.5 -63t-114 -26.5t-77 -6zM497 -181q59 25 86 75t27 161v1266h-67v-1314q0 -64 -5.5 -108.5t-40.5 -79.5z" />
    <glyph glyph-name="periodcentered" unicode="&#xb7;" horiz-adv-x="482" 
d="M255 654q-63 0 -108 46t-45 109q0 64 45 110t108 46q64 0 109 -46t45 -110q0 -63 -45 -109t-109 -46z" />
    <glyph glyph-name="cedilla" unicode="&#xb8;" horiz-adv-x="614" 
d="M285 -287q-47 0 -90.5 13t-58.5 21l31 77q11 -7 48.5 -20t67.5 -13q32 0 45.5 10t13.5 30q0 25 -14.5 29.5t-26.5 4.5q-13 0 -28.5 -4.5t-22.5 -11.5l-74 4l55 136h79l-36 -84q4 6 24.5 14t57.5 8q63 0 87 -27t24 -69q0 -50 -46 -84t-136 -34z" />
    <glyph glyph-name="uni00B9" unicode="&#xb9;" horiz-adv-x="588" 
d="M77 704v61h73v455h-36.5h-36.5v64q41 0 89.5 20.5t93.5 53t76.5 69.5t38.5 70h64v-732h73v-61h-435z" />
    <glyph glyph-name="ordmasculine" unicode="&#xba;" horiz-adv-x="530" 
d="M265 1140q-82 0 -140 54.5t-58 136.5q0 80 58 134.5t140 54.5q83 0 141 -54.5t58 -134.5q0 -82 -58 -136.5t-141 -54.5zM265 1217q30 0 42.5 38t12.5 76q0 37 -12.5 74.5t-42.5 37.5t-42 -37.5t-12 -74.5q0 -38 12 -76t42 -38z" />
    <glyph glyph-name="guillemotright" unicode="&#xbb;" horiz-adv-x="757" 
d="M322 304l225 232l-222 233h87l223 -233l-223 -232h-90zM124 304l225 232l-222 233h87l223 -233l-223 -232h-90z" />
    <glyph glyph-name="onequarter" unicode="&#xbc;" horiz-adv-x="1550" 
d="M77 649v61h73v455h-36.5h-36.5v64q41 0 89.5 20.5t93.5 53t76.5 69.5t38.5 70h64v-732h73v-61h-435zM210 0l876 1400h108l-875 -1400h-109zM971 0v61h93v91h-200v60l221 417q67 0 129 43t77 98h69v-558h1q42 0 54.5 41t12.5 104h64v-205h-132v-91h90v-61h-479zM937 204
l-15 8h144v233l23 28z" />
    <glyph glyph-name="onehalf" unicode="&#xbd;" horiz-adv-x="1596" 
d="M77 649v61h73v455h-36.5h-36.5v64q41 0 89.5 20.5t93.5 53t76.5 69.5t38.5 70h64v-732h73v-61h-435zM210 0l876 1400h108l-875 -1400h-109zM1325 -6q-60 0 -108.5 24.5t-95.5 48.5t-103 24q-41 0 -62.5 -31t-25.5 -60h-64q0 124 36.5 202.5t90 127.5t107 85t90 75
t36.5 97q0 20 -11 48t-34 49.5t-58 21.5q-22 0 -40.5 -2.5t-29.5 -8t-11 -15.5q0 -9 18 -20t36 -30t18 -54q0 -49 -31.5 -73.5t-78.5 -24.5q-49 0 -80.5 32.5t-31.5 92.5q0 74 79 117.5t200 43.5q55 0 113 -7t108 -28.5t80.5 -64t30.5 -113.5q0 -76 -34.5 -118.5t-91 -64.5
t-122 -34.5t-128 -27t-110.5 -42t-69 -80.5q19 30 53 49.5t77 28.5t90 9q62 0 102 -16.5t69 -33t54 -16.5q35 0 44.5 15t9.5 25h63v-47q0 -33 -15 -81t-55 -85.5t-115 -37.5z" />
    <glyph glyph-name="threequarters" unicode="&#xbe;" horiz-adv-x="1742" 
d="M350 635q-71 0 -131 20.5t-96 57t-36 84.5q0 60 29.5 99t84.5 39q54 0 78 -20t24 -59q0 -34 -20 -51t-40 -32.5t-20 -45.5q0 -15 24 -19.5t55 -4.5q23 0 41.5 9.5t29 41t10.5 96.5q0 47 -8 78t-23 49t-35 25.5t-43 7.5v64q25 0 47 3.5t38.5 17t26 44t9.5 85.5
q0 52 -12 78t-32.5 35t-48.5 9q-33 0 -55 -5.5t-22 -21.5q0 -28 20 -42.5t40 -31.5t20 -51q0 -40 -24.5 -61t-77.5 -21q-55 0 -84.5 39.5t-29.5 99.5q0 49 36 85t96 56t131 20q82 0 156.5 -16t122 -59t47.5 -123q0 -58 -33 -92t-81.5 -51t-95.5 -23t-76 -8q31 -1 81.5 -8
t101.5 -26t85.5 -58.5t34.5 -107.5q0 -97 -96.5 -151t-248.5 -54zM401 0l876 1400h108l-875 -1400h-109zM1163 0v61h93v91h-200v60l221 417q67 0 129 43t77 98h69v-558h1q42 0 54.5 41t12.5 104h64v-205h-132v-91h90v-61h-479zM1129 204l-15 8h144v233l23 28z" />
    <glyph glyph-name="questiondown" unicode="&#xbf;" horiz-adv-x="737" 
d="M517 761q0 -115 -15 -203.5t-36 -159t-43 -133t-37 -126t-15 -138.5q0 -130 42.5 -190t105.5 -60q42 0 59.5 21t17.5 54q0 32 -19.5 54.5t-39 48.5t-19.5 67q0 62 30.5 89t80.5 27t86 -44t36 -121t-38 -139.5t-104.5 -99t-152.5 -36.5q-52 0 -114 14t-117.5 49t-91 97.5
t-35.5 159.5q0 93 34.5 163t85 131.5t101 127t85 149t34.5 198.5h79zM476 1136q63 0 109 -46t46 -109q0 -64 -46 -110t-109 -46q-62 0 -108 46t-46 110q0 63 46 109t108 46z" />
    <glyph glyph-name="Agrave" unicode="&#xc0;" horiz-adv-x="740" 
d="M-5 0v79h81l189 1321h156l237 -1321h93v-79h-488v79h72l-94 656h4l-86 -656h65v-79h-229zM149 233v73h200v-73h-200zM447 1449l-210 103q-31 15 -46 31t-15 44q0 25 19 41.5t47 16.5q22 0 36.5 -8.5t29.5 -20.5l186 -152z" />
    <glyph glyph-name="Aacute" unicode="&#xc1;" horiz-adv-x="740" 
d="M-5 0v79h81l189 1321h156l237 -1321h93v-79h-488v79h72l-94 656h4l-86 -656h65v-79h-229zM149 233v73h200v-73h-200zM247 1440l-64 68l195 145q15 11 29 17.5t27 6.5q20 0 35 -10.5t23 -24.5t8 -30q0 -19 -12 -36t-40 -28z" />
    <glyph glyph-name="Acircumflex" unicode="&#xc2;" horiz-adv-x="740" 
d="M-5 0v79h81l189 1321h156l237 -1321h93v-79h-488v79h72l-94 656h4l-86 -656h65v-79h-229zM149 233v73h200v-73h-200zM165 1469l148 201h70l146 -201h-97l-85 127l-85 -127h-97z" />
    <glyph glyph-name="Atilde" unicode="&#xc3;" horiz-adv-x="740" 
d="M-5 0v79h81l189 1321h156l237 -1321h93v-79h-488v79h72l-94 656h4l-86 -656h65v-79h-229zM149 233v73h200v-73h-200zM433 1495q-40 0 -66 12.5t-45.5 24.5t-40.5 12q-36 0 -54 -12.5t-23 -20.5l-81 29q6 18 25.5 43t48.5 44t63 19q46 0 70 -11.5t43 -23.5t50 -12
q36 0 50.5 13t18.5 23l79 -31q-3 -12 -21.5 -38t-48 -48.5t-68.5 -22.5z" />
    <glyph glyph-name="Adieresis" unicode="&#xc4;" horiz-adv-x="740" 
d="M-5 0v79h81l189 1321h156l237 -1321h93v-79h-488v79h72l-94 656h4l-86 -656h65v-79h-229zM149 233v73h200v-73h-200zM474 1503q-39 0 -67.5 29t-28.5 67q0 41 28.5 70.5t67.5 29.5t68 -29.5t29 -70.5q0 -38 -29 -67t-68 -29zM218 1503q-38 0 -66 29t-28 67q0 41 28 70.5
t66 29.5q40 0 68.5 -29.5t28.5 -70.5q0 -38 -28.5 -67t-68.5 -29z" />
    <glyph glyph-name="Aring" unicode="&#xc5;" horiz-adv-x="740" 
d="M-5 0v79h81l189 1321h156l237 -1321h93v-79h-488v79h72l-94 656h4l-86 -656h65v-79h-229zM149 233v73h200v-73h-200zM348 1469q-44 0 -78.5 32.5t-34.5 85.5q0 55 34.5 86.5t78.5 31.5q42 0 75.5 -31.5t33.5 -86.5q0 -53 -33.5 -85.5t-75.5 -32.5zM348 1535
q22 0 32.5 17.5t10.5 36.5q0 15 -10.5 32.5t-32.5 17.5q-25 0 -35.5 -17.5t-10.5 -32.5q0 -19 10.5 -36.5t35.5 -17.5z" />
    <glyph glyph-name="AE" unicode="&#xc6;" horiz-adv-x="1162" 
d="M407 0v79h71v1321h587v-364h-80q0 81 -10 145.5t-46 102t-114 37.5h-39v-561h209v91h80v-258h-80v87h-209v-601h39q78 0 114 38.5t46 103.5t10 146h80v-367h-658zM216 307l4 80h282l-4 -80h-282zM16 0v79h53l340 1321h86l-333 -1321h77v-79h-223z" />
    <glyph glyph-name="Ccedilla" unicode="&#xc7;" horiz-adv-x="779" 
d="M459 -20q-175 0 -283 188t-108 530q0 138 24.5 267.5t74.5 232.5t125.5 163.5t177.5 60.5q71 0 127 -45t88 -111t32 -128q0 -64 -26.5 -109t-85.5 -45q-66 0 -92 35.5t-26 93.5q0 41 19 67.5t38 49.5t19 55t-10.5 43t-29.5 11q-33 0 -56.5 -43.5t-39 -114.5t-24 -156
t-12 -170t-3.5 -155q0 -106 4.5 -201.5t13.5 -176t23.5 -139t34 -91.5t45.5 -33q37 0 59.5 19.5t36.5 55t25 84.5l66 -42q-21 -60 -51.5 -104t-75 -68t-110.5 -24zM470 -337q-47 0 -93.5 11.5t-61.5 19.5l31 78q11 -7 46.5 -19t66.5 -12t51 16.5t20 44.5q0 32 -12.5 42.5
t-31.5 10.5q-16 0 -28.5 -6t-22.5 -20l-74 4l59 167h79l-40 -108q4 6 29 15.5t62 9.5q41 0 76.5 -25.5t35.5 -90.5q0 -43 -23 -74t-66 -47.5t-103 -16.5z" />
    <glyph glyph-name="Egrave" unicode="&#xc8;" horiz-adv-x="786" 
d="M42 0v79h96v1242h-96v79h667v-364h-80q0 81 -18.5 145.5t-56 102t-96.5 37.5h-18v-581h144v91h79v-258h-79v87h-144v-581h18q59 0 96.5 38.5t56 103.5t18.5 146h80v-367h-667zM506 1449l-210 103q-31 15 -46 31t-15 44q0 25 19 41.5t47 16.5q22 0 36.5 -8.5t29.5 -20.5
l186 -152z" />
    <glyph glyph-name="Eacute" unicode="&#xc9;" horiz-adv-x="786" 
d="M42 0v79h96v1242h-96v79h667v-364h-80q0 81 -18.5 145.5t-56 102t-96.5 37.5h-18v-581h144v91h79v-258h-79v87h-144v-581h18q59 0 96.5 38.5t56 103.5t18.5 146h80v-367h-667zM306 1440l-64 68l195 145q15 11 29 17.5t27 6.5q20 0 35 -10.5t23 -24.5t8 -30q0 -19 -12 -36
t-40 -28z" />
    <glyph glyph-name="Ecircumflex" unicode="&#xca;" horiz-adv-x="786" 
d="M42 0v79h96v1242h-96v79h667v-364h-80q0 81 -18.5 145.5t-56 102t-96.5 37.5h-18v-581h144v91h79v-258h-79v87h-144v-581h18q59 0 96.5 38.5t56 103.5t18.5 146h80v-367h-667zM224 1469l148 201h70l146 -201h-97l-85 127l-85 -127h-97z" />
    <glyph glyph-name="Edieresis" unicode="&#xcb;" horiz-adv-x="786" 
d="M42 0v79h96v1242h-96v79h667v-364h-80q0 81 -18.5 145.5t-56 102t-96.5 37.5h-18v-581h144v91h79v-258h-79v87h-144v-581h18q59 0 96.5 38.5t56 103.5t18.5 146h80v-367h-667zM533 1503q-39 0 -67.5 29t-28.5 67q0 41 28.5 70.5t67.5 29.5t68 -29.5t29 -70.5
q0 -38 -29 -67t-68 -29zM277 1503q-38 0 -66 29t-28 67q0 41 28 70.5t66 29.5q40 0 68.5 -29.5t28.5 -70.5q0 -38 -28.5 -67t-68.5 -29z" />
    <glyph glyph-name="Igrave" unicode="&#xcc;" horiz-adv-x="617" 
d="M62 0v79h98v1242h-98v79h496v-79h-100v-1242h100v-79h-496zM411 1449l-210 103q-31 15 -46 31t-15 44q0 25 19 41.5t47 16.5q22 0 36.5 -8.5t29.5 -20.5l186 -152z" />
    <glyph glyph-name="Iacute" unicode="&#xcd;" horiz-adv-x="617" 
d="M62 0v79h98v1242h-98v79h496v-79h-100v-1242h100v-79h-496zM211 1440l-64 68l195 145q15 11 29 17.5t27 6.5q20 0 35 -10.5t23 -24.5t8 -30q0 -19 -12 -36t-40 -28z" />
    <glyph glyph-name="Icircumflex" unicode="&#xce;" horiz-adv-x="617" 
d="M62 0v79h98v1242h-98v79h496v-79h-100v-1242h100v-79h-496zM129 1469l148 201h70l146 -201h-97l-85 127l-85 -127h-97z" />
    <glyph glyph-name="Idieresis" unicode="&#xcf;" horiz-adv-x="617" 
d="M62 0v79h98v1242h-98v79h496v-79h-100v-1242h100v-79h-496zM438 1503q-39 0 -67.5 29t-28.5 67q0 41 28.5 70.5t67.5 29.5t68 -29.5t29 -70.5q0 -38 -29 -67t-68 -29zM182 1503q-38 0 -66 29t-28 67q0 41 28 70.5t66 29.5q40 0 68.5 -29.5t28.5 -70.5q0 -38 -28.5 -67
t-68.5 -29z" />
    <glyph glyph-name="Eth" unicode="&#xd0;" horiz-adv-x="962" 
d="M51 677v80h488v-80h-488zM42 0v79h96v1242h-96v79h438q101 0 189 -78.5t142.5 -231.5t54.5 -379q0 -228 -55 -386.5t-143 -241.5t-188 -83h-438zM440 79h27q27 0 51.5 73.5t40 214.5t15.5 344q0 189 -15.5 325.5t-40 210.5t-51.5 74h-27v-1242z" />
    <glyph glyph-name="Ntilde" unicode="&#xd1;" horiz-adv-x="862" 
d="M27 0v79h93v1242h-93v79h420l234 -713h-16v634h-87v79h257v-79h-89v-1321h-169l-396 1233h20v-1154h87v-79h-261zM526 1495q-40 0 -66 12.5t-45.5 24.5t-40.5 12q-36 0 -54 -12.5t-23 -20.5l-81 29q6 18 25.5 43t48.5 44t63 19q46 0 70 -11.5t43 -23.5t50 -12
q36 0 50.5 13t18.5 23l79 -31q-3 -12 -21.5 -38t-48 -48.5t-68.5 -22.5z" />
    <glyph glyph-name="Ograve" unicode="&#xd2;" horiz-adv-x="906" 
d="M457 -22q-111 0 -199 82.5t-139 242.5t-51 395q0 236 51 397t139 244t199 83q112 0 201.5 -83t141.5 -244t52 -397q0 -235 -52 -395t-141.5 -242.5t-201.5 -82.5zM457 57q23 0 37.5 39.5t23.5 120t12.5 200.5t3.5 281t-3.5 281.5t-12.5 201.5t-23.5 121.5t-37.5 40.5
q-22 0 -36 -40.5t-21.5 -121.5t-10.5 -201.5t-3 -281.5t3 -281t10.5 -200.5t21.5 -120t36 -39.5zM557 1449l-210 103q-31 15 -46 31t-15 44q0 25 19 41.5t47 16.5q22 0 36.5 -8.5t29.5 -20.5l186 -152z" />
    <glyph glyph-name="Oacute" unicode="&#xd3;" horiz-adv-x="906" 
d="M457 -22q-111 0 -199 82.5t-139 242.5t-51 395q0 236 51 397t139 244t199 83q112 0 201.5 -83t141.5 -244t52 -397q0 -235 -52 -395t-141.5 -242.5t-201.5 -82.5zM457 57q23 0 37.5 39.5t23.5 120t12.5 200.5t3.5 281t-3.5 281.5t-12.5 201.5t-23.5 121.5t-37.5 40.5
q-22 0 -36 -40.5t-21.5 -121.5t-10.5 -201.5t-3 -281.5t3 -281t10.5 -200.5t21.5 -120t36 -39.5zM357 1440l-64 68l195 145q15 11 29 17.5t27 6.5q20 0 35 -10.5t23 -24.5t8 -30q0 -19 -12 -36t-40 -28z" />
    <glyph glyph-name="Ocircumflex" unicode="&#xd4;" horiz-adv-x="906" 
d="M457 -22q-111 0 -199 82.5t-139 242.5t-51 395q0 236 51 397t139 244t199 83q112 0 201.5 -83t141.5 -244t52 -397q0 -235 -52 -395t-141.5 -242.5t-201.5 -82.5zM457 57q23 0 37.5 39.5t23.5 120t12.5 200.5t3.5 281t-3.5 281.5t-12.5 201.5t-23.5 121.5t-37.5 40.5
q-22 0 -36 -40.5t-21.5 -121.5t-10.5 -201.5t-3 -281.5t3 -281t10.5 -200.5t21.5 -120t36 -39.5zM275 1469l148 201h70l146 -201h-97l-85 127l-85 -127h-97z" />
    <glyph glyph-name="Otilde" unicode="&#xd5;" horiz-adv-x="906" 
d="M457 -22q-111 0 -199 82.5t-139 242.5t-51 395q0 236 51 397t139 244t199 83q112 0 201.5 -83t141.5 -244t52 -397q0 -235 -52 -395t-141.5 -242.5t-201.5 -82.5zM457 57q23 0 37.5 39.5t23.5 120t12.5 200.5t3.5 281t-3.5 281.5t-12.5 201.5t-23.5 121.5t-37.5 40.5
q-22 0 -36 -40.5t-21.5 -121.5t-10.5 -201.5t-3 -281.5t3 -281t10.5 -200.5t21.5 -120t36 -39.5zM543 1495q-40 0 -66 12.5t-45.5 24.5t-40.5 12q-36 0 -54 -12.5t-23 -20.5l-81 29q6 18 25.5 43t48.5 44t63 19q46 0 70 -11.5t43 -23.5t50 -12q36 0 50.5 13t18.5 23l79 -31
q-3 -12 -21.5 -38t-48 -48.5t-68.5 -22.5z" />
    <glyph glyph-name="Odieresis" unicode="&#xd6;" horiz-adv-x="906" 
d="M457 -22q-111 0 -199 82.5t-139 242.5t-51 395q0 236 51 397t139 244t199 83q112 0 201.5 -83t141.5 -244t52 -397q0 -235 -52 -395t-141.5 -242.5t-201.5 -82.5zM457 57q23 0 37.5 39.5t23.5 120t12.5 200.5t3.5 281t-3.5 281.5t-12.5 201.5t-23.5 121.5t-37.5 40.5
q-22 0 -36 -40.5t-21.5 -121.5t-10.5 -201.5t-3 -281.5t3 -281t10.5 -200.5t21.5 -120t36 -39.5zM584 1503q-39 0 -67.5 29t-28.5 67q0 41 28.5 70.5t67.5 29.5t68 -29.5t29 -70.5q0 -38 -29 -67t-68 -29zM328 1503q-38 0 -66 29t-28 67q0 41 28 70.5t66 29.5
q40 0 68.5 -29.5t28.5 -70.5q0 -38 -28.5 -67t-68.5 -29z" />
    <glyph glyph-name="multiply" unicode="&#xd7;" horiz-adv-x="752" 
d="M605 293l-493 492l49 49l492 -492zM161 293l-46 45l491 491l46 -45z" />
    <glyph glyph-name="Oslash" unicode="&#xd8;" horiz-adv-x="906" 
d="M185 -104l487 1608h82l-486 -1608h-83zM457 -22q-111 0 -199 82.5t-139 242.5t-51 395q0 236 51 397t139 244t199 83q112 0 201.5 -83t141.5 -244t52 -397q0 -235 -52 -395t-141.5 -242.5t-201.5 -82.5zM457 57q23 0 37.5 39.5t23.5 120t12.5 200.5t3.5 281t-3.5 281.5
t-12.5 201.5t-23.5 121.5t-37.5 40.5q-22 0 -36 -40.5t-21.5 -121.5t-10.5 -201.5t-3 -281.5t3 -281t10.5 -200.5t21.5 -120t36 -39.5z" />
    <glyph glyph-name="Ugrave" unicode="&#xd9;" horiz-adv-x="867" 
d="M468 -24q-52 0 -110.5 14t-109 53.5t-82 114.5t-31.5 197v966h-100v79h517v-79h-112v-981q0 -135 25.5 -199t85.5 -64q20 0 39.5 10t35 35t24 69.5t8.5 112.5v1017h-89v79h265v-79h-95v-1023q0 -123 -31.5 -193.5t-92 -99.5t-147.5 -29zM556 1449l-210 103q-31 15 -46 31
t-15 44q0 25 19 41.5t47 16.5q22 0 36.5 -8.5t29.5 -20.5l186 -152z" />
    <glyph glyph-name="Uacute" unicode="&#xda;" horiz-adv-x="867" 
d="M468 -24q-52 0 -110.5 14t-109 53.5t-82 114.5t-31.5 197v966h-100v79h517v-79h-112v-981q0 -135 25.5 -199t85.5 -64q20 0 39.5 10t35 35t24 69.5t8.5 112.5v1017h-89v79h265v-79h-95v-1023q0 -123 -31.5 -193.5t-92 -99.5t-147.5 -29zM356 1440l-64 68l195 145
q15 11 29 17.5t27 6.5q20 0 35 -10.5t23 -24.5t8 -30q0 -19 -12 -36t-40 -28z" />
    <glyph glyph-name="Ucircumflex" unicode="&#xdb;" horiz-adv-x="867" 
d="M468 -24q-52 0 -110.5 14t-109 53.5t-82 114.5t-31.5 197v966h-100v79h517v-79h-112v-981q0 -135 25.5 -199t85.5 -64q20 0 39.5 10t35 35t24 69.5t8.5 112.5v1017h-89v79h265v-79h-95v-1023q0 -123 -31.5 -193.5t-92 -99.5t-147.5 -29zM274 1469l148 201h70l146 -201
h-97l-85 127l-85 -127h-97z" />
    <glyph glyph-name="Udieresis" unicode="&#xdc;" horiz-adv-x="867" 
d="M468 -24q-52 0 -110.5 14t-109 53.5t-82 114.5t-31.5 197v966h-100v79h517v-79h-112v-981q0 -135 25.5 -199t85.5 -64q20 0 39.5 10t35 35t24 69.5t8.5 112.5v1017h-89v79h265v-79h-95v-1023q0 -123 -31.5 -193.5t-92 -99.5t-147.5 -29zM583 1503q-39 0 -67.5 29
t-28.5 67q0 41 28.5 70.5t67.5 29.5t68 -29.5t29 -70.5q0 -38 -29 -67t-68 -29zM327 1503q-38 0 -66 29t-28 67q0 41 28 70.5t66 29.5q40 0 68.5 -29.5t28.5 -70.5q0 -38 -28.5 -67t-68.5 -29z" />
    <glyph glyph-name="Yacute" unicode="&#xdd;" horiz-adv-x="894" 
d="M193 0v79h112v508l-189 734h-100v79h512v-79h-77l151 -654h-75l170 654h-87v79h268v-79h-96l-177 -681v-561h114v-79h-526zM347 1440l-64 68l195 145q15 11 29 17.5t27 6.5q20 0 35 -10.5t23 -24.5t8 -30q0 -19 -12 -36t-40 -28z" />
    <glyph glyph-name="Thorn" unicode="&#xde;" horiz-adv-x="1012" 
d="M433 312v87h16q46 0 78.5 47t50 128.5t17.5 185.5q0 97 -15 172t-43.5 118t-65.5 43h-38v87h166q101 0 175 -52t114.5 -147t40.5 -223q0 -133 -42 -233.5t-119 -156.5t-183 -56h-152zM62 0v79h98v1242h-98v79h496v-79h-100v-1242h100v-79h-496z" />
    <glyph glyph-name="germandbls" unicode="&#xdf;" horiz-adv-x="1054" 
d="M658 -22q-60 0 -112.5 42.5t-52.5 124.5q0 58 24.5 94.5t67.5 36.5q38 0 59 -25.5t21 -66.5q0 -28 -11.5 -44t-22.5 -26.5t-11 -23.5q0 -16 11 -25.5t33 -9.5q26 0 40 17t19.5 51t5.5 86q0 75 -23 128t-57 96t-68.5 86t-57.5 96.5t-23 128.5q0 79 24.5 131t60.5 88.5
t72 69.5t60.5 72t24.5 97q0 71 -33 107t-106 36q-64 0 -98 -46t-47 -120.5t-13 -162.5v-1016h-410v79h96v832q0 156 59 271t158.5 178.5t222.5 63.5q122 0 188 -56.5t66 -163.5q0 -74 -24.5 -127t-57 -93t-57 -74t-24.5 -70q0 -45 31 -87t76.5 -86.5t90.5 -95.5t76 -112
t31 -137q0 -124 -44.5 -200t-115 -110t-149.5 -34z" />
    <glyph glyph-name="agrave" unicode="&#xe0;" horiz-adv-x="906" 
d="M305 -22q-70 0 -129 33.5t-95 94.5t-36 143q0 98 43.5 161.5t107.5 106t128 75.5t107.5 69.5t43.5 89.5q0 71 -13 119.5t-38.5 73.5t-63.5 25q-47 0 -76 -21.5t-29 -52.5q0 -29 13.5 -50t27 -45t13.5 -65q0 -55 -32 -86t-82 -31q-52 0 -84.5 44t-32.5 120
q0 81 44.5 144.5t123 100t179.5 36.5q102 0 181 -39.5t124 -124.5t45 -223v-495q0 -56 8 -74.5t26 -18.5q20 0 34 11.5t21 19.5l46 -59q-18 -27 -75.5 -53.5t-134.5 -26.5q-79 0 -119.5 21t-57 47.5t-24.5 41.5q-3 -10 -22.5 -37t-60.5 -51t-111 -24zM411 108q19 0 33.5 18
t22.5 48.5t8 66.5v369q-4 -28 -24 -52t-44 -55t-42 -82t-18 -134q0 -88 18.5 -133.5t45.5 -45.5zM540 1105l-210 103q-31 15 -46 31t-15 44q0 25 19 41.5t47 16.5q22 0 36.5 -8.5t29.5 -20.5l186 -152z" />
    <glyph glyph-name="aacute" unicode="&#xe1;" horiz-adv-x="906" 
d="M305 -22q-70 0 -129 33.5t-95 94.5t-36 143q0 98 43.5 161.5t107.5 106t128 75.5t107.5 69.5t43.5 89.5q0 71 -13 119.5t-38.5 73.5t-63.5 25q-47 0 -76 -21.5t-29 -52.5q0 -29 13.5 -50t27 -45t13.5 -65q0 -55 -32 -86t-82 -31q-52 0 -84.5 44t-32.5 120
q0 81 44.5 144.5t123 100t179.5 36.5q102 0 181 -39.5t124 -124.5t45 -223v-495q0 -56 8 -74.5t26 -18.5q20 0 34 11.5t21 19.5l46 -59q-18 -27 -75.5 -53.5t-134.5 -26.5q-79 0 -119.5 21t-57 47.5t-24.5 41.5q-3 -10 -22.5 -37t-60.5 -51t-111 -24zM411 108q19 0 33.5 18
t22.5 48.5t8 66.5v369q-4 -28 -24 -52t-44 -55t-42 -82t-18 -134q0 -88 18.5 -133.5t45.5 -45.5zM340 1089l-64 68l195 145q15 11 29 17.5t27 6.5q20 0 35 -10.5t23 -24.5t8 -30q0 -19 -12 -36t-40 -28z" />
    <glyph glyph-name="acircumflex" unicode="&#xe2;" horiz-adv-x="906" 
d="M305 -22q-70 0 -129 33.5t-95 94.5t-36 143q0 98 43.5 161.5t107.5 106t128 75.5t107.5 69.5t43.5 89.5q0 71 -13 119.5t-38.5 73.5t-63.5 25q-47 0 -76 -21.5t-29 -52.5q0 -29 13.5 -50t27 -45t13.5 -65q0 -55 -32 -86t-82 -31q-52 0 -84.5 44t-32.5 120
q0 81 44.5 144.5t123 100t179.5 36.5q102 0 181 -39.5t124 -124.5t45 -223v-495q0 -56 8 -74.5t26 -18.5q20 0 34 11.5t21 19.5l46 -59q-18 -27 -75.5 -53.5t-134.5 -26.5q-79 0 -119.5 21t-57 47.5t-24.5 41.5q-3 -10 -22.5 -37t-60.5 -51t-111 -24zM411 108q19 0 33.5 18
t22.5 48.5t8 66.5v369q-4 -28 -24 -52t-44 -55t-42 -82t-18 -134q0 -88 18.5 -133.5t45.5 -45.5zM258 1131l148 201h70l146 -201h-97l-85 127l-85 -127h-97z" />
    <glyph glyph-name="atilde" unicode="&#xe3;" horiz-adv-x="906" 
d="M305 -22q-70 0 -129 33.5t-95 94.5t-36 143q0 98 43.5 161.5t107.5 106t128 75.5t107.5 69.5t43.5 89.5q0 71 -13 119.5t-38.5 73.5t-63.5 25q-47 0 -76 -21.5t-29 -52.5q0 -29 13.5 -50t27 -45t13.5 -65q0 -55 -32 -86t-82 -31q-52 0 -84.5 44t-32.5 120
q0 81 44.5 144.5t123 100t179.5 36.5q102 0 181 -39.5t124 -124.5t45 -223v-495q0 -56 8 -74.5t26 -18.5q20 0 34 11.5t21 19.5l46 -59q-18 -27 -75.5 -53.5t-134.5 -26.5q-79 0 -119.5 21t-57 47.5t-24.5 41.5q-3 -10 -22.5 -37t-60.5 -51t-111 -24zM411 108q19 0 33.5 18
t22.5 48.5t8 66.5v369q-4 -28 -24 -52t-44 -55t-42 -82t-18 -134q0 -88 18.5 -133.5t45.5 -45.5zM526 1146q-40 0 -66 12.5t-45.5 24.5t-40.5 12q-36 0 -54 -12.5t-23 -20.5l-81 29q6 18 25.5 43t48.5 44t63 19q46 0 70 -11.5t43 -23.5t50 -12q36 0 50.5 13t18.5 23l79 -31
q-3 -12 -21.5 -38t-48 -48.5t-68.5 -22.5z" />
    <glyph glyph-name="adieresis" unicode="&#xe4;" horiz-adv-x="906" 
d="M305 -22q-70 0 -129 33.5t-95 94.5t-36 143q0 98 43.5 161.5t107.5 106t128 75.5t107.5 69.5t43.5 89.5q0 71 -13 119.5t-38.5 73.5t-63.5 25q-47 0 -76 -21.5t-29 -52.5q0 -29 13.5 -50t27 -45t13.5 -65q0 -55 -32 -86t-82 -31q-52 0 -84.5 44t-32.5 120
q0 81 44.5 144.5t123 100t179.5 36.5q102 0 181 -39.5t124 -124.5t45 -223v-495q0 -56 8 -74.5t26 -18.5q20 0 34 11.5t21 19.5l46 -59q-18 -27 -75.5 -53.5t-134.5 -26.5q-79 0 -119.5 21t-57 47.5t-24.5 41.5q-3 -10 -22.5 -37t-60.5 -51t-111 -24zM411 108q19 0 33.5 18
t22.5 48.5t8 66.5v369q-4 -28 -24 -52t-44 -55t-42 -82t-18 -134q0 -88 18.5 -133.5t45.5 -45.5zM567 1136q-39 0 -67.5 29t-28.5 67q0 41 28.5 70.5t67.5 29.5t68 -29.5t29 -70.5q0 -38 -29 -67t-68 -29zM311 1136q-38 0 -66 29t-28 67q0 41 28 70.5t66 29.5
q40 0 68.5 -29.5t28.5 -70.5q0 -38 -28.5 -67t-68.5 -29z" />
    <glyph glyph-name="aring" unicode="&#xe5;" horiz-adv-x="906" 
d="M305 -22q-70 0 -129 33.5t-95 94.5t-36 143q0 98 43.5 161.5t107.5 106t128 75.5t107.5 69.5t43.5 89.5q0 71 -13 119.5t-38.5 73.5t-63.5 25q-47 0 -76 -21.5t-29 -52.5q0 -29 13.5 -50t27 -45t13.5 -65q0 -55 -32 -86t-82 -31q-52 0 -84.5 44t-32.5 120
q0 81 44.5 144.5t123 100t179.5 36.5q102 0 181 -39.5t124 -124.5t45 -223v-495q0 -56 8 -74.5t26 -18.5q20 0 34 11.5t21 19.5l46 -59q-18 -27 -75.5 -53.5t-134.5 -26.5q-79 0 -119.5 21t-57 47.5t-24.5 41.5q-3 -10 -22.5 -37t-60.5 -51t-111 -24zM411 108q19 0 33.5 18
t22.5 48.5t8 66.5v369q-4 -28 -24 -52t-44 -55t-42 -82t-18 -134q0 -88 18.5 -133.5t45.5 -45.5zM441 1100q-44 0 -78.5 32.5t-34.5 85.5q0 55 34.5 86.5t78.5 31.5q42 0 75.5 -31.5t33.5 -86.5q0 -53 -33.5 -85.5t-75.5 -32.5zM441 1166q22 0 32.5 17.5t10.5 36.5
q0 15 -10.5 32.5t-32.5 17.5q-25 0 -35.5 -17.5t-10.5 -32.5q0 -19 10.5 -36.5t35.5 -17.5z" />
    <glyph glyph-name="ae" unicode="&#xe6;" horiz-adv-x="1303" 
d="M358 -22q-171 0 -242 73.5t-71 197.5q0 98 43.5 161.5t107.5 106t128 75.5t107.5 69.5t43.5 89.5q0 71 -13 119.5t-38.5 73.5t-63.5 25q-47 0 -76 -21.5t-29 -52.5q0 -29 13.5 -50t27 -45t13.5 -65q0 -55 -32 -86t-82 -31q-52 0 -84.5 44t-32.5 120q0 81 44.5 144.5
t123 100t179.5 36.5q102 0 181 -39.5t124 -124.5t45 -223v-155q0 -117 -17 -203.5t-44.5 -144.5t-58.5 -89q-52 -52 -122.5 -79t-174.5 -27zM411 108q29 0 46.5 39t17.5 94v369q-4 -28 -24 -52t-44 -55t-42 -82t-18 -134q0 -59 8.5 -98.5t23 -60t32.5 -20.5zM897 -20
q-82 0 -154 31t-126.5 96.5t-85 169.5t-30.5 250q0 148 37 250.5t97 165.5t127.5 91.5t127.5 28.5q72 0 136.5 -32t114 -92.5t78 -147.5t28.5 -198q0 -20 -0.5 -40t-2.5 -41h-458v79h178q0 162 -9.5 246t-26 114.5t-38.5 30.5q-23 0 -43.5 -32t-33 -123t-12.5 -271
q0 -136 7.5 -229t24.5 -149.5t42.5 -81t61.5 -24.5q78 0 125 37.5t68 76.5l65 -52q-26 -55 -107 -104.5t-191 -49.5z" />
    <glyph glyph-name="ccedilla" unicode="&#xe7;" horiz-adv-x="755" 
d="M437 -22q-71 0 -139 33t-123 100.5t-87.5 171t-32.5 244.5q0 152 41 255t103 164.5t129.5 89t119.5 27.5q83 0 143.5 -41.5t94 -109t33.5 -145.5q0 -72 -32.5 -110.5t-82.5 -38.5t-83 32.5t-33 89.5q0 36 15 59t30 45t15 55q0 44 -25.5 63.5t-54.5 19.5
q-36 0 -56.5 -45.5t-30.5 -115t-12.5 -146.5t-2.5 -140q0 -81 4.5 -163t17.5 -151t39 -111t68 -42q60 0 92 37t46 78l61 -53q-24 -60 -89 -106t-168 -46zM475 -337q-47 0 -93.5 11.5t-61.5 19.5l31 78q11 -7 46.5 -19t65.5 -12q31 0 51.5 16.5t20.5 44.5q0 32 -12.5 42.5
t-31.5 10.5q-16 0 -28.5 -6t-22.5 -20l-74 4l59 167h79l-40 -108q4 6 29 15.5t62 9.5q41 0 76.5 -25.5t35.5 -90.5q0 -43 -23 -74t-66 -47.5t-103 -16.5z" />
    <glyph glyph-name="egrave" unicode="&#xe8;" horiz-adv-x="858" 
d="M453 -20q-82 0 -154 31t-126.5 96.5t-85.5 169.5t-31 250q0 148 37.5 250.5t97.5 165.5t127.5 91.5t126.5 28.5q72 0 136.5 -32t114 -92.5t78 -147.5t28.5 -198q0 -20 -0.5 -40t-2.5 -41h-457v79h177q0 162 -9.5 246t-26 114.5t-38.5 30.5t-42.5 -32t-33.5 -123t-13 -271
q0 -136 8 -229t25 -149.5t42.5 -81t61.5 -24.5q77 0 124 37.5t68 76.5l66 -52q-26 -55 -107.5 -104.5t-190.5 -49.5zM540 1105l-210 103q-31 15 -46 31t-15 44q0 25 19 41.5t47 16.5q22 0 36.5 -8.5t29.5 -20.5l186 -152z" />
    <glyph glyph-name="eacute" unicode="&#xe9;" horiz-adv-x="858" 
d="M453 -20q-82 0 -154 31t-126.5 96.5t-85.5 169.5t-31 250q0 148 37.5 250.5t97.5 165.5t127.5 91.5t126.5 28.5q72 0 136.5 -32t114 -92.5t78 -147.5t28.5 -198q0 -20 -0.5 -40t-2.5 -41h-457v79h177q0 162 -9.5 246t-26 114.5t-38.5 30.5t-42.5 -32t-33.5 -123t-13 -271
q0 -136 8 -229t25 -149.5t42.5 -81t61.5 -24.5q77 0 124 37.5t68 76.5l66 -52q-26 -55 -107.5 -104.5t-190.5 -49.5zM340 1089l-64 68l195 145q15 11 29 17.5t27 6.5q20 0 35 -10.5t23 -24.5t8 -30q0 -19 -12 -36t-40 -28z" />
    <glyph glyph-name="ecircumflex" unicode="&#xea;" horiz-adv-x="858" 
d="M453 -20q-82 0 -154 31t-126.5 96.5t-85.5 169.5t-31 250q0 148 37.5 250.5t97.5 165.5t127.5 91.5t126.5 28.5q72 0 136.5 -32t114 -92.5t78 -147.5t28.5 -198q0 -20 -0.5 -40t-2.5 -41h-457v79h177q0 162 -9.5 246t-26 114.5t-38.5 30.5t-42.5 -32t-33.5 -123t-13 -271
q0 -136 8 -229t25 -149.5t42.5 -81t61.5 -24.5q77 0 124 37.5t68 76.5l66 -52q-26 -55 -107.5 -104.5t-190.5 -49.5zM258 1131l148 201h70l146 -201h-97l-85 127l-85 -127h-97z" />
    <glyph glyph-name="edieresis" unicode="&#xeb;" horiz-adv-x="858" 
d="M453 -20q-82 0 -154 31t-126.5 96.5t-85.5 169.5t-31 250q0 148 37.5 250.5t97.5 165.5t127.5 91.5t126.5 28.5q72 0 136.5 -32t114 -92.5t78 -147.5t28.5 -198q0 -20 -0.5 -40t-2.5 -41h-457v79h177q0 162 -9.5 246t-26 114.5t-38.5 30.5t-42.5 -32t-33.5 -123t-13 -271
q0 -136 8 -229t25 -149.5t42.5 -81t61.5 -24.5q77 0 124 37.5t68 76.5l66 -52q-26 -55 -107.5 -104.5t-190.5 -49.5zM567 1136q-39 0 -67.5 29t-28.5 67q0 41 28.5 70.5t67.5 29.5t68 -29.5t29 -70.5q0 -38 -29 -67t-68 -29zM311 1136q-38 0 -66 29t-28 67q0 41 28 70.5
t66 29.5q40 0 68.5 -29.5t28.5 -70.5q0 -38 -28.5 -67t-68.5 -29z" />
    <glyph glyph-name="igrave" unicode="&#xec;" horiz-adv-x="550" 
d="M25 0v79h100v889h-100v79h400v-968h99v-79h-499zM375 1105l-210 103q-31 15 -46 31t-15 44q0 25 19 41.5t47 16.5q22 0 36.5 -8.5t29.5 -20.5l186 -152z" />
    <glyph glyph-name="iacute" unicode="&#xed;" horiz-adv-x="550" 
d="M25 0v79h100v889h-100v79h400v-968h99v-79h-499zM175 1089l-64 68l195 145q15 11 29 17.5t27 6.5q20 0 35 -10.5t23 -24.5t8 -30q0 -19 -12 -36t-40 -28z" />
    <glyph glyph-name="icircumflex" unicode="&#xee;" horiz-adv-x="550" 
d="M25 0v79h100v889h-100v79h400v-968h99v-79h-499zM93 1131l148 201h70l146 -201h-97l-85 127l-85 -127h-97z" />
    <glyph glyph-name="idieresis" unicode="&#xef;" horiz-adv-x="550" 
d="M25 0v79h100v889h-100v79h400v-968h99v-79h-499zM402 1136q-39 0 -67.5 29t-28.5 67q0 41 28.5 70.5t67.5 29.5t68 -29.5t29 -70.5q0 -38 -29 -67t-68 -29zM146 1136q-38 0 -66 29t-28 67q0 41 28 70.5t66 29.5q40 0 68.5 -29.5t28.5 -70.5q0 -38 -28.5 -67t-68.5 -29z
" />
    <glyph glyph-name="eth" unicode="&#xf0;" horiz-adv-x="857" 
d="M420 -22q-82 0 -163.5 65t-135.5 188.5t-54 297.5q0 140 33.5 239.5t87 162.5t115 92.5t117.5 29.5q15 0 30 -3.5t27.5 -7.5t17.5 -6q-3 37 -11.5 75.5t-19 71t-20.5 47.5l-58 -85l-70 48l60 83q-13 13 -56.5 30.5t-77.5 29.5l26 84q11 -1 38 -10.5t56.5 -21.5t45.5 -21
l12 -5l44 56l70 -47l-44 -60q54 -36 104.5 -96t90 -152t63 -224t23.5 -312q0 -179 -55 -301.5t-136.5 -185t-159.5 -62.5zM420 57q24 0 36 64t16 170.5t4 235.5q0 126 -4 227t-16 160.5t-36 59.5t-36.5 -59.5t-17 -160.5t-4.5 -227q0 -129 4.5 -235.5t17 -170.5t36.5 -64z
" />
    <glyph glyph-name="ntilde" unicode="&#xf1;" horiz-adv-x="1012" 
d="M31 0v79h109v889h-109v79h400v-96q2 8 23 35.5t62.5 52t103.5 24.5q71 0 126 -29.5t86.5 -104t31.5 -211.5v-639h105v-79h-469v79h64v642q0 94 -11 141t-40 47q-16 0 -28.5 -10.5t-22 -32t-15 -53.5t-7.5 -75v-659h60v-79h-469zM590 1146q-40 0 -66 12.5t-45.5 24.5
t-40.5 12q-36 0 -54 -12.5t-23 -20.5l-81 29q6 18 25.5 43t48.5 44t63 19q46 0 70 -11.5t43 -23.5t50 -12q36 0 50.5 13t18.5 23l79 -31q-3 -12 -21.5 -38t-48 -48.5t-68.5 -22.5z" />
    <glyph glyph-name="ograve" unicode="&#xf2;" horiz-adv-x="864" 
d="M431 -22q-63 0 -129 32.5t-122 100t-90 171t-34 245.5q0 154 35.5 257.5t92 164.5t122 87.5t125.5 26.5t126 -26.5t123 -87.5t93 -164.5t36 -257.5q0 -142 -34.5 -245.5t-90.5 -171t-122.5 -100t-130.5 -32.5zM431 72q38 0 57 105t19 350q0 246 -19 345t-57 99
q-35 0 -54 -99t-19 -345q0 -245 19 -350t54 -105zM531 1105l-210 103q-31 15 -46 31t-15 44q0 25 19 41.5t47 16.5q22 0 36.5 -8.5t29.5 -20.5l186 -152z" />
    <glyph glyph-name="oacute" unicode="&#xf3;" horiz-adv-x="864" 
d="M431 -22q-63 0 -129 32.5t-122 100t-90 171t-34 245.5q0 154 35.5 257.5t92 164.5t122 87.5t125.5 26.5t126 -26.5t123 -87.5t93 -164.5t36 -257.5q0 -142 -34.5 -245.5t-90.5 -171t-122.5 -100t-130.5 -32.5zM431 72q38 0 57 105t19 350q0 246 -19 345t-57 99
q-35 0 -54 -99t-19 -345q0 -245 19 -350t54 -105zM331 1089l-64 68l195 145q15 11 29 17.5t27 6.5q20 0 35 -10.5t23 -24.5t8 -30q0 -19 -12 -36t-40 -28z" />
    <glyph glyph-name="ocircumflex" unicode="&#xf4;" horiz-adv-x="864" 
d="M431 -22q-63 0 -129 32.5t-122 100t-90 171t-34 245.5q0 154 35.5 257.5t92 164.5t122 87.5t125.5 26.5t126 -26.5t123 -87.5t93 -164.5t36 -257.5q0 -142 -34.5 -245.5t-90.5 -171t-122.5 -100t-130.5 -32.5zM431 72q38 0 57 105t19 350q0 246 -19 345t-57 99
q-35 0 -54 -99t-19 -345q0 -245 19 -350t54 -105zM249 1131l148 201h70l146 -201h-97l-85 127l-85 -127h-97z" />
    <glyph glyph-name="otilde" unicode="&#xf5;" horiz-adv-x="864" 
d="M431 -22q-63 0 -129 32.5t-122 100t-90 171t-34 245.5q0 154 35.5 257.5t92 164.5t122 87.5t125.5 26.5t126 -26.5t123 -87.5t93 -164.5t36 -257.5q0 -142 -34.5 -245.5t-90.5 -171t-122.5 -100t-130.5 -32.5zM431 72q38 0 57 105t19 350q0 246 -19 345t-57 99
q-35 0 -54 -99t-19 -345q0 -245 19 -350t54 -105zM517 1146q-40 0 -66 12.5t-45.5 24.5t-40.5 12q-36 0 -54 -12.5t-23 -20.5l-81 29q6 18 25.5 43t48.5 44t63 19q46 0 70 -11.5t43 -23.5t50 -12q36 0 50.5 13t18.5 23l79 -31q-3 -12 -21.5 -38t-48 -48.5t-68.5 -22.5z" />
    <glyph glyph-name="odieresis" unicode="&#xf6;" horiz-adv-x="864" 
d="M431 -22q-63 0 -129 32.5t-122 100t-90 171t-34 245.5q0 154 35.5 257.5t92 164.5t122 87.5t125.5 26.5t126 -26.5t123 -87.5t93 -164.5t36 -257.5q0 -142 -34.5 -245.5t-90.5 -171t-122.5 -100t-130.5 -32.5zM431 72q38 0 57 105t19 350q0 246 -19 345t-57 99
q-35 0 -54 -99t-19 -345q0 -245 19 -350t54 -105zM558 1136q-39 0 -67.5 29t-28.5 67q0 41 28.5 70.5t67.5 29.5t68 -29.5t29 -70.5q0 -38 -29 -67t-68 -29zM302 1136q-38 0 -66 29t-28 67q0 41 28 70.5t66 29.5q40 0 68.5 -29.5t28.5 -70.5q0 -38 -28.5 -67t-68.5 -29z" />
    <glyph glyph-name="divide" unicode="&#xf7;" horiz-adv-x="812" 
d="M414 271q-32 0 -55 23.5t-23 55.5t23 55.5t55 23.5t55 -23.5t23 -55.5t-23 -55.5t-55 -23.5zM414 669q-32 0 -55 23.5t-23 55.5t23 55.5t55 23.5t55 -23.5t23 -55.5t-23 -55.5t-55 -23.5zM108 509v80h605v-80h-605z" />
    <glyph glyph-name="oslash" unicode="&#xf8;" horiz-adv-x="864" 
d="M105 -104l555 1224h88l-553 -1224h-90zM431 -22q-63 0 -129 32.5t-122 100t-90 171t-34 245.5q0 154 35.5 257.5t92 164.5t122 87.5t125.5 26.5t126 -26.5t123 -87.5t93 -164.5t36 -257.5q0 -142 -34.5 -245.5t-90.5 -171t-122.5 -100t-130.5 -32.5zM431 72q38 0 57 105
t19 350q0 246 -19 345t-57 99q-35 0 -54 -99t-19 -345q0 -245 19 -350t54 -105z" />
    <glyph glyph-name="ugrave" unicode="&#xf9;" horiz-adv-x="960" 
d="M380 -22q-72 0 -131 27t-94 100.5t-35 214.5v648h-102v78h402v-691q0 -100 4 -152.5t16.5 -71.5t37.5 -19q21 0 39 22.5t28.5 72t10.5 129.5v632h-85v78h385v-967h85v-79h-347l-20 91q-5 -20 -30 -46.5t-67 -46.5t-97 -20zM595 1105l-210 103q-31 15 -46 31t-15 44
q0 25 19 41.5t47 16.5q22 0 36.5 -8.5t29.5 -20.5l186 -152z" />
    <glyph glyph-name="uacute" unicode="&#xfa;" horiz-adv-x="960" 
d="M380 -22q-72 0 -131 27t-94 100.5t-35 214.5v648h-102v78h402v-691q0 -100 4 -152.5t16.5 -71.5t37.5 -19q21 0 39 22.5t28.5 72t10.5 129.5v632h-85v78h385v-967h85v-79h-347l-20 91q-5 -20 -30 -46.5t-67 -46.5t-97 -20zM395 1089l-64 68l195 145q15 11 29 17.5t27 6.5
q20 0 35 -10.5t23 -24.5t8 -30q0 -19 -12 -36t-40 -28z" />
    <glyph glyph-name="ucircumflex" unicode="&#xfb;" horiz-adv-x="960" 
d="M380 -22q-72 0 -131 27t-94 100.5t-35 214.5v648h-102v78h402v-691q0 -100 4 -152.5t16.5 -71.5t37.5 -19q21 0 39 22.5t28.5 72t10.5 129.5v632h-85v78h385v-967h85v-79h-347l-20 91q-5 -20 -30 -46.5t-67 -46.5t-97 -20zM313 1131l148 201h70l146 -201h-97l-85 127
l-85 -127h-97z" />
    <glyph glyph-name="udieresis" unicode="&#xfc;" horiz-adv-x="960" 
d="M380 -22q-72 0 -131 27t-94 100.5t-35 214.5v648h-102v78h402v-691q0 -100 4 -152.5t16.5 -71.5t37.5 -19q21 0 39 22.5t28.5 72t10.5 129.5v632h-85v78h385v-967h85v-79h-347l-20 91q-5 -20 -30 -46.5t-67 -46.5t-97 -20zM622 1136q-39 0 -67.5 29t-28.5 67
q0 41 28.5 70.5t67.5 29.5t68 -29.5t29 -70.5q0 -38 -29 -67t-68 -29zM366 1136q-38 0 -66 29t-28 67q0 41 28 70.5t66 29.5q40 0 68.5 -29.5t28.5 -70.5q0 -38 -28.5 -67t-68.5 -29z" />
    <glyph glyph-name="yacute" unicode="&#xfd;" horiz-adv-x="777" 
d="M242 -502q-55 0 -94 38t-59 102t-20 142q0 77 32 116.5t83 39.5q49 0 80 -34t31 -97q0 -50 -20 -79.5t-39.5 -53.5t-19.5 -59q0 -23 10.5 -36t29.5 -13q10 0 17 4.5t13 17.5t12 38l80 354l-287 990h-84v79h483v-79h-79l113 -391l94 391h-74v79h234v-79h-70l-242 -975
l-91 -386q-7 -32 -23 -57t-42 -38.5t-68 -13.5zM295 1088l-64 68l195 145q15 11 29 17.5t27 6.5q20 0 35 -10.5t23 -24.5t8 -30q0 -19 -12 -36t-40 -28z" />
    <glyph glyph-name="thorn" unicode="&#xfe;" horiz-adv-x="1012" 
d="M40 -500v79h98v1842h-98v79h398v-541q4 12 22 34.5t51 40t80 17.5q101 0 172.5 -61.5t109.5 -180.5t38 -293q0 -189 -44.5 -307t-121.5 -173.5t-176 -55.5q-31 0 -54.5 5t-40 14.5t-25.5 20t-11 21.5v-462h97v-79h-495zM524 103q29 0 45.5 45t24 112t9.5 136.5t2 116.5
q0 39 -3.5 104.5t-12 131.5t-22.5 111t-36 45q-20 0 -37 -25t-29.5 -60.5t-19.5 -70t-7 -51.5v-443q4 -33 14.5 -68.5t29 -59.5t42.5 -24z" />
    <glyph glyph-name="ydieresis" unicode="&#xff;" horiz-adv-x="777" 
d="M242 -502q-55 0 -94 38t-59 102t-20 142q0 77 32 116.5t83 39.5q49 0 80 -34t31 -97q0 -50 -20 -79.5t-39.5 -53.5t-19.5 -59q0 -23 10.5 -36t29.5 -13q10 0 17 4.5t13 17.5t12 38l80 354l-287 990h-84v79h483v-79h-79l113 -391l94 391h-74v79h234v-79h-70l-242 -975
l-91 -386q-7 -32 -23 -57t-42 -38.5t-68 -13.5zM522 1135q-39 0 -67.5 29t-28.5 67q0 41 28.5 70.5t67.5 29.5t68 -29.5t29 -70.5q0 -38 -29 -67t-68 -29zM266 1135q-38 0 -66 29t-28 67q0 41 28 70.5t66 29.5q40 0 68.5 -29.5t28.5 -70.5q0 -38 -28.5 -67t-68.5 -29z" />
    <glyph glyph-name="Amacron" unicode="&#x100;" horiz-adv-x="740" 
d="M-5 0v79h81l189 1321h156l237 -1321h93v-79h-488v79h72l-94 656h4l-86 -656h65v-79h-229zM149 233v73h200v-73h-200zM46 1544v80h603v-80h-603z" />
    <glyph glyph-name="amacron" unicode="&#x101;" horiz-adv-x="906" 
d="M305 -22q-70 0 -129 33.5t-95 94.5t-36 143q0 98 43.5 161.5t107.5 106t128 75.5t107.5 69.5t43.5 89.5q0 71 -13 119.5t-38.5 73.5t-63.5 25q-47 0 -76 -21.5t-29 -52.5q0 -29 13.5 -50t27 -45t13.5 -65q0 -55 -32 -86t-82 -31q-52 0 -84.5 44t-32.5 120
q0 81 44.5 144.5t123 100t179.5 36.5q102 0 181 -39.5t124 -124.5t45 -223v-495q0 -56 8 -74.5t26 -18.5q20 0 34 11.5t21 19.5l46 -59q-18 -27 -75.5 -53.5t-134.5 -26.5q-79 0 -119.5 21t-57 47.5t-24.5 41.5q-3 -10 -22.5 -37t-60.5 -51t-111 -24zM411 108q19 0 33.5 18
t22.5 48.5t8 66.5v369q-4 -28 -24 -52t-44 -55t-42 -82t-18 -134q0 -88 18.5 -133.5t45.5 -45.5zM184 1141v80h512v-80h-512z" />
    <glyph glyph-name="Abreve" unicode="&#x102;" horiz-adv-x="740" 
d="M-5 0v79h81l189 1321h156l237 -1321h93v-79h-488v79h72l-94 656h4l-86 -656h65v-79h-229zM149 233v73h200v-73h-200zM345 1498q-66 0 -106.5 31t-59 78t-18.5 94h79q5 -65 34.5 -94t70.5 -29q42 0 71.5 29t33.5 94h79q0 -47 -18.5 -94t-58.5 -78t-107 -31z" />
    <glyph glyph-name="abreve" unicode="&#x103;" horiz-adv-x="906" 
d="M305 -22q-70 0 -129 33.5t-95 94.5t-36 143q0 98 43.5 161.5t107.5 106t128 75.5t107.5 69.5t43.5 89.5q0 71 -13 119.5t-38.5 73.5t-63.5 25q-47 0 -76 -21.5t-29 -52.5q0 -29 13.5 -50t27 -45t13.5 -65q0 -55 -32 -86t-82 -31q-52 0 -84.5 44t-32.5 120
q0 81 44.5 144.5t123 100t179.5 36.5q102 0 181 -39.5t124 -124.5t45 -223v-495q0 -56 8 -74.5t26 -18.5q20 0 34 11.5t21 19.5l46 -59q-18 -27 -75.5 -53.5t-134.5 -26.5q-79 0 -119.5 21t-57 47.5t-24.5 41.5q-3 -10 -22.5 -37t-60.5 -51t-111 -24zM411 108q19 0 33.5 18
t22.5 48.5t8 66.5v369q-4 -28 -24 -52t-44 -55t-42 -82t-18 -134q0 -88 18.5 -133.5t45.5 -45.5zM438 1104q-66 0 -106.5 31t-59 78t-18.5 94h79q5 -65 34.5 -94t70.5 -29q42 0 71.5 29t33.5 94h79q0 -47 -18.5 -94t-58.5 -78t-107 -31z" />
    <glyph glyph-name="Aogonek" unicode="&#x104;" horiz-adv-x="740" 
d="M-5 0v79h81l189 1321h156l237 -1321h93v-79h-488v79h72l-94 656h4l-86 -656h65v-79h-229zM149 233v73h200v-73h-200zM742 -314q-47 0 -85 15.5t-60 47t-22 78.5q0 58 25.5 97t59 63.5t58.5 39.5l33 -27q-23 -28 -40 -58.5t-17 -79.5q0 -38 28.5 -52t51.5 -14q26 0 48 7
t37 17l39 -78q-25 -25 -66.5 -40.5t-89.5 -15.5z" />
    <glyph glyph-name="aogonek" unicode="&#x105;" horiz-adv-x="906" 
d="M305 -22q-70 0 -129 33.5t-95 94.5t-36 143q0 98 43.5 161.5t107.5 106t128 75.5t107.5 69.5t43.5 89.5q0 71 -13 119.5t-38.5 73.5t-63.5 25q-47 0 -76 -21.5t-29 -52.5q0 -29 13.5 -50t27 -45t13.5 -65q0 -55 -32 -86t-82 -31q-52 0 -84.5 44t-32.5 120
q0 81 44.5 144.5t123 100t179.5 36.5q102 0 181 -39.5t124 -124.5t45 -223v-495q0 -56 8 -74.5t26 -18.5q20 0 34 11.5t21 19.5l46 -59q-18 -27 -75.5 -53.5t-134.5 -26.5q-79 0 -122 13.5t-62 32.5t-27 35q-3 -11 -20 -30.5t-55.5 -36t-108.5 -16.5zM411 108q19 0 33.5 18
t22.5 48.5t8 66.5v369q-4 -28 -24 -52t-44 -55t-42 -82t-18 -134q0 -88 18.5 -133.5t45.5 -45.5zM902 -254q-47 0 -85 15.5t-60 47t-22 78.5q0 58 25.5 96.5t59 63.5t58.5 39l32 -26q-22 -28 -39 -58.5t-17 -79.5q0 -38 28.5 -52.5t51.5 -14.5q26 0 48 7t37 17l39 -77
q-26 -25 -67 -40.5t-89 -15.5z" />
    <glyph glyph-name="Cacute" unicode="&#x106;" horiz-adv-x="779" 
d="M459 -20q-175 0 -283 188t-108 530q0 138 24.5 267.5t74.5 232.5t125.5 163.5t177.5 60.5q71 0 127 -45t88 -111t32 -128q0 -64 -26.5 -109t-85.5 -45q-66 0 -92 35.5t-26 93.5q0 41 19 67.5t38 49.5t19 55t-10.5 43t-29.5 11q-33 0 -56.5 -43.5t-39 -114.5t-24 -156
t-12 -170t-3.5 -155q0 -106 4.5 -201.5t13.5 -176t23.5 -139t34 -91.5t45.5 -33q37 0 59.5 19.5t36.5 55t25 84.5l66 -42q-21 -60 -51.5 -104t-75 -68t-110.5 -24zM368 1440l-64 68l195 145q15 11 29 17.5t27 6.5q20 0 35 -10.5t23 -24.5t8 -30q0 -19 -12 -36t-40 -28z" />
    <glyph glyph-name="cacute" unicode="&#x107;" horiz-adv-x="755" 
d="M437 -22q-71 0 -139 33t-123 100.5t-87.5 171t-32.5 244.5q0 152 41 255t103 164.5t129.5 89t119.5 27.5q83 0 143.5 -41.5t94 -109t33.5 -145.5q0 -72 -32.5 -110.5t-82.5 -38.5t-83 32.5t-33 89.5q0 36 15 59t30 45t15 55q0 44 -25.5 63.5t-54.5 19.5
q-36 0 -56.5 -45.5t-30.5 -115t-12.5 -146.5t-2.5 -140q0 -81 4.5 -163t17.5 -151t39 -111t68 -42q60 0 92 37t46 78l61 -53q-24 -60 -89 -106t-168 -46zM345 1089l-64 68l195 145q15 11 29 17.5t27 6.5q20 0 35 -10.5t23 -24.5t8 -30q0 -19 -12 -36t-40 -28z" />
    <glyph glyph-name="ccircumflex" unicode="&#x109;" horiz-adv-x="755" 
d="M437 -22q-71 0 -139 33t-123 100.5t-87.5 171t-32.5 244.5q0 152 41 255t103 164.5t129.5 89t119.5 27.5q83 0 143.5 -41.5t94 -109t33.5 -145.5q0 -72 -32.5 -110.5t-82.5 -38.5t-83 32.5t-33 89.5q0 36 15 59t30 45t15 55q0 44 -25.5 63.5t-54.5 19.5
q-36 0 -56.5 -45.5t-30.5 -115t-12.5 -146.5t-2.5 -140q0 -81 4.5 -163t17.5 -151t39 -111t68 -42q60 0 92 37t46 78l61 -53q-24 -60 -89 -106t-168 -46zM263 1131l148 201h70l146 -201h-97l-85 127l-85 -127h-97z" />
    <glyph glyph-name="Cdotaccent" unicode="&#x10a;" horiz-adv-x="779" 
d="M459 -20q-175 0 -283 188t-108 530q0 138 24.5 267.5t74.5 232.5t125.5 163.5t177.5 60.5q71 0 127 -45t88 -111t32 -128q0 -64 -26.5 -109t-85.5 -45q-66 0 -92 35.5t-26 93.5q0 41 19 67.5t38 49.5t19 55t-10.5 43t-29.5 11q-33 0 -56.5 -43.5t-39 -114.5t-24 -156
t-12 -170t-3.5 -155q0 -106 4.5 -201.5t13.5 -176t23.5 -139t34 -91.5t45.5 -33q37 0 59.5 19.5t36.5 55t25 84.5l66 -42q-21 -60 -51.5 -104t-75 -68t-110.5 -24zM469 1502q-40 0 -68.5 29t-28.5 67q0 40 28.5 69t68.5 29q36 0 65 -29t29 -69q0 -38 -29 -67t-65 -29z" />
    <glyph glyph-name="cdotaccent" unicode="&#x10b;" horiz-adv-x="755" 
d="M437 -22q-71 0 -139 33t-123 100.5t-87.5 171t-32.5 244.5q0 152 41 255t103 164.5t129.5 89t119.5 27.5q83 0 143.5 -41.5t94 -109t33.5 -145.5q0 -72 -32.5 -110.5t-82.5 -38.5t-83 32.5t-33 89.5q0 36 15 59t30 45t15 55q0 44 -25.5 63.5t-54.5 19.5
q-36 0 -56.5 -45.5t-30.5 -115t-12.5 -146.5t-2.5 -140q0 -81 4.5 -163t17.5 -151t39 -111t68 -42q60 0 92 37t46 78l61 -53q-24 -60 -89 -106t-168 -46zM446 1142q-40 0 -68.5 29t-28.5 67q0 40 28.5 69t68.5 29q36 0 65 -29t29 -69q0 -38 -29 -67t-65 -29z" />
    <glyph glyph-name="Ccaron" unicode="&#x10c;" horiz-adv-x="779" 
d="M459 -20q-175 0 -283 188t-108 530q0 138 24.5 267.5t74.5 232.5t125.5 163.5t177.5 60.5q71 0 127 -45t88 -111t32 -128q0 -64 -26.5 -109t-85.5 -45q-66 0 -92 35.5t-26 93.5q0 41 19 67.5t38 49.5t19 55t-10.5 43t-29.5 11q-33 0 -56.5 -43.5t-39 -114.5t-24 -156
t-12 -170t-3.5 -155q0 -106 4.5 -201.5t13.5 -176t23.5 -139t34 -91.5t45.5 -33q37 0 59.5 19.5t36.5 55t25 84.5l66 -42q-21 -60 -51.5 -104t-75 -68t-110.5 -24zM434 1474l-177 229h108l103 -155l102 155h110l-176 -229h-70z" />
    <glyph glyph-name="ccaron" unicode="&#x10d;" horiz-adv-x="755" 
d="M437 -22q-71 0 -139 33t-123 100.5t-87.5 171t-32.5 244.5q0 152 41 255t103 164.5t129.5 89t119.5 27.5q83 0 143.5 -41.5t94 -109t33.5 -145.5q0 -72 -32.5 -110.5t-82.5 -38.5t-83 32.5t-33 89.5q0 36 15 59t30 45t15 55q0 44 -25.5 63.5t-54.5 19.5
q-36 0 -56.5 -45.5t-30.5 -115t-12.5 -146.5t-2.5 -140q0 -81 4.5 -163t17.5 -151t39 -111t68 -42q60 0 92 37t46 78l61 -53q-24 -60 -89 -106t-168 -46zM411 1111l-177 229h108l103 -155l102 155h110l-176 -229h-70z" />
    <glyph glyph-name="Dcaron" unicode="&#x10e;" horiz-adv-x="920" 
d="M42 0v79h96v1242h-96v79h438q101 0 189 -78.5t142.5 -231.5t54.5 -379q0 -228 -55 -386.5t-143 -241.5t-188 -83h-438zM440 79h27q27 0 51.5 73.5t40 214.5t15.5 344q0 189 -15.5 325.5t-40 210.5t-51.5 74h-27v-1242zM434 1474l-177 229h108l103 -155l102 155h110
l-176 -229h-70z" />
    <glyph glyph-name="dcaron" unicode="&#x10f;" horiz-adv-x="1087" 
d="M891 1163q12 48 14 110.5t2 116.5q0 64 31 83.5t61 19.5t59 -18t29 -74q0 -82 -39 -155t-83 -113zM382 -20q-79 0 -153.5 47t-122.5 164t-48 327q0 190 45.5 310.5t115.5 177.5t143 57q60 0 91.5 -17t43.5 -37.5t14 -28.5v439h-124v81h431v-1421h118v-79h-370l-32 108
q-1 -27 -19 -57t-51.5 -50.5t-81.5 -20.5zM442 139q21 0 36.5 31t24 82t8.5 108v369q-2 52 -10 90t-22.5 58.5t-34.5 20.5q-18 0 -34 -25.5t-27.5 -74.5t-18 -120t-6.5 -163q0 -85 5.5 -154.5t16 -119t26 -76t36.5 -26.5z" />
    <glyph glyph-name="Dcroat" unicode="&#x110;" horiz-adv-x="962" 
d="M51 677v80h488v-80h-488zM42 0v79h96v1242h-96v79h438q101 0 189 -78.5t142.5 -231.5t54.5 -379q0 -228 -55 -386.5t-143 -241.5t-188 -83h-438zM440 79h27q27 0 51.5 73.5t40 214.5t15.5 344q0 189 -15.5 325.5t-40 210.5t-51.5 74h-27v-1242z" />
    <glyph glyph-name="dcroat" unicode="&#x111;" horiz-adv-x="947" 
d="M204 1231v80h706v-80h-706zM382 -20q-79 0 -153.5 47t-122.5 164t-48 327q0 190 45.5 310.5t115.5 177.5t143 57q60 0 91.5 -17t43.5 -37.5t14 -28.5v439h-124v81h431v-1421h118v-79h-370l-32 108q-1 -27 -19 -57t-51.5 -50.5t-81.5 -20.5zM442 139q21 0 36.5 31t24 82
t8.5 108v369q-2 52 -10 90t-22.5 58.5t-34.5 20.5q-18 0 -34 -25.5t-27.5 -74.5t-18 -120t-6.5 -163q0 -85 5.5 -154.5t16 -119t26 -76t36.5 -26.5z" />
    <glyph glyph-name="Emacron" unicode="&#x112;" horiz-adv-x="786" 
d="M42 0v79h96v1242h-96v79h667v-364h-80q0 81 -18.5 145.5t-56 102t-96.5 37.5h-18v-581h144v91h79v-258h-79v87h-144v-581h18q59 0 96.5 38.5t56 103.5t18.5 146h80v-367h-667zM105 1544v80h603v-80h-603z" />
    <glyph glyph-name="emacron" unicode="&#x113;" horiz-adv-x="858" 
d="M453 -20q-82 0 -154 31t-126.5 96.5t-85.5 169.5t-31 250q0 148 37.5 250.5t97.5 165.5t127.5 91.5t126.5 28.5q72 0 136.5 -32t114 -92.5t78 -147.5t28.5 -198q0 -20 -0.5 -40t-2.5 -41h-457v79h177q0 162 -9.5 246t-26 114.5t-38.5 30.5t-42.5 -32t-33.5 -123t-13 -271
q0 -136 8 -229t25 -149.5t42.5 -81t61.5 -24.5q77 0 124 37.5t68 76.5l66 -52q-26 -55 -107.5 -104.5t-190.5 -49.5zM184 1141v80h512v-80h-512z" />
    <glyph glyph-name="ebreve" unicode="&#x115;" horiz-adv-x="858" 
d="M453 -20q-82 0 -154 31t-126.5 96.5t-85.5 169.5t-31 250q0 148 37.5 250.5t97.5 165.5t127.5 91.5t126.5 28.5q72 0 136.5 -32t114 -92.5t78 -147.5t28.5 -198q0 -20 -0.5 -40t-2.5 -41h-457v79h177q0 162 -9.5 246t-26 114.5t-38.5 30.5t-42.5 -32t-33.5 -123t-13 -271
q0 -136 8 -229t25 -149.5t42.5 -81t61.5 -24.5q77 0 124 37.5t68 76.5l66 -52q-26 -55 -107.5 -104.5t-190.5 -49.5zM438 1104q-66 0 -106.5 31t-59 78t-18.5 94h79q5 -65 34.5 -94t70.5 -29q42 0 71.5 29t33.5 94h79q0 -47 -18.5 -94t-58.5 -78t-107 -31z" />
    <glyph glyph-name="Edotaccent" unicode="&#x116;" horiz-adv-x="786" 
d="M42 0v79h96v1242h-96v79h667v-364h-80q0 81 -18.5 145.5t-56 102t-96.5 37.5h-18v-581h144v91h79v-258h-79v87h-144v-581h18q59 0 96.5 38.5t56 103.5t18.5 146h80v-367h-667zM407 1502q-40 0 -68.5 29t-28.5 67q0 40 28.5 69t68.5 29q36 0 65 -29t29 -69q0 -38 -29 -67
t-65 -29z" />
    <glyph glyph-name="edotaccent" unicode="&#x117;" horiz-adv-x="858" 
d="M453 -20q-82 0 -154 31t-126.5 96.5t-85.5 169.5t-31 250q0 148 37.5 250.5t97.5 165.5t127.5 91.5t126.5 28.5q72 0 136.5 -32t114 -92.5t78 -147.5t28.5 -198q0 -20 -0.5 -40t-2.5 -41h-457v79h177q0 162 -9.5 246t-26 114.5t-38.5 30.5t-42.5 -32t-33.5 -123t-13 -271
q0 -136 8 -229t25 -149.5t42.5 -81t61.5 -24.5q77 0 124 37.5t68 76.5l66 -52q-26 -55 -107.5 -104.5t-190.5 -49.5zM441 1142q-40 0 -68.5 29t-28.5 67q0 40 28.5 69t68.5 29q36 0 65 -29t29 -69q0 -38 -29 -67t-65 -29z" />
    <glyph glyph-name="Eogonek" unicode="&#x118;" horiz-adv-x="786" 
d="M42 0v79h96v1242h-96v79h667v-364h-80q0 81 -18.5 145.5t-56 102t-96.5 37.5h-18v-581h144v91h79v-258h-79v87h-144v-581h18q59 0 96.5 38.5t56 103.5t18.5 146h80v-367h-667zM700 -314q-47 0 -85 15.5t-60 47t-22 78.5q0 58 25.5 97t59 63.5t58.5 39.5l33 -27
q-23 -28 -40 -58.5t-17 -79.5q0 -38 28.5 -52t51.5 -14q26 0 48 7t37 17l40 -78q-26 -25 -67.5 -40.5t-89.5 -15.5z" />
    <glyph glyph-name="eogonek" unicode="&#x119;" horiz-adv-x="858" 
d="M453 -20q-82 0 -154 31t-126.5 96.5t-85.5 169.5t-31 250q0 148 37.5 250.5t97.5 165.5t127.5 91.5t126.5 28.5q72 0 136.5 -32.5t114 -97t78 -159.5t28.5 -221q0 -20 -0.5 -40t-2.5 -41h-457v80h177q0 162 -9.5 255.5t-26 134t-38.5 40.5t-42.5 -42t-33.5 -143t-13 -281
q0 -136 8 -224t25 -138t42.5 -70.5t61.5 -20.5q77 0 124 42t68 81l66 -52q-26 -55 -107.5 -104.5t-190.5 -49.5zM597 -299q-47 0 -85 15.5t-60 47t-22 78.5q0 58 25.5 97t59 64t58.5 39l33 -27q-23 -28 -40 -58.5t-17 -79.5q0 -38 28.5 -52t51.5 -14q26 0 48 7t37 17l40 -78
q-26 -25 -67.5 -40.5t-89.5 -15.5z" />
    <glyph glyph-name="Ecaron" unicode="&#x11a;" horiz-adv-x="786" 
d="M42 0v79h96v1242h-96v79h667v-364h-80q0 81 -18.5 145.5t-56 102t-96.5 37.5h-18v-581h144v91h79v-258h-79v87h-144v-581h18q59 0 96.5 38.5t56 103.5t18.5 146h80v-367h-667zM372 1474l-177 229h108l103 -155l102 155h110l-176 -229h-70z" />
    <glyph glyph-name="ecaron" unicode="&#x11b;" horiz-adv-x="858" 
d="M453 -20q-82 0 -154 31t-126.5 96.5t-85.5 169.5t-31 250q0 148 37.5 250.5t97.5 165.5t127.5 91.5t126.5 28.5q72 0 136.5 -32t114 -92.5t78 -147.5t28.5 -198q0 -20 -0.5 -40t-2.5 -41h-457v79h177q0 162 -9.5 246t-26 114.5t-38.5 30.5t-42.5 -32t-33.5 -123t-13 -271
q0 -136 8 -229t25 -149.5t42.5 -81t61.5 -24.5q77 0 124 37.5t68 76.5l66 -52q-26 -55 -107.5 -104.5t-190.5 -49.5zM406 1111l-177 229h108l103 -155l102 155h110l-176 -229h-70z" />
    <glyph glyph-name="gcircumflex" unicode="&#x11d;" horiz-adv-x="934" 
d="M451 -498q-92 0 -184.5 25.5t-154 83.5t-61.5 156q0 69 29.5 114.5t69 71t70.5 36.5t35 11q-6 2 -30 11t-52.5 29.5t-49.5 55t-21 86.5q0 34 12 59.5t31.5 42.5t39.5 25q5 2 13 4.5t11 2.5q-3 2 -23 19t-45 54t-44 99.5t-19 153.5q0 119 39 199.5t98.5 129.5t123 70.5
t112.5 21.5q114 0 197 -52.5t128.5 -145.5t45.5 -214q0 -136 -39 -219.5t-99 -127t-123.5 -58.5t-111.5 -15q-65 0 -106 12.5t-52 16.5h-1h-1q-10 0 -20 -11t-10 -33q0 -32 53 -58.5t199 -55.5q161 -31 256 -99.5t95 -211.5q0 -89 -42.5 -146t-108 -88t-135.5 -43t-125 -12z
M451 -421q64 0 103 48t39 106q0 56 -15 91t-62 69q-19 14 -45.5 28t-51.5 25t-41 16q-13 -6 -32.5 -28.5t-35 -62.5t-15.5 -102q0 -61 19 -103t54 -64.5t83 -22.5zM449 314q19 0 36 20t28 91t11 222q0 144 -11 214.5t-28.5 94t-35.5 23.5t-34.5 -23.5t-27.5 -95t-11 -216.5
q0 -151 11.5 -221t28.5 -89.5t33 -19.5zM585 978q13 80 76 125.5t135 45.5q59 0 83.5 -30.5t24.5 -74.5t-24 -67.5t-61 -23.5t-52.5 17t-26 33.5t-36.5 16.5q-12 0 -23 -7t-11 -35h-85zM269 1131l148 201h70l146 -201h-97l-85 127l-85 -127h-97z" />
    <glyph glyph-name="Gbreve" unicode="&#x11e;" horiz-adv-x="890" 
d="M476 -20q-115 0 -210 73.5t-151.5 232t-56.5 412.5q0 228 64.5 389.5t164 247t202.5 85.5q80 0 142 -38t97.5 -101.5t35.5 -142.5q0 -68 -30.5 -111t-89.5 -43q-64 0 -91.5 42t-27.5 98q0 38 18 62t35.5 45.5t17.5 51.5q0 23 -22 44t-52 21q-47 0 -78.5 -61.5t-50 -160
t-26 -211.5t-7.5 -217q0 -162 9.5 -281t25.5 -197.5t37 -117.5t44 -39q11 0 15.5 4t8.5 10v477h-73v79h428v-79h-84v-554h-84q-1 3 -15 13.5t-37 10.5q-21 0 -40 -11t-46 -22t-73 -11zM469 1498q-66 0 -106.5 31t-59 78t-18.5 94h79q5 -65 34.5 -94t70.5 -29q42 0 71.5 29
t33.5 94h79q0 -47 -18.5 -94t-58.5 -78t-107 -31z" />
    <glyph glyph-name="gbreve" unicode="&#x11f;" horiz-adv-x="934" 
d="M451 -498q-92 0 -184.5 25.5t-154 83.5t-61.5 156q0 69 29.5 114.5t69 71t70.5 36.5t35 11q-6 2 -30 11t-52.5 29.5t-49.5 55t-21 86.5q0 34 12 59.5t31.5 42.5t39.5 25q5 2 13 4.5t11 2.5q-3 2 -23 19t-45 54t-44 99.5t-19 153.5q0 119 39 199.5t98.5 129.5t123 70.5
t112.5 21.5q114 0 197 -52.5t128.5 -145.5t45.5 -214q0 -136 -39 -219.5t-99 -127t-123.5 -58.5t-111.5 -15q-65 0 -106 12.5t-52 16.5h-1h-1q-10 0 -20 -11t-10 -33q0 -32 53 -58.5t199 -55.5q161 -31 256 -99.5t95 -211.5q0 -89 -42.5 -146t-108 -88t-135.5 -43t-125 -12z
M451 -421q64 0 103 48t39 106q0 56 -15 91t-62 69q-19 14 -45.5 28t-51.5 25t-41 16q-13 -6 -32.5 -28.5t-35 -62.5t-15.5 -102q0 -61 19 -103t54 -64.5t83 -22.5zM449 314q19 0 36 20t28 91t11 222q0 144 -11 214.5t-28.5 94t-35.5 23.5t-34.5 -23.5t-27.5 -95t-11 -216.5
q0 -151 11.5 -221t28.5 -89.5t33 -19.5zM585 978q13 80 76 125.5t135 45.5q59 0 83.5 -30.5t24.5 -74.5t-24 -67.5t-61 -23.5t-52.5 17t-26 33.5t-36.5 16.5q-12 0 -23 -7t-11 -35h-85zM449 1104q-66 0 -106.5 31t-59 78t-18.5 94h79q5 -65 34.5 -94t70.5 -29q42 0 71.5 29
t33.5 94h79q0 -47 -18.5 -94t-58.5 -78t-107 -31z" />
    <glyph glyph-name="Gdotaccent" unicode="&#x120;" horiz-adv-x="890" 
d="M476 -20q-115 0 -210 73.5t-151.5 232t-56.5 412.5q0 228 64.5 389.5t164 247t202.5 85.5q80 0 142 -38t97.5 -101.5t35.5 -142.5q0 -68 -30.5 -111t-89.5 -43q-64 0 -91.5 42t-27.5 98q0 38 18 62t35.5 45.5t17.5 51.5q0 23 -22 44t-52 21q-47 0 -78.5 -61.5t-50 -160
t-26 -211.5t-7.5 -217q0 -162 9.5 -281t25.5 -197.5t37 -117.5t44 -39q11 0 15.5 4t8.5 10v477h-73v79h428v-79h-84v-554h-84q-1 3 -15 13.5t-37 10.5q-21 0 -40 -11t-46 -22t-73 -11zM472 1502q-40 0 -68.5 29t-28.5 67q0 40 28.5 69t68.5 29q36 0 65 -29t29 -69
q0 -38 -29 -67t-65 -29z" />
    <glyph glyph-name="gdotaccent" unicode="&#x121;" horiz-adv-x="934" 
d="M451 -498q-92 0 -184.5 25.5t-154 83.5t-61.5 156q0 69 29.5 114.5t69 71t70.5 36.5t35 11q-6 2 -30 11t-52.5 29.5t-49.5 55t-21 86.5q0 34 12 59.5t31.5 42.5t39.5 25q5 2 13 4.5t11 2.5q-3 2 -23 19t-45 54t-44 99.5t-19 153.5q0 119 39 199.5t98.5 129.5t123 70.5
t112.5 21.5q114 0 197 -52.5t128.5 -145.5t45.5 -214q0 -136 -39 -219.5t-99 -127t-123.5 -58.5t-111.5 -15q-65 0 -106 12.5t-52 16.5h-1h-1q-10 0 -20 -11t-10 -33q0 -32 53 -58.5t199 -55.5q161 -31 256 -99.5t95 -211.5q0 -89 -42.5 -146t-108 -88t-135.5 -43t-125 -12z
M451 -421q64 0 103 48t39 106q0 56 -15 91t-62 69q-19 14 -45.5 28t-51.5 25t-41 16q-13 -6 -32.5 -28.5t-35 -62.5t-15.5 -102q0 -61 19 -103t54 -64.5t83 -22.5zM449 314q19 0 36 20t28 91t11 222q0 144 -11 214.5t-28.5 94t-35.5 23.5t-34.5 -23.5t-27.5 -95t-11 -216.5
q0 -151 11.5 -221t28.5 -89.5t33 -19.5zM585 978q13 80 76 125.5t135 45.5q59 0 83.5 -30.5t24.5 -74.5t-24 -67.5t-61 -23.5t-52.5 17t-26 33.5t-36.5 16.5q-12 0 -23 -7t-11 -35h-85zM452 1142q-40 0 -68.5 29t-28.5 67q0 40 28.5 69t68.5 29q36 0 65 -29t29 -69
q0 -38 -29 -67t-65 -29z" />
    <glyph glyph-name="uni0122" unicode="&#x122;" horiz-adv-x="890" 
d="M476 -20q-115 0 -210 73.5t-151.5 232t-56.5 412.5q0 228 64.5 389.5t164 247t202.5 85.5q80 0 142 -38t97.5 -101.5t35.5 -142.5q0 -68 -30.5 -111t-89.5 -43q-64 0 -91.5 42t-27.5 98q0 38 18 62t35.5 45.5t17.5 51.5q0 23 -22 44t-52 21q-47 0 -78.5 -61.5t-50 -160
t-26 -211.5t-7.5 -217q0 -162 9.5 -281t25.5 -197.5t37 -117.5t44 -39q11 0 15.5 4t8.5 10v477h-73v79h428v-79h-84v-554h-84q-1 3 -15 13.5t-37 10.5q-21 0 -40 -11t-46 -22t-73 -11zM461 -376l-46 54q10 3 34 17.5t32 31.5q-2 -1 -10 -1q-37 0 -63 26t-26 64t26 63.5
t63 25.5q41 0 70.5 -25t29.5 -77q0 -50 -20 -85.5t-46 -58t-44 -35.5z" />
    <glyph glyph-name="uni0123" unicode="&#x123;" horiz-adv-x="934" 
d="M451 -498q-92 0 -184.5 25.5t-154 83.5t-61.5 156q0 69 29.5 114.5t69 71t70.5 36.5t35 11q-6 2 -30 11t-52.5 29.5t-49.5 55t-21 86.5q0 34 12 59.5t31.5 42.5t39.5 25q5 2 13 4.5t11 2.5q-3 2 -23 19t-45 54t-44 99.5t-19 153.5q0 119 39 199.5t98.5 129.5t123 70.5
t112.5 21.5q114 0 197 -52.5t128.5 -145.5t45.5 -214q0 -136 -39 -219.5t-99 -127t-123.5 -58.5t-111.5 -15q-65 0 -106 12.5t-52 16.5h-1h-1q-10 0 -20 -11t-10 -33q0 -32 53 -58.5t199 -55.5q161 -31 256 -99.5t95 -211.5q0 -89 -42.5 -146t-108 -88t-135.5 -43t-125 -12z
M451 -421q64 0 103 48t39 106q0 56 -15 91t-62 69q-19 14 -45.5 28t-51.5 25t-41 16q-13 -6 -32.5 -28.5t-35 -62.5t-15.5 -102q0 -61 19 -103t54 -64.5t83 -22.5zM449 314q19 0 36 20t28 91t11 222q0 144 -11 214.5t-28.5 94t-35.5 23.5t-34.5 -23.5t-27.5 -95t-11 -216.5
q0 -151 11.5 -221t28.5 -89.5t33 -19.5zM585 978q13 80 76 125.5t135 45.5q59 0 83.5 -30.5t24.5 -74.5t-24 -67.5t-61 -23.5t-52.5 17t-26 33.5t-36.5 16.5q-12 0 -23 -7t-11 -35h-85zM467 1388l46 -44q-10 -3 -38 -24.5t-36 -38.5q6 5 18 5q37 0 63 -26t26 -64
q0 -37 -26 -63t-63 -26q-40 0 -70 25t-30 77q0 51 19.5 86t45.5 58t45 35z" />
    <glyph glyph-name="hcircumflex" unicode="&#x125;" horiz-adv-x="990" 
d="M31 0v79h105v1342h-105v79h405v-532q0 3 20.5 26.5t62.5 46t106 22.5q71 0 126 -33.5t86.5 -109t31.5 -202.5v-639h103v-79h-467v79h64v632q0 105 -14 142t-39 37q-18 0 -35.5 -14.5t-30 -50t-14.5 -97.5v-649h69v-79h-474zM314 1584l148 201h70l146 -201h-97l-85 127
l-85 -127h-97z" />
    <glyph glyph-name="Hbar" unicode="&#x126;" horiz-adv-x="1005" 
d="M93 1009v80h843v-80h-843zM42 0v79h96v1242h-96v79h451v-79h-57v-561h139v561h-55v79h442v-79h-97v-1242h97v-79h-442v79h55v601h-139v-601h57v-79h-451z" />
    <glyph glyph-name="hbar" unicode="&#x127;" horiz-adv-x="990" 
d="M29 1231v80h705v-80h-705zM31 0v79h105v1342h-105v79h405v-532q0 3 20.5 26.5t62.5 46t106 22.5q71 0 126 -33.5t86.5 -109t31.5 -202.5v-639h103v-79h-467v79h64v632q0 105 -14 142t-39 37q-18 0 -35.5 -14.5t-30 -50t-14.5 -97.5v-649h69v-79h-474z" />
    <glyph glyph-name="Itilde" unicode="&#x128;" horiz-adv-x="617" 
d="M62 0v79h98v1242h-98v79h496v-79h-100v-1242h100v-79h-496zM397 1495q-40 0 -66 12.5t-45.5 24.5t-40.5 12q-36 0 -54 -12.5t-23 -20.5l-81 29q6 18 25.5 43t48.5 44t63 19q46 0 70 -11.5t43 -23.5t50 -12q36 0 50.5 13t18.5 23l79 -31q-3 -12 -21.5 -38t-48 -48.5
t-68.5 -22.5z" />
    <glyph glyph-name="itilde" unicode="&#x129;" horiz-adv-x="550" 
d="M25 0v79h100v889h-100v79h400v-968h99v-79h-499zM361 1146q-40 0 -66 12.5t-45.5 24.5t-40.5 12q-36 0 -54 -12.5t-23 -20.5l-81 29q6 18 25.5 43t48.5 44t63 19q46 0 70 -11.5t43 -23.5t50 -12q36 0 50.5 13t18.5 23l79 -31q-3 -12 -21.5 -38t-48 -48.5t-68.5 -22.5z
" />
    <glyph glyph-name="Imacron" unicode="&#x12a;" horiz-adv-x="617" 
d="M62 0v79h98v1242h-98v79h496v-79h-100v-1242h100v-79h-496zM10 1544v80h603v-80h-603z" />
    <glyph glyph-name="imacron" unicode="&#x12b;" horiz-adv-x="550" 
d="M25 0v79h100v889h-100v79h400v-968h99v-79h-499zM19 1141v80h512v-80h-512z" />
    <glyph glyph-name="ibreve" unicode="&#x12d;" horiz-adv-x="550" 
d="M25 0v79h100v889h-100v79h400v-968h99v-79h-499zM273 1104q-66 0 -106.5 31t-59 78t-18.5 94h79q5 -65 34.5 -94t70.5 -29q42 0 71.5 29t33.5 94h79q0 -47 -18.5 -94t-58.5 -78t-107 -31z" />
    <glyph glyph-name="Iogonek" unicode="&#x12e;" horiz-adv-x="617" 
d="M62 0v79h98v1242h-98v79h496v-79h-100v-1242h100v-79h-496zM549 -314q-47 0 -85 15.5t-60 47t-22 78.5q0 58 25.5 97t59 63.5t58.5 39.5l33 -27q-23 -28 -40 -58.5t-17 -79.5q0 -38 28.5 -52t51.5 -14q26 0 48 7t37 17l40 -78q-26 -25 -67.5 -40.5t-89.5 -15.5z" />
    <glyph glyph-name="iogonek" unicode="&#x12f;" horiz-adv-x="614" 
d="M278 1135q-75 0 -129 54.5t-54 127.5q0 75 54 130t129 55q70 0 124 -55t54 -130q0 -48 -25 -89.5t-65.5 -67t-87.5 -25.5zM25 0v79h100v889h-100v79h400v-968h100v-79h-500zM516 -314q-47 0 -85 15.5t-60 47t-22 78.5q0 58 25.5 97t59 63.5t58.5 39.5l33 -27
q-23 -28 -40 -58.5t-17 -79.5q0 -38 28.5 -52t51.5 -14q26 0 48 7t37 17l40 -78q-26 -25 -67.5 -40.5t-89.5 -15.5z" />
    <glyph glyph-name="Idotaccent" unicode="&#x130;" horiz-adv-x="617" 
d="M62 0v79h98v1242h-98v79h496v-79h-100v-1242h100v-79h-496zM312 1502q-40 0 -68.5 29t-28.5 67q0 40 28.5 69t68.5 29q36 0 65 -29t29 -69q0 -38 -29 -67t-65 -29z" />
    <glyph glyph-name="dotlessi" unicode="&#x131;" horiz-adv-x="550" 
d="M25 0v79h100v889h-100v79h400v-968h99v-79h-499z" />
    <glyph glyph-name="jcircumflex" unicode="&#x135;" horiz-adv-x="601" 
d="M140 -498q-70 0 -123 37t-83 100t-30 141q0 77 36.5 116.5t88.5 39.5q48 0 74 -33t26 -96q0 -41 -11.5 -65.5t-24 -44t-12.5 -45.5q0 -16 3 -32t12 -26.5t26 -10.5q44 0 54.5 46t10.5 140v1199h-118v79h418v-1078q0 -145 -33 -237t-85.5 -142t-113 -69t-115.5 -19z
M146 1130l148 201h70l146 -201h-97l-85 127l-85 -127h-97z" />
    <glyph glyph-name="uni0136" unicode="&#x136;" horiz-adv-x="962" 
d="M31 0v79h93v1242h-93v79h492v-79h-103v-542l302 542h-91v79h268v-79h-85l-214 -382l30 76l238 -936h68v-79h-449v79h62l-169 684l40 -22v-662h60v-79h-449zM467 -376l-46 54q10 3 34 17.5t32 31.5q-2 -1 -10 -1q-37 0 -63 26t-26 64t26 63.5t63 25.5q41 0 70.5 -25
t29.5 -77q0 -50 -20 -85.5t-46 -58t-44 -35.5z" />
    <glyph glyph-name="uni0137" unicode="&#x137;" horiz-adv-x="955" 
d="M23 0v79h104v1342h-104v79h404v-789l214 257h-107v79h331v-79h-123l-93 -117l237 -772h88v-79h-489v79h80l-150 505l12 5v-510h58v-79h-462zM466 -376l-46 54q10 3 34 17.5t32 31.5q-2 -1 -10 -1q-37 0 -63 26t-26 64t26 63.5t63 25.5q41 0 70.5 -25t29.5 -77
q0 -50 -20 -85.5t-46 -58t-44 -35.5z" />
    <glyph glyph-name="kgreenlandic" unicode="&#x138;" horiz-adv-x="962" 
d="M31 0v79h93v888h-93v79h492v-79h-103v-367l302 367h-91v79h268v-79h-85l-214 -265l30 56l238 -679h68v-79h-449v79h62l-169 491l40 -15v-476h60v-79h-449z" />
    <glyph glyph-name="Lacute" unicode="&#x139;" horiz-adv-x="743" 
d="M49 0v79h89v1242h-89v79h480v-79h-93v-1242h20q45 0 76 39.5t47.5 104.5t16.5 144h80v-367h-627zM184 1440l-64 68l195 145q15 11 29 17.5t27 6.5q20 0 35 -10.5t23 -24.5t8 -30q0 -19 -12 -36t-40 -28z" />
    <glyph glyph-name="lacute" unicode="&#x13a;" horiz-adv-x="574" 
d="M27 0v79h111v1342h-111v79h411v-1421h110v-79h-521zM189 1542l-64 68l195 145q15 11 29 17.5t27 6.5q20 0 35 -10.5t23 -24.5t8 -30q0 -19 -12 -36t-40 -28z" />
    <glyph glyph-name="uni013B" unicode="&#x13b;" horiz-adv-x="743" 
d="M49 0v79h89v1242h-89v79h480v-79h-93v-1242h20q45 0 76 39.5t47.5 104.5t16.5 144h80v-367h-627zM368 -376l-46 54q10 3 34 17.5t32 31.5q-2 -1 -10 -1q-37 0 -63 26t-26 64t26 63.5t63 25.5q41 0 70.5 -25t29.5 -77q0 -50 -20 -85.5t-46 -58t-44 -35.5z" />
    <glyph glyph-name="uni013C" unicode="&#x13c;" horiz-adv-x="574" 
d="M27 0v79h111v1342h-111v79h411v-1421h110v-79h-521zM279 -376l-46 54q10 3 34 17.5t32 31.5q-2 -1 -10 -1q-37 0 -63 26t-26 64t26 63.5t63 25.5q41 0 70.5 -25t29.5 -77q0 -50 -20 -85.5t-46 -58t-44 -35.5z" />
    <glyph glyph-name="Lcaron" unicode="&#x13d;" horiz-adv-x="776" 
d="M581 1163q12 48 14 110.5t2 116.5q0 64 31 83.5t61 19.5t58.5 -18t28.5 -74q0 -82 -39 -155t-83 -113zM49 0v79h89v1242h-89v79h480v-79h-93v-1242h20q45 0 76 39.5t47.5 104.5t16.5 144h80v-367h-627z" />
    <glyph glyph-name="lcaron" unicode="&#x13e;" horiz-adv-x="694" 
d="M498 1163q12 48 14 110.5t2 116.5q0 64 31 83.5t61 19.5t59 -18t29 -74q0 -82 -39 -155t-83 -113zM27 0v79h111v1342h-111v79h411v-1421h110v-79h-521z" />
    <glyph glyph-name="ldot" unicode="&#x140;" horiz-adv-x="671" 
d="M27 0v79h111v1342h-111v79h411v-1421h110v-79h-521zM653 641q-63 0 -108 46t-45 109q0 64 45 110t108 46q64 0 109 -46t45 -110q0 -63 -45 -109t-109 -46z" />
    <glyph glyph-name="Lslash" unicode="&#x141;" horiz-adv-x="792" 
d="M49 421v88l515 362v-88zM49 0v79h89v1242h-89v79h480v-79h-93v-1242h20q45 0 76 39.5t47.5 104.5t16.5 144h80v-367h-627z" />
    <glyph glyph-name="lslash" unicode="&#x142;" horiz-adv-x="610" 
d="M36 417v92l482 355v-87zM27 0v79h111v1342h-111v79h411v-1421h110v-79h-521z" />
    <glyph glyph-name="Nacute" unicode="&#x143;" horiz-adv-x="862" 
d="M27 0v79h93v1242h-93v79h420l234 -713h-16v634h-87v79h257v-79h-89v-1321h-169l-396 1233h20v-1154h87v-79h-261zM340 1440l-64 68l195 145q15 11 29 17.5t27 6.5q20 0 35 -10.5t23 -24.5t8 -30q0 -19 -12 -36t-40 -28z" />
    <glyph glyph-name="nacute" unicode="&#x144;" horiz-adv-x="987" 
d="M31 0v79h109v889h-109v79h400v-96q2 8 23 35.5t62.5 52t103.5 24.5q71 0 126 -29.5t86.5 -104t31.5 -211.5v-639h105v-79h-469v79h64v642q0 94 -11 141t-40 47q-16 0 -28.5 -10.5t-22 -32t-15 -53.5t-7.5 -75v-659h60v-79h-469zM404 1089l-64 68l195 145q15 11 29 17.5
t27 6.5q20 0 35 -10.5t23 -24.5t8 -30q0 -19 -12 -36t-40 -28z" />
    <glyph glyph-name="uni0145" unicode="&#x145;" horiz-adv-x="862" 
d="M27 0v79h93v1242h-93v79h420l234 -713h-16v634h-87v79h257v-79h-89v-1321h-169l-396 1233h20v-1154h87v-79h-261zM430 -376l-46 54q10 3 34 17.5t32 31.5q-2 -1 -10 -1q-37 0 -63 26t-26 64t26 63.5t63 25.5q41 0 70.5 -25t29.5 -77q0 -50 -20 -85.5t-46 -58t-44 -35.5z
" />
    <glyph glyph-name="uni0146" unicode="&#x146;" horiz-adv-x="987" 
d="M31 0v79h109v889h-109v79h400v-96q2 8 23 35.5t62.5 52t103.5 24.5q71 0 126 -29.5t86.5 -104t31.5 -211.5v-639h105v-79h-469v79h64v642q0 94 -11 141t-40 47q-16 0 -28.5 -10.5t-22 -32t-15 -53.5t-7.5 -75v-659h60v-79h-469zM494 -376l-46 54q10 3 34 17.5t32 31.5
q-2 -1 -10 -1q-37 0 -63 26t-26 64t26 63.5t63 25.5q41 0 70.5 -25t29.5 -77q0 -50 -20 -85.5t-46 -58t-44 -35.5z" />
    <glyph glyph-name="Ncaron" unicode="&#x147;" horiz-adv-x="862" 
d="M27 0v79h93v1242h-93v79h420l234 -713h-16v634h-87v79h257v-79h-89v-1321h-169l-396 1233h20v-1154h87v-79h-261zM406 1474l-177 229h108l103 -155l102 155h110l-176 -229h-70z" />
    <glyph glyph-name="ncaron" unicode="&#x148;" horiz-adv-x="987" 
d="M31 0v79h109v889h-109v79h400v-96q2 8 23 35.5t62.5 52t103.5 24.5q71 0 126 -29.5t86.5 -104t31.5 -211.5v-639h105v-79h-469v79h64v642q0 94 -11 141t-40 47q-16 0 -28.5 -10.5t-22 -32t-15 -53.5t-7.5 -75v-659h60v-79h-469zM470 1111l-177 229h108l103 -155l102 155
h110l-176 -229h-70z" />
    <glyph glyph-name="Eng" unicode="&#x14a;" horiz-adv-x="862" 
d="M574 -395q-54 0 -98.5 20t-71 63.5t-26.5 115.5q0 59 32 90t75 31q33 0 61.5 -20t28.5 -72q0 -41 -16.5 -60.5t-16.5 -44.5q0 -20 11.5 -32t31.5 -12q28 0 45 22.5t25.5 58.5t8.5 77v158h82v-176q0 -43 -10.5 -82t-32.5 -70t-54 -49t-75 -18zM27 0v79h93v1242h-93v79h420
l234 -713h-16v634h-87v79h257v-79h-89v-1321h-169l-396 1233h20v-1154h87v-79h-261z" />
    <glyph glyph-name="eng" unicode="&#x14b;" horiz-adv-x="962" 
d="M500 -429q-78 0 -130 65t-52 166q0 64 26 101t71 37q41 0 65 -35.5t24 -88.5q0 -34 -13.5 -55.5t-27.5 -37t-14 -31.5q0 -12 5.5 -22t17.5 -16t32 -6q23 0 35.5 26t18 68t6.5 93t1 101v749q0 114 -14.5 158.5t-48.5 44.5q-18 0 -28.5 -12.5t-15.5 -35t-7 -50.5t-2 -60
v-651h69v-79h-467v79h98v889h-98v79h389v-88q7 11 29 33.5t58 41.5t84 19q89 0 145 -35.5t82.5 -112t26.5 -198.5v-783q0 -129 -52.5 -206.5t-136 -112t-176.5 -34.5z" />
    <glyph glyph-name="Omacron" unicode="&#x14c;" horiz-adv-x="906" 
d="M457 -22q-111 0 -199 82.5t-139 242.5t-51 395q0 236 51 397t139 244t199 83q112 0 201.5 -83t141.5 -244t52 -397q0 -235 -52 -395t-141.5 -242.5t-201.5 -82.5zM457 57q23 0 37.5 39.5t23.5 120t12.5 200.5t3.5 281t-3.5 281.5t-12.5 201.5t-23.5 121.5t-37.5 40.5
q-22 0 -36 -40.5t-21.5 -121.5t-10.5 -201.5t-3 -281.5t3 -281t10.5 -200.5t21.5 -120t36 -39.5zM156 1544v80h603v-80h-603z" />
    <glyph glyph-name="omacron" unicode="&#x14d;" horiz-adv-x="864" 
d="M431 -22q-63 0 -129 32.5t-122 100t-90 171t-34 245.5q0 154 35.5 257.5t92 164.5t122 87.5t125.5 26.5t126 -26.5t123 -87.5t93 -164.5t36 -257.5q0 -142 -34.5 -245.5t-90.5 -171t-122.5 -100t-130.5 -32.5zM431 72q38 0 57 105t19 350q0 246 -19 345t-57 99
q-35 0 -54 -99t-19 -345q0 -245 19 -350t54 -105zM175 1141v80h512v-80h-512z" />
    <glyph glyph-name="obreve" unicode="&#x14f;" horiz-adv-x="864" 
d="M431 -22q-63 0 -129 32.5t-122 100t-90 171t-34 245.5q0 154 35.5 257.5t92 164.5t122 87.5t125.5 26.5t126 -26.5t123 -87.5t93 -164.5t36 -257.5q0 -142 -34.5 -245.5t-90.5 -171t-122.5 -100t-130.5 -32.5zM431 72q38 0 57 105t19 350q0 246 -19 345t-57 99
q-35 0 -54 -99t-19 -345q0 -245 19 -350t54 -105zM429 1104q-66 0 -106.5 31t-59 78t-18.5 94h79q5 -65 34.5 -94t70.5 -29q42 0 71.5 29t33.5 94h79q0 -47 -18.5 -94t-58.5 -78t-107 -31z" />
    <glyph glyph-name="Ohungarumlaut" unicode="&#x150;" horiz-adv-x="906" 
d="M457 -22q-111 0 -199 82.5t-139 242.5t-51 395q0 236 51 397t139 244t199 83q112 0 201.5 -83t141.5 -244t52 -397q0 -235 -52 -395t-141.5 -242.5t-201.5 -82.5zM457 57q23 0 37.5 39.5t23.5 120t12.5 200.5t3.5 281t-3.5 281.5t-12.5 201.5t-23.5 121.5t-37.5 40.5
q-22 0 -36 -40.5t-21.5 -121.5t-10.5 -201.5t-3 -281.5t3 -281t10.5 -200.5t21.5 -120t36 -39.5zM296 1476l-61 62l134 154q14 16 26.5 24.5t25.5 8.5q21 0 36.5 -15.5t15.5 -37.5q0 -30 -33 -53zM568 1476l-59 62l130 154q14 17 27.5 25t26.5 8q21 0 36.5 -16t15.5 -37
q0 -31 -32 -53z" />
    <glyph glyph-name="ohungarumlaut" unicode="&#x151;" horiz-adv-x="864" 
d="M431 -22q-63 0 -129 32.5t-122 100t-90 171t-34 245.5q0 154 35.5 257.5t92 164.5t122 87.5t125.5 26.5t126 -26.5t123 -87.5t93 -164.5t36 -257.5q0 -142 -34.5 -245.5t-90.5 -171t-122.5 -100t-130.5 -32.5zM431 72q38 0 57 105t19 350q0 246 -19 345t-57 99
q-35 0 -54 -99t-19 -345q0 -245 19 -350t54 -105zM220 1112l-61 62l134 154q14 16 26.5 24.5t25.5 8.5q21 0 36.5 -15.5t15.5 -37.5q0 -30 -33 -53zM492 1112l-59 62l130 154q14 17 27.5 25t26.5 8q21 0 36.5 -16t15.5 -37q0 -31 -32 -53z" />
    <glyph glyph-name="OE" unicode="&#x152;" horiz-adv-x="1212" 
d="M448 -22q-111 0 -197 95t-134.5 257.5t-48.5 367.5q0 206 48.5 369.5t134.5 259t197 95.5q63 0 117 -29.5t92 -88.5l-69 -63q-12 56 -43 79t-49 23q-41 0 -67 -49t-39.5 -136t-18.5 -204.5t-5 -255.5t6 -255t21 -203.5t40 -134.5t63 -48q19 0 41 20.5t38.5 48.5t16.5 49
l73 -59q-40 -69 -95 -103.5t-122 -34.5zM548 0v1400h587v-364h-80q0 81 -6.5 145.5t-37.5 102t-106 37.5h-59v-561h209v91h80v-258h-80v87h-209v-601h59q75 0 106 38.5t37.5 103.5t6.5 146h80v-367h-587z" />
    <glyph glyph-name="oe" unicode="&#x153;" horiz-adv-x="1322" 
d="M431 -22q-63 0 -129 32.5t-122 100t-90 171t-34 245.5q0 154 35.5 257.5t92 164.5t122 87.5t125.5 26.5t126 -26.5t123 -87.5t93 -164.5t36 -257.5q0 -142 -34.5 -245.5t-90.5 -171t-122.5 -100t-130.5 -32.5zM431 72q38 0 57 105t19 350q0 246 -19 345t-57 99
q-35 0 -54 -99t-19 -345q0 -245 19 -350t54 -105zM916 -20q-82 0 -154 31t-126.5 96.5t-85.5 169.5t-31 250q0 148 37.5 250.5t97.5 165.5t127.5 91.5t127.5 28.5q72 0 136.5 -32t114 -92.5t78 -147.5t28.5 -198q0 -20 -0.5 -40t-2.5 -41h-458v79h178q0 162 -9.5 246
t-26 114.5t-38.5 30.5q-23 0 -43.5 -32t-33.5 -123t-13 -271q0 -136 8 -229t25 -149.5t42.5 -81t61.5 -24.5q78 0 125 37.5t68 76.5l65 -52q-26 -55 -107 -104.5t-191 -49.5z" />
    <glyph glyph-name="Racute" unicode="&#x154;" horiz-adv-x="1000" 
d="M809 -18q-108 0 -157.5 46t-63 128t-13.5 190q0 53 1.5 100t1.5 72q0 67 -9.5 101.5t-30 47.5t-53.5 13h-34v-601h104v-79h-511v79h111v1242h-111v79h503q92 0 168.5 -33.5t122.5 -105t46 -186.5q0 -85 -29 -148.5t-75.5 -106t-99.5 -66.5t-101 -32q118 -6 182.5 -38
t90.5 -101.5t26 -188.5q0 -55 -3.5 -107t-3.5 -96q0 -24 2 -49.5t8.5 -43t18.5 -17.5q14 0 19 10t6 23h74q-7 -46 -30 -75.5t-63 -43t-97 -13.5zM451 760h34q31 0 52.5 41.5t33 112.5t11.5 157q0 82 -12.5 138t-34.5 84t-51 28h-33v-561zM404 1440l-64 68l195 145
q15 11 29 17.5t27 6.5q20 0 35 -10.5t23 -24.5t8 -30q0 -19 -12 -36t-40 -28z" />
    <glyph glyph-name="racute" unicode="&#x155;" horiz-adv-x="793" 
d="M27 0v79h108v889h-108v79h377l20 -83q6 17 27 40.5t54 41t73 17.5q64 0 105 -39.5t61.5 -105t20.5 -143.5q0 -76 -31 -116.5t-83 -40.5q-49 0 -79 34.5t-30 94.5q0 40 17.5 63.5t34.5 45t17 55.5q0 32 -11.5 47t-41.5 15q-25 0 -54 -27t-49 -86t-20 -155v-626h106v-79
h-514zM378 1089l-64 68l195 145q15 11 29 17.5t27 6.5q20 0 35 -10.5t23 -24.5t8 -30q0 -19 -12 -36t-40 -28z" />
    <glyph glyph-name="uni0156" unicode="&#x156;" horiz-adv-x="1000" 
d="M809 -18q-108 0 -157.5 46t-63 128t-13.5 190q0 53 1.5 100t1.5 72q0 67 -9.5 101.5t-30 47.5t-53.5 13h-34v-601h104v-79h-511v79h111v1242h-111v79h503q92 0 168.5 -33.5t122.5 -105t46 -186.5q0 -85 -29 -148.5t-75.5 -106t-99.5 -66.5t-101 -32q118 -6 182.5 -38
t90.5 -101.5t26 -188.5q0 -55 -3.5 -107t-3.5 -96q0 -24 2 -49.5t8.5 -43t18.5 -17.5q14 0 19 10t6 23h74q-7 -46 -30 -75.5t-63 -43t-97 -13.5zM451 760h34q31 0 52.5 41.5t33 112.5t11.5 157q0 82 -12.5 138t-34.5 84t-51 28h-33v-561zM494 -376l-46 54q10 3 34 17.5
t32 31.5q-2 -1 -10 -1q-37 0 -63 26t-26 64t26 63.5t63 25.5q41 0 70.5 -25t29.5 -77q0 -50 -20 -85.5t-46 -58t-44 -35.5z" />
    <glyph glyph-name="uni0157" unicode="&#x157;" horiz-adv-x="793" 
d="M27 0v79h108v889h-108v79h377l20 -83q6 17 27 40.5t54 41t73 17.5q64 0 105 -39.5t61.5 -105t20.5 -143.5q0 -76 -31 -116.5t-83 -40.5q-49 0 -79 34.5t-30 94.5q0 40 17.5 63.5t34.5 45t17 55.5q0 32 -11.5 47t-41.5 15q-25 0 -54 -27t-49 -86t-20 -155v-626h106v-79
h-514zM301 -376l-46 54q10 3 34 17.5t32 31.5q-2 -1 -10 -1q-37 0 -63 26t-26 64t26 63.5t63 25.5q41 0 70.5 -25t29.5 -77q0 -50 -20 -85.5t-46 -58t-44 -35.5z" />
    <glyph glyph-name="Rcaron" unicode="&#x158;" horiz-adv-x="1000" 
d="M809 -18q-108 0 -157.5 46t-63 128t-13.5 190q0 53 1.5 100t1.5 72q0 67 -9.5 101.5t-30 47.5t-53.5 13h-34v-601h104v-79h-511v79h111v1242h-111v79h503q92 0 168.5 -33.5t122.5 -105t46 -186.5q0 -85 -29 -148.5t-75.5 -106t-99.5 -66.5t-101 -32q118 -6 182.5 -38
t90.5 -101.5t26 -188.5q0 -55 -3.5 -107t-3.5 -96q0 -24 2 -49.5t8.5 -43t18.5 -17.5q14 0 19 10t6 23h74q-7 -46 -30 -75.5t-63 -43t-97 -13.5zM451 760h34q31 0 52.5 41.5t33 112.5t11.5 157q0 82 -12.5 138t-34.5 84t-51 28h-33v-561zM470 1474l-177 229h108l103 -155
l102 155h110l-176 -229h-70z" />
    <glyph glyph-name="rcaron" unicode="&#x159;" horiz-adv-x="793" 
d="M27 0v79h108v889h-108v79h377l20 -83q6 17 27 40.5t54 41t73 17.5q64 0 105 -39.5t61.5 -105t20.5 -143.5q0 -76 -31 -116.5t-83 -40.5q-49 0 -79 34.5t-30 94.5q0 40 17.5 63.5t34.5 45t17 55.5q0 32 -11.5 47t-41.5 15q-25 0 -54 -27t-49 -86t-20 -155v-626h106v-79
h-514zM444 1111l-177 229h108l103 -155l102 155h110l-176 -229h-70z" />
    <glyph glyph-name="Sacute" unicode="&#x15a;" horiz-adv-x="730" 
d="M378 -27q-61 0 -96 13t-55 30.5t-32.5 30.5t-28.5 13q-31 0 -31 -60h-77v367h79q1 -17 10.5 -53.5t28 -80t47 -84.5t66 -67.5t86.5 -26.5q35 0 57 12t32.5 38.5t10.5 67.5q0 56 -26.5 112.5t-75 123t-115.5 149.5q-80 101 -123.5 186t-60 163t-16.5 158q0 119 41 198
t105.5 119t135.5 40q65 0 98 -19.5t51.5 -39t37.5 -19.5q14 0 21 11t8 45h78v-365h-79q-2 27 -15.5 77t-38.5 102.5t-64 89.5t-92 37q-50 0 -75.5 -35.5t-25.5 -98.5q0 -48 29 -108.5t81 -129t119 -142.5q75 -81 118.5 -155.5t62.5 -152.5t19 -168q0 -117 -28 -191
t-72.5 -114.5t-96.5 -56.5t-98 -16zM271 1440l-64 68l195 145q15 11 29 17.5t27 6.5q20 0 35 -10.5t23 -24.5t8 -30q0 -19 -12 -36t-40 -28z" />
    <glyph glyph-name="sacute" unicode="&#x15b;" horiz-adv-x="653" 
d="M333 -22q-62 0 -94.5 15.5t-50.5 31t-35 15.5q-16 0 -21.5 -10t-5.5 -30h-75v347h89q6 -49 22.5 -100t41.5 -93.5t57 -69.5t69 -27q29 0 47.5 8.5t27.5 26t9 44.5q0 38 -20 76t-55.5 79.5t-82.5 87.5q-86 86 -146 177t-60 224q0 102 40 164t103 90.5t132 28.5
q47 0 75 -13.5t45.5 -27t30.5 -13.5q9 0 15.5 8t6.5 30h78v-338h-90q-3 38 -14.5 85t-31 89.5t-47 70.5t-63.5 28q-48 0 -69.5 -36t-21.5 -77q0 -51 42.5 -100.5t115.5 -114.5q50 -45 97.5 -100.5t78.5 -128t31 -167.5q0 -106 -35 -167.5t-96.5 -87t-139.5 -25.5zM245 1089
l-64 68l195 145q15 11 29 17.5t27 6.5q20 0 35 -10.5t23 -24.5t8 -30q0 -19 -12 -36t-40 -28z" />
    <glyph glyph-name="scircumflex" unicode="&#x15d;" horiz-adv-x="653" 
d="M333 -22q-62 0 -94.5 15.5t-50.5 31t-35 15.5q-16 0 -21.5 -10t-5.5 -30h-75v347h89q6 -49 22.5 -100t41.5 -93.5t57 -69.5t69 -27q29 0 47.5 8.5t27.5 26t9 44.5q0 38 -20 76t-55.5 79.5t-82.5 87.5q-86 86 -146 177t-60 224q0 102 40 164t103 90.5t132 28.5
q47 0 75 -13.5t45.5 -27t30.5 -13.5q9 0 15.5 8t6.5 30h78v-338h-90q-3 38 -14.5 85t-31 89.5t-47 70.5t-63.5 28q-48 0 -69.5 -36t-21.5 -77q0 -51 42.5 -100.5t115.5 -114.5q50 -45 97.5 -100.5t78.5 -128t31 -167.5q0 -106 -35 -167.5t-96.5 -87t-139.5 -25.5zM163 1131
l148 201h70l146 -201h-97l-85 127l-85 -127h-97z" />
    <glyph glyph-name="Scedilla" unicode="&#x15e;" horiz-adv-x="730" 
d="M378 -27q-61 0 -96 13t-55 30.5t-32.5 30.5t-28.5 13q-31 0 -31 -60h-77v367h79q1 -17 10.5 -53.5t28 -80t47 -84.5t66 -67.5t86.5 -26.5q35 0 57 12t32.5 38.5t10.5 67.5q0 56 -26.5 112.5t-75 123t-115.5 149.5q-80 101 -123.5 186t-60 163t-16.5 158q0 119 41 198
t105.5 119t135.5 40q65 0 98 -19.5t51.5 -39t37.5 -19.5q14 0 21 11t8 45h78v-365h-79q-2 27 -15.5 77t-38.5 102.5t-64 89.5t-92 37q-50 0 -75.5 -35.5t-25.5 -98.5q0 -48 29 -108.5t81 -129t119 -142.5q75 -81 118.5 -155.5t62.5 -152.5t19 -168q0 -117 -28 -191
t-72.5 -114.5t-96.5 -56.5t-98 -16zM385 -337q-47 0 -93.5 11.5t-61.5 19.5l31 78q11 -7 46.5 -19t66.5 -12t51 16.5t20 44.5q0 32 -12.5 42.5t-31.5 10.5q-16 0 -28.5 -6t-22.5 -20l-74 4l59 167h79l-40 -108q4 6 29.5 15.5t61.5 9.5q41 0 76.5 -25.5t35.5 -90.5
q0 -43 -23 -74t-66 -47.5t-103 -16.5z" />
    <glyph glyph-name="scedilla" unicode="&#x15f;" horiz-adv-x="653" 
d="M333 -22q-62 0 -94.5 15.5t-50.5 31t-35 15.5q-16 0 -21.5 -10t-5.5 -30h-75v347h79q6 -49 21.5 -100t40 -93.5t59 -69.5t79.5 -27q29 0 47.5 8.5t27.5 26t9 44.5q0 38 -20 76t-55.5 79.5t-82.5 87.5q-86 86 -146 177t-60 224q0 87 40 150.5t103 98t132 34.5
q47 0 75 -13.5t45.5 -27t30.5 -13.5q9 0 15.5 8t6.5 30h78v-338h-80q-3 38 -13.5 85t-30 89.5t-49.5 70.5t-73 28q-48 0 -69.5 -36t-21.5 -77q0 -51 42.5 -100.5t115.5 -114.5q50 -45 97.5 -100.5t78.5 -128t31 -167.5q0 -137 -77 -208.5t-194 -71.5zM355 -337
q-47 0 -93.5 11.5t-61.5 19.5l31 78q11 -7 46.5 -19t65.5 -12q32 0 52 16.5t20 44.5q0 32 -12.5 42.5t-31.5 10.5q-16 0 -28.5 -6t-22.5 -20l-74 4l59 167h79l-40 -108q4 6 29 15.5t62 9.5q41 0 76.5 -25.5t35.5 -90.5q0 -43 -23 -74t-66 -47.5t-103 -16.5z" />
    <glyph glyph-name="Scaron" unicode="&#x160;" horiz-adv-x="730" 
d="M378 -27q-61 0 -96 13t-55 30.5t-32.5 30.5t-28.5 13q-31 0 -31 -60h-77v367h79q1 -17 10.5 -53.5t28 -80t47 -84.5t66 -67.5t86.5 -26.5q35 0 57 12t32.5 38.5t10.5 67.5q0 56 -26.5 112.5t-75 123t-115.5 149.5q-80 101 -123.5 186t-60 163t-16.5 158q0 119 41 198
t105.5 119t135.5 40q65 0 98 -19.5t51.5 -39t37.5 -19.5q14 0 21 11t8 45h78v-365h-79q-2 27 -15.5 77t-38.5 102.5t-64 89.5t-92 37q-50 0 -75.5 -35.5t-25.5 -98.5q0 -48 29 -108.5t81 -129t119 -142.5q75 -81 118.5 -155.5t62.5 -152.5t19 -168q0 -117 -28 -191
t-72.5 -114.5t-96.5 -56.5t-98 -16zM337 1474l-177 229h108l103 -155l102 155h110l-176 -229h-70z" />
    <glyph glyph-name="scaron" unicode="&#x161;" horiz-adv-x="653" 
d="M333 -22q-62 0 -94.5 15.5t-50.5 31t-35 15.5q-16 0 -21.5 -10t-5.5 -30h-75v347h89q6 -49 22.5 -100t41.5 -93.5t57 -69.5t69 -27q29 0 47.5 8.5t27.5 26t9 44.5q0 38 -20 76t-55.5 79.5t-82.5 87.5q-86 86 -146 177t-60 224q0 102 40 164t103 90.5t132 28.5
q47 0 75 -13.5t45.5 -27t30.5 -13.5q9 0 15.5 8t6.5 30h78v-338h-90q-3 38 -14.5 85t-31 89.5t-47 70.5t-63.5 28q-48 0 -69.5 -36t-21.5 -77q0 -51 42.5 -100.5t115.5 -114.5q50 -45 97.5 -100.5t78.5 -128t31 -167.5q0 -106 -35 -167.5t-96.5 -87t-139.5 -25.5zM311 1111
l-177 229h108l103 -155l102 155h110l-176 -229h-70z" />
    <glyph glyph-name="uni0162" unicode="&#x162;" horiz-adv-x="864" 
d="M164 0v79h120v1242h-2q-69 0 -104 -31.5t-48 -94t-13 -159.5h-79v364h788v-364h-79q0 97 -12 159.5t-47 94t-104 31.5h-2v-1242h122v-79h-540zM444 -337q-47 0 -93.5 11.5t-61.5 19.5l31 78q11 -7 46.5 -19t66.5 -12t51 16.5t20 44.5q0 32 -12.5 42.5t-31.5 10.5
q-16 0 -28.5 -6t-22.5 -20l-74 4l59 167h79l-40 -108q4 6 29.5 15.5t62.5 9.5q40 0 75.5 -25.5t35.5 -90.5q0 -43 -23 -74t-66 -47.5t-103 -16.5z" />
    <glyph glyph-name="uni0163" unicode="&#x163;" horiz-adv-x="632" 
d="M435 -18q-74 0 -140 23.5t-107 86.5t-41 181v695h-151v79h151q59 0 104 43.5t73.5 113.5t37.5 151h85v-308h172v-79h-172v-825q0 -41 20.5 -56t39.5 -15q18 0 34 6t23 14l44 -63q-31 -22 -72 -34.5t-101 -12.5zM406 -317q-47 0 -93.5 11.5t-61.5 19.5l31 78
q11 -7 46.5 -19t66.5 -12t51 16.5t20 44.5q0 32 -12.5 42.5t-31.5 10.5q-16 0 -28.5 -6t-22.5 -20l-74 4l59 167h79l-40 -108q4 6 29.5 15.5t62.5 9.5q40 0 75.5 -25.5t35.5 -90.5q0 -43 -23 -74t-66 -47.5t-103 -16.5z" />
    <glyph glyph-name="Tcaron" unicode="&#x164;" horiz-adv-x="864" 
d="M164 0v79h120v1242h-2q-69 0 -104 -31.5t-48 -94t-13 -159.5h-79v364h788v-364h-79q0 97 -12 159.5t-47 94t-104 31.5h-2v-1242h122v-79h-540zM397 1474l-177 229h108l103 -155l102 155h110l-176 -229h-70z" />
    <glyph glyph-name="tcaron" unicode="&#x165;" horiz-adv-x="753" 
d="M557 1163q12 48 14 110.5t2 116.5q0 64 31 83.5t61 19.5t59 -18t29 -74q0 -82 -39 -155t-83 -113zM435 -18q-74 0 -140 23.5t-107 86.5t-41 181v695h-151v79h151q59 0 104 43.5t73.5 113.5t37.5 151h85v-308h172v-79h-172v-825q0 -41 20.5 -56t39.5 -15q18 0 34 6t23 14
l44 -63q-31 -22 -72 -34.5t-101 -12.5z" />
    <glyph glyph-name="Tbar" unicode="&#x166;" horiz-adv-x="864" 
d="M108 663v80h640v-80h-640zM164 0v79h120v1242h-2q-69 0 -104 -31.5t-48 -94t-13 -159.5h-79v364h788v-364h-79q0 97 -12 159.5t-47 94t-104 31.5h-2v-1242h122v-79h-540z" />
    <glyph glyph-name="tbar" unicode="&#x167;" horiz-adv-x="632" 
d="M28 617v60h565v-60h-565zM435 -18q-74 0 -140 23.5t-107 86.5t-41 181v695h-151v79h151q59 0 104 43.5t73.5 113.5t37.5 151h85v-308h172v-79h-172v-825q0 -41 20.5 -56t39.5 -15q18 0 34 6t23 14l44 -63q-31 -22 -72 -34.5t-101 -12.5z" />
    <glyph glyph-name="Utilde" unicode="&#x168;" horiz-adv-x="867" 
d="M468 -24q-52 0 -110.5 14t-109 53.5t-82 114.5t-31.5 197v966h-100v79h517v-79h-112v-981q0 -135 25.5 -199t85.5 -64q20 0 39.5 10t35 35t24 69.5t8.5 112.5v1017h-89v79h265v-79h-95v-1023q0 -123 -31.5 -193.5t-92 -99.5t-147.5 -29zM542 1495q-40 0 -66 12.5
t-45.5 24.5t-40.5 12q-36 0 -54 -12.5t-23 -20.5l-81 29q6 18 25.5 43t48.5 44t63 19q46 0 70 -11.5t43 -23.5t50 -12q36 0 50.5 13t18.5 23l79 -31q-3 -12 -21.5 -38t-48 -48.5t-68.5 -22.5z" />
    <glyph glyph-name="utilde" unicode="&#x169;" horiz-adv-x="960" 
d="M380 -22q-72 0 -131 27t-94 100.5t-35 214.5v648h-102v78h402v-691q0 -100 4 -152.5t16.5 -71.5t37.5 -19q21 0 39 22.5t28.5 72t10.5 129.5v632h-85v78h385v-967h85v-79h-347l-20 91q-5 -20 -30 -46.5t-67 -46.5t-97 -20zM581 1146q-40 0 -66 12.5t-45.5 24.5t-40.5 12
q-36 0 -54 -12.5t-23 -20.5l-81 29q6 18 25.5 43t48.5 44t63 19q46 0 70 -11.5t43 -23.5t50 -12q36 0 50.5 13t18.5 23l79 -31q-3 -12 -21.5 -38t-48 -48.5t-68.5 -22.5z" />
    <glyph glyph-name="Umacron" unicode="&#x16a;" horiz-adv-x="867" 
d="M468 -24q-52 0 -110.5 14t-109 53.5t-82 114.5t-31.5 197v966h-100v79h517v-79h-112v-981q0 -135 25.5 -199t85.5 -64q20 0 39.5 10t35 35t24 69.5t8.5 112.5v1017h-89v79h265v-79h-95v-1023q0 -123 -31.5 -193.5t-92 -99.5t-147.5 -29zM155 1544v80h603v-80h-603z" />
    <glyph glyph-name="umacron" unicode="&#x16b;" horiz-adv-x="960" 
d="M380 -22q-72 0 -131 27t-94 100.5t-35 214.5v648h-102v78h402v-691q0 -100 4 -152.5t16.5 -71.5t37.5 -19q21 0 39 22.5t28.5 72t10.5 129.5v632h-85v78h385v-967h85v-79h-347l-20 91q-5 -20 -30 -46.5t-67 -46.5t-97 -20zM239 1141v80h512v-80h-512z" />
    <glyph glyph-name="ubreve" unicode="&#x16d;" horiz-adv-x="960" 
d="M380 -22q-72 0 -131 27t-94 100.5t-35 214.5v648h-102v78h402v-691q0 -100 4 -152.5t16.5 -71.5t37.5 -19q21 0 39 22.5t28.5 72t10.5 129.5v632h-85v78h385v-967h85v-79h-347l-20 91q-5 -20 -30 -46.5t-67 -46.5t-97 -20zM493 1104q-66 0 -106.5 31t-59 78t-18.5 94h79
q5 -65 34.5 -94t70.5 -29q42 0 71.5 29t33.5 94h79q0 -47 -18.5 -94t-58.5 -78t-107 -31z" />
    <glyph glyph-name="Uring" unicode="&#x16e;" horiz-adv-x="867" 
d="M468 -24q-52 0 -110.5 14t-109 53.5t-82 114.5t-31.5 197v966h-100v79h517v-79h-112v-981q0 -135 25.5 -199t85.5 -64q20 0 39.5 10t35 35t24 69.5t8.5 112.5v1017h-89v79h265v-79h-95v-1023q0 -123 -31.5 -193.5t-92 -99.5t-147.5 -29zM457 1469q-44 0 -78.5 32.5
t-34.5 85.5q0 55 34.5 86.5t78.5 31.5q42 0 75.5 -31.5t33.5 -86.5q0 -53 -33.5 -85.5t-75.5 -32.5zM457 1535q22 0 32.5 17.5t10.5 36.5q0 15 -10.5 32.5t-32.5 17.5q-25 0 -35.5 -17.5t-10.5 -32.5q0 -19 10.5 -36.5t35.5 -17.5z" />
    <glyph glyph-name="uring" unicode="&#x16f;" horiz-adv-x="960" 
d="M380 -22q-72 0 -131 27t-94 100.5t-35 214.5v648h-102v78h402v-691q0 -100 4 -152.5t16.5 -71.5t37.5 -19q21 0 39 22.5t28.5 72t10.5 129.5v632h-85v78h385v-967h85v-79h-347l-20 91q-5 -20 -30 -46.5t-67 -46.5t-97 -20zM496 1100q-44 0 -78.5 32.5t-34.5 85.5
q0 55 34.5 86.5t78.5 31.5q42 0 75.5 -31.5t33.5 -86.5q0 -53 -33.5 -85.5t-75.5 -32.5zM496 1166q22 0 32.5 17.5t10.5 36.5q0 15 -10.5 32.5t-32.5 17.5q-25 0 -35.5 -17.5t-10.5 -32.5q0 -19 10.5 -36.5t35.5 -17.5z" />
    <glyph glyph-name="Uhungarumlaut" unicode="&#x170;" horiz-adv-x="867" 
d="M468 -24q-52 0 -110.5 14t-109 53.5t-82 114.5t-31.5 197v966h-100v79h517v-79h-112v-981q0 -135 25.5 -199t85.5 -64q20 0 39.5 10t35 35t24 69.5t8.5 112.5v1017h-89v79h265v-79h-95v-1023q0 -123 -31.5 -193.5t-92 -99.5t-147.5 -29zM295 1476l-61 62l134 154
q14 16 26.5 24.5t25.5 8.5q21 0 36.5 -15.5t15.5 -37.5q0 -30 -33 -53zM567 1476l-59 62l130 154q14 17 27.5 25t26.5 8q21 0 36.5 -16t15.5 -37q0 -31 -32 -53z" />
    <glyph glyph-name="uhungarumlaut" unicode="&#x171;" horiz-adv-x="960" 
d="M380 -22q-72 0 -131 27t-94 100.5t-35 214.5v648h-102v78h402v-691q0 -100 4 -152.5t16.5 -71.5t37.5 -19q21 0 39 22.5t28.5 72t10.5 129.5v632h-85v78h385v-967h85v-79h-347l-20 91q-5 -20 -30 -46.5t-67 -46.5t-97 -20zM284 1112l-61 62l134 154q14 16 26.5 24.5
t25.5 8.5q21 0 36.5 -15.5t15.5 -37.5q0 -30 -33 -53zM556 1112l-59 62l130 154q14 17 27.5 25t26.5 8q21 0 36.5 -16t15.5 -37q0 -31 -32 -53z" />
    <glyph glyph-name="Uogonek" unicode="&#x172;" horiz-adv-x="867" 
d="M468 -24q-52 0 -110.5 14t-109 53.5t-82 114.5t-31.5 197v966h-100v79h517v-79h-112v-981q0 -135 25.5 -199t85.5 -64q20 0 39.5 10t35 35t24 69.5t8.5 112.5v1017h-89v79h265v-79h-95v-1023q0 -123 -31.5 -193.5t-92 -99.5t-147.5 -29zM628 -296q-47 0 -85 15.5t-60 47
t-22 78.5q0 58 25.5 97t59 64t58.5 39l32 -27q-23 -28 -39.5 -58.5t-16.5 -79.5q0 -38 28.5 -52t51.5 -14q26 0 48 7t37 17l39 -78q-26 -25 -67.5 -40.5t-88.5 -15.5z" />
    <glyph glyph-name="uogonek" unicode="&#x173;" horiz-adv-x="960" 
d="M380 -22q-72 0 -131 27t-94 100.5t-35 214.5v648h-102v78h402v-691q0 -100 4 -152.5t16.5 -71.5t37.5 -19q21 0 39 22.5t28.5 72t10.5 129.5v632h-85v78h385v-967h85v-79h-347l-20 91q-5 -20 -30 -46.5t-67 -46.5t-97 -20zM933 -314q-47 0 -85 15.5t-60 47t-22 78.5
q0 58 25.5 97t59 63.5t58.5 39.5l32 -27q-23 -28 -39.5 -58.5t-16.5 -79.5q0 -38 28.5 -52t51.5 -14q26 0 48 7t37 17l39 -78q-26 -25 -67.5 -40.5t-88.5 -15.5z" />
    <glyph glyph-name="Wcircumflex" unicode="&#x174;" horiz-adv-x="1247" 
d="M347 0l-247 1321h-100v79h506v-79h-53l83 -586l-41 -102l125 613l26 -179l-55 254h-67v79h469v-79h-69l74 -563l-29 -102l120 665h-78v79h245v-79h-81l-236 -1321h-101l-191 1053l43 91l-242 -1144h-101zM484 1469l148 201h70l146 -201h-97l-85 127l-85 -127h-97z" />
    <glyph glyph-name="wcircumflex" unicode="&#x175;" horiz-adv-x="1204" 
d="M769 0l-206 968h-65v79h452v-79h-73l63 -381l85 381h-54v79h223v-79h-75l-207 -968h-143zM296 0l-205 968h-78v79h467v-79h-66l55 -381l83 381h-17v79h183v-79h-71l-208 -968h-143zM451 1131l148 201h70l146 -201h-97l-85 127l-85 -127h-97z" />
    <glyph glyph-name="Ycircumflex" unicode="&#x176;" horiz-adv-x="894" 
d="M193 0v79h112v508l-189 734h-100v79h512v-79h-77l151 -654h-75l170 654h-87v79h268v-79h-96l-177 -681v-561h114v-79h-526zM265 1469l148 201h70l146 -201h-97l-85 127l-85 -127h-97z" />
    <glyph glyph-name="ycircumflex" unicode="&#x177;" horiz-adv-x="777" 
d="M242 -502q-55 0 -94 38t-59 102t-20 142q0 77 32 116.5t83 39.5q49 0 80 -34t31 -97q0 -50 -20 -79.5t-39.5 -53.5t-19.5 -59q0 -23 10.5 -36t29.5 -13q10 0 17 4.5t13 17.5t12 38l80 354l-287 990h-84v79h483v-79h-79l113 -391l94 391h-74v79h234v-79h-70l-242 -975
l-91 -386q-7 -32 -23 -57t-42 -38.5t-68 -13.5zM213 1130l148 201h70l146 -201h-97l-85 127l-85 -127h-97z" />
    <glyph glyph-name="Ydieresis" unicode="&#x178;" horiz-adv-x="894" 
d="M193 0v79h112v508l-189 734h-100v79h512v-79h-77l151 -654h-75l170 654h-87v79h268v-79h-96l-177 -681v-561h114v-79h-526zM574 1503q-39 0 -67.5 29t-28.5 67q0 41 28.5 70.5t67.5 29.5t68 -29.5t29 -70.5q0 -38 -29 -67t-68 -29zM318 1503q-38 0 -66 29t-28 67
q0 41 28 70.5t66 29.5q40 0 68.5 -29.5t28.5 -70.5q0 -38 -28.5 -67t-68.5 -29z" />
    <glyph glyph-name="Zacute" unicode="&#x179;" horiz-adv-x="800" 
d="M60 0v79l331 1242h-36q-79 0 -119.5 -37.5t-55 -102t-14.5 -145.5h-79v364h628v-79l-331 -1242h40q71 0 124.5 38.5t83.5 103.5t30 146h79v-367h-681zM307 1440l-64 68l195 145q15 11 29 17.5t27 6.5q20 0 35 -10.5t23 -24.5t8 -30q0 -19 -12 -36t-40 -28z" />
    <glyph glyph-name="zacute" unicode="&#x17a;" horiz-adv-x="740" 
d="M80 0v79l277 889h-88q-52 0 -75 -24t-28 -80.5t-5 -154.5h-77v338h582v-79l-277 -889h90q51 0 72.5 25t26 83t4.5 160h79v-347h-581zM271 1089l-64 68l195 145q15 11 29 17.5t27 6.5q20 0 35 -10.5t23 -24.5t8 -30q0 -19 -12 -36t-40 -28z" />
    <glyph glyph-name="Zdotaccent" unicode="&#x17b;" horiz-adv-x="800" 
d="M60 0v79l331 1242h-36q-79 0 -119.5 -37.5t-55 -102t-14.5 -145.5h-79v364h628v-79l-331 -1242h40q71 0 124.5 38.5t83.5 103.5t30 146h79v-367h-681zM408 1502q-40 0 -68.5 29t-28.5 67q0 40 28.5 69t68.5 29q36 0 65 -29t29 -69q0 -38 -29 -67t-65 -29z" />
    <glyph glyph-name="zdotaccent" unicode="&#x17c;" horiz-adv-x="740" 
d="M80 0v79l277 889h-88q-52 0 -75 -24t-28 -80.5t-5 -154.5h-77v338h582v-79l-277 -889h90q51 0 72.5 25t26 83t4.5 160h79v-347h-581zM372 1142q-40 0 -68.5 29t-28.5 67q0 40 28.5 69t68.5 29q36 0 65 -29t29 -69q0 -38 -29 -67t-65 -29z" />
    <glyph glyph-name="Zcaron" unicode="&#x17d;" horiz-adv-x="800" 
d="M60 0v79l331 1242h-36q-79 0 -119.5 -37.5t-55 -102t-14.5 -145.5h-79v364h628v-79l-331 -1242h40q71 0 124.5 38.5t83.5 103.5t30 146h79v-367h-681zM373 1474l-177 229h108l103 -155l102 155h110l-176 -229h-70z" />
    <glyph glyph-name="zcaron" unicode="&#x17e;" horiz-adv-x="740" 
d="M80 0v79l277 889h-88q-52 0 -75 -24t-28 -80.5t-5 -154.5h-77v338h582v-79l-277 -889h90q51 0 72.5 25t26 83t4.5 160h79v-347h-581zM337 1111l-177 229h108l103 -155l102 155h110l-176 -229h-70z" />
    <glyph glyph-name="uni018F" unicode="&#x18f;" horiz-adv-x="968" 
d="M480 -25q-85 0 -159.5 42.5t-131.5 130.5t-89 223.5t-32 320.5q0 27 1.5 54.5t3.5 55.5h537v-79h-222q0 -239 10.5 -386t31.5 -215t50 -68q31 0 55.5 61t39.5 202.5t15 384.5q0 185 -5.5 307.5t-20.5 194.5t-44.5 103t-77.5 31q-65 0 -116 -28t-86 -68t-54 -76l-83 59
q23 45 75 92t127 79t165 32q101 0 182.5 -42t140.5 -131t90 -229.5t31 -338.5q0 -200 -41.5 -337t-107.5 -219.5t-141.5 -119t-143.5 -36.5zM73 1166v234h80q0 -37 4 -69t22 -32l7 -133h-113z" />
    <glyph glyph-name="florin" unicode="&#x192;" horiz-adv-x="757" 
d="M75 -420q-59 0 -105 21t-71.5 59t-25.5 89q0 50 22.5 80.5t64.5 30.5t63.5 -18t21.5 -55q0 -28 -11.5 -43.5t-23.5 -27.5t-12 -30q0 -16 7 -22.5t22 -6.5q22 0 37 26t25 72t16.5 108.5t10.5 136.5l53 968h-102v79h108l4 62q10 156 58.5 243.5t119.5 123t148 35.5
q62 0 113.5 -35t82 -96.5t30.5 -139.5q0 -76 -32 -120t-83 -44q-50 0 -83 41.5t-33 104.5q0 41 20 70t40 51.5t20 41.5q0 20 -11 30.5t-40 10.5q-39 0 -60.5 -51t-31 -129t-13.5 -157l-2 -42h105v-79h-111l-56 -937q-3 -52 -9.5 -113t-22 -120.5t-46 -109t-81 -79
t-126.5 -29.5z" />
    <glyph glyph-name="Ohorn" unicode="&#x1a0;" horiz-adv-x="906" 
d="M457 -22q-111 0 -199 82.5t-139 242.5t-51 395q0 236 51 397t139 244t199 83q112 0 201.5 -83t141.5 -244t52 -397q0 -235 -52 -395t-141.5 -242.5t-201.5 -82.5zM457 57q23 0 37.5 39.5t23.5 120t12.5 200.5t3.5 281t-3.5 281.5t-12.5 201.5t-23.5 121.5t-37.5 40.5
q-22 0 -36 -40.5t-21.5 -121.5t-10.5 -201.5t-3 -281.5t3 -281t10.5 -200.5t21.5 -120t36 -39.5zM609 1296v79q41 0 75 10t34 55q0 19 -10 44.5t-10 47.5q0 36 18.5 57t58.5 21t58 -20.5t18 -57.5q0 -92 -40 -143.5t-96 -72t-106 -20.5z" />
    <glyph glyph-name="ohorn" unicode="&#x1a1;" horiz-adv-x="864" 
d="M431 -22q-63 0 -129 32.5t-122 100t-90 171t-34 245.5q0 154 35.5 257.5t92 164.5t122 87.5t125.5 26.5t126 -26.5t123 -87.5t93 -164.5t36 -257.5q0 -142 -34.5 -245.5t-90.5 -171t-122.5 -100t-130.5 -32.5zM431 72q38 0 57 105t19 350q0 246 -19 345t-57 99
q-35 0 -54 -99t-19 -345q0 -245 19 -350t54 -105zM597 937v79q41 0 75 10t34 55q0 19 -10 44.5t-10 47.5q0 36 18.5 57t58.5 21t58 -20.5t18 -57.5q0 -92 -40 -143.5t-96 -72t-106 -20.5z" />
    <glyph glyph-name="Uhorn" unicode="&#x1af;" horiz-adv-x="867" 
d="M468 -24q-52 0 -110.5 14t-109 53.5t-82 114.5t-31.5 197v966h-100v79h517v-79h-112v-981q0 -135 25.5 -199t85.5 -64q20 0 39.5 10t35 35t24 69.5t8.5 112.5v1017h-89v79h179v-79h-9v-1023q0 -123 -31.5 -193.5t-92 -99.5t-147.5 -29zM748 1321v79q41 0 75 10t34 55
q0 19 -10 44.5t-10 47.5q0 36 18.5 57t58.5 21t58 -20.5t18 -57.5q0 -92 -40 -143.5t-96 -72t-106 -20.5z" />
    <glyph glyph-name="uhorn" unicode="&#x1b0;" horiz-adv-x="960" 
d="M380 -22q-72 0 -131 27t-94 100.5t-35 214.5v648h-102v78h402v-691q0 -100 4 -152.5t16.5 -71.5t37.5 -19q21 0 39 22.5t28.5 72t10.5 129.5v632h-85v78h385v-967h85v-79h-347l-20 91q-5 -20 -30 -46.5t-67 -46.5t-97 -20zM796 967v79q41 0 75 10t34 55q0 19 -10 44.5
t-10 47.5q0 36 18.5 57t58.5 21t58 -20.5t18 -57.5q0 -92 -40 -143.5t-96 -72t-106 -20.5z" />
    <glyph glyph-name="uni01C6" unicode="&#x1c6;" horiz-adv-x="1688" 
d="M382 -20q-79 0 -153.5 47t-122.5 164t-48 327q0 190 45.5 310.5t115.5 177.5t143 57q60 0 91.5 -17t43.5 -37.5t14 -28.5v439h-124v81h431v-1421h118v-79h-370l-32 108q-1 -27 -19 -57t-51.5 -50.5t-81.5 -20.5zM442 139q21 0 36.5 31t24 82t8.5 108v369q-2 52 -10 90
t-22.5 58.5t-34.5 20.5q-18 0 -34 -25.5t-27.5 -74.5t-18 -120t-6.5 -163q0 -85 5.5 -154.5t16 -119t26 -76t36.5 -26.5zM1027 0v79l277 889h-88q-52 0 -75 -24t-28 -80.5t-5 -154.5h-77v338h582v-79l-277 -889h90q51 0 72.5 25t26 83t4.5 160h79v-347h-581zM1284 1111
l-177 229h108l103 -155l102 155h110l-176 -229h-70z" />
    <glyph glyph-name="uni01C7" unicode="&#x1c7;" horiz-adv-x="1549" 
d="M49 0v79h89v1242h-89v79h480v-79h-93v-1242h20q45 0 76 39.5t47.5 104.5t16.5 144h80v-367h-627zM1051 -22q-93 0 -147 40.5t-77.5 106.5t-23.5 144q0 77 34 111.5t86 34.5q50 0 83 -32t33 -108q0 -51 -17.5 -76.5t-36 -42.5t-18.5 -41q0 -28 13 -40t30 -12q40 0 60 22
t20 75v1161h-107v79h509v-79h-102v-874q0 -126 -22 -215t-65 -145.5t-106 -82.5t-146 -26z" />
    <glyph glyph-name="uni01C8" unicode="&#x1c8;" horiz-adv-x="1272" 
d="M49 0v79h89v1242h-89v79h480v-79h-93v-1242h20q45 0 76 39.5t47.5 104.5t16.5 144h80v-367h-627zM810 -498q-70 0 -123 37t-83 100t-30 141q0 77 36.5 116.5t88.5 39.5q48 0 74 -33t26 -96q0 -41 -11.5 -65.5t-24 -44t-12.5 -45.5q0 -16 3 -32t12 -26.5t26 -10.5
q44 0 54.5 46t10.5 140v1199h-118v79h418v-1078q0 -145 -33 -237t-85.5 -142t-113 -69t-115.5 -19zM1003 1142q-76 0 -130 54t-54 131q0 75 54 128.5t130 53.5q75 0 128.5 -53.5t53.5 -128.5q0 -77 -53.5 -131t-128.5 -54z" />
    <glyph glyph-name="uni01C9" unicode="&#x1c9;" horiz-adv-x="1121" 
d="M27 0v79h111v1342h-111v79h411v-1421h110v-79h-521zM659 -498q-70 0 -123 37t-83 100t-30 141q0 77 36.5 116.5t88.5 39.5q48 0 74 -33t26 -96q0 -41 -11.5 -65.5t-24 -44t-12.5 -45.5q0 -16 3 -32t12 -26.5t26 -10.5q44 0 54.5 46t10.5 140v1199h-118v79h418v-1078
q0 -145 -33 -237t-85.5 -142t-113 -69t-115.5 -19zM852 1142q-76 0 -130 54t-54 131q0 75 54 128.5t130 53.5q75 0 128.5 -53.5t53.5 -128.5q0 -77 -53.5 -131t-128.5 -54z" />
    <glyph glyph-name="uni01CA" unicode="&#x1ca;" horiz-adv-x="1632" 
d="M27 0v79h93v1242h-93v79h420l234 -713h-16v634h-87v79h257v-79h-89v-1321h-169l-396 1233h20v-1154h87v-79h-261zM1134 -22q-93 0 -147 40.5t-77.5 106.5t-23.5 144q0 77 34 111.5t86 34.5q50 0 83 -32t33 -108q0 -51 -17.5 -76.5t-36 -42.5t-18.5 -41q0 -28 13 -40
t30 -12q40 0 60 22t20 75v1161h-107v79h509v-79h-102v-874q0 -126 -22 -215t-65 -145.5t-106 -82.5t-146 -26z" />
    <glyph glyph-name="uni01CB" unicode="&#x1cb;" horiz-adv-x="1428" 
d="M27 0v79h93v1242h-93v79h420l234 -713h-16v634h-87v79h257v-79h-89v-1321h-169l-396 1233h20v-1154h87v-79h-261zM966 -498q-70 0 -123 37t-83 100t-30 141q0 77 36.5 116.5t88.5 39.5q48 0 74 -33t26 -96q0 -41 -11.5 -65.5t-24 -44t-12.5 -45.5q0 -16 3 -32t12 -26.5
t26 -10.5q44 0 54.5 46t10.5 140v1199h-118v79h418v-1078q0 -145 -33 -237t-85.5 -142t-113 -69t-115.5 -19zM1159 1142q-76 0 -130 54t-54 131q0 75 54 128.5t130 53.5q75 0 128.5 -53.5t53.5 -128.5q0 -77 -53.5 -131t-128.5 -54z" />
    <glyph glyph-name="uni01CC" unicode="&#x1cc;" horiz-adv-x="1516" 
d="M31 0v79h109v889h-109v79h400v-96q2 8 23 35.5t62.5 52t103.5 24.5q71 0 126 -29.5t86.5 -104t31.5 -211.5v-639h105v-79h-469v79h64v642q0 94 -11 141t-40 47q-16 0 -28.5 -10.5t-22 -32t-15 -53.5t-7.5 -75v-659h60v-79h-469zM1054 -498q-70 0 -123 37t-83 100t-30 141
q0 77 36.5 116.5t88.5 39.5q48 0 74 -33t26 -96q0 -41 -11.5 -65.5t-24 -44t-12.5 -45.5q0 -16 3 -32t12 -26.5t26 -10.5q44 0 54.5 46t10.5 140v1199h-118v79h418v-1078q0 -145 -33 -237t-85.5 -142t-113 -69t-115.5 -19zM1247 1142q-76 0 -130 54t-54 131q0 75 54 128.5
t130 53.5q75 0 128.5 -53.5t53.5 -128.5q0 -77 -53.5 -131t-128.5 -54z" />
    <glyph glyph-name="uni01CE" unicode="&#x1ce;" horiz-adv-x="906" 
d="M305 -22q-70 0 -129 33.5t-95 94.5t-36 143q0 98 43.5 161.5t107.5 106t128 75.5t107.5 69.5t43.5 89.5q0 71 -13 119.5t-38.5 73.5t-63.5 25q-47 0 -76 -21.5t-29 -52.5q0 -29 13.5 -50t27 -45t13.5 -65q0 -55 -32 -86t-82 -31q-52 0 -84.5 44t-32.5 120
q0 81 44.5 144.5t123 100t179.5 36.5q102 0 181 -39.5t124 -124.5t45 -223v-495q0 -56 8 -74.5t26 -18.5q20 0 34 11.5t21 19.5l46 -59q-18 -27 -75.5 -53.5t-134.5 -26.5q-79 0 -119.5 21t-57 47.5t-24.5 41.5q-3 -10 -22.5 -37t-60.5 -51t-111 -24zM411 108q19 0 33.5 18
t22.5 48.5t8 66.5v369q-4 -28 -24 -52t-44 -55t-42 -82t-18 -134q0 -88 18.5 -133.5t45.5 -45.5zM406 1111l-177 229h108l103 -155l102 155h110l-176 -229h-70z" />
    <glyph glyph-name="uni01D0" unicode="&#x1d0;" horiz-adv-x="550" 
d="M25 0v79h100v889h-100v79h400v-968h99v-79h-499zM241 1111l-177 229h108l103 -155l102 155h110l-176 -229h-70z" />
    <glyph glyph-name="uni01D2" unicode="&#x1d2;" horiz-adv-x="864" 
d="M431 -22q-63 0 -129 32.5t-122 100t-90 171t-34 245.5q0 154 35.5 257.5t92 164.5t122 87.5t125.5 26.5t126 -26.5t123 -87.5t93 -164.5t36 -257.5q0 -142 -34.5 -245.5t-90.5 -171t-122.5 -100t-130.5 -32.5zM431 72q38 0 57 105t19 350q0 246 -19 345t-57 99
q-35 0 -54 -99t-19 -345q0 -245 19 -350t54 -105zM397 1111l-177 229h108l103 -155l102 155h110l-176 -229h-70z" />
    <glyph glyph-name="uni01D4" unicode="&#x1d4;" horiz-adv-x="960" 
d="M380 -22q-72 0 -131 27t-94 100.5t-35 214.5v648h-102v78h402v-691q0 -100 4 -152.5t16.5 -71.5t37.5 -19q21 0 39 22.5t28.5 72t10.5 129.5v632h-85v78h385v-967h85v-79h-347l-20 91q-5 -20 -30 -46.5t-67 -46.5t-97 -20zM461 1111l-177 229h108l103 -155l102 155h110
l-176 -229h-70z" />
    <glyph glyph-name="uni01D6" unicode="&#x1d6;" horiz-adv-x="960" 
d="M380 -22q-72 0 -131 27t-94 100.5t-35 214.5v648h-102v78h402v-691q0 -100 4 -152.5t16.5 -71.5t37.5 -19q21 0 39 22.5t28.5 72t10.5 129.5v632h-85v78h385v-967h85v-79h-347l-20 91q-5 -20 -30 -46.5t-67 -46.5t-97 -20zM622 1136q-39 0 -67.5 29t-28.5 67
q0 41 28.5 70.5t67.5 29.5t68 -29.5t29 -70.5q0 -38 -29 -67t-68 -29zM366 1136q-38 0 -66 29t-28 67q0 41 28 70.5t66 29.5q40 0 68.5 -29.5t28.5 -70.5q0 -38 -28.5 -67t-68.5 -29zM239 1427v80h512v-80h-512z" />
    <glyph glyph-name="uni01D8" unicode="&#x1d8;" horiz-adv-x="960" 
d="M380 -22q-72 0 -131 27t-94 100.5t-35 214.5v648h-102v78h402v-691q0 -100 4 -152.5t16.5 -71.5t37.5 -19q21 0 39 22.5t28.5 72t10.5 129.5v632h-85v78h385v-967h85v-79h-347l-20 91q-5 -20 -30 -46.5t-67 -46.5t-97 -20zM622 1136q-39 0 -67.5 29t-28.5 67
q0 41 28.5 70.5t67.5 29.5t68 -29.5t29 -70.5q0 -38 -29 -67t-68 -29zM366 1136q-38 0 -66 29t-28 67q0 41 28 70.5t66 29.5q40 0 68.5 -29.5t28.5 -70.5q0 -38 -28.5 -67t-68.5 -29zM395 1375l-64 68l195 145q15 11 29 17.5t27 6.5q20 0 35 -10.5t23 -24.5t8 -30
q0 -19 -12 -36t-40 -28z" />
    <glyph glyph-name="uni01DA" unicode="&#x1da;" horiz-adv-x="960" 
d="M380 -22q-72 0 -131 27t-94 100.5t-35 214.5v648h-102v78h402v-691q0 -100 4 -152.5t16.5 -71.5t37.5 -19q21 0 39 22.5t28.5 72t10.5 129.5v632h-85v78h385v-967h85v-79h-347l-20 91q-5 -20 -30 -46.5t-67 -46.5t-97 -20zM622 1136q-39 0 -67.5 29t-28.5 67
q0 41 28.5 70.5t67.5 29.5t68 -29.5t29 -70.5q0 -38 -29 -67t-68 -29zM366 1136q-38 0 -66 29t-28 67q0 41 28 70.5t66 29.5q40 0 68.5 -29.5t28.5 -70.5q0 -38 -28.5 -67t-68.5 -29zM461 1397l-177 229h108l103 -155l102 155h110l-176 -229h-70z" />
    <glyph glyph-name="uni01DC" unicode="&#x1dc;" horiz-adv-x="960" 
d="M380 -22q-72 0 -131 27t-94 100.5t-35 214.5v648h-102v78h402v-691q0 -100 4 -152.5t16.5 -71.5t37.5 -19q21 0 39 22.5t28.5 72t10.5 129.5v632h-85v78h385v-967h85v-79h-347l-20 91q-5 -20 -30 -46.5t-67 -46.5t-97 -20zM622 1136q-39 0 -67.5 29t-28.5 67
q0 41 28.5 70.5t67.5 29.5t68 -29.5t29 -70.5q0 -38 -29 -67t-68 -29zM366 1136q-38 0 -66 29t-28 67q0 41 28 70.5t66 29.5q40 0 68.5 -29.5t28.5 -70.5q0 -38 -28.5 -67t-68.5 -29zM595 1391l-210 103q-31 15 -46 31t-15 44q0 25 19 41.5t47 16.5q22 0 36.5 -8.5
t29.5 -20.5l186 -152z" />
    <glyph glyph-name="uni01DF" unicode="&#x1df;" horiz-adv-x="906" 
d="M305 -22q-70 0 -129 33.5t-95 94.5t-36 143q0 98 43.5 161.5t107.5 106t128 75.5t107.5 69.5t43.5 89.5q0 71 -13 119.5t-38.5 73.5t-63.5 25q-47 0 -76 -21.5t-29 -52.5q0 -29 13.5 -50t27 -45t13.5 -65q0 -55 -32 -86t-82 -31q-52 0 -84.5 44t-32.5 120
q0 81 44.5 144.5t123 100t179.5 36.5q102 0 181 -39.5t124 -124.5t45 -223v-495q0 -56 8 -74.5t26 -18.5q20 0 34 11.5t21 19.5l46 -59q-18 -27 -75.5 -53.5t-134.5 -26.5q-79 0 -119.5 21t-57 47.5t-24.5 41.5q-3 -10 -22.5 -37t-60.5 -51t-111 -24zM411 108q19 0 33.5 18
t22.5 48.5t8 66.5v369q-4 -28 -24 -52t-44 -55t-42 -82t-18 -134q0 -88 18.5 -133.5t45.5 -45.5zM567 1136q-39 0 -67.5 29t-28.5 67q0 41 28.5 70.5t67.5 29.5t68 -29.5t29 -70.5q0 -38 -29 -67t-68 -29zM311 1136q-38 0 -66 29t-28 67q0 41 28 70.5t66 29.5
q40 0 68.5 -29.5t28.5 -70.5q0 -38 -28.5 -67t-68.5 -29zM184 1427v80h512v-80h-512z" />
    <glyph glyph-name="gcaron" unicode="&#x1e7;" horiz-adv-x="934" 
d="M451 -498q-92 0 -184.5 25.5t-154 83.5t-61.5 156q0 69 29.5 114.5t69 71t70.5 36.5t35 11q-6 2 -30 11t-52.5 29.5t-49.5 55t-21 86.5q0 34 12 59.5t31.5 42.5t39.5 25q5 2 13 4.5t11 2.5q-3 2 -23 19t-45 54t-44 99.5t-19 153.5q0 119 39 199.5t98.5 129.5t123 70.5
t112.5 21.5q114 0 197 -52.5t128.5 -145.5t45.5 -214q0 -136 -39 -219.5t-99 -127t-123.5 -58.5t-111.5 -15q-65 0 -106 12.5t-52 16.5h-1h-1q-10 0 -20 -11t-10 -33q0 -32 53 -58.5t199 -55.5q161 -31 256 -99.5t95 -211.5q0 -89 -42.5 -146t-108 -88t-135.5 -43t-125 -12z
M451 -421q64 0 103 48t39 106q0 56 -15 91t-62 69q-19 14 -45.5 28t-51.5 25t-41 16q-13 -6 -32.5 -28.5t-35 -62.5t-15.5 -102q0 -61 19 -103t54 -64.5t83 -22.5zM449 314q19 0 36 20t28 91t11 222q0 144 -11 214.5t-28.5 94t-35.5 23.5t-34.5 -23.5t-27.5 -95t-11 -216.5
q0 -151 11.5 -221t28.5 -89.5t33 -19.5zM585 978q13 80 76 125.5t135 45.5q59 0 83.5 -30.5t24.5 -74.5t-24 -67.5t-61 -23.5t-52.5 17t-26 33.5t-36.5 16.5q-12 0 -23 -7t-11 -35h-85zM417 1111l-177 229h108l103 -155l102 155h110l-176 -229h-70z" />
    <glyph glyph-name="uni01EA" unicode="&#x1ea;" horiz-adv-x="906" 
d="M457 -22q-111 0 -199 82.5t-139 242.5t-51 395q0 236 51 397t139 244t199 83q112 0 201.5 -83t141.5 -244t52 -397q0 -235 -52 -395t-141.5 -242.5t-201.5 -82.5zM457 57q23 0 37.5 39.5t23.5 120t12.5 200.5t3.5 281t-3.5 281.5t-12.5 201.5t-23.5 121.5t-37.5 40.5
q-22 0 -36 -40.5t-21.5 -121.5t-10.5 -201.5t-3 -281.5t3 -281t10.5 -200.5t21.5 -120t36 -39.5zM570 -306q-47 0 -85 15.5t-60 47t-22 78.5q0 58 25.5 97t59 63.5t58.5 39.5l32 -27q-22 -28 -39 -58.5t-17 -79.5q0 -38 28.5 -52t51.5 -14q26 0 48 7t37 17l39 -78
q-26 -25 -67 -40.5t-89 -15.5z" />
    <glyph glyph-name="uni01EB" unicode="&#x1eb;" horiz-adv-x="864" 
d="M431 -22q-63 0 -129 32.5t-122 100t-90 171t-34 245.5q0 154 35.5 257.5t92 164.5t122 87.5t125.5 26.5t126 -26.5t123 -87.5t93 -164.5t36 -257.5q0 -142 -34.5 -245.5t-90.5 -171t-122.5 -100t-130.5 -32.5zM431 72q38 0 57 105t19 350q0 246 -19 345t-57 99
q-35 0 -54 -99t-19 -345q0 -245 19 -350t54 -105zM555 -299q-47 0 -85 15.5t-60 47t-22 78.5q0 58 25.5 97t59 64t58.5 39l33 -27q-23 -28 -40 -58.5t-17 -79.5q0 -38 28.5 -52t51.5 -14q26 0 48 7t37 17l40 -78q-26 -25 -67.5 -40.5t-89.5 -15.5z" />
    <glyph glyph-name="aringacute" unicode="&#x1fb;" horiz-adv-x="906" 
d="M305 -22q-70 0 -129 33.5t-95 94.5t-36 143q0 98 43.5 161.5t107.5 106t128 75.5t107.5 69.5t43.5 89.5q0 71 -13 119.5t-38.5 73.5t-63.5 25q-47 0 -76 -21.5t-29 -52.5q0 -29 13.5 -50t27 -45t13.5 -65q0 -55 -32 -86t-82 -31q-52 0 -84.5 44t-32.5 120
q0 81 44.5 144.5t123 100t179.5 36.5q102 0 181 -39.5t124 -124.5t45 -223v-495q0 -56 8 -74.5t26 -18.5q20 0 34 11.5t21 19.5l46 -59q-18 -27 -75.5 -53.5t-134.5 -26.5q-79 0 -119.5 21t-57 47.5t-24.5 41.5q-3 -10 -22.5 -37t-60.5 -51t-111 -24zM411 108q19 0 33.5 18
t22.5 48.5t8 66.5v369q-4 -28 -24 -52t-44 -55t-42 -82t-18 -134q0 -88 18.5 -133.5t45.5 -45.5zM441 1100q-44 0 -78.5 32.5t-34.5 85.5q0 55 34.5 86.5t78.5 31.5q42 0 75.5 -31.5t33.5 -86.5q0 -53 -33.5 -85.5t-75.5 -32.5zM441 1166q22 0 32.5 17.5t10.5 36.5
q0 15 -10.5 32.5t-32.5 17.5q-25 0 -35.5 -17.5t-10.5 -32.5q0 -19 10.5 -36.5t35.5 -17.5zM341 1378l-64 68l195 145q15 11 29 17.5t27 6.5q20 0 35 -10.5t23 -24.5t8 -30q0 -19 -12 -36t-40 -28z" />
    <glyph glyph-name="aeacute" unicode="&#x1fd;" horiz-adv-x="1303" 
d="M358 -22q-171 0 -242 73.5t-71 197.5q0 98 43.5 161.5t107.5 106t128 75.5t107.5 69.5t43.5 89.5q0 71 -13 119.5t-38.5 73.5t-63.5 25q-47 0 -76 -21.5t-29 -52.5q0 -29 13.5 -50t27 -45t13.5 -65q0 -55 -32 -86t-82 -31q-52 0 -84.5 44t-32.5 120q0 81 44.5 144.5
t123 100t179.5 36.5q102 0 181 -39.5t124 -124.5t45 -223v-155q0 -117 -17 -203.5t-44.5 -144.5t-58.5 -89q-52 -52 -122.5 -79t-174.5 -27zM411 108q29 0 46.5 39t17.5 94v369q-4 -28 -24 -52t-44 -55t-42 -82t-18 -134q0 -59 8.5 -98.5t23 -60t32.5 -20.5zM897 -20
q-82 0 -154 31t-126.5 96.5t-85 169.5t-30.5 250q0 148 37 250.5t97 165.5t127.5 91.5t127.5 28.5q72 0 136.5 -32t114 -92.5t78 -147.5t28.5 -198q0 -20 -0.5 -40t-2.5 -41h-458v79h178q0 162 -9.5 246t-26 114.5t-38.5 30.5q-23 0 -43.5 -32t-33 -123t-12.5 -271
q0 -136 7.5 -229t24.5 -149.5t42.5 -81t61.5 -24.5q78 0 125 37.5t68 76.5l65 -52q-26 -55 -107 -104.5t-191 -49.5zM574 1089l-64 68l195 145q15 11 29 17.5t27 6.5q20 0 35 -10.5t23 -24.5t8 -30q0 -19 -12 -36t-40 -28z" />
    <glyph glyph-name="Oslashacute" unicode="&#x1fe;" horiz-adv-x="906" 
d="M185 -104l487 1608h82l-486 -1608h-83zM457 -22q-111 0 -199 82.5t-139 242.5t-51 395q0 236 51 397t139 244t199 83q112 0 201.5 -83t141.5 -244t52 -397q0 -235 -52 -395t-141.5 -242.5t-201.5 -82.5zM457 57q23 0 37.5 39.5t23.5 120t12.5 200.5t3.5 281t-3.5 281.5
t-12.5 201.5t-23.5 121.5t-37.5 40.5q-22 0 -36 -40.5t-21.5 -121.5t-10.5 -201.5t-3 -281.5t3 -281t10.5 -200.5t21.5 -120t36 -39.5zM357 1440l-64 68l195 145q15 11 29 17.5t27 6.5q20 0 35 -10.5t23 -24.5t8 -30q0 -19 -12 -36t-40 -28z" />
    <glyph glyph-name="oslashacute" unicode="&#x1ff;" horiz-adv-x="864" 
d="M105 -104l555 1224h88l-553 -1224h-90zM431 -22q-63 0 -129 32.5t-122 100t-90 171t-34 245.5q0 154 35.5 257.5t92 164.5t122 87.5t125.5 26.5t126 -26.5t123 -87.5t93 -164.5t36 -257.5q0 -142 -34.5 -245.5t-90.5 -171t-122.5 -100t-130.5 -32.5zM431 72q38 0 57 105
t19 350q0 246 -19 345t-57 99q-35 0 -54 -99t-19 -345q0 -245 19 -350t54 -105zM331 1089l-64 68l195 145q15 11 29 17.5t27 6.5q20 0 35 -10.5t23 -24.5t8 -30q0 -19 -12 -36t-40 -28z" />
    <glyph glyph-name="uni0201" unicode="&#x201;" horiz-adv-x="906" 
d="M305 -22q-70 0 -129 33.5t-95 94.5t-36 143q0 98 43.5 161.5t107.5 106t128 75.5t107.5 69.5t43.5 89.5q0 71 -13 119.5t-38.5 73.5t-63.5 25q-47 0 -76 -21.5t-29 -52.5q0 -29 13.5 -50t27 -45t13.5 -65q0 -55 -32 -86t-82 -31q-52 0 -84.5 44t-32.5 120
q0 81 44.5 144.5t123 100t179.5 36.5q102 0 181 -39.5t124 -124.5t45 -223v-495q0 -56 8 -74.5t26 -18.5q20 0 34 11.5t21 19.5l46 -59q-18 -27 -75.5 -53.5t-134.5 -26.5q-79 0 -119.5 21t-57 47.5t-24.5 41.5q-3 -10 -22.5 -37t-60.5 -51t-111 -24zM411 108q19 0 33.5 18
t22.5 48.5t8 66.5v369q-4 -28 -24 -52t-44 -55t-42 -82t-18 -134q0 -88 18.5 -133.5t45.5 -45.5zM549 1103l-162 168q-18 18 -27.5 33.5t-9.5 32.5q0 29 18.5 46.5t43.5 17.5q29 0 47.5 -17t31.5 -39l121 -207zM333 1103l-163 168q-18 19 -27 34t-9 32q0 29 18.5 46.5
t43.5 17.5q29 0 47.5 -17t31.5 -39l121 -207z" />
    <glyph glyph-name="uni0203" unicode="&#x203;" horiz-adv-x="906" 
d="M305 -22q-70 0 -129 33.5t-95 94.5t-36 143q0 98 43.5 161.5t107.5 106t128 75.5t107.5 69.5t43.5 89.5q0 71 -13 119.5t-38.5 73.5t-63.5 25q-47 0 -76 -21.5t-29 -52.5q0 -29 13.5 -50t27 -45t13.5 -65q0 -55 -32 -86t-82 -31q-52 0 -84.5 44t-32.5 120
q0 81 44.5 144.5t123 100t179.5 36.5q102 0 181 -39.5t124 -124.5t45 -223v-495q0 -56 8 -74.5t26 -18.5q20 0 34 11.5t21 19.5l46 -59q-18 -27 -75.5 -53.5t-134.5 -26.5q-79 0 -119.5 21t-57 47.5t-24.5 41.5q-3 -10 -22.5 -37t-60.5 -51t-111 -24zM411 108q19 0 33.5 18
t22.5 48.5t8 66.5v369q-4 -28 -24 -52t-44 -55t-42 -82t-18 -134q0 -88 18.5 -133.5t45.5 -45.5zM440 1321q67 0 107.5 -31t59 -78t18.5 -94h-80q-4 65 -33.5 94t-71.5 29q-41 0 -70 -29t-34 -94h-80q0 47 18.5 94t59 78t106.5 31z" />
    <glyph glyph-name="uni0205" unicode="&#x205;" horiz-adv-x="858" 
d="M453 -20q-82 0 -154 31t-126.5 96.5t-85.5 169.5t-31 250q0 148 37.5 250.5t97.5 165.5t127.5 91.5t126.5 28.5q72 0 136.5 -32t114 -92.5t78 -147.5t28.5 -198q0 -20 -0.5 -40t-2.5 -41h-457v79h177q0 162 -9.5 246t-26 114.5t-38.5 30.5t-42.5 -32t-33.5 -123t-13 -271
q0 -136 8 -229t25 -149.5t42.5 -81t61.5 -24.5q77 0 124 37.5t68 76.5l66 -52q-26 -55 -107.5 -104.5t-190.5 -49.5zM617 1103l-163 168q-18 18 -27.5 33.5t-9.5 32.5q0 29 18.5 46.5t43.5 17.5q29 0 47.5 -17t31.5 -39l121 -207zM401 1103l-164 168q-18 19 -27 34t-9 32
q0 29 18.5 46.5t43.5 17.5q29 0 47.5 -17t31.5 -39l121 -207z" />
    <glyph glyph-name="uni0207" unicode="&#x207;" horiz-adv-x="858" 
d="M453 -20q-82 0 -154 31t-126.5 96.5t-85.5 169.5t-31 250q0 148 37.5 250.5t97.5 165.5t127.5 91.5t126.5 28.5q72 0 136.5 -32t114 -92.5t78 -147.5t28.5 -198q0 -20 -0.5 -40t-2.5 -41h-457v79h177q0 162 -9.5 246t-26 114.5t-38.5 30.5t-42.5 -32t-33.5 -123t-13 -271
q0 -136 8 -229t25 -149.5t42.5 -81t61.5 -24.5q77 0 124 37.5t68 76.5l66 -52q-26 -55 -107.5 -104.5t-190.5 -49.5zM440 1321q67 0 107.5 -31t59 -78t18.5 -94h-80q-4 65 -33.5 94t-71.5 29q-41 0 -70 -29t-34 -94h-80q0 47 18.5 94t59 78t106.5 31z" />
    <glyph glyph-name="uni0209" unicode="&#x209;" horiz-adv-x="550" 
d="M25 0v79h100v889h-100v79h400v-968h99v-79h-499zM452 1103l-163 168q-18 18 -27.5 33.5t-9.5 32.5q0 29 18.5 46.5t43.5 17.5q29 0 47.5 -17t31.5 -39l121 -207zM236 1103l-164 168q-18 19 -27 34t-9 32q0 29 18.5 46.5t43.5 17.5q29 0 47.5 -17t31.5 -39l121 -207z" />
    <glyph glyph-name="uni020B" unicode="&#x20b;" horiz-adv-x="550" 
d="M25 0v79h100v889h-100v79h400v-968h99v-79h-499zM275 1321q67 0 107.5 -31t59 -78t18.5 -94h-80q-4 65 -33.5 94t-71.5 29q-41 0 -70 -29t-34 -94h-80q0 47 18.5 94t59 78t106.5 31z" />
    <glyph glyph-name="uni020D" unicode="&#x20d;" horiz-adv-x="864" 
d="M431 -22q-63 0 -129 32.5t-122 100t-90 171t-34 245.5q0 154 35.5 257.5t92 164.5t122 87.5t125.5 26.5t126 -26.5t123 -87.5t93 -164.5t36 -257.5q0 -142 -34.5 -245.5t-90.5 -171t-122.5 -100t-130.5 -32.5zM431 72q38 0 57 105t19 350q0 246 -19 345t-57 99
q-35 0 -54 -99t-19 -345q0 -245 19 -350t54 -105zM608 1103l-163 168q-18 18 -27.5 33.5t-9.5 32.5q0 29 18.5 46.5t43.5 17.5q29 0 47.5 -17t31.5 -39l121 -207zM392 1103l-164 168q-18 19 -27 34t-9 32q0 29 18.5 46.5t43.5 17.5q29 0 47.5 -17t31.5 -39l121 -207z" />
    <glyph glyph-name="uni020F" unicode="&#x20f;" horiz-adv-x="864" 
d="M431 -22q-63 0 -129 32.5t-122 100t-90 171t-34 245.5q0 154 35.5 257.5t92 164.5t122 87.5t125.5 26.5t126 -26.5t123 -87.5t93 -164.5t36 -257.5q0 -142 -34.5 -245.5t-90.5 -171t-122.5 -100t-130.5 -32.5zM431 72q38 0 57 105t19 350q0 246 -19 345t-57 99
q-35 0 -54 -99t-19 -345q0 -245 19 -350t54 -105zM431 1321q67 0 107.5 -31t59 -78t18.5 -94h-80q-4 65 -33.5 94t-71.5 29q-41 0 -70 -29t-34 -94h-80q0 47 18.5 94t59 78t106.5 31z" />
    <glyph glyph-name="uni0211" unicode="&#x211;" horiz-adv-x="793" 
d="M27 0v79h108v889h-108v79h377l20 -83q6 17 27 40.5t54 41t73 17.5q64 0 105 -39.5t61.5 -105t20.5 -143.5q0 -76 -31 -116.5t-83 -40.5q-49 0 -79 34.5t-30 94.5q0 40 17.5 63.5t34.5 45t17 55.5q0 32 -11.5 47t-41.5 15q-25 0 -54 -27t-49 -86t-20 -155v-626h106v-79
h-514zM656 1103l-163 168q-18 18 -27.5 33.5t-9.5 32.5q0 29 18.5 46.5t43.5 17.5q29 0 47.5 -17t31.5 -39l121 -207zM440 1103l-164 168q-18 19 -27 34t-9 32q0 29 18.5 46.5t43.5 17.5q29 0 47.5 -17t31.5 -39l121 -207z" />
    <glyph glyph-name="uni0213" unicode="&#x213;" horiz-adv-x="793" 
d="M27 0v79h108v889h-108v79h377l20 -83q6 17 27 40.5t54 41t73 17.5q64 0 105 -39.5t61.5 -105t20.5 -143.5q0 -76 -31 -116.5t-83 -40.5q-49 0 -79 34.5t-30 94.5q0 40 17.5 63.5t34.5 45t17 55.5q0 32 -11.5 47t-41.5 15q-25 0 -54 -27t-49 -86t-20 -155v-626h106v-79
h-514zM478 1321q67 0 107.5 -31t59 -78t18.5 -94h-80q-4 65 -33.5 94t-71.5 29q-41 0 -70 -29t-34 -94h-80q0 47 18.5 94t59 78t106.5 31z" />
    <glyph glyph-name="uni0215" unicode="&#x215;" horiz-adv-x="960" 
d="M380 -22q-72 0 -131 27t-94 100.5t-35 214.5v648h-102v78h402v-691q0 -100 4 -152.5t16.5 -71.5t37.5 -19q21 0 39 22.5t28.5 72t10.5 129.5v632h-85v78h385v-967h85v-79h-347l-20 91q-5 -20 -30 -46.5t-67 -46.5t-97 -20zM672 1103l-163 168q-18 18 -27.5 33.5
t-9.5 32.5q0 29 18.5 46.5t43.5 17.5q29 0 47.5 -17t31.5 -39l121 -207zM456 1103l-164 168q-18 19 -27 34t-9 32q0 29 18.5 46.5t43.5 17.5q29 0 47.5 -17t31.5 -39l121 -207z" />
    <glyph glyph-name="uni0217" unicode="&#x217;" horiz-adv-x="960" 
d="M380 -22q-72 0 -131 27t-94 100.5t-35 214.5v648h-102v78h402v-691q0 -100 4 -152.5t16.5 -71.5t37.5 -19q21 0 39 22.5t28.5 72t10.5 129.5v632h-85v78h385v-967h85v-79h-347l-20 91q-5 -20 -30 -46.5t-67 -46.5t-97 -20zM495 1321q67 0 107.5 -31t59 -78t18.5 -94h-80
q-4 65 -33.5 94t-71.5 29q-41 0 -70 -29t-34 -94h-80q0 47 18.5 94t59 78t106.5 31z" />
    <glyph glyph-name="uni0218" unicode="&#x218;" horiz-adv-x="730" 
d="M378 -27q-61 0 -96 13t-55 30.5t-32.5 30.5t-28.5 13q-31 0 -31 -60h-77v367h79q1 -17 10.5 -53.5t28 -80t47 -84.5t66 -67.5t86.5 -26.5q35 0 57 12t32.5 38.5t10.5 67.5q0 56 -26.5 112.5t-75 123t-115.5 149.5q-80 101 -123.5 186t-60 163t-16.5 158q0 119 41 198
t105.5 119t135.5 40q65 0 98 -19.5t51.5 -39t37.5 -19.5q14 0 21 11t8 45h78v-365h-79q-2 27 -15.5 77t-38.5 102.5t-64 89.5t-92 37q-50 0 -75.5 -35.5t-25.5 -98.5q0 -48 29 -108.5t81 -129t119 -142.5q75 -81 118.5 -155.5t62.5 -152.5t19 -168q0 -117 -28 -191
t-72.5 -114.5t-96.5 -56.5t-98 -16zM365 -376l-46 54q10 3 34 17.5t32 31.5q-2 -1 -10 -1q-37 0 -63 26t-26 64t26 63.5t63 25.5q41 0 70.5 -25t29.5 -77q0 -50 -20 -85.5t-46 -58t-44 -35.5z" />
    <glyph glyph-name="uni0219" unicode="&#x219;" horiz-adv-x="653" 
d="M333 -22q-62 0 -94.5 15.5t-50.5 31t-35 15.5q-16 0 -21.5 -10t-5.5 -30h-75v347h89q6 -49 22.5 -100t41.5 -93.5t57 -69.5t69 -27q29 0 47.5 8.5t27.5 26t9 44.5q0 38 -20 76t-55.5 79.5t-82.5 87.5q-86 86 -146 177t-60 224q0 102 40 164t103 90.5t132 28.5
q47 0 75 -13.5t45.5 -27t30.5 -13.5q9 0 15.5 8t6.5 30h78v-338h-90q-3 38 -14.5 85t-31 89.5t-47 70.5t-63.5 28q-48 0 -69.5 -36t-21.5 -77q0 -51 42.5 -100.5t115.5 -114.5q50 -45 97.5 -100.5t78.5 -128t31 -167.5q0 -106 -35 -167.5t-96.5 -87t-139.5 -25.5zM335 -376
l-46 54q10 3 34 17.5t32 31.5q-2 -1 -10 -1q-37 0 -63 26t-26 64t26 63.5t63 25.5q41 0 70.5 -25t29.5 -77q0 -50 -20 -85.5t-46 -58t-44 -35.5z" />
    <glyph glyph-name="uni021A" unicode="&#x21a;" horiz-adv-x="864" 
d="M164 0v79h120v1242h-2q-69 0 -104 -31.5t-48 -94t-13 -159.5h-79v364h788v-364h-79q0 97 -12 159.5t-47 94t-104 31.5h-2v-1242h122v-79h-540zM424 -376l-46 54q10 3 34 17.5t32 31.5q-2 -1 -10 -1q-37 0 -63 26t-26 64t26 63.5t63 25.5q41 0 70.5 -25t29.5 -77
q0 -50 -20 -85.5t-46 -58t-44 -35.5z" />
    <glyph glyph-name="uni021B" unicode="&#x21b;" horiz-adv-x="632" 
d="M435 -18q-74 0 -140 23.5t-107 86.5t-41 181v695h-151v79h151q59 0 104 43.5t73.5 113.5t37.5 151h85v-308h172v-79h-172v-825q0 -41 20.5 -56t39.5 -15q18 0 34 6t23 14l44 -63q-31 -22 -72 -34.5t-101 -12.5zM386 -356l-46 54q10 3 34 17.5t32 31.5q-2 -1 -10 -1
q-37 0 -63 26t-26 64t26 63.5t63 25.5q41 0 70.5 -25t29.5 -77q0 -50 -20 -85.5t-46 -58t-44 -35.5z" />
    <glyph glyph-name="uni0229" unicode="&#x229;" horiz-adv-x="858" 
d="M453 -20q-82 0 -154 31t-126.5 96.5t-85.5 169.5t-31 250q0 148 37.5 250.5t97.5 165.5t127.5 91.5t126.5 28.5q72 0 136.5 -32.5t114 -97t78 -159.5t28.5 -221q0 -20 -0.5 -40t-2.5 -41h-457v80h177q0 162 -9.5 255.5t-26 134t-38.5 40.5t-42.5 -42t-33.5 -143t-13 -281
q0 -136 8 -224t25 -138t42.5 -70.5t61.5 -20.5q77 0 124 42t68 81l66 -52q-26 -55 -107.5 -104.5t-190.5 -49.5zM501 -337q-47 0 -93.5 11.5t-61.5 19.5l31 78q11 -7 46 -19t66 -12t51 16.5t20 44.5q0 32 -12 42.5t-31 10.5q-16 0 -28.5 -6t-22.5 -20l-74 4l59 167h79
l-40 -108q4 6 29 15.5t62 9.5q40 0 75.5 -25.5t35.5 -90.5q0 -43 -22.5 -74t-65.5 -47.5t-103 -16.5z" />
    <glyph glyph-name="uni022B" unicode="&#x22b;" horiz-adv-x="864" 
d="M431 -22q-63 0 -129 32.5t-122 100t-90 171t-34 245.5q0 154 35.5 257.5t92 164.5t122 87.5t125.5 26.5t126 -26.5t123 -87.5t93 -164.5t36 -257.5q0 -142 -34.5 -245.5t-90.5 -171t-122.5 -100t-130.5 -32.5zM431 72q38 0 57 105t19 350q0 246 -19 345t-57 99
q-35 0 -54 -99t-19 -345q0 -245 19 -350t54 -105zM558 1136q-39 0 -67.5 29t-28.5 67q0 41 28.5 70.5t67.5 29.5t68 -29.5t29 -70.5q0 -38 -29 -67t-68 -29zM302 1136q-38 0 -66 29t-28 67q0 41 28 70.5t66 29.5q40 0 68.5 -29.5t28.5 -70.5q0 -38 -28.5 -67t-68.5 -29z
M175 1427v80h512v-80h-512z" />
    <glyph glyph-name="uni022D" unicode="&#x22d;" horiz-adv-x="864" 
d="M431 -22q-63 0 -129 32.5t-122 100t-90 171t-34 245.5q0 154 35.5 257.5t92 164.5t122 87.5t125.5 26.5t126 -26.5t123 -87.5t93 -164.5t36 -257.5q0 -142 -34.5 -245.5t-90.5 -171t-122.5 -100t-130.5 -32.5zM431 72q38 0 57 105t19 350q0 246 -19 345t-57 99
q-35 0 -54 -99t-19 -345q0 -245 19 -350t54 -105zM517 1146q-40 0 -66 12.5t-45.5 24.5t-40.5 12q-36 0 -54 -12.5t-23 -20.5l-81 29q6 18 25.5 43t48.5 44t63 19q46 0 70 -11.5t43 -23.5t50 -12q36 0 50.5 13t18.5 23l79 -31q-3 -12 -21.5 -38t-48 -48.5t-68.5 -22.5z
M160 1393v80h543v-80h-543z" />
    <glyph glyph-name="uni0231" unicode="&#x231;" horiz-adv-x="864" 
d="M431 -22q-63 0 -129 32.5t-122 100t-90 171t-34 245.5q0 154 35.5 257.5t92 164.5t122 87.5t125.5 26.5t126 -26.5t123 -87.5t93 -164.5t36 -257.5q0 -142 -34.5 -245.5t-90.5 -171t-122.5 -100t-130.5 -32.5zM431 72q38 0 57 105t19 350q0 246 -19 345t-57 99
q-35 0 -54 -99t-19 -345q0 -245 19 -350t54 -105zM432 1142q-40 0 -68.5 29t-28.5 67q0 40 28.5 69t68.5 29q36 0 65 -29t29 -69q0 -38 -29 -67t-65 -29zM161 1430v80h543v-80h-543z" />
    <glyph glyph-name="uni0233" unicode="&#x233;" horiz-adv-x="777" 
d="M242 -502q-55 0 -94 38t-59 102t-20 142q0 77 32 116.5t83 39.5q49 0 80 -34t31 -97q0 -50 -20 -79.5t-39.5 -53.5t-19.5 -59q0 -23 10.5 -36t29.5 -13q10 0 17 4.5t13 17.5t12 38l80 354l-287 990h-84v79h483v-79h-79l113 -391l94 391h-74v79h234v-79h-70l-242 -975
l-91 -386q-7 -32 -23 -57t-42 -38.5t-68 -13.5zM124 1140v80h543v-80h-543z" />
    <glyph glyph-name="uni0237" unicode="&#x237;" horiz-adv-x="601" 
d="M140 -498q-70 0 -123 37t-83 100t-30 141q0 77 36.5 116.5t88.5 39.5q48 0 74 -33t26 -96q0 -41 -11.5 -65.5t-24 -44t-12.5 -45.5q0 -16 3 -32t12 -26.5t26 -10.5q44 0 54.5 46t10.5 140v1199h-118v79h418v-1078q0 -145 -33 -237t-85.5 -142t-113 -69t-115.5 -19z" />
    <glyph glyph-name="uni0244" unicode="&#x244;" horiz-adv-x="867" 
d="M82 827v80h726v-80h-726zM468 -24q-52 0 -110.5 14t-109 53.5t-82 114.5t-31.5 197v966h-100v79h517v-79h-112v-981q0 -135 25.5 -199t85.5 -64q20 0 39.5 10t35 35t24 69.5t8.5 112.5v1017h-89v79h265v-79h-95v-1023q0 -123 -31.5 -193.5t-92 -99.5t-147.5 -29z" />
    <glyph glyph-name="uni0259" unicode="&#x259;" horiz-adv-x="858" 
d="M72 1046h80q0 -37 9 -51t26 -14l8 -102h-123v167zM406 1066q82 0 154 -31t126 -96.5t85 -169.5t31 -250q0 -148 -37.5 -250.5t-97 -165.5t-127 -91.5t-127.5 -28.5q-72 0 -136.5 32.5t-114 97t-78 159.5t-28.5 221q0 20 1 40t2 41h457v-80h-177q0 -161 9.5 -255
t26.5 -134.5t38 -40.5q23 0 43.5 42t33 143.5t12.5 280.5q0 136 -8 224t-24.5 138t-42 70.5t-62.5 20.5q-77 0 -124 -42t-68 -81l-65 52q26 55 107 104.5t191 49.5z" />
    <glyph glyph-name="uni0289" unicode="&#x289;" horiz-adv-x="1005" 
d="M42 591v80h883v-80h-883zM380 -22q-72 0 -131 27t-94 100.5t-35 214.5v648h-102v78h402v-691q0 -100 4 -152.5t16.5 -71.5t37.5 -19q21 0 39 22.5t28.5 72t10.5 129.5v632h-85v78h385v-967h85v-79h-347l-20 91q-5 -20 -30 -46.5t-67 -46.5t-97 -20z" />
    <glyph glyph-name="uni02BC" unicode="&#x2bc;" horiz-adv-x="550" 
d="M262 1137l-66 77q15 5 49.5 25.5t46.5 45.5q-3 -1 -6.5 -1.5t-9.5 -0.5q-52 0 -90 37.5t-38 92.5q0 54 38 91t90 37q59 0 101.5 -36t42.5 -111q0 -72 -28.5 -123t-66 -83.5t-63.5 -50.5z" />
    <glyph glyph-name="circumflex" unicode="&#x2c6;" horiz-adv-x="702" 
d="M207 1264l148 201h70l146 -201h-97l-85 127l-85 -127h-97z" />
    <glyph glyph-name="caron" unicode="&#x2c7;" horiz-adv-x="700" 
d="M355 1264l-177 229h108l103 -155l102 155h110l-176 -229h-70z" />
    <glyph glyph-name="uni02C9" unicode="&#x2c9;" horiz-adv-x="934" 
d="M235 1351v80h603v-80h-603z" />
    <glyph glyph-name="breve" unicode="&#x2d8;" horiz-adv-x="704" 
d="M351 1264q-66 0 -106.5 31t-59 78t-18.5 94h79q5 -65 34.5 -94t70.5 -29q42 0 71.5 29t33.5 94h79q0 -47 -18.5 -94t-58.5 -78t-107 -31z" />
    <glyph glyph-name="dotaccent" unicode="&#x2d9;" horiz-adv-x="667" 
d="M315 1304q-40 0 -68.5 29t-28.5 67q0 40 28.5 69t68.5 29q37 0 65.5 -29t28.5 -69q0 -38 -28.5 -67t-65.5 -29z" />
    <glyph glyph-name="ring" unicode="&#x2da;" horiz-adv-x="494" 
d="M255 1144q-44 0 -78.5 32.5t-34.5 85.5q0 55 34.5 86.5t78.5 31.5q42 0 75.5 -31.5t33.5 -86.5q0 -53 -33.5 -85.5t-75.5 -32.5zM255 1210q22 0 32.5 17.5t10.5 36.5q0 15 -10.5 32.5t-32.5 17.5q-25 0 -35.5 -17.5t-10.5 -32.5q0 -19 10.5 -36.5t35.5 -17.5z" />
    <glyph glyph-name="ogonek" unicode="&#x2db;" horiz-adv-x="654" 
d="M347 -314q-47 0 -85 15.5t-60 47t-22 78.5q0 58 25.5 97t59 63.5t58.5 39.5l32 -27q-22 -28 -39 -58.5t-17 -79.5q0 -38 28.5 -52t51.5 -14q26 0 48 7t37 17l39 -78q-26 -25 -67 -40.5t-89 -15.5z" />
    <glyph glyph-name="tilde" unicode="&#x2dc;" horiz-adv-x="714" 
d="M437 1291q-41 0 -66.5 12.5t-45 24.5t-41.5 12q-35 0 -53 -12.5t-23 -20.5l-81 29q6 18 25.5 43t48.5 44t63 19q46 0 70 -11.5t43 -23.5t50 -12q36 0 50.5 13t18.5 23l79 -31q-3 -12 -21.5 -38t-48 -48.5t-68.5 -22.5z" />
    <glyph glyph-name="hungarumlaut" unicode="&#x2dd;" horiz-adv-x="974" 
d="M284 1215l-61 63l135 153q21 32 46 33.5t41.5 -16t15.5 -43t-33 -47.5zM556 1215l-59 63l131 153q22 32 47 33.5t42.5 -16t16 -43t-32.5 -47.5z" />
    <glyph glyph-name="gravecomb" unicode="&#x300;" 
d="M364 1105l-210 103q-31 15 -46 31t-15 44q0 25 19 41.5t47 16.5q22 0 36.5 -8.5t29.5 -20.5l186 -152z" />
    <glyph glyph-name="acutecomb" unicode="&#x301;" 
d="M215 1089l-64 68l195 145q15 11 29 17.5t27 6.5q20 0 35 -10.5t23 -24.5t8 -30q0 -19 -12 -36t-40 -28z" />
    <glyph glyph-name="uni0302" unicode="&#x302;" 
d="M167 1121l148 201h70l146 -201h-97l-85 127l-85 -127h-97z" />
    <glyph glyph-name="tildecomb" unicode="&#x303;" 
d="M437 1145q-40 0 -66 12.5t-45.5 24.5t-40.5 12q-36 0 -54 -12.5t-23 -20.5l-81 29q6 18 25.5 43t48.5 44t63 19q46 0 70 -11.5t43 -23.5t50 -12q36 0 50.5 13t18.5 23l79 -31q-3 -12 -21.5 -38t-48 -48.5t-68.5 -22.5z" />
    <glyph glyph-name="uni0304" unicode="&#x304;" 
d="M275 1140v80h543v-80h-543z" />
    <glyph glyph-name="uni0306" unicode="&#x306;" 
d="M349 1103q-66 0 -106.5 31t-59 78t-18.5 94h79q5 -65 34.5 -94t70.5 -29q42 0 71.5 29t33.5 94h79q0 -47 -18.5 -94t-58.5 -78t-107 -31z" />
    <glyph glyph-name="uni0307" unicode="&#x307;" 
d="M311 1141q-40 0 -68.5 29t-28.5 67q0 40 28.5 69t68.5 29q36 0 65 -29t29 -69q0 -38 -29 -67t-65 -29z" />
    <glyph glyph-name="uni0308" unicode="&#x308;" 
d="M532 1136q-39 0 -67.5 29t-28.5 67q0 41 28.5 70.5t67.5 29.5t68 -29.5t29 -70.5q0 -38 -29 -67t-68 -29zM276 1136q-38 0 -66 29t-28 67q0 41 28 70.5t66 29.5q40 0 68.5 -29.5t28.5 -70.5q0 -38 -28.5 -67t-68.5 -29z" />
    <glyph glyph-name="hookabovecomb" unicode="&#x309;" 
d="M294 1418q60 0 105 -23t45 -89q0 -44 -27.5 -71t-55 -48t-27.5 -50h-65q0 43 13.5 70.5t26.5 49t13 44.5q0 24 -10 34.5t-32 10.5q-25 0 -40.5 -7.5t-29.5 -20.5l-55 50q19 20 56 35t83 15z" />
    <glyph glyph-name="uni030A" unicode="&#x30a;" 
d="M255 1100q-44 0 -78.5 32.5t-34.5 85.5q0 55 34.5 86.5t78.5 31.5q42 0 75.5 -31.5t33.5 -86.5q0 -53 -33.5 -85.5t-75.5 -32.5zM255 1166q22 0 32.5 17.5t10.5 36.5q0 15 -10.5 32.5t-32.5 17.5q-25 0 -35.5 -17.5t-10.5 -32.5q0 -19 10.5 -36.5t35.5 -17.5z" />
    <glyph glyph-name="uni030B" unicode="&#x30b;" 
d="M284 1111l-61 62l134 154q14 16 26.5 24.5t25.5 8.5q21 0 36.5 -15.5t15.5 -37.5q0 -30 -33 -53zM556 1111l-59 62l130 154q14 17 27.5 25t26.5 8q21 0 36.5 -16t15.5 -37q0 -31 -32 -53z" />
    <glyph glyph-name="uni030C" unicode="&#x30c;" 
d="M315 1110l-177 229h108l103 -155l102 155h110l-176 -229h-70z" />
    <glyph glyph-name="uni030F" unicode="&#x30f;" 
d="M452 1102l-163 168q-18 18 -27.5 33.5t-9.5 32.5q0 29 18.5 46.5t43.5 17.5q29 0 47.5 -17t31.5 -39l121 -207zM236 1102l-164 168q-18 19 -27 34t-9 32q0 29 18.5 46.5t43.5 17.5q29 0 47.5 -17t31.5 -39l121 -207z" />
    <glyph glyph-name="uni0311" unicode="&#x311;" 
d="M348 1320q67 0 107.5 -31t59 -78t18.5 -94h-80q-4 65 -33.5 94t-71.5 29q-41 0 -70 -29t-34 -94h-80q0 47 18.5 94t59 78t106.5 31z" />
    <glyph glyph-name="uni0312" unicode="&#x312;" 
d="M259 1387l46 -44q-10 -3 -38 -24.5t-36 -38.5q6 5 18 5q37 0 63 -26t26 -64q0 -37 -26 -63t-63 -26q-40 0 -70 25t-30 77q0 51 19.5 86t45.5 58t45 35z" />
    <glyph glyph-name="uni031B" unicode="&#x31b;" 
d="M236 967v79q41 0 75 10t34 55q0 19 -10 44.5t-10 47.5q0 36 18.5 57t58.5 21t58 -20.5t18 -57.5q0 -92 -40 -143.5t-96 -72t-106 -20.5z" />
    <glyph glyph-name="dotbelowcomb" unicode="&#x323;" 
d="M311 -276q-40 0 -68.5 29t-28.5 67q0 40 28.5 69t68.5 29q36 0 65 -29t29 -69q0 -38 -29 -67t-65 -29z" />
    <glyph glyph-name="uni0324" unicode="&#x324;" 
d="M442 -273q-40 0 -68.5 29t-28.5 67q0 41 28.5 70.5t68.5 29.5q38 0 67 -29.5t29 -70.5q0 -38 -29 -67t-67 -29zM185 -273q-38 0 -66 29t-28 67q0 41 28 70.5t66 29.5q40 0 68.5 -29.5t28.5 -70.5q0 -38 -28.5 -67t-68.5 -29z" />
    <glyph glyph-name="uni0326" unicode="&#x326;" 
d="M207 -376l-46 54q10 3 34 17.5t32 31.5q-2 -1 -10 -1q-37 0 -63 26t-26 64t26 63.5t63 25.5q41 0 70.5 -25t29.5 -77q0 -50 -20 -85.5t-46 -58t-44 -35.5z" />
    <glyph glyph-name="uni0327" unicode="&#x327;" 
d="M305 -337q-47 0 -93.5 11.5t-61.5 19.5l31 78q11 -7 46.5 -19t66.5 -12t51 16.5t20 44.5q0 32 -12.5 42.5t-31.5 10.5q-16 0 -28.5 -6t-22.5 -20l-74 4l59 167h79l-40 -108q4 6 29.5 15.5t62.5 9.5q40 0 75.5 -25.5t35.5 -90.5q0 -43 -23 -74t-66 -47.5t-103 -16.5z" />
    <glyph glyph-name="uni0328" unicode="&#x328;" 
d="M347 -314q-47 0 -85 15.5t-60 47t-22 78.5q0 58 25.5 97t59 63.5t58.5 39.5l32 -27q-22 -28 -39 -58.5t-17 -79.5q0 -38 28.5 -52t51.5 -14q26 0 48 7t37 17l39 -78q-26 -25 -67 -40.5t-89 -15.5z" />
    <glyph glyph-name="uni032E" unicode="&#x32e;" 
d="M275 -309q-66 0 -106.5 31t-59 78t-18.5 94h79q5 -65 34.5 -94t70.5 -29q42 0 71.5 29t33.5 94h79q0 -47 -18.5 -94t-58.5 -78t-107 -31z" />
    <glyph glyph-name="uni0331" unicode="&#x331;" 
d="M225 -206v60h604v-60h-604z" />
    <glyph glyph-name="uni0335" unicode="&#x335;" 
d="M107 522v80h542v-80h-542z" />
    <glyph glyph-name="uni0336" unicode="&#x336;" 
d="M107 522v80h542v-80h-542z" />
    <glyph glyph-name="uni0337" unicode="&#x337;" 
d="M38 -104l487 1608h82l-486 -1608h-83z" />
    <glyph glyph-name="uni0338" unicode="&#x338;" 
d="M38 -104l487 1608h82l-486 -1608h-83z" />
    <glyph glyph-name="uni1E05" unicode="&#x1e05;" horiz-adv-x="937" 
d="M551 -20q-53 0 -86 22.5t-49 52.5t-19 51l-30 -106h-352v79h101v1342h-101v79h407v-530q3 8 17 31t45.5 42.5t84.5 19.5q75 0 144 -57t113.5 -177.5t44.5 -310.5q0 -210 -47 -327t-120.5 -164t-152.5 -47zM485 139q25 0 41.5 25.5t26.5 74.5t13.5 118.5t3.5 157.5
q0 92 -3.5 162t-13.5 118.5t-26.5 73t-41.5 24.5q-18 0 -31 -19t-21 -55.5t-11 -89.5v-356q0 -67 10 -120.5t25 -83.5t28 -30zM461 -276q-40 0 -68.5 29t-28.5 67q0 40 28.5 69t68.5 29q36 0 65 -29t29 -69q0 -38 -29 -67t-65 -29z" />
    <glyph glyph-name="uni1E08" unicode="&#x1e08;" horiz-adv-x="779" 
d="M459 -20q-175 0 -283 188t-108 530q0 138 24.5 267.5t74.5 232.5t125.5 163.5t177.5 60.5q71 0 127 -45t88 -111t32 -128q0 -64 -26.5 -109t-85.5 -45q-66 0 -92 35.5t-26 93.5q0 41 19 67.5t38 49.5t19 55t-10.5 43t-29.5 11q-33 0 -56.5 -43.5t-39 -114.5t-24 -156
t-12 -170t-3.5 -155q0 -106 4.5 -201.5t13.5 -176t23.5 -139t34 -91.5t45.5 -33q37 0 59.5 19.5t36.5 55t25 84.5l66 -42q-21 -60 -51.5 -104t-75 -68t-110.5 -24zM470 -337q-47 0 -93.5 11.5t-61.5 19.5l31 78q11 -7 46.5 -19t66.5 -12t51 16.5t20 44.5q0 32 -12.5 42.5
t-31.5 10.5q-16 0 -28.5 -6t-22.5 -20l-74 4l59 167h79l-40 -108q4 6 29 15.5t62 9.5q41 0 76.5 -25.5t35.5 -90.5q0 -43 -23 -74t-66 -47.5t-103 -16.5zM351 1460l-64 68l195 145q15 11 29 17.5t27 6.5q20 0 35 -10.5t23 -24.5t8 -30q0 -19 -12 -36t-40 -28z" />
    <glyph glyph-name="uni1E09" unicode="&#x1e09;" horiz-adv-x="755" 
d="M345 1089l-64 68l195 145q15 11 29 17.5t27 6.5q20 0 35 -10.5t23 -24.5t8 -30q0 -19 -12 -36t-40 -28zM437 -22q-71 0 -139 33t-123 100.5t-87.5 171t-32.5 244.5q0 152 41 255t103 164.5t129.5 89t119.5 27.5q83 0 143.5 -41.5t94 -109t33.5 -145.5q0 -72 -32.5 -110.5
t-82.5 -38.5t-83 32.5t-33 89.5q0 36 15 59t30 45t15 55q0 44 -25.5 63.5t-54.5 19.5q-36 0 -56.5 -45.5t-30.5 -115t-12.5 -146.5t-2.5 -140q0 -81 4.5 -163t17.5 -151t39 -111t68 -42q60 0 92 37t46 78l61 -53q-24 -60 -89 -106t-168 -46zM475 -337q-47 0 -93.5 11.5
t-61.5 19.5l31 78q11 -7 46.5 -19t65.5 -12q31 0 51.5 16.5t20.5 44.5q0 32 -12.5 42.5t-31.5 10.5q-16 0 -28.5 -6t-22.5 -20l-74 4l59 167h79l-40 -108q4 6 29 15.5t62 9.5q41 0 76.5 -25.5t35.5 -90.5q0 -43 -23 -74t-66 -47.5t-103 -16.5z" />
    <glyph glyph-name="uni1E0D" unicode="&#x1e0d;" horiz-adv-x="947" 
d="M382 -20q-79 0 -153.5 47t-122.5 164t-48 327q0 190 45.5 310.5t115.5 177.5t143 57q60 0 91.5 -17t43.5 -37.5t14 -28.5v439h-124v81h431v-1421h118v-79h-370l-32 108q-1 -27 -19 -57t-51.5 -50.5t-81.5 -20.5zM442 139q21 0 36.5 31t24 82t8.5 108v369q-2 52 -10 90
t-22.5 58.5t-34.5 20.5q-18 0 -34 -25.5t-27.5 -74.5t-18 -120t-6.5 -163q0 -85 5.5 -154.5t16 -119t26 -76t36.5 -26.5zM476 -276q-40 0 -68.5 29t-28.5 67q0 40 28.5 69t68.5 29q36 0 65 -29t29 -69q0 -38 -29 -67t-65 -29z" />
    <glyph glyph-name="uni1E0F" unicode="&#x1e0f;" horiz-adv-x="947" 
d="M382 -20q-79 0 -153.5 47t-122.5 164t-48 327q0 190 45.5 310.5t115.5 177.5t143 57q60 0 91.5 -17t43.5 -37.5t14 -28.5v439h-124v81h431v-1421h118v-79h-370l-32 108q-1 -27 -19 -57t-51.5 -50.5t-81.5 -20.5zM442 139q21 0 36.5 31t24 82t8.5 108v369q-2 52 -10 90
t-22.5 58.5t-34.5 20.5q-18 0 -34 -25.5t-27.5 -74.5t-18 -120t-6.5 -163q0 -85 5.5 -154.5t16 -119t26 -76t36.5 -26.5zM153 -249v80h543v-80h-543z" />
    <glyph glyph-name="uni1E15" unicode="&#x1e15;" horiz-adv-x="858" 
d="M453 -20q-82 0 -154 31t-126.5 96.5t-85.5 169.5t-31 250q0 148 37.5 250.5t97.5 165.5t127.5 91.5t126.5 28.5q72 0 136.5 -32t114 -92.5t78 -147.5t28.5 -198q0 -20 -0.5 -40t-2.5 -41h-457v79h177q0 162 -9.5 246t-26 114.5t-38.5 30.5t-42.5 -32t-33.5 -123t-13 -271
q0 -136 8 -229t25 -149.5t42.5 -81t61.5 -24.5q77 0 124 37.5t68 76.5l66 -52q-26 -55 -107.5 -104.5t-190.5 -49.5zM169 1141v80h543v-80h-543zM540 1282l-210 103q-31 15 -46 31t-15 44q0 25 19 41.5t47 16.5q22 0 36.5 -8.5t29.5 -20.5l186 -152z" />
    <glyph glyph-name="uni1E17" unicode="&#x1e17;" horiz-adv-x="858" 
d="M453 -20q-82 0 -154 31t-126.5 96.5t-85.5 169.5t-31 250q0 148 37.5 250.5t97.5 165.5t127.5 91.5t126.5 28.5q72 0 136.5 -32t114 -92.5t78 -147.5t28.5 -198q0 -20 -0.5 -40t-2.5 -41h-457v79h177q0 162 -9.5 246t-26 114.5t-38.5 30.5t-42.5 -32t-33.5 -123t-13 -271
q0 -136 8 -229t25 -149.5t42.5 -81t61.5 -24.5q77 0 124 37.5t68 76.5l66 -52q-26 -55 -107.5 -104.5t-190.5 -49.5zM169 1141v80h543v-80h-543zM340 1265l-64 68l195 145q15 11 29 17.5t27 6.5q20 0 35 -10.5t23 -24.5t8 -30q0 -19 -12 -36t-40 -28z" />
    <glyph glyph-name="uni1E1D" unicode="&#x1e1d;" horiz-adv-x="858" 
d="M438 1104q-66 0 -106.5 31t-59 78t-18.5 94h79q5 -65 34.5 -94t70.5 -29q42 0 71.5 29t33.5 94h79q0 -47 -18.5 -94t-58.5 -78t-107 -31zM453 -20q-82 0 -154 31t-126.5 96.5t-85.5 169.5t-31 250q0 148 37.5 250.5t97.5 165.5t127.5 91.5t126.5 28.5q72 0 136.5 -32.5
t114 -97t78 -159.5t28.5 -221q0 -20 -0.5 -40t-2.5 -41h-457v80h177q0 162 -9.5 255.5t-26 134t-38.5 40.5t-42.5 -42t-33.5 -143t-13 -281q0 -136 8 -224t25 -138t42.5 -70.5t61.5 -20.5q77 0 124 42t68 81l66 -52q-26 -55 -107.5 -104.5t-190.5 -49.5zM501 -337
q-47 0 -93.5 11.5t-61.5 19.5l31 78q11 -7 46 -19t66 -12t51 16.5t20 44.5q0 32 -12 42.5t-31 10.5q-16 0 -28.5 -6t-22.5 -20l-74 4l59 167h79l-40 -108q4 6 29 15.5t62 9.5q40 0 75.5 -25.5t35.5 -90.5q0 -43 -22.5 -74t-65.5 -47.5t-103 -16.5z" />
    <glyph glyph-name="uni1E21" unicode="&#x1e21;" horiz-adv-x="934" 
d="M451 -498q-92 0 -184.5 25.5t-154 83.5t-61.5 156q0 69 29.5 114.5t69 71t70.5 36.5t35 11q-6 2 -30 11t-52.5 29.5t-49.5 55t-21 86.5q0 34 12 59.5t31.5 42.5t39.5 25q5 2 13 4.5t11 2.5q-3 2 -23 19t-45 54t-44 99.5t-19 153.5q0 119 39 199.5t98.5 129.5t123 70.5
t112.5 21.5q114 0 197 -52.5t128.5 -145.5t45.5 -214q0 -136 -39 -219.5t-99 -127t-123.5 -58.5t-111.5 -15q-65 0 -106 12.5t-52 16.5h-1h-1q-10 0 -20 -11t-10 -33q0 -32 53 -58.5t199 -55.5q161 -31 256 -99.5t95 -211.5q0 -89 -42.5 -146t-108 -88t-135.5 -43t-125 -12z
M451 -421q64 0 103 48t39 106q0 56 -15 91t-62 69q-19 14 -45.5 28t-51.5 25t-41 16q-13 -6 -32.5 -28.5t-35 -62.5t-15.5 -102q0 -61 19 -103t54 -64.5t83 -22.5zM449 314q19 0 36 20t28 91t11 222q0 144 -11 214.5t-28.5 94t-35.5 23.5t-34.5 -23.5t-27.5 -95t-11 -216.5
q0 -151 11.5 -221t28.5 -89.5t33 -19.5zM585 978q13 80 76 125.5t135 45.5q59 0 83.5 -30.5t24.5 -74.5t-24 -67.5t-61 -23.5t-52.5 17t-26 33.5t-36.5 16.5q-12 0 -23 -7t-11 -35h-85zM180 1141v80h543v-80h-543z" />
    <glyph glyph-name="uni1E25" unicode="&#x1e25;" horiz-adv-x="990" 
d="M31 0v79h105v1342h-105v79h405v-532q0 3 20.5 26.5t62.5 46t106 22.5q71 0 126 -33.5t86.5 -109t31.5 -202.5v-639h103v-79h-467v79h64v632q0 105 -14 142t-39 37q-18 0 -35.5 -14.5t-30 -50t-14.5 -97.5v-649h69v-79h-474zM497 -276q-40 0 -68.5 29t-28.5 67
q0 40 28.5 69t68.5 29q36 0 65 -29t29 -69q0 -38 -29 -67t-65 -29z" />
    <glyph glyph-name="uni1E2B" unicode="&#x1e2b;" horiz-adv-x="990" 
d="M31 0v79h105v1342h-105v79h405v-532q0 3 20.5 26.5t62.5 46t106 22.5q71 0 126 -33.5t86.5 -109t31.5 -202.5v-639h103v-79h-467v79h64v632q0 105 -14 142t-39 37q-18 0 -35.5 -14.5t-30 -50t-14.5 -97.5v-649h69v-79h-474zM496 -309q-66 0 -106.5 31t-59 78t-18.5 94h79
q5 -65 34.5 -94t70.5 -29q42 0 71.5 29t33.5 94h79q0 -47 -18.5 -94t-58.5 -78t-107 -31z" />
    <glyph glyph-name="uni1E2F" unicode="&#x1e2f;" horiz-adv-x="550" 
d="M25 0v79h100v889h-100v79h400v-968h99v-79h-499zM402 1136q-39 0 -67.5 29t-28.5 67q0 41 28.5 70.5t67.5 29.5t68 -29.5t29 -70.5q0 -38 -29 -67t-68 -29zM146 1136q-38 0 -66 29t-28 67q0 41 28 70.5t66 29.5q40 0 68.5 -29.5t28.5 -70.5q0 -38 -28.5 -67t-68.5 -29z
M175 1375l-64 68l195 145q15 11 29 17.5t27 6.5q20 0 35 -10.5t23 -24.5t8 -30q0 -19 -12 -36t-40 -28z" />
    <glyph glyph-name="uni1E37" unicode="&#x1e37;" horiz-adv-x="574" 
d="M27 0v79h111v1342h-111v79h411v-1421h110v-79h-521zM290 -276q-40 0 -68.5 29t-28.5 67q0 40 28.5 69t68.5 29q36 0 65 -29t29 -69q0 -38 -29 -67t-65 -29z" />
    <glyph glyph-name="uni1E3B" unicode="&#x1e3b;" horiz-adv-x="574" 
d="M27 0v79h111v1342h-111v79h411v-1421h110v-79h-521zM-13 -206v60h604v-60h-604z" />
    <glyph glyph-name="uni1E3F" unicode="&#x1e3f;" horiz-adv-x="1360" 
d="M25 0v79h99v889h-99v79h390v-107q0 12 22 42t66.5 55.5t109.5 25.5q61 0 101 -27t62 -61t28 -56q6 26 37 59.5t80 59t111 25.5q99 0 162 -75t63 -201v-708h95v-79h-454v79h59v629q0 74 -4 118.5t-15 64.5t-34 20q-24 0 -38 -18.5t-21 -55.5t-9 -92v-666h62v-79h-416v79
h58v629q0 110 -8 156.5t-43 46.5q-23 0 -37.5 -19t-20.5 -60.5t-7 -105.5v-647h58v-79h-457zM593 1089l-64 68l195 145q15 11 29 17.5t27 6.5q20 0 35 -10.5t23 -24.5t8 -30q0 -19 -12 -36t-40 -28z" />
    <glyph glyph-name="uni1E43" unicode="&#x1e43;" horiz-adv-x="1360" 
d="M25 0v79h99v889h-99v79h390v-107q0 12 22 42t66.5 55.5t109.5 25.5q61 0 101 -27t62 -61t28 -56q6 26 37 59.5t80 59t111 25.5q99 0 162 -75t63 -201v-708h95v-79h-454v79h59v629q0 74 -4 118.5t-15 64.5t-34 20q-24 0 -38 -18.5t-21 -55.5t-9 -92v-666h62v-79h-416v79
h58v629q0 110 -8 156.5t-43 46.5q-23 0 -37.5 -19t-20.5 -60.5t-7 -105.5v-647h58v-79h-457zM694 -276q-40 0 -68.5 29t-28.5 67q0 40 28.5 69t68.5 29q36 0 65 -29t29 -69q0 -38 -29 -67t-65 -29z" />
    <glyph glyph-name="uni1E45" unicode="&#x1e45;" horiz-adv-x="987" 
d="M31 0v79h109v889h-109v79h400v-96q2 8 23 35.5t62.5 52t103.5 24.5q71 0 126 -29.5t86.5 -104t31.5 -211.5v-639h105v-79h-469v79h64v642q0 94 -11 141t-40 47q-16 0 -28.5 -10.5t-22 -32t-15 -53.5t-7.5 -75v-659h60v-79h-469zM505 1142q-40 0 -68.5 29t-28.5 67
q0 40 28.5 69t68.5 29q36 0 65 -29t29 -69q0 -38 -29 -67t-65 -29z" />
    <glyph glyph-name="uni1E47" unicode="&#x1e47;" horiz-adv-x="987" 
d="M31 0v79h109v889h-109v79h400v-96q2 8 23 35.5t62.5 52t103.5 24.5q71 0 126 -29.5t86.5 -104t31.5 -211.5v-639h105v-79h-469v79h64v642q0 94 -11 141t-40 47q-16 0 -28.5 -10.5t-22 -32t-15 -53.5t-7.5 -75v-659h60v-79h-469zM505 -276q-40 0 -68.5 29t-28.5 67
q0 40 28.5 69t68.5 29q36 0 65 -29t29 -69q0 -38 -29 -67t-65 -29z" />
    <glyph glyph-name="uni1E49" unicode="&#x1e49;" horiz-adv-x="987" 
d="M31 0v79h109v889h-109v79h400v-96q2 8 23 35.5t62.5 52t103.5 24.5q71 0 126 -29.5t86.5 -104t31.5 -211.5v-639h105v-79h-469v79h64v642q0 94 -11 141t-40 47q-16 0 -28.5 -10.5t-22 -32t-15 -53.5t-7.5 -75v-659h60v-79h-469zM202 -206v60h604v-60h-604z" />
    <glyph glyph-name="uni1E4D" unicode="&#x1e4d;" horiz-adv-x="864" 
d="M431 -22q-63 0 -129 32.5t-122 100t-90 171t-34 245.5q0 154 35.5 257.5t92 164.5t122 87.5t125.5 26.5t126 -26.5t123 -87.5t93 -164.5t36 -257.5q0 -142 -34.5 -245.5t-90.5 -171t-122.5 -100t-130.5 -32.5zM431 72q38 0 57 105t19 350q0 246 -19 345t-57 99
q-35 0 -54 -99t-19 -345q0 -245 19 -350t54 -105zM517 1146q-40 0 -66 12.5t-45.5 24.5t-40.5 12q-36 0 -54 -12.5t-23 -20.5l-81 29q6 18 25.5 43t48.5 44t63 19q46 0 70 -11.5t43 -23.5t50 -12q36 0 50.5 13t18.5 23l79 -31q-3 -12 -21.5 -38t-48 -48.5t-68.5 -22.5z
M331 1340l-64 68l195 145q15 11 29 17.5t27 6.5q20 0 35 -10.5t23 -24.5t8 -30q0 -19 -12 -36t-40 -28z" />
    <glyph glyph-name="uni1E4F" unicode="&#x1e4f;" horiz-adv-x="864" 
d="M431 -22q-63 0 -129 32.5t-122 100t-90 171t-34 245.5q0 154 35.5 257.5t92 164.5t122 87.5t125.5 26.5t126 -26.5t123 -87.5t93 -164.5t36 -257.5q0 -142 -34.5 -245.5t-90.5 -171t-122.5 -100t-130.5 -32.5zM431 72q38 0 57 105t19 350q0 246 -19 345t-57 99
q-35 0 -54 -99t-19 -345q0 -245 19 -350t54 -105zM517 1146q-40 0 -66 12.5t-45.5 24.5t-40.5 12q-36 0 -54 -12.5t-23 -20.5l-81 29q6 18 25.5 43t48.5 44t63 19q46 0 70 -11.5t43 -23.5t50 -12q36 0 50.5 13t18.5 23l79 -31q-3 -12 -21.5 -38t-48 -48.5t-68.5 -22.5z
M558 1388q-39 0 -67.5 29t-28.5 67q0 41 28.5 70.5t67.5 29.5t68 -29.5t29 -70.5q0 -38 -29 -67t-68 -29zM302 1388q-38 0 -66 29t-28 67q0 41 28 70.5t66 29.5q40 0 68.5 -29.5t28.5 -70.5q0 -38 -28.5 -67t-68.5 -29z" />
    <glyph glyph-name="uni1E51" unicode="&#x1e51;" horiz-adv-x="864" 
d="M431 -22q-63 0 -129 32.5t-122 100t-90 171t-34 245.5q0 154 35.5 257.5t92 164.5t122 87.5t125.5 26.5t126 -26.5t123 -87.5t93 -164.5t36 -257.5q0 -142 -34.5 -245.5t-90.5 -171t-122.5 -100t-130.5 -32.5zM431 72q38 0 57 105t19 350q0 246 -19 345t-57 99
q-35 0 -54 -99t-19 -345q0 -245 19 -350t54 -105zM175 1141v80h512v-80h-512zM531 1282l-210 103q-31 15 -46 31t-15 44q0 25 19 41.5t47 16.5q22 0 36.5 -8.5t29.5 -20.5l186 -152z" />
    <glyph glyph-name="uni1E53" unicode="&#x1e53;" horiz-adv-x="864" 
d="M431 -22q-63 0 -129 32.5t-122 100t-90 171t-34 245.5q0 154 35.5 257.5t92 164.5t122 87.5t125.5 26.5t126 -26.5t123 -87.5t93 -164.5t36 -257.5q0 -142 -34.5 -245.5t-90.5 -171t-122.5 -100t-130.5 -32.5zM431 72q38 0 57 105t19 350q0 246 -19 345t-57 99
q-35 0 -54 -99t-19 -345q0 -245 19 -350t54 -105zM175 1141v80h512v-80h-512zM331 1265l-64 68l195 145q15 11 29 17.5t27 6.5q20 0 35 -10.5t23 -24.5t8 -30q0 -19 -12 -36t-40 -28z" />
    <glyph glyph-name="uni1E5B" unicode="&#x1e5b;" horiz-adv-x="793" 
d="M27 0v79h108v889h-108v79h377l20 -83q6 17 27 40.5t54 41t73 17.5q64 0 105 -39.5t61.5 -105t20.5 -143.5q0 -76 -31 -116.5t-83 -40.5q-49 0 -79 34.5t-30 94.5q0 40 17.5 63.5t34.5 45t17 55.5q0 32 -11.5 47t-41.5 15q-25 0 -54 -27t-49 -86t-20 -155v-626h106v-79
h-514zM312 -276q-40 0 -68.5 29t-28.5 67q0 40 28.5 69t68.5 29q36 0 65 -29t29 -69q0 -38 -29 -67t-65 -29z" />
    <glyph glyph-name="uni1E5F" unicode="&#x1e5f;" horiz-adv-x="793" 
d="M27 0v79h108v889h-108v79h377l20 -83q6 17 27 40.5t54 41t73 17.5q64 0 105 -39.5t61.5 -105t20.5 -143.5q0 -76 -31 -116.5t-83 -40.5q-49 0 -79 34.5t-30 94.5q0 40 17.5 63.5t34.5 45t17 55.5q0 32 -11.5 47t-41.5 15q-25 0 -54 -27t-49 -86t-20 -155v-626h106v-79
h-514zM9 -206v60h604v-60h-604z" />
    <glyph glyph-name="uni1E61" unicode="&#x1e61;" horiz-adv-x="653" 
d="M333 -22q-62 0 -94.5 15.5t-50.5 31t-35 15.5q-16 0 -21.5 -10t-5.5 -30h-75v347h89q6 -49 22.5 -100t41.5 -93.5t57 -69.5t69 -27q29 0 47.5 8.5t27.5 26t9 44.5q0 38 -20 76t-55.5 79.5t-82.5 87.5q-86 86 -146 177t-60 224q0 102 40 164t103 90.5t132 28.5
q47 0 75 -13.5t45.5 -27t30.5 -13.5q9 0 15.5 8t6.5 30h78v-338h-90q-3 38 -14.5 85t-31 89.5t-47 70.5t-63.5 28q-48 0 -69.5 -36t-21.5 -77q0 -51 42.5 -100.5t115.5 -114.5q50 -45 97.5 -100.5t78.5 -128t31 -167.5q0 -106 -35 -167.5t-96.5 -87t-139.5 -25.5zM346 1142
q-40 0 -68.5 29t-28.5 67q0 40 28.5 69t68.5 29q36 0 65 -29t29 -69q0 -38 -29 -67t-65 -29z" />
    <glyph glyph-name="uni1E63" unicode="&#x1e63;" horiz-adv-x="653" 
d="M333 -22q-62 0 -94.5 15.5t-50.5 31t-35 15.5q-16 0 -21.5 -10t-5.5 -30h-75v347h89q6 -49 22.5 -100t41.5 -93.5t57 -69.5t69 -27q29 0 47.5 8.5t27.5 26t9 44.5q0 38 -20 76t-55.5 79.5t-82.5 87.5q-86 86 -146 177t-60 224q0 102 40 164t103 90.5t132 28.5
q47 0 75 -13.5t45.5 -27t30.5 -13.5q9 0 15.5 8t6.5 30h78v-338h-90q-3 38 -14.5 85t-31 89.5t-47 70.5t-63.5 28q-48 0 -69.5 -36t-21.5 -77q0 -51 42.5 -100.5t115.5 -114.5q50 -45 97.5 -100.5t78.5 -128t31 -167.5q0 -106 -35 -167.5t-96.5 -87t-139.5 -25.5zM346 -276
q-40 0 -68.5 29t-28.5 67q0 40 28.5 69t68.5 29q36 0 65 -29t29 -69q0 -38 -29 -67t-65 -29z" />
    <glyph glyph-name="uni1E65" unicode="&#x1e65;" horiz-adv-x="653" 
d="M333 -22q-62 0 -94.5 15.5t-50.5 31t-35 15.5q-16 0 -21.5 -10t-5.5 -30h-75v347h89q6 -49 22.5 -100t41.5 -93.5t57 -69.5t69 -27q29 0 47.5 8.5t27.5 26t9 44.5q0 38 -20 76t-55.5 79.5t-82.5 87.5q-86 86 -146 177t-60 224q0 102 40 164t103 90.5t132 28.5
q47 0 75 -13.5t45.5 -27t30.5 -13.5q9 0 15.5 8t6.5 30h78v-338h-90q-3 38 -14.5 85t-31 89.5t-47 70.5t-63.5 28q-48 0 -69.5 -36t-21.5 -77q0 -51 42.5 -100.5t115.5 -114.5q50 -45 97.5 -100.5t78.5 -128t31 -167.5q0 -106 -35 -167.5t-96.5 -87t-139.5 -25.5zM245 1089
l-64 68l195 145q15 11 29 17.5t27 6.5q20 0 35 -10.5t23 -24.5t8 -30q0 -19 -12 -36t-40 -28zM346 1419q-40 0 -68.5 29t-28.5 67q0 40 28.5 69t68.5 29q36 0 65 -29t29 -69q0 -38 -29 -67t-65 -29z" />
    <glyph glyph-name="uni1E67" unicode="&#x1e67;" horiz-adv-x="653" 
d="M333 -22q-62 0 -94.5 15.5t-50.5 31t-35 15.5q-16 0 -21.5 -10t-5.5 -30h-75v347h89q6 -49 22.5 -100t41.5 -93.5t57 -69.5t69 -27q29 0 47.5 8.5t27.5 26t9 44.5q0 38 -20 76t-55.5 79.5t-82.5 87.5q-86 86 -146 177t-60 224q0 102 40 164t103 90.5t132 28.5
q47 0 75 -13.5t45.5 -27t30.5 -13.5q9 0 15.5 8t6.5 30h78v-338h-90q-3 38 -14.5 85t-31 89.5t-47 70.5t-63.5 28q-48 0 -69.5 -36t-21.5 -77q0 -51 42.5 -100.5t115.5 -114.5q50 -45 97.5 -100.5t78.5 -128t31 -167.5q0 -106 -35 -167.5t-96.5 -87t-139.5 -25.5zM311 1111
l-177 229h108l103 -155l102 155h110l-176 -229h-70zM346 1405q-40 0 -68.5 29t-28.5 67q0 40 28.5 69t68.5 29q36 0 65 -29t29 -69q0 -38 -29 -67t-65 -29z" />
    <glyph glyph-name="uni1E69" unicode="&#x1e69;" horiz-adv-x="653" 
d="M333 -22q-62 0 -94.5 15.5t-50.5 31t-35 15.5q-16 0 -21.5 -10t-5.5 -30h-75v347h89q6 -49 22.5 -100t41.5 -93.5t57 -69.5t69 -27q29 0 47.5 8.5t27.5 26t9 44.5q0 38 -20 76t-55.5 79.5t-82.5 87.5q-86 86 -146 177t-60 224q0 102 40 164t103 90.5t132 28.5
q47 0 75 -13.5t45.5 -27t30.5 -13.5q9 0 15.5 8t6.5 30h78v-338h-90q-3 38 -14.5 85t-31 89.5t-47 70.5t-63.5 28q-48 0 -69.5 -36t-21.5 -77q0 -51 42.5 -100.5t115.5 -114.5q50 -45 97.5 -100.5t78.5 -128t31 -167.5q0 -106 -35 -167.5t-96.5 -87t-139.5 -25.5zM346 -276
q-40 0 -68.5 29t-28.5 67q0 40 28.5 69t68.5 29q36 0 65 -29t29 -69q0 -38 -29 -67t-65 -29zM346 1142q-40 0 -68.5 29t-28.5 67q0 40 28.5 69t68.5 29q36 0 65 -29t29 -69q0 -38 -29 -67t-65 -29z" />
    <glyph glyph-name="uni1E6D" unicode="&#x1e6d;" horiz-adv-x="632" 
d="M435 -18q-74 0 -140 23.5t-107 86.5t-41 181v695h-151v79h151q59 0 104 43.5t73.5 113.5t37.5 151h85v-308h172v-79h-172v-825q0 -41 20.5 -56t39.5 -15q18 0 34 6t23 14l44 -63q-31 -22 -72 -34.5t-101 -12.5zM397 -256q-40 0 -68.5 29t-28.5 67q0 40 28.5 69t68.5 29
q36 0 65 -29t29 -69q0 -38 -29 -67t-65 -29z" />
    <glyph glyph-name="uni1E6F" unicode="&#x1e6f;" horiz-adv-x="623" 
d="M73 -188v80h506v-80h-506zM435 -18q-74 0 -140 23.5t-107 86.5t-41 181v695h-151v79h151q59 0 104 43.5t73.5 113.5t37.5 151h85v-308h172v-79h-172v-825q0 -41 20.5 -56t39.5 -15q18 0 34 6t23 14l44 -63q-31 -22 -72 -34.5t-101 -12.5z" />
    <glyph glyph-name="uni1E79" unicode="&#x1e79;" horiz-adv-x="960" 
d="M380 -22q-72 0 -131 27t-94 100.5t-35 214.5v648h-102v78h402v-691q0 -100 4 -152.5t16.5 -71.5t37.5 -19q21 0 39 22.5t28.5 72t10.5 129.5v632h-85v78h385v-967h85v-79h-347l-20 91q-5 -20 -30 -46.5t-67 -46.5t-97 -20zM581 1146q-40 0 -66 12.5t-45.5 24.5t-40.5 12
q-36 0 -54 -12.5t-23 -20.5l-81 29q6 18 25.5 43t48.5 44t63 19q46 0 70 -11.5t43 -23.5t50 -12q36 0 50.5 13t18.5 23l79 -31q-3 -12 -21.5 -38t-48 -48.5t-68.5 -22.5zM395 1340l-64 68l195 145q15 11 29 17.5t27 6.5q20 0 35 -10.5t23 -24.5t8 -30q0 -19 -12 -36t-40 -28
z" />
    <glyph glyph-name="uni1E7B" unicode="&#x1e7b;" horiz-adv-x="960" 
d="M380 -22q-72 0 -131 27t-94 100.5t-35 214.5v648h-102v78h402v-691q0 -100 4 -152.5t16.5 -71.5t37.5 -19q21 0 39 22.5t28.5 72t10.5 129.5v632h-85v78h385v-967h85v-79h-347l-20 91q-5 -20 -30 -46.5t-67 -46.5t-97 -20zM224 1141v80h543v-80h-543zM622 1313
q-39 0 -67.5 29t-28.5 67q0 41 28.5 70.5t67.5 29.5t68 -29.5t29 -70.5q0 -38 -29 -67t-68 -29zM366 1313q-38 0 -66 29t-28 67q0 41 28 70.5t66 29.5q40 0 68.5 -29.5t28.5 -70.5q0 -38 -28.5 -67t-68.5 -29z" />
    <glyph glyph-name="Wgrave" unicode="&#x1e80;" horiz-adv-x="1247" 
d="M347 0l-247 1321h-100v79h506v-79h-53l83 -586l-41 -102l125 613l26 -179l-55 254h-67v79h469v-79h-69l74 -563l-29 -102l120 665h-78v79h245v-79h-81l-236 -1321h-101l-191 1053l43 91l-242 -1144h-101zM766 1449l-210 103q-31 15 -46 31t-15 44q0 25 19 41.5t47 16.5
q22 0 36.5 -8.5t29.5 -20.5l186 -152z" />
    <glyph glyph-name="wgrave" unicode="&#x1e81;" horiz-adv-x="1204" 
d="M769 0l-206 968h-65v79h452v-79h-73l63 -381l85 381h-54v79h223v-79h-75l-207 -968h-143zM296 0l-205 968h-78v79h467v-79h-66l55 -381l83 381h-17v79h183v-79h-71l-208 -968h-143zM733 1105l-210 103q-31 15 -46 31t-15 44q0 25 19 41.5t47 16.5q22 0 36.5 -8.5
t29.5 -20.5l186 -152z" />
    <glyph glyph-name="Wacute" unicode="&#x1e82;" horiz-adv-x="1247" 
d="M347 0l-247 1321h-100v79h506v-79h-53l83 -586l-41 -102l125 613l26 -179l-55 254h-67v79h469v-79h-69l74 -563l-29 -102l120 665h-78v79h245v-79h-81l-236 -1321h-101l-191 1053l43 91l-242 -1144h-101zM566 1440l-64 68l195 145q15 11 29 17.5t27 6.5q20 0 35 -10.5
t23 -24.5t8 -30q0 -19 -12 -36t-40 -28z" />
    <glyph glyph-name="wacute" unicode="&#x1e83;" horiz-adv-x="1204" 
d="M769 0l-206 968h-65v79h452v-79h-73l63 -381l85 381h-54v79h223v-79h-75l-207 -968h-143zM296 0l-205 968h-78v79h467v-79h-66l55 -381l83 381h-17v79h183v-79h-71l-208 -968h-143zM533 1089l-64 68l195 145q15 11 29 17.5t27 6.5q20 0 35 -10.5t23 -24.5t8 -30
q0 -19 -12 -36t-40 -28z" />
    <glyph glyph-name="Wdieresis" unicode="&#x1e84;" horiz-adv-x="1247" 
d="M347 0l-247 1321h-100v79h506v-79h-53l83 -586l-41 -102l125 613l26 -179l-55 254h-67v79h469v-79h-69l74 -563l-29 -102l120 665h-78v79h245v-79h-81l-236 -1321h-101l-191 1053l43 91l-242 -1144h-101zM793 1503q-39 0 -67.5 29t-28.5 67q0 41 28.5 70.5t67.5 29.5
t68 -29.5t29 -70.5q0 -38 -29 -67t-68 -29zM537 1503q-38 0 -66 29t-28 67q0 41 28 70.5t66 29.5q40 0 68.5 -29.5t28.5 -70.5q0 -38 -28.5 -67t-68.5 -29z" />
    <glyph glyph-name="wdieresis" unicode="&#x1e85;" horiz-adv-x="1204" 
d="M769 0l-206 968h-65v79h452v-79h-73l63 -381l85 381h-54v79h223v-79h-75l-207 -968h-143zM296 0l-205 968h-78v79h467v-79h-66l55 -381l83 381h-17v79h183v-79h-71l-208 -968h-143zM760 1136q-39 0 -67.5 29t-28.5 67q0 41 28.5 70.5t67.5 29.5t68 -29.5t29 -70.5
q0 -38 -29 -67t-68 -29zM504 1136q-38 0 -66 29t-28 67q0 41 28 70.5t66 29.5q40 0 68.5 -29.5t28.5 -70.5q0 -38 -28.5 -67t-68.5 -29z" />
    <glyph glyph-name="uni1E8F" unicode="&#x1e8f;" horiz-adv-x="777" 
d="M242 -502q-55 0 -94 38t-59 102t-20 142q0 77 32 116.5t83 39.5q49 0 80 -34t31 -97q0 -50 -20 -79.5t-39.5 -53.5t-19.5 -59q0 -23 10.5 -36t29.5 -13q10 0 17 4.5t13 17.5t12 38l80 354l-287 990h-84v79h483v-79h-79l113 -391l94 391h-74v79h234v-79h-70l-242 -975
l-91 -386q-7 -32 -23 -57t-42 -38.5t-68 -13.5zM396 1141q-40 0 -68.5 29t-28.5 67q0 40 28.5 69t68.5 29q36 0 65 -29t29 -69q0 -38 -29 -67t-65 -29z" />
    <glyph glyph-name="uni1E93" unicode="&#x1e93;" horiz-adv-x="740" 
d="M80 0v79l277 889h-88q-52 0 -75 -24t-28 -80.5t-5 -154.5h-77v338h582v-79l-277 -889h90q51 0 72.5 25t26 83t4.5 160h79v-347h-581zM372 -276q-40 0 -68.5 29t-28.5 67q0 40 28.5 69t68.5 29q36 0 65 -29t29 -69q0 -38 -29 -67t-65 -29z" />
    <glyph glyph-name="uni1E97" unicode="&#x1e97;" horiz-adv-x="632" 
d="M435 -18q-74 0 -140 23.5t-107 86.5t-41 181v695h-151v79h151q59 0 104 43.5t73.5 113.5t37.5 151h85v-308h172v-79h-172v-825q0 -41 20.5 -56t39.5 -15q18 0 34 6t23 14l44 -63q-31 -22 -72 -34.5t-101 -12.5zM449 1391q-39 0 -67.5 29t-28.5 67q0 41 28.5 70.5
t67.5 29.5t68 -29.5t29 -70.5q0 -38 -29 -67t-68 -29zM193 1391q-38 0 -66 29t-28 67q0 41 28 70.5t66 29.5q40 0 68.5 -29.5t28.5 -70.5q0 -38 -28.5 -67t-68.5 -29z" />
    <glyph glyph-name="uni1E9E" unicode="&#x1e9e;" horiz-adv-x="1053" 
d="M661 -22q-60 0 -113 42.5t-53 124.5q0 58 25 94.5t68 36.5q38 0 59 -25.5t21 -66.5q0 -34 -10.5 -52t-21.5 -29t-11 -25q0 -13 8 -20.5t21 -7.5q32 0 48.5 23t23 63t6.5 92q0 108 -22 182.5t-55 127.5t-66 97t-55 89t-22 105q0 41 28 95.5t74 114.5t98 119t100 108.5
t82 83.5h-317q-64 0 -91 -41t-32.5 -116t-5.5 -177v-1016h-406v74h92v837q0 156 56.5 271t154 178.5t219.5 63.5h391l41 -78q-50 -52 -114 -120.5t-123 -139.5t-97.5 -129.5t-38.5 -91.5q0 -39 35 -72.5t87 -71.5t103.5 -89.5t86.5 -126.5t35 -183q0 -124 -44.5 -200
t-115.5 -110t-149 -34z" />
    <glyph glyph-name="uni1EA0" unicode="&#x1ea0;" horiz-adv-x="740" 
d="M-5 0v79h81l189 1321h156l237 -1321h93v-79h-488v79h72l-94 656h4l-86 -656h65v-79h-229zM149 233v73h200v-73h-200zM330 -276q-40 0 -68.5 29t-28.5 67q0 40 28.5 69t68.5 29q36 0 65 -29t29 -69q0 -38 -29 -67t-65 -29z" />
    <glyph glyph-name="uni1EA1" unicode="&#x1ea1;" horiz-adv-x="906" 
d="M305 -22q-70 0 -129 33.5t-95 94.5t-36 143q0 98 43.5 161.5t107.5 106t128 75.5t107.5 69.5t43.5 89.5q0 71 -13 119.5t-38.5 73.5t-63.5 25q-47 0 -76 -21.5t-29 -52.5q0 -29 13.5 -50t27 -45t13.5 -65q0 -55 -32 -86t-82 -31q-52 0 -84.5 44t-32.5 120
q0 81 44.5 144.5t123 100t179.5 36.5q102 0 181 -39.5t124 -124.5t45 -223v-495q0 -56 8 -74.5t26 -18.5q20 0 34 11.5t21 19.5l46 -59q-18 -27 -75.5 -53.5t-134.5 -26.5q-79 0 -119.5 21t-57 47.5t-24.5 41.5q-3 -10 -22.5 -37t-60.5 -51t-111 -24zM411 108q19 0 33.5 18
t22.5 48.5t8 66.5v369q-4 -28 -24 -52t-44 -55t-42 -82t-18 -134q0 -88 18.5 -133.5t45.5 -45.5zM461 -276q-40 0 -68.5 29t-28.5 67q0 40 28.5 69t68.5 29q36 0 65 -29t29 -69q0 -38 -29 -67t-65 -29z" />
    <glyph glyph-name="uni1EA2" unicode="&#x1ea2;" horiz-adv-x="740" 
d="M-5 0v79h81l189 1321h156l237 -1321h93v-79h-488v79h72l-94 656h4l-86 -656h65v-79h-229zM149 233v73h200v-73h-200zM339 1748q60 0 105 -23t45 -89q0 -44 -27.5 -71t-55 -48t-27.5 -50h-65q0 43 13.5 70.5t26.5 49t13 44.5q0 24 -10 34.5t-32 10.5q-25 0 -40.5 -7.5
t-29.5 -20.5l-55 50q19 20 56 35t83 15z" />
    <glyph glyph-name="uni1EA3" unicode="&#x1ea3;" horiz-adv-x="906" 
d="M305 -22q-70 0 -129 33.5t-95 94.5t-36 143q0 98 43.5 161.5t107.5 106t128 75.5t107.5 69.5t43.5 89.5q0 71 -13 119.5t-38.5 73.5t-63.5 25q-47 0 -76 -21.5t-29 -52.5q0 -29 13.5 -50t27 -45t13.5 -65q0 -55 -32 -86t-82 -31q-52 0 -84.5 44t-32.5 120
q0 81 44.5 144.5t123 100t179.5 36.5q102 0 181 -39.5t124 -124.5t45 -223v-495q0 -56 8 -74.5t26 -18.5q20 0 34 11.5t21 19.5l46 -59q-18 -27 -75.5 -53.5t-134.5 -26.5q-79 0 -119.5 21t-57 47.5t-24.5 41.5q-3 -10 -22.5 -37t-60.5 -51t-111 -24zM411 108q19 0 33.5 18
t22.5 48.5t8 66.5v369q-4 -28 -24 -52t-44 -55t-42 -82t-18 -134q0 -88 18.5 -133.5t45.5 -45.5zM432 1419q60 0 105 -23t45 -89q0 -44 -27.5 -71t-55 -48t-27.5 -50h-65q0 43 13.5 70.5t26.5 49t13 44.5q0 24 -10 34.5t-32 10.5q-25 0 -40.5 -7.5t-29.5 -20.5l-55 50
q19 20 56 35t83 15z" />
    <glyph glyph-name="uni1EA4" unicode="&#x1ea4;" horiz-adv-x="740" 
d="M-5 0v79h81l189 1321h156l237 -1321h93v-79h-488v79h72l-94 656h4l-86 -656h65v-79h-229zM149 233v73h200v-73h-200zM165 1474l148 161h70l146 -161h-97l-85 87l-85 -87h-97zM484 1596l-55 58l166 123q27 21 48 21q17 0 29.5 -9t19.5 -21q7 -14 7 -26q0 -16 -10.5 -30
t-33.5 -24z" />
    <glyph glyph-name="uni1EA5" unicode="&#x1ea5;" horiz-adv-x="906" 
d="M305 -22q-70 0 -129 33.5t-95 94.5t-36 143q0 98 43.5 161.5t107.5 106t128 75.5t107.5 69.5t43.5 89.5q0 71 -13 119.5t-38.5 73.5t-63.5 25q-47 0 -76 -21.5t-29 -52.5q0 -29 13.5 -50t27 -45t13.5 -65q0 -55 -32 -86t-82 -31q-52 0 -84.5 44t-32.5 120
q0 81 44.5 144.5t123 100t179.5 36.5q102 0 181 -39.5t124 -124.5t45 -223v-495q0 -56 8 -74.5t26 -18.5q20 0 34 11.5t21 19.5l46 -59q-18 -27 -75.5 -53.5t-134.5 -26.5q-79 0 -119.5 21t-57 47.5t-24.5 41.5q-3 -10 -22.5 -37t-60.5 -51t-111 -24zM411 108q19 0 33.5 18
t22.5 48.5t8 66.5v369q-4 -28 -24 -52t-44 -55t-42 -82t-18 -134q0 -88 18.5 -133.5t45.5 -45.5zM258 1121l148 201h70l146 -201h-97l-85 127l-85 -127h-97zM577 1283l-55 58l166 123q27 21 48 21q17 0 29.5 -9t19.5 -21q7 -14 7 -26q0 -16 -10.5 -30t-33.5 -24z" />
    <glyph glyph-name="uni1EA6" unicode="&#x1ea6;" horiz-adv-x="740" 
d="M-5 0v79h81l189 1321h156l237 -1321h93v-79h-488v79h72l-94 656h4l-86 -656h65v-79h-229zM149 233v73h200v-73h-200zM165 1474l148 161h70l146 -161h-97l-85 87l-85 -87h-97zM535 1610l-181 88q-26 13 -39 26.5t-13 38.5q0 21 16 35t41 14q18 0 31 -6.5t26 -17.5
l159 -131z" />
    <glyph glyph-name="uni1EA7" unicode="&#x1ea7;" horiz-adv-x="906" 
d="M305 -22q-70 0 -129 33.5t-95 94.5t-36 143q0 98 43.5 161.5t107.5 106t128 75.5t107.5 69.5t43.5 89.5q0 71 -13 119.5t-38.5 73.5t-63.5 25q-47 0 -76 -21.5t-29 -52.5q0 -29 13.5 -50t27 -45t13.5 -65q0 -55 -32 -86t-82 -31q-52 0 -84.5 44t-32.5 120
q0 81 44.5 144.5t123 100t179.5 36.5q102 0 181 -39.5t124 -124.5t45 -223v-495q0 -56 8 -74.5t26 -18.5q20 0 34 11.5t21 19.5l46 -59q-18 -27 -75.5 -53.5t-134.5 -26.5q-79 0 -119.5 21t-57 47.5t-24.5 41.5q-3 -10 -22.5 -37t-60.5 -51t-111 -24zM411 108q19 0 33.5 18
t22.5 48.5t8 66.5v369q-4 -28 -24 -52t-44 -55t-42 -82t-18 -134q0 -88 18.5 -133.5t45.5 -45.5zM258 1121l148 201h70l146 -201h-97l-85 127l-85 -127h-97zM628 1297l-181 88q-26 13 -39 26.5t-13 38.5q0 21 16 35t41 14q18 0 31 -6.5t26 -17.5l159 -131z" />
    <glyph glyph-name="uni1EA8" unicode="&#x1ea8;" horiz-adv-x="740" 
d="M-5 0v79h81l189 1321h156l237 -1321h93v-79h-488v79h72l-94 656h4l-86 -656h65v-79h-229zM149 233v73h200v-73h-200zM163 1475l148 161h70l146 -161h-97l-85 87l-85 -87h-97zM489 1816q47 0 83 -18t36 -71q0 -35 -22.5 -56.5t-44.5 -38.5t-22 -40h-50q0 35 10.5 56.5
t21 38.5t10.5 36t-8.5 27t-25.5 8q-20 0 -32.5 -5.5t-23.5 -16.5l-43 40q15 16 44.5 28t66.5 12z" />
    <glyph glyph-name="uni1EA9" unicode="&#x1ea9;" horiz-adv-x="906" 
d="M305 -22q-70 0 -129 33.5t-95 94.5t-36 143q0 98 43.5 161.5t107.5 106t128 75.5t107.5 69.5t43.5 89.5q0 71 -13 119.5t-38.5 73.5t-63.5 25q-47 0 -76 -21.5t-29 -52.5q0 -29 13.5 -50t27 -45t13.5 -65q0 -55 -32 -86t-82 -31q-52 0 -84.5 44t-32.5 120
q0 81 44.5 144.5t123 100t179.5 36.5q102 0 181 -39.5t124 -124.5t45 -223v-495q0 -56 8 -74.5t26 -18.5q20 0 34 11.5t21 19.5l46 -59q-18 -27 -75.5 -53.5t-134.5 -26.5q-79 0 -119.5 21t-57 47.5t-24.5 41.5q-3 -10 -22.5 -37t-60.5 -51t-111 -24zM411 108q19 0 33.5 18
t22.5 48.5t8 66.5v369q-4 -28 -24 -52t-44 -55t-42 -82t-18 -134q0 -88 18.5 -133.5t45.5 -45.5zM256 1122l148 201h70l146 -201h-97l-85 127l-85 -127h-97zM582 1503q47 0 83 -18t36 -71q0 -35 -22.5 -56.5t-44.5 -38.5t-22 -40h-50q0 35 10.5 56.5t21 38.5t10.5 36
t-8.5 27t-25.5 8q-20 0 -32.5 -5.5t-23.5 -16.5l-43 40q15 16 44.5 28t66.5 12z" />
    <glyph glyph-name="uni1EAA" unicode="&#x1eaa;" horiz-adv-x="740" 
d="M-5 0v79h81l189 1321h156l237 -1321h93v-79h-488v79h72l-94 656h4l-86 -656h65v-79h-229zM149 233v73h200v-73h-200zM168 1475l148 161h70l146 -161h-97l-85 87l-84 -87h-98zM437 1667q-41 0 -67 12.5t-45.5 24.5t-40.5 12q-35 0 -53 -12.5t-23 -20.5l-81 29
q6 18 25.5 43t48.5 44t63 19q46 0 70 -11.5t43 -23.5t50 -12q36 0 50.5 13t18.5 23l79 -31q-3 -12 -21.5 -38t-48 -48.5t-68.5 -22.5z" />
    <glyph glyph-name="uni1EAB" unicode="&#x1eab;" horiz-adv-x="906" 
d="M305 -22q-70 0 -129 33.5t-95 94.5t-36 143q0 98 43.5 161.5t107.5 106t128 75.5t107.5 69.5t43.5 89.5q0 71 -13 119.5t-38.5 73.5t-63.5 25q-47 0 -76 -21.5t-29 -52.5q0 -29 13.5 -50t27 -45t13.5 -65q0 -55 -32 -86t-82 -31q-52 0 -84.5 44t-32.5 120
q0 81 44.5 144.5t123 100t179.5 36.5q102 0 181 -39.5t124 -124.5t45 -223v-495q0 -56 8 -74.5t26 -18.5q20 0 34 11.5t21 19.5l46 -59q-18 -27 -75.5 -53.5t-134.5 -26.5q-79 0 -119.5 21t-57 47.5t-24.5 41.5q-3 -10 -22.5 -37t-60.5 -51t-111 -24zM411 108q19 0 33.5 18
t22.5 48.5t8 66.5v369q-4 -28 -24 -52t-44 -55t-42 -82t-18 -134q0 -88 18.5 -133.5t45.5 -45.5zM262 1122l148 201h70l146 -201h-97l-85 127l-85 -127h-97zM530 1354q-41 0 -66.5 12.5t-45 24.5t-41.5 12q-35 0 -53 -12.5t-23 -20.5l-81 29q6 18 25.5 43t48.5 44t63 19
q46 0 70 -11.5t43 -23.5t50 -12q36 0 50.5 13t18.5 23l79 -31q-3 -12 -21.5 -38t-48 -48.5t-68.5 -22.5z" />
    <glyph glyph-name="uni1EAC" unicode="&#x1eac;" horiz-adv-x="740" 
d="M-5 0v79h81l189 1321h156l237 -1321h93v-79h-488v79h72l-94 656h4l-86 -656h65v-79h-229zM149 233v73h200v-73h-200zM330 -276q-40 0 -68.5 29t-28.5 67q0 40 28.5 69t68.5 29q36 0 65 -29t29 -69q0 -38 -29 -67t-65 -29zM165 1469l148 201h70l146 -201h-97l-85 127
l-85 -127h-97z" />
    <glyph glyph-name="uni1EAD" unicode="&#x1ead;" horiz-adv-x="906" 
d="M305 -22q-70 0 -129 33.5t-95 94.5t-36 143q0 98 43.5 161.5t107.5 106t128 75.5t107.5 69.5t43.5 89.5q0 71 -13 119.5t-38.5 73.5t-63.5 25q-47 0 -76 -21.5t-29 -52.5q0 -29 13.5 -50t27 -45t13.5 -65q0 -55 -32 -86t-82 -31q-52 0 -84.5 44t-32.5 120
q0 81 44.5 144.5t123 100t179.5 36.5q102 0 181 -39.5t124 -124.5t45 -223v-495q0 -56 8 -74.5t26 -18.5q20 0 34 11.5t21 19.5l46 -59q-18 -27 -75.5 -53.5t-134.5 -26.5q-79 0 -119.5 21t-57 47.5t-24.5 41.5q-3 -10 -22.5 -37t-60.5 -51t-111 -24zM411 108q19 0 33.5 18
t22.5 48.5t8 66.5v369q-4 -28 -24 -52t-44 -55t-42 -82t-18 -134q0 -88 18.5 -133.5t45.5 -45.5zM461 -276q-40 0 -68.5 29t-28.5 67q0 40 28.5 69t68.5 29q36 0 65 -29t29 -69q0 -38 -29 -67t-65 -29zM258 1131l148 201h70l146 -201h-97l-85 127l-85 -127h-97z" />
    <glyph glyph-name="uni1EAE" unicode="&#x1eae;" horiz-adv-x="740" 
d="M-5 0v79h81l189 1321h156l237 -1321h93v-79h-488v79h72l-94 656h4l-86 -656h65v-79h-229zM149 233v73h200v-73h-200zM345 1498q-66 0 -106.5 31t-59 78t-18.5 94h79q5 -65 34.5 -94t70.5 -29q42 0 71.5 29t33.5 94h79q0 -47 -18.5 -94t-58.5 -78t-107 -31zM247 1736
l-64 68l195 145q15 11 29 17.5t27 6.5q20 0 35 -10.5t23 -24.5t8 -30q0 -19 -12 -36t-40 -28z" />
    <glyph glyph-name="uni1EAF" unicode="&#x1eaf;" horiz-adv-x="906" 
d="M305 -22q-70 0 -129 33.5t-95 94.5t-36 143q0 98 43.5 161.5t107.5 106t128 75.5t107.5 69.5t43.5 89.5q0 71 -13 119.5t-38.5 73.5t-63.5 25q-47 0 -76 -21.5t-29 -52.5q0 -29 13.5 -50t27 -45t13.5 -65q0 -55 -32 -86t-82 -31q-52 0 -84.5 44t-32.5 120
q0 81 44.5 144.5t123 100t179.5 36.5q102 0 181 -39.5t124 -124.5t45 -223v-495q0 -56 8 -74.5t26 -18.5q20 0 34 11.5t21 19.5l46 -59q-18 -27 -75.5 -53.5t-134.5 -26.5q-79 0 -119.5 21t-57 47.5t-24.5 41.5q-3 -10 -22.5 -37t-60.5 -51t-111 -24zM411 108q19 0 33.5 18
t22.5 48.5t8 66.5v369q-4 -28 -24 -52t-44 -55t-42 -82t-18 -134q0 -88 18.5 -133.5t45.5 -45.5zM438 1115q-66 0 -106.5 31t-59 78t-18.5 94h79q5 -65 34.5 -94t70.5 -29q42 0 71.5 29t33.5 94h79q0 -47 -18.5 -94t-58.5 -78t-107 -31zM348 1348l-64 67l195 146
q15 11 29 17.5t27 6.5q20 0 35 -10.5t23 -24.5t8 -31q0 -18 -12 -35t-40 -28z" />
    <glyph glyph-name="uni1EB0" unicode="&#x1eb0;" horiz-adv-x="740" 
d="M-5 0v79h81l189 1321h156l237 -1321h93v-79h-488v79h72l-94 656h4l-86 -656h65v-79h-229zM149 233v73h200v-73h-200zM345 1498q-66 0 -106.5 31t-59 78t-18.5 94h79q5 -65 34.5 -94t70.5 -29q42 0 71.5 29t33.5 94h79q0 -47 -18.5 -94t-58.5 -78t-107 -31zM447 1745
l-210 103q-31 15 -46 31t-15 44q0 25 19 41.5t47 16.5q22 0 36.5 -8.5t29.5 -20.5l186 -152z" />
    <glyph glyph-name="uni1EB1" unicode="&#x1eb1;" horiz-adv-x="906" 
d="M305 -22q-70 0 -129 33.5t-95 94.5t-36 143q0 98 43.5 161.5t107.5 106t128 75.5t107.5 69.5t43.5 89.5q0 71 -13 119.5t-38.5 73.5t-63.5 25q-47 0 -76 -21.5t-29 -52.5q0 -29 13.5 -50t27 -45t13.5 -65q0 -55 -32 -86t-82 -31q-52 0 -84.5 44t-32.5 120
q0 81 44.5 144.5t123 100t179.5 36.5q102 0 181 -39.5t124 -124.5t45 -223v-495q0 -56 8 -74.5t26 -18.5q20 0 34 11.5t21 19.5l46 -59q-18 -27 -75.5 -53.5t-134.5 -26.5q-79 0 -119.5 21t-57 47.5t-24.5 41.5q-3 -10 -22.5 -37t-60.5 -51t-111 -24zM411 108q19 0 33.5 18
t22.5 48.5t8 66.5v369q-4 -28 -24 -52t-44 -55t-42 -82t-18 -134q0 -88 18.5 -133.5t45.5 -45.5zM438 1135q-66 0 -106.5 31t-59 78t-18.5 94h79q5 -65 34.5 -94t70.5 -29q42 0 71.5 29t33.5 94h79q0 -47 -18.5 -94t-58.5 -78t-107 -31zM551 1365l-210 103q-31 15 -46 31
t-15 44q0 25 19 41.5t47 16.5q22 0 36.5 -8.5t29.5 -20.5l186 -153z" />
    <glyph glyph-name="uni1EB2" unicode="&#x1eb2;" horiz-adv-x="740" 
d="M-5 0v79h81l189 1321h156l237 -1321h93v-79h-488v79h72l-94 656h4l-86 -656h65v-79h-229zM149 233v73h200v-73h-200zM345 1498q-66 0 -106.5 31t-59 78t-18.5 94h79q5 -65 34.5 -94t70.5 -29q42 0 71.5 29t33.5 94h79q0 -47 -18.5 -94t-58.5 -78t-107 -31zM339 2044
q60 0 105 -23t45 -89q0 -44 -27.5 -71t-55 -48t-27.5 -50h-65q0 43 13.5 70.5t26.5 49t13 44.5q0 24 -10 34.5t-32 10.5q-25 0 -40.5 -7.5t-29.5 -20.5l-55 50q19 20 56 35t83 15z" />
    </font>
</defs>
</svg>
