<?xml version="1.0" standalone="no"?>
<!DOCTYPE svg PUBLIC "-//W3C//DTD SVG 1.1//EN" "http://www.w3.org/Graphics/SVG/1.1/DTD/svg11.dtd" >
<svg xmlns="http://www.w3.org/2000/svg" xmlns:xlink="http://www.w3.org/1999/xlink" version="1.1">
<metadata>
Created by FontForge 20170731 at Tue Dec  1 16:59:51 2020
 By Aleksey,,,
Copyright 2020 The Imbue Project Authors (https://github.com/Etcetera-Type-Co/Imbue)
</metadata>
<defs>
<font id="Imbue10pt-Thin" horiz-adv-x="0" >
  <font-face 
    font-family="Imbue 10pt Thin"
    font-weight="250"
    font-stretch="normal"
    units-per-em="2000"
    panose-1="0 0 0 0 0 0 0 0 0 0"
    ascent="1600"
    descent="-400"
    x-height="1046"
    cap-height="1400"
    bbox="-360 -502 1413 2014"
    underline-thickness="50"
    underline-position="-175"
    unicode-range="U+000D-FB02"
  />
<missing-glyph horiz-adv-x="573" 
d="M127 133v947h317v-947h-317zM151 156h269v900h-269v-900zM288 889l-68 -69l-18 18l68 69l-68 69l18 19l68 -69l68 69l19 -19l-68 -69l68 -69l-19 -18zM288 582l-68 -69l-18 18l68 69l-68 69l18 18l68 -69l68 69l19 -18l-69 -69l69 -69l-19 -18zM288 274l-68 -69l-18 19
l68 69l-68 69l18 18l68 -69l68 69l19 -18l-68 -69l68 -69l-19 -19z" />
    <glyph glyph-name="f_f" unicode="ff" horiz-adv-x="707" 
d="M47 0v60h106v927h-115v60h115v69q0 162 27.5 247.5t70.5 116.5t87 31t76 -30.5t50 -67.5t18 -58l-37 -86q0 46 -13.5 87t-37.5 67t-56 26q-37 0 -61.5 -25t-39 -72t-20.5 -115t-6 -155v-17.5v-17.5h138v-60h-138v-927h129v-60h-293zM338 0v60h106v927h-117v60h117v164
q0 108 19 174t54 96t81 30q65 0 98 -65.5t33 -165.5q0 -30 -9 -47t-29 -17q-19 0 -28 15t-9 38q0 16 3 27t5.5 24t2.5 33q0 35 -17.5 66.5t-49.5 31.5q-23 0 -40.5 -14.5t-29.5 -43.5t-18 -72.5t-6 -102.5v-171h118v-60h-118v-927h107v-60h-273z" />
    <glyph glyph-name="f_f_i" unicode="ffi" horiz-adv-x="963" 
d="M47 0v60h106v927h-115v60h115v69q0 162 27.5 247.5t70.5 116.5t87 31t79.5 -31.5t56.5 -73.5t21 -73l-30 -109q0 66 -18.5 117t-47.5 79.5t-61 28.5q-37 0 -61.5 -25t-39 -72t-20.5 -115t-6 -155v-17.5v-17.5h138v-60h-138v-927h129v-60h-293zM656 0v60h109v927h-109v60
h169v-987h111v-60h-280zM354 0v60h106v927h-117v60h117v108q0 150 30.5 226.5t77.5 103t97 26.5q54 0 94 -25t62 -76t22 -130q0 -20 -4.5 -34.5t-13 -22t-22.5 -7.5q-19 0 -28.5 16t-9.5 39q0 16 3 25t5.5 20t2.5 31q0 41 -16.5 63t-41.5 30.5t-53 8.5q-40 0 -73 -19.5
t-52.5 -85.5t-19.5 -204v-93h198v-60h-198v-927h107v-60h-273z" />
    <glyph glyph-name="f_f_l" unicode="ffl" horiz-adv-x="978" 
d="M47 0v60h108v927h-117v60h117v69q0 162 27 247.5t69.5 116.5t86.5 31t79.5 -31.5t57 -73.5t21.5 -73l-31 -109q0 66 -18.5 117t-47.5 79.5t-61 28.5q-37 0 -61.5 -25t-39 -72t-20.5 -115t-6 -155v-17.5v-17.5h138v-60h-138v-927h129v-60h-293zM692 0v60h89v1380h-89v60
h147v-1440h91v-60h-238zM354 0v60h106v927h-117v60h117v69q0 129 20.5 206t54.5 115t75 50.5t82 12.5v-60q-52 0 -85.5 -21t-53 -63t-27.5 -105.5t-8 -148.5v-30.5v-24.5h138v-60h-138v-927h107v-60h-271z" />
    <glyph glyph-name="f_i" unicode="fi" horiz-adv-x="658" 
d="M49 0v60h106v927h-117v60h117v108q0 150 30.5 226.5t77.5 103t97 26.5q54 0 94 -25t62 -76t22 -130q0 -20 -4.5 -34.5t-13 -22t-22.5 -7.5q-19 0 -28.5 16t-9.5 39q0 16 3 25t5.5 20t2.5 31q0 41 -16.5 63t-41.5 30.5t-53 8.5q-40 0 -73 -19.5t-52.5 -85.5t-19.5 -204
v-93h198v-60h-198v-927h107v-60h-273zM351 0v60h109v927h-109v60h169v-987h111v-60h-280z" />
    <glyph glyph-name="f_l" unicode="fl" horiz-adv-x="673" 
d="M49 0v60h106v927h-117v60h117v69q0 129 20.5 206t54.5 115t75 50.5t82 12.5v-60q-52 0 -85.5 -21t-53 -63t-27.5 -105.5t-8 -148.5v-30.5v-24.5h138v-60h-138v-927h107v-60h-271zM387 0v60h89v1380h-89v60h147v-1440h91v-60h-238z" />
    <glyph glyph-name=".notdef" horiz-adv-x="573" 
d="M127 133v947h317v-947h-317zM151 156h269v900h-269v-900zM288 889l-68 -69l-18 18l68 69l-68 69l18 19l68 -69l68 69l19 -19l-68 -69l68 -69l-19 -18zM288 582l-68 -69l-18 18l68 69l-68 69l18 18l68 -69l68 69l19 -18l-69 -69l69 -69l-19 -18zM288 274l-68 -69l-18 19
l68 69l-68 69l18 18l68 -69l68 69l19 -18l-68 -69l68 -69l-19 -19z" />
    <glyph glyph-name=".null" 
 />
    <glyph glyph-name="nonmarkingreturn" horiz-adv-x="666" 
 />
    <glyph glyph-name="CR" unicode="&#xd;" horiz-adv-x="258" 
 />
    <glyph glyph-name="space" unicode=" " horiz-adv-x="258" 
 />
    <glyph glyph-name="exclam" unicode="!" horiz-adv-x="240" 
d="M91 255q0 173 -2.5 323t-6.5 277t-6.5 230.5t-2.5 183.5q0 55 6.5 101t31.5 46q23 0 30.5 -46t7.5 -101q0 -80 -2.5 -183.5t-6.5 -230.5t-6.5 -277t-2.5 -323h-40zM109 -11q-30 0 -52 22.5t-22 52.5q0 32 22 53t52 21t51.5 -21t21.5 -53q0 -30 -21.5 -52.5t-51.5 -22.5z
" />
    <glyph glyph-name="quotedbl" unicode="&#x22;" horiz-adv-x="447" 
d="M109 1187q-1 36 -6 83.5t-9.5 92.5t-4.5 72q0 50 11.5 69.5t30.5 19.5q20 0 31 -19.5t11 -69.5q0 -27 -5 -72t-10 -92.5t-7 -83.5h-42zM294 1187q-1 36 -6 83.5t-9.5 92.5t-4.5 72q0 50 11.5 69.5t30.5 19.5q20 0 31 -19.5t11 -69.5q0 -27 -5 -72t-10 -92.5t-7 -83.5h-42
z" />
    <glyph glyph-name="numbersign" unicode="#" horiz-adv-x="1000" 
d="M173 0l78 447h-193v60h204l74 435h-229v60h242l67 398h59l-68 -398h262l71 398h58l-71 -398h215v-60h-226l-76 -435h251v-60h-260l-80 -447h-58l82 447h-264l-80 -447h-58zM320 507h260l76 435h-260z" />
    <glyph glyph-name="dollar" unicode="$" horiz-adv-x="480" 
d="M215 -24v1442h43v-1442h-43zM246 63q-41 0 -67 18t-42 35.5t-28 17.5q-15 0 -15 -47h-41v237h51q2 -39 13 -76t30 -66t45 -46t58 -17q48 0 72 29t32 78.5t8 112.5q0 67 -22.5 134.5t-57.5 130.5t-74 118q-61 89 -93.5 159t-44.5 127.5t-12 106.5q0 71 21 124t59 82t87 29
q40 0 61 -15.5t32 -31t20 -15.5q8 0 13 10.5t5 31.5h41v-235h-51q-1 40 -9 76t-23 64t-36.5 44t-50.5 16q-52 0 -82.5 -42t-30.5 -120q0 -52 7 -99t32.5 -104t80.5 -142q67 -102 126 -218t59 -236q0 -61 -9 -111t-29.5 -85.5t-53.5 -55t-81 -19.5z" />
    <glyph glyph-name="percent" unicode="%" horiz-adv-x="1000" 
d="M260 780q-51 0 -90.5 39t-62 109.5t-22.5 166.5q0 139 45 224t130 85q82 0 127.5 -79t45.5 -230q0 -148 -46.5 -231.5t-126.5 -83.5zM745 -11q-51 0 -91 39.5t-62.5 110.5t-22.5 165q0 140 45.5 225.5t130.5 85.5q81 0 126 -79.5t45 -231.5q0 -146 -45.5 -230.5
t-125.5 -84.5zM745 49q52 0 76 42.5t30.5 101.5t6.5 109q0 51 -6.5 111t-30.5 103.5t-76 43.5t-77 -43.5t-32 -104.5t-7 -112t6.5 -109.5t31.5 -100t78 -41.5zM260 838q53 0 77 43t31 102.5t7 109.5q0 51 -7 111.5t-31 103.5t-77 43q-52 0 -76.5 -44t-31.5 -104.5t-7 -111.5
t7 -110t31.5 -101t76.5 -42zM34 0l878 1400h52l-876 -1400h-54z" />
    <glyph glyph-name="ampersand" unicode="&#x26;" horiz-adv-x="784" 
d="M627 -13q-42 0 -66.5 26t-47.5 85l-272 703q-3 8 -17.5 52t-32 107t-30 129.5t-12.5 119.5q0 61 13 101.5t35 64t49 33.5t54 10q24 0 49 -9.5t46.5 -33t34.5 -63.5t13 -100q0 -75 -15 -138.5t-38 -114t-47.5 -87t-42.5 -56.5l-26 57q52 60 81.5 148.5t29.5 190.5
q0 77 -20 118t-67 41q-46 0 -67.5 -39.5t-21.5 -116.5q0 -48 11 -107t26 -115.5t28.5 -97.5t18.5 -54l267 -694q23 -58 38.5 -76t37.5 -18q18 0 36 14.5t28 41.5l40 -36q-15 -38 -46.5 -62t-66.5 -24zM249 -18q-71 0 -120 47t-73.5 128t-24.5 183q0 114 31.5 211.5t83 175
t110.5 129.5l24 -55q-40 -40 -83 -105t-72.5 -147.5t-29.5 -175.5q0 -94 15.5 -168.5t52.5 -118t100 -43.5q46 0 81.5 40t61.5 102t41 128l38 -64q-14 -59 -40 -121t-72.5 -104t-123.5 -42zM682 303q-19 0 -27 13.5t-8 32.5q0 13 2.5 24t5 23t2.5 27q0 28 -7 39t-28 11
q-22 0 -46.5 -29.5t-44.5 -71t-29 -77.5l-46 45q10 35 32.5 80t55.5 79t74 34q60 0 80.5 -49t20.5 -109q0 -31 -10 -51.5t-27 -20.5z" />
    <glyph glyph-name="quotesingle" unicode="'" horiz-adv-x="298" 
d="M127 1187q-1 36 -6 83.5t-9.5 92.5t-4.5 72q0 50 11.5 69.5t30.5 19.5q20 0 31 -19.5t11 -69.5q0 -27 -5 -72t-10 -92.5t-7 -83.5h-42z" />
    <glyph glyph-name="parenleft" unicode="(" horiz-adv-x="409" 
d="M327 -429q-12 15 -52 87t-87.5 195t-82 293t-34.5 380q0 237 35 415t83 299t89 186.5t53 77.5l47 -53q-14 -16 -52 -79.5t-81 -176.5t-74 -279.5t-31 -389.5q0 -198 31 -356.5t74 -274t80.5 -183.5t50.5 -85z" />
    <glyph glyph-name="parenright" unicode=")" horiz-adv-x="409" 
d="M82 -429l-49 56q13 17 50.5 85t80.5 183.5t74 274t31 356.5q0 223 -31 389.5t-74 279.5t-81 176.5t-52 79.5l47 53q12 -12 53 -77.5t89 -186.5t83 -299t35 -415q0 -210 -34.5 -380t-82 -293t-87.5 -195t-52 -87z" />
    <glyph glyph-name="asterisk" unicode="*" horiz-adv-x="793" 
d="M378 882q-15 0 -25.5 12t-10.5 35q0 16 2 37t4.5 56.5t2.5 93.5q-31 -19 -62 -39.5t-55.5 -36.5t-38.5 -24q-9 -5 -16.5 -7t-13.5 -2q-12 0 -21 9.5t-9 20.5t6 21t19 17q15 9 36 16.5t54 22.5t83 44q-51 30 -83.5 46t-52.5 25t-35 18q-27 16 -27 36q0 16 10.5 24t20.5 8
q12 0 32 -11q22 -11 50 -34.5t103 -67.5q0 89 -4.5 127.5t-4.5 63.5q0 22 10.5 33.5t25.5 11.5t26 -11.5t11 -33.5q0 -16 -4 -38.5t-7.5 -58.5t-3.5 -94q79 44 109.5 67.5t52.5 34.5q20 11 33 11q15 0 23 -11.5t8 -21.5q0 -21 -30 -38q-13 -7 -34 -15.5t-55 -24.5t-87 -46
q51 -29 85.5 -44t57.5 -23t37 -16q14 -7 20 -16.5t6 -19.5q0 -11 -9.5 -21.5t-24.5 -10.5q-7 0 -15.5 1.5t-16.5 7.5q-12 10 -36 26t-55.5 36t-66.5 38q0 -58 3 -93.5t5.5 -56.5t2.5 -37q0 -23 -10 -35t-25 -12z" />
    <glyph glyph-name="plus" unicode="+" horiz-adv-x="818" 
d="M380 251v624h60v-624h-60zM98 533v60h622v-60h-622z" />
    <glyph glyph-name="comma" unicode="," horiz-adv-x="256" 
d="M98 -198l-33 42q21 11 40.5 37.5t31.5 55.5t12 45q0 7 -7 7q-3 0 -8 -2.5t-16 -2.5q-21 0 -37.5 10.5t-26 28t-9.5 37.5q0 29 21 52.5t63 23.5t65.5 -26t23.5 -61q0 -54 -18 -104t-45.5 -87.5t-56.5 -55.5z" />
    <glyph glyph-name="hyphen" unicode="-" horiz-adv-x="578" 
d="M98 533v60h382v-60h-382z" />
    <glyph glyph-name="period" unicode="." horiz-adv-x="255" 
d="M122 -11q-30 0 -51.5 22.5t-21.5 52.5q0 32 21.5 53t51.5 21t52 -21t22 -53q0 -30 -22 -52.5t-52 -22.5z" />
    <glyph glyph-name="slash" unicode="/" horiz-adv-x="616" 
d="M29 -104l507 1608h62l-505 -1608h-64z" />
    <glyph glyph-name="zero" unicode="0" horiz-adv-x="693" 
d="M346 -22q-67 0 -123 76.5t-89.5 236t-33.5 407.5q0 249 33.5 409t89.5 237.5t123 77.5q68 0 124 -77.5t89.5 -237.5t33.5 -409q0 -248 -33.5 -407.5t-89.5 -236t-124 -76.5zM346 40q37 0 70.5 43.5t60 128t41.5 207t15 279.5q0 158 -15 281t-41.5 208.5t-60 130
t-70.5 44.5q-36 0 -69.5 -44.5t-60 -130t-41.5 -208.5t-15 -281q0 -157 15 -279.5t41.5 -207t60 -128t69.5 -43.5z" />
    <glyph glyph-name="one" unicode="1" horiz-adv-x="458" 
d="M85 0v60h111v1204q-3 -17 -24.5 -35.5t-47.5 -32.5t-44 -19v74q21 8 39 21t33 34.5t27 54.5t19 81h58v-1382h115v-60h-286z" />
    <glyph glyph-name="two" unicode="2" horiz-adv-x="607" 
d="M389 -11q-31 0 -53.5 9t-42.5 20t-40.5 20t-47.5 9q-38 0 -57.5 -16t-22.5 -31h-63q0 155 28.5 272.5t73.5 209.5t96 168t96 145.5t73.5 143.5t28.5 163q0 106 -24 161.5t-64.5 76t-89.5 20.5q-39 0 -69 -20.5t-47 -49t-17 -54.5q0 -21 1 -31.5t2 -19.5t1 -27
q0 -31 -10.5 -42.5t-25.5 -11.5t-26 14t-11 55q0 64 23.5 120.5t72.5 92.5t124 36q39 0 79 -13.5t73.5 -47.5t54 -94.5t20.5 -155.5q0 -88 -19 -157t-51 -127t-71 -113t-79 -115t-76 -132t-61.5 -164t-34.5 -212q4 4 14 9.5t26.5 10.5t39.5 5q25 0 55.5 -14.5t60.5 -29
t53 -14.5q35 0 56.5 30.5t21.5 115.5h60v-26q0 -61 -15.5 -103t-45 -64t-70.5 -22z" />
    <glyph glyph-name="three" unicode="3" horiz-adv-x="613" 
d="M287 -24q-75 0 -121 36t-67 93.5t-21 121.5q0 40 11.5 54t26.5 14t24 -13t9 -46q0 -18 -1 -28.5t-2 -22.5t-1 -34q0 -38 37 -76.5t98 -38.5q52 0 95 27t68.5 96.5t25.5 196.5q0 121 -29.5 190.5t-70 102.5t-74 42t-42.5 9v64q9 0 43.5 9.5t75.5 43t71 104.5t30 194
q0 116 -48.5 181.5t-135.5 65.5q-61 0 -101.5 -35t-40.5 -72q0 -26 0.5 -40t1 -24.5t0.5 -28.5q0 -33 -9 -45.5t-24 -12.5t-26.5 14t-11.5 55q0 64 23 120.5t72 92.5t125 36q75 0 128 -39t81.5 -108.5t28.5 -159.5q0 -83 -18.5 -152.5t-49 -120.5t-67 -79.5t-72.5 -29.5
q36 -1 72.5 -28t67 -77t49 -118.5t18.5 -151.5q0 -97 -26.5 -184.5t-81.5 -142.5t-141 -55z" />
    <glyph glyph-name="four" unicode="4" horiz-adv-x="547" 
d="M193 0v60h112v313h-265v60l220 829q11 39 22.5 82.5t22.5 82.5h60v-994h26q23 0 31.5 26t8.5 88h56v-174h-122v-313h113v-60h-285zM102 429l-2 4h207v787l-40 -171z" />
    <glyph glyph-name="five" unicode="5" horiz-adv-x="696" 
d="M302 -24q-75 0 -120 36t-64.5 93.5t-19.5 121.5q0 40 11.5 54t26.5 14t24 -13t9 -46q0 -18 -1.5 -28.5t-3.5 -20.5t-2 -29q0 -24 11 -53t39 -49.5t79 -20.5q72 0 114.5 43t61 132t18.5 225q0 114 -13.5 188t-37 116t-53.5 59t-63 17q-49 0 -78.5 -18.5t-47 -52
t-32.5 -77.5l-60 11l51 722h60q7 -20 33.5 -40.5t65 -34.5t81.5 -14q59 0 88.5 24.5t29.5 64.5h49q0 -56 -23 -89t-61 -46.5t-83 -13.5q-39 0 -71 9t-56 22t-38.5 24.5t-18.5 17.5l-36 -537q7 22 26 44t52 36.5t80 14.5q45 0 85.5 -24t72.5 -76t50 -137.5t18 -208.5
q0 -136 -23 -225.5t-61 -140.5t-82.5 -72.5t-86.5 -21.5z" />
    <glyph glyph-name="six" unicode="6" horiz-adv-x="655" 
d="M327 -24q-75 0 -121.5 58t-71.5 157t-34 222.5t-9 255.5q0 130 10.5 262.5t38 243.5t78 179t129.5 68q51 0 89.5 -36t60 -92.5t21.5 -120.5q0 -41 -11.5 -55t-26.5 -14t-26.5 17t-11.5 48q0 23 1.5 35t2.5 23t1 31q0 26 -13 49t-36.5 38t-57.5 15q-46 0 -78 -39t-53 -105
t-32.5 -147.5t-16 -166.5t-4.5 -162q5 25 30 58.5t67.5 59.5t97.5 26t95.5 -29.5t67.5 -86t40 -137.5t13 -184q0 -100 -14.5 -186t-44 -150t-74.5 -99.5t-107 -35.5zM327 35q49 0 87 38.5t60 129t22 244.5q0 131 -13.5 212t-48 118.5t-96.5 37.5q-49 0 -87 -33.5t-62 -86.5
t-31 -113q0 -108 9 -206.5t28.5 -175.5t52 -121t79.5 -44z" />
    <glyph glyph-name="seven" unicode="7" horiz-adv-x="620" 
d="M269 -20q-17 0 -25 14.5t-10.5 45.5t-2.5 80q0 152 27 295t66.5 274.5t79.5 249.5t67 220.5t27 187.5q-3 -3 -17.5 -7t-38 -6.5t-55.5 -2.5q-36 0 -61.5 6.5t-46 12.5t-41.5 6t-43.5 -6.5t-38.5 -34t-18 -91.5h-56v176h480q0 -30 -3 -64t-9 -70.5t-14.5 -75.5
t-18.5 -79.5t-22 -81.5q-17 -61 -37 -122t-40 -120q-44 -128 -77.5 -296.5t-33.5 -370.5q0 -49 -2.5 -80t-10.5 -45.5t-25 -14.5z" />
    <glyph glyph-name="eight" unicode="8" horiz-adv-x="655" 
d="M311 -20q-45 0 -87 18.5t-74.5 58t-52 103t-19.5 153.5q0 95 23 169t57 127.5t69.5 88.5t59.5 53l40 -36q-29 -26 -72.5 -75.5t-77 -127t-33.5 -190.5q0 -154 49.5 -219t122.5 -65q74 0 128 66.5t54 208.5q0 98 -19.5 160.5t-65 118t-124.5 130.5q-42 41 -83.5 102
t-69 137t-27.5 161t27 153t75 108.5t111 40.5q57 0 104 -31.5t75 -98t28 -172.5q0 -85 -21 -151t-51.5 -114.5t-61 -79.5t-50.5 -46l-43 33q25 19 64 64.5t70 119t31 176.5q0 62 -14 117.5t-45.5 90.5t-85.5 35q-49 0 -82.5 -34t-51 -89.5t-17.5 -121.5q0 -73 23 -141.5
t61.5 -126t84.5 -98.5q40 -35 79.5 -76.5t71.5 -92.5t51.5 -115.5t19.5 -147.5q0 -87 -20 -151.5t-55.5 -107t-80.5 -64t-95 -21.5z" />
    <glyph glyph-name="nine" unicode="9" horiz-adv-x="655" 
d="M331 1422q75 0 121.5 -58t71.5 -157t34 -222.5t9 -255.5q0 -130 -10.5 -262.5t-38 -243.5t-78 -179t-129.5 -68q-51 0 -89.5 36t-60 93t-21.5 120q0 41 11.5 55t26.5 14t26.5 -16.5t11.5 -48.5q0 -23 -1 -35t-2.5 -23t-1.5 -31q0 -25 13 -48.5t37 -38.5t57 -15
q46 0 78 39t53 105t32.5 147.5t16 166.5t4.5 162q-4 -24 -29.5 -58t-67.5 -60t-98 -26q-55 0 -95.5 29.5t-67.5 86t-40 137.5t-13 184q0 100 14.5 186t44 150t75 99.5t106.5 35.5zM331 1363q-49 0 -87 -38.5t-60 -128.5t-22 -245q0 -131 13.5 -212t48 -118.5t96.5 -37.5
q49 0 87 33.5t62.5 86.5t30.5 113q0 108 -9 206.5t-28.5 175.5t-52 121t-79.5 44z" />
    <glyph glyph-name="colon" unicode=":" horiz-adv-x="518" 
d="M193 911q-30 0 -51.5 22.5t-21.5 52.5q0 32 21.5 53t51.5 21t52 -21t22 -53q0 -30 -22 -52.5t-52 -22.5zM193 -15q-30 0 -51.5 22.5t-21.5 52.5q0 32 21.5 53t51.5 21t52 -21t22 -53q0 -30 -22 -52.5t-52 -22.5z" />
    <glyph glyph-name="semicolon" unicode=";" horiz-adv-x="518" 
d="M213 911q-30 0 -51.5 22.5t-21.5 52.5q0 32 21.5 53t51.5 21t52 -21t22 -53q0 -30 -22 -52.5t-52 -22.5zM178 -198l-33 42q21 11 40.5 37.5t31.5 55.5t12 45q0 7 -7 7q-3 0 -8 -2.5t-16 -2.5q-21 0 -37.5 10.5t-26 28t-9.5 37.5q0 29 21 52.5t63 23.5t65.5 -26t23.5 -61
q0 -54 -18 -104t-45.5 -87.5t-56.5 -55.5z" />
    <glyph glyph-name="less" unicode="&#x3c;" horiz-adv-x="784" 
d="M622 95l-467 412v62l467 407v-74l-416 -366l416 -367v-74z" />
    <glyph glyph-name="equal" unicode="=" horiz-adv-x="818" 
d="M98 733v60h622v-60h-622zM98 333v60h622v-60h-622z" />
    <glyph glyph-name="greater" unicode="&#x3e;" horiz-adv-x="784" 
d="M162 95v74l416 367l-416 366v74l467 -407v-62z" />
    <glyph glyph-name="question" unicode="?" horiz-adv-x="516" 
d="M171 253q0 133 23 234.5t57.5 182.5t68.5 152t57 143t23 157q0 124 -37 182t-128 58q-63 0 -96.5 -34t-33.5 -72q0 -21 1.5 -35.5t3 -27.5t1.5 -31q0 -33 -10.5 -45.5t-25.5 -12.5t-27.5 16t-12.5 71q0 75 24.5 126.5t72 78t115.5 26.5q47 0 87 -14.5t70 -48.5t46.5 -91
t16.5 -142q0 -89 -23.5 -162.5t-58 -144.5t-69 -151.5t-58 -180.5t-23.5 -234h-64zM202 -11q-30 0 -51.5 22.5t-21.5 52.5q0 32 21.5 53t51.5 21t52 -21t22 -53q0 -30 -22 -52.5t-52 -22.5z" />
    <glyph glyph-name="at" unicode="@" horiz-adv-x="909" 
d="M456 -22q-67 0 -135.5 35t-125 111.5t-91 201t-34.5 303.5q0 226 42 377.5t109.5 241.5t146.5 129t152 39q102 0 177.5 -58t116.5 -186t41 -339q0 -96 -16.5 -184t-48 -157.5t-75 -109.5t-97.5 -40q-31 0 -47 17.5t-21.5 43.5t-5.5 53q-15 -58 -53.5 -90.5t-85.5 -32.5
q-27 0 -60.5 18.5t-57.5 75t-24 168.5q0 71 11.5 153t36.5 155t65.5 119.5t98.5 46.5q37 0 59.5 -18t33 -41.5t12.5 -40.5l7 78h60l-45 -514q-1 -13 -1.5 -25.5t-0.5 -23.5q0 -28 6 -48.5t27 -20.5q46 0 80.5 58.5t54 154t19.5 207.5q0 260 -63.5 390t-194.5 130
q-78 0 -148.5 -42t-125 -130.5t-86 -226t-31.5 -329.5q0 -176 40.5 -308t112.5 -205.5t165 -73.5q95 0 153.5 41t97.5 101l52 -34q-25 -38 -68 -77.5t-102 -66t-133 -26.5zM416 396q26 0 48 23t39.5 57t28.5 69t13 59l22 236q0 35 -13 71t-35.5 60.5t-51.5 24.5
q-38 0 -64.5 -43t-42.5 -108t-23 -133.5t-7 -119.5q0 -88 21.5 -142t64.5 -54z" />
    <glyph glyph-name="A" unicode="A" horiz-adv-x="638" 
d="M15 0v60h78l182 1344h80l174 -1344h98v-60h-254v60h92l-150 1215h-2l-157 -1215h80v-60h-221zM173 358v58h274v-58h-274z" />
    <glyph glyph-name="B" unicode="B" horiz-adv-x="652" 
d="M60 0v60h94v1280h-94v60h254q50 0 94 -17.5t77 -55t52 -96.5t19 -142q0 -81 -12.5 -143t-35.5 -105t-53.5 -67.5t-65.5 -31.5q37 -1 73 -23.5t66 -66.5t48 -111t18 -159q0 -119 -29 -204.5t-81.5 -131.5t-125.5 -46h-298zM214 60h135q45 0 86 29t67.5 100t26.5 195
q0 118 -34 190t-83 104.5t-96 32.5h-102v-651zM214 771h102q45 0 85 30.5t65.5 100t25.5 187.5q0 111 -27 164.5t-67.5 70t-81.5 16.5h-102v-569z" />
    <glyph glyph-name="C" unicode="C" horiz-adv-x="578" 
d="M353 -20q-126 0 -209.5 180t-83.5 538q0 126 19 253.5t56.5 234t94 171.5t130.5 65q49 0 84 -37t53.5 -94t18.5 -118q0 -41 -11 -55t-29 -14q-19 0 -31 14t-12 44q0 18 3 32.5t6 34t3 51.5q0 38 -23.5 60t-52.5 22q-47 0 -86 -40.5t-68.5 -109.5t-49.5 -155t-30.5 -178.5
t-10.5 -178.5q0 -125 12 -229t33.5 -184t50.5 -135t62.5 -83.5t70.5 -28.5t64 26.5t44.5 63.5t27.5 68l55 -22q-15 -47 -42 -92t-64.5 -74.5t-84.5 -29.5z" />
    <glyph glyph-name="D" unicode="D" horiz-adv-x="678" 
d="M60 0v60h89v1280h-89v60h231q91 0 165 -74t118 -226.5t44 -388.5q0 -238 -44 -396t-118.5 -236.5t-164.5 -78.5h-231zM209 60h57q74 0 139 63.5t105.5 206.5t40.5 381q0 204 -36 344t-92 212.5t-117 72.5h-97v-1280z" />
    <glyph glyph-name="E" unicode="E" horiz-adv-x="618" 
d="M60 0v60h91v1280h-91v60h480v-244h-60q0 81 -4.5 120.5t-19.5 51.5t-49 12h-196v-609h227v100h55v-258h-55v98h-227v-611h196q34 0 49 13t19.5 53t4.5 121h60v-247h-480z" />
    <glyph glyph-name="F" unicode="F" horiz-adv-x="615" 
d="M85 0v60h90v1280h-90v60h451v-244h-61q0 81 -3 120.5t-18.5 51.5t-53.5 12h-165v-609h207v100h60v-258h-60v98h-207v-611h90v-60h-240z" />
    <glyph glyph-name="G" unicode="G" horiz-adv-x="649" 
d="M345 -20q-75 0 -135.5 86t-96 247t-35.5 385q0 239 41 399.5t107 241.5t141 81q62 0 99 -36t53.5 -92.5t16.5 -118.5q0 -41 -11 -55t-29 -14q-17 0 -29 15t-12 43q0 18 3.5 33t7 33.5t3.5 47.5q0 32 -26.5 58t-73.5 26q-58 0 -100.5 -61.5t-70.5 -161t-42 -215.5
t-14 -224q0 -153 17 -275t46.5 -208t67.5 -131.5t80 -45.5q37 0 65.5 13t41.5 25v497h-95v60h246v-60h-91v-573h-47q-1 2 -4.5 3.5t-7.5 1.5q-10 0 -24.5 -6t-36.5 -12.5t-55 -6.5z" />
    <glyph glyph-name="H" unicode="H" horiz-adv-x="756" 
d="M60 0v60h89v1280h-89v60h238v-60h-89v-589h336v589h-89v60h242v-60h-93v-1280h93v-60h-242v60h89v631h-336v-631h89v-60h-238z" />
    <glyph glyph-name="I" unicode="I" horiz-adv-x="385" 
d="M69 0v60h93v1280h-93v60h247v-60h-94v-1280h94v-60h-247z" />
    <glyph glyph-name="J" unicode="J" horiz-adv-x="515" 
d="M196 -27q-54 0 -89 26.5t-52 80t-17 134.5q0 45 12.5 62t31.5 17t29.5 -14t10.5 -44q0 -18 -3.5 -32.5t-7.5 -33.5t-4 -51q0 -35 25.5 -59t62.5 -24q54 0 90.5 52t36.5 197v1056h-97v60h250v-60h-93v-993q0 -109 -13.5 -181.5t-38.5 -114.5t-59 -60t-75 -18z" />
    <glyph glyph-name="K" unicode="K" horiz-adv-x="638" 
d="M42 0v60h93v1280h-93v60h247v-60h-94v-591l263 591h-83v60h216v-60h-64l-294 -649l-8 58l277 -689h89v-60h-231v60h73l-248 624l10 3v-627h94v-60h-247z" />
    <glyph glyph-name="L" unicode="L" horiz-adv-x="556" 
d="M69 0v60h91v1280h-91v60h242v-60h-91v-1280h153q23 0 37 13t21 53t7 121h60v-247h-429z" />
    <glyph glyph-name="M" unicode="M" horiz-adv-x="900" 
d="M49 0v60h91v1280h-82v60h195l202 -1271h-6l207 1271h193v-60h-80v-1280h93v-60h-244v60h91v1296h2l-218 -1289h-82l-213 1273h2v-1280h98v-60h-249z" />
    <glyph glyph-name="N" unicode="N" horiz-adv-x="764" 
d="M35 0v60h92v1280h-92v60h196l349 -1286h-2v1226h-93v60h244v-60h-89v-1340h-98l-355 1327h2v-1267h107v-60h-261z" />
    <glyph glyph-name="O" unicode="O" horiz-adv-x="662" 
d="M329 -22q-91 0 -151 95t-89 257.5t-29 367.5q0 206 29 369.5t89 259t151 95.5q92 0 152.5 -95.5t90.5 -259t30 -369.5q0 -205 -30 -367.5t-90.5 -257.5t-152.5 -95zM329 38q51 0 90 50.5t65.5 141t40 210.5t13.5 258t-13.5 258.5t-40 211.5t-65.5 142.5t-90 51.5
t-89.5 -51.5t-64 -142.5t-38.5 -211.5t-13 -258.5t13 -258t38.5 -210.5t64 -141t89.5 -50.5z" />
    <glyph glyph-name="P" unicode="P" horiz-adv-x="638" 
d="M58 0v60h104v1280h-104v60h289q40 0 82 -19t78.5 -63t59 -118.5t22.5 -184.5q0 -113 -23 -197.5t-59.5 -140t-79 -83t-80.5 -27.5h-125v-507h103v-60h-267zM222 627h109q46 0 90.5 44t74 130.5t29.5 214.5q0 121 -27.5 192t-70 101.5t-89.5 30.5h-116v-713z" />
    <glyph glyph-name="Q" unicode="Q" horiz-adv-x="662" 
d="M583 -332q-22 0 -35 20t-13 48q0 27 6 50t12 52t6 74q0 33 -20.5 73.5t-67.5 40.5q-12 0 -29.5 -7t-28.5 -15l20 56q5 4 18 10t40 6q72 0 110.5 -76.5t38.5 -207.5q0 -63 -15 -93.5t-42 -30.5zM329 -22q-91 0 -151 95t-89 257.5t-29 367.5q0 206 29 369.5t89 259
t151 95.5q92 0 152.5 -95.5t90.5 -259t30 -369.5q0 -205 -30 -367.5t-90.5 -257.5t-152.5 -95zM329 38q51 0 90 50.5t65.5 141t40 210.5t13.5 258t-13.5 258.5t-40 211.5t-65.5 142.5t-90 51.5t-89.5 -51.5t-64 -142.5t-38.5 -211.5t-13 -258.5t13 -258t38.5 -210.5t64 -141
t89.5 -50.5z" />
    <glyph glyph-name="R" unicode="R" horiz-adv-x="715" 
d="M609 -15q-43 0 -64 30t-27.5 79t-6.5 106q0 50 2 104t2 107q0 115 -15 175t-62.5 82.5t-144.5 22.5h-71v-631h93v-60h-246v60h93v1280h-93v60h287q73 0 127 -33.5t83.5 -105t29.5 -186.5q0 -88 -15 -153.5t-41.5 -108.5t-63 -65.5t-78.5 -25.5q77 0 115.5 -37
t51.5 -104.5t13 -158.5q0 -48 -1.5 -100t-1.5 -102q0 -36 2.5 -79t11 -74t24.5 -31q7 0 14.5 11t7.5 24h54q0 -28 -13 -47t-31.5 -29t-35.5 -10zM222 751h105q75 0 120.5 43.5t66.5 116t21 160.5q0 81 -15 141.5t-56.5 94t-121.5 33.5h-120v-589z" />
    <glyph glyph-name="S" unicode="S" horiz-adv-x="549" 
d="M297 -27q-37 0 -63 12t-44.5 28t-31.5 28t-23 12q-18 0 -18 -53h-48v267h60q2 -35 11 -69t23.5 -63.5t35 -51.5t46.5 -34.5t56 -12.5q57 0 85.5 32.5t38 88.5t9.5 127q0 76 -26.5 151.5t-68 146.5t-87.5 133q-73 100 -111.5 179t-52.5 144t-14 120q0 80 25 139.5t70 92
t103 32.5q48 0 72.5 -17t37 -34.5t23.5 -17.5t16.5 11.5t5.5 35.5h48v-265h-60q-2 45 -11.5 86t-27 72t-43 49t-59.5 18q-61 0 -97 -47t-36 -135q0 -59 8 -111.5t38.5 -117t95.5 -160.5q53 -76 103 -160t82.5 -172.5t32.5 -178.5q0 -69 -11 -125t-34.5 -96t-62.5 -62
t-96 -22z" />
    <glyph glyph-name="T" unicode="T" horiz-adv-x="649" 
d="M185 0v60h110v1280h-115q-41 0 -58 -12t-20.5 -51.5t-3.5 -120.5h-60v244h573v-244h-60q0 81 -3.5 120.5t-20.5 51.5t-58 12h-114v-1280h114v-60h-284z" />
    <glyph glyph-name="U" unicode="U" horiz-adv-x="685" 
d="M342 -24q-40 0 -77.5 15.5t-67 50.5t-47 94t-17.5 146v1058h-95v60h247v-60h-92v-1044q0 -150 43 -204t106 -54q32 0 59.5 12.5t48 41.5t32 79t11.5 125v1044h-82v60h236v-60h-94v-1058q0 -116 -30 -183t-78 -95t-103 -28z" />
    <glyph glyph-name="V" unicode="V" horiz-adv-x="644" 
d="M273 -4l-175 1344h-80v60h222v-60h-80l158 -1253h-2l151 1253h-91v60h255v-60h-98l-168 -1344h-92z" />
    <glyph glyph-name="W" unicode="W" horiz-adv-x="976" 
d="M275 -4l-140 1344h-106v60h269v-60h-100l127 -1267h-9l155 1269l16 -131l-20 129h-107v60h275v-60h-104l165 -1267h-7l122 1267h-84v60h240v-60h-89l-145 -1344h-86l-154 1197l22 20l-155 -1217h-85z" />
    <glyph glyph-name="X" unicode="X" horiz-adv-x="698" 
d="M413 0v60h94l-358 1280h-91v60h247v-60h-92l358 -1280h94v-60h-252zM20 0v60h96l213 673l55 -40l-204 -633h93v-60h-253zM385 698l-47 49l186 593h-93v60h249v-60h-93z" />
    <glyph glyph-name="Y" unicode="Y" horiz-adv-x="638" 
d="M200 0v60h93v529l-175 751h-89v60h236v-60h-74l156 -722h-40l169 722h-74v60h229v-60h-91l-187 -751v-529h83v-60h-236z" />
    <glyph glyph-name="Z" unicode="Z" horiz-adv-x="558" 
d="M58 0v60l351 1280h-122q-76 0 -109.5 -12t-42 -51.5t-8.5 -120.5h-60v244h413v-58l-358 -1282h174q69 0 98.5 13t36.5 53t7 121h60v-247h-440z" />
    <glyph glyph-name="bracketleft" unicode="[" horiz-adv-x="284" 
d="M38 -440v1940h207v-60h-147v-1820h147v-60h-207z" />
    <glyph glyph-name="backslash" unicode="\" horiz-adv-x="638" 
d="M609 -104h-64l-505 1608h62z" />
    <glyph glyph-name="bracketright" unicode="]" horiz-adv-x="364" 
d="M326 -440h-207v60h147v1820h-147v60h207v-1940z" />
    <glyph glyph-name="asciicircum" unicode="^" horiz-adv-x="844" 
d="M113 949l272 451h75l271 -451h-71l-237 391l-239 -391h-71z" />
    <glyph glyph-name="underscore" unicode="_" horiz-adv-x="878" 
d="M15 -213v60h850v-60h-850z" />
    <glyph glyph-name="grave" unicode="`" horiz-adv-x="587" 
d="M369 1275l-194 89q-23 11 -36 21t-13 32q0 20 12.5 29.5t31.5 9.5q18 0 30.5 -7t25.5 -18l163 -131z" />
    <glyph glyph-name="a" unicode="a" horiz-adv-x="550" 
d="M242 -20q-55 0 -96 28t-63.5 85t-22.5 143q0 90 32 150t79.5 102.5t95 78t79.5 73.5t32 91q0 78 -11 136.5t-37.5 91t-73.5 32.5q-52 0 -86 -39t-34 -87q0 -19 3 -28.5t5.5 -18t2.5 -24.5q0 -23 -9 -39.5t-29 -16.5q-19 0 -27.5 17t-8.5 47q0 71 22.5 128t63.5 90t97 33
t96.5 -29.5t63 -94.5t22.5 -173v-645q0 -35 9.5 -47.5t27.5 -12.5q14 0 23 4.5t13 9.5l29 -54q-10 -9 -29 -14.5t-42 -5.5q-20 0 -39 9t-31 28.5t-12 51.5q-7 -21 -23.5 -44.5t-46 -39.5t-75.5 -16zM242 42q46 0 76 34.5t45 79t15 73.5v373q-2 -28 -40 -57t-86.5 -67.5
t-85.5 -96.5t-37 -145q0 -95 28.5 -144.5t84.5 -49.5z" />
    <glyph glyph-name="b" unicode="b" horiz-adv-x="580" 
d="M315 -20q-44 0 -71 27t-40.5 63.5t-16.5 64.5v-135h-169v60h109v1380h-109v60h169v-584q5 22 20.5 54t44.5 56.5t73 24.5q60 0 102 -52t64 -169t22 -312q0 -191 -24 -309.5t-68 -173.5t-106 -55zM315 42q34 0 59 28.5t41.5 87t25 147t8.5 208.5q0 104 -7 189.5
t-22.5 147.5t-39.5 96t-58 34q-37 0 -66 -36.5t-46.5 -86.5t-22.5 -90v-429q4 -60 19 -129t42.5 -118t66.5 -49z" />
    <glyph glyph-name="c" unicode="c" horiz-adv-x="518" 
d="M293 -20q-70 0 -117 52t-75 135.5t-40 180.5t-12 187q0 121 19 217t52.5 163t77.5 102.5t93 35.5q58 0 95 -37.5t55 -95t18 -118.5q0 -30 -8.5 -47t-27.5 -17t-28.5 16t-9.5 39q0 16 3 24t6 18t3 30q0 56 -29 91t-77 35q-45 0 -78 -37t-55 -100t-32.5 -144t-10.5 -170
q0 -82 9 -169.5t29.5 -162t54.5 -120.5t85 -46q50 0 78 24t44 70l45 -36q-15 -35 -54 -77.5t-113 -42.5z" />
    <glyph glyph-name="d" unicode="d" horiz-adv-x="583" 
d="M271 -20q-61 0 -104 55t-66 173.5t-23 309.5q0 195 23.5 312t66 169t99.5 52q44 0 72.5 -21t44.5 -50.5t21 -55.5v516h-109v60h169v-1440h108v-60h-168v135q-3 -26 -18.5 -63t-43.5 -64.5t-72 -27.5zM278 42q36 0 62.5 44t43.5 108t21 124v449q-5 50 -24.5 99t-48 81.5
t-61.5 32.5q-38 0 -63 -36.5t-39.5 -101t-20.5 -149t-6 -180.5q0 -120 8 -208.5t24 -147t42 -87t62 -28.5z" />
    <glyph glyph-name="e" unicode="e" horiz-adv-x="492" 
d="M252 -22q-67 0 -107.5 50.5t-61 132t-27 177.5t-6.5 187q0 126 13 224.5t39 166t64 102.5t88 35q58 0 93.5 -41t54 -106.5t25 -142t6.5 -147.5v-43t-1 -41h-331v60h267q0 104 -9 195.5t-33.5 148.5t-71.5 57q-44 0 -75.5 -56t-48 -154.5t-16.5 -226.5q0 -93 5 -184.5
t19 -166.5t41.5 -120t72.5 -45q53 0 80 34.5t35 65.5l54 -22q-14 -57 -60.5 -98.5t-108.5 -41.5z" />
    <glyph glyph-name="f" unicode="f" horiz-adv-x="418" 
d="M49 0v60h106v927h-117v60h117v164q0 108 19 174t54 96t81 30q65 0 98 -65.5t33 -165.5q0 -30 -9 -47t-29 -17q-19 0 -28 15t-9 38q0 16 3 27t5.5 24t2.5 33q0 35 -17.5 66.5t-49.5 31.5q-23 0 -40.5 -14.5t-29.5 -43.5t-18 -72.5t-6 -102.5v-171h118v-60h-118v-927h107
v-60h-273z" />
    <glyph glyph-name="g" unicode="g" horiz-adv-x="565" 
d="M289 -498q-85 0 -137.5 40.5t-76.5 102t-24 124.5q0 60 12 102.5t30.5 71t39.5 45.5t38 25q-10 2 -27 10.5t-34.5 25.5t-30 44.5t-12.5 66.5q0 42 16.5 71t39 44t40.5 15h7.5t5.5 -1q-15 13 -29.5 41.5t-26 71.5t-18 100t-6.5 127q0 119 13.5 200t39 130.5t62 71.5
t82.5 22q66 0 106 -49.5t58.5 -139.5t18.5 -213q0 -106 -12 -185t-35.5 -131.5t-59 -78t-82.5 -25.5q-37 0 -55.5 10.5t-20.5 11.5q-1 1 -3 1.5t-6 0.5q-23 0 -48 -25t-25 -63q0 -53 34.5 -80t127.5 -38q128 -13 183 -79t55 -186q0 -68 -18 -120.5t-50.5 -88.5t-76 -54.5
t-95.5 -18.5zM289 -442q80 0 129 58t49 149q0 113 -33.5 160.5t-115.5 59.5q-21 3 -39 6t-31 5.5t-19 3.5q-42 -23 -67 -59t-36 -78t-11 -85q0 -51 18.5 -101.5t57 -84.5t98.5 -34zM287 291q35 0 63 29.5t44.5 107t16.5 219.5q0 139 -16 213.5t-43 103.5t-61 29t-63.5 -29
t-47.5 -105.5t-18 -218.5q0 -139 17.5 -214.5t46 -105t61.5 -29.5zM356 996q7 48 43 77t73 29q33 0 46.5 -13t13.5 -38q0 -19 -11 -32.5t-31 -13.5q-14 0 -21.5 7t-13.5 14t-19 7q-14 0 -23.5 -12.5t-9.5 -29.5z" />
    <glyph glyph-name="h" unicode="h" horiz-adv-x="667" 
d="M35 0v60h101v1380h-101v60h161v-582q3 21 26 53.5t60.5 58t82.5 25.5q39 0 78 -22.5t65.5 -88.5t26.5 -197v-687h103v-60h-251v60h88v660q0 146 -28.5 208.5t-93.5 62.5q-42 0 -77.5 -38t-57 -91.5t-22.5 -101.5v-700h88v-60h-249z" />
    <glyph glyph-name="i" unicode="i" horiz-adv-x="347" 
d="M40 0v60h109v927h-109v60h169v-987h111v-60h-280zM176 1291q-30 0 -50 19.5t-20 47.5q0 29 20 49t50 20q26 0 46 -20t20 -49q0 -28 -20 -47.5t-46 -19.5z" />
    <glyph glyph-name="j" unicode="j" horiz-adv-x="313" 
d="M35 -498q-43 0 -72 27t-44 74t-15 108q0 30 10.5 47.5t29.5 17.5q20 0 30 -16t10 -38q0 -16 -2 -32t-4.5 -33t-2.5 -37q0 -27 10 -39t24 -14.5t26 -2.5q59 0 91 71.5t32 204.5v1147h-109v60h169v-1158q0 -100 -13 -173t-37.5 -120.5t-58 -70.5t-74.5 -23zM184 1291
q-30 0 -50.5 19.5t-20.5 47.5q0 29 20.5 49t50.5 20q27 0 46 -20t19 -49q0 -28 -19 -47.5t-46 -19.5z" />
    <glyph glyph-name="k" unicode="k" horiz-adv-x="630" 
d="M43 0v60h102v1380h-102v60h162v-860l190 347h-77v60h218v-60h-76l-169 -312l236 -615h85v-60h-243v60h87l-207 542l-44 -86v-456h93v-60h-255z" />
    <glyph glyph-name="l" unicode="l" horiz-adv-x="335" 
d="M49 0v60h89v1380h-89v60h147v-1440h91v-60h-238z" />
    <glyph glyph-name="m" unicode="m" horiz-adv-x="913" 
d="M39 0v60h96v927h-96v60h156v-116q4 21 21.5 49.5t50.5 49.5t82 21q54 0 84 -29t42 -62t12 -45q6 30 28 61.5t59 53t86 21.5q82 0 113.5 -73t31.5 -171v-747h93v-60h-247v60h94v620q0 91 -4.5 159.5t-25 106.5t-68.5 38q-51 0 -83.5 -41.5t-48.5 -103.5t-17 -123v-656h95
v-60h-248v60h93v620q0 137 -14.5 220.5t-87.5 83.5q-50 0 -81 -42t-45 -104t-15 -122v-656h92v-60h-248z" />
    <glyph glyph-name="n" unicode="n" horiz-adv-x="646" 
d="M35 0v60h100v927h-100v60h160v-114q7 31 30 58.5t57.5 44.5t74.5 17q33 0 70 -19.5t63.5 -80.5t26.5 -186v-707h100v-60h-258v60h98v680q0 137 -29 193t-89 56q-31 0 -57.5 -22.5t-46 -58t-30 -75.5t-10.5 -75v-698h98v-60h-258z" />
    <glyph glyph-name="o" unicode="o" horiz-adv-x="545" 
d="M268 -22q-51 0 -91.5 38t-69 109.5t-43 173t-14.5 228.5q0 139 16 239t45 163.5t69 93.5t88 30q47 0 86.5 -30t69 -93.5t46 -163.5t16.5 -239q0 -127 -15 -228.5t-43.5 -173t-69 -109.5t-90.5 -38zM268 36q64 0 108 122t44 369q0 242 -44 355t-108 113q-66 0 -110.5 -113
t-44.5 -355q0 -247 44.5 -369t110.5 -122z" />
    <glyph glyph-name="p" unicode="p" horiz-adv-x="560" 
d="M27 -500v60h100v1427h-100v60h160v-123q7 23 24 52.5t45.5 52t68.5 22.5q50 0 93 -52t69 -169t26 -312q0 -191 -26 -309.5t-71 -173.5t-101 -55q-39 0 -66.5 24t-43 56t-18.5 55v-555h100v-60h-260zM316 49q35 0 60 36t41.5 99.5t24 148.5t7.5 182q0 96 -7.5 179.5
t-23 146.5t-39.5 98.5t-57 35.5q-43 0 -71.5 -40.5t-43.5 -94t-20 -93.5v-409q4 -60 17.5 -127t40.5 -114.5t71 -47.5z" />
    <glyph glyph-name="q" unicode="q" horiz-adv-x="607" 
d="M313 -500v60h107v555q-2 -23 -17.5 -55t-43 -56t-66.5 -24q-56 0 -101 55t-71 173.5t-26 309.5q0 195 26 312t68.5 169t92.5 52q40 0 68.5 -22.5t46 -52t23.5 -52.5v123h60v-1487h109v-60h-276zM291 49q45 0 72 47.5t40.5 114.5t16.5 127v409q-4 40 -19.5 93.5t-44 94
t-71.5 40.5q-33 0 -57 -36t-39.5 -99t-23 -147t-7.5 -180q0 -97 7.5 -181.5t24 -148t41.5 -99t60 -35.5z" />
    <glyph glyph-name="r" unicode="r" horiz-adv-x="479" 
d="M24 0v60h101v927h-101v60h161v-107q1 9 17.5 36.5t47.5 52t77 24.5q43 0 69 -31.5t37.5 -86t11.5 -124.5q0 -37 -10 -55t-30 -18q-17 0 -27.5 14t-10.5 44q0 16 3 26.5t5.5 25t2.5 39.5q0 52 -18.5 74.5t-44.5 22.5q-43 0 -72 -35.5t-43.5 -84.5t-14.5 -89v-715h104v-60
h-265z" />
    <glyph glyph-name="s" unicode="s" horiz-adv-x="480" 
d="M251 -22q-48 0 -72.5 12t-36.5 23.5t-23 11.5q-10 0 -14 -7t-4 -18h-46v267h55q4 -68 12.5 -112.5t24 -70t40 -36t60.5 -10.5q42 0 66.5 27t35 66t10.5 75q0 59 -12.5 110.5t-43 104t-85.5 113.5q-60 69 -104.5 141.5t-44.5 177.5q0 64 23 108.5t60 68t79 23.5
q37 0 59 -7.5t34.5 -15.5t20.5 -8t10.5 6.5t3.5 18.5h48v-258h-54q-4 68 -12.5 108.5t-23.5 61t-35.5 27.5t-48.5 7q-48 0 -76 -36t-28 -100q0 -75 32 -135t99 -139q59 -70 95.5 -129.5t53 -115t16.5 -114.5q0 -64 -19.5 -120t-58 -91t-96.5 -35z" />
    <glyph glyph-name="t" unicode="t" horiz-adv-x="356" 
d="M222 -18q-24 0 -47.5 9.5t-39 36.5t-15.5 81v878h-113v60h113v89v97.5v86.5h60v-273h135v-60h-135v-878q0 -43 15.5 -56t31.5 -13q21 0 34 9.5t21 19.5l36 -47q-13 -15 -39.5 -27.5t-56.5 -12.5z" />
    <glyph glyph-name="u" unicode="u" horiz-adv-x="618" 
d="M291 -22q-43 0 -82 20.5t-63 78.5t-24 170v740h-104v59h164v-795q0 -87 16.5 -132t42.5 -61t54 -16q48 0 81 48t49.5 120t16.5 145v632h-106v59h166v-986h94v-60h-149v135q-4 -32 -22 -68.5t-51 -62.5t-83 -26z" />
    <glyph glyph-name="v" unicode="v" horiz-adv-x="585" 
d="M264 -7l-148 994h-87v60h226v-60h-73l123 -892l122 892h-72v60h225v-60h-87l-148 -994h-81z" />
    <glyph glyph-name="w" unicode="w" horiz-adv-x="887" 
d="M575 -7l-133 994h-97v60h226v-60h-69l118 -912l107 912h-76v60h218v-60h-80l-120 -994h-94zM222 -7l-122 994h-80v60h220v-60h-78l107 -912l118 912h-69v60h222v-60h-93l-131 -994h-94z" />
    <glyph glyph-name="x" unicode="x" horiz-adv-x="584" 
d="M20 0v60h93l156 495l9 20l129 412h-85v60h231v-60h-84l-151 -469l-5 -27l-135 -431h77v-60h-235zM335 0v60h74l-280 927h-84v60h135h87v-60h-72l280 -927h80v-60h-135h-85z" />
    <glyph glyph-name="y" unicode="y" horiz-adv-x="571" 
d="M155 -502q-34 0 -53.5 27t-28 74t-8.5 108q0 30 8.5 47t26.5 17q20 0 27.5 -15.5t7.5 -37.5q0 -16 -3 -28t-6.5 -24.5t-3.5 -32.5q0 -28 7 -57t26 -29q13 0 21 15.5t14.5 44t13.5 66.5l67 356l-162 958h-82v60h218v-60h-72l127 -755l125 755h-74v60h222v-60h-82
l-169 -994l-64 -337q-10 -54 -23.5 -89t-32.5 -52t-47 -17z" />
    <glyph glyph-name="z" unicode="z" horiz-adv-x="467" 
d="M71 0v60l256 927h-102q-43 0 -62 -12t-23 -54t-4 -132h-58v258h309v-60l-256 -927h91q53 0 75 13.5t27 58t5 135.5h60v-267h-318z" />
    <glyph glyph-name="braceleft" unicode="{" horiz-adv-x="409" 
d="M340 -320q-22 0 -56.5 10.5t-68.5 45t-57 105.5t-23 192q0 76 12 142t23.5 127t11.5 122q0 65 -16.5 101.5t-61.5 36.5v58q45 0 61.5 36.5t16.5 103.5q0 61 -11.5 121.5t-23.5 126.5t-12 141q0 121 23 192t57 105.5t68.5 45t56.5 10.5v-60q-12 0 -35.5 -9t-48 -38.5
t-41.5 -89t-17 -161.5q0 -73 12.5 -137t24.5 -124.5t12 -122.5q0 -91 -26 -125t-54 -42q28 -11 54 -44.5t26 -124.5q0 -62 -12 -123t-24.5 -125.5t-12.5 -137.5q0 -102 17 -161.5t41.5 -89t48 -38.5t35.5 -9v-60z" />
    <glyph glyph-name="bar" unicode="|" horiz-adv-x="196" 
d="M69 -329v1829h60v-1829h-60z" />
    <glyph glyph-name="braceright" unicode="}" horiz-adv-x="409" 
d="M69 -320v60q12 0 35.5 9t48 38.5t41.5 89t17 161.5q0 73 -12 137.5t-24.5 125.5t-12.5 123q0 91 26 124.5t54 44.5q-28 8 -54 42t-26 125q0 62 12.5 122.5t24.5 124.5t12 137q0 102 -17 161.5t-41.5 89t-48 38.5t-35.5 9v60q23 0 57 -10.5t68 -45t57 -105.5t23 -192
q0 -75 -12 -141t-23.5 -126.5t-11.5 -121.5q0 -67 16.5 -103.5t61.5 -36.5v-58q-45 0 -61.5 -36.5t-16.5 -101.5q0 -61 11.5 -122t23.5 -127t12 -142q0 -121 -23 -192t-57 -105.5t-68 -45t-57 -10.5z" />
    <glyph glyph-name="asciitilde" unicode="~" horiz-adv-x="742" 
d="M506 1275q-59 0 -102 22t-82.5 44t-90.5 22q-47 0 -80 -28t-41 -44l-60 46q10 17 31.5 39.5t59 40t93.5 17.5q60 0 102 -22t81.5 -44.5t89.5 -22.5q32 0 59 15.5t45 35t23 30.5l58 -49q-9 -19 -32.5 -43t-61.5 -41.5t-92 -17.5z" />
    <glyph glyph-name="uni00A0" unicode="&#xa0;" horiz-adv-x="258" 
 />
    <glyph glyph-name="exclamdown" unicode="&#xa1;" horiz-adv-x="218" 
d="M125 874q0 -172 2.5 -322.5t6.5 -277.5t6.5 -230.5t2.5 -183.5q0 -55 -6.5 -101t-31.5 -46q-23 0 -30.5 46t-7.5 101q0 80 2.5 183.5t6.5 230.5t6.5 277.5t2.5 322.5h40zM107 1140q30 0 52 -22.5t22 -52.5q0 -32 -22 -53t-52 -21t-51.5 21t-21.5 53q0 30 21.5 52.5
t51.5 22.5z" />
    <glyph glyph-name="cent" unicode="&#xa2;" horiz-adv-x="498" 
d="M202 -116l62 1225h47l-62 -1225h-47zM293 -20q-70 0 -117 52t-75 135.5t-40 180.5t-12 187q0 121 19 217t52.5 163t77.5 102.5t93 35.5q58 0 95 -37.5t55 -95t18 -118.5q0 -30 -8.5 -47t-27.5 -17t-28.5 16t-9.5 39q0 16 3 24t6 18t3 30q0 56 -29 91t-77 35
q-45 0 -78 -37t-55 -100t-32.5 -144t-10.5 -170q0 -82 9 -169.5t29.5 -162t54.5 -120.5t85 -46q50 0 78 24t44 70l45 -36q-15 -35 -54 -77.5t-113 -42.5z" />
    <glyph glyph-name="sterling" unicode="&#xa3;" horiz-adv-x="553" 
d="M25 727v60h386v-60h-386zM86 -25q-42 0 -62.5 27t-20.5 62q0 46 22.5 80t61 54t84.5 22q3 18 8.5 72.5t5.5 121.5q0 74 -11 154.5t-26 162.5t-26 159.5t-11 145.5q0 119 21 205.5t64 133.5t109 47q86 0 123 -68.5t37 -160.5q0 -30 -8 -47t-28 -17t-28 15.5t-8 37.5
q0 17 1 27.5t1.5 22.5t0.5 32q0 56 -28.5 76t-61.5 20q-48 0 -76.5 -43.5t-41 -116.5t-12.5 -162q0 -81 17 -183.5t34 -213t17 -216.5q0 -47 -3.5 -90t-8 -73.5t-7.5 -43.5q44 -8 72 -35t47.5 -58.5t38 -54.5t42.5 -23q38 0 46 24.5t9 43.5h55q0 -34 -13.5 -63.5t-38 -48
t-56.5 -18.5q-42 0 -66.5 24t-43.5 57t-41 61t-60 36q-15 -97 -51 -142.5t-79 -45.5zM89 35q20 0 41.5 35.5t31.5 93.5q-38 0 -67.5 -27.5t-29.5 -68.5q0 -13 5.5 -23t18.5 -10z" />
    <glyph glyph-name="currency" unicode="&#xa4;" horiz-adv-x="859" 
d="M427 51q-49 0 -102 23.5t-97.5 77.5t-72.5 146t-28 229q0 139 28.5 228t74 138t97.5 68t100 19q47 0 99.5 -19t98 -68t74 -138t28.5 -228q0 -137 -28 -229t-73 -146t-97.5 -77.5t-101.5 -23.5zM427 105q33 0 73.5 17.5t77 62.5t60.5 128t24 214q0 128 -24 207
t-60.5 120.5t-77 56t-73.5 14.5t-73.5 -14.5t-77.5 -56t-61 -120.5t-24 -207q0 -131 24 -214t61 -128t77.5 -62.5t73.5 -17.5zM764 996l46 -46l-163 -158l-41 42zM773 45l-158 162l41 42l163 -158zM92 996l157 -162l-41 -42l-163 158zM83 45l-47 46l163 158l41 -42z" />
    <glyph glyph-name="yen" unicode="&#xa5;" horiz-adv-x="602" 
d="M124 558v60h388v-60h-388zM124 329v60h388v-60h-388zM200 0v60h93v529l-175 751h-89v60h236v-60h-74l156 -722h-40l169 722h-74v60h229v-60h-91l-187 -751v-529h83v-60h-236z" />
    <glyph glyph-name="brokenbar" unicode="&#xa6;" horiz-adv-x="196" 
d="M69 871v629h60v-629h-60zM69 -329v620h60v-620h-60z" />
    <glyph glyph-name="section" unicode="&#xa7;" horiz-adv-x="515" 
d="M229 -378q-52 0 -87.5 27.5t-53 75t-17.5 108.5q0 30 8 47.5t28 17.5t27.5 -16t7.5 -38q0 -16 -1.5 -26t-3 -20.5t-1.5 -30.5q0 -49 34 -67t59 -18q44 0 76 31.5t49 81.5t17 103q0 76 -32.5 139t-81 122.5t-97 122.5t-81 138.5t-32.5 172.5q0 54 13 101t34 86t45 68
t46 45q-46 60 -68.5 111.5t-29.5 101.5t-7 103q0 65 21 112t58.5 73t87.5 26q80 0 114.5 -59.5t34.5 -151.5q0 -30 -8 -47.5t-28 -17.5q-19 0 -27 16t-8 38q0 17 1.5 26t3 19t1.5 30q0 37 -14.5 55.5t-34 25t-35.5 6.5q-49 0 -78 -40t-29 -96q0 -111 32 -184.5t79 -128.5
t94 -109t79 -126t32 -181q0 -69 -23 -127t-57.5 -99.5t-70.5 -64.5q43 -50 71.5 -94.5t42.5 -93t14 -112.5q0 -75 -25 -139.5t-70.5 -103.5t-108.5 -39zM267 249q55 30 91.5 97t36.5 143q0 70 -13 120t-51 104.5t-113 137.5q-46 -46 -78.5 -108.5t-32.5 -129.5
q0 -54 5.5 -93.5t22 -77t48.5 -82.5t84 -111z" />
    <glyph glyph-name="dieresis" unicode="&#xa8;" horiz-adv-x="784" 
d="M502 1238q-26 0 -45 18.5t-19 43.5q0 27 19 47t45 20q25 0 44 -20t19 -47q0 -25 -19 -43.5t-44 -18.5zM287 1238q-24 0 -43.5 18.5t-19.5 43.5q0 27 19.5 47t43.5 20q26 0 46 -20t20 -47q0 -25 -20 -43.5t-46 -18.5z" />
    <glyph glyph-name="copyright" unicode="&#xa9;" horiz-adv-x="1178" 
d="M591 -22q-106 0 -199 54.5t-163.5 152.5t-110.5 228.5t-40 282.5t40 282t110.5 228t163.5 152.5t199 54.5q105 0 197 -54.5t162.5 -152.5t110 -228t39.5 -282t-39.5 -282.5t-110 -228.5t-162.5 -152.5t-197 -54.5zM585 236q-73 0 -119.5 70t-68 179.5t-21.5 225.5
q0 132 28.5 235.5t79 163t114.5 59.5q80 0 115.5 -69.5t35.5 -161.5q0 -30 -8.5 -46.5t-27.5 -16.5t-28 15.5t-9 38.5q0 16 1.5 25.5t3 21t1.5 31.5q0 55 -25.5 77.5t-58.5 22.5q-45 0 -75 -38t-48 -97t-25.5 -125t-7.5 -123q0 -76 8 -151.5t26 -137.5t47.5 -99t72.5 -37
q52 0 88 38t51 74l36 -53q-30 -62 -78.5 -92t-107.5 -30zM591 40q94 0 175 51t141.5 141t94 209t33.5 255t-33.5 254.5t-94 208.5t-141.5 141t-175 51q-96 0 -177 -51t-141.5 -141t-94 -208.5t-33.5 -254.5t33.5 -255t94 -209t141.5 -141t177 -51z" />
    <glyph glyph-name="ordfeminine" unicode="&#xaa;" horiz-adv-x="499" 
d="M224 1127q-48 0 -83.5 21.5t-35.5 79.5q0 44 31.5 69t72 40t72 27t31.5 29q0 41 -7.5 56t-51.5 15q-31 0 -50.5 -6.5t-19.5 -18.5q0 -8 1.5 -13t1.5 -13q0 -14 -7 -25.5t-24 -11.5q-16 0 -24.5 12.5t-8.5 29.5q0 38 39 66t98 28q66 0 92 -33t26 -92v-178q0 -28 26 -28
q16 0 24 10l20 -45q-5 -5 -22.5 -10.5t-40.5 -5.5q-25 0 -45.5 14t-22.5 37q-5 -13 -29 -33.5t-63 -20.5zM232 1183q27 0 53.5 18t26.5 44v87q-5 -10 -26.5 -17.5t-47 -17t-44.5 -24t-19 -38.5q0 -29 12 -40.5t45 -11.5z" />
    <glyph glyph-name="guillemotleft" unicode="&#xab;" horiz-adv-x="733" 
d="M540 304l-224 232l224 233h66l-222 -233l225 -232h-69zM349 304l-224 232l224 233h66l-222 -233l225 -232h-69z" />
    <glyph glyph-name="logicalnot" unicode="&#xac;" horiz-adv-x="613" 
d="M433 332v230l27 -27h-371v56h400v-259h-56z" />
    <glyph glyph-name="uni00AD" unicode="&#xad;" horiz-adv-x="469" 
d="M98 533v60h273v-60h-273z" />
    <glyph glyph-name="registered" unicode="&#xae;" horiz-adv-x="836" 
d="M424 362q-103 0 -188.5 64t-136.5 182.5t-51 279.5t51 278.5t136.5 182t188.5 64.5q102 0 186.5 -64t135 -182t50.5 -279t-50.5 -279.5t-135 -182.5t-186.5 -64zM424 413q91 0 163.5 58.5t115 165.5t42.5 251t-42.5 250.5t-115 165t-163.5 58.5q-92 0 -165 -58.5
t-115 -165t-42 -250.5t42 -251t115 -165.5t165 -58.5zM563 550q-17 0 -38.5 11.5t-21.5 64.5q0 45 0.5 83.5t0.5 81.5q0 44 -27 72.5t-92 28.5h-25v-296h55v-41h-162v41h57v606h-57v41h158q63 0 108 -40t45 -111q0 -80 -29.5 -128t-79.5 -51q43 0 72 -29t29 -89v-82.5v-82.5
q0 -16 3 -25.5t11 -9.5q16 0 16 23h43q0 -40 -24.5 -54t-41.5 -14zM361 929h31q46 0 72 24.5t36.5 61.5t10.5 74q0 30 -8 55.5t-31.5 41t-69.5 15.5h-41v-272z" />
    <glyph glyph-name="macron" unicode="&#xaf;" horiz-adv-x="916" 
d="M225 1360v60h604v-60h-604z" />
    <glyph glyph-name="degree" unicode="&#xb0;" horiz-adv-x="535" 
d="M267 1160q-40 0 -74 22.5t-54.5 65.5t-20.5 105q0 90 41 138.5t108 48.5q66 0 107.5 -45t41.5 -142t-42 -145t-107 -48zM267 1215q45 0 66.5 34t21.5 102q0 67 -21.5 101.5t-66.5 34.5q-43 0 -66 -35.5t-23 -102.5q0 -68 23 -101t66 -33z" />
    <glyph glyph-name="plusminus" unicode="&#xb1;" horiz-adv-x="818" 
d="M380 369v624h60v-624h-60zM98 651v60h622v-60h-622zM107 250v60h606v-60h-606z" />
    <glyph glyph-name="uni00B2" unicode="&#xb2;" horiz-adv-x="535" 
d="M338 697q-34 0 -58 9t-46 17.5t-52 8.5q-32 0 -48.5 -10t-18.5 -19h-53q0 103 33.5 175t82.5 125t98 96.5t82.5 89.5t33.5 106q0 55 -20 82.5t-53 37.5t-74 10q-32 0 -57 -9.5t-39 -23t-14 -27.5q0 -11 1 -16l2 -10t1 -16q0 -18 -9 -25.5t-23 -7.5q-13 0 -22.5 9.5
t-9.5 32.5q0 52 46 93.5t140 41.5q32 0 65.5 -7.5t62.5 -25.5t46.5 -51t17.5 -84q0 -57 -21.5 -99t-56 -76.5t-74.5 -68.5t-77.5 -74.5t-65.5 -94t-37 -127.5q4 4 13 9t23.5 9.5t33.5 4.5q22 0 47.5 -7.5t51 -15.5t44.5 -8q29 0 46.5 13t17.5 55h50v-14q0 -33 -13 -57
t-37.5 -37.5t-59.5 -13.5z" />
    <glyph glyph-name="uni00B3" unicode="&#xb3;" horiz-adv-x="541" 
d="M246 690q-62 0 -99 19.5t-53 50.5t-16 66q0 23 10.5 32.5t23.5 9.5t21 -7.5t8 -25.5q0 -11 -1.5 -17t-3 -12.5t-1.5 -19.5q0 -20 28 -37t77 -17q43 0 80.5 12.5t61 47.5t23.5 103q0 60 -21 96t-51 54t-60 24t-48 6v43q18 0 47.5 5.5t60 23.5t51.5 55t21 99
q0 42 -19.5 69.5t-55 41t-83.5 13.5q-49 0 -79.5 -15.5t-30.5 -35.5q0 -15 1 -22t2 -12t1 -16q0 -19 -8 -27t-21 -8t-23.5 10t-10.5 33q0 35 18 65.5t57 50t102 19.5t110 -21t73 -58.5t26 -87.5q0 -47 -16.5 -84.5t-42.5 -63.5t-56.5 -40.5t-59.5 -14.5q29 -1 59.5 -15
t56.5 -39.5t42.5 -63t16.5 -84.5q0 -78 -55 -141.5t-163 -63.5z" />
    <glyph glyph-name="acute" unicode="&#xb4;" horiz-adv-x="573" 
d="M193 1273l-24 27l166 129q23 20 51 27t41 -18q14 -23 -8.5 -43.5t-49.5 -34.5z" />
    <glyph glyph-name="uni00B5" unicode="&#xb5;" horiz-adv-x="618" 
d="M291 -22q-43 0 -82 20.5t-63 78.5t-24 170v799h60v-795q0 -87 16.5 -132t42.5 -61t54 -16q48 0 81 48t49.5 120t16.5 145v691h60v-986h94v-60h-149v135q-4 -32 -22 -68.5t-51 -62.5t-83 -26zM122 365h60v-858h-60v858z" />
    <glyph glyph-name="paragraph" unicode="&#xb6;" horiz-adv-x="569" 
d="M189 -260q-64 0 -92 33.5t-35 75.5t-7 69q0 35 9.5 58.5t35.5 23.5q27 0 37 -21.5t10 -51.5q0 -28 -1.5 -41.5t-3.5 -23t-2 -26.5q0 -23 10 -33t37 -10q28 0 50 28t35 79t13 120v678q-7 -38 -32 -62.5t-60 -24.5h-2q-61 0 -106 112t-45 293q0 117 22.5 203t63.5 133.5
t94 47.5h311v-60h-76v-1285q0 -80 -18.5 -135.5t-49 -91t-66 -54.5t-70.5 -26.5t-62 -7.5zM275 -200q45 22 82.5 79.5t37.5 175.5v1285h-53v-1333q0 -77 -14.5 -125.5t-52.5 -81.5z" />
    <glyph glyph-name="periodcentered" unicode="&#xb7;" horiz-adv-x="305" 
d="M166 731q-30 0 -51.5 22.5t-21.5 52.5q0 32 21.5 53t51.5 21t52 -21t22 -53q0 -30 -22 -52.5t-52 -22.5z" />
    <glyph glyph-name="cedilla" unicode="&#xb8;" horiz-adv-x="596" 
d="M293 -260q-56 0 -91.5 12.5t-50.5 20.5l18 43q10 -7 42.5 -16t83.5 -9q32 0 49.5 11t17.5 34q0 21 -14 30.5t-39 9.5q-16 0 -38 -7.5t-36 -21.5l-57 4l55 138h60l-44 -98q10 12 30.5 22.5t47.5 10.5q37 0 63 -22.5t26 -65.5q0 -58 -41 -77t-82 -19z" />
    <glyph glyph-name="uni00B9" unicode="&#xb9;" horiz-adv-x="385" 
d="M84 704v41h80v630q-4 -13 -34.5 -27t-49.5 -17v45q17 5 31 13t26 21t21 32t15 45h42v-742h83v-41h-214z" />
    <glyph glyph-name="ordmasculine" unicode="&#xba;" horiz-adv-x="476" 
d="M238 1140q-73 0 -126.5 54.5t-53.5 136.5q0 80 53.5 134.5t126.5 54.5q74 0 127 -54.5t53 -134.5q0 -82 -53 -136.5t-127 -54.5zM238 1189q48 0 85 36t37 106q0 68 -37 105t-85 37q-47 0 -83.5 -37t-36.5 -105q0 -70 36.5 -106t83.5 -36z" />
    <glyph glyph-name="guillemotright" unicode="&#xbb;" horiz-adv-x="740" 
d="M323 304l226 232l-222 233h66l223 -233l-223 -232h-70zM125 304l226 232l-222 233h66l223 -233l-223 -232h-70z" />
    <glyph glyph-name="onequarter" unicode="&#xbc;" horiz-adv-x="1070" 
d="M84 649v41h80v630q-4 -13 -34.5 -27t-49.5 -17v45q17 5 31 13t26 21t21 32t15 45h42v-742h83v-41h-214zM25 0l878 1400h52l-876 -1400h-54zM751 0v41h102v149h-218v41l183 446q9 21 18.5 45t18.5 47h54v-538h20q17 0 25 18t8 56h48v-115h-101v-149h101v-41h-259zM687 229
l-2 2h170v412l-32 -83z" />
    <glyph glyph-name="onehalf" unicode="&#xbd;" horiz-adv-x="1130" 
d="M84 649v41h80v630q-4 -13 -34.5 -27t-49.5 -17v45q17 5 31 13t26 21t21 32t15 45h42v-742h83v-41h-214zM25 0l878 1400h52l-876 -1400h-54zM933 -6q-34 0 -58 8.5t-46 17.5t-52 9q-32 0 -48.5 -10t-18.5 -19h-53q0 103 33.5 175t82.5 125t98 96.5t82.5 89.5t33.5 106
q0 55 -20 82.5t-53 37.5t-74 10q-32 0 -57 -9.5t-39 -23t-14 -27.5q0 -11 1 -16l2 -10t1 -16q0 -18 -9 -25.5t-23 -7.5q-13 0 -22.5 9.5t-9.5 32.5q0 52 46 93.5t140 41.5q32 0 65.5 -7.5t62.5 -25.5t46.5 -51t17.5 -84q0 -57 -21.5 -99t-56 -76.5t-74.5 -68.5t-77.5 -74.5
t-65.5 -94t-37 -127.5q4 4 13 9t23.5 9.5t33.5 4.5q22 0 47.5 -7.5t51 -15.5t44.5 -8q29 0 46.5 13t17.5 55h50v-14q0 -33 -13 -57t-37.5 -37.5t-59.5 -13.5z" />
    <glyph glyph-name="threequarters" unicode="&#xbe;" horiz-adv-x="1226" 
d="M246 635q-62 0 -99 19.5t-53 50.5t-16 66q0 23 10.5 32.5t23.5 9.5t21 -7.5t8 -25.5q0 -11 -1.5 -17t-3 -12.5t-1.5 -19.5q0 -20 28 -37t77 -17q43 0 80.5 12.5t61 47.5t23.5 103q0 60 -21 96t-51 54t-60 24t-48 6v43q18 0 47.5 5.5t60 23.5t51.5 55t21 99
q0 42 -19.5 69.5t-55 41t-83.5 13.5q-49 0 -79.5 -15.5t-30.5 -35.5q0 -15 1 -22t2 -12t1 -16q0 -19 -8 -27t-21 -8t-23.5 10t-10.5 33q0 35 18 65.5t57 50t102 19.5t110 -21t73 -58.5t26 -87.5q0 -47 -16.5 -84.5t-42.5 -63.5t-56.5 -40.5t-59.5 -14.5q29 -1 59.5 -15
t56.5 -39.5t42.5 -63t16.5 -84.5q0 -78 -55 -141.5t-163 -63.5zM181 0l878 1400h52l-876 -1400h-54zM907 0v41h102v149h-218v41l183 446q9 21 18.5 45t18.5 47h54v-538h20q17 0 25 18t8 56h48v-115h-101v-149h101v-41h-259zM843 229l-2 2h170v412l-32 -83z" />
    <glyph glyph-name="questiondown" unicode="&#xbf;" horiz-adv-x="516" 
d="M336 876q0 -133 -23 -234.5t-57 -182.5t-68.5 -152t-57.5 -143t-23 -157q0 -124 37 -182t128 -58q63 0 96.5 34t33.5 72q0 22 -1.5 36t-3 27t-1.5 31q0 33 10.5 45.5t25.5 12.5t27.5 -16t12.5 -71q0 -74 -24.5 -126t-72 -78.5t-115.5 -26.5q-47 0 -87 14.5t-70 48.5
t-46.5 91t-16.5 142q0 89 23.5 162.5t58 144.5t69 151.5t58 181t23.5 233.5h64zM305 1140q30 0 51.5 -22.5t21.5 -52.5q0 -32 -21.5 -53t-51.5 -21t-52 21t-22 53q0 30 22 52.5t52 22.5z" />
    <glyph glyph-name="Agrave" unicode="&#xc0;" horiz-adv-x="638" 
d="M15 0v60h78l182 1344h80l174 -1344h98v-60h-254v60h92l-150 1215h-2l-157 -1215h80v-60h-221zM173 358v58h274v-58h-274zM431 1446l-194 89q-23 11 -36 21t-13 32q0 20 12.5 29.5t31.5 9.5q18 0 31 -6.5t26 -17.5l162 -132z" />
    <glyph glyph-name="Aacute" unicode="&#xc1;" horiz-adv-x="638" 
d="M15 0v60h78l182 1344h80l174 -1344h98v-60h-254v60h92l-150 1215h-2l-157 -1215h80v-60h-221zM173 358v58h274v-58h-274zM203 1446l-24 27l165 129q14 11 30.5 19.5t30.5 8.5q10 0 18.5 -4.5t13.5 -14.5q4 -7 4 -16q0 -19 -19.5 -35t-42.5 -27z" />
    <glyph glyph-name="Acircumflex" unicode="&#xc2;" horiz-adv-x="638" 
d="M15 0v60h78l182 1344h80l174 -1344h98v-60h-254v60h92l-150 1215h-2l-157 -1215h80v-60h-221zM173 358v58h274v-58h-274zM133 1456l147 209h71l146 -209h-60l-122 143l-122 -143h-60z" />
    <glyph glyph-name="Atilde" unicode="&#xc3;" horiz-adv-x="638" 
d="M15 0v60h78l182 1344h80l174 -1344h98v-60h-254v60h92l-150 1215h-2l-157 -1215h80v-60h-221zM173 358v58h274v-58h-274zM400 1470q-38 0 -64 18.5t-48.5 37t-49.5 18.5q-29 0 -44 -22t-20 -36l-56 33q5 19 19.5 41.5t38.5 39.5t57 17q38 0 66 -19t52.5 -38t50.5 -19
q23 0 36 17t20 30l54 -39q-5 -17 -19.5 -35.5t-37.5 -31t-55 -12.5z" />
    <glyph glyph-name="Adieresis" unicode="&#xc4;" horiz-adv-x="638" 
d="M15 0v60h78l182 1344h80l174 -1344h98v-60h-254v60h92l-150 1215h-2l-157 -1215h80v-60h-221zM173 358v58h274v-58h-274zM422 1498q-26 0 -45 18.5t-19 43.5q0 27 19 47t45 20q25 0 44 -20t19 -47q0 -25 -19 -43.5t-44 -18.5zM207 1498q-24 0 -43.5 18.5t-19.5 43.5
q0 27 19.5 47t43.5 20q26 0 46 -20t20 -47q0 -25 -20 -43.5t-46 -18.5z" />
    <glyph glyph-name="Aring" unicode="&#xc5;" horiz-adv-x="638" 
d="M15 0v60h78l182 1344h80l174 -1344h98v-60h-254v60h92l-150 1215h-2l-157 -1215h80v-60h-221zM173 358v58h274v-58h-274zM315 1460q-45 0 -74.5 32.5t-29.5 85.5q0 55 29.5 86.5t74.5 31.5t75 -31.5t30 -86.5q0 -53 -30 -85.5t-75 -32.5zM315 1500q29 0 41.5 23t12.5 57
q0 30 -12.5 53t-41.5 23q-26 0 -39.5 -23t-13.5 -53q0 -34 13.5 -57t39.5 -23z" />
    <glyph glyph-name="AE" unicode="&#xc6;" horiz-adv-x="947" 
d="M378 0v60h91v1340h389v-244h-60q0 71 -5 111t-28 56.5t-78 16.5h-158v-589h249v100h58v-258h-58v98h-249v-631h147q60 0 85.5 17t31 58t5.5 112h60v-247h-480zM207 316l4 60h282l-4 -60h-282zM18 0v60h62l345 1340h60l-338 -1340h73v-60h-202z" />
    <glyph glyph-name="Ccedilla" unicode="&#xc7;" horiz-adv-x="578" 
d="M353 -20q-126 0 -209.5 180t-83.5 538q0 126 19 253.5t56.5 234t94 171.5t130.5 65q49 0 84 -37t53.5 -94t18.5 -118q0 -41 -11 -55t-29 -14q-19 0 -31 14t-12 44q0 18 3 32.5t6 34t3 51.5q0 38 -23.5 60t-52.5 22q-47 0 -86 -40.5t-68.5 -109.5t-49.5 -155t-30.5 -178.5
t-10.5 -178.5q0 -125 12 -229t33.5 -184t50.5 -135t62.5 -83.5t70.5 -28.5t64 26.5t44.5 63.5t27.5 68l55 -22q-15 -47 -42 -92t-64.5 -74.5t-84.5 -29.5zM369 -280q-56 0 -91 9.5t-50 17.5l21 48q10 -7 40.5 -15.5t81.5 -8.5q32 0 59.5 14.5t27.5 42.5q0 30 -19 39t-44 9
q-16 0 -38 -7.5t-36 -21.5l-57 4l63 149h60l-49 -102q5 7 27.5 16.5t49.5 9.5q37 0 68.5 -21.5t31.5 -75.5q0 -42 -25 -65.5t-59.5 -32.5t-61.5 -9z" />
    <glyph glyph-name="Egrave" unicode="&#xc8;" horiz-adv-x="618" 
d="M60 0v60h91v1280h-91v60h480v-244h-60q0 81 -4.5 120.5t-19.5 51.5t-49 12h-196v-609h227v100h55v-258h-55v98h-227v-611h196q34 0 49 13t19.5 53t4.5 121h60v-247h-480zM434 1446l-194 89q-23 11 -36 21t-13 32q0 20 12.5 29.5t31.5 9.5q18 0 31 -6.5t26 -17.5l162 -132
z" />
    <glyph glyph-name="Eacute" unicode="&#xc9;" horiz-adv-x="618" 
d="M60 0v60h91v1280h-91v60h480v-244h-60q0 81 -4.5 120.5t-19.5 51.5t-49 12h-196v-609h227v100h55v-258h-55v98h-227v-611h196q34 0 49 13t19.5 53t4.5 121h60v-247h-480zM206 1446l-24 27l165 129q14 11 30.5 19.5t30.5 8.5q10 0 18.5 -4.5t13.5 -14.5q4 -7 4 -16
q0 -19 -19.5 -35t-42.5 -27z" />
    <glyph glyph-name="Ecircumflex" unicode="&#xca;" horiz-adv-x="618" 
d="M60 0v60h91v1280h-91v60h480v-244h-60q0 81 -4.5 120.5t-19.5 51.5t-49 12h-196v-609h227v100h55v-258h-55v98h-227v-611h196q34 0 49 13t19.5 53t4.5 121h60v-247h-480zM136 1456l147 209h71l146 -209h-60l-122 143l-122 -143h-60z" />
    <glyph glyph-name="Edieresis" unicode="&#xcb;" horiz-adv-x="618" 
d="M60 0v60h91v1280h-91v60h480v-244h-60q0 81 -4.5 120.5t-19.5 51.5t-49 12h-196v-609h227v100h55v-258h-55v98h-227v-611h196q34 0 49 13t19.5 53t4.5 121h60v-247h-480zM425 1498q-26 0 -45 18.5t-19 43.5q0 27 19 47t45 20q25 0 44 -20t19 -47q0 -25 -19 -43.5
t-44 -18.5zM210 1498q-24 0 -43.5 18.5t-19.5 43.5q0 27 19.5 47t43.5 20q26 0 46 -20t20 -47q0 -25 -20 -43.5t-46 -18.5z" />
    <glyph glyph-name="Igrave" unicode="&#xcc;" horiz-adv-x="385" 
d="M69 0v60h93v1280h-93v60h247v-60h-94v-1280h94v-60h-247zM309 1446l-194 89q-23 11 -36 21t-13 32q0 20 12.5 29.5t31.5 9.5q18 0 31 -6.5t26 -17.5l162 -132z" />
    <glyph glyph-name="Iacute" unicode="&#xcd;" horiz-adv-x="385" 
d="M69 0v60h93v1280h-93v60h247v-60h-94v-1280h94v-60h-247zM81 1446l-24 27l165 129q14 11 30.5 19.5t30.5 8.5q10 0 18.5 -4.5t13.5 -14.5q4 -7 4 -16q0 -19 -19.5 -35t-42.5 -27z" />
    <glyph glyph-name="Icircumflex" unicode="&#xce;" horiz-adv-x="385" 
d="M69 0v60h93v1280h-93v60h247v-60h-94v-1280h94v-60h-247zM11 1456l147 209h71l146 -209h-60l-122 143l-122 -143h-60z" />
    <glyph glyph-name="Idieresis" unicode="&#xcf;" horiz-adv-x="385" 
d="M69 0v60h93v1280h-93v60h247v-60h-94v-1280h94v-60h-247zM300 1498q-26 0 -45 18.5t-19 43.5q0 27 19 47t45 20q25 0 44 -20t19 -47q0 -25 -19 -43.5t-44 -18.5zM85 1498q-24 0 -43.5 18.5t-19.5 43.5q0 27 19.5 47t43.5 20q26 0 46 -20t20 -47q0 -25 -20 -43.5
t-46 -18.5z" />
    <glyph glyph-name="Eth" unicode="&#xd0;" horiz-adv-x="738" 
d="M45 688v60h344v-60h-344zM60 0v60h89v1280h-89v60h231q91 0 165 -74t118 -226.5t44 -388.5q0 -238 -44 -396t-118.5 -236.5t-164.5 -78.5h-231zM209 60h57q74 0 139 63.5t105.5 206.5t40.5 381q0 204 -36 344t-92 212.5t-117 72.5h-97v-1280z" />
    <glyph glyph-name="Ntilde" unicode="&#xd1;" horiz-adv-x="764" 
d="M35 0v60h92v1280h-92v60h196l349 -1286h-2v1226h-93v60h244v-60h-89v-1340h-98l-355 1327h2v-1267h107v-60h-261zM463 1470q-38 0 -64 18.5t-48.5 37t-49.5 18.5q-29 0 -44 -22t-20 -36l-56 33q5 19 19.5 41.5t38.5 39.5t57 17q38 0 66 -19t52.5 -38t50.5 -19q23 0 36 17
t20 30l54 -39q-5 -17 -19.5 -35.5t-37.5 -31t-55 -12.5z" />
    <glyph glyph-name="Ograve" unicode="&#xd2;" horiz-adv-x="662" 
d="M329 -22q-91 0 -151 95t-89 257.5t-29 367.5q0 206 29 369.5t89 259t151 95.5q92 0 152.5 -95.5t90.5 -259t30 -369.5q0 -205 -30 -367.5t-90.5 -257.5t-152.5 -95zM329 38q51 0 90 50.5t65.5 141t40 210.5t13.5 258t-13.5 258.5t-40 211.5t-65.5 142.5t-90 51.5
t-89.5 -51.5t-64 -142.5t-38.5 -211.5t-13 -258.5t13 -258t38.5 -210.5t64 -141t89.5 -50.5zM447 1446l-194 89q-23 11 -36 21t-13 32q0 20 12.5 29.5t31.5 9.5q18 0 31 -6.5t26 -17.5l162 -132z" />
    <glyph glyph-name="Oacute" unicode="&#xd3;" horiz-adv-x="662" 
d="M329 -22q-91 0 -151 95t-89 257.5t-29 367.5q0 206 29 369.5t89 259t151 95.5q92 0 152.5 -95.5t90.5 -259t30 -369.5q0 -205 -30 -367.5t-90.5 -257.5t-152.5 -95zM329 38q51 0 90 50.5t65.5 141t40 210.5t13.5 258t-13.5 258.5t-40 211.5t-65.5 142.5t-90 51.5
t-89.5 -51.5t-64 -142.5t-38.5 -211.5t-13 -258.5t13 -258t38.5 -210.5t64 -141t89.5 -50.5zM219 1446l-24 27l165 129q14 11 30.5 19.5t30.5 8.5q10 0 18.5 -4.5t13.5 -14.5q4 -7 4 -16q0 -19 -19.5 -35t-42.5 -27z" />
    <glyph glyph-name="Ocircumflex" unicode="&#xd4;" horiz-adv-x="662" 
d="M329 -22q-91 0 -151 95t-89 257.5t-29 367.5q0 206 29 369.5t89 259t151 95.5q92 0 152.5 -95.5t90.5 -259t30 -369.5q0 -205 -30 -367.5t-90.5 -257.5t-152.5 -95zM329 38q51 0 90 50.5t65.5 141t40 210.5t13.5 258t-13.5 258.5t-40 211.5t-65.5 142.5t-90 51.5
t-89.5 -51.5t-64 -142.5t-38.5 -211.5t-13 -258.5t13 -258t38.5 -210.5t64 -141t89.5 -50.5zM149 1456l147 209h71l146 -209h-60l-122 143l-122 -143h-60z" />
    <glyph glyph-name="Otilde" unicode="&#xd5;" horiz-adv-x="662" 
d="M329 -22q-91 0 -151 95t-89 257.5t-29 367.5q0 206 29 369.5t89 259t151 95.5q92 0 152.5 -95.5t90.5 -259t30 -369.5q0 -205 -30 -367.5t-90.5 -257.5t-152.5 -95zM329 38q51 0 90 50.5t65.5 141t40 210.5t13.5 258t-13.5 258.5t-40 211.5t-65.5 142.5t-90 51.5
t-89.5 -51.5t-64 -142.5t-38.5 -211.5t-13 -258.5t13 -258t38.5 -210.5t64 -141t89.5 -50.5zM416 1470q-38 0 -64 18.5t-48.5 37t-49.5 18.5q-29 0 -44 -22t-20 -36l-56 33q5 19 19.5 41.5t38.5 39.5t57 17q38 0 66 -19t52.5 -38t50.5 -19q23 0 36 17t20 30l54 -39
q-5 -17 -19.5 -35.5t-37.5 -31t-55 -12.5z" />
    <glyph glyph-name="Odieresis" unicode="&#xd6;" horiz-adv-x="662" 
d="M329 -22q-91 0 -151 95t-89 257.5t-29 367.5q0 206 29 369.5t89 259t151 95.5q92 0 152.5 -95.5t90.5 -259t30 -369.5q0 -205 -30 -367.5t-90.5 -257.5t-152.5 -95zM329 38q51 0 90 50.5t65.5 141t40 210.5t13.5 258t-13.5 258.5t-40 211.5t-65.5 142.5t-90 51.5
t-89.5 -51.5t-64 -142.5t-38.5 -211.5t-13 -258.5t13 -258t38.5 -210.5t64 -141t89.5 -50.5zM438 1498q-26 0 -45 18.5t-19 43.5q0 27 19 47t45 20q25 0 44 -20t19 -47q0 -25 -19 -43.5t-44 -18.5zM223 1498q-24 0 -43.5 18.5t-19.5 43.5q0 27 19.5 47t43.5 20q26 0 46 -20
t20 -47q0 -25 -20 -43.5t-46 -18.5z" />
    <glyph glyph-name="multiply" unicode="&#xd7;" horiz-adv-x="761" 
d="M614 293l-493 492l49 49l493 -492zM170 293l-45 45l490 491l46 -45z" />
    <glyph glyph-name="Oslash" unicode="&#xd8;" horiz-adv-x="718" 
d="M89 -104l507 1608h62l-505 -1608h-64zM329 -22q-91 0 -151 95t-89 257.5t-29 367.5q0 206 29 369.5t89 259t151 95.5q92 0 152.5 -95.5t90.5 -259t30 -369.5q0 -205 -30 -367.5t-90.5 -257.5t-152.5 -95zM329 38q51 0 90 50.5t65.5 141t40 210.5t13.5 258t-13.5 258.5
t-40 211.5t-65.5 142.5t-90 51.5t-89.5 -51.5t-64 -142.5t-38.5 -211.5t-13 -258.5t13 -258t38.5 -210.5t64 -141t89.5 -50.5z" />
    <glyph glyph-name="Ugrave" unicode="&#xd9;" horiz-adv-x="685" 
d="M342 -24q-40 0 -77.5 15.5t-67 50.5t-47 94t-17.5 146v1058h-95v60h247v-60h-92v-1044q0 -150 43 -204t106 -54q32 0 59.5 12.5t48 41.5t32 79t11.5 125v1044h-82v60h236v-60h-94v-1058q0 -116 -30 -183t-78 -95t-103 -28zM456 1446l-194 89q-23 11 -36 21t-13 32
q0 20 12.5 29.5t31.5 9.5q18 0 31 -6.5t26 -17.5l162 -132z" />
    <glyph glyph-name="Uacute" unicode="&#xda;" horiz-adv-x="685" 
d="M342 -24q-40 0 -77.5 15.5t-67 50.5t-47 94t-17.5 146v1058h-95v60h247v-60h-92v-1044q0 -150 43 -204t106 -54q32 0 59.5 12.5t48 41.5t32 79t11.5 125v1044h-82v60h236v-60h-94v-1058q0 -116 -30 -183t-78 -95t-103 -28zM228 1446l-24 27l165 129q14 11 30.5 19.5
t30.5 8.5q10 0 18.5 -4.5t13.5 -14.5q4 -7 4 -16q0 -19 -19.5 -35t-42.5 -27z" />
    <glyph glyph-name="Ucircumflex" unicode="&#xdb;" horiz-adv-x="685" 
d="M342 -24q-40 0 -77.5 15.5t-67 50.5t-47 94t-17.5 146v1058h-95v60h247v-60h-92v-1044q0 -150 43 -204t106 -54q32 0 59.5 12.5t48 41.5t32 79t11.5 125v1044h-82v60h236v-60h-94v-1058q0 -116 -30 -183t-78 -95t-103 -28zM158 1456l147 209h71l146 -209h-60l-122 143
l-122 -143h-60z" />
    <glyph glyph-name="Udieresis" unicode="&#xdc;" horiz-adv-x="685" 
d="M342 -24q-40 0 -77.5 15.5t-67 50.5t-47 94t-17.5 146v1058h-95v60h247v-60h-92v-1044q0 -150 43 -204t106 -54q32 0 59.5 12.5t48 41.5t32 79t11.5 125v1044h-82v60h236v-60h-94v-1058q0 -116 -30 -183t-78 -95t-103 -28zM447 1498q-26 0 -45 18.5t-19 43.5q0 27 19 47
t45 20q25 0 44 -20t19 -47q0 -25 -19 -43.5t-44 -18.5zM232 1498q-24 0 -43.5 18.5t-19.5 43.5q0 27 19.5 47t43.5 20q26 0 46 -20t20 -47q0 -25 -20 -43.5t-46 -18.5z" />
    <glyph glyph-name="Yacute" unicode="&#xdd;" horiz-adv-x="638" 
d="M200 0v60h93v529l-175 751h-89v60h236v-60h-74l156 -722h-40l169 722h-74v60h229v-60h-91l-187 -751v-529h83v-60h-236zM208 1446l-24 27l165 129q14 11 30.5 19.5t30.5 8.5q10 0 18.5 -4.5t13.5 -14.5q4 -7 4 -16q0 -19 -19.5 -35t-42.5 -27z" />
    <glyph glyph-name="Thorn" unicode="&#xde;" horiz-adv-x="700" 
d="M190 299v66h84q79 0 137 47.5t89.5 133.5t31.5 201q0 108 -29.5 187.5t-82.5 123t-124 43.5h-106v66h124q79 0 145 -51.5t105.5 -146t39.5 -222.5q0 -133 -41 -234t-110 -157.5t-153 -56.5h-110zM69 0v60h93v1280h-93v60h247v-60h-94v-1280h94v-60h-247z" />
    <glyph glyph-name="germandbls" unicode="&#xdf;" horiz-adv-x="745" 
d="M469 -24q-53 0 -82 27t-29 79q0 29 14.5 44.5t34.5 15.5q17 0 26 -9t9 -31q0 -11 -2.5 -17.5t-5.5 -12t-3 -14.5q0 -10 5.5 -16.5t25.5 -6.5q45 0 75 32.5t45.5 93.5t15.5 146q0 60 -21 112t-51.5 99t-61.5 91.5t-52 89.5t-21 94q0 41 9.5 77t23.5 70.5t28 73t23.5 85
t9.5 105.5q0 87 -29.5 125t-77.5 38q-59 0 -93.5 -47t-49.5 -122.5t-15 -161.5v-1036h-175v60h117v982q0 118 25 203.5t73 132t115 46.5q68 0 120 -57.5t52 -162.5q0 -75 -14.5 -134t-33.5 -107t-33.5 -88t-14.5 -77q0 -40 22 -82t54 -88t64 -97t54 -108.5t22 -124.5
q0 -91 -25.5 -164t-70 -115.5t-102.5 -42.5z" />
    <glyph glyph-name="agrave" unicode="&#xe0;" horiz-adv-x="550" 
d="M242 -20q-55 0 -96 28t-63.5 85t-22.5 143q0 90 32 150t79.5 102.5t95 78t79.5 73.5t32 91q0 78 -11 136.5t-37.5 91t-73.5 32.5q-52 0 -86 -39t-34 -87q0 -19 3 -28.5t5.5 -18t2.5 -24.5q0 -23 -9 -39.5t-29 -16.5q-19 0 -27.5 17t-8.5 47q0 71 22.5 128t63.5 90t97 33
t96.5 -29.5t63 -94.5t22.5 -173v-645q0 -35 9.5 -47.5t27.5 -12.5q14 0 23 4.5t13 9.5l29 -54q-10 -9 -29 -14.5t-42 -5.5q-20 0 -39 9t-31 28.5t-12 51.5q-7 -21 -23.5 -44.5t-46 -39.5t-75.5 -16zM242 42q46 0 76 34.5t45 79t15 73.5v373q-2 -28 -40 -57t-86.5 -67.5
t-85.5 -96.5t-37 -145q0 -95 28.5 -144.5t84.5 -49.5zM376 1102l-194 89q-23 11 -36 21t-13 32q0 20 12.5 29.5t31.5 9.5q18 0 31 -6.5t26 -17.5l162 -132z" />
    <glyph glyph-name="aacute" unicode="&#xe1;" horiz-adv-x="550" 
d="M242 -20q-55 0 -96 28t-63.5 85t-22.5 143q0 90 32 150t79.5 102.5t95 78t79.5 73.5t32 91q0 78 -11 136.5t-37.5 91t-73.5 32.5q-52 0 -86 -39t-34 -87q0 -19 3 -28.5t5.5 -18t2.5 -24.5q0 -23 -9 -39.5t-29 -16.5q-19 0 -27.5 17t-8.5 47q0 71 22.5 128t63.5 90t97 33
t96.5 -29.5t63 -94.5t22.5 -173v-645q0 -35 9.5 -47.5t27.5 -12.5q14 0 23 4.5t13 9.5l29 -54q-10 -9 -29 -14.5t-42 -5.5q-20 0 -39 9t-31 28.5t-12 51.5q-7 -21 -23.5 -44.5t-46 -39.5t-75.5 -16zM242 42q46 0 76 34.5t45 79t15 73.5v373q-2 -28 -40 -57t-86.5 -67.5
t-85.5 -96.5t-37 -145q0 -95 28.5 -144.5t84.5 -49.5zM148 1075l-24 27l166 129q14 12 30 20t30 8q10 0 18.5 -4.5t13.5 -14.5q4 -7 4 -16q0 -19 -19.5 -35t-42.5 -27z" />
    <glyph glyph-name="acircumflex" unicode="&#xe2;" horiz-adv-x="550" 
d="M242 -20q-55 0 -96 28t-63.5 85t-22.5 143q0 90 32 150t79.5 102.5t95 78t79.5 73.5t32 91q0 78 -11 136.5t-37.5 91t-73.5 32.5q-52 0 -86 -39t-34 -87q0 -19 3 -28.5t5.5 -18t2.5 -24.5q0 -23 -9 -39.5t-29 -16.5q-19 0 -27.5 17t-8.5 47q0 71 22.5 128t63.5 90t97 33
t96.5 -29.5t63 -94.5t22.5 -173v-645q0 -35 9.5 -47.5t27.5 -12.5q14 0 23 4.5t13 9.5l29 -54q-10 -9 -29 -14.5t-42 -5.5q-20 0 -39 9t-31 28.5t-12 51.5q-7 -21 -23.5 -44.5t-46 -39.5t-75.5 -16zM242 42q46 0 76 34.5t45 79t15 73.5v373q-2 -28 -40 -57t-86.5 -67.5
t-85.5 -96.5t-37 -145q0 -95 28.5 -144.5t84.5 -49.5zM78 1117l147 209h71l146 -209h-60l-122 143l-122 -143h-60z" />
    <glyph glyph-name="atilde" unicode="&#xe3;" horiz-adv-x="550" 
d="M242 -20q-55 0 -96 28t-63.5 85t-22.5 143q0 90 32 150t79.5 102.5t95 78t79.5 73.5t32 91q0 78 -11 136.5t-37.5 91t-73.5 32.5q-52 0 -86 -39t-34 -87q0 -19 3 -28.5t5.5 -18t2.5 -24.5q0 -23 -9 -39.5t-29 -16.5q-19 0 -27.5 17t-8.5 47q0 71 22.5 128t63.5 90t97 33
t96.5 -29.5t63 -94.5t22.5 -173v-645q0 -35 9.5 -47.5t27.5 -12.5q14 0 23 4.5t13 9.5l29 -54q-10 -9 -29 -14.5t-42 -5.5q-20 0 -39 9t-31 28.5t-12 51.5q-7 -21 -23.5 -44.5t-46 -39.5t-75.5 -16zM242 42q46 0 76 34.5t45 79t15 73.5v373q-2 -28 -40 -57t-86.5 -67.5
t-85.5 -96.5t-37 -145q0 -95 28.5 -144.5t84.5 -49.5zM345 1121q-38 0 -64 18.5t-48.5 37t-49.5 18.5q-29 0 -44 -22t-20 -36l-56 33q5 19 19.5 41.5t38.5 39.5t57 17q38 0 66 -19t52.5 -38t50.5 -19q23 0 36 17t20 30l54 -39q-5 -17 -19.5 -35.5t-37.5 -31t-55 -12.5z" />
    <glyph glyph-name="adieresis" unicode="&#xe4;" horiz-adv-x="550" 
d="M242 -20q-55 0 -96 28t-63.5 85t-22.5 143q0 90 32 150t79.5 102.5t95 78t79.5 73.5t32 91q0 78 -11 136.5t-37.5 91t-73.5 32.5q-52 0 -86 -39t-34 -87q0 -19 3 -28.5t5.5 -18t2.5 -24.5q0 -23 -9 -39.5t-29 -16.5q-19 0 -27.5 17t-8.5 47q0 71 22.5 128t63.5 90t97 33
t96.5 -29.5t63 -94.5t22.5 -173v-645q0 -35 9.5 -47.5t27.5 -12.5q14 0 23 4.5t13 9.5l29 -54q-10 -9 -29 -14.5t-42 -5.5q-20 0 -39 9t-31 28.5t-12 51.5q-7 -21 -23.5 -44.5t-46 -39.5t-75.5 -16zM242 42q46 0 76 34.5t45 79t15 73.5v373q-2 -28 -40 -57t-86.5 -67.5
t-85.5 -96.5t-37 -145q0 -95 28.5 -144.5t84.5 -49.5zM367 1121q-26 0 -45 18.5t-19 43.5q0 27 19 47t45 20q25 0 44 -20t19 -47q0 -25 -19 -43.5t-44 -18.5zM152 1121q-24 0 -43.5 18.5t-19.5 43.5q0 27 19.5 47t43.5 20q26 0 46 -20t20 -47q0 -25 -20 -43.5t-46 -18.5z
" />
    <glyph glyph-name="aring" unicode="&#xe5;" horiz-adv-x="550" 
d="M242 -20q-55 0 -96 28t-63.5 85t-22.5 143q0 90 32 150t79.5 102.5t95 78t79.5 73.5t32 91q0 78 -11 136.5t-37.5 91t-73.5 32.5q-52 0 -86 -39t-34 -87q0 -19 3 -28.5t5.5 -18t2.5 -24.5q0 -23 -9 -39.5t-29 -16.5q-19 0 -27.5 17t-8.5 47q0 71 22.5 128t63.5 90t97 33
t96.5 -29.5t63 -94.5t22.5 -173v-645q0 -35 9.5 -47.5t27.5 -12.5q14 0 23 4.5t13 9.5l29 -54q-10 -9 -29 -14.5t-42 -5.5q-20 0 -39 9t-31 28.5t-12 51.5q-7 -21 -23.5 -44.5t-46 -39.5t-75.5 -16zM242 42q46 0 76 34.5t45 79t15 73.5v373q-2 -28 -40 -57t-86.5 -67.5
t-85.5 -96.5t-37 -145q0 -95 28.5 -144.5t84.5 -49.5zM260 1091q-45 0 -74.5 32.5t-29.5 85.5q0 55 29.5 86.5t74.5 31.5t75 -31.5t30 -86.5q0 -53 -30 -85.5t-75 -32.5zM260 1131q29 0 41.5 23t12.5 57q0 30 -12.5 53t-41.5 23q-26 0 -39.5 -23t-13.5 -53q0 -34 13.5 -57
t39.5 -23z" />
    <glyph glyph-name="ae" unicode="&#xe6;" horiz-adv-x="788" 
d="M216 -16q-72 0 -114 60t-42 152q0 102 29.5 169t73 112.5t87.5 81t73.5 73.5t29.5 90q0 61 -9 123t-33 104t-69 42q-34 0 -65.5 -24.5t-31.5 -79.5q0 -20 1.5 -30.5t3 -19t1.5 -24.5q0 -23 -8 -39t-28 -16q-19 0 -27 17t-8 47q0 61 18.5 113.5t55 85t90.5 32.5
q55 0 92.5 -39.5t57 -114.5t19.5 -183v-441q0 -42 -3.5 -74t-14 -61.5t-31.5 -66.5q-14 -25 -54.5 -57t-93.5 -32zM225 47q50 0 89 56.5t39 129.5v356q-2 -28 -36.5 -57t-78.5 -68t-77.5 -99t-33.5 -150q0 -48 9 -86t30.5 -60t58.5 -22zM548 -22q-67 0 -107.5 50.5t-61 132
t-27 177.5t-6.5 187q0 126 13 224.5t39 166t64 102.5t88 35q58 0 93.5 -41t54 -106.5t25 -142t6.5 -147.5v-43t-1 -41h-331v60h267q0 104 -9 195.5t-33.5 148.5t-71.5 57q-44 0 -75.5 -56t-48 -154.5t-16.5 -226.5q0 -93 5 -184.5t19 -166.5t41.5 -120t72.5 -45
q53 0 80 34.5t35 65.5l54 -22q-14 -57 -60.5 -98.5t-108.5 -41.5z" />
    <glyph glyph-name="ccedilla" unicode="&#xe7;" horiz-adv-x="518" 
d="M293 -20q-70 0 -117 52t-75 135.5t-40 180.5t-12 187q0 121 19 217t52.5 163t77.5 102.5t93 35.5q58 0 95 -37.5t55 -95t18 -118.5q0 -30 -8.5 -47t-27.5 -17t-28.5 16t-9.5 39q0 16 3 24t6 18t3 30q0 56 -29 91t-77 35q-45 0 -78 -37t-55 -100t-32.5 -144t-10.5 -170
q0 -82 9 -169.5t29.5 -162t54.5 -120.5t85 -46q50 0 78 24t44 70l45 -36q-15 -35 -54 -77.5t-113 -42.5zM328 -278q-56 0 -91 9.5t-50 17.5l21 48q10 -7 40.5 -15.5t81.5 -8.5q32 0 59.5 14.5t27.5 42.5q0 30 -19 39t-44 9q-16 0 -38 -7.5t-36 -21.5l-57 4l63 149h60
l-49 -102q5 7 27.5 16.5t49.5 9.5q37 0 68.5 -21.5t31.5 -75.5q0 -42 -25 -65.5t-59.5 -32.5t-61.5 -9z" />
    <glyph glyph-name="egrave" unicode="&#xe8;" horiz-adv-x="492" 
d="M252 -22q-67 0 -107.5 50.5t-61 132t-27 177.5t-6.5 187q0 126 13 224.5t39 166t64 102.5t88 35q58 0 93.5 -41t54 -106.5t25 -142t6.5 -147.5v-43t-1 -41h-331v60h267q0 104 -9 195.5t-33.5 148.5t-71.5 57q-44 0 -75.5 -56t-48 -154.5t-16.5 -226.5q0 -93 5 -184.5
t19 -166.5t41.5 -120t72.5 -45q53 0 80 34.5t35 65.5l54 -22q-14 -57 -60.5 -98.5t-108.5 -41.5zM368 1100l-194 89q-23 11 -36 21t-13 32q0 20 12.5 29.5t31.5 9.5q18 0 31 -6.5t26 -17.5l162 -132z" />
    <glyph glyph-name="eacute" unicode="&#xe9;" horiz-adv-x="492" 
d="M252 -22q-67 0 -107.5 50.5t-61 132t-27 177.5t-6.5 187q0 126 13 224.5t39 166t64 102.5t88 35q58 0 93.5 -41t54 -106.5t25 -142t6.5 -147.5v-43t-1 -41h-331v60h267q0 104 -9 195.5t-33.5 148.5t-71.5 57q-44 0 -75.5 -56t-48 -154.5t-16.5 -226.5q0 -93 5 -184.5
t19 -166.5t41.5 -120t72.5 -45q53 0 80 34.5t35 65.5l54 -22q-14 -57 -60.5 -98.5t-108.5 -41.5zM140 1073l-24 27l166 129q14 12 30 20t30 8q10 0 18.5 -4.5t13.5 -14.5q4 -7 4 -16q0 -19 -19.5 -35t-42.5 -27z" />
    <glyph glyph-name="ecircumflex" unicode="&#xea;" horiz-adv-x="492" 
d="M252 -22q-67 0 -107.5 50.5t-61 132t-27 177.5t-6.5 187q0 126 13 224.5t39 166t64 102.5t88 35q58 0 93.5 -41t54 -106.5t25 -142t6.5 -147.5v-43t-1 -41h-331v60h267q0 104 -9 195.5t-33.5 148.5t-71.5 57q-44 0 -75.5 -56t-48 -154.5t-16.5 -226.5q0 -93 5 -184.5
t19 -166.5t41.5 -120t72.5 -45q53 0 80 34.5t35 65.5l54 -22q-14 -57 -60.5 -98.5t-108.5 -41.5zM70 1115l147 209h71l146 -209h-60l-122 143l-122 -143h-60z" />
    <glyph glyph-name="edieresis" unicode="&#xeb;" horiz-adv-x="492" 
d="M252 -22q-67 0 -107.5 50.5t-61 132t-27 177.5t-6.5 187q0 126 13 224.5t39 166t64 102.5t88 35q58 0 93.5 -41t54 -106.5t25 -142t6.5 -147.5v-43t-1 -41h-331v60h267q0 104 -9 195.5t-33.5 148.5t-71.5 57q-44 0 -75.5 -56t-48 -154.5t-16.5 -226.5q0 -93 5 -184.5
t19 -166.5t41.5 -120t72.5 -45q53 0 80 34.5t35 65.5l54 -22q-14 -57 -60.5 -98.5t-108.5 -41.5zM359 1119q-26 0 -45 18.5t-19 43.5q0 27 19 47t45 20q25 0 44 -20t19 -47q0 -25 -19 -43.5t-44 -18.5zM144 1119q-24 0 -43.5 18.5t-19.5 43.5q0 27 19.5 47t43.5 20
q26 0 46 -20t20 -47q0 -25 -20 -43.5t-46 -18.5z" />
    <glyph glyph-name="igrave" unicode="&#xec;" horiz-adv-x="347" 
d="M40 0v60h109v927h-109v60h169v-987h111v-60h-280zM295 1102l-194 89q-23 11 -36 21t-13 32q0 20 12.5 29.5t31.5 9.5q18 0 31 -6.5t26 -17.5l162 -132z" />
    <glyph glyph-name="iacute" unicode="&#xed;" horiz-adv-x="347" 
d="M40 0v60h109v927h-109v60h169v-987h111v-60h-280zM67 1075l-24 27l166 129q14 12 30 20t30 8q10 0 18.5 -4.5t13.5 -14.5q4 -7 4 -16q0 -19 -19.5 -35t-42.5 -27z" />
    <glyph glyph-name="icircumflex" unicode="&#xee;" horiz-adv-x="347" 
d="M40 0v60h109v927h-109v60h169v-987h111v-60h-280zM-3 1117l147 209h71l146 -209h-60l-122 143l-122 -143h-60z" />
    <glyph glyph-name="idieresis" unicode="&#xef;" horiz-adv-x="347" 
d="M40 0v60h109v927h-109v60h169v-987h111v-60h-280zM286 1121q-26 0 -45 18.5t-19 43.5q0 27 19 47t45 20q25 0 44 -20t19 -47q0 -25 -19 -43.5t-44 -18.5zM71 1121q-24 0 -43.5 18.5t-19.5 43.5q0 27 19.5 47t43.5 20q26 0 46 -20t20 -47q0 -25 -20 -43.5t-46 -18.5z" />
    <glyph glyph-name="eth" unicode="&#xf0;" horiz-adv-x="665" 
d="M320 -22q-72 0 -121.5 73.5t-75 198.5t-25.5 279q0 125 16.5 222.5t46.5 164.5t70.5 102t88.5 35q40 0 68 -19t44.5 -45.5t23.5 -48.5q-11 77 -31.5 138.5t-46.5 107t-56 72.5l-64 -102l-43 31l72 109q-23 23 -62.5 46.5t-71.5 33.5l20 46q18 -5 41 -15.5t45 -23
t36 -23.5l23 -18l47 76l42 -29l-51 -80q54 -52 90.5 -122t59 -164t32 -216t9.5 -280q0 -159 -28.5 -283t-79.5 -195t-119 -71zM320 38q35 0 71 45.5t60.5 152.5t24.5 291q0 181 -24.5 282.5t-60.5 142.5t-71 41q-33 0 -70 -41t-62.5 -142.5t-25.5 -282.5q0 -184 25.5 -291
t62.5 -152.5t70 -45.5z" />
    <glyph glyph-name="ntilde" unicode="&#xf1;" horiz-adv-x="680" 
d="M35 0v60h100v927h-100v60h160v-114q7 31 30 58.5t57.5 44.5t74.5 17q33 0 70 -19.5t63.5 -80.5t26.5 -186v-707h100v-60h-258v60h98v680q0 137 -29 193t-89 56q-31 0 -57.5 -22.5t-46 -58t-30 -75.5t-10.5 -75v-698h98v-60h-258zM418 1121q-38 0 -64 18.5t-48.5 37
t-49.5 18.5q-29 0 -44 -22t-20 -36l-56 33q5 19 19.5 41.5t38.5 39.5t57 17q38 0 66 -19t52.5 -38t50.5 -19q23 0 36 17t20 30l54 -39q-5 -17 -19.5 -35.5t-37.5 -31t-55 -12.5z" />
    <glyph glyph-name="ograve" unicode="&#xf2;" horiz-adv-x="545" 
d="M268 -22q-51 0 -91.5 38t-69 109.5t-43 173t-14.5 228.5q0 139 16 239t45 163.5t69 93.5t88 30q47 0 86.5 -30t69 -93.5t46 -163.5t16.5 -239q0 -127 -15 -228.5t-43.5 -173t-69 -109.5t-90.5 -38zM268 36q64 0 108 122t44 369q0 242 -44 355t-108 113q-66 0 -110.5 -113
t-44.5 -355q0 -247 44.5 -369t110.5 -122zM386 1102l-194 89q-23 11 -36 21t-13 32q0 20 12.5 29.5t31.5 9.5q18 0 31 -6.5t26 -17.5l162 -132z" />
    <glyph glyph-name="oacute" unicode="&#xf3;" horiz-adv-x="545" 
d="M268 -22q-51 0 -91.5 38t-69 109.5t-43 173t-14.5 228.5q0 139 16 239t45 163.5t69 93.5t88 30q47 0 86.5 -30t69 -93.5t46 -163.5t16.5 -239q0 -127 -15 -228.5t-43.5 -173t-69 -109.5t-90.5 -38zM268 36q64 0 108 122t44 369q0 242 -44 355t-108 113q-66 0 -110.5 -113
t-44.5 -355q0 -247 44.5 -369t110.5 -122zM158 1075l-24 27l166 129q14 12 30 20t30 8q10 0 18.5 -4.5t13.5 -14.5q4 -7 4 -16q0 -19 -19.5 -35t-42.5 -27z" />
    <glyph glyph-name="ocircumflex" unicode="&#xf4;" horiz-adv-x="545" 
d="M268 -22q-51 0 -91.5 38t-69 109.5t-43 173t-14.5 228.5q0 139 16 239t45 163.5t69 93.5t88 30q47 0 86.5 -30t69 -93.5t46 -163.5t16.5 -239q0 -127 -15 -228.5t-43.5 -173t-69 -109.5t-90.5 -38zM268 36q64 0 108 122t44 369q0 242 -44 355t-108 113q-66 0 -110.5 -113
t-44.5 -355q0 -247 44.5 -369t110.5 -122zM88 1117l147 209h71l146 -209h-60l-122 143l-122 -143h-60z" />
    <glyph glyph-name="otilde" unicode="&#xf5;" horiz-adv-x="545" 
d="M268 -22q-51 0 -91.5 38t-69 109.5t-43 173t-14.5 228.5q0 139 16 239t45 163.5t69 93.5t88 30q47 0 86.5 -30t69 -93.5t46 -163.5t16.5 -239q0 -127 -15 -228.5t-43.5 -173t-69 -109.5t-90.5 -38zM268 36q64 0 108 122t44 369q0 242 -44 355t-108 113q-66 0 -110.5 -113
t-44.5 -355q0 -247 44.5 -369t110.5 -122zM355 1121q-38 0 -64 18.5t-48.5 37t-49.5 18.5q-29 0 -44 -22t-20 -36l-56 33q5 19 19.5 41.5t38.5 39.5t57 17q38 0 66 -19t52.5 -38t50.5 -19q23 0 36 17t20 30l54 -39q-5 -17 -19.5 -35.5t-37.5 -31t-55 -12.5z" />
    <glyph glyph-name="odieresis" unicode="&#xf6;" horiz-adv-x="545" 
d="M268 -22q-51 0 -91.5 38t-69 109.5t-43 173t-14.5 228.5q0 139 16 239t45 163.5t69 93.5t88 30q47 0 86.5 -30t69 -93.5t46 -163.5t16.5 -239q0 -127 -15 -228.5t-43.5 -173t-69 -109.5t-90.5 -38zM268 36q64 0 108 122t44 369q0 242 -44 355t-108 113q-66 0 -110.5 -113
t-44.5 -355q0 -247 44.5 -369t110.5 -122zM377 1121q-26 0 -45 18.5t-19 43.5q0 27 19 47t45 20q25 0 44 -20t19 -47q0 -25 -19 -43.5t-44 -18.5zM162 1121q-24 0 -43.5 18.5t-19.5 43.5q0 27 19.5 47t43.5 20q26 0 46 -20t20 -47q0 -25 -20 -43.5t-46 -18.5z" />
    <glyph glyph-name="divide" unicode="&#xf7;" horiz-adv-x="802" 
d="M399 306q-21 0 -36.5 16t-15.5 38q0 23 15.5 38t36.5 15q22 0 37.5 -15t15.5 -38q0 -22 -15.5 -38t-37.5 -16zM399 681q-21 0 -36.5 16t-15.5 38q0 23 15.5 38t36.5 15q22 0 37.5 -15t15.5 -38q0 -22 -15.5 -38t-37.5 -16zM98 518v60h606v-60h-606z" />
    <glyph glyph-name="oslash" unicode="&#xf8;" horiz-adv-x="575" 
d="M60 -104l402 1224h54l-404 -1224h-52zM268 -22q-51 0 -91.5 38t-69 109.5t-43 173t-14.5 228.5q0 139 16 239t45 163.5t69 93.5t88 30q47 0 86.5 -30t69 -93.5t46 -163.5t16.5 -239q0 -127 -15 -228.5t-43.5 -173t-69 -109.5t-90.5 -38zM268 36q64 0 108 122t44 369
q0 242 -44 355t-108 113q-66 0 -110.5 -113t-44.5 -355q0 -247 44.5 -369t110.5 -122z" />
    <glyph glyph-name="ugrave" unicode="&#xf9;" horiz-adv-x="618" 
d="M291 -22q-43 0 -82 20.5t-63 78.5t-24 170v740h-104v59h164v-795q0 -87 16.5 -132t42.5 -61t54 -16q48 0 81 48t49.5 120t16.5 145v632h-106v59h166v-986h94v-60h-149v135q-4 -32 -22 -68.5t-51 -62.5t-83 -26zM427 1102l-194 89q-23 11 -36 21t-13 32q0 20 12.5 29.5
t31.5 9.5q18 0 31 -6.5t26 -17.5l162 -132z" />
    <glyph glyph-name="uacute" unicode="&#xfa;" horiz-adv-x="618" 
d="M291 -22q-43 0 -82 20.5t-63 78.5t-24 170v740h-104v59h164v-795q0 -87 16.5 -132t42.5 -61t54 -16q48 0 81 48t49.5 120t16.5 145v632h-106v59h166v-986h94v-60h-149v135q-4 -32 -22 -68.5t-51 -62.5t-83 -26zM199 1075l-24 27l166 129q14 12 30 20t30 8q10 0 18.5 -4.5
t13.5 -14.5q4 -7 4 -16q0 -19 -19.5 -35t-42.5 -27z" />
    <glyph glyph-name="ucircumflex" unicode="&#xfb;" horiz-adv-x="618" 
d="M291 -22q-43 0 -82 20.5t-63 78.5t-24 170v740h-104v59h164v-795q0 -87 16.5 -132t42.5 -61t54 -16q48 0 81 48t49.5 120t16.5 145v632h-106v59h166v-986h94v-60h-149v135q-4 -32 -22 -68.5t-51 -62.5t-83 -26zM129 1117l147 209h71l146 -209h-60l-122 143l-122 -143h-60
z" />
    <glyph glyph-name="udieresis" unicode="&#xfc;" horiz-adv-x="618" 
d="M291 -22q-43 0 -82 20.5t-63 78.5t-24 170v740h-104v59h164v-795q0 -87 16.5 -132t42.5 -61t54 -16q48 0 81 48t49.5 120t16.5 145v632h-106v59h166v-986h94v-60h-149v135q-4 -32 -22 -68.5t-51 -62.5t-83 -26zM418 1121q-26 0 -45 18.5t-19 43.5q0 27 19 47t45 20
q25 0 44 -20t19 -47q0 -25 -19 -43.5t-44 -18.5zM203 1121q-24 0 -43.5 18.5t-19.5 43.5q0 27 19.5 47t43.5 20q26 0 46 -20t20 -47q0 -25 -20 -43.5t-46 -18.5z" />
    <glyph glyph-name="yacute" unicode="&#xfd;" horiz-adv-x="571" 
d="M155 -502q-34 0 -53.5 27t-28 74t-8.5 108q0 30 8.5 47t26.5 17q20 0 27.5 -15.5t7.5 -37.5q0 -16 -3 -28t-6.5 -24.5t-3.5 -32.5q0 -28 7 -57t26 -29q13 0 21 15.5t14.5 44t13.5 66.5l67 356l-162 958h-82v60h218v-60h-72l127 -755l125 755h-74v60h222v-60h-82
l-169 -994l-64 -337q-10 -54 -23.5 -89t-32.5 -52t-47 -17zM184 1075l-24 27l166 129q14 12 30 20t30 8q10 0 18.5 -4.5t13.5 -14.5q4 -7 4 -16q0 -19 -19.5 -35t-42.5 -27z" />
    <glyph glyph-name="thorn" unicode="&#xfe;" horiz-adv-x="627" 
d="M40 -500v60h109v1880h-109v60h169v-576q2 8 16.5 39t44 59.5t76.5 28.5q57 0 99.5 -52.5t66 -169.5t23.5 -311q0 -189 -23.5 -308t-66.5 -175t-102 -56q-40 0 -66 18t-40.5 42.5t-20.5 46t-7 29.5v-555h98v-60h-267zM337 42q42 0 68 39t39 105.5t18 151t5 175.5
q0 67 -4 147t-16 153t-36.5 120t-66.5 47q-31 0 -55.5 -23t-42.5 -61t-27.5 -82.5t-9.5 -86.5v-412q4 -60 17 -123t40 -106.5t71 -43.5z" />
    <glyph glyph-name="ydieresis" unicode="&#xff;" horiz-adv-x="571" 
d="M155 -502q-34 0 -53.5 27t-28 74t-8.5 108q0 30 8.5 47t26.5 17q20 0 27.5 -15.5t7.5 -37.5q0 -16 -3 -28t-6.5 -24.5t-3.5 -32.5q0 -28 7 -57t26 -29q13 0 21 15.5t14.5 44t13.5 66.5l67 356l-162 958h-82v60h218v-60h-72l127 -755l125 755h-74v60h222v-60h-82
l-169 -994l-64 -337q-10 -54 -23.5 -89t-32.5 -52t-47 -17zM403 1121q-26 0 -45 18.5t-19 43.5q0 27 19 47t45 20q25 0 44 -20t19 -47q0 -25 -19 -43.5t-44 -18.5zM188 1121q-24 0 -43.5 18.5t-19.5 43.5q0 27 19.5 47t43.5 20q26 0 46 -20t20 -47q0 -25 -20 -43.5
t-46 -18.5z" />
    <glyph glyph-name="Amacron" unicode="&#x100;" horiz-adv-x="638" 
d="M15 0v60h78l182 1344h80l174 -1344h98v-60h-254v60h92l-150 1215h-2l-157 -1215h80v-60h-221zM173 358v58h274v-58h-274zM13 1532v60h604v-60h-604z" />
    <glyph glyph-name="amacron" unicode="&#x101;" horiz-adv-x="550" 
d="M242 -20q-55 0 -96 28t-63.5 85t-22.5 143q0 90 32 150t79.5 102.5t95 78t79.5 73.5t32 91q0 78 -11 136.5t-37.5 91t-73.5 32.5q-52 0 -86 -39t-34 -87q0 -19 3 -28.5t5.5 -18t2.5 -24.5q0 -23 -9 -39.5t-29 -16.5q-19 0 -27.5 17t-8.5 47q0 71 22.5 128t63.5 90t97 33
t96.5 -29.5t63 -94.5t22.5 -173v-645q0 -35 9.5 -47.5t27.5 -12.5q14 0 23 4.5t13 9.5l29 -54q-10 -9 -29 -14.5t-42 -5.5q-20 0 -39 9t-31 28.5t-12 51.5q-7 -21 -23.5 -44.5t-46 -39.5t-75.5 -16zM242 42q46 0 76 34.5t45 79t15 73.5v373q-2 -28 -40 -57t-86.5 -67.5
t-85.5 -96.5t-37 -145q0 -95 28.5 -144.5t84.5 -49.5zM80 1129v60h359v-60h-359z" />
    <glyph glyph-name="Abreve" unicode="&#x102;" horiz-adv-x="638" 
d="M15 0v60h78l182 1344h80l174 -1344h98v-60h-254v60h92l-150 1215h-2l-157 -1215h80v-60h-221zM173 358v58h274v-58h-274zM313 1495q-56 0 -91 23.5t-51 64.5t-16 92h56q4 -58 29 -89t73 -31q49 0 74 31t29 89h57q0 -51 -16 -92t-51.5 -64.5t-92.5 -23.5z" />
    <glyph glyph-name="abreve" unicode="&#x103;" horiz-adv-x="550" 
d="M242 -20q-55 0 -96 28t-63.5 85t-22.5 143q0 90 32 150t79.5 102.5t95 78t79.5 73.5t32 91q0 78 -11 136.5t-37.5 91t-73.5 32.5q-52 0 -86 -39t-34 -87q0 -19 3 -28.5t5.5 -18t2.5 -24.5q0 -23 -9 -39.5t-29 -16.5q-19 0 -27.5 17t-8.5 47q0 71 22.5 128t63.5 90t97 33
t96.5 -29.5t63 -94.5t22.5 -173v-645q0 -35 9.5 -47.5t27.5 -12.5q14 0 23 4.5t13 9.5l29 -54q-10 -9 -29 -14.5t-42 -5.5q-20 0 -39 9t-31 28.5t-12 51.5q-7 -21 -23.5 -44.5t-46 -39.5t-75.5 -16zM242 42q46 0 76 34.5t45 79t15 73.5v373q-2 -28 -40 -57t-86.5 -67.5
t-85.5 -96.5t-37 -145q0 -95 28.5 -144.5t84.5 -49.5zM258 1101q-56 0 -91 23.5t-51 64.5t-16 92h56q4 -58 29 -89t73 -31q49 0 74 31t29 89h57q0 -51 -16 -92t-51.5 -64.5t-92.5 -23.5z" />
    <glyph glyph-name="Aogonek" unicode="&#x104;" horiz-adv-x="638" 
d="M15 0v60h78l182 1344h80l174 -1344h98v-60h-254v60h92l-150 1215h-2l-157 -1215h80v-60h-221zM173 358v58h274v-58h-274zM637 -283q-36 0 -74 12.5t-63.5 43t-25.5 82.5q0 41 23 73.5t53.5 56t52.5 34.5l24 -19q-20 -19 -47 -55.5t-27 -84.5q0 -55 33.5 -68.5t67.5 -13.5
q23 0 57 6t57 19l26 -42q-22 -16 -63.5 -30t-93.5 -14z" />
    <glyph glyph-name="aogonek" unicode="&#x105;" horiz-adv-x="550" 
d="M242 -20q-55 0 -96 28t-63.5 85t-22.5 143q0 90 32 150t79.5 102.5t95 78t79.5 73.5t32 91q0 78 -11 136.5t-37.5 91t-73.5 32.5q-52 0 -84 -39t-32 -87q0 -19 2 -31t3.5 -23t1.5 -27q0 -23 -9 -39t-29 -16q-19 0 -28.5 17t-9.5 47q0 71 23 130t64.5 94.5t97.5 35.5
t96.5 -29.5t63 -94.5t22.5 -173v-645q0 -35 9.5 -47.5t27.5 -12.5q14 0 23 4.5t13 9.5l29 -54q-10 -9 -29 -14.5t-42 -5.5q-20 0 -39 9t-31 28.5t-12 51.5q-7 -21 -23.5 -44.5t-46 -39.5t-75.5 -16zM242 42q46 0 76 34.5t45 79t15 73.5v373q-2 -28 -40 -57t-86.5 -67.5
t-85.5 -96.5t-37 -145q0 -95 28.5 -144.5t84.5 -49.5zM550 -272q-36 0 -74 12.5t-63.5 43t-25.5 82.5q0 41 23 73.5t53.5 56t52.5 34.5l24 -19q-20 -19 -47 -55.5t-27 -84.5q0 -55 33.5 -68.5t67.5 -13.5q23 0 57 6t57 19l26 -42q-22 -16 -63.5 -30t-93.5 -14z" />
    <glyph glyph-name="Cacute" unicode="&#x106;" horiz-adv-x="578" 
d="M353 -20q-126 0 -209.5 180t-83.5 538q0 126 19 253.5t56.5 234t94 171.5t130.5 65q49 0 84 -37t53.5 -94t18.5 -118q0 -41 -11 -55t-29 -14q-19 0 -31 14t-12 44q0 18 3 32.5t6 34t3 51.5q0 38 -23.5 60t-52.5 22q-47 0 -86 -40.5t-68.5 -109.5t-49.5 -155t-30.5 -178.5
t-10.5 -178.5q0 -125 12 -229t33.5 -184t50.5 -135t62.5 -83.5t70.5 -28.5t64 26.5t44.5 63.5t27.5 68l55 -22q-15 -47 -42 -92t-64.5 -74.5t-84.5 -29.5zM240 1446l-24 27l165 129q14 11 30.5 19.5t30.5 8.5q10 0 18.5 -4.5t13.5 -14.5q4 -7 4 -16q0 -19 -19.5 -35
t-42.5 -27z" />
    <glyph glyph-name="cacute" unicode="&#x107;" horiz-adv-x="518" 
d="M293 -20q-70 0 -117 52t-75 135.5t-40 180.5t-12 187q0 121 19 217t52.5 163t77.5 102.5t93 35.5q58 0 95 -37.5t55 -95t18 -118.5q0 -30 -8.5 -47t-27.5 -17t-28.5 16t-9.5 39q0 16 3 24t6 18t3 30q0 56 -29 91t-77 35q-45 0 -78 -37t-55 -100t-32.5 -144t-10.5 -170
q0 -82 9 -169.5t29.5 -162t54.5 -120.5t85 -46q50 0 78 24t44 70l45 -36q-15 -35 -54 -77.5t-113 -42.5zM163 1075l-24 27l166 129q14 12 30 20t30 8q10 0 18.5 -4.5t13.5 -14.5q4 -7 4 -16q0 -19 -19.5 -35t-42.5 -27z" />
    <glyph glyph-name="ccircumflex" unicode="&#x109;" horiz-adv-x="518" 
d="M293 -20q-70 0 -117 52t-75 135.5t-40 180.5t-12 187q0 121 19 217t52.5 163t77.5 102.5t93 35.5q58 0 95 -37.5t55 -95t18 -118.5q0 -30 -8.5 -47t-27.5 -17t-28.5 16t-9.5 39q0 16 3 24t6 18t3 30q0 56 -29 91t-77 35q-45 0 -78 -37t-55 -100t-32.5 -144t-10.5 -170
q0 -82 9 -169.5t29.5 -162t54.5 -120.5t85 -46q50 0 78 24t44 70l45 -36q-15 -35 -54 -77.5t-113 -42.5zM93 1117l147 209h71l146 -209h-60l-122 143l-122 -143h-60z" />
    <glyph glyph-name="Cdotaccent" unicode="&#x10a;" horiz-adv-x="578" 
d="M353 -20q-126 0 -209.5 180t-83.5 538q0 126 19 253.5t56.5 234t94 171.5t130.5 65q49 0 84 -37t53.5 -94t18.5 -118q0 -41 -11 -55t-29 -14q-19 0 -31 14t-12 44q0 18 3 32.5t6 34t3 51.5q0 38 -23.5 60t-52.5 22q-47 0 -86 -40.5t-68.5 -109.5t-49.5 -155t-30.5 -178.5
t-10.5 -178.5q0 -125 12 -229t33.5 -184t50.5 -135t62.5 -83.5t70.5 -28.5t64 26.5t44.5 63.5t27.5 68l55 -22q-15 -47 -42 -92t-64.5 -74.5t-84.5 -29.5zM352 1505q-25 0 -45 18.5t-20 43.5q0 26 20 46t45 20t44.5 -20t19.5 -46q0 -25 -19.5 -43.5t-44.5 -18.5z" />
    <glyph glyph-name="cdotaccent" unicode="&#x10b;" horiz-adv-x="518" 
d="M293 -20q-70 0 -117 52t-75 135.5t-40 180.5t-12 187q0 121 19 217t52.5 163t77.5 102.5t93 35.5q58 0 95 -37.5t55 -95t18 -118.5q0 -30 -8.5 -47t-27.5 -17t-28.5 16t-9.5 39q0 16 3 24t6 18t3 30q0 56 -29 91t-77 35q-45 0 -78 -37t-55 -100t-32.5 -144t-10.5 -170
q0 -82 9 -169.5t29.5 -162t54.5 -120.5t85 -46q50 0 78 24t44 70l45 -36q-15 -35 -54 -77.5t-113 -42.5zM275 1125q-25 0 -45 18.5t-20 43.5q0 26 20 46t45 20t44.5 -20t19.5 -46q0 -25 -19.5 -43.5t-44.5 -18.5z" />
    <glyph glyph-name="Ccaron" unicode="&#x10c;" horiz-adv-x="578" 
d="M353 -20q-126 0 -209.5 180t-83.5 538q0 126 19 253.5t56.5 234t94 171.5t130.5 65q49 0 84 -37t53.5 -94t18.5 -118q0 -41 -11 -55t-29 -14q-19 0 -31 14t-12 44q0 18 3 32.5t6 34t3 51.5q0 38 -23.5 60t-52.5 22q-47 0 -86 -40.5t-68.5 -109.5t-49.5 -155t-30.5 -178.5
t-10.5 -178.5q0 -125 12 -229t33.5 -184t50.5 -135t62.5 -83.5t70.5 -28.5t64 26.5t44.5 63.5t27.5 68l55 -22q-15 -47 -42 -92t-64.5 -74.5t-84.5 -29.5zM317 1464l-147 209h60l122 -142l122 142h60l-146 -209h-71z" />
    <glyph glyph-name="ccaron" unicode="&#x10d;" horiz-adv-x="518" 
d="M293 -20q-70 0 -117 52t-75 135.5t-40 180.5t-12 187q0 121 19 217t52.5 163t77.5 102.5t93 35.5q58 0 95 -37.5t55 -95t18 -118.5q0 -30 -8.5 -47t-27.5 -17t-28.5 16t-9.5 39q0 16 3 24t6 18t3 30q0 56 -29 91t-77 35q-45 0 -78 -37t-55 -100t-32.5 -144t-10.5 -170
q0 -82 9 -169.5t29.5 -162t54.5 -120.5t85 -46q50 0 78 24t44 70l45 -36q-15 -35 -54 -77.5t-113 -42.5zM240 1101l-147 209h60l122 -142l122 142h60l-146 -209h-71z" />
    <glyph glyph-name="Dcaron" unicode="&#x10e;" horiz-adv-x="678" 
d="M60 0v60h89v1280h-89v60h231q91 0 165 -74t118 -226.5t44 -388.5q0 -238 -44 -396t-118.5 -236.5t-164.5 -78.5h-231zM209 60h57q74 0 139 63.5t105.5 206.5t40.5 381q0 204 -36 344t-92 212.5t-117 72.5h-97v-1280zM267 1464l-147 209h60l122 -142l122 142h60l-146 -209
h-71z" />
    <glyph glyph-name="dcaron" unicode="&#x10f;" horiz-adv-x="665" 
d="M527 1205q11 44 18 95t7 100q0 35 7.5 54t26.5 19q20 0 25.5 -17t5.5 -46q0 -41 -10 -102.5t-33 -122.5zM271 -20q-61 0 -104 55t-66 173.5t-23 309.5q0 195 23.5 312t66 169t99.5 52q44 0 72.5 -21t44.5 -50.5t21 -55.5v516h-109v60h169v-1440h108v-60h-168v135
q-3 -26 -18.5 -63t-43.5 -64.5t-72 -27.5zM278 42q36 0 62.5 44t43.5 108t21 124v449q-5 50 -24.5 99t-48 81.5t-61.5 32.5q-38 0 -63 -36.5t-39.5 -101t-20.5 -149t-6 -180.5q0 -120 8 -208.5t24 -147t42 -87t62 -28.5z" />
    <glyph glyph-name="Dcroat" unicode="&#x110;" horiz-adv-x="738" 
d="M45 688v60h344v-60h-344zM60 0v60h89v1280h-89v60h231q91 0 165 -74t118 -226.5t44 -388.5q0 -238 -44 -396t-118.5 -236.5t-164.5 -78.5h-231zM209 60h57q74 0 139 63.5t105.5 206.5t40.5 381q0 204 -36 344t-92 212.5t-117 72.5h-97v-1280z" />
    <glyph glyph-name="dcroat" unicode="&#x111;" horiz-adv-x="583" 
d="M193 1255v60h382v-60h-382zM271 -20q-61 0 -104 55t-66 173.5t-23 309.5q0 195 23.5 312t66 169t99.5 52q44 0 72.5 -21t44.5 -50.5t21 -55.5v516h-109v60h169v-1440h108v-60h-168v135q-3 -26 -18.5 -63t-43.5 -64.5t-72 -27.5zM278 42q36 0 62.5 44t43.5 108t21 124v449
q-5 50 -24.5 99t-48 81.5t-61.5 32.5q-38 0 -63 -36.5t-39.5 -101t-20.5 -149t-6 -180.5q0 -120 8 -208.5t24 -147t42 -87t62 -28.5z" />
    <glyph glyph-name="Emacron" unicode="&#x112;" horiz-adv-x="618" 
d="M60 0v60h91v1280h-91v60h480v-244h-60q0 81 -4.5 120.5t-19.5 51.5t-49 12h-196v-609h227v100h55v-258h-55v98h-227v-611h196q34 0 49 13t19.5 53t4.5 121h60v-247h-480zM16 1532v60h604v-60h-604z" />
    <glyph glyph-name="emacron" unicode="&#x113;" horiz-adv-x="492" 
d="M252 -22q-67 0 -107.5 50.5t-61 132t-27 177.5t-6.5 187q0 126 13 224.5t39 166t64 102.5t88 35q58 0 93.5 -41t54 -106.5t25 -142t6.5 -147.5v-43t-1 -41h-331v60h267q0 104 -9 195.5t-33.5 148.5t-71.5 57q-44 0 -75.5 -56t-48 -154.5t-16.5 -226.5q0 -93 5 -184.5
t19 -166.5t41.5 -120t72.5 -45q53 0 80 34.5t35 65.5l54 -22q-14 -57 -60.5 -98.5t-108.5 -41.5zM72 1127v60h359v-60h-359z" />
    <glyph glyph-name="ebreve" unicode="&#x115;" horiz-adv-x="492" 
d="M252 -22q-67 0 -107.5 50.5t-61 132t-27 177.5t-6.5 187q0 126 13 224.5t39 166t64 102.5t88 35q58 0 93.5 -41t54 -106.5t25 -142t6.5 -147.5v-43t-1 -41h-331v60h267q0 104 -9 195.5t-33.5 148.5t-71.5 57q-44 0 -75.5 -56t-48 -154.5t-16.5 -226.5q0 -93 5 -184.5
t19 -166.5t41.5 -120t72.5 -45q53 0 80 34.5t35 65.5l54 -22q-14 -57 -60.5 -98.5t-108.5 -41.5zM250 1099q-56 0 -91 23.5t-51 64.5t-16 92h56q4 -58 29 -89t73 -31q49 0 74 31t29 89h57q0 -51 -16 -92t-51.5 -64.5t-92.5 -23.5z" />
    <glyph glyph-name="Edotaccent" unicode="&#x116;" horiz-adv-x="618" 
d="M60 0v60h91v1280h-91v60h480v-244h-60q0 81 -4.5 120.5t-19.5 51.5t-49 12h-196v-609h227v100h55v-258h-55v98h-227v-611h196q34 0 49 13t19.5 53t4.5 121h60v-247h-480zM318 1505q-25 0 -45 18.5t-20 43.5q0 26 20 46t45 20t44.5 -20t19.5 -46q0 -25 -19.5 -43.5
t-44.5 -18.5z" />
    <glyph glyph-name="edotaccent" unicode="&#x117;" horiz-adv-x="492" 
d="M252 -22q-67 0 -107.5 50.5t-61 132t-27 177.5t-6.5 187q0 126 13 224.5t39 166t64 102.5t88 35q58 0 93.5 -41t54 -106.5t25 -142t6.5 -147.5v-43t-1 -41h-331v60h267q0 104 -9 195.5t-33.5 148.5t-71.5 57q-44 0 -75.5 -56t-48 -154.5t-16.5 -226.5q0 -93 5 -184.5
t19 -166.5t41.5 -120t72.5 -45q53 0 80 34.5t35 65.5l54 -22q-14 -57 -60.5 -98.5t-108.5 -41.5zM252 1123q-25 0 -45 18.5t-20 43.5q0 26 20 46t45 20t44.5 -20t19.5 -46q0 -25 -19.5 -43.5t-44.5 -18.5z" />
    <glyph glyph-name="Eogonek" unicode="&#x118;" horiz-adv-x="618" 
d="M60 0v60h91v1280h-91v60h480v-244h-60q0 81 -4.5 120.5t-19.5 51.5t-49 12h-196v-609h227v100h55v-258h-55v98h-227v-611h196q34 0 49 13t19.5 53t4.5 121h60v-247h-480zM550 -283q-36 0 -74 12.5t-63.5 43t-25.5 82.5q0 41 23 73.5t53.5 56t52.5 34.5l24 -19
q-20 -19 -47 -55.5t-27 -84.5q0 -55 33.5 -68.5t67.5 -13.5q23 0 57 6t57 19l26 -42q-22 -16 -63.5 -30t-93.5 -14z" />
    <glyph glyph-name="eogonek" unicode="&#x119;" horiz-adv-x="492" 
d="M252 -22q-67 0 -107.5 50.5t-61 132t-27 177.5t-6.5 187q0 126 13 224.5t39 166t64 102.5t88 35q58 0 93.5 -41t54 -106.5t25 -142t6.5 -147.5v-43t-1 -41h-331v60h267q0 104 -9 195.5t-33.5 148.5t-71.5 57q-44 0 -75.5 -56t-48 -154.5t-16.5 -226.5q0 -93 5 -184.5
t19 -166.5t41.5 -120t72.5 -45q53 0 80 34.5t35 65.5l54 -22q-14 -57 -60.5 -98.5t-108.5 -41.5zM361 -269q-36 0 -74 12.5t-63.5 43t-25.5 82.5q0 41 23 73.5t53.5 56t52.5 34.5l24 -19q-20 -19 -47 -55.5t-27 -84.5q0 -55 33.5 -68.5t67.5 -13.5q23 0 57 6t57 19l26 -42
q-22 -16 -63.5 -30t-93.5 -14z" />
    <glyph glyph-name="Ecaron" unicode="&#x11a;" horiz-adv-x="618" 
d="M60 0v60h91v1280h-91v60h480v-244h-60q0 81 -4.5 120.5t-19.5 51.5t-49 12h-196v-609h227v100h55v-258h-55v98h-227v-611h196q34 0 49 13t19.5 53t4.5 121h60v-247h-480zM283 1464l-147 209h60l122 -142l122 142h60l-146 -209h-71z" />
    <glyph glyph-name="ecaron" unicode="&#x11b;" horiz-adv-x="492" 
d="M252 -22q-67 0 -107.5 50.5t-61 132t-27 177.5t-6.5 187q0 126 13 224.5t39 166t64 102.5t88 35q58 0 93.5 -41t54 -106.5t25 -142t6.5 -147.5v-43t-1 -41h-331v60h267q0 104 -9 195.5t-33.5 148.5t-71.5 57q-44 0 -75.5 -56t-48 -154.5t-16.5 -226.5q0 -93 5 -184.5
t19 -166.5t41.5 -120t72.5 -45q53 0 80 34.5t35 65.5l54 -22q-14 -57 -60.5 -98.5t-108.5 -41.5zM217 1099l-147 209h60l122 -142l122 142h60l-146 -209h-71z" />
    <glyph glyph-name="gcircumflex" unicode="&#x11d;" horiz-adv-x="565" 
d="M289 -498q-85 0 -137.5 40.5t-76.5 102t-24 124.5q0 60 12 102.5t30.5 71t39.5 45.5t38 25q-10 2 -27 10.5t-34.5 25.5t-30 44.5t-12.5 66.5q0 42 16.5 71t39 44t40.5 15h7.5t5.5 -1q-15 13 -29.5 41.5t-26 71.5t-18 100t-6.5 127q0 119 13.5 200t39 130.5t62 71.5
t82.5 22q66 0 106 -49.5t58.5 -139.5t18.5 -213q0 -106 -12 -185t-35.5 -131.5t-59 -78t-82.5 -25.5q-37 0 -55.5 10.5t-20.5 11.5q-1 1 -3 1.5t-6 0.5q-23 0 -48 -25t-25 -63q0 -53 34.5 -80t127.5 -38q128 -13 183 -79t55 -186q0 -68 -18 -120.5t-50.5 -88.5t-76 -54.5
t-95.5 -18.5zM289 -442q80 0 129 58t49 149q0 113 -33.5 160.5t-115.5 59.5q-21 3 -39 6t-31 5.5t-19 3.5q-42 -23 -67 -59t-36 -78t-11 -85q0 -51 18.5 -101.5t57 -84.5t98.5 -34zM287 291q35 0 63 29.5t44.5 107t16.5 219.5q0 139 -16 213.5t-43 103.5t-61 29t-63.5 -29
t-47.5 -105.5t-18 -218.5q0 -139 17.5 -214.5t46 -105t61.5 -29.5zM356 996q7 48 43 77t73 29q33 0 46.5 -13t13.5 -38q0 -19 -11 -32.5t-31 -13.5q-14 0 -21.5 7t-13.5 14t-19 7q-14 0 -23.5 -12.5t-9.5 -29.5zM103 1117l147 209h71l146 -209h-60l-122 143l-122 -143h-60z
" />
    <glyph glyph-name="Gbreve" unicode="&#x11e;" horiz-adv-x="649" 
d="M345 -20q-75 0 -135.5 86t-96 247t-35.5 385q0 239 41 399.5t107 241.5t141 81q62 0 99 -36t53.5 -92.5t16.5 -118.5q0 -41 -11 -55t-29 -14q-17 0 -29 15t-12 43q0 18 3.5 33t7 33.5t3.5 47.5q0 32 -26.5 58t-73.5 26q-58 0 -100.5 -61.5t-70.5 -161t-42 -215.5
t-14 -224q0 -153 17 -275t46.5 -208t67.5 -131.5t80 -45.5q37 0 65.5 13t41.5 25v497h-95v60h246v-60h-91v-573h-47q-1 2 -4.5 3.5t-7.5 1.5q-10 0 -24.5 -6t-36.5 -12.5t-55 -6.5zM356 1495q-56 0 -91 23.5t-51 64.5t-16 92h56q4 -58 29 -89t73 -31q49 0 74 31t29 89h57
q0 -51 -16 -92t-51.5 -64.5t-92.5 -23.5z" />
    <glyph glyph-name="gbreve" unicode="&#x11f;" horiz-adv-x="565" 
d="M289 -498q-85 0 -137.5 40.5t-76.5 102t-24 124.5q0 60 12 102.5t30.5 71t39.5 45.5t38 25q-10 2 -27 10.5t-34.5 25.5t-30 44.5t-12.5 66.5q0 42 16.5 71t39 44t40.5 15h7.5t5.5 -1q-15 13 -29.5 41.5t-26 71.5t-18 100t-6.5 127q0 119 13.5 200t39 130.5t62 71.5
t82.5 22q66 0 106 -49.5t58.5 -139.5t18.5 -213q0 -106 -12 -185t-35.5 -131.5t-59 -78t-82.5 -25.5q-37 0 -55.5 10.5t-20.5 11.5q-1 1 -3 1.5t-6 0.5q-23 0 -48 -25t-25 -63q0 -53 34.5 -80t127.5 -38q128 -13 183 -79t55 -186q0 -68 -18 -120.5t-50.5 -88.5t-76 -54.5
t-95.5 -18.5zM289 -442q80 0 129 58t49 149q0 113 -33.5 160.5t-115.5 59.5q-21 3 -39 6t-31 5.5t-19 3.5q-42 -23 -67 -59t-36 -78t-11 -85q0 -51 18.5 -101.5t57 -84.5t98.5 -34zM287 291q35 0 63 29.5t44.5 107t16.5 219.5q0 139 -16 213.5t-43 103.5t-61 29t-63.5 -29
t-47.5 -105.5t-18 -218.5q0 -139 17.5 -214.5t46 -105t61.5 -29.5zM356 996q7 48 43 77t73 29q33 0 46.5 -13t13.5 -38q0 -19 -11 -32.5t-31 -13.5q-14 0 -21.5 7t-13.5 14t-19 7q-14 0 -23.5 -12.5t-9.5 -29.5zM283 1101q-56 0 -91 23.5t-51 64.5t-16 92h56q4 -58 29 -89
t73 -31q49 0 74 31t29 89h57q0 -51 -16 -92t-51.5 -64.5t-92.5 -23.5z" />
    <glyph glyph-name="Gdotaccent" unicode="&#x120;" horiz-adv-x="649" 
d="M345 -20q-75 0 -135.5 86t-96 247t-35.5 385q0 239 41 399.5t107 241.5t141 81q62 0 99 -36t53.5 -92.5t16.5 -118.5q0 -41 -11 -55t-29 -14q-17 0 -29 15t-12 43q0 18 3.5 33t7 33.5t3.5 47.5q0 32 -26.5 58t-73.5 26q-58 0 -100.5 -61.5t-70.5 -161t-42 -215.5
t-14 -224q0 -153 17 -275t46.5 -208t67.5 -131.5t80 -45.5q37 0 65.5 13t41.5 25v497h-95v60h246v-60h-91v-573h-47q-1 2 -4.5 3.5t-7.5 1.5q-10 0 -24.5 -6t-36.5 -12.5t-55 -6.5zM358 1505q-25 0 -45 18.5t-20 43.5q0 26 20 46t45 20t44.5 -20t19.5 -46q0 -25 -19.5 -43.5
t-44.5 -18.5z" />
    <glyph glyph-name="gdotaccent" unicode="&#x121;" horiz-adv-x="565" 
d="M289 -498q-85 0 -137.5 40.5t-76.5 102t-24 124.5q0 60 12 102.5t30.5 71t39.5 45.5t38 25q-10 2 -27 10.5t-34.5 25.5t-30 44.5t-12.5 66.5q0 42 16.5 71t39 44t40.5 15h7.5t5.5 -1q-15 13 -29.5 41.5t-26 71.5t-18 100t-6.5 127q0 119 13.5 200t39 130.5t62 71.5
t82.5 22q66 0 106 -49.5t58.5 -139.5t18.5 -213q0 -106 -12 -185t-35.5 -131.5t-59 -78t-82.5 -25.5q-37 0 -55.5 10.5t-20.5 11.5q-1 1 -3 1.5t-6 0.5q-23 0 -48 -25t-25 -63q0 -53 34.5 -80t127.5 -38q128 -13 183 -79t55 -186q0 -68 -18 -120.5t-50.5 -88.5t-76 -54.5
t-95.5 -18.5zM289 -442q80 0 129 58t49 149q0 113 -33.5 160.5t-115.5 59.5q-21 3 -39 6t-31 5.5t-19 3.5q-42 -23 -67 -59t-36 -78t-11 -85q0 -51 18.5 -101.5t57 -84.5t98.5 -34zM287 291q35 0 63 29.5t44.5 107t16.5 219.5q0 139 -16 213.5t-43 103.5t-61 29t-63.5 -29
t-47.5 -105.5t-18 -218.5q0 -139 17.5 -214.5t46 -105t61.5 -29.5zM356 996q7 48 43 77t73 29q33 0 46.5 -13t13.5 -38q0 -19 -11 -32.5t-31 -13.5q-14 0 -21.5 7t-13.5 14t-19 7q-14 0 -23.5 -12.5t-9.5 -29.5zM285 1125q-25 0 -45 18.5t-20 43.5q0 26 20 46t45 20
t44.5 -20t19.5 -46q0 -25 -19.5 -43.5t-44.5 -18.5z" />
    <glyph glyph-name="uni0122" unicode="&#x122;" horiz-adv-x="649" 
d="M345 -20q-75 0 -135.5 86t-96 247t-35.5 385q0 239 41 399.5t107 241.5t141 81q62 0 99 -36t53.5 -92.5t16.5 -118.5q0 -41 -11 -55t-29 -14q-17 0 -29 15t-12 43q0 18 3.5 33t7 33.5t3.5 47.5q0 32 -26.5 58t-73.5 26q-58 0 -100.5 -61.5t-70.5 -161t-42 -215.5
t-14 -224q0 -153 17 -275t46.5 -208t67.5 -131.5t80 -45.5q37 0 65.5 13t41.5 25v497h-95v60h246v-60h-91v-573h-47q-1 2 -4.5 3.5t-7.5 1.5q-10 0 -24.5 -6t-36.5 -12.5t-55 -6.5zM352 -324l-27 31q10 6 26.5 24t16.5 29q-2 -4 -12 -4q-23 0 -38 15.5t-15 37.5
q0 23 16.5 38t38.5 15q27 0 42.5 -18.5t15.5 -47.5q0 -27 -10 -50t-25 -40.5t-29 -29.5z" />
    <glyph glyph-name="uni0123" unicode="&#x123;" horiz-adv-x="565" 
d="M289 -498q-85 0 -137.5 40.5t-76.5 102t-24 124.5q0 60 12 102.5t30.5 71t39.5 45.5t38 25q-10 2 -27 10.5t-34.5 25.5t-30 44.5t-12.5 66.5q0 42 16.5 71t39 44t40.5 15h7.5t5.5 -1q-15 13 -29.5 41.5t-26 71.5t-18 100t-6.5 127q0 119 13.5 200t39 130.5t62 71.5
t82.5 22q66 0 106 -49.5t58.5 -139.5t18.5 -213q0 -106 -12 -185t-35.5 -131.5t-59 -78t-82.5 -25.5q-37 0 -55.5 10.5t-20.5 11.5q-1 1 -3 1.5t-6 0.5q-23 0 -48 -25t-25 -63q0 -53 34.5 -80t127.5 -38q128 -13 183 -79t55 -186q0 -68 -18 -120.5t-50.5 -88.5t-76 -54.5
t-95.5 -18.5zM289 -442q80 0 129 58t49 149q0 113 -33.5 160.5t-115.5 59.5q-21 3 -39 6t-31 5.5t-19 3.5q-42 -23 -67 -59t-36 -78t-11 -85q0 -51 18.5 -101.5t57 -84.5t98.5 -34zM287 291q35 0 63 29.5t44.5 107t16.5 219.5q0 139 -16 213.5t-43 103.5t-61 29t-63.5 -29
t-47.5 -105.5t-18 -218.5q0 -139 17.5 -214.5t46 -105t61.5 -29.5zM356 996q7 48 43 77t73 29q33 0 46.5 -13t13.5 -38q0 -19 -11 -32.5t-31 -13.5q-14 0 -21.5 7t-13.5 14t-19 7q-14 0 -23.5 -12.5t-9.5 -29.5zM289 1311l27 -31q-10 -6 -26.5 -24t-16.5 -29q2 4 12 4
q23 0 38 -15.5t15 -37.5q0 -23 -16 -38t-39 -15q-27 0 -44.5 18.5t-17.5 47.5q0 27 11 50t27 41t30 29z" />
    <glyph glyph-name="hcircumflex" unicode="&#x125;" horiz-adv-x="667" 
d="M35 0v60h101v1380h-101v60h161v-582q3 21 26 53.5t60.5 58t82.5 25.5q39 0 78 -22.5t65.5 -88.5t26.5 -197v-687h103v-60h-251v60h88v660q0 146 -28.5 208.5t-93.5 62.5q-42 0 -77.5 -38t-57 -91.5t-22.5 -101.5v-700h88v-60h-249zM156 1570l147 209h71l146 -209h-60
l-122 143l-122 -143h-60z" />
    <glyph glyph-name="Hbar" unicode="&#x126;" horiz-adv-x="765" 
d="M69 1018v60h638v-60h-638zM60 0v60h89v1280h-89v60h238v-60h-89v-589h336v589h-89v60h242v-60h-93v-1280h93v-60h-242v60h89v631h-336v-631h89v-60h-238z" />
    <glyph glyph-name="hbar" unicode="&#x127;" horiz-adv-x="667" 
d="M33 1255v60h382v-60h-382zM35 0v60h101v1380h-101v60h161v-582q3 21 26 53.5t60.5 58t82.5 25.5q39 0 78 -22.5t65.5 -88.5t26.5 -197v-687h103v-60h-251v60h88v660q0 146 -28.5 208.5t-93.5 62.5q-42 0 -77.5 -38t-57 -91.5t-22.5 -101.5v-700h88v-60h-249z" />
    <glyph glyph-name="Itilde" unicode="&#x128;" horiz-adv-x="385" 
d="M69 0v60h93v1280h-93v60h247v-60h-94v-1280h94v-60h-247zM278 1470q-38 0 -64 18.5t-48.5 37t-49.5 18.5q-29 0 -44 -22t-20 -36l-56 33q5 19 19.5 41.5t38.5 39.5t57 17q38 0 66 -19t52.5 -38t50.5 -19q23 0 36 17t20 30l54 -39q-5 -17 -19.5 -35.5t-37.5 -31t-55 -12.5
z" />
    <glyph glyph-name="itilde" unicode="&#x129;" horiz-adv-x="347" 
d="M40 0v60h109v927h-109v60h169v-987h111v-60h-280zM264 1121q-38 0 -64 18.5t-48.5 37t-49.5 18.5q-29 0 -44 -22t-20 -36l-56 33q5 19 19.5 41.5t38.5 39.5t57 17q38 0 66 -19t52.5 -38t50.5 -19q23 0 36 17t20 30l54 -39q-5 -17 -19.5 -35.5t-37.5 -31t-55 -12.5z" />
    <glyph glyph-name="Imacron" unicode="&#x12a;" horiz-adv-x="385" 
d="M69 0v60h93v1280h-93v60h247v-60h-94v-1280h94v-60h-247zM-109 1532v60h604v-60h-604z" />
    <glyph glyph-name="imacron" unicode="&#x12b;" horiz-adv-x="347" 
d="M40 0v60h109v927h-109v60h169v-987h111v-60h-280zM-1 1129v60h359v-60h-359z" />
    <glyph glyph-name="ibreve" unicode="&#x12d;" horiz-adv-x="347" 
d="M40 0v60h109v927h-109v60h169v-987h111v-60h-280zM177 1101q-56 0 -91 23.5t-51 64.5t-16 92h56q4 -58 29 -89t73 -31q49 0 74 31t29 89h57q0 -51 -16 -92t-51.5 -64.5t-92.5 -23.5z" />
    <glyph glyph-name="Iogonek" unicode="&#x12e;" horiz-adv-x="385" 
d="M69 0v60h93v1280h-93v60h247v-60h-94v-1280h94v-60h-247zM326 -283q-36 0 -74 12.5t-63.5 43t-25.5 82.5q0 41 23 73.5t53.5 56t52.5 34.5l24 -19q-20 -19 -47 -55.5t-27 -84.5q0 -55 33.5 -68.5t67.5 -13.5q23 0 57 6t57 19l26 -42q-22 -16 -63.5 -30t-93.5 -14z" />
    <glyph glyph-name="iogonek" unicode="&#x12f;" horiz-adv-x="360" 
d="M192 1284q-28 0 -51 21t-23 50q0 30 23 52.5t51 22.5q29 0 51.5 -22.5t22.5 -52.5q0 -19 -10.5 -35.5t-27.5 -26t-36 -9.5zM40 0v60h109v927h-109v60h169v-987h111v-60h-280zM330 -283q-36 0 -74 12.5t-63.5 43t-25.5 82.5q0 41 23 73.5t53.5 56t52.5 34.5l24 -19
q-20 -19 -47 -55.5t-27 -84.5q0 -55 33.5 -68.5t67.5 -13.5q23 0 57 6t57 19l26 -42q-22 -16 -63.5 -30t-93.5 -14z" />
    <glyph glyph-name="Idotaccent" unicode="&#x130;" horiz-adv-x="385" 
d="M69 0v60h93v1280h-93v60h247v-60h-94v-1280h94v-60h-247zM193 1505q-25 0 -45 18.5t-20 43.5q0 26 20 46t45 20t44.5 -20t19.5 -46q0 -25 -19.5 -43.5t-44.5 -18.5z" />
    <glyph glyph-name="dotlessi" unicode="&#x131;" horiz-adv-x="347" 
d="M40 0v60h109v927h-109v60h169v-987h111v-60h-280z" />
    <glyph glyph-name="jcircumflex" unicode="&#x135;" horiz-adv-x="313" 
d="M35 -498q-43 0 -72 27t-44 74t-15 108q0 30 10.5 47.5t29.5 17.5q20 0 30 -16t10 -38q0 -16 -2 -32t-4.5 -33t-2.5 -37q0 -27 10 -39t24 -14.5t26 -2.5q59 0 91 71.5t32 204.5v1147h-109v60h169v-1158q0 -100 -13 -173t-37.5 -120.5t-58 -70.5t-74.5 -23zM-7 1116
l147 209h71l146 -209h-60l-122 143l-122 -143h-60z" />
    <glyph glyph-name="uni0136" unicode="&#x136;" horiz-adv-x="638" 
d="M42 0v60h93v1280h-93v60h247v-60h-94v-591l263 591h-83v60h216v-60h-64l-294 -649l-8 58l277 -689h89v-60h-231v60h73l-248 624l10 3v-627h94v-60h-247zM314 -324l-27 31q10 6 26.5 24t16.5 29q-2 -4 -12 -4q-23 0 -38 15.5t-15 37.5q0 23 16.5 38t38.5 15
q27 0 42.5 -18.5t15.5 -47.5q0 -27 -10 -50t-25 -40.5t-29 -29.5z" />
    <glyph glyph-name="uni0137" unicode="&#x137;" horiz-adv-x="630" 
d="M43 0v60h102v1380h-102v60h162v-860l190 347h-77v60h218v-60h-76l-169 -312l236 -615h85v-60h-243v60h87l-207 542l-44 -86v-456h93v-60h-255zM321 -324l-27 31q10 6 26.5 24t16.5 29q-2 -4 -12 -4q-23 0 -38 15.5t-15 37.5q0 23 16.5 38t38.5 15q27 0 42.5 -18.5
t15.5 -47.5q0 -27 -10 -50t-25 -40.5t-29 -29.5z" />
    <glyph glyph-name="kgreenlandic" unicode="&#x138;" horiz-adv-x="638" 
d="M42 0v60h93v926h-93v60h247v-60h-94v-422l266 422h-86v60h216v-60h-64l-294 -470l-8 44l277 -500h89v-60h-231v60h75l-250 451l10 3v-454h94v-60h-247z" />
    <glyph glyph-name="Lacute" unicode="&#x139;" horiz-adv-x="556" 
d="M69 0v60h91v1280h-91v60h242v-60h-91v-1280h153q23 0 37 13t21 53t7 121h60v-247h-429zM79 1446l-24 27l165 129q14 11 30.5 19.5t30.5 8.5q10 0 18.5 -4.5t13.5 -14.5q4 -7 4 -16q0 -19 -19.5 -35t-42.5 -27z" />
    <glyph glyph-name="lacute" unicode="&#x13a;" horiz-adv-x="335" 
d="M49 0v60h89v1380h-89v60h147v-1440h91v-60h-238zM59 1528l-24 27l166 129q14 12 30 20t30 8q10 0 18.5 -4.5t13.5 -14.5q4 -7 4 -16q0 -19 -19.5 -35t-42.5 -27z" />
    <glyph glyph-name="uni013B" unicode="&#x13b;" horiz-adv-x="556" 
d="M69 0v60h91v1280h-91v60h242v-60h-91v-1280h153q23 0 37 13t21 53t7 121h60v-247h-429zM283 -324l-27 31q10 6 26.5 24t16.5 29q-2 -4 -12 -4q-23 0 -38 15.5t-15 37.5q0 23 16.5 38t38.5 15q27 0 42.5 -18.5t15.5 -47.5q0 -27 -10 -50t-25 -40.5t-29 -29.5z" />
    <glyph glyph-name="uni013C" unicode="&#x13c;" horiz-adv-x="335" 
d="M49 0v60h89v1380h-89v60h147v-1440h91v-60h-238zM165 -324l-27 31q10 6 26.5 24t16.5 29q-2 -4 -12 -4q-23 0 -38 15.5t-15 37.5q0 23 16.5 38t38.5 15q27 0 42.5 -18.5t15.5 -47.5q0 -27 -10 -50t-25 -40.5t-29 -29.5z" />
    <glyph glyph-name="Lcaron" unicode="&#x13d;" horiz-adv-x="556" 
d="M423 1205q11 44 18 95t7 100q0 35 7.5 54t26.5 19q20 0 25.5 -17t5.5 -46q0 -41 -10 -102.5t-33 -122.5zM69 0v60h91v1280h-91v60h242v-60h-91v-1280h153q23 0 37 13t21 53t7 121h60v-247h-429z" />
    <glyph glyph-name="lcaron" unicode="&#x13e;" horiz-adv-x="404" 
d="M263 1205q11 44 18 95t7 100q0 35 7.5 54t26.5 19q20 0 25.5 -17t5.5 -46q0 -41 -10 -102.5t-33 -122.5zM49 0v60h89v1380h-89v60h147v-1440h91v-60h-238z" />
    <glyph glyph-name="ldot" unicode="&#x140;" horiz-adv-x="335" 
d="M49 0v60h89v1380h-89v60h147v-1440h91v-60h-238zM328 747q-30 0 -51.5 22.5t-21.5 52.5q0 32 21.5 53t51.5 21t52 -21t22 -53q0 -30 -22 -52.5t-52 -22.5z" />
    <glyph glyph-name="Lslash" unicode="&#x141;" horiz-adv-x="595" 
d="M40 440v73l415 358v-73zM69 0v60h91v1280h-91v60h242v-60h-91v-1280h153q23 0 37 13t21 53t7 121h60v-247h-429z" />
    <glyph glyph-name="lslash" unicode="&#x142;" horiz-adv-x="351" 
d="M18 436v79l293 349v-73zM49 0v60h89v1380h-89v60h147v-1440h91v-60h-238z" />
    <glyph glyph-name="Nacute" unicode="&#x143;" horiz-adv-x="764" 
d="M35 0v60h92v1280h-92v60h196l349 -1286h-2v1226h-93v60h244v-60h-89v-1340h-98l-355 1327h2v-1267h107v-60h-261zM266 1446l-24 27l165 129q14 11 30.5 19.5t30.5 8.5q10 0 18.5 -4.5t13.5 -14.5q4 -7 4 -16q0 -19 -19.5 -35t-42.5 -27z" />
    <glyph glyph-name="nacute" unicode="&#x144;" horiz-adv-x="646" 
d="M35 0v60h100v927h-100v60h160v-114q7 31 30 58.5t57.5 44.5t74.5 17q33 0 70 -19.5t63.5 -80.5t26.5 -186v-707h100v-60h-258v60h98v680q0 137 -29 193t-89 56q-31 0 -57.5 -22.5t-46 -58t-30 -75.5t-10.5 -75v-698h98v-60h-258zM221 1075l-24 27l166 129q14 12 30 20
t30 8q10 0 18.5 -4.5t13.5 -14.5q4 -7 4 -16q0 -19 -19.5 -35t-42.5 -27z" />
    <glyph glyph-name="uni0145" unicode="&#x145;" horiz-adv-x="764" 
d="M35 0v60h92v1280h-92v60h196l349 -1286h-2v1226h-93v60h244v-60h-89v-1340h-98l-355 1327h2v-1267h107v-60h-261zM372 -324l-27 31q10 6 26.5 24t16.5 29q-2 -4 -12 -4q-23 0 -38 15.5t-15 37.5q0 23 16.5 38t38.5 15q27 0 42.5 -18.5t15.5 -47.5q0 -27 -10 -50
t-25 -40.5t-29 -29.5z" />
    <glyph glyph-name="uni0146" unicode="&#x146;" horiz-adv-x="646" 
d="M35 0v60h100v927h-100v60h160v-114q7 31 30 58.5t57.5 44.5t74.5 17q33 0 70 -19.5t63.5 -80.5t26.5 -186v-707h100v-60h-258v60h98v680q0 137 -29 193t-89 56q-31 0 -57.5 -22.5t-46 -58t-30 -75.5t-10.5 -75v-698h98v-60h-258zM327 -324l-27 31q10 6 26.5 24t16.5 29
q-2 -4 -12 -4q-23 0 -38 15.5t-15 37.5q0 23 16.5 38t38.5 15q27 0 42.5 -18.5t15.5 -47.5q0 -27 -10 -50t-25 -40.5t-29 -29.5z" />
    <glyph glyph-name="Ncaron" unicode="&#x147;" horiz-adv-x="764" 
d="M35 0v60h92v1280h-92v60h196l349 -1286h-2v1226h-93v60h244v-60h-89v-1340h-98l-355 1327h2v-1267h107v-60h-261zM343 1464l-147 209h60l122 -142l122 142h60l-146 -209h-71z" />
    <glyph glyph-name="ncaron" unicode="&#x148;" horiz-adv-x="646" 
d="M35 0v60h100v927h-100v60h160v-114q7 31 30 58.5t57.5 44.5t74.5 17q33 0 70 -19.5t63.5 -80.5t26.5 -186v-707h100v-60h-258v60h98v680q0 137 -29 193t-89 56q-31 0 -57.5 -22.5t-46 -58t-30 -75.5t-10.5 -75v-698h98v-60h-258zM298 1101l-147 209h60l122 -142l122 142
h60l-146 -209h-71z" />
    <glyph glyph-name="Eng" unicode="&#x14a;" horiz-adv-x="764" 
d="M458 -391q-48 0 -73 34t-34 89.5t-9 118.5q0 41 11.5 55t26.5 14t26.5 -13t11.5 -45q0 -28 -6.5 -39.5t-6.5 -58.5q0 -38 14 -66.5t39 -28.5q39 0 66 34.5t40.5 99t13.5 153.5v184h62v-147q0 -125 -20 -201t-49.5 -115.5t-60.5 -53.5t-52 -14zM35 0v60h92v1280h-92v60
h196l349 -1286h-2v1226h-93v60h244v-60h-89v-1340h-98l-355 1327h2v-1267h107v-60h-261z" />
    <glyph glyph-name="eng" unicode="&#x14b;" horiz-adv-x="631" 
d="M360 -429q-76 0 -102.5 60t-26.5 151q0 30 10.5 46.5t29.5 16.5t27.5 -15.5t8.5 -38.5q0 -15 -2.5 -24t-5.5 -19t-3 -30q0 -37 11 -55t26 -24t27 -6q29 0 52 19t38.5 53t23.5 78.5t8 96.5v849q0 107 -21 182.5t-86 75.5q-36 0 -65 -27t-49 -66t-30.5 -76t-10.5 -58v-700
h109v-60h-276v60h107v927h-107v60h167v-114q8 22 30 50t54.5 49t71.5 21q40 0 78 -19t63 -82t25 -196v-816q0 -134 -23 -215.5t-64 -117.5t-95 -36z" />
    <glyph glyph-name="Omacron" unicode="&#x14c;" horiz-adv-x="662" 
d="M329 -22q-91 0 -151 95t-89 257.5t-29 367.5q0 206 29 369.5t89 259t151 95.5q92 0 152.5 -95.5t90.5 -259t30 -369.5q0 -205 -30 -367.5t-90.5 -257.5t-152.5 -95zM329 38q51 0 90 50.5t65.5 141t40 210.5t13.5 258t-13.5 258.5t-40 211.5t-65.5 142.5t-90 51.5
t-89.5 -51.5t-64 -142.5t-38.5 -211.5t-13 -258.5t13 -258t38.5 -210.5t64 -141t89.5 -50.5zM29 1532v60h604v-60h-604z" />
    <glyph glyph-name="omacron" unicode="&#x14d;" horiz-adv-x="545" 
d="M268 -22q-51 0 -91.5 38t-69 109.5t-43 173t-14.5 228.5q0 139 16 239t45 163.5t69 93.5t88 30q47 0 86.5 -30t69 -93.5t46 -163.5t16.5 -239q0 -127 -15 -228.5t-43.5 -173t-69 -109.5t-90.5 -38zM268 36q64 0 108 122t44 369q0 242 -44 355t-108 113q-66 0 -110.5 -113
t-44.5 -355q0 -247 44.5 -369t110.5 -122zM90 1129v60h359v-60h-359z" />
    <glyph glyph-name="obreve" unicode="&#x14f;" horiz-adv-x="545" 
d="M268 -22q-51 0 -91.5 38t-69 109.5t-43 173t-14.5 228.5q0 139 16 239t45 163.5t69 93.5t88 30q47 0 86.5 -30t69 -93.5t46 -163.5t16.5 -239q0 -127 -15 -228.5t-43.5 -173t-69 -109.5t-90.5 -38zM268 36q64 0 108 122t44 369q0 242 -44 355t-108 113q-66 0 -110.5 -113
t-44.5 -355q0 -247 44.5 -369t110.5 -122zM268 1101q-56 0 -91 23.5t-51 64.5t-16 92h56q4 -58 29 -89t73 -31q49 0 74 31t29 89h57q0 -51 -16 -92t-51.5 -64.5t-92.5 -23.5z" />
    <glyph glyph-name="Ohungarumlaut" unicode="&#x150;" horiz-adv-x="662" 
d="M329 -22q-91 0 -151 95t-89 257.5t-29 367.5q0 206 29 369.5t89 259t151 95.5q92 0 152.5 -95.5t90.5 -259t30 -369.5q0 -205 -30 -367.5t-90.5 -257.5t-152.5 -95zM329 38q51 0 90 50.5t65.5 141t40 210.5t13.5 258t-13.5 258.5t-40 211.5t-65.5 142.5t-90 51.5
t-89.5 -51.5t-64 -142.5t-38.5 -211.5t-13 -258.5t13 -258t38.5 -210.5t64 -141t89.5 -50.5zM430 1500l-26 26l101 127q14 17 25.5 25.5t22.5 8.5q14 0 23 -9t9 -23q0 -23 -28 -44zM190 1500l-26 26l101 127q14 17 25.5 25.5t22.5 8.5q14 0 23 -9t9 -23q0 -23 -28 -44z" />
    <glyph glyph-name="ohungarumlaut" unicode="&#x151;" horiz-adv-x="545" 
d="M268 -22q-51 0 -91.5 38t-69 109.5t-43 173t-14.5 228.5q0 139 16 239t45 163.5t69 93.5t88 30q47 0 86.5 -30t69 -93.5t46 -163.5t16.5 -239q0 -127 -15 -228.5t-43.5 -173t-69 -109.5t-90.5 -38zM268 36q64 0 108 122t44 369q0 242 -44 355t-108 113q-66 0 -110.5 -113
t-44.5 -355q0 -247 44.5 -369t110.5 -122zM329 1136l-26 26l101 127q14 17 25.5 25.5t22.5 8.5q14 0 23 -9t9 -23q0 -23 -28 -44zM89 1136l-26 26l101 127q14 17 25.5 25.5t22.5 8.5q14 0 23 -9t9 -23q0 -23 -28 -44z" />
    <glyph glyph-name="OE" unicode="&#x152;" horiz-adv-x="914" 
d="M346 -22q-92 0 -156 95t-97 257.5t-33 367.5q0 206 34 369.5t99 259t156 95.5q29 0 65 -7.5t55 -27.5l-9 -67q-22 25 -52.5 33.5t-58.5 8.5q-57 0 -99.5 -56.5t-70.5 -152t-41.5 -214t-13.5 -241.5t13 -241t40 -212.5t69 -150.5t100 -56q39 0 61.5 6.5t35.5 19.5t23 31
l18 -68q-21 -25 -56.5 -37t-81.5 -12zM446 0v1400h390v-244h-60q0 81 -6 120.5t-29.5 51.5t-76.5 12h-158v-589h230v100h60v-258h-60v98h-230v-631h147q57 0 83 13t33 53t7 121h60v-247h-390z" />
    <glyph glyph-name="oe" unicode="&#x153;" horiz-adv-x="869" 
d="M268 -22q-51 0 -91.5 38t-69 109.5t-43 173t-14.5 228.5q0 139 16 239t45 163.5t69 93.5t88 30q47 0 86.5 -30t69 -93.5t46 -163.5t16.5 -239q0 -127 -15 -228.5t-43.5 -173t-69 -109.5t-90.5 -38zM268 36q64 0 108 122t44 369q0 242 -44 355t-108 113q-66 0 -110.5 -113
t-44.5 -355q0 -247 44.5 -369t110.5 -122zM629 -22q-67 0 -107.5 50.5t-61 132t-27 177.5t-6.5 187q0 126 13 224.5t39 166t64 102.5t88 35q58 0 93.5 -41t54 -106.5t25 -142t6.5 -147.5v-43t-1 -41h-331v60h267q0 104 -9 195.5t-33.5 148.5t-71.5 57q-44 0 -75.5 -56
t-48 -154.5t-16.5 -226.5q0 -93 5 -184.5t19 -166.5t41.5 -120t72.5 -45q53 0 80 34.5t35 65.5l54 -22q-14 -57 -60.5 -98.5t-108.5 -41.5z" />
    <glyph glyph-name="Racute" unicode="&#x154;" horiz-adv-x="715" 
d="M609 -15q-43 0 -64 30t-27.5 79t-6.5 106q0 50 2 104t2 107q0 115 -15 175t-62.5 82.5t-144.5 22.5h-71v-631h93v-60h-246v60h93v1280h-93v60h287q73 0 127 -33.5t83.5 -105t29.5 -186.5q0 -88 -15 -153.5t-41.5 -108.5t-63 -65.5t-78.5 -25.5q77 0 115.5 -37
t51.5 -104.5t13 -158.5q0 -48 -1.5 -100t-1.5 -102q0 -36 2.5 -79t11 -74t24.5 -31q7 0 14.5 11t7.5 24h54q0 -28 -13 -47t-31.5 -29t-35.5 -10zM222 751h105q75 0 120.5 43.5t66.5 116t21 160.5q0 81 -15 141.5t-56.5 94t-121.5 33.5h-120v-589zM246 1446l-24 27l165 129
q14 11 30.5 19.5t30.5 8.5q10 0 18.5 -4.5t13.5 -14.5q4 -7 4 -16q0 -19 -19.5 -35t-42.5 -27z" />
    <glyph glyph-name="racute" unicode="&#x155;" horiz-adv-x="479" 
d="M24 0v60h101v927h-101v60h161v-107q1 9 17.5 36.5t47.5 52t77 24.5q43 0 69 -31.5t37.5 -86t11.5 -124.5q0 -37 -10 -55t-30 -18q-17 0 -27.5 14t-10.5 44q0 16 3 26.5t5.5 25t2.5 39.5q0 52 -18.5 74.5t-44.5 22.5q-43 0 -72 -35.5t-43.5 -84.5t-14.5 -89v-715h104v-60
h-265zM186 1075l-24 27l166 129q14 12 30 20t30 8q10 0 18.5 -4.5t13.5 -14.5q4 -7 4 -16q0 -19 -19.5 -35t-42.5 -27z" />
    <glyph glyph-name="uni0156" unicode="&#x156;" horiz-adv-x="715" 
d="M609 -15q-43 0 -64 30t-27.5 79t-6.5 106q0 50 2 104t2 107q0 115 -15 175t-62.5 82.5t-144.5 22.5h-71v-631h93v-60h-246v60h93v1280h-93v60h287q73 0 127 -33.5t83.5 -105t29.5 -186.5q0 -88 -15 -153.5t-41.5 -108.5t-63 -65.5t-78.5 -25.5q77 0 115.5 -37
t51.5 -104.5t13 -158.5q0 -48 -1.5 -100t-1.5 -102q0 -36 2.5 -79t11 -74t24.5 -31q7 0 14.5 11t7.5 24h54q0 -28 -13 -47t-31.5 -29t-35.5 -10zM222 751h105q75 0 120.5 43.5t66.5 116t21 160.5q0 81 -15 141.5t-56.5 94t-121.5 33.5h-120v-589zM352 -324l-27 31
q10 6 26.5 24t16.5 29q-2 -4 -12 -4q-23 0 -38 15.5t-15 37.5q0 23 16.5 38t38.5 15q27 0 42.5 -18.5t15.5 -47.5q0 -27 -10 -50t-25 -40.5t-29 -29.5z" />
    <glyph glyph-name="uni0157" unicode="&#x157;" horiz-adv-x="479" 
d="M24 0v60h101v927h-101v60h161v-107q1 9 17.5 36.5t47.5 52t77 24.5q43 0 69 -31.5t37.5 -86t11.5 -124.5q0 -37 -10 -55t-30 -18q-17 0 -27.5 14t-10.5 44q0 16 3 26.5t5.5 25t2.5 39.5q0 52 -18.5 74.5t-44.5 22.5q-43 0 -72 -35.5t-43.5 -84.5t-14.5 -89v-715h104v-60
h-265zM232 -324l-27 31q10 6 26.5 24t16.5 29q-2 -4 -12 -4q-23 0 -38 15.5t-15 37.5q0 23 16.5 38t38.5 15q27 0 42.5 -18.5t15.5 -47.5q0 -27 -10 -50t-25 -40.5t-29 -29.5z" />
    <glyph glyph-name="Rcaron" unicode="&#x158;" horiz-adv-x="715" 
d="M609 -15q-43 0 -64 30t-27.5 79t-6.5 106q0 50 2 104t2 107q0 115 -15 175t-62.5 82.5t-144.5 22.5h-71v-631h93v-60h-246v60h93v1280h-93v60h287q73 0 127 -33.5t83.5 -105t29.5 -186.5q0 -88 -15 -153.5t-41.5 -108.5t-63 -65.5t-78.5 -25.5q77 0 115.5 -37
t51.5 -104.5t13 -158.5q0 -48 -1.5 -100t-1.5 -102q0 -36 2.5 -79t11 -74t24.5 -31q7 0 14.5 11t7.5 24h54q0 -28 -13 -47t-31.5 -29t-35.5 -10zM222 751h105q75 0 120.5 43.5t66.5 116t21 160.5q0 81 -15 141.5t-56.5 94t-121.5 33.5h-120v-589zM323 1464l-147 209h60
l122 -142l122 142h60l-146 -209h-71z" />
    <glyph glyph-name="rcaron" unicode="&#x159;" horiz-adv-x="479" 
d="M24 0v60h101v927h-101v60h161v-107q1 9 17.5 36.5t47.5 52t77 24.5q43 0 69 -31.5t37.5 -86t11.5 -124.5q0 -37 -10 -55t-30 -18q-17 0 -27.5 14t-10.5 44q0 16 3 26.5t5.5 25t2.5 39.5q0 52 -18.5 74.5t-44.5 22.5q-43 0 -72 -35.5t-43.5 -84.5t-14.5 -89v-715h104v-60
h-265zM263 1101l-147 209h60l122 -142l122 142h60l-146 -209h-71z" />
    <glyph glyph-name="Sacute" unicode="&#x15a;" horiz-adv-x="549" 
d="M297 -27q-37 0 -63 12t-44.5 28t-31.5 28t-23 12q-18 0 -18 -53h-48v267h60q2 -35 11 -69t23.5 -63.5t35 -51.5t46.5 -34.5t56 -12.5q57 0 85.5 32.5t38 88.5t9.5 127q0 76 -26.5 151.5t-68 146.5t-87.5 133q-73 100 -111.5 179t-52.5 144t-14 120q0 80 25 139.5t70 92
t103 32.5q48 0 72.5 -17t37 -34.5t23.5 -17.5t16.5 11.5t5.5 35.5h48v-265h-60q-2 45 -11.5 86t-27 72t-43 49t-59.5 18q-61 0 -97 -47t-36 -135q0 -59 8 -111.5t38.5 -117t95.5 -160.5q53 -76 103 -160t82.5 -172.5t32.5 -178.5q0 -69 -11 -125t-34.5 -96t-62.5 -62
t-96 -22zM171 1446l-24 27l165 129q14 11 30.5 19.5t30.5 8.5q10 0 18.5 -4.5t13.5 -14.5q4 -7 4 -16q0 -19 -19.5 -35t-42.5 -27z" />
    <glyph glyph-name="sacute" unicode="&#x15b;" horiz-adv-x="480" 
d="M251 -22q-48 0 -72.5 12t-36.5 23.5t-23 11.5q-10 0 -14 -7t-4 -18h-46v267h55q4 -68 12.5 -112.5t24 -70t40 -36t60.5 -10.5q42 0 66.5 27t35 66t10.5 75q0 59 -12.5 110.5t-43 104t-85.5 113.5q-60 69 -104.5 141.5t-44.5 177.5q0 64 23 108.5t60 68t79 23.5
q37 0 59 -7.5t34.5 -15.5t20.5 -8t10.5 6.5t3.5 18.5h48v-258h-54q-4 68 -12.5 108.5t-23.5 61t-35.5 27.5t-48.5 7q-48 0 -76 -36t-28 -100q0 -75 32 -135t99 -139q59 -70 95.5 -129.5t53 -115t16.5 -114.5q0 -64 -19.5 -120t-58 -91t-96.5 -35zM128 1075l-24 27l166 129
q14 12 30 20t30 8q10 0 18.5 -4.5t13.5 -14.5q4 -7 4 -16q0 -19 -19.5 -35t-42.5 -27z" />
    <glyph glyph-name="scircumflex" unicode="&#x15d;" horiz-adv-x="480" 
d="M251 -22q-48 0 -72.5 12t-36.5 23.5t-23 11.5q-10 0 -14 -7t-4 -18h-46v267h55q4 -68 12.5 -112.5t24 -70t40 -36t60.5 -10.5q42 0 66.5 27t35 66t10.5 75q0 59 -12.5 110.5t-43 104t-85.5 113.5q-60 69 -104.5 141.5t-44.5 177.5q0 64 23 108.5t60 68t79 23.5
q37 0 59 -7.5t34.5 -15.5t20.5 -8t10.5 6.5t3.5 18.5h48v-258h-54q-4 68 -12.5 108.5t-23.5 61t-35.5 27.5t-48.5 7q-48 0 -76 -36t-28 -100q0 -75 32 -135t99 -139q59 -70 95.5 -129.5t53 -115t16.5 -114.5q0 -64 -19.5 -120t-58 -91t-96.5 -35zM58 1117l147 209h71
l146 -209h-60l-122 143l-122 -143h-60z" />
    <glyph glyph-name="Scedilla" unicode="&#x15e;" horiz-adv-x="549" 
d="M297 -27q-37 0 -63 12t-44.5 28t-31.5 28t-23 12q-18 0 -18 -53h-48v267h60q2 -35 11 -69t23.5 -63.5t35 -51.5t46.5 -34.5t56 -12.5q57 0 85.5 32.5t38 88.5t9.5 127q0 76 -26.5 151.5t-68 146.5t-87.5 133q-73 100 -111.5 179t-52.5 144t-14 120q0 80 25 139.5t70 92
t103 32.5q48 0 72.5 -17t37 -34.5t23.5 -17.5t16.5 11.5t5.5 35.5h48v-265h-60q-2 45 -11.5 86t-27 72t-43 49t-59.5 18q-61 0 -97 -47t-36 -135q0 -59 8 -111.5t38.5 -117t95.5 -160.5q53 -76 103 -160t82.5 -172.5t32.5 -178.5q0 -69 -11 -125t-34.5 -96t-62.5 -62
t-96 -22zM310 -280q-56 0 -91 9.5t-50 17.5l21 48q10 -7 40.5 -15.5t81.5 -8.5q32 0 59.5 14.5t27.5 42.5q0 30 -19 39t-44 9q-16 0 -38 -7.5t-36 -21.5l-57 4l63 149h60l-49 -102q5 7 27.5 16.5t49.5 9.5q37 0 68.5 -21.5t31.5 -75.5q0 -42 -25 -65.5t-59.5 -32.5t-61.5 -9
z" />
    <glyph glyph-name="scedilla" unicode="&#x15f;" horiz-adv-x="480" 
d="M251 -22q-48 0 -72.5 12t-36.5 23.5t-23 11.5q-10 0 -14 -7t-4 -18h-46v267h55q4 -68 12.5 -112.5t24 -70t40 -36t60.5 -10.5q42 0 66.5 27t35 66t10.5 75q0 59 -12.5 110.5t-43 104t-85.5 113.5q-60 69 -104.5 141.5t-44.5 177.5q0 64 23 108.5t60 68t79 23.5
q37 0 59 -7.5t34.5 -15.5t20.5 -8t10.5 6.5t3.5 18.5h48v-258h-54q-4 68 -12.5 108.5t-23.5 61t-35.5 27.5t-48.5 7q-48 0 -76 -36t-28 -100q0 -75 32 -135t99 -139q59 -70 95.5 -129.5t53 -115t16.5 -114.5q0 -96 -43.5 -171t-130.5 -75zM252 -280q-56 0 -91 9.5t-50 17.5
l21 48q10 -7 40.5 -15.5t81.5 -8.5q32 0 59.5 14.5t27.5 42.5q0 30 -19 39t-44 9q-16 0 -38 -7.5t-36 -21.5l-57 4l63 149h60l-49 -102q5 7 27.5 16.5t49.5 9.5q37 0 68.5 -21.5t31.5 -75.5q0 -42 -25 -65.5t-59.5 -32.5t-61.5 -9z" />
    <glyph glyph-name="Scaron" unicode="&#x160;" horiz-adv-x="549" 
d="M297 -27q-37 0 -63 12t-44.5 28t-31.5 28t-23 12q-18 0 -18 -53h-48v267h60q2 -35 11 -69t23.5 -63.5t35 -51.5t46.5 -34.5t56 -12.5q57 0 85.5 32.5t38 88.5t9.5 127q0 76 -26.5 151.5t-68 146.5t-87.5 133q-73 100 -111.5 179t-52.5 144t-14 120q0 80 25 139.5t70 92
t103 32.5q48 0 72.5 -17t37 -34.5t23.5 -17.5t16.5 11.5t5.5 35.5h48v-265h-60q-2 45 -11.5 86t-27 72t-43 49t-59.5 18q-61 0 -97 -47t-36 -135q0 -59 8 -111.5t38.5 -117t95.5 -160.5q53 -76 103 -160t82.5 -172.5t32.5 -178.5q0 -69 -11 -125t-34.5 -96t-62.5 -62
t-96 -22zM248 1464l-147 209h60l122 -142l122 142h60l-146 -209h-71z" />
    <glyph glyph-name="scaron" unicode="&#x161;" horiz-adv-x="480" 
d="M251 -22q-48 0 -72.5 12t-36.5 23.5t-23 11.5q-10 0 -14 -7t-4 -18h-46v267h55q4 -68 12.5 -112.5t24 -70t40 -36t60.5 -10.5q42 0 66.5 27t35 66t10.5 75q0 59 -12.5 110.5t-43 104t-85.5 113.5q-60 69 -104.5 141.5t-44.5 177.5q0 64 23 108.5t60 68t79 23.5
q37 0 59 -7.5t34.5 -15.5t20.5 -8t10.5 6.5t3.5 18.5h48v-258h-54q-4 68 -12.5 108.5t-23.5 61t-35.5 27.5t-48.5 7q-48 0 -76 -36t-28 -100q0 -75 32 -135t99 -139q59 -70 95.5 -129.5t53 -115t16.5 -114.5q0 -64 -19.5 -120t-58 -91t-96.5 -35zM205 1101l-147 209h60
l122 -142l122 142h60l-146 -209h-71z" />
    <glyph glyph-name="uni0162" unicode="&#x162;" horiz-adv-x="649" 
d="M185 0v60h110v1280h-115q-41 0 -58 -12t-20.5 -51.5t-3.5 -120.5h-60v244h573v-244h-60q0 81 -3.5 120.5t-20.5 51.5t-58 12h-114v-1280h114v-60h-284zM335 -280q-56 0 -91 9.5t-50 17.5l21 48q10 -7 40.5 -15.5t81.5 -8.5q32 0 59.5 14.5t27.5 42.5q0 30 -19 39t-44 9
q-16 0 -38 -7.5t-36 -21.5l-57 4l63 149h60l-49 -102q5 7 27.5 16.5t49.5 9.5q37 0 68.5 -21.5t31.5 -75.5q0 -42 -25 -65.5t-59.5 -32.5t-61.5 -9z" />
    <glyph glyph-name="uni0163" unicode="&#x163;" horiz-adv-x="356" 
d="M222 -18q-24 0 -47.5 9.5t-39 36.5t-15.5 81v878h-113v60h113v89v97.5v86.5h60v-273h135v-60h-135v-878q0 -43 15.5 -56t31.5 -13q21 0 34 9.5t21 19.5l36 -47q-13 -15 -39.5 -27.5t-56.5 -12.5zM245 -276q-56 0 -91 9.5t-50 17.5l21 48q10 -7 40.5 -15.5t81.5 -8.5
q32 0 59.5 14.5t27.5 42.5q0 30 -19 39t-44 9q-16 0 -38 -7.5t-36 -21.5l-57 4l63 149h60l-49 -102q5 7 27.5 16.5t49.5 9.5q37 0 68.5 -21.5t31.5 -75.5q0 -42 -25 -65.5t-59.5 -32.5t-61.5 -9z" />
    <glyph glyph-name="Tcaron" unicode="&#x164;" horiz-adv-x="649" 
d="M185 0v60h110v1280h-115q-41 0 -58 -12t-20.5 -51.5t-3.5 -120.5h-60v244h573v-244h-60q0 81 -3.5 120.5t-20.5 51.5t-58 12h-114v-1280h114v-60h-284zM296 1484l-147 209h60l122 -142l122 142h60l-146 -209h-71z" />
    <glyph glyph-name="tcaron" unicode="&#x165;" horiz-adv-x="356" 
d="M273 1205q11 44 18 95t7 100q0 35 7.5 54t26.5 19q20 0 25.5 -17t5.5 -46q0 -41 -10 -102.5t-33 -122.5zM222 -18q-24 0 -47.5 9.5t-39 36.5t-15.5 81v878h-113v60h113v89v97.5v86.5h60v-273h135v-60h-135v-878q0 -43 15.5 -56t31.5 -13q21 0 34 9.5t21 19.5l36 -47
q-13 -15 -39.5 -27.5t-56.5 -12.5z" />
    <glyph glyph-name="Tbar" unicode="&#x166;" horiz-adv-x="649" 
d="M137 669v60h382v-60h-382zM185 0v60h110v1280h-115q-41 0 -58 -12t-20.5 -51.5t-3.5 -120.5h-60v244h573v-244h-60q0 81 -3.5 120.5t-20.5 51.5t-58 12h-114v-1280h114v-60h-284z" />
    <glyph glyph-name="tbar" unicode="&#x167;" horiz-adv-x="356" 
d="M18 617v60h286v-60h-286zM222 -18q-24 0 -47.5 9.5t-39 36.5t-15.5 81v878h-113v60h113v89v97.5v86.5h60v-273h135v-60h-135v-878q0 -43 15.5 -56t31.5 -13q21 0 34 9.5t21 19.5l36 -47q-13 -15 -39.5 -27.5t-56.5 -12.5z" />
    <glyph glyph-name="Utilde" unicode="&#x168;" horiz-adv-x="685" 
d="M342 -24q-40 0 -77.5 15.5t-67 50.5t-47 94t-17.5 146v1058h-95v60h247v-60h-92v-1044q0 -150 43 -204t106 -54q32 0 59.5 12.5t48 41.5t32 79t11.5 125v1044h-82v60h236v-60h-94v-1058q0 -116 -30 -183t-78 -95t-103 -28zM425 1470q-38 0 -64 18.5t-48.5 37t-49.5 18.5
q-29 0 -44 -22t-20 -36l-56 33q5 19 19.5 41.5t38.5 39.5t57 17q38 0 66 -19t52.5 -38t50.5 -19q23 0 36 17t20 30l54 -39q-5 -17 -19.5 -35.5t-37.5 -31t-55 -12.5z" />
    <glyph glyph-name="utilde" unicode="&#x169;" horiz-adv-x="618" 
d="M291 -22q-43 0 -82 20.5t-63 78.5t-24 170v740h-104v59h164v-795q0 -87 16.5 -132t42.5 -61t54 -16q48 0 81 48t49.5 120t16.5 145v632h-106v59h166v-986h94v-60h-149v135q-4 -32 -22 -68.5t-51 -62.5t-83 -26zM396 1121q-38 0 -64 18.5t-48.5 37t-49.5 18.5
q-29 0 -44 -22t-20 -36l-56 33q5 19 19.5 41.5t38.5 39.5t57 17q38 0 66 -19t52.5 -38t50.5 -19q23 0 36 17t20 30l54 -39q-5 -17 -19.5 -35.5t-37.5 -31t-55 -12.5z" />
    <glyph glyph-name="Umacron" unicode="&#x16a;" horiz-adv-x="685" 
d="M342 -24q-40 0 -77.5 15.5t-67 50.5t-47 94t-17.5 146v1058h-95v60h247v-60h-92v-1044q0 -150 43 -204t106 -54q32 0 59.5 12.5t48 41.5t32 79t11.5 125v1044h-82v60h236v-60h-94v-1058q0 -116 -30 -183t-78 -95t-103 -28zM38 1532v60h604v-60h-604z" />
    <glyph glyph-name="umacron" unicode="&#x16b;" horiz-adv-x="618" 
d="M291 -22q-43 0 -82 20.5t-63 78.5t-24 170v740h-104v59h164v-795q0 -87 16.5 -132t42.5 -61t54 -16q48 0 81 48t49.5 120t16.5 145v632h-106v59h166v-986h94v-60h-149v135q-4 -32 -22 -68.5t-51 -62.5t-83 -26zM131 1129v60h359v-60h-359z" />
    <glyph glyph-name="ubreve" unicode="&#x16d;" horiz-adv-x="618" 
d="M291 -22q-43 0 -82 20.5t-63 78.5t-24 170v740h-104v59h164v-795q0 -87 16.5 -132t42.5 -61t54 -16q48 0 81 48t49.5 120t16.5 145v632h-106v59h166v-986h94v-60h-149v135q-4 -32 -22 -68.5t-51 -62.5t-83 -26zM309 1101q-56 0 -91 23.5t-51 64.5t-16 92h56q4 -58 29 -89
t73 -31q49 0 74 31t29 89h57q0 -51 -16 -92t-51.5 -64.5t-92.5 -23.5z" />
    <glyph glyph-name="Uring" unicode="&#x16e;" horiz-adv-x="685" 
d="M342 -24q-40 0 -77.5 15.5t-67 50.5t-47 94t-17.5 146v1058h-95v60h247v-60h-92v-1044q0 -150 43 -204t106 -54q32 0 59.5 12.5t48 41.5t32 79t11.5 125v1044h-82v60h236v-60h-94v-1058q0 -116 -30 -183t-78 -95t-103 -28zM340 1460q-45 0 -74.5 32.5t-29.5 85.5
q0 55 29.5 86.5t74.5 31.5t75 -31.5t30 -86.5q0 -53 -30 -85.5t-75 -32.5zM340 1500q29 0 41.5 23t12.5 57q0 30 -12.5 53t-41.5 23q-26 0 -39.5 -23t-13.5 -53q0 -34 13.5 -57t39.5 -23z" />
    <glyph glyph-name="uring" unicode="&#x16f;" horiz-adv-x="618" 
d="M291 -22q-43 0 -82 20.5t-63 78.5t-24 170v740h-104v59h164v-795q0 -87 16.5 -132t42.5 -61t54 -16q48 0 81 48t49.5 120t16.5 145v632h-106v59h166v-986h94v-60h-149v135q-4 -32 -22 -68.5t-51 -62.5t-83 -26zM311 1091q-45 0 -74.5 32.5t-29.5 85.5q0 55 29.5 86.5
t74.5 31.5t75 -31.5t30 -86.5q0 -53 -30 -85.5t-75 -32.5zM311 1131q29 0 41.5 23t12.5 57q0 30 -12.5 53t-41.5 23q-26 0 -39.5 -23t-13.5 -53q0 -34 13.5 -57t39.5 -23z" />
    <glyph glyph-name="Uhungarumlaut" unicode="&#x170;" horiz-adv-x="685" 
d="M342 -24q-40 0 -77.5 15.5t-67 50.5t-47 94t-17.5 146v1058h-95v60h247v-60h-92v-1044q0 -150 43 -204t106 -54q32 0 59.5 12.5t48 41.5t32 79t11.5 125v1044h-82v60h236v-60h-94v-1058q0 -116 -30 -183t-78 -95t-103 -28zM439 1500l-26 26l101 127q14 17 25.5 25.5
t22.5 8.5q14 0 23 -9t9 -23q0 -23 -28 -44zM199 1500l-26 26l101 127q14 17 25.5 25.5t22.5 8.5q14 0 23 -9t9 -23q0 -23 -28 -44z" />
    <glyph glyph-name="uhungarumlaut" unicode="&#x171;" horiz-adv-x="618" 
d="M291 -22q-43 0 -82 20.5t-63 78.5t-24 170v740h-104v59h164v-795q0 -87 16.5 -132t42.5 -61t54 -16q48 0 81 48t49.5 120t16.5 145v632h-106v59h166v-986h94v-60h-149v135q-4 -32 -22 -68.5t-51 -62.5t-83 -26zM370 1136l-26 26l101 127q14 17 25.5 25.5t22.5 8.5
q14 0 23 -9t9 -23q0 -23 -28 -44zM130 1136l-26 26l101 127q14 17 25.5 25.5t22.5 8.5q14 0 23 -9t9 -23q0 -23 -28 -44z" />
    <glyph glyph-name="Uogonek" unicode="&#x172;" horiz-adv-x="685" 
d="M342 -24q-40 0 -77.5 15.5t-67 50.5t-47 94t-17.5 146v1058h-95v60h247v-60h-92v-1044q0 -150 43 -204t106 -54q32 0 59.5 12.5t48 41.5t32 79t11.5 125v1044h-82v60h236v-60h-94v-1058q0 -116 -30 -183t-78 -95t-103 -28zM477 -263q-36 0 -74 12.5t-63.5 43t-25.5 82.5
q0 41 23 73.5t53.5 56t52.5 34.5l24 -19q-20 -19 -47 -55.5t-27 -84.5q0 -55 33.5 -68.5t67.5 -13.5q23 0 57 6t57 19l26 -42q-22 -16 -63.5 -30t-93.5 -14z" />
    <glyph glyph-name="uogonek" unicode="&#x173;" horiz-adv-x="618" 
d="M291 -22q-43 0 -82 20.5t-63 78.5t-24 170v740h-104v59h164v-795q0 -87 16.5 -132t42.5 -61t54 -16q48 0 81 48t49.5 120t16.5 145v632h-106v59h166v-986h94v-60h-149v135q-4 -32 -22 -68.5t-51 -62.5t-83 -26zM606 -283q-36 0 -74 12.5t-63.5 43t-25.5 82.5
q0 41 23 73.5t53.5 56t52.5 34.5l24 -19q-20 -19 -47 -55.5t-27 -84.5q0 -55 33.5 -68.5t67.5 -13.5q23 0 57 6t57 19l26 -42q-22 -16 -63.5 -30t-93.5 -14z" />
    <glyph glyph-name="Wcircumflex" unicode="&#x174;" horiz-adv-x="976" 
d="M275 -4l-140 1344h-106v60h269v-60h-100l127 -1267h-9l155 1269l16 -131l-20 129h-107v60h275v-60h-104l165 -1267h-7l122 1267h-84v60h240v-60h-89l-145 -1344h-86l-154 1197l22 20l-155 -1217h-85zM313 1456l147 209h71l146 -209h-60l-122 143l-122 -143h-60z" />
    <glyph glyph-name="wcircumflex" unicode="&#x175;" horiz-adv-x="887" 
d="M575 -7l-133 994h-97v60h226v-60h-69l118 -912l107 912h-76v60h218v-60h-80l-120 -994h-94zM222 -7l-122 994h-80v60h220v-60h-78l107 -912l118 912h-69v60h222v-60h-93l-131 -994h-94zM247 1117l147 209h71l146 -209h-60l-122 143l-122 -143h-60z" />
    <glyph glyph-name="Ycircumflex" unicode="&#x176;" horiz-adv-x="638" 
d="M200 0v60h93v529l-175 751h-89v60h236v-60h-74l156 -722h-40l169 722h-74v60h229v-60h-91l-187 -751v-529h83v-60h-236zM138 1456l147 209h71l146 -209h-60l-122 143l-122 -143h-60z" />
    <glyph glyph-name="ycircumflex" unicode="&#x177;" horiz-adv-x="571" 
d="M155 -502q-34 0 -53.5 27t-28 74t-8.5 108q0 30 8.5 47t26.5 17q20 0 27.5 -15.5t7.5 -37.5q0 -16 -3 -28t-6.5 -24.5t-3.5 -32.5q0 -28 7 -57t26 -29q13 0 21 15.5t14.5 44t13.5 66.5l67 356l-162 958h-82v60h218v-60h-72l127 -755l125 755h-74v60h222v-60h-82
l-169 -994l-64 -337q-10 -54 -23.5 -89t-32.5 -52t-47 -17zM114 1117l147 209h71l146 -209h-60l-122 143l-122 -143h-60z" />
    <glyph glyph-name="Ydieresis" unicode="&#x178;" horiz-adv-x="638" 
d="M200 0v60h93v529l-175 751h-89v60h236v-60h-74l156 -722h-40l169 722h-74v60h229v-60h-91l-187 -751v-529h83v-60h-236zM427 1498q-26 0 -45 18.5t-19 43.5q0 27 19 47t45 20q25 0 44 -20t19 -47q0 -25 -19 -43.5t-44 -18.5zM212 1498q-24 0 -43.5 18.5t-19.5 43.5
q0 27 19.5 47t43.5 20q26 0 46 -20t20 -47q0 -25 -20 -43.5t-46 -18.5z" />
    <glyph glyph-name="Zacute" unicode="&#x179;" horiz-adv-x="558" 
d="M58 0v60l351 1280h-122q-76 0 -109.5 -12t-42 -51.5t-8.5 -120.5h-60v244h413v-58l-358 -1282h174q69 0 98.5 13t36.5 53t7 121h60v-247h-440zM177 1446l-24 27l165 129q14 11 30.5 19.5t30.5 8.5q10 0 18.5 -4.5t13.5 -14.5q4 -7 4 -16q0 -19 -19.5 -35t-42.5 -27z" />
    <glyph glyph-name="zacute" unicode="&#x17a;" horiz-adv-x="467" 
d="M71 0v60l256 927h-102q-43 0 -62 -12t-23 -54t-4 -132h-58v258h309v-60l-256 -927h91q53 0 75 13.5t27 58t5 135.5h60v-267h-318zM123 1075l-24 27l166 129q14 12 30 20t30 8q10 0 18.5 -4.5t13.5 -14.5q4 -7 4 -16q0 -19 -19.5 -35t-42.5 -27z" />
    <glyph glyph-name="Zdotaccent" unicode="&#x17b;" horiz-adv-x="558" 
d="M58 0v60l351 1280h-122q-76 0 -109.5 -12t-42 -51.5t-8.5 -120.5h-60v244h413v-58l-358 -1282h174q69 0 98.5 13t36.5 53t7 121h60v-247h-440zM289 1505q-25 0 -45 18.5t-20 43.5q0 26 20 46t45 20t44.5 -20t19.5 -46q0 -25 -19.5 -43.5t-44.5 -18.5z" />
    <glyph glyph-name="zdotaccent" unicode="&#x17c;" horiz-adv-x="467" 
d="M71 0v60l256 927h-102q-43 0 -62 -12t-23 -54t-4 -132h-58v258h309v-60l-256 -927h91q53 0 75 13.5t27 58t5 135.5h60v-267h-318zM235 1125q-25 0 -45 18.5t-20 43.5q0 26 20 46t45 20t44.5 -20t19.5 -46q0 -25 -19.5 -43.5t-44.5 -18.5z" />
    <glyph glyph-name="Zcaron" unicode="&#x17d;" horiz-adv-x="558" 
d="M58 0v60l351 1280h-122q-76 0 -109.5 -12t-42 -51.5t-8.5 -120.5h-60v244h413v-58l-358 -1282h174q69 0 98.5 13t36.5 53t7 121h60v-247h-440zM254 1464l-147 209h60l122 -142l122 142h60l-146 -209h-71z" />
    <glyph glyph-name="zcaron" unicode="&#x17e;" horiz-adv-x="467" 
d="M71 0v60l256 927h-102q-43 0 -62 -12t-23 -54t-4 -132h-58v258h309v-60l-256 -927h91q53 0 75 13.5t27 58t5 135.5h60v-267h-318zM200 1101l-147 209h60l122 -142l122 142h60l-146 -209h-71z" />
    <glyph glyph-name="uni018F" unicode="&#x18f;" horiz-adv-x="599" 
d="M286 -25q-68 0 -111.5 56.5t-67 149t-32.5 204t-9 222.5v58t1 56h426v-60h-362q0 -170 12 -312.5t45.5 -228t97.5 -85.5q60 0 102.5 81.5t65 220t22.5 310.5q0 127 -6.5 254.5t-26 234t-57 171t-98.5 64.5q-48 0 -79.5 -28t-49.5 -65.5t-25 -66.5l-57 30q18 52 50 95
t73.5 69t87.5 26q85 0 135 -68t75 -179t33 -241t8 -254q0 -164 -15.5 -295.5t-46.5 -225t-78.5 -143.5t-112.5 -50zM60 1211v189h58q0 -24 6.5 -54t13.5 -30l-4 -105h-74z" />
    <glyph glyph-name="florin" unicode="&#x192;" horiz-adv-x="600" 
d="M-16 -420q-43 0 -69.5 22t-38.5 64t-12 103q0 30 8.5 47t27.5 17t27 -15.5t8 -37.5q0 -16 -1.5 -22t-3 -13t-1.5 -27q0 -25 10.5 -52.5t35.5 -27.5q35 0 60 37t41.5 91t26 108.5t12.5 89.5l94 1023h-107v60h107l4 42q17 173 45.5 264t70.5 124.5t98 33.5q53 0 85.5 -32.5
t47.5 -85t15 -113.5q0 -30 -8.5 -47t-28.5 -17q-17 0 -23 16t-6 41q0 16 1 24.5t2 19t1 30.5q0 55 -27.5 78.5t-60.5 23.5q-57 0 -86 -44.5t-42 -125.5t-24 -190l-4 -42h127v-60h-134l-82 -976q-5 -57 -14 -117.5t-23.5 -116.5t-36 -100.5t-51.5 -70.5t-71 -26z" />
    <glyph glyph-name="Ohorn" unicode="&#x1a0;" horiz-adv-x="662" 
d="M329 -22q-91 0 -151 95t-89 257.5t-29 367.5q0 206 29 369.5t89 259t151 95.5q92 0 152.5 -95.5t90.5 -259t30 -369.5q0 -205 -30 -367.5t-90.5 -257.5t-152.5 -95zM329 38q51 0 90 50.5t65.5 141t40 210.5t13.5 258t-13.5 258.5t-40 211.5t-65.5 142.5t-90 51.5
t-89.5 -51.5t-64 -142.5t-38.5 -211.5t-13 -258.5t13 -258t38.5 -210.5t64 -141t89.5 -50.5zM420 1332v60q54 0 97 15.5t43 67.5q0 19 -1.5 43t-1.5 40q0 29 15.5 46t36.5 17t36.5 -16.5t15.5 -46.5q0 -93 -39.5 -142t-95.5 -66.5t-106 -17.5z" />
    <glyph glyph-name="ohorn" unicode="&#x1a1;" horiz-adv-x="545" 
d="M268 -22q-51 0 -91.5 38t-69 109.5t-43 173t-14.5 228.5q0 139 16 239t45 163.5t69 93.5t88 30q47 0 86.5 -30t69 -93.5t46 -163.5t16.5 -239q0 -127 -15 -228.5t-43.5 -173t-69 -109.5t-90.5 -38zM268 36q64 0 108 122t44 369q0 242 -44 355t-108 113q-66 0 -110.5 -113
t-44.5 -355q0 -247 44.5 -369t110.5 -122zM353 956v60q54 0 97 15.5t43 67.5q0 19 -1.5 43t-1.5 40q0 29 15.5 46t36.5 17t36.5 -16.5t15.5 -46.5q0 -93 -39.5 -142t-95.5 -66.5t-106 -17.5z" />
    <glyph glyph-name="Uhorn" unicode="&#x1af;" horiz-adv-x="685" 
d="M342 -24q-40 0 -77.5 15.5t-67 50.5t-47 94t-17.5 146v1058h-95v60h247v-60h-92v-1044q0 -150 43 -204t106 -54q32 0 59.5 12.5t48 41.5t32 79t11.5 125v1044h-82v60h166v-60h-24v-1058q0 -116 -30 -183t-78 -95t-103 -28zM577 1340v60q54 0 97 15.5t43 67.5
q0 19 -1.5 43t-1.5 40q0 29 15.5 46t36.5 17t36.5 -16.5t15.5 -46.5q0 -93 -39.5 -142t-95.5 -66.5t-106 -17.5z" />
    <glyph glyph-name="uhorn" unicode="&#x1b0;" horiz-adv-x="618" 
d="M291 -22q-43 0 -82 20.5t-63 78.5t-24 170v740h-104v59h164v-795q0 -87 16.5 -132t42.5 -61t54 -16q48 0 81 48t49.5 120t16.5 145v632h-106v59h166v-986h94v-60h-149v135q-4 -32 -22 -68.5t-51 -62.5t-83 -26zM482 986v60q54 0 97 15.5t43 67.5q0 19 -1.5 43t-1.5 40
q0 29 15.5 46t36.5 17t36.5 -16.5t15.5 -46.5q0 -93 -39.5 -142t-95.5 -66.5t-106 -17.5z" />
    <glyph glyph-name="uni01C6" unicode="&#x1c6;" horiz-adv-x="1050" 
d="M271 -20q-61 0 -104 55t-66 173.5t-23 309.5q0 195 23.5 312t66 169t99.5 52q44 0 72.5 -21t44.5 -50.5t21 -55.5v516h-109v60h169v-1440h108v-60h-168v135q-3 -26 -18.5 -63t-43.5 -64.5t-72 -27.5zM278 42q36 0 62.5 44t43.5 108t21 124v449q-5 50 -24.5 99t-48 81.5
t-61.5 32.5q-38 0 -63 -36.5t-39.5 -101t-20.5 -149t-6 -180.5q0 -120 8 -208.5t24 -147t42 -87t62 -28.5zM654 0v60l256 927h-102q-43 0 -62 -12t-23 -54t-4 -132h-58v258h309v-60l-256 -927h91q53 0 75 13.5t27 58t5 135.5h60v-267h-318zM783 1101l-147 209h60l122 -142
l122 142h60l-146 -209h-71z" />
    <glyph glyph-name="uni01C7" unicode="&#x1c7;" horiz-adv-x="1071" 
d="M69 0v60h91v1280h-91v60h242v-60h-91v-1280h153q23 0 37 13t21 53t7 121h60v-247h-429zM752 -27q-54 0 -89 26.5t-52 80t-17 134.5q0 45 12.5 62t31.5 17t29.5 -14t10.5 -44q0 -18 -3.5 -32.5t-7.5 -33.5t-4 -51q0 -35 25.5 -59t62.5 -24q54 0 90.5 52t36.5 197v1056h-97
v60h250v-60h-93v-993q0 -109 -13.5 -181.5t-38.5 -114.5t-59 -60t-75 -18z" />
    <glyph glyph-name="uni01C8" unicode="&#x1c8;" horiz-adv-x="796" 
d="M69 0v60h91v1280h-91v60h242v-60h-91v-1280h153q23 0 37 13t21 53t7 121h60v-247h-429zM518 -498q-43 0 -72 27t-44 74t-15 108q0 30 10.5 47.5t29.5 17.5q20 0 30 -16t10 -38q0 -16 -2 -32t-4.5 -33t-2.5 -37q0 -27 10 -39t24 -14.5t26 -2.5q59 0 91 71.5t32 204.5v1147
h-109v60h169v-1158q0 -100 -13 -173t-37.5 -120.5t-58 -70.5t-74.5 -23zM667 1291q-30 0 -50.5 19.5t-20.5 47.5q0 29 20.5 49t50.5 20q27 0 46 -20t19 -49q0 -28 -19 -47.5t-46 -19.5z" />
    <glyph glyph-name="uni01C9" unicode="&#x1c9;" horiz-adv-x="593" 
d="M49 0v60h89v1380h-89v60h147v-1440h91v-60h-238zM315 -498q-43 0 -72 27t-44 74t-15 108q0 30 10.5 47.5t29.5 17.5q20 0 30 -16t10 -38q0 -16 -2 -32t-4.5 -33t-2.5 -37q0 -27 10 -39t24 -14.5t26 -2.5q59 0 91 71.5t32 204.5v1147h-109v60h169v-1158q0 -100 -13 -173
t-37.5 -120.5t-58 -70.5t-74.5 -23zM464 1291q-30 0 -50.5 19.5t-20.5 47.5q0 29 20.5 49t50.5 20q27 0 46 -20t19 -49q0 -28 -19 -47.5t-46 -19.5z" />
    <glyph glyph-name="uni01CA" unicode="&#x1ca;" horiz-adv-x="1224" 
d="M35 0v60h92v1280h-92v60h196l349 -1286h-2v1226h-93v60h244v-60h-89v-1340h-98l-355 1327h2v-1267h107v-60h-261zM905 -27q-54 0 -89 26.5t-52 80t-17 134.5q0 45 12.5 62t31.5 17t29.5 -14t10.5 -44q0 -18 -3.5 -32.5t-7.5 -33.5t-4 -51q0 -35 25.5 -59t62.5 -24
q54 0 90.5 52t36.5 197v1056h-97v60h250v-60h-93v-993q0 -109 -13.5 -181.5t-38.5 -114.5t-59 -60t-75 -18z" />
    <glyph glyph-name="uni01CB" unicode="&#x1cb;" horiz-adv-x="1041" 
d="M35 0v60h92v1280h-92v60h196l349 -1286h-2v1226h-93v60h244v-60h-89v-1340h-98l-355 1327h2v-1267h107v-60h-261zM763 -498q-43 0 -72 27t-44 74t-15 108q0 30 10.5 47.5t29.5 17.5q20 0 30 -16t10 -38q0 -16 -2 -32t-4.5 -33t-2.5 -37q0 -27 10 -39t24 -14.5t26 -2.5
q59 0 91 71.5t32 204.5v1147h-109v60h169v-1158q0 -100 -13 -173t-37.5 -120.5t-58 -70.5t-74.5 -23zM912 1291q-30 0 -50.5 19.5t-20.5 47.5q0 29 20.5 49t50.5 20q27 0 46 -20t19 -49q0 -28 -19 -47.5t-46 -19.5z" />
    <glyph glyph-name="uni01CC" unicode="&#x1cc;" horiz-adv-x="904" 
d="M35 0v60h100v927h-100v60h160v-114q7 31 30 58.5t57.5 44.5t74.5 17q33 0 70 -19.5t63.5 -80.5t26.5 -186v-707h100v-60h-258v60h98v680q0 137 -29 193t-89 56q-31 0 -57.5 -22.5t-46 -58t-30 -75.5t-10.5 -75v-698h98v-60h-258zM626 -498q-43 0 -72 27t-44 74t-15 108
q0 30 10.5 47.5t29.5 17.5q20 0 30 -16t10 -38q0 -16 -2 -32t-4.5 -33t-2.5 -37q0 -27 10 -39t24 -14.5t26 -2.5q59 0 91 71.5t32 204.5v1147h-109v60h169v-1158q0 -100 -13 -173t-37.5 -120.5t-58 -70.5t-74.5 -23zM775 1291q-30 0 -50.5 19.5t-20.5 47.5q0 29 20.5 49
t50.5 20q27 0 46 -20t19 -49q0 -28 -19 -47.5t-46 -19.5z" />
    <glyph glyph-name="uni01CE" unicode="&#x1ce;" horiz-adv-x="550" 
d="M242 -20q-55 0 -96 28t-63.5 85t-22.5 143q0 90 32 150t79.5 102.5t95 78t79.5 73.5t32 91q0 78 -11 136.5t-37.5 91t-73.5 32.5q-52 0 -86 -39t-34 -87q0 -19 3 -28.5t5.5 -18t2.5 -24.5q0 -23 -9 -39.5t-29 -16.5q-19 0 -27.5 17t-8.5 47q0 71 22.5 128t63.5 90t97 33
t96.5 -29.5t63 -94.5t22.5 -173v-645q0 -35 9.5 -47.5t27.5 -12.5q14 0 23 4.5t13 9.5l29 -54q-10 -9 -29 -14.5t-42 -5.5q-20 0 -39 9t-31 28.5t-12 51.5q-7 -21 -23.5 -44.5t-46 -39.5t-75.5 -16zM242 42q46 0 76 34.5t45 79t15 73.5v373q-2 -28 -40 -57t-86.5 -67.5
t-85.5 -96.5t-37 -145q0 -95 28.5 -144.5t84.5 -49.5zM225 1101l-147 209h60l122 -142l122 142h60l-146 -209h-71z" />
    <glyph glyph-name="uni01D0" unicode="&#x1d0;" horiz-adv-x="347" 
d="M40 0v60h109v927h-109v60h169v-987h111v-60h-280zM144 1101l-147 209h60l122 -142l122 142h60l-146 -209h-71z" />
    <glyph glyph-name="uni01D2" unicode="&#x1d2;" horiz-adv-x="545" 
d="M268 -22q-51 0 -91.5 38t-69 109.5t-43 173t-14.5 228.5q0 139 16 239t45 163.5t69 93.5t88 30q47 0 86.5 -30t69 -93.5t46 -163.5t16.5 -239q0 -127 -15 -228.5t-43.5 -173t-69 -109.5t-90.5 -38zM268 36q64 0 108 122t44 369q0 242 -44 355t-108 113q-66 0 -110.5 -113
t-44.5 -355q0 -247 44.5 -369t110.5 -122zM235 1101l-147 209h60l122 -142l122 142h60l-146 -209h-71z" />
    <glyph glyph-name="uni01D4" unicode="&#x1d4;" horiz-adv-x="618" 
d="M291 -22q-43 0 -82 20.5t-63 78.5t-24 170v740h-104v59h164v-795q0 -87 16.5 -132t42.5 -61t54 -16q48 0 81 48t49.5 120t16.5 145v632h-106v59h166v-986h94v-60h-149v135q-4 -32 -22 -68.5t-51 -62.5t-83 -26zM276 1101l-147 209h60l122 -142l122 142h60l-146 -209h-71z
" />
    <glyph glyph-name="uni01D6" unicode="&#x1d6;" horiz-adv-x="618" 
d="M291 -22q-43 0 -82 20.5t-63 78.5t-24 170v740h-104v59h164v-795q0 -87 16.5 -132t42.5 -61t54 -16q48 0 81 48t49.5 120t16.5 145v632h-106v59h166v-986h94v-60h-149v135q-4 -32 -22 -68.5t-51 -62.5t-83 -26zM418 1121q-26 0 -45 18.5t-19 43.5q0 27 19 47t45 20
q25 0 44 -20t19 -47q0 -25 -19 -43.5t-44 -18.5zM203 1121q-24 0 -43.5 18.5t-19.5 43.5q0 27 19.5 47t43.5 20q26 0 46 -20t20 -47q0 -25 -20 -43.5t-46 -18.5zM131 1333v60h359v-60h-359z" />
    <glyph glyph-name="uni01D8" unicode="&#x1d8;" horiz-adv-x="618" 
d="M291 -22q-43 0 -82 20.5t-63 78.5t-24 170v740h-104v59h164v-795q0 -87 16.5 -132t42.5 -61t54 -16q48 0 81 48t49.5 120t16.5 145v632h-106v59h166v-986h94v-60h-149v135q-4 -32 -22 -68.5t-51 -62.5t-83 -26zM418 1121q-26 0 -45 18.5t-19 43.5q0 27 19 47t45 20
q25 0 44 -20t19 -47q0 -25 -19 -43.5t-44 -18.5zM203 1121q-24 0 -43.5 18.5t-19.5 43.5q0 27 19.5 47t43.5 20q26 0 46 -20t20 -47q0 -25 -20 -43.5t-46 -18.5zM199 1279l-24 27l166 129q14 12 30 20t30 8q10 0 18.5 -4.5t13.5 -14.5q4 -7 4 -16q0 -19 -19.5 -35t-42.5 -27
z" />
    <glyph glyph-name="uni01DA" unicode="&#x1da;" horiz-adv-x="618" 
d="M291 -22q-43 0 -82 20.5t-63 78.5t-24 170v740h-104v59h164v-795q0 -87 16.5 -132t42.5 -61t54 -16q48 0 81 48t49.5 120t16.5 145v632h-106v59h166v-986h94v-60h-149v135q-4 -32 -22 -68.5t-51 -62.5t-83 -26zM418 1121q-26 0 -45 18.5t-19 43.5q0 27 19 47t45 20
q25 0 44 -20t19 -47q0 -25 -19 -43.5t-44 -18.5zM203 1121q-24 0 -43.5 18.5t-19.5 43.5q0 27 19.5 47t43.5 20q26 0 46 -20t20 -47q0 -25 -20 -43.5t-46 -18.5zM276 1305l-147 209h60l122 -142l122 142h60l-146 -209h-71z" />
    <glyph glyph-name="uni01DC" unicode="&#x1dc;" horiz-adv-x="618" 
d="M291 -22q-43 0 -82 20.5t-63 78.5t-24 170v740h-104v59h164v-795q0 -87 16.5 -132t42.5 -61t54 -16q48 0 81 48t49.5 120t16.5 145v632h-106v59h166v-986h94v-60h-149v135q-4 -32 -22 -68.5t-51 -62.5t-83 -26zM418 1121q-26 0 -45 18.5t-19 43.5q0 27 19 47t45 20
q25 0 44 -20t19 -47q0 -25 -19 -43.5t-44 -18.5zM203 1121q-24 0 -43.5 18.5t-19.5 43.5q0 27 19.5 47t43.5 20q26 0 46 -20t20 -47q0 -25 -20 -43.5t-46 -18.5zM427 1306l-194 89q-23 11 -36 21t-13 32q0 20 12.5 29.5t31.5 9.5q18 0 31 -6.5t26 -17.5l162 -132z" />
    <glyph glyph-name="uni01DF" unicode="&#x1df;" horiz-adv-x="550" 
d="M242 -20q-55 0 -96 28t-63.5 85t-22.5 143q0 90 32 150t79.5 102.5t95 78t79.5 73.5t32 91q0 78 -11 136.5t-37.5 91t-73.5 32.5q-52 0 -86 -39t-34 -87q0 -19 3 -28.5t5.5 -18t2.5 -24.5q0 -23 -9 -39.5t-29 -16.5q-19 0 -27.5 17t-8.5 47q0 71 22.5 128t63.5 90t97 33
t96.5 -29.5t63 -94.5t22.5 -173v-645q0 -35 9.5 -47.5t27.5 -12.5q14 0 23 4.5t13 9.5l29 -54q-10 -9 -29 -14.5t-42 -5.5q-20 0 -39 9t-31 28.5t-12 51.5q-7 -21 -23.5 -44.5t-46 -39.5t-75.5 -16zM242 42q46 0 76 34.5t45 79t15 73.5v373q-2 -28 -40 -57t-86.5 -67.5
t-85.5 -96.5t-37 -145q0 -95 28.5 -144.5t84.5 -49.5zM367 1121q-26 0 -45 18.5t-19 43.5q0 27 19 47t45 20q25 0 44 -20t19 -47q0 -25 -19 -43.5t-44 -18.5zM152 1121q-24 0 -43.5 18.5t-19.5 43.5q0 27 19.5 47t43.5 20q26 0 46 -20t20 -47q0 -25 -20 -43.5t-46 -18.5z
M80 1333v60h359v-60h-359z" />
    <glyph glyph-name="gcaron" unicode="&#x1e7;" horiz-adv-x="565" 
d="M289 -498q-85 0 -137.5 40.5t-76.5 102t-24 124.5q0 60 12 102.5t30.5 71t39.5 45.5t38 25q-10 2 -27 10.5t-34.5 25.5t-30 44.5t-12.5 66.5q0 42 16.5 71t39 44t40.5 15h7.5t5.5 -1q-15 13 -29.5 41.5t-26 71.5t-18 100t-6.5 127q0 119 13.5 200t39 130.5t62 71.5
t82.5 22q66 0 106 -49.5t58.5 -139.5t18.5 -213q0 -106 -12 -185t-35.5 -131.5t-59 -78t-82.5 -25.5q-37 0 -55.5 10.5t-20.5 11.5q-1 1 -3 1.5t-6 0.5q-23 0 -48 -25t-25 -63q0 -53 34.5 -80t127.5 -38q128 -13 183 -79t55 -186q0 -68 -18 -120.5t-50.5 -88.5t-76 -54.5
t-95.5 -18.5zM289 -442q80 0 129 58t49 149q0 113 -33.5 160.5t-115.5 59.5q-21 3 -39 6t-31 5.5t-19 3.5q-42 -23 -67 -59t-36 -78t-11 -85q0 -51 18.5 -101.5t57 -84.5t98.5 -34zM287 291q35 0 63 29.5t44.5 107t16.5 219.5q0 139 -16 213.5t-43 103.5t-61 29t-63.5 -29
t-47.5 -105.5t-18 -218.5q0 -139 17.5 -214.5t46 -105t61.5 -29.5zM356 996q7 48 43 77t73 29q33 0 46.5 -13t13.5 -38q0 -19 -11 -32.5t-31 -13.5q-14 0 -21.5 7t-13.5 14t-19 7q-14 0 -23.5 -12.5t-9.5 -29.5zM250 1101l-147 209h60l122 -142l122 142h60l-146 -209h-71z
" />
    <glyph glyph-name="uni01EA" unicode="&#x1ea;" horiz-adv-x="662" 
d="M329 -22q-91 0 -151 95t-89 257.5t-29 367.5q0 206 29 369.5t89 259t151 95.5q92 0 152.5 -95.5t90.5 -259t30 -369.5q0 -205 -30 -367.5t-90.5 -257.5t-152.5 -95zM329 38q51 0 90 50.5t65.5 141t40 210.5t13.5 258t-13.5 258.5t-40 211.5t-65.5 142.5t-90 51.5
t-89.5 -51.5t-64 -142.5t-38.5 -211.5t-13 -258.5t13 -258t38.5 -210.5t64 -141t89.5 -50.5zM426 -278q-36 0 -74 12.5t-63.5 43t-25.5 82.5q0 41 23 73.5t53.5 56t52.5 34.5l24 -19q-20 -19 -47 -55.5t-27 -84.5q0 -55 33.5 -68.5t67.5 -13.5q23 0 57 6t57 19l26 -42
q-22 -16 -63.5 -30t-93.5 -14z" />
    <glyph glyph-name="uni01EB" unicode="&#x1eb;" horiz-adv-x="545" 
d="M268 -22q-51 0 -91.5 38t-69 109.5t-43 173t-14.5 228.5q0 139 16 239t45 163.5t69 93.5t88 30q47 0 86.5 -30t69 -93.5t46 -163.5t16.5 -239q0 -127 -15 -228.5t-43.5 -173t-69 -109.5t-90.5 -38zM268 36q64 0 108 122t44 369q0 242 -44 355t-108 113q-66 0 -110.5 -113
t-44.5 -355q0 -247 44.5 -369t110.5 -122zM373 -260q-36 0 -74 12.5t-63.5 43t-25.5 82.5q0 41 23 73.5t53.5 56t52.5 34.5l24 -19q-20 -19 -47 -55.5t-27 -84.5q0 -55 33.5 -68.5t67.5 -13.5q23 0 57 6t57 19l26 -42q-22 -16 -63.5 -30t-93.5 -14z" />
    <glyph glyph-name="aringacute" unicode="&#x1fb;" horiz-adv-x="550" 
d="M242 -20q-55 0 -96 28t-63.5 85t-22.5 143q0 90 32 150t79.5 102.5t95 78t79.5 73.5t32 91q0 78 -11 136.5t-37.5 91t-73.5 32.5q-52 0 -86 -39t-34 -87q0 -19 3 -28.5t5.5 -18t2.5 -24.5q0 -23 -9 -39.5t-29 -16.5q-19 0 -27.5 17t-8.5 47q0 71 22.5 128t63.5 90t97 33
t96.5 -29.5t63 -94.5t22.5 -173v-645q0 -35 9.5 -47.5t27.5 -12.5q14 0 23 4.5t13 9.5l29 -54q-10 -9 -29 -14.5t-42 -5.5q-20 0 -39 9t-31 28.5t-12 51.5q-7 -21 -23.5 -44.5t-46 -39.5t-75.5 -16zM242 42q46 0 76 34.5t45 79t15 73.5v373q-2 -28 -40 -57t-86.5 -67.5
t-85.5 -96.5t-37 -145q0 -95 28.5 -144.5t84.5 -49.5zM260 1091q-45 0 -74.5 32.5t-29.5 85.5q0 55 29.5 86.5t74.5 31.5t75 -31.5t30 -86.5q0 -53 -30 -85.5t-75 -32.5zM260 1131q29 0 41.5 23t12.5 57q0 30 -12.5 53t-41.5 23q-26 0 -39.5 -23t-13.5 -53q0 -34 13.5 -57
t39.5 -23zM148 1355l-24 27l166 129q14 12 30 20t30 8q10 0 18.5 -4.5t13.5 -14.5q4 -7 4 -16q0 -19 -19.5 -35t-42.5 -27z" />
    <glyph glyph-name="aeacute" unicode="&#x1fd;" horiz-adv-x="788" 
d="M216 -16q-72 0 -114 60t-42 152q0 102 29.5 169t73 112.5t87.5 81t73.5 73.5t29.5 90q0 61 -9 123t-33 104t-69 42q-34 0 -65.5 -24.5t-31.5 -79.5q0 -20 1.5 -30.5t3 -19t1.5 -24.5q0 -23 -8 -39t-28 -16q-19 0 -27 17t-8 47q0 61 18.5 113.5t55 85t90.5 32.5
q55 0 92.5 -39.5t57 -114.5t19.5 -183v-441q0 -42 -3.5 -74t-14 -61.5t-31.5 -66.5q-14 -25 -54.5 -57t-93.5 -32zM225 47q50 0 89 56.5t39 129.5v356q-2 -28 -36.5 -57t-78.5 -68t-77.5 -99t-33.5 -150q0 -48 9 -86t30.5 -60t58.5 -22zM548 -22q-67 0 -107.5 50.5t-61 132
t-27 177.5t-6.5 187q0 126 13 224.5t39 166t64 102.5t88 35q58 0 93.5 -41t54 -106.5t25 -142t6.5 -147.5v-43t-1 -41h-331v60h267q0 104 -9 195.5t-33.5 148.5t-71.5 57q-44 0 -75.5 -56t-48 -154.5t-16.5 -226.5q0 -93 5 -184.5t19 -166.5t41.5 -120t72.5 -45
q53 0 80 34.5t35 65.5l54 -22q-14 -57 -60.5 -98.5t-108.5 -41.5zM303 1075l-24 27l166 129q14 12 30 20t30 8q10 0 18.5 -4.5t13.5 -14.5q4 -7 4 -16q0 -19 -19.5 -35t-42.5 -27z" />
    <glyph glyph-name="Oslashacute" unicode="&#x1fe;" horiz-adv-x="718" 
d="M89 -104l507 1608h62l-505 -1608h-64zM329 -22q-91 0 -151 95t-89 257.5t-29 367.5q0 206 29 369.5t89 259t151 95.5q92 0 152.5 -95.5t90.5 -259t30 -369.5q0 -205 -30 -367.5t-90.5 -257.5t-152.5 -95zM329 38q51 0 90 50.5t65.5 141t40 210.5t13.5 258t-13.5 258.5
t-40 211.5t-65.5 142.5t-90 51.5t-89.5 -51.5t-64 -142.5t-38.5 -211.5t-13 -258.5t13 -258t38.5 -210.5t64 -141t89.5 -50.5zM219 1446l-24 27l165 129q14 11 30.5 19.5t30.5 8.5q10 0 18.5 -4.5t13.5 -14.5q4 -7 4 -16q0 -19 -19.5 -35t-42.5 -27z" />
    <glyph glyph-name="oslashacute" unicode="&#x1ff;" horiz-adv-x="575" 
d="M60 -104l402 1224h54l-404 -1224h-52zM268 -22q-51 0 -91.5 38t-69 109.5t-43 173t-14.5 228.5q0 139 16 239t45 163.5t69 93.5t88 30q47 0 86.5 -30t69 -93.5t46 -163.5t16.5 -239q0 -127 -15 -228.5t-43.5 -173t-69 -109.5t-90.5 -38zM268 36q64 0 108 122t44 369
q0 242 -44 355t-108 113q-66 0 -110.5 -113t-44.5 -355q0 -247 44.5 -369t110.5 -122zM158 1075l-24 27l166 129q14 12 30 20t30 8q10 0 18.5 -4.5t13.5 -14.5q4 -7 4 -16q0 -19 -19.5 -35t-42.5 -27z" />
    <glyph glyph-name="uni0201" unicode="&#x201;" horiz-adv-x="550" 
d="M242 -20q-55 0 -96 28t-63.5 85t-22.5 143q0 90 32 150t79.5 102.5t95 78t79.5 73.5t32 91q0 78 -11 136.5t-37.5 91t-73.5 32.5q-52 0 -86 -39t-34 -87q0 -19 3 -28.5t5.5 -18t2.5 -24.5q0 -23 -9 -39.5t-29 -16.5q-19 0 -27.5 17t-8.5 47q0 71 22.5 128t63.5 90t97 33
t96.5 -29.5t63 -94.5t22.5 -173v-645q0 -35 9.5 -47.5t27.5 -12.5q14 0 23 4.5t13 9.5l29 -54q-10 -9 -29 -14.5t-42 -5.5q-20 0 -39 9t-31 28.5t-12 51.5q-7 -21 -23.5 -44.5t-46 -39.5t-75.5 -16zM242 42q46 0 76 34.5t45 79t15 73.5v373q-2 -28 -40 -57t-86.5 -67.5
t-85.5 -96.5t-37 -145q0 -95 28.5 -144.5t84.5 -49.5zM373 1110l-152 150q-14 14 -22.5 25.5t-8.5 24.5q0 22 12.5 32.5t28.5 10.5q27 0 40.5 -14.5t23.5 -32.5l105 -179zM199 1110l-152 150q-14 14 -22.5 25.5t-8.5 24.5q0 22 12.5 32.5t28.5 10.5q27 0 40.5 -14.5
t23.5 -32.5l105 -179z" />
    <glyph glyph-name="uni0203" unicode="&#x203;" horiz-adv-x="550" 
d="M242 -20q-55 0 -96 28t-63.5 85t-22.5 143q0 90 32 150t79.5 102.5t95 78t79.5 73.5t32 91q0 78 -11 136.5t-37.5 91t-73.5 32.5q-52 0 -86 -39t-34 -87q0 -19 3 -28.5t5.5 -18t2.5 -24.5q0 -23 -9 -39.5t-29 -16.5q-19 0 -27.5 17t-8.5 47q0 71 22.5 128t63.5 90t97 33
t96.5 -29.5t63 -94.5t22.5 -173v-645q0 -35 9.5 -47.5t27.5 -12.5q14 0 23 4.5t13 9.5l29 -54q-10 -9 -29 -14.5t-42 -5.5q-20 0 -39 9t-31 28.5t-12 51.5q-7 -21 -23.5 -44.5t-46 -39.5t-75.5 -16zM242 42q46 0 76 34.5t45 79t15 73.5v373q-2 -28 -40 -57t-86.5 -67.5
t-85.5 -96.5t-37 -145q0 -95 28.5 -144.5t84.5 -49.5zM260 1302q57 0 92.5 -23.5t51.5 -64t16 -92.5h-57q-4 59 -29 89.5t-74 30.5q-48 0 -73 -30.5t-29 -89.5h-56q0 52 16 92.5t51 64t91 23.5z" />
    <glyph glyph-name="uni0205" unicode="&#x205;" horiz-adv-x="492" 
d="M252 -22q-67 0 -107.5 50.5t-61 132t-27 177.5t-6.5 187q0 126 13 224.5t39 166t64 102.5t88 35q58 0 93.5 -41t54 -106.5t25 -142t6.5 -147.5v-43t-1 -41h-331v60h267q0 104 -9 195.5t-33.5 148.5t-71.5 57q-44 0 -75.5 -56t-48 -154.5t-16.5 -226.5q0 -93 5 -184.5
t19 -166.5t41.5 -120t72.5 -45q53 0 80 34.5t35 65.5l54 -22q-14 -57 -60.5 -98.5t-108.5 -41.5zM414 1108l-152 150q-14 14 -22.5 25.5t-8.5 24.5q0 22 12.5 32.5t28.5 10.5q27 0 40.5 -14.5t23.5 -32.5l105 -179zM240 1108l-152 150q-14 14 -22.5 25.5t-8.5 24.5
q0 22 12.5 32.5t28.5 10.5q27 0 40.5 -14.5t23.5 -32.5l105 -179z" />
    <glyph glyph-name="uni0207" unicode="&#x207;" horiz-adv-x="492" 
d="M252 -22q-67 0 -107.5 50.5t-61 132t-27 177.5t-6.5 187q0 126 13 224.5t39 166t64 102.5t88 35q58 0 93.5 -41t54 -106.5t25 -142t6.5 -147.5v-43t-1 -41h-331v60h267q0 104 -9 195.5t-33.5 148.5t-71.5 57q-44 0 -75.5 -56t-48 -154.5t-16.5 -226.5q0 -93 5 -184.5
t19 -166.5t41.5 -120t72.5 -45q53 0 80 34.5t35 65.5l54 -22q-14 -57 -60.5 -98.5t-108.5 -41.5zM252 1300q57 0 92.5 -23.5t51.5 -64t16 -92.5h-57q-4 59 -29 89.5t-74 30.5q-48 0 -73 -30.5t-29 -89.5h-56q0 52 16 92.5t51 64t91 23.5z" />
    <glyph glyph-name="uni0209" unicode="&#x209;" horiz-adv-x="347" 
d="M40 0v60h109v927h-109v60h169v-987h111v-60h-280zM341 1110l-152 150q-14 14 -22.5 25.5t-8.5 24.5q0 22 12.5 32.5t28.5 10.5q27 0 40.5 -14.5t23.5 -32.5l105 -179zM167 1110l-152 150q-14 14 -22.5 25.5t-8.5 24.5q0 22 12.5 32.5t28.5 10.5q27 0 40.5 -14.5
t23.5 -32.5l105 -179z" />
    <glyph glyph-name="uni020B" unicode="&#x20b;" horiz-adv-x="347" 
d="M40 0v60h109v927h-109v60h169v-987h111v-60h-280zM179 1302q57 0 92.5 -23.5t51.5 -64t16 -92.5h-57q-4 59 -29 89.5t-74 30.5q-48 0 -73 -30.5t-29 -89.5h-56q0 52 16 92.5t51 64t91 23.5z" />
    <glyph glyph-name="uni020D" unicode="&#x20d;" horiz-adv-x="545" 
d="M268 -22q-51 0 -91.5 38t-69 109.5t-43 173t-14.5 228.5q0 139 16 239t45 163.5t69 93.5t88 30q47 0 86.5 -30t69 -93.5t46 -163.5t16.5 -239q0 -127 -15 -228.5t-43.5 -173t-69 -109.5t-90.5 -38zM268 36q64 0 108 122t44 369q0 242 -44 355t-108 113q-66 0 -110.5 -113
t-44.5 -355q0 -247 44.5 -369t110.5 -122zM432 1110l-152 150q-14 14 -22.5 25.5t-8.5 24.5q0 22 12.5 32.5t28.5 10.5q27 0 40.5 -14.5t23.5 -32.5l105 -179zM258 1110l-152 150q-14 14 -22.5 25.5t-8.5 24.5q0 22 12.5 32.5t28.5 10.5q27 0 40.5 -14.5t23.5 -32.5
l105 -179z" />
    <glyph glyph-name="uni020F" unicode="&#x20f;" horiz-adv-x="545" 
d="M268 -22q-51 0 -91.5 38t-69 109.5t-43 173t-14.5 228.5q0 139 16 239t45 163.5t69 93.5t88 30q47 0 86.5 -30t69 -93.5t46 -163.5t16.5 -239q0 -127 -15 -228.5t-43.5 -173t-69 -109.5t-90.5 -38zM268 36q64 0 108 122t44 369q0 242 -44 355t-108 113q-66 0 -110.5 -113
t-44.5 -355q0 -247 44.5 -369t110.5 -122zM270 1302q57 0 92.5 -23.5t51.5 -64t16 -92.5h-57q-4 59 -29 89.5t-74 30.5q-48 0 -73 -30.5t-29 -89.5h-56q0 52 16 92.5t51 64t91 23.5z" />
    <glyph glyph-name="uni0211" unicode="&#x211;" horiz-adv-x="479" 
d="M24 0v60h101v927h-101v60h161v-107q1 9 17.5 36.5t47.5 52t77 24.5q43 0 69 -31.5t37.5 -86t11.5 -124.5q0 -37 -10 -55t-30 -18q-17 0 -27.5 14t-10.5 44q0 16 3 26.5t5.5 25t2.5 39.5q0 52 -18.5 74.5t-44.5 22.5q-43 0 -72 -35.5t-43.5 -84.5t-14.5 -89v-715h104v-60
h-265zM460 1110l-152 150q-14 14 -22.5 25.5t-8.5 24.5q0 22 12.5 32.5t28.5 10.5q27 0 40.5 -14.5t23.5 -32.5l105 -179zM286 1110l-152 150q-14 14 -22.5 25.5t-8.5 24.5q0 22 12.5 32.5t28.5 10.5q27 0 40.5 -14.5t23.5 -32.5l105 -179z" />
    <glyph glyph-name="uni0213" unicode="&#x213;" horiz-adv-x="479" 
d="M24 0v60h101v927h-101v60h161v-107q1 9 17.5 36.5t47.5 52t77 24.5q43 0 69 -31.5t37.5 -86t11.5 -124.5q0 -37 -10 -55t-30 -18q-17 0 -27.5 14t-10.5 44q0 16 3 26.5t5.5 25t2.5 39.5q0 52 -18.5 74.5t-44.5 22.5q-43 0 -72 -35.5t-43.5 -84.5t-14.5 -89v-715h104v-60
h-265zM298 1302q57 0 92.5 -23.5t51.5 -64t16 -92.5h-57q-4 59 -29 89.5t-74 30.5q-48 0 -73 -30.5t-29 -89.5h-56q0 52 16 92.5t51 64t91 23.5z" />
    <glyph glyph-name="uni0215" unicode="&#x215;" horiz-adv-x="618" 
d="M291 -22q-43 0 -82 20.5t-63 78.5t-24 170v740h-104v59h164v-795q0 -87 16.5 -132t42.5 -61t54 -16q48 0 81 48t49.5 120t16.5 145v632h-106v59h166v-986h94v-60h-149v135q-4 -32 -22 -68.5t-51 -62.5t-83 -26zM473 1110l-152 150q-14 14 -22.5 25.5t-8.5 24.5
q0 22 12.5 32.5t28.5 10.5q27 0 40.5 -14.5t23.5 -32.5l105 -179zM299 1110l-152 150q-14 14 -22.5 25.5t-8.5 24.5q0 22 12.5 32.5t28.5 10.5q27 0 40.5 -14.5t23.5 -32.5l105 -179z" />
    <glyph glyph-name="uni0217" unicode="&#x217;" horiz-adv-x="618" 
d="M291 -22q-43 0 -82 20.5t-63 78.5t-24 170v740h-104v59h164v-795q0 -87 16.5 -132t42.5 -61t54 -16q48 0 81 48t49.5 120t16.5 145v632h-106v59h166v-986h94v-60h-149v135q-4 -32 -22 -68.5t-51 -62.5t-83 -26zM311 1302q57 0 92.5 -23.5t51.5 -64t16 -92.5h-57
q-4 59 -29 89.5t-74 30.5q-48 0 -73 -30.5t-29 -89.5h-56q0 52 16 92.5t51 64t91 23.5z" />
    <glyph glyph-name="uni0218" unicode="&#x218;" horiz-adv-x="549" 
d="M297 -27q-37 0 -63 12t-44.5 28t-31.5 28t-23 12q-18 0 -18 -53h-48v267h60q2 -35 11 -69t23.5 -63.5t35 -51.5t46.5 -34.5t56 -12.5q57 0 85.5 32.5t38 88.5t9.5 127q0 76 -26.5 151.5t-68 146.5t-87.5 133q-73 100 -111.5 179t-52.5 144t-14 120q0 80 25 139.5t70 92
t103 32.5q48 0 72.5 -17t37 -34.5t23.5 -17.5t16.5 11.5t5.5 35.5h48v-265h-60q-2 45 -11.5 86t-27 72t-43 49t-59.5 18q-61 0 -97 -47t-36 -135q0 -59 8 -111.5t38.5 -117t95.5 -160.5q53 -76 103 -160t82.5 -172.5t32.5 -178.5q0 -69 -11 -125t-34.5 -96t-62.5 -62
t-96 -22zM292 -324l-27 31q10 6 26.5 24t16.5 29q-2 -4 -12 -4q-23 0 -38 15.5t-15 37.5q0 23 16.5 38t38.5 15q27 0 42.5 -18.5t15.5 -47.5q0 -27 -10 -50t-25 -40.5t-29 -29.5z" />
    <glyph glyph-name="uni0219" unicode="&#x219;" horiz-adv-x="480" 
d="M251 -22q-48 0 -72.5 12t-36.5 23.5t-23 11.5q-10 0 -14 -7t-4 -18h-46v267h55q4 -68 12.5 -112.5t24 -70t40 -36t60.5 -10.5q42 0 66.5 27t35 66t10.5 75q0 59 -12.5 110.5t-43 104t-85.5 113.5q-60 69 -104.5 141.5t-44.5 177.5q0 64 23 108.5t60 68t79 23.5
q37 0 59 -7.5t34.5 -15.5t20.5 -8t10.5 6.5t3.5 18.5h48v-258h-54q-4 68 -12.5 108.5t-23.5 61t-35.5 27.5t-48.5 7q-48 0 -76 -36t-28 -100q0 -75 32 -135t99 -139q59 -70 95.5 -129.5t53 -115t16.5 -114.5q0 -64 -19.5 -120t-58 -91t-96.5 -35zM234 -324l-27 31
q10 6 26.5 24t16.5 29q-2 -4 -12 -4q-23 0 -38 15.5t-15 37.5q0 23 16.5 38t38.5 15q27 0 42.5 -18.5t15.5 -47.5q0 -27 -10 -50t-25 -40.5t-29 -29.5z" />
    <glyph glyph-name="uni021A" unicode="&#x21a;" horiz-adv-x="649" 
d="M185 0v60h110v1280h-115q-41 0 -58 -12t-20.5 -51.5t-3.5 -120.5h-60v244h573v-244h-60q0 81 -3.5 120.5t-20.5 51.5t-58 12h-114v-1280h114v-60h-284zM317 -324l-27 31q10 6 26.5 24t16.5 29q-2 -4 -12 -4q-23 0 -38 15.5t-15 37.5q0 23 16.5 38t38.5 15
q27 0 42.5 -18.5t15.5 -47.5q0 -27 -10 -50t-25 -40.5t-29 -29.5z" />
    <glyph glyph-name="uni021B" unicode="&#x21b;" horiz-adv-x="356" 
d="M222 -18q-24 0 -47.5 9.5t-39 36.5t-15.5 81v878h-113v60h113v89v97.5v86.5h60v-273h135v-60h-135v-878q0 -43 15.5 -56t31.5 -13q21 0 34 9.5t21 19.5l36 -47q-13 -15 -39.5 -27.5t-56.5 -12.5zM227 -320l-27 31q10 6 26.5 24t16.5 29q-2 -4 -12 -4q-23 0 -38 15.5
t-15 37.5q0 23 16.5 38t38.5 15q27 0 42.5 -18.5t15.5 -47.5q0 -27 -10 -50t-25 -40.5t-29 -29.5z" />
    <glyph glyph-name="uni0229" unicode="&#x229;" horiz-adv-x="492" 
d="M252 -22q-67 0 -107.5 50.5t-61 132t-27 177.5t-6.5 187q0 126 13 224.5t39 166t64 102.5t88 35q58 0 93.5 -41t54 -106.5t25 -142t6.5 -147.5v-43t-1 -41h-331v60h267q0 104 -9 195.5t-33.5 148.5t-71.5 57q-44 0 -75.5 -56t-48 -154.5t-16.5 -226.5q0 -93 5 -184.5
t19 -166.5t41.5 -120t72.5 -45q53 0 80 34.5t35 65.5l54 -22q-14 -57 -60.5 -98.5t-108.5 -41.5zM288 -280q-56 0 -91 9.5t-50 17.5l21 48q10 -7 40.5 -15.5t81.5 -8.5q32 0 59.5 14.5t27.5 42.5q0 30 -19 39t-44 9q-16 0 -38 -7.5t-36 -21.5l-57 4l63 149h60l-49 -102
q5 7 27.5 16.5t49.5 9.5q37 0 68.5 -21.5t31.5 -75.5q0 -42 -25 -65.5t-59.5 -32.5t-61.5 -9z" />
    <glyph glyph-name="uni022B" unicode="&#x22b;" horiz-adv-x="545" 
d="M268 -22q-51 0 -91.5 38t-69 109.5t-43 173t-14.5 228.5q0 139 16 239t45 163.5t69 93.5t88 30q47 0 86.5 -30t69 -93.5t46 -163.5t16.5 -239q0 -127 -15 -228.5t-43.5 -173t-69 -109.5t-90.5 -38zM268 36q64 0 108 122t44 369q0 242 -44 355t-108 113q-66 0 -110.5 -113
t-44.5 -355q0 -247 44.5 -369t110.5 -122zM377 1121q-26 0 -45 18.5t-19 43.5q0 27 19 47t45 20q25 0 44 -20t19 -47q0 -25 -19 -43.5t-44 -18.5zM162 1121q-24 0 -43.5 18.5t-19.5 43.5q0 27 19.5 47t43.5 20q26 0 46 -20t20 -47q0 -25 -20 -43.5t-46 -18.5zM90 1333v60
h359v-60h-359z" />
    <glyph glyph-name="uni022D" unicode="&#x22d;" horiz-adv-x="545" 
d="M268 -22q-51 0 -91.5 38t-69 109.5t-43 173t-14.5 228.5q0 139 16 239t45 163.5t69 93.5t88 30q47 0 86.5 -30t69 -93.5t46 -163.5t16.5 -239q0 -127 -15 -228.5t-43.5 -173t-69 -109.5t-90.5 -38zM268 36q64 0 108 122t44 369q0 242 -44 355t-108 113q-66 0 -110.5 -113
t-44.5 -355q0 -247 44.5 -369t110.5 -122zM355 1121q-38 0 -64 18.5t-48.5 37t-49.5 18.5q-29 0 -44 -22t-20 -36l-56 33q5 19 19.5 41.5t38.5 39.5t57 17q38 0 66 -19t52.5 -38t50.5 -19q23 0 36 17t20 30l54 -39q-5 -17 -19.5 -35.5t-37.5 -31t-55 -12.5zM8 1351v60h524
v-60h-524z" />
    <glyph glyph-name="uni0231" unicode="&#x231;" horiz-adv-x="545" 
d="M268 -22q-51 0 -91.5 38t-69 109.5t-43 173t-14.5 228.5q0 139 16 239t45 163.5t69 93.5t88 30q47 0 86.5 -30t69 -93.5t46 -163.5t16.5 -239q0 -127 -15 -228.5t-43.5 -173t-69 -109.5t-90.5 -38zM268 36q64 0 108 122t44 369q0 242 -44 355t-108 113q-66 0 -110.5 -113
t-44.5 -355q0 -247 44.5 -369t110.5 -122zM270 1125q-25 0 -45 18.5t-20 43.5q0 26 20 46t45 20t44.5 -20t19.5 -46q0 -25 -19.5 -43.5t-44.5 -18.5zM9 1335v60h524v-60h-524z" />
    <glyph glyph-name="uni0233" unicode="&#x233;" horiz-adv-x="571" 
d="M155 -502q-34 0 -53.5 27t-28 74t-8.5 108q0 30 8.5 47t26.5 17q20 0 27.5 -15.5t7.5 -37.5q0 -16 -3 -28t-6.5 -24.5t-3.5 -32.5q0 -28 7 -57t26 -29q13 0 21 15.5t14.5 44t13.5 66.5l67 356l-162 958h-82v60h218v-60h-72l127 -755l125 755h-74v60h222v-60h-82
l-169 -994l-64 -337q-10 -54 -23.5 -89t-32.5 -52t-47 -17zM34 1129v60h524v-60h-524z" />
    <glyph glyph-name="uni0237" unicode="&#x237;" horiz-adv-x="313" 
d="M35 -498q-43 0 -72 27t-44 74t-15 108q0 30 10.5 47.5t29.5 17.5q20 0 30 -16t10 -38q0 -16 -2 -32t-4.5 -33t-2.5 -37q0 -27 10 -39t24 -14.5t26 -2.5q59 0 91 71.5t32 204.5v1147h-109v60h169v-1158q0 -100 -13 -173t-37.5 -120.5t-58 -70.5t-74.5 -23z" />
    <glyph glyph-name="uni0244" unicode="&#x244;" horiz-adv-x="725" 
d="M73 836v60h607v-60h-607zM342 -24q-40 0 -77.5 15.5t-67 50.5t-47 94t-17.5 146v1058h-95v60h247v-60h-92v-1044q0 -150 43 -204t106 -54q32 0 59.5 12.5t48 41.5t32 79t11.5 125v1044h-82v60h236v-60h-94v-1058q0 -116 -30 -183t-78 -95t-103 -28z" />
    <glyph glyph-name="uni0259" unicode="&#x259;" horiz-adv-x="507" 
d="M50 1046h49q0 -23 2 -44t6 -21l7 -75h-64v140zM246 1068q68 0 108 -50.5t60.5 -132t27 -177.5t6.5 -187q0 -126 -13 -224.5t-39 -166t-64 -102.5t-88 -35q-58 0 -93.5 41t-54 106.5t-25 142t-6.5 147.5v43t1 41h331v-60h-267q0 -104 9 -195.5t33.5 -148.5t71.5 -57
q45 0 76 56t47.5 155t16.5 226q0 93 -5 184.5t-19 166.5t-41.5 120t-72.5 45q-53 0 -80 -34t-35 -66l-54 22q14 57 61 98.5t108 41.5z" />
    <glyph glyph-name="uni0289" unicode="&#x289;" horiz-adv-x="687" 
d="M33 600v60h578v-60h-578zM291 -22q-43 0 -82 20.5t-63 78.5t-24 170v740h-104v59h164v-795q0 -87 16.5 -132t42.5 -61t54 -16q48 0 81 48t49.5 120t16.5 145v632h-106v59h166v-986h94v-60h-149v135q-4 -32 -22 -68.5t-51 -62.5t-83 -26z" />
    <glyph glyph-name="uni02BC" unicode="&#x2bc;" horiz-adv-x="533" 
d="M299 1211l-39 45q14 9 38 34.5t24 41.5q-1 -1 -6 -3t-11 -2q-34 0 -55.5 22.5t-21.5 53.5q0 34 23.5 55t55.5 21q39 0 61.5 -26.5t22.5 -68.5q0 -39 -14.5 -72t-36 -58.5t-41.5 -42.5z" />
    <glyph glyph-name="circumflex" unicode="&#x2c6;" horiz-adv-x="685" 
d="M198 1284l147 209h71l146 -209h-60l-122 143l-122 -143h-60z" />
    <glyph glyph-name="caron" unicode="&#x2c7;" horiz-adv-x="684" 
d="M345 1244l-147 209h60l122 -142l122 142h60l-146 -209h-71z" />
    <glyph glyph-name="uni02C9" unicode="&#x2c9;" horiz-adv-x="916" 
d="M225 1360v60h604v-60h-604z" />
    <glyph glyph-name="breve" unicode="&#x2d8;" horiz-adv-x="687" 
d="M342 1256q-56 0 -91 23.5t-51 64.5t-16 92h56q4 -58 29 -89t73 -31q49 0 74 31t29 89h57q0 -51 -16 -92t-51.5 -64.5t-92.5 -23.5z" />
    <glyph glyph-name="dotaccent" unicode="&#x2d9;" horiz-adv-x="651" 
d="M305 1307q-25 0 -45 18.5t-20 43.5q0 26 20 46t45 20t44.5 -20t19.5 -46q0 -25 -19.5 -43.5t-44.5 -18.5z" />
    <glyph glyph-name="ring" unicode="&#x2da;" horiz-adv-x="476" 
d="M242 1144q-45 0 -74.5 32.5t-29.5 85.5q0 55 29.5 86.5t74.5 31.5t75 -31.5t30 -86.5q0 -53 -30 -85.5t-75 -32.5zM242 1184q29 0 41.5 23t12.5 57q0 30 -12.5 53t-41.5 23q-26 0 -39.5 -23t-13.5 -53q0 -34 13.5 -57t39.5 -23z" />
    <glyph glyph-name="ogonek" unicode="&#x2db;" horiz-adv-x="636" 
d="M346 -283q-36 0 -74 12.5t-63.5 43t-25.5 82.5q0 41 23 73.5t53.5 56t52.5 34.5l24 -19q-20 -19 -47 -55.5t-27 -84.5q0 -55 33.5 -68.5t67.5 -13.5q23 0 57 6t57 19l26 -42q-22 -16 -63.5 -30t-93.5 -14z" />
    <glyph glyph-name="tilde" unicode="&#x2dc;" horiz-adv-x="696" 
d="M427 1273q-38 0 -66.5 18.5t-53.5 37t-52 18.5q-29 0 -47 -22t-23 -36l-50 27q5 19 22 43t43.5 42.5t59.5 18.5q38 0 66.5 -19t54 -38t52.5 -19q29 0 43.5 17t21.5 30l51 -29q-5 -17 -22 -38t-42.5 -36t-57.5 -15z" />
    <glyph glyph-name="hungarumlaut" unicode="&#x2dd;" horiz-adv-x="956" 
d="M535 1238l-26 26l102 127q17 29 36.5 33.5t32 -6.5t10.5 -30.5t-28 -38.5zM295 1238l-26 26l102 127q17 29 36.5 33.5t32 -6.5t10.5 -30.5t-28 -38.5z" />
    <glyph glyph-name="gravecomb" unicode="&#x300;" 
d="M369 1102l-194 89q-23 11 -36 21t-13 32q0 20 12.5 29.5t31.5 9.5q18 0 31 -6.5t26 -17.5l162 -132z" />
    <glyph glyph-name="acutecomb" unicode="&#x301;" 
d="M193 1113l-24 27l166 129q14 12 30 20t30 8q10 0 18.5 -4.5t13.5 -14.5q4 -7 4 -16q0 -19 -19.5 -35t-42.5 -27z" />
    <glyph glyph-name="uni0302" unicode="&#x302;" 
d="M158 1108l147 209h71l146 -209h-60l-122 143l-122 -143h-60z" />
    <glyph glyph-name="tildecomb" unicode="&#x303;" 
d="M427 1120q-38 0 -64 18.5t-48.5 37t-49.5 18.5q-29 0 -44 -22t-20 -36l-56 33q5 19 19.5 41.5t38.5 39.5t57 17q38 0 66 -19t52.5 -38t50.5 -19q23 0 36 17t20 30l54 -39q-5 -17 -19.5 -35.5t-37.5 -31t-55 -12.5z" />
    <glyph glyph-name="uni0304" unicode="&#x304;" 
d="M265 1128v60h524v-60h-524z" />
    <glyph glyph-name="uni0306" unicode="&#x306;" 
d="M340 1100q-56 0 -91 23.5t-51 64.5t-16 92h56q4 -58 29 -89t73 -31q49 0 74 31t29 89h57q0 -51 -16 -92t-51.5 -64.5t-92.5 -23.5z" />
    <glyph glyph-name="uni0307" unicode="&#x307;" 
d="M303 1124q-25 0 -45 18.5t-20 43.5q0 26 20 46t45 20t44.5 -20t19.5 -46q0 -25 -19.5 -43.5t-44.5 -18.5z" />
    <glyph glyph-name="uni0308" unicode="&#x308;" 
d="M502 1121q-26 0 -45 18.5t-19 43.5q0 27 19 47t45 20q25 0 44 -20t19 -47q0 -25 -19 -43.5t-44 -18.5zM287 1121q-24 0 -43.5 18.5t-19.5 43.5q0 27 19.5 47t43.5 20q26 0 46 -20t20 -47q0 -25 -20 -43.5t-46 -18.5z" />
    <glyph glyph-name="hookabovecomb" unicode="&#x309;" 
d="M303 1408q53 0 92.5 -25.5t39.5 -77.5q0 -44 -25 -73t-50.5 -50.5t-25.5 -45.5h-56q0 39 22.5 63t44.5 46t22 55q0 34 -22.5 44t-58.5 10q-24 0 -47.5 -8t-37.5 -20l-39 41q18 20 59.5 30.5t81.5 10.5z" />
    <glyph glyph-name="uni030A" unicode="&#x30a;" 
d="M242 1091q-45 0 -74.5 32.5t-29.5 85.5q0 55 29.5 86.5t74.5 31.5t75 -31.5t30 -86.5q0 -53 -30 -85.5t-75 -32.5zM242 1131q29 0 41.5 23t12.5 57q0 30 -12.5 53t-41.5 23q-26 0 -39.5 -23t-13.5 -53q0 -34 13.5 -57t39.5 -23z" />
    <glyph glyph-name="uni030B" unicode="&#x30b;" 
d="M535 1135l-26 26l101 127q14 17 25.5 25.5t22.5 8.5q14 0 23 -9t9 -23q0 -23 -28 -44zM295 1135l-26 26l101 127q14 17 25.5 25.5t22.5 8.5q14 0 23 -9t9 -23q0 -23 -28 -44z" />
    <glyph glyph-name="uni030C" unicode="&#x30c;" 
d="M315 1100l-147 209h60l122 -142l122 142h60l-146 -209h-71z" />
    <glyph glyph-name="uni030F" unicode="&#x30f;" 
d="M446 1109l-152 150q-14 14 -22.5 25.5t-8.5 24.5q0 22 12.5 32.5t28.5 10.5q27 0 40.5 -14.5t23.5 -32.5l105 -179zM272 1109l-152 150q-14 14 -22.5 25.5t-8.5 24.5q0 22 12.5 32.5t28.5 10.5q27 0 40.5 -14.5t23.5 -32.5l105 -179z" />
    <glyph glyph-name="uni0311" unicode="&#x311;" 
d="M315 1301q57 0 92.5 -23.5t51.5 -64t16 -92.5h-57q-4 59 -29 89.5t-74 30.5q-48 0 -73 -30.5t-29 -89.5h-56q0 52 16 92.5t51 64t91 23.5z" />
    <glyph glyph-name="uni0312" unicode="&#x312;" 
d="M242 1310l27 -31q-10 -6 -26.5 -24t-16.5 -29q2 4 12 4q23 0 38 -15.5t15 -37.5q0 -23 -16 -38t-39 -15q-27 0 -44.5 18.5t-17.5 47.5q0 27 11 50t27 41t30 29z" />
    <glyph glyph-name="uni031B" unicode="&#x31b;" 
d="M236 986v60q54 0 97 15.5t43 67.5q0 19 -1.5 43t-1.5 40q0 29 15.5 46t36.5 17t36.5 -16.5t15.5 -46.5q0 -93 -39.5 -142t-95.5 -66.5t-106 -17.5z" />
    <glyph glyph-name="dotbelowcomb" unicode="&#x323;" 
d="M303 -250q-25 0 -45 18.5t-20 43.5q0 26 20 46t45 20t44.5 -20t19.5 -46q0 -25 -19.5 -43.5t-44.5 -18.5z" />
    <glyph glyph-name="uni0324" unicode="&#x324;" 
d="M369 -246q-26 0 -45 18.5t-19 43.5q0 27 19 47t45 20q25 0 44 -20t19 -47q0 -25 -19 -43.5t-44 -18.5zM154 -246q-24 0 -43.5 18.5t-19.5 43.5q0 27 19.5 47t43.5 20q26 0 46 -20t20 -47q0 -25 -20 -43.5t-46 -18.5z" />
    <glyph glyph-name="uni0326" unicode="&#x326;" 
d="M229 -324l-27 31q10 6 26.5 24t16.5 29q-2 -4 -12 -4q-23 0 -38 15.5t-15 37.5q0 23 16.5 38t38.5 15q27 0 42.5 -18.5t15.5 -47.5q0 -27 -10 -50t-25 -40.5t-29 -29.5z" />
    <glyph glyph-name="uni0327" unicode="&#x327;" 
d="M303 -280q-56 0 -91 9.5t-50 17.5l21 48q10 -7 40.5 -15.5t81.5 -8.5q32 0 59.5 14.5t27.5 42.5q0 30 -19 39t-44 9q-16 0 -38 -7.5t-36 -21.5l-57 4l63 149h60l-49 -102q5 7 27.5 16.5t49.5 9.5q37 0 68.5 -21.5t31.5 -75.5q0 -42 -25 -65.5t-59.5 -32.5t-61.5 -9z" />
    <glyph glyph-name="uni0328" unicode="&#x328;" 
d="M346 -283q-36 0 -74 12.5t-63.5 43t-25.5 82.5q0 41 23 73.5t53.5 56t52.5 34.5l24 -19q-20 -19 -47 -55.5t-27 -84.5q0 -55 33.5 -68.5t67.5 -13.5q23 0 57 6t57 19l26 -42q-22 -16 -63.5 -30t-93.5 -14z" />
    <glyph glyph-name="uni032E" unicode="&#x32e;" 
d="M249 -280q-56 0 -91 23.5t-51 64.5t-16 92h56q4 -58 29 -89t73 -31q49 0 74 31t29 89h57q0 -51 -16 -92t-51.5 -64.5t-92.5 -23.5z" />
    <glyph glyph-name="uni0331" unicode="&#x331;" 
d="M225 -206v60h604v-60h-604z" />
    <glyph glyph-name="uni0335" unicode="&#x335;" 
d="M98 533v60h382v-60h-382z" />
    <glyph glyph-name="uni0336" unicode="&#x336;" 
d="M98 533v60h382v-60h-382z" />
    <glyph glyph-name="uni0337" unicode="&#x337;" 
d="M29 -104l507 1608h62l-505 -1608h-64z" />
    <glyph glyph-name="uni0338" unicode="&#x338;" 
d="M29 -104l507 1608h62l-505 -1608h-64z" />
    <glyph glyph-name="uni1E05" unicode="&#x1e05;" horiz-adv-x="580" 
d="M315 -20q-44 0 -71 27t-40.5 63.5t-16.5 64.5v-135h-169v60h109v1380h-109v60h169v-584q5 22 20.5 54t44.5 56.5t73 24.5q60 0 102 -52t64 -169t22 -312q0 -191 -24 -309.5t-68 -173.5t-106 -55zM315 42q34 0 59 28.5t41.5 87t25 147t8.5 208.5q0 104 -7 189.5
t-22.5 147.5t-39.5 96t-58 34q-37 0 -66 -36.5t-46.5 -86.5t-22.5 -90v-429q4 -60 19 -129t42.5 -118t66.5 -49zM296 -250q-25 0 -45 18.5t-20 43.5q0 26 20 46t45 20t44.5 -20t19.5 -46q0 -25 -19.5 -43.5t-44.5 -18.5z" />
    <glyph glyph-name="uni1E08" unicode="&#x1e08;" horiz-adv-x="578" 
d="M353 -20q-126 0 -209.5 180t-83.5 538q0 126 19 253.5t56.5 234t94 171.5t130.5 65q49 0 84 -37t53.5 -94t18.5 -118q0 -41 -11 -55t-29 -14q-19 0 -31 14t-12 44q0 18 3 32.5t6 34t3 51.5q0 38 -23.5 60t-52.5 22q-47 0 -86 -40.5t-68.5 -109.5t-49.5 -155t-30.5 -178.5
t-10.5 -178.5q0 -125 12 -229t33.5 -184t50.5 -135t62.5 -83.5t70.5 -28.5t64 26.5t44.5 63.5t27.5 68l55 -22q-15 -47 -42 -92t-64.5 -74.5t-84.5 -29.5zM369 -280q-56 0 -91 9.5t-50 17.5l21 48q10 -7 40.5 -15.5t81.5 -8.5q32 0 59.5 14.5t27.5 42.5q0 30 -19 39t-44 9
q-16 0 -38 -7.5t-36 -21.5l-57 4l63 149h60l-49 -102q5 7 27.5 16.5t49.5 9.5q37 0 68.5 -21.5t31.5 -75.5q0 -42 -25 -65.5t-59.5 -32.5t-61.5 -9zM233 1466l-24 27l165 129q14 11 30.5 19.5t30.5 8.5q10 0 18.5 -4.5t13.5 -14.5q4 -7 4 -16q0 -19 -19.5 -35t-42.5 -27z
" />
    <glyph glyph-name="uni1E09" unicode="&#x1e09;" horiz-adv-x="518" 
d="M163 1075l-24 27l166 129q14 12 30 20t30 8q10 0 18.5 -4.5t13.5 -14.5q4 -7 4 -16q0 -19 -19.5 -35t-42.5 -27zM293 -20q-70 0 -117 52t-75 135.5t-40 180.5t-12 187q0 121 19 217t52.5 163t77.5 102.5t93 35.5q58 0 95 -37.5t55 -95t18 -118.5q0 -30 -8.5 -47
t-27.5 -17t-28.5 16t-9.5 39q0 16 3 24t6 18t3 30q0 56 -29 91t-77 35q-45 0 -78 -37t-55 -100t-32.5 -144t-10.5 -170q0 -82 9 -169.5t29.5 -162t54.5 -120.5t85 -46q50 0 78 24t44 70l45 -36q-15 -35 -54 -77.5t-113 -42.5zM328 -278q-56 0 -91 9.5t-50 17.5l21 48
q10 -7 40.5 -15.5t81.5 -8.5q32 0 59.5 14.5t27.5 42.5q0 30 -19 39t-44 9q-16 0 -38 -7.5t-36 -21.5l-57 4l63 149h60l-49 -102q5 7 27.5 16.5t49.5 9.5q37 0 68.5 -21.5t31.5 -75.5q0 -42 -25 -65.5t-59.5 -32.5t-61.5 -9z" />
    <glyph glyph-name="uni1E0D" unicode="&#x1e0d;" horiz-adv-x="583" 
d="M271 -20q-61 0 -104 55t-66 173.5t-23 309.5q0 195 23.5 312t66 169t99.5 52q44 0 72.5 -21t44.5 -50.5t21 -55.5v516h-109v60h169v-1440h108v-60h-168v135q-3 -26 -18.5 -63t-43.5 -64.5t-72 -27.5zM278 42q36 0 62.5 44t43.5 108t21 124v449q-5 50 -24.5 99t-48 81.5
t-61.5 32.5q-38 0 -63 -36.5t-39.5 -101t-20.5 -149t-6 -180.5q0 -120 8 -208.5t24 -147t42 -87t62 -28.5zM296 -250q-25 0 -45 18.5t-20 43.5q0 26 20 46t45 20t44.5 -20t19.5 -46q0 -25 -19.5 -43.5t-44.5 -18.5z" />
    <glyph glyph-name="uni1E0F" unicode="&#x1e0f;" horiz-adv-x="583" 
d="M271 -20q-61 0 -104 55t-66 173.5t-23 309.5q0 195 23.5 312t66 169t99.5 52q44 0 72.5 -21t44.5 -50.5t21 -55.5v516h-109v60h169v-1440h108v-60h-168v135q-3 -26 -18.5 -63t-43.5 -64.5t-72 -27.5zM278 42q36 0 62.5 44t43.5 108t21 124v449q-5 50 -24.5 99t-48 81.5
t-61.5 32.5q-38 0 -63 -36.5t-39.5 -101t-20.5 -149t-6 -180.5q0 -120 8 -208.5t24 -147t42 -87t62 -28.5zM-19 -261v60h524v-60h-524z" />
    <glyph glyph-name="uni1E15" unicode="&#x1e15;" horiz-adv-x="492" 
d="M252 -22q-67 0 -107.5 50.5t-61 132t-27 177.5t-6.5 187q0 126 13 224.5t39 166t64 102.5t88 35q58 0 93.5 -41t54 -106.5t25 -142t6.5 -147.5v-43t-1 -41h-331v60h267q0 104 -9 195.5t-33.5 148.5t-71.5 57q-44 0 -75.5 -56t-48 -154.5t-16.5 -226.5q0 -93 5 -184.5
t19 -166.5t41.5 -120t72.5 -45q53 0 80 34.5t35 65.5l54 -22q-14 -57 -60.5 -98.5t-108.5 -41.5zM-10 1127v60h524v-60h-524zM368 1240l-194 89q-23 11 -36 21t-13 32q0 20 12.5 29.5t31.5 9.5q18 0 31 -6.5t26 -17.5l162 -132z" />
    <glyph glyph-name="uni1E17" unicode="&#x1e17;" horiz-adv-x="492" 
d="M252 -22q-67 0 -107.5 50.5t-61 132t-27 177.5t-6.5 187q0 126 13 224.5t39 166t64 102.5t88 35q58 0 93.5 -41t54 -106.5t25 -142t6.5 -147.5v-43t-1 -41h-331v60h267q0 104 -9 195.5t-33.5 148.5t-71.5 57q-44 0 -75.5 -56t-48 -154.5t-16.5 -226.5q0 -93 5 -184.5
t19 -166.5t41.5 -120t72.5 -45q53 0 80 34.5t35 65.5l54 -22q-14 -57 -60.5 -98.5t-108.5 -41.5zM-10 1127v60h524v-60h-524zM140 1213l-24 27l166 129q14 12 30 20t30 8q10 0 18.5 -4.5t13.5 -14.5q4 -7 4 -16q0 -19 -19.5 -35t-42.5 -27z" />
    <glyph glyph-name="uni1E1D" unicode="&#x1e1d;" horiz-adv-x="492" 
d="M250 1099q-56 0 -91 23.5t-51 64.5t-16 92h56q4 -58 29 -89t73 -31q49 0 74 31t29 89h57q0 -51 -16 -92t-51.5 -64.5t-92.5 -23.5zM252 -22q-67 0 -107.5 50.5t-61 132t-27 177.5t-6.5 187q0 126 13 224.5t39 166t64 102.5t88 35q58 0 93.5 -41t54 -106.5t25 -142
t6.5 -147.5v-43t-1 -41h-331v60h267q0 104 -9 195.5t-33.5 148.5t-71.5 57q-44 0 -75.5 -56t-48 -154.5t-16.5 -226.5q0 -93 5 -184.5t19 -166.5t41.5 -120t72.5 -45q53 0 80 34.5t35 65.5l54 -22q-14 -57 -60.5 -98.5t-108.5 -41.5zM288 -280q-56 0 -91 9.5t-50 17.5l21 48
q10 -7 40.5 -15.5t81.5 -8.5q32 0 59.5 14.5t27.5 42.5q0 30 -19 39t-44 9q-16 0 -38 -7.5t-36 -21.5l-57 4l63 149h60l-49 -102q5 7 27.5 16.5t49.5 9.5q37 0 68.5 -21.5t31.5 -75.5q0 -42 -25 -65.5t-59.5 -32.5t-61.5 -9z" />
    <glyph glyph-name="uni1E21" unicode="&#x1e21;" horiz-adv-x="565" 
d="M289 -498q-85 0 -137.5 40.5t-76.5 102t-24 124.5q0 60 12 102.5t30.5 71t39.5 45.5t38 25q-10 2 -27 10.5t-34.5 25.5t-30 44.5t-12.5 66.5q0 42 16.5 71t39 44t40.5 15h7.5t5.5 -1q-15 13 -29.5 41.5t-26 71.5t-18 100t-6.5 127q0 119 13.5 200t39 130.5t62 71.5
t82.5 22q66 0 106 -49.5t58.5 -139.5t18.5 -213q0 -106 -12 -185t-35.5 -131.5t-59 -78t-82.5 -25.5q-37 0 -55.5 10.5t-20.5 11.5q-1 1 -3 1.5t-6 0.5q-23 0 -48 -25t-25 -63q0 -53 34.5 -80t127.5 -38q128 -13 183 -79t55 -186q0 -68 -18 -120.5t-50.5 -88.5t-76 -54.5
t-95.5 -18.5zM289 -442q80 0 129 58t49 149q0 113 -33.5 160.5t-115.5 59.5q-21 3 -39 6t-31 5.5t-19 3.5q-42 -23 -67 -59t-36 -78t-11 -85q0 -51 18.5 -101.5t57 -84.5t98.5 -34zM287 291q35 0 63 29.5t44.5 107t16.5 219.5q0 139 -16 213.5t-43 103.5t-61 29t-63.5 -29
t-47.5 -105.5t-18 -218.5q0 -139 17.5 -214.5t46 -105t61.5 -29.5zM356 996q7 48 43 77t73 29q33 0 46.5 -13t13.5 -38q0 -19 -11 -32.5t-31 -13.5q-14 0 -21.5 7t-13.5 14t-19 7q-14 0 -23.5 -12.5t-9.5 -29.5zM23 1129v60h524v-60h-524z" />
    <glyph glyph-name="uni1E25" unicode="&#x1e25;" horiz-adv-x="667" 
d="M35 0v60h101v1380h-101v60h161v-582q3 21 26 53.5t60.5 58t82.5 25.5q39 0 78 -22.5t65.5 -88.5t26.5 -197v-687h103v-60h-251v60h88v660q0 146 -28.5 208.5t-93.5 62.5q-42 0 -77.5 -38t-57 -91.5t-22.5 -101.5v-700h88v-60h-249zM338 -250q-25 0 -45 18.5t-20 43.5
q0 26 20 46t45 20t44.5 -20t19.5 -46q0 -25 -19.5 -43.5t-44.5 -18.5z" />
    <glyph glyph-name="uni1E2B" unicode="&#x1e2b;" horiz-adv-x="667" 
d="M35 0v60h101v1380h-101v60h161v-582q3 21 26 53.5t60.5 58t82.5 25.5q39 0 78 -22.5t65.5 -88.5t26.5 -197v-687h103v-60h-251v60h88v660q0 146 -28.5 208.5t-93.5 62.5q-42 0 -77.5 -38t-57 -91.5t-22.5 -101.5v-700h88v-60h-249zM338 -280q-56 0 -91 23.5t-51 64.5
t-16 92h56q4 -58 29 -89t73 -31q49 0 74 31t29 89h57q0 -51 -16 -92t-51.5 -64.5t-92.5 -23.5z" />
    <glyph glyph-name="uni1E2F" unicode="&#x1e2f;" horiz-adv-x="347" 
d="M40 0v60h109v927h-109v60h169v-987h111v-60h-280zM286 1121q-26 0 -45 18.5t-19 43.5q0 27 19 47t45 20q25 0 44 -20t19 -47q0 -25 -19 -43.5t-44 -18.5zM71 1121q-24 0 -43.5 18.5t-19.5 43.5q0 27 19.5 47t43.5 20q26 0 46 -20t20 -47q0 -25 -20 -43.5t-46 -18.5z
M67 1279l-24 27l166 129q14 12 30 20t30 8q10 0 18.5 -4.5t13.5 -14.5q4 -7 4 -16q0 -19 -19.5 -35t-42.5 -27z" />
    <glyph glyph-name="uni1E37" unicode="&#x1e37;" horiz-adv-x="335" 
d="M49 0v60h89v1380h-89v60h147v-1440h91v-60h-238zM171 -250q-25 0 -45 18.5t-20 43.5q0 26 20 46t45 20t44.5 -20t19.5 -46q0 -25 -19.5 -43.5t-44.5 -18.5z" />
    <glyph glyph-name="uni1E3B" unicode="&#x1e3b;" horiz-adv-x="335" 
d="M49 0v60h89v1380h-89v60h147v-1440h91v-60h-238zM-131 -206v60h604v-60h-604z" />
    <glyph glyph-name="uni1E3F" unicode="&#x1e3f;" horiz-adv-x="913" 
d="M39 0v60h96v927h-96v60h156v-116q4 21 21.5 49.5t50.5 49.5t82 21q54 0 84 -29t42 -62t12 -45q6 30 28 61.5t59 53t86 21.5q82 0 113.5 -73t31.5 -171v-747h93v-60h-247v60h94v620q0 91 -4.5 159.5t-25 106.5t-68.5 38q-51 0 -83.5 -41.5t-48.5 -103.5t-17 -123v-656h95
v-60h-248v60h93v620q0 137 -14.5 220.5t-87.5 83.5q-50 0 -81 -42t-45 -104t-15 -122v-656h92v-60h-248zM359 1075l-24 27l166 129q14 12 30 20t30 8q10 0 18.5 -4.5t13.5 -14.5q4 -7 4 -16q0 -19 -19.5 -35t-42.5 -27z" />
    <glyph glyph-name="uni1E43" unicode="&#x1e43;" horiz-adv-x="913" 
d="M39 0v60h96v927h-96v60h156v-116q4 21 21.5 49.5t50.5 49.5t82 21q54 0 84 -29t42 -62t12 -45q6 30 28 61.5t59 53t86 21.5q82 0 113.5 -73t31.5 -171v-747h93v-60h-247v60h94v620q0 91 -4.5 159.5t-25 106.5t-68.5 38q-51 0 -83.5 -41.5t-48.5 -103.5t-17 -123v-656h95
v-60h-248v60h93v620q0 137 -14.5 220.5t-87.5 83.5q-50 0 -81 -42t-45 -104t-15 -122v-656h92v-60h-248zM471 -250q-25 0 -45 18.5t-20 43.5q0 26 20 46t45 20t44.5 -20t19.5 -46q0 -25 -19.5 -43.5t-44.5 -18.5z" />
    <glyph glyph-name="uni1E45" unicode="&#x1e45;" horiz-adv-x="646" 
d="M35 0v60h100v927h-100v60h160v-114q7 31 30 58.5t57.5 44.5t74.5 17q33 0 70 -19.5t63.5 -80.5t26.5 -186v-707h100v-60h-258v60h98v680q0 137 -29 193t-89 56q-31 0 -57.5 -22.5t-46 -58t-30 -75.5t-10.5 -75v-698h98v-60h-258zM333 1125q-25 0 -45 18.5t-20 43.5
q0 26 20 46t45 20t44.5 -20t19.5 -46q0 -25 -19.5 -43.5t-44.5 -18.5z" />
    <glyph glyph-name="uni1E47" unicode="&#x1e47;" horiz-adv-x="646" 
d="M35 0v60h100v927h-100v60h160v-114q7 31 30 58.5t57.5 44.5t74.5 17q33 0 70 -19.5t63.5 -80.5t26.5 -186v-707h100v-60h-258v60h98v680q0 137 -29 193t-89 56q-31 0 -57.5 -22.5t-46 -58t-30 -75.5t-10.5 -75v-698h98v-60h-258zM333 -250q-25 0 -45 18.5t-20 43.5
q0 26 20 46t45 20t44.5 -20t19.5 -46q0 -25 -19.5 -43.5t-44.5 -18.5z" />
    <glyph glyph-name="uni1E49" unicode="&#x1e49;" horiz-adv-x="646" 
d="M35 0v60h100v927h-100v60h160v-114q7 31 30 58.5t57.5 44.5t74.5 17q33 0 70 -19.5t63.5 -80.5t26.5 -186v-707h100v-60h-258v60h98v680q0 137 -29 193t-89 56q-31 0 -57.5 -22.5t-46 -58t-30 -75.5t-10.5 -75v-698h98v-60h-258zM31 -206v60h604v-60h-604z" />
    <glyph glyph-name="uni1E4D" unicode="&#x1e4d;" horiz-adv-x="545" 
d="M268 -22q-51 0 -91.5 38t-69 109.5t-43 173t-14.5 228.5q0 139 16 239t45 163.5t69 93.5t88 30q47 0 86.5 -30t69 -93.5t46 -163.5t16.5 -239q0 -127 -15 -228.5t-43.5 -173t-69 -109.5t-90.5 -38zM268 36q64 0 108 122t44 369q0 242 -44 355t-108 113q-66 0 -110.5 -113
t-44.5 -355q0 -247 44.5 -369t110.5 -122zM355 1121q-38 0 -64 18.5t-48.5 37t-49.5 18.5q-29 0 -44 -22t-20 -36l-56 33q5 19 19.5 41.5t38.5 39.5t57 17q38 0 66 -19t52.5 -38t50.5 -19q23 0 36 17t20 30l54 -39q-5 -17 -19.5 -35.5t-37.5 -31t-55 -12.5zM158 1297l-24 27
l166 129q14 12 30 20t30 8q10 0 18.5 -4.5t13.5 -14.5q4 -7 4 -16q0 -19 -19.5 -35t-42.5 -27z" />
    <glyph glyph-name="uni1E4F" unicode="&#x1e4f;" horiz-adv-x="545" 
d="M268 -22q-51 0 -91.5 38t-69 109.5t-43 173t-14.5 228.5q0 139 16 239t45 163.5t69 93.5t88 30q47 0 86.5 -30t69 -93.5t46 -163.5t16.5 -239q0 -127 -15 -228.5t-43.5 -173t-69 -109.5t-90.5 -38zM268 36q64 0 108 122t44 369q0 242 -44 355t-108 113q-66 0 -110.5 -113
t-44.5 -355q0 -247 44.5 -369t110.5 -122zM355 1121q-38 0 -64 18.5t-48.5 37t-49.5 18.5q-29 0 -44 -22t-20 -36l-56 33q5 19 19.5 41.5t38.5 39.5t57 17q38 0 66 -19t52.5 -38t50.5 -19q23 0 36 17t20 30l54 -39q-5 -17 -19.5 -35.5t-37.5 -31t-55 -12.5zM377 1343
q-26 0 -45 18.5t-19 43.5q0 27 19 47t45 20q25 0 44 -20t19 -47q0 -25 -19 -43.5t-44 -18.5zM162 1343q-24 0 -43.5 18.5t-19.5 43.5q0 27 19.5 47t43.5 20q26 0 46 -20t20 -47q0 -25 -20 -43.5t-46 -18.5z" />
    <glyph glyph-name="uni1E51" unicode="&#x1e51;" horiz-adv-x="545" 
d="M268 -22q-51 0 -91.5 38t-69 109.5t-43 173t-14.5 228.5q0 139 16 239t45 163.5t69 93.5t88 30q47 0 86.5 -30t69 -93.5t46 -163.5t16.5 -239q0 -127 -15 -228.5t-43.5 -173t-69 -109.5t-90.5 -38zM268 36q64 0 108 122t44 369q0 242 -44 355t-108 113q-66 0 -110.5 -113
t-44.5 -355q0 -247 44.5 -369t110.5 -122zM90 1129v60h359v-60h-359zM386 1242l-194 89q-23 11 -36 21t-13 32q0 20 12.5 29.5t31.5 9.5q18 0 31 -6.5t26 -17.5l162 -132z" />
    <glyph glyph-name="uni1E53" unicode="&#x1e53;" horiz-adv-x="545" 
d="M268 -22q-51 0 -91.5 38t-69 109.5t-43 173t-14.5 228.5q0 139 16 239t45 163.5t69 93.5t88 30q47 0 86.5 -30t69 -93.5t46 -163.5t16.5 -239q0 -127 -15 -228.5t-43.5 -173t-69 -109.5t-90.5 -38zM268 36q64 0 108 122t44 369q0 242 -44 355t-108 113q-66 0 -110.5 -113
t-44.5 -355q0 -247 44.5 -369t110.5 -122zM90 1129v60h359v-60h-359zM158 1215l-24 27l166 129q14 12 30 20t30 8q10 0 18.5 -4.5t13.5 -14.5q4 -7 4 -16q0 -19 -19.5 -35t-42.5 -27z" />
    <glyph glyph-name="uni1E5B" unicode="&#x1e5b;" horiz-adv-x="479" 
d="M24 0v60h101v927h-101v60h161v-107q1 9 17.5 36.5t47.5 52t77 24.5q43 0 69 -31.5t37.5 -86t11.5 -124.5q0 -37 -10 -55t-30 -18q-17 0 -27.5 14t-10.5 44q0 16 3 26.5t5.5 25t2.5 39.5q0 52 -18.5 74.5t-44.5 22.5q-43 0 -72 -35.5t-43.5 -84.5t-14.5 -89v-715h104v-60
h-265zM238 -250q-25 0 -45 18.5t-20 43.5q0 26 20 46t45 20t44.5 -20t19.5 -46q0 -25 -19.5 -43.5t-44.5 -18.5z" />
    <glyph glyph-name="uni1E5F" unicode="&#x1e5f;" horiz-adv-x="479" 
d="M24 0v60h101v927h-101v60h161v-107q1 9 17.5 36.5t47.5 52t77 24.5q43 0 69 -31.5t37.5 -86t11.5 -124.5q0 -37 -10 -55t-30 -18q-17 0 -27.5 14t-10.5 44q0 16 3 26.5t5.5 25t2.5 39.5q0 52 -18.5 74.5t-44.5 22.5q-43 0 -72 -35.5t-43.5 -84.5t-14.5 -89v-715h104v-60
h-265zM-64 -206v60h604v-60h-604z" />
    <glyph glyph-name="uni1E61" unicode="&#x1e61;" horiz-adv-x="480" 
d="M251 -22q-48 0 -72.5 12t-36.5 23.5t-23 11.5q-10 0 -14 -7t-4 -18h-46v267h55q4 -68 12.5 -112.5t24 -70t40 -36t60.5 -10.5q42 0 66.5 27t35 66t10.5 75q0 59 -12.5 110.5t-43 104t-85.5 113.5q-60 69 -104.5 141.5t-44.5 177.5q0 64 23 108.5t60 68t79 23.5
q37 0 59 -7.5t34.5 -15.5t20.5 -8t10.5 6.5t3.5 18.5h48v-258h-54q-4 68 -12.5 108.5t-23.5 61t-35.5 27.5t-48.5 7q-48 0 -76 -36t-28 -100q0 -75 32 -135t99 -139q59 -70 95.5 -129.5t53 -115t16.5 -114.5q0 -64 -19.5 -120t-58 -91t-96.5 -35zM240 1125q-25 0 -45 18.5
t-20 43.5q0 26 20 46t45 20t44.5 -20t19.5 -46q0 -25 -19.5 -43.5t-44.5 -18.5z" />
    <glyph glyph-name="uni1E63" unicode="&#x1e63;" horiz-adv-x="480" 
d="M251 -22q-48 0 -72.5 12t-36.5 23.5t-23 11.5q-10 0 -14 -7t-4 -18h-46v267h55q4 -68 12.5 -112.5t24 -70t40 -36t60.5 -10.5q42 0 66.5 27t35 66t10.5 75q0 59 -12.5 110.5t-43 104t-85.5 113.5q-60 69 -104.5 141.5t-44.5 177.5q0 64 23 108.5t60 68t79 23.5
q37 0 59 -7.5t34.5 -15.5t20.5 -8t10.5 6.5t3.5 18.5h48v-258h-54q-4 68 -12.5 108.5t-23.5 61t-35.5 27.5t-48.5 7q-48 0 -76 -36t-28 -100q0 -75 32 -135t99 -139q59 -70 95.5 -129.5t53 -115t16.5 -114.5q0 -64 -19.5 -120t-58 -91t-96.5 -35zM240 -250q-25 0 -45 18.5
t-20 43.5q0 26 20 46t45 20t44.5 -20t19.5 -46q0 -25 -19.5 -43.5t-44.5 -18.5z" />
    <glyph glyph-name="uni1E65" unicode="&#x1e65;" horiz-adv-x="480" 
d="M251 -22q-48 0 -72.5 12t-36.5 23.5t-23 11.5q-10 0 -14 -7t-4 -18h-46v267h55q4 -68 12.5 -112.5t24 -70t40 -36t60.5 -10.5q42 0 66.5 27t35 66t10.5 75q0 59 -12.5 110.5t-43 104t-85.5 113.5q-60 69 -104.5 141.5t-44.5 177.5q0 64 23 108.5t60 68t79 23.5
q37 0 59 -7.5t34.5 -15.5t20.5 -8t10.5 6.5t3.5 18.5h48v-258h-54q-4 68 -12.5 108.5t-23.5 61t-35.5 27.5t-48.5 7q-48 0 -76 -36t-28 -100q0 -75 32 -135t99 -139q59 -70 95.5 -129.5t53 -115t16.5 -114.5q0 -64 -19.5 -120t-58 -91t-96.5 -35zM128 1075l-24 27l166 129
q14 12 30 20t30 8q10 0 18.5 -4.5t13.5 -14.5q4 -7 4 -16q0 -19 -19.5 -35t-42.5 -27zM240 1336q-25 0 -45 18.5t-20 43.5q0 26 20 46t45 20t44.5 -20t19.5 -46q0 -25 -19.5 -43.5t-44.5 -18.5z" />
    <glyph glyph-name="uni1E67" unicode="&#x1e67;" horiz-adv-x="480" 
d="M251 -22q-48 0 -72.5 12t-36.5 23.5t-23 11.5q-10 0 -14 -7t-4 -18h-46v267h55q4 -68 12.5 -112.5t24 -70t40 -36t60.5 -10.5q42 0 66.5 27t35 66t10.5 75q0 59 -12.5 110.5t-43 104t-85.5 113.5q-60 69 -104.5 141.5t-44.5 177.5q0 64 23 108.5t60 68t79 23.5
q37 0 59 -7.5t34.5 -15.5t20.5 -8t10.5 6.5t3.5 18.5h48v-258h-54q-4 68 -12.5 108.5t-23.5 61t-35.5 27.5t-48.5 7q-48 0 -76 -36t-28 -100q0 -75 32 -135t99 -139q59 -70 95.5 -129.5t53 -115t16.5 -114.5q0 -64 -19.5 -120t-58 -91t-96.5 -35zM205 1101l-147 209h60
l122 -142l122 142h60l-146 -209h-71zM240 1367q-25 0 -45 18.5t-20 43.5q0 26 20 46t45 20t44.5 -20t19.5 -46q0 -25 -19.5 -43.5t-44.5 -18.5z" />
    <glyph glyph-name="uni1E69" unicode="&#x1e69;" horiz-adv-x="480" 
d="M251 -22q-48 0 -72.5 12t-36.5 23.5t-23 11.5q-10 0 -14 -7t-4 -18h-46v267h55q4 -68 12.5 -112.5t24 -70t40 -36t60.5 -10.5q42 0 66.5 27t35 66t10.5 75q0 59 -12.5 110.5t-43 104t-85.5 113.5q-60 69 -104.5 141.5t-44.5 177.5q0 64 23 108.5t60 68t79 23.5
q37 0 59 -7.5t34.5 -15.5t20.5 -8t10.5 6.5t3.5 18.5h48v-258h-54q-4 68 -12.5 108.5t-23.5 61t-35.5 27.5t-48.5 7q-48 0 -76 -36t-28 -100q0 -75 32 -135t99 -139q59 -70 95.5 -129.5t53 -115t16.5 -114.5q0 -64 -19.5 -120t-58 -91t-96.5 -35zM240 -250q-25 0 -45 18.5
t-20 43.5q0 26 20 46t45 20t44.5 -20t19.5 -46q0 -25 -19.5 -43.5t-44.5 -18.5zM240 1125q-25 0 -45 18.5t-20 43.5q0 26 20 46t45 20t44.5 -20t19.5 -46q0 -25 -19.5 -43.5t-44.5 -18.5z" />
    <glyph glyph-name="uni1E6D" unicode="&#x1e6d;" horiz-adv-x="356" 
d="M222 -18q-24 0 -47.5 9.5t-39 36.5t-15.5 81v878h-113v60h113v89v97.5v86.5h60v-273h135v-60h-135v-878q0 -43 15.5 -56t31.5 -13q21 0 34 9.5t21 19.5l36 -47q-13 -15 -39.5 -27.5t-56.5 -12.5zM233 -246q-25 0 -45 18.5t-20 43.5q0 26 20 46t45 20t44.5 -20t19.5 -46
q0 -25 -19.5 -43.5t-44.5 -18.5z" />
    <glyph glyph-name="uni1E6F" unicode="&#x1e6f;" horiz-adv-x="356" 
d="M52 -178v60h263v-60h-263zM222 -18q-24 0 -47.5 9.5t-39 36.5t-15.5 81v878h-113v60h113v89v97.5v86.5h60v-273h135v-60h-135v-878q0 -43 15.5 -56t31.5 -13q21 0 34 9.5t21 19.5l36 -47q-13 -15 -39.5 -27.5t-56.5 -12.5z" />
    <glyph glyph-name="uni1E79" unicode="&#x1e79;" horiz-adv-x="618" 
d="M291 -22q-43 0 -82 20.5t-63 78.5t-24 170v740h-104v59h164v-795q0 -87 16.5 -132t42.5 -61t54 -16q48 0 81 48t49.5 120t16.5 145v632h-106v59h166v-986h94v-60h-149v135q-4 -32 -22 -68.5t-51 -62.5t-83 -26zM396 1121q-38 0 -64 18.5t-48.5 37t-49.5 18.5
q-29 0 -44 -22t-20 -36l-56 33q5 19 19.5 41.5t38.5 39.5t57 17q38 0 66 -19t52.5 -38t50.5 -19q23 0 36 17t20 30l54 -39q-5 -17 -19.5 -35.5t-37.5 -31t-55 -12.5zM199 1297l-24 27l166 129q14 12 30 20t30 8q10 0 18.5 -4.5t13.5 -14.5q4 -7 4 -16q0 -19 -19.5 -35
t-42.5 -27z" />
    <glyph glyph-name="uni1E7B" unicode="&#x1e7b;" horiz-adv-x="618" 
d="M291 -22q-43 0 -82 20.5t-63 78.5t-24 170v740h-104v59h164v-795q0 -87 16.5 -132t42.5 -61t54 -16q48 0 81 48t49.5 120t16.5 145v632h-106v59h166v-986h94v-60h-149v135q-4 -32 -22 -68.5t-51 -62.5t-83 -26zM49 1129v60h524v-60h-524zM418 1261q-26 0 -45 18.5
t-19 43.5q0 27 19 47t45 20q25 0 44 -20t19 -47q0 -25 -19 -43.5t-44 -18.5zM203 1261q-24 0 -43.5 18.5t-19.5 43.5q0 27 19.5 47t43.5 20q26 0 46 -20t20 -47q0 -25 -20 -43.5t-46 -18.5z" />
    <glyph glyph-name="Wgrave" unicode="&#x1e80;" horiz-adv-x="976" 
d="M275 -4l-140 1344h-106v60h269v-60h-100l127 -1267h-9l155 1269l16 -131l-20 129h-107v60h275v-60h-104l165 -1267h-7l122 1267h-84v60h240v-60h-89l-145 -1344h-86l-154 1197l22 20l-155 -1217h-85zM611 1446l-194 89q-23 11 -36 21t-13 32q0 20 12.5 29.5t31.5 9.5
q18 0 31 -6.5t26 -17.5l162 -132z" />
    <glyph glyph-name="wgrave" unicode="&#x1e81;" horiz-adv-x="887" 
d="M575 -7l-133 994h-97v60h226v-60h-69l118 -912l107 912h-76v60h218v-60h-80l-120 -994h-94zM222 -7l-122 994h-80v60h220v-60h-78l107 -912l118 912h-69v60h222v-60h-93l-131 -994h-94zM545 1102l-194 89q-23 11 -36 21t-13 32q0 20 12.5 29.5t31.5 9.5q18 0 31 -6.5
t26 -17.5l162 -132z" />
    <glyph glyph-name="Wacute" unicode="&#x1e82;" horiz-adv-x="976" 
d="M275 -4l-140 1344h-106v60h269v-60h-100l127 -1267h-9l155 1269l16 -131l-20 129h-107v60h275v-60h-104l165 -1267h-7l122 1267h-84v60h240v-60h-89l-145 -1344h-86l-154 1197l22 20l-155 -1217h-85zM383 1446l-24 27l165 129q14 11 30.5 19.5t30.5 8.5q10 0 18.5 -4.5
t13.5 -14.5q4 -7 4 -16q0 -19 -19.5 -35t-42.5 -27z" />
    <glyph glyph-name="wacute" unicode="&#x1e83;" horiz-adv-x="887" 
d="M575 -7l-133 994h-97v60h226v-60h-69l118 -912l107 912h-76v60h218v-60h-80l-120 -994h-94zM222 -7l-122 994h-80v60h220v-60h-78l107 -912l118 912h-69v60h222v-60h-93l-131 -994h-94zM317 1075l-24 27l166 129q14 12 30 20t30 8q10 0 18.5 -4.5t13.5 -14.5q4 -7 4 -16
q0 -19 -19.5 -35t-42.5 -27z" />
    <glyph glyph-name="Wdieresis" unicode="&#x1e84;" horiz-adv-x="976" 
d="M275 -4l-140 1344h-106v60h269v-60h-100l127 -1267h-9l155 1269l16 -131l-20 129h-107v60h275v-60h-104l165 -1267h-7l122 1267h-84v60h240v-60h-89l-145 -1344h-86l-154 1197l22 20l-155 -1217h-85zM602 1498q-26 0 -45 18.5t-19 43.5q0 27 19 47t45 20q25 0 44 -20
t19 -47q0 -25 -19 -43.5t-44 -18.5zM387 1498q-24 0 -43.5 18.5t-19.5 43.5q0 27 19.5 47t43.5 20q26 0 46 -20t20 -47q0 -25 -20 -43.5t-46 -18.5z" />
    <glyph glyph-name="wdieresis" unicode="&#x1e85;" horiz-adv-x="887" 
d="M575 -7l-133 994h-97v60h226v-60h-69l118 -912l107 912h-76v60h218v-60h-80l-120 -994h-94zM222 -7l-122 994h-80v60h220v-60h-78l107 -912l118 912h-69v60h222v-60h-93l-131 -994h-94zM536 1121q-26 0 -45 18.5t-19 43.5q0 27 19 47t45 20q25 0 44 -20t19 -47
q0 -25 -19 -43.5t-44 -18.5zM321 1121q-24 0 -43.5 18.5t-19.5 43.5q0 27 19.5 47t43.5 20q26 0 46 -20t20 -47q0 -25 -20 -43.5t-46 -18.5z" />
    <glyph glyph-name="uni1E8F" unicode="&#x1e8f;" horiz-adv-x="571" 
d="M155 -502q-34 0 -53.5 27t-28 74t-8.5 108q0 30 8.5 47t26.5 17q20 0 27.5 -15.5t7.5 -37.5q0 -16 -3 -28t-6.5 -24.5t-3.5 -32.5q0 -28 7 -57t26 -29q13 0 21 15.5t14.5 44t13.5 66.5l67 356l-162 958h-82v60h218v-60h-72l127 -755l125 755h-74v60h222v-60h-82
l-169 -994l-64 -337q-10 -54 -23.5 -89t-32.5 -52t-47 -17zM296 1125q-25 0 -45 18.5t-20 43.5q0 26 20 46t45 20t44.5 -20t19.5 -46q0 -25 -19.5 -43.5t-44.5 -18.5z" />
    <glyph glyph-name="uni1E93" unicode="&#x1e93;" horiz-adv-x="467" 
d="M71 0v60l256 927h-102q-43 0 -62 -12t-23 -54t-4 -132h-58v258h309v-60l-256 -927h91q53 0 75 13.5t27 58t5 135.5h60v-267h-318zM235 -250q-25 0 -45 18.5t-20 43.5q0 26 20 46t45 20t44.5 -20t19.5 -46q0 -25 -19.5 -43.5t-44.5 -18.5z" />
    <glyph glyph-name="uni1E97" unicode="&#x1e97;" horiz-adv-x="356" 
d="M222 -18q-24 0 -47.5 9.5t-39 36.5t-15.5 81v878h-113v60h113v89v97.5v86.5h60v-273h135v-60h-135v-878q0 -43 15.5 -56t31.5 -13q21 0 34 9.5t21 19.5l36 -47q-13 -15 -39.5 -27.5t-56.5 -12.5zM274 1394q-26 0 -45 18.5t-19 43.5q0 27 19 47t45 20q25 0 44 -20t19 -47
q0 -25 -19 -43.5t-44 -18.5zM59 1394q-24 0 -43.5 18.5t-19.5 43.5q0 27 19.5 47t43.5 20q26 0 46 -20t20 -47q0 -25 -20 -43.5t-46 -18.5z" />
    <glyph glyph-name="uni1E9E" unicode="&#x1e9e;" horiz-adv-x="746" 
d="M464 -24q-54 0 -81 36.5t-27 107.5q0 36 15 49t31 13q17 0 30 -11t13 -38q0 -16 -4 -26.5t-8.5 -18.5t-4.5 -18q0 -12 7.5 -24.5t29.5 -12.5q43 0 76.5 30.5t52.5 91.5t19 152q0 80 -28 153.5t-69.5 138t-83 120t-69.5 100.5t-28 78q0 21 20 62t53 94t72.5 110t79.5 111
t72 97h-250q-59 0 -93.5 -21.5t-49.5 -73t-15 -142.5v-1134h-164v61h105v1062q0 128 24.5 192.5t74 86.5t123.5 22h275l36 -53q-43 -58 -95.5 -130.5t-99.5 -142.5t-77.5 -122.5t-30.5 -72.5t28 -60.5t69 -96.5t82 -125t69 -147.5t28 -162.5q0 -103 -26.5 -178.5t-73 -116
t-107.5 -40.5z" />
    <glyph glyph-name="uni1EA0" unicode="&#x1ea0;" horiz-adv-x="638" 
d="M15 0v60h78l182 1344h80l174 -1344h98v-60h-254v60h92l-150 1215h-2l-157 -1215h80v-60h-221zM173 358v58h274v-58h-274zM318 -250q-25 0 -45 18.5t-20 43.5q0 26 20 46t45 20t44.5 -20t19.5 -46q0 -25 -19.5 -43.5t-44.5 -18.5z" />
    <glyph glyph-name="uni1EA1" unicode="&#x1ea1;" horiz-adv-x="550" 
d="M242 -20q-55 0 -96 28t-63.5 85t-22.5 143q0 90 32 150t79.5 102.5t95 78t79.5 73.5t32 91q0 78 -11 136.5t-37.5 91t-73.5 32.5q-52 0 -86 -39t-34 -87q0 -19 3 -28.5t5.5 -18t2.5 -24.5q0 -23 -9 -39.5t-29 -16.5q-19 0 -27.5 17t-8.5 47q0 71 22.5 128t63.5 90t97 33
t96.5 -29.5t63 -94.5t22.5 -173v-645q0 -35 9.5 -47.5t27.5 -12.5q14 0 23 4.5t13 9.5l29 -54q-10 -9 -29 -14.5t-42 -5.5q-20 0 -39 9t-31 28.5t-12 51.5q-7 -21 -23.5 -44.5t-46 -39.5t-75.5 -16zM242 42q46 0 76 34.5t45 79t15 73.5v373q-2 -28 -40 -57t-86.5 -67.5
t-85.5 -96.5t-37 -145q0 -95 28.5 -144.5t84.5 -49.5zM295 -250q-25 0 -45 18.5t-20 43.5q0 26 20 46t45 20t44.5 -20t19.5 -46q0 -25 -19.5 -43.5t-44.5 -18.5z" />
    <glyph glyph-name="uni1EA2" unicode="&#x1ea2;" horiz-adv-x="638" 
d="M15 0v60h78l182 1344h80l174 -1344h98v-60h-254v60h92l-150 1215h-2l-157 -1215h80v-60h-221zM173 358v58h274v-58h-274zM310 1738q53 0 92.5 -25.5t39.5 -77.5q0 -44 -25 -73t-50.5 -50.5t-25.5 -45.5h-56q0 39 22.5 63t44.5 46t22 55q0 34 -22.5 44t-58.5 10
q-24 0 -47.5 -8t-37.5 -20l-39 41q18 20 59.5 30.5t81.5 10.5z" />
    <glyph glyph-name="uni1EA3" unicode="&#x1ea3;" horiz-adv-x="550" 
d="M242 -20q-55 0 -96 28t-63.5 85t-22.5 143q0 90 32 150t79.5 102.5t95 78t79.5 73.5t32 91q0 78 -11 136.5t-37.5 91t-73.5 32.5q-52 0 -86 -39t-34 -87q0 -19 3 -28.5t5.5 -18t2.5 -24.5q0 -23 -9 -39.5t-29 -16.5q-19 0 -27.5 17t-8.5 47q0 71 22.5 128t63.5 90t97 33
t96.5 -29.5t63 -94.5t22.5 -173v-645q0 -35 9.5 -47.5t27.5 -12.5q14 0 23 4.5t13 9.5l29 -54q-10 -9 -29 -14.5t-42 -5.5q-20 0 -39 9t-31 28.5t-12 51.5q-7 -21 -23.5 -44.5t-46 -39.5t-75.5 -16zM242 42q46 0 76 34.5t45 79t15 73.5v373q-2 -28 -40 -57t-86.5 -67.5
t-85.5 -96.5t-37 -145q0 -95 28.5 -144.5t84.5 -49.5zM255 1409q53 0 92.5 -25.5t39.5 -77.5q0 -44 -25 -73t-50.5 -50.5t-25.5 -45.5h-56q0 39 22.5 63t44.5 46t22 55q0 34 -22.5 44t-58.5 10q-24 0 -47.5 -8t-37.5 -20l-39 41q18 20 59.5 30.5t81.5 10.5z" />
    <glyph glyph-name="uni1EA4" unicode="&#x1ea4;" horiz-adv-x="638" 
d="M15 0v60h78l182 1344h80l174 -1344h98v-60h-254v60h92l-150 1215h-2l-157 -1215h80v-60h-221zM173 358v58h274v-58h-274zM133 1461l147 169h71l146 -169h-60l-122 103l-122 -103h-60zM442 1617l-20 23l140 110q28 23 52 23q8 0 15.5 -4t11.5 -12q4 -5 4 -14
q0 -16 -17 -29.5t-36 -22.5z" />
    <glyph glyph-name="uni1EA5" unicode="&#x1ea5;" horiz-adv-x="550" 
d="M242 -20q-55 0 -96 28t-63.5 85t-22.5 143q0 90 32 150t79.5 102.5t95 78t79.5 73.5t32 91q0 78 -11 136.5t-37.5 91t-73.5 32.5q-52 0 -86 -39t-34 -87q0 -19 3 -28.5t5.5 -18t2.5 -24.5q0 -23 -9 -39.5t-29 -16.5q-19 0 -27.5 17t-8.5 47q0 71 22.5 128t63.5 90t97 33
t96.5 -29.5t63 -94.5t22.5 -173v-645q0 -35 9.5 -47.5t27.5 -12.5q14 0 23 4.5t13 9.5l29 -54q-10 -9 -29 -14.5t-42 -5.5q-20 0 -39 9t-31 28.5t-12 51.5q-7 -21 -23.5 -44.5t-46 -39.5t-75.5 -16zM242 42q46 0 76 34.5t45 79t15 73.5v373q-2 -28 -40 -57t-86.5 -67.5
t-85.5 -96.5t-37 -145q0 -95 28.5 -144.5t84.5 -49.5zM78 1108l147 209h71l146 -209h-60l-122 143l-122 -143h-60zM387 1304l-20 23l140 110q28 23 52 23q8 0 15.5 -4t11.5 -12q4 -5 4 -14q0 -16 -17 -29.5t-36 -22.5z" />
    <glyph glyph-name="uni1EA6" unicode="&#x1ea6;" horiz-adv-x="638" 
d="M15 0v60h78l182 1344h80l174 -1344h98v-60h-254v60h92l-150 1215h-2l-157 -1215h80v-60h-221zM173 358v58h274v-58h-274zM133 1461l147 169h71l146 -169h-60l-122 103l-122 -103h-60zM516 1607l-167 76q-19 9 -30.5 18t-11.5 28q0 17 11 25.5t27 8.5t27.5 -5.5
t22.5 -15.5l138 -113z" />
    <glyph glyph-name="uni1EA7" unicode="&#x1ea7;" horiz-adv-x="550" 
d="M242 -20q-55 0 -96 28t-63.5 85t-22.5 143q0 90 32 150t79.5 102.5t95 78t79.5 73.5t32 91q0 78 -11 136.5t-37.5 91t-73.5 32.5q-52 0 -86 -39t-34 -87q0 -19 3 -28.5t5.5 -18t2.5 -24.5q0 -23 -9 -39.5t-29 -16.5q-19 0 -27.5 17t-8.5 47q0 71 22.5 128t63.5 90t97 33
t96.5 -29.5t63 -94.5t22.5 -173v-645q0 -35 9.5 -47.5t27.5 -12.5q14 0 23 4.5t13 9.5l29 -54q-10 -9 -29 -14.5t-42 -5.5q-20 0 -39 9t-31 28.5t-12 51.5q-7 -21 -23.5 -44.5t-46 -39.5t-75.5 -16zM242 42q46 0 76 34.5t45 79t15 73.5v373q-2 -28 -40 -57t-86.5 -67.5
t-85.5 -96.5t-37 -145q0 -95 28.5 -144.5t84.5 -49.5zM78 1108l147 209h71l146 -209h-60l-122 143l-122 -143h-60zM461 1294l-167 76q-19 9 -30.5 18t-11.5 28q0 17 11 25.5t27 8.5t27.5 -5.5t22.5 -15.5l138 -113z" />
    <glyph glyph-name="uni1EA8" unicode="&#x1ea8;" horiz-adv-x="638" 
d="M15 0v60h78l182 1344h80l174 -1344h98v-60h-254v60h92l-150 1215h-2l-157 -1215h80v-60h-221zM173 358v58h274v-58h-274zM131 1462l147 169h71l146 -169h-60l-122 103l-122 -103h-60zM462 1802q42 0 73.5 -20.5t31.5 -61.5q0 -35 -20 -58t-40.5 -40t-20.5 -37h-44
q0 31 18 50t35.5 37t17.5 44t-18 34.5t-47 8.5q-19 0 -37.5 -6.5t-29.5 -16.5l-31 33q14 16 47.5 24.5t64.5 8.5z" />
    <glyph glyph-name="uni1EA9" unicode="&#x1ea9;" horiz-adv-x="550" 
d="M242 -20q-55 0 -96 28t-63.5 85t-22.5 143q0 90 32 150t79.5 102.5t95 78t79.5 73.5t32 91q0 78 -11 136.5t-37.5 91t-73.5 32.5q-52 0 -86 -39t-34 -87q0 -19 3 -28.5t5.5 -18t2.5 -24.5q0 -23 -9 -39.5t-29 -16.5q-19 0 -27.5 17t-8.5 47q0 71 22.5 128t63.5 90t97 33
t96.5 -29.5t63 -94.5t22.5 -173v-645q0 -35 9.5 -47.5t27.5 -12.5q14 0 23 4.5t13 9.5l29 -54q-10 -9 -29 -14.5t-42 -5.5q-20 0 -39 9t-31 28.5t-12 51.5q-7 -21 -23.5 -44.5t-46 -39.5t-75.5 -16zM242 42q46 0 76 34.5t45 79t15 73.5v373q-2 -28 -40 -57t-86.5 -67.5
t-85.5 -96.5t-37 -145q0 -95 28.5 -144.5t84.5 -49.5zM76 1109l147 209h71l146 -209h-60l-122 143l-122 -143h-60zM407 1489q42 0 73.5 -20.5t31.5 -61.5q0 -35 -20 -58t-40.5 -40t-20.5 -37h-44q0 31 18 50t35.5 37t17.5 44t-18 34.5t-47 8.5q-19 0 -37.5 -6.5t-29.5 -16.5
l-31 33q14 16 47.5 24.5t64.5 8.5z" />
    <glyph glyph-name="uni1EAA" unicode="&#x1eaa;" horiz-adv-x="638" 
d="M15 0v60h78l182 1344h80l174 -1344h98v-60h-254v60h92l-150 1215h-2l-157 -1215h80v-60h-221zM173 358v58h274v-58h-274zM133 1462l147 169h71l146 -169h-60l-122 103l-122 -103h-60zM400 1671q-38 0 -66.5 18.5t-53.5 37t-52 18.5q-29 0 -47 -22t-23 -36l-50 27
q5 19 22 43t43.5 42.5t59.5 18.5q38 0 66.5 -19t54 -38t52.5 -19q29 0 43.5 17t21.5 30l51 -29q-5 -17 -22 -38t-42.5 -36t-57.5 -15z" />
    <glyph glyph-name="uni1EAB" unicode="&#x1eab;" horiz-adv-x="550" 
d="M242 -20q-55 0 -96 28t-63.5 85t-22.5 143q0 90 32 150t79.5 102.5t95 78t79.5 73.5t32 91q0 78 -11 136.5t-37.5 91t-73.5 32.5q-52 0 -86 -39t-34 -87q0 -19 3 -28.5t5.5 -18t2.5 -24.5q0 -23 -9 -39.5t-29 -16.5q-19 0 -27.5 17t-8.5 47q0 71 22.5 128t63.5 90t97 33
t96.5 -29.5t63 -94.5t22.5 -173v-645q0 -35 9.5 -47.5t27.5 -12.5q14 0 23 4.5t13 9.5l29 -54q-10 -9 -29 -14.5t-42 -5.5q-20 0 -39 9t-31 28.5t-12 51.5q-7 -21 -23.5 -44.5t-46 -39.5t-75.5 -16zM242 42q46 0 76 34.5t45 79t15 73.5v373q-2 -28 -40 -57t-86.5 -67.5
t-85.5 -96.5t-37 -145q0 -95 28.5 -144.5t84.5 -49.5zM78 1109l147 209h71l146 -209h-60l-122 143l-122 -143h-60zM345 1358q-38 0 -66.5 18.5t-53.5 37t-52 18.5q-29 0 -47 -22t-23 -36l-50 27q5 19 22 43t43.5 42.5t59.5 18.5q38 0 66.5 -19t54 -38t52.5 -19q29 0 43.5 17
t21.5 30l51 -29q-5 -17 -22 -38t-42.5 -36t-57.5 -15z" />
    <glyph glyph-name="uni1EAC" unicode="&#x1eac;" horiz-adv-x="638" 
d="M15 0v60h78l182 1344h80l174 -1344h98v-60h-254v60h92l-150 1215h-2l-157 -1215h80v-60h-221zM173 358v58h274v-58h-274zM318 -250q-25 0 -45 18.5t-20 43.5q0 26 20 46t45 20t44.5 -20t19.5 -46q0 -25 -19.5 -43.5t-44.5 -18.5zM133 1456l147 209h71l146 -209h-60
l-122 143l-122 -143h-60z" />
    <glyph glyph-name="uni1EAD" unicode="&#x1ead;" horiz-adv-x="550" 
d="M242 -20q-55 0 -96 28t-63.5 85t-22.5 143q0 90 32 150t79.5 102.5t95 78t79.5 73.5t32 91q0 78 -11 136.5t-37.5 91t-73.5 32.5q-52 0 -86 -39t-34 -87q0 -19 3 -28.5t5.5 -18t2.5 -24.5q0 -23 -9 -39.5t-29 -16.5q-19 0 -27.5 17t-8.5 47q0 71 22.5 128t63.5 90t97 33
t96.5 -29.5t63 -94.5t22.5 -173v-645q0 -35 9.5 -47.5t27.5 -12.5q14 0 23 4.5t13 9.5l29 -54q-10 -9 -29 -14.5t-42 -5.5q-20 0 -39 9t-31 28.5t-12 51.5q-7 -21 -23.5 -44.5t-46 -39.5t-75.5 -16zM242 42q46 0 76 34.5t45 79t15 73.5v373q-2 -28 -40 -57t-86.5 -67.5
t-85.5 -96.5t-37 -145q0 -95 28.5 -144.5t84.5 -49.5zM295 -250q-25 0 -45 18.5t-20 43.5q0 26 20 46t45 20t44.5 -20t19.5 -46q0 -25 -19.5 -43.5t-44.5 -18.5zM78 1117l147 209h71l146 -209h-60l-122 143l-122 -143h-60z" />
    <glyph glyph-name="uni1EAE" unicode="&#x1eae;" horiz-adv-x="638" 
d="M15 0v60h78l182 1344h80l174 -1344h98v-60h-254v60h92l-150 1215h-2l-157 -1215h80v-60h-221zM173 358v58h274v-58h-274zM313 1495q-56 0 -91 23.5t-51 64.5t-16 92h56q4 -58 29 -89t73 -31q49 0 74 31t29 89h57q0 -51 -16 -92t-51.5 -64.5t-92.5 -23.5zM203 1722l-24 27
l165 129q14 11 30.5 19.5t30.5 8.5q10 0 18.5 -4.5t13.5 -14.5q4 -7 4 -16q0 -19 -19.5 -35t-42.5 -27z" />
    <glyph glyph-name="uni1EAF" unicode="&#x1eaf;" horiz-adv-x="550" 
d="M242 -20q-55 0 -96 28t-63.5 85t-22.5 143q0 90 32 150t79.5 102.5t95 78t79.5 73.5t32 91q0 78 -11 136.5t-37.5 91t-73.5 32.5q-52 0 -86 -39t-34 -87q0 -19 3 -28.5t5.5 -18t2.5 -24.5q0 -23 -9 -39.5t-29 -16.5q-19 0 -27.5 17t-8.5 47q0 71 22.5 128t63.5 90t97 33
t96.5 -29.5t63 -94.5t22.5 -173v-645q0 -35 9.5 -47.5t27.5 -12.5q14 0 23 4.5t13 9.5l29 -54q-10 -9 -29 -14.5t-42 -5.5q-20 0 -39 9t-31 28.5t-12 51.5q-7 -21 -23.5 -44.5t-46 -39.5t-75.5 -16zM242 42q46 0 76 34.5t45 79t15 73.5v373q-2 -28 -40 -57t-86.5 -67.5
t-85.5 -96.5t-37 -145q0 -95 28.5 -144.5t84.5 -49.5zM258 1105q-56 0 -91 23.5t-51 64.5t-16 92h56q4 -58 29 -89t73 -31q49 0 74 31t29 89h57q0 -51 -16 -92t-51.5 -64.5t-92.5 -23.5zM155 1314l-24 27l166 130q14 11 30 19t30 8q10 0 18.5 -4.5t13.5 -14.5q4 -7 4 -16
q0 -19 -19.5 -35t-42.5 -27z" />
    <glyph glyph-name="uni1EB0" unicode="&#x1eb0;" horiz-adv-x="638" 
d="M15 0v60h78l182 1344h80l174 -1344h98v-60h-254v60h92l-150 1215h-2l-157 -1215h80v-60h-221zM173 358v58h274v-58h-274zM313 1495q-56 0 -91 23.5t-51 64.5t-16 92h56q4 -58 29 -89t73 -31q49 0 74 31t29 89h57q0 -51 -16 -92t-51.5 -64.5t-92.5 -23.5zM431 1722
l-194 89q-23 11 -36 21t-13 32q0 20 12.5 29.5t31.5 9.5q18 0 31 -6.5t26 -17.5l162 -132z" />
    <glyph glyph-name="uni1EB1" unicode="&#x1eb1;" horiz-adv-x="550" 
d="M242 -20q-55 0 -96 28t-63.5 85t-22.5 143q0 90 32 150t79.5 102.5t95 78t79.5 73.5t32 91q0 78 -11 136.5t-37.5 91t-73.5 32.5q-52 0 -86 -39t-34 -87q0 -19 3 -28.5t5.5 -18t2.5 -24.5q0 -23 -9 -39.5t-29 -16.5q-19 0 -27.5 17t-8.5 47q0 71 22.5 128t63.5 90t97 33
t96.5 -29.5t63 -94.5t22.5 -173v-645q0 -35 9.5 -47.5t27.5 -12.5q14 0 23 4.5t13 9.5l29 -54q-10 -9 -29 -14.5t-42 -5.5q-20 0 -39 9t-31 28.5t-12 51.5q-7 -21 -23.5 -44.5t-46 -39.5t-75.5 -16zM242 42q46 0 76 34.5t45 79t15 73.5v373q-2 -28 -40 -57t-86.5 -67.5
t-85.5 -96.5t-37 -145q0 -95 28.5 -144.5t84.5 -49.5zM258 1125q-56 0 -91 23.5t-51 64.5t-16 92h56q4 -58 29 -89t73 -31q49 0 74 31t29 89h57q0 -51 -16 -92t-51.5 -64.5t-92.5 -23.5zM372 1334l-194 89q-23 11 -36 21t-13 32q0 20 12.5 29.5t31.5 9.5q18 0 31 -6.5
t26 -17.5l162 -132z" />
    <glyph glyph-name="uni1EB2" unicode="&#x1eb2;" horiz-adv-x="638" 
d="M15 0v60h78l182 1344h80l174 -1344h98v-60h-254v60h92l-150 1215h-2l-157 -1215h80v-60h-221zM173 358v58h274v-58h-274zM313 1495q-56 0 -91 23.5t-51 64.5t-16 92h56q4 -58 29 -89t73 -31q49 0 74 31t29 89h57q0 -51 -16 -92t-51.5 -64.5t-92.5 -23.5zM310 2014
q53 0 92.5 -25.5t39.5 -77.5q0 -44 -25 -73t-50.5 -50.5t-25.5 -45.5h-56q0 39 22.5 63t44.5 46t22 55q0 34 -22.5 44t-58.5 10q-24 0 -47.5 -8t-37.5 -20l-39 41q18 20 59.5 30.5t81.5 10.5z" />
    <glyph glyph-name="uni1EB3" unicode="&#x1eb3;" horiz-adv-x="550" 
d="M242 -20q-55 0 -96 28t-63.5 85t-22.5 143q0 90 32 150t79.5 102.5t95 78t79.5 73.5t32 91q0 78 -11 136.5t-37.5 91t-73.5 32.5q-52 0 -86 -39t-34 -87q0 -19 3 -28.5t5.5 -18t2.5 -24.5q0 -23 -9 -39.5t-29 -16.5q-19 0 -27.5 17t-8.5 47q0 71 22.5 128t63.5 90t97 33
t96.5 -29.5t63 -94.5t22.5 -173v-645q0 -35 9.5 -47.5t27.5 -12.5q14 0 23 4.5t13 9.5l29 -54q-10 -9 -29 -14.5t-42 -5.5q-20 0 -39 9t-31 28.5t-12 51.5q-7 -21 -23.5 -44.5t-46 -39.5t-75.5 -16zM242 42q46 0 76 34.5t45 79t15 73.5v373q-2 -28 -40 -57t-86.5 -67.5
t-85.5 -96.5t-37 -145q0 -95 28.5 -144.5t84.5 -49.5zM259 1126q-56 0 -91 23.5t-51 64.5t-16 92h56q4 -58 29 -89t73 -31q49 0 74 31t29 89h57q0 -51 -16 -92t-51.5 -64.5t-92.5 -23.5zM258 1551q53 0 92.5 -25.5t39.5 -77.5q0 -44 -25 -73t-50.5 -50.5t-25.5 -45.5h-56
q0 39 22.5 63t44.5 46t22 55q0 34 -22.5 44t-58.5 10q-24 0 -47.5 -8t-37.5 -20l-39 41q18 20 59.5 30.5t81.5 10.5z" />
    <glyph glyph-name="uni1EB4" unicode="&#x1eb4;" horiz-adv-x="638" 
d="M15 0v60h78l182 1344h80l174 -1344h98v-60h-254v60h92l-150 1215h-2l-157 -1215h80v-60h-221zM173 358v58h274v-58h-274zM313 1495q-56 0 -91 23.5t-51 64.5t-16 92h56q4 -58 29 -89t73 -31q49 0 74 31t29 89h57q0 -51 -16 -92t-51.5 -64.5t-92.5 -23.5zM400 1746
q-38 0 -64 18.5t-48.5 37t-49.5 18.5q-29 0 -44 -22t-20 -36l-56 33q5 19 19.5 41.5t38.5 39.5t57 17q38 0 66 -19t52.5 -38t50.5 -19q23 0 36 17t20 30l54 -39q-5 -17 -19.5 -35.5t-37.5 -31t-55 -12.5z" />
    <glyph glyph-name="uni1EB5" unicode="&#x1eb5;" horiz-adv-x="550" 
d="M242 -20q-55 0 -96 28t-63.5 85t-22.5 143q0 90 32 150t79.5 102.5t95 78t79.5 73.5t32 91q0 78 -11 136.5t-37.5 91t-73.5 32.5q-52 0 -86 -39t-34 -87q0 -19 3 -28.5t5.5 -18t2.5 -24.5q0 -23 -9 -39.5t-29 -16.5q-19 0 -27.5 17t-8.5 47q0 71 22.5 128t63.5 90t97 33
t96.5 -29.5t63 -94.5t22.5 -173v-645q0 -35 9.5 -47.5t27.5 -12.5q14 0 23 4.5t13 9.5l29 -54q-10 -9 -29 -14.5t-42 -5.5q-20 0 -39 9t-31 28.5t-12 51.5q-7 -21 -23.5 -44.5t-46 -39.5t-75.5 -16zM242 42q46 0 76 34.5t45 79t15 73.5v373q-2 -28 -40 -57t-86.5 -67.5
t-85.5 -96.5t-37 -145q0 -95 28.5 -144.5t84.5 -49.5zM258 1125q-56 0 -91 23.5t-51 64.5t-16 92h56q4 -58 29 -89t73 -31q49 0 74 31t29 89h57q0 -51 -16 -92t-51.5 -64.5t-92.5 -23.5zM345 1350q-38 0 -66.5 18.5t-53.5 37t-52 18.5q-29 0 -47 -22t-23 -36l-50 27
q5 19 22 43t43.5 42.5t59.5 18.5q38 0 66.5 -19t54 -38t52.5 -19q29 0 43.5 17t21.5 30l51 -29q-5 -17 -22 -38t-42.5 -36t-57.5 -15z" />
    <glyph glyph-name="uni1EB6" unicode="&#x1eb6;" horiz-adv-x="638" 
d="M15 0v60h78l182 1344h80l174 -1344h98v-60h-254v60h92l-150 1215h-2l-157 -1215h80v-60h-221zM173 358v58h274v-58h-274zM318 -250q-25 0 -45 18.5t-20 43.5q0 26 20 46t45 20t44.5 -20t19.5 -46q0 -25 -19.5 -43.5t-44.5 -18.5zM313 1495q-56 0 -91 23.5t-51 64.5
t-16 92h56q4 -58 29 -89t73 -31q49 0 74 31t29 89h57q0 -51 -16 -92t-51.5 -64.5t-92.5 -23.5z" />
    </font>
</defs>
</svg>
