<?xml version="1.0" standalone="no"?>
<!DOCTYPE svg PUBLIC "-//W3C//DTD SVG 1.1//EN" "http://www.w3.org/Graphics/SVG/1.1/DTD/svg11.dtd" >
<svg xmlns="http://www.w3.org/2000/svg" xmlns:xlink="http://www.w3.org/1999/xlink" version="1.1">
<metadata>
Created by FontForge 20170731 at Tue Dec  1 16:59:51 2020
 By Aleksey,,,
Copyright 2020 The Imbue Project Authors (https://github.com/Etcetera-Type-Co/Imbue)
</metadata>
<defs>
<font id="Imbue-ExtraLight" horiz-adv-x="0" >
  <font-face 
    font-family="Imbue ExtraLight"
    font-weight="250"
    font-stretch="normal"
    units-per-em="2000"
    panose-1="0 0 0 0 0 0 0 0 0 0"
    ascent="1600"
    descent="-400"
    x-height="1046"
    cap-height="1400"
    bbox="-358 -502 1437 2018"
    underline-thickness="50"
    underline-position="-175"
    unicode-range="U+000D-FB02"
  />
<missing-glyph horiz-adv-x="577" 
d="M129 133v947h317v-947h-317zM153 156h269v900h-269v-900zM290 889l-68 -69l-18 18l68 69l-68 69l18 19l68 -69l68 69l19 -19l-68 -69l68 -69l-19 -18zM290 582l-68 -69l-18 18l68 69l-68 69l18 18l68 -69l68 69l19 -18l-69 -69l69 -69l-19 -18zM290 274l-68 -69l-18 19
l68 69l-68 69l18 18l68 -69l68 69l19 -18l-68 -69l68 -69l-19 -19z" />
    <glyph glyph-name="f_f" unicode="ff" horiz-adv-x="767" 
d="M44 0v61h108v925h-116v61h116v72q0 155 29.5 240.5t77.5 118.5t102 33q47 0 81 -30t53.5 -68t19.5 -64l-39 -83q0 46 -13.5 87.5t-38.5 68t-59 26.5q-37 0 -61.5 -26.5t-38.5 -74.5t-19.5 -115.5t-5.5 -149.5v-18.5v-16.5h142v-61h-142v-925h123v-61h-319zM364 0v61h106
v925h-119v61h119v155q0 106 21 174.5t61.5 101.5t96.5 33q71 0 108 -67t37 -170q0 -36 -11.5 -55.5t-36.5 -19.5t-36 17.5t-11 44.5q0 20 5.5 33t10 27t4.5 34q0 37 -18 66t-49 29q-24 0 -41.5 -16t-29 -47t-16.5 -76.5t-5 -105.5v-158h121v-61h-121v-925h108v-61h-304z" />
    <glyph glyph-name="f_f_i" unicode="ffi" horiz-adv-x="1036" 
d="M44 0v61h108v925h-116v61h116v72q0 155 29.5 240.5t77.5 118.5t102 33q47 0 84 -30.5t59 -73t22 -76.5l-33 -104q0 64 -18 114t-46.5 78.5t-63.5 28.5q-37 0 -61.5 -26.5t-38.5 -74.5t-19.5 -115.5t-5.5 -149.5v-18.5v-16.5h142v-61h-142v-925h122v-61h-318zM702 0v61
h107v925h-107v61h197v-986h109v-61h-306zM375 0v61h107v925h-119v61h119v101q0 146 34 224.5t88 108.5t113 30t104.5 -26t71.5 -78t26 -130q0 -26 -7 -43t-19 -25t-28 -8q-23 0 -37.5 17t-14.5 46q0 19 5 30t9.5 23t4.5 33q0 39 -17 60t-42.5 29.5t-53.5 8.5q-42 0 -75 -21
t-52.5 -88t-19.5 -207v-85h198v-61h-198v-925h109v-61h-306z" />
    <glyph glyph-name="f_f_l" unicode="ffl" horiz-adv-x="1063" 
d="M44 0v61h110v925h-118v61h118v71q0 156 29 241.5t77 118.5t102 33q48 0 85 -30.5t59.5 -72.5t22.5 -76l-34 -103q0 62 -18 111.5t-47 78.5t-63 29q-38 0 -62.5 -26.5t-38.5 -74.5t-20 -115.5t-6 -149.5v-18.5v-16.5h143v-61h-143v-925h122v-61h-318zM746 0v61h90v1378
h-90v61h179v-1439h92v-61h-271zM380 0v61h105v925h-118v61h118v61q0 126 22 204t59.5 118.5t84 55t95.5 14.5v-61q-53 0 -86 -22t-52 -65.5t-27 -107t-8 -145.5v-29.5v-22.5h143v-61h-143v-925h109v-61h-302z" />
    <glyph glyph-name="f_i" unicode="fi" horiz-adv-x="709" 
d="M48 0v61h107v925h-119v61h119v101q0 146 34 224.5t87.5 108.5t113.5 30q58 0 104 -26t72 -78t26 -130q0 -26 -7 -43t-19 -25t-28 -8q-23 0 -37.5 17t-14.5 46q0 19 5 30t9.5 23t4.5 33q0 39 -17 60t-42.5 29.5t-53.5 8.5q-42 0 -75.5 -21t-52.5 -88t-19 -207v-85h198v-61
h-198v-925h109v-61h-306zM375 0v61h107v925h-107v61h197v-986h109v-61h-306z" />
    <glyph glyph-name="f_l" unicode="fl" horiz-adv-x="731" 
d="M49 0v61h105v925h-118v61h118v61q0 126 22 204t59 118.5t83.5 55t95.5 14.5v-61q-52 0 -85.5 -22t-52.5 -65.5t-26.5 -107t-7.5 -145.5v-29.5v-22.5h142v-61h-142v-925h108v-61h-301zM414 0v61h91v1378h-91v61h179v-1439h93v-61h-272z" />
    <glyph glyph-name=".notdef" horiz-adv-x="577" 
d="M129 133v947h317v-947h-317zM153 156h269v900h-269v-900zM290 889l-68 -69l-18 18l68 69l-68 69l18 19l68 -69l68 69l19 -19l-68 -69l68 -69l-19 -18zM290 582l-68 -69l-18 18l68 69l-68 69l18 18l68 -69l68 69l19 -18l-69 -69l69 -69l-19 -18zM290 274l-68 -69l-18 19
l68 69l-68 69l18 18l68 -69l68 69l19 -18l-68 -69l68 -69l-19 -19z" />
    <glyph glyph-name=".null" 
 />
    <glyph glyph-name="nonmarkingreturn" horiz-adv-x="666" 
 />
    <glyph glyph-name="CR" unicode="&#xd;" horiz-adv-x="274" 
 />
    <glyph glyph-name="space" unicode=" " horiz-adv-x="274" 
 />
    <glyph glyph-name="exclam" unicode="!" horiz-adv-x="262" 
d="M102 273q0 164 -4.5 308t-11 267.5t-10.5 227t-4 186.5q0 60 10.5 107t41.5 47q29 0 40 -47t11 -107q0 -83 -4 -186.5t-10.5 -227t-10.5 -267.5t-4 -308h-44zM121 -15q-34 0 -59 25.5t-25 59.5q0 36 25 60t59 24q35 0 59 -24t24 -60q0 -34 -24 -59.5t-59 -25.5z" />
    <glyph glyph-name="quotedbl" unicode="&#x22;" horiz-adv-x="463" 
d="M113 1184q-3 37 -9 84t-11 91.5t-5 73.5q0 51 14 71t35 20t34.5 -20t13.5 -71q0 -29 -5.5 -73.5t-12 -91.5t-9.5 -84h-45zM303 1184q-3 37 -9 84t-11 91.5t-5 73.5q0 51 14 71t35 20t34.5 -20t13.5 -71q0 -29 -5.5 -73.5t-12 -91.5t-9.5 -84h-45z" />
    <glyph glyph-name="numbersign" unicode="#" horiz-adv-x="1029" 
d="M169 0l78 447h-188v61h200l73 433h-224v61h237l67 398h83l-68 -398h252l71 398h81l-71 -398h210v-61h-220l-76 -433h245v-61h-255l-80 -447h-81l81 447h-253l-80 -447h-82zM340 508h250l76 433h-250z" />
    <glyph glyph-name="dollar" unicode="$" horiz-adv-x="499" 
d="M224 -24v1442h45v-1442h-45zM254 63q-45 0 -71.5 18t-42.5 35.5t-29 17.5q-16 0 -16 -47h-43v248h51q2 -37 13.5 -75t31 -70t47 -51t62.5 -19q46 0 69.5 27t31.5 73.5t8 105.5q0 65 -22.5 130.5t-58.5 128t-77 120.5q-62 89 -95 159.5t-45 129.5t-12 111q0 75 22.5 130
t63 85t90.5 30q42 0 64 -15.5t33.5 -31t21.5 -15.5q9 0 14 10t5 32h43v-246h-52q-1 38 -9.5 75.5t-24 68t-38.5 48.5t-55 18q-50 0 -80 -40.5t-30 -116.5q0 -51 9.5 -99t37.5 -105.5t83 -140.5q70 -103 126.5 -216.5t56.5 -232.5q0 -66 -11 -118t-33.5 -88t-57 -55
t-81.5 -19z" />
    <glyph glyph-name="percent" unicode="%" horiz-adv-x="1017" 
d="M268 780q-52 0 -93.5 39t-65 109.5t-23.5 166.5q0 139 47.5 224t134.5 85q84 0 132.5 -79t48.5 -230q0 -148 -49.5 -231.5t-131.5 -83.5zM753 -11q-52 0 -94 39.5t-65.5 110.5t-23.5 165q0 140 48 225.5t135 85.5q83 0 131 -79.5t48 -231.5q0 -146 -48.5 -230.5
t-130.5 -84.5zM753 50q49 0 71 42t28 101t6 109q0 51 -6 111t-28 103t-71 43t-72 -43t-29.5 -104t-6.5 -112t6 -109t29 -99.5t73 -41.5zM268 839q50 0 72.5 42.5t29 102t6.5 109.5q0 51 -6.5 111t-29 103t-72.5 43q-49 0 -71.5 -43.5t-29 -104t-6.5 -111.5t6.5 -110
t29 -100.5t71.5 -41.5zM43 0l871 1400h58l-869 -1400h-60z" />
    <glyph glyph-name="ampersand" unicode="&#x26;" horiz-adv-x="830" 
d="M661 -13q-46 0 -76 26t-55 87l-280 694q-6 13 -21 57t-32.5 105t-29.5 125.5t-12 117.5q0 64 15.5 106.5t41 67t55.5 35t59 10.5q27 0 55 -10t52.5 -34t39.5 -65t15 -103q0 -75 -17.5 -137.5t-43.5 -111.5t-52.5 -83t-43.5 -52l-28 56q48 54 78 139t30 189q0 79 -20 121
t-66 42q-45 0 -66 -39.5t-21 -116.5q0 -47 11 -105t26.5 -113t29.5 -95t19 -52l283 -699q23 -56 39 -73.5t37 -17.5q18 0 35.5 14t27.5 40l40 -38q-16 -39 -51 -63t-74 -24zM267 -18q-76 0 -129.5 47t-80.5 127.5t-27 182.5q0 114 33.5 210.5t86.5 171.5t112 125l29 -54
q-38 -37 -77.5 -99.5t-66.5 -141t-27 -164.5q0 -94 16.5 -170.5t54.5 -121t101 -44.5q44 0 79 36t60.5 92t40.5 115l37 -61q-13 -53 -39.5 -111.5t-75 -99t-127.5 -40.5zM724 296q-22 0 -32 15t-10 36q0 16 4 27.5t8 23.5t4 27q0 26 -7 36.5t-28 10.5q-22 0 -46.5 -28.5
t-44.5 -69t-29 -76.5l-47 46q11 35 34 79t56.5 77t74.5 33q61 0 84 -48.5t23 -108.5q0 -36 -11.5 -58t-32.5 -22z" />
    <glyph glyph-name="quotesingle" unicode="'" horiz-adv-x="309" 
d="M131 1184q-3 37 -9 84t-11 91.5t-5 73.5q0 51 14 71t35 20t34.5 -20t13.5 -71q0 -29 -5.5 -73.5t-12 -91.5t-9.5 -84h-45z" />
    <glyph glyph-name="parenleft" unicode="(" horiz-adv-x="410" 
d="M328 -429q-12 15 -52.5 87.5t-88 196t-82 293.5t-34.5 378q0 235 35 413t83.5 299.5t89.5 187.5t53 78l47 -54q-14 -16 -52 -80t-81 -177.5t-74 -279.5t-31 -387q0 -196 31 -354.5t74 -274.5t81 -184.5t50 -84.5z" />
    <glyph glyph-name="parenright" unicode=")" horiz-adv-x="410" 
d="M83 -429l-50 57q13 16 50.5 84.5t80.5 184.5t74.5 274.5t31.5 354.5q0 221 -31 387t-74.5 279.5t-81.5 177.5t-52 80l48 54q12 -12 53 -78t89 -187.5t83 -299.5t35 -413q0 -208 -34.5 -378t-82 -293.5t-87.5 -196t-52 -87.5z" />
    <glyph glyph-name="asterisk" unicode="*" horiz-adv-x="796" 
d="M380 882q-16 0 -27.5 12.5t-11.5 36.5q0 17 2.5 38.5t5.5 56.5t3 90q-31 -19 -60.5 -40t-52.5 -37t-39 -25q-9 -5 -16.5 -7t-13.5 -2q-14 0 -24.5 10.5t-10.5 23.5q0 11 6.5 22t20.5 18q16 10 37.5 17t53.5 21t80 41q-48 28 -80 43t-52.5 24t-37.5 18q-27 17 -27 39
q0 17 11 26t23 9q13 0 33 -11q23 -12 51 -37t98 -67q0 85 -5.5 123.5t-5.5 65.5q0 23 11.5 35t27.5 12t28 -12t12 -35q0 -18 -4.5 -40.5t-8.5 -57.5t-4 -91q75 43 105 67.5t53 36.5q19 11 33 11q16 0 25.5 -12.5t9.5 -24.5q0 -22 -31 -39q-14 -8 -36 -16.5t-55 -23.5
t-84 -43q49 -27 82.5 -41t57 -21.5t38.5 -16.5q15 -7 21.5 -17t6.5 -21q0 -13 -10.5 -24.5t-27.5 -11.5q-7 0 -15.5 1.5t-16.5 7.5q-14 11 -37 27t-52.5 36t-65.5 39q0 -55 4 -90t7.5 -56t3.5 -39q0 -24 -11.5 -36.5t-27.5 -12.5z" />
    <glyph glyph-name="plus" unicode="+" horiz-adv-x="819" 
d="M380 251v624h61v-624h-61zM99 533v60h622v-60h-622z" />
    <glyph glyph-name="comma" unicode="," horiz-adv-x="276" 
d="M106 -201l-37 46q22 11 43 37t34.5 54.5t13.5 45.5q0 8 -7 8q-3 0 -9 -3.5t-20 -3.5q-22 0 -40 11.5t-29 31t-11 42.5q0 35 24.5 60t69.5 25t72 -28t27 -69q0 -60 -20 -111.5t-50 -89t-61 -56.5z" />
    <glyph glyph-name="hyphen" unicode="-" horiz-adv-x="599" 
d="M99 533v60h402v-60h-402z" />
    <glyph glyph-name="period" unicode="." horiz-adv-x="276" 
d="M133 -15q-34 0 -58.5 25.5t-24.5 59.5q0 36 24.5 60t58.5 24t59 -24t25 -60q0 -34 -25 -59.5t-59 -25.5z" />
    <glyph glyph-name="slash" unicode="/" horiz-adv-x="617" 
d="M30 -104l506 1608h63l-505 -1608h-64z" />
    <glyph glyph-name="zero" unicode="0" horiz-adv-x="728" 
d="M363 -22q-70 0 -130 76.5t-95.5 236t-35.5 407.5q0 249 35.5 409t95 237.5t130.5 77.5q72 0 131.5 -77.5t95.5 -237.5t36 -409q0 -248 -36 -407.5t-95.5 -236t-131.5 -76.5zM363 40q35 0 66 46t55.5 132t38 207.5t13.5 272.5q0 152 -13.5 274t-38 209t-55.5 133.5
t-66 46.5q-34 0 -65 -46t-55.5 -133t-38 -209t-13.5 -275q0 -152 13.5 -273.5t38 -207.5t55.5 -131.5t65 -45.5z" />
    <glyph glyph-name="one" unicode="1" horiz-adv-x="482" 
d="M84 0v61h109v1178q-4 -15 -24.5 -32t-45.5 -29.5t-43 -16.5v73q24 8 46 23t41.5 39t34.5 60t22 86h59v-1381h113v-61h-312z" />
    <glyph glyph-name="two" unicode="2" horiz-adv-x="637" 
d="M410 -11q-33 0 -58 10t-47.5 23t-45.5 23.5t-52 10.5q-40 0 -60.5 -19t-23.5 -37h-62q0 157 28.5 275.5t74 210.5t97 167.5t96.5 144t74 142t29 162.5q0 102 -23 158t-62 78t-87 22q-38 0 -67.5 -19t-46.5 -46.5t-17 -52.5q0 -21 3.5 -33t6.5 -23.5t3 -32.5
q0 -35 -13 -49t-33 -14q-19 0 -32.5 17t-13.5 63q0 66 25.5 123t77.5 93t130 36q41 0 84 -14t79 -48.5t58 -95.5t22 -156q0 -91 -20.5 -161t-54.5 -127.5t-76 -111t-85 -111t-81.5 -127t-66 -159t-37.5 -207.5q5 8 18.5 16.5t34 14.5t47.5 6q31 0 63 -14.5t62.5 -29
t54.5 -14.5q36 0 57 29t21 107h59v-29q0 -61 -15.5 -106t-47 -70t-77.5 -25z" />
    <glyph glyph-name="three" unicode="3" horiz-adv-x="643" 
d="M300 -24q-77 0 -125.5 36t-72 94.5t-23.5 123.5q0 45 15 62.5t35 17.5q19 0 30.5 -14.5t11.5 -50.5q0 -20 -4 -33t-7.5 -26.5t-3.5 -38.5q0 -37 36 -73.5t95 -36.5q50 0 91 27t65 96.5t24 196.5q0 120 -26.5 189t-64.5 102t-70.5 42.5t-45.5 9.5v64q13 0 47 9.5t72 42.5
t65.5 103.5t27.5 192.5q0 119 -46.5 184t-129.5 65q-60 0 -99 -33.5t-39 -69.5q0 -28 3 -43.5t6.5 -28t3.5 -33.5q0 -36 -11.5 -50t-30.5 -14t-34.5 17.5t-15.5 63.5q0 66 25 123t77 93t130 36q77 0 133.5 -38.5t88 -108.5t31.5 -164q0 -86 -21 -155t-54.5 -118.5
t-72.5 -76.5t-74 -28q35 -2 74 -28t73 -74.5t55.5 -117t21.5 -154.5q0 -101 -29.5 -188t-88.5 -141t-148 -54z" />
    <glyph glyph-name="four" unicode="4" horiz-adv-x="579" 
d="M194 0v61h110v308h-263v61l226 827q20 39 36 84t31 87h60v-998h24q26 0 35 30.5t9 94.5h57v-186h-125v-308h110v-61h-310zM104 425l-4 5h206v759l-33 -148z" />
    <glyph glyph-name="five" unicode="5" horiz-adv-x="720" 
d="M312 -24q-76 0 -123.5 36t-68.5 94.5t-21 123.5q0 45 14.5 62.5t33.5 17.5q20 0 32 -15t12 -51q0 -21 -4.5 -33.5t-9 -24.5t-4.5 -33q0 -24 10.5 -51.5t37.5 -46.5t76 -19q70 0 111 44t58.5 132.5t17.5 221.5q0 116 -13 190.5t-35.5 116t-51.5 57.5t-60 16q-48 0 -78 -19
t-48 -52.5t-32 -75.5l-61 11l55 722h60q7 -20 34.5 -40t67.5 -33.5t83 -13.5q62 0 94.5 24.5t32.5 62.5h49q0 -57 -23 -94.5t-63 -55.5t-90 -18q-42 0 -75 10.5t-57.5 25.5t-39 28.5t-17.5 19.5l-38 -530q7 22 27 44t54 37t82 15q46 0 89.5 -23.5t78 -75.5t54.5 -137.5
t20 -209.5q0 -137 -25 -226.5t-65.5 -140.5t-88 -72t-92.5 -21z" />
    <glyph glyph-name="six" unicode="6" horiz-adv-x="691" 
d="M347 -24q-79 0 -128.5 57t-77.5 155.5t-38.5 223t-10.5 261.5q0 131 13 263t44 242t85.5 177t136.5 67q53 0 94.5 -36t64.5 -93t23 -123q0 -47 -14 -64t-34 -17q-19 0 -33 18t-14 53q0 26 3 39.5t5.5 26t2.5 35.5q0 25 -13 47.5t-36 37t-56 14.5q-45 0 -76.5 -38
t-51.5 -102.5t-30.5 -145t-14.5 -165.5t-4 -163q4 22 28 54.5t65 58t96 25.5q52 0 94 -28t72 -83.5t45.5 -137.5t15.5 -189q0 -102 -16.5 -188.5t-49 -149.5t-80 -97.5t-110.5 -34.5zM346 36q47 0 82 37.5t55 127.5t20 245q0 133 -13 213.5t-45.5 116.5t-88.5 36
q-46 0 -81 -32t-57.5 -84t-28.5 -112q0 -118 8 -218t26 -174.5t48.5 -115t74.5 -40.5z" />
    <glyph glyph-name="seven" unicode="7" horiz-adv-x="639" 
d="M282 -20q-20 0 -32 15.5t-17 49.5t-5 89q0 151 29 292t71.5 269.5t85.5 244.5t72 218t29 190q-4 -9 -20 -17t-42 -13t-61 -5q-38 0 -64.5 7t-47.5 13.5t-43 6.5t-43.5 -7t-36.5 -35t-17 -89h-57v191h496q0 -29 -3 -62t-9 -69.5t-14.5 -76t-18.5 -80.5t-23 -84
q-16 -59 -34.5 -119.5t-37.5 -120.5q-41 -127 -72 -291t-31 -363q0 -55 -5 -89t-16.5 -49.5t-32.5 -15.5z" />
    <glyph glyph-name="eight" unicode="8" horiz-adv-x="691" 
d="M329 -20q-46 0 -91 18.5t-81.5 58.5t-58.5 104.5t-22 156.5q0 95 24.5 167.5t60.5 124t72.5 84t59.5 48.5l45 -37q-29 -25 -70.5 -71.5t-72.5 -121t-31 -184.5q0 -154 48.5 -221.5t121.5 -67.5t125 65.5t52 201.5q0 93 -21 154t-68 116t-125 128q-46 44 -89.5 106.5
t-71.5 140t-28 163.5q0 91 30 160.5t82.5 109.5t119.5 40q61 0 112 -32t81.5 -99t30.5 -173q0 -84 -22 -149t-54.5 -112.5t-64.5 -77.5t-52 -44l-42 33q24 18 61.5 62.5t67.5 117t30 173.5q0 64 -15 119.5t-47 89.5t-85 34q-49 0 -83 -32.5t-52.5 -87t-18.5 -120.5
q0 -71 25.5 -139t67 -125.5t87.5 -97.5q41 -35 82.5 -76.5t75 -93t54.5 -116t21 -146.5q0 -90 -22.5 -156.5t-61.5 -109.5t-87 -64.5t-100 -21.5z" />
    <glyph glyph-name="nine" unicode="9" horiz-adv-x="691" 
d="M348 1422q78 0 128 -57t78 -155t38.5 -223t10.5 -262q0 -130 -13 -262.5t-44.5 -242.5t-85.5 -177t-136 -67q-53 0 -94.5 36t-64.5 94t-23 122q0 48 14 64.5t33 16.5q20 0 34 -18t14 -53q0 -26 -2.5 -39.5t-5.5 -26t-3 -35.5q0 -25 13 -47.5t36.5 -37t55.5 -14.5
q45 0 76 38t51 102.5t31 145t15 165.5t4 163q-4 -21 -28 -54t-65 -58.5t-96 -25.5q-53 0 -94.5 28t-71.5 83.5t-45.5 137.5t-15.5 189q0 102 16.5 188.5t48.5 149.5t80.5 97.5t110.5 34.5zM349 1362q-47 0 -82 -37.5t-55 -127t-20 -245.5q0 -133 13 -213.5t45 -116.5t89 -36
q45 0 80.5 32t58 84t28.5 112q0 118 -8 218t-26 174.5t-48.5 115t-74.5 40.5z" />
    <glyph glyph-name="colon" unicode=":" horiz-adv-x="519" 
d="M204 894q-34 0 -58.5 25.5t-24.5 59.5q0 36 24.5 60t58.5 24t59 -24t25 -60q0 -34 -25 -59.5t-59 -25.5zM204 -18q-34 0 -58.5 25.5t-24.5 59.5q0 36 24.5 60t58.5 24t59 -24t25 -60q0 -34 -25 -59.5t-59 -25.5z" />
    <glyph glyph-name="semicolon" unicode=";" horiz-adv-x="519" 
d="M222 894q-34 0 -58.5 25.5t-24.5 59.5q0 36 24.5 60t58.5 24t59 -24t25 -60q0 -34 -25 -59.5t-59 -25.5zM185 -201l-37 46q22 11 43 37t34.5 54.5t13.5 45.5q0 8 -7 8q-3 0 -9 -3.5t-20 -3.5q-22 0 -40 11.5t-29 31t-11 42.5q0 35 24.5 60t69.5 25t72 -28t27 -69
q0 -60 -20 -111.5t-50 -89t-61 -56.5z" />
    <glyph glyph-name="less" unicode="&#x3c;" horiz-adv-x="782" 
d="M623 95l-467 412v62l467 407v-75l-418 -365l418 -366v-75z" />
    <glyph glyph-name="equal" unicode="=" horiz-adv-x="817" 
d="M97 733v60h622v-60h-622zM97 333v60h622v-60h-622z" />
    <glyph glyph-name="greater" unicode="&#x3e;" horiz-adv-x="782" 
d="M163 95v75l417 366l-417 365v75l467 -407v-62z" />
    <glyph glyph-name="question" unicode="?" horiz-adv-x="543" 
d="M185 263q0 131 22 230.5t54.5 179.5t65 150t54.5 140.5t22 154.5q0 125 -37.5 184t-125.5 59q-60 0 -92 -32.5t-32 -69.5q0 -23 4 -39t7.5 -30.5t3.5 -35.5q0 -36 -13 -50.5t-32 -14.5t-34.5 19.5t-15.5 76.5q0 75 26 128t76 81t120 28q48 0 90.5 -14.5t76 -49t52 -92
t18.5 -143.5q0 -90 -25 -163t-61.5 -142.5t-73 -148t-61.5 -176.5t-25 -230h-64zM217 -15q-35 0 -59.5 25.5t-24.5 59.5q0 36 24.5 60t59.5 24q34 0 59 -24t25 -60q0 -34 -25 -59.5t-59 -25.5z" />
    <glyph glyph-name="at" unicode="@" horiz-adv-x="915" 
d="M458 -22q-67 0 -136 35t-126 112t-91.5 201.5t-34.5 302.5q0 226 42 377.5t110 241.5t147 129t152 39q102 0 178 -58t117 -186t41 -339q0 -94 -16 -181.5t-47 -157.5t-74.5 -111t-97.5 -41q-33 0 -50 17.5t-23.5 43.5t-6.5 52q-14 -58 -53 -90t-86 -32q-29 0 -64 19.5
t-59.5 77.5t-24.5 170q0 77 12.5 159t39 152.5t68 114t98.5 43.5q37 0 59.5 -17.5t33.5 -40.5t13 -40l7 76h71l-45 -514q-1 -15 -1.5 -28t-0.5 -24q0 -27 6 -45.5t25 -18.5q42 0 75.5 58t53 153t19.5 207q0 258 -63.5 388.5t-195.5 130.5q-78 0 -148.5 -41.5t-125.5 -130
t-86.5 -226t-31.5 -329.5q0 -176 41 -308t113.5 -205t165.5 -73q95 0 152.5 41t97.5 102l52 -36q-26 -38 -68.5 -77.5t-101.5 -66t-132 -26.5zM422 400q25 0 46 22t37 54.5t26.5 67t12.5 59.5l22 243q0 33 -12 67t-32.5 57t-48.5 23q-37 0 -63 -41.5t-41.5 -105t-22 -131.5
t-6.5 -121q0 -87 20.5 -140.5t61.5 -53.5z" />
    <glyph glyph-name="A" unicode="A" horiz-adv-x="650" 
d="M12 0v61h79l184 1343h87l182 -1343h98v-61h-283v61h89l-143 1143h-1l-149 -1143h78v-61h-221zM170 344v58h263v-58h-263z" />
    <glyph glyph-name="B" unicode="B" horiz-adv-x="686" 
d="M58 0v61h94v1278h-94v61h279q51 0 97.5 -17.5t81.5 -55t55.5 -97t20.5 -142.5q0 -82 -14.5 -144t-40.5 -104.5t-58.5 -66.5t-68.5 -31q37 -1 75 -22.5t70.5 -65t52.5 -110.5t20 -159q0 -122 -32 -208t-88 -131.5t-130 -45.5h-320zM241 61h121q42 0 81 30.5t64.5 102
t25.5 192.5q0 119 -32 190.5t-77.5 103t-89.5 31.5h-93v-650zM241 771h93q43 0 80.5 30.5t61 100t23.5 186.5q0 109 -25.5 163t-63.5 71t-77 17h-92v-568z" />
    <glyph glyph-name="C" unicode="C" horiz-adv-x="602" 
d="M365 -20q-131 0 -217.5 181t-86.5 537q0 127 19.5 255t58.5 234t97.5 170.5t136.5 64.5q51 0 89 -38t58 -96t20 -119q0 -44 -13 -62t-36 -18q-24 0 -38 16.5t-14 50.5q0 21 5 37t10 36t5 52q0 37 -22 58.5t-50 21.5q-45 0 -82 -41t-64.5 -111t-46 -156t-28 -177.5
t-9.5 -175.5q0 -122 11 -225.5t30.5 -183.5t47 -136t59 -85t67.5 -29q37 0 63.5 26t44 63t27.5 70l55 -24q-16 -49 -43.5 -93.5t-65.5 -73.5t-88 -29z" />
    <glyph glyph-name="D" unicode="D" horiz-adv-x="708" 
d="M58 0v61h90v1278h-90v61h257q92 0 167.5 -74.5t121 -227t45.5 -387.5q0 -237 -45.5 -395t-121.5 -237t-167 -79h-257zM238 61h53q68 0 128 65t97.5 208t37.5 377q0 203 -33.5 343t-85.5 212.5t-109 72.5h-88v-1278z" />
    <glyph glyph-name="E" unicode="E" horiz-adv-x="638" 
d="M58 0v61h91v1278h-91v61h503v-259h-61q0 81 -6 124t-25 58.5t-57 15.5h-173v-608h218v100h56v-258h-56v98h-218v-610h172q39 0 57.5 16.5t25 60t6.5 124.5h61v-262h-503z" />
    <glyph glyph-name="F" unicode="F" horiz-adv-x="636" 
d="M82 0v61h91v1278h-91v61h475v-259h-62q0 81 -4 124t-22.5 58.5t-60.5 15.5h-145v-604h200v99h61v-258h-61v98h-200v-613h91v-61h-272z" />
    <glyph glyph-name="G" unicode="G" horiz-adv-x="678" 
d="M362 -20q-81 0 -146 84.5t-103 245t-38 388.5q0 238 44 398.5t114.5 242t148.5 81.5q64 0 104 -36.5t59 -93.5t19 -121q0 -45 -13.5 -62.5t-36.5 -17.5t-36.5 18.5t-13.5 49.5q0 21 5 37t10.5 35t5.5 48q0 32 -26 57.5t-71 25.5q-56 0 -97.5 -61.5t-68 -161.5t-40 -215.5
t-13.5 -223.5q0 -152 16 -274t43.5 -208t63.5 -131t76 -45q34 0 59.5 11.5t36.5 23.5v497h-92v61h269v-61h-90v-572h-50q-1 2 -6 5t-12 3q-11 0 -26.5 -7t-38 -14t-56.5 -7z" />
    <glyph glyph-name="H" unicode="H" horiz-adv-x="787" 
d="M58 0v61h90v1278h-90v61h264v-61h-85v-588h312v588h-85v61h267v-61h-94v-1278h94v-61h-267v61h85v630h-312v-630h85v-61h-264z" />
    <glyph glyph-name="I" unicode="I" horiz-adv-x="414" 
d="M68 0v61h94v1278h-94v61h278v-61h-95v-1278h95v-61h-278z" />
    <glyph glyph-name="J" unicode="J" horiz-adv-x="551" 
d="M210 -26q-59 0 -96.5 28.5t-55 83.5t-17.5 135q0 49 15 68t38 19q22 0 35.5 -16t13.5 -52q0 -22 -5.5 -38t-11 -35t-5.5 -50q0 -34 24 -57t58 -23q53 0 87.5 49t34.5 183v1070h-99v61h283v-61h-94v-979q0 -111 -15 -185.5t-42 -118.5t-64.5 -63t-83.5 -19z" />
    <glyph glyph-name="K" unicode="K" horiz-adv-x="678" 
d="M40 0v61h93v1278h-93v61h278v-61h-95v-589l268 589h-84v61h222v-61h-68l-283 -616l-3 59l273 -721h86v-61h-259v61h73l-239 633h14v-633h89v-61h-272z" />
    <glyph glyph-name="L" unicode="L" horiz-adv-x="579" 
d="M66 0v61h91v1278h-91v61h272v-61h-91v-1278h134q28 0 45 16.5t25.5 60t8.5 124.5h60v-262h-454z" />
    <glyph glyph-name="M" unicode="M" horiz-adv-x="927" 
d="M45 0v61h92v1278h-84v61h227l189 -1187h-10l200 1187h220v-61h-82v-1278h93v-61h-275v61h92v1288h7l-228 -1283h-78l-216 1278h5v-1283h96v-61h-248z" />
    <glyph glyph-name="N" unicode="N" horiz-adv-x="775" 
d="M35 0v61h92v1278h-92v61h223l335 -1213h-4v1152h-92v61h243v-61h-89v-1339h-103l-363 1317h5v-1256h104v-61h-259z" />
    <glyph glyph-name="O" unicode="O" horiz-adv-x="691" 
d="M344 -22q-93 0 -156.5 93.5t-95 255.5t-31.5 371q0 210 31.5 373t95 257t156.5 94q94 0 158 -94t96.5 -257t32.5 -373q0 -209 -32.5 -371t-96.5 -255.5t-158 -93.5zM344 39q48 0 83.5 49t59.5 139t36.5 210t12.5 261t-12.5 261.5t-36.5 211t-59.5 140.5t-83.5 50
q-47 0 -82.5 -50t-58.5 -140.5t-34.5 -211t-11.5 -261.5t11.5 -261t34.5 -210t58.5 -139t82.5 -49z" />
    <glyph glyph-name="P" unicode="P" horiz-adv-x="672" 
d="M56 0v61h105v1278h-105v61h314q42 0 86 -19t82.5 -63t62 -118.5t23.5 -184.5q0 -113 -24 -197.5t-62.5 -140t-83 -83t-84.5 -27.5h-120v-506h104v-61h-298zM250 627h97q45 0 86.5 44.5t68.5 131t27 213.5q0 120 -25 191t-64.5 101.5t-84.5 30.5h-105v-712z" />
    <glyph glyph-name="Q" unicode="Q" horiz-adv-x="691" 
d="M596 -342q-25 0 -41.5 22t-16.5 56q0 30 8.5 55.5t17 54.5t8.5 73q0 31 -20 68t-65 37q-12 0 -29 -6.5t-28 -13.5l19 58q5 4 20.5 9.5t40.5 5.5q76 0 114.5 -78t38.5 -212q0 -65 -18 -97t-49 -32zM344 -22q-93 0 -156.5 93.5t-95 255.5t-31.5 371q0 210 31.5 373t95 257
t156.5 94q94 0 158 -94t96.5 -257t32.5 -373q0 -209 -32.5 -371t-96.5 -255.5t-158 -93.5zM344 39q48 0 83.5 49t59.5 139t36.5 210t12.5 261t-12.5 261.5t-36.5 211t-59.5 140.5t-83.5 50q-47 0 -82.5 -50t-58.5 -140.5t-34.5 -211t-11.5 -261.5t11.5 -261t34.5 -210
t58.5 -139t82.5 -49z" />
    <glyph glyph-name="R" unicode="R" horiz-adv-x="750" 
d="M633 -15q-51 0 -75.5 32t-31.5 85t-7 116q0 51 2 105t2 104q0 108 -14.5 164.5t-59 78t-133.5 21.5h-66v-630h94v-61h-279v61h96v1278h-96v61h314q76 0 132.5 -33.5t88.5 -105t32 -186.5q0 -88 -17 -153t-46.5 -108t-68 -65.5t-81.5 -26.5q83 -1 125 -37.5t56.5 -104
t14.5 -161.5q0 -49 -2 -101t-2 -102q0 -34 2.5 -75t11 -70.5t24.5 -29.5q8 0 15 10.5t7 23.5h55q-1 -30 -15 -50t-35 -30t-43 -10zM250 751h96q70 0 112.5 43.5t62 116t19.5 160.5q0 81 -14.5 141.5t-53.5 93.5t-113 33h-109v-588z" />
    <glyph glyph-name="S" unicode="S" horiz-adv-x="571" 
d="M306 -27q-40 0 -67 12t-46 28t-32 28t-23 12q-20 0 -20 -53h-50v280h60q2 -34 11.5 -68.5t24.5 -66t36.5 -56t49 -38.5t59.5 -14q55 0 83 30t37.5 82.5t9.5 119.5q0 74 -26.5 147t-69 144t-91.5 136q-73 100 -112.5 179.5t-53.5 146t-14 124.5q0 85 27 147t74.5 95.5
t106.5 33.5q50 0 76 -17t39.5 -34.5t25.5 -17.5q11 0 16.5 11t5.5 36h51v-277h-61q-2 43 -12 85t-28.5 76t-46 54.5t-63.5 20.5q-60 0 -95 -45.5t-35 -131.5q0 -57 11 -111t44 -119t98 -158q56 -77 105.5 -159.5t80 -169.5t30.5 -177q0 -75 -13 -133.5t-39.5 -98.5
t-67 -61.5t-96.5 -21.5z" />
    <glyph glyph-name="T" unicode="T" horiz-adv-x="675" 
d="M183 0v61h110v1278h-100q-45 0 -64.5 -14.5t-24.5 -57.5t-5 -126h-61v259h599v-259h-61q0 83 -5 126t-24.5 57.5t-64.5 14.5h-99v-1278h114v-61h-314z" />
    <glyph glyph-name="U" unicode="U" horiz-adv-x="707" 
d="M357 -24q-41 0 -81 15t-72 50.5t-51.5 96.5t-19.5 153v1048h-95v61h280v-61h-94v-1038q0 -148 40.5 -204t103.5 -56q31 0 57.5 12.5t46.5 40.5t31 77t11 123v1045h-83v61h238v-61h-94v-1057q0 -117 -30 -183.5t-79.5 -94.5t-108.5 -28z" />
    <glyph glyph-name="V" unicode="V" horiz-adv-x="658" 
d="M282 -3l-184 1342h-81v61h256v-61h-80l151 -1167h-6l146 1167h-89v61h251v-61h-96l-176 -1342h-92z" />
    <glyph glyph-name="W" unicode="W" horiz-adv-x="1010" 
d="M285 -3l-155 1342h-105v61h299v-61h-95l122 -1178l-12 -13l151 1179l16 -134l-24 146h-102v61h299v-61h-100l155 -1175l-10 -13l122 1188h-84v61h241v-61h-89l-157 -1342h-85l-160 1179l24 27l-167 -1206h-84z" />
    <glyph glyph-name="X" unicode="X" horiz-adv-x="720" 
d="M404 0v61h96l-357 1278h-90v61h280v-61h-93l357 -1278h92v-61h-285zM19 0v61h95l213 660l57 -37l-205 -623h93v-61h-253zM401 708l-50 45l188 586h-91v61h247v-61h-91z" />
    <glyph glyph-name="Y" unicode="Y" horiz-adv-x="669" 
d="M199 0v61h95v528l-177 750h-90v61h270v-61h-75l156 -715h-43l170 715h-77v61h233v-61h-92l-185 -744v-534h87v-61h-272z" />
    <glyph glyph-name="Z" unicode="Z" horiz-adv-x="587" 
d="M59 0v61l348 1278h-112q-76 0 -111 -15.5t-44.5 -58.5t-9.5 -124h-60v259h439v-59l-354 -1280h156q70 0 102.5 16.5t42.5 60t10 124.5h61v-262h-468z" />
    <glyph glyph-name="bracketleft" unicode="[" horiz-adv-x="285" 
d="M38 -440v1940h208v-61h-147v-1818h147v-61h-208z" />
    <glyph glyph-name="backslash" unicode="\" horiz-adv-x="639" 
d="M610 -104h-65l-504 1608h62z" />
    <glyph glyph-name="bracketright" unicode="]" horiz-adv-x="362" 
d="M323 -440h-208v61h147v1818h-147v61h208v-1940z" />
    <glyph glyph-name="asciicircum" unicode="^" horiz-adv-x="845" 
d="M114 949l271 451h76l271 -451h-72l-236 391l-239 -391h-71z" />
    <glyph glyph-name="underscore" unicode="_" horiz-adv-x="897" 
d="M16 -213v60h867v-60h-867z" />
    <glyph glyph-name="grave" unicode="`" horiz-adv-x="588" 
d="M368 1273l-195 90q-24 12 -38 22.5t-14 33.5q0 20 13.5 30.5t33.5 10.5q18 0 31 -7t26 -18l166 -135z" />
    <glyph glyph-name="a" unicode="a" horiz-adv-x="594" 
d="M250 -20q-57 0 -100 28.5t-67.5 85.5t-24.5 143q0 91 33.5 151.5t83 103t99 77.5t83 73t33.5 91q0 77 -11 135t-37.5 90t-72.5 32q-51 0 -84.5 -37t-33.5 -83q0 -20 4 -31.5t8 -22t4 -29.5q0 -27 -12 -45.5t-35 -18.5t-34.5 20.5t-11.5 56.5q0 71 25 129t71 91.5
t107 33.5q62 0 107 -31t70.5 -99t25.5 -179v-627q0 -38 9.5 -51t27.5 -13q14 0 24 5.5t14 10.5l31 -53q-11 -11 -35 -19t-54 -8q-27 0 -48.5 10.5t-34 30.5t-13.5 51q-7 -20 -24 -44t-48 -41t-79 -17zM263 49q42 0 70 31.5t42.5 74t14.5 71.5v379q-2 -28 -38 -56.5
t-81.5 -66.5t-80 -95.5t-34.5 -144.5q0 -94 27 -143.5t80 -49.5z" />
    <glyph glyph-name="b" unicode="b" horiz-adv-x="624" 
d="M344 -20q-45 0 -72.5 26.5t-41.5 62t-17 62.5l-4 -131h-191v61h107v1378h-107v61h198v-578q5 20 20 51t44.5 55t74.5 24q62 0 107 -52.5t70 -170t25 -311.5q0 -193 -27 -311.5t-74.5 -172.5t-111.5 -54zM336 52q33 0 57 28.5t39.5 86.5t23 144.5t7.5 201.5
q0 102 -6 185.5t-21 144.5t-38 94.5t-56 33.5q-35 0 -62 -34.5t-43 -82.5t-21 -90v-425q3 -60 17.5 -127t40.5 -113.5t62 -46.5z" />
    <glyph glyph-name="c" unicode="c" horiz-adv-x="547" 
d="M310 -20q-70 0 -119.5 49.5t-80.5 131t-46 179.5t-15 194q0 125 22 222t59 163t84 100.5t96 34.5q61 0 101 -38t60 -96.5t20 -121.5q0 -36 -11.5 -55.5t-34.5 -19.5t-35.5 18t-12.5 45q0 19 5 29t9.5 22t4.5 34q0 55 -29 88t-74 33q-44 0 -75.5 -38.5t-52 -102.5
t-30 -145t-9.5 -167q0 -81 8.5 -168.5t27.5 -161.5t52 -120t83 -46q52 0 81 26.5t44 72.5l46 -37q-16 -40 -58.5 -82.5t-119.5 -42.5z" />
    <glyph glyph-name="d" unicode="d" horiz-adv-x="628" 
d="M284 -20q-62 0 -109 54t-73.5 172.5t-26.5 311.5q0 194 26.5 311.5t72.5 170t104 52.5q46 0 75 -20.5t44.5 -49t20.5 -52.5v509h-110v61h201v-1439h108v-61h-193l-3 132q-3 -26 -19 -62.5t-44.5 -63t-73.5 -26.5zM298 52q34 0 59.5 42.5t41 104.5t19.5 122v443
q-5 50 -23 97.5t-44.5 79t-58.5 31.5q-36 0 -59.5 -36t-37.5 -99t-20 -146t-6 -178q0 -115 7.5 -201.5t22.5 -144t39.5 -86.5t59.5 -29z" />
    <glyph glyph-name="e" unicode="e" horiz-adv-x="538" 
d="M277 -22q-68 0 -112.5 48t-69.5 128t-34.5 176.5t-9.5 194.5q0 129 16 228t46.5 166t72 101t92.5 34q60 0 99 -40t61.5 -104.5t31.5 -142.5t9 -154v-41.5t-1 -40.5h-347v60h256q0 113 -9 204t-32.5 144.5t-67.5 53.5q-41 0 -71 -53t-46 -151t-16 -233q0 -99 5 -190.5
t19.5 -164.5t41.5 -116t72 -43q56 0 86 35.5t40 67.5l54 -25q-16 -57 -66.5 -99.5t-119.5 -42.5z" />
    <glyph glyph-name="f" unicode="f" horiz-adv-x="451" 
d="M48 0v61h106v925h-118v61h118v155q0 106 21.5 174.5t62 101.5t95.5 33q72 0 108.5 -67t36.5 -170q0 -36 -11.5 -55.5t-36.5 -19.5q-24 0 -35 17.5t-11 44.5q0 20 5 33t10 27t5 34q0 37 -18 66t-49 29q-25 0 -42.5 -16t-28.5 -47t-16.5 -76.5t-5.5 -105.5v-158h121v-61
h-121v-925h108v-61h-304z" />
    <glyph glyph-name="g" unicode="g" horiz-adv-x="610" 
d="M309 -498q-86 0 -143.5 38.5t-86 99.5t-28.5 129q0 60 14 102.5t35 71t43.5 45t38.5 23.5q-10 2 -28 10.5t-37 26t-32.5 46t-13.5 68.5q0 41 16 69.5t38.5 44t40.5 16.5q3 0 8 0.5t6 -0.5q-13 12 -28.5 39t-29 69.5t-21.5 100t-8 130.5q0 119 17 200t46.5 130t69.5 71
t86 22q72 0 117.5 -49.5t67.5 -140t22 -213.5q0 -110 -15.5 -189.5t-43.5 -131t-67 -75.5t-86 -24q-41 0 -62.5 11t-24.5 12q-1 1 -2.5 1.5t-5.5 0.5q-21 0 -44.5 -23t-23.5 -60q0 -50 37 -77t137 -41q132 -15 192 -81t60 -189q0 -71 -21 -124t-57.5 -88.5t-83.5 -53
t-99 -17.5zM309 -441q78 0 126 57t48 144q0 107 -32 153t-109 61q-21 4 -40 8.5t-33.5 8t-21.5 4.5q-39 -21 -63 -55.5t-35.5 -76t-11.5 -87.5q0 -52 18.5 -102t56.5 -82.5t97 -32.5zM307 292q33 0 59.5 28.5t42.5 105.5t16 221q0 140 -15.5 214.5t-41.5 103t-58 28.5
t-59.5 -28.5t-45 -104.5t-17.5 -219q0 -142 17 -217t44 -103.5t58 -28.5zM385 994q8 51 47 82t80 31q36 0 51 -15t15 -42q0 -22 -12.5 -36.5t-34.5 -14.5q-17 0 -25.5 8t-15.5 16.5t-21 8.5t-23.5 -12t-9.5 -30z" />
    <glyph glyph-name="h" unicode="h" horiz-adv-x="706" 
d="M35 0v61h101v1378h-101v61h191v-576q2 19 25 50.5t61 56.5t85 25q43 0 84 -24t68 -91t27 -198v-682h102v-61h-277v61h85v658q0 142 -26.5 201.5t-86.5 59.5q-39 0 -72.5 -34.5t-53.5 -85.5t-21 -101v-698h85v-61h-276z" />
    <glyph glyph-name="i" unicode="i" horiz-adv-x="372" 
d="M38 0v61h107v925h-107v61h197v-986h109v-61h-306zM188 1273q-36 0 -60 23.5t-24 57.5q0 35 24 59t60 24q32 0 56 -24t24 -59q0 -34 -24 -57.5t-56 -23.5z" />
    <glyph glyph-name="j" unicode="j" horiz-adv-x="348" 
d="M48 -498q-47 0 -79 28.5t-49 77.5t-17 112q0 36 14 56t37 20t35 -18t12 -45q0 -20 -3.5 -37l-7 -34t-3.5 -38q0 -27 9 -39.5t23 -16t26 -3.5q57 0 86.5 68.5t29.5 196.5v1156h-109v61h199v-1148q0 -106 -15.5 -181t-43.5 -123t-65 -70.5t-79 -22.5zM202 1273
q-35 0 -59.5 23.5t-24.5 57.5q0 35 24.5 59t59.5 24q33 0 56 -24t23 -59q0 -34 -23 -57.5t-56 -23.5z" />
    <glyph glyph-name="k" unicode="k" horiz-adv-x="670" 
d="M41 0v61h101v1378h-101v61h191v-853l195 339h-81v61h231v-61h-82l-160 -288l237 -637h85v-61h-273v61h86l-201 540l-37 -75v-465h89v-61h-280z" />
    <glyph glyph-name="l" unicode="l" horiz-adv-x="364" 
d="M47 0v61h91v1378h-91v61h179v-1439h92v-61h-271z" />
    <glyph glyph-name="m" unicode="m" horiz-adv-x="968" 
d="M37 0v61h96v925h-96v61h185v-118q4 20 22 49.5t52 51.5t85 22q55 0 86.5 -28.5t45 -62.5t13.5 -48q7 30 30 62t61 54.5t89 22.5q84 0 119.5 -73t35.5 -174v-744h92v-61h-271v61h89v622q0 90 -4.5 155.5t-24 101.5t-64.5 36q-47 0 -77 -38.5t-45 -97.5t-16 -119v-660h90
v-61h-268v61h88v622q0 135 -14 214t-82 79q-46 0 -75 -39t-42 -98.5t-14 -119.5v-658h87v-61h-273z" />
    <glyph glyph-name="n" unicode="n" horiz-adv-x="688" 
d="M35 0v61h100v925h-100v61h189v-114q7 29 29.5 57t58 46t77.5 18q38 0 77.5 -20.5t66.5 -83.5t27 -189v-700h100v-61h-283v61h93v677q0 132 -27 187.5t-83 55.5q-29 0 -53.5 -21t-43 -55t-28.5 -72.5t-10 -74.5v-697h93v-61h-283z" />
    <glyph glyph-name="o" unicode="o" horiz-adv-x="585" 
d="M289 -22q-53 0 -96.5 37.5t-75.5 108.5t-49 172.5t-17 230.5q0 141 18.5 241.5t51 163.5t75.5 92.5t93 29.5q48 0 91 -29.5t76 -92.5t52 -163.5t19 -241.5q0 -129 -17.5 -230.5t-49.5 -172.5t-76 -108.5t-95 -37.5zM289 39q60 0 101 120.5t41 367.5q0 243 -41 355
t-101 112q-63 0 -104 -112t-41 -355q0 -247 41 -367.5t104 -120.5z" />
    <glyph glyph-name="p" unicode="p" horiz-adv-x="605" 
d="M26 -500v61h100v1425h-100v61h190v-118q6 21 23.5 50t47 51t70.5 22q53 0 98.5 -52.5t73 -170t27.5 -311.5q0 -193 -28 -311.5t-76 -172.5t-107 -54q-40 0 -67.5 23t-42.5 53t-18 51v-546h100v-61h-291zM337 54q33 0 56.5 34.5t39 96.5t22.5 146.5t7 183.5q0 98 -7 181
t-21.5 145t-37.5 96t-54 34q-40 0 -66.5 -37.5t-40 -89t-18.5 -93.5v-424q3 -59 15.5 -122.5t38 -107t66.5 -43.5z" />
    <glyph glyph-name="q" unicode="q" horiz-adv-x="648" 
d="M326 -500v61h106v546q-2 -21 -17 -51t-42.5 -53t-67.5 -23q-58 0 -106.5 54t-76.5 172.5t-28 311.5q0 194 28 311.5t73.5 170t98.5 52.5q43 0 72.5 -22t46.5 -51.5t22 -50.5l4 119h84v-1486h107v-61h-304zM312 54q42 0 67.5 43.5t38 107t14.5 122.5v423q-3 42 -17.5 94
t-41 89.5t-66.5 37.5q-31 0 -54 -35t-37.5 -96.5t-22 -145t-7.5 -181.5q0 -99 7.5 -183t23 -146t39 -96t56.5 -34z" />
    <glyph glyph-name="r" unicode="r" horiz-adv-x="518" 
d="M25 0v61h101v925h-101v61h187l2 -105q2 10 19 37t48 51t76 24q46 0 74 -32.5t40.5 -88.5t12.5 -127q0 -41 -12.5 -62t-36.5 -21q-21 0 -33.5 17t-12.5 50q0 19 4.5 31.5t9 28t4.5 40.5q0 51 -18 73t-44 22q-41 0 -70 -35t-44 -85.5t-15 -97.5v-706h103v-61h-294z" />
    <glyph glyph-name="s" unicode="s" horiz-adv-x="501" 
d="M260 -22q-49 0 -74.5 12.5t-39 24.5t-24.5 12t-15 -7.5t-4 -19.5h-49v277h58q4 -65 13.5 -110.5t26.5 -74t42.5 -41t62.5 -12.5q40 0 64 24.5t34.5 61.5t10.5 72q0 56 -13.5 105.5t-44.5 101t-85 109.5q-64 72 -110.5 147.5t-46.5 183.5q0 69 25 115.5t65.5 70.5t86.5 24
q38 0 60.5 -8t36 -17t21.5 -9t11 7t4 20h51v-268h-57q-4 65 -13 106.5t-24.5 65t-37 33t-50.5 9.5q-49 0 -76 -36t-27 -98q0 -72 33.5 -131t100.5 -136q58 -67 96 -126t56.5 -116.5t18.5 -121.5q0 -69 -21.5 -125.5t-63 -90.5t-102.5 -34z" />
    <glyph glyph-name="t" unicode="t" horiz-adv-x="390" 
d="M248 -18q-30 0 -59 11t-47.5 43t-18.5 94v856h-117v61h117q8 33 13.5 81t9.5 100t5 96h62v-277h139v-61h-139v-875q0 -42 16 -55.5t32 -13.5q21 0 35 9.5t21 19.5l36 -48q-15 -16 -43 -28.5t-62 -12.5z" />
    <glyph glyph-name="u" unicode="u" horiz-adv-x="660" 
d="M301 -22q-47 0 -88 21.5t-66.5 81.5t-25.5 175v730h-103v60h193v-782q0 -89 15 -135.5t39 -63t52 -16.5q45 0 76 44.5t47 113t16 140.5v639h-103v60h193v-985h92v-61h-174l-2 130q-4 -31 -23 -66.5t-53 -60.5t-85 -25z" />
    <glyph glyph-name="v" unicode="v" horiz-adv-x="601" 
d="M270 -6l-158 992h-86v61h255v-61h-72l117 -825l118 825h-72v61h223v-61h-85l-156 -992h-84z" />
    <glyph glyph-name="w" unicode="w" horiz-adv-x="926" 
d="M600 -6l-145 992h-92v61h254v-61h-70l112 -842l106 842h-73v61h217v-61h-80l-133 -992h-96zM234 -6l-135 992h-80v61h251v-61h-76l102 -842l114 842h-63v61h215v-61h-89l-142 -992h-97z" />
    <glyph glyph-name="x" unicode="x" horiz-adv-x="609" 
d="M19 0v61h92l160 491l25 20l134 414h-82v61h231v-61h-84l-157 -465l-20 -26l-139 -434h75v-61h-235zM335 0v61h74l-284 925h-84v61h166h87v-61h-72l285 -925h80v-61h-167h-85z" />
    <glyph glyph-name="y" unicode="y" horiz-adv-x="596" 
d="M165 -502q-36 0 -58 28.5t-32 77.5t-10 112q0 36 11.5 56t33.5 20q23 0 33.5 -18t10.5 -45q0 -20 -5 -35t-10.5 -29t-5.5 -36q0 -28 7.5 -54.5t26.5 -26.5q13 0 21 14.5t14.5 41.5t13.5 63l68 355l-178 964h-82v61h251v-61h-73l126 -712l122 712h-74v61h221v-61h-80
l-179 -993l-66 -342q-10 -51 -23.5 -85t-33.5 -51t-50 -17z" />
    <glyph glyph-name="z" unicode="z" horiz-adv-x="500" 
d="M72 0v61l258 925h-101q-44 0 -63.5 -14t-24 -58t-4.5 -135h-59v268h343v-61l-258 -925h91q53 0 75.5 15t27.5 62t5 139h61v-277h-351z" />
    <glyph glyph-name="braceleft" unicode="{" horiz-adv-x="410" 
d="M341 -320q-23 0 -57 10.5t-68 45t-57 105.5t-23 192q0 78 12 143.5t23.5 125.5t11.5 121q0 65 -16.5 102t-61.5 37v58q45 0 61.5 37t16.5 104q0 61 -11.5 120.5t-23.5 125t-12 142.5q0 121 23 192t57 105.5t68 45t57 10.5v-61q-12 0 -35.5 -9t-48 -38t-41.5 -88.5
t-17 -161.5q0 -74 12.5 -138t24.5 -123.5t12 -121.5q0 -91 -25.5 -125.5t-53.5 -42.5q28 -11 53.5 -45t25.5 -125q0 -62 -12 -122t-24.5 -124.5t-12.5 -138.5q0 -102 17 -161.5t41.5 -88.5t48 -38t35.5 -9v-61z" />
    <glyph glyph-name="bar" unicode="|" horiz-adv-x="197" 
d="M69 -329v1829h61v-1829h-61z" />
    <glyph glyph-name="braceright" unicode="}" horiz-adv-x="410" 
d="M70 -320v61q12 0 35 9t47.5 38t41.5 88.5t17 161.5q0 74 -12 138.5t-24.5 124.5t-12.5 122q0 91 26 125t53 45q-27 8 -53 42.5t-26 125.5q0 62 12.5 121.5t24.5 123.5t12 138q0 102 -17 161.5t-41.5 88.5t-47.5 38t-35 9v61q23 0 57 -10.5t68 -45t57 -105.5t23 -192
q0 -77 -12 -142.5t-23.5 -125t-11.5 -120.5q0 -67 16 -104t61 -37v-58q-45 0 -61 -37t-16 -102q0 -61 11.5 -121t23.5 -125.5t12 -143.5q0 -121 -23 -192t-57 -105.5t-68 -45t-57 -10.5z" />
    <glyph glyph-name="asciitilde" unicode="~" horiz-adv-x="739" 
d="M504 1275q-60 0 -103 22t-82 44t-89 22q-47 0 -80.5 -27.5t-41.5 -43.5l-58 44q10 17 31.5 40t58.5 40.5t93 17.5q61 0 103 -22t81 -44.5t88 -22.5q32 0 59 15t45 34.5t23 30.5l57 -48q-9 -19 -32.5 -43t-61.5 -41.5t-91 -17.5z" />
    <glyph glyph-name="uni00A0" unicode="&#xa0;" horiz-adv-x="274" 
 />
    <glyph glyph-name="exclamdown" unicode="&#xa1;" horiz-adv-x="243" 
d="M139 853q0 -164 4.5 -308t11 -268t10.5 -227t4 -186q0 -61 -10.5 -108t-41.5 -47q-29 0 -40 47t-11 108q0 83 4 186t10.5 227t10.5 268t4 308h44zM120 1140q34 0 59 -25.5t25 -59.5q0 -36 -25 -60t-59 -24q-35 0 -59 24t-24 60q0 34 24 59.5t59 25.5z" />
    <glyph glyph-name="cent" unicode="&#xa2;" horiz-adv-x="528" 
d="M211 -116l76 1225h48l-77 -1225h-47zM310 -20q-70 0 -119.5 49.5t-80.5 131t-46 179.5t-15 194q0 125 22 222t59 163t84 100.5t96 34.5q61 0 101 -38t60 -96.5t20 -121.5q0 -36 -11.5 -55.5t-34.5 -19.5t-35.5 18t-12.5 45q0 19 5 29t9.5 22t4.5 34q0 55 -29 88t-74 33
q-44 0 -75.5 -38.5t-52 -102.5t-30 -145t-9.5 -167q0 -81 8.5 -168.5t27.5 -161.5t52 -120t83 -46q52 0 81 26.5t44 72.5l46 -37q-16 -40 -58.5 -82.5t-119.5 -42.5z" />
    <glyph glyph-name="sterling" unicode="&#xa3;" horiz-adv-x="569" 
d="M23 726v61h404v-61h-404zM94 -25q-42 0 -63.5 27t-21.5 65q0 48 23.5 83t63 56t86.5 24q3 17 8 67t5 113q0 71 -14 151.5t-32.5 163.5t-32 163t-13.5 149q0 122 25 208t72.5 131.5t115.5 45.5q89 0 130 -69.5t41 -164.5q0 -36 -11 -56t-35 -20q-23 0 -34.5 18.5
t-11.5 45.5q0 20 3.5 33t6.5 26.5t3 33.5q0 52 -27.5 71t-59.5 19q-48 0 -76 -43t-40 -114t-12 -156q0 -82 17 -183.5t34.5 -210.5t17.5 -214q0 -48 -4.5 -92t-9.5 -75t-8 -44q42 -7 69.5 -33t47.5 -56.5t38.5 -52.5t42.5 -22q36 0 45 23.5t10 42.5h54q0 -41 -13.5 -73.5
t-39.5 -51.5t-60 -19q-40 0 -65.5 24t-45.5 57t-41 60.5t-55 34.5q-16 -96 -52 -141t-81 -45zM97 36q21 0 42.5 35t31.5 93q-39 0 -69 -28t-30 -68q0 -14 6 -23t19 -9z" />
    <glyph glyph-name="currency" unicode="&#xa4;" horiz-adv-x="861" 
d="M428 51q-49 0 -102 23.5t-98.5 77.5t-73.5 146t-28 229q0 139 28.5 228t74.5 138t98.5 68t100.5 19q47 0 100 -19t99 -68t75 -138t29 -228q0 -137 -28.5 -229t-74 -146t-98.5 -77.5t-102 -23.5zM428 106q32 0 69.5 17.5t70.5 63t54.5 128t21.5 212.5q0 127 -21.5 205.5
t-54.5 120.5t-70.5 56.5t-69.5 14.5q-31 0 -69 -14.5t-71.5 -56.5t-55 -120.5t-21.5 -205.5q0 -130 21.5 -212.5t55 -128t71.5 -63t69 -17.5zM764 996l46 -47l-163 -158l-41 43zM773 45l-158 162l41 42l163 -158zM94 996l157 -162l-41 -43l-163 158zM86 45l-48 46l163 158
l42 -42z" />
    <glyph glyph-name="yen" unicode="&#xa5;" horiz-adv-x="632" 
d="M130 558v60h408v-60h-408zM130 329v60h408v-60h-408zM199 0v61h95v528l-177 750h-90v61h270v-61h-75l156 -715h-43l170 715h-77v61h233v-61h-92l-185 -744v-534h87v-61h-272z" />
    <glyph glyph-name="brokenbar" unicode="&#xa6;" horiz-adv-x="197" 
d="M69 871v629h61v-629h-61zM69 -329v620h61v-620h-61z" />
    <glyph glyph-name="section" unicode="&#xa7;" horiz-adv-x="530" 
d="M237 -378q-53 0 -91 27t-58 74.5t-20 109.5q0 35 11.5 55.5t36.5 20.5q23 0 33 -17t10 -42q0 -19 -3.5 -31t-7.5 -23t-4 -31q0 -47 33 -64.5t58 -17.5q44 0 75 29t47 77.5t16 104.5q0 74 -32.5 135t-81.5 119.5t-98.5 121.5t-82.5 140t-33 177q0 55 14.5 102.5t37 85.5
t47 66t44.5 42q-43 56 -67 106.5t-33.5 102.5t-9.5 108q0 69 23 118t62.5 75.5t90.5 26.5q81 0 119.5 -58.5t38.5 -151.5q0 -35 -10.5 -56t-34.5 -21q-23 0 -33.5 17t-10.5 42q0 20 4 30.5t7.5 21.5t3.5 32q0 35 -14 52.5t-33 24t-36 6.5q-49 0 -77.5 -38.5t-28.5 -97.5
q0 -108 33 -179t81 -125t96 -108.5t81 -126.5t33 -182q0 -73 -24.5 -130.5t-60 -97.5t-70.5 -62q41 -47 70.5 -92t45 -95.5t15.5 -117.5q0 -79 -27.5 -144t-75.5 -103t-109 -38zM279 259q50 27 84 90t34 134q0 69 -14.5 120.5t-52 105.5t-107.5 131q-43 -41 -74 -100.5
t-31 -123.5q0 -54 7.5 -95t25.5 -79t49.5 -81t78.5 -102z" />
    <glyph glyph-name="dieresis" unicode="&#xa8;" horiz-adv-x="785" 
d="M505 1239q-27 0 -47.5 19.5t-20.5 46.5q0 29 20.5 50t47.5 21t47.5 -21t20.5 -50q0 -27 -20.5 -46.5t-47.5 -19.5zM285 1239q-26 0 -46.5 19.5t-20.5 46.5q0 29 20.5 50t46.5 21q28 0 49 -21t21 -50q0 -27 -21 -46.5t-49 -19.5z" />
    <glyph glyph-name="copyright" unicode="&#xa9;" horiz-adv-x="1179" 
d="M592 -22q-106 0 -199 54.5t-163.5 152.5t-110.5 228.5t-40 282.5t40 282t110.5 228t163.5 152.5t199 54.5q105 0 197 -54.5t162.5 -152.5t110 -228t39.5 -282t-39.5 -282.5t-110 -228.5t-162.5 -152.5t-197 -54.5zM586 236q-72 0 -120 68t-71 177t-23 229q0 130 29 234
t81 164.5t118 60.5q79 0 115.5 -67.5t36.5 -156.5q0 -33 -9.5 -51.5t-31.5 -18.5q-21 0 -31 16.5t-10 40.5q0 18 3 28t6.5 21.5t3.5 30.5q0 51 -24 73t-58 22q-43 0 -71.5 -38t-45.5 -97t-24 -125.5t-7 -125.5q0 -74 7.5 -148.5t24 -136.5t44.5 -99t69 -37q50 0 85 37.5
t50 72.5l38 -53q-30 -61 -78 -91t-107 -30zM592 41q94 0 174.5 50.5t141 140.5t94 209t33.5 255t-33.5 254.5t-94 208.5t-141 140.5t-174.5 50.5q-96 0 -177 -50.5t-141.5 -140.5t-94 -208.5t-33.5 -254.5t33.5 -255t94 -209t141.5 -140.5t177 -50.5z" />
    <glyph glyph-name="ordfeminine" unicode="&#xaa;" horiz-adv-x="503" 
d="M221 1129q-49 0 -83 21.5t-34 77.5q0 43 31 68t71.5 40t71.5 27t31 30q0 41 -7 55.5t-48 14.5q-29 0 -47 -6.5t-18 -17.5q0 -8 1.5 -14t1.5 -14q0 -15 -8.5 -27t-27.5 -12q-17 0 -26 13.5t-9 30.5q0 39 39.5 67.5t99.5 28.5q65 0 94.5 -32t29.5 -93v-176q0 -28 25 -28
q16 0 24 9l19 -43q-5 -6 -23.5 -12t-43.5 -6q-27 0 -47.5 13.5t-24.5 37.5q-4 -13 -27.5 -33t-64.5 -20zM237 1186q24 0 48 17t24 40v88q-4 -9 -23.5 -16.5t-43 -17t-41 -24t-17.5 -37.5q0 -28 11 -39t42 -11z" />
    <glyph glyph-name="guillemotleft" unicode="&#xab;" horiz-adv-x="734" 
d="M540 304l-224 232l224 233h67l-222 -233l225 -232h-70zM349 304l-224 232l224 233h67l-222 -233l225 -232h-70z" />
    <glyph glyph-name="logicalnot" unicode="&#xac;" horiz-adv-x="626" 
d="M444 332v230l28 -27h-383v56h412v-259h-57z" />
    <glyph glyph-name="uni00AD" unicode="&#xad;" horiz-adv-x="484" 
d="M99 533v60h287v-60h-287z" />
    <glyph glyph-name="registered" unicode="&#xae;" horiz-adv-x="851" 
d="M433 366q-105 0 -190.5 64.5t-136 182.5t-50.5 277t50.5 276t136 182t190.5 65q104 0 188.5 -64.5t134.5 -182t50 -276.5t-50 -277t-134.5 -182.5t-188.5 -64.5zM433 417q93 0 165.5 59t114.5 165.5t42 248.5t-42 248.5t-114.5 165.5t-165.5 59q-94 0 -167.5 -59
t-115 -165.5t-41.5 -248.5t41.5 -248.5t115 -165.5t167.5 -59zM571 554q-21 0 -44 13t-23 66q0 45 1 84.5t1 79.5q0 41 -24.5 68t-83.5 27h-24v-291h53v-42h-168v42h56v599h-56v42h165q61 0 106.5 -39.5t45.5 -111.5q0 -78 -29.5 -126t-81.5 -51q46 -1 74.5 -29.5
t28.5 -86.5q0 -46 -0.5 -84.5t-0.5 -81.5q0 -15 4 -24t11 -9q16 0 16 21h41q0 -37 -23.5 -51.5t-44.5 -14.5zM375 931h29q41 0 65 23.5t34 59.5t10 74q0 31 -7.5 56.5t-29 40t-62.5 14.5h-39v-268z" />
    <glyph glyph-name="macron" unicode="&#xaf;" horiz-adv-x="917" 
d="M226 1360v60h604v-60h-604z" />
    <glyph glyph-name="degree" unicode="&#xb0;" horiz-adv-x="546" 
d="M273 1160q-41 0 -76 22.5t-56.5 65.5t-21.5 105q0 90 43 138.5t111 48.5q66 0 110 -45t44 -142t-44.5 -145t-109.5 -48zM273 1216q42 0 63 33t21 102q0 68 -21 101.5t-63 33.5q-41 0 -63.5 -34.5t-22.5 -102.5q0 -69 22.5 -101t63.5 -32z" />
    <glyph glyph-name="plusminus" unicode="&#xb1;" horiz-adv-x="819" 
d="M380 369v624h61v-624h-61zM99 651v60h622v-60h-622zM108 250v60h606v-60h-606z" />
    <glyph glyph-name="uni00B2" unicode="&#xb2;" horiz-adv-x="565" 
d="M359 697q-37 0 -64.5 11t-52.5 21.5t-58 10.5t-50.5 -12.5t-20.5 -24.5h-52q0 106 33.5 178.5t83 125t99 95.5t83.5 88t34 104q0 51 -19 79t-50.5 39.5t-71.5 11.5q-31 0 -55.5 -8.5t-38.5 -21t-14 -25.5q0 -11 3.5 -17t6.5 -13t3 -21q0 -22 -11.5 -32t-29.5 -10
t-30 12.5t-12 40.5q0 55 50 96.5t147 41.5q35 0 71.5 -7.5t68.5 -26t51 -52.5t19 -88q0 -59 -23.5 -101t-61 -75t-81 -64.5t-84 -69t-71 -88t-40.5 -122.5q5 8 17.5 15t31 12.5t41.5 5.5q27 0 54.5 -8.5t53.5 -18t46 -9.5q30 0 46.5 13.5t16.5 51.5h50v-18q0 -33 -13 -60
t-39.5 -43.5t-66.5 -16.5z" />
    <glyph glyph-name="uni00B3" unicode="&#xb3;" horiz-adv-x="570" 
d="M259 690q-64 0 -103.5 19.5t-58 51.5t-18.5 68q0 28 12.5 41t30.5 13q19 0 29 -9t10 -30q0 -14 -4 -21.5l-8 -15t-4 -22.5q0 -20 27.5 -35.5t74.5 -15.5q41 0 76 12.5t57 47t22 102.5q0 59 -19.5 94.5t-47.5 53.5t-57 24t-47 6v45q18 0 47 5t57.5 22.5t48 54t19.5 97.5
q0 44 -18.5 71.5t-52 40.5t-78.5 13q-48 0 -77.5 -14.5t-29.5 -33.5q0 -17 3.5 -25t7 -14.5t3.5 -20.5q0 -22 -10 -31.5t-28 -9.5q-19 0 -31.5 13.5t-12.5 41.5q0 37 20 68t62 50.5t106 19.5q65 0 115.5 -20.5t79 -58.5t28.5 -92q0 -48 -18.5 -85t-47.5 -62t-62 -38.5
t-61 -13.5q29 -1 62 -14.5t62.5 -38t48 -62t18.5 -87.5q0 -80 -60 -142.5t-173 -62.5z" />
    <glyph glyph-name="acute" unicode="&#xb4;" horiz-adv-x="574" 
d="M195 1270l-28 31l169 132q25 22 53.5 26.5t41.5 -20.5q14 -23 -7 -44t-50 -35z" />
    <glyph glyph-name="uni00B5" unicode="&#xb5;" horiz-adv-x="660" 
d="M306 -22q-47 0 -89.5 21.5t-69 81.5t-26.5 175v789h90v-781q0 -89 15 -135.5t39.5 -63t51.5 -16.5q45 0 76 44.5t47 113t16 140.5v699h90v-985h92v-61h-174l-2 130q-4 -31 -22 -66.5t-51 -60.5t-83 -25zM121 450h90v-943h-90v943z" />
    <glyph glyph-name="paragraph" unicode="&#xb6;" horiz-adv-x="611" 
d="M211 -260q-63 0 -93 32t-39.5 73.5t-9.5 71.5q0 37 11.5 61.5t39.5 24.5q29 0 41 -21.5t12 -53.5q0 -28 -2.5 -42t-5.5 -23.5t-3 -27.5q0 -22 10.5 -31.5t36.5 -9.5q29 0 51 27.5t34.5 78.5t12.5 120v678q-7 -38 -34.5 -62.5t-62.5 -24.5h-2q-70 0 -119.5 112t-49.5 293
q0 117 25.5 203t70.5 133.5t102 47.5h339v-61h-80v-1274q0 -84 -20.5 -141.5t-54.5 -94t-72.5 -55.5t-75 -26.5t-62.5 -7.5zM301 -199q47 22 83 79.5t36 174.5v1284h-55v-1332q0 -76 -13.5 -124.5t-50.5 -81.5z" />
    <glyph glyph-name="periodcentered" unicode="&#xb7;" horiz-adv-x="326" 
d="M177 722q-34 0 -58.5 25.5t-24.5 59.5q0 36 24.5 60t58.5 24t59 -24t25 -60q0 -34 -25 -59.5t-59 -25.5z" />
    <glyph glyph-name="cedilla" unicode="&#xb8;" horiz-adv-x="597" 
d="M292 -263q-54 0 -90.5 12.5t-51.5 20.5l19 46q10 -7 43 -16.5t81 -9.5q32 0 49 11t17 34q0 22 -14 31t-38 9q-16 0 -37 -7t-34 -20l-58 4l55 137h61l-44 -97q10 12 31 22t49 10q40 0 66 -23t26 -66q0 -56 -41.5 -77t-88.5 -21z" />
    <glyph glyph-name="uni00B9" unicode="&#xb9;" horiz-adv-x="409" 
d="M83 704v42h79v610q-6 -11 -35 -23t-47 -15v46q20 5 38.5 14.5t34.5 25t28 36.5t18 48h43v-742h81v-42h-240z" />
    <glyph glyph-name="ordmasculine" unicode="&#xba;" horiz-adv-x="482" 
d="M241 1140q-74 0 -128 54.5t-54 136.5q0 80 54 134.5t128 54.5q75 0 128.5 -54.5t53.5 -134.5q0 -82 -53.5 -136.5t-128.5 -54.5zM241 1191q46 0 80 37t34 103q0 64 -34 102t-80 38t-79 -38t-33 -102q0 -66 33 -103t79 -37z" />
    <glyph glyph-name="guillemotright" unicode="&#xbb;" horiz-adv-x="741" 
d="M323 304l226 232l-222 233h67l223 -233l-223 -232h-71zM125 304l226 232l-222 233h67l223 -233l-223 -232h-71z" />
    <glyph glyph-name="onequarter" unicode="&#xbc;" horiz-adv-x="1128" 
d="M83 649v42h79v610q-6 -11 -35 -23t-47 -15v46q20 5 38.5 14.5t34.5 25t28 36.5t18 48h43v-742h81v-42h-240zM51 0l871 1400h57l-869 -1400h-59zM778 0v42h100v144h-216v42l189 443q16 19 32 44.5t26 53.5h55v-541h17q21 0 29.5 21.5t8.5 62.5h48v-126h-103v-144h98v-42
h-284zM715 225l-4 3h169v391l-26 -68z" />
    <glyph glyph-name="onehalf" unicode="&#xbd;" horiz-adv-x="1186" 
d="M83 649v42h79v610q-6 -11 -35 -23t-47 -15v46q20 5 38.5 14.5t34.5 25t28 36.5t18 48h43v-742h81v-42h-240zM51 0l871 1400h57l-869 -1400h-59zM980 -6q-37 0 -64.5 10.5t-52.5 21.5t-58 11t-50.5 -12.5t-20.5 -24.5h-52q0 105 33.5 178t83 125.5t99 95.5t83.5 88t34 104
q0 51 -19 79t-50.5 39.5t-71.5 11.5q-31 0 -55.5 -8.5t-38.5 -21t-14 -25.5q0 -11 3.5 -17t6.5 -13t3 -21q0 -22 -11.5 -32t-29.5 -10t-30 12.5t-12 40.5q0 55 50 96.5t147 41.5q35 0 71.5 -7.5t68.5 -26t51 -52.5t19 -88q0 -59 -23.5 -101t-61 -75t-81 -64.5t-84 -69
t-71 -88t-40.5 -122.5q5 8 17.5 15t31 12.5t41.5 5.5q27 0 54.5 -8.5t53.5 -18t46 -9.5q30 0 46.5 13.5t16.5 51.5h50v-18q0 -33 -13 -60t-39.5 -43.5t-66.5 -16.5z" />
    <glyph glyph-name="threequarters" unicode="&#xbe;" horiz-adv-x="1288" 
d="M259 635q-64 0 -103.5 19.5t-58 51.5t-18.5 68q0 28 12.5 41t30.5 13q19 0 29 -9t10 -30q0 -14 -4 -21.5l-8 -15t-4 -22.5q0 -20 27.5 -35.5t74.5 -15.5q41 0 76 12.5t57 47t22 102.5q0 59 -19.5 94.5t-47.5 53.5t-57 24t-47 6v45q18 0 47 5t57.5 22.5t48 54t19.5 97.5
q0 44 -18.5 71.5t-52 40.5t-78.5 13q-48 0 -77.5 -14.5t-29.5 -33.5q0 -17 3.5 -25t7 -14.5t3.5 -20.5q0 -22 -10 -31.5t-28 -9.5q-19 0 -31.5 13.5t-12.5 41.5q0 37 20 68t62 50.5t106 19.5q65 0 115.5 -20.5t79 -58.5t28.5 -92q0 -48 -18.5 -85t-47.5 -62t-62 -38.5
t-61 -13.5q29 -1 62 -14.5t62.5 -38t48 -62t18.5 -87.5q0 -80 -60 -142.5t-173 -62.5zM212 0l871 1400h57l-869 -1400h-59zM939 0v42h100v144h-216v42l189 443q16 19 32 44.5t26 53.5h55v-541h17q21 0 29.5 21.5t8.5 62.5h48v-126h-103v-144h98v-42h-284zM876 225l-4 3h169
v391l-26 -68z" />
    <glyph glyph-name="questiondown" unicode="&#xbf;" horiz-adv-x="543" 
d="M357 862q0 -131 -22 -231t-54 -179.5t-65 -149.5t-55 -141t-22 -155q0 -124 38 -183.5t125 -59.5q61 0 92.5 33t31.5 70q0 24 -3.5 39t-7.5 30t-4 35q0 37 13 51.5t32 14.5q20 0 35 -19.5t15 -76.5q0 -74 -26 -127.5t-76 -81.5t-120 -28q-48 0 -90.5 14.5t-75.5 48.5
t-52 92t-19 144q0 89 25 162t61.5 143t73 148.5t61.5 177t25 229.5h64zM326 1140q34 0 58.5 -25.5t24.5 -59.5q0 -36 -24.5 -60.5t-58.5 -24.5t-59 24.5t-25 60.5q0 34 25 59.5t59 25.5z" />
    <glyph glyph-name="Agrave" unicode="&#xc0;" horiz-adv-x="650" 
d="M12 0v61h79l184 1343h87l182 -1343h98v-61h-283v61h89l-143 1143h-1l-149 -1143h78v-61h-221zM170 344v58h263v-58h-263zM433 1447l-195 90q-24 12 -38 23t-14 33q0 21 13.5 31t33.5 10q18 0 31.5 -6.5t26.5 -18.5l165 -134z" />
    <glyph glyph-name="Aacute" unicode="&#xc1;" horiz-adv-x="650" 
d="M12 0v61h79l184 1343h87l182 -1343h98v-61h-283v61h89l-143 1143h-1l-149 -1143h78v-61h-221zM170 344v58h263v-58h-263zM208 1446l-28 31l168 131q14 11 30.5 19.5t29.5 8.5q12 0 21 -5.5t15 -15.5q4 -8 4 -18q0 -19 -18.5 -35t-42.5 -27z" />
    <glyph glyph-name="Acircumflex" unicode="&#xc2;" horiz-adv-x="650" 
d="M12 0v61h79l184 1343h87l182 -1343h98v-61h-283v61h89l-143 1143h-1l-149 -1143h78v-61h-221zM170 344v58h263v-58h-263zM137 1457l148 209h69l146 -209h-63l-118 142l-119 -142h-63z" />
    <glyph glyph-name="Atilde" unicode="&#xc3;" horiz-adv-x="650" 
d="M12 0v61h79l184 1343h87l182 -1343h98v-61h-283v61h89l-143 1143h-1l-149 -1143h78v-61h-221zM170 344v58h263v-58h-263zM404 1474q-39 0 -64.5 17.5t-48 35.5t-49.5 18q-30 0 -45.5 -21t-20.5 -34l-57 31q5 19 20 41.5t39.5 40t57.5 17.5q39 0 66.5 -18t51 -36.5
t51.5 -18.5q25 0 38.5 16.5t19.5 29.5l55 -37q-4 -16 -19 -35.5t-39 -33t-56 -13.5z" />
    <glyph glyph-name="Adieresis" unicode="&#xc4;" horiz-adv-x="650" 
d="M12 0v61h79l184 1343h87l182 -1343h98v-61h-283v61h89l-143 1143h-1l-149 -1143h78v-61h-221zM170 344v58h263v-58h-263zM428 1499q-27 0 -47.5 19.5t-20.5 46.5q0 29 20.5 50t47.5 21t47.5 -21t20.5 -50q0 -27 -20.5 -46.5t-47.5 -19.5zM208 1499q-26 0 -46.5 19.5
t-20.5 46.5q0 29 20.5 50t46.5 21q28 0 49 -21t21 -50q0 -27 -21 -46.5t-49 -19.5z" />
    <glyph glyph-name="Aring" unicode="&#xc5;" horiz-adv-x="650" 
d="M12 0v61h79l184 1343h87l182 -1343h98v-61h-283v61h89l-143 1143h-1l-149 -1143h78v-61h-221zM170 344v58h263v-58h-263zM319 1461q-44 0 -74.5 32.5t-30.5 85.5q0 55 30.5 86.5t74.5 31.5t75 -31.5t31 -86.5q0 -53 -31 -85.5t-75 -32.5zM319 1503q28 0 40.5 22.5
t12.5 55.5q0 29 -12.5 51.5t-40.5 22.5q-26 0 -39 -22.5t-13 -51.5q0 -33 13 -55.5t39 -22.5z" />
    <glyph glyph-name="AE" unicode="&#xc6;" horiz-adv-x="973" 
d="M381 0v61h89v1339h413v-259h-60q0 73 -6 116.5t-31 62.5t-84 19h-143v-588h245v100h59v-258h-59v98h-245v-630h134q63 0 90 19.5t33.5 64t6.5 117.5h60v-262h-502zM208 316l4 60h282l-4 -60h-282zM18 0v61h62l345 1339h61l-338 -1339h73v-61h-203z" />
    <glyph glyph-name="Ccedilla" unicode="&#xc7;" horiz-adv-x="602" 
d="M365 -20q-131 0 -217.5 181t-86.5 537q0 127 19.5 255t58.5 234t97.5 170.5t136.5 64.5q51 0 89 -38t58 -96t20 -119q0 -44 -13 -62t-36 -18q-24 0 -38 16.5t-14 50.5q0 21 5 37t10 36t5 52q0 37 -22 58.5t-50 21.5q-45 0 -82 -41t-64.5 -111t-46 -156t-28 -177.5
t-9.5 -175.5q0 -122 11 -225.5t30.5 -183.5t47 -136t59 -85t67.5 -29q37 0 63.5 26t44 63t27.5 70l55 -24q-16 -49 -43.5 -93.5t-65.5 -73.5t-88 -29zM381 -287q-54 0 -90.5 10t-51.5 18l22 50q10 -7 41 -16t79 -9q32 0 58.5 15t26.5 43q0 31 -18.5 40.5t-42.5 9.5
q-16 0 -37 -7.5t-35 -21.5l-57 4l62 151h61l-48 -104q5 8 28 17.5t51 9.5q38 0 70 -22t32 -77q0 -42 -24.5 -66.5t-60 -34.5t-66.5 -10z" />
    <glyph glyph-name="Egrave" unicode="&#xc8;" horiz-adv-x="638" 
d="M58 0v61h91v1278h-91v61h503v-259h-61q0 81 -6 124t-25 58.5t-57 15.5h-173v-608h218v100h56v-258h-56v98h-218v-610h172q39 0 57.5 16.5t25 60t6.5 124.5h61v-262h-503zM443 1447l-195 90q-24 12 -38 23t-14 33q0 21 13.5 31t33.5 10q18 0 31.5 -6.5t26.5 -18.5
l165 -134z" />
    <glyph glyph-name="Eacute" unicode="&#xc9;" horiz-adv-x="638" 
d="M58 0v61h91v1278h-91v61h503v-259h-61q0 81 -6 124t-25 58.5t-57 15.5h-173v-608h218v100h56v-258h-56v98h-218v-610h172q39 0 57.5 16.5t25 60t6.5 124.5h61v-262h-503zM218 1446l-28 31l168 131q14 11 30.5 19.5t29.5 8.5q12 0 21 -5.5t15 -15.5q4 -8 4 -18
q0 -19 -18.5 -35t-42.5 -27z" />
    <glyph glyph-name="Ecircumflex" unicode="&#xca;" horiz-adv-x="638" 
d="M58 0v61h91v1278h-91v61h503v-259h-61q0 81 -6 124t-25 58.5t-57 15.5h-173v-608h218v100h56v-258h-56v98h-218v-610h172q39 0 57.5 16.5t25 60t6.5 124.5h61v-262h-503zM147 1457l148 209h69l146 -209h-63l-118 142l-119 -142h-63z" />
    <glyph glyph-name="Edieresis" unicode="&#xcb;" horiz-adv-x="638" 
d="M58 0v61h91v1278h-91v61h503v-259h-61q0 81 -6 124t-25 58.5t-57 15.5h-173v-608h218v100h56v-258h-56v98h-218v-610h172q39 0 57.5 16.5t25 60t6.5 124.5h61v-262h-503zM438 1499q-27 0 -47.5 19.5t-20.5 46.5q0 29 20.5 50t47.5 21t47.5 -21t20.5 -50
q0 -27 -20.5 -46.5t-47.5 -19.5zM218 1499q-26 0 -46.5 19.5t-20.5 46.5q0 29 20.5 50t46.5 21q28 0 49 -21t21 -50q0 -27 -21 -46.5t-49 -19.5z" />
    <glyph glyph-name="Igrave" unicode="&#xcc;" horiz-adv-x="414" 
d="M68 0v61h94v1278h-94v61h278v-61h-95v-1278h95v-61h-278zM322 1447l-195 90q-24 12 -38 23t-14 33q0 21 13.5 31t33.5 10q18 0 31.5 -6.5t26.5 -18.5l165 -134z" />
    <glyph glyph-name="Iacute" unicode="&#xcd;" horiz-adv-x="414" 
d="M68 0v61h94v1278h-94v61h278v-61h-95v-1278h95v-61h-278zM97 1446l-28 31l168 131q14 11 30.5 19.5t29.5 8.5q12 0 21 -5.5t15 -15.5q4 -8 4 -18q0 -19 -18.5 -35t-42.5 -27z" />
    <glyph glyph-name="Icircumflex" unicode="&#xce;" horiz-adv-x="414" 
d="M68 0v61h94v1278h-94v61h278v-61h-95v-1278h95v-61h-278zM26 1457l148 209h69l146 -209h-63l-118 142l-119 -142h-63z" />
    <glyph glyph-name="Idieresis" unicode="&#xcf;" horiz-adv-x="414" 
d="M68 0v61h94v1278h-94v61h278v-61h-95v-1278h95v-61h-278zM317 1499q-27 0 -47.5 19.5t-20.5 46.5q0 29 20.5 50t47.5 21t47.5 -21t20.5 -50q0 -27 -20.5 -46.5t-47.5 -19.5zM97 1499q-26 0 -46.5 19.5t-20.5 46.5q0 29 20.5 50t46.5 21q28 0 49 -21t21 -50
q0 -27 -21 -46.5t-49 -19.5z" />
    <glyph glyph-name="Eth" unicode="&#xd0;" horiz-adv-x="765" 
d="M46 688v60h362v-60h-362zM58 0v61h90v1278h-90v61h257q92 0 167.5 -74.5t121 -227t45.5 -387.5q0 -237 -45.5 -395t-121.5 -237t-167 -79h-257zM238 61h53q68 0 128 65t97.5 208t37.5 377q0 203 -33.5 343t-85.5 212.5t-109 72.5h-88v-1278z" />
    <glyph glyph-name="Ntilde" unicode="&#xd1;" horiz-adv-x="775" 
d="M35 0v61h92v1278h-92v61h223l335 -1213h-4v1152h-92v61h243v-61h-89v-1339h-103l-363 1317h5v-1256h104v-61h-259zM471 1474q-39 0 -64.5 17.5t-48 35.5t-49.5 18q-30 0 -45.5 -21t-20.5 -34l-57 31q5 19 20 41.5t39.5 40t57.5 17.5q39 0 66.5 -18t51 -36.5t51.5 -18.5
q25 0 38.5 16.5t19.5 29.5l55 -37q-4 -16 -19 -35.5t-39 -33t-56 -13.5z" />
    <glyph glyph-name="Ograve" unicode="&#xd2;" horiz-adv-x="691" 
d="M344 -22q-93 0 -156.5 93.5t-95 255.5t-31.5 371q0 210 31.5 373t95 257t156.5 94q94 0 158 -94t96.5 -257t32.5 -373q0 -209 -32.5 -371t-96.5 -255.5t-158 -93.5zM344 39q48 0 83.5 49t59.5 139t36.5 210t12.5 261t-12.5 261.5t-36.5 211t-59.5 140.5t-83.5 50
q-47 0 -82.5 -50t-58.5 -140.5t-34.5 -211t-11.5 -261.5t11.5 -261t34.5 -210t58.5 -139t82.5 -49zM460 1447l-195 90q-24 12 -38 23t-14 33q0 21 13.5 31t33.5 10q18 0 31.5 -6.5t26.5 -18.5l165 -134z" />
    <glyph glyph-name="Oacute" unicode="&#xd3;" horiz-adv-x="691" 
d="M344 -22q-93 0 -156.5 93.5t-95 255.5t-31.5 371q0 210 31.5 373t95 257t156.5 94q94 0 158 -94t96.5 -257t32.5 -373q0 -209 -32.5 -371t-96.5 -255.5t-158 -93.5zM344 39q48 0 83.5 49t59.5 139t36.5 210t12.5 261t-12.5 261.5t-36.5 211t-59.5 140.5t-83.5 50
q-47 0 -82.5 -50t-58.5 -140.5t-34.5 -211t-11.5 -261.5t11.5 -261t34.5 -210t58.5 -139t82.5 -49zM235 1446l-28 31l168 131q14 11 30.5 19.5t29.5 8.5q12 0 21 -5.5t15 -15.5q4 -8 4 -18q0 -19 -18.5 -35t-42.5 -27z" />
    <glyph glyph-name="Ocircumflex" unicode="&#xd4;" horiz-adv-x="691" 
d="M344 -22q-93 0 -156.5 93.5t-95 255.5t-31.5 371q0 210 31.5 373t95 257t156.5 94q94 0 158 -94t96.5 -257t32.5 -373q0 -209 -32.5 -371t-96.5 -255.5t-158 -93.5zM344 39q48 0 83.5 49t59.5 139t36.5 210t12.5 261t-12.5 261.5t-36.5 211t-59.5 140.5t-83.5 50
q-47 0 -82.5 -50t-58.5 -140.5t-34.5 -211t-11.5 -261.5t11.5 -261t34.5 -210t58.5 -139t82.5 -49zM164 1457l148 209h69l146 -209h-63l-118 142l-119 -142h-63z" />
    <glyph glyph-name="Otilde" unicode="&#xd5;" horiz-adv-x="691" 
d="M344 -22q-93 0 -156.5 93.5t-95 255.5t-31.5 371q0 210 31.5 373t95 257t156.5 94q94 0 158 -94t96.5 -257t32.5 -373q0 -209 -32.5 -371t-96.5 -255.5t-158 -93.5zM344 39q48 0 83.5 49t59.5 139t36.5 210t12.5 261t-12.5 261.5t-36.5 211t-59.5 140.5t-83.5 50
q-47 0 -82.5 -50t-58.5 -140.5t-34.5 -211t-11.5 -261.5t11.5 -261t34.5 -210t58.5 -139t82.5 -49zM431 1474q-39 0 -64.5 17.5t-48 35.5t-49.5 18q-30 0 -45.5 -21t-20.5 -34l-57 31q5 19 20 41.5t39.5 40t57.5 17.5q39 0 66.5 -18t51 -36.5t51.5 -18.5q25 0 38.5 16.5
t19.5 29.5l55 -37q-4 -16 -19 -35.5t-39 -33t-56 -13.5z" />
    <glyph glyph-name="Odieresis" unicode="&#xd6;" horiz-adv-x="691" 
d="M344 -22q-93 0 -156.5 93.5t-95 255.5t-31.5 371q0 210 31.5 373t95 257t156.5 94q94 0 158 -94t96.5 -257t32.5 -373q0 -209 -32.5 -371t-96.5 -255.5t-158 -93.5zM344 39q48 0 83.5 49t59.5 139t36.5 210t12.5 261t-12.5 261.5t-36.5 211t-59.5 140.5t-83.5 50
q-47 0 -82.5 -50t-58.5 -140.5t-34.5 -211t-11.5 -261.5t11.5 -261t34.5 -210t58.5 -139t82.5 -49zM455 1499q-27 0 -47.5 19.5t-20.5 46.5q0 29 20.5 50t47.5 21t47.5 -21t20.5 -50q0 -27 -20.5 -46.5t-47.5 -19.5zM235 1499q-26 0 -46.5 19.5t-20.5 46.5q0 29 20.5 50
t46.5 21q28 0 49 -21t21 -50q0 -27 -21 -46.5t-49 -19.5z" />
    <glyph glyph-name="multiply" unicode="&#xd7;" horiz-adv-x="757" 
d="M612 294l-493 492l48 47l492 -492zM167 294l-44 43l490 491l45 -43z" />
    <glyph glyph-name="Oslash" unicode="&#xd8;" horiz-adv-x="738" 
d="M99 -104l506 1608h63l-505 -1608h-64zM344 -22q-93 0 -156.5 93.5t-95 255.5t-31.5 371q0 210 31.5 373t95 257t156.5 94q94 0 158 -94t96.5 -257t32.5 -373q0 -209 -32.5 -371t-96.5 -255.5t-158 -93.5zM344 39q48 0 83.5 49t59.5 139t36.5 210t12.5 261t-12.5 261.5
t-36.5 211t-59.5 140.5t-83.5 50q-47 0 -82.5 -50t-58.5 -140.5t-34.5 -211t-11.5 -261.5t11.5 -261t34.5 -210t58.5 -139t82.5 -49z" />
    <glyph glyph-name="Ugrave" unicode="&#xd9;" horiz-adv-x="707" 
d="M357 -24q-41 0 -81 15t-72 50.5t-51.5 96.5t-19.5 153v1048h-95v61h280v-61h-94v-1038q0 -148 40.5 -204t103.5 -56q31 0 57.5 12.5t46.5 40.5t31 77t11 123v1045h-83v61h238v-61h-94v-1057q0 -117 -30 -183.5t-79.5 -94.5t-108.5 -28zM469 1447l-195 90q-24 12 -38 23
t-14 33q0 21 13.5 31t33.5 10q18 0 31.5 -6.5t26.5 -18.5l165 -134z" />
    <glyph glyph-name="Uacute" unicode="&#xda;" horiz-adv-x="707" 
d="M357 -24q-41 0 -81 15t-72 50.5t-51.5 96.5t-19.5 153v1048h-95v61h280v-61h-94v-1038q0 -148 40.5 -204t103.5 -56q31 0 57.5 12.5t46.5 40.5t31 77t11 123v1045h-83v61h238v-61h-94v-1057q0 -117 -30 -183.5t-79.5 -94.5t-108.5 -28zM244 1446l-28 31l168 131
q14 11 30.5 19.5t29.5 8.5q12 0 21 -5.5t15 -15.5q4 -8 4 -18q0 -19 -18.5 -35t-42.5 -27z" />
    <glyph glyph-name="Ucircumflex" unicode="&#xdb;" horiz-adv-x="707" 
d="M357 -24q-41 0 -81 15t-72 50.5t-51.5 96.5t-19.5 153v1048h-95v61h280v-61h-94v-1038q0 -148 40.5 -204t103.5 -56q31 0 57.5 12.5t46.5 40.5t31 77t11 123v1045h-83v61h238v-61h-94v-1057q0 -117 -30 -183.5t-79.5 -94.5t-108.5 -28zM173 1457l148 209h69l146 -209h-63
l-118 142l-119 -142h-63z" />
    <glyph glyph-name="Udieresis" unicode="&#xdc;" horiz-adv-x="707" 
d="M357 -24q-41 0 -81 15t-72 50.5t-51.5 96.5t-19.5 153v1048h-95v61h280v-61h-94v-1038q0 -148 40.5 -204t103.5 -56q31 0 57.5 12.5t46.5 40.5t31 77t11 123v1045h-83v61h238v-61h-94v-1057q0 -117 -30 -183.5t-79.5 -94.5t-108.5 -28zM464 1499q-27 0 -47.5 19.5
t-20.5 46.5q0 29 20.5 50t47.5 21t47.5 -21t20.5 -50q0 -27 -20.5 -46.5t-47.5 -19.5zM244 1499q-26 0 -46.5 19.5t-20.5 46.5q0 29 20.5 50t46.5 21q28 0 49 -21t21 -50q0 -27 -21 -46.5t-49 -19.5z" />
    <glyph glyph-name="Yacute" unicode="&#xdd;" horiz-adv-x="669" 
d="M199 0v61h95v528l-177 750h-90v61h270v-61h-75l156 -715h-43l170 715h-77v61h233v-61h-92l-185 -744v-534h87v-61h-272zM225 1446l-28 31l168 131q14 11 30.5 19.5t29.5 8.5q12 0 21 -5.5t15 -15.5q4 -8 4 -18q0 -19 -18.5 -35t-42.5 -27z" />
    <glyph glyph-name="Thorn" unicode="&#xde;" horiz-adv-x="741" 
d="M221 300v67h76q75 0 129.5 48t84.5 134t30 199q0 107 -27.5 186.5t-77.5 123.5t-117 44h-98v66h130q81 0 148 -51.5t107 -146t40 -222.5q0 -133 -41.5 -234t-111.5 -157.5t-156 -56.5h-116zM68 0v61h94v1278h-94v61h278v-61h-95v-1278h95v-61h-278z" />
    <glyph glyph-name="germandbls" unicode="&#xdf;" horiz-adv-x="783" 
d="M492 -24q-54 0 -86 29t-32 85q0 33 16 51t38 18q20 0 30.5 -11.5t10.5 -35.5q0 -13 -3.5 -21t-8 -14.5t-4.5 -16.5q0 -11 6.5 -17.5t27.5 -6.5q43 0 71 30.5t42.5 88.5t14.5 140q0 62 -21.5 114t-52.5 98.5t-62.5 90.5t-53 90t-21.5 98q0 46 11.5 84t28.5 72.5t34 72.5
t28.5 84t11.5 105q0 85 -30.5 123.5t-81.5 38.5q-60 0 -94.5 -46.5t-49 -122t-14.5 -162.5v-1035h-204v61h114v963q0 124 29 213t83.5 138t128.5 49q75 0 128.5 -57.5t53.5 -162.5q0 -75 -16 -133t-36.5 -105t-36.5 -86.5t-16 -76.5q0 -40 23.5 -82t57 -87.5t67.5 -96.5
t57 -109t23 -126q0 -96 -28 -169.5t-75.5 -115t-108.5 -41.5z" />
    <glyph glyph-name="agrave" unicode="&#xe0;" horiz-adv-x="594" 
d="M250 -20q-57 0 -100 28.5t-67.5 85.5t-24.5 143q0 91 33.5 151.5t83 103t99 77.5t83 73t33.5 91q0 77 -11 135t-37.5 90t-72.5 32q-51 0 -84.5 -37t-33.5 -83q0 -20 4 -31.5t8 -22t4 -29.5q0 -27 -12 -45.5t-35 -18.5t-34.5 20.5t-11.5 56.5q0 71 25 129t71 91.5
t107 33.5q62 0 107 -31t70.5 -99t25.5 -179v-627q0 -38 9.5 -51t27.5 -13q14 0 24 5.5t14 10.5l31 -53q-11 -11 -35 -19t-54 -8q-27 0 -48.5 10.5t-34 30.5t-13.5 51q-7 -20 -24 -44t-48 -41t-79 -17zM263 49q42 0 70 31.5t42.5 74t14.5 71.5v379q-2 -28 -38 -56.5
t-81.5 -66.5t-80 -95.5t-34.5 -144.5q0 -94 27 -143.5t80 -49.5zM396 1103l-195 90q-24 12 -38 23t-14 33q0 21 13.5 31t33.5 10q18 0 31.5 -6.5t26.5 -18.5l165 -134z" />
    <glyph glyph-name="aacute" unicode="&#xe1;" horiz-adv-x="594" 
d="M250 -20q-57 0 -100 28.5t-67.5 85.5t-24.5 143q0 91 33.5 151.5t83 103t99 77.5t83 73t33.5 91q0 77 -11 135t-37.5 90t-72.5 32q-51 0 -84.5 -37t-33.5 -83q0 -20 4 -31.5t8 -22t4 -29.5q0 -27 -12 -45.5t-35 -18.5t-34.5 20.5t-11.5 56.5q0 71 25 129t71 91.5
t107 33.5q62 0 107 -31t70.5 -99t25.5 -179v-627q0 -38 9.5 -51t27.5 -13q14 0 24 5.5t14 10.5l31 -53q-11 -11 -35 -19t-54 -8q-27 0 -48.5 10.5t-34 30.5t-13.5 51q-7 -20 -24 -44t-48 -41t-79 -17zM263 49q42 0 70 31.5t42.5 74t14.5 71.5v379q-2 -28 -38 -56.5
t-81.5 -66.5t-80 -95.5t-34.5 -144.5q0 -94 27 -143.5t80 -49.5zM172 1077l-28 32l169 131q14 12 30 20t29 8q12 0 21 -5.5t15 -15.5q4 -8 4 -18q0 -19 -18.5 -35t-42.5 -27z" />
    <glyph glyph-name="acircumflex" unicode="&#xe2;" horiz-adv-x="594" 
d="M250 -20q-57 0 -100 28.5t-67.5 85.5t-24.5 143q0 91 33.5 151.5t83 103t99 77.5t83 73t33.5 91q0 77 -11 135t-37.5 90t-72.5 32q-51 0 -84.5 -37t-33.5 -83q0 -20 4 -31.5t8 -22t4 -29.5q0 -27 -12 -45.5t-35 -18.5t-34.5 20.5t-11.5 56.5q0 71 25 129t71 91.5
t107 33.5q62 0 107 -31t70.5 -99t25.5 -179v-627q0 -38 9.5 -51t27.5 -13q14 0 24 5.5t14 10.5l31 -53q-11 -11 -35 -19t-54 -8q-27 0 -48.5 10.5t-34 30.5t-13.5 51q-7 -20 -24 -44t-48 -41t-79 -17zM263 49q42 0 70 31.5t42.5 74t14.5 71.5v379q-2 -28 -38 -56.5
t-81.5 -66.5t-80 -95.5t-34.5 -144.5q0 -94 27 -143.5t80 -49.5zM101 1118l148 209h69l146 -209h-63l-118 142l-119 -142h-63z" />
    <glyph glyph-name="atilde" unicode="&#xe3;" horiz-adv-x="594" 
d="M250 -20q-57 0 -100 28.5t-67.5 85.5t-24.5 143q0 91 33.5 151.5t83 103t99 77.5t83 73t33.5 91q0 77 -11 135t-37.5 90t-72.5 32q-51 0 -84.5 -37t-33.5 -83q0 -20 4 -31.5t8 -22t4 -29.5q0 -27 -12 -45.5t-35 -18.5t-34.5 20.5t-11.5 56.5q0 71 25 129t71 91.5
t107 33.5q62 0 107 -31t70.5 -99t25.5 -179v-627q0 -38 9.5 -51t27.5 -13q14 0 24 5.5t14 10.5l31 -53q-11 -11 -35 -19t-54 -8q-27 0 -48.5 10.5t-34 30.5t-13.5 51q-7 -20 -24 -44t-48 -41t-79 -17zM263 49q42 0 70 31.5t42.5 74t14.5 71.5v379q-2 -28 -38 -56.5
t-81.5 -66.5t-80 -95.5t-34.5 -144.5q0 -94 27 -143.5t80 -49.5zM368 1125q-39 0 -64.5 17.5t-48 35.5t-49.5 18q-30 0 -45.5 -21t-20.5 -34l-57 31q5 19 20 41.5t39.5 40t57.5 17.5q39 0 66.5 -18t51 -36.5t51.5 -18.5q25 0 38.5 16.5t19.5 29.5l55 -37q-4 -16 -19 -35.5
t-39 -33t-56 -13.5z" />
    <glyph glyph-name="adieresis" unicode="&#xe4;" horiz-adv-x="594" 
d="M250 -20q-57 0 -100 28.5t-67.5 85.5t-24.5 143q0 91 33.5 151.5t83 103t99 77.5t83 73t33.5 91q0 77 -11 135t-37.5 90t-72.5 32q-51 0 -84.5 -37t-33.5 -83q0 -20 4 -31.5t8 -22t4 -29.5q0 -27 -12 -45.5t-35 -18.5t-34.5 20.5t-11.5 56.5q0 71 25 129t71 91.5
t107 33.5q62 0 107 -31t70.5 -99t25.5 -179v-627q0 -38 9.5 -51t27.5 -13q14 0 24 5.5t14 10.5l31 -53q-11 -11 -35 -19t-54 -8q-27 0 -48.5 10.5t-34 30.5t-13.5 51q-7 -20 -24 -44t-48 -41t-79 -17zM263 49q42 0 70 31.5t42.5 74t14.5 71.5v379q-2 -28 -38 -56.5
t-81.5 -66.5t-80 -95.5t-34.5 -144.5q0 -94 27 -143.5t80 -49.5zM392 1123q-27 0 -47.5 20t-20.5 46q0 29 20.5 50t47.5 21t47.5 -21t20.5 -50q0 -26 -20.5 -46t-47.5 -20zM172 1123q-26 0 -46.5 20t-20.5 46q0 29 20.5 50t46.5 21q28 0 49 -21t21 -50q0 -26 -21 -46
t-49 -20z" />
    <glyph glyph-name="aring" unicode="&#xe5;" horiz-adv-x="594" 
d="M250 -20q-57 0 -100 28.5t-67.5 85.5t-24.5 143q0 91 33.5 151.5t83 103t99 77.5t83 73t33.5 91q0 77 -11 135t-37.5 90t-72.5 32q-51 0 -84.5 -37t-33.5 -83q0 -20 4 -31.5t8 -22t4 -29.5q0 -27 -12 -45.5t-35 -18.5t-34.5 20.5t-11.5 56.5q0 71 25 129t71 91.5
t107 33.5q62 0 107 -31t70.5 -99t25.5 -179v-627q0 -38 9.5 -51t27.5 -13q14 0 24 5.5t14 10.5l31 -53q-11 -11 -35 -19t-54 -8q-27 0 -48.5 10.5t-34 30.5t-13.5 51q-7 -20 -24 -44t-48 -41t-79 -17zM263 49q42 0 70 31.5t42.5 74t14.5 71.5v379q-2 -28 -38 -56.5
t-81.5 -66.5t-80 -95.5t-34.5 -144.5q0 -94 27 -143.5t80 -49.5zM282 1092q-44 0 -74.5 32.5t-30.5 85.5q0 55 30.5 86.5t74.5 31.5t75 -31.5t31 -86.5q0 -53 -31 -85.5t-75 -32.5zM282 1134q28 0 40.5 22.5t12.5 55.5q0 29 -12.5 51.5t-40.5 22.5q-26 0 -39 -22.5
t-13 -51.5q0 -33 13 -55.5t39 -22.5z" />
    <glyph glyph-name="ae" unicode="&#xe6;" horiz-adv-x="853" 
d="M234 -17q-84 0 -130 62t-46 158q0 101 31.5 167.5t77.5 111.5t92.5 80.5t77.5 73t31 89.5q0 63 -9.5 124t-33.5 101t-68 40q-36 0 -67.5 -24t-31.5 -77q0 -21 3 -33t6 -23t3 -30q0 -27 -11 -44.5t-34 -17.5t-34 20t-11 56q0 64 21.5 117.5t63.5 86.5t102 33t103 -39.5
t65.5 -115.5t22.5 -188v-406q0 -51 -5 -89.5t-17.5 -71.5t-35.5 -69q-18 -29 -62.5 -60.5t-103.5 -31.5zM248 53q48 0 84 53.5t36 123.5v364q-2 -28 -34.5 -56.5t-74 -67t-73 -98t-31.5 -148.5q0 -49 8.5 -88t29 -61t55.5 -22zM593 -22q-69 0 -113.5 48t-69.5 128
t-34.5 176.5t-9.5 194.5q0 129 16 228t46.5 166t72 101t92.5 34q60 0 99 -40t61.5 -104.5t31.5 -142.5t9 -154v-41.5t-1 -40.5h-347v60h256q0 113 -9 204t-32.5 144.5t-67.5 53.5q-41 0 -71 -53t-46 -151t-16 -233q0 -99 5 -190.5t19.5 -164.5t42 -116t71.5 -43
q56 0 86 35.5t40 67.5l54 -25q-16 -57 -66.5 -99.5t-118.5 -42.5z" />
    <glyph glyph-name="ccedilla" unicode="&#xe7;" horiz-adv-x="547" 
d="M310 -20q-70 0 -119.5 49.5t-80.5 131t-46 179.5t-15 194q0 125 22 222t59 163t84 100.5t96 34.5q61 0 101 -38t60 -96.5t20 -121.5q0 -36 -11.5 -55.5t-34.5 -19.5t-35.5 18t-12.5 45q0 19 5 29t9.5 22t4.5 34q0 55 -29 88t-74 33q-44 0 -75.5 -38.5t-52 -102.5
t-30 -145t-9.5 -167q0 -81 8.5 -168.5t27.5 -161.5t52 -120t83 -46q52 0 81 26.5t44 72.5l46 -37q-16 -40 -58.5 -82.5t-119.5 -42.5zM347 -285q-55 0 -91 10t-51 18l21 50q10 -7 41 -16t79 -9q32 0 58.5 15t26.5 43q0 31 -18 40.5t-43 9.5q-16 0 -36.5 -7.5t-34.5 -21.5
l-58 4l63 151h60l-48 -104q6 7 29 17t51 10q37 0 69 -22.5t32 -77.5q0 -41 -24.5 -65.5t-59.5 -34.5t-66 -10z" />
    <glyph glyph-name="egrave" unicode="&#xe8;" horiz-adv-x="538" 
d="M277 -22q-68 0 -112.5 48t-69.5 128t-34.5 176.5t-9.5 194.5q0 129 16 228t46.5 166t72 101t92.5 34q60 0 99 -40t61.5 -104.5t31.5 -142.5t9 -154v-41.5t-1 -40.5h-347v60h256q0 113 -9 204t-32.5 144.5t-67.5 53.5q-41 0 -71 -53t-46 -151t-16 -233q0 -99 5 -190.5
t19.5 -164.5t41.5 -116t72 -43q56 0 86 35.5t40 67.5l54 -25q-16 -57 -66.5 -99.5t-119.5 -42.5zM390 1101l-195 90q-24 12 -38 23t-14 33q0 21 13.5 31t33.5 10q18 0 31.5 -6.5t26.5 -18.5l165 -134z" />
    <glyph glyph-name="eacute" unicode="&#xe9;" horiz-adv-x="538" 
d="M277 -22q-68 0 -112.5 48t-69.5 128t-34.5 176.5t-9.5 194.5q0 129 16 228t46.5 166t72 101t92.5 34q60 0 99 -40t61.5 -104.5t31.5 -142.5t9 -154v-41.5t-1 -40.5h-347v60h256q0 113 -9 204t-32.5 144.5t-67.5 53.5q-41 0 -71 -53t-46 -151t-16 -233q0 -99 5 -190.5
t19.5 -164.5t41.5 -116t72 -43q56 0 86 35.5t40 67.5l54 -25q-16 -57 -66.5 -99.5t-119.5 -42.5zM165 1075l-28 32l169 131q14 12 30 20t29 8q12 0 21 -5.5t15 -15.5q4 -8 4 -18q0 -19 -18.5 -35t-42.5 -27z" />
    <glyph glyph-name="ecircumflex" unicode="&#xea;" horiz-adv-x="538" 
d="M277 -22q-68 0 -112.5 48t-69.5 128t-34.5 176.5t-9.5 194.5q0 129 16 228t46.5 166t72 101t92.5 34q60 0 99 -40t61.5 -104.5t31.5 -142.5t9 -154v-41.5t-1 -40.5h-347v60h256q0 113 -9 204t-32.5 144.5t-67.5 53.5q-41 0 -71 -53t-46 -151t-16 -233q0 -99 5 -190.5
t19.5 -164.5t41.5 -116t72 -43q56 0 86 35.5t40 67.5l54 -25q-16 -57 -66.5 -99.5t-119.5 -42.5zM94 1116l148 209h69l146 -209h-63l-118 142l-119 -142h-63z" />
    <glyph glyph-name="edieresis" unicode="&#xeb;" horiz-adv-x="538" 
d="M277 -22q-68 0 -112.5 48t-69.5 128t-34.5 176.5t-9.5 194.5q0 129 16 228t46.5 166t72 101t92.5 34q60 0 99 -40t61.5 -104.5t31.5 -142.5t9 -154v-41.5t-1 -40.5h-347v60h256q0 113 -9 204t-32.5 144.5t-67.5 53.5q-41 0 -71 -53t-46 -151t-16 -233q0 -99 5 -190.5
t19.5 -164.5t41.5 -116t72 -43q56 0 86 35.5t40 67.5l54 -25q-16 -57 -66.5 -99.5t-119.5 -42.5zM385 1121q-27 0 -47.5 20t-20.5 46q0 29 20.5 50t47.5 21t47.5 -21t20.5 -50q0 -26 -20.5 -46t-47.5 -20zM165 1121q-26 0 -46.5 20t-20.5 46q0 29 20.5 50t46.5 21
q28 0 49 -21t21 -50q0 -26 -21 -46t-49 -20z" />
    <glyph glyph-name="igrave" unicode="&#xec;" horiz-adv-x="371" 
d="M38 0v61h107v925h-107v61h197v-986h109v-61h-306zM304 1103l-195 90q-24 12 -38 23t-14 33q0 21 13.5 31t33.5 10q18 0 31.5 -6.5t26.5 -18.5l165 -134z" />
    <glyph glyph-name="iacute" unicode="&#xed;" horiz-adv-x="371" 
d="M38 0v61h107v925h-107v61h197v-986h109v-61h-306zM79 1077l-28 32l169 131q14 12 30 20t29 8q12 0 21 -5.5t15 -15.5q4 -8 4 -18q0 -19 -18.5 -35t-42.5 -27z" />
    <glyph glyph-name="icircumflex" unicode="&#xee;" horiz-adv-x="371" 
d="M38 0v61h107v925h-107v61h197v-986h109v-61h-306zM8 1118l148 209h69l146 -209h-63l-118 142l-119 -142h-63z" />
    <glyph glyph-name="idieresis" unicode="&#xef;" horiz-adv-x="371" 
d="M38 0v61h107v925h-107v61h197v-986h109v-61h-306zM299 1123q-27 0 -47.5 20t-20.5 46q0 29 20.5 50t47.5 21t47.5 -21t20.5 -50q0 -26 -20.5 -46t-47.5 -20zM79 1123q-26 0 -46.5 20t-20.5 46q0 29 20.5 50t46.5 21q28 0 49 -21t21 -50q0 -26 -21 -46t-49 -20z" />
    <glyph glyph-name="eth" unicode="&#xf0;" horiz-adv-x="688" 
d="M332 -22q-73 0 -126.5 72.5t-82.5 197.5t-29 281q0 127 18.5 224.5t51.5 164t76 101t92 34.5q37 0 63.5 -17.5t42.5 -41t23 -43.5q-10 72 -29 131t-43.5 104t-52.5 70l-63 -100l-45 33l70 105q-22 22 -62 45t-72 33l20 50q18 -5 41 -15.5t46 -22.5t38 -23l21 -17l47 74
l44 -30l-50 -78q54 -50 92.5 -118.5t63.5 -162t36.5 -217t11.5 -285.5q0 -161 -32 -285t-87 -194t-124 -70zM332 39q34 0 67 48t55 155t22 285q0 175 -22 276.5t-55 145t-67 43.5q-32 0 -66 -43.5t-56.5 -145t-22.5 -276.5q0 -178 22.5 -285t56.5 -155t66 -48z" />
    <glyph glyph-name="ntilde" unicode="&#xf1;" horiz-adv-x="721" 
d="M35 0v61h100v925h-100v61h189v-114q7 29 29.5 57t58 46t77.5 18q38 0 77.5 -20.5t66.5 -83.5t27 -189v-700h100v-61h-283v61h93v677q0 132 -27 187.5t-83 55.5q-29 0 -53.5 -21t-43 -55t-28.5 -72.5t-10 -74.5v-697h93v-61h-283zM439 1125q-39 0 -64.5 17.5t-48 35.5
t-49.5 18q-30 0 -45.5 -21t-20.5 -34l-57 31q5 19 20 41.5t39.5 40t57.5 17.5q39 0 66.5 -18t51 -36.5t51.5 -18.5q25 0 38.5 16.5t19.5 29.5l55 -37q-4 -16 -19 -35.5t-39 -33t-56 -13.5z" />
    <glyph glyph-name="ograve" unicode="&#xf2;" horiz-adv-x="585" 
d="M289 -22q-53 0 -96.5 37.5t-75.5 108.5t-49 172.5t-17 230.5q0 141 18.5 241.5t51 163.5t75.5 92.5t93 29.5q48 0 91 -29.5t76 -92.5t52 -163.5t19 -241.5q0 -129 -17.5 -230.5t-49.5 -172.5t-76 -108.5t-95 -37.5zM289 39q60 0 101 120.5t41 367.5q0 243 -41 355
t-101 112q-63 0 -104 -112t-41 -355q0 -247 41 -367.5t104 -120.5zM404 1103l-195 90q-24 12 -38 23t-14 33q0 21 13.5 31t33.5 10q18 0 31.5 -6.5t26.5 -18.5l165 -134z" />
    <glyph glyph-name="oacute" unicode="&#xf3;" horiz-adv-x="585" 
d="M289 -22q-53 0 -96.5 37.5t-75.5 108.5t-49 172.5t-17 230.5q0 141 18.5 241.5t51 163.5t75.5 92.5t93 29.5q48 0 91 -29.5t76 -92.5t52 -163.5t19 -241.5q0 -129 -17.5 -230.5t-49.5 -172.5t-76 -108.5t-95 -37.5zM289 39q60 0 101 120.5t41 367.5q0 243 -41 355
t-101 112q-63 0 -104 -112t-41 -355q0 -247 41 -367.5t104 -120.5zM180 1077l-28 32l169 131q14 12 30 20t29 8q12 0 21 -5.5t15 -15.5q4 -8 4 -18q0 -19 -18.5 -35t-42.5 -27z" />
    <glyph glyph-name="ocircumflex" unicode="&#xf4;" horiz-adv-x="585" 
d="M289 -22q-53 0 -96.5 37.5t-75.5 108.5t-49 172.5t-17 230.5q0 141 18.5 241.5t51 163.5t75.5 92.5t93 29.5q48 0 91 -29.5t76 -92.5t52 -163.5t19 -241.5q0 -129 -17.5 -230.5t-49.5 -172.5t-76 -108.5t-95 -37.5zM289 39q60 0 101 120.5t41 367.5q0 243 -41 355
t-101 112q-63 0 -104 -112t-41 -355q0 -247 41 -367.5t104 -120.5zM109 1118l148 209h69l146 -209h-63l-118 142l-119 -142h-63z" />
    <glyph glyph-name="otilde" unicode="&#xf5;" horiz-adv-x="585" 
d="M289 -22q-53 0 -96.5 37.5t-75.5 108.5t-49 172.5t-17 230.5q0 141 18.5 241.5t51 163.5t75.5 92.5t93 29.5q48 0 91 -29.5t76 -92.5t52 -163.5t19 -241.5q0 -129 -17.5 -230.5t-49.5 -172.5t-76 -108.5t-95 -37.5zM289 39q60 0 101 120.5t41 367.5q0 243 -41 355
t-101 112q-63 0 -104 -112t-41 -355q0 -247 41 -367.5t104 -120.5zM376 1125q-39 0 -64.5 17.5t-48 35.5t-49.5 18q-30 0 -45.5 -21t-20.5 -34l-57 31q5 19 20 41.5t39.5 40t57.5 17.5q39 0 66.5 -18t51 -36.5t51.5 -18.5q25 0 38.5 16.5t19.5 29.5l55 -37q-4 -16 -19 -35.5
t-39 -33t-56 -13.5z" />
    <glyph glyph-name="odieresis" unicode="&#xf6;" horiz-adv-x="585" 
d="M289 -22q-53 0 -96.5 37.5t-75.5 108.5t-49 172.5t-17 230.5q0 141 18.5 241.5t51 163.5t75.5 92.5t93 29.5q48 0 91 -29.5t76 -92.5t52 -163.5t19 -241.5q0 -129 -17.5 -230.5t-49.5 -172.5t-76 -108.5t-95 -37.5zM289 39q60 0 101 120.5t41 367.5q0 243 -41 355
t-101 112q-63 0 -104 -112t-41 -355q0 -247 41 -367.5t104 -120.5zM400 1123q-27 0 -47.5 20t-20.5 46q0 29 20.5 50t47.5 21t47.5 -21t20.5 -50q0 -26 -20.5 -46t-47.5 -20zM180 1123q-26 0 -46.5 20t-20.5 46q0 29 20.5 50t46.5 21q28 0 49 -21t21 -50q0 -26 -21 -46
t-49 -20z" />
    <glyph glyph-name="divide" unicode="&#xf7;" horiz-adv-x="802" 
d="M400 302q-22 0 -38.5 17t-16.5 40q0 24 16.5 40t38.5 16q24 0 40 -16t16 -40q0 -23 -16 -40t-40 -17zM400 679q-22 0 -38.5 17t-16.5 41t16.5 40t38.5 16q24 0 40 -16t16 -40t-16 -41t-40 -17zM99 518v60h606v-60h-606z" />
    <glyph glyph-name="oslash" unicode="&#xf8;" horiz-adv-x="610" 
d="M67 -104l420 1224h57l-421 -1224h-56zM289 -22q-53 0 -96.5 37.5t-75.5 108.5t-49 172.5t-17 230.5q0 141 18.5 241.5t51 163.5t75.5 92.5t93 29.5q48 0 91 -29.5t76 -92.5t52 -163.5t19 -241.5q0 -129 -17.5 -230.5t-49.5 -172.5t-76 -108.5t-95 -37.5zM289 39
q60 0 101 120.5t41 367.5q0 243 -41 355t-101 112q-63 0 -104 -112t-41 -355q0 -247 41 -367.5t104 -120.5z" />
    <glyph glyph-name="ugrave" unicode="&#xf9;" horiz-adv-x="660" 
d="M301 -22q-47 0 -88 21.5t-66.5 81.5t-25.5 175v730h-103v60h193v-782q0 -89 15 -135.5t39 -63t52 -16.5q45 0 76 44.5t47 113t16 140.5v639h-103v60h193v-985h92v-61h-174l-2 130q-4 -31 -23 -66.5t-53 -60.5t-85 -25zM447 1103l-195 90q-24 12 -38 23t-14 33
q0 21 13.5 31t33.5 10q18 0 31.5 -6.5t26.5 -18.5l165 -134z" />
    <glyph glyph-name="uacute" unicode="&#xfa;" horiz-adv-x="660" 
d="M301 -22q-47 0 -88 21.5t-66.5 81.5t-25.5 175v730h-103v60h193v-782q0 -89 15 -135.5t39 -63t52 -16.5q45 0 76 44.5t47 113t16 140.5v639h-103v60h193v-985h92v-61h-174l-2 130q-4 -31 -23 -66.5t-53 -60.5t-85 -25zM223 1077l-28 32l169 131q14 12 30 20t29 8
q12 0 21 -5.5t15 -15.5q4 -8 4 -18q0 -19 -18.5 -35t-42.5 -27z" />
    <glyph glyph-name="ucircumflex" unicode="&#xfb;" horiz-adv-x="660" 
d="M301 -22q-47 0 -88 21.5t-66.5 81.5t-25.5 175v730h-103v60h193v-782q0 -89 15 -135.5t39 -63t52 -16.5q45 0 76 44.5t47 113t16 140.5v639h-103v60h193v-985h92v-61h-174l-2 130q-4 -31 -23 -66.5t-53 -60.5t-85 -25zM152 1118l148 209h69l146 -209h-63l-118 142
l-119 -142h-63z" />
    <glyph glyph-name="udieresis" unicode="&#xfc;" horiz-adv-x="660" 
d="M301 -22q-47 0 -88 21.5t-66.5 81.5t-25.5 175v730h-103v60h193v-782q0 -89 15 -135.5t39 -63t52 -16.5q45 0 76 44.5t47 113t16 140.5v639h-103v60h193v-985h92v-61h-174l-2 130q-4 -31 -23 -66.5t-53 -60.5t-85 -25zM443 1123q-27 0 -47.5 20t-20.5 46q0 29 20.5 50
t47.5 21t47.5 -21t20.5 -50q0 -26 -20.5 -46t-47.5 -20zM223 1123q-26 0 -46.5 20t-20.5 46q0 29 20.5 50t46.5 21q28 0 49 -21t21 -50q0 -26 -21 -46t-49 -20z" />
    <glyph glyph-name="yacute" unicode="&#xfd;" horiz-adv-x="596" 
d="M165 -502q-36 0 -58 28.5t-32 77.5t-10 112q0 36 11.5 56t33.5 20q23 0 33.5 -18t10.5 -45q0 -20 -5 -35t-10.5 -29t-5.5 -36q0 -28 7.5 -54.5t26.5 -26.5q13 0 21 14.5t14.5 41.5t13.5 63l68 355l-178 964h-82v61h251v-61h-73l126 -712l122 712h-74v61h221v-61h-80
l-179 -993l-66 -342q-10 -51 -23.5 -85t-33.5 -51t-50 -17zM197 1076l-28 32l169 131q14 12 30 20t29 8q12 0 21 -5.5t15 -15.5q4 -8 4 -18q0 -19 -18.5 -35t-42.5 -27z" />
    <glyph glyph-name="thorn" unicode="&#xfe;" horiz-adv-x="674" 
d="M40 -500v61h107v1878h-107v61h197v-573q2 9 17 39t45 57.5t77 27.5q62 0 108.5 -53.5t71.5 -171t25 -308.5q0 -189 -26 -308t-73.5 -175t-110.5 -56q-39 0 -65 16.5t-40.5 39.5t-21 43t-7.5 29v-546h97v-61h-294zM360 48q40 0 65 39.5t37.5 106.5t17 150t4.5 169
q0 64 -4 142.5t-15.5 151t-35 119.5t-62.5 47q-30 0 -53.5 -23.5t-40.5 -61t-26.5 -80.5t-9.5 -82v-421q4 -57 17 -116t38.5 -100t67.5 -41z" />
    <glyph glyph-name="ydieresis" unicode="&#xff;" horiz-adv-x="596" 
d="M165 -502q-36 0 -58 28.5t-32 77.5t-10 112q0 36 11.5 56t33.5 20q23 0 33.5 -18t10.5 -45q0 -20 -5 -35t-10.5 -29t-5.5 -36q0 -28 7.5 -54.5t26.5 -26.5q13 0 21 14.5t14.5 41.5t13.5 63l68 355l-178 964h-82v61h251v-61h-73l126 -712l122 712h-74v61h221v-61h-80
l-179 -993l-66 -342q-10 -51 -23.5 -85t-33.5 -51t-50 -17zM417 1123q-27 0 -47.5 20t-20.5 46q0 29 20.5 50t47.5 21t47.5 -21t20.5 -50q0 -26 -20.5 -46t-47.5 -20zM197 1123q-26 0 -46.5 20t-20.5 46q0 29 20.5 50t46.5 21q28 0 49 -21t21 -50q0 -26 -21 -46t-49 -20z
" />
    <glyph glyph-name="Amacron" unicode="&#x100;" horiz-adv-x="650" 
d="M12 0v61h79l184 1343h87l182 -1343h98v-61h-283v61h89l-143 1143h-1l-149 -1143h78v-61h-221zM170 344v58h263v-58h-263zM17 1535v61h604v-61h-604z" />
    <glyph glyph-name="amacron" unicode="&#x101;" horiz-adv-x="594" 
d="M250 -20q-57 0 -100 28.5t-67.5 85.5t-24.5 143q0 91 33.5 151.5t83 103t99 77.5t83 73t33.5 91q0 77 -11 135t-37.5 90t-72.5 32q-51 0 -84.5 -37t-33.5 -83q0 -20 4 -31.5t8 -22t4 -29.5q0 -27 -12 -45.5t-35 -18.5t-34.5 20.5t-11.5 56.5q0 71 25 129t71 91.5
t107 33.5q62 0 107 -31t70.5 -99t25.5 -179v-627q0 -38 9.5 -51t27.5 -13q14 0 24 5.5t14 10.5l31 -53q-11 -11 -35 -19t-54 -8q-27 0 -48.5 10.5t-34 30.5t-13.5 51q-7 -20 -24 -44t-48 -41t-79 -17zM263 49q42 0 70 31.5t42.5 74t14.5 71.5v379q-2 -28 -38 -56.5
t-81.5 -66.5t-80 -95.5t-34.5 -144.5q0 -94 27 -143.5t80 -49.5zM92 1132v61h379v-61h-379z" />
    <glyph glyph-name="Abreve" unicode="&#x102;" horiz-adv-x="650" 
d="M12 0v61h79l184 1343h87l182 -1343h98v-61h-283v61h89l-143 1143h-1l-149 -1143h78v-61h-221zM170 344v58h263v-58h-263zM317 1495q-57 0 -93 24.5t-52 66t-16 91.5h57q4 -58 30 -89t74 -31t74.5 31t30.5 89h58q0 -50 -16.5 -91.5t-52.5 -66t-94 -24.5z" />
    <glyph glyph-name="abreve" unicode="&#x103;" horiz-adv-x="594" 
d="M250 -20q-57 0 -100 28.5t-67.5 85.5t-24.5 143q0 91 33.5 151.5t83 103t99 77.5t83 73t33.5 91q0 77 -11 135t-37.5 90t-72.5 32q-51 0 -84.5 -37t-33.5 -83q0 -20 4 -31.5t8 -22t4 -29.5q0 -27 -12 -45.5t-35 -18.5t-34.5 20.5t-11.5 56.5q0 71 25 129t71 91.5
t107 33.5q62 0 107 -31t70.5 -99t25.5 -179v-627q0 -38 9.5 -51t27.5 -13q14 0 24 5.5t14 10.5l31 -53q-11 -11 -35 -19t-54 -8q-27 0 -48.5 10.5t-34 30.5t-13.5 51q-7 -20 -24 -44t-48 -41t-79 -17zM263 49q42 0 70 31.5t42.5 74t14.5 71.5v379q-2 -28 -38 -56.5
t-81.5 -66.5t-80 -95.5t-34.5 -144.5q0 -94 27 -143.5t80 -49.5zM281 1102q-57 0 -93 24.5t-52 66t-16 91.5h57q4 -58 30 -89t74 -31t74.5 31t30.5 89h58q0 -50 -16.5 -91.5t-52.5 -66t-94 -24.5z" />
    <glyph glyph-name="Aogonek" unicode="&#x104;" horiz-adv-x="650" 
d="M12 0v61h79l184 1343h87l182 -1343h98v-61h-283v61h89l-143 1143h-1l-149 -1143h78v-61h-221zM170 344v58h263v-58h-263zM650 -286q-37 0 -75 12.5t-63 43t-25 81.5q0 43 23 76t54 56.5t53 35.5l25 -19q-21 -20 -46.5 -56t-25.5 -84q0 -53 33 -67t66 -14q24 0 56.5 6.5
t53.5 18.5l27 -45q-22 -17 -63.5 -31t-92.5 -14z" />
    <glyph glyph-name="aogonek" unicode="&#x105;" horiz-adv-x="594" 
d="M250 -20q-57 0 -100 28.5t-67.5 85.5t-24.5 143q0 91 33.5 151.5t83 103t99 77.5t83 73t33.5 91q0 77 -11 135t-37.5 90t-72.5 32q-51 0 -83 -37t-32 -83q0 -20 3.5 -33.5t6.5 -26.5t3 -32q0 -27 -12 -45t-35 -18t-35.5 20.5t-12.5 56.5q0 72 25.5 131.5t72 95
t107.5 35.5q62 0 107 -31t70.5 -99t25.5 -179v-627q0 -38 9.5 -51t27.5 -13q14 0 24 5.5t14 10.5l31 -53q-11 -11 -35 -19t-54 -8q-27 0 -49 9.5t-35 29t-14 49.5q-6 -20 -22.5 -43t-47.5 -39t-79 -16zM263 49q42 0 70 31.5t42.5 74t14.5 71.5v379q-2 -28 -38 -56.5
t-81.5 -66.5t-80 -95.5t-34.5 -144.5q0 -94 27 -143.5t80 -49.5zM594 -269q-37 0 -75 12.5t-63 43t-25 81.5q0 43 23 76t54 57t53 35l25 -19q-21 -20 -46.5 -56t-25.5 -84q0 -53 33 -67t66 -14q24 0 56.5 6.5t53.5 18.5l27 -45q-22 -17 -63.5 -31t-92.5 -14z" />
    <glyph glyph-name="Cacute" unicode="&#x106;" horiz-adv-x="602" 
d="M365 -20q-131 0 -217.5 181t-86.5 537q0 127 19.5 255t58.5 234t97.5 170.5t136.5 64.5q51 0 89 -38t58 -96t20 -119q0 -44 -13 -62t-36 -18q-24 0 -38 16.5t-14 50.5q0 21 5 37t10 36t5 52q0 37 -22 58.5t-50 21.5q-45 0 -82 -41t-64.5 -111t-46 -156t-28 -177.5
t-9.5 -175.5q0 -122 11 -225.5t30.5 -183.5t47 -136t59 -85t67.5 -29q37 0 63.5 26t44 63t27.5 70l55 -24q-16 -49 -43.5 -93.5t-65.5 -73.5t-88 -29zM254 1446l-28 31l168 131q14 11 30.5 19.5t29.5 8.5q12 0 21 -5.5t15 -15.5q4 -8 4 -18q0 -19 -18.5 -35t-42.5 -27z" />
    <glyph glyph-name="cacute" unicode="&#x107;" horiz-adv-x="547" 
d="M310 -20q-70 0 -119.5 49.5t-80.5 131t-46 179.5t-15 194q0 125 22 222t59 163t84 100.5t96 34.5q61 0 101 -38t60 -96.5t20 -121.5q0 -36 -11.5 -55.5t-34.5 -19.5t-35.5 18t-12.5 45q0 19 5 29t9.5 22t4.5 34q0 55 -29 88t-74 33q-44 0 -75.5 -38.5t-52 -102.5
t-30 -145t-9.5 -167q0 -81 8.5 -168.5t27.5 -161.5t52 -120t83 -46q52 0 81 26.5t44 72.5l46 -37q-16 -40 -58.5 -82.5t-119.5 -42.5zM185 1077l-28 32l169 131q14 12 30 20t29 8q12 0 21 -5.5t15 -15.5q4 -8 4 -18q0 -19 -18.5 -35t-42.5 -27z" />
    <glyph glyph-name="ccircumflex" unicode="&#x109;" horiz-adv-x="547" 
d="M310 -20q-70 0 -119.5 49.5t-80.5 131t-46 179.5t-15 194q0 125 22 222t59 163t84 100.5t96 34.5q61 0 101 -38t60 -96.5t20 -121.5q0 -36 -11.5 -55.5t-34.5 -19.5t-35.5 18t-12.5 45q0 19 5 29t9.5 22t4.5 34q0 55 -29 88t-74 33q-44 0 -75.5 -38.5t-52 -102.5
t-30 -145t-9.5 -167q0 -81 8.5 -168.5t27.5 -161.5t52 -120t83 -46q52 0 81 26.5t44 72.5l46 -37q-16 -40 -58.5 -82.5t-119.5 -42.5zM114 1118l148 209h69l146 -209h-63l-118 142l-119 -142h-63z" />
    <glyph glyph-name="Cdotaccent" unicode="&#x10a;" horiz-adv-x="602" 
d="M365 -20q-131 0 -217.5 181t-86.5 537q0 127 19.5 255t58.5 234t97.5 170.5t136.5 64.5q51 0 89 -38t58 -96t20 -119q0 -44 -13 -62t-36 -18q-24 0 -38 16.5t-14 50.5q0 21 5 37t10 36t5 52q0 37 -22 58.5t-50 21.5q-45 0 -82 -41t-64.5 -111t-46 -156t-28 -177.5
t-9.5 -175.5q0 -122 11 -225.5t30.5 -183.5t47 -136t59 -85t67.5 -29q37 0 63.5 26t44 63t27.5 70l55 -24q-16 -49 -43.5 -93.5t-65.5 -73.5t-88 -29zM365 1505q-26 0 -47 19.5t-21 46.5q0 28 21 49t47 21q27 0 47.5 -21t20.5 -49q0 -27 -20.5 -46.5t-47.5 -19.5z" />
    <glyph glyph-name="cdotaccent" unicode="&#x10b;" horiz-adv-x="547" 
d="M310 -20q-70 0 -119.5 49.5t-80.5 131t-46 179.5t-15 194q0 125 22 222t59 163t84 100.5t96 34.5q61 0 101 -38t60 -96.5t20 -121.5q0 -36 -11.5 -55.5t-34.5 -19.5t-35.5 18t-12.5 45q0 19 5 29t9.5 22t4.5 34q0 55 -29 88t-74 33q-44 0 -75.5 -38.5t-52 -102.5
t-30 -145t-9.5 -167q0 -81 8.5 -168.5t27.5 -161.5t52 -120t83 -46q52 0 81 26.5t44 72.5l46 -37q-16 -40 -58.5 -82.5t-119.5 -42.5zM295 1127q-26 0 -47 20t-21 46q0 28 21 49t47 21q27 0 47.5 -21t20.5 -49q0 -26 -20.5 -46t-47.5 -20z" />
    <glyph glyph-name="Ccaron" unicode="&#x10c;" horiz-adv-x="602" 
d="M365 -20q-131 0 -217.5 181t-86.5 537q0 127 19.5 255t58.5 234t97.5 170.5t136.5 64.5q51 0 89 -38t58 -96t20 -119q0 -44 -13 -62t-36 -18q-24 0 -38 16.5t-14 50.5q0 21 5 37t10 36t5 52q0 37 -22 58.5t-50 21.5q-45 0 -82 -41t-64.5 -111t-46 -156t-28 -177.5
t-9.5 -175.5q0 -122 11 -225.5t30.5 -183.5t47 -136t59 -85t67.5 -29q37 0 63.5 26t44 63t27.5 70l55 -24q-16 -49 -43.5 -93.5t-65.5 -73.5t-88 -29zM331 1465l-151 212h64l121 -144l121 144h64l-150 -212h-69z" />
    <glyph glyph-name="ccaron" unicode="&#x10d;" horiz-adv-x="547" 
d="M310 -20q-70 0 -119.5 49.5t-80.5 131t-46 179.5t-15 194q0 125 22 222t59 163t84 100.5t96 34.5q61 0 101 -38t60 -96.5t20 -121.5q0 -36 -11.5 -55.5t-34.5 -19.5t-35.5 18t-12.5 45q0 19 5 29t9.5 22t4.5 34q0 55 -29 88t-74 33q-44 0 -75.5 -38.5t-52 -102.5
t-30 -145t-9.5 -167q0 -81 8.5 -168.5t27.5 -161.5t52 -120t83 -46q52 0 81 26.5t44 72.5l46 -37q-16 -40 -58.5 -82.5t-119.5 -42.5zM262 1102l-151 212h64l121 -144l121 144h64l-150 -212h-69z" />
    <glyph glyph-name="Dcaron" unicode="&#x10e;" horiz-adv-x="708" 
d="M58 0v61h90v1278h-90v61h257q92 0 167.5 -74.5t121 -227t45.5 -387.5q0 -237 -45.5 -395t-121.5 -237t-167 -79h-257zM238 61h53q68 0 128 65t97.5 208t37.5 377q0 203 -33.5 343t-85.5 212.5t-109 72.5h-88v-1278zM289 1465l-151 212h64l121 -144l121 144h64l-150 -212
h-69z" />
    <glyph glyph-name="dcaron" unicode="&#x10f;" horiz-adv-x="717" 
d="M573 1199q11 45 17 97.5t6 102.5q0 38 10.5 57.5t30.5 19.5q22 0 30 -17.5t8 -49.5q0 -46 -14 -109t-39 -121zM284 -20q-62 0 -109 54t-73.5 172.5t-26.5 311.5q0 194 26.5 311.5t72.5 170t104 52.5q46 0 75 -20.5t44.5 -49t20.5 -52.5v509h-110v61h201v-1439h108v-61
h-193l-3 132q-3 -26 -19 -62.5t-44.5 -63t-73.5 -26.5zM298 52q34 0 59.5 42.5t41 104.5t19.5 122v443q-5 50 -23 97.5t-44.5 79t-58.5 31.5q-36 0 -59.5 -36t-37.5 -99t-20 -146t-6 -178q0 -115 7.5 -201.5t22.5 -144t39.5 -86.5t59.5 -29z" />
    <glyph glyph-name="Dcroat" unicode="&#x110;" horiz-adv-x="765" 
d="M46 688v60h362v-60h-362zM58 0v61h90v1278h-90v61h257q92 0 167.5 -74.5t121 -227t45.5 -387.5q0 -237 -45.5 -395t-121.5 -237t-167 -79h-257zM238 61h53q68 0 128 65t97.5 208t37.5 377q0 203 -33.5 343t-85.5 212.5t-109 72.5h-88v-1278z" />
    <glyph glyph-name="dcroat" unicode="&#x111;" horiz-adv-x="628" 
d="M193 1253v61h422v-61h-422zM284 -20q-62 0 -109 54t-73.5 172.5t-26.5 311.5q0 194 26.5 311.5t72.5 170t104 52.5q46 0 75 -20.5t44.5 -49t20.5 -52.5v509h-110v61h201v-1439h108v-61h-193l-3 132q-3 -26 -19 -62.5t-44.5 -63t-73.5 -26.5zM298 52q34 0 59.5 42.5
t41 104.5t19.5 122v443q-5 50 -23 97.5t-44.5 79t-58.5 31.5q-36 0 -59.5 -36t-37.5 -99t-20 -146t-6 -178q0 -115 7.5 -201.5t22.5 -144t39.5 -86.5t59.5 -29z" />
    <glyph glyph-name="Emacron" unicode="&#x112;" horiz-adv-x="638" 
d="M58 0v61h91v1278h-91v61h503v-259h-61q0 81 -6 124t-25 58.5t-57 15.5h-173v-608h218v100h56v-258h-56v98h-218v-610h172q39 0 57.5 16.5t25 60t6.5 124.5h61v-262h-503zM27 1535v61h604v-61h-604z" />
    <glyph glyph-name="emacron" unicode="&#x113;" horiz-adv-x="538" 
d="M277 -22q-68 0 -112.5 48t-69.5 128t-34.5 176.5t-9.5 194.5q0 129 16 228t46.5 166t72 101t92.5 34q60 0 99 -40t61.5 -104.5t31.5 -142.5t9 -154v-41.5t-1 -40.5h-347v60h256q0 113 -9 204t-32.5 144.5t-67.5 53.5q-41 0 -71 -53t-46 -151t-16 -233q0 -99 5 -190.5
t19.5 -164.5t41.5 -116t72 -43q56 0 86 35.5t40 67.5l54 -25q-16 -57 -66.5 -99.5t-119.5 -42.5zM86 1130v61h379v-61h-379z" />
    <glyph glyph-name="ebreve" unicode="&#x115;" horiz-adv-x="538" 
d="M277 -22q-68 0 -112.5 48t-69.5 128t-34.5 176.5t-9.5 194.5q0 129 16 228t46.5 166t72 101t92.5 34q60 0 99 -40t61.5 -104.5t31.5 -142.5t9 -154v-41.5t-1 -40.5h-347v60h256q0 113 -9 204t-32.5 144.5t-67.5 53.5q-41 0 -71 -53t-46 -151t-16 -233q0 -99 5 -190.5
t19.5 -164.5t41.5 -116t72 -43q56 0 86 35.5t40 67.5l54 -25q-16 -57 -66.5 -99.5t-119.5 -42.5zM274 1100q-57 0 -93 24.5t-52 66t-16 91.5h57q4 -58 30 -89t74 -31t74.5 31t30.5 89h58q0 -50 -16.5 -91.5t-52.5 -66t-94 -24.5z" />
    <glyph glyph-name="Edotaccent" unicode="&#x116;" horiz-adv-x="638" 
d="M58 0v61h91v1278h-91v61h503v-259h-61q0 81 -6 124t-25 58.5t-57 15.5h-173v-608h218v100h56v-258h-56v98h-218v-610h172q39 0 57.5 16.5t25 60t6.5 124.5h61v-262h-503zM328 1505q-26 0 -47 19.5t-21 46.5q0 28 21 49t47 21q27 0 47.5 -21t20.5 -49q0 -27 -20.5 -46.5
t-47.5 -19.5z" />
    <glyph glyph-name="edotaccent" unicode="&#x117;" horiz-adv-x="538" 
d="M277 -22q-68 0 -112.5 48t-69.5 128t-34.5 176.5t-9.5 194.5q0 129 16 228t46.5 166t72 101t92.5 34q60 0 99 -40t61.5 -104.5t31.5 -142.5t9 -154v-41.5t-1 -40.5h-347v60h256q0 113 -9 204t-32.5 144.5t-67.5 53.5q-41 0 -71 -53t-46 -151t-16 -233q0 -99 5 -190.5
t19.5 -164.5t41.5 -116t72 -43q56 0 86 35.5t40 67.5l54 -25q-16 -57 -66.5 -99.5t-119.5 -42.5zM275 1125q-26 0 -47 20t-21 46q0 28 21 49t47 21q27 0 47.5 -21t20.5 -49q0 -26 -20.5 -46t-47.5 -20z" />
    <glyph glyph-name="Eogonek" unicode="&#x118;" horiz-adv-x="638" 
d="M58 0v61h91v1278h-91v61h503v-259h-61q0 81 -6 124t-25 58.5t-57 15.5h-173v-608h218v100h56v-258h-56v98h-218v-610h172q39 0 57.5 16.5t25 60t6.5 124.5h61v-262h-503zM569 -286q-37 0 -74.5 12.5t-62.5 43t-25 81.5q0 43 23 76t53.5 56.5t53.5 35.5l24 -19
q-20 -20 -45.5 -56t-25.5 -84q0 -53 33 -67t66 -14q23 0 55.5 6.5t54.5 18.5l27 -45q-23 -17 -64.5 -31t-92.5 -14z" />
    <glyph glyph-name="eogonek" unicode="&#x119;" horiz-adv-x="538" 
d="M277 -22q-68 0 -112.5 48t-69.5 128t-34.5 176.5t-9.5 194.5q0 129 16 228t46.5 166t72 101t92.5 34q60 0 99 -40t61.5 -105t31.5 -144t9 -157v-41.5t-1 -40.5h-347v61h256q0 112 -9 204t-32.5 147t-67.5 55q-41 0 -71 -54t-46 -153t-16 -235q0 -98 5 -189.5t19.5 -163.5
t41.5 -114.5t72 -42.5q56 0 86 36t40 68l54 -25q-16 -57 -66.5 -99.5t-119.5 -42.5zM391 -272q-37 0 -74.5 12.5t-62.5 43t-25 81.5q0 43 23 76t53.5 57t53.5 35l24 -19q-20 -20 -45.5 -56t-25.5 -84q0 -53 33 -67t66 -14q23 0 55.5 6.5t54.5 18.5l27 -45q-23 -17 -64.5 -31
t-92.5 -14z" />
    <glyph glyph-name="Ecaron" unicode="&#x11a;" horiz-adv-x="638" 
d="M58 0v61h91v1278h-91v61h503v-259h-61q0 81 -6 124t-25 58.5t-57 15.5h-173v-608h218v100h56v-258h-56v98h-218v-610h172q39 0 57.5 16.5t25 60t6.5 124.5h61v-262h-503zM295 1465l-151 212h64l121 -144l121 144h64l-150 -212h-69z" />
    <glyph glyph-name="ecaron" unicode="&#x11b;" horiz-adv-x="538" 
d="M277 -22q-68 0 -112.5 48t-69.5 128t-34.5 176.5t-9.5 194.5q0 129 16 228t46.5 166t72 101t92.5 34q60 0 99 -40t61.5 -104.5t31.5 -142.5t9 -154v-41.5t-1 -40.5h-347v60h256q0 113 -9 204t-32.5 144.5t-67.5 53.5q-41 0 -71 -53t-46 -151t-16 -233q0 -99 5 -190.5
t19.5 -164.5t41.5 -116t72 -43q56 0 86 35.5t40 67.5l54 -25q-16 -57 -66.5 -99.5t-119.5 -42.5zM242 1100l-151 212h64l121 -144l121 144h64l-150 -212h-69z" />
    <glyph glyph-name="gcircumflex" unicode="&#x11d;" horiz-adv-x="610" 
d="M309 -498q-86 0 -143.5 38.5t-86 99.5t-28.5 129q0 60 14 102.5t35 71t43.5 45t38.5 23.5q-10 2 -28 10.5t-37 26t-32.5 46t-13.5 68.5q0 41 16 69.5t38.5 44t40.5 16.5q3 0 8 0.5t6 -0.5q-13 12 -28.5 39t-29 69.5t-21.5 100t-8 130.5q0 119 17 200t46.5 130t69.5 71
t86 22q72 0 117.5 -49.5t67.5 -140t22 -213.5q0 -110 -15.5 -189.5t-43.5 -131t-67 -75.5t-86 -24q-41 0 -62.5 11t-24.5 12q-1 1 -2.5 1.5t-5.5 0.5q-21 0 -44.5 -23t-23.5 -60q0 -50 37 -77t137 -41q132 -15 192 -81t60 -189q0 -71 -21 -124t-57.5 -88.5t-83.5 -53
t-99 -17.5zM309 -441q78 0 126 57t48 144q0 107 -32 153t-109 61q-21 4 -40 8.5t-33.5 8t-21.5 4.5q-39 -21 -63 -55.5t-35.5 -76t-11.5 -87.5q0 -52 18.5 -102t56.5 -82.5t97 -32.5zM307 292q33 0 59.5 28.5t42.5 105.5t16 221q0 140 -15.5 214.5t-41.5 103t-58 28.5
t-59.5 -28.5t-45 -104.5t-17.5 -219q0 -142 17 -217t44 -103.5t58 -28.5zM385 994q8 51 47 82t80 31q36 0 51 -15t15 -42q0 -22 -12.5 -36.5t-34.5 -14.5q-17 0 -25.5 8t-15.5 16.5t-21 8.5t-23.5 -12t-9.5 -30zM124 1118l148 209h69l146 -209h-63l-118 142l-119 -142h-63z
" />
    <glyph glyph-name="Gbreve" unicode="&#x11e;" horiz-adv-x="678" 
d="M362 -20q-81 0 -146 84.5t-103 245t-38 388.5q0 238 44 398.5t114.5 242t148.5 81.5q64 0 104 -36.5t59 -93.5t19 -121q0 -45 -13.5 -62.5t-36.5 -17.5t-36.5 18.5t-13.5 49.5q0 21 5 37t10.5 35t5.5 48q0 32 -26 57.5t-71 25.5q-56 0 -97.5 -61.5t-68 -161.5t-40 -215.5
t-13.5 -223.5q0 -152 16 -274t43.5 -208t63.5 -131t76 -45q34 0 59.5 11.5t36.5 23.5v497h-92v61h269v-61h-90v-572h-50q-1 2 -6 5t-12 3q-11 0 -26.5 -7t-38 -14t-56.5 -7zM370 1495q-57 0 -93 24.5t-52 66t-16 91.5h57q4 -58 30 -89t74 -31t74.5 31t30.5 89h58
q0 -50 -16.5 -91.5t-52.5 -66t-94 -24.5z" />
    <glyph glyph-name="gbreve" unicode="&#x11f;" horiz-adv-x="610" 
d="M309 -498q-86 0 -143.5 38.5t-86 99.5t-28.5 129q0 60 14 102.5t35 71t43.5 45t38.5 23.5q-10 2 -28 10.5t-37 26t-32.5 46t-13.5 68.5q0 41 16 69.5t38.5 44t40.5 16.5q3 0 8 0.5t6 -0.5q-13 12 -28.5 39t-29 69.5t-21.5 100t-8 130.5q0 119 17 200t46.5 130t69.5 71
t86 22q72 0 117.5 -49.5t67.5 -140t22 -213.5q0 -110 -15.5 -189.5t-43.5 -131t-67 -75.5t-86 -24q-41 0 -62.5 11t-24.5 12q-1 1 -2.5 1.5t-5.5 0.5q-21 0 -44.5 -23t-23.5 -60q0 -50 37 -77t137 -41q132 -15 192 -81t60 -189q0 -71 -21 -124t-57.5 -88.5t-83.5 -53
t-99 -17.5zM309 -441q78 0 126 57t48 144q0 107 -32 153t-109 61q-21 4 -40 8.5t-33.5 8t-21.5 4.5q-39 -21 -63 -55.5t-35.5 -76t-11.5 -87.5q0 -52 18.5 -102t56.5 -82.5t97 -32.5zM307 292q33 0 59.5 28.5t42.5 105.5t16 221q0 140 -15.5 214.5t-41.5 103t-58 28.5
t-59.5 -28.5t-45 -104.5t-17.5 -219q0 -142 17 -217t44 -103.5t58 -28.5zM385 994q8 51 47 82t80 31q36 0 51 -15t15 -42q0 -22 -12.5 -36.5t-34.5 -14.5q-17 0 -25.5 8t-15.5 16.5t-21 8.5t-23.5 -12t-9.5 -30zM304 1102q-57 0 -93 24.5t-52 66t-16 91.5h57q4 -58 30 -89
t74 -31t74.5 31t30.5 89h58q0 -50 -16.5 -91.5t-52.5 -66t-94 -24.5z" />
    <glyph glyph-name="Gdotaccent" unicode="&#x120;" horiz-adv-x="678" 
d="M362 -20q-81 0 -146 84.5t-103 245t-38 388.5q0 238 44 398.5t114.5 242t148.5 81.5q64 0 104 -36.5t59 -93.5t19 -121q0 -45 -13.5 -62.5t-36.5 -17.5t-36.5 18.5t-13.5 49.5q0 21 5 37t10.5 35t5.5 48q0 32 -26 57.5t-71 25.5q-56 0 -97.5 -61.5t-68 -161.5t-40 -215.5
t-13.5 -223.5q0 -152 16 -274t43.5 -208t63.5 -131t76 -45q34 0 59.5 11.5t36.5 23.5v497h-92v61h269v-61h-90v-572h-50q-1 2 -6 5t-12 3q-11 0 -26.5 -7t-38 -14t-56.5 -7zM371 1505q-26 0 -47 19.5t-21 46.5q0 28 21 49t47 21q27 0 47.5 -21t20.5 -49q0 -27 -20.5 -46.5
t-47.5 -19.5z" />
    <glyph glyph-name="gdotaccent" unicode="&#x121;" horiz-adv-x="610" 
d="M309 -498q-86 0 -143.5 38.5t-86 99.5t-28.5 129q0 60 14 102.5t35 71t43.5 45t38.5 23.5q-10 2 -28 10.5t-37 26t-32.5 46t-13.5 68.5q0 41 16 69.5t38.5 44t40.5 16.5q3 0 8 0.5t6 -0.5q-13 12 -28.5 39t-29 69.5t-21.5 100t-8 130.5q0 119 17 200t46.5 130t69.5 71
t86 22q72 0 117.5 -49.5t67.5 -140t22 -213.5q0 -110 -15.5 -189.5t-43.5 -131t-67 -75.5t-86 -24q-41 0 -62.5 11t-24.5 12q-1 1 -2.5 1.5t-5.5 0.5q-21 0 -44.5 -23t-23.5 -60q0 -50 37 -77t137 -41q132 -15 192 -81t60 -189q0 -71 -21 -124t-57.5 -88.5t-83.5 -53
t-99 -17.5zM309 -441q78 0 126 57t48 144q0 107 -32 153t-109 61q-21 4 -40 8.5t-33.5 8t-21.5 4.5q-39 -21 -63 -55.5t-35.5 -76t-11.5 -87.5q0 -52 18.5 -102t56.5 -82.5t97 -32.5zM307 292q33 0 59.5 28.5t42.5 105.5t16 221q0 140 -15.5 214.5t-41.5 103t-58 28.5
t-59.5 -28.5t-45 -104.5t-17.5 -219q0 -142 17 -217t44 -103.5t58 -28.5zM385 994q8 51 47 82t80 31q36 0 51 -15t15 -42q0 -22 -12.5 -36.5t-34.5 -14.5q-17 0 -25.5 8t-15.5 16.5t-21 8.5t-23.5 -12t-9.5 -30zM305 1127q-26 0 -47 20t-21 46q0 28 21 49t47 21
q27 0 47.5 -21t20.5 -49q0 -26 -20.5 -46t-47.5 -20z" />
    <glyph glyph-name="uni0122" unicode="&#x122;" horiz-adv-x="678" 
d="M362 -20q-81 0 -146 84.5t-103 245t-38 388.5q0 238 44 398.5t114.5 242t148.5 81.5q64 0 104 -36.5t59 -93.5t19 -121q0 -45 -13.5 -62.5t-36.5 -17.5t-36.5 18.5t-13.5 49.5q0 21 5 37t10.5 35t5.5 48q0 32 -26 57.5t-71 25.5q-56 0 -97.5 -61.5t-68 -161.5t-40 -215.5
t-13.5 -223.5q0 -152 16 -274t43.5 -208t63.5 -131t76 -45q34 0 59.5 11.5t36.5 23.5v497h-92v61h269v-61h-90v-572h-50q-1 2 -6 5t-12 3q-11 0 -26.5 -7t-38 -14t-56.5 -7zM364 -330l-28 33q11 6 28 23.5t18 29.5q-2 -4 -12 -4q-25 0 -41.5 17t-16.5 41q0 25 17.5 41
t41.5 16q29 0 46 -19t17 -51q0 -30 -11 -54.5t-27.5 -42.5t-31.5 -30z" />
    <glyph glyph-name="uni0123" unicode="&#x123;" horiz-adv-x="610" 
d="M309 -498q-86 0 -143.5 38.5t-86 99.5t-28.5 129q0 60 14 102.5t35 71t43.5 45t38.5 23.5q-10 2 -28 10.5t-37 26t-32.5 46t-13.5 68.5q0 41 16 69.5t38.5 44t40.5 16.5q3 0 8 0.5t6 -0.5q-13 12 -28.5 39t-29 69.5t-21.5 100t-8 130.5q0 119 17 200t46.5 130t69.5 71
t86 22q72 0 117.5 -49.5t67.5 -140t22 -213.5q0 -110 -15.5 -189.5t-43.5 -131t-67 -75.5t-86 -24q-41 0 -62.5 11t-24.5 12q-1 1 -2.5 1.5t-5.5 0.5q-21 0 -44.5 -23t-23.5 -60q0 -50 37 -77t137 -41q132 -15 192 -81t60 -189q0 -71 -21 -124t-57.5 -88.5t-83.5 -53
t-99 -17.5zM309 -441q78 0 126 57t48 144q0 107 -32 153t-109 61q-21 4 -40 8.5t-33.5 8t-21.5 4.5q-39 -21 -63 -55.5t-35.5 -76t-11.5 -87.5q0 -52 18.5 -102t56.5 -82.5t97 -32.5zM307 292q33 0 59.5 28.5t42.5 105.5t16 221q0 140 -15.5 214.5t-41.5 103t-58 28.5
t-59.5 -28.5t-45 -104.5t-17.5 -219q0 -142 17 -217t44 -103.5t58 -28.5zM385 994q8 51 47 82t80 31q36 0 51 -15t15 -42q0 -22 -12.5 -36.5t-34.5 -14.5q-17 0 -25.5 8t-15.5 16.5t-21 8.5t-23.5 -12t-9.5 -30zM311 1320l28 -31q-10 -6 -28 -24.5t-19 -31.5q3 5 13 5
q25 0 41.5 -17t16.5 -41t-17.5 -40.5t-41.5 -16.5q-29 0 -48 19t-19 51q0 30 12 54.5t29.5 43t32.5 29.5z" />
    <glyph glyph-name="hcircumflex" unicode="&#x125;" horiz-adv-x="706" 
d="M35 0v61h101v1378h-101v61h191v-576q2 19 25 50.5t61 56.5t85 25q43 0 84 -24t68 -91t27 -198v-682h102v-61h-277v61h85v658q0 142 -26.5 201.5t-86.5 59.5q-39 0 -72.5 -34.5t-53.5 -85.5t-21 -101v-698h85v-61h-276zM176 1571l148 209h69l146 -209h-63l-118 142
l-119 -142h-63z" />
    <glyph glyph-name="Hbar" unicode="&#x126;" horiz-adv-x="796" 
d="M71 1018v60h666v-60h-666zM58 0v61h90v1278h-90v61h265v-61h-85v-588h311v588h-84v61h267v-61h-94v-1278h94v-61h-267v61h84v630h-311v-630h85v-61h-265z" />
    <glyph glyph-name="hbar" unicode="&#x127;" horiz-adv-x="706" 
d="M32 1253v61h423v-61h-423zM35 0v61h101v1378h-101v61h191v-576q2 19 25 50.5t61 56.5t85 25q43 0 84 -24t68 -91t27 -198v-682h102v-61h-277v61h85v658q0 142 -26.5 201.5t-86.5 59.5q-39 0 -72.5 -34.5t-53.5 -85.5t-21 -101v-698h85v-61h-276z" />
    <glyph glyph-name="Itilde" unicode="&#x128;" horiz-adv-x="414" 
d="M68 0v61h94v1278h-94v61h278v-61h-95v-1278h95v-61h-278zM293 1474q-39 0 -64.5 17.5t-48 35.5t-49.5 18q-30 0 -45.5 -21t-20.5 -34l-57 31q5 19 20 41.5t39.5 40t57.5 17.5q39 0 66.5 -18t51 -36.5t51.5 -18.5q25 0 38.5 16.5t19.5 29.5l55 -37q-4 -16 -19 -35.5
t-39 -33t-56 -13.5z" />
    <glyph glyph-name="itilde" unicode="&#x129;" horiz-adv-x="371" 
d="M38 0v61h107v925h-107v61h197v-986h109v-61h-306zM275 1125q-39 0 -64.5 17.5t-48 35.5t-49.5 18q-30 0 -45.5 -21t-20.5 -34l-57 31q5 19 20 41.5t39.5 40t57.5 17.5q39 0 66.5 -18t51 -36.5t51.5 -18.5q25 0 38.5 16.5t19.5 29.5l55 -37q-4 -16 -19 -35.5t-39 -33
t-56 -13.5z" />
    <glyph glyph-name="Imacron" unicode="&#x12a;" horiz-adv-x="414" 
d="M68 0v61h94v1278h-94v61h278v-61h-95v-1278h95v-61h-278zM-94 1535v61h604v-61h-604z" />
    <glyph glyph-name="imacron" unicode="&#x12b;" horiz-adv-x="371" 
d="M38 0v61h107v925h-107v61h197v-986h109v-61h-306zM0 1132v61h379v-61h-379z" />
    <glyph glyph-name="ibreve" unicode="&#x12d;" horiz-adv-x="371" 
d="M38 0v61h107v925h-107v61h197v-986h109v-61h-306zM188 1102q-57 0 -93 24.5t-52 66t-16 91.5h57q4 -58 30 -89t74 -31t74.5 31t30.5 89h58q0 -50 -16.5 -91.5t-52.5 -66t-94 -24.5z" />
    <glyph glyph-name="Iogonek" unicode="&#x12e;" horiz-adv-x="414" 
d="M68 0v61h94v1278h-94v61h278v-61h-95v-1278h95v-61h-278zM354 -286q-37 0 -74.5 12.5t-62.5 43t-25 81.5q0 43 23 76t53.5 56.5t53.5 35.5l24 -19q-20 -20 -45.5 -56t-25.5 -84q0 -53 33 -67t66 -14q23 0 55.5 6.5t54.5 18.5l27 -45q-23 -17 -64.5 -31t-92.5 -14z" />
    <glyph glyph-name="iogonek" unicode="&#x12f;" horiz-adv-x="392" 
d="M202 1265q-34 0 -60.5 25.5t-26.5 59.5q0 36 26.5 62.5t60.5 26.5t60.5 -26.5t26.5 -62.5q0 -22 -12 -42t-32 -31.5t-43 -11.5zM39 0v61h107v925h-107v61h197v-986h109v-61h-306zM353 -286q-37 0 -75 12.5t-63 43t-25 81.5q0 43 23.5 76t54 56.5t52.5 35.5l25 -19
q-20 -20 -45.5 -56t-25.5 -84q0 -53 32.5 -67t66.5 -14q23 0 55.5 6.5t54.5 18.5l26 -45q-22 -17 -63.5 -31t-92.5 -14z" />
    <glyph glyph-name="Idotaccent" unicode="&#x130;" horiz-adv-x="414" 
d="M68 0v61h94v1278h-94v61h278v-61h-95v-1278h95v-61h-278zM207 1505q-26 0 -47 19.5t-21 46.5q0 28 21 49t47 21q27 0 47.5 -21t20.5 -49q0 -27 -20.5 -46.5t-47.5 -19.5z" />
    <glyph glyph-name="dotlessi" unicode="&#x131;" horiz-adv-x="371" 
d="M38 0v61h107v925h-107v61h197v-986h109v-61h-306z" />
    <glyph glyph-name="jcircumflex" unicode="&#x135;" horiz-adv-x="348" 
d="M48 -498q-47 0 -79 28.5t-49 77.5t-17 112q0 36 14 56t37 20t35 -18t12 -45q0 -20 -3.5 -37l-7 -34t-3.5 -38q0 -27 9 -39.5t23 -16t26 -3.5q57 0 86.5 68.5t29.5 196.5v1156h-109v61h199v-1148q0 -106 -15.5 -181t-43.5 -123t-65 -70.5t-79 -22.5zM13 1117l148 209h69
l146 -209h-63l-118 142l-119 -142h-63z" />
    <glyph glyph-name="uni0136" unicode="&#x136;" horiz-adv-x="678" 
d="M40 0v61h93v1278h-93v61h278v-61h-95v-589l268 589h-84v61h222v-61h-68l-283 -616l-3 59l273 -721h86v-61h-259v61h73l-239 633h14v-633h89v-61h-272zM332 -330l-28 33q11 6 28 23.5t18 29.5q-2 -4 -12 -4q-25 0 -41.5 17t-16.5 41q0 25 17.5 41t41.5 16q29 0 46 -19
t17 -51q0 -30 -11 -54.5t-27.5 -42.5t-31.5 -30z" />
    <glyph glyph-name="uni0137" unicode="&#x137;" horiz-adv-x="670" 
d="M41 0v61h101v1378h-101v61h191v-853l195 339h-81v61h231v-61h-82l-160 -288l237 -637h85v-61h-273v61h86l-201 540l-37 -75v-465h89v-61h-280zM338 -330l-28 33q11 6 28 23.5t18 29.5q-2 -4 -12 -4q-25 0 -41.5 17t-16.5 41q0 25 17.5 41t41.5 16q29 0 46 -19t17 -51
q0 -30 -11 -54.5t-27.5 -42.5t-31.5 -30z" />
    <glyph glyph-name="kgreenlandic" unicode="&#x138;" horiz-adv-x="678" 
d="M40 0v61h93v924h-93v61h278v-61h-95v-418l271 418h-87v61h222v-61h-68l-283 -445l-3 45l273 -524h86v-61h-259v61h74l-240 457l14 1v-458h89v-61h-272z" />
    <glyph glyph-name="Lacute" unicode="&#x139;" horiz-adv-x="579" 
d="M66 0v61h91v1278h-91v61h272v-61h-91v-1278h134q28 0 45 16.5t25.5 60t8.5 124.5h60v-262h-454zM92 1446l-28 31l168 131q14 11 30.5 19.5t29.5 8.5q12 0 21 -5.5t15 -15.5q4 -8 4 -18q0 -19 -18.5 -35t-42.5 -27z" />
    <glyph glyph-name="lacute" unicode="&#x13a;" horiz-adv-x="364" 
d="M47 0v61h91v1378h-91v61h179v-1439h92v-61h-271zM75 1530l-28 32l169 131q14 12 30 20t29 8q12 0 21 -5.5t15 -15.5q4 -8 4 -18q0 -19 -18.5 -35t-42.5 -27z" />
    <glyph glyph-name="uni013B" unicode="&#x13b;" horiz-adv-x="579" 
d="M66 0v61h91v1278h-91v61h272v-61h-91v-1278h134q28 0 45 16.5t25.5 60t8.5 124.5h60v-262h-454zM293 -330l-28 33q11 6 28 23.5t18 29.5q-2 -4 -12 -4q-25 0 -41.5 17t-16.5 41q0 25 17.5 41t41.5 16q29 0 46 -19t17 -51q0 -30 -11 -54.5t-27.5 -42.5t-31.5 -30z" />
    <glyph glyph-name="uni013C" unicode="&#x13c;" horiz-adv-x="364" 
d="M47 0v61h91v1378h-91v61h179v-1439h92v-61h-271zM178 -330l-28 33q11 6 28 23.5t18 29.5q-2 -4 -12 -4q-25 0 -41.5 17t-16.5 41q0 25 17.5 41t41.5 16q29 0 46 -19t17 -51q0 -30 -11 -54.5t-27.5 -42.5t-31.5 -30z" />
    <glyph glyph-name="Lcaron" unicode="&#x13d;" horiz-adv-x="583" 
d="M443 1199q11 45 17 97.5t6 102.5q0 38 10.5 57.5t31.5 19.5t29.5 -17.5t8.5 -49.5q0 -46 -14 -109t-40 -121zM66 0v61h91v1278h-91v61h272v-61h-91v-1278h134q28 0 45 16.5t25.5 60t8.5 124.5h60v-262h-454z" />
    <glyph glyph-name="lcaron" unicode="&#x13e;" horiz-adv-x="439" 
d="M293 1199q11 45 17 97.5t6 102.5q0 38 10.5 57.5t30.5 19.5q22 0 30 -17.5t8 -49.5q0 -46 -14 -109t-39 -121zM47 0v61h91v1378h-91v61h179v-1439h92v-61h-271z" />
    <glyph glyph-name="ldot" unicode="&#x140;" horiz-adv-x="378" 
d="M47 0v61h91v1378h-91v61h179v-1439h92v-61h-271zM369 734q-34 0 -58.5 25.5t-24.5 59.5q0 36 24.5 60t58.5 24t59 -24t25 -60q0 -34 -25 -59.5t-59 -25.5z" />
    <glyph glyph-name="Lslash" unicode="&#x141;" horiz-adv-x="619" 
d="M41 439v74l427 358v-73zM66 0v61h91v1278h-91v61h272v-61h-91v-1278h134q28 0 45 16.5t25.5 60t8.5 124.5h60v-262h-454z" />
    <glyph glyph-name="lslash" unicode="&#x142;" horiz-adv-x="382" 
d="M20 435v79l316 350v-73zM47 0v61h91v1378h-91v61h179v-1439h92v-61h-271z" />
    <glyph glyph-name="Nacute" unicode="&#x143;" horiz-adv-x="775" 
d="M35 0v61h92v1278h-92v61h223l335 -1213h-4v1152h-92v61h243v-61h-89v-1339h-103l-363 1317h5v-1256h104v-61h-259zM275 1446l-28 31l168 131q14 11 30.5 19.5t29.5 8.5q12 0 21 -5.5t15 -15.5q4 -8 4 -18q0 -19 -18.5 -35t-42.5 -27z" />
    <glyph glyph-name="nacute" unicode="&#x144;" horiz-adv-x="688" 
d="M35 0v61h100v925h-100v61h189v-114q7 29 29.5 57t58 46t77.5 18q38 0 77.5 -20.5t66.5 -83.5t27 -189v-700h100v-61h-283v61h93v677q0 132 -27 187.5t-83 55.5q-29 0 -53.5 -21t-43 -55t-28.5 -72.5t-10 -74.5v-697h93v-61h-283zM243 1077l-28 32l169 131q14 12 30 20
t29 8q12 0 21 -5.5t15 -15.5q4 -8 4 -18q0 -19 -18.5 -35t-42.5 -27z" />
    <glyph glyph-name="uni0145" unicode="&#x145;" horiz-adv-x="775" 
d="M35 0v61h92v1278h-92v61h223l335 -1213h-4v1152h-92v61h243v-61h-89v-1339h-103l-363 1317h5v-1256h104v-61h-259zM379 -330l-28 33q11 6 28 23.5t18 29.5q-2 -4 -12 -4q-25 0 -41.5 17t-16.5 41q0 25 17.5 41t41.5 16q29 0 46 -19t17 -51q0 -30 -11 -54.5t-27.5 -42.5
t-31.5 -30z" />
    <glyph glyph-name="uni0146" unicode="&#x146;" horiz-adv-x="688" 
d="M35 0v61h100v925h-100v61h189v-114q7 29 29.5 57t58 46t77.5 18q38 0 77.5 -20.5t66.5 -83.5t27 -189v-700h100v-61h-283v61h93v677q0 132 -27 187.5t-83 55.5q-29 0 -53.5 -21t-43 -55t-28.5 -72.5t-10 -74.5v-697h93v-61h-283zM347 -330l-28 33q11 6 28 23.5t18 29.5
q-2 -4 -12 -4q-25 0 -41.5 17t-16.5 41q0 25 17.5 41t41.5 16q29 0 46 -19t17 -51q0 -30 -11 -54.5t-27.5 -42.5t-31.5 -30z" />
    <glyph glyph-name="Ncaron" unicode="&#x147;" horiz-adv-x="775" 
d="M35 0v61h92v1278h-92v61h223l335 -1213h-4v1152h-92v61h243v-61h-89v-1339h-103l-363 1317h5v-1256h104v-61h-259zM352 1465l-151 212h64l121 -144l121 144h64l-150 -212h-69z" />
    <glyph glyph-name="ncaron" unicode="&#x148;" horiz-adv-x="688" 
d="M35 0v61h100v925h-100v61h189v-114q7 29 29.5 57t58 46t77.5 18q38 0 77.5 -20.5t66.5 -83.5t27 -189v-700h100v-61h-283v61h93v677q0 132 -27 187.5t-83 55.5q-29 0 -53.5 -21t-43 -55t-28.5 -72.5t-10 -74.5v-697h93v-61h-283zM320 1102l-151 212h64l121 -144l121 144
h64l-150 -212h-69z" />
    <glyph glyph-name="Eng" unicode="&#x14a;" horiz-adv-x="775" 
d="M472 -391q-48 0 -75.5 32t-39 86t-11.5 118q0 43 14 59.5t33 16.5q17 0 30.5 -14t13.5 -49q0 -29 -7.5 -42t-7.5 -57q0 -36 13.5 -63t38.5 -27q38 0 63.5 33.5t38 95t12.5 144.5v181h63v-151q0 -115 -18.5 -186t-46.5 -109.5t-59 -53t-55 -14.5zM35 0v61h92v1278h-92v61
h223l335 -1213h-4v1152h-92v61h243v-61h-89v-1339h-103l-363 1317h5v-1256h104v-61h-259z" />
    <glyph glyph-name="eng" unicode="&#x14b;" horiz-adv-x="671" 
d="M377 -429q-76 0 -106 60.5t-30 153.5q0 34 12.5 53t34.5 19t32 -18t10 -45q0 -17 -3.5 -28t-8 -22t-4.5 -31q0 -34 10.5 -51t25 -23t27.5 -6q29 0 50.5 20t36 55t21.5 81t7 98v836q0 109 -20.5 181.5t-81.5 72.5q-33 0 -60 -25.5t-45 -62t-27.5 -72.5t-9.5 -58v-698h103
v-61h-298v61h105v925h-105v61h194v-112q8 20 30 48t55 49t73 21q46 0 86 -21t65.5 -86t25.5 -196v-811q0 -134 -26.5 -215t-73 -117t-105.5 -36z" />
    <glyph glyph-name="Omacron" unicode="&#x14c;" horiz-adv-x="691" 
d="M344 -22q-93 0 -156.5 93.5t-95 255.5t-31.5 371q0 210 31.5 373t95 257t156.5 94q94 0 158 -94t96.5 -257t32.5 -373q0 -209 -32.5 -371t-96.5 -255.5t-158 -93.5zM344 39q48 0 83.5 49t59.5 139t36.5 210t12.5 261t-12.5 261.5t-36.5 211t-59.5 140.5t-83.5 50
q-47 0 -82.5 -50t-58.5 -140.5t-34.5 -211t-11.5 -261.5t11.5 -261t34.5 -210t58.5 -139t82.5 -49zM44 1535v61h604v-61h-604z" />
    <glyph glyph-name="omacron" unicode="&#x14d;" horiz-adv-x="585" 
d="M289 -22q-53 0 -96.5 37.5t-75.5 108.5t-49 172.5t-17 230.5q0 141 18.5 241.5t51 163.5t75.5 92.5t93 29.5q48 0 91 -29.5t76 -92.5t52 -163.5t19 -241.5q0 -129 -17.5 -230.5t-49.5 -172.5t-76 -108.5t-95 -37.5zM289 39q60 0 101 120.5t41 367.5q0 243 -41 355
t-101 112q-63 0 -104 -112t-41 -355q0 -247 41 -367.5t104 -120.5zM100 1132v61h379v-61h-379z" />
    <glyph glyph-name="obreve" unicode="&#x14f;" horiz-adv-x="585" 
d="M289 -22q-53 0 -96.5 37.5t-75.5 108.5t-49 172.5t-17 230.5q0 141 18.5 241.5t51 163.5t75.5 92.5t93 29.5q48 0 91 -29.5t76 -92.5t52 -163.5t19 -241.5q0 -129 -17.5 -230.5t-49.5 -172.5t-76 -108.5t-95 -37.5zM289 39q60 0 101 120.5t41 367.5q0 243 -41 355
t-101 112q-63 0 -104 -112t-41 -355q0 -247 41 -367.5t104 -120.5zM289 1102q-57 0 -93 24.5t-52 66t-16 91.5h57q4 -58 30 -89t74 -31t74.5 31t30.5 89h58q0 -50 -16.5 -91.5t-52.5 -66t-94 -24.5z" />
    <glyph glyph-name="Ohungarumlaut" unicode="&#x150;" horiz-adv-x="691" 
d="M344 -22q-93 0 -156.5 93.5t-95 255.5t-31.5 371q0 210 31.5 373t95 257t156.5 94q94 0 158 -94t96.5 -257t32.5 -373q0 -209 -32.5 -371t-96.5 -255.5t-158 -93.5zM344 39q48 0 83.5 49t59.5 139t36.5 210t12.5 261t-12.5 261.5t-36.5 211t-59.5 140.5t-83.5 50
q-47 0 -82.5 -50t-58.5 -140.5t-34.5 -211t-11.5 -261.5t11.5 -261t34.5 -210t58.5 -139t82.5 -49zM413 1497l-30 30l105 131q14 17 25.5 25.5t23.5 8.5q14 0 24 -10t10 -25q0 -24 -29 -45zM235 1497l-30 30l104 131q14 17 26 25.5t23 8.5q15 0 25 -10t10 -25q0 -24 -29 -45
z" />
    <glyph glyph-name="ohungarumlaut" unicode="&#x151;" horiz-adv-x="585" 
d="M289 -22q-53 0 -96.5 37.5t-75.5 108.5t-49 172.5t-17 230.5q0 141 18.5 241.5t51 163.5t75.5 92.5t93 29.5q48 0 91 -29.5t76 -92.5t52 -163.5t19 -241.5q0 -129 -17.5 -230.5t-49.5 -172.5t-76 -108.5t-95 -37.5zM289 39q60 0 101 120.5t41 367.5q0 243 -41 355
t-101 112q-63 0 -104 -112t-41 -355q0 -247 41 -367.5t104 -120.5zM316 1133l-30 30l105 131q14 17 25.5 25.5t23.5 8.5q14 0 24 -10t10 -25q0 -24 -29 -45zM138 1133l-30 30l104 131q14 17 26 25.5t23 8.5q15 0 25 -10t10 -25q0 -24 -29 -45z" />
    <glyph glyph-name="OE" unicode="&#x152;" horiz-adv-x="950" 
d="M359 -22q-95 0 -161.5 95t-101.5 257.5t-35 367.5q0 206 36 369.5t103.5 259t160.5 95.5q34 0 72 -10t59 -35l-16 -65q-21 29 -51.5 39t-57.5 10q-55 0 -95.5 -55.5t-66.5 -150t-38.5 -213.5t-12.5 -244t12 -243.5t37.5 -212t65.5 -148.5t96 -55q36 0 58.5 8t36 23
t22.5 33l25 -65q-24 -30 -62 -45t-86 -15zM459 0v1400h414v-259h-60q0 81 -6.5 124t-31 58.5t-81.5 15.5h-146v-588h230v100h60v-258h-60v98h-230v-630h136q60 0 87 16.5t34.5 60t7.5 124.5h60v-262h-414z" />
    <glyph glyph-name="oe" unicode="&#x153;" horiz-adv-x="926" 
d="M289 -22q-53 0 -96.5 37.5t-75.5 108.5t-49 172.5t-17 230.5q0 141 18.5 241.5t51 163.5t75.5 92.5t93 29.5q48 0 91 -29.5t76 -92.5t52 -163.5t19 -241.5q0 -129 -17.5 -230.5t-49.5 -172.5t-76 -108.5t-95 -37.5zM289 39q60 0 101 120.5t41 367.5q0 243 -41 355
t-101 112q-63 0 -104 -112t-41 -355q0 -247 41 -367.5t104 -120.5zM665 -22q-69 0 -113 48t-69 127.5t-34.5 176.5t-9.5 195q0 129 16 228t46 166t72 101t93 34q59 0 98.5 -40t61.5 -104.5t31.5 -142.5t9.5 -154v-42t-1 -40h-347v60h256q0 112 -9 203.5t-32.5 145
t-67.5 53.5q-41 0 -71.5 -53t-46.5 -151t-16 -233q0 -99 5.5 -191t19.5 -164.5t41.5 -115.5t71.5 -43q57 0 87 35.5t40 67.5l54 -25q-16 -57 -67 -99.5t-119 -42.5z" />
    <glyph glyph-name="Racute" unicode="&#x154;" horiz-adv-x="750" 
d="M633 -15q-51 0 -75.5 32t-31.5 85t-7 116q0 51 2 105t2 104q0 108 -14.5 164.5t-59 78t-133.5 21.5h-66v-630h94v-61h-279v61h96v1278h-96v61h314q76 0 132.5 -33.5t88.5 -105t32 -186.5q0 -88 -17 -153t-46.5 -108t-68 -65.5t-81.5 -26.5q83 -1 125 -37.5t56.5 -104
t14.5 -161.5q0 -49 -2 -101t-2 -102q0 -34 2.5 -75t11 -70.5t24.5 -29.5q8 0 15 10.5t7 23.5h55q-1 -30 -15 -50t-35 -30t-43 -10zM250 751h96q70 0 112.5 43.5t62 116t19.5 160.5q0 81 -14.5 141.5t-53.5 93.5t-113 33h-109v-588zM265 1446l-28 31l168 131q14 11 30.5 19.5
t29.5 8.5q12 0 21 -5.5t15 -15.5q4 -8 4 -18q0 -19 -18.5 -35t-42.5 -27z" />
    <glyph glyph-name="racute" unicode="&#x155;" horiz-adv-x="518" 
d="M25 0v61h101v925h-101v61h187l2 -105q2 10 19 37t48 51t76 24q46 0 74 -32.5t40.5 -88.5t12.5 -127q0 -41 -12.5 -62t-36.5 -21q-21 0 -33.5 17t-12.5 50q0 19 4.5 31.5t9 28t4.5 40.5q0 51 -18 73t-44 22q-41 0 -70 -35t-44 -85.5t-15 -97.5v-706h103v-61h-294z
M211 1077l-28 32l169 131q14 12 30 20t29 8q12 0 21 -5.5t15 -15.5q4 -8 4 -18q0 -19 -18.5 -35t-42.5 -27z" />
    <glyph glyph-name="uni0156" unicode="&#x156;" horiz-adv-x="750" 
d="M633 -15q-51 0 -75.5 32t-31.5 85t-7 116q0 51 2 105t2 104q0 108 -14.5 164.5t-59 78t-133.5 21.5h-66v-630h94v-61h-279v61h96v1278h-96v61h314q76 0 132.5 -33.5t88.5 -105t32 -186.5q0 -88 -17 -153t-46.5 -108t-68 -65.5t-81.5 -26.5q83 -1 125 -37.5t56.5 -104
t14.5 -161.5q0 -49 -2 -101t-2 -102q0 -34 2.5 -75t11 -70.5t24.5 -29.5q8 0 15 10.5t7 23.5h55q-1 -30 -15 -50t-35 -30t-43 -10zM250 751h96q70 0 112.5 43.5t62 116t19.5 160.5q0 81 -14.5 141.5t-53.5 93.5t-113 33h-109v-588zM369 -330l-28 33q11 6 28 23.5t18 29.5
q-2 -4 -12 -4q-25 0 -41.5 17t-16.5 41q0 25 17.5 41t41.5 16q29 0 46 -19t17 -51q0 -30 -11 -54.5t-27.5 -42.5t-31.5 -30z" />
    <glyph glyph-name="uni0157" unicode="&#x157;" horiz-adv-x="518" 
d="M25 0v61h101v925h-101v61h187l2 -105q2 10 19 37t48 51t76 24q46 0 74 -32.5t40.5 -88.5t12.5 -127q0 -41 -12.5 -62t-36.5 -21q-21 0 -33.5 17t-12.5 50q0 19 4.5 31.5t9 28t4.5 40.5q0 51 -18 73t-44 22q-41 0 -70 -35t-44 -85.5t-15 -97.5v-706h103v-61h-294z
M238 -330l-28 33q11 6 28 23.5t18 29.5q-2 -4 -12 -4q-25 0 -41.5 17t-16.5 41q0 25 17.5 41t41.5 16q29 0 46 -19t17 -51q0 -30 -11 -54.5t-27.5 -42.5t-31.5 -30z" />
    <glyph glyph-name="Rcaron" unicode="&#x158;" horiz-adv-x="750" 
d="M633 -15q-51 0 -75.5 32t-31.5 85t-7 116q0 51 2 105t2 104q0 108 -14.5 164.5t-59 78t-133.5 21.5h-66v-630h94v-61h-279v61h96v1278h-96v61h314q76 0 132.5 -33.5t88.5 -105t32 -186.5q0 -88 -17 -153t-46.5 -108t-68 -65.5t-81.5 -26.5q83 -1 125 -37.5t56.5 -104
t14.5 -161.5q0 -49 -2 -101t-2 -102q0 -34 2.5 -75t11 -70.5t24.5 -29.5q8 0 15 10.5t7 23.5h55q-1 -30 -15 -50t-35 -30t-43 -10zM250 751h96q70 0 112.5 43.5t62 116t19.5 160.5q0 81 -14.5 141.5t-53.5 93.5t-113 33h-109v-588zM342 1465l-151 212h64l121 -144l121 144
h64l-150 -212h-69z" />
    <glyph glyph-name="rcaron" unicode="&#x159;" horiz-adv-x="518" 
d="M25 0v61h101v925h-101v61h187l2 -105q2 10 19 37t48 51t76 24q46 0 74 -32.5t40.5 -88.5t12.5 -127q0 -41 -12.5 -62t-36.5 -21q-21 0 -33.5 17t-12.5 50q0 19 4.5 31.5t9 28t4.5 40.5q0 51 -18 73t-44 22q-41 0 -70 -35t-44 -85.5t-15 -97.5v-706h103v-61h-294z
M288 1102l-151 212h64l121 -144l121 144h64l-150 -212h-69z" />
    <glyph glyph-name="Sacute" unicode="&#x15a;" horiz-adv-x="571" 
d="M306 -27q-40 0 -67 12t-46 28t-32 28t-23 12q-20 0 -20 -53h-50v280h60q2 -34 11.5 -68.5t24.5 -66t36.5 -56t49 -38.5t59.5 -14q55 0 83 30t37.5 82.5t9.5 119.5q0 74 -26.5 147t-69 144t-91.5 136q-73 100 -112.5 179.5t-53.5 146t-14 124.5q0 85 27 147t74.5 95.5
t106.5 33.5q50 0 76 -17t39.5 -34.5t25.5 -17.5q11 0 16.5 11t5.5 36h51v-277h-61q-2 43 -12 85t-28.5 76t-46 54.5t-63.5 20.5q-60 0 -95 -45.5t-35 -131.5q0 -57 11 -111t44 -119t98 -158q56 -77 105.5 -159.5t80 -169.5t30.5 -177q0 -75 -13 -133.5t-39.5 -98.5
t-67 -61.5t-96.5 -21.5zM183 1446l-28 31l168 131q14 11 30.5 19.5t29.5 8.5q12 0 21 -5.5t15 -15.5q4 -8 4 -18q0 -19 -18.5 -35t-42.5 -27z" />
    <glyph glyph-name="sacute" unicode="&#x15b;" horiz-adv-x="501" 
d="M260 -22q-49 0 -74.5 12.5t-39 24.5t-24.5 12t-15 -7.5t-4 -19.5h-49v277h58q4 -65 13.5 -110.5t26.5 -74t42.5 -41t62.5 -12.5q40 0 64 24.5t34.5 61.5t10.5 72q0 56 -13.5 105.5t-44.5 101t-85 109.5q-64 72 -110.5 147.5t-46.5 183.5q0 69 25 115.5t65.5 70.5t86.5 24
q38 0 60.5 -8t36 -17t21.5 -9t11 7t4 20h51v-268h-57q-4 65 -13 106.5t-24.5 65t-37 33t-50.5 9.5q-49 0 -76 -36t-27 -98q0 -72 33.5 -131t100.5 -136q58 -67 96 -126t56.5 -116.5t18.5 -121.5q0 -69 -21.5 -125.5t-63 -90.5t-102.5 -34zM142 1077l-28 32l169 131
q14 12 30 20t29 8q12 0 21 -5.5t15 -15.5q4 -8 4 -18q0 -19 -18.5 -35t-42.5 -27z" />
    <glyph glyph-name="scircumflex" unicode="&#x15d;" horiz-adv-x="501" 
d="M260 -22q-49 0 -74.5 12.5t-39 24.5t-24.5 12t-15 -7.5t-4 -19.5h-49v277h58q4 -65 13.5 -110.5t26.5 -74t42.5 -41t62.5 -12.5q40 0 64 24.5t34.5 61.5t10.5 72q0 56 -13.5 105.5t-44.5 101t-85 109.5q-64 72 -110.5 147.5t-46.5 183.5q0 69 25 115.5t65.5 70.5t86.5 24
q38 0 60.5 -8t36 -17t21.5 -9t11 7t4 20h51v-268h-57q-4 65 -13 106.5t-24.5 65t-37 33t-50.5 9.5q-49 0 -76 -36t-27 -98q0 -72 33.5 -131t100.5 -136q58 -67 96 -126t56.5 -116.5t18.5 -121.5q0 -69 -21.5 -125.5t-63 -90.5t-102.5 -34zM71 1118l148 209h69l146 -209h-63
l-118 142l-119 -142h-63z" />
    <glyph glyph-name="Scedilla" unicode="&#x15e;" horiz-adv-x="571" 
d="M306 -27q-40 0 -67 12t-46 28t-32 28t-23 12q-20 0 -20 -53h-50v280h60q2 -34 11.5 -68.5t24.5 -66t36.5 -56t49 -38.5t59.5 -14q55 0 83 30t37.5 82.5t9.5 119.5q0 74 -26.5 147t-69 144t-91.5 136q-73 100 -112.5 179.5t-53.5 146t-14 124.5q0 85 27 147t74.5 95.5
t106.5 33.5q50 0 76 -17t39.5 -34.5t25.5 -17.5q11 0 16.5 11t5.5 36h51v-277h-61q-2 43 -12 85t-28.5 76t-46 54.5t-63.5 20.5q-60 0 -95 -45.5t-35 -131.5q0 -57 11 -111t44 -119t98 -158q56 -77 105.5 -159.5t80 -169.5t30.5 -177q0 -75 -13 -133.5t-39.5 -98.5
t-67 -61.5t-96.5 -21.5zM319 -287q-54 0 -90.5 10t-51.5 18l22 50q10 -7 41 -16t79 -9q32 0 58.5 15t26.5 43q0 31 -18.5 40.5t-42.5 9.5q-16 0 -37 -7.5t-35 -21.5l-57 4l63 151h60l-48 -104q5 7 28 17t52 10q37 0 69 -22t32 -78q0 -41 -24.5 -65.5t-60 -34.5t-66.5 -10z
" />
    <glyph glyph-name="scedilla" unicode="&#x15f;" horiz-adv-x="501" 
d="M260 -22q-49 0 -74.5 12.5t-39 24.5t-24.5 12t-15 -7.5t-4 -19.5h-49v277h57q4 -65 13.5 -110.5t26 -74t42.5 -41t64 -12.5q40 0 64 24.5t34.5 61.5t10.5 72q0 56 -13.5 105.5t-44.5 101t-85 109.5q-64 72 -110.5 147.5t-46.5 183.5q0 67 25 113.5t65.5 71.5t86.5 25
q38 0 60.5 -8t36 -17t21.5 -9t11 7t4 20h51v-268h-56q-4 65 -13 106.5t-24.5 65t-37 33t-51.5 9.5q-49 0 -76 -36t-27 -98q0 -72 33.5 -131t100.5 -136q58 -67 96 -126t56.5 -116.5t18.5 -121.5q0 -101 -48 -175.5t-139 -74.5zM265 -287q-54 0 -90.5 10t-51.5 18l22 50
q10 -7 41 -16t79 -9q32 0 58.5 15t26.5 43q0 31 -18.5 40.5t-42.5 9.5q-16 0 -37 -7.5t-35 -21.5l-57 4l62 151h61l-48 -104q5 8 28 17.5t51 9.5q38 0 70 -22t32 -78q0 -41 -24.5 -65.5t-60 -34.5t-66.5 -10z" />
    <glyph glyph-name="Scaron" unicode="&#x160;" horiz-adv-x="571" 
d="M306 -27q-40 0 -67 12t-46 28t-32 28t-23 12q-20 0 -20 -53h-50v280h60q2 -34 11.5 -68.5t24.5 -66t36.5 -56t49 -38.5t59.5 -14q55 0 83 30t37.5 82.5t9.5 119.5q0 74 -26.5 147t-69 144t-91.5 136q-73 100 -112.5 179.5t-53.5 146t-14 124.5q0 85 27 147t74.5 95.5
t106.5 33.5q50 0 76 -17t39.5 -34.5t25.5 -17.5q11 0 16.5 11t5.5 36h51v-277h-61q-2 43 -12 85t-28.5 76t-46 54.5t-63.5 20.5q-60 0 -95 -45.5t-35 -131.5q0 -57 11 -111t44 -119t98 -158q56 -77 105.5 -159.5t80 -169.5t30.5 -177q0 -75 -13 -133.5t-39.5 -98.5
t-67 -61.5t-96.5 -21.5zM260 1465l-151 212h64l121 -144l121 144h64l-150 -212h-69z" />
    <glyph glyph-name="scaron" unicode="&#x161;" horiz-adv-x="501" 
d="M260 -22q-49 0 -74.5 12.5t-39 24.5t-24.5 12t-15 -7.5t-4 -19.5h-49v277h58q4 -65 13.5 -110.5t26.5 -74t42.5 -41t62.5 -12.5q40 0 64 24.5t34.5 61.5t10.5 72q0 56 -13.5 105.5t-44.5 101t-85 109.5q-64 72 -110.5 147.5t-46.5 183.5q0 69 25 115.5t65.5 70.5t86.5 24
q38 0 60.5 -8t36 -17t21.5 -9t11 7t4 20h51v-268h-57q-4 65 -13 106.5t-24.5 65t-37 33t-50.5 9.5q-49 0 -76 -36t-27 -98q0 -72 33.5 -131t100.5 -136q58 -67 96 -126t56.5 -116.5t18.5 -121.5q0 -69 -21.5 -125.5t-63 -90.5t-102.5 -34zM219 1102l-151 212h64l121 -144
l121 144h64l-150 -212h-69z" />
    <glyph glyph-name="uni0162" unicode="&#x162;" horiz-adv-x="675" 
d="M183 0v61h110v1278h-100q-45 0 -64.5 -14.5t-24.5 -57.5t-5 -126h-61v259h599v-259h-61q0 83 -5 126t-24.5 57.5t-64.5 14.5h-99v-1278h114v-61h-314zM349 -287q-54 0 -90.5 10t-51.5 18l22 50q10 -7 41 -16t79 -9q32 0 58.5 15t26.5 43q0 31 -18.5 40.5t-42.5 9.5
q-16 0 -37 -7.5t-34 -21.5l-58 4l63 151h60l-48 -104q5 8 28 17.5t52 9.5q37 0 69 -22t32 -77q0 -42 -24.5 -66.5t-60 -34.5t-66.5 -10z" />
    <glyph glyph-name="uni0163" unicode="&#x163;" horiz-adv-x="390" 
d="M248 -18q-30 0 -59 11t-47.5 43t-18.5 94v856h-117v61h117q8 33 13.5 81t9.5 100t5 96h62v-277h139v-61h-139v-875q0 -42 16 -55.5t32 -13.5q21 0 35 9.5t21 19.5l36 -48q-15 -16 -43 -28.5t-62 -12.5zM265 -281q-54 0 -90.5 10t-51.5 18l22 50q10 -7 41 -16t79 -9
q32 0 58.5 15t26.5 43q0 31 -18.5 40.5t-42.5 9.5q-16 0 -37 -7.5t-34 -21.5l-58 4l63 151h60l-48 -104q5 8 28 17.5t52 9.5q37 0 69 -22t32 -77q0 -42 -24.5 -66.5t-60 -34.5t-66.5 -10z" />
    <glyph glyph-name="Tcaron" unicode="&#x164;" horiz-adv-x="675" 
d="M183 0v61h110v1278h-100q-45 0 -64.5 -14.5t-24.5 -57.5t-5 -126h-61v259h599v-259h-61q0 83 -5 126t-24.5 57.5t-64.5 14.5h-99v-1278h114v-61h-314zM309 1483l-151 212h64l121 -144l121 144h64l-150 -212h-69z" />
    <glyph glyph-name="tcaron" unicode="&#x165;" horiz-adv-x="405" 
d="M308 1199q11 45 17.5 97.5t6.5 102.5q0 38 10.5 57.5t30.5 19.5q21 0 29.5 -17.5t8.5 -49.5q0 -46 -14 -109t-40 -121zM248 -18q-30 0 -59 11t-47.5 43t-18.5 94v856h-117v61h117q8 33 13.5 81t9.5 100t5 96h62v-277h139v-61h-139v-875q0 -42 16 -55.5t32 -13.5
q21 0 35 9.5t21 19.5l36 -48q-15 -16 -43 -28.5t-62 -12.5z" />
    <glyph glyph-name="Tbar" unicode="&#x166;" horiz-adv-x="675" 
d="M133 669v61h414v-61h-414zM183 0v61h110v1278h-100q-45 0 -64.5 -14.5t-24.5 -57.5t-5 -126h-61v259h599v-259h-61q0 83 -5 126t-24.5 57.5t-64.5 14.5h-99v-1278h114v-61h-314z" />
    <glyph glyph-name="tbar" unicode="&#x167;" horiz-adv-x="390" 
d="M19 618v58h321v-58h-321zM248 -18q-30 0 -59 11t-47.5 43t-18.5 94v856h-117v61h117q8 33 13.5 81t9.5 100t5 96h62v-277h139v-61h-139v-875q0 -42 16 -55.5t32 -13.5q21 0 35 9.5t21 19.5l36 -48q-15 -16 -43 -28.5t-62 -12.5z" />
    <glyph glyph-name="Utilde" unicode="&#x168;" horiz-adv-x="707" 
d="M357 -24q-41 0 -81 15t-72 50.5t-51.5 96.5t-19.5 153v1048h-95v61h280v-61h-94v-1038q0 -148 40.5 -204t103.5 -56q31 0 57.5 12.5t46.5 40.5t31 77t11 123v1045h-83v61h238v-61h-94v-1057q0 -117 -30 -183.5t-79.5 -94.5t-108.5 -28zM440 1474q-39 0 -64.5 17.5
t-48 35.5t-49.5 18q-30 0 -45.5 -21t-20.5 -34l-57 31q5 19 20 41.5t39.5 40t57.5 17.5q39 0 66.5 -18t51 -36.5t51.5 -18.5q25 0 38.5 16.5t19.5 29.5l55 -37q-4 -16 -19 -35.5t-39 -33t-56 -13.5z" />
    <glyph glyph-name="utilde" unicode="&#x169;" horiz-adv-x="660" 
d="M301 -22q-47 0 -88 21.5t-66.5 81.5t-25.5 175v730h-103v60h193v-782q0 -89 15 -135.5t39 -63t52 -16.5q45 0 76 44.5t47 113t16 140.5v639h-103v60h193v-985h92v-61h-174l-2 130q-4 -31 -23 -66.5t-53 -60.5t-85 -25zM419 1125q-39 0 -64.5 17.5t-48 35.5t-49.5 18
q-30 0 -45.5 -21t-20.5 -34l-57 31q5 19 20 41.5t39.5 40t57.5 17.5q39 0 66.5 -18t51 -36.5t51.5 -18.5q25 0 38.5 16.5t19.5 29.5l55 -37q-4 -16 -19 -35.5t-39 -33t-56 -13.5z" />
    <glyph glyph-name="Umacron" unicode="&#x16a;" horiz-adv-x="707" 
d="M357 -24q-41 0 -81 15t-72 50.5t-51.5 96.5t-19.5 153v1048h-95v61h280v-61h-94v-1038q0 -148 40.5 -204t103.5 -56q31 0 57.5 12.5t46.5 40.5t31 77t11 123v1045h-83v61h238v-61h-94v-1057q0 -117 -30 -183.5t-79.5 -94.5t-108.5 -28zM53 1535v61h604v-61h-604z" />
    <glyph glyph-name="umacron" unicode="&#x16b;" horiz-adv-x="660" 
d="M301 -22q-47 0 -88 21.5t-66.5 81.5t-25.5 175v730h-103v60h193v-782q0 -89 15 -135.5t39 -63t52 -16.5q45 0 76 44.5t47 113t16 140.5v639h-103v60h193v-985h92v-61h-174l-2 130q-4 -31 -23 -66.5t-53 -60.5t-85 -25zM143 1132v61h379v-61h-379z" />
    <glyph glyph-name="ubreve" unicode="&#x16d;" horiz-adv-x="660" 
d="M301 -22q-47 0 -88 21.5t-66.5 81.5t-25.5 175v730h-103v60h193v-782q0 -89 15 -135.5t39 -63t52 -16.5q45 0 76 44.5t47 113t16 140.5v639h-103v60h193v-985h92v-61h-174l-2 130q-4 -31 -23 -66.5t-53 -60.5t-85 -25zM332 1102q-57 0 -93 24.5t-52 66t-16 91.5h57
q4 -58 30 -89t74 -31t74.5 31t30.5 89h58q0 -50 -16.5 -91.5t-52.5 -66t-94 -24.5z" />
    <glyph glyph-name="Uring" unicode="&#x16e;" horiz-adv-x="707" 
d="M357 -24q-41 0 -81 15t-72 50.5t-51.5 96.5t-19.5 153v1048h-95v61h280v-61h-94v-1038q0 -148 40.5 -204t103.5 -56q31 0 57.5 12.5t46.5 40.5t31 77t11 123v1045h-83v61h238v-61h-94v-1057q0 -117 -30 -183.5t-79.5 -94.5t-108.5 -28zM354 1461q-44 0 -74.5 32.5
t-30.5 85.5q0 55 30.5 86.5t74.5 31.5t75 -31.5t31 -86.5q0 -53 -31 -85.5t-75 -32.5zM354 1503q28 0 40.5 22.5t12.5 55.5q0 29 -12.5 51.5t-40.5 22.5q-26 0 -39 -22.5t-13 -51.5q0 -33 13 -55.5t39 -22.5z" />
    <glyph glyph-name="uring" unicode="&#x16f;" horiz-adv-x="660" 
d="M301 -22q-47 0 -88 21.5t-66.5 81.5t-25.5 175v730h-103v60h193v-782q0 -89 15 -135.5t39 -63t52 -16.5q45 0 76 44.5t47 113t16 140.5v639h-103v60h193v-985h92v-61h-174l-2 130q-4 -31 -23 -66.5t-53 -60.5t-85 -25zM333 1092q-44 0 -74.5 32.5t-30.5 85.5
q0 55 30.5 86.5t74.5 31.5t75 -31.5t31 -86.5q0 -53 -31 -85.5t-75 -32.5zM333 1134q28 0 40.5 22.5t12.5 55.5q0 29 -12.5 51.5t-40.5 22.5q-26 0 -39 -22.5t-13 -51.5q0 -33 13 -55.5t39 -22.5z" />
    <glyph glyph-name="Uhungarumlaut" unicode="&#x170;" horiz-adv-x="707" 
d="M357 -24q-41 0 -81 15t-72 50.5t-51.5 96.5t-19.5 153v1048h-95v61h280v-61h-94v-1038q0 -148 40.5 -204t103.5 -56q31 0 57.5 12.5t46.5 40.5t31 77t11 123v1045h-83v61h238v-61h-94v-1057q0 -117 -30 -183.5t-79.5 -94.5t-108.5 -28zM422 1497l-30 30l105 131
q14 17 25.5 25.5t23.5 8.5q14 0 24 -10t10 -25q0 -24 -29 -45zM244 1497l-30 30l104 131q14 17 26 25.5t23 8.5q15 0 25 -10t10 -25q0 -24 -29 -45z" />
    <glyph glyph-name="uhungarumlaut" unicode="&#x171;" horiz-adv-x="660" 
d="M301 -22q-47 0 -88 21.5t-66.5 81.5t-25.5 175v730h-103v60h193v-782q0 -89 15 -135.5t39 -63t52 -16.5q45 0 76 44.5t47 113t16 140.5v639h-103v60h193v-985h92v-61h-174l-2 130q-4 -31 -23 -66.5t-53 -60.5t-85 -25zM359 1133l-30 30l105 131q14 17 25.5 25.5t23.5 8.5
q14 0 24 -10t10 -25q0 -24 -29 -45zM181 1133l-30 30l104 131q14 17 26 25.5t23 8.5q15 0 25 -10t10 -25q0 -24 -29 -45z" />
    <glyph glyph-name="Uogonek" unicode="&#x172;" horiz-adv-x="707" 
d="M357 -24q-41 0 -81 15t-72 50.5t-51.5 96.5t-19.5 153v1048h-95v61h280v-61h-94v-1038q0 -148 40.5 -204t103.5 -56q31 0 57.5 12.5t46.5 40.5t31 77t11 123v1045h-83v61h238v-61h-94v-1057q0 -117 -30 -183.5t-79.5 -94.5t-108.5 -28zM496 -266q-37 0 -75 12.5t-63 43
t-25 81.5q0 43 23.5 76t54 56.5t52.5 35.5l25 -19q-21 -20 -46.5 -56t-25.5 -84q0 -53 33 -67t66 -14q24 0 56.5 6t53.5 19l27 -45q-22 -17 -63.5 -31t-92.5 -14z" />
    <glyph glyph-name="uogonek" unicode="&#x173;" horiz-adv-x="660" 
d="M301 -22q-47 0 -88 21.5t-66.5 81.5t-25.5 175v730h-103v60h193v-782q0 -89 15 -135.5t39 -63t52 -16.5q45 0 76 44.5t47 113t16 140.5v639h-103v60h193v-985h92v-61h-174l-2 130q-4 -31 -23 -66.5t-53 -60.5t-85 -25zM647 -286q-38 0 -75.5 12.5t-62.5 43t-25 81.5
q0 43 23 76t53.5 56.5t53.5 35.5l24 -19q-20 -20 -45.5 -56t-25.5 -84q0 -53 33 -67t66 -14q23 0 55.5 6.5t54.5 18.5l27 -45q-23 -17 -64.5 -31t-91.5 -14z" />
    <glyph glyph-name="Wcircumflex" unicode="&#x174;" horiz-adv-x="1010" 
d="M285 -3l-155 1342h-105v61h299v-61h-95l122 -1178l-12 -13l151 1179l16 -134l-24 146h-102v61h299v-61h-100l155 -1175l-10 -13l122 1188h-84v61h241v-61h-89l-157 -1342h-85l-160 1179l24 27l-167 -1206h-84zM334 1457l148 209h69l146 -209h-63l-118 142l-119 -142h-63z
" />
    <glyph glyph-name="wcircumflex" unicode="&#x175;" horiz-adv-x="926" 
d="M600 -6l-145 992h-92v61h254v-61h-70l112 -842l106 842h-73v61h217v-61h-80l-133 -992h-96zM234 -6l-135 992h-80v61h251v-61h-76l102 -842l114 842h-63v61h215v-61h-89l-142 -992h-97zM273 1118l148 209h69l146 -209h-63l-118 142l-119 -142h-63z" />
    <glyph glyph-name="Ycircumflex" unicode="&#x176;" horiz-adv-x="669" 
d="M199 0v61h95v528l-177 750h-90v61h270v-61h-75l156 -715h-43l170 715h-77v61h233v-61h-92l-185 -744v-534h87v-61h-272zM154 1457l148 209h69l146 -209h-63l-118 142l-119 -142h-63z" />
    <glyph glyph-name="ycircumflex" unicode="&#x177;" horiz-adv-x="596" 
d="M165 -502q-36 0 -58 28.5t-32 77.5t-10 112q0 36 11.5 56t33.5 20q23 0 33.5 -18t10.5 -45q0 -20 -5 -35t-10.5 -29t-5.5 -36q0 -28 7.5 -54.5t26.5 -26.5q13 0 21 14.5t14.5 41.5t13.5 63l68 355l-178 964h-82v61h251v-61h-73l126 -712l122 712h-74v61h221v-61h-80
l-179 -993l-66 -342q-10 -51 -23.5 -85t-33.5 -51t-50 -17zM126 1118l148 209h69l146 -209h-63l-118 142l-119 -142h-63z" />
    <glyph glyph-name="Ydieresis" unicode="&#x178;" horiz-adv-x="669" 
d="M199 0v61h95v528l-177 750h-90v61h270v-61h-75l156 -715h-43l170 715h-77v61h233v-61h-92l-185 -744v-534h87v-61h-272zM445 1499q-27 0 -47.5 19.5t-20.5 46.5q0 29 20.5 50t47.5 21t47.5 -21t20.5 -50q0 -27 -20.5 -46.5t-47.5 -19.5zM225 1499q-26 0 -46.5 19.5
t-20.5 46.5q0 29 20.5 50t46.5 21q28 0 49 -21t21 -50q0 -27 -21 -46.5t-49 -19.5z" />
    <glyph glyph-name="Zacute" unicode="&#x179;" horiz-adv-x="587" 
d="M59 0v61l348 1278h-112q-76 0 -111 -15.5t-44.5 -58.5t-9.5 -124h-60v259h439v-59l-354 -1280h156q70 0 102.5 16.5t42.5 60t10 124.5h61v-262h-468zM193 1446l-28 31l168 131q14 11 30.5 19.5t29.5 8.5q12 0 21 -5.5t15 -15.5q4 -8 4 -18q0 -19 -18.5 -35t-42.5 -27z
" />
    <glyph glyph-name="zacute" unicode="&#x17a;" horiz-adv-x="500" 
d="M72 0v61l258 925h-101q-44 0 -63.5 -14t-24 -58t-4.5 -135h-59v268h343v-61l-258 -925h91q53 0 75.5 15t27.5 62t5 139h61v-277h-351zM141 1077l-28 32l169 131q14 12 30 20t29 8q12 0 21 -5.5t15 -15.5q4 -8 4 -18q0 -19 -18.5 -35t-42.5 -27z" />
    <glyph glyph-name="Zdotaccent" unicode="&#x17b;" horiz-adv-x="587" 
d="M59 0v61l348 1278h-112q-76 0 -111 -15.5t-44.5 -58.5t-9.5 -124h-60v259h439v-59l-354 -1280h156q70 0 102.5 16.5t42.5 60t10 124.5h61v-262h-468zM303 1505q-26 0 -47 19.5t-21 46.5q0 28 21 49t47 21q27 0 47.5 -21t20.5 -49q0 -27 -20.5 -46.5t-47.5 -19.5z" />
    <glyph glyph-name="zdotaccent" unicode="&#x17c;" horiz-adv-x="500" 
d="M72 0v61l258 925h-101q-44 0 -63.5 -14t-24 -58t-4.5 -135h-59v268h343v-61l-258 -925h91q53 0 75.5 15t27.5 62t5 139h61v-277h-351zM251 1127q-26 0 -47 20t-21 46q0 28 21 49t47 21q27 0 47.5 -21t20.5 -49q0 -26 -20.5 -46t-47.5 -20z" />
    <glyph glyph-name="Zcaron" unicode="&#x17d;" horiz-adv-x="587" 
d="M59 0v61l348 1278h-112q-76 0 -111 -15.5t-44.5 -58.5t-9.5 -124h-60v259h439v-59l-354 -1280h156q70 0 102.5 16.5t42.5 60t10 124.5h61v-262h-468zM269 1465l-151 212h64l121 -144l121 144h64l-150 -212h-69z" />
    <glyph glyph-name="zcaron" unicode="&#x17e;" horiz-adv-x="500" 
d="M72 0v61l258 925h-101q-44 0 -63.5 -14t-24 -58t-4.5 -135h-59v268h343v-61l-258 -925h91q53 0 75.5 15t27.5 62t5 139h61v-277h-351zM218 1102l-151 212h64l121 -144l121 144h64l-150 -212h-69z" />
    <glyph glyph-name="uni018F" unicode="&#x18f;" horiz-adv-x="646" 
d="M311 -25q-71 0 -118.5 55t-75 146.5t-39.5 206t-12 234.5v56.5t1 55.5h442v-61h-346q0 -179 12 -322.5t44 -226.5t92 -83q56 0 96.5 78.5t62.5 217.5t22 322q0 134 -6.5 261t-25.5 230t-56 163.5t-97 60.5q-50 0 -84.5 -28t-55 -66.5t-29.5 -68.5l-58 33q18 51 52.5 94.5
t80.5 70.5t98 27q87 0 141 -65t83.5 -173.5t40.5 -239.5t11 -264q0 -169 -19 -301t-54.5 -224t-86.5 -140.5t-116 -48.5zM62 1206v194h59q0 -27 6 -57t14 -30l-3 -107h-76z" />
    <glyph glyph-name="florin" unicode="&#x192;" horiz-adv-x="619" 
d="M-5 -420q-45 0 -74 22t-42.5 63.5t-13.5 101.5q0 32 10 50.5t32 18.5t31.5 -15.5t9.5 -39.5q0 -18 -3 -25.5t-5.5 -15t-2.5 -27.5q0 -25 10 -49.5t34 -24.5q33 0 57 35.5t39.5 88.5t24.5 108t13 95l89 1020h-107v61h107l4 45q16 170 47 260.5t76.5 124.5t104.5 34
q54 0 89 -33t52 -86.5t17 -116.5q0 -36 -11.5 -56t-34.5 -20q-22 0 -31 19t-9 49q0 19 3 30.5t6.5 23.5t3.5 32q0 51 -25.5 73t-57.5 22q-55 0 -83 -45.5t-41 -126.5t-23 -187l-3 -42h124v-61h-131l-79 -966q-4 -57 -13 -118t-23.5 -118.5t-37 -103.5t-55.5 -73t-78 -27z
" />
    <glyph glyph-name="Ohorn" unicode="&#x1a0;" horiz-adv-x="691" 
d="M344 -22q-93 0 -156.5 93.5t-95 255.5t-31.5 371q0 210 31.5 373t95 257t156.5 94q94 0 158 -94t96.5 -257t32.5 -373q0 -209 -32.5 -371t-96.5 -255.5t-158 -93.5zM344 39q48 0 83.5 49t59.5 139t36.5 210t12.5 261t-12.5 261.5t-36.5 211t-59.5 140.5t-83.5 50
q-47 0 -82.5 -50t-58.5 -140.5t-34.5 -211t-11.5 -261.5t11.5 -261t34.5 -210t58.5 -139t82.5 -49zM443 1329v61q52 0 94 15t42 66q0 19 -3 43t-3 41q0 30 15.5 47.5t39.5 17.5q23 0 38.5 -17t15.5 -48q0 -92 -39 -141t-94.5 -67t-105.5 -18z" />
    <glyph glyph-name="ohorn" unicode="&#x1a1;" horiz-adv-x="585" 
d="M289 -22q-53 0 -96.5 37.5t-75.5 108.5t-49 172.5t-17 230.5q0 141 18.5 241.5t51 163.5t75.5 92.5t93 29.5q48 0 91 -29.5t76 -92.5t52 -163.5t19 -241.5q0 -129 -17.5 -230.5t-49.5 -172.5t-76 -108.5t-95 -37.5zM289 39q60 0 101 120.5t41 367.5q0 243 -41 355
t-101 112q-63 0 -104 -112t-41 -355q0 -247 41 -367.5t104 -120.5zM384 955v61q53 0 94.5 15t41.5 67q0 19 -3 43t-3 41q0 30 16 47.5t39 17.5t38.5 -17t15.5 -48q0 -93 -39 -142t-94.5 -67t-105.5 -18z" />
    <glyph glyph-name="Uhorn" unicode="&#x1af;" horiz-adv-x="707" 
d="M357 -24q-41 0 -81 15t-72 50.5t-51.5 96.5t-19.5 153v1048h-95v61h280v-61h-94v-1038q0 -148 40.5 -204t103.5 -56q31 0 57.5 12.5t46.5 40.5t31 77t11 123v1045h-83v61h166v-61h-22v-1057q0 -117 -30 -183.5t-79.5 -94.5t-108.5 -28zM597 1339v61q53 0 94.5 15t41.5 67
q0 19 -2.5 43t-2.5 41q0 30 15.5 47.5t38.5 17.5t38.5 -17t15.5 -48q0 -93 -39 -142t-94.5 -67t-105.5 -18z" />
    <glyph glyph-name="uhorn" unicode="&#x1b0;" horiz-adv-x="660" 
d="M301 -22q-47 0 -88 21.5t-66.5 81.5t-25.5 175v730h-103v60h193v-782q0 -89 15 -135.5t39 -63t52 -16.5q45 0 76 44.5t47 113t16 140.5v639h-103v60h193v-985h92v-61h-174l-2 130q-4 -31 -23 -66.5t-53 -60.5t-85 -25zM520 985v61q53 0 94.5 15t41.5 67q0 19 -2.5 43
t-2.5 41q0 30 15.5 47.5t38.5 17.5q24 0 39 -17t15 -48q0 -93 -39 -142t-94.5 -67t-105.5 -18z" />
    <glyph glyph-name="uni01C6" unicode="&#x1c6;" horiz-adv-x="1128" 
d="M284 -20q-62 0 -109 54t-73.5 172.5t-26.5 311.5q0 194 26.5 311.5t72.5 170t104 52.5q46 0 75 -20.5t44.5 -49t20.5 -52.5v509h-110v61h201v-1439h108v-61h-193l-3 132q-3 -26 -19 -62.5t-44.5 -63t-73.5 -26.5zM298 52q34 0 59.5 42.5t41 104.5t19.5 122v443
q-5 50 -23 97.5t-44.5 79t-58.5 31.5q-36 0 -59.5 -36t-37.5 -99t-20 -146t-6 -178q0 -115 7.5 -201.5t22.5 -144t39.5 -86.5t59.5 -29zM700 0v61l258 925h-101q-44 0 -63.5 -14t-24 -58t-4.5 -135h-59v268h343v-61l-258 -925h91q53 0 75.5 15t27.5 62t5 139h61v-277h-351z
M845 1102l-151 212h64l121 -144l121 144h64l-150 -212h-69z" />
    <glyph glyph-name="uni01C7" unicode="&#x1c7;" horiz-adv-x="1130" 
d="M66 0v61h91v1278h-91v61h272v-61h-91v-1278h134q28 0 45 16.5t25.5 60t8.5 124.5h60v-262h-454zM789 -26q-59 0 -96.5 28.5t-55 83.5t-17.5 135q0 49 15 68t38 19q22 0 35.5 -16t13.5 -52q0 -22 -5.5 -38t-11 -35t-5.5 -50q0 -34 24 -57t58 -23q53 0 87.5 49t34.5 183
v1070h-99v61h283v-61h-94v-979q0 -111 -15 -185.5t-42 -118.5t-64.5 -63t-83.5 -19z" />
    <glyph glyph-name="uni01C8" unicode="&#x1c8;" horiz-adv-x="854" 
d="M66 0v61h91v1278h-91v61h272v-61h-91v-1278h134q28 0 45 16.5t25.5 60t8.5 124.5h60v-262h-454zM554 -498q-47 0 -79 28.5t-49 77.5t-17 112q0 36 14 56t37 20t35 -18t12 -45q0 -20 -3.5 -37l-7 -34t-3.5 -38q0 -27 9 -39.5t23 -16t26 -3.5q57 0 86.5 68.5t29.5 196.5
v1156h-109v61h199v-1148q0 -106 -15.5 -181t-43.5 -123t-65 -70.5t-79 -22.5zM708 1273q-35 0 -59.5 23.5t-24.5 57.5q0 35 24.5 59t59.5 24q33 0 56 -24t23 -59q0 -34 -23 -57.5t-56 -23.5z" />
    <glyph glyph-name="uni01C9" unicode="&#x1c9;" horiz-adv-x="657" 
d="M47 0v61h91v1378h-91v61h179v-1439h92v-61h-271zM357 -498q-47 0 -79 28.5t-49 77.5t-17 112q0 36 14 56t37 20t35 -18t12 -45q0 -20 -3.5 -37l-7 -34t-3.5 -38q0 -27 9 -39.5t23 -16t26 -3.5q57 0 86.5 68.5t29.5 196.5v1156h-109v61h199v-1148q0 -106 -15.5 -181
t-43.5 -123t-65 -70.5t-79 -22.5zM511 1273q-35 0 -59.5 23.5t-24.5 57.5q0 35 24.5 59t59.5 24q33 0 56 -24t23 -59q0 -34 -23 -57.5t-56 -23.5z" />
    <glyph glyph-name="uni01CA" unicode="&#x1ca;" horiz-adv-x="1273" 
d="M35 0v61h92v1278h-92v61h223l335 -1213h-4v1152h-92v61h243v-61h-89v-1339h-103l-363 1317h5v-1256h104v-61h-259zM932 -26q-59 0 -96.5 28.5t-55 83.5t-17.5 135q0 49 15 68t38 19q22 0 35.5 -16t13.5 -52q0 -22 -5.5 -38t-11 -35t-5.5 -50q0 -34 24 -57t58 -23
q53 0 87.5 49t34.5 183v1070h-99v61h283v-61h-94v-979q0 -111 -15 -185.5t-42 -118.5t-64.5 -63t-83.5 -19z" />
    <glyph glyph-name="uni01CB" unicode="&#x1cb;" horiz-adv-x="1086" 
d="M35 0v61h92v1278h-92v61h223l335 -1213h-4v1152h-92v61h243v-61h-89v-1339h-103l-363 1317h5v-1256h104v-61h-259zM786 -498q-47 0 -79 28.5t-49 77.5t-17 112q0 36 14 56t37 20t35 -18t12 -45q0 -20 -3.5 -37l-7 -34t-3.5 -38q0 -27 9 -39.5t23 -16t26 -3.5
q57 0 86.5 68.5t29.5 196.5v1156h-109v61h199v-1148q0 -106 -15.5 -181t-43.5 -123t-65 -70.5t-79 -22.5zM940 1273q-35 0 -59.5 23.5t-24.5 57.5q0 35 24.5 59t59.5 24q33 0 56 -24t23 -59q0 -34 -23 -57.5t-56 -23.5z" />
    <glyph glyph-name="uni01CC" unicode="&#x1cc;" horiz-adv-x="979" 
d="M35 0v61h100v925h-100v61h189v-114q7 29 29.5 57t58 46t77.5 18q38 0 77.5 -20.5t66.5 -83.5t27 -189v-700h100v-61h-283v61h93v677q0 132 -27 187.5t-83 55.5q-29 0 -53.5 -21t-43 -55t-28.5 -72.5t-10 -74.5v-697h93v-61h-283zM679 -498q-47 0 -79 28.5t-49 77.5
t-17 112q0 36 14 56t37 20t35 -18t12 -45q0 -20 -3.5 -37l-7 -34t-3.5 -38q0 -27 9 -39.5t23 -16t26 -3.5q57 0 86.5 68.5t29.5 196.5v1156h-109v61h199v-1148q0 -106 -15.5 -181t-43.5 -123t-65 -70.5t-79 -22.5zM833 1273q-35 0 -59.5 23.5t-24.5 57.5q0 35 24.5 59
t59.5 24q33 0 56 -24t23 -59q0 -34 -23 -57.5t-56 -23.5z" />
    <glyph glyph-name="uni01CE" unicode="&#x1ce;" horiz-adv-x="594" 
d="M250 -20q-57 0 -100 28.5t-67.5 85.5t-24.5 143q0 91 33.5 151.5t83 103t99 77.5t83 73t33.5 91q0 77 -11 135t-37.5 90t-72.5 32q-51 0 -84.5 -37t-33.5 -83q0 -20 4 -31.5t8 -22t4 -29.5q0 -27 -12 -45.5t-35 -18.5t-34.5 20.5t-11.5 56.5q0 71 25 129t71 91.5
t107 33.5q62 0 107 -31t70.5 -99t25.5 -179v-627q0 -38 9.5 -51t27.5 -13q14 0 24 5.5t14 10.5l31 -53q-11 -11 -35 -19t-54 -8q-27 0 -48.5 10.5t-34 30.5t-13.5 51q-7 -20 -24 -44t-48 -41t-79 -17zM263 49q42 0 70 31.5t42.5 74t14.5 71.5v379q-2 -28 -38 -56.5
t-81.5 -66.5t-80 -95.5t-34.5 -144.5q0 -94 27 -143.5t80 -49.5zM248 1102l-151 212h64l121 -144l121 144h64l-150 -212h-69z" />
    <glyph glyph-name="uni01D0" unicode="&#x1d0;" horiz-adv-x="371" 
d="M38 0v61h107v925h-107v61h197v-986h109v-61h-306zM156 1102l-151 212h64l121 -144l121 144h64l-150 -212h-69z" />
    <glyph glyph-name="uni01D2" unicode="&#x1d2;" horiz-adv-x="585" 
d="M289 -22q-53 0 -96.5 37.5t-75.5 108.5t-49 172.5t-17 230.5q0 141 18.5 241.5t51 163.5t75.5 92.5t93 29.5q48 0 91 -29.5t76 -92.5t52 -163.5t19 -241.5q0 -129 -17.5 -230.5t-49.5 -172.5t-76 -108.5t-95 -37.5zM289 39q60 0 101 120.5t41 367.5q0 243 -41 355
t-101 112q-63 0 -104 -112t-41 -355q0 -247 41 -367.5t104 -120.5zM256 1102l-151 212h64l121 -144l121 144h64l-150 -212h-69z" />
    <glyph glyph-name="uni01D4" unicode="&#x1d4;" horiz-adv-x="660" 
d="M301 -22q-47 0 -88 21.5t-66.5 81.5t-25.5 175v730h-103v60h193v-782q0 -89 15 -135.5t39 -63t52 -16.5q45 0 76 44.5t47 113t16 140.5v639h-103v60h193v-985h92v-61h-174l-2 130q-4 -31 -23 -66.5t-53 -60.5t-85 -25zM299 1102l-151 212h64l121 -144l121 144h64
l-150 -212h-69z" />
    <glyph glyph-name="uni01D6" unicode="&#x1d6;" horiz-adv-x="660" 
d="M301 -22q-47 0 -88 21.5t-66.5 81.5t-25.5 175v730h-103v60h193v-782q0 -89 15 -135.5t39 -63t52 -16.5q45 0 76 44.5t47 113t16 140.5v639h-103v60h193v-985h92v-61h-174l-2 130q-4 -31 -23 -66.5t-53 -60.5t-85 -25zM443 1123q-27 0 -47.5 20t-20.5 46q0 29 20.5 50
t47.5 21t47.5 -21t20.5 -50q0 -26 -20.5 -46t-47.5 -20zM223 1123q-26 0 -46.5 20t-20.5 46q0 29 20.5 50t46.5 21q28 0 49 -21t21 -50q0 -26 -21 -46t-49 -20zM143 1346v61h379v-61h-379z" />
    <glyph glyph-name="uni01D8" unicode="&#x1d8;" horiz-adv-x="660" 
d="M301 -22q-47 0 -88 21.5t-66.5 81.5t-25.5 175v730h-103v60h193v-782q0 -89 15 -135.5t39 -63t52 -16.5q45 0 76 44.5t47 113t16 140.5v639h-103v60h193v-985h92v-61h-174l-2 130q-4 -31 -23 -66.5t-53 -60.5t-85 -25zM443 1123q-27 0 -47.5 20t-20.5 46q0 29 20.5 50
t47.5 21t47.5 -21t20.5 -50q0 -26 -20.5 -46t-47.5 -20zM223 1123q-26 0 -46.5 20t-20.5 46q0 29 20.5 50t46.5 21q28 0 49 -21t21 -50q0 -26 -21 -46t-49 -20zM223 1291l-28 32l169 131q14 12 30 20t29 8q12 0 21 -5.5t15 -15.5q4 -8 4 -18q0 -19 -18.5 -35t-42.5 -27z" />
    <glyph glyph-name="uni01DA" unicode="&#x1da;" horiz-adv-x="660" 
d="M301 -22q-47 0 -88 21.5t-66.5 81.5t-25.5 175v730h-103v60h193v-782q0 -89 15 -135.5t39 -63t52 -16.5q45 0 76 44.5t47 113t16 140.5v639h-103v60h193v-985h92v-61h-174l-2 130q-4 -31 -23 -66.5t-53 -60.5t-85 -25zM443 1123q-27 0 -47.5 20t-20.5 46q0 29 20.5 50
t47.5 21t47.5 -21t20.5 -50q0 -26 -20.5 -46t-47.5 -20zM223 1123q-26 0 -46.5 20t-20.5 46q0 29 20.5 50t46.5 21q28 0 49 -21t21 -50q0 -26 -21 -46t-49 -20zM299 1316l-151 212h64l121 -144l121 144h64l-150 -212h-69z" />
    <glyph glyph-name="uni01DC" unicode="&#x1dc;" horiz-adv-x="660" 
d="M301 -22q-47 0 -88 21.5t-66.5 81.5t-25.5 175v730h-103v60h193v-782q0 -89 15 -135.5t39 -63t52 -16.5q45 0 76 44.5t47 113t16 140.5v639h-103v60h193v-985h92v-61h-174l-2 130q-4 -31 -23 -66.5t-53 -60.5t-85 -25zM443 1123q-27 0 -47.5 20t-20.5 46q0 29 20.5 50
t47.5 21t47.5 -21t20.5 -50q0 -26 -20.5 -46t-47.5 -20zM223 1123q-26 0 -46.5 20t-20.5 46q0 29 20.5 50t46.5 21q28 0 49 -21t21 -50q0 -26 -21 -46t-49 -20zM447 1317l-195 90q-24 12 -38 23t-14 33q0 21 13.5 31t33.5 10q18 0 31.5 -6.5t26.5 -18.5l165 -134z" />
    <glyph glyph-name="uni01DF" unicode="&#x1df;" horiz-adv-x="594" 
d="M250 -20q-57 0 -100 28.5t-67.5 85.5t-24.5 143q0 91 33.5 151.5t83 103t99 77.5t83 73t33.5 91q0 77 -11 135t-37.5 90t-72.5 32q-51 0 -84.5 -37t-33.5 -83q0 -20 4 -31.5t8 -22t4 -29.5q0 -27 -12 -45.5t-35 -18.5t-34.5 20.5t-11.5 56.5q0 71 25 129t71 91.5
t107 33.5q62 0 107 -31t70.5 -99t25.5 -179v-627q0 -38 9.5 -51t27.5 -13q14 0 24 5.5t14 10.5l31 -53q-11 -11 -35 -19t-54 -8q-27 0 -48.5 10.5t-34 30.5t-13.5 51q-7 -20 -24 -44t-48 -41t-79 -17zM263 49q42 0 70 31.5t42.5 74t14.5 71.5v379q-2 -28 -38 -56.5
t-81.5 -66.5t-80 -95.5t-34.5 -144.5q0 -94 27 -143.5t80 -49.5zM392 1123q-27 0 -47.5 20t-20.5 46q0 29 20.5 50t47.5 21t47.5 -21t20.5 -50q0 -26 -20.5 -46t-47.5 -20zM172 1123q-26 0 -46.5 20t-20.5 46q0 29 20.5 50t46.5 21q28 0 49 -21t21 -50q0 -26 -21 -46
t-49 -20zM92 1346v61h379v-61h-379z" />
    <glyph glyph-name="gcaron" unicode="&#x1e7;" horiz-adv-x="610" 
d="M309 -498q-86 0 -143.5 38.5t-86 99.5t-28.5 129q0 60 14 102.5t35 71t43.5 45t38.5 23.5q-10 2 -28 10.5t-37 26t-32.5 46t-13.5 68.5q0 41 16 69.5t38.5 44t40.5 16.5q3 0 8 0.5t6 -0.5q-13 12 -28.5 39t-29 69.5t-21.5 100t-8 130.5q0 119 17 200t46.5 130t69.5 71
t86 22q72 0 117.5 -49.5t67.5 -140t22 -213.5q0 -110 -15.5 -189.5t-43.5 -131t-67 -75.5t-86 -24q-41 0 -62.5 11t-24.5 12q-1 1 -2.5 1.5t-5.5 0.5q-21 0 -44.5 -23t-23.5 -60q0 -50 37 -77t137 -41q132 -15 192 -81t60 -189q0 -71 -21 -124t-57.5 -88.5t-83.5 -53
t-99 -17.5zM309 -441q78 0 126 57t48 144q0 107 -32 153t-109 61q-21 4 -40 8.5t-33.5 8t-21.5 4.5q-39 -21 -63 -55.5t-35.5 -76t-11.5 -87.5q0 -52 18.5 -102t56.5 -82.5t97 -32.5zM307 292q33 0 59.5 28.5t42.5 105.5t16 221q0 140 -15.5 214.5t-41.5 103t-58 28.5
t-59.5 -28.5t-45 -104.5t-17.5 -219q0 -142 17 -217t44 -103.5t58 -28.5zM385 994q8 51 47 82t80 31q36 0 51 -15t15 -42q0 -22 -12.5 -36.5t-34.5 -14.5q-17 0 -25.5 8t-15.5 16.5t-21 8.5t-23.5 -12t-9.5 -30zM271 1102l-151 212h64l121 -144l121 144h64l-150 -212h-69z
" />
    <glyph glyph-name="uni01EA" unicode="&#x1ea;" horiz-adv-x="691" 
d="M344 -22q-93 0 -156.5 93.5t-95 255.5t-31.5 371q0 210 31.5 373t95 257t156.5 94q94 0 158 -94t96.5 -257t32.5 -373q0 -209 -32.5 -371t-96.5 -255.5t-158 -93.5zM344 39q48 0 83.5 49t59.5 139t36.5 210t12.5 261t-12.5 261.5t-36.5 211t-59.5 140.5t-83.5 50
q-47 0 -82.5 -50t-58.5 -140.5t-34.5 -211t-11.5 -261.5t11.5 -261t34.5 -210t58.5 -139t82.5 -49zM444 -280q-37 0 -75 12.5t-63 43t-25 81.5q0 43 23 76t53.5 56.5t53.5 35.5l24 -19q-20 -20 -45.5 -56t-25.5 -84q0 -53 33 -67t66 -14q23 0 55.5 6.5t54.5 18.5l27 -45
q-23 -17 -64 -31t-92 -14z" />
    <glyph glyph-name="uni01EB" unicode="&#x1eb;" horiz-adv-x="585" 
d="M289 -22q-53 0 -96.5 37.5t-75.5 108.5t-49 172.5t-17 230.5q0 141 18.5 241.5t51 163.5t75.5 92.5t93 29.5q48 0 91 -29.5t76 -92.5t52 -163.5t19 -241.5q0 -129 -17.5 -230.5t-49.5 -172.5t-76 -108.5t-95 -37.5zM289 39q60 0 101 120.5t41 367.5q0 243 -41 355
t-101 112q-63 0 -104 -112t-41 -355q0 -247 41 -367.5t104 -120.5zM396 -264q-37 0 -74.5 12.5t-62.5 43t-25 81.5q0 43 23 76t53.5 56.5t53.5 35.5l24 -19q-20 -20 -45.5 -56t-25.5 -84q0 -53 33 -67t66 -14q23 0 55.5 6t54.5 19l27 -45q-23 -17 -64.5 -31t-92.5 -14z" />
    <glyph glyph-name="aringacute" unicode="&#x1fb;" horiz-adv-x="594" 
d="M250 -20q-57 0 -100 28.5t-67.5 85.5t-24.5 143q0 91 33.5 151.5t83 103t99 77.5t83 73t33.5 91q0 77 -11 135t-37.5 90t-72.5 32q-51 0 -84.5 -37t-33.5 -83q0 -20 4 -31.5t8 -22t4 -29.5q0 -27 -12 -45.5t-35 -18.5t-34.5 20.5t-11.5 56.5q0 71 25 129t71 91.5
t107 33.5q62 0 107 -31t70.5 -99t25.5 -179v-627q0 -38 9.5 -51t27.5 -13q14 0 24 5.5t14 10.5l31 -53q-11 -11 -35 -19t-54 -8q-27 0 -48.5 10.5t-34 30.5t-13.5 51q-7 -20 -24 -44t-48 -41t-79 -17zM263 49q42 0 70 31.5t42.5 74t14.5 71.5v379q-2 -28 -38 -56.5
t-81.5 -66.5t-80 -95.5t-34.5 -144.5q0 -94 27 -143.5t80 -49.5zM282 1092q-44 0 -74.5 32.5t-30.5 85.5q0 55 30.5 86.5t74.5 31.5t75 -31.5t31 -86.5q0 -53 -31 -85.5t-75 -32.5zM282 1134q28 0 40.5 22.5t12.5 55.5q0 29 -12.5 51.5t-40.5 22.5q-26 0 -39 -22.5
t-13 -51.5q0 -33 13 -55.5t39 -22.5zM172 1358l-28 32l169 131q14 12 30 20t29 8q12 0 21 -5.5t15 -15.5q4 -8 4 -18q0 -19 -18.5 -35t-42.5 -27z" />
    <glyph glyph-name="aeacute" unicode="&#x1fd;" horiz-adv-x="853" 
d="M234 -17q-84 0 -130 62t-46 158q0 101 31.5 167.5t77.5 111.5t92.5 80.5t77.5 73t31 89.5q0 63 -9.5 124t-33.5 101t-68 40q-36 0 -67.5 -24t-31.5 -77q0 -21 3 -33t6 -23t3 -30q0 -27 -11 -44.5t-34 -17.5t-34 20t-11 56q0 64 21.5 117.5t63.5 86.5t102 33t103 -39.5
t65.5 -115.5t22.5 -188v-406q0 -51 -5 -89.5t-17.5 -71.5t-35.5 -69q-18 -29 -62.5 -60.5t-103.5 -31.5zM248 53q48 0 84 53.5t36 123.5v364q-2 -28 -34.5 -56.5t-74 -67t-73 -98t-31.5 -148.5q0 -49 8.5 -88t29 -61t55.5 -22zM593 -22q-69 0 -113.5 48t-69.5 128
t-34.5 176.5t-9.5 194.5q0 129 16 228t46.5 166t72 101t92.5 34q60 0 99 -40t61.5 -104.5t31.5 -142.5t9 -154v-41.5t-1 -40.5h-347v60h256q0 113 -9 204t-32.5 144.5t-67.5 53.5q-41 0 -71 -53t-46 -151t-16 -233q0 -99 5 -190.5t19.5 -164.5t42 -116t71.5 -43
q56 0 86 35.5t40 67.5l54 -25q-16 -57 -66.5 -99.5t-118.5 -42.5zM336 1077l-28 32l169 131q14 12 30 20t29 8q12 0 21 -5.5t15 -15.5q4 -8 4 -18q0 -19 -18.5 -35t-42.5 -27z" />
    <glyph glyph-name="Oslashacute" unicode="&#x1fe;" horiz-adv-x="738" 
d="M99 -104l506 1608h63l-505 -1608h-64zM344 -22q-93 0 -156.5 93.5t-95 255.5t-31.5 371q0 210 31.5 373t95 257t156.5 94q94 0 158 -94t96.5 -257t32.5 -373q0 -209 -32.5 -371t-96.5 -255.5t-158 -93.5zM344 39q48 0 83.5 49t59.5 139t36.5 210t12.5 261t-12.5 261.5
t-36.5 211t-59.5 140.5t-83.5 50q-47 0 -82.5 -50t-58.5 -140.5t-34.5 -211t-11.5 -261.5t11.5 -261t34.5 -210t58.5 -139t82.5 -49zM235 1446l-28 31l168 131q14 11 30.5 19.5t29.5 8.5q12 0 21 -5.5t15 -15.5q4 -8 4 -18q0 -19 -18.5 -35t-42.5 -27z" />
    <glyph glyph-name="oslashacute" unicode="&#x1ff;" horiz-adv-x="610" 
d="M67 -104l420 1224h57l-421 -1224h-56zM289 -22q-53 0 -96.5 37.5t-75.5 108.5t-49 172.5t-17 230.5q0 141 18.5 241.5t51 163.5t75.5 92.5t93 29.5q48 0 91 -29.5t76 -92.5t52 -163.5t19 -241.5q0 -129 -17.5 -230.5t-49.5 -172.5t-76 -108.5t-95 -37.5zM289 39
q60 0 101 120.5t41 367.5q0 243 -41 355t-101 112q-63 0 -104 -112t-41 -355q0 -247 41 -367.5t104 -120.5zM180 1077l-28 32l169 131q14 12 30 20t29 8q12 0 21 -5.5t15 -15.5q4 -8 4 -18q0 -19 -18.5 -35t-42.5 -27z" />
    <glyph glyph-name="uni0201" unicode="&#x201;" horiz-adv-x="594" 
d="M250 -20q-57 0 -100 28.5t-67.5 85.5t-24.5 143q0 91 33.5 151.5t83 103t99 77.5t83 73t33.5 91q0 77 -11 135t-37.5 90t-72.5 32q-51 0 -84.5 -37t-33.5 -83q0 -20 4 -31.5t8 -22t4 -29.5q0 -27 -12 -45.5t-35 -18.5t-34.5 20.5t-11.5 56.5q0 71 25 129t71 91.5
t107 33.5q62 0 107 -31t70.5 -99t25.5 -179v-627q0 -38 9.5 -51t27.5 -13q14 0 24 5.5t14 10.5l31 -53q-11 -11 -35 -19t-54 -8q-27 0 -48.5 10.5t-34 30.5t-13.5 51q-7 -20 -24 -44t-48 -41t-79 -17zM263 49q42 0 70 31.5t42.5 74t14.5 71.5v379q-2 -28 -38 -56.5
t-81.5 -66.5t-80 -95.5t-34.5 -144.5q0 -94 27 -143.5t80 -49.5zM394 1109l-153 152q-14 15 -23 27t-9 26q0 22 13 33.5t31 11.5q27 0 41 -15t24 -33l107 -183zM216 1109l-154 152q-14 15 -23 27t-9 26q0 22 13.5 33.5t30.5 11.5q27 0 41 -15t25 -33l106 -183z" />
    <glyph glyph-name="uni0203" unicode="&#x203;" horiz-adv-x="594" 
d="M250 -20q-57 0 -100 28.5t-67.5 85.5t-24.5 143q0 91 33.5 151.5t83 103t99 77.5t83 73t33.5 91q0 77 -11 135t-37.5 90t-72.5 32q-51 0 -84.5 -37t-33.5 -83q0 -20 4 -31.5t8 -22t4 -29.5q0 -27 -12 -45.5t-35 -18.5t-34.5 20.5t-11.5 56.5q0 71 25 129t71 91.5
t107 33.5q62 0 107 -31t70.5 -99t25.5 -179v-627q0 -38 9.5 -51t27.5 -13q14 0 24 5.5t14 10.5l31 -53q-11 -11 -35 -19t-54 -8q-27 0 -48.5 10.5t-34 30.5t-13.5 51q-7 -20 -24 -44t-48 -41t-79 -17zM263 49q42 0 70 31.5t42.5 74t14.5 71.5v379q-2 -28 -38 -56.5
t-81.5 -66.5t-80 -95.5t-34.5 -144.5q0 -94 27 -143.5t80 -49.5zM282 1303q58 0 94 -24t52.5 -65t16.5 -93h-58q-4 60 -30 90.5t-75 30.5q-48 0 -74 -30.5t-30 -90.5h-57q0 52 16.5 93t52 65t92.5 24z" />
    <glyph glyph-name="uni0205" unicode="&#x205;" horiz-adv-x="538" 
d="M277 -22q-68 0 -112.5 48t-69.5 128t-34.5 176.5t-9.5 194.5q0 129 16 228t46.5 166t72 101t92.5 34q60 0 99 -40t61.5 -104.5t31.5 -142.5t9 -154v-41.5t-1 -40.5h-347v60h256q0 113 -9 204t-32.5 144.5t-67.5 53.5q-41 0 -71 -53t-46 -151t-16 -233q0 -99 5 -190.5
t19.5 -164.5t41.5 -116t72 -43q56 0 86 35.5t40 67.5l54 -25q-16 -57 -66.5 -99.5t-119.5 -42.5zM439 1107l-153 152q-14 15 -23 27t-9 26q0 22 13 33.5t31 11.5q27 0 41 -15t24 -33l107 -183zM261 1107l-153 152q-15 15 -24 27t-9 26q0 22 13.5 33.5t30.5 11.5q27 0 41 -15
t25 -33l106 -183z" />
    <glyph glyph-name="uni0207" unicode="&#x207;" horiz-adv-x="538" 
d="M277 -22q-68 0 -112.5 48t-69.5 128t-34.5 176.5t-9.5 194.5q0 129 16 228t46.5 166t72 101t92.5 34q60 0 99 -40t61.5 -104.5t31.5 -142.5t9 -154v-41.5t-1 -40.5h-347v60h256q0 113 -9 204t-32.5 144.5t-67.5 53.5q-41 0 -71 -53t-46 -151t-16 -233q0 -99 5 -190.5
t19.5 -164.5t41.5 -116t72 -43q56 0 86 35.5t40 67.5l54 -25q-16 -57 -66.5 -99.5t-119.5 -42.5zM276 1301q58 0 94 -24t52.5 -65t16.5 -93h-58q-4 60 -30 90.5t-75 30.5q-48 0 -74 -30.5t-30 -90.5h-57q0 52 16.5 93t52 65t92.5 24z" />
    <glyph glyph-name="uni0209" unicode="&#x209;" horiz-adv-x="371" 
d="M38 0v61h107v925h-107v61h197v-986h109v-61h-306zM353 1109l-153 152q-14 15 -23 27t-9 26q0 22 13 33.5t31 11.5q27 0 41 -15t24 -33l107 -183zM175 1109l-153 152q-15 15 -24 27t-9 26q0 22 13.5 33.5t30.5 11.5q27 0 41 -15t25 -33l106 -183z" />
    <glyph glyph-name="uni020B" unicode="&#x20b;" horiz-adv-x="371" 
d="M38 0v61h107v925h-107v61h197v-986h109v-61h-306zM190 1303q58 0 94 -24t52.5 -65t16.5 -93h-58q-4 60 -30 90.5t-75 30.5q-48 0 -74 -30.5t-30 -90.5h-57q0 52 16.5 93t52 65t92.5 24z" />
    <glyph glyph-name="uni020D" unicode="&#x20d;" horiz-adv-x="585" 
d="M289 -22q-53 0 -96.5 37.5t-75.5 108.5t-49 172.5t-17 230.5q0 141 18.5 241.5t51 163.5t75.5 92.5t93 29.5q48 0 91 -29.5t76 -92.5t52 -163.5t19 -241.5q0 -129 -17.5 -230.5t-49.5 -172.5t-76 -108.5t-95 -37.5zM289 39q60 0 101 120.5t41 367.5q0 243 -41 355
t-101 112q-63 0 -104 -112t-41 -355q0 -247 41 -367.5t104 -120.5zM454 1109l-153 152q-14 15 -23 27t-9 26q0 22 13 33.5t31 11.5q27 0 41 -15t24 -33l107 -183zM276 1109l-153 152q-15 15 -24 27t-9 26q0 22 13.5 33.5t30.5 11.5q27 0 41 -15t25 -33l106 -183z" />
    <glyph glyph-name="uni020F" unicode="&#x20f;" horiz-adv-x="585" 
d="M289 -22q-53 0 -96.5 37.5t-75.5 108.5t-49 172.5t-17 230.5q0 141 18.5 241.5t51 163.5t75.5 92.5t93 29.5q48 0 91 -29.5t76 -92.5t52 -163.5t19 -241.5q0 -129 -17.5 -230.5t-49.5 -172.5t-76 -108.5t-95 -37.5zM289 39q60 0 101 120.5t41 367.5q0 243 -41 355
t-101 112q-63 0 -104 -112t-41 -355q0 -247 41 -367.5t104 -120.5zM290 1303q58 0 94 -24t52.5 -65t16.5 -93h-58q-4 60 -30 90.5t-75 30.5q-48 0 -74 -30.5t-30 -90.5h-57q0 52 16.5 93t52 65t92.5 24z" />
    <glyph glyph-name="uni0211" unicode="&#x211;" horiz-adv-x="518" 
d="M25 0v61h101v925h-101v61h187l2 -105q2 10 19 37t48 51t76 24q46 0 74 -32.5t40.5 -88.5t12.5 -127q0 -41 -12.5 -62t-36.5 -21q-21 0 -33.5 17t-12.5 50q0 19 4.5 31.5t9 28t4.5 40.5q0 51 -18 73t-44 22q-41 0 -70 -35t-44 -85.5t-15 -97.5v-706h103v-61h-294z
M485 1109l-153 152q-14 15 -23 27t-9 26q0 22 13 33.5t31 11.5q27 0 41 -15t24 -33l107 -183zM307 1109l-153 152q-15 15 -24 27t-9 26q0 22 13.5 33.5t30.5 11.5q27 0 41 -15t25 -33l106 -183z" />
    <glyph glyph-name="uni0213" unicode="&#x213;" horiz-adv-x="518" 
d="M25 0v61h101v925h-101v61h187l2 -105q2 10 19 37t48 51t76 24q46 0 74 -32.5t40.5 -88.5t12.5 -127q0 -41 -12.5 -62t-36.5 -21q-21 0 -33.5 17t-12.5 50q0 19 4.5 31.5t9 28t4.5 40.5q0 51 -18 73t-44 22q-41 0 -70 -35t-44 -85.5t-15 -97.5v-706h103v-61h-294z
M322 1303q58 0 94 -24t52.5 -65t16.5 -93h-58q-4 60 -30 90.5t-75 30.5q-48 0 -74 -30.5t-30 -90.5h-57q0 52 16.5 93t52 65t92.5 24z" />
    <glyph glyph-name="uni0215" unicode="&#x215;" horiz-adv-x="660" 
d="M301 -22q-47 0 -88 21.5t-66.5 81.5t-25.5 175v730h-103v60h193v-782q0 -89 15 -135.5t39 -63t52 -16.5q45 0 76 44.5t47 113t16 140.5v639h-103v60h193v-985h92v-61h-174l-2 130q-4 -31 -23 -66.5t-53 -60.5t-85 -25zM496 1109l-153 152q-14 15 -23 27t-9 26
q0 22 13 33.5t31 11.5q27 0 41 -15t24 -33l107 -183zM318 1109l-153 152q-15 15 -24 27t-9 26q0 22 13.5 33.5t30.5 11.5q27 0 41 -15t25 -33l106 -183z" />
    <glyph glyph-name="uni0217" unicode="&#x217;" horiz-adv-x="660" 
d="M301 -22q-47 0 -88 21.5t-66.5 81.5t-25.5 175v730h-103v60h193v-782q0 -89 15 -135.5t39 -63t52 -16.5q45 0 76 44.5t47 113t16 140.5v639h-103v60h193v-985h92v-61h-174l-2 130q-4 -31 -23 -66.5t-53 -60.5t-85 -25zM333 1303q58 0 94 -24t52.5 -65t16.5 -93h-58
q-4 60 -30 90.5t-75 30.5q-48 0 -74 -30.5t-30 -90.5h-57q0 52 16.5 93t52 65t92.5 24z" />
    <glyph glyph-name="uni0218" unicode="&#x218;" horiz-adv-x="571" 
d="M306 -27q-40 0 -67 12t-46 28t-32 28t-23 12q-20 0 -20 -53h-50v280h60q2 -34 11.5 -68.5t24.5 -66t36.5 -56t49 -38.5t59.5 -14q55 0 83 30t37.5 82.5t9.5 119.5q0 74 -26.5 147t-69 144t-91.5 136q-73 100 -112.5 179.5t-53.5 146t-14 124.5q0 85 27 147t74.5 95.5
t106.5 33.5q50 0 76 -17t39.5 -34.5t25.5 -17.5q11 0 16.5 11t5.5 36h51v-277h-61q-2 43 -12 85t-28.5 76t-46 54.5t-63.5 20.5q-60 0 -95 -45.5t-35 -131.5q0 -57 11 -111t44 -119t98 -158q56 -77 105.5 -159.5t80 -169.5t30.5 -177q0 -75 -13 -133.5t-39.5 -98.5
t-67 -61.5t-96.5 -21.5zM300 -330l-28 33q11 6 28 23.5t18 29.5q-2 -4 -12 -4q-25 0 -41.5 17t-16.5 41q0 25 17.5 41t41.5 16q29 0 46 -19t17 -51q0 -30 -11 -54.5t-27.5 -42.5t-31.5 -30z" />
    <glyph glyph-name="uni0219" unicode="&#x219;" horiz-adv-x="501" 
d="M260 -22q-49 0 -74.5 12.5t-39 24.5t-24.5 12t-15 -7.5t-4 -19.5h-49v277h58q4 -65 13.5 -110.5t26.5 -74t42.5 -41t62.5 -12.5q40 0 64 24.5t34.5 61.5t10.5 72q0 56 -13.5 105.5t-44.5 101t-85 109.5q-64 72 -110.5 147.5t-46.5 183.5q0 69 25 115.5t65.5 70.5t86.5 24
q38 0 60.5 -8t36 -17t21.5 -9t11 7t4 20h51v-268h-57q-4 65 -13 106.5t-24.5 65t-37 33t-50.5 9.5q-49 0 -76 -36t-27 -98q0 -72 33.5 -131t100.5 -136q58 -67 96 -126t56.5 -116.5t18.5 -121.5q0 -69 -21.5 -125.5t-63 -90.5t-102.5 -34zM245 -330l-28 33q11 6 28 23.5
t18 29.5q-2 -4 -12 -4q-25 0 -41.5 17t-16.5 41q0 25 17.5 41t41.5 16q29 0 46 -19t17 -51q0 -30 -11 -54.5t-27.5 -42.5t-31.5 -30z" />
    <glyph glyph-name="uni021A" unicode="&#x21a;" horiz-adv-x="675" 
d="M183 0v61h110v1278h-100q-45 0 -64.5 -14.5t-24.5 -57.5t-5 -126h-61v259h599v-259h-61q0 83 -5 126t-24.5 57.5t-64.5 14.5h-99v-1278h114v-61h-314zM329 -330l-28 33q11 6 28 23.5t18 29.5q-2 -4 -12 -4q-25 0 -41.5 17t-16.5 41q0 25 17.5 41t41.5 16q29 0 46 -19
t17 -51q0 -30 -11 -54.5t-27.5 -42.5t-31.5 -30z" />
    <glyph glyph-name="uni021B" unicode="&#x21b;" horiz-adv-x="390" 
d="M248 -18q-30 0 -59 11t-47.5 43t-18.5 94v856h-117v61h117q8 33 13.5 81t9.5 100t5 96h62v-277h139v-61h-139v-875q0 -42 16 -55.5t32 -13.5q21 0 35 9.5t21 19.5l36 -48q-15 -16 -43 -28.5t-62 -12.5zM246 -324l-28 33q11 6 28 23.5t18 29.5q-2 -4 -12 -4
q-25 0 -41.5 17t-16.5 41q0 25 17.5 41t41.5 16q29 0 46 -19t17 -51q0 -30 -11 -54.5t-27.5 -42.5t-31.5 -30z" />
    <glyph glyph-name="uni0229" unicode="&#x229;" horiz-adv-x="538" 
d="M277 -22q-68 0 -112.5 48t-69.5 128t-34.5 176.5t-9.5 194.5q0 129 16 228t46.5 166t72 101t92.5 34q60 0 99 -40t61.5 -105t31.5 -144t9 -157v-41.5t-1 -40.5h-347v61h256q0 112 -9 204t-32.5 147t-67.5 55q-41 0 -71 -54t-46 -153t-16 -235q0 -98 5 -189.5t19.5 -163.5
t41.5 -114.5t72 -42.5q56 0 86 36t40 68l54 -25q-16 -57 -66.5 -99.5t-119.5 -42.5zM316 -287q-55 0 -91 10t-51 18l21 50q10 -7 41 -16t79 -9q32 0 58.5 15t26.5 43q0 31 -18 40.5t-43 9.5q-16 0 -37 -7.5t-34 -21.5l-58 4l63 151h60l-48 -104q6 8 29 17.5t51 9.5
q37 0 69 -22t32 -77q0 -42 -24.5 -66.5t-59.5 -34.5t-66 -10z" />
    <glyph glyph-name="uni022B" unicode="&#x22b;" horiz-adv-x="585" 
d="M289 -22q-53 0 -96.5 37.5t-75.5 108.5t-49 172.5t-17 230.5q0 141 18.5 241.5t51 163.5t75.5 92.5t93 29.5q48 0 91 -29.5t76 -92.5t52 -163.5t19 -241.5q0 -129 -17.5 -230.5t-49.5 -172.5t-76 -108.5t-95 -37.5zM289 39q60 0 101 120.5t41 367.5q0 243 -41 355
t-101 112q-63 0 -104 -112t-41 -355q0 -247 41 -367.5t104 -120.5zM400 1123q-27 0 -47.5 20t-20.5 46q0 29 20.5 50t47.5 21t47.5 -21t20.5 -50q0 -26 -20.5 -46t-47.5 -20zM180 1123q-26 0 -46.5 20t-20.5 46q0 29 20.5 50t46.5 21q28 0 49 -21t21 -50q0 -26 -21 -46
t-49 -20zM100 1346v61h379v-61h-379z" />
    <glyph glyph-name="uni022D" unicode="&#x22d;" horiz-adv-x="585" 
d="M289 -22q-53 0 -96.5 37.5t-75.5 108.5t-49 172.5t-17 230.5q0 141 18.5 241.5t51 163.5t75.5 92.5t93 29.5q48 0 91 -29.5t76 -92.5t52 -163.5t19 -241.5q0 -129 -17.5 -230.5t-49.5 -172.5t-76 -108.5t-95 -37.5zM289 39q60 0 101 120.5t41 367.5q0 243 -41 355
t-101 112q-63 0 -104 -112t-41 -355q0 -247 41 -367.5t104 -120.5zM376 1125q-39 0 -64.5 17.5t-48 35.5t-49.5 18q-30 0 -45.5 -21t-20.5 -34l-57 31q5 19 20 41.5t39.5 40t57.5 17.5q39 0 66.5 -18t51 -36.5t51.5 -18.5q25 0 38.5 16.5t19.5 29.5l55 -37q-4 -16 -19 -35.5
t-39 -33t-56 -13.5zM27 1357v61h526v-61h-526z" />
    <glyph glyph-name="uni0231" unicode="&#x231;" horiz-adv-x="585" 
d="M289 -22q-53 0 -96.5 37.5t-75.5 108.5t-49 172.5t-17 230.5q0 141 18.5 241.5t51 163.5t75.5 92.5t93 29.5q48 0 91 -29.5t76 -92.5t52 -163.5t19 -241.5q0 -129 -17.5 -230.5t-49.5 -172.5t-76 -108.5t-95 -37.5zM289 39q60 0 101 120.5t41 367.5q0 243 -41 355
t-101 112q-63 0 -104 -112t-41 -355q0 -247 41 -367.5t104 -120.5zM290 1127q-26 0 -47 20t-21 46q0 28 21 49t47 21q27 0 47.5 -21t20.5 -49q0 -26 -20.5 -46t-47.5 -20zM28 1348v61h526v-61h-526z" />
    <glyph glyph-name="uni0233" unicode="&#x233;" horiz-adv-x="596" 
d="M165 -502q-36 0 -58 28.5t-32 77.5t-10 112q0 36 11.5 56t33.5 20q23 0 33.5 -18t10.5 -45q0 -20 -5 -35t-10.5 -29t-5.5 -36q0 -28 7.5 -54.5t26.5 -26.5q13 0 21 14.5t14.5 41.5t13.5 63l68 355l-178 964h-82v61h251v-61h-73l126 -712l122 712h-74v61h221v-61h-80
l-179 -993l-66 -342q-10 -51 -23.5 -85t-33.5 -51t-50 -17zM45 1132v61h526v-61h-526z" />
    <glyph glyph-name="uni0237" unicode="&#x237;" horiz-adv-x="348" 
d="M48 -498q-47 0 -79 28.5t-49 77.5t-17 112q0 36 14 56t37 20t35 -18t12 -45q0 -20 -3.5 -37l-7 -34t-3.5 -38q0 -27 9 -39.5t23 -16t26 -3.5q57 0 86.5 68.5t29.5 196.5v1156h-109v61h199v-1148q0 -106 -15.5 -181t-43.5 -123t-65 -70.5t-79 -22.5z" />
    <glyph glyph-name="uni0244" unicode="&#x244;" horiz-adv-x="742" 
d="M75 836v60h621v-60h-621zM357 -24q-41 0 -81 15t-72 50.5t-51.5 96.5t-19.5 153v1048h-95v61h280v-61h-94v-1038q0 -148 40.5 -204t103.5 -56q31 0 57.5 12.5t46.5 40.5t31 77t11 123v1045h-83v61h238v-61h-94v-1057q0 -117 -30 -183.5t-79.5 -94.5t-108.5 -28z" />
    <glyph glyph-name="uni0259" unicode="&#x259;" horiz-adv-x="550" 
d="M53 1046h52q0 -25 2.5 -45t8.5 -20l6 -78h-69v143zM265 1068q70 0 114 -48t69 -128t34.5 -176.5t9.5 -194.5q0 -129 -16 -228t-46.5 -166t-72 -101t-92.5 -34q-60 0 -99 40t-61.5 105t-31.5 144t-9 157v41.5t1 40.5h347v-61h-256q0 -112 9 -204t32.5 -147t67.5 -55
q42 0 71.5 54t45.5 153.5t16 234.5q0 98 -5 189.5t-19.5 163.5t-42 114.5t-71.5 42.5q-56 0 -86 -35.5t-40 -68.5l-54 25q16 57 67 99.5t118 42.5z" />
    <glyph glyph-name="uni0289" unicode="&#x289;" horiz-adv-x="726" 
d="M34 600v60h616v-60h-616zM301 -22q-47 0 -88 21.5t-66.5 81.5t-25.5 175v730h-103v60h193v-782q0 -89 15 -135.5t39 -63t52 -16.5q45 0 76 44.5t47 113t16 140.5v639h-103v60h193v-985h92v-61h-174l-2 130q-4 -31 -23 -66.5t-53 -60.5t-85 -25z" />
    <glyph glyph-name="uni02BC" unicode="&#x2bc;" horiz-adv-x="534" 
d="M293 1202l-41 48q15 9 40.5 34t26.5 43q-1 -2 -6.5 -4t-11.5 -2q-36 0 -59.5 24.5t-23.5 58.5q0 37 25 60t60 23q41 0 66 -28t25 -73q0 -44 -16.5 -79t-40 -61.5t-44.5 -43.5z" />
    <glyph glyph-name="circumflex" unicode="&#x2c6;" horiz-adv-x="686" 
d="M199 1282l148 208h69l146 -208h-63l-118 141l-119 -141h-63z" />
    <glyph glyph-name="caron" unicode="&#x2c7;" horiz-adv-x="685" 
d="M347 1247l-151 211h64l121 -144l120 144h65l-150 -211h-69z" />
    <glyph glyph-name="uni02C9" unicode="&#x2c9;" horiz-adv-x="917" 
d="M226 1360v60h604v-60h-604z" />
    <glyph glyph-name="breve" unicode="&#x2d8;" horiz-adv-x="688" 
d="M343 1257q-57 0 -93 24.5t-52 66t-16 91.5h57q4 -58 30 -89t74 -31t74.5 31t30.5 89h58q0 -50 -16.5 -91.5t-52.5 -66t-94 -24.5z" />
    <glyph glyph-name="dotaccent" unicode="&#x2d9;" horiz-adv-x="652" 
d="M306 1307q-27 0 -48 19.5t-21 46.5q0 28 21 49t48 21q26 0 47 -21t21 -49q0 -27 -21 -46.5t-47 -19.5z" />
    <glyph glyph-name="ring" unicode="&#x2da;" horiz-adv-x="477" 
d="M243 1144q-44 0 -74.5 32.5t-30.5 85.5q0 55 30.5 86.5t74.5 31.5t75 -31.5t31 -86.5q0 -53 -31 -85.5t-75 -32.5zM243 1186q28 0 40.5 22.5t12.5 55.5q0 29 -12.5 51.5t-40.5 22.5q-26 0 -39 -22.5t-13 -51.5q0 -33 13 -55.5t39 -22.5z" />
    <glyph glyph-name="ogonek" unicode="&#x2db;" horiz-adv-x="637" 
d="M347 -286q-37 0 -75 12.5t-63 43t-25 81.5q0 43 23 76t53.5 56.5t53.5 35.5l24 -19q-20 -20 -45.5 -56t-25.5 -84q0 -53 33 -67t66 -14q23 0 55.5 6.5t54.5 18.5l27 -45q-23 -17 -64 -31t-92 -14z" />
    <glyph glyph-name="tilde" unicode="&#x2dc;" horiz-adv-x="697" 
d="M428 1276q-39 0 -67 18t-52 35.5t-51 17.5q-30 0 -48 -21t-23 -34l-53 26q6 19 23 43t43.5 42.5t59.5 18.5q39 0 67 -18t52.5 -36.5t52.5 -18.5q30 0 45 17t21 29l53 -28q-5 -17 -22 -38t-43 -37t-58 -16z" />
    <glyph glyph-name="hungarumlaut" unicode="&#x2dd;" horiz-adv-x="957" 
d="M504 1236l-30 29l106 131q18 29 38 33.5t33 -7.5t11 -32t-29 -40zM326 1236l-30 29l105 131q18 29 38 33.5t33.5 -7.5t11.5 -32t-29 -40z" />
    <glyph glyph-name="gravecomb" unicode="&#x300;" 
d="M368 1103l-195 90q-24 12 -38 23t-14 33q0 21 13.5 31t33.5 10q18 0 31.5 -6.5t26.5 -18.5l165 -134z" />
    <glyph glyph-name="acutecomb" unicode="&#x301;" 
d="M195 1110l-28 32l169 131q14 12 30 20t29 8q12 0 21 -5.5t15 -15.5q4 -8 4 -18q0 -19 -18.5 -35t-42.5 -27z" />
    <glyph glyph-name="uni0302" unicode="&#x302;" 
d="M159 1109l148 209h69l146 -209h-63l-118 142l-119 -142h-63z" />
    <glyph glyph-name="tildecomb" unicode="&#x303;" 
d="M428 1124q-39 0 -64.5 17.5t-48 35.5t-49.5 18q-30 0 -45.5 -21t-20.5 -34l-57 31q5 19 20 41.5t39.5 40t57.5 17.5q39 0 66.5 -18t51 -36.5t51.5 -18.5q25 0 38.5 16.5t19.5 29.5l55 -37q-4 -16 -19 -35.5t-39 -33t-56 -13.5z" />
    <glyph glyph-name="uni0304" unicode="&#x304;" 
d="M265 1131v61h526v-61h-526z" />
    <glyph glyph-name="uni0306" unicode="&#x306;" 
d="M341 1101q-57 0 -93 24.5t-52 66t-16 91.5h57q4 -58 30 -89t74 -31t74.5 31t30.5 89h58q0 -50 -16.5 -91.5t-52.5 -66t-94 -24.5z" />
    <glyph glyph-name="uni0307" unicode="&#x307;" 
d="M303 1126q-26 0 -47 20t-21 46q0 28 21 49t47 21q27 0 47.5 -21t20.5 -49q0 -26 -20.5 -46t-47.5 -20z" />
    <glyph glyph-name="uni0308" unicode="&#x308;" 
d="M505 1123q-27 0 -47.5 20t-20.5 46q0 29 20.5 50t47.5 21t47.5 -21t20.5 -50q0 -26 -20.5 -46t-47.5 -20zM285 1123q-26 0 -46.5 20t-20.5 46q0 29 20.5 50t46.5 21q28 0 49 -21t21 -50q0 -26 -21 -46t-49 -20z" />
    <glyph glyph-name="hookabovecomb" unicode="&#x309;" 
d="M302 1410q54 0 94 -25t40 -79q0 -44 -25.5 -73t-51.5 -50.5t-26 -45.5h-55q0 39 21 63t41.5 46.5t20.5 54.5q0 33 -21.5 43t-55.5 10q-24 0 -46.5 -7.5t-36.5 -19.5l-39 41q18 20 59 31t81 11z" />
    <glyph glyph-name="uni030A" unicode="&#x30a;" 
d="M243 1092q-44 0 -74.5 32.5t-30.5 85.5q0 55 30.5 86.5t74.5 31.5t75 -31.5t31 -86.5q0 -53 -31 -85.5t-75 -32.5zM243 1134q28 0 40.5 22.5t12.5 55.5q0 29 -12.5 51.5t-40.5 22.5q-26 0 -39 -22.5t-13 -51.5q0 -33 13 -55.5t39 -22.5z" />
    <glyph glyph-name="uni030B" unicode="&#x30b;" 
d="M504 1132l-30 30l105 131q14 17 25.5 25.5t23.5 8.5q14 0 24 -10t10 -25q0 -24 -29 -45zM326 1132l-30 30l104 131q14 17 26 25.5t23 8.5q15 0 25 -10t10 -25q0 -24 -29 -45z" />
    <glyph glyph-name="uni030C" unicode="&#x30c;" 
d="M315 1101l-151 212h64l121 -144l121 144h64l-150 -212h-69z" />
    <glyph glyph-name="uni030F" unicode="&#x30f;" 
d="M445 1108l-153 152q-14 15 -23 27t-9 26q0 22 13 33.5t31 11.5q27 0 41 -15t24 -33l107 -183zM267 1108l-153 152q-15 15 -24 27t-9 26q0 22 13.5 33.5t30.5 11.5q27 0 41 -15t25 -33l106 -183z" />
    <glyph glyph-name="uni0311" unicode="&#x311;" 
d="M319 1302q58 0 94 -24t52.5 -65t16.5 -93h-58q-4 60 -30 90.5t-75 30.5q-48 0 -74 -30.5t-30 -90.5h-57q0 52 16.5 93t52 65t92.5 24z" />
    <glyph glyph-name="uni0312" unicode="&#x312;" 
d="M244 1319l28 -31q-10 -6 -28 -24.5t-19 -31.5q3 5 13 5q25 0 41.5 -17t16.5 -41t-17.5 -40.5t-41.5 -16.5q-29 0 -48 19t-19 51q0 30 12 54.5t29.5 43t32.5 29.5z" />
    <glyph glyph-name="uni031B" unicode="&#x31b;" 
d="M236 985v61q53 0 94.5 15t41.5 67q0 19 -2.5 43t-2.5 41q0 30 15.5 47.5t38.5 17.5t38.5 -17t15.5 -48q0 -93 -39 -142t-94.5 -67t-105.5 -18z" />
    <glyph glyph-name="dotbelowcomb" unicode="&#x323;" 
d="M303 -253q-26 0 -47 19.5t-21 46.5q0 28 21 49t47 21q27 0 47.5 -21t20.5 -49q0 -27 -20.5 -46.5t-47.5 -19.5z" />
    <glyph glyph-name="uni0324" unicode="&#x324;" 
d="M378 -250q-28 0 -48 20t-20 47q0 28 20 49.5t48 21.5q27 0 47 -21.5t20 -49.5q0 -27 -20 -47t-47 -20zM158 -250q-26 0 -46.5 20t-20.5 47q0 28 20.5 49.5t46.5 21.5q28 0 49 -21.5t21 -49.5q0 -27 -21 -47t-49 -20z" />
    <glyph glyph-name="uni0326" unicode="&#x326;" 
d="M225 -330l-28 33q11 6 28 23.5t18 29.5q-2 -4 -12 -4q-25 0 -41.5 17t-16.5 41q0 25 17.5 41t41.5 16q29 0 46 -19t17 -51q0 -30 -11 -54.5t-27.5 -42.5t-31.5 -30z" />
    <glyph glyph-name="uni0327" unicode="&#x327;" 
d="M303 -287q-54 0 -90.5 10t-51.5 18l22 50q10 -7 41 -16t79 -9q32 0 58.5 15t26.5 43q0 31 -18.5 40.5t-42.5 9.5q-16 0 -37 -7.5t-34 -21.5l-58 4l63 151h60l-48 -104q5 8 28 17.5t52 9.5q37 0 69 -22t32 -77q0 -42 -24.5 -66.5t-60 -34.5t-66.5 -10z" />
    <glyph glyph-name="uni0328" unicode="&#x328;" 
d="M347 -286q-37 0 -75 12.5t-63 43t-25 81.5q0 43 23 76t53.5 56.5t53.5 35.5l24 -19q-20 -20 -45.5 -56t-25.5 -84q0 -53 33 -67t66 -14q23 0 55.5 6.5t54.5 18.5l27 -45q-23 -17 -64 -31t-92 -14z" />
    <glyph glyph-name="uni032E" unicode="&#x32e;" 
d="M252 -283q-57 0 -92.5 24t-52 66t-16.5 92h57q4 -59 30 -89.5t74 -30.5q49 0 75 30.5t30 89.5h58q0 -50 -16.5 -92t-52.5 -66t-94 -24z" />
    <glyph glyph-name="uni0331" unicode="&#x331;" 
d="M225 -205v58h604v-58h-604z" />
    <glyph glyph-name="uni0335" unicode="&#x335;" 
d="M99 533v60h402v-60h-402z" />
    <glyph glyph-name="uni0336" unicode="&#x336;" 
d="M99 533v60h402v-60h-402z" />
    <glyph glyph-name="uni0337" unicode="&#x337;" 
d="M30 -104l506 1608h63l-505 -1608h-64z" />
    <glyph glyph-name="uni0338" unicode="&#x338;" 
d="M30 -104l506 1608h63l-505 -1608h-64z" />
    <glyph glyph-name="uni1E05" unicode="&#x1e05;" horiz-adv-x="624" 
d="M344 -20q-45 0 -72.5 26.5t-41.5 62t-17 62.5l-4 -131h-191v61h107v1378h-107v61h198v-578q5 20 20 51t44.5 55t74.5 24q62 0 107 -52.5t70 -170t25 -311.5q0 -193 -27 -311.5t-74.5 -172.5t-111.5 -54zM336 52q33 0 57 28.5t39.5 86.5t23 144.5t7.5 201.5
q0 102 -6 185.5t-21 144.5t-38 94.5t-56 33.5q-35 0 -62 -34.5t-43 -82.5t-21 -90v-425q3 -60 17.5 -127t40.5 -113.5t62 -46.5zM316 -253q-26 0 -47 19.5t-21 46.5q0 28 21 49t47 21q27 0 47.5 -21t20.5 -49q0 -27 -20.5 -46.5t-47.5 -19.5z" />
    <glyph glyph-name="uni1E08" unicode="&#x1e08;" horiz-adv-x="602" 
d="M365 -20q-131 0 -217.5 181t-86.5 537q0 127 19.5 255t58.5 234t97.5 170.5t136.5 64.5q51 0 89 -38t58 -96t20 -119q0 -44 -13 -62t-36 -18q-24 0 -38 16.5t-14 50.5q0 21 5 37t10 36t5 52q0 37 -22 58.5t-50 21.5q-45 0 -82 -41t-64.5 -111t-46 -156t-28 -177.5
t-9.5 -175.5q0 -122 11 -225.5t30.5 -183.5t47 -136t59 -85t67.5 -29q37 0 63.5 26t44 63t27.5 70l55 -24q-16 -49 -43.5 -93.5t-65.5 -73.5t-88 -29zM381 -287q-54 0 -90.5 10t-51.5 18l22 50q10 -7 41 -16t79 -9q32 0 58.5 15t26.5 43q0 31 -18.5 40.5t-42.5 9.5
q-16 0 -37 -7.5t-35 -21.5l-57 4l62 151h61l-48 -104q5 8 28 17.5t51 9.5q38 0 70 -22t32 -77q0 -42 -24.5 -66.5t-60 -34.5t-66.5 -10zM248 1465l-28 31l168 131q14 11 30.5 19.5t29.5 8.5q12 0 21 -5.5t15 -15.5q4 -8 4 -18q0 -19 -18.5 -35t-42.5 -27z" />
    <glyph glyph-name="uni1E09" unicode="&#x1e09;" horiz-adv-x="547" 
d="M185 1077l-28 32l169 131q14 12 30 20t29 8q12 0 21 -5.5t15 -15.5q4 -8 4 -18q0 -19 -18.5 -35t-42.5 -27zM310 -20q-70 0 -119.5 49.5t-80.5 131t-46 179.5t-15 194q0 125 22 222t59 163t84 100.5t96 34.5q61 0 101 -38t60 -96.5t20 -121.5q0 -36 -11.5 -55.5
t-34.5 -19.5t-35.5 18t-12.5 45q0 19 5 29t9.5 22t4.5 34q0 55 -29 88t-74 33q-44 0 -75.5 -38.5t-52 -102.5t-30 -145t-9.5 -167q0 -81 8.5 -168.5t27.5 -161.5t52 -120t83 -46q52 0 81 26.5t44 72.5l46 -37q-16 -40 -58.5 -82.5t-119.5 -42.5zM347 -285q-55 0 -91 10
t-51 18l21 50q10 -7 41 -16t79 -9q32 0 58.5 15t26.5 43q0 31 -18 40.5t-43 9.5q-16 0 -36.5 -7.5t-34.5 -21.5l-58 4l63 151h60l-48 -104q6 7 29 17t51 10q37 0 69 -22.5t32 -77.5q0 -41 -24.5 -65.5t-59.5 -34.5t-66 -10z" />
    <glyph glyph-name="uni1E0D" unicode="&#x1e0d;" horiz-adv-x="628" 
d="M284 -20q-62 0 -109 54t-73.5 172.5t-26.5 311.5q0 194 26.5 311.5t72.5 170t104 52.5q46 0 75 -20.5t44.5 -49t20.5 -52.5v509h-110v61h201v-1439h108v-61h-193l-3 132q-3 -26 -19 -62.5t-44.5 -63t-73.5 -26.5zM298 52q34 0 59.5 42.5t41 104.5t19.5 122v443
q-5 50 -23 97.5t-44.5 79t-58.5 31.5q-36 0 -59.5 -36t-37.5 -99t-20 -146t-6 -178q0 -115 7.5 -201.5t22.5 -144t39.5 -86.5t59.5 -29zM318 -253q-26 0 -47 19.5t-21 46.5q0 28 21 49t47 21q27 0 47.5 -21t20.5 -49q0 -27 -20.5 -46.5t-47.5 -19.5z" />
    <glyph glyph-name="uni1E0F" unicode="&#x1e0f;" horiz-adv-x="628" 
d="M284 -20q-62 0 -109 54t-73.5 172.5t-26.5 311.5q0 194 26.5 311.5t72.5 170t104 52.5q46 0 75 -20.5t44.5 -49t20.5 -52.5v509h-110v61h201v-1439h108v-61h-193l-3 132q-3 -26 -19 -62.5t-44.5 -63t-73.5 -26.5zM298 52q34 0 59.5 42.5t41 104.5t19.5 122v443
q-5 50 -23 97.5t-44.5 79t-58.5 31.5q-36 0 -59.5 -36t-37.5 -99t-20 -146t-6 -178q0 -115 7.5 -201.5t22.5 -144t39.5 -86.5t59.5 -29zM1 -258v61h526v-61h-526z" />
    <glyph glyph-name="uni1E15" unicode="&#x1e15;" horiz-adv-x="538" 
d="M277 -22q-68 0 -112.5 48t-69.5 128t-34.5 176.5t-9.5 194.5q0 129 16 228t46.5 166t72 101t92.5 34q60 0 99 -40t61.5 -104.5t31.5 -142.5t9 -154v-41.5t-1 -40.5h-347v60h256q0 113 -9 204t-32.5 144.5t-67.5 53.5q-41 0 -71 -53t-46 -151t-16 -233q0 -99 5 -190.5
t19.5 -164.5t41.5 -116t72 -43q56 0 86 35.5t40 67.5l54 -25q-16 -57 -66.5 -99.5t-119.5 -42.5zM12 1130v61h526v-61h-526zM390 1246l-195 90q-24 12 -38 23t-14 33q0 21 13.5 31t33.5 10q18 0 31.5 -6.5t26.5 -18.5l165 -134z" />
    <glyph glyph-name="uni1E17" unicode="&#x1e17;" horiz-adv-x="538" 
d="M277 -22q-68 0 -112.5 48t-69.5 128t-34.5 176.5t-9.5 194.5q0 129 16 228t46.5 166t72 101t92.5 34q60 0 99 -40t61.5 -104.5t31.5 -142.5t9 -154v-41.5t-1 -40.5h-347v60h256q0 113 -9 204t-32.5 144.5t-67.5 53.5q-41 0 -71 -53t-46 -151t-16 -233q0 -99 5 -190.5
t19.5 -164.5t41.5 -116t72 -43q56 0 86 35.5t40 67.5l54 -25q-16 -57 -66.5 -99.5t-119.5 -42.5zM12 1130v61h526v-61h-526zM165 1219l-28 32l169 131q14 12 30 20t29 8q12 0 21 -5.5t15 -15.5q4 -8 4 -18q0 -19 -18.5 -35t-42.5 -27z" />
    <glyph glyph-name="uni1E1D" unicode="&#x1e1d;" horiz-adv-x="538" 
d="M274 1100q-57 0 -93 24.5t-52 66t-16 91.5h57q4 -58 30 -89t74 -31t74.5 31t30.5 89h58q0 -50 -16.5 -91.5t-52.5 -66t-94 -24.5zM277 -22q-68 0 -112.5 48t-69.5 128t-34.5 176.5t-9.5 194.5q0 129 16 228t46.5 166t72 101t92.5 34q60 0 99 -40t61.5 -105t31.5 -144
t9 -157v-41.5t-1 -40.5h-347v61h256q0 112 -9 204t-32.5 147t-67.5 55q-41 0 -71 -54t-46 -153t-16 -235q0 -98 5 -189.5t19.5 -163.5t41.5 -114.5t72 -42.5q56 0 86 36t40 68l54 -25q-16 -57 -66.5 -99.5t-119.5 -42.5zM316 -287q-55 0 -91 10t-51 18l21 50q10 -7 41 -16
t79 -9q32 0 58.5 15t26.5 43q0 31 -18 40.5t-43 9.5q-16 0 -37 -7.5t-34 -21.5l-58 4l63 151h60l-48 -104q6 8 29 17.5t51 9.5q37 0 69 -22t32 -77q0 -42 -24.5 -66.5t-59.5 -34.5t-66 -10z" />
    <glyph glyph-name="uni1E21" unicode="&#x1e21;" horiz-adv-x="610" 
d="M309 -498q-86 0 -143.5 38.5t-86 99.5t-28.5 129q0 60 14 102.5t35 71t43.5 45t38.5 23.5q-10 2 -28 10.5t-37 26t-32.5 46t-13.5 68.5q0 41 16 69.5t38.5 44t40.5 16.5q3 0 8 0.5t6 -0.5q-13 12 -28.5 39t-29 69.5t-21.5 100t-8 130.5q0 119 17 200t46.5 130t69.5 71
t86 22q72 0 117.5 -49.5t67.5 -140t22 -213.5q0 -110 -15.5 -189.5t-43.5 -131t-67 -75.5t-86 -24q-41 0 -62.5 11t-24.5 12q-1 1 -2.5 1.5t-5.5 0.5q-21 0 -44.5 -23t-23.5 -60q0 -50 37 -77t137 -41q132 -15 192 -81t60 -189q0 -71 -21 -124t-57.5 -88.5t-83.5 -53
t-99 -17.5zM309 -441q78 0 126 57t48 144q0 107 -32 153t-109 61q-21 4 -40 8.5t-33.5 8t-21.5 4.5q-39 -21 -63 -55.5t-35.5 -76t-11.5 -87.5q0 -52 18.5 -102t56.5 -82.5t97 -32.5zM307 292q33 0 59.5 28.5t42.5 105.5t16 221q0 140 -15.5 214.5t-41.5 103t-58 28.5
t-59.5 -28.5t-45 -104.5t-17.5 -219q0 -142 17 -217t44 -103.5t58 -28.5zM385 994q8 51 47 82t80 31q36 0 51 -15t15 -42q0 -22 -12.5 -36.5t-34.5 -14.5q-17 0 -25.5 8t-15.5 16.5t-21 8.5t-23.5 -12t-9.5 -30zM42 1132v61h526v-61h-526z" />
    <glyph glyph-name="uni1E25" unicode="&#x1e25;" horiz-adv-x="706" 
d="M35 0v61h101v1378h-101v61h191v-576q2 19 25 50.5t61 56.5t85 25q43 0 84 -24t68 -91t27 -198v-682h102v-61h-277v61h85v658q0 142 -26.5 201.5t-86.5 59.5q-39 0 -72.5 -34.5t-53.5 -85.5t-21 -101v-698h85v-61h-276zM357 -253q-26 0 -47 19.5t-21 46.5q0 28 21 49
t47 21q27 0 47.5 -21t20.5 -49q0 -27 -20.5 -46.5t-47.5 -19.5z" />
    <glyph glyph-name="uni1E2B" unicode="&#x1e2b;" horiz-adv-x="706" 
d="M35 0v61h101v1378h-101v61h191v-576q2 19 25 50.5t61 56.5t85 25q43 0 84 -24t68 -91t27 -198v-682h102v-61h-277v61h85v658q0 142 -26.5 201.5t-86.5 59.5q-39 0 -72.5 -34.5t-53.5 -85.5t-21 -101v-698h85v-61h-276zM357 -283q-57 0 -92.5 24t-52 66t-16.5 92h57
q4 -59 30 -89.5t74 -30.5q49 0 75 30.5t30 89.5h58q0 -50 -16.5 -92t-52.5 -66t-94 -24z" />
    <glyph glyph-name="uni1E2F" unicode="&#x1e2f;" horiz-adv-x="371" 
d="M38 0v61h107v925h-107v61h197v-986h109v-61h-306zM299 1123q-27 0 -47.5 20t-20.5 46q0 29 20.5 50t47.5 21t47.5 -21t20.5 -50q0 -26 -20.5 -46t-47.5 -20zM79 1123q-26 0 -46.5 20t-20.5 46q0 29 20.5 50t46.5 21q28 0 49 -21t21 -50q0 -26 -21 -46t-49 -20zM79 1291
l-28 32l169 131q14 12 30 20t29 8q12 0 21 -5.5t15 -15.5q4 -8 4 -18q0 -19 -18.5 -35t-42.5 -27z" />
    <glyph glyph-name="uni1E37" unicode="&#x1e37;" horiz-adv-x="364" 
d="M47 0v61h91v1378h-91v61h179v-1439h92v-61h-271zM185 -253q-26 0 -47 19.5t-21 46.5q0 28 21 49t47 21q27 0 47.5 -21t20.5 -49q0 -27 -20.5 -46.5t-47.5 -19.5z" />
    <glyph glyph-name="uni1E3B" unicode="&#x1e3b;" horiz-adv-x="364" 
d="M47 0v61h91v1378h-91v61h179v-1439h92v-61h-271zM-116 -205v58h604v-58h-604z" />
    <glyph glyph-name="uni1E3F" unicode="&#x1e3f;" horiz-adv-x="968" 
d="M37 0v61h96v925h-96v61h185v-118q4 20 22 49.5t52 51.5t85 22q55 0 86.5 -28.5t45 -62.5t13.5 -48q7 30 30 62t61 54.5t89 22.5q84 0 119.5 -73t35.5 -174v-744h92v-61h-271v61h89v622q0 90 -4.5 155.5t-24 101.5t-64.5 36q-47 0 -77 -38.5t-45 -97.5t-16 -119v-660h90
v-61h-268v61h88v622q0 135 -14 214t-82 79q-46 0 -75 -39t-42 -98.5t-14 -119.5v-658h87v-61h-273zM387 1077l-28 32l169 131q14 12 30 20t29 8q12 0 21 -5.5t15 -15.5q4 -8 4 -18q0 -19 -18.5 -35t-42.5 -27z" />
    <glyph glyph-name="uni1E43" unicode="&#x1e43;" horiz-adv-x="968" 
d="M37 0v61h96v925h-96v61h185v-118q4 20 22 49.5t52 51.5t85 22q55 0 86.5 -28.5t45 -62.5t13.5 -48q7 30 30 62t61 54.5t89 22.5q84 0 119.5 -73t35.5 -174v-744h92v-61h-271v61h89v622q0 90 -4.5 155.5t-24 101.5t-64.5 36q-47 0 -77 -38.5t-45 -97.5t-16 -119v-660h90
v-61h-268v61h88v622q0 135 -14 214t-82 79q-46 0 -75 -39t-42 -98.5t-14 -119.5v-658h87v-61h-273zM498 -253q-26 0 -47 19.5t-21 46.5q0 28 21 49t47 21q27 0 47.5 -21t20.5 -49q0 -27 -20.5 -46.5t-47.5 -19.5z" />
    <glyph glyph-name="uni1E45" unicode="&#x1e45;" horiz-adv-x="688" 
d="M35 0v61h100v925h-100v61h189v-114q7 29 29.5 57t58 46t77.5 18q38 0 77.5 -20.5t66.5 -83.5t27 -189v-700h100v-61h-283v61h93v677q0 132 -27 187.5t-83 55.5q-29 0 -53.5 -21t-43 -55t-28.5 -72.5t-10 -74.5v-697h93v-61h-283zM354 1127q-26 0 -47 20t-21 46
q0 28 21 49t47 21q27 0 47.5 -21t20.5 -49q0 -26 -20.5 -46t-47.5 -20z" />
    <glyph glyph-name="uni1E47" unicode="&#x1e47;" horiz-adv-x="688" 
d="M35 0v61h100v925h-100v61h189v-114q7 29 29.5 57t58 46t77.5 18q38 0 77.5 -20.5t66.5 -83.5t27 -189v-700h100v-61h-283v61h93v677q0 132 -27 187.5t-83 55.5q-29 0 -53.5 -21t-43 -55t-28.5 -72.5t-10 -74.5v-697h93v-61h-283zM354 -253q-26 0 -47 19.5t-21 46.5
q0 28 21 49t47 21q27 0 47.5 -21t20.5 -49q0 -27 -20.5 -46.5t-47.5 -19.5z" />
    <glyph glyph-name="uni1E49" unicode="&#x1e49;" horiz-adv-x="688" 
d="M35 0v61h100v925h-100v61h189v-114q7 29 29.5 57t58 46t77.5 18q38 0 77.5 -20.5t66.5 -83.5t27 -189v-700h100v-61h-283v61h93v677q0 132 -27 187.5t-83 55.5q-29 0 -53.5 -21t-43 -55t-28.5 -72.5t-10 -74.5v-697h93v-61h-283zM52 -205v58h604v-58h-604z" />
    <glyph glyph-name="uni1E4D" unicode="&#x1e4d;" horiz-adv-x="585" 
d="M289 -22q-53 0 -96.5 37.5t-75.5 108.5t-49 172.5t-17 230.5q0 141 18.5 241.5t51 163.5t75.5 92.5t93 29.5q48 0 91 -29.5t76 -92.5t52 -163.5t19 -241.5q0 -129 -17.5 -230.5t-49.5 -172.5t-76 -108.5t-95 -37.5zM289 39q60 0 101 120.5t41 367.5q0 243 -41 355
t-101 112q-63 0 -104 -112t-41 -355q0 -247 41 -367.5t104 -120.5zM376 1125q-39 0 -64.5 17.5t-48 35.5t-49.5 18q-30 0 -45.5 -21t-20.5 -34l-57 31q5 19 20 41.5t39.5 40t57.5 17.5q39 0 66.5 -18t51 -36.5t51.5 -18.5q25 0 38.5 16.5t19.5 29.5l55 -37q-4 -16 -19 -35.5
t-39 -33t-56 -13.5zM180 1301l-28 32l169 131q14 12 30 20t29 8q12 0 21 -5.5t15 -15.5q4 -8 4 -18q0 -19 -18.5 -35t-42.5 -27z" />
    <glyph glyph-name="uni1E4F" unicode="&#x1e4f;" horiz-adv-x="585" 
d="M289 -22q-53 0 -96.5 37.5t-75.5 108.5t-49 172.5t-17 230.5q0 141 18.5 241.5t51 163.5t75.5 92.5t93 29.5q48 0 91 -29.5t76 -92.5t52 -163.5t19 -241.5q0 -129 -17.5 -230.5t-49.5 -172.5t-76 -108.5t-95 -37.5zM289 39q60 0 101 120.5t41 367.5q0 243 -41 355
t-101 112q-63 0 -104 -112t-41 -355q0 -247 41 -367.5t104 -120.5zM376 1125q-39 0 -64.5 17.5t-48 35.5t-49.5 18q-30 0 -45.5 -21t-20.5 -34l-57 31q5 19 20 41.5t39.5 40t57.5 17.5q39 0 66.5 -18t51 -36.5t51.5 -18.5q25 0 38.5 16.5t19.5 29.5l55 -37q-4 -16 -19 -35.5
t-39 -33t-56 -13.5zM400 1348q-27 0 -47.5 20t-20.5 46q0 29 20.5 50t47.5 21t47.5 -21t20.5 -50q0 -26 -20.5 -46t-47.5 -20zM180 1348q-26 0 -46.5 20t-20.5 46q0 29 20.5 50t46.5 21q28 0 49 -21t21 -50q0 -26 -21 -46t-49 -20z" />
    <glyph glyph-name="uni1E51" unicode="&#x1e51;" horiz-adv-x="585" 
d="M289 -22q-53 0 -96.5 37.5t-75.5 108.5t-49 172.5t-17 230.5q0 141 18.5 241.5t51 163.5t75.5 92.5t93 29.5q48 0 91 -29.5t76 -92.5t52 -163.5t19 -241.5q0 -129 -17.5 -230.5t-49.5 -172.5t-76 -108.5t-95 -37.5zM289 39q60 0 101 120.5t41 367.5q0 243 -41 355
t-101 112q-63 0 -104 -112t-41 -355q0 -247 41 -367.5t104 -120.5zM100 1132v61h379v-61h-379zM404 1247l-195 90q-24 12 -38 23t-14 33q0 21 13.5 31t33.5 10q18 0 31.5 -6.5t26.5 -18.5l165 -134z" />
    <glyph glyph-name="uni1E53" unicode="&#x1e53;" horiz-adv-x="585" 
d="M289 -22q-53 0 -96.5 37.5t-75.5 108.5t-49 172.5t-17 230.5q0 141 18.5 241.5t51 163.5t75.5 92.5t93 29.5q48 0 91 -29.5t76 -92.5t52 -163.5t19 -241.5q0 -129 -17.5 -230.5t-49.5 -172.5t-76 -108.5t-95 -37.5zM289 39q60 0 101 120.5t41 367.5q0 243 -41 355
t-101 112q-63 0 -104 -112t-41 -355q0 -247 41 -367.5t104 -120.5zM100 1132v61h379v-61h-379zM180 1221l-28 32l169 131q14 12 30 20t29 8q12 0 21 -5.5t15 -15.5q4 -8 4 -18q0 -19 -18.5 -35t-42.5 -27z" />
    <glyph glyph-name="uni1E5B" unicode="&#x1e5b;" horiz-adv-x="518" 
d="M25 0v61h101v925h-101v61h187l2 -105q2 10 19 37t48 51t76 24q46 0 74 -32.5t40.5 -88.5t12.5 -127q0 -41 -12.5 -62t-36.5 -21q-21 0 -33.5 17t-12.5 50q0 19 4.5 31.5t9 28t4.5 40.5q0 51 -18 73t-44 22q-41 0 -70 -35t-44 -85.5t-15 -97.5v-706h103v-61h-294z
M245 -253q-26 0 -47 19.5t-21 46.5q0 28 21 49t47 21q27 0 47.5 -21t20.5 -49q0 -27 -20.5 -46.5t-47.5 -19.5z" />
    <glyph glyph-name="uni1E5F" unicode="&#x1e5f;" horiz-adv-x="518" 
d="M25 0v61h101v925h-101v61h187l2 -105q2 10 19 37t48 51t76 24q46 0 74 -32.5t40.5 -88.5t12.5 -127q0 -41 -12.5 -62t-36.5 -21q-21 0 -33.5 17t-12.5 50q0 19 4.5 31.5t9 28t4.5 40.5q0 51 -18 73t-44 22q-41 0 -70 -35t-44 -85.5t-15 -97.5v-706h103v-61h-294z
M-57 -205v58h604v-58h-604z" />
    <glyph glyph-name="uni1E61" unicode="&#x1e61;" horiz-adv-x="501" 
d="M260 -22q-49 0 -74.5 12.5t-39 24.5t-24.5 12t-15 -7.5t-4 -19.5h-49v277h58q4 -65 13.5 -110.5t26.5 -74t42.5 -41t62.5 -12.5q40 0 64 24.5t34.5 61.5t10.5 72q0 56 -13.5 105.5t-44.5 101t-85 109.5q-64 72 -110.5 147.5t-46.5 183.5q0 69 25 115.5t65.5 70.5t86.5 24
q38 0 60.5 -8t36 -17t21.5 -9t11 7t4 20h51v-268h-57q-4 65 -13 106.5t-24.5 65t-37 33t-50.5 9.5q-49 0 -76 -36t-27 -98q0 -72 33.5 -131t100.5 -136q58 -67 96 -126t56.5 -116.5t18.5 -121.5q0 -69 -21.5 -125.5t-63 -90.5t-102.5 -34zM252 1127q-26 0 -47 20t-21 46
q0 28 21 49t47 21q27 0 47.5 -21t20.5 -49q0 -26 -20.5 -46t-47.5 -20z" />
    <glyph glyph-name="uni1E63" unicode="&#x1e63;" horiz-adv-x="501" 
d="M260 -22q-49 0 -74.5 12.5t-39 24.5t-24.5 12t-15 -7.5t-4 -19.5h-49v277h58q4 -65 13.5 -110.5t26.5 -74t42.5 -41t62.5 -12.5q40 0 64 24.5t34.5 61.5t10.5 72q0 56 -13.5 105.5t-44.5 101t-85 109.5q-64 72 -110.5 147.5t-46.5 183.5q0 69 25 115.5t65.5 70.5t86.5 24
q38 0 60.5 -8t36 -17t21.5 -9t11 7t4 20h51v-268h-57q-4 65 -13 106.5t-24.5 65t-37 33t-50.5 9.5q-49 0 -76 -36t-27 -98q0 -72 33.5 -131t100.5 -136q58 -67 96 -126t56.5 -116.5t18.5 -121.5q0 -69 -21.5 -125.5t-63 -90.5t-102.5 -34zM252 -253q-26 0 -47 19.5t-21 46.5
q0 28 21 49t47 21q27 0 47.5 -21t20.5 -49q0 -27 -20.5 -46.5t-47.5 -19.5z" />
    <glyph glyph-name="uni1E65" unicode="&#x1e65;" horiz-adv-x="501" 
d="M260 -22q-49 0 -74.5 12.5t-39 24.5t-24.5 12t-15 -7.5t-4 -19.5h-49v277h58q4 -65 13.5 -110.5t26.5 -74t42.5 -41t62.5 -12.5q40 0 64 24.5t34.5 61.5t10.5 72q0 56 -13.5 105.5t-44.5 101t-85 109.5q-64 72 -110.5 147.5t-46.5 183.5q0 69 25 115.5t65.5 70.5t86.5 24
q38 0 60.5 -8t36 -17t21.5 -9t11 7t4 20h51v-268h-57q-4 65 -13 106.5t-24.5 65t-37 33t-50.5 9.5q-49 0 -76 -36t-27 -98q0 -72 33.5 -131t100.5 -136q58 -67 96 -126t56.5 -116.5t18.5 -121.5q0 -69 -21.5 -125.5t-63 -90.5t-102.5 -34zM142 1077l-28 32l169 131
q14 12 30 20t29 8q12 0 21 -5.5t15 -15.5q4 -8 4 -18q0 -19 -18.5 -35t-42.5 -27zM252 1346q-26 0 -47 20t-21 46q0 28 21 49t47 21q27 0 47.5 -21t20.5 -49q0 -26 -20.5 -46t-47.5 -20z" />
    <glyph glyph-name="uni1E67" unicode="&#x1e67;" horiz-adv-x="501" 
d="M260 -22q-49 0 -74.5 12.5t-39 24.5t-24.5 12t-15 -7.5t-4 -19.5h-49v277h58q4 -65 13.5 -110.5t26.5 -74t42.5 -41t62.5 -12.5q40 0 64 24.5t34.5 61.5t10.5 72q0 56 -13.5 105.5t-44.5 101t-85 109.5q-64 72 -110.5 147.5t-46.5 183.5q0 69 25 115.5t65.5 70.5t86.5 24
q38 0 60.5 -8t36 -17t21.5 -9t11 7t4 20h51v-268h-57q-4 65 -13 106.5t-24.5 65t-37 33t-50.5 9.5q-49 0 -76 -36t-27 -98q0 -72 33.5 -131t100.5 -136q58 -67 96 -126t56.5 -116.5t18.5 -121.5q0 -69 -21.5 -125.5t-63 -90.5t-102.5 -34zM219 1102l-151 212h64l121 -144
l121 144h64l-150 -212h-69zM252 1372q-26 0 -47 20t-21 46q0 28 21 49t47 21q27 0 47.5 -21t20.5 -49q0 -26 -20.5 -46t-47.5 -20z" />
    <glyph glyph-name="uni1E69" unicode="&#x1e69;" horiz-adv-x="501" 
d="M260 -22q-49 0 -74.5 12.5t-39 24.5t-24.5 12t-15 -7.5t-4 -19.5h-49v277h58q4 -65 13.5 -110.5t26.5 -74t42.5 -41t62.5 -12.5q40 0 64 24.5t34.5 61.5t10.5 72q0 56 -13.5 105.5t-44.5 101t-85 109.5q-64 72 -110.5 147.5t-46.5 183.5q0 69 25 115.5t65.5 70.5t86.5 24
q38 0 60.5 -8t36 -17t21.5 -9t11 7t4 20h51v-268h-57q-4 65 -13 106.5t-24.5 65t-37 33t-50.5 9.5q-49 0 -76 -36t-27 -98q0 -72 33.5 -131t100.5 -136q58 -67 96 -126t56.5 -116.5t18.5 -121.5q0 -69 -21.5 -125.5t-63 -90.5t-102.5 -34zM252 -253q-26 0 -47 19.5t-21 46.5
q0 28 21 49t47 21q27 0 47.5 -21t20.5 -49q0 -27 -20.5 -46.5t-47.5 -19.5zM252 1127q-26 0 -47 20t-21 46q0 28 21 49t47 21q27 0 47.5 -21t20.5 -49q0 -26 -20.5 -46t-47.5 -20z" />
    <glyph glyph-name="uni1E6D" unicode="&#x1e6d;" horiz-adv-x="390" 
d="M248 -18q-30 0 -59 11t-47.5 43t-18.5 94v856h-117v61h117q8 33 13.5 81t9.5 100t5 96h62v-277h139v-61h-139v-875q0 -42 16 -55.5t32 -13.5q21 0 35 9.5t21 19.5l36 -48q-15 -16 -43 -28.5t-62 -12.5zM253 -247q-26 0 -47 19.5t-21 46.5q0 28 21 49t47 21q27 0 47.5 -21
t20.5 -49q0 -27 -20.5 -46.5t-47.5 -19.5z" />
    <glyph glyph-name="uni1E6F" unicode="&#x1e6f;" horiz-adv-x="390" 
d="M53 -178v60h296v-60h-296zM248 -18q-30 0 -59 11t-47.5 43t-18.5 94v856h-117v61h117q8 33 13.5 81t9.5 100t5 96h62v-277h139v-61h-139v-875q0 -42 16 -55.5t32 -13.5q21 0 35 9.5t21 19.5l36 -48q-15 -16 -43 -28.5t-62 -12.5z" />
    <glyph glyph-name="uni1E79" unicode="&#x1e79;" horiz-adv-x="660" 
d="M301 -22q-47 0 -88 21.5t-66.5 81.5t-25.5 175v730h-103v60h193v-782q0 -89 15 -135.5t39 -63t52 -16.5q45 0 76 44.5t47 113t16 140.5v639h-103v60h193v-985h92v-61h-174l-2 130q-4 -31 -23 -66.5t-53 -60.5t-85 -25zM419 1125q-39 0 -64.5 17.5t-48 35.5t-49.5 18
q-30 0 -45.5 -21t-20.5 -34l-57 31q5 19 20 41.5t39.5 40t57.5 17.5q39 0 66.5 -18t51 -36.5t51.5 -18.5q25 0 38.5 16.5t19.5 29.5l55 -37q-4 -16 -19 -35.5t-39 -33t-56 -13.5zM223 1301l-28 32l169 131q14 12 30 20t29 8q12 0 21 -5.5t15 -15.5q4 -8 4 -18
q0 -19 -18.5 -35t-42.5 -27z" />
    <glyph glyph-name="uni1E7B" unicode="&#x1e7b;" horiz-adv-x="660" 
d="M301 -22q-47 0 -88 21.5t-66.5 81.5t-25.5 175v730h-103v60h193v-782q0 -89 15 -135.5t39 -63t52 -16.5q45 0 76 44.5t47 113t16 140.5v639h-103v60h193v-985h92v-61h-174l-2 130q-4 -31 -23 -66.5t-53 -60.5t-85 -25zM70 1132v61h526v-61h-526zM443 1267q-27 0 -47.5 20
t-20.5 46q0 29 20.5 50t47.5 21t47.5 -21t20.5 -50q0 -26 -20.5 -46t-47.5 -20zM223 1267q-26 0 -46.5 20t-20.5 46q0 29 20.5 50t46.5 21q28 0 49 -21t21 -50q0 -26 -21 -46t-49 -20z" />
    <glyph glyph-name="Wgrave" unicode="&#x1e80;" horiz-adv-x="1010" 
d="M285 -3l-155 1342h-105v61h299v-61h-95l122 -1178l-12 -13l151 1179l16 -134l-24 146h-102v61h299v-61h-100l155 -1175l-10 -13l122 1188h-84v61h241v-61h-89l-157 -1342h-85l-160 1179l24 27l-167 -1206h-84zM630 1447l-195 90q-24 12 -38 23t-14 33q0 21 13.5 31
t33.5 10q18 0 31.5 -6.5t26.5 -18.5l165 -134z" />
    <glyph glyph-name="wgrave" unicode="&#x1e81;" horiz-adv-x="926" 
d="M600 -6l-145 992h-92v61h254v-61h-70l112 -842l106 842h-73v61h217v-61h-80l-133 -992h-96zM234 -6l-135 992h-80v61h251v-61h-76l102 -842l114 842h-63v61h215v-61h-89l-142 -992h-97zM569 1103l-195 90q-24 12 -38 23t-14 33q0 21 13.5 31t33.5 10q18 0 31.5 -6.5
t26.5 -18.5l165 -134z" />
    <glyph glyph-name="Wacute" unicode="&#x1e82;" horiz-adv-x="1010" 
d="M285 -3l-155 1342h-105v61h299v-61h-95l122 -1178l-12 -13l151 1179l16 -134l-24 146h-102v61h299v-61h-100l155 -1175l-10 -13l122 1188h-84v61h241v-61h-89l-157 -1342h-85l-160 1179l24 27l-167 -1206h-84zM405 1446l-28 31l168 131q14 11 30.5 19.5t29.5 8.5
q12 0 21 -5.5t15 -15.5q4 -8 4 -18q0 -19 -18.5 -35t-42.5 -27z" />
    <glyph glyph-name="wacute" unicode="&#x1e83;" horiz-adv-x="926" 
d="M600 -6l-145 992h-92v61h254v-61h-70l112 -842l106 842h-73v61h217v-61h-80l-133 -992h-96zM234 -6l-135 992h-80v61h251v-61h-76l102 -842l114 842h-63v61h215v-61h-89l-142 -992h-97zM344 1077l-28 32l169 131q14 12 30 20t29 8q12 0 21 -5.5t15 -15.5q4 -8 4 -18
q0 -19 -18.5 -35t-42.5 -27z" />
    <glyph glyph-name="Wdieresis" unicode="&#x1e84;" horiz-adv-x="1010" 
d="M285 -3l-155 1342h-105v61h299v-61h-95l122 -1178l-12 -13l151 1179l16 -134l-24 146h-102v61h299v-61h-100l155 -1175l-10 -13l122 1188h-84v61h241v-61h-89l-157 -1342h-85l-160 1179l24 27l-167 -1206h-84zM625 1499q-27 0 -47.5 19.5t-20.5 46.5q0 29 20.5 50
t47.5 21t47.5 -21t20.5 -50q0 -27 -20.5 -46.5t-47.5 -19.5zM405 1499q-26 0 -46.5 19.5t-20.5 46.5q0 29 20.5 50t46.5 21q28 0 49 -21t21 -50q0 -27 -21 -46.5t-49 -19.5z" />
    <glyph glyph-name="wdieresis" unicode="&#x1e85;" horiz-adv-x="926" 
d="M600 -6l-145 992h-92v61h254v-61h-70l112 -842l106 842h-73v61h217v-61h-80l-133 -992h-96zM234 -6l-135 992h-80v61h251v-61h-76l102 -842l114 842h-63v61h215v-61h-89l-142 -992h-97zM564 1123q-27 0 -47.5 20t-20.5 46q0 29 20.5 50t47.5 21t47.5 -21t20.5 -50
q0 -26 -20.5 -46t-47.5 -20zM344 1123q-26 0 -46.5 20t-20.5 46q0 29 20.5 50t46.5 21q28 0 49 -21t21 -50q0 -26 -21 -46t-49 -20z" />
    <glyph glyph-name="uni1E8F" unicode="&#x1e8f;" horiz-adv-x="596" 
d="M165 -502q-36 0 -58 28.5t-32 77.5t-10 112q0 36 11.5 56t33.5 20q23 0 33.5 -18t10.5 -45q0 -20 -5 -35t-10.5 -29t-5.5 -36q0 -28 7.5 -54.5t26.5 -26.5q13 0 21 14.5t14.5 41.5t13.5 63l68 355l-178 964h-82v61h251v-61h-73l126 -712l122 712h-74v61h221v-61h-80
l-179 -993l-66 -342q-10 -51 -23.5 -85t-33.5 -51t-50 -17zM307 1127q-26 0 -47 20t-21 46q0 28 21 49t47 21q27 0 47.5 -21t20.5 -49q0 -26 -20.5 -46t-47.5 -20z" />
    <glyph glyph-name="uni1E93" unicode="&#x1e93;" horiz-adv-x="500" 
d="M72 0v61l258 925h-101q-44 0 -63.5 -14t-24 -58t-4.5 -135h-59v268h343v-61l-258 -925h91q53 0 75.5 15t27.5 62t5 139h61v-277h-351zM251 -253q-26 0 -47 19.5t-21 46.5q0 28 21 49t47 21q27 0 47.5 -21t20.5 -49q0 -27 -20.5 -46.5t-47.5 -19.5z" />
    <glyph glyph-name="uni1E97" unicode="&#x1e97;" horiz-adv-x="390" 
d="M248 -18q-30 0 -59 11t-47.5 43t-18.5 94v856h-117v61h117q8 33 13.5 81t9.5 100t5 96h62v-277h139v-61h-139v-875q0 -42 16 -55.5t32 -13.5q21 0 35 9.5t21 19.5l36 -48q-15 -16 -43 -28.5t-62 -12.5zM295 1394q-27 0 -47.5 20t-20.5 46q0 29 20.5 50t47.5 21t47.5 -21
t20.5 -50q0 -26 -20.5 -46t-47.5 -20zM75 1394q-26 0 -46.5 20t-20.5 46q0 29 20.5 50t46.5 21q28 0 49 -21t21 -50q0 -26 -21 -46t-49 -20z" />
    <glyph glyph-name="uni1E9E" unicode="&#x1e9e;" horiz-adv-x="784" 
d="M488 -24q-54 0 -84.5 37t-30.5 109q0 38 16 54t36 16q19 0 33 -12.5t14 -41.5q0 -18 -5 -30t-10 -20.5t-5 -18.5q0 -12 7.5 -24t28.5 -12q42 0 73.5 30t49 89t17.5 145q0 83 -27.5 157t-68 137t-81 117t-67.5 99t-27 81q0 24 21 66.5t56 97t76.5 112t82.5 111t73 95.5
h-260q-60 0 -93.5 -24.5t-47.5 -79t-14 -146.5v-1120h-193v61h103v1036q0 131 28 202t83.5 98t135.5 27h291l36 -55q-44 -57 -98.5 -129t-103 -142.5t-80 -124t-31.5 -75.5t29 -61.5t71.5 -93.5t85 -121t71.5 -145t29 -165q0 -105 -28.5 -180.5t-78 -115.5t-113.5 -40z" />
    <glyph glyph-name="uni1EA0" unicode="&#x1ea0;" horiz-adv-x="650" 
d="M12 0v61h79l184 1343h87l182 -1343h98v-61h-283v61h89l-143 1143h-1l-149 -1143h78v-61h-221zM170 344v58h263v-58h-263zM318 -253q-26 0 -47 19.5t-21 46.5q0 28 21 49t47 21q27 0 47.5 -21t20.5 -49q0 -27 -20.5 -46.5t-47.5 -19.5z" />
    <glyph glyph-name="uni1EA1" unicode="&#x1ea1;" horiz-adv-x="594" 
d="M250 -20q-57 0 -100 28.5t-67.5 85.5t-24.5 143q0 91 33.5 151.5t83 103t99 77.5t83 73t33.5 91q0 77 -11 135t-37.5 90t-72.5 32q-51 0 -84.5 -37t-33.5 -83q0 -20 4 -31.5t8 -22t4 -29.5q0 -27 -12 -45.5t-35 -18.5t-34.5 20.5t-11.5 56.5q0 71 25 129t71 91.5
t107 33.5q62 0 107 -31t70.5 -99t25.5 -179v-627q0 -38 9.5 -51t27.5 -13q14 0 24 5.5t14 10.5l31 -53q-11 -11 -35 -19t-54 -8q-27 0 -48.5 10.5t-34 30.5t-13.5 51q-7 -20 -24 -44t-48 -41t-79 -17zM263 49q42 0 70 31.5t42.5 74t14.5 71.5v379q-2 -28 -38 -56.5
t-81.5 -66.5t-80 -95.5t-34.5 -144.5q0 -94 27 -143.5t80 -49.5zM315 -253q-26 0 -47 19.5t-21 46.5q0 28 21 49t47 21q27 0 47.5 -21t20.5 -49q0 -27 -20.5 -46.5t-47.5 -19.5z" />
    <glyph glyph-name="uni1EA2" unicode="&#x1ea2;" horiz-adv-x="650" 
d="M12 0v61h79l184 1343h87l182 -1343h98v-61h-283v61h89l-143 1143h-1l-149 -1143h78v-61h-221zM170 344v58h263v-58h-263zM314 1740q54 0 94 -25t40 -79q0 -44 -25.5 -73t-51.5 -50.5t-26 -45.5h-55q0 39 21 63t41.5 46.5t20.5 54.5q0 33 -21.5 43t-55.5 10
q-24 0 -46.5 -7.5t-36.5 -19.5l-39 41q18 20 59 31t81 11z" />
    <glyph glyph-name="uni1EA3" unicode="&#x1ea3;" horiz-adv-x="594" 
d="M250 -20q-57 0 -100 28.5t-67.5 85.5t-24.5 143q0 91 33.5 151.5t83 103t99 77.5t83 73t33.5 91q0 77 -11 135t-37.5 90t-72.5 32q-51 0 -84.5 -37t-33.5 -83q0 -20 4 -31.5t8 -22t4 -29.5q0 -27 -12 -45.5t-35 -18.5t-34.5 20.5t-11.5 56.5q0 71 25 129t71 91.5
t107 33.5q62 0 107 -31t70.5 -99t25.5 -179v-627q0 -38 9.5 -51t27.5 -13q14 0 24 5.5t14 10.5l31 -53q-11 -11 -35 -19t-54 -8q-27 0 -48.5 10.5t-34 30.5t-13.5 51q-7 -20 -24 -44t-48 -41t-79 -17zM263 49q42 0 70 31.5t42.5 74t14.5 71.5v379q-2 -28 -38 -56.5
t-81.5 -66.5t-80 -95.5t-34.5 -144.5q0 -94 27 -143.5t80 -49.5zM277 1411q54 0 94 -25t40 -79q0 -44 -25.5 -73t-51.5 -50.5t-26 -45.5h-55q0 39 21 63t41.5 46.5t20.5 54.5q0 33 -21.5 43t-55.5 10q-24 0 -46.5 -7.5t-36.5 -19.5l-39 41q18 20 59 31t81 11z" />
    <glyph glyph-name="uni1EA4" unicode="&#x1ea4;" horiz-adv-x="650" 
d="M12 0v61h79l184 1343h87l182 -1343h98v-61h-283v61h89l-143 1143h-1l-149 -1143h78v-61h-221zM170 344v58h263v-58h-263zM137 1462l148 169h69l146 -169h-63l-118 102l-119 -102h-63zM445 1615l-24 26l143 112q28 23 52 23q9 0 17 -4.5t12 -13.5q5 -6 5 -15
q0 -16 -16.5 -29.5t-35.5 -22.5z" />
    <glyph glyph-name="uni1EA5" unicode="&#x1ea5;" horiz-adv-x="594" 
d="M250 -20q-57 0 -100 28.5t-67.5 85.5t-24.5 143q0 91 33.5 151.5t83 103t99 77.5t83 73t33.5 91q0 77 -11 135t-37.5 90t-72.5 32q-51 0 -84.5 -37t-33.5 -83q0 -20 4 -31.5t8 -22t4 -29.5q0 -27 -12 -45.5t-35 -18.5t-34.5 20.5t-11.5 56.5q0 71 25 129t71 91.5
t107 33.5q62 0 107 -31t70.5 -99t25.5 -179v-627q0 -38 9.5 -51t27.5 -13q14 0 24 5.5t14 10.5l31 -53q-11 -11 -35 -19t-54 -8q-27 0 -48.5 10.5t-34 30.5t-13.5 51q-7 -20 -24 -44t-48 -41t-79 -17zM263 49q42 0 70 31.5t42.5 74t14.5 71.5v379q-2 -28 -38 -56.5
t-81.5 -66.5t-80 -95.5t-34.5 -144.5q0 -94 27 -143.5t80 -49.5zM101 1109l148 209h69l146 -209h-63l-118 142l-119 -142h-63zM409 1302l-24 26l143 112q28 23 52 23q9 0 17 -4.5t12 -13.5q5 -6 5 -15q0 -16 -16.5 -29.5t-35.5 -22.5z" />
    <glyph glyph-name="uni1EA6" unicode="&#x1ea6;" horiz-adv-x="650" 
d="M12 0v61h79l184 1343h87l182 -1343h98v-61h-283v61h89l-143 1143h-1l-149 -1143h78v-61h-221zM170 344v58h263v-58h-263zM137 1462l148 169h69l146 -169h-63l-118 102l-119 -102h-63zM518 1608l-168 77q-20 9 -32 19t-12 30q0 17 11.5 26t28.5 9q16 0 28 -5.5t23 -15.5
l141 -116z" />
    <glyph glyph-name="uni1EA7" unicode="&#x1ea7;" horiz-adv-x="594" 
d="M250 -20q-57 0 -100 28.5t-67.5 85.5t-24.5 143q0 91 33.5 151.5t83 103t99 77.5t83 73t33.5 91q0 77 -11 135t-37.5 90t-72.5 32q-51 0 -84.5 -37t-33.5 -83q0 -20 4 -31.5t8 -22t4 -29.5q0 -27 -12 -45.5t-35 -18.5t-34.5 20.5t-11.5 56.5q0 71 25 129t71 91.5
t107 33.5q62 0 107 -31t70.5 -99t25.5 -179v-627q0 -38 9.5 -51t27.5 -13q14 0 24 5.5t14 10.5l31 -53q-11 -11 -35 -19t-54 -8q-27 0 -48.5 10.5t-34 30.5t-13.5 51q-7 -20 -24 -44t-48 -41t-79 -17zM263 49q42 0 70 31.5t42.5 74t14.5 71.5v379q-2 -28 -38 -56.5
t-81.5 -66.5t-80 -95.5t-34.5 -144.5q0 -94 27 -143.5t80 -49.5zM101 1109l148 209h69l146 -209h-63l-118 142l-119 -142h-63zM482 1295l-168 77q-20 9 -32 19t-12 30q0 17 11.5 26t28.5 9q16 0 28 -5.5t23 -15.5l141 -116z" />
    <glyph glyph-name="uni1EA8" unicode="&#x1ea8;" horiz-adv-x="650" 
d="M12 0v61h79l184 1343h87l182 -1343h98v-61h-283v61h89l-143 1143h-1l-149 -1143h78v-61h-221zM170 344v58h263v-58h-263zM135 1463l148 169h69l146 -169h-63l-118 102l-119 -102h-63zM465 1804q42 0 74 -20t32 -63q0 -35 -20.5 -57.5t-41 -40t-20.5 -37.5h-44
q0 31 17 50.5t33.5 37.5t16.5 43q0 26 -17 34.5t-45 8.5q-19 0 -36.5 -6.5t-29.5 -16.5l-31 33q15 16 47.5 25t64.5 9z" />
    <glyph glyph-name="uni1EA9" unicode="&#x1ea9;" horiz-adv-x="594" 
d="M250 -20q-57 0 -100 28.5t-67.5 85.5t-24.5 143q0 91 33.5 151.5t83 103t99 77.5t83 73t33.5 91q0 77 -11 135t-37.5 90t-72.5 32q-51 0 -84.5 -37t-33.5 -83q0 -20 4 -31.5t8 -22t4 -29.5q0 -27 -12 -45.5t-35 -18.5t-34.5 20.5t-11.5 56.5q0 71 25 129t71 91.5
t107 33.5q62 0 107 -31t70.5 -99t25.5 -179v-627q0 -38 9.5 -51t27.5 -13q14 0 24 5.5t14 10.5l31 -53q-11 -11 -35 -19t-54 -8q-27 0 -48.5 10.5t-34 30.5t-13.5 51q-7 -20 -24 -44t-48 -41t-79 -17zM263 49q42 0 70 31.5t42.5 74t14.5 71.5v379q-2 -28 -38 -56.5
t-81.5 -66.5t-80 -95.5t-34.5 -144.5q0 -94 27 -143.5t80 -49.5zM99 1110l148 209h69l146 -209h-63l-118 142l-119 -142h-63zM429 1491q42 0 74 -20t32 -63q0 -35 -20.5 -57.5t-41 -40t-20.5 -37.5h-44q0 31 17 50.5t33.5 37.5t16.5 43q0 26 -17 34.5t-45 8.5
q-19 0 -36.5 -6.5t-29.5 -16.5l-31 33q15 16 47.5 25t64.5 9z" />
    <glyph glyph-name="uni1EAA" unicode="&#x1eaa;" horiz-adv-x="650" 
d="M12 0v61h79l184 1343h87l182 -1343h98v-61h-283v61h89l-143 1143h-1l-149 -1143h78v-61h-221zM170 344v58h263v-58h-263zM139 1464l147 168h69l146 -168h-63l-118 101l-119 -101h-62zM405 1672q-39 0 -67 17.5t-52 35.5t-51 18q-30 0 -48 -21t-23 -34l-53 26q6 19 23 43
t43.5 42t59.5 18q39 0 67 -18t52.5 -36t52.5 -18q30 0 45 16.5t21 29.5l53 -29q-5 -16 -22 -37.5t-43 -37t-58 -15.5z" />
    <glyph glyph-name="uni1EAB" unicode="&#x1eab;" horiz-adv-x="594" 
d="M250 -20q-57 0 -100 28.5t-67.5 85.5t-24.5 143q0 91 33.5 151.5t83 103t99 77.5t83 73t33.5 91q0 77 -11 135t-37.5 90t-72.5 32q-51 0 -84.5 -37t-33.5 -83q0 -20 4 -31.5t8 -22t4 -29.5q0 -27 -12 -45.5t-35 -18.5t-34.5 20.5t-11.5 56.5q0 71 25 129t71 91.5
t107 33.5q62 0 107 -31t70.5 -99t25.5 -179v-627q0 -38 9.5 -51t27.5 -13q14 0 24 5.5t14 10.5l31 -53q-11 -11 -35 -19t-54 -8q-27 0 -48.5 10.5t-34 30.5t-13.5 51q-7 -20 -24 -44t-48 -41t-79 -17zM263 49q42 0 70 31.5t42.5 74t14.5 71.5v379q-2 -28 -38 -56.5
t-81.5 -66.5t-80 -95.5t-34.5 -144.5q0 -94 27 -143.5t80 -49.5zM101 1110l148 209h69l146 -209h-63l-118 142l-119 -142h-63zM368 1358q-39 0 -67 18t-52 35.5t-51 17.5q-30 0 -48 -21t-23 -34l-53 27q6 18 23 42t43.5 42.5t59.5 18.5q39 0 67 -18t52.5 -36t52.5 -18
q30 0 45 16.5t21 28.5l53 -28q-5 -16 -22 -37.5t-43 -37.5t-58 -16z" />
    <glyph glyph-name="uni1EAC" unicode="&#x1eac;" horiz-adv-x="650" 
d="M12 0v61h79l184 1343h87l182 -1343h98v-61h-283v61h89l-143 1143h-1l-149 -1143h78v-61h-221zM170 344v58h263v-58h-263zM318 -253q-26 0 -47 19.5t-21 46.5q0 28 21 49t47 21q27 0 47.5 -21t20.5 -49q0 -27 -20.5 -46.5t-47.5 -19.5zM137 1457l148 209h69l146 -209h-63
l-118 142l-119 -142h-63z" />
    <glyph glyph-name="uni1EAD" unicode="&#x1ead;" horiz-adv-x="594" 
d="M250 -20q-57 0 -100 28.5t-67.5 85.5t-24.5 143q0 91 33.5 151.5t83 103t99 77.5t83 73t33.5 91q0 77 -11 135t-37.5 90t-72.5 32q-51 0 -84.5 -37t-33.5 -83q0 -20 4 -31.5t8 -22t4 -29.5q0 -27 -12 -45.5t-35 -18.5t-34.5 20.5t-11.5 56.5q0 71 25 129t71 91.5
t107 33.5q62 0 107 -31t70.5 -99t25.5 -179v-627q0 -38 9.5 -51t27.5 -13q14 0 24 5.5t14 10.5l31 -53q-11 -11 -35 -19t-54 -8q-27 0 -48.5 10.5t-34 30.5t-13.5 51q-7 -20 -24 -44t-48 -41t-79 -17zM263 49q42 0 70 31.5t42.5 74t14.5 71.5v379q-2 -28 -38 -56.5
t-81.5 -66.5t-80 -95.5t-34.5 -144.5q0 -94 27 -143.5t80 -49.5zM315 -253q-26 0 -47 19.5t-21 46.5q0 28 21 49t47 21q27 0 47.5 -21t20.5 -49q0 -27 -20.5 -46.5t-47.5 -19.5zM101 1118l148 209h69l146 -209h-63l-118 142l-119 -142h-63z" />
    <glyph glyph-name="uni1EAE" unicode="&#x1eae;" horiz-adv-x="650" 
d="M12 0v61h79l184 1343h87l182 -1343h98v-61h-283v61h89l-143 1143h-1l-149 -1143h78v-61h-221zM170 344v58h263v-58h-263zM317 1495q-57 0 -93 24.5t-52 66t-16 91.5h57q4 -58 30 -89t74 -31t74.5 31t30.5 89h58q0 -50 -16.5 -91.5t-52.5 -66t-94 -24.5zM208 1724l-28 31
l168 131q14 11 30.5 19.5t29.5 8.5q12 0 21 -5.5t15 -15.5q4 -8 4 -18q0 -19 -18.5 -35t-42.5 -27z" />
    <glyph glyph-name="uni1EAF" unicode="&#x1eaf;" horiz-adv-x="594" 
d="M250 -20q-57 0 -100 28.5t-67.5 85.5t-24.5 143q0 91 33.5 151.5t83 103t99 77.5t83 73t33.5 91q0 77 -11 135t-37.5 90t-72.5 32q-51 0 -84.5 -37t-33.5 -83q0 -20 4 -31.5t8 -22t4 -29.5q0 -27 -12 -45.5t-35 -18.5t-34.5 20.5t-11.5 56.5q0 71 25 129t71 91.5
t107 33.5q62 0 107 -31t70.5 -99t25.5 -179v-627q0 -38 9.5 -51t27.5 -13q14 0 24 5.5t14 10.5l31 -53q-11 -11 -35 -19t-54 -8q-27 0 -48.5 10.5t-34 30.5t-13.5 51q-7 -20 -24 -44t-48 -41t-79 -17zM263 49q42 0 70 31.5t42.5 74t14.5 71.5v379q-2 -28 -38 -56.5
t-81.5 -66.5t-80 -95.5t-34.5 -144.5q0 -94 27 -143.5t80 -49.5zM281 1107q-57 0 -93 24.5t-52 66t-16 91.5h57q4 -59 30 -89.5t74 -30.5t74.5 30.5t30.5 89.5h58q0 -50 -16.5 -91.5t-52.5 -66t-94 -24.5zM179 1318l-28 31l169 133q14 11 30 18.5t29 7.5q12 0 21 -5t15 -16
q4 -8 4 -17q0 -19 -18.5 -35.5t-42.5 -27.5z" />
    <glyph glyph-name="uni1EB0" unicode="&#x1eb0;" horiz-adv-x="650" 
d="M12 0v61h79l184 1343h87l182 -1343h98v-61h-283v61h89l-143 1143h-1l-149 -1143h78v-61h-221zM170 344v58h263v-58h-263zM317 1495q-57 0 -93 24.5t-52 66t-16 91.5h57q4 -58 30 -89t74 -31t74.5 31t30.5 89h58q0 -50 -16.5 -91.5t-52.5 -66t-94 -24.5zM433 1725l-195 90
q-24 12 -38 23t-14 33q0 21 13.5 31t33.5 10q18 0 31.5 -6.5t26.5 -18.5l165 -134z" />
    <glyph glyph-name="uni1EB1" unicode="&#x1eb1;" horiz-adv-x="594" 
d="M250 -20q-57 0 -100 28.5t-67.5 85.5t-24.5 143q0 91 33.5 151.5t83 103t99 77.5t83 73t33.5 91q0 77 -11 135t-37.5 90t-72.5 32q-51 0 -84.5 -37t-33.5 -83q0 -20 4 -31.5t8 -22t4 -29.5q0 -27 -12 -45.5t-35 -18.5t-34.5 20.5t-11.5 56.5q0 71 25 129t71 91.5
t107 33.5q62 0 107 -31t70.5 -99t25.5 -179v-627q0 -38 9.5 -51t27.5 -13q14 0 24 5.5t14 10.5l31 -53q-11 -11 -35 -19t-54 -8q-27 0 -48.5 10.5t-34 30.5t-13.5 51q-7 -20 -24 -44t-48 -41t-79 -17zM263 49q42 0 70 31.5t42.5 74t14.5 71.5v379q-2 -28 -38 -56.5
t-81.5 -66.5t-80 -95.5t-34.5 -144.5q0 -94 27 -143.5t80 -49.5zM281 1126q-57 0 -93 24.5t-52 66t-16 91.5h57q4 -58 30 -89t74 -31t74.5 31t30.5 89h58q0 -50 -16.5 -91.5t-52.5 -66t-94 -24.5zM395 1337l-196 90q-24 12 -37.5 23t-13.5 34q0 20 13 30.5t33 10.5
q19 0 32.5 -7t26.5 -18l164 -135z" />
    <glyph glyph-name="uni1EB2" unicode="&#x1eb2;" horiz-adv-x="650" 
d="M12 0v61h79l184 1343h87l182 -1343h98v-61h-283v61h89l-143 1143h-1l-149 -1143h78v-61h-221zM170 344v58h263v-58h-263zM317 1495q-57 0 -93 24.5t-52 66t-16 91.5h57q4 -58 30 -89t74 -31t74.5 31t30.5 89h58q0 -50 -16.5 -91.5t-52.5 -66t-94 -24.5zM314 2018
q54 0 94 -25t40 -79q0 -44 -25.5 -73t-51.5 -50.5t-26 -45.5h-55q0 39 21 63t41.5 46.5t20.5 54.5q0 33 -21.5 43t-55.5 10q-24 0 -46.5 -7.5t-36.5 -19.5l-39 41q18 20 59 31t81 11z" />
    <glyph glyph-name="uni1EB3" unicode="&#x1eb3;" horiz-adv-x="594" 
d="M250 -20q-57 0 -100 28.5t-67.5 85.5t-24.5 143q0 91 33.5 151.5t83 103t99 77.5t83 73t33.5 91q0 77 -11 135t-37.5 90t-72.5 32q-51 0 -84.5 -37t-33.5 -83q0 -20 4 -31.5t8 -22t4 -29.5q0 -27 -12 -45.5t-35 -18.5t-34.5 20.5t-11.5 56.5q0 71 25 129t71 91.5
t107 33.5q62 0 107 -31t70.5 -99t25.5 -179v-627q0 -38 9.5 -51t27.5 -13q14 0 24 5.5t14 10.5l31 -53q-11 -11 -35 -19t-54 -8q-27 0 -48.5 10.5t-34 30.5t-13.5 51q-7 -20 -24 -44t-48 -41t-79 -17zM263 49q42 0 70 31.5t42.5 74t14.5 71.5v379q-2 -28 -38 -56.5
t-81.5 -66.5t-80 -95.5t-34.5 -144.5q0 -94 27 -143.5t80 -49.5zM282 1127q-57 0 -93 24.5t-52 66t-16 91.5h57q4 -58 30 -89t74 -31t74.5 31t30.5 89h58q0 -50 -16.5 -91.5t-52.5 -66t-94 -24.5zM279 1555q54 0 94 -25t40 -79q0 -43 -25.5 -72t-51 -50.5t-25.5 -46.5h-56
q0 39 21 63.5t41.5 46.5t20.5 54q0 34 -21 44t-56 10q-24 0 -46 -8t-37 -20l-39 41q19 20 59.5 31t80.5 11z" />
    <glyph glyph-name="uni1EB4" unicode="&#x1eb4;" horiz-adv-x="650" 
d="M12 0v61h79l184 1343h87l182 -1343h98v-61h-283v61h89l-143 1143h-1l-149 -1143h78v-61h-221zM170 344v58h263v-58h-263zM317 1495q-57 0 -93 24.5t-52 66t-16 91.5h57q4 -58 30 -89t74 -31t74.5 31t30.5 89h58q0 -50 -16.5 -91.5t-52.5 -66t-94 -24.5zM404 1752
q-39 0 -64.5 17.5t-48 35.5t-49.5 18q-30 0 -45.5 -21t-20.5 -34l-57 31q5 19 20 41.5t39.5 40t57.5 17.5q39 0 66.5 -18t51 -36.5t51.5 -18.5q25 0 38.5 16.5t19.5 29.5l55 -37q-4 -16 -19 -35.5t-39 -33t-56 -13.5z" />
    <glyph glyph-name="uni1EB5" unicode="&#x1eb5;" horiz-adv-x="594" 
d="M250 -20q-57 0 -100 28.5t-67.5 85.5t-24.5 143q0 91 33.5 151.5t83 103t99 77.5t83 73t33.5 91q0 77 -11 135t-37.5 90t-72.5 32q-51 0 -84.5 -37t-33.5 -83q0 -20 4 -31.5t8 -22t4 -29.5q0 -27 -12 -45.5t-35 -18.5t-34.5 20.5t-11.5 56.5q0 71 25 129t71 91.5
t107 33.5q62 0 107 -31t70.5 -99t25.5 -179v-627q0 -38 9.5 -51t27.5 -13q14 0 24 5.5t14 10.5l31 -53q-11 -11 -35 -19t-54 -8q-27 0 -48.5 10.5t-34 30.5t-13.5 51q-7 -20 -24 -44t-48 -41t-79 -17zM263 49q42 0 70 31.5t42.5 74t14.5 71.5v379q-2 -28 -38 -56.5
t-81.5 -66.5t-80 -95.5t-34.5 -144.5q0 -94 27 -143.5t80 -49.5zM281 1126q-57 0 -93 24.5t-52 66t-16 91.5h57q4 -58 30 -89t74 -31t74.5 31t30.5 89h58q0 -50 -16.5 -91.5t-52.5 -66t-94 -24.5zM368 1353q-39 0 -67 17.5t-52 35.5t-51 18q-30 0 -48 -21t-23 -34l-53 26
q5 19 22.5 43t44 42t59.5 18q39 0 67 -18t52.5 -36t52.5 -18q30 0 45 16.5t21 29.5l53 -29q-5 -16 -22 -37.5t-43 -37t-58 -15.5z" />
    </font>
</defs>
</svg>
