<?xml version="1.0" standalone="no"?>
<!DOCTYPE svg PUBLIC "-//W3C//DTD SVG 1.1//EN" "http://www.w3.org/Graphics/SVG/1.1/DTD/svg11.dtd" >
<svg xmlns="http://www.w3.org/2000/svg" xmlns:xlink="http://www.w3.org/1999/xlink" version="1.1">
<metadata>
Created by FontForge 20170731 at Tue Dec  1 16:59:51 2020
 By Aleksey,,,
Copyright 2020 The Imbue Project Authors (https://github.com/Etcetera-Type-Co/Imbue)
</metadata>
<defs>
<font id="Imbue10pt-Medium" horiz-adv-x="0" >
  <font-face 
    font-family="Imbue 10pt Medium"
    font-weight="500"
    font-stretch="normal"
    units-per-em="2000"
    panose-1="0 0 0 0 0 0 0 0 0 0"
    ascent="1600"
    descent="-400"
    x-height="1046"
    cap-height="1400"
    bbox="-369 -502 1520 2029"
    underline-thickness="50"
    underline-position="-175"
    unicode-range="U+000D-FB02"
  />
<missing-glyph horiz-adv-x="591" 
d="M136 133v947h317v-947h-317zM160 156h269v900h-269v-900zM297 889l-68 -69l-18 18l68 69l-68 69l18 19l68 -69l69 69l18 -19l-68 -69l68 -69l-18 -18zM297 582l-68 -69l-18 18l69 69l-69 69l18 18l68 -69l69 69l18 -18l-69 -69l69 -69l-18 -18zM297 274l-68 -69l-18 19
l68 69l-68 69l18 18l68 -69l69 69l18 -18l-68 -69l68 -69l-18 -19z" />
    <glyph glyph-name="f_f" unicode="ff" horiz-adv-x="950" 
d="M32 0v70h115v907h-120v70h120v81q0 135 35.5 219.5t99.5 124t146 39.5q57 0 99 -27t65.5 -67t25.5 -78l-49 -85q0 43 -13.5 85t-40.5 70t-68 28q-38 0 -62 -28t-37 -77t-17.5 -113.5t-4.5 -138.5v-19.5v-13.5h156v-70h-156v-907h113v-70h-407zM437 0v70h110v907h-126v70
h126v128q0 104 29 179.5t86.5 116t141.5 40.5q90 0 138 -71t48 -183q0 -53 -20 -82t-59 -29q-41 0 -58.5 27t-17.5 64q0 32 12 50.5t23.5 33.5t11.5 37q0 35 -18.5 58.5t-45.5 23.5t-44.5 -20t-28 -56t-14.5 -85.5t-4 -108.5v-123h134v-70h-134v-907h114v-70h-404z" />
    <glyph glyph-name="f_f_i" unicode="ffi" horiz-adv-x="1259" 
d="M32 0v70h115v907h-120v70h120v81q0 135 35.5 219.5t99.5 124t146 39.5q57 0 100.5 -27.5t69 -70t26.5 -85.5l-45 -97q0 54 -16 101t-45.5 76t-70.5 29q-38 0 -62 -28t-37 -77t-17.5 -113.5t-4.5 -138.5v-19.5v-13.5h156v-70h-156v-907h109v-70h-403zM843 0v70h104v907
h-104v70h284v-977h106v-70h-390zM438 0v70h115v907h-132v70h132v84q0 135 44.5 219t118 122.5t160.5 38.5q73 0 135.5 -28.5t101.5 -83t39 -132.5q0 -42 -15 -66t-37 -34.5t-46 -10.5q-36 0 -65 21t-29 66q0 29 11 44t21 29t10 39q0 32 -17.5 49.5t-44.5 24.5t-54 7
q-50 0 -84 -22t-51.5 -91t-17.5 -212v-64h198v-70h-198v-907h117v-70h-412z" />
    <glyph glyph-name="f_f_l" unicode="ffl" horiz-adv-x="1318" 
d="M32 0v70h117v907h-122v70h122v81q0 135 35 219.5t98.5 124t146.5 39.5q57 0 100.5 -27.5t69 -70t27.5 -85.5l-46 -97q-1 54 -17 101t-45 76t-70 29q-38 0 -62 -28t-37 -77t-17.5 -113.5t-4.5 -138.5v-19.5v-13.5h156v-70h-156v-907h108v-70h-403zM901 0v70h100v1360h-100
v70h279v-1430h101v-70h-380zM454 0v70h105v907h-122v70h122v39q0 118 27 198t74 127t109 68t133 21v-70q-52 0 -84.5 -25.5t-49.5 -71t-23.5 -107.5t-6.5 -134v-27v-18h156v-70h-156v-907h117v-70h-401z" />
    <glyph glyph-name="f_i" unicode="fi" horiz-adv-x="865" 
d="M44 0v70h115v907h-132v70h132v84q0 135 44.5 219t117.5 122.5t160 38.5q73 0 136 -28.5t101.5 -83t38.5 -132.5q0 -42 -14.5 -66t-37 -34.5t-46.5 -10.5q-36 0 -64.5 21t-28.5 66q0 29 10.5 44t21 29t10.5 39q0 32 -18 49.5t-44.5 24.5t-54.5 7q-49 0 -83 -22t-51.5 -91
t-17.5 -212v-64h198v-70h-198v-907h117v-70h-412zM448 0v70h105v907h-105v70h285v-977h105v-70h-390z" />
    <glyph glyph-name="f_l" unicode="fl" horiz-adv-x="908" 
d="M44 0v70h105v907h-122v70h122v39q0 118 26.5 198t73.5 127t109.5 68t132.5 21v-70q-52 0 -84 -25.5t-49.5 -71t-23.5 -107.5t-6 -134v-27v-18h156v-70h-156v-907h117v-70h-401zM491 0v70h100v1360h-100v70h279v-1430h101v-70h-380z" />
    <glyph glyph-name=".notdef" horiz-adv-x="591" 
d="M136 133v947h317v-947h-317zM160 156h269v900h-269v-900zM297 889l-68 -69l-18 18l68 69l-68 69l18 19l68 -69l69 69l18 -19l-68 -69l68 -69l-18 -18zM297 582l-68 -69l-18 18l69 69l-69 69l18 18l68 -69l69 69l18 -18l-69 -69l69 -69l-18 -18zM297 274l-68 -69l-18 19
l68 69l-68 69l18 18l68 -69l69 69l18 -18l-68 -69l68 -69l-18 -19z" />
    <glyph glyph-name=".null" 
 />
    <glyph glyph-name="nonmarkingreturn" horiz-adv-x="666" 
 />
    <glyph glyph-name="CR" unicode="&#xd;" horiz-adv-x="324" 
 />
    <glyph glyph-name="space" unicode=" " horiz-adv-x="324" 
 />
    <glyph glyph-name="exclam" unicode="!" horiz-adv-x="332" 
d="M134 325q0 129 -9.5 253.5t-22.5 241t-22.5 222t-9.5 197.5q0 78 22.5 127.5t71.5 49.5q47 0 70 -49.5t23 -127.5q0 -92 -9.5 -197.5t-22 -222t-22 -241t-9.5 -253.5h-60zM160 -26q-46 0 -79.5 34t-33.5 81q0 48 33.5 81.5t79.5 33.5q47 0 80.5 -33.5t33.5 -81.5
q0 -47 -33.5 -81t-80.5 -34z" />
    <glyph glyph-name="quotedbl" unicode="&#x22;" horiz-adv-x="515" 
d="M124 1174q-6 34 -15.5 79.5t-16 91t-6.5 78.5q0 56 21.5 78.5t48.5 22.5q26 0 47.5 -22.5t21.5 -78.5q0 -33 -7.5 -78.5t-17 -91t-16.5 -79.5h-60zM330 1174q-6 34 -15.5 79.5t-16 91t-6.5 78.5q0 56 21.5 78.5t48.5 22.5q26 0 47.5 -22.5t21.5 -78.5q0 -33 -7.5 -78.5
t-17 -91t-16.5 -79.5h-60z" />
    <glyph glyph-name="numbersign" unicode="#" horiz-adv-x="1119" 
d="M160 0l78 447h-175v70h189l71 415h-211v70h225l67 398h154l-69 -398h220l72 398h152l-71 -398h195v-70h-206l-73 -415h228v-70h-240l-79 -447h-153l81 447h-221l-80 -447h-154zM405 517h218l74 415h-219z" />
    <glyph glyph-name="dollar" unicode="$" horiz-adv-x="562" 
d="M249 -24v1442h56v-1442h-56zM281 63q-55 0 -84 19t-44 37t-30 18q-21 0 -21 -50h-53v282h59q2 -29 13.5 -70t33 -80t53.5 -65t73 -26q39 0 60.5 20t30 56.5t8.5 85.5q0 58 -22.5 117t-60.5 120t-86 126q-65 89 -99.5 161.5t-47.5 136t-13 123.5q0 88 28 150t74.5 94
t100.5 32q48 0 72.5 -16.5t37.5 -33t26 -16.5q9 0 14.5 10.5t6.5 35.5h54v-279h-59q-2 32 -11.5 72t-28 77.5t-45.5 61.5t-64 24q-47 0 -73 -36.5t-26 -103.5q0 -47 15.5 -97.5t50.5 -109.5t91 -134q80 -105 128.5 -211.5t48.5 -226.5q0 -82 -16.5 -140t-45.5 -94t-67 -53
t-82 -17z" />
    <glyph glyph-name="percent" unicode="%" horiz-adv-x="1071" 
d="M295 780q-56 0 -102.5 39t-74.5 109.5t-28 166.5q0 139 56 224t149 85q89 0 146 -79t57 -230q0 -148 -58 -231.5t-145 -83.5zM780 -11q-56 0 -103 39.5t-75 110.5t-28 165q0 140 56.5 225.5t149.5 85.5q88 0 145 -79.5t57 -231.5q0 -146 -57 -230.5t-145 -84.5zM780 59
q39 0 56 41t21.5 98t4.5 104q0 49 -4.5 107t-21.5 99.5t-56 41.5t-57.5 -42t-23.5 -100.5t-5 -107.5q0 -48 4.5 -104t23 -96.5t58.5 -40.5zM295 848q40 0 57.5 41.5t22.5 99t5 104.5q0 49 -5 107t-22.5 99.5t-57.5 41.5q-39 0 -57 -42.5t-23 -100.5t-5 -107q0 -48 5 -105
t22.5 -97.5t57.5 -40.5zM57 0l878 1400h80l-876 -1400h-82z" />
    <glyph glyph-name="ampersand" unicode="&#x26;" horiz-adv-x="973" 
d="M764 -14q-56 0 -102 27t-78 94l-304 662q-13 25 -31 70t-35 101t-28 115t-11 114q0 74 22.5 122t58.5 76t76.5 39.5t75.5 11.5t73 -11t71 -37.5t53.5 -71t20.5 -110.5q0 -76 -24.5 -137t-59.5 -106t-67 -73.5t-46 -41.5l-40 63q38 39 68.5 113t30.5 183q0 81 -19.5 124.5
t-61.5 43.5t-61 -39t-19 -114q0 -46 12.5 -100.5t29.5 -105.5t31.5 -87t18.5 -46l331 -709q25 -52 40 -66t34 -14q16 0 33 13.5t27 35.5l45 -48q-21 -43 -67.5 -67t-97.5 -24zM323 -18q-92 0 -159 46.5t-102.5 126.5t-35.5 182q0 117 39.5 208.5t98.5 159t118 110.5l49 -57
q-33 -31 -64 -83t-50.5 -116.5t-19.5 -132.5q0 -97 18.5 -177t58.5 -128t103 -48q40 0 73 25t58 64.5t38 81.5l41 -61q-10 -36 -39.5 -83t-83.5 -82.5t-141 -35.5zM851 274q-32 0 -46.5 19.5t-14.5 47.5q0 22 8 36t15.5 25.5t7.5 24.5q0 19 -6 27t-25 8q-23 0 -47 -25
t-43 -61.5t-28 -71.5l-56 54q12 34 37.5 74.5t61 70t77.5 29.5q68 0 97 -47t29 -108q0 -49 -17.5 -76t-49.5 -27z" />
    <glyph glyph-name="quotesingle" unicode="'" horiz-adv-x="346" 
d="M142 1174q-6 34 -15.5 79.5t-16 91t-6.5 78.5q0 56 21.5 78.5t48.5 22.5q26 0 47.5 -22.5t21.5 -78.5q0 -33 -7.5 -78.5t-17 -91t-16.5 -79.5h-60z" />
    <glyph glyph-name="parenleft" unicode="(" horiz-adv-x="418" 
d="M333 -431q-12 15 -54 90t-92 201t-86 295t-36 371q0 230 37 407t87 300.5t93 192t55 81.5l56 -63q-15 -17 -54.5 -82t-84 -179t-76.5 -278t-32 -379q0 -191 32.5 -347.5t77.5 -273t84 -185.5t51 -85z" />
    <glyph glyph-name="parenright" unicode=")" horiz-adv-x="418" 
d="M86 -431l-58 66q12 16 50.5 85t83.5 185.5t78 273t33 347.5q0 215 -32 379t-76.5 278t-84 179t-54.5 82l56 63q12 -13 54.5 -81.5t93 -192t87.5 -300.5t37 -407q0 -202 -36.5 -371t-86 -295t-91.5 -201t-54 -90z" />
    <glyph glyph-name="asterisk" unicode="*" horiz-adv-x="809" 
d="M388 882q-20 0 -34.5 13.5t-14.5 40.5q0 22 4 43t8 52t4 81q-30 -21 -54 -41.5t-43.5 -36t-38.5 -25.5q-10 -4 -18.5 -6t-15.5 -2q-20 0 -33 12t-13 31q0 13 7 26t24 23q18 11 39 16.5t49.5 15.5t69.5 33q-40 24 -68.5 35.5t-49.5 19t-41 18.5q-30 18 -30 47
q0 22 14.5 34t31.5 12q16 0 35 -11q28 -14 52 -40.5t83 -63.5q0 76 -8 109.5t-8 67.5q0 26 14.5 39t34.5 13t35.5 -13t15.5 -39q0 -23 -6 -44.5t-11.5 -52t-5.5 -80.5q64 38 90.5 64t52.5 40q19 10 34 10q20 0 33 -14.5t13 -33.5q0 -27 -32 -45q-19 -11 -41.5 -18t-52 -18.5
t-72.5 -35.5q41 -22 71 -32t53.5 -16.5t42.5 -16.5q17 -8 24 -20.5t7 -25.5q0 -20 -13 -33t-35 -13q-8 0 -17 1.5t-18 6.5q-19 12 -38 27.5t-43 35t-58 40.5q0 -51 5.5 -81t10.5 -51t5 -44q0 -27 -15 -40.5t-35 -13.5z" />
    <glyph glyph-name="plus" unicode="+" horiz-adv-x="827" 
d="M380 251v624h70v-624h-70zM103 528v70h622v-70h-622z" />
    <glyph glyph-name="comma" unicode="," horiz-adv-x="340" 
d="M132 -213l-52 64q22 12 47.5 35.5t44 50t18.5 44.5q0 10 -7 10q-5 0 -12 -5t-27 -5q-26 0 -49 14t-37 39.5t-14 59.5q0 50 34 81t89 31t93 -34.5t38 -94.5q0 -79 -26 -136t-64.5 -94.5t-75.5 -59.5z" />
    <glyph glyph-name="hyphen" unicode="-" horiz-adv-x="667" 
d="M103 528v70h462v-70h-462z" />
    <glyph glyph-name="period" unicode="." horiz-adv-x="344" 
d="M167 -27q-47 0 -80 34t-33 81q0 48 33 81.5t80 33.5t80.5 -33.5t33.5 -81.5q0 -47 -33.5 -81t-80.5 -34z" />
    <glyph glyph-name="slash" unicode="/" horiz-adv-x="626" 
d="M34 -104l497 1608h72l-495 -1608h-74z" />
    <glyph glyph-name="zero" unicode="0" horiz-adv-x="832" 
d="M416 -23q-82 0 -153 77t-113.5 236.5t-42.5 407.5q0 249 42.5 409t113 237.5t153.5 77.5t153 -77.5t113 -237.5t43 -409q0 -248 -43 -407.5t-113 -236.5t-153 -77zM416 49q28 0 51.5 51.5t41.5 141.5t28 207t10 249q0 133 -10 251t-28 208.5t-41.5 142.5t-51.5 52
t-52.5 -50.5t-42 -140t-27 -208t-9.5 -255.5q0 -135 9.5 -253t27.5 -207t42 -139t52 -50z" />
    <glyph glyph-name="one" unicode="1" horiz-adv-x="560" 
d="M81 0v70h107v1090q-7 -12 -26.5 -24t-41.5 -20.5t-39 -11.5v81q29 6 63 26t66 52.5t56.5 77t32.5 101.5h69v-1372h110v-70h-397z" />
    <glyph glyph-name="two" unicode="2" horiz-adv-x="730" 
d="M476 -11q-41 0 -73 13.5t-61 31t-59 31t-67 13.5q-43 0 -65 -26.5t-26 -51.5h-68q0 164 29.5 284.5t76.5 212t99.5 164.5t99.5 139.5t76.5 138t29.5 160.5t-19.5 144.5t-54.5 82t-82 26.5q-34 0 -61 -15t-42 -38t-15 -47q0 -20 9.5 -35t18.5 -33t9 -47q0 -47 -21.5 -67
t-53.5 -20q-34 0 -55.5 25.5t-21.5 84.5q0 71 31.5 130.5t92.5 95.5t148 36q50 0 101.5 -15t95 -51t70 -99t26.5 -159q0 -100 -24 -172.5t-64 -128t-89 -103t-100 -97t-97 -109.5t-80 -140.5t-48 -191.5q12 17 34.5 30.5t53 21.5t67.5 8q45 0 82.5 -14.5t68.5 -29t57 -14.5
q38 0 55.5 25.5t17.5 80.5h66v-37q0 -61 -16.5 -115.5t-53.5 -88.5t-98 -34z" />
    <glyph glyph-name="three" unicode="3" horiz-adv-x="737" 
d="M339 -24q-79 0 -136.5 36.5t-88.5 96.5t-31 131q0 59 27 87.5t60 28.5q32 0 50.5 -19t18.5 -62q0 -30 -11 -48t-22.5 -36t-11.5 -49q0 -35 32.5 -63.5t84.5 -28.5q43 0 77.5 25.5t55 92.5t20.5 194q0 112 -19 179t-48.5 100.5t-60 44t-54.5 10.5v74q24 0 56.5 8.5
t63 40.5t50.5 100t20 185q0 124 -41.5 184.5t-113.5 60.5q-53 0 -87 -26.5t-34 -61.5q0 -32 11 -51.5t22 -37.5t11 -47q0 -44 -18.5 -63t-50.5 -19q-33 0 -60 29t-27 88q0 71 32 130.5t92.5 95.5t142.5 36q83 0 150 -36.5t107 -108.5t40 -177q0 -95 -27 -163.5t-68.5 -113
t-86.5 -67t-80 -24.5q35 -3 81 -25.5t89.5 -67t71.5 -113t28 -163.5q0 -112 -37.5 -199.5t-108 -137.5t-171.5 -50z" />
    <glyph glyph-name="four" unicode="4" horiz-adv-x="678" 
d="M193 0v70h108v283h-256v70l239 815q44 40 73.5 90t54.5 104h69v-1009h17q34 0 45 42.5t11 111.5h65v-224h-138v-283h107v-70h-395zM118 417l-9 6h194v669l-13 -87z" />
    <glyph glyph-name="five" unicode="5" horiz-adv-x="795" 
d="M344 -24q-79 0 -133 36.5t-81 96.5t-27 131q0 59 24.5 87.5t57.5 28.5q32 0 53 -20.5t21 -68.5q0 -27 -12 -44.5t-24.5 -34t-12.5 -42.5q0 -23 9.5 -46t33 -37.5t65.5 -14.5q65 0 100.5 45t49.5 130.5t14 206.5t-11 195.5t-30.5 113.5t-44.5 52.5t-53 13.5
q-45 0 -75 -20.5t-48 -52.5t-29 -65l-72 11l65 722h67q7 -20 37.5 -39t72.5 -31t85 -12q71 0 109.5 25t39.5 57h59q0 -59 -24.5 -111t-70.5 -83.5t-111 -31.5q-50 0 -87 14.5t-61.5 34.5t-37.5 36.5t-16 21.5l-40 -484q7 18 28.5 38t58 34t86.5 14q51 0 102 -23t94 -74.5
t69 -137.5t26 -213q0 -140 -30.5 -230t-79.5 -139.5t-106 -69.5t-110 -20z" />
    <glyph glyph-name="six" unicode="6" horiz-adv-x="802" 
d="M408 -24q-88 0 -148 54t-96 150t-52 225t-16 279q0 133 21 264t63.5 238.5t108.5 171.5t155 64q62 0 111 -36t77.5 -95.5t28.5 -130.5q0 -66 -22.5 -91.5t-55.5 -25.5t-54.5 22t-21.5 69q0 32 6.5 49.5t13 34.5t6.5 47q0 24 -12 43.5t-33 31.5t-50 12q-42 0 -70 -33.5
t-45.5 -92t-26 -134t-11.5 -158.5t-3 -166q2 14 22 42t58 52t92 24q44 0 89.5 -25t84.5 -77.5t62.5 -136.5t23.5 -202q0 -111 -22.5 -198.5t-63.5 -147.5t-97 -91.5t-123 -31.5zM406 45q39 0 66 35.5t41 122t14 240.5q0 135 -12 212t-37.5 109t-66.5 32q-34 0 -61 -30
t-44.5 -80t-22.5 -113q0 -138 5.5 -238t19 -164.5t37.5 -95t61 -30.5z" />
    <glyph glyph-name="seven" unicode="7" horiz-adv-x="698" 
d="M325 -20q-31 0 -54.5 18.5t-37 62t-13.5 117.5q0 148 34.5 281t85.5 253t102.5 228.5t86 209t34.5 195.5q-7 -25 -26.5 -45t-51.5 -31t-76 -11q-46 0 -73 8t-47.5 16t-46.5 8q-25 0 -43.5 -9.5t-30 -36.5t-13.5 -80h-68v236h550q0 -24 -3.5 -55.5t-9.5 -68t-14.5 -78
t-19 -85.5t-23.5 -91q-13 -52 -28.5 -109.5t-31.5 -119.5q-31 -122 -56 -273.5t-25 -341.5q0 -74 -12.5 -117.5t-35 -62t-53.5 -18.5z" />
    <glyph glyph-name="eight" unicode="8" horiz-adv-x="802" 
d="M385 -20q-51 0 -105.5 18.5t-101 59.5t-76 109t-29.5 167q0 94 28.5 162t69 113t80.5 71t62 37l65 -46q-29 -21 -64.5 -59.5t-61 -103t-25.5 -164.5q0 -151 44.5 -222.5t116.5 -71.5q73 0 118 61t45 174q0 77 -26 134.5t-76.5 111t-124.5 118.5q-60 52 -109.5 120.5
t-79 150t-29.5 172.5q0 110 40.5 183.5t106.5 111t143 37.5q76 0 138.5 -33.5t100.5 -102.5t38 -176q0 -82 -25.5 -144t-63 -106t-74 -71.5t-58.5 -39.5l-43 39q23 14 56 57t58.5 112t25.5 161q0 68 -17 122t-50.5 84.5t-83.5 30.5q-47 0 -83.5 -27.5t-57 -76.5t-20.5 -114
q0 -67 33.5 -134t83.5 -123.5t97 -94.5q45 -34 91.5 -76.5t85.5 -94.5t63 -116.5t24 -144.5q0 -100 -29.5 -171t-78.5 -116t-107 -66.5t-115 -21.5z" />
    <glyph glyph-name="nine" unicode="9" horiz-adv-x="802" 
d="M401 1422q89 0 149 -53.5t96 -150t52 -225t16 -278.5q0 -134 -21 -265t-64 -238t-108.5 -171.5t-154.5 -64.5q-62 0 -111 36.5t-78 96t-29 129.5q0 67 23 92t56 25q32 0 54 -21.5t22 -68.5q0 -32 -6.5 -50t-13 -35t-6.5 -46q0 -24 11.5 -44t33 -32t50.5 -12q42 0 70 34
t45 92.5t26 133.5t12 158.5t3 166.5q-2 -14 -22.5 -42.5t-57.5 -52t-92 -23.5q-44 0 -89.5 24.5t-84.5 77.5t-62.5 137t-23.5 202q0 111 22.5 198t63.5 147.5t97 91.5t122 31zM404 1353q-39 0 -66 -35t-41.5 -121.5t-14.5 -240.5q0 -135 12 -212t38 -109t66 -32
q35 0 62 29.5t44.5 80t22.5 112.5q0 138 -6 238t-19.5 164.5t-37.5 95t-60 30.5z" />
    <glyph glyph-name="colon" unicode=":" horiz-adv-x="527" 
d="M238 842q-47 0 -80 34t-33 81q0 48 33 81.5t80 33.5t80.5 -33.5t33.5 -81.5q0 -47 -33.5 -81t-80.5 -34zM238 -29q-47 0 -80 34t-33 81q0 48 33 81.5t80 33.5t80.5 -33.5t33.5 -81.5q0 -47 -33.5 -81t-80.5 -34z" />
    <glyph glyph-name="semicolon" unicode=";" horiz-adv-x="527" 
d="M248 842q-47 0 -80 34t-33 81q0 48 33 81.5t80 33.5t80.5 -33.5t33.5 -81.5q0 -47 -33.5 -81t-80.5 -34zM207 -213l-52 64q22 12 47.5 35.5t44 50t18.5 44.5q0 10 -7 10q-5 0 -12 -5t-27 -5q-26 0 -49 14t-37 39.5t-14 59.5q0 50 34 81t89 31t93 -34.5t38 -94.5
q0 -79 -26 -136t-64.5 -94.5t-75.5 -59.5z" />
    <glyph glyph-name="less" unicode="&#x3c;" horiz-adv-x="784" 
d="M627 95l-467 407v73l467 401v-85l-415 -355l415 -355v-86z" />
    <glyph glyph-name="equal" unicode="=" horiz-adv-x="818" 
d="M98 728v70h622v-70h-622zM98 328v70h622v-70h-622z" />
    <glyph glyph-name="greater" unicode="&#x3e;" horiz-adv-x="784" 
d="M167 95v86l415 355l-415 355v85l467 -401v-73z" />
    <glyph glyph-name="question" unicode="?" horiz-adv-x="627" 
d="M226 293q0 125 19 219.5t47 170.5t56 142.5t47 134.5t19 148q0 127 -40 185.5t-117 58.5q-52 0 -77.5 -27.5t-25.5 -62.5q0 -26 10.5 -45l21 -38t10.5 -49q0 -47 -20.5 -67t-53.5 -20q-32 0 -56.5 30t-24.5 96q0 77 31.5 133.5t88.5 88t134 31.5q50 0 100.5 -14
t93.5 -48.5t69 -94.5t26 -151t-29 -162.5t-71.5 -138t-85 -139.5t-71.5 -164.5t-29 -216.5h-72zM262 -26q-46 0 -80 34t-34 81q0 48 34 81.5t80 33.5t80 -33.5t34 -81.5q0 -47 -34 -81t-80 -34z" />
    <glyph glyph-name="at" unicode="@" horiz-adv-x="937" 
d="M466 -22q-67 0 -137 35.5t-128.5 112.5t-94 201.5t-35.5 301.5q0 226 43 377.5t112.5 241.5t149.5 129t153 39q102 0 178.5 -58t118.5 -186.5t42 -339.5q0 -86 -15.5 -172.5t-45 -158.5t-72.5 -115.5t-98 -43.5q-38 0 -59 18t-29 43t-8 47q-14 -61 -53.5 -89t-87.5 -28
q-36 0 -74.5 23t-64.5 84t-26 176q0 94 16 176.5t47 144.5t74.5 97t98.5 35q37 0 60 -15t34.5 -35.5t13.5 -37.5l6 66h106l-44 -514q-1 -17 -1.5 -30.5t-0.5 -24.5q0 -21 5 -34t19 -13q30 0 57.5 54.5t46 145.5t18.5 203q0 247 -59.5 379t-194.5 132q-78 0 -148 -41.5
t-124.5 -129t-86 -223.5t-31.5 -324q0 -171 42.5 -301t115 -203t161.5 -73q94 0 147 40.5t96 101.5l58 -43q-27 -38 -69.5 -77.5t-100.5 -66.5t-131 -27zM444 420q21 0 38.5 18t30.5 46.5t21.5 62t10.5 64.5l21 246q0 27 -8.5 55.5t-25.5 48t-41 19.5q-34 0 -56.5 -36
t-36 -93.5t-19 -123t-5.5 -123.5q0 -80 17.5 -132t52.5 -52z" />
    <glyph glyph-name="A" unicode="A" horiz-adv-x="690" 
d="M5 0v70h80l185 1332h119l205 -1332h95v-70h-370v70h81l-121 936v0l-121 -936h73v-70h-226zM161 296v66h237v-66h-237z" />
    <glyph glyph-name="B" unicode="B" horiz-adv-x="790" 
d="M51 0v70h94v1260h-94v70h354q58 0 111 -17t94.5 -54.5t66 -98t24.5 -146.5q0 -85 -21 -147t-54.5 -103t-72.5 -63.5t-75 -28.5q37 -1 80.5 -20.5t83.5 -60.5t65.5 -107t25.5 -162q0 -131 -41.5 -218t-108 -130.5t-144.5 -43.5h-388zM323 70h77q36 0 69 34t54.5 105.5
t21.5 183.5q0 122 -25 190t-61 95.5t-72 27.5h-64v-636zM323 776h64q38 0 68 29.5t48 97t18 181.5q0 104 -21 156.5t-52.5 71t-63.5 18.5h-61v-554z" />
    <glyph glyph-name="C" unicode="C" horiz-adv-x="679" 
d="M406 -20q-150 0 -246 184t-96 534q0 132 22 260.5t65.5 233.5t109.5 167.5t154 62.5q60 0 105.5 -41t71 -102.5t25.5 -122.5q0 -53 -19 -82.5t-57 -29.5q-43 0 -62 25t-19 69q0 29 11 49.5t22 41.5t11 53q0 35 -16.5 51.5t-41.5 16.5q-40 0 -71 -41.5t-53.5 -111.5
t-37 -155.5t-21.5 -174.5t-7 -167q0 -115 8.5 -215t23.5 -180t37 -137t48.5 -87.5t58.5 -30.5q37 0 61.5 23t40 59t26.5 76l60 -32q-18 -53 -46.5 -97.5t-69.5 -71.5t-98 -27z" />
    <glyph glyph-name="D" unicode="D" horiz-adv-x="799" 
d="M51 0v70h93v1260h-93v70h335q96 0 177 -76t130 -229t49 -384q0 -233 -49.5 -391t-130.5 -239t-176 -81h-335zM325 70h42q50 0 95 68.5t73 210.5t28 362q0 197 -26 335t-66 211t-84 73h-62v-1260z" />
    <glyph glyph-name="E" unicode="E" horiz-adv-x="703" 
d="M51 0v70h94v1260h-94v70h574v-304h-70q0 81 -11.5 133t-38 76.5t-72.5 24.5h-107v-594h185v95h68v-258h-68v93h-185v-596h107q46 0 72.5 25.5t38 78t11.5 133.5h70v-307h-574z" />
    <glyph glyph-name="F" unicode="F" horiz-adv-x="705" 
d="M76 0v70h94v1260h-94v70h546v-304h-71q0 81 -7 133t-31 76.5t-74 24.5h-89v-579h176v95h70v-258h-70v93h-176v-611h94v-70h-368z" />
    <glyph glyph-name="G" unicode="G" horiz-adv-x="770" 
d="M411 -20q-95 0 -173 80t-124 239.5t-46 398.5q0 234 53 395t135.5 244t171.5 83q71 0 120.5 -37t75.5 -97t26 -130q0 -55 -20.5 -83.5t-59.5 -28.5q-40 0 -60 28.5t-20 70.5q0 28 11 47.5t21.5 39.5t10.5 49q0 28 -24.5 51.5t-62.5 23.5q-53 0 -90 -61.5t-60 -160.5
t-34 -213.5t-11 -220.5q0 -157 13.5 -277.5t36 -203t52 -124.5t62.5 -42q24 0 40.5 8.5t24.5 17.5v486h-84v70h337v-70h-87v-563h-66q-1 3 -9.5 9t-22.5 6q-15 0 -32 -8.5t-41.5 -17.5t-63.5 -9z" />
    <glyph glyph-name="H" unicode="H" horiz-adv-x="881" 
d="M51 0v70h93v1260h-93v70h345v-70h-73v-574h237v574h-72v70h342v-70h-95v-1260h95v-70h-342v70h72v616h-237v-616h73v-70h-345z" />
    <glyph glyph-name="I" unicode="I" horiz-adv-x="502" 
d="M66 0v70h95v1260h-95v70h371v-70h-97v-1260h97v-70h-371z" />
    <glyph glyph-name="J" unicode="J" horiz-adv-x="661" 
d="M252 -24q-73 0 -117.5 33.5t-65 93t-20.5 139.5q0 61 23.5 86.5t58.5 25.5t56.5 -23t21.5 -76q0 -34 -10.5 -54t-21.5 -38t-11 -46q0 -31 19 -49t46 -18q47 0 75.5 36.5t28.5 135.5v1108h-102v70h379v-70h-97v-933q0 -117 -17.5 -198t-51.5 -130t-82.5 -71t-111.5 -22z
" />
    <glyph glyph-name="K" unicode="K" horiz-adv-x="801" 
d="M37 0v70h93v1260h-93v70h370v-70h-99v-565l282 565h-87v70h243v-70h-75l-254 -515l11 67l258 -812h78v-70h-340v70h67l-208 654l25 -9v-645h77v-70h-348z" />
    <glyph glyph-name="L" unicode="L" horiz-adv-x="650" 
d="M59 0v70h90v1260h-90v70h361v-70h-92v-1260h87q34 0 56.5 26t34 78.5t11.5 132.5h70v-307h-528z" />
    <glyph glyph-name="M" unicode="M" horiz-adv-x="1011" 
d="M33 0v70h92v1260h-88v70h328l152 -937h-24l176 937h308v-70h-88v-1260h94v-70h-369v70h95v1253h24l-254 -1249h-79l-222 1274h17v-1278h86v-70h-248z" />
    <glyph glyph-name="N" unicode="N" horiz-adv-x="814" 
d="M31 0v70h93v1260h-93v70h309l291 -999h-9v929h-90v70h251v-70h-89v-1330h-134l-375 1280h11v-1210h97v-70h-262z" />
    <glyph glyph-name="O" unicode="O" horiz-adv-x="784" 
d="M393 -22q-101 0 -175 89t-114 250t-40 381q0 221 40 383.5t114 251.5t175 89q102 0 177 -89t116 -251.5t41 -383.5q0 -220 -41 -381t-116 -250t-177 -89zM393 48q37 0 64 45t44.5 130.5t26 205.5t8.5 269q0 150 -8.5 270.5t-26 206t-44.5 131.5t-64 46q-36 0 -62.5 -46
t-43 -131.5t-24.5 -206t-8 -270.5q0 -149 8 -269t24.5 -205.5t43 -130.5t62.5 -45z" />
    <glyph glyph-name="P" unicode="P" horiz-adv-x="778" 
d="M51 0v70h108v1260h-108v70h392q47 0 97 -19t94 -63t71.5 -118.5t27.5 -184.5q0 -113 -28 -198t-72 -142t-94.5 -85t-95.5 -28h-106v-492h107v-70h-393zM337 632h62q39 0 72.5 45t53.5 130.5t20 208.5q0 116 -18.5 185t-49.5 99t-70 30h-70v-698z" />
    <glyph glyph-name="Q" unicode="Q" horiz-adv-x="784" 
d="M643 -372q-38 0 -64 29t-26 79q0 42 16 73t32 61t16 68q0 27 -19 53t-56 26q-12 0 -28 -4.5t-26 -10.5l15 70q6 5 27.5 10t42.5 5q90 0 130 -83t40 -225q0 -75 -29 -113t-71 -38zM393 -22q-101 0 -175 89t-114 250t-40 381q0 221 40 383.5t114 251.5t175 89
q102 0 177 -89t116 -251.5t41 -383.5q0 -220 -41 -381t-116 -250t-177 -89zM393 48q37 0 64 45t44.5 130.5t26 205.5t8.5 269q0 150 -8.5 270.5t-26 206t-44.5 131.5t-64 46q-36 0 -62.5 -46t-43 -131.5t-24.5 -206t-8 -270.5q0 -149 8 -269t24.5 -205.5t43 -130.5t62.5 -45
z" />
    <glyph glyph-name="R" unicode="R" horiz-adv-x="858" 
d="M709 -16q-75 0 -110.5 38t-45.5 103.5t-10 148.5q0 51 2 101.5t2 89.5q0 91 -12.5 138t-46.5 65t-99 18h-52v-616h99v-70h-379v70h102v1260h-102v70h395q82 0 147.5 -33.5t103 -105t37.5 -186.5q0 -86 -22 -150.5t-58.5 -107.5t-81 -66t-89.5 -29q97 -3 148.5 -37.5
t71 -102.5t19.5 -173q0 -52 -2.5 -104t-2.5 -99q0 -30 2.5 -64.5t10 -58.5t21.5 -24q10 0 16.5 10.5t6.5 23.5h65q-4 -37 -22 -61.5t-47 -36t-67 -11.5zM337 756h69q53 0 86.5 42.5t50 114t16.5 158.5q0 82 -14 140t-45.5 88.5t-86.5 30.5h-76v-574z" />
    <glyph glyph-name="S" unicode="S" horiz-adv-x="640" 
d="M338 -27q-49 0 -79.5 12.5t-49.5 29.5t-32 29.5t-26 12.5q-24 0 -24 -57h-63v317h70q1 -26 10.5 -61t26 -71.5t40.5 -68t56 -51t71 -19.5q46 0 71.5 22.5t35.5 63.5t10 97q0 66 -26.5 132t-71.5 134.5t-102 141.5q-76 100 -117 182t-56.5 153.5t-15.5 139.5
q0 99 33 168.5t88 105.5t119 36q57 0 85.5 -18t44 -36.5t30.5 -18.5q13 0 19 11t7 40h63v-315h-70q-2 36 -13.5 81.5t-32.5 87.5t-53.5 69t-75.5 27q-56 0 -86.5 -41t-30.5 -116q0 -54 18.5 -110.5t59.5 -123t107 -151.5q64 -78 111 -157.5t72.5 -162.5t25.5 -173
q0 -93 -19.5 -158t-53.5 -105.5t-79 -59.5t-97 -19z" />
    <glyph glyph-name="T" unicode="T" horiz-adv-x="757" 
d="M175 0v70h115v1260h-59q-55 0 -81 -21.5t-34 -72.5t-8 -140h-70v304h681v-304h-70q0 89 -7.5 140t-33.5 72.5t-81 21.5h-58v-1260h118v-70h-412z" />
    <glyph glyph-name="U" unicode="U" horiz-adv-x="777" 
d="M406 -24q-47 0 -95 15t-88 52t-64.5 104t-24.5 172v1011h-97v70h382v-70h-102v-1012q0 -142 34 -201t96 -59q26 0 49.5 11.5t41.5 38.5t28 74t10 118v1030h-86v70h251v-70h-94v-1040q0 -119 -31 -188t-85 -97.5t-125 -28.5z" />
    <glyph glyph-name="V" unicode="V" horiz-adv-x="703" 
d="M304 -2l-206 1332h-84v70h357v-70h-80l126 -924h-14l126 924h-83v70h250v-70h-89l-201 -1332h-102z" />
    <glyph glyph-name="W" unicode="W" horiz-adv-x="1112" 
d="M311 -2l-193 1332h-103v70h387v-70h-76l105 -926l-25 -51l140 942l21 -156l-38 191h-87v70h372v-70h-86l119 -914l-18 -51l121 965h-81v70h243v-70h-85l-190 -1332h-94l-173 1125l33 56l-198 -1181h-94z" />
    <glyph glyph-name="X" unicode="X" horiz-adv-x="790" 
d="M374 0v70h103l-350 1260h-88v70h384v-70h-99l351 -1260h88v-70h-389zM18 0v70h90l211 618l71 -30l-205 -588h90v-70h-257zM455 735l-66 35l193 560h-85v70h248v-70h-86z" />
    <glyph glyph-name="Y" unicode="Y" horiz-adv-x="767" 
d="M197 0v70h102v518l-182 742h-94v70h374v-70h-76l154 -687h-58l169 687h-80v70h249v-70h-94l-182 -715v-545h99v-70h-381z" />
    <glyph glyph-name="Z" unicode="Z" horiz-adv-x="680" 
d="M59 0v70l341 1260h-79q-77 0 -114 -24.5t-48.5 -76.5t-11.5 -133h-70v304h521v-69l-345 -1261h107q70 0 111.5 25.5t60 78t18.5 133.5h70v-307h-561z" />
    <glyph glyph-name="bracketleft" unicode="[" horiz-adv-x="293" 
d="M38 -440v1940h217v-70h-147v-1800h147v-70h-217z" />
    <glyph glyph-name="backslash" unicode="\" horiz-adv-x="647" 
d="M614 -104h-74l-495 1608h72z" />
    <glyph glyph-name="bracketright" unicode="]" horiz-adv-x="373" 
d="M335 -440h-216v70h146v1800h-146v70h216v-1940z" />
    <glyph glyph-name="asciicircum" unicode="^" horiz-adv-x="853" 
d="M118 949l267 451h85l266 -451h-81l-227 386l-229 -386h-81z" />
    <glyph glyph-name="underscore" unicode="_" horiz-adv-x="957" 
d="M20 -217v70h920v-70h-920z" />
    <glyph glyph-name="grave" unicode="`" horiz-adv-x="596" 
d="M367 1264l-202 96q-27 13 -41 26t-14 38q0 22 15.5 35t39.5 13q20 0 33.5 -7.5t27.5 -19.5l174 -141z" />
    <glyph glyph-name="a" unicode="a" horiz-adv-x="728" 
d="M274 -21q-63 0 -113 31t-79 90t-29 143q0 94 37.5 155.5t93.5 104t111.5 77t93.5 71.5t38 90q0 75 -12 128.5t-38 82t-69 28.5q-49 0 -80.5 -30.5t-31.5 -69.5q0 -24 8 -39t16 -31.5t8 -44.5q0 -39 -20.5 -63t-55.5 -24t-55.5 30.5t-20.5 83.5q0 76 33.5 136.5t93 95
t138.5 34.5t138.5 -34.5t93.5 -109.5t34 -198v-569q0 -46 8.5 -61.5t26.5 -15.5q17 0 28.5 8t17.5 15l38 -57q-15 -18 -53 -34t-88 -16t-79.5 15t-44 38t-18.5 46q-5 -15 -23 -40.5t-53 -45.5t-93 -20zM327 76q32 0 54.5 26t34 63.5t11.5 70.5v370q-3 -28 -32 -54.5
t-65.5 -61t-64 -89t-27.5 -139.5q0 -92 23.5 -139t65.5 -47z" />
    <glyph glyph-name="b" unicode="b" horiz-adv-x="759" 
d="M433 -20q-48 0 -78 25t-45 58t-18 58l-15 -121h-260v70h105v1360h-105v70h288v-556q4 15 18.5 42t45 49t78.5 22q68 0 123.5 -54.5t88.5 -173t33 -311.5q0 -200 -35.5 -318t-94 -169t-129.5 -51zM400 91q30 0 50.5 27t34 80.5t19.5 132.5t6 183q0 98 -5.5 176t-18 133
t-33 84t-49.5 29q-28 0 -49 -27.5t-33.5 -71t-16.5 -89.5v-391q2 -64 14.5 -125t33.5 -101t47 -40z" />
    <glyph glyph-name="c" unicode="c" horiz-adv-x="637" 
d="M365 -21q-70 0 -127.5 42.5t-99 118t-64 176t-22.5 215.5q0 137 30 236.5t78 163.5t103.5 95.5t106.5 31.5q70 0 119 -39.5t74.5 -102t25.5 -131.5q0 -51 -20.5 -79t-54.5 -28q-35 0 -56 24.5t-21 64.5q0 26 9 41t18 31t9 43q0 50 -27.5 77t-65.5 27q-41 0 -67.5 -41
t-42.5 -107t-22.5 -145t-6.5 -155q0 -82 6.5 -166.5t23.5 -156t47 -115.5t76 -44q55 0 85 30.5t45 73.5l54 -45q-20 -47 -72 -91.5t-141 -44.5z" />
    <glyph glyph-name="d" unicode="d" horiz-adv-x="766" 
d="M327 -20q-70 0 -129 51t-94.5 169t-35.5 318q0 193 34.5 311.5t91 173t121.5 54.5q52 0 82 -19t44 -43.5t17 -41.5v476h-116v71h300v-1430h113v-70h-269l-16 122q-2 -27 -19 -60.5t-47.5 -57.5t-76.5 -24zM360 91q29 0 50 38t33.5 95.5t14.5 115.5v408q-3 51 -17 94.5
t-35 70t-48 26.5q-28 0 -48.5 -31t-33.5 -87.5t-19.5 -134.5t-6.5 -172q0 -102 7 -181t20 -133t34 -81.5t49 -27.5z" />
    <glyph glyph-name="e" unicode="e" horiz-adv-x="676" 
d="M353 -21q-75 0 -131 41t-93.5 114.5t-56.5 173.5t-19 218q0 137 25.5 237.5t68.5 166t95.5 97t107.5 31.5q65 0 115 -36.5t84 -99.5t51.5 -144.5t17.5 -172.5v-41.5t-2 -41.5h-394v70h222q0 133 -9 220.5t-29.5 131t-55.5 43.5q-33 0 -59 -43.5t-41 -138.5t-15 -249
q0 -114 6.5 -206.5t22 -158t42 -100t67.5 -34.5q65 0 102 36t51 71l60 -38q-20 -56 -84 -101.5t-149 -45.5z" />
    <glyph glyph-name="f" unicode="f" horiz-adv-x="556" 
d="M43 0v70h110v907h-126v70h126v128q0 104 29 179.5t86.5 116t141.5 40.5q90 0 138 -71t48 -183q0 -53 -20 -82t-59 -29q-41 0 -58.5 27t-17.5 64q0 32 12 50.5t23.5 33.5t11.5 37q0 35 -18.5 58.5t-45.5 23.5t-44.5 -20t-28 -56t-14.5 -85.5t-4 -108.5v-123h134v-70h-134
v-907h114v-70h-404z" />
    <glyph glyph-name="g" unicode="g" horiz-adv-x="750" 
d="M370 -498q-88 0 -160.5 33t-115.5 93t-43 140q0 65 21 109t50 71t55 41t36 18q-8 2 -28.5 10.5t-43.5 27.5t-39.5 50t-16.5 76q0 38 14 65.5t35 43.5t40 20q4 1 10.5 2t8.5 1q-9 7 -26.5 30t-35.5 63t-31 99.5t-13 140.5q0 119 26.5 199.5t69 130t92.5 71t97 21.5
q90 0 151.5 -51t93.5 -142.5t32 -213.5q0 -121 -25.5 -202t-67 -129t-91 -68.5t-97.5 -20.5q-51 0 -80.5 11.5t-36.5 14.5q-1 0 -2 0.5t-3 0.5q-17 0 -34 -18t-17 -48q0 -43 43.5 -69.5t162.5 -46.5q145 -22 220 -89.5t75 -198.5q0 -79 -30.5 -133.5t-79.5 -88t-105.5 -49
t-110.5 -15.5zM370 -431q72 0 116 53t44 127q0 85 -24 126t-89 64q-20 9 -42 17.5t-41 15t-30 9.5q-27 -14 -49.5 -43.5t-36 -70.5t-13.5 -93q0 -56 19 -102.5t55.5 -74.5t90.5 -28zM368 303q27 0 49.5 25t36.5 99t14 220q0 142 -13.5 214.5t-36 98.5t-48.5 26t-49 -26
t-37.5 -100t-14.5 -218q0 -145 14.5 -217.5t37.5 -97t47 -24.5zM471 987q10 64 59.5 101.5t103.5 37.5q47 0 66 -22t19 -56q0 -32 -17.5 -50.5t-46.5 -18.5q-26 0 -37 12t-19.5 24t-27.5 12q-13 0 -23.5 -10t-10.5 -32z" />
    <glyph glyph-name="h" unicode="h" horiz-adv-x="829" 
d="M33 0v70h103v1360h-103v70h283v-556q2 11 23.5 39t61.5 52t94 24q55 0 102 -28t76 -98.5t29 -199.5v-663h104v-70h-360v70h76v646q0 125 -21 174.5t-66 49.5q-30 0 -56.5 -26t-43.5 -70.5t-19 -99.5v-674h79v-70h-362z" />
    <glyph glyph-name="i" unicode="i" horiz-adv-x="451" 
d="M33 0v70h105v907h-105v70h285v-977h107v-70h-392zM227 1217q-53 0 -89.5 36.5t-36.5 89.5q0 52 36.5 88.5t89.5 36.5q51 0 87.5 -36.5t36.5 -88.5q0 -53 -36.5 -89.5t-87.5 -36.5z" />
    <glyph glyph-name="j" unicode="j" horiz-adv-x="458" 
d="M88 -498q-57 0 -98 32t-63.5 87t-22.5 125q0 53 23.5 81.5t59.5 28.5q34 0 52 -24.5t18 -66.5q0 -29 -7 -49t-14 -38t-7 -41q0 -22 6 -36t17.5 -20.5t26.5 -6.5q51 0 72.5 58.5t21.5 172.5v1172h-114v70h294v-1118q0 -122 -23 -204.5t-61.5 -131.5t-85.5 -70t-95 -21z
M259 1217q-53 0 -90.5 36.5t-37.5 89.5q0 52 37.5 88.5t90.5 36.5q51 0 87 -36.5t36 -88.5q0 -53 -36 -89.5t-87 -36.5z" />
    <glyph glyph-name="k" unicode="k" horiz-adv-x="793" 
d="M33 0v70h103v1360h-103v70h283v-824l202 301h-92v70h275v-70h-100l-131 -214l237 -693h87v-70h-367v70h84l-179 523l-16 -40v-483h76v-70h-359z" />
    <glyph glyph-name="l" unicode="l" horiz-adv-x="455" 
d="M38 0v70h100v1360h-100v70h279v-1430h101v-70h-380z" />
    <glyph glyph-name="m" unicode="m" horiz-adv-x="1137" 
d="M32 0v70h98v907h-98v70h273v-111q2 16 22 45.5t58.5 52.5t95.5 23q58 0 93 -28t52 -61.5t20 -49.5q6 27 32.5 59.5t69.5 56t99 23.5q90 0 137.5 -74t47.5 -186v-727h94v-70h-351v70h77v624q0 83 -4.5 139t-20.5 85t-51 29q-38 0 -61 -30t-34.5 -79t-13.5 -107v-661h79
v-70h-332v70h75v624q0 124 -11 188.5t-65 64.5q-37 0 -59.5 -30.5t-32.5 -82t-11 -113.5v-651h75v-70h-353z" />
    <glyph glyph-name="n" unicode="n" horiz-adv-x="817" 
d="M33 0v70h105v907h-105v70h280v-105q5 20 27 47.5t60 48t89 20.5q52 0 98 -24.5t75 -92t29 -198.5v-673h103v-70h-364v70h81v661q0 115 -20 166.5t-65 51.5q-23 0 -42.5 -16.5t-34 -45t-22.5 -64.5t-9 -75v-678h79v-70h-364z" />
    <glyph glyph-name="o" unicode="o" horiz-adv-x="705" 
d="M350 -22q-57 0 -110.5 35.5t-95.5 105t-66.5 172t-24.5 236.5q0 147 26 248.5t68.5 164t95.5 90.5t107 28q53 0 106 -28t96 -90.5t69.5 -164t26.5 -248.5q0 -134 -25 -236.5t-67 -172t-95.5 -105t-110.5 -35.5zM350 55q51 0 82.5 113t31.5 359q0 244 -31.5 350t-82.5 106
t-82.5 -106t-31.5 -350q0 -246 31.5 -359t82.5 -113z" />
    <glyph glyph-name="p" unicode="p" horiz-adv-x="743" 
d="M24 -500v70h102v1407h-102v70h282v-99q4 14 22 40t51 47.5t79 21.5q62 0 114.5 -54.5t84.5 -173t32 -311.5q0 -200 -34.5 -318t-91.5 -169t-124 -51q-41 0 -69 19t-43 42.5t-18 37.5v-509h103v-70h-388zM403 77q26 0 45.5 30.5t32.5 88t19.5 138.5t6.5 181
q0 102 -6.5 182.5t-19 137.5t-31.5 87t-44 30q-32 0 -51.5 -30.5t-29.5 -76.5t-16 -92v-447q2 -58 12 -110.5t29.5 -85.5t52.5 -33z" />
    <glyph glyph-name="q" unicode="q" horiz-adv-x="775" 
d="M365 -500v70h107v509q-2 -15 -17 -38.5t-42.5 -42t-68.5 -18.5q-67 0 -124.5 51t-92.5 169t-35 318q0 193 34.5 311.5t89 173t116.5 54.5q51 0 83.5 -21.5t49 -48.5t20.5 -44l13 104h157v-1477h105v-70h-395zM378 77q33 0 53 33.5t30 86t11 109.5v442q-3 50 -14 96.5
t-31.5 77t-51.5 30.5q-25 0 -44 -31t-32 -88.5t-19 -138t-6 -180.5t6 -180.5t19.5 -138t33 -88t45.5 -30.5z" />
    <glyph glyph-name="r" unicode="r" horiz-adv-x="636" 
d="M26 0v70h104v907h-104v70h269l10 -95q3 13 22 38.5t51 46.5t75 21q53 0 86.5 -35.5t49.5 -95.5t16 -134q0 -56 -20.5 -85.5t-56.5 -29.5q-33 0 -53 24.5t-20 69.5q0 28 10 45t20 34.5t10 47.5q0 42 -15 60.5t-43 18.5q-34 0 -63 -31t-46.5 -85t-17.5 -122v-670h105v-70
h-389z" />
    <glyph glyph-name="s" unicode="s" horiz-adv-x="567" 
d="M292 -22q-55 0 -83.5 14t-43 27.5t-28.5 13.5q-13 0 -18 -8.5t-5 -24.5h-61v307h73q5 -58 17.5 -106t32.5 -82t48 -52.5t65 -18.5q35 0 56.5 18t31.5 46t10 60q0 48 -16.5 92.5t-49.5 91.5t-84 101q-73 77 -125 159t-52 201q0 83 31.5 136t81.5 79t105 26q42 0 67 -10.5
t40 -21t26 -10.5q8 0 12.5 7t5.5 24h63v-298h-72q-4 53 -14 97t-27 75.5t-41 48.5t-56 17q-48 0 -73 -36t-25 -88q0 -63 37.5 -117.5t107.5 -126.5q54 -58 96 -115.5t66 -121.5t24 -141q0 -85 -27.5 -143.5t-77.5 -89t-118 -30.5z" />
    <glyph glyph-name="t" unicode="t" horiz-adv-x="495" 
d="M329 -18q-49 0 -94 16.5t-73 61.5t-28 131v786h-132v70h132q29 20 51.5 66.5t37 105.5t18.5 119h73v-291h154v-70h-154v-850q0 -42 18 -56t35 -14q20 0 34.5 7.5t21.5 16.5l41 -55q-22 -19 -56 -31.5t-79 -12.5z" />
    <glyph glyph-name="u" unicode="u" horiz-adv-x="790" 
d="M336 -22q-58 0 -107 24t-78.5 89.5t-29.5 192.5v693h-103v69h283v-743q0 -93 10.5 -141.5t29.5 -66t46 -17.5q34 0 59.5 35t39 96t13.5 138v630h-95v69h275v-976h90v-70h-248l-10 113q-4 -26 -26 -57.5t-59.5 -54.5t-89.5 -23z" />
    <glyph glyph-name="v" unicode="v" horiz-adv-x="652" 
d="M286 -3l-185 980h-83v70h344v-70h-70l98 -633l100 633h-67v70h223v-70h-78l-178 -980h-104z" />
    <glyph glyph-name="w" unicode="w" horiz-adv-x="1046" 
d="M672 -3l-169 980h-81v70h339v-70h-71l90 -645l96 645h-65v70h221v-70h-77l-164 -980h-119zM259 -3l-163 980h-79v70h344v-70h-72l80 -645l100 645h-42v70h202v-70h-82l-169 -980h-119z" />
    <glyph glyph-name="x" unicode="x" horiz-adv-x="690" 
d="M17 0v70h92l171 476l67 9l149 422h-71v70h235v-70h-83l-174 -460l-62 -12l-150 -435h69v-70h-243zM336 0v70h72l-293 907h-84v70h258h88v-70h-70l294 -907h82v-70h-260h-87z" />
    <glyph glyph-name="y" unicode="y" horiz-adv-x="675" 
d="M199 -502q-45 0 -74 32.5t-43.5 88t-14.5 125.5q0 53 20.5 81.5t54.5 28.5q35 0 54 -25t19 -67q0 -33 -11.5 -54t-23 -39t-11.5 -46q0 -25 9 -46t28 -21q11 0 18.5 10t14 30.5t12.5 52.5l74 355l-225 973h-83v70h351v-70h-76l120 -572l110 572h-74v70h228v-70h-76
l-205 -984l-78 -361q-8 -43 -23 -73t-37.5 -45.5t-57.5 -15.5z" />
    <glyph glyph-name="z" unicode="z" horiz-adv-x="604" 
d="M76 0v70l267 907h-96q-47 0 -68 -17.5t-25.5 -67t-4.5 -143.5h-68v298h446v-70l-267 -907h91q52 0 73.5 19t26.5 70.5t5 147.5h70v-307h-450z" />
    <glyph glyph-name="braceleft" unicode="{" horiz-adv-x="418" 
d="M345 -320q-24 0 -58.5 10.5t-68 45t-56 105.5t-22.5 192q0 81 12 145.5t23.5 122.5t11.5 119q0 65 -14.5 101.5t-59.5 36.5v68q45 0 59.5 36t14.5 103q0 61 -11.5 118.5t-23.5 122t-12 143.5q0 121 22.5 192t56 105.5t68 45t58.5 10.5v-70q-12 0 -34 -8t-44.5 -36
t-37.5 -86t-15 -158q0 -77 12.5 -139.5t24.5 -120t12 -119.5q0 -96 -26 -130t-53 -42q27 -11 53 -44.5t26 -128.5q0 -62 -12 -120t-24.5 -121t-12.5 -141q0 -99 15 -157t37.5 -86t44.5 -36.5t34 -8.5v-70z" />
    <glyph glyph-name="bar" unicode="|" horiz-adv-x="206" 
d="M68 -329v1829h70v-1829h-70z" />
    <glyph glyph-name="braceright" unicode="}" horiz-adv-x="418" 
d="M74 -320v70q12 0 33.5 8.5t44 36.5t38 86t15.5 157q0 78 -12 141t-24.5 121t-12.5 120q0 95 26 128.5t53 44.5q-27 8 -53 42t-26 130q0 62 12.5 119.5t24.5 120t12 139.5q0 100 -15.5 158t-38 86t-44 36t-33.5 8v70q24 0 58.5 -10.5t68 -45t56 -105.5t22.5 -192
q0 -79 -12 -143.5t-23.5 -122t-11.5 -118.5q0 -67 14 -103t59 -36v-68q-45 0 -59 -36.5t-14 -101.5q0 -61 11.5 -119t23.5 -122.5t12 -145.5q0 -121 -22.5 -192t-56 -105.5t-68 -45t-58.5 -10.5z" />
    <glyph glyph-name="asciitilde" unicode="~" horiz-adv-x="742" 
d="M506 1270q-64 0 -108.5 22t-82.5 44t-84 22q-47 0 -80 -25.5t-41 -41.5l-60 46q10 17 31.5 41t59 42.5t93.5 18.5q65 0 109 -22t81.5 -44.5t82.5 -22.5q32 0 59 14.5t45 32.5t23 29l58 -49q-9 -19 -32.5 -44t-61.5 -44t-92 -19z" />
    <glyph glyph-name="uni00A0" unicode="&#xa0;" horiz-adv-x="324" 
 />
    <glyph glyph-name="exclamdown" unicode="&#xa1;" horiz-adv-x="321" 
d="M187 790q0 -129 9.5 -253.5t22 -241t22 -222t9.5 -197.5q0 -78 -22.5 -127.5t-70.5 -49.5q-47 0 -70 49.5t-23 127.5q0 92 9.5 197.5t22 222t22 241t9.5 253.5h60zM160 1141q47 0 80.5 -34t33.5 -81q0 -48 -33.5 -81.5t-80.5 -33.5t-80 33.5t-33 81.5q0 47 33 81t80 34z
" />
    <glyph glyph-name="cent" unicode="&#xa2;" horiz-adv-x="621" 
d="M239 -116l114 1225h53l-114 -1225h-53zM365 -21q-70 0 -127.5 42.5t-99 118t-64 176t-22.5 215.5q0 137 30 236.5t78 163.5t103.5 95.5t106.5 31.5q70 0 119 -39.5t74.5 -102t25.5 -131.5q0 -51 -20.5 -79t-54.5 -28q-35 0 -56 24.5t-21 64.5q0 26 9 41t18 31t9 43
q0 50 -27.5 77t-65.5 27q-41 0 -67.5 -41t-42.5 -107t-22.5 -145t-6.5 -155q0 -82 6.5 -166.5t23.5 -156t47 -115.5t76 -44q55 0 85 30.5t45 73.5l54 -45q-20 -47 -72 -91.5t-141 -44.5z" />
    <glyph glyph-name="sterling" unicode="&#xa3;" horiz-adv-x="622" 
d="M15 717v70h465v-70h-465zM119 -24q-41 0 -67.5 26.5t-26.5 75.5q0 54 27.5 92.5t71.5 61t92 27.5q3 16 6.5 52.5t3.5 87.5q0 64 -21.5 144t-50.5 167t-51 172.5t-22 159.5q0 131 36.5 215t97 124.5t133.5 40.5q101 0 154 -72t53 -177q0 -53 -20 -83.5t-56 -30.5
q-34 0 -55.5 28.5t-21.5 71.5q0 29 10.5 48.5t21 36t10.5 36.5q0 39 -23.5 53.5t-54.5 14.5q-45 0 -71.5 -38.5t-38 -101.5t-11.5 -138q0 -81 19 -180t38 -205t19 -210q0 -50 -5.5 -96t-12.5 -78.5t-10 -44.5q36 -8 61.5 -30.5t44.5 -49t37 -45.5t39 -19q29 0 41 19.5
t13 38.5h61q0 -60 -16 -101t-46 -62.5t-70 -21.5q-37 0 -64.5 24t-48.5 55.5t-39 57.5t-39 30q-19 -90 -57 -133t-91 -43zM122 45q22 0 44 29.5t33 85.5q-38 0 -70 -26.5t-32 -61.5q0 -13 7 -20t18 -7z" />
    <glyph glyph-name="currency" unicode="&#xa4;" horiz-adv-x="867" 
d="M432 51q-49 0 -104 23.5t-102 77.5t-77 146t-30 229q0 139 30.5 228t78.5 138t102 68t102 19t102.5 -19t102.5 -68t78.5 -138t30.5 -228q0 -137 -30 -229t-77.5 -146t-102.5 -77.5t-104 -23.5zM432 115q28 0 56.5 17.5t52.5 62.5t38.5 125.5t14.5 206.5q0 123 -14.5 200
t-38.5 118t-52.5 56t-56.5 15t-57 -15t-53 -56t-38.5 -118t-14.5 -200q0 -126 14.5 -206.5t38.5 -125.5t53 -62.5t57 -17.5zM764 996l51 -50l-163 -158l-46 46zM773 45l-158 162l46 47l163 -158zM101 996l157 -162l-45 -46l-163 158zM92 45l-51 51l163 158l45 -47z" />
    <glyph glyph-name="yen" unicode="&#xa5;" horiz-adv-x="721" 
d="M151 554v70h468v-70h-468zM151 325v70h468v-70h-468zM197 0v70h102v518l-182 742h-94v70h374v-70h-76l154 -687h-58l169 687h-80v70h249v-70h-94l-182 -715v-545h99v-70h-381z" />
    <glyph glyph-name="brokenbar" unicode="&#xa6;" horiz-adv-x="206" 
d="M68 871v629h70v-629h-70zM68 -329v620h70v-620h-70z" />
    <glyph glyph-name="section" unicode="&#xa7;" horiz-adv-x="579" 
d="M263 -378q-54 0 -100 25.5t-74 72.5t-28 111q0 52 23 82t61 30q34 0 52 -20.5t18 -54.5q0 -29 -10.5 -44t-20.5 -27.5t-10 -33.5q0 -37 29 -54t55 -17q40 0 68 21t42.5 63.5t14.5 105.5q0 68 -34 123.5t-85 110.5t-102 117.5t-85 144t-34 191.5q0 61 18.5 109t45.5 84.5
t53 59.5t40 32q-35 44 -64 93.5t-45.5 106.5t-16.5 123q0 80 29.5 134t76 81.5t98.5 27.5q83 0 133.5 -56t50.5 -153q0 -50 -18 -80.5t-56 -30.5q-34 0 -52 20.5t-18 54.5q0 27 10.5 41.5t20.5 27.5t10 35q0 26 -11 41.5t-29 22.5t-40 7q-45 0 -72 -32t-27 -99
q0 -96 35 -161t86.5 -116t103 -105t86.5 -128.5t35 -187.5q0 -82 -29.5 -140.5t-68 -94t-65.5 -50.5q34 -39 65.5 -85t51 -103.5t19.5 -132.5q0 -92 -34.5 -157.5t-89 -100.5t-112.5 -35zM314 291q36 18 64 68t28 109q0 65 -18.5 119.5t-54.5 106.5t-89 110q-35 -26 -63 -75
t-28 -104q0 -53 13 -97.5t36 -84.5t52 -77t60 -75z" />
    <glyph glyph-name="dieresis" unicode="&#xa8;" horiz-adv-x="793" 
d="M518 1241q-33 0 -57 24t-24 55q0 34 24 59t57 25q31 0 55 -25t24 -59q0 -31 -24 -55t-55 -24zM282 1241q-31 0 -55 24t-24 55q0 34 24 59t55 25q33 0 57 -25t24 -59q0 -31 -24 -55t-57 -24z" />
    <glyph glyph-name="copyright" unicode="&#xa9;" horiz-adv-x="1187" 
d="M596 -22q-106 0 -199 54.5t-163.5 152.5t-110.5 228.5t-40 282.5t40 282t110.5 228t163.5 152.5t199 54.5q105 0 197 -54.5t162.5 -152.5t110 -228t39.5 -282t-39.5 -282.5t-110 -228.5t-162.5 -152.5t-197 -54.5zM591 236q-73 0 -124 63t-78 170t-27 237q0 125 30 230.5
t86 169t131 63.5q76 0 116 -60.5t40 -142.5q0 -41 -14.5 -65t-42.5 -24q-30 0 -43 18t-13 45q0 23 8 34.5t16 22t8 27.5q0 36 -18.5 55.5t-52.5 19.5q-38 0 -62 -36.5t-37.5 -95t-19 -126t-5.5 -129.5q0 -66 5.5 -136.5t18.5 -131t36 -98t59 -37.5q43 0 74.5 36.5t45.5 68.5
l46 -60q-27 -57 -74.5 -87.5t-108.5 -30.5zM596 50q92 0 171 50t138 138.5t92 206t33 251.5t-33 251t-92 205.5t-138 138.5t-171 50q-94 0 -173.5 -50t-138 -138.5t-91.5 -205.5t-33 -251t33 -251.5t91.5 -206t138 -138.5t173.5 -50z" />
    <glyph glyph-name="ordfeminine" unicode="&#xaa;" horiz-adv-x="517" 
d="M215 1133q-51 0 -82.5 23.5t-31.5 72.5q0 43 31 67t70.5 38.5t70.5 27t31 32.5q0 38 -6 49.5t-40 11.5q-23 0 -36 -5.5t-13 -13.5q0 -7 1 -15t1 -17q0 -17 -12.5 -30t-36.5 -13q-21 0 -32.5 15t-11.5 36q0 41 42.5 70t104.5 29q64 0 102.5 -28t38.5 -97v-162
q0 -30 24 -30q15 0 21 10l21 -45q-6 -8 -27.5 -15.5t-53.5 -7.5q-33 0 -54 11.5t-29 36.5q-3 -11 -25 -31t-68 -20zM252 1201q18 0 35 13t17 32v76q-3 -6 -17.5 -12.5t-32 -15t-30 -21.5t-12.5 -33q0 -22 9 -30.5t31 -8.5z" />
    <glyph glyph-name="guillemotleft" unicode="&#xab;" horiz-adv-x="742" 
d="M539 304l-223 232l223 233h77l-223 -233l226 -232h-80zM348 304l-223 232l223 233h77l-223 -233l226 -232h-80z" />
    <glyph glyph-name="logicalnot" unicode="&#xac;" horiz-adv-x="670" 
d="M476 328v234l32 -32h-419v66h453v-268h-66z" />
    <glyph glyph-name="uni00AD" unicode="&#xad;" horiz-adv-x="535" 
d="M103 528v70h330v-70h-330z" />
    <glyph glyph-name="registered" unicode="&#xae;" horiz-adv-x="900" 
d="M462 377q-112 0 -197.5 66t-134.5 183.5t-49 269.5q0 151 49 267.5t134.5 183t197.5 66.5q111 0 196 -66t133 -183t48 -268q0 -152 -48 -269.5t-133 -183.5t-196 -66zM462 432q98 0 170 60t111.5 165t39.5 239q0 133 -39.5 237.5t-111.5 164.5t-170 60q-99 0 -171.5 -60
t-111.5 -164.5t-39 -237.5q0 -134 39 -239t111.5 -165t171.5 -60zM597 563q-33 0 -59.5 17.5t-26.5 71.5q0 45 2 87t2 74t-17.5 54t-58.5 22h-21v-268h48v-51h-190v51h56v567h-56v50h189q56 0 103 -37.5t47 -113.5q0 -70 -27.5 -118t-85.5 -54q54 -1 79.5 -29t25.5 -80
q0 -48 -2 -90.5t-2 -74.5q0 -13 5.5 -20.5t11.5 -7.5q16 0 16 19h43q-2 -34 -24 -51.5t-58 -17.5zM418 938h23q28 0 46 20t26.5 53.5t8.5 73.5q0 36 -6 58.5t-21.5 33t-44.5 10.5h-32v-249z" />
    <glyph glyph-name="macron" unicode="&#xaf;" horiz-adv-x="926" 
d="M230 1356v70h604v-70h-604z" />
    <glyph glyph-name="degree" unicode="&#xb0;" horiz-adv-x="584" 
d="M292 1160q-42 0 -81 22.5t-63.5 65.5t-24.5 105q0 90 49.5 138.5t119.5 48.5q68 0 118.5 -45t50.5 -142t-51 -145t-118 -48zM292 1225q33 0 52 28.5t19 97.5q0 68 -19 97t-52 29t-53 -30t-20 -98q0 -69 20 -96.5t53 -27.5z" />
    <glyph glyph-name="plusminus" unicode="&#xb1;" horiz-adv-x="827" 
d="M380 369v624h70v-624h-70zM103 646v70h622v-70h-622zM112 246v70h606v-70h-606z" />
    <glyph glyph-name="uni00B2" unicode="&#xb2;" horiz-adv-x="658" 
d="M424 697q-47 0 -83 17t-70.5 33t-77.5 16q-36 0 -55 -20.5t-23 -39.5h-58q0 114 35 189t86 126t102.5 91t86.5 82.5t35 101.5q0 37 -15.5 65t-43.5 43.5t-66 15.5q-27 0 -49 -6t-34.5 -15.5t-12.5 -21.5q0 -10 9.5 -18t19 -20t9.5 -35q0 -33 -20 -49t-51 -16t-51.5 21
t-20.5 62q0 63 62.5 105.5t170.5 42.5q43 0 89 -7t85.5 -27t63.5 -57.5t24 -98.5q0 -67 -28 -109t-73.5 -70.5t-98 -51.5t-102.5 -50.5t-88 -68t-53 -103.5q11 17 32.5 29t50 18.5t61.5 6.5q42 0 75 -12t60 -24t49 -12q32 0 45.5 14t13.5 40h57v-31q0 -33 -14 -69
t-46.5 -61.5t-87.5 -25.5z" />
    <glyph glyph-name="uni00B3" unicode="&#xb3;" horiz-adv-x="661" 
d="M298 690q-66 0 -114.5 20t-74.5 54t-26 75q0 42 20 66t54 24q33 0 49 -13.5t16 -42.5q0 -22 -10.5 -33.5t-21.5 -22.5t-11 -32q0 -18 26 -28.5t66 -10.5q33 0 61 10.5t45 44t17 99.5q0 54 -14.5 87.5t-37 51.5t-47.5 24.5t-45 6.5v54q21 0 47 4.5t49.5 20t38.5 49.5
t15 92q0 47 -15.5 74t-43.5 38t-66 11q-41 0 -67.5 -10.5t-26.5 -28.5q0 -22 10.5 -32.5t21 -21.5t10.5 -33q0 -30 -16 -44.5t-49 -14.5q-34 0 -54 25t-20 66q0 42 27 75.5t76.5 53t116.5 19.5q72 0 133 -18.5t97.5 -58.5t36.5 -105q0 -53 -24.5 -88.5t-62 -57t-76 -32
t-67.5 -11.5q30 -1 70.5 -11.5t79 -32.5t64 -60.5t25.5 -96.5q0 -87 -76 -146t-206 -59z" />
    <glyph glyph-name="acute" unicode="&#xb4;" horiz-adv-x="582" 
d="M205 1260l-45 48l181 137q30 26 60 24.5t43 -25.5q14 -23 -2 -47t-49 -39z" />
    <glyph glyph-name="uni00B5" unicode="&#xb5;" horiz-adv-x="790" 
d="M354 -22q-57 0 -111 24t-88 89.5t-34 192.5v757h180v-738q0 -93 11.5 -141.5t30.5 -66t44 -17.5q34 0 59.5 35t39 96t13.5 138v699h180v-976h90v-70h-248l-10 113q-4 -26 -22.5 -57.5t-51.5 -54.5t-83 -23zM121 706h180v-1199h-180v1199z" />
    <glyph glyph-name="paragraph" unicode="&#xb6;" horiz-adv-x="743" 
d="M277 -260q-60 0 -96 27.5t-52.5 68t-16.5 79.5q0 42 18.5 68.5t53.5 26.5t53 -21t18 -57q0 -28 -5.5 -41.5t-11 -23.5t-5.5 -27q0 -19 10 -28t33 -9q33 0 54.5 25.5t32.5 74t11 117.5v678q-8 -38 -42.5 -62.5t-70.5 -24.5h-2q-95 0 -157.5 112t-62.5 293q0 117 34 203
t91 133.5t125 47.5h430v-70h-87v-1235q0 -95 -28 -159.5t-72 -103.5t-93 -58.5t-92.5 -26.5t-69.5 -7zM387 -190q52 24 84 77.5t32 167.5v1275h-60v-1323q0 -70 -10 -116.5t-46 -80.5z" />
    <glyph glyph-name="periodcentered" unicode="&#xb7;" horiz-adv-x="394" 
d="M211 693q-47 0 -80 34t-33 81q0 48 33 81.5t80 33.5t80.5 -33.5t33.5 -81.5q0 -47 -33.5 -81t-80.5 -34z" />
    <glyph glyph-name="cedilla" unicode="&#xb8;" horiz-adv-x="606" 
d="M289 -273q-51 0 -90.5 12.5t-54.5 20.5l24 61q11 -7 46 -18.5t76 -11.5q31 0 46.5 10.5t15.5 32.5q0 23 -14 30t-32 7q-15 0 -33.5 -6t-29.5 -17l-66 4l55 137h70l-40 -91q7 9 27.5 18.5t52.5 9.5q50 0 75 -25t25 -67q0 -54 -43.5 -80.5t-109.5 -26.5z" />
    <glyph glyph-name="uni00B9" unicode="&#xb9;" horiz-adv-x="487" 
d="M81 704v51h76v543q-10 -7 -35.5 -14t-42.5 -8v54q29 3 60 17t59.5 37t49 51t26.5 57h53v-737h78v-51h-324z" />
    <glyph glyph-name="ordmasculine" unicode="&#xba;" horiz-adv-x="504" 
d="M252 1140q-78 0 -133.5 54.5t-55.5 136.5q0 80 55.5 134.5t133.5 54.5t133.5 -54.5t55.5 -134.5q0 -82 -55.5 -136.5t-133.5 -54.5zM252 1204q39 0 63.5 36.5t24.5 90.5q0 53 -24.5 90t-63.5 37t-63 -37t-24 -90q0 -54 24 -90.5t63 -36.5z" />
    <glyph glyph-name="guillemotright" unicode="&#xbb;" horiz-adv-x="749" 
d="M323 304l225 232l-222 233h77l223 -233l-223 -232h-80zM125 304l225 232l-222 233h77l223 -233l-223 -232h-80z" />
    <glyph glyph-name="onequarter" unicode="&#xbc;" horiz-adv-x="1311" 
d="M81 649v51h76v543q-10 -7 -35.5 -14t-42.5 -8v54q29 3 60 17t59.5 37t49 51t26.5 57h53v-737h78v-51h-324zM118 0l878 1400h80l-876 -1400h-82zM862 0v52h98v119h-209v51l202 431q38 11 73.5 44.5t47.5 72.5h62v-548h10q30 0 40 29.5t10 79.5h57v-160h-117v-119h95v-52
h-369zM814 217l-9 5h157v322l-5 -28z" />
    <glyph glyph-name="onehalf" unicode="&#xbd;" horiz-adv-x="1364" 
d="M81 649v51h76v543q-10 -7 -35.5 -14t-42.5 -8v54q29 3 60 17t59.5 37t49 51t26.5 57h53v-737h78v-51h-324zM118 0l878 1400h80l-876 -1400h-82zM1130 -6q-47 0 -83 16.5t-70.5 33t-77.5 16.5q-36 0 -55 -20.5t-23 -39.5h-58q0 114 35 189t86 126t102.5 91t86.5 82.5
t35 101.5q0 37 -15.5 65t-43.5 43.5t-66 15.5q-27 0 -49 -6t-34.5 -15.5t-12.5 -21.5q0 -10 9.5 -18t19 -20t9.5 -35q0 -33 -20 -49t-51 -16t-51.5 21t-20.5 62q0 63 62.5 105.5t170.5 42.5q43 0 89 -7t85.5 -27t63.5 -57.5t24 -98.5q0 -67 -28 -109t-73.5 -70.5t-98 -51.5
t-102.5 -50.5t-88 -68t-53 -103.5q11 17 32.5 29t50 18.5t61.5 6.5q42 0 75 -12t60 -24t49 -12q32 0 45.5 14t13.5 40h57v-31q0 -33 -14 -69t-46.5 -61.5t-87.5 -25.5z" />
    <glyph glyph-name="threequarters" unicode="&#xbe;" horiz-adv-x="1485" 
d="M298 635q-66 0 -114.5 20t-74.5 54t-26 75q0 42 20 66t54 24q33 0 49 -13.5t16 -42.5q0 -22 -10.5 -33.5t-21.5 -22.5t-11 -32q0 -18 26 -28.5t66 -10.5q33 0 61 10.5t45 44t17 99.5q0 54 -14.5 87.5t-37 51.5t-47.5 24.5t-45 6.5v54q21 0 47 4.5t49.5 20t38.5 49.5
t15 92q0 47 -15.5 74t-43.5 38t-66 11q-41 0 -67.5 -10.5t-26.5 -28.5q0 -22 10.5 -32.5t21 -21.5t10.5 -33q0 -30 -16 -44.5t-49 -14.5q-34 0 -54 25t-20 66q0 42 27 75.5t76.5 53t116.5 19.5q72 0 133 -18.5t97.5 -58.5t36.5 -105q0 -53 -24.5 -88.5t-62 -57t-76 -32
t-67.5 -11.5q30 -1 70.5 -11.5t79 -32.5t64 -60.5t25.5 -96.5q0 -87 -76 -146t-206 -59zM292 0l878 1400h80l-876 -1400h-82zM1036 0v52h98v119h-209v51l202 431q38 11 73.5 44.5t47.5 72.5h62v-548h10q30 0 40 29.5t10 79.5h57v-160h-117v-119h95v-52h-369zM988 217l-9 5
h157v322l-5 -28z" />
    <glyph glyph-name="questiondown" unicode="&#xbf;" horiz-adv-x="627" 
d="M427 819q0 -124 -19 -219t-46.5 -171t-56 -142.5t-47.5 -134.5t-19 -148q0 -127 40 -185.5t117 -58.5q52 0 77.5 27.5t25.5 62.5q0 27 -10.5 45.5t-21 37.5t-10.5 49q0 47 20.5 67t53.5 20q32 0 56.5 -30t24.5 -96q0 -76 -31.5 -133t-88.5 -88.5t-134 -31.5
q-49 0 -100 14t-94 48.5t-69 94.5t-26 151t29 162.5t71.5 138t85 139.5t71.5 165t29 216h72zM391 1138q46 0 80 -34t34 -81q0 -48 -34 -81.5t-80 -33.5t-80 33.5t-34 81.5q0 47 34 81t80 34z" />
    <glyph glyph-name="Agrave" unicode="&#xc0;" horiz-adv-x="690" 
d="M5 0v70h80l185 1332h119l205 -1332h95v-70h-370v70h81l-121 936v0l-121 -936h73v-70h-226zM161 296v66h237v-66h-237zM440 1448l-202 96q-27 13 -41 26t-14 38q0 22 15.5 35t39.5 13q20 0 33.5 -7.5t27.5 -18.5l174 -142z" />
    <glyph glyph-name="Aacute" unicode="&#xc1;" horiz-adv-x="690" 
d="M5 0v70h80l185 1332h119l205 -1332h95v-70h-370v70h81l-121 936v0l-121 -936h73v-70h-226zM161 296v66h237v-66h-237zM226 1443l-45 48l180 137q15 11 30 18.5t29 7.5q15 0 26.5 -7.5t18.5 -19.5q6 -11 6 -23q0 -19 -16 -35.5t-41 -27.5z" />
    <glyph glyph-name="Acircumflex" unicode="&#xc2;" horiz-adv-x="690" 
d="M5 0v70h80l185 1332h119l205 -1332h95v-70h-370v70h81l-121 936v0l-121 -936h73v-70h-226zM161 296v66h237v-66h-237zM150 1463l147 205h71l146 -205h-79l-103 135l-103 -135h-79z" />
    <glyph glyph-name="Atilde" unicode="&#xc3;" horiz-adv-x="690" 
d="M5 0v70h80l185 1332h119l205 -1332h95v-70h-370v70h81l-121 936v0l-121 -936h73v-70h-226zM161 296v66h237v-66h-237zM418 1483q-40 0 -66 15.5t-47 30.5t-45 15q-32 0 -48.5 -17t-21.5 -28l-69 31q6 18 23 42t43.5 42t59.5 18q42 0 68 -15.5t48 -31t50 -15.5
q30 0 43.5 15t19.5 27l67 -35q-4 -15 -20.5 -37t-43 -39.5t-61.5 -17.5z" />
    <glyph glyph-name="Adieresis" unicode="&#xc4;" horiz-adv-x="690" 
d="M5 0v70h80l185 1332h119l205 -1332h95v-70h-370v70h81l-121 936v0l-121 -936h73v-70h-226zM161 296v66h237v-66h-237zM448 1501q-32 0 -56 23.5t-24 54.5q0 35 24 59.5t56 24.5t56 -24.5t24 -59.5q0 -31 -24 -54.5t-56 -23.5zM213 1501q-31 0 -55 23.5t-24 54.5
q0 35 24 59.5t55 24.5q33 0 57 -24.5t24 -59.5q0 -31 -24 -54.5t-57 -23.5z" />
    <glyph glyph-name="Aring" unicode="&#xc5;" horiz-adv-x="690" 
d="M5 0v70h80l185 1332h119l205 -1332h95v-70h-370v70h81l-121 936v0l-121 -936h73v-70h-226zM161 296v66h237v-66h-237zM332 1465q-45 0 -77 32.5t-32 85.5q0 55 32 86.5t77 31.5q43 0 75 -31.5t32 -86.5q0 -53 -32 -85.5t-75 -32.5zM332 1518q25 0 36.5 20t11.5 47
q0 22 -11.5 42t-36.5 20q-26 0 -38 -20t-12 -42q0 -27 12 -47t38 -20z" />
    <glyph glyph-name="AE" unicode="&#xc6;" horiz-adv-x="1055" 
d="M393 0v70h81v1330h488v-304h-70q0 76 -7.5 128.5t-37 79t-96.5 26.5h-98v-574h229v95h69v-258h-69v93h-229v-616h93q69 0 99.5 27.5t38.5 80.5t8 129h70v-307h-569zM212 312l4 70h282l-4 -70h-282zM17 0v70h58l342 1330h73l-335 -1330h75v-70h-213z" />
    <glyph glyph-name="Ccedilla" unicode="&#xc7;" horiz-adv-x="679" 
d="M406 -20q-150 0 -246 184t-96 534q0 132 22 260.5t65.5 233.5t109.5 167.5t154 62.5q60 0 105.5 -41t71 -102.5t25.5 -122.5q0 -53 -19 -82.5t-57 -29.5q-43 0 -62 25t-19 69q0 29 11 49.5t22 41.5t11 53q0 35 -16.5 51.5t-41.5 16.5q-40 0 -71 -41.5t-53.5 -111.5
t-37 -155.5t-21.5 -174.5t-7 -167q0 -115 8.5 -215t23.5 -180t37 -137t48.5 -87.5t58.5 -30.5q37 0 61.5 23t40 59t26.5 76l60 -32q-18 -53 -46.5 -97.5t-69.5 -71.5t-98 -27zM420 -308q-52 0 -92.5 10.5t-55.5 18.5l26 63q10 -7 43 -17.5t74 -10.5q32 0 55.5 15.5
t23.5 43.5q0 31 -15.5 41t-37.5 10q-16 0 -33 -7t-29 -21l-66 4l61 158h70l-45 -105q5 7 28.5 16.5t55.5 9.5q39 0 72.5 -23.5t33.5 -83.5q0 -42 -24 -69.5t-63 -40t-82 -12.5z" />
    <glyph glyph-name="Egrave" unicode="&#xc8;" horiz-adv-x="703" 
d="M51 0v70h94v1260h-94v70h574v-304h-70q0 81 -11.5 133t-38 76.5t-72.5 24.5h-107v-594h185v95h68v-258h-68v93h-185v-596h107q46 0 72.5 25.5t38 78t11.5 133.5h70v-307h-574zM471 1448l-202 96q-27 13 -41 26t-14 38q0 22 15.5 35t39.5 13q20 0 33.5 -7.5t27.5 -18.5
l174 -142z" />
    <glyph glyph-name="Eacute" unicode="&#xc9;" horiz-adv-x="703" 
d="M51 0v70h94v1260h-94v70h574v-304h-70q0 81 -11.5 133t-38 76.5t-72.5 24.5h-107v-594h185v95h68v-258h-68v93h-185v-596h107q46 0 72.5 25.5t38 78t11.5 133.5h70v-307h-574zM257 1443l-45 48l180 137q15 11 30 18.5t29 7.5q15 0 26.5 -7.5t18.5 -19.5q6 -11 6 -23
q0 -19 -16 -35.5t-41 -27.5z" />
    <glyph glyph-name="Ecircumflex" unicode="&#xca;" horiz-adv-x="703" 
d="M51 0v70h94v1260h-94v70h574v-304h-70q0 81 -11.5 133t-38 76.5t-72.5 24.5h-107v-594h185v95h68v-258h-68v93h-185v-596h107q46 0 72.5 25.5t38 78t11.5 133.5h70v-307h-574zM181 1463l147 205h71l146 -205h-79l-103 135l-103 -135h-79z" />
    <glyph glyph-name="Edieresis" unicode="&#xcb;" horiz-adv-x="703" 
d="M51 0v70h94v1260h-94v70h574v-304h-70q0 81 -11.5 133t-38 76.5t-72.5 24.5h-107v-594h185v95h68v-258h-68v93h-185v-596h107q46 0 72.5 25.5t38 78t11.5 133.5h70v-307h-574zM479 1501q-32 0 -56 23.5t-24 54.5q0 35 24 59.5t56 24.5t56 -24.5t24 -59.5q0 -31 -24 -54.5
t-56 -23.5zM244 1501q-31 0 -55 23.5t-24 54.5q0 35 24 59.5t55 24.5q33 0 57 -24.5t24 -59.5q0 -31 -24 -54.5t-57 -23.5z" />
    <glyph glyph-name="Igrave" unicode="&#xcc;" horiz-adv-x="502" 
d="M66 0v70h95v1260h-95v70h371v-70h-97v-1260h97v-70h-371zM361 1448l-202 96q-27 13 -41 26t-14 38q0 22 15.5 35t39.5 13q20 0 33.5 -7.5t27.5 -18.5l174 -142z" />
    <glyph glyph-name="Iacute" unicode="&#xcd;" horiz-adv-x="502" 
d="M66 0v70h95v1260h-95v70h371v-70h-97v-1260h97v-70h-371zM147 1443l-45 48l180 137q15 11 30 18.5t29 7.5q15 0 26.5 -7.5t18.5 -19.5q6 -11 6 -23q0 -19 -16 -35.5t-41 -27.5z" />
    <glyph glyph-name="Icircumflex" unicode="&#xce;" horiz-adv-x="502" 
d="M66 0v70h95v1260h-95v70h371v-70h-97v-1260h97v-70h-371zM71 1463l147 205h71l146 -205h-79l-103 135l-103 -135h-79z" />
    <glyph glyph-name="Idieresis" unicode="&#xcf;" horiz-adv-x="502" 
d="M66 0v70h95v1260h-95v70h371v-70h-97v-1260h97v-70h-371zM369 1501q-32 0 -56 23.5t-24 54.5q0 35 24 59.5t56 24.5t56 -24.5t24 -59.5q0 -31 -24 -54.5t-56 -23.5zM134 1501q-31 0 -55 23.5t-24 54.5q0 35 24 59.5t55 24.5q33 0 57 -24.5t24 -59.5q0 -31 -24 -54.5
t-57 -23.5z" />
    <glyph glyph-name="Eth" unicode="&#xd0;" horiz-adv-x="851" 
d="M48 683v70h416v-70h-416zM51 0v70h93v1260h-93v70h335q96 0 177 -76t130 -229t49 -384q0 -233 -49.5 -391t-130.5 -239t-176 -81h-335zM325 70h42q50 0 95 68.5t73 210.5t28 362q0 197 -26 335t-66 211t-84 73h-62v-1260z" />
    <glyph glyph-name="Ntilde" unicode="&#xd1;" horiz-adv-x="814" 
d="M31 0v70h93v1260h-93v70h309l291 -999h-9v929h-90v70h251v-70h-89v-1330h-134l-375 1280h11v-1210h97v-70h-262zM496 1483q-40 0 -66 15.5t-47 30.5t-45 15q-32 0 -48.5 -17t-21.5 -28l-69 31q6 18 23 42t43.5 42t59.5 18q42 0 68 -15.5t48 -31t50 -15.5q30 0 43.5 15
t19.5 27l67 -35q-4 -15 -20.5 -37t-43 -39.5t-61.5 -17.5z" />
    <glyph glyph-name="Ograve" unicode="&#xd2;" horiz-adv-x="784" 
d="M393 -22q-101 0 -175 89t-114 250t-40 381q0 221 40 383.5t114 251.5t175 89q102 0 177 -89t116 -251.5t41 -383.5q0 -220 -41 -381t-116 -250t-177 -89zM393 48q37 0 64 45t44.5 130.5t26 205.5t8.5 269q0 150 -8.5 270.5t-26 206t-44.5 131.5t-64 46q-36 0 -62.5 -46
t-43 -131.5t-24.5 -206t-8 -270.5q0 -149 8 -269t24.5 -205.5t43 -130.5t62.5 -45zM503 1448l-202 96q-27 13 -41 26t-14 38q0 22 15.5 35t39.5 13q20 0 33.5 -7.5t27.5 -18.5l174 -142z" />
    <glyph glyph-name="Oacute" unicode="&#xd3;" horiz-adv-x="784" 
d="M393 -22q-101 0 -175 89t-114 250t-40 381q0 221 40 383.5t114 251.5t175 89q102 0 177 -89t116 -251.5t41 -383.5q0 -220 -41 -381t-116 -250t-177 -89zM393 48q37 0 64 45t44.5 130.5t26 205.5t8.5 269q0 150 -8.5 270.5t-26 206t-44.5 131.5t-64 46q-36 0 -62.5 -46
t-43 -131.5t-24.5 -206t-8 -270.5q0 -149 8 -269t24.5 -205.5t43 -130.5t62.5 -45zM289 1443l-45 48l180 137q15 11 30 18.5t29 7.5q15 0 26.5 -7.5t18.5 -19.5q6 -11 6 -23q0 -19 -16 -35.5t-41 -27.5z" />
    <glyph glyph-name="Ocircumflex" unicode="&#xd4;" horiz-adv-x="784" 
d="M393 -22q-101 0 -175 89t-114 250t-40 381q0 221 40 383.5t114 251.5t175 89q102 0 177 -89t116 -251.5t41 -383.5q0 -220 -41 -381t-116 -250t-177 -89zM393 48q37 0 64 45t44.5 130.5t26 205.5t8.5 269q0 150 -8.5 270.5t-26 206t-44.5 131.5t-64 46q-36 0 -62.5 -46
t-43 -131.5t-24.5 -206t-8 -270.5q0 -149 8 -269t24.5 -205.5t43 -130.5t62.5 -45zM213 1463l147 205h71l146 -205h-79l-103 135l-103 -135h-79z" />
    <glyph glyph-name="Otilde" unicode="&#xd5;" horiz-adv-x="784" 
d="M393 -22q-101 0 -175 89t-114 250t-40 381q0 221 40 383.5t114 251.5t175 89q102 0 177 -89t116 -251.5t41 -383.5q0 -220 -41 -381t-116 -250t-177 -89zM393 48q37 0 64 45t44.5 130.5t26 205.5t8.5 269q0 150 -8.5 270.5t-26 206t-44.5 131.5t-64 46q-36 0 -62.5 -46
t-43 -131.5t-24.5 -206t-8 -270.5q0 -149 8 -269t24.5 -205.5t43 -130.5t62.5 -45zM481 1483q-40 0 -66 15.5t-47 30.5t-45 15q-32 0 -48.5 -17t-21.5 -28l-69 31q6 18 23 42t43.5 42t59.5 18q42 0 68 -15.5t48 -31t50 -15.5q30 0 43.5 15t19.5 27l67 -35q-4 -15 -20.5 -37
t-43 -39.5t-61.5 -17.5z" />
    <glyph glyph-name="Odieresis" unicode="&#xd6;" horiz-adv-x="784" 
d="M393 -22q-101 0 -175 89t-114 250t-40 381q0 221 40 383.5t114 251.5t175 89q102 0 177 -89t116 -251.5t41 -383.5q0 -220 -41 -381t-116 -250t-177 -89zM393 48q37 0 64 45t44.5 130.5t26 205.5t8.5 269q0 150 -8.5 270.5t-26 206t-44.5 131.5t-64 46q-36 0 -62.5 -46
t-43 -131.5t-24.5 -206t-8 -270.5q0 -149 8 -269t24.5 -205.5t43 -130.5t62.5 -45zM511 1501q-32 0 -56 23.5t-24 54.5q0 35 24 59.5t56 24.5t56 -24.5t24 -59.5q0 -31 -24 -54.5t-56 -23.5zM276 1501q-31 0 -55 23.5t-24 54.5q0 35 24 59.5t55 24.5q33 0 57 -24.5t24 -59.5
q0 -31 -24 -54.5t-57 -23.5z" />
    <glyph glyph-name="multiply" unicode="&#xd7;" horiz-adv-x="757" 
d="M610 293l-493 492l49 49l493 -492zM166 293l-46 45l491 491l46 -45z" />
    <glyph glyph-name="Oslash" unicode="&#xd8;" horiz-adv-x="812" 
d="M137 -104l497 1608h72l-495 -1608h-74zM393 -22q-101 0 -175 89t-114 250t-40 381q0 221 40 383.5t114 251.5t175 89q102 0 177 -89t116 -251.5t41 -383.5q0 -220 -41 -381t-116 -250t-177 -89zM393 48q37 0 64 45t44.5 130.5t26 205.5t8.5 269q0 150 -8.5 270.5t-26 206
t-44.5 131.5t-64 46q-36 0 -62.5 -46t-43 -131.5t-24.5 -206t-8 -270.5q0 -149 8 -269t24.5 -205.5t43 -130.5t62.5 -45z" />
    <glyph glyph-name="Ugrave" unicode="&#xd9;" horiz-adv-x="777" 
d="M406 -24q-47 0 -95 15t-88 52t-64.5 104t-24.5 172v1011h-97v70h382v-70h-102v-1012q0 -142 34 -201t96 -59q26 0 49.5 11.5t41.5 38.5t28 74t10 118v1030h-86v70h251v-70h-94v-1040q0 -119 -31 -188t-85 -97.5t-125 -28.5zM507 1448l-202 96q-27 13 -41 26t-14 38
q0 22 15.5 35t39.5 13q20 0 33.5 -7.5t27.5 -18.5l174 -142z" />
    <glyph glyph-name="Uacute" unicode="&#xda;" horiz-adv-x="777" 
d="M406 -24q-47 0 -95 15t-88 52t-64.5 104t-24.5 172v1011h-97v70h382v-70h-102v-1012q0 -142 34 -201t96 -59q26 0 49.5 11.5t41.5 38.5t28 74t10 118v1030h-86v70h251v-70h-94v-1040q0 -119 -31 -188t-85 -97.5t-125 -28.5zM293 1443l-45 48l180 137q15 11 30 18.5
t29 7.5q15 0 26.5 -7.5t18.5 -19.5q6 -11 6 -23q0 -19 -16 -35.5t-41 -27.5z" />
    <glyph glyph-name="Ucircumflex" unicode="&#xdb;" horiz-adv-x="777" 
d="M406 -24q-47 0 -95 15t-88 52t-64.5 104t-24.5 172v1011h-97v70h382v-70h-102v-1012q0 -142 34 -201t96 -59q26 0 49.5 11.5t41.5 38.5t28 74t10 118v1030h-86v70h251v-70h-94v-1040q0 -119 -31 -188t-85 -97.5t-125 -28.5zM217 1463l147 205h71l146 -205h-79l-103 135
l-103 -135h-79z" />
    <glyph glyph-name="Udieresis" unicode="&#xdc;" horiz-adv-x="777" 
d="M406 -24q-47 0 -95 15t-88 52t-64.5 104t-24.5 172v1011h-97v70h382v-70h-102v-1012q0 -142 34 -201t96 -59q26 0 49.5 11.5t41.5 38.5t28 74t10 118v1030h-86v70h251v-70h-94v-1040q0 -119 -31 -188t-85 -97.5t-125 -28.5zM515 1501q-32 0 -56 23.5t-24 54.5
q0 35 24 59.5t56 24.5t56 -24.5t24 -59.5q0 -31 -24 -54.5t-56 -23.5zM280 1501q-31 0 -55 23.5t-24 54.5q0 35 24 59.5t55 24.5q33 0 57 -24.5t24 -59.5q0 -31 -24 -54.5t-57 -23.5z" />
    <glyph glyph-name="Yacute" unicode="&#xdd;" horiz-adv-x="767" 
d="M197 0v70h102v518l-182 742h-94v70h374v-70h-76l154 -687h-58l169 687h-80v70h249v-70h-94l-182 -715v-545h99v-70h-381zM279 1443l-45 48l180 137q15 11 30 18.5t29 7.5q15 0 26.5 -7.5t18.5 -19.5q6 -11 6 -23q0 -19 -16 -35.5t-41 -27.5z" />
    <glyph glyph-name="Thorn" unicode="&#xde;" horiz-adv-x="857" 
d="M312 306v77h50q62 0 107.5 47t70 130.5t24.5 192.5q0 103 -22.5 180.5t-63 120.5t-94.5 43h-72v77h145q90 0 160 -52t110 -146.5t40 -222.5q0 -133 -41.5 -234t-114.5 -157t-168 -56h-131zM66 0v70h95v1260h-95v70h371v-70h-97v-1260h97v-70h-371z" />
    <glyph glyph-name="germandbls" unicode="&#xdf;" horiz-adv-x="900" 
d="M564 -23q-57 0 -97.5 35t-40.5 102q0 43 19.5 69t50.5 26q28 0 43 -17t15 -49q0 -19 -7 -30.5t-14 -19.5t-7 -18q0 -13 8 -21t29 -8q36 0 58 24.5t32.5 72t10.5 115.5t-22 120.5t-54.5 97.5t-65 88.5t-54.5 93t-22 111.5q0 60 17 104t42 79.5l50 71t42 78.5t17 101
q0 79 -31.5 116t-91.5 37q-61 0 -95.5 -46.5t-48.5 -121.5t-14 -162v-1026h-293v70h107v907q0 137 42 237t115.5 155t168.5 55q96 0 154.5 -57t58.5 -163q0 -74 -19.5 -130t-45 -100t-45 -81t-19.5 -74q0 -42 26.5 -84t65 -87.5t77 -96.5t65 -110t26.5 -131
q0 -107 -35 -181.5t-92.5 -113t-125.5 -38.5z" />
    <glyph glyph-name="agrave" unicode="&#xe0;" horiz-adv-x="728" 
d="M274 -21q-63 0 -113 31t-79 90t-29 143q0 94 37.5 155.5t93.5 104t111.5 77t93.5 71.5t38 90q0 75 -12 128.5t-38 82t-69 28.5q-49 0 -80.5 -30.5t-31.5 -69.5q0 -24 8 -39t16 -31.5t8 -44.5q0 -39 -20.5 -63t-55.5 -24t-55.5 30.5t-20.5 83.5q0 76 33.5 136.5t93 95
t138.5 34.5t138.5 -34.5t93.5 -109.5t34 -198v-569q0 -46 8.5 -61.5t26.5 -15.5q17 0 28.5 8t17.5 15l38 -57q-15 -18 -53 -34t-88 -16t-79.5 15t-44 38t-18.5 46q-5 -15 -23 -40.5t-53 -45.5t-93 -20zM327 76q32 0 54.5 26t34 63.5t11.5 70.5v370q-3 -28 -32 -54.5
t-65.5 -61t-64 -89t-27.5 -139.5q0 -92 23.5 -139t65.5 -47zM459 1104l-202 96q-27 13 -41 26t-14 38q0 22 15.5 35t39.5 13q20 0 33.5 -7.5t27.5 -18.5l174 -142z" />
    <glyph glyph-name="aacute" unicode="&#xe1;" horiz-adv-x="728" 
d="M274 -21q-63 0 -113 31t-79 90t-29 143q0 94 37.5 155.5t93.5 104t111.5 77t93.5 71.5t38 90q0 75 -12 128.5t-38 82t-69 28.5q-49 0 -80.5 -30.5t-31.5 -69.5q0 -24 8 -39t16 -31.5t8 -44.5q0 -39 -20.5 -63t-55.5 -24t-55.5 30.5t-20.5 83.5q0 76 33.5 136.5t93 95
t138.5 34.5t138.5 -34.5t93.5 -109.5t34 -198v-569q0 -46 8.5 -61.5t26.5 -15.5q17 0 28.5 8t17.5 15l38 -57q-15 -18 -53 -34t-88 -16t-79.5 15t-44 38t-18.5 46q-5 -15 -23 -40.5t-53 -45.5t-93 -20zM327 76q32 0 54.5 26t34 63.5t11.5 70.5v370q-3 -28 -32 -54.5
t-65.5 -61t-64 -89t-27.5 -139.5q0 -92 23.5 -139t65.5 -47zM245 1082l-45 48l181 137q14 11 29 18.5t29 7.5q15 0 26.5 -7.5t18.5 -19.5q6 -11 6 -23q0 -19 -16 -35.5t-41 -27.5z" />
    <glyph glyph-name="acircumflex" unicode="&#xe2;" horiz-adv-x="728" 
d="M274 -21q-63 0 -113 31t-79 90t-29 143q0 94 37.5 155.5t93.5 104t111.5 77t93.5 71.5t38 90q0 75 -12 128.5t-38 82t-69 28.5q-49 0 -80.5 -30.5t-31.5 -69.5q0 -24 8 -39t16 -31.5t8 -44.5q0 -39 -20.5 -63t-55.5 -24t-55.5 30.5t-20.5 83.5q0 76 33.5 136.5t93 95
t138.5 34.5t138.5 -34.5t93.5 -109.5t34 -198v-569q0 -46 8.5 -61.5t26.5 -15.5q17 0 28.5 8t17.5 15l38 -57q-15 -18 -53 -34t-88 -16t-79.5 15t-44 38t-18.5 46q-5 -15 -23 -40.5t-53 -45.5t-93 -20zM327 76q32 0 54.5 26t34 63.5t11.5 70.5v370q-3 -28 -32 -54.5
t-65.5 -61t-64 -89t-27.5 -139.5q0 -92 23.5 -139t65.5 -47zM169 1125l147 205h71l146 -205h-79l-103 135l-103 -135h-79z" />
    <glyph glyph-name="atilde" unicode="&#xe3;" horiz-adv-x="728" 
d="M274 -21q-63 0 -113 31t-79 90t-29 143q0 94 37.5 155.5t93.5 104t111.5 77t93.5 71.5t38 90q0 75 -12 128.5t-38 82t-69 28.5q-49 0 -80.5 -30.5t-31.5 -69.5q0 -24 8 -39t16 -31.5t8 -44.5q0 -39 -20.5 -63t-55.5 -24t-55.5 30.5t-20.5 83.5q0 76 33.5 136.5t93 95
t138.5 34.5t138.5 -34.5t93.5 -109.5t34 -198v-569q0 -46 8.5 -61.5t26.5 -15.5q17 0 28.5 8t17.5 15l38 -57q-15 -18 -53 -34t-88 -16t-79.5 15t-44 38t-18.5 46q-5 -15 -23 -40.5t-53 -45.5t-93 -20zM327 76q32 0 54.5 26t34 63.5t11.5 70.5v370q-3 -28 -32 -54.5
t-65.5 -61t-64 -89t-27.5 -139.5q0 -92 23.5 -139t65.5 -47zM437 1134q-40 0 -66 15.5t-47 30.5t-45 15q-32 0 -48.5 -17t-21.5 -28l-69 31q6 18 23 42t43.5 42t59.5 18q42 0 68 -15.5t48 -31t50 -15.5q30 0 43.5 15t19.5 27l67 -35q-4 -15 -20.5 -37t-43 -39.5t-61.5 -17.5
z" />
    <glyph glyph-name="adieresis" unicode="&#xe4;" horiz-adv-x="728" 
d="M274 -21q-63 0 -113 31t-79 90t-29 143q0 94 37.5 155.5t93.5 104t111.5 77t93.5 71.5t38 90q0 75 -12 128.5t-38 82t-69 28.5q-49 0 -80.5 -30.5t-31.5 -69.5q0 -24 8 -39t16 -31.5t8 -44.5q0 -39 -20.5 -63t-55.5 -24t-55.5 30.5t-20.5 83.5q0 76 33.5 136.5t93 95
t138.5 34.5t138.5 -34.5t93.5 -109.5t34 -198v-569q0 -46 8.5 -61.5t26.5 -15.5q17 0 28.5 8t17.5 15l38 -57q-15 -18 -53 -34t-88 -16t-79.5 15t-44 38t-18.5 46q-5 -15 -23 -40.5t-53 -45.5t-93 -20zM327 76q32 0 54.5 26t34 63.5t11.5 70.5v370q-3 -28 -32 -54.5
t-65.5 -61t-64 -89t-27.5 -139.5q0 -92 23.5 -139t65.5 -47zM467 1129q-32 0 -56 23.5t-24 54.5q0 35 24 59.5t56 24.5t56 -24.5t24 -59.5q0 -31 -24 -54.5t-56 -23.5zM232 1129q-31 0 -55 23.5t-24 54.5q0 35 24 59.5t55 24.5q33 0 57 -24.5t24 -59.5q0 -31 -24 -54.5
t-57 -23.5z" />
    <glyph glyph-name="aring" unicode="&#xe5;" horiz-adv-x="728" 
d="M274 -21q-63 0 -113 31t-79 90t-29 143q0 94 37.5 155.5t93.5 104t111.5 77t93.5 71.5t38 90q0 75 -12 128.5t-38 82t-69 28.5q-49 0 -80.5 -30.5t-31.5 -69.5q0 -24 8 -39t16 -31.5t8 -44.5q0 -39 -20.5 -63t-55.5 -24t-55.5 30.5t-20.5 83.5q0 76 33.5 136.5t93 95
t138.5 34.5t138.5 -34.5t93.5 -109.5t34 -198v-569q0 -46 8.5 -61.5t26.5 -15.5q17 0 28.5 8t17.5 15l38 -57q-15 -18 -53 -34t-88 -16t-79.5 15t-44 38t-18.5 46q-5 -15 -23 -40.5t-53 -45.5t-93 -20zM327 76q32 0 54.5 26t34 63.5t11.5 70.5v370q-3 -28 -32 -54.5
t-65.5 -61t-64 -89t-27.5 -139.5q0 -92 23.5 -139t65.5 -47zM351 1096q-45 0 -77 32.5t-32 85.5q0 55 32 86.5t77 31.5q43 0 75 -31.5t32 -86.5q0 -53 -32 -85.5t-75 -32.5zM351 1149q25 0 36.5 20t11.5 47q0 22 -11.5 42t-36.5 20q-26 0 -38 -20t-12 -42q0 -27 12 -47
t38 -20z" />
    <glyph glyph-name="ae" unicode="&#xe6;" horiz-adv-x="1046" 
d="M287 -19q-121 0 -177.5 67t-56.5 175q0 100 36.5 165t90 109t107.5 78.5t90.5 71.5t36.5 90q0 66 -11 121t-35.5 88.5t-66.5 33.5q-40 0 -70.5 -23t-30.5 -66q0 -24 7.5 -40l15 -32t7.5 -45q0 -39 -20 -62.5t-55 -23.5t-55.5 30.5t-20.5 83.5q0 71 31.5 129t89 92.5
t135.5 34.5t136.5 -39.5t91 -119.5t32.5 -203v-297q0 -80 -10.5 -139.5t-29.5 -103t-45 -77.5q-33 -39 -88.5 -68.5t-134.5 -29.5zM318 78q40 0 68 48t28 112v361q-3 -28 -30 -54t-61 -61t-60 -90.5t-26 -142.5q0 -53 9 -92t27 -60t45 -21zM723 -21q-74 0 -130.5 41
t-94 114.5t-56 173.5t-18.5 218q0 137 25 237.5t68 166t96 97t108 31.5q65 0 115 -36.5t84 -99.5t51.5 -144.5t17.5 -172.5q0 -21 -0.5 -41.5t-1.5 -41.5h-395v70h223q0 133 -9.5 220.5t-30 131t-54.5 43.5t-60 -43.5t-40.5 -138.5t-14.5 -249q0 -114 6.5 -206.5t22 -158
t42 -100t66.5 -34.5q65 0 102 36t52 71l60 -38q-20 -56 -84 -101.5t-150 -45.5z" />
    <glyph glyph-name="ccedilla" unicode="&#xe7;" horiz-adv-x="637" 
d="M365 -21q-70 0 -127.5 42.5t-99 118t-64 176t-22.5 215.5q0 137 30 236.5t78 163.5t103.5 95.5t106.5 31.5q70 0 119 -39.5t74.5 -102t25.5 -131.5q0 -51 -20.5 -79t-54.5 -28q-35 0 -56 24.5t-21 64.5q0 26 9 41t18 31t9 43q0 50 -27.5 77t-65.5 27q-41 0 -67.5 -41
t-42.5 -107t-22.5 -145t-6.5 -155q0 -82 6.5 -166.5t23.5 -156t47 -115.5t76 -44q55 0 85 30.5t45 73.5l54 -45q-20 -47 -72 -91.5t-141 -44.5zM402 -307q-52 0 -92.5 10.5t-55.5 18.5l26 63q10 -7 43 -17.5t74 -10.5q32 0 55.5 15.5t23.5 43.5q0 31 -15.5 41t-37.5 10
q-16 0 -33 -7t-29 -21l-66 4l61 158h70l-45 -105q5 7 28.5 16.5t55.5 9.5q39 0 72.5 -23.5t33.5 -83.5q0 -42 -24 -69.5t-63 -40t-82 -12.5z" />
    <glyph glyph-name="egrave" unicode="&#xe8;" horiz-adv-x="676" 
d="M353 -21q-75 0 -131 41t-93.5 114.5t-56.5 173.5t-19 218q0 137 25.5 237.5t68.5 166t95.5 97t107.5 31.5q65 0 115 -36.5t84 -99.5t51.5 -144.5t17.5 -172.5v-41.5t-2 -41.5h-394v70h222q0 133 -9 220.5t-29.5 131t-55.5 43.5q-33 0 -59 -43.5t-41 -138.5t-15 -249
q0 -114 6.5 -206.5t22 -158t42 -100t67.5 -34.5q65 0 102 36t51 71l60 -38q-20 -56 -84 -101.5t-149 -45.5zM455 1103l-202 96q-27 13 -41 26t-14 38q0 22 15.5 35t39.5 13q20 0 33.5 -7.5t27.5 -18.5l174 -142z" />
    <glyph glyph-name="eacute" unicode="&#xe9;" horiz-adv-x="676" 
d="M353 -21q-75 0 -131 41t-93.5 114.5t-56.5 173.5t-19 218q0 137 25.5 237.5t68.5 166t95.5 97t107.5 31.5q65 0 115 -36.5t84 -99.5t51.5 -144.5t17.5 -172.5v-41.5t-2 -41.5h-394v70h222q0 133 -9 220.5t-29.5 131t-55.5 43.5q-33 0 -59 -43.5t-41 -138.5t-15 -249
q0 -114 6.5 -206.5t22 -158t42 -100t67.5 -34.5q65 0 102 36t51 71l60 -38q-20 -56 -84 -101.5t-149 -45.5zM241 1081l-45 48l181 137q14 11 29 18.5t29 7.5q15 0 26.5 -7.5t18.5 -19.5q6 -11 6 -23q0 -19 -16 -35.5t-41 -27.5z" />
    <glyph glyph-name="ecircumflex" unicode="&#xea;" horiz-adv-x="676" 
d="M353 -21q-75 0 -131 41t-93.5 114.5t-56.5 173.5t-19 218q0 137 25.5 237.5t68.5 166t95.5 97t107.5 31.5q65 0 115 -36.5t84 -99.5t51.5 -144.5t17.5 -172.5v-41.5t-2 -41.5h-394v70h222q0 133 -9 220.5t-29.5 131t-55.5 43.5q-33 0 -59 -43.5t-41 -138.5t-15 -249
q0 -114 6.5 -206.5t22 -158t42 -100t67.5 -34.5q65 0 102 36t51 71l60 -38q-20 -56 -84 -101.5t-149 -45.5zM165 1124l147 205h71l146 -205h-79l-103 135l-103 -135h-79z" />
    <glyph glyph-name="edieresis" unicode="&#xeb;" horiz-adv-x="676" 
d="M353 -21q-75 0 -131 41t-93.5 114.5t-56.5 173.5t-19 218q0 137 25.5 237.5t68.5 166t95.5 97t107.5 31.5q65 0 115 -36.5t84 -99.5t51.5 -144.5t17.5 -172.5v-41.5t-2 -41.5h-394v70h222q0 133 -9 220.5t-29.5 131t-55.5 43.5q-33 0 -59 -43.5t-41 -138.5t-15 -249
q0 -114 6.5 -206.5t22 -158t42 -100t67.5 -34.5q65 0 102 36t51 71l60 -38q-20 -56 -84 -101.5t-149 -45.5zM463 1128q-32 0 -56 23.5t-24 54.5q0 35 24 59.5t56 24.5t56 -24.5t24 -59.5q0 -31 -24 -54.5t-56 -23.5zM228 1128q-31 0 -55 23.5t-24 54.5q0 35 24 59.5t55 24.5
q33 0 57 -24.5t24 -59.5q0 -31 -24 -54.5t-57 -23.5z" />
    <glyph glyph-name="igrave" unicode="&#xec;" horiz-adv-x="449" 
d="M33 0v70h104v907h-104v70h284v-977h106v-70h-390zM336 1104l-202 96q-27 13 -41 26t-14 38q0 22 15.5 35t39.5 13q20 0 33.5 -7.5t27.5 -18.5l174 -142z" />
    <glyph glyph-name="iacute" unicode="&#xed;" horiz-adv-x="449" 
d="M33 0v70h104v907h-104v70h284v-977h106v-70h-390zM122 1082l-45 48l181 137q14 11 29 18.5t29 7.5q15 0 26.5 -7.5t18.5 -19.5q6 -11 6 -23q0 -19 -16 -35.5t-41 -27.5z" />
    <glyph glyph-name="icircumflex" unicode="&#xee;" horiz-adv-x="449" 
d="M33 0v70h104v907h-104v70h284v-977h106v-70h-390zM46 1125l147 205h71l146 -205h-79l-103 135l-103 -135h-79z" />
    <glyph glyph-name="idieresis" unicode="&#xef;" horiz-adv-x="449" 
d="M33 0v70h104v907h-104v70h284v-977h106v-70h-390zM344 1129q-32 0 -56 23.5t-24 54.5q0 35 24 59.5t56 24.5t56 -24.5t24 -59.5q0 -31 -24 -54.5t-56 -23.5zM109 1129q-31 0 -55 23.5t-24 54.5q0 35 24 59.5t55 24.5q33 0 57 -24.5t24 -59.5q0 -31 -24 -54.5t-57 -23.5z
" />
    <glyph glyph-name="eth" unicode="&#xf0;" horiz-adv-x="762" 
d="M370 -22q-77 0 -142.5 69.5t-105 193.5t-39.5 288q0 133 25 231.5t66.5 163.5t92.5 97t103 32q28 0 49.5 -11t36 -26.5t20.5 -27.5q-7 57 -21.5 107t-32.5 89t-38 60l-61 -94l-57 40l66 96q-18 18 -59.5 38.5t-74.5 31.5l23 65q15 -3 40 -13t50.5 -22t40.5 -22l17 -12
l46 66l56 -38l-47 -70q54 -44 97.5 -109t74.5 -158t47 -220t16 -296t-41.5 -292t-108 -190t-139.5 -67zM370 48q30 0 54 54.5t38 161.5t14 263q0 154 -14 255t-38 151t-54 50q-28 0 -53 -50t-40 -151t-15 -255q0 -156 15 -263t40 -161.5t53 -54.5z" />
    <glyph glyph-name="ntilde" unicode="&#xf1;" horiz-adv-x="847" 
d="M33 0v70h105v907h-105v70h280v-105q5 20 27 47.5t60 48t89 20.5q52 0 98 -24.5t75 -92t29 -198.5v-673h103v-70h-364v70h81v661q0 115 -20 166.5t-65 51.5q-23 0 -42.5 -16.5t-34 -45t-22.5 -64.5t-9 -75v-678h79v-70h-364zM505 1134q-40 0 -66 15.5t-47 30.5t-45 15
q-32 0 -48.5 -17t-21.5 -28l-69 31q6 18 23 42t43.5 42t59.5 18q42 0 68 -15.5t48 -31t50 -15.5q30 0 43.5 15t19.5 27l67 -35q-4 -15 -20.5 -37t-43 -39.5t-61.5 -17.5z" />
    <glyph glyph-name="ograve" unicode="&#xf2;" horiz-adv-x="705" 
d="M350 -22q-57 0 -110.5 35.5t-95.5 105t-66.5 172t-24.5 236.5q0 147 26 248.5t68.5 164t95.5 90.5t107 28q53 0 106 -28t96 -90.5t69.5 -164t26.5 -248.5q0 -134 -25 -236.5t-67 -172t-95.5 -105t-110.5 -35.5zM350 55q51 0 82.5 113t31.5 359q0 244 -31.5 350t-82.5 106
t-82.5 -106t-31.5 -350q0 -246 31.5 -359t82.5 -113zM459 1104l-202 96q-27 13 -41 26t-14 38q0 22 15.5 35t39.5 13q20 0 33.5 -7.5t27.5 -18.5l174 -142z" />
    <glyph glyph-name="oacute" unicode="&#xf3;" horiz-adv-x="705" 
d="M350 -22q-57 0 -110.5 35.5t-95.5 105t-66.5 172t-24.5 236.5q0 147 26 248.5t68.5 164t95.5 90.5t107 28q53 0 106 -28t96 -90.5t69.5 -164t26.5 -248.5q0 -134 -25 -236.5t-67 -172t-95.5 -105t-110.5 -35.5zM350 55q51 0 82.5 113t31.5 359q0 244 -31.5 350t-82.5 106
t-82.5 -106t-31.5 -350q0 -246 31.5 -359t82.5 -113zM246 1082l-45 48l181 137q14 11 29 18.5t29 7.5q15 0 26.5 -7.5t18.5 -19.5q6 -11 6 -23q0 -19 -16 -35.5t-41 -27.5z" />
    <glyph glyph-name="ocircumflex" unicode="&#xf4;" horiz-adv-x="705" 
d="M350 -22q-57 0 -110.5 35.5t-95.5 105t-66.5 172t-24.5 236.5q0 147 26 248.5t68.5 164t95.5 90.5t107 28q53 0 106 -28t96 -90.5t69.5 -164t26.5 -248.5q0 -134 -25 -236.5t-67 -172t-95.5 -105t-110.5 -35.5zM350 55q51 0 82.5 113t31.5 359q0 244 -31.5 350t-82.5 106
t-82.5 -106t-31.5 -350q0 -246 31.5 -359t82.5 -113zM169 1125l147 205h71l146 -205h-79l-103 135l-103 -135h-79z" />
    <glyph glyph-name="otilde" unicode="&#xf5;" horiz-adv-x="705" 
d="M350 -22q-57 0 -110.5 35.5t-95.5 105t-66.5 172t-24.5 236.5q0 147 26 248.5t68.5 164t95.5 90.5t107 28q53 0 106 -28t96 -90.5t69.5 -164t26.5 -248.5q0 -134 -25 -236.5t-67 -172t-95.5 -105t-110.5 -35.5zM350 55q51 0 82.5 113t31.5 359q0 244 -31.5 350t-82.5 106
t-82.5 -106t-31.5 -350q0 -246 31.5 -359t82.5 -113zM437 1134q-40 0 -66 15.5t-47 30.5t-45 15q-32 0 -48.5 -17t-21.5 -28l-69 31q6 18 23 42t43.5 42t59.5 18q42 0 68 -15.5t48 -31t50 -15.5q30 0 43.5 15t19.5 27l67 -35q-4 -15 -20.5 -37t-43 -39.5t-61.5 -17.5z" />
    <glyph glyph-name="odieresis" unicode="&#xf6;" horiz-adv-x="705" 
d="M350 -22q-57 0 -110.5 35.5t-95.5 105t-66.5 172t-24.5 236.5q0 147 26 248.5t68.5 164t95.5 90.5t107 28q53 0 106 -28t96 -90.5t69.5 -164t26.5 -248.5q0 -134 -25 -236.5t-67 -172t-95.5 -105t-110.5 -35.5zM350 55q51 0 82.5 113t31.5 359q0 244 -31.5 350t-82.5 106
t-82.5 -106t-31.5 -350q0 -246 31.5 -359t82.5 -113zM468 1129q-32 0 -56 23.5t-24 54.5q0 35 24 59.5t56 24.5t56 -24.5t24 -59.5q0 -31 -24 -54.5t-56 -23.5zM233 1129q-31 0 -55 23.5t-24 54.5q0 35 24 59.5t55 24.5q33 0 57 -24.5t24 -59.5q0 -31 -24 -54.5t-57 -23.5z
" />
    <glyph glyph-name="divide" unicode="&#xf7;" horiz-adv-x="807" 
d="M407 289q-27 0 -46 19.5t-19 46.5q0 28 19 47t46 19t46 -19t19 -47q0 -27 -19 -46.5t-46 -19.5zM407 675q-27 0 -46 19.5t-19 47.5q0 27 19 46.5t46 19.5t46 -19.5t19 -46.5q0 -28 -19 -47.5t-46 -19.5zM103 514v70h606v-70h-606z" />
    <glyph glyph-name="oslash" unicode="&#xf8;" horiz-adv-x="720" 
d="M83 -104l478 1224h72l-479 -1224h-71zM350 -22q-57 0 -110.5 35.5t-95.5 105t-66.5 172t-24.5 236.5q0 147 26 248.5t68.5 164t95.5 90.5t107 28q53 0 106 -28t96 -90.5t69.5 -164t26.5 -248.5q0 -134 -25 -236.5t-67 -172t-95.5 -105t-110.5 -35.5zM350 55
q51 0 82.5 113t31.5 359q0 244 -31.5 350t-82.5 106t-82.5 -106t-31.5 -350q0 -246 31.5 -359t82.5 -113z" />
    <glyph glyph-name="ugrave" unicode="&#xf9;" horiz-adv-x="790" 
d="M336 -22q-58 0 -107 24t-78.5 89.5t-29.5 192.5v693h-103v69h283v-743q0 -93 10.5 -141.5t29.5 -66t46 -17.5q34 0 59.5 35t39 96t13.5 138v630h-95v69h275v-976h90v-70h-248l-10 113q-4 -26 -26 -57.5t-59.5 -54.5t-89.5 -23zM512 1104l-202 96q-27 13 -41 26t-14 38
q0 22 15.5 35t39.5 13q20 0 33.5 -7.5t27.5 -18.5l174 -142z" />
    <glyph glyph-name="uacute" unicode="&#xfa;" horiz-adv-x="790" 
d="M336 -22q-58 0 -107 24t-78.5 89.5t-29.5 192.5v693h-103v69h283v-743q0 -93 10.5 -141.5t29.5 -66t46 -17.5q34 0 59.5 35t39 96t13.5 138v630h-95v69h275v-976h90v-70h-248l-10 113q-4 -26 -26 -57.5t-59.5 -54.5t-89.5 -23zM298 1082l-45 48l181 137q14 11 29 18.5
t29 7.5q15 0 26.5 -7.5t18.5 -19.5q6 -11 6 -23q0 -19 -16 -35.5t-41 -27.5z" />
    <glyph glyph-name="ucircumflex" unicode="&#xfb;" horiz-adv-x="790" 
d="M336 -22q-58 0 -107 24t-78.5 89.5t-29.5 192.5v693h-103v69h283v-743q0 -93 10.5 -141.5t29.5 -66t46 -17.5q34 0 59.5 35t39 96t13.5 138v630h-95v69h275v-976h90v-70h-248l-10 113q-4 -26 -26 -57.5t-59.5 -54.5t-89.5 -23zM222 1125l147 205h71l146 -205h-79
l-103 135l-103 -135h-79z" />
    <glyph glyph-name="udieresis" unicode="&#xfc;" horiz-adv-x="790" 
d="M336 -22q-58 0 -107 24t-78.5 89.5t-29.5 192.5v693h-103v69h283v-743q0 -93 10.5 -141.5t29.5 -66t46 -17.5q34 0 59.5 35t39 96t13.5 138v630h-95v69h275v-976h90v-70h-248l-10 113q-4 -26 -26 -57.5t-59.5 -54.5t-89.5 -23zM520 1129q-32 0 -56 23.5t-24 54.5
q0 35 24 59.5t56 24.5t56 -24.5t24 -59.5q0 -31 -24 -54.5t-56 -23.5zM285 1129q-31 0 -55 23.5t-24 54.5q0 35 24 59.5t55 24.5q33 0 57 -24.5t24 -59.5q0 -31 -24 -54.5t-57 -23.5z" />
    <glyph glyph-name="yacute" unicode="&#xfd;" horiz-adv-x="675" 
d="M199 -502q-45 0 -74 32.5t-43.5 88t-14.5 125.5q0 53 20.5 81.5t54.5 28.5q35 0 54 -25t19 -67q0 -33 -11.5 -54t-23 -39t-11.5 -46q0 -25 9 -46t28 -21q11 0 18.5 10t14 30.5t12.5 52.5l74 355l-225 973h-83v70h351v-70h-76l120 -572l110 572h-74v70h228v-70h-76
l-205 -984l-78 -361q-8 -43 -23 -73t-37.5 -45.5t-57.5 -15.5zM241 1082l-45 48l181 137q14 11 29 18.5t29 7.5q15 0 26.5 -7.5t18.5 -19.5q6 -11 6 -23q0 -19 -16 -35.5t-41 -27.5z" />
    <glyph glyph-name="thorn" unicode="&#xfe;" horiz-adv-x="820" 
d="M40 -500v70h104v1860h-104v70h284v-558q3 10 19 36.5t47.5 49.5t78.5 23q79 0 136 -57t87.5 -175t30.5 -302q0 -189 -34 -307.5t-94 -174t-139 -55.5q-35 0 -60 11.5t-40.5 28t-23 32.5t-8.5 26v-508h98v-70h-382zM431 73q35 0 56.5 42t31.5 109t13.5 143.5t3.5 145.5
q0 53 -3.5 125.5t-14 142t-29.5 115.5t-51 46q-26 0 -46.5 -24t-36 -60.5t-23.5 -76t-8 -68.5v-428q4 -46 15.5 -95t34.5 -83t57 -34z" />
    <glyph glyph-name="ydieresis" unicode="&#xff;" horiz-adv-x="675" 
d="M199 -502q-45 0 -74 32.5t-43.5 88t-14.5 125.5q0 53 20.5 81.5t54.5 28.5q35 0 54 -25t19 -67q0 -33 -11.5 -54t-23 -39t-11.5 -46q0 -25 9 -46t28 -21q11 0 18.5 10t14 30.5t12.5 52.5l74 355l-225 973h-83v70h351v-70h-76l120 -572l110 572h-74v70h228v-70h-76
l-205 -984l-78 -361q-8 -43 -23 -73t-37.5 -45.5t-57.5 -15.5zM463 1129q-32 0 -56 23.5t-24 54.5q0 35 24 59.5t56 24.5t56 -24.5t24 -59.5q0 -31 -24 -54.5t-56 -23.5zM228 1129q-31 0 -55 23.5t-24 54.5q0 35 24 59.5t55 24.5q33 0 57 -24.5t24 -59.5q0 -31 -24 -54.5
t-57 -23.5z" />
    <glyph glyph-name="Amacron" unicode="&#x100;" horiz-adv-x="690" 
d="M5 0v70h80l185 1332h119l205 -1332h95v-70h-370v70h81l-121 936v0l-121 -936h73v-70h-226zM161 296v66h237v-66h-237zM30 1538v70h604v-70h-604z" />
    <glyph glyph-name="amacron" unicode="&#x101;" horiz-adv-x="728" 
d="M274 -21q-63 0 -113 31t-79 90t-29 143q0 94 37.5 155.5t93.5 104t111.5 77t93.5 71.5t38 90q0 75 -12 128.5t-38 82t-69 28.5q-49 0 -80.5 -30.5t-31.5 -69.5q0 -24 8 -39t16 -31.5t8 -44.5q0 -39 -20.5 -63t-55.5 -24t-55.5 30.5t-20.5 83.5q0 76 33.5 136.5t93 95
t138.5 34.5t138.5 -34.5t93.5 -109.5t34 -198v-569q0 -46 8.5 -61.5t26.5 -15.5q17 0 28.5 8t17.5 15l38 -57q-15 -18 -53 -34t-88 -16t-79.5 15t-44 38t-18.5 46q-5 -15 -23 -40.5t-53 -45.5t-93 -20zM327 76q32 0 54.5 26t34 63.5t11.5 70.5v370q-3 -28 -32 -54.5
t-65.5 -61t-64 -89t-27.5 -139.5q0 -92 23.5 -139t65.5 -47zM132 1135v70h436v-70h-436z" />
    <glyph glyph-name="Abreve" unicode="&#x102;" horiz-adv-x="690" 
d="M5 0v70h80l185 1332h119l205 -1332h95v-70h-370v70h81l-121 936v0l-121 -936h73v-70h-226zM161 296v66h237v-66h-237zM330 1497q-61 0 -99 27t-55 71t-17 93h68q4 -61 31 -91t72 -30t72.5 30t31.5 91h68q0 -49 -17 -93t-55 -71t-100 -27z" />
    <glyph glyph-name="abreve" unicode="&#x103;" horiz-adv-x="728" 
d="M274 -21q-63 0 -113 31t-79 90t-29 143q0 94 37.5 155.5t93.5 104t111.5 77t93.5 71.5t38 90q0 75 -12 128.5t-38 82t-69 28.5q-49 0 -80.5 -30.5t-31.5 -69.5q0 -24 8 -39t16 -31.5t8 -44.5q0 -39 -20.5 -63t-55.5 -24t-55.5 30.5t-20.5 83.5q0 76 33.5 136.5t93 95
t138.5 34.5t138.5 -34.5t93.5 -109.5t34 -198v-569q0 -46 8.5 -61.5t26.5 -15.5q17 0 28.5 8t17.5 15l38 -57q-15 -18 -53 -34t-88 -16t-79.5 15t-44 38t-18.5 46q-5 -15 -23 -40.5t-53 -45.5t-93 -20zM327 76q32 0 54.5 26t34 63.5t11.5 70.5v370q-3 -28 -32 -54.5
t-65.5 -61t-64 -89t-27.5 -139.5q0 -92 23.5 -139t65.5 -47zM349 1103q-61 0 -99 27t-55 71t-17 93h68q4 -61 31 -91t72 -30t72.5 30t31.5 91h68q0 -49 -17 -93t-55 -71t-100 -27z" />
    <glyph glyph-name="Aogonek" unicode="&#x104;" horiz-adv-x="690" 
d="M5 0v70h80l185 1332h119l205 -1332h95v-70h-370v70h81l-121 936v0l-121 -936h73v-70h-226zM161 296v66h237v-66h-237zM690 -298q-42 0 -80 14t-61.5 45t-23.5 80q0 50 24 85.5t56 59.5t56 37l28 -23q-21 -23 -43 -56.5t-22 -82.5q0 -46 31 -60t59 -14q25 0 53 6.5
t47 18.5l33 -60q-24 -21 -65.5 -35.5t-91.5 -14.5z" />
    <glyph glyph-name="aogonek" unicode="&#x105;" horiz-adv-x="728" 
d="M274 -21q-63 0 -113 31t-79 90t-29 143q0 94 37.5 155.5t93.5 104t111.5 77t93.5 71.5t38 90q0 75 -12 128.5t-38 82t-69 28.5q-49 0 -79.5 -30.5t-30.5 -69.5q0 -24 7.5 -40.5t15 -34t7.5 -45.5q0 -39 -20.5 -62.5t-55.5 -23.5t-56 30.5t-21 83.5q0 76 33.5 137t93.5 97
t139 36t138.5 -34.5t93.5 -109.5t34 -198v-569q0 -46 8.5 -61.5t26.5 -15.5q17 0 28.5 8t17.5 15l38 -57q-15 -18 -53 -34t-88 -16t-81 11t-46.5 30.5t-19.5 42.5q-5 -15 -21.5 -36.5t-50.5 -38t-92 -16.5zM327 76q32 0 54.5 26t34 63.5t11.5 70.5v370q-3 -28 -32 -54.5
t-65.5 -61t-64 -89t-27.5 -139.5q0 -92 23.5 -139t65.5 -47zM726 -263q-41 0 -79 14t-62 45t-24 81q0 49 24.5 85t56.5 60t55 37l29 -23q-22 -24 -44 -57.5t-22 -81.5q0 -47 31 -60.5t60 -13.5q24 0 52 6.5t47 17.5l33 -60q-24 -20 -65.5 -35t-91.5 -15z" />
    <glyph glyph-name="Cacute" unicode="&#x106;" horiz-adv-x="679" 
d="M406 -20q-150 0 -246 184t-96 534q0 132 22 260.5t65.5 233.5t109.5 167.5t154 62.5q60 0 105.5 -41t71 -102.5t25.5 -122.5q0 -53 -19 -82.5t-57 -29.5q-43 0 -62 25t-19 69q0 29 11 49.5t22 41.5t11 53q0 35 -16.5 51.5t-41.5 16.5q-40 0 -71 -41.5t-53.5 -111.5
t-37 -155.5t-21.5 -174.5t-7 -167q0 -115 8.5 -215t23.5 -180t37 -137t48.5 -87.5t58.5 -30.5q37 0 61.5 23t40 59t26.5 76l60 -32q-18 -53 -46.5 -97.5t-69.5 -71.5t-98 -27zM305 1443l-45 48l180 137q15 11 30 18.5t29 7.5q15 0 26.5 -7.5t18.5 -19.5q6 -11 6 -23
q0 -19 -16 -35.5t-41 -27.5z" />
    <glyph glyph-name="cacute" unicode="&#x107;" horiz-adv-x="637" 
d="M365 -21q-70 0 -127.5 42.5t-99 118t-64 176t-22.5 215.5q0 137 30 236.5t78 163.5t103.5 95.5t106.5 31.5q70 0 119 -39.5t74.5 -102t25.5 -131.5q0 -51 -20.5 -79t-54.5 -28q-35 0 -56 24.5t-21 64.5q0 26 9 41t18 31t9 43q0 50 -27.5 77t-65.5 27q-41 0 -67.5 -41
t-42.5 -107t-22.5 -145t-6.5 -155q0 -82 6.5 -166.5t23.5 -156t47 -115.5t76 -44q55 0 85 30.5t45 73.5l54 -45q-20 -47 -72 -91.5t-141 -44.5zM255 1082l-45 48l181 137q14 11 29 18.5t29 7.5q15 0 26.5 -7.5t18.5 -19.5q6 -11 6 -23q0 -19 -16 -35.5t-41 -27.5z" />
    <glyph glyph-name="ccircumflex" unicode="&#x109;" horiz-adv-x="637" 
d="M365 -21q-70 0 -127.5 42.5t-99 118t-64 176t-22.5 215.5q0 137 30 236.5t78 163.5t103.5 95.5t106.5 31.5q70 0 119 -39.5t74.5 -102t25.5 -131.5q0 -51 -20.5 -79t-54.5 -28q-35 0 -56 24.5t-21 64.5q0 26 9 41t18 31t9 43q0 50 -27.5 77t-65.5 27q-41 0 -67.5 -41
t-42.5 -107t-22.5 -145t-6.5 -155q0 -82 6.5 -166.5t23.5 -156t47 -115.5t76 -44q55 0 85 30.5t45 73.5l54 -45q-20 -47 -72 -91.5t-141 -44.5zM179 1125l147 205h71l146 -205h-79l-103 135l-103 -135h-79z" />
    <glyph glyph-name="Cdotaccent" unicode="&#x10a;" horiz-adv-x="679" 
d="M406 -20q-150 0 -246 184t-96 534q0 132 22 260.5t65.5 233.5t109.5 167.5t154 62.5q60 0 105.5 -41t71 -102.5t25.5 -122.5q0 -53 -19 -82.5t-57 -29.5q-43 0 -62 25t-19 69q0 29 11 49.5t22 41.5t11 53q0 35 -16.5 51.5t-41.5 16.5q-40 0 -71 -41.5t-53.5 -111.5
t-37 -155.5t-21.5 -174.5t-7 -167q0 -115 8.5 -215t23.5 -180t37 -137t48.5 -87.5t58.5 -30.5q37 0 61.5 23t40 59t26.5 76l60 -32q-18 -53 -46.5 -97.5t-69.5 -71.5t-98 -27zM411 1504q-32 0 -56.5 23.5t-24.5 55.5q0 33 24.5 57.5t56.5 24.5q31 0 55 -24.5t24 -57.5
q0 -32 -24 -55.5t-55 -23.5z" />
    <glyph glyph-name="cdotaccent" unicode="&#x10b;" horiz-adv-x="637" 
d="M365 -21q-70 0 -127.5 42.5t-99 118t-64 176t-22.5 215.5q0 137 30 236.5t78 163.5t103.5 95.5t106.5 31.5q70 0 119 -39.5t74.5 -102t25.5 -131.5q0 -51 -20.5 -79t-54.5 -28q-35 0 -56 24.5t-21 64.5q0 26 9 41t18 31t9 43q0 50 -27.5 77t-65.5 27q-41 0 -67.5 -41
t-42.5 -107t-22.5 -145t-6.5 -155q0 -82 6.5 -166.5t23.5 -156t47 -115.5t76 -44q55 0 85 30.5t45 73.5l54 -45q-20 -47 -72 -91.5t-141 -44.5zM361 1134q-32 0 -56.5 23.5t-24.5 55.5q0 33 24.5 57.5t56.5 24.5q31 0 55 -24.5t24 -57.5q0 -32 -24 -55.5t-55 -23.5z" />
    <glyph glyph-name="Ccaron" unicode="&#x10c;" horiz-adv-x="679" 
d="M406 -20q-150 0 -246 184t-96 534q0 132 22 260.5t65.5 233.5t109.5 167.5t154 62.5q60 0 105.5 -41t71 -102.5t25.5 -122.5q0 -53 -19 -82.5t-57 -29.5q-43 0 -62 25t-19 69q0 29 11 49.5t22 41.5t11 53q0 35 -16.5 51.5t-41.5 16.5q-40 0 -71 -41.5t-53.5 -111.5
t-37 -155.5t-21.5 -174.5t-7 -167q0 -115 8.5 -215t23.5 -180t37 -137t48.5 -87.5t58.5 -30.5q37 0 61.5 23t40 59t26.5 76l60 -32q-18 -53 -46.5 -97.5t-69.5 -71.5t-98 -27zM376 1469l-162 219h85l112 -148l112 148h85l-161 -219h-71z" />
    <glyph glyph-name="ccaron" unicode="&#x10d;" horiz-adv-x="637" 
d="M365 -21q-70 0 -127.5 42.5t-99 118t-64 176t-22.5 215.5q0 137 30 236.5t78 163.5t103.5 95.5t106.5 31.5q70 0 119 -39.5t74.5 -102t25.5 -131.5q0 -51 -20.5 -79t-54.5 -28q-35 0 -56 24.5t-21 64.5q0 26 9 41t18 31t9 43q0 50 -27.5 77t-65.5 27q-41 0 -67.5 -41
t-42.5 -107t-22.5 -145t-6.5 -155q0 -82 6.5 -166.5t23.5 -156t47 -115.5t76 -44q55 0 85 30.5t45 73.5l54 -45q-20 -47 -72 -91.5t-141 -44.5zM326 1106l-162 219h85l112 -148l112 148h85l-161 -219h-71z" />
    <glyph glyph-name="Dcaron" unicode="&#x10e;" horiz-adv-x="799" 
d="M51 0v70h93v1260h-93v70h335q96 0 177 -76t130 -229t49 -384q0 -233 -49.5 -391t-130.5 -239t-176 -81h-335zM325 70h42q50 0 95 68.5t73 210.5t28 362q0 197 -26 335t-66 211t-84 73h-62v-1260zM351 1469l-162 219h85l112 -148l112 148h85l-161 -219h-71z" />
    <glyph glyph-name="dcaron" unicode="&#x10f;" horiz-adv-x="877" 
d="M710 1184q11 46 15.5 103t4.5 108q0 50 19.5 69t43.5 19q25 0 42.5 -17.5t17.5 -59.5q0 -62 -24.5 -129t-58.5 -118zM327 -20q-70 0 -129 51t-94.5 169t-35.5 318q0 193 34.5 311.5t91 173t121.5 54.5q52 0 82 -19t44 -43.5t17 -41.5v476h-116v71h300v-1430h113v-70h-269
l-16 122q-2 -27 -19 -60.5t-47.5 -57.5t-76.5 -24zM360 91q29 0 50 38t33.5 95.5t14.5 115.5v408q-3 51 -17 94.5t-35 70t-48 26.5q-28 0 -48.5 -31t-33.5 -87.5t-19.5 -134.5t-6.5 -172q0 -102 7 -181t20 -133t34 -81.5t49 -27.5z" />
    <glyph glyph-name="Dcroat" unicode="&#x110;" horiz-adv-x="851" 
d="M48 683v70h416v-70h-416zM51 0v70h93v1260h-93v70h335q96 0 177 -76t130 -229t49 -384q0 -233 -49.5 -391t-130.5 -239t-176 -81h-335zM325 70h42q50 0 95 68.5t73 210.5t28 362q0 197 -26 335t-66 211t-84 73h-62v-1260z" />
    <glyph glyph-name="dcroat" unicode="&#x111;" horiz-adv-x="766" 
d="M199 1243v70h544v-70h-544zM327 -20q-70 0 -129 51t-94.5 169t-35.5 318q0 193 34.5 311.5t91 173t121.5 54.5q52 0 82 -19t44 -43.5t17 -41.5v476h-116v71h300v-1430h113v-70h-269l-16 122q-2 -27 -19 -60.5t-47.5 -57.5t-76.5 -24zM360 91q29 0 50 38t33.5 95.5
t14.5 115.5v408q-3 51 -17 94.5t-35 70t-48 26.5q-28 0 -48.5 -31t-33.5 -87.5t-19.5 -134.5t-6.5 -172q0 -102 7 -181t20 -133t34 -81.5t49 -27.5z" />
    <glyph glyph-name="Emacron" unicode="&#x112;" horiz-adv-x="703" 
d="M51 0v70h94v1260h-94v70h574v-304h-70q0 81 -11.5 133t-38 76.5t-72.5 24.5h-107v-594h185v95h68v-258h-68v93h-185v-596h107q46 0 72.5 25.5t38 78t11.5 133.5h70v-307h-574zM61 1538v70h604v-70h-604z" />
    <glyph glyph-name="emacron" unicode="&#x113;" horiz-adv-x="676" 
d="M353 -21q-75 0 -131 41t-93.5 114.5t-56.5 173.5t-19 218q0 137 25.5 237.5t68.5 166t95.5 97t107.5 31.5q65 0 115 -36.5t84 -99.5t51.5 -144.5t17.5 -172.5v-41.5t-2 -41.5h-394v70h222q0 133 -9 220.5t-29.5 131t-55.5 43.5q-33 0 -59 -43.5t-41 -138.5t-15 -249
q0 -114 6.5 -206.5t22 -158t42 -100t67.5 -34.5q65 0 102 36t51 71l60 -38q-20 -56 -84 -101.5t-149 -45.5zM128 1134v70h436v-70h-436z" />
    <glyph glyph-name="ebreve" unicode="&#x115;" horiz-adv-x="676" 
d="M353 -21q-75 0 -131 41t-93.5 114.5t-56.5 173.5t-19 218q0 137 25.5 237.5t68.5 166t95.5 97t107.5 31.5q65 0 115 -36.5t84 -99.5t51.5 -144.5t17.5 -172.5v-41.5t-2 -41.5h-394v70h222q0 133 -9 220.5t-29.5 131t-55.5 43.5q-33 0 -59 -43.5t-41 -138.5t-15 -249
q0 -114 6.5 -206.5t22 -158t42 -100t67.5 -34.5q65 0 102 36t51 71l60 -38q-20 -56 -84 -101.5t-149 -45.5zM345 1102q-61 0 -99 27t-55 71t-17 93h68q4 -61 31 -91t72 -30t72.5 30t31.5 91h68q0 -49 -17 -93t-55 -71t-100 -27z" />
    <glyph glyph-name="Edotaccent" unicode="&#x116;" horiz-adv-x="703" 
d="M51 0v70h94v1260h-94v70h574v-304h-70q0 81 -11.5 133t-38 76.5t-72.5 24.5h-107v-594h185v95h68v-258h-68v93h-185v-596h107q46 0 72.5 25.5t38 78t11.5 133.5h70v-307h-574zM363 1504q-32 0 -56.5 23.5t-24.5 55.5q0 33 24.5 57.5t56.5 24.5q31 0 55 -24.5t24 -57.5
q0 -32 -24 -55.5t-55 -23.5z" />
    <glyph glyph-name="edotaccent" unicode="&#x117;" horiz-adv-x="676" 
d="M353 -21q-75 0 -131 41t-93.5 114.5t-56.5 173.5t-19 218q0 137 25.5 237.5t68.5 166t95.5 97t107.5 31.5q65 0 115 -36.5t84 -99.5t51.5 -144.5t17.5 -172.5v-41.5t-2 -41.5h-394v70h222q0 133 -9 220.5t-29.5 131t-55.5 43.5q-33 0 -59 -43.5t-41 -138.5t-15 -249
q0 -114 6.5 -206.5t22 -158t42 -100t67.5 -34.5q65 0 102 36t51 71l60 -38q-20 -56 -84 -101.5t-149 -45.5zM347 1133q-32 0 -56.5 23.5t-24.5 55.5q0 33 24.5 57.5t56.5 24.5q31 0 55 -24.5t24 -57.5q0 -32 -24 -55.5t-55 -23.5z" />
    <glyph glyph-name="Eogonek" unicode="&#x118;" horiz-adv-x="703" 
d="M51 0v70h94v1260h-94v70h574v-304h-70q0 81 -11.5 133t-38 76.5t-72.5 24.5h-107v-594h185v95h68v-258h-68v93h-185v-596h107q46 0 72.5 25.5t38 78t11.5 133.5h70v-307h-574zM625 -298q-41 0 -79 14t-62 45t-24 80q0 50 24.5 85.5t56.5 59.5t55 37l29 -23
q-22 -23 -44 -56.5t-22 -82.5q0 -46 31 -60t60 -14q24 0 52 6.5t47 18.5l33 -60q-24 -21 -65.5 -35.5t-91.5 -14.5z" />
    <glyph glyph-name="eogonek" unicode="&#x119;" horiz-adv-x="676" 
d="M353 -21q-75 0 -131 41t-93.5 114.5t-56.5 173.5t-19 218q0 137 25.5 237.5t68.5 166t95.5 97t107.5 31.5q65 0 115 -36.5t84 -101.5t51.5 -151t17.5 -184v-41.5t-2 -41.5h-394v70h222q0 133 -9 225.5t-29.5 141t-55.5 48.5q-33 0 -59 -48.5t-41 -148.5t-15 -254
q0 -114 6.5 -204t22 -152.5t42 -95t67.5 -32.5q65 0 102 38.5t51 73.5l60 -38q-20 -56 -84 -101.5t-149 -45.5zM479 -284q-41 0 -79 14t-62 45t-24 81q0 49 24.5 85t56.5 60t55 37l29 -23q-22 -24 -44 -57.5t-22 -81.5q0 -47 31 -60.5t60 -13.5q24 0 52 6.5t47 17.5l33 -60
q-24 -20 -65.5 -35t-91.5 -15z" />
    <glyph glyph-name="Ecaron" unicode="&#x11a;" horiz-adv-x="703" 
d="M51 0v70h94v1260h-94v70h574v-304h-70q0 81 -11.5 133t-38 76.5t-72.5 24.5h-107v-594h185v95h68v-258h-68v93h-185v-596h107q46 0 72.5 25.5t38 78t11.5 133.5h70v-307h-574zM328 1469l-162 219h85l112 -148l112 148h85l-161 -219h-71z" />
    <glyph glyph-name="ecaron" unicode="&#x11b;" horiz-adv-x="676" 
d="M353 -21q-75 0 -131 41t-93.5 114.5t-56.5 173.5t-19 218q0 137 25.5 237.5t68.5 166t95.5 97t107.5 31.5q65 0 115 -36.5t84 -99.5t51.5 -144.5t17.5 -172.5v-41.5t-2 -41.5h-394v70h222q0 133 -9 220.5t-29.5 131t-55.5 43.5q-33 0 -59 -43.5t-41 -138.5t-15 -249
q0 -114 6.5 -206.5t22 -158t42 -100t67.5 -34.5q65 0 102 36t51 71l60 -38q-20 -56 -84 -101.5t-149 -45.5zM312 1105l-162 219h85l112 -148l112 148h85l-161 -219h-71z" />
    <glyph glyph-name="gcircumflex" unicode="&#x11d;" horiz-adv-x="750" 
d="M370 -498q-88 0 -160.5 33t-115.5 93t-43 140q0 65 21 109t50 71t55 41t36 18q-8 2 -28.5 10.5t-43.5 27.5t-39.5 50t-16.5 76q0 38 14 65.5t35 43.5t40 20q4 1 10.5 2t8.5 1q-9 7 -26.5 30t-35.5 63t-31 99.5t-13 140.5q0 119 26.5 199.5t69 130t92.5 71t97 21.5
q90 0 151.5 -51t93.5 -142.5t32 -213.5q0 -121 -25.5 -202t-67 -129t-91 -68.5t-97.5 -20.5q-51 0 -80.5 11.5t-36.5 14.5q-1 0 -2 0.5t-3 0.5q-17 0 -34 -18t-17 -48q0 -43 43.5 -69.5t162.5 -46.5q145 -22 220 -89.5t75 -198.5q0 -79 -30.5 -133.5t-79.5 -88t-105.5 -49
t-110.5 -15.5zM370 -431q72 0 116 53t44 127q0 85 -24 126t-89 64q-20 9 -42 17.5t-41 15t-30 9.5q-27 -14 -49.5 -43.5t-36 -70.5t-13.5 -93q0 -56 19 -102.5t55.5 -74.5t90.5 -28zM368 303q27 0 49.5 25t36.5 99t14 220q0 142 -13.5 214.5t-36 98.5t-48.5 26t-49 -26
t-37.5 -100t-14.5 -218q0 -145 14.5 -217.5t37.5 -97t47 -24.5zM471 987q10 64 59.5 101.5t103.5 37.5q47 0 66 -22t19 -56q0 -32 -17.5 -50.5t-46.5 -18.5q-26 0 -37 12t-19.5 24t-27.5 12q-13 0 -23.5 -10t-10.5 -32zM187 1125l147 205h71l146 -205h-79l-103 135
l-103 -135h-79z" />
    <glyph glyph-name="Gbreve" unicode="&#x11e;" horiz-adv-x="770" 
d="M411 -20q-95 0 -173 80t-124 239.5t-46 398.5q0 234 53 395t135.5 244t171.5 83q71 0 120.5 -37t75.5 -97t26 -130q0 -55 -20.5 -83.5t-59.5 -28.5q-40 0 -60 28.5t-20 70.5q0 28 11 47.5t21.5 39.5t10.5 49q0 28 -24.5 51.5t-62.5 23.5q-53 0 -90 -61.5t-60 -160.5
t-34 -213.5t-11 -220.5q0 -157 13.5 -277.5t36 -203t52 -124.5t62.5 -42q24 0 40.5 8.5t24.5 17.5v486h-84v70h337v-70h-87v-563h-66q-1 3 -9.5 9t-22.5 6q-15 0 -32 -8.5t-41.5 -17.5t-63.5 -9zM413 1497q-61 0 -99 27t-55 71t-17 93h68q4 -61 31 -91t72 -30t72.5 30
t31.5 91h68q0 -49 -17 -93t-55 -71t-100 -27z" />
    <glyph glyph-name="gbreve" unicode="&#x11f;" horiz-adv-x="750" 
d="M370 -498q-88 0 -160.5 33t-115.5 93t-43 140q0 65 21 109t50 71t55 41t36 18q-8 2 -28.5 10.5t-43.5 27.5t-39.5 50t-16.5 76q0 38 14 65.5t35 43.5t40 20q4 1 10.5 2t8.5 1q-9 7 -26.5 30t-35.5 63t-31 99.5t-13 140.5q0 119 26.5 199.5t69 130t92.5 71t97 21.5
q90 0 151.5 -51t93.5 -142.5t32 -213.5q0 -121 -25.5 -202t-67 -129t-91 -68.5t-97.5 -20.5q-51 0 -80.5 11.5t-36.5 14.5q-1 0 -2 0.5t-3 0.5q-17 0 -34 -18t-17 -48q0 -43 43.5 -69.5t162.5 -46.5q145 -22 220 -89.5t75 -198.5q0 -79 -30.5 -133.5t-79.5 -88t-105.5 -49
t-110.5 -15.5zM370 -431q72 0 116 53t44 127q0 85 -24 126t-89 64q-20 9 -42 17.5t-41 15t-30 9.5q-27 -14 -49.5 -43.5t-36 -70.5t-13.5 -93q0 -56 19 -102.5t55.5 -74.5t90.5 -28zM368 303q27 0 49.5 25t36.5 99t14 220q0 142 -13.5 214.5t-36 98.5t-48.5 26t-49 -26
t-37.5 -100t-14.5 -218q0 -145 14.5 -217.5t37.5 -97t47 -24.5zM471 987q10 64 59.5 101.5t103.5 37.5q47 0 66 -22t19 -56q0 -32 -17.5 -50.5t-46.5 -18.5q-26 0 -37 12t-19.5 24t-27.5 12q-13 0 -23.5 -10t-10.5 -32zM367 1103q-61 0 -99 27t-55 71t-17 93h68
q4 -61 31 -91t72 -30t72.5 30t31.5 91h68q0 -49 -17 -93t-55 -71t-100 -27z" />
    <glyph glyph-name="Gdotaccent" unicode="&#x120;" horiz-adv-x="770" 
d="M411 -20q-95 0 -173 80t-124 239.5t-46 398.5q0 234 53 395t135.5 244t171.5 83q71 0 120.5 -37t75.5 -97t26 -130q0 -55 -20.5 -83.5t-59.5 -28.5q-40 0 -60 28.5t-20 70.5q0 28 11 47.5t21.5 39.5t10.5 49q0 28 -24.5 51.5t-62.5 23.5q-53 0 -90 -61.5t-60 -160.5
t-34 -213.5t-11 -220.5q0 -157 13.5 -277.5t36 -203t52 -124.5t62.5 -42q24 0 40.5 8.5t24.5 17.5v486h-84v70h337v-70h-87v-563h-66q-1 3 -9.5 9t-22.5 6q-15 0 -32 -8.5t-41.5 -17.5t-63.5 -9zM415 1504q-32 0 -56.5 23.5t-24.5 55.5q0 33 24.5 57.5t56.5 24.5
q31 0 55 -24.5t24 -57.5q0 -32 -24 -55.5t-55 -23.5z" />
    <glyph glyph-name="gdotaccent" unicode="&#x121;" horiz-adv-x="750" 
d="M370 -498q-88 0 -160.5 33t-115.5 93t-43 140q0 65 21 109t50 71t55 41t36 18q-8 2 -28.5 10.5t-43.5 27.5t-39.5 50t-16.5 76q0 38 14 65.5t35 43.5t40 20q4 1 10.5 2t8.5 1q-9 7 -26.5 30t-35.5 63t-31 99.5t-13 140.5q0 119 26.5 199.5t69 130t92.5 71t97 21.5
q90 0 151.5 -51t93.5 -142.5t32 -213.5q0 -121 -25.5 -202t-67 -129t-91 -68.5t-97.5 -20.5q-51 0 -80.5 11.5t-36.5 14.5q-1 0 -2 0.5t-3 0.5q-17 0 -34 -18t-17 -48q0 -43 43.5 -69.5t162.5 -46.5q145 -22 220 -89.5t75 -198.5q0 -79 -30.5 -133.5t-79.5 -88t-105.5 -49
t-110.5 -15.5zM370 -431q72 0 116 53t44 127q0 85 -24 126t-89 64q-20 9 -42 17.5t-41 15t-30 9.5q-27 -14 -49.5 -43.5t-36 -70.5t-13.5 -93q0 -56 19 -102.5t55.5 -74.5t90.5 -28zM368 303q27 0 49.5 25t36.5 99t14 220q0 142 -13.5 214.5t-36 98.5t-48.5 26t-49 -26
t-37.5 -100t-14.5 -218q0 -145 14.5 -217.5t37.5 -97t47 -24.5zM471 987q10 64 59.5 101.5t103.5 37.5q47 0 66 -22t19 -56q0 -32 -17.5 -50.5t-46.5 -18.5q-26 0 -37 12t-19.5 24t-27.5 12q-13 0 -23.5 -10t-10.5 -32zM369 1134q-32 0 -56.5 23.5t-24.5 55.5
q0 33 24.5 57.5t56.5 24.5q31 0 55 -24.5t24 -57.5q0 -32 -24 -55.5t-55 -23.5z" />
    <glyph glyph-name="uni0122" unicode="&#x122;" horiz-adv-x="770" 
d="M411 -20q-95 0 -173 80t-124 239.5t-46 398.5q0 234 53 395t135.5 244t171.5 83q71 0 120.5 -37t75.5 -97t26 -130q0 -55 -20.5 -83.5t-59.5 -28.5q-40 0 -60 28.5t-20 70.5q0 28 11 47.5t21.5 39.5t10.5 49q0 28 -24.5 51.5t-62.5 23.5q-53 0 -90 -61.5t-60 -160.5
t-34 -213.5t-11 -220.5q0 -157 13.5 -277.5t36 -203t52 -124.5t62.5 -42q24 0 40.5 8.5t24.5 17.5v486h-84v70h337v-70h-87v-563h-66q-1 3 -9.5 9t-22.5 6q-15 0 -32 -8.5t-41.5 -17.5t-63.5 -9zM407 -350l-36 43q10 4 30 20.5t24 30.5q-2 -3 -11 -3q-30 0 -50.5 21
t-20.5 51t21.5 50.5t50.5 20.5q34 0 56.5 -22t22.5 -62q0 -39 -15 -68t-35.5 -49t-36.5 -33z" />
    <glyph glyph-name="uni0123" unicode="&#x123;" horiz-adv-x="750" 
d="M370 -498q-88 0 -160.5 33t-115.5 93t-43 140q0 65 21 109t50 71t55 41t36 18q-8 2 -28.5 10.5t-43.5 27.5t-39.5 50t-16.5 76q0 38 14 65.5t35 43.5t40 20q4 1 10.5 2t8.5 1q-9 7 -26.5 30t-35.5 63t-31 99.5t-13 140.5q0 119 26.5 199.5t69 130t92.5 71t97 21.5
q90 0 151.5 -51t93.5 -142.5t32 -213.5q0 -121 -25.5 -202t-67 -129t-91 -68.5t-97.5 -20.5q-51 0 -80.5 11.5t-36.5 14.5q-1 0 -2 0.5t-3 0.5q-17 0 -34 -18t-17 -48q0 -43 43.5 -69.5t162.5 -46.5q145 -22 220 -89.5t75 -198.5q0 -79 -30.5 -133.5t-79.5 -88t-105.5 -49
t-110.5 -15.5zM370 -431q72 0 116 53t44 127q0 85 -24 126t-89 64q-20 9 -42 17.5t-41 15t-30 9.5q-27 -14 -49.5 -43.5t-36 -70.5t-13.5 -93q0 -56 19 -102.5t55.5 -74.5t90.5 -28zM368 303q27 0 49.5 25t36.5 99t14 220q0 142 -13.5 214.5t-36 98.5t-48.5 26t-49 -26
t-37.5 -100t-14.5 -218q0 -145 14.5 -217.5t37.5 -97t47 -24.5zM471 987q10 64 59.5 101.5t103.5 37.5q47 0 66 -22t19 -56q0 -32 -17.5 -50.5t-46.5 -18.5q-26 0 -37 12t-19.5 24t-27.5 12q-13 0 -23.5 -10t-10.5 -32zM379 1350l37 -38q-10 -4 -32.5 -24t-26.5 -34
q4 5 15 5q30 0 50.5 -21t20.5 -51t-21 -50.5t-51 -20.5q-34 0 -57.5 22t-23.5 62q0 39 15 68t36 49.5t38 32.5z" />
    <glyph glyph-name="hcircumflex" unicode="&#x125;" horiz-adv-x="829" 
d="M33 0v70h103v1360h-103v70h283v-556q2 11 23.5 39t61.5 52t94 24q55 0 102 -28t76 -98.5t29 -199.5v-663h104v-70h-360v70h76v646q0 125 -21 174.5t-66 49.5q-30 0 -56.5 -26t-43.5 -70.5t-19 -99.5v-674h79v-70h-362zM236 1578l147 205h71l146 -205h-79l-103 135
l-103 -135h-79z" />
    <glyph glyph-name="Hbar" unicode="&#x126;" horiz-adv-x="885" 
d="M81 1014v70h741v-70h-741zM51 0v70h93v1260h-93v70h345v-70h-73v-574h237v574h-72v70h342v-70h-95v-1260h95v-70h-342v70h72v616h-237v-616h73v-70h-345z" />
    <glyph glyph-name="hbar" unicode="&#x127;" horiz-adv-x="829" 
d="M31 1243v70h544v-70h-544zM33 0v70h103v1360h-103v70h283v-556q2 11 23.5 39t61.5 52t94 24q55 0 102 -28t76 -98.5t29 -199.5v-663h104v-70h-360v70h76v646q0 125 -21 174.5t-66 49.5q-30 0 -56.5 -26t-43.5 -70.5t-19 -99.5v-674h79v-70h-362z" />
    <glyph glyph-name="Itilde" unicode="&#x128;" horiz-adv-x="502" 
d="M66 0v70h95v1260h-95v70h371v-70h-97v-1260h97v-70h-371zM339 1483q-40 0 -66 15.5t-47 30.5t-45 15q-32 0 -48.5 -17t-21.5 -28l-69 31q6 18 23 42t43.5 42t59.5 18q42 0 68 -15.5t48 -31t50 -15.5q30 0 43.5 15t19.5 27l67 -35q-4 -15 -20.5 -37t-43 -39.5t-61.5 -17.5
z" />
    <glyph glyph-name="itilde" unicode="&#x129;" horiz-adv-x="449" 
d="M33 0v70h104v907h-104v70h284v-977h106v-70h-390zM314 1134q-40 0 -66 15.5t-47 30.5t-45 15q-32 0 -48.5 -17t-21.5 -28l-69 31q6 18 23 42t43.5 42t59.5 18q42 0 68 -15.5t48 -31t50 -15.5q30 0 43.5 15t19.5 27l67 -35q-4 -15 -20.5 -37t-43 -39.5t-61.5 -17.5z" />
    <glyph glyph-name="Imacron" unicode="&#x12a;" horiz-adv-x="502" 
d="M66 0v70h95v1260h-95v70h371v-70h-97v-1260h97v-70h-371zM-49 1538v70h604v-70h-604z" />
    <glyph glyph-name="imacron" unicode="&#x12b;" horiz-adv-x="449" 
d="M33 0v70h104v907h-104v70h284v-977h106v-70h-390zM9 1135v70h436v-70h-436z" />
    <glyph glyph-name="ibreve" unicode="&#x12d;" horiz-adv-x="449" 
d="M33 0v70h104v907h-104v70h284v-977h106v-70h-390zM226 1103q-61 0 -99 27t-55 71t-17 93h68q4 -61 31 -91t72 -30t72.5 30t31.5 91h68q0 -49 -17 -93t-55 -71t-100 -27z" />
    <glyph glyph-name="Iogonek" unicode="&#x12e;" horiz-adv-x="502" 
d="M66 0v70h95v1260h-95v70h371v-70h-97v-1260h97v-70h-371zM438 -298q-42 0 -80 14t-61.5 45t-23.5 80q0 50 24 85.5t56 59.5t56 37l28 -23q-21 -23 -43 -56.5t-22 -82.5q0 -46 31 -60t59 -14q25 0 53 6.5t47 18.5l33 -60q-24 -21 -65.5 -35.5t-91.5 -14.5z" />
    <glyph glyph-name="iogonek" unicode="&#x12f;" horiz-adv-x="488" 
d="M235 1210q-51 0 -89.5 37.5t-38.5 88.5q0 53 38.5 91.5t89.5 38.5q50 0 88 -38.5t38 -91.5q0 -33 -17.5 -62t-46.5 -46.5t-62 -17.5zM33 0v70h104v907h-104v70h284v-977h106v-70h-390zM423 -298q-41 0 -79 14t-62 45t-24 80q0 50 24.5 85.5t56.5 59.5t55 37l29 -23
q-22 -23 -44 -56.5t-22 -82.5q0 -46 31 -60t60 -14q24 0 52 6.5t47 18.5l33 -60q-24 -21 -65.5 -35.5t-91.5 -14.5z" />
    <glyph glyph-name="Idotaccent" unicode="&#x130;" horiz-adv-x="502" 
d="M66 0v70h95v1260h-95v70h371v-70h-97v-1260h97v-70h-371zM253 1504q-32 0 -56.5 23.5t-24.5 55.5q0 33 24.5 57.5t56.5 24.5q31 0 55 -24.5t24 -57.5q0 -32 -24 -55.5t-55 -23.5z" />
    <glyph glyph-name="dotlessi" unicode="&#x131;" horiz-adv-x="449" 
d="M33 0v70h104v907h-104v70h284v-977h106v-70h-390z" />
    <glyph glyph-name="jcircumflex" unicode="&#x135;" horiz-adv-x="458" 
d="M88 -498q-57 0 -98 32t-63.5 87t-22.5 125q0 53 23.5 81.5t59.5 28.5q34 0 52 -24.5t18 -66.5q0 -29 -7 -49t-14 -38t-7 -41q0 -22 6 -36t17.5 -20.5t26.5 -6.5q51 0 72.5 58.5t21.5 172.5v1172h-114v70h294v-1118q0 -122 -23 -204.5t-61.5 -131.5t-85.5 -70t-95 -21z
M70 1124l147 205h71l146 -205h-79l-103 135l-103 -135h-79z" />
    <glyph glyph-name="uni0136" unicode="&#x136;" horiz-adv-x="801" 
d="M37 0v70h93v1260h-93v70h370v-70h-99v-565l282 565h-87v70h243v-70h-75l-254 -515l11 67l258 -812h78v-70h-340v70h67l-208 654l25 -9v-645h77v-70h-348zM391 -350l-36 43q10 4 30 20.5t24 30.5q-2 -3 -11 -3q-30 0 -50.5 21t-20.5 51t21.5 50.5t50.5 20.5q34 0 56.5 -22
t22.5 -62q0 -39 -15 -68t-35.5 -49t-36.5 -33z" />
    <glyph glyph-name="uni0137" unicode="&#x137;" horiz-adv-x="793" 
d="M33 0v70h103v1360h-103v70h283v-824l202 301h-92v70h275v-70h-100l-131 -214l237 -693h87v-70h-367v70h84l-179 523l-16 -40v-483h76v-70h-359zM394 -350l-36 43q10 4 30 20.5t24 30.5q-2 -3 -11 -3q-30 0 -50.5 21t-20.5 51t21.5 50.5t50.5 20.5q34 0 56.5 -22t22.5 -62
q0 -39 -15 -68t-35.5 -49t-36.5 -33z" />
    <glyph glyph-name="kgreenlandic" unicode="&#x138;" horiz-adv-x="801" 
d="M37 0v70h93v906h-93v70h370v-70h-99v-393l284 393h-89v70h243v-70h-75l-254 -367l11 50l258 -589h78v-70h-340v70h68l-209 471l25 -6v-465h77v-70h-348z" />
    <glyph glyph-name="Lacute" unicode="&#x139;" horiz-adv-x="650" 
d="M59 0v70h90v1260h-90v70h361v-70h-92v-1260h87q34 0 56.5 26t34 78.5t11.5 132.5h70v-307h-528zM133 1443l-45 48l180 137q15 11 30 18.5t29 7.5q15 0 26.5 -7.5t18.5 -19.5q6 -11 6 -23q0 -19 -16 -35.5t-41 -27.5z" />
    <glyph glyph-name="lacute" unicode="&#x13a;" horiz-adv-x="455" 
d="M38 0v70h100v1360h-100v70h279v-1430h101v-70h-380zM125 1535l-45 48l181 137q14 11 29 18.5t29 7.5q15 0 26.5 -7.5t18.5 -19.5q6 -11 6 -23q0 -19 -16 -35.5t-41 -27.5z" />
    <glyph glyph-name="uni013B" unicode="&#x13b;" horiz-adv-x="650" 
d="M59 0v70h90v1260h-90v70h361v-70h-92v-1260h87q34 0 56.5 26t34 78.5t11.5 132.5h70v-307h-528zM326 -350l-36 43q10 4 30 20.5t24 30.5q-2 -3 -11 -3q-30 0 -50.5 21t-20.5 51t21.5 50.5t50.5 20.5q34 0 56.5 -22t22.5 -62q0 -39 -15 -68t-35.5 -49t-36.5 -33z" />
    <glyph glyph-name="uni013C" unicode="&#x13c;" horiz-adv-x="455" 
d="M38 0v70h100v1360h-100v70h279v-1430h101v-70h-380zM222 -350l-36 43q10 4 30 20.5t24 30.5q-2 -3 -11 -3q-30 0 -50.5 21t-20.5 51t21.5 50.5t50.5 20.5q34 0 56.5 -22t22.5 -62q0 -39 -15 -68t-35.5 -49t-36.5 -33z" />
    <glyph glyph-name="Lcaron" unicode="&#x13d;" horiz-adv-x="667" 
d="M502 1184q12 46 16.5 103t4.5 108q0 50 19 69t44 19t42 -17.5t17 -59.5q0 -62 -24.5 -129t-57.5 -118zM59 0v70h90v1260h-90v70h361v-70h-92v-1260h87q34 0 56.5 26t34 78.5t11.5 132.5h70v-307h-528z" />
    <glyph glyph-name="lcaron" unicode="&#x13e;" horiz-adv-x="549" 
d="M381 1184q11 46 15.5 103t4.5 108q0 50 19.5 69t43.5 19q25 0 42.5 -17.5t17.5 -59.5q0 -62 -24.5 -129t-58.5 -118zM38 0v70h100v1360h-100v70h279v-1430h101v-70h-380z" />
    <glyph glyph-name="ldot" unicode="&#x140;" horiz-adv-x="503" 
d="M38 0v70h100v1360h-100v70h279v-1430h101v-70h-380zM491 695q-47 0 -80 34t-33 81q0 48 33 81.5t80 33.5t80.5 -33.5t33.5 -81.5q0 -47 -33.5 -81t-80.5 -34z" />
    <glyph glyph-name="Lslash" unicode="&#x141;" horiz-adv-x="694" 
d="M45 430v81l465 360v-81zM59 0v70h90v1260h-90v70h361v-70h-92v-1260h87q34 0 56.5 26t34 78.5t11.5 132.5h70v-307h-528z" />
    <glyph glyph-name="lslash" unicode="&#x142;" horiz-adv-x="481" 
d="M27 426v86l388 352v-80zM38 0v70h100v1360h-100v70h279v-1430h101v-70h-380z" />
    <glyph glyph-name="Nacute" unicode="&#x143;" horiz-adv-x="814" 
d="M31 0v70h93v1260h-93v70h309l291 -999h-9v929h-90v70h251v-70h-89v-1330h-134l-375 1280h11v-1210h97v-70h-262zM304 1443l-45 48l180 137q15 11 30 18.5t29 7.5q15 0 26.5 -7.5t18.5 -19.5q6 -11 6 -23q0 -19 -16 -35.5t-41 -27.5z" />
    <glyph glyph-name="nacute" unicode="&#x144;" horiz-adv-x="817" 
d="M33 0v70h105v907h-105v70h280v-105q5 20 27 47.5t60 48t89 20.5q52 0 98 -24.5t75 -92t29 -198.5v-673h103v-70h-364v70h81v661q0 115 -20 166.5t-65 51.5q-23 0 -42.5 -16.5t-34 -45t-22.5 -64.5t-9 -75v-678h79v-70h-364zM314 1082l-45 48l181 137q14 11 29 18.5
t29 7.5q15 0 26.5 -7.5t18.5 -19.5q6 -11 6 -23q0 -19 -16 -35.5t-41 -27.5z" />
    <glyph glyph-name="uni0145" unicode="&#x145;" horiz-adv-x="814" 
d="M31 0v70h93v1260h-93v70h309l291 -999h-9v929h-90v70h251v-70h-89v-1330h-134l-375 1280h11v-1210h97v-70h-262zM401 -350l-36 43q10 4 30 20.5t24 30.5q-2 -3 -11 -3q-30 0 -50.5 21t-20.5 51t21.5 50.5t50.5 20.5q34 0 56.5 -22t22.5 -62q0 -39 -15 -68t-35.5 -49
t-36.5 -33z" />
    <glyph glyph-name="uni0146" unicode="&#x146;" horiz-adv-x="817" 
d="M33 0v70h105v907h-105v70h280v-105q5 20 27 47.5t60 48t89 20.5q52 0 98 -24.5t75 -92t29 -198.5v-673h103v-70h-364v70h81v661q0 115 -20 166.5t-65 51.5q-23 0 -42.5 -16.5t-34 -45t-22.5 -64.5t-9 -75v-678h79v-70h-364zM411 -350l-36 43q10 4 30 20.5t24 30.5
q-2 -3 -11 -3q-30 0 -50.5 21t-20.5 51t21.5 50.5t50.5 20.5q34 0 56.5 -22t22.5 -62q0 -39 -15 -68t-35.5 -49t-36.5 -33z" />
    <glyph glyph-name="Ncaron" unicode="&#x147;" horiz-adv-x="814" 
d="M31 0v70h93v1260h-93v70h309l291 -999h-9v929h-90v70h251v-70h-89v-1330h-134l-375 1280h11v-1210h97v-70h-262zM375 1469l-162 219h85l112 -148l112 148h85l-161 -219h-71z" />
    <glyph glyph-name="ncaron" unicode="&#x148;" horiz-adv-x="817" 
d="M33 0v70h105v907h-105v70h280v-105q5 20 27 47.5t60 48t89 20.5q52 0 98 -24.5t75 -92t29 -198.5v-673h103v-70h-364v70h81v661q0 115 -20 166.5t-65 51.5q-23 0 -42.5 -16.5t-34 -45t-22.5 -64.5t-9 -75v-678h79v-70h-364zM384 1106l-162 219h85l112 -148l112 148h85
l-161 -219h-71z" />
    <glyph glyph-name="Eng" unicode="&#x14a;" horiz-adv-x="814" 
d="M516 -393q-51 0 -85.5 27t-52.5 76.5t-18 117.5q0 50 22 72.5t51 22.5q24 0 44 -16.5t20 -58.5q0 -35 -11.5 -50t-11.5 -51q0 -29 12.5 -49.5t35.5 -20.5q33 0 55 28.5t33 78.5t11 115v171h73v-161q0 -84 -15.5 -141.5t-41.5 -93t-57.5 -51.5t-63.5 -16zM31 0v70h93v1260
h-93v70h309l291 -999h-9v929h-90v70h251v-70h-89v-1330h-134l-375 1280h11v-1210h97v-70h-262z" />
    <glyph glyph-name="eng" unicode="&#x14b;" horiz-adv-x="797" 
d="M430 -429q-77 0 -116 62.5t-39 158.5q0 47 18 74t50 27q30 0 46.5 -25.5t16.5 -63.5q0 -25 -8 -40t-16.5 -27.5t-8.5 -30.5q0 -25 8 -39t21.5 -20t29.5 -6q26 0 44 22.5t28.5 60.5t15 85.5t4.5 98.5v799q0 110 -18 170t-67 60q-27 0 -47 -19.5t-32.5 -50.5t-18.5 -63.5
t-6 -58.5v-675h89v-70h-372v70h103v907h-103v70h278v-100q8 16 30 41t56 45t78 20q64 0 111 -27t73 -97t26 -197v-800q0 -131 -38 -210.5t-100 -115t-136 -35.5z" />
    <glyph glyph-name="Omacron" unicode="&#x14c;" horiz-adv-x="784" 
d="M393 -22q-101 0 -175 89t-114 250t-40 381q0 221 40 383.5t114 251.5t175 89q102 0 177 -89t116 -251.5t41 -383.5q0 -220 -41 -381t-116 -250t-177 -89zM393 48q37 0 64 45t44.5 130.5t26 205.5t8.5 269q0 150 -8.5 270.5t-26 206t-44.5 131.5t-64 46q-36 0 -62.5 -46
t-43 -131.5t-24.5 -206t-8 -270.5q0 -149 8 -269t24.5 -205.5t43 -130.5t62.5 -45zM93 1538v70h604v-70h-604z" />
    <glyph glyph-name="omacron" unicode="&#x14d;" horiz-adv-x="705" 
d="M350 -22q-57 0 -110.5 35.5t-95.5 105t-66.5 172t-24.5 236.5q0 147 26 248.5t68.5 164t95.5 90.5t107 28q53 0 106 -28t96 -90.5t69.5 -164t26.5 -248.5q0 -134 -25 -236.5t-67 -172t-95.5 -105t-110.5 -35.5zM350 55q51 0 82.5 113t31.5 359q0 244 -31.5 350t-82.5 106
t-82.5 -106t-31.5 -350q0 -246 31.5 -359t82.5 -113zM133 1135v70h436v-70h-436z" />
    <glyph glyph-name="obreve" unicode="&#x14f;" horiz-adv-x="705" 
d="M350 -22q-57 0 -110.5 35.5t-95.5 105t-66.5 172t-24.5 236.5q0 147 26 248.5t68.5 164t95.5 90.5t107 28q53 0 106 -28t96 -90.5t69.5 -164t26.5 -248.5q0 -134 -25 -236.5t-67 -172t-95.5 -105t-110.5 -35.5zM350 55q51 0 82.5 113t31.5 359q0 244 -31.5 350t-82.5 106
t-82.5 -106t-31.5 -350q0 -246 31.5 -359t82.5 -113zM349 1103q-61 0 -99 27t-55 71t-17 93h68q4 -61 31 -91t72 -30t72.5 30t31.5 91h68q0 -49 -17 -93t-55 -71t-100 -27z" />
    <glyph glyph-name="Ohungarumlaut" unicode="&#x150;" horiz-adv-x="784" 
d="M393 -22q-101 0 -175 89t-114 250t-40 381q0 221 40 383.5t114 251.5t175 89q102 0 177 -89t116 -251.5t41 -383.5q0 -220 -41 -381t-116 -250t-177 -89zM393 48q37 0 64 45t44.5 130.5t26 205.5t8.5 269q0 150 -8.5 270.5t-26 206t-44.5 131.5t-64 46q-36 0 -62.5 -46
t-43 -131.5t-24.5 -206t-8 -270.5q0 -149 8 -269t24.5 -205.5t43 -130.5t62.5 -45zM363 1488l-44 45l117 140q14 16 26 24.5t24 8.5q18 0 30 -12t12 -30q0 -27 -30 -49zM382 1488l-43 45l115 140q14 17 26.5 25t24.5 8q18 0 30 -12.5t12 -29.5q0 -27 -30 -49z" />
    <glyph glyph-name="ohungarumlaut" unicode="&#x151;" horiz-adv-x="705" 
d="M350 -22q-57 0 -110.5 35.5t-95.5 105t-66.5 172t-24.5 236.5q0 147 26 248.5t68.5 164t95.5 90.5t107 28q53 0 106 -28t96 -90.5t69.5 -164t26.5 -248.5q0 -134 -25 -236.5t-67 -172t-95.5 -105t-110.5 -35.5zM350 55q51 0 82.5 113t31.5 359q0 244 -31.5 350t-82.5 106
t-82.5 -106t-31.5 -350q0 -246 31.5 -359t82.5 -113zM274 1124l-44 45l117 140q14 16 26 24.5t24 8.5q18 0 30 -12t12 -30q0 -27 -30 -49zM293 1124l-43 45l115 140q14 17 26.5 25t24.5 8q18 0 30 -12.5t12 -29.5q0 -27 -30 -49z" />
    <glyph glyph-name="OE" unicode="&#x152;" horiz-adv-x="1064" 
d="M397 -22q-101 0 -176 95t-116 257.5t-41 367.5q0 206 41.5 369.5t117 259t176.5 95.5q46 0 91 -18.5t73 -57.5l-39 -66q-17 41 -47.5 56.5t-53.5 15.5q-49 0 -83.5 -52.5t-55 -143.5t-30 -209t-9.5 -249q0 -130 9.5 -247.5t30.5 -208t54.5 -142.5t82.5 -52
q28 0 50.5 13.5t37 34t19.5 40.5l46 -64q-31 -47 -76 -70.5t-102 -23.5zM497 0v1400h489v-304h-70q0 81 -6.5 133t-33.5 76.5t-91 24.5h-109v-574h220v95h70v-258h-70v93h-220v-616h103q66 0 94.5 25.5t35.5 78t7 133.5h70v-307h-489z" />
    <glyph glyph-name="oe" unicode="&#x153;" horiz-adv-x="1096" 
d="M350 -22q-57 0 -110.5 35.5t-95.5 105t-66.5 172t-24.5 236.5q0 147 26 248.5t68.5 164t95.5 90.5t107 28q53 0 106 -28t96 -90.5t69.5 -164t26.5 -248.5q0 -134 -25 -236.5t-67 -172t-95.5 -105t-110.5 -35.5zM350 55q51 0 82.5 113t31.5 359q0 244 -31.5 350t-82.5 106
t-82.5 -106t-31.5 -350q0 -246 31.5 -359t82.5 -113zM773 -21q-74 0 -130.5 41t-94 114.5t-56 173.5t-18.5 218q0 137 25 237.5t68 166t96 97t108 31.5q65 0 115 -36.5t84 -99.5t51.5 -144.5t17.5 -172.5q0 -21 -0.5 -41.5t-1.5 -41.5h-395v70h223q0 133 -9.5 220.5t-30 131
t-54.5 43.5t-60 -43.5t-40.5 -138.5t-14.5 -249q0 -114 6.5 -206.5t22 -158t42 -100t66.5 -34.5q65 0 102 36t52 71l60 -38q-20 -56 -84 -101.5t-150 -45.5z" />
    <glyph glyph-name="Racute" unicode="&#x154;" horiz-adv-x="858" 
d="M709 -16q-75 0 -110.5 38t-45.5 103.5t-10 148.5q0 51 2 101.5t2 89.5q0 91 -12.5 138t-46.5 65t-99 18h-52v-616h99v-70h-379v70h102v1260h-102v70h395q82 0 147.5 -33.5t103 -105t37.5 -186.5q0 -86 -22 -150.5t-58.5 -107.5t-81 -66t-89.5 -29q97 -3 148.5 -37.5
t71 -102.5t19.5 -173q0 -52 -2.5 -104t-2.5 -99q0 -30 2.5 -64.5t10 -58.5t21.5 -24q10 0 16.5 10.5t6.5 23.5h65q-4 -37 -22 -61.5t-47 -36t-67 -11.5zM337 756h69q53 0 86.5 42.5t50 114t16.5 158.5q0 82 -14 140t-45.5 88.5t-86.5 30.5h-76v-574zM326 1443l-45 48
l180 137q15 11 30 18.5t29 7.5q15 0 26.5 -7.5t18.5 -19.5q6 -11 6 -23q0 -19 -16 -35.5t-41 -27.5z" />
    <glyph glyph-name="racute" unicode="&#x155;" horiz-adv-x="636" 
d="M26 0v70h104v907h-104v70h269l10 -95q3 13 22 38.5t51 46.5t75 21q53 0 86.5 -35.5t49.5 -95.5t16 -134q0 -56 -20.5 -85.5t-56.5 -29.5q-33 0 -53 24.5t-20 69.5q0 28 10 45t20 34.5t10 47.5q0 42 -15 60.5t-43 18.5q-34 0 -63 -31t-46.5 -85t-17.5 -122v-670h105v-70
h-389zM283 1082l-45 48l181 137q14 11 29 18.5t29 7.5q15 0 26.5 -7.5t18.5 -19.5q6 -11 6 -23q0 -19 -16 -35.5t-41 -27.5z" />
    <glyph glyph-name="uni0156" unicode="&#x156;" horiz-adv-x="858" 
d="M709 -16q-75 0 -110.5 38t-45.5 103.5t-10 148.5q0 51 2 101.5t2 89.5q0 91 -12.5 138t-46.5 65t-99 18h-52v-616h99v-70h-379v70h102v1260h-102v70h395q82 0 147.5 -33.5t103 -105t37.5 -186.5q0 -86 -22 -150.5t-58.5 -107.5t-81 -66t-89.5 -29q97 -3 148.5 -37.5
t71 -102.5t19.5 -173q0 -52 -2.5 -104t-2.5 -99q0 -30 2.5 -64.5t10 -58.5t21.5 -24q10 0 16.5 10.5t6.5 23.5h65q-4 -37 -22 -61.5t-47 -36t-67 -11.5zM337 756h69q53 0 86.5 42.5t50 114t16.5 158.5q0 82 -14 140t-45.5 88.5t-86.5 30.5h-76v-574zM423 -350l-36 43
q10 4 30 20.5t24 30.5q-2 -3 -11 -3q-30 0 -50.5 21t-20.5 51t21.5 50.5t50.5 20.5q34 0 56.5 -22t22.5 -62q0 -39 -15 -68t-35.5 -49t-36.5 -33z" />
    <glyph glyph-name="uni0157" unicode="&#x157;" horiz-adv-x="636" 
d="M26 0v70h104v907h-104v70h269l10 -95q3 13 22 38.5t51 46.5t75 21q53 0 86.5 -35.5t49.5 -95.5t16 -134q0 -56 -20.5 -85.5t-56.5 -29.5q-33 0 -53 24.5t-20 69.5q0 28 10 45t20 34.5t10 47.5q0 42 -15 60.5t-43 18.5q-34 0 -63 -31t-46.5 -85t-17.5 -122v-670h105v-70
h-389zM267 -350l-36 43q10 4 30 20.5t24 30.5q-2 -3 -11 -3q-30 0 -50.5 21t-20.5 51t21.5 50.5t50.5 20.5q34 0 56.5 -22t22.5 -62q0 -39 -15 -68t-35.5 -49t-36.5 -33z" />
    <glyph glyph-name="Rcaron" unicode="&#x158;" horiz-adv-x="858" 
d="M709 -16q-75 0 -110.5 38t-45.5 103.5t-10 148.5q0 51 2 101.5t2 89.5q0 91 -12.5 138t-46.5 65t-99 18h-52v-616h99v-70h-379v70h102v1260h-102v70h395q82 0 147.5 -33.5t103 -105t37.5 -186.5q0 -86 -22 -150.5t-58.5 -107.5t-81 -66t-89.5 -29q97 -3 148.5 -37.5
t71 -102.5t19.5 -173q0 -52 -2.5 -104t-2.5 -99q0 -30 2.5 -64.5t10 -58.5t21.5 -24q10 0 16.5 10.5t6.5 23.5h65q-4 -37 -22 -61.5t-47 -36t-67 -11.5zM337 756h69q53 0 86.5 42.5t50 114t16.5 158.5q0 82 -14 140t-45.5 88.5t-86.5 30.5h-76v-574zM397 1469l-162 219h85
l112 -148l112 148h85l-161 -219h-71z" />
    <glyph glyph-name="rcaron" unicode="&#x159;" horiz-adv-x="636" 
d="M26 0v70h104v907h-104v70h269l10 -95q3 13 22 38.5t51 46.5t75 21q53 0 86.5 -35.5t49.5 -95.5t16 -134q0 -56 -20.5 -85.5t-56.5 -29.5q-33 0 -53 24.5t-20 69.5q0 28 10 45t20 34.5t10 47.5q0 42 -15 60.5t-43 18.5q-34 0 -63 -31t-46.5 -85t-17.5 -122v-670h105v-70
h-389zM354 1106l-162 219h85l112 -148l112 148h85l-161 -219h-71z" />
    <glyph glyph-name="Sacute" unicode="&#x15a;" horiz-adv-x="640" 
d="M338 -27q-49 0 -79.5 12.5t-49.5 29.5t-32 29.5t-26 12.5q-24 0 -24 -57h-63v317h70q1 -26 10.5 -61t26 -71.5t40.5 -68t56 -51t71 -19.5q46 0 71.5 22.5t35.5 63.5t10 97q0 66 -26.5 132t-71.5 134.5t-102 141.5q-76 100 -117 182t-56.5 153.5t-15.5 139.5
q0 99 33 168.5t88 105.5t119 36q57 0 85.5 -18t44 -36.5t30.5 -18.5q13 0 19 11t7 40h63v-315h-70q-2 36 -13.5 81.5t-32.5 87.5t-53.5 69t-75.5 27q-56 0 -86.5 -41t-30.5 -116q0 -54 18.5 -110.5t59.5 -123t107 -151.5q64 -78 111 -157.5t72.5 -162.5t25.5 -173
q0 -93 -19.5 -158t-53.5 -105.5t-79 -59.5t-97 -19zM222 1443l-45 48l180 137q15 11 30 18.5t29 7.5q15 0 26.5 -7.5t18.5 -19.5q6 -11 6 -23q0 -19 -16 -35.5t-41 -27.5z" />
    <glyph glyph-name="sacute" unicode="&#x15b;" horiz-adv-x="567" 
d="M292 -22q-55 0 -83.5 14t-43 27.5t-28.5 13.5q-13 0 -18 -8.5t-5 -24.5h-61v307h73q5 -58 17.5 -106t32.5 -82t48 -52.5t65 -18.5q35 0 56.5 18t31.5 46t10 60q0 48 -16.5 92.5t-49.5 91.5t-84 101q-73 77 -125 159t-52 201q0 83 31.5 136t81.5 79t105 26q42 0 67 -10.5
t40 -21t26 -10.5q8 0 12.5 7t5.5 24h63v-298h-72q-4 53 -14 97t-27 75.5t-41 48.5t-56 17q-48 0 -73 -36t-25 -88q0 -63 37.5 -117.5t107.5 -126.5q54 -58 96 -115.5t66 -121.5t24 -141q0 -85 -27.5 -143.5t-77.5 -89t-118 -30.5zM188 1082l-45 48l181 137q14 11 29 18.5
t29 7.5q15 0 26.5 -7.5t18.5 -19.5q6 -11 6 -23q0 -19 -16 -35.5t-41 -27.5z" />
    <glyph glyph-name="scircumflex" unicode="&#x15d;" horiz-adv-x="567" 
d="M292 -22q-55 0 -83.5 14t-43 27.5t-28.5 13.5q-13 0 -18 -8.5t-5 -24.5h-61v307h73q5 -58 17.5 -106t32.5 -82t48 -52.5t65 -18.5q35 0 56.5 18t31.5 46t10 60q0 48 -16.5 92.5t-49.5 91.5t-84 101q-73 77 -125 159t-52 201q0 83 31.5 136t81.5 79t105 26q42 0 67 -10.5
t40 -21t26 -10.5q8 0 12.5 7t5.5 24h63v-298h-72q-4 53 -14 97t-27 75.5t-41 48.5t-56 17q-48 0 -73 -36t-25 -88q0 -63 37.5 -117.5t107.5 -126.5q54 -58 96 -115.5t66 -121.5t24 -141q0 -85 -27.5 -143.5t-77.5 -89t-118 -30.5zM111 1125l147 205h71l146 -205h-79
l-103 135l-103 -135h-79z" />
    <glyph glyph-name="Scedilla" unicode="&#x15e;" horiz-adv-x="640" 
d="M338 -27q-49 0 -79.5 12.5t-49.5 29.5t-32 29.5t-26 12.5q-24 0 -24 -57h-63v317h70q1 -26 10.5 -61t26 -71.5t40.5 -68t56 -51t71 -19.5q46 0 71.5 22.5t35.5 63.5t10 97q0 66 -26.5 132t-71.5 134.5t-102 141.5q-76 100 -117 182t-56.5 153.5t-15.5 139.5
q0 99 33 168.5t88 105.5t119 36q57 0 85.5 -18t44 -36.5t30.5 -18.5q13 0 19 11t7 40h63v-315h-70q-2 36 -13.5 81.5t-32.5 87.5t-53.5 69t-75.5 27q-56 0 -86.5 -41t-30.5 -116q0 -54 18.5 -110.5t59.5 -123t107 -151.5q64 -78 111 -157.5t72.5 -162.5t25.5 -173
q0 -93 -19.5 -158t-53.5 -105.5t-79 -59.5t-97 -19zM348 -308q-52 0 -92.5 10.5t-55.5 18.5l26 63q10 -7 43 -17.5t74 -10.5q32 0 55.5 15.5t23.5 43.5q0 31 -15.5 41t-37.5 10q-16 0 -33 -7t-29 -21l-66 4l61 158h70l-45 -105q5 7 28.5 16.5t55.5 9.5q39 0 72.5 -23.5
t33.5 -83.5q0 -42 -24 -69.5t-63 -40t-82 -12.5z" />
    <glyph glyph-name="scedilla" unicode="&#x15f;" horiz-adv-x="567" 
d="M292 -22q-55 0 -83.5 14t-43 27.5t-28.5 13.5q-13 0 -18 -8.5t-5 -24.5h-61v307h68q5 -58 16.5 -106t31.5 -82t49.5 -52.5t70.5 -18.5q35 0 56.5 18t31.5 46t10 60q0 48 -16.5 92.5t-49.5 91.5t-84 101q-73 77 -125 159t-52 201q0 75 31.5 129t81.5 83t105 29
q42 0 67 -10.5t40 -21t26 -10.5q8 0 12.5 7t5.5 24h63v-298h-67q-4 53 -13.5 97t-26.5 75.5t-42.5 48.5t-60.5 17q-48 0 -73 -36t-25 -88q0 -63 37.5 -117.5t107.5 -126.5q54 -58 96 -115.5t66 -121.5t24 -141q0 -116 -60.5 -189.5t-162.5 -73.5zM304 -308q-52 0 -92.5 10.5
t-55.5 18.5l26 63q10 -7 43 -17.5t74 -10.5q32 0 55.5 15.5t23.5 43.5q0 31 -15.5 41t-37.5 10q-16 0 -33 -7t-29 -21l-66 4l61 158h70l-45 -105q5 7 28.5 16.5t55.5 9.5q39 0 72.5 -23.5t33.5 -83.5q0 -42 -24 -69.5t-63 -40t-82 -12.5z" />
    <glyph glyph-name="Scaron" unicode="&#x160;" horiz-adv-x="640" 
d="M338 -27q-49 0 -79.5 12.5t-49.5 29.5t-32 29.5t-26 12.5q-24 0 -24 -57h-63v317h70q1 -26 10.5 -61t26 -71.5t40.5 -68t56 -51t71 -19.5q46 0 71.5 22.5t35.5 63.5t10 97q0 66 -26.5 132t-71.5 134.5t-102 141.5q-76 100 -117 182t-56.5 153.5t-15.5 139.5
q0 99 33 168.5t88 105.5t119 36q57 0 85.5 -18t44 -36.5t30.5 -18.5q13 0 19 11t7 40h63v-315h-70q-2 36 -13.5 81.5t-32.5 87.5t-53.5 69t-75.5 27q-56 0 -86.5 -41t-30.5 -116q0 -54 18.5 -110.5t59.5 -123t107 -151.5q64 -78 111 -157.5t72.5 -162.5t25.5 -173
q0 -93 -19.5 -158t-53.5 -105.5t-79 -59.5t-97 -19zM293 1469l-162 219h85l112 -148l112 148h85l-161 -219h-71z" />
    <glyph glyph-name="scaron" unicode="&#x161;" horiz-adv-x="567" 
d="M292 -22q-55 0 -83.5 14t-43 27.5t-28.5 13.5q-13 0 -18 -8.5t-5 -24.5h-61v307h73q5 -58 17.5 -106t32.5 -82t48 -52.5t65 -18.5q35 0 56.5 18t31.5 46t10 60q0 48 -16.5 92.5t-49.5 91.5t-84 101q-73 77 -125 159t-52 201q0 83 31.5 136t81.5 79t105 26q42 0 67 -10.5
t40 -21t26 -10.5q8 0 12.5 7t5.5 24h63v-298h-72q-4 53 -14 97t-27 75.5t-41 48.5t-56 17q-48 0 -73 -36t-25 -88q0 -63 37.5 -117.5t107.5 -126.5q54 -58 96 -115.5t66 -121.5t24 -141q0 -85 -27.5 -143.5t-77.5 -89t-118 -30.5zM258 1106l-162 219h85l112 -148l112 148h85
l-161 -219h-71z" />
    <glyph glyph-name="uni0162" unicode="&#x162;" horiz-adv-x="757" 
d="M175 0v70h115v1260h-59q-55 0 -81 -21.5t-34 -72.5t-8 -140h-70v304h681v-304h-70q0 89 -7.5 140t-33.5 72.5t-81 21.5h-58v-1260h118v-70h-412zM390 -308q-51 0 -92 10.5t-56 18.5l26 63q11 -7 44 -17.5t74 -10.5q31 0 55 15.5t24 43.5q0 31 -15.5 41t-37.5 10
q-16 0 -33.5 -7t-29.5 -21l-66 4l61 158h70l-44 -105q4 7 28 16.5t56 9.5q38 0 71.5 -23.5t33.5 -83.5q0 -42 -24 -69.5t-62.5 -40t-82.5 -12.5z" />
    <glyph glyph-name="uni0163" unicode="&#x163;" horiz-adv-x="495" 
d="M329 -18q-49 0 -94 16.5t-73 61.5t-28 131v786h-132v70h132q29 20 51.5 66.5t37 105.5t18.5 119h73v-291h154v-70h-154v-850q0 -42 18 -56t35 -14q20 0 34.5 7.5t21.5 16.5l41 -55q-22 -19 -56 -31.5t-79 -12.5zM326 -296q-52 0 -92.5 10.5t-55.5 18.5l26 63
q10 -7 43 -17.5t74 -10.5q32 0 55.5 15.5t23.5 43.5q0 31 -15.5 41t-37.5 10q-16 0 -33 -7t-29 -21l-66 4l61 158h70l-45 -105q5 7 28.5 16.5t55.5 9.5q39 0 72.5 -23.5t33.5 -83.5q0 -42 -24 -69.5t-63 -40t-82 -12.5z" />
    <glyph glyph-name="Tcaron" unicode="&#x164;" horiz-adv-x="757" 
d="M175 0v70h115v1260h-59q-55 0 -81 -21.5t-34 -72.5t-8 -140h-70v304h681v-304h-70q0 89 -7.5 140t-33.5 72.5t-81 21.5h-58v-1260h118v-70h-412zM347 1479l-162 219h85l112 -148l112 148h85l-161 -219h-71z" />
    <glyph glyph-name="tcaron" unicode="&#x165;" horiz-adv-x="555" 
d="M416 1184q11 46 15.5 103t4.5 108q0 50 19.5 69t43.5 19q25 0 42.5 -17.5t17.5 -59.5q0 -62 -24.5 -129t-58.5 -118zM329 -18q-49 0 -94 16.5t-73 61.5t-28 131v786h-132v70h132q29 20 51.5 66.5t37 105.5t18.5 119h73v-291h154v-70h-154v-850q0 -42 18 -56t35 -14
q20 0 34.5 7.5t21.5 16.5l41 -55q-22 -19 -56 -31.5t-79 -12.5z" />
    <glyph glyph-name="Tbar" unicode="&#x166;" horiz-adv-x="757" 
d="M123 666v70h511v-70h-511zM175 0v70h115v1260h-59q-55 0 -81 -21.5t-34 -72.5t-8 -140h-70v304h681v-304h-70q0 89 -7.5 140t-33.5 72.5t-81 21.5h-58v-1260h118v-70h-412z" />
    <glyph glyph-name="tbar" unicode="&#x167;" horiz-adv-x="495" 
d="M23 617v60h426v-60h-426zM329 -18q-49 0 -94 16.5t-73 61.5t-28 131v786h-132v70h132q29 20 51.5 66.5t37 105.5t18.5 119h73v-291h154v-70h-154v-850q0 -42 18 -56t35 -14q20 0 34.5 7.5t21.5 16.5l41 -55q-22 -19 -56 -31.5t-79 -12.5z" />
    <glyph glyph-name="Utilde" unicode="&#x168;" horiz-adv-x="777" 
d="M406 -24q-47 0 -95 15t-88 52t-64.5 104t-24.5 172v1011h-97v70h382v-70h-102v-1012q0 -142 34 -201t96 -59q26 0 49.5 11.5t41.5 38.5t28 74t10 118v1030h-86v70h251v-70h-94v-1040q0 -119 -31 -188t-85 -97.5t-125 -28.5zM485 1483q-40 0 -66 15.5t-47 30.5t-45 15
q-32 0 -48.5 -17t-21.5 -28l-69 31q6 18 23 42t43.5 42t59.5 18q42 0 68 -15.5t48 -31t50 -15.5q30 0 43.5 15t19.5 27l67 -35q-4 -15 -20.5 -37t-43 -39.5t-61.5 -17.5z" />
    <glyph glyph-name="utilde" unicode="&#x169;" horiz-adv-x="790" 
d="M336 -22q-58 0 -107 24t-78.5 89.5t-29.5 192.5v693h-103v69h283v-743q0 -93 10.5 -141.5t29.5 -66t46 -17.5q34 0 59.5 35t39 96t13.5 138v630h-95v69h275v-976h90v-70h-248l-10 113q-4 -26 -26 -57.5t-59.5 -54.5t-89.5 -23zM490 1134q-40 0 -66 15.5t-47 30.5t-45 15
q-32 0 -48.5 -17t-21.5 -28l-69 31q6 18 23 42t43.5 42t59.5 18q42 0 68 -15.5t48 -31t50 -15.5q30 0 43.5 15t19.5 27l67 -35q-4 -15 -20.5 -37t-43 -39.5t-61.5 -17.5z" />
    <glyph glyph-name="Umacron" unicode="&#x16a;" horiz-adv-x="777" 
d="M406 -24q-47 0 -95 15t-88 52t-64.5 104t-24.5 172v1011h-97v70h382v-70h-102v-1012q0 -142 34 -201t96 -59q26 0 49.5 11.5t41.5 38.5t28 74t10 118v1030h-86v70h251v-70h-94v-1040q0 -119 -31 -188t-85 -97.5t-125 -28.5zM97 1538v70h604v-70h-604z" />
    <glyph glyph-name="umacron" unicode="&#x16b;" horiz-adv-x="790" 
d="M336 -22q-58 0 -107 24t-78.5 89.5t-29.5 192.5v693h-103v69h283v-743q0 -93 10.5 -141.5t29.5 -66t46 -17.5q34 0 59.5 35t39 96t13.5 138v630h-95v69h275v-976h90v-70h-248l-10 113q-4 -26 -26 -57.5t-59.5 -54.5t-89.5 -23zM185 1135v70h436v-70h-436z" />
    <glyph glyph-name="ubreve" unicode="&#x16d;" horiz-adv-x="790" 
d="M336 -22q-58 0 -107 24t-78.5 89.5t-29.5 192.5v693h-103v69h283v-743q0 -93 10.5 -141.5t29.5 -66t46 -17.5q34 0 59.5 35t39 96t13.5 138v630h-95v69h275v-976h90v-70h-248l-10 113q-4 -26 -26 -57.5t-59.5 -54.5t-89.5 -23zM402 1103q-61 0 -99 27t-55 71t-17 93h68
q4 -61 31 -91t72 -30t72.5 30t31.5 91h68q0 -49 -17 -93t-55 -71t-100 -27z" />
    <glyph glyph-name="Uring" unicode="&#x16e;" horiz-adv-x="777" 
d="M406 -24q-47 0 -95 15t-88 52t-64.5 104t-24.5 172v1011h-97v70h382v-70h-102v-1012q0 -142 34 -201t96 -59q26 0 49.5 11.5t41.5 38.5t28 74t10 118v1030h-86v70h251v-70h-94v-1040q0 -119 -31 -188t-85 -97.5t-125 -28.5zM399 1465q-45 0 -77 32.5t-32 85.5
q0 55 32 86.5t77 31.5q43 0 75 -31.5t32 -86.5q0 -53 -32 -85.5t-75 -32.5zM399 1518q25 0 36.5 20t11.5 47q0 22 -11.5 42t-36.5 20q-26 0 -38 -20t-12 -42q0 -27 12 -47t38 -20z" />
    <glyph glyph-name="uring" unicode="&#x16f;" horiz-adv-x="790" 
d="M336 -22q-58 0 -107 24t-78.5 89.5t-29.5 192.5v693h-103v69h283v-743q0 -93 10.5 -141.5t29.5 -66t46 -17.5q34 0 59.5 35t39 96t13.5 138v630h-95v69h275v-976h90v-70h-248l-10 113q-4 -26 -26 -57.5t-59.5 -54.5t-89.5 -23zM404 1096q-45 0 -77 32.5t-32 85.5
q0 55 32 86.5t77 31.5q43 0 75 -31.5t32 -86.5q0 -53 -32 -85.5t-75 -32.5zM404 1149q25 0 36.5 20t11.5 47q0 22 -11.5 42t-36.5 20q-26 0 -38 -20t-12 -42q0 -27 12 -47t38 -20z" />
    <glyph glyph-name="Uhungarumlaut" unicode="&#x170;" horiz-adv-x="777" 
d="M406 -24q-47 0 -95 15t-88 52t-64.5 104t-24.5 172v1011h-97v70h382v-70h-102v-1012q0 -142 34 -201t96 -59q26 0 49.5 11.5t41.5 38.5t28 74t10 118v1030h-86v70h251v-70h-94v-1040q0 -119 -31 -188t-85 -97.5t-125 -28.5zM367 1488l-44 45l117 140q14 16 26 24.5
t24 8.5q18 0 30 -12t12 -30q0 -27 -30 -49zM386 1488l-43 45l115 140q14 17 26.5 25t24.5 8q18 0 30 -12.5t12 -29.5q0 -27 -30 -49z" />
    <glyph glyph-name="uhungarumlaut" unicode="&#x171;" horiz-adv-x="790" 
d="M336 -22q-58 0 -107 24t-78.5 89.5t-29.5 192.5v693h-103v69h283v-743q0 -93 10.5 -141.5t29.5 -66t46 -17.5q34 0 59.5 35t39 96t13.5 138v630h-95v69h275v-976h90v-70h-248l-10 113q-4 -26 -26 -57.5t-59.5 -54.5t-89.5 -23zM327 1124l-44 45l117 140q14 16 26 24.5
t24 8.5q18 0 30 -12t12 -30q0 -27 -30 -49zM346 1124l-43 45l115 140q14 17 26.5 25t24.5 8q18 0 30 -12.5t12 -29.5q0 -27 -30 -49z" />
    <glyph glyph-name="Uogonek" unicode="&#x172;" horiz-adv-x="777" 
d="M406 -24q-47 0 -95 15t-88 52t-64.5 104t-24.5 172v1011h-97v70h382v-70h-102v-1012q0 -142 34 -201t96 -59q26 0 49.5 11.5t41.5 38.5t28 74t10 118v1030h-86v70h251v-70h-94v-1040q0 -119 -31 -188t-85 -97.5t-125 -28.5zM553 -279q-42 0 -80 14t-61.5 45t-23.5 80
q0 50 24 85.5t56 60t56 36.5l28 -23q-21 -23 -43 -56.5t-22 -82.5q0 -46 31 -60t59 -14q25 0 53 6.5t47 18.5l33 -60q-24 -21 -65.5 -35.5t-91.5 -14.5z" />
    <glyph glyph-name="uogonek" unicode="&#x173;" horiz-adv-x="790" 
d="M336 -22q-58 0 -107 24t-78.5 89.5t-29.5 192.5v693h-103v69h283v-743q0 -93 10.5 -141.5t29.5 -66t46 -17.5q34 0 59.5 35t39 96t13.5 138v630h-95v69h275v-976h90v-70h-248l-10 113q-4 -26 -26 -57.5t-59.5 -54.5t-89.5 -23zM770 -298q-42 0 -80 14t-61.5 45t-23.5 80
q0 50 24 85.5t56 59.5t56 37l28 -23q-21 -23 -43 -56.5t-22 -82.5q0 -46 31 -60t59 -14q25 0 53 6.5t47 18.5l33 -60q-24 -21 -65.5 -35.5t-91.5 -14.5z" />
    <glyph glyph-name="Wcircumflex" unicode="&#x174;" horiz-adv-x="1112" 
d="M311 -2l-193 1332h-103v70h387v-70h-76l105 -926l-25 -51l140 942l21 -156l-38 191h-87v70h372v-70h-86l119 -914l-18 -51l121 965h-81v70h243v-70h-85l-190 -1332h-94l-173 1125l33 56l-198 -1181h-94zM399 1463l147 205h71l146 -205h-79l-103 135l-103 -135h-79z" />
    <glyph glyph-name="wcircumflex" unicode="&#x175;" horiz-adv-x="1046" 
d="M672 -3l-169 980h-81v70h339v-70h-71l90 -645l96 645h-65v70h221v-70h-77l-164 -980h-119zM259 -3l-163 980h-79v70h344v-70h-72l80 -645l100 645h-42v70h202v-70h-82l-169 -980h-119zM350 1125l147 205h71l146 -205h-79l-103 135l-103 -135h-79z" />
    <glyph glyph-name="Ycircumflex" unicode="&#x176;" horiz-adv-x="767" 
d="M197 0v70h102v518l-182 742h-94v70h374v-70h-76l154 -687h-58l169 687h-80v70h249v-70h-94l-182 -715v-545h99v-70h-381zM202 1463l147 205h71l146 -205h-79l-103 135l-103 -135h-79z" />
    <glyph glyph-name="ycircumflex" unicode="&#x177;" horiz-adv-x="675" 
d="M199 -502q-45 0 -74 32.5t-43.5 88t-14.5 125.5q0 53 20.5 81.5t54.5 28.5q35 0 54 -25t19 -67q0 -33 -11.5 -54t-23 -39t-11.5 -46q0 -25 9 -46t28 -21q11 0 18.5 10t14 30.5t12.5 52.5l74 355l-225 973h-83v70h351v-70h-76l120 -572l110 572h-74v70h228v-70h-76
l-205 -984l-78 -361q-8 -43 -23 -73t-37.5 -45.5t-57.5 -15.5zM164 1124l147 205h71l146 -205h-79l-103 135l-103 -135h-79z" />
    <glyph glyph-name="Ydieresis" unicode="&#x178;" horiz-adv-x="767" 
d="M197 0v70h102v518l-182 742h-94v70h374v-70h-76l154 -687h-58l169 687h-80v70h249v-70h-94l-182 -715v-545h99v-70h-381zM501 1501q-32 0 -56 23.5t-24 54.5q0 35 24 59.5t56 24.5t56 -24.5t24 -59.5q0 -31 -24 -54.5t-56 -23.5zM266 1501q-31 0 -55 23.5t-24 54.5
q0 35 24 59.5t55 24.5q33 0 57 -24.5t24 -59.5q0 -31 -24 -54.5t-57 -23.5z" />
    <glyph glyph-name="Zacute" unicode="&#x179;" horiz-adv-x="680" 
d="M59 0v70l341 1260h-79q-77 0 -114 -24.5t-48.5 -76.5t-11.5 -133h-70v304h521v-69l-345 -1261h107q70 0 111.5 25.5t60 78t18.5 133.5h70v-307h-561zM243 1443l-45 48l180 137q15 11 30 18.5t29 7.5q15 0 26.5 -7.5t18.5 -19.5q6 -11 6 -23q0 -19 -16 -35.5t-41 -27.5z
" />
    <glyph glyph-name="zacute" unicode="&#x17a;" horiz-adv-x="604" 
d="M76 0v70l267 907h-96q-47 0 -68 -17.5t-25.5 -67t-4.5 -143.5h-68v298h446v-70l-267 -907h91q52 0 73.5 19t26.5 70.5t5 147.5h70v-307h-450zM198 1082l-45 48l181 137q14 11 29 18.5t29 7.5q15 0 26.5 -7.5t18.5 -19.5q6 -11 6 -23q0 -19 -16 -35.5t-41 -27.5z" />
    <glyph glyph-name="Zdotaccent" unicode="&#x17b;" horiz-adv-x="680" 
d="M59 0v70l341 1260h-79q-77 0 -114 -24.5t-48.5 -76.5t-11.5 -133h-70v304h521v-69l-345 -1261h107q70 0 111.5 25.5t60 78t18.5 133.5h70v-307h-561zM349 1504q-32 0 -56.5 23.5t-24.5 55.5q0 33 24.5 57.5t56.5 24.5q31 0 55 -24.5t24 -57.5q0 -32 -24 -55.5t-55 -23.5z
" />
    <glyph glyph-name="zdotaccent" unicode="&#x17c;" horiz-adv-x="604" 
d="M76 0v70l267 907h-96q-47 0 -68 -17.5t-25.5 -67t-4.5 -143.5h-68v298h446v-70l-267 -907h91q52 0 73.5 19t26.5 70.5t5 147.5h70v-307h-450zM304 1134q-32 0 -56.5 23.5t-24.5 55.5q0 33 24.5 57.5t56.5 24.5q31 0 55 -24.5t24 -57.5q0 -32 -24 -55.5t-55 -23.5z" />
    <glyph glyph-name="Zcaron" unicode="&#x17d;" horiz-adv-x="680" 
d="M59 0v70l341 1260h-79q-77 0 -114 -24.5t-48.5 -76.5t-11.5 -133h-70v304h521v-69l-345 -1261h107q70 0 111.5 25.5t60 78t18.5 133.5h70v-307h-561zM314 1469l-162 219h85l112 -148l112 148h85l-161 -219h-71z" />
    <glyph glyph-name="zcaron" unicode="&#x17e;" horiz-adv-x="604" 
d="M76 0v70l267 907h-96q-47 0 -68 -17.5t-25.5 -67t-4.5 -143.5h-68v298h446v-70l-267 -907h91q52 0 73.5 19t26.5 70.5t5 147.5h70v-307h-450zM269 1106l-162 219h85l112 -148l112 148h85l-161 -219h-71z" />
    <glyph glyph-name="uni018F" unicode="&#x18f;" horiz-adv-x="784" 
d="M383 -25q-76 0 -135 49.5t-99.5 140t-61 214t-20.5 271.5q0 28 1 56.5t2 55.5h482v-70h-292q0 -204 11 -349t38.5 -221.5t73.5 -76.5t79.5 71t52.5 211t19 348q0 156 -6 281t-23.5 214t-51 136.5t-87.5 47.5q-57 0 -98 -28t-67.5 -66.5t-39.5 -71.5l-71 45q21 49 63 94
t100.5 74t125.5 29q93 0 159 -55t108 -155t61.5 -235.5t19.5 -296.5q0 -182 -28.5 -316t-77 -222t-110 -131.5t-128.5 -43.5zM67 1188v212h69q0 -30 5.5 -61t17.5 -31l2 -120h-94z" />
    <glyph glyph-name="florin" unicode="&#x192;" horiz-adv-x="679" 
d="M30 -420q-51 0 -87.5 21.5t-55 61.5t-18.5 96q0 40 15.5 64t45.5 24q31 0 45.5 -17t14.5 -46q0 -22 -6.5 -33t-13 -20t-6.5 -28q0 -21 8.5 -38t28.5 -17q29 0 49 31.5t33 81.5t21 108.5t12 112.5l73 995h-104v70h107l4 52q14 165 52.5 254t95 123.5t122.5 34.5
q58 0 100 -33.5t64.5 -90.5t22.5 -127q0 -53 -20 -83.5t-56 -30.5q-33 0 -52.5 29t-19.5 73q0 28 10.5 47t21 35t10.5 36q0 37 -19.5 54t-50.5 17q-48 0 -73 -47.5t-36.5 -127t-18.5 -173.5l-3 -42h116v-70h-123l-69 -956q-4 -55 -11.5 -115.5t-22.5 -118.5t-41 -104.5
t-66.5 -74.5t-98.5 -28z" />
    <glyph glyph-name="Ohorn" unicode="&#x1a0;" horiz-adv-x="784" 
d="M393 -22q-101 0 -175 89t-114 250t-40 381q0 221 40 383.5t114 251.5t175 89q102 0 177 -89t116 -251.5t41 -383.5q0 -220 -41 -381t-116 -250t-177 -89zM393 48q37 0 64 45t44.5 130.5t26 205.5t8.5 269q0 150 -8.5 270.5t-26 206t-44.5 131.5t-64 46q-36 0 -62.5 -46
t-43 -131.5t-24.5 -206t-8 -270.5q0 -149 8 -269t24.5 -205.5t43 -130.5t62.5 -45zM515 1314v70q47 0 85.5 12.5t38.5 61.5q0 19 -5.5 43.5t-5.5 43.5q0 33 17 52t47 19q31 0 47.5 -18.5t16.5 -52.5q0 -93 -39.5 -143t-95.5 -69t-106 -19z" />
    <glyph glyph-name="ohorn" unicode="&#x1a1;" horiz-adv-x="705" 
d="M350 -22q-57 0 -110.5 35.5t-95.5 105t-66.5 172t-24.5 236.5q0 147 26 248.5t68.5 164t95.5 90.5t107 28q53 0 106 -28t96 -90.5t69.5 -164t26.5 -248.5q0 -134 -25 -236.5t-67 -172t-95.5 -105t-110.5 -35.5zM350 55q51 0 82.5 113t31.5 359q0 244 -31.5 350t-82.5 106
t-82.5 -106t-31.5 -350q0 -246 31.5 -359t82.5 -113zM476 946v70q47 0 85.5 13t38.5 61q0 19 -5.5 44t-5.5 44q0 32 17 51t47 19q31 0 47.5 -18.5t16.5 -51.5q0 -93 -39.5 -143.5t-95.5 -69.5t-106 -19z" />
    <glyph glyph-name="Uhorn" unicode="&#x1af;" horiz-adv-x="777" 
d="M406 -24q-47 0 -95 15t-88 52t-64.5 104t-24.5 172v1011h-97v70h382v-70h-102v-1012q0 -142 34 -201t96 -59q26 0 49.5 11.5t41.5 38.5t28 74t10 118v1030h-86v70h173v-70h-16v-1040q0 -119 -31 -188t-85 -97.5t-125 -28.5zM663 1330v70q47 0 85.5 13t38.5 61
q0 19 -5.5 44t-5.5 44q0 32 17 51t47 19q31 0 47.5 -18.5t16.5 -51.5q0 -93 -39.5 -143.5t-95.5 -69.5t-106 -19z" />
    <glyph glyph-name="uhorn" unicode="&#x1b0;" horiz-adv-x="790" 
d="M336 -22q-58 0 -107 24t-78.5 89.5t-29.5 192.5v693h-103v69h283v-743q0 -93 10.5 -141.5t29.5 -66t46 -17.5q34 0 59.5 35t39 96t13.5 138v630h-95v69h275v-976h90v-70h-248l-10 113q-4 -26 -26 -57.5t-59.5 -54.5t-89.5 -23zM639 976v70q48 0 86.5 13t38.5 61
q0 19 -6 44t-6 44q0 32 17 51t48 19q30 0 47 -18.5t17 -51.5q0 -93 -40 -143.5t-96 -69.5t-106 -19z" />
    <glyph glyph-name="uni01C6" unicode="&#x1c6;" horiz-adv-x="1370" 
d="M327 -20q-70 0 -129 51t-94.5 169t-35.5 318q0 193 34.5 311.5t91 173t121.5 54.5q52 0 82 -19t44 -43.5t17 -41.5v476h-116v71h300v-1430h113v-70h-269l-16 122q-2 -27 -19 -60.5t-47.5 -57.5t-76.5 -24zM360 91q29 0 50 38t33.5 95.5t14.5 115.5v408q-3 51 -17 94.5
t-35 70t-48 26.5q-28 0 -48.5 -31t-33.5 -87.5t-19.5 -134.5t-6.5 -172q0 -102 7 -181t20 -133t34 -81.5t49 -27.5zM842 0v70l267 907h-96q-47 0 -68 -17.5t-25.5 -67t-4.5 -143.5h-68v298h446v-70l-267 -907h91q52 0 73.5 19t26.5 70.5t5 147.5h70v-307h-450zM1034 1106
l-162 219h85l112 -148l112 148h85l-161 -219h-71z" />
    <glyph glyph-name="uni01C7" unicode="&#x1c7;" horiz-adv-x="1311" 
d="M59 0v70h90v1260h-90v70h361v-70h-92v-1260h87q34 0 56.5 26t34 78.5t11.5 132.5h70v-307h-528zM902 -24q-73 0 -117.5 33.5t-65 93t-20.5 139.5q0 61 23.5 86.5t58.5 25.5t56.5 -23t21.5 -76q0 -34 -10.5 -54t-21.5 -38t-11 -46q0 -31 19 -49t46 -18q47 0 75.5 36.5
t28.5 135.5v1108h-102v70h379v-70h-97v-933q0 -117 -17.5 -198t-51.5 -130t-82.5 -71t-111.5 -22z" />
    <glyph glyph-name="uni01C8" unicode="&#x1c8;" horiz-adv-x="1035" 
d="M59 0v70h90v1260h-90v70h361v-70h-92v-1260h87q34 0 56.5 26t34 78.5t11.5 132.5h70v-307h-528zM665 -498q-57 0 -98 32t-63.5 87t-22.5 125q0 53 23.5 81.5t59.5 28.5q34 0 52 -24.5t18 -66.5q0 -29 -7 -49t-14 -38t-7 -41q0 -22 6 -36t17.5 -20.5t26.5 -6.5
q51 0 72.5 58.5t21.5 172.5v1172h-114v70h294v-1118q0 -122 -23 -204.5t-61.5 -131.5t-85.5 -70t-95 -21zM836 1217q-53 0 -90.5 36.5t-37.5 89.5q0 52 37.5 88.5t90.5 36.5q51 0 87 -36.5t36 -88.5q0 -53 -36 -89.5t-87 -36.5z" />
    <glyph glyph-name="uni01C9" unicode="&#x1c9;" horiz-adv-x="858" 
d="M38 0v70h100v1360h-100v70h279v-1430h101v-70h-380zM488 -498q-57 0 -98 32t-63.5 87t-22.5 125q0 53 23.5 81.5t59.5 28.5q34 0 52 -24.5t18 -66.5q0 -29 -7 -49t-14 -38t-7 -41q0 -22 6 -36t17.5 -20.5t26.5 -6.5q51 0 72.5 58.5t21.5 172.5v1172h-114v70h294v-1118
q0 -122 -23 -204.5t-61.5 -131.5t-85.5 -70t-95 -21zM659 1217q-53 0 -90.5 36.5t-37.5 89.5q0 52 37.5 88.5t90.5 36.5q51 0 87 -36.5t36 -88.5q0 -53 -36 -89.5t-87 -36.5z" />
    <glyph glyph-name="uni01CA" unicode="&#x1ca;" horiz-adv-x="1429" 
d="M31 0v70h93v1260h-93v70h309l291 -999h-9v929h-90v70h251v-70h-89v-1330h-134l-375 1280h11v-1210h97v-70h-262zM1020 -24q-73 0 -117.5 33.5t-65 93t-20.5 139.5q0 61 23.5 86.5t58.5 25.5t56.5 -23t21.5 -76q0 -34 -10.5 -54t-21.5 -38t-11 -46q0 -31 19 -49t46 -18
q47 0 75.5 36.5t28.5 135.5v1108h-102v70h379v-70h-97v-933q0 -117 -17.5 -198t-51.5 -130t-82.5 -71t-111.5 -22z" />
    <glyph glyph-name="uni01CB" unicode="&#x1cb;" horiz-adv-x="1235" 
d="M31 0v70h93v1260h-93v70h309l291 -999h-9v929h-90v70h251v-70h-89v-1330h-134l-375 1280h11v-1210h97v-70h-262zM866 -498q-57 0 -98 32t-63.5 87t-22.5 125q0 53 23.5 81.5t59.5 28.5q34 0 52 -24.5t18 -66.5q0 -29 -7 -49t-14 -38t-7 -41q0 -22 6 -36t17.5 -20.5
t26.5 -6.5q51 0 72.5 58.5t21.5 172.5v1172h-114v70h294v-1118q0 -122 -23 -204.5t-61.5 -131.5t-85.5 -70t-95 -21zM1037 1217q-53 0 -90.5 36.5t-37.5 89.5q0 52 37.5 88.5t90.5 36.5q51 0 87 -36.5t36 -88.5q0 -53 -36 -89.5t-87 -36.5z" />
    <glyph glyph-name="uni01CC" unicode="&#x1cc;" horiz-adv-x="1211" 
d="M33 0v70h105v907h-105v70h280v-105q5 20 27 47.5t60 48t89 20.5q52 0 98 -24.5t75 -92t29 -198.5v-673h103v-70h-364v70h81v661q0 115 -20 166.5t-65 51.5q-23 0 -42.5 -16.5t-34 -45t-22.5 -64.5t-9 -75v-678h79v-70h-364zM841 -498q-57 0 -98 32t-63.5 87t-22.5 125
q0 53 23.5 81.5t59.5 28.5q34 0 52 -24.5t18 -66.5q0 -29 -7 -49t-14 -38t-7 -41q0 -22 6 -36t17.5 -20.5t26.5 -6.5q51 0 72.5 58.5t21.5 172.5v1172h-114v70h294v-1118q0 -122 -23 -204.5t-61.5 -131.5t-85.5 -70t-95 -21zM1012 1217q-53 0 -90.5 36.5t-37.5 89.5
q0 52 37.5 88.5t90.5 36.5q51 0 87 -36.5t36 -88.5q0 -53 -36 -89.5t-87 -36.5z" />
    <glyph glyph-name="uni01CE" unicode="&#x1ce;" horiz-adv-x="728" 
d="M274 -21q-63 0 -113 31t-79 90t-29 143q0 94 37.5 155.5t93.5 104t111.5 77t93.5 71.5t38 90q0 75 -12 128.5t-38 82t-69 28.5q-49 0 -80.5 -30.5t-31.5 -69.5q0 -24 8 -39t16 -31.5t8 -44.5q0 -39 -20.5 -63t-55.5 -24t-55.5 30.5t-20.5 83.5q0 76 33.5 136.5t93 95
t138.5 34.5t138.5 -34.5t93.5 -109.5t34 -198v-569q0 -46 8.5 -61.5t26.5 -15.5q17 0 28.5 8t17.5 15l38 -57q-15 -18 -53 -34t-88 -16t-79.5 15t-44 38t-18.5 46q-5 -15 -23 -40.5t-53 -45.5t-93 -20zM327 76q32 0 54.5 26t34 63.5t11.5 70.5v370q-3 -28 -32 -54.5
t-65.5 -61t-64 -89t-27.5 -139.5q0 -92 23.5 -139t65.5 -47zM316 1106l-162 219h85l112 -148l112 148h85l-161 -219h-71z" />
    <glyph glyph-name="uni01D0" unicode="&#x1d0;" horiz-adv-x="449" 
d="M33 0v70h104v907h-104v70h284v-977h106v-70h-390zM193 1106l-162 219h85l112 -148l112 148h85l-161 -219h-71z" />
    <glyph glyph-name="uni01D2" unicode="&#x1d2;" horiz-adv-x="705" 
d="M350 -22q-57 0 -110.5 35.5t-95.5 105t-66.5 172t-24.5 236.5q0 147 26 248.5t68.5 164t95.5 90.5t107 28q53 0 106 -28t96 -90.5t69.5 -164t26.5 -248.5q0 -134 -25 -236.5t-67 -172t-95.5 -105t-110.5 -35.5zM350 55q51 0 82.5 113t31.5 359q0 244 -31.5 350t-82.5 106
t-82.5 -106t-31.5 -350q0 -246 31.5 -359t82.5 -113zM316 1106l-162 219h85l112 -148l112 148h85l-161 -219h-71z" />
    <glyph glyph-name="uni01D4" unicode="&#x1d4;" horiz-adv-x="790" 
d="M336 -22q-58 0 -107 24t-78.5 89.5t-29.5 192.5v693h-103v69h283v-743q0 -93 10.5 -141.5t29.5 -66t46 -17.5q34 0 59.5 35t39 96t13.5 138v630h-95v69h275v-976h90v-70h-248l-10 113q-4 -26 -26 -57.5t-59.5 -54.5t-89.5 -23zM369 1106l-162 219h85l112 -148l112 148h85
l-161 -219h-71z" />
    <glyph glyph-name="uni01D6" unicode="&#x1d6;" horiz-adv-x="790" 
d="M336 -22q-58 0 -107 24t-78.5 89.5t-29.5 192.5v693h-103v69h283v-743q0 -93 10.5 -141.5t29.5 -66t46 -17.5q34 0 59.5 35t39 96t13.5 138v630h-95v69h275v-976h90v-70h-248l-10 113q-4 -26 -26 -57.5t-59.5 -54.5t-89.5 -23zM520 1129q-32 0 -56 23.5t-24 54.5
q0 35 24 59.5t56 24.5t56 -24.5t24 -59.5q0 -31 -24 -54.5t-56 -23.5zM285 1129q-31 0 -55 23.5t-24 54.5q0 35 24 59.5t55 24.5q33 0 57 -24.5t24 -59.5q0 -31 -24 -54.5t-57 -23.5zM185 1380v70h436v-70h-436z" />
    <glyph glyph-name="uni01D8" unicode="&#x1d8;" horiz-adv-x="790" 
d="M336 -22q-58 0 -107 24t-78.5 89.5t-29.5 192.5v693h-103v69h283v-743q0 -93 10.5 -141.5t29.5 -66t46 -17.5q34 0 59.5 35t39 96t13.5 138v630h-95v69h275v-976h90v-70h-248l-10 113q-4 -26 -26 -57.5t-59.5 -54.5t-89.5 -23zM520 1129q-32 0 -56 23.5t-24 54.5
q0 35 24 59.5t56 24.5t56 -24.5t24 -59.5q0 -31 -24 -54.5t-56 -23.5zM285 1129q-31 0 -55 23.5t-24 54.5q0 35 24 59.5t55 24.5q33 0 57 -24.5t24 -59.5q0 -31 -24 -54.5t-57 -23.5zM298 1327l-45 48l181 137q14 11 29 18.5t29 7.5q15 0 26.5 -7.5t18.5 -19.5q6 -11 6 -23
q0 -19 -16 -35.5t-41 -27.5z" />
    <glyph glyph-name="uni01DA" unicode="&#x1da;" horiz-adv-x="790" 
d="M336 -22q-58 0 -107 24t-78.5 89.5t-29.5 192.5v693h-103v69h283v-743q0 -93 10.5 -141.5t29.5 -66t46 -17.5q34 0 59.5 35t39 96t13.5 138v630h-95v69h275v-976h90v-70h-248l-10 113q-4 -26 -26 -57.5t-59.5 -54.5t-89.5 -23zM520 1129q-32 0 -56 23.5t-24 54.5
q0 35 24 59.5t56 24.5t56 -24.5t24 -59.5q0 -31 -24 -54.5t-56 -23.5zM285 1129q-31 0 -55 23.5t-24 54.5q0 35 24 59.5t55 24.5q33 0 57 -24.5t24 -59.5q0 -31 -24 -54.5t-57 -23.5zM369 1351l-162 219h85l112 -148l112 148h85l-161 -219h-71z" />
    <glyph glyph-name="uni01DC" unicode="&#x1dc;" horiz-adv-x="790" 
d="M336 -22q-58 0 -107 24t-78.5 89.5t-29.5 192.5v693h-103v69h283v-743q0 -93 10.5 -141.5t29.5 -66t46 -17.5q34 0 59.5 35t39 96t13.5 138v630h-95v69h275v-976h90v-70h-248l-10 113q-4 -26 -26 -57.5t-59.5 -54.5t-89.5 -23zM520 1129q-32 0 -56 23.5t-24 54.5
q0 35 24 59.5t56 24.5t56 -24.5t24 -59.5q0 -31 -24 -54.5t-56 -23.5zM285 1129q-31 0 -55 23.5t-24 54.5q0 35 24 59.5t55 24.5q33 0 57 -24.5t24 -59.5q0 -31 -24 -54.5t-57 -23.5zM512 1349l-202 96q-27 13 -41 26t-14 38q0 22 15.5 35t39.5 13q20 0 33.5 -7.5
t27.5 -18.5l174 -142z" />
    <glyph glyph-name="uni01DF" unicode="&#x1df;" horiz-adv-x="728" 
d="M274 -21q-63 0 -113 31t-79 90t-29 143q0 94 37.5 155.5t93.5 104t111.5 77t93.5 71.5t38 90q0 75 -12 128.5t-38 82t-69 28.5q-49 0 -80.5 -30.5t-31.5 -69.5q0 -24 8 -39t16 -31.5t8 -44.5q0 -39 -20.5 -63t-55.5 -24t-55.5 30.5t-20.5 83.5q0 76 33.5 136.5t93 95
t138.5 34.5t138.5 -34.5t93.5 -109.5t34 -198v-569q0 -46 8.5 -61.5t26.5 -15.5q17 0 28.5 8t17.5 15l38 -57q-15 -18 -53 -34t-88 -16t-79.5 15t-44 38t-18.5 46q-5 -15 -23 -40.5t-53 -45.5t-93 -20zM327 76q32 0 54.5 26t34 63.5t11.5 70.5v370q-3 -28 -32 -54.5
t-65.5 -61t-64 -89t-27.5 -139.5q0 -92 23.5 -139t65.5 -47zM467 1129q-32 0 -56 23.5t-24 54.5q0 35 24 59.5t56 24.5t56 -24.5t24 -59.5q0 -31 -24 -54.5t-56 -23.5zM232 1129q-31 0 -55 23.5t-24 54.5q0 35 24 59.5t55 24.5q33 0 57 -24.5t24 -59.5q0 -31 -24 -54.5
t-57 -23.5zM132 1380v70h436v-70h-436z" />
    <glyph glyph-name="gcaron" unicode="&#x1e7;" horiz-adv-x="750" 
d="M370 -498q-88 0 -160.5 33t-115.5 93t-43 140q0 65 21 109t50 71t55 41t36 18q-8 2 -28.5 10.5t-43.5 27.5t-39.5 50t-16.5 76q0 38 14 65.5t35 43.5t40 20q4 1 10.5 2t8.5 1q-9 7 -26.5 30t-35.5 63t-31 99.5t-13 140.5q0 119 26.5 199.5t69 130t92.5 71t97 21.5
q90 0 151.5 -51t93.5 -142.5t32 -213.5q0 -121 -25.5 -202t-67 -129t-91 -68.5t-97.5 -20.5q-51 0 -80.5 11.5t-36.5 14.5q-1 0 -2 0.5t-3 0.5q-17 0 -34 -18t-17 -48q0 -43 43.5 -69.5t162.5 -46.5q145 -22 220 -89.5t75 -198.5q0 -79 -30.5 -133.5t-79.5 -88t-105.5 -49
t-110.5 -15.5zM370 -431q72 0 116 53t44 127q0 85 -24 126t-89 64q-20 9 -42 17.5t-41 15t-30 9.5q-27 -14 -49.5 -43.5t-36 -70.5t-13.5 -93q0 -56 19 -102.5t55.5 -74.5t90.5 -28zM368 303q27 0 49.5 25t36.5 99t14 220q0 142 -13.5 214.5t-36 98.5t-48.5 26t-49 -26
t-37.5 -100t-14.5 -218q0 -145 14.5 -217.5t37.5 -97t47 -24.5zM471 987q10 64 59.5 101.5t103.5 37.5q47 0 66 -22t19 -56q0 -32 -17.5 -50.5t-46.5 -18.5q-26 0 -37 12t-19.5 24t-27.5 12q-13 0 -23.5 -10t-10.5 -32zM334 1106l-162 219h85l112 -148l112 148h85l-161 -219
h-71z" />
    <glyph glyph-name="uni01EA" unicode="&#x1ea;" horiz-adv-x="784" 
d="M393 -22q-101 0 -175 89t-114 250t-40 381q0 221 40 383.5t114 251.5t175 89q102 0 177 -89t116 -251.5t41 -383.5q0 -220 -41 -381t-116 -250t-177 -89zM393 48q37 0 64 45t44.5 130.5t26 205.5t8.5 269q0 150 -8.5 270.5t-26 206t-44.5 131.5t-64 46q-36 0 -62.5 -46
t-43 -131.5t-24.5 -206t-8 -270.5q0 -149 8 -269t24.5 -205.5t43 -130.5t62.5 -45zM499 -291q-42 0 -80 14t-61.5 45t-23.5 80q0 50 24 85.5t56 59.5t56 37l28 -23q-21 -23 -43 -56.5t-22 -82.5q0 -46 31 -60t59 -14q25 0 53 6.5t47 18.5l33 -60q-24 -21 -65.5 -35.5
t-91.5 -14.5z" />
    <glyph glyph-name="uni01EB" unicode="&#x1eb;" horiz-adv-x="705" 
d="M350 -22q-57 0 -110.5 35.5t-95.5 105t-66.5 172t-24.5 236.5q0 147 26 248.5t68.5 164t95.5 90.5t107 28q53 0 106 -28t96 -90.5t69.5 -164t26.5 -248.5q0 -134 -25 -236.5t-67 -172t-95.5 -105t-110.5 -35.5zM350 55q51 0 82.5 113t31.5 359q0 244 -31.5 350t-82.5 106
t-82.5 -106t-31.5 -350q0 -246 31.5 -359t82.5 -113zM464 -279q-41 0 -79 14t-62 45t-24 80q0 50 24.5 85.5t56.5 60t55 36.5l29 -23q-22 -23 -44 -56.5t-22 -82.5q0 -46 31 -60t60 -14q24 0 52 6.5t47 18.5l33 -60q-24 -21 -65.5 -35.5t-91.5 -14.5z" />
    <glyph glyph-name="aringacute" unicode="&#x1fb;" horiz-adv-x="728" 
d="M274 -21q-63 0 -113 31t-79 90t-29 143q0 94 37.5 155.5t93.5 104t111.5 77t93.5 71.5t38 90q0 75 -12 128.5t-38 82t-69 28.5q-49 0 -80.5 -30.5t-31.5 -69.5q0 -24 8 -39t16 -31.5t8 -44.5q0 -39 -20.5 -63t-55.5 -24t-55.5 30.5t-20.5 83.5q0 76 33.5 136.5t93 95
t138.5 34.5t138.5 -34.5t93.5 -109.5t34 -198v-569q0 -46 8.5 -61.5t26.5 -15.5q17 0 28.5 8t17.5 15l38 -57q-15 -18 -53 -34t-88 -16t-79.5 15t-44 38t-18.5 46q-5 -15 -23 -40.5t-53 -45.5t-93 -20zM327 76q32 0 54.5 26t34 63.5t11.5 70.5v370q-3 -28 -32 -54.5
t-65.5 -61t-64 -89t-27.5 -139.5q0 -92 23.5 -139t65.5 -47zM351 1096q-45 0 -77 32.5t-32 85.5q0 55 32 86.5t77 31.5q43 0 75 -31.5t32 -86.5q0 -53 -32 -85.5t-75 -32.5zM351 1149q25 0 36.5 20t11.5 47q0 22 -11.5 42t-36.5 20q-26 0 -38 -20t-12 -42q0 -27 12 -47
t38 -20zM246 1367l-45 48l181 137q14 11 29 18.5t29 7.5q15 0 26.5 -7.5t18.5 -19.5q6 -11 6 -23q0 -19 -16 -35.5t-41 -27.5z" />
    <glyph glyph-name="aeacute" unicode="&#x1fd;" horiz-adv-x="1046" 
d="M287 -19q-121 0 -177.5 67t-56.5 175q0 100 36.5 165t90 109t107.5 78.5t90.5 71.5t36.5 90q0 66 -11 121t-35.5 88.5t-66.5 33.5q-40 0 -70.5 -23t-30.5 -66q0 -24 7.5 -40l15 -32t7.5 -45q0 -39 -20 -62.5t-55 -23.5t-55.5 30.5t-20.5 83.5q0 71 31.5 129t89 92.5
t135.5 34.5t136.5 -39.5t91 -119.5t32.5 -203v-297q0 -80 -10.5 -139.5t-29.5 -103t-45 -77.5q-33 -39 -88.5 -68.5t-134.5 -29.5zM318 78q40 0 68 48t28 112v361q-3 -28 -30 -54t-61 -61t-60 -90.5t-26 -142.5q0 -53 9 -92t27 -60t45 -21zM723 -21q-74 0 -130.5 41
t-94 114.5t-56 173.5t-18.5 218q0 137 25 237.5t68 166t96 97t108 31.5q65 0 115 -36.5t84 -99.5t51.5 -144.5t17.5 -172.5q0 -21 -0.5 -41.5t-1.5 -41.5h-395v70h223q0 133 -9.5 220.5t-30 131t-54.5 43.5t-60 -43.5t-40.5 -138.5t-14.5 -249q0 -114 6.5 -206.5t22 -158
t42 -100t66.5 -34.5q65 0 102 36t52 71l60 -38q-20 -56 -84 -101.5t-150 -45.5zM440 1082l-45 48l181 137q14 11 29 18.5t29 7.5q15 0 26.5 -7.5t18.5 -19.5q6 -11 6 -23q0 -19 -16 -35.5t-41 -27.5z" />
    <glyph glyph-name="Oslashacute" unicode="&#x1fe;" horiz-adv-x="812" 
d="M137 -104l497 1608h72l-495 -1608h-74zM393 -22q-101 0 -175 89t-114 250t-40 381q0 221 40 383.5t114 251.5t175 89q102 0 177 -89t116 -251.5t41 -383.5q0 -220 -41 -381t-116 -250t-177 -89zM393 48q37 0 64 45t44.5 130.5t26 205.5t8.5 269q0 150 -8.5 270.5t-26 206
t-44.5 131.5t-64 46q-36 0 -62.5 -46t-43 -131.5t-24.5 -206t-8 -270.5q0 -149 8 -269t24.5 -205.5t43 -130.5t62.5 -45zM289 1443l-45 48l180 137q15 11 30 18.5t29 7.5q15 0 26.5 -7.5t18.5 -19.5q6 -11 6 -23q0 -19 -16 -35.5t-41 -27.5z" />
    <glyph glyph-name="oslashacute" unicode="&#x1ff;" horiz-adv-x="720" 
d="M83 -104l478 1224h72l-479 -1224h-71zM350 -22q-57 0 -110.5 35.5t-95.5 105t-66.5 172t-24.5 236.5q0 147 26 248.5t68.5 164t95.5 90.5t107 28q53 0 106 -28t96 -90.5t69.5 -164t26.5 -248.5q0 -134 -25 -236.5t-67 -172t-95.5 -105t-110.5 -35.5zM350 55
q51 0 82.5 113t31.5 359q0 244 -31.5 350t-82.5 106t-82.5 -106t-31.5 -350q0 -246 31.5 -359t82.5 -113zM246 1082l-45 48l181 137q14 11 29 18.5t29 7.5q15 0 26.5 -7.5t18.5 -19.5q6 -11 6 -23q0 -19 -16 -35.5t-41 -27.5z" />
    <glyph glyph-name="uni0201" unicode="&#x201;" horiz-adv-x="728" 
d="M274 -21q-63 0 -113 31t-79 90t-29 143q0 94 37.5 155.5t93.5 104t111.5 77t93.5 71.5t38 90q0 75 -12 128.5t-38 82t-69 28.5q-49 0 -80.5 -30.5t-31.5 -69.5q0 -24 8 -39t16 -31.5t8 -44.5q0 -39 -20.5 -63t-55.5 -24t-55.5 30.5t-20.5 83.5q0 76 33.5 136.5t93 95
t138.5 34.5t138.5 -34.5t93.5 -109.5t34 -198v-569q0 -46 8.5 -61.5t26.5 -15.5q17 0 28.5 8t17.5 15l38 -57q-15 -18 -53 -34t-88 -16t-79.5 15t-44 38t-18.5 46q-5 -15 -23 -40.5t-53 -45.5t-93 -20zM327 76q32 0 54.5 26t34 63.5t11.5 70.5v370q-3 -28 -32 -54.5
t-65.5 -61t-64 -89t-27.5 -139.5q0 -92 23.5 -139t65.5 -47zM461 1107l-157 159q-16 16 -25 29.5t-9 28.5q0 25 15.5 39t36.5 14q28 0 44 -15.5t27 -35.5l113 -193zM266 1107l-157 159q-16 16 -25 29.5t-9 28.5q0 25 15.5 39t36.5 14q28 0 44 -15.5t27 -35.5l113 -193z" />
    <glyph glyph-name="uni0203" unicode="&#x203;" horiz-adv-x="728" 
d="M274 -21q-63 0 -113 31t-79 90t-29 143q0 94 37.5 155.5t93.5 104t111.5 77t93.5 71.5t38 90q0 75 -12 128.5t-38 82t-69 28.5q-49 0 -80.5 -30.5t-31.5 -69.5q0 -24 8 -39t16 -31.5t8 -44.5q0 -39 -20.5 -63t-55.5 -24t-55.5 30.5t-20.5 83.5q0 76 33.5 136.5t93 95
t138.5 34.5t138.5 -34.5t93.5 -109.5t34 -198v-569q0 -46 8.5 -61.5t26.5 -15.5q17 0 28.5 8t17.5 15l38 -57q-15 -18 -53 -34t-88 -16t-79.5 15t-44 38t-18.5 46q-5 -15 -23 -40.5t-53 -45.5t-93 -20zM327 76q32 0 54.5 26t34 63.5t11.5 70.5v370q-3 -28 -32 -54.5
t-65.5 -61t-64 -89t-27.5 -139.5q0 -92 23.5 -139t65.5 -47zM351 1312q62 0 100 -27.5t55 -71t17 -93.5h-68q-4 62 -31.5 92t-72.5 30t-72 -30t-31 -92h-68q0 50 17 93.5t55 71t99 27.5z" />
    <glyph glyph-name="uni0205" unicode="&#x205;" horiz-adv-x="676" 
d="M353 -21q-75 0 -131 41t-93.5 114.5t-56.5 173.5t-19 218q0 137 25.5 237.5t68.5 166t95.5 97t107.5 31.5q65 0 115 -36.5t84 -99.5t51.5 -144.5t17.5 -172.5v-41.5t-2 -41.5h-394v70h222q0 133 -9 220.5t-29.5 131t-55.5 43.5q-33 0 -59 -43.5t-41 -138.5t-15 -249
q0 -114 6.5 -206.5t22 -158t42 -100t67.5 -34.5q65 0 102 36t51 71l60 -38q-20 -56 -84 -101.5t-149 -45.5zM516 1106l-157 159q-16 16 -25 29.5t-9 28.5q0 25 15.5 39t35.5 14q28 0 44 -15.5t28 -35.5l113 -193zM321 1106l-158 159q-16 16 -24.5 29.5t-8.5 28.5
q0 25 15.5 39t35.5 14q28 0 44 -15.5t28 -35.5l113 -193z" />
    <glyph glyph-name="uni0207" unicode="&#x207;" horiz-adv-x="676" 
d="M353 -21q-75 0 -131 41t-93.5 114.5t-56.5 173.5t-19 218q0 137 25.5 237.5t68.5 166t95.5 97t107.5 31.5q65 0 115 -36.5t84 -99.5t51.5 -144.5t17.5 -172.5v-41.5t-2 -41.5h-394v70h222q0 133 -9 220.5t-29.5 131t-55.5 43.5q-33 0 -59 -43.5t-41 -138.5t-15 -249
q0 -114 6.5 -206.5t22 -158t42 -100t67.5 -34.5q65 0 102 36t51 71l60 -38q-20 -56 -84 -101.5t-149 -45.5zM347 1311q62 0 100 -27.5t55 -71t17 -93.5h-68q-4 62 -31.5 92t-72.5 30t-72 -30t-31 -92h-68q0 50 17 93.5t55 71t99 27.5z" />
    <glyph glyph-name="uni0209" unicode="&#x209;" horiz-adv-x="449" 
d="M33 0v70h104v907h-104v70h284v-977h106v-70h-390zM397 1107l-157 159q-16 16 -25 29.5t-9 28.5q0 25 15.5 39t35.5 14q28 0 44 -15.5t28 -35.5l113 -193zM202 1107l-158 159q-16 16 -24.5 29.5t-8.5 28.5q0 25 15.5 39t35.5 14q28 0 44 -15.5t28 -35.5l113 -193z" />
    <glyph glyph-name="uni020B" unicode="&#x20b;" horiz-adv-x="449" 
d="M33 0v70h104v907h-104v70h284v-977h106v-70h-390zM228 1312q62 0 100 -27.5t55 -71t17 -93.5h-68q-4 62 -31.5 92t-72.5 30t-72 -30t-31 -92h-68q0 50 17 93.5t55 71t99 27.5z" />
    <glyph glyph-name="uni020D" unicode="&#x20d;" horiz-adv-x="705" 
d="M350 -22q-57 0 -110.5 35.5t-95.5 105t-66.5 172t-24.5 236.5q0 147 26 248.5t68.5 164t95.5 90.5t107 28q53 0 106 -28t96 -90.5t69.5 -164t26.5 -248.5q0 -134 -25 -236.5t-67 -172t-95.5 -105t-110.5 -35.5zM350 55q51 0 82.5 113t31.5 359q0 244 -31.5 350t-82.5 106
t-82.5 -106t-31.5 -350q0 -246 31.5 -359t82.5 -113zM521 1107l-157 159q-16 16 -25 29.5t-9 28.5q0 25 15.5 39t35.5 14q28 0 44 -15.5t28 -35.5l113 -193zM326 1107l-158 159q-16 16 -24.5 29.5t-8.5 28.5q0 25 15.5 39t35.5 14q28 0 44 -15.5t28 -35.5l113 -193z" />
    <glyph glyph-name="uni020F" unicode="&#x20f;" horiz-adv-x="705" 
d="M350 -22q-57 0 -110.5 35.5t-95.5 105t-66.5 172t-24.5 236.5q0 147 26 248.5t68.5 164t95.5 90.5t107 28q53 0 106 -28t96 -90.5t69.5 -164t26.5 -248.5q0 -134 -25 -236.5t-67 -172t-95.5 -105t-110.5 -35.5zM350 55q51 0 82.5 113t31.5 359q0 244 -31.5 350t-82.5 106
t-82.5 -106t-31.5 -350q0 -246 31.5 -359t82.5 -113zM351 1312q62 0 100 -27.5t55 -71t17 -93.5h-68q-4 62 -31.5 92t-72.5 30t-72 -30t-31 -92h-68q0 50 17 93.5t55 71t99 27.5z" />
    <glyph glyph-name="uni0211" unicode="&#x211;" horiz-adv-x="636" 
d="M26 0v70h104v907h-104v70h269l10 -95q3 13 22 38.5t51 46.5t75 21q53 0 86.5 -35.5t49.5 -95.5t16 -134q0 -56 -20.5 -85.5t-56.5 -29.5q-33 0 -53 24.5t-20 69.5q0 28 10 45t20 34.5t10 47.5q0 42 -15 60.5t-43 18.5q-34 0 -63 -31t-46.5 -85t-17.5 -122v-670h105v-70
h-389zM558 1107l-157 159q-16 16 -25 29.5t-9 28.5q0 25 15.5 39t35.5 14q28 0 44 -15.5t28 -35.5l113 -193zM363 1107l-158 159q-16 16 -24.5 29.5t-8.5 28.5q0 25 15.5 39t35.5 14q28 0 44 -15.5t28 -35.5l113 -193z" />
    <glyph glyph-name="uni0213" unicode="&#x213;" horiz-adv-x="636" 
d="M26 0v70h104v907h-104v70h269l10 -95q3 13 22 38.5t51 46.5t75 21q53 0 86.5 -35.5t49.5 -95.5t16 -134q0 -56 -20.5 -85.5t-56.5 -29.5q-33 0 -53 24.5t-20 69.5q0 28 10 45t20 34.5t10 47.5q0 42 -15 60.5t-43 18.5q-34 0 -63 -31t-46.5 -85t-17.5 -122v-670h105v-70
h-389zM389 1312q62 0 100 -27.5t55 -71t17 -93.5h-68q-4 62 -31.5 92t-72.5 30t-72 -30t-31 -92h-68q0 50 17 93.5t55 71t99 27.5z" />
    <glyph glyph-name="uni0215" unicode="&#x215;" horiz-adv-x="790" 
d="M336 -22q-58 0 -107 24t-78.5 89.5t-29.5 192.5v693h-103v69h283v-743q0 -93 10.5 -141.5t29.5 -66t46 -17.5q34 0 59.5 35t39 96t13.5 138v630h-95v69h275v-976h90v-70h-248l-10 113q-4 -26 -26 -57.5t-59.5 -54.5t-89.5 -23zM573 1107l-157 159q-16 16 -25 29.5
t-9 28.5q0 25 15.5 39t35.5 14q28 0 44 -15.5t28 -35.5l113 -193zM378 1107l-158 159q-16 16 -24.5 29.5t-8.5 28.5q0 25 15.5 39t35.5 14q28 0 44 -15.5t28 -35.5l113 -193z" />
    <glyph glyph-name="uni0217" unicode="&#x217;" horiz-adv-x="790" 
d="M336 -22q-58 0 -107 24t-78.5 89.5t-29.5 192.5v693h-103v69h283v-743q0 -93 10.5 -141.5t29.5 -66t46 -17.5q34 0 59.5 35t39 96t13.5 138v630h-95v69h275v-976h90v-70h-248l-10 113q-4 -26 -26 -57.5t-59.5 -54.5t-89.5 -23zM404 1312q62 0 100 -27.5t55 -71t17 -93.5
h-68q-4 62 -31.5 92t-72.5 30t-72 -30t-31 -92h-68q0 50 17 93.5t55 71t99 27.5z" />
    <glyph glyph-name="uni0218" unicode="&#x218;" horiz-adv-x="640" 
d="M338 -27q-49 0 -79.5 12.5t-49.5 29.5t-32 29.5t-26 12.5q-24 0 -24 -57h-63v317h70q1 -26 10.5 -61t26 -71.5t40.5 -68t56 -51t71 -19.5q46 0 71.5 22.5t35.5 63.5t10 97q0 66 -26.5 132t-71.5 134.5t-102 141.5q-76 100 -117 182t-56.5 153.5t-15.5 139.5
q0 99 33 168.5t88 105.5t119 36q57 0 85.5 -18t44 -36.5t30.5 -18.5q13 0 19 11t7 40h63v-315h-70q-2 36 -13.5 81.5t-32.5 87.5t-53.5 69t-75.5 27q-56 0 -86.5 -41t-30.5 -116q0 -54 18.5 -110.5t59.5 -123t107 -151.5q64 -78 111 -157.5t72.5 -162.5t25.5 -173
q0 -93 -19.5 -158t-53.5 -105.5t-79 -59.5t-97 -19zM329 -350l-36 43q10 4 30 20.5t24 30.5q-2 -3 -11 -3q-30 0 -50.5 21t-20.5 51t21.5 50.5t50.5 20.5q34 0 56.5 -22t22.5 -62q0 -39 -15 -68t-35.5 -49t-36.5 -33z" />
    <glyph glyph-name="uni0219" unicode="&#x219;" horiz-adv-x="567" 
d="M292 -22q-55 0 -83.5 14t-43 27.5t-28.5 13.5q-13 0 -18 -8.5t-5 -24.5h-61v307h73q5 -58 17.5 -106t32.5 -82t48 -52.5t65 -18.5q35 0 56.5 18t31.5 46t10 60q0 48 -16.5 92.5t-49.5 91.5t-84 101q-73 77 -125 159t-52 201q0 83 31.5 136t81.5 79t105 26q42 0 67 -10.5
t40 -21t26 -10.5q8 0 12.5 7t5.5 24h63v-298h-72q-4 53 -14 97t-27 75.5t-41 48.5t-56 17q-48 0 -73 -36t-25 -88q0 -63 37.5 -117.5t107.5 -126.5q54 -58 96 -115.5t66 -121.5t24 -141q0 -85 -27.5 -143.5t-77.5 -89t-118 -30.5zM285 -350l-36 43q10 4 30 20.5t24 30.5
q-2 -3 -11 -3q-30 0 -50.5 21t-20.5 51t21.5 50.5t50.5 20.5q34 0 56.5 -22t22.5 -62q0 -39 -15 -68t-35.5 -49t-36.5 -33z" />
    <glyph glyph-name="uni021A" unicode="&#x21a;" horiz-adv-x="757" 
d="M175 0v70h115v1260h-59q-55 0 -81 -21.5t-34 -72.5t-8 -140h-70v304h681v-304h-70q0 89 -7.5 140t-33.5 72.5t-81 21.5h-58v-1260h118v-70h-412zM371 -350l-36 43q10 4 30 20.5t24 30.5q-2 -3 -11 -3q-30 0 -50.5 21t-20.5 51t21.5 50.5t50.5 20.5q34 0 56.5 -22
t22.5 -62q0 -39 -15 -68t-35.5 -49t-36.5 -33z" />
    <glyph glyph-name="uni021B" unicode="&#x21b;" horiz-adv-x="495" 
d="M329 -18q-49 0 -94 16.5t-73 61.5t-28 131v786h-132v70h132q29 20 51.5 66.5t37 105.5t18.5 119h73v-291h154v-70h-154v-850q0 -42 18 -56t35 -14q20 0 34.5 7.5t21.5 16.5l41 -55q-22 -19 -56 -31.5t-79 -12.5zM307 -338l-36 43q10 4 30 20.5t24 30.5q-2 -3 -11 -3
q-30 0 -50.5 21t-20.5 51t21.5 50.5t50.5 20.5q34 0 56.5 -22t22.5 -62q0 -39 -15 -68t-35.5 -49t-36.5 -33z" />
    <glyph glyph-name="uni0229" unicode="&#x229;" horiz-adv-x="676" 
d="M353 -21q-75 0 -131 41t-93.5 114.5t-56.5 173.5t-19 218q0 137 25.5 237.5t68.5 166t95.5 97t107.5 31.5q65 0 115 -36.5t84 -101.5t51.5 -151t17.5 -184v-41.5t-2 -41.5h-394v70h222q0 133 -9 225.5t-29.5 141t-55.5 48.5q-33 0 -59 -48.5t-41 -148.5t-15 -254
q0 -114 6.5 -204t22 -152.5t42 -95t67.5 -32.5q65 0 102 38.5t51 73.5l60 -38q-20 -56 -84 -101.5t-149 -45.5zM395 -308q-52 0 -92.5 10.5t-55.5 18.5l26 63q10 -7 43 -17.5t74 -10.5q32 0 55.5 15.5t23.5 43.5q0 31 -15.5 41t-37.5 10q-16 0 -33 -7t-29 -21l-66 4l61 158
h70l-45 -105q5 7 28.5 16.5t55.5 9.5q39 0 72.5 -23.5t33.5 -83.5q0 -42 -24 -69.5t-63 -40t-82 -12.5z" />
    <glyph glyph-name="uni022B" unicode="&#x22b;" horiz-adv-x="705" 
d="M350 -22q-57 0 -110.5 35.5t-95.5 105t-66.5 172t-24.5 236.5q0 147 26 248.5t68.5 164t95.5 90.5t107 28q53 0 106 -28t96 -90.5t69.5 -164t26.5 -248.5q0 -134 -25 -236.5t-67 -172t-95.5 -105t-110.5 -35.5zM350 55q51 0 82.5 113t31.5 359q0 244 -31.5 350t-82.5 106
t-82.5 -106t-31.5 -350q0 -246 31.5 -359t82.5 -113zM468 1129q-32 0 -56 23.5t-24 54.5q0 35 24 59.5t56 24.5t56 -24.5t24 -59.5q0 -31 -24 -54.5t-56 -23.5zM233 1129q-31 0 -55 23.5t-24 54.5q0 35 24 59.5t55 24.5q33 0 57 -24.5t24 -59.5q0 -31 -24 -54.5t-57 -23.5z
M133 1380v70h436v-70h-436z" />
    <glyph glyph-name="uni022D" unicode="&#x22d;" horiz-adv-x="705" 
d="M350 -22q-57 0 -110.5 35.5t-95.5 105t-66.5 172t-24.5 236.5q0 147 26 248.5t68.5 164t95.5 90.5t107 28q53 0 106 -28t96 -90.5t69.5 -164t26.5 -248.5q0 -134 -25 -236.5t-67 -172t-95.5 -105t-110.5 -35.5zM350 55q51 0 82.5 113t31.5 359q0 244 -31.5 350t-82.5 106
t-82.5 -106t-31.5 -350q0 -246 31.5 -359t82.5 -113zM437 1134q-40 0 -66 15.5t-47 30.5t-45 15q-32 0 -48.5 -17t-21.5 -28l-69 31q6 18 23 42t43.5 42t59.5 18q42 0 68 -15.5t48 -31t50 -15.5q30 0 43.5 15t19.5 27l67 -35q-4 -15 -20.5 -37t-43 -39.5t-61.5 -17.5z
M84 1372v70h534v-70h-534z" />
    <glyph glyph-name="uni0231" unicode="&#x231;" horiz-adv-x="705" 
d="M350 -22q-57 0 -110.5 35.5t-95.5 105t-66.5 172t-24.5 236.5q0 147 26 248.5t68.5 164t95.5 90.5t107 28q53 0 106 -28t96 -90.5t69.5 -164t26.5 -248.5q0 -134 -25 -236.5t-67 -172t-95.5 -105t-110.5 -35.5zM350 55q51 0 82.5 113t31.5 359q0 244 -31.5 350t-82.5 106
t-82.5 -106t-31.5 -350q0 -246 31.5 -359t82.5 -113zM351 1134q-32 0 -56.5 23.5t-24.5 55.5q0 33 24.5 57.5t56.5 24.5q31 0 55 -24.5t24 -57.5q0 -32 -24 -55.5t-55 -23.5zM85 1383v70h534v-70h-534z" />
    <glyph glyph-name="uni0233" unicode="&#x233;" horiz-adv-x="675" 
d="M199 -502q-45 0 -74 32.5t-43.5 88t-14.5 125.5q0 53 20.5 81.5t54.5 28.5q35 0 54 -25t19 -67q0 -33 -11.5 -54t-23 -39t-11.5 -46q0 -25 9 -46t28 -21q11 0 18.5 10t14 30.5t12.5 52.5l74 355l-225 973h-83v70h351v-70h-76l120 -572l110 572h-74v70h228v-70h-76
l-205 -984l-78 -361q-8 -43 -23 -73t-37.5 -45.5t-57.5 -15.5zM79 1135v70h534v-70h-534z" />
    <glyph glyph-name="uni0237" unicode="&#x237;" horiz-adv-x="458" 
d="M88 -498q-57 0 -98 32t-63.5 87t-22.5 125q0 53 23.5 81.5t59.5 28.5q34 0 52 -24.5t18 -66.5q0 -29 -7 -49t-14 -38t-7 -41q0 -22 6 -36t17.5 -20.5t26.5 -6.5q51 0 72.5 58.5t21.5 172.5v1172h-114v70h294v-1118q0 -122 -23 -204.5t-61.5 -131.5t-85.5 -70t-95 -21z
" />
    <glyph glyph-name="uni0244" unicode="&#x244;" horiz-adv-x="797" 
d="M78 832v70h667v-70h-667zM406 -24q-47 0 -95 15t-88 52t-64.5 104t-24.5 172v1011h-97v70h382v-70h-102v-1012q0 -142 34 -201t96 -59q26 0 49.5 11.5t41.5 38.5t28 74t10 118v1030h-86v70h251v-70h-94v-1040q0 -119 -31 -188t-85 -97.5t-125 -28.5z" />
    <glyph glyph-name="uni0259" unicode="&#x259;" horiz-adv-x="683" 
d="M61 1046h65q0 -30 5.5 -47.5t16.5 -17.5l7 -88h-94v153zM326 1067q75 0 131 -40.5t93.5 -114t56.5 -173.5t19 -219q0 -137 -25.5 -237.5t-68.5 -165.5t-95.5 -97t-107.5 -32q-65 0 -115 37t-84 102t-51.5 150.5t-17.5 184.5q0 21 0.5 41.5t1.5 40.5h394v-70h-222
q0 -132 9 -225t30 -141.5t55 -48.5t59.5 49t40.5 149t15 253q0 115 -6.5 204.5t-22 152t-42 95t-67.5 32.5q-65 0 -102 -38t-51 -73l-60 37q20 56 84 101.5t149 45.5z" />
    <glyph glyph-name="uni0289" unicode="&#x289;" horiz-adv-x="847" 
d="M38 596v70h730v-70h-730zM336 -22q-58 0 -107 24t-78.5 89.5t-29.5 192.5v693h-103v69h283v-743q0 -93 10.5 -141.5t29.5 -66t46 -17.5q34 0 59.5 35t39 96t13.5 138v630h-95v69h275v-976h90v-70h-248l-10 113q-4 -26 -26 -57.5t-59.5 -54.5t-89.5 -23z" />
    <glyph glyph-name="uni02BC" unicode="&#x2bc;" horiz-adv-x="542" 
d="M281 1174l-53 61q14 7 43.5 30t35.5 44q-2 -1 -6 -2.5t-10 -1.5q-43 0 -73 30t-30 73q0 44 31 73t73 29q49 0 81.5 -31t32.5 -90q0 -55 -21.5 -97t-51 -71t-52.5 -47z" />
    <glyph glyph-name="circumflex" unicode="&#x2c6;" horiz-adv-x="694" 
d="M203 1274l147 205h71l146 -205h-79l-103 135l-103 -135h-79z" />
    <glyph glyph-name="caron" unicode="&#x2c7;" horiz-adv-x="693" 
d="M350 1254l-162 219h85l112 -148l112 148h85l-161 -219h-71z" />
    <glyph glyph-name="uni02C9" unicode="&#x2c9;" horiz-adv-x="926" 
d="M230 1356v70h604v-70h-604z" />
    <glyph glyph-name="breve" unicode="&#x2d8;" horiz-adv-x="696" 
d="M347 1260q-61 0 -99 27.5t-55 71.5t-17 93h68q4 -62 31 -92t72 -30t72.5 30t31.5 92h68q0 -49 -17 -93t-55 -71.5t-100 -27.5z" />
    <glyph glyph-name="dotaccent" unicode="&#x2d9;" horiz-adv-x="660" 
d="M310 1306q-32 0 -56.5 23.5t-24.5 55.5q0 33 24.5 57.5t56.5 24.5q31 0 55 -24.5t24 -57.5q0 -32 -24 -55.5t-55 -23.5z" />
    <glyph glyph-name="ring" unicode="&#x2da;" horiz-adv-x="486" 
d="M249 1144q-45 0 -77 32.5t-32 85.5q0 55 32 86.5t77 31.5q43 0 75 -31.5t32 -86.5q0 -53 -32 -85.5t-75 -32.5zM249 1198q25 0 36.5 20t11.5 46q0 23 -11.5 43t-36.5 20q-26 0 -38 -20t-12 -43q0 -26 12 -46t38 -20z" />
    <glyph glyph-name="ogonek" unicode="&#x2db;" horiz-adv-x="646" 
d="M347 -298q-42 0 -80 14t-61.5 45t-23.5 80q0 50 24 85.5t56 59.5t56 37l28 -23q-21 -23 -43 -56.5t-22 -82.5q0 -46 31 -60t59 -14q25 0 53 6.5t47 18.5l33 -60q-24 -21 -65.5 -35.5t-91.5 -14.5z" />
    <glyph glyph-name="tilde" unicode="&#x2dc;" horiz-adv-x="706" 
d="M433 1282q-40 0 -67 15.5t-49.5 31t-46.5 15.5q-32 0 -50 -17.5t-23 -28.5l-66 28q6 19 24 43.5t46 43t61 18.5q42 0 68.5 -15t48.5 -30.5t51 -15.5q33 0 47.5 15t19.5 26l66 -30q-4 -14 -22 -37.5t-45.5 -42.5t-62.5 -19z" />
    <glyph glyph-name="hungarumlaut" unicode="&#x2dd;" horiz-adv-x="966" 
d="M409 1227l-44 44l118 140q19 31 41.5 34t37 -11.5t13 -37t-30.5 -42.5zM428 1227l-43 44l116 140q20 31 42 34t37 -11.5t13.5 -37t-30.5 -42.5z" />
    <glyph glyph-name="gravecomb" unicode="&#x300;" 
d="M367 1104l-202 96q-27 13 -41 26t-14 38q0 22 15.5 35t39.5 13q20 0 33.5 -7.5t27.5 -18.5l174 -142z" />
    <glyph glyph-name="acutecomb" unicode="&#x301;" 
d="M205 1101l-45 48l181 137q14 11 29 18.5t29 7.5q15 0 26.5 -7.5t18.5 -19.5q6 -11 6 -23q0 -19 -16 -35.5t-41 -27.5z" />
    <glyph glyph-name="uni0302" unicode="&#x302;" 
d="M163 1115l147 205h71l146 -205h-79l-103 135l-103 -135h-79z" />
    <glyph glyph-name="tildecomb" unicode="&#x303;" 
d="M433 1133q-40 0 -66 15.5t-47 30.5t-45 15q-32 0 -48.5 -17t-21.5 -28l-69 31q6 18 23 42t43.5 42t59.5 18q42 0 68 -15.5t48 -31t50 -15.5q30 0 43.5 15t19.5 27l67 -35q-4 -15 -20.5 -37t-43 -39.5t-61.5 -17.5z" />
    <glyph glyph-name="uni0304" unicode="&#x304;" 
d="M270 1134v70h534v-70h-534z" />
    <glyph glyph-name="uni0306" unicode="&#x306;" 
d="M345 1102q-61 0 -99 27t-55 71t-17 93h68q4 -61 31 -91t72 -30t72.5 30t31.5 91h68q0 -49 -17 -93t-55 -71t-100 -27z" />
    <glyph glyph-name="uni0307" unicode="&#x307;" 
d="M307 1133q-32 0 -56.5 23.5t-24.5 55.5q0 33 24.5 57.5t56.5 24.5q31 0 55 -24.5t24 -57.5q0 -32 -24 -55.5t-55 -23.5z" />
    <glyph glyph-name="uni0308" unicode="&#x308;" 
d="M517 1129q-32 0 -56 23.5t-24 54.5q0 35 24 59.5t56 24.5t56 -24.5t24 -59.5q0 -31 -24 -54.5t-56 -23.5zM282 1129q-31 0 -55 23.5t-24 54.5q0 35 24 59.5t55 24.5q33 0 57 -24.5t24 -59.5q0 -31 -24 -54.5t-57 -23.5z" />
    <glyph glyph-name="hookabovecomb" unicode="&#x309;" 
d="M299 1413q56 0 98.5 -24t42.5 -83q0 -44 -26.5 -72t-53 -49.5t-26.5 -47.5h-60q0 41 18 66.5t35.5 47.5t17.5 50q0 29 -16.5 39t-45.5 10q-24 0 -43.5 -7.5t-33.5 -20.5l-47 46q18 20 57.5 32.5t82.5 12.5z" />
    <glyph glyph-name="uni030A" unicode="&#x30a;" 
d="M249 1096q-45 0 -77 32.5t-32 85.5q0 55 32 86.5t77 31.5q43 0 75 -31.5t32 -86.5q0 -53 -32 -85.5t-75 -32.5zM249 1149q25 0 36.5 20t11.5 47q0 22 -11.5 42t-36.5 20q-26 0 -38 -20t-12 -42q0 -27 12 -47t38 -20z" />
    <glyph glyph-name="uni030B" unicode="&#x30b;" 
d="M409 1123l-44 45l117 140q14 16 26 24.5t24 8.5q18 0 30 -12t12 -30q0 -27 -30 -49zM428 1123l-43 45l115 140q14 17 26.5 25t24.5 8q18 0 30 -12.5t12 -29.5q0 -27 -30 -49z" />
    <glyph glyph-name="uni030C" unicode="&#x30c;" 
d="M315 1105l-162 219h85l112 -148l112 148h85l-161 -219h-71z" />
    <glyph glyph-name="uni030F" unicode="&#x30f;" 
d="M449 1106l-157 159q-16 16 -25 29.5t-9 28.5q0 25 15.5 39t35.5 14q28 0 44 -15.5t28 -35.5l113 -193zM254 1106l-158 159q-16 16 -24.5 29.5t-8.5 28.5q0 25 15.5 39t35.5 14q28 0 44 -15.5t28 -35.5l113 -193z" />
    <glyph glyph-name="uni0311" unicode="&#x311;" 
d="M332 1311q62 0 100 -27.5t55 -71t17 -93.5h-68q-4 62 -31.5 92t-72.5 30t-72 -30t-31 -92h-68q0 50 17 93.5t55 71t99 27.5z" />
    <glyph glyph-name="uni0312" unicode="&#x312;" 
d="M251 1349l37 -38q-10 -4 -32.5 -24t-26.5 -34q4 5 15 5q30 0 50.5 -21t20.5 -51t-21 -50.5t-51 -20.5q-34 0 -57.5 22t-23.5 62q0 39 15 68t36 49.5t38 32.5z" />
    <glyph glyph-name="uni031B" unicode="&#x31b;" 
d="M236 976v70q48 0 86.5 13t38.5 61q0 19 -6 44t-6 44q0 32 17 51t48 19q30 0 47 -18.5t17 -51.5q0 -93 -40 -143.5t-96 -69.5t-106 -19z" />
    <glyph glyph-name="dotbelowcomb" unicode="&#x323;" 
d="M307 -263q-32 0 -56.5 24t-24.5 55q0 33 24.5 57.5t56.5 24.5q31 0 55 -24.5t24 -57.5q0 -31 -24 -55t-55 -24z" />
    <glyph glyph-name="uni0324" unicode="&#x324;" 
d="M406 -259q-33 0 -57 23.5t-24 55.5q0 34 24 58.5t57 24.5q31 0 55 -24.5t24 -58.5q0 -32 -24 -55.5t-55 -23.5zM170 -259q-31 0 -55 23.5t-24 55.5q0 34 24 58.5t55 24.5q33 0 57 -24.5t24 -58.5q0 -32 -24 -55.5t-57 -23.5z" />
    <glyph glyph-name="uni0326" unicode="&#x326;" 
d="M218 -350l-36 43q10 4 30 20.5t24 30.5q-2 -3 -11 -3q-30 0 -50.5 21t-20.5 51t21.5 50.5t50.5 20.5q34 0 56.5 -22t22.5 -62q0 -39 -15 -68t-35.5 -49t-36.5 -33z" />
    <glyph glyph-name="uni0327" unicode="&#x327;" 
d="M304 -308q-51 0 -92 10.5t-56 18.5l26 63q11 -7 44 -17.5t74 -10.5q31 0 55 15.5t24 43.5q0 31 -15.5 41t-37.5 10q-16 0 -33.5 -7t-29.5 -21l-66 4l61 158h70l-44 -105q4 7 28 16.5t56 9.5q38 0 71.5 -23.5t33.5 -83.5q0 -42 -24 -69.5t-62.5 -40t-82.5 -12.5z" />
    <glyph glyph-name="uni0328" unicode="&#x328;" 
d="M347 -298q-42 0 -80 14t-61.5 45t-23.5 80q0 50 24 85.5t56 59.5t56 37l28 -23q-21 -23 -43 -56.5t-22 -82.5q0 -46 31 -60t59 -14q25 0 53 6.5t47 18.5l33 -60q-24 -21 -65.5 -35.5t-91.5 -14.5z" />
    <glyph glyph-name="uni032E" unicode="&#x32e;" 
d="M262 -294q-61 0 -98.5 27t-55 71t-17.5 93h68q5 -61 32 -91t71 -30q46 0 73 30t31 91h69q0 -49 -17.5 -93t-55.5 -71t-100 -27z" />
    <glyph glyph-name="uni0331" unicode="&#x331;" 
d="M225 -206v60h604v-60h-604z" />
    <glyph glyph-name="uni0335" unicode="&#x335;" 
d="M103 528v70h462v-70h-462z" />
    <glyph glyph-name="uni0336" unicode="&#x336;" 
d="M103 528v70h462v-70h-462z" />
    <glyph glyph-name="uni0337" unicode="&#x337;" 
d="M34 -104l497 1608h72l-495 -1608h-74z" />
    <glyph glyph-name="uni0338" unicode="&#x338;" 
d="M34 -104l497 1608h72l-495 -1608h-74z" />
    <glyph glyph-name="uni1E05" unicode="&#x1e05;" horiz-adv-x="759" 
d="M433 -20q-48 0 -78 25t-45 58t-18 58l-15 -121h-260v70h105v1360h-105v70h288v-556q4 15 18.5 42t45 49t78.5 22q68 0 123.5 -54.5t88.5 -173t33 -311.5q0 -200 -35.5 -318t-94 -169t-129.5 -51zM400 91q30 0 50.5 27t34 80.5t19.5 132.5t6 183q0 98 -5.5 176t-18 133
t-33 84t-49.5 29q-28 0 -49 -27.5t-33.5 -71t-16.5 -89.5v-391q2 -64 14.5 -125t33.5 -101t47 -40zM379 -263q-32 0 -56.5 24t-24.5 55q0 33 24.5 57.5t56.5 24.5q31 0 55 -24.5t24 -57.5q0 -31 -24 -55t-55 -24z" />
    <glyph glyph-name="uni1E08" unicode="&#x1e08;" horiz-adv-x="679" 
d="M406 -20q-150 0 -246 184t-96 534q0 132 22 260.5t65.5 233.5t109.5 167.5t154 62.5q60 0 105.5 -41t71 -102.5t25.5 -122.5q0 -53 -19 -82.5t-57 -29.5q-43 0 -62 25t-19 69q0 29 11 49.5t22 41.5t11 53q0 35 -16.5 51.5t-41.5 16.5q-40 0 -71 -41.5t-53.5 -111.5
t-37 -155.5t-21.5 -174.5t-7 -167q0 -115 8.5 -215t23.5 -180t37 -137t48.5 -87.5t58.5 -30.5q37 0 61.5 23t40 59t26.5 76l60 -32q-18 -53 -46.5 -97.5t-69.5 -71.5t-98 -27zM420 -308q-52 0 -92.5 10.5t-55.5 18.5l26 63q10 -7 43 -17.5t74 -10.5q32 0 55.5 15.5
t23.5 43.5q0 31 -15.5 41t-37.5 10q-16 0 -33 -7t-29 -21l-66 4l61 158h70l-45 -105q5 7 28.5 16.5t55.5 9.5q39 0 72.5 -23.5t33.5 -83.5q0 -42 -24 -69.5t-63 -40t-82 -12.5zM293 1463l-45 48l180 137q15 11 30 18.5t29 7.5q15 0 26.5 -7.5t18.5 -19.5q6 -11 6 -23
q0 -19 -16 -35.5t-41 -27.5z" />
    <glyph glyph-name="uni1E09" unicode="&#x1e09;" horiz-adv-x="637" 
d="M255 1082l-45 48l181 137q14 11 29 18.5t29 7.5q15 0 26.5 -7.5t18.5 -19.5q6 -11 6 -23q0 -19 -16 -35.5t-41 -27.5zM365 -21q-70 0 -127.5 42.5t-99 118t-64 176t-22.5 215.5q0 137 30 236.5t78 163.5t103.5 95.5t106.5 31.5q70 0 119 -39.5t74.5 -102t25.5 -131.5
q0 -51 -20.5 -79t-54.5 -28q-35 0 -56 24.5t-21 64.5q0 26 9 41t18 31t9 43q0 50 -27.5 77t-65.5 27q-41 0 -67.5 -41t-42.5 -107t-22.5 -145t-6.5 -155q0 -82 6.5 -166.5t23.5 -156t47 -115.5t76 -44q55 0 85 30.5t45 73.5l54 -45q-20 -47 -72 -91.5t-141 -44.5zM402 -307
q-52 0 -92.5 10.5t-55.5 18.5l26 63q10 -7 43 -17.5t74 -10.5q32 0 55.5 15.5t23.5 43.5q0 31 -15.5 41t-37.5 10q-16 0 -33 -7t-29 -21l-66 4l61 158h70l-45 -105q5 7 28.5 16.5t55.5 9.5q39 0 72.5 -23.5t33.5 -83.5q0 -42 -24 -69.5t-63 -40t-82 -12.5z" />
    <glyph glyph-name="uni1E0D" unicode="&#x1e0d;" horiz-adv-x="766" 
d="M327 -20q-70 0 -129 51t-94.5 169t-35.5 318q0 193 34.5 311.5t91 173t121.5 54.5q52 0 82 -19t44 -43.5t17 -41.5v476h-116v71h300v-1430h113v-70h-269l-16 122q-2 -27 -19 -60.5t-47.5 -57.5t-76.5 -24zM360 91q29 0 50 38t33.5 95.5t14.5 115.5v408q-3 51 -17 94.5
t-35 70t-48 26.5q-28 0 -48.5 -31t-33.5 -87.5t-19.5 -134.5t-6.5 -172q0 -102 7 -181t20 -133t34 -81.5t49 -27.5zM386 -263q-32 0 -56.5 24t-24.5 55q0 33 24.5 57.5t56.5 24.5q31 0 55 -24.5t24 -57.5q0 -31 -24 -55t-55 -24z" />
    <glyph glyph-name="uni1E0F" unicode="&#x1e0f;" horiz-adv-x="766" 
d="M327 -20q-70 0 -129 51t-94.5 169t-35.5 318q0 193 34.5 311.5t91 173t121.5 54.5q52 0 82 -19t44 -43.5t17 -41.5v476h-116v71h300v-1430h113v-70h-269l-16 122q-2 -27 -19 -60.5t-47.5 -57.5t-76.5 -24zM360 91q29 0 50 38t33.5 95.5t14.5 115.5v408q-3 51 -17 94.5
t-35 70t-48 26.5q-28 0 -48.5 -31t-33.5 -87.5t-19.5 -134.5t-6.5 -172q0 -102 7 -181t20 -133t34 -81.5t49 -27.5zM67 -255v70h534v-70h-534z" />
    <glyph glyph-name="uni1E15" unicode="&#x1e15;" horiz-adv-x="676" 
d="M353 -21q-75 0 -131 41t-93.5 114.5t-56.5 173.5t-19 218q0 137 25.5 237.5t68.5 166t95.5 97t107.5 31.5q65 0 115 -36.5t84 -99.5t51.5 -144.5t17.5 -172.5v-41.5t-2 -41.5h-394v70h222q0 133 -9 220.5t-29.5 131t-55.5 43.5q-33 0 -59 -43.5t-41 -138.5t-15 -249
q0 -114 6.5 -206.5t22 -158t42 -100t67.5 -34.5q65 0 102 36t51 71l60 -38q-20 -56 -84 -101.5t-149 -45.5zM80 1134v70h534v-70h-534zM455 1262l-202 96q-27 13 -41 26t-14 38q0 22 15.5 35t39.5 13q20 0 33.5 -7.5t27.5 -18.5l174 -142z" />
    <glyph glyph-name="uni1E17" unicode="&#x1e17;" horiz-adv-x="676" 
d="M353 -21q-75 0 -131 41t-93.5 114.5t-56.5 173.5t-19 218q0 137 25.5 237.5t68.5 166t95.5 97t107.5 31.5q65 0 115 -36.5t84 -99.5t51.5 -144.5t17.5 -172.5v-41.5t-2 -41.5h-394v70h222q0 133 -9 220.5t-29.5 131t-55.5 43.5q-33 0 -59 -43.5t-41 -138.5t-15 -249
q0 -114 6.5 -206.5t22 -158t42 -100t67.5 -34.5q65 0 102 36t51 71l60 -38q-20 -56 -84 -101.5t-149 -45.5zM80 1134v70h534v-70h-534zM241 1240l-45 48l181 137q14 11 29 18.5t29 7.5q15 0 26.5 -7.5t18.5 -19.5q6 -11 6 -23q0 -19 -16 -35.5t-41 -27.5z" />
    <glyph glyph-name="uni1E1D" unicode="&#x1e1d;" horiz-adv-x="676" 
d="M345 1102q-61 0 -99 27t-55 71t-17 93h68q4 -61 31 -91t72 -30t72.5 30t31.5 91h68q0 -49 -17 -93t-55 -71t-100 -27zM353 -21q-75 0 -131 41t-93.5 114.5t-56.5 173.5t-19 218q0 137 25.5 237.5t68.5 166t95.5 97t107.5 31.5q65 0 115 -36.5t84 -101.5t51.5 -151
t17.5 -184v-41.5t-2 -41.5h-394v70h222q0 133 -9 225.5t-29.5 141t-55.5 48.5q-33 0 -59 -48.5t-41 -148.5t-15 -254q0 -114 6.5 -204t22 -152.5t42 -95t67.5 -32.5q65 0 102 38.5t51 73.5l60 -38q-20 -56 -84 -101.5t-149 -45.5zM395 -308q-52 0 -92.5 10.5t-55.5 18.5
l26 63q10 -7 43 -17.5t74 -10.5q32 0 55.5 15.5t23.5 43.5q0 31 -15.5 41t-37.5 10q-16 0 -33 -7t-29 -21l-66 4l61 158h70l-45 -105q5 7 28.5 16.5t55.5 9.5q39 0 72.5 -23.5t33.5 -83.5q0 -42 -24 -69.5t-63 -40t-82 -12.5z" />
    <glyph glyph-name="uni1E21" unicode="&#x1e21;" horiz-adv-x="750" 
d="M370 -498q-88 0 -160.5 33t-115.5 93t-43 140q0 65 21 109t50 71t55 41t36 18q-8 2 -28.5 10.5t-43.5 27.5t-39.5 50t-16.5 76q0 38 14 65.5t35 43.5t40 20q4 1 10.5 2t8.5 1q-9 7 -26.5 30t-35.5 63t-31 99.5t-13 140.5q0 119 26.5 199.5t69 130t92.5 71t97 21.5
q90 0 151.5 -51t93.5 -142.5t32 -213.5q0 -121 -25.5 -202t-67 -129t-91 -68.5t-97.5 -20.5q-51 0 -80.5 11.5t-36.5 14.5q-1 0 -2 0.5t-3 0.5q-17 0 -34 -18t-17 -48q0 -43 43.5 -69.5t162.5 -46.5q145 -22 220 -89.5t75 -198.5q0 -79 -30.5 -133.5t-79.5 -88t-105.5 -49
t-110.5 -15.5zM370 -431q72 0 116 53t44 127q0 85 -24 126t-89 64q-20 9 -42 17.5t-41 15t-30 9.5q-27 -14 -49.5 -43.5t-36 -70.5t-13.5 -93q0 -56 19 -102.5t55.5 -74.5t90.5 -28zM368 303q27 0 49.5 25t36.5 99t14 220q0 142 -13.5 214.5t-36 98.5t-48.5 26t-49 -26
t-37.5 -100t-14.5 -218q0 -145 14.5 -217.5t37.5 -97t47 -24.5zM471 987q10 64 59.5 101.5t103.5 37.5q47 0 66 -22t19 -56q0 -32 -17.5 -50.5t-46.5 -18.5q-26 0 -37 12t-19.5 24t-27.5 12q-13 0 -23.5 -10t-10.5 -32zM102 1135v70h534v-70h-534z" />
    <glyph glyph-name="uni1E25" unicode="&#x1e25;" horiz-adv-x="829" 
d="M33 0v70h103v1360h-103v70h283v-556q2 11 23.5 39t61.5 52t94 24q55 0 102 -28t76 -98.5t29 -199.5v-663h104v-70h-360v70h76v646q0 125 -21 174.5t-66 49.5q-30 0 -56.5 -26t-43.5 -70.5t-19 -99.5v-674h79v-70h-362zM418 -263q-32 0 -56.5 24t-24.5 55q0 33 24.5 57.5
t56.5 24.5q31 0 55 -24.5t24 -57.5q0 -31 -24 -55t-55 -24z" />
    <glyph glyph-name="uni1E2B" unicode="&#x1e2b;" horiz-adv-x="829" 
d="M33 0v70h103v1360h-103v70h283v-556q2 11 23.5 39t61.5 52t94 24q55 0 102 -28t76 -98.5t29 -199.5v-663h104v-70h-360v70h76v646q0 125 -21 174.5t-66 49.5q-30 0 -56.5 -26t-43.5 -70.5t-19 -99.5v-674h79v-70h-362zM417 -294q-61 0 -98.5 27t-55 71t-17.5 93h68
q5 -61 32 -91t71 -30q46 0 73 30t31 91h69q0 -49 -17.5 -93t-55.5 -71t-100 -27z" />
    <glyph glyph-name="uni1E2F" unicode="&#x1e2f;" horiz-adv-x="449" 
d="M33 0v70h104v907h-104v70h284v-977h106v-70h-390zM344 1129q-32 0 -56 23.5t-24 54.5q0 35 24 59.5t56 24.5t56 -24.5t24 -59.5q0 -31 -24 -54.5t-56 -23.5zM109 1129q-31 0 -55 23.5t-24 54.5q0 35 24 59.5t55 24.5q33 0 57 -24.5t24 -59.5q0 -31 -24 -54.5t-57 -23.5z
M122 1327l-45 48l181 137q14 11 29 18.5t29 7.5q15 0 26.5 -7.5t18.5 -19.5q6 -11 6 -23q0 -19 -16 -35.5t-41 -27.5z" />
    <glyph glyph-name="uni1E37" unicode="&#x1e37;" horiz-adv-x="455" 
d="M38 0v70h100v1360h-100v70h279v-1430h101v-70h-380zM231 -263q-32 0 -56.5 24t-24.5 55q0 33 24.5 57.5t56.5 24.5q31 0 55 -24.5t24 -57.5q0 -31 -24 -55t-55 -24z" />
    <glyph glyph-name="uni1E3B" unicode="&#x1e3b;" horiz-adv-x="455" 
d="M38 0v70h100v1360h-100v70h279v-1430h101v-70h-380zM-72 -206v60h604v-60h-604z" />
    <glyph glyph-name="uni1E3F" unicode="&#x1e3f;" horiz-adv-x="1137" 
d="M32 0v70h98v907h-98v70h273v-111q2 16 22 45.5t58.5 52.5t95.5 23q58 0 93 -28t52 -61.5t20 -49.5q6 27 32.5 59.5t69.5 56t99 23.5q90 0 137.5 -74t47.5 -186v-727h94v-70h-351v70h77v624q0 83 -4.5 139t-20.5 85t-51 29q-38 0 -61 -30t-34.5 -79t-13.5 -107v-661h79
v-70h-332v70h75v624q0 124 -11 188.5t-65 64.5q-37 0 -59.5 -30.5t-32.5 -82t-11 -113.5v-651h75v-70h-353zM477 1082l-45 48l181 137q14 11 29 18.5t29 7.5q15 0 26.5 -7.5t18.5 -19.5q6 -11 6 -23q0 -19 -16 -35.5t-41 -27.5z" />
    <glyph glyph-name="uni1E43" unicode="&#x1e43;" horiz-adv-x="1137" 
d="M32 0v70h98v907h-98v70h273v-111q2 16 22 45.5t58.5 52.5t95.5 23q58 0 93 -28t52 -61.5t20 -49.5q6 27 32.5 59.5t69.5 56t99 23.5q90 0 137.5 -74t47.5 -186v-727h94v-70h-351v70h77v624q0 83 -4.5 139t-20.5 85t-51 29q-38 0 -61 -30t-34.5 -79t-13.5 -107v-661h79
v-70h-332v70h75v624q0 124 -11 188.5t-65 64.5q-37 0 -59.5 -30.5t-32.5 -82t-11 -113.5v-651h75v-70h-353zM583 -263q-32 0 -56.5 24t-24.5 55q0 33 24.5 57.5t56.5 24.5q31 0 55 -24.5t24 -57.5q0 -31 -24 -55t-55 -24z" />
    <glyph glyph-name="uni1E45" unicode="&#x1e45;" horiz-adv-x="817" 
d="M33 0v70h105v907h-105v70h280v-105q5 20 27 47.5t60 48t89 20.5q52 0 98 -24.5t75 -92t29 -198.5v-673h103v-70h-364v70h81v661q0 115 -20 166.5t-65 51.5q-23 0 -42.5 -16.5t-34 -45t-22.5 -64.5t-9 -75v-678h79v-70h-364zM419 1134q-32 0 -56.5 23.5t-24.5 55.5
q0 33 24.5 57.5t56.5 24.5q31 0 55 -24.5t24 -57.5q0 -32 -24 -55.5t-55 -23.5z" />
    <glyph glyph-name="uni1E47" unicode="&#x1e47;" horiz-adv-x="817" 
d="M33 0v70h105v907h-105v70h280v-105q5 20 27 47.5t60 48t89 20.5q52 0 98 -24.5t75 -92t29 -198.5v-673h103v-70h-364v70h81v661q0 115 -20 166.5t-65 51.5q-23 0 -42.5 -16.5t-34 -45t-22.5 -64.5t-9 -75v-678h79v-70h-364zM419 -263q-32 0 -56.5 24t-24.5 55
q0 33 24.5 57.5t56.5 24.5q31 0 55 -24.5t24 -57.5q0 -31 -24 -55t-55 -24z" />
    <glyph glyph-name="uni1E49" unicode="&#x1e49;" horiz-adv-x="817" 
d="M33 0v70h105v907h-105v70h280v-105q5 20 27 47.5t60 48t89 20.5q52 0 98 -24.5t75 -92t29 -198.5v-673h103v-70h-364v70h81v661q0 115 -20 166.5t-65 51.5q-23 0 -42.5 -16.5t-34 -45t-22.5 -64.5t-9 -75v-678h79v-70h-364zM117 -206v60h604v-60h-604z" />
    <glyph glyph-name="uni1E4D" unicode="&#x1e4d;" horiz-adv-x="705" 
d="M350 -22q-57 0 -110.5 35.5t-95.5 105t-66.5 172t-24.5 236.5q0 147 26 248.5t68.5 164t95.5 90.5t107 28q53 0 106 -28t96 -90.5t69.5 -164t26.5 -248.5q0 -134 -25 -236.5t-67 -172t-95.5 -105t-110.5 -35.5zM350 55q51 0 82.5 113t31.5 359q0 244 -31.5 350t-82.5 106
t-82.5 -106t-31.5 -350q0 -246 31.5 -359t82.5 -113zM437 1134q-40 0 -66 15.5t-47 30.5t-45 15q-32 0 -48.5 -17t-21.5 -28l-69 31q6 18 23 42t43.5 42t59.5 18q42 0 68 -15.5t48 -31t50 -15.5q30 0 43.5 15t19.5 27l67 -35q-4 -15 -20.5 -37t-43 -39.5t-61.5 -17.5z
M246 1319l-45 48l181 137q14 11 29 18.5t29 7.5q15 0 26.5 -7.5t18.5 -19.5q6 -11 6 -23q0 -19 -16 -35.5t-41 -27.5z" />
    <glyph glyph-name="uni1E4F" unicode="&#x1e4f;" horiz-adv-x="705" 
d="M350 -22q-57 0 -110.5 35.5t-95.5 105t-66.5 172t-24.5 236.5q0 147 26 248.5t68.5 164t95.5 90.5t107 28q53 0 106 -28t96 -90.5t69.5 -164t26.5 -248.5q0 -134 -25 -236.5t-67 -172t-95.5 -105t-110.5 -35.5zM350 55q51 0 82.5 113t31.5 359q0 244 -31.5 350t-82.5 106
t-82.5 -106t-31.5 -350q0 -246 31.5 -359t82.5 -113zM437 1134q-40 0 -66 15.5t-47 30.5t-45 15q-32 0 -48.5 -17t-21.5 -28l-69 31q6 18 23 42t43.5 42t59.5 18q42 0 68 -15.5t48 -31t50 -15.5q30 0 43.5 15t19.5 27l67 -35q-4 -15 -20.5 -37t-43 -39.5t-61.5 -17.5z
M468 1366q-32 0 -56 23.5t-24 54.5q0 35 24 59.5t56 24.5t56 -24.5t24 -59.5q0 -31 -24 -54.5t-56 -23.5zM233 1366q-31 0 -55 23.5t-24 54.5q0 35 24 59.5t55 24.5q33 0 57 -24.5t24 -59.5q0 -31 -24 -54.5t-57 -23.5z" />
    <glyph glyph-name="uni1E51" unicode="&#x1e51;" horiz-adv-x="705" 
d="M350 -22q-57 0 -110.5 35.5t-95.5 105t-66.5 172t-24.5 236.5q0 147 26 248.5t68.5 164t95.5 90.5t107 28q53 0 106 -28t96 -90.5t69.5 -164t26.5 -248.5q0 -134 -25 -236.5t-67 -172t-95.5 -105t-110.5 -35.5zM350 55q51 0 82.5 113t31.5 359q0 244 -31.5 350t-82.5 106
t-82.5 -106t-31.5 -350q0 -246 31.5 -359t82.5 -113zM133 1135v70h436v-70h-436zM459 1263l-202 96q-27 13 -41 26t-14 38q0 22 15.5 35t39.5 13q20 0 33.5 -7.5t27.5 -18.5l174 -142z" />
    <glyph glyph-name="uni1E53" unicode="&#x1e53;" horiz-adv-x="705" 
d="M350 -22q-57 0 -110.5 35.5t-95.5 105t-66.5 172t-24.5 236.5q0 147 26 248.5t68.5 164t95.5 90.5t107 28q53 0 106 -28t96 -90.5t69.5 -164t26.5 -248.5q0 -134 -25 -236.5t-67 -172t-95.5 -105t-110.5 -35.5zM350 55q51 0 82.5 113t31.5 359q0 244 -31.5 350t-82.5 106
t-82.5 -106t-31.5 -350q0 -246 31.5 -359t82.5 -113zM133 1135v70h436v-70h-436zM246 1241l-45 48l181 137q14 11 29 18.5t29 7.5q15 0 26.5 -7.5t18.5 -19.5q6 -11 6 -23q0 -19 -16 -35.5t-41 -27.5z" />
    <glyph glyph-name="uni1E5B" unicode="&#x1e5b;" horiz-adv-x="636" 
d="M26 0v70h104v907h-104v70h269l10 -95q3 13 22 38.5t51 46.5t75 21q53 0 86.5 -35.5t49.5 -95.5t16 -134q0 -56 -20.5 -85.5t-56.5 -29.5q-33 0 -53 24.5t-20 69.5q0 28 10 45t20 34.5t10 47.5q0 42 -15 60.5t-43 18.5q-34 0 -63 -31t-46.5 -85t-17.5 -122v-670h105v-70
h-389zM275 -263q-32 0 -56.5 24t-24.5 55q0 33 24.5 57.5t56.5 24.5q31 0 55 -24.5t24 -57.5q0 -31 -24 -55t-55 -24z" />
    <glyph glyph-name="uni1E5F" unicode="&#x1e5f;" horiz-adv-x="636" 
d="M26 0v70h104v907h-104v70h269l10 -95q3 13 22 38.5t51 46.5t75 21q53 0 86.5 -35.5t49.5 -95.5t16 -134q0 -56 -20.5 -85.5t-56.5 -29.5q-33 0 -53 24.5t-20 69.5q0 28 10 45t20 34.5t10 47.5q0 42 -15 60.5t-43 18.5q-34 0 -63 -31t-46.5 -85t-17.5 -122v-670h105v-70
h-389zM-27 -206v60h604v-60h-604z" />
    <glyph glyph-name="uni1E61" unicode="&#x1e61;" horiz-adv-x="567" 
d="M292 -22q-55 0 -83.5 14t-43 27.5t-28.5 13.5q-13 0 -18 -8.5t-5 -24.5h-61v307h73q5 -58 17.5 -106t32.5 -82t48 -52.5t65 -18.5q35 0 56.5 18t31.5 46t10 60q0 48 -16.5 92.5t-49.5 91.5t-84 101q-73 77 -125 159t-52 201q0 83 31.5 136t81.5 79t105 26q42 0 67 -10.5
t40 -21t26 -10.5q8 0 12.5 7t5.5 24h63v-298h-72q-4 53 -14 97t-27 75.5t-41 48.5t-56 17q-48 0 -73 -36t-25 -88q0 -63 37.5 -117.5t107.5 -126.5q54 -58 96 -115.5t66 -121.5t24 -141q0 -85 -27.5 -143.5t-77.5 -89t-118 -30.5zM293 1134q-32 0 -56.5 23.5t-24.5 55.5
q0 33 24.5 57.5t56.5 24.5q31 0 55 -24.5t24 -57.5q0 -32 -24 -55.5t-55 -23.5z" />
    <glyph glyph-name="uni1E63" unicode="&#x1e63;" horiz-adv-x="567" 
d="M292 -22q-55 0 -83.5 14t-43 27.5t-28.5 13.5q-13 0 -18 -8.5t-5 -24.5h-61v307h73q5 -58 17.5 -106t32.5 -82t48 -52.5t65 -18.5q35 0 56.5 18t31.5 46t10 60q0 48 -16.5 92.5t-49.5 91.5t-84 101q-73 77 -125 159t-52 201q0 83 31.5 136t81.5 79t105 26q42 0 67 -10.5
t40 -21t26 -10.5q8 0 12.5 7t5.5 24h63v-298h-72q-4 53 -14 97t-27 75.5t-41 48.5t-56 17q-48 0 -73 -36t-25 -88q0 -63 37.5 -117.5t107.5 -126.5q54 -58 96 -115.5t66 -121.5t24 -141q0 -85 -27.5 -143.5t-77.5 -89t-118 -30.5zM293 -263q-32 0 -56.5 24t-24.5 55
q0 33 24.5 57.5t56.5 24.5q31 0 55 -24.5t24 -57.5q0 -31 -24 -55t-55 -24z" />
    <glyph glyph-name="uni1E65" unicode="&#x1e65;" horiz-adv-x="567" 
d="M292 -22q-55 0 -83.5 14t-43 27.5t-28.5 13.5q-13 0 -18 -8.5t-5 -24.5h-61v307h73q5 -58 17.5 -106t32.5 -82t48 -52.5t65 -18.5q35 0 56.5 18t31.5 46t10 60q0 48 -16.5 92.5t-49.5 91.5t-84 101q-73 77 -125 159t-52 201q0 83 31.5 136t81.5 79t105 26q42 0 67 -10.5
t40 -21t26 -10.5q8 0 12.5 7t5.5 24h63v-298h-72q-4 53 -14 97t-27 75.5t-41 48.5t-56 17q-48 0 -73 -36t-25 -88q0 -63 37.5 -117.5t107.5 -126.5q54 -58 96 -115.5t66 -121.5t24 -141q0 -85 -27.5 -143.5t-77.5 -89t-118 -30.5zM188 1082l-45 48l181 137q14 11 29 18.5
t29 7.5q15 0 26.5 -7.5t18.5 -19.5q6 -11 6 -23q0 -19 -16 -35.5t-41 -27.5zM293 1378q-32 0 -56.5 23.5t-24.5 55.5q0 33 24.5 57.5t56.5 24.5q31 0 55 -24.5t24 -57.5q0 -32 -24 -55.5t-55 -23.5z" />
    <glyph glyph-name="uni1E67" unicode="&#x1e67;" horiz-adv-x="567" 
d="M292 -22q-55 0 -83.5 14t-43 27.5t-28.5 13.5q-13 0 -18 -8.5t-5 -24.5h-61v307h73q5 -58 17.5 -106t32.5 -82t48 -52.5t65 -18.5q35 0 56.5 18t31.5 46t10 60q0 48 -16.5 92.5t-49.5 91.5t-84 101q-73 77 -125 159t-52 201q0 83 31.5 136t81.5 79t105 26q42 0 67 -10.5
t40 -21t26 -10.5q8 0 12.5 7t5.5 24h63v-298h-72q-4 53 -14 97t-27 75.5t-41 48.5t-56 17q-48 0 -73 -36t-25 -88q0 -63 37.5 -117.5t107.5 -126.5q54 -58 96 -115.5t66 -121.5t24 -141q0 -85 -27.5 -143.5t-77.5 -89t-118 -30.5zM258 1106l-162 219h85l112 -148l112 148h85
l-161 -219h-71zM293 1387q-32 0 -56.5 23.5t-24.5 55.5q0 33 24.5 57.5t56.5 24.5q31 0 55 -24.5t24 -57.5q0 -32 -24 -55.5t-55 -23.5z" />
    <glyph glyph-name="uni1E69" unicode="&#x1e69;" horiz-adv-x="567" 
d="M292 -22q-55 0 -83.5 14t-43 27.5t-28.5 13.5q-13 0 -18 -8.5t-5 -24.5h-61v307h73q5 -58 17.5 -106t32.5 -82t48 -52.5t65 -18.5q35 0 56.5 18t31.5 46t10 60q0 48 -16.5 92.5t-49.5 91.5t-84 101q-73 77 -125 159t-52 201q0 83 31.5 136t81.5 79t105 26q42 0 67 -10.5
t40 -21t26 -10.5q8 0 12.5 7t5.5 24h63v-298h-72q-4 53 -14 97t-27 75.5t-41 48.5t-56 17q-48 0 -73 -36t-25 -88q0 -63 37.5 -117.5t107.5 -126.5q54 -58 96 -115.5t66 -121.5t24 -141q0 -85 -27.5 -143.5t-77.5 -89t-118 -30.5zM293 -263q-32 0 -56.5 24t-24.5 55
q0 33 24.5 57.5t56.5 24.5q31 0 55 -24.5t24 -57.5q0 -31 -24 -55t-55 -24zM293 1134q-32 0 -56.5 23.5t-24.5 55.5q0 33 24.5 57.5t56.5 24.5q31 0 55 -24.5t24 -57.5q0 -32 -24 -55.5t-55 -23.5z" />
    <glyph glyph-name="uni1E6D" unicode="&#x1e6d;" horiz-adv-x="495" 
d="M329 -18q-49 0 -94 16.5t-73 61.5t-28 131v786h-132v70h132q29 20 51.5 66.5t37 105.5t18.5 119h73v-291h154v-70h-154v-850q0 -42 18 -56t35 -14q20 0 34.5 7.5t21.5 16.5l41 -55q-22 -19 -56 -31.5t-79 -12.5zM315 -251q-32 0 -56.5 24t-24.5 55q0 33 24.5 57.5
t56.5 24.5q31 0 55 -24.5t24 -57.5q0 -31 -24 -55t-55 -24z" />
    <glyph glyph-name="uni1E6F" unicode="&#x1e6f;" horiz-adv-x="490" 
d="M63 -183v70h385v-70h-385zM329 -18q-49 0 -94 16.5t-73 61.5t-28 131v786h-132v70h132q29 20 51.5 66.5t37 105.5t18.5 119h73v-291h154v-70h-154v-850q0 -42 18 -56t35 -14q20 0 34.5 7.5t21.5 16.5l41 -55q-22 -19 -56 -31.5t-79 -12.5z" />
    <glyph glyph-name="uni1E79" unicode="&#x1e79;" horiz-adv-x="790" 
d="M336 -22q-58 0 -107 24t-78.5 89.5t-29.5 192.5v693h-103v69h283v-743q0 -93 10.5 -141.5t29.5 -66t46 -17.5q34 0 59.5 35t39 96t13.5 138v630h-95v69h275v-976h90v-70h-248l-10 113q-4 -26 -26 -57.5t-59.5 -54.5t-89.5 -23zM490 1134q-40 0 -66 15.5t-47 30.5t-45 15
q-32 0 -48.5 -17t-21.5 -28l-69 31q6 18 23 42t43.5 42t59.5 18q42 0 68 -15.5t48 -31t50 -15.5q30 0 43.5 15t19.5 27l67 -35q-4 -15 -20.5 -37t-43 -39.5t-61.5 -17.5zM298 1319l-45 48l181 137q14 11 29 18.5t29 7.5q15 0 26.5 -7.5t18.5 -19.5q6 -11 6 -23
q0 -19 -16 -35.5t-41 -27.5z" />
    <glyph glyph-name="uni1E7B" unicode="&#x1e7b;" horiz-adv-x="790" 
d="M336 -22q-58 0 -107 24t-78.5 89.5t-29.5 192.5v693h-103v69h283v-743q0 -93 10.5 -141.5t29.5 -66t46 -17.5q34 0 59.5 35t39 96t13.5 138v630h-95v69h275v-976h90v-70h-248l-10 113q-4 -26 -26 -57.5t-59.5 -54.5t-89.5 -23zM137 1135v70h534v-70h-534zM520 1288
q-32 0 -56 23.5t-24 54.5q0 35 24 59.5t56 24.5t56 -24.5t24 -59.5q0 -31 -24 -54.5t-56 -23.5zM285 1288q-31 0 -55 23.5t-24 54.5q0 35 24 59.5t55 24.5q33 0 57 -24.5t24 -59.5q0 -31 -24 -54.5t-57 -23.5z" />
    <glyph glyph-name="Wgrave" unicode="&#x1e80;" horiz-adv-x="1112" 
d="M311 -2l-193 1332h-103v70h387v-70h-76l105 -926l-25 -51l140 942l21 -156l-38 191h-87v70h372v-70h-86l119 -914l-18 -51l121 965h-81v70h243v-70h-85l-190 -1332h-94l-173 1125l33 56l-198 -1181h-94zM689 1448l-202 96q-27 13 -41 26t-14 38q0 22 15.5 35t39.5 13
q20 0 33.5 -7.5t27.5 -18.5l174 -142z" />
    <glyph glyph-name="wgrave" unicode="&#x1e81;" horiz-adv-x="1046" 
d="M672 -3l-169 980h-81v70h339v-70h-71l90 -645l96 645h-65v70h221v-70h-77l-164 -980h-119zM259 -3l-163 980h-79v70h344v-70h-72l80 -645l100 645h-42v70h202v-70h-82l-169 -980h-119zM640 1104l-202 96q-27 13 -41 26t-14 38q0 22 15.5 35t39.5 13q20 0 33.5 -7.5
t27.5 -18.5l174 -142z" />
    <glyph glyph-name="Wacute" unicode="&#x1e82;" horiz-adv-x="1112" 
d="M311 -2l-193 1332h-103v70h387v-70h-76l105 -926l-25 -51l140 942l21 -156l-38 191h-87v70h372v-70h-86l119 -914l-18 -51l121 965h-81v70h243v-70h-85l-190 -1332h-94l-173 1125l33 56l-198 -1181h-94zM476 1443l-45 48l180 137q15 11 30 18.5t29 7.5q15 0 26.5 -7.5
t18.5 -19.5q6 -11 6 -23q0 -19 -16 -35.5t-41 -27.5z" />
    <glyph glyph-name="wacute" unicode="&#x1e83;" horiz-adv-x="1046" 
d="M672 -3l-169 980h-81v70h339v-70h-71l90 -645l96 645h-65v70h221v-70h-77l-164 -980h-119zM259 -3l-163 980h-79v70h344v-70h-72l80 -645l100 645h-42v70h202v-70h-82l-169 -980h-119zM426 1082l-45 48l181 137q14 11 29 18.5t29 7.5q15 0 26.5 -7.5t18.5 -19.5
q6 -11 6 -23q0 -19 -16 -35.5t-41 -27.5z" />
    <glyph glyph-name="Wdieresis" unicode="&#x1e84;" horiz-adv-x="1112" 
d="M311 -2l-193 1332h-103v70h387v-70h-76l105 -926l-25 -51l140 942l21 -156l-38 191h-87v70h372v-70h-86l119 -914l-18 -51l121 965h-81v70h243v-70h-85l-190 -1332h-94l-173 1125l33 56l-198 -1181h-94zM698 1501q-32 0 -56 23.5t-24 54.5q0 35 24 59.5t56 24.5t56 -24.5
t24 -59.5q0 -31 -24 -54.5t-56 -23.5zM463 1501q-31 0 -55 23.5t-24 54.5q0 35 24 59.5t55 24.5q33 0 57 -24.5t24 -59.5q0 -31 -24 -54.5t-57 -23.5z" />
    <glyph glyph-name="wdieresis" unicode="&#x1e85;" horiz-adv-x="1046" 
d="M672 -3l-169 980h-81v70h339v-70h-71l90 -645l96 645h-65v70h221v-70h-77l-164 -980h-119zM259 -3l-163 980h-79v70h344v-70h-72l80 -645l100 645h-42v70h202v-70h-82l-169 -980h-119zM648 1129q-32 0 -56 23.5t-24 54.5q0 35 24 59.5t56 24.5t56 -24.5t24 -59.5
q0 -31 -24 -54.5t-56 -23.5zM413 1129q-31 0 -55 23.5t-24 54.5q0 35 24 59.5t55 24.5q33 0 57 -24.5t24 -59.5q0 -31 -24 -54.5t-57 -23.5z" />
    <glyph glyph-name="uni1E8F" unicode="&#x1e8f;" horiz-adv-x="675" 
d="M199 -502q-45 0 -74 32.5t-43.5 88t-14.5 125.5q0 53 20.5 81.5t54.5 28.5q35 0 54 -25t19 -67q0 -33 -11.5 -54t-23 -39t-11.5 -46q0 -25 9 -46t28 -21q11 0 18.5 10t14 30.5t12.5 52.5l74 355l-225 973h-83v70h351v-70h-76l120 -572l110 572h-74v70h228v-70h-76
l-205 -984l-78 -361q-8 -43 -23 -73t-37.5 -45.5t-57.5 -15.5zM346 1134q-32 0 -56.5 23.5t-24.5 55.5q0 33 24.5 57.5t56.5 24.5q31 0 55 -24.5t24 -57.5q0 -32 -24 -55.5t-55 -23.5z" />
    <glyph glyph-name="uni1E93" unicode="&#x1e93;" horiz-adv-x="604" 
d="M76 0v70l267 907h-96q-47 0 -68 -17.5t-25.5 -67t-4.5 -143.5h-68v298h446v-70l-267 -907h91q52 0 73.5 19t26.5 70.5t5 147.5h70v-307h-450zM304 -263q-32 0 -56.5 24t-24.5 55q0 33 24.5 57.5t56.5 24.5q31 0 55 -24.5t24 -57.5q0 -31 -24 -55t-55 -24z" />
    <glyph glyph-name="uni1E97" unicode="&#x1e97;" horiz-adv-x="495" 
d="M329 -18q-49 0 -94 16.5t-73 61.5t-28 131v786h-132v70h132q29 20 51.5 66.5t37 105.5t18.5 119h73v-291h154v-70h-154v-850q0 -42 18 -56t35 -14q20 0 34.5 7.5t21.5 16.5l41 -55q-22 -19 -56 -31.5t-79 -12.5zM362 1393q-32 0 -56 23.5t-24 54.5q0 35 24 59.5t56 24.5
t56 -24.5t24 -59.5q0 -31 -24 -54.5t-56 -23.5zM127 1393q-31 0 -55 23.5t-24 54.5q0 35 24 59.5t55 24.5q33 0 57 -24.5t24 -59.5q0 -31 -24 -54.5t-57 -23.5z" />
    <glyph glyph-name="uni1E9E" unicode="&#x1e9e;" horiz-adv-x="900" 
d="M563 -23q-57 0 -97 39.5t-40 116.5q0 47 20 71.5t50 24.5q27 0 44 -18t17 -52q0 -25 -7 -39.5t-15 -24t-8 -21.5t8 -22t25 -10q38 0 63 26.5t37.5 77t12.5 122.5q0 94 -25 168t-62 132.5t-74.5 108.5t-62.5 95t-25 91q0 31 24 79t63.5 104.5t85 114t89.5 109.5t77 90
h-283q-61 0 -92 -31t-41 -94t-10 -160v-1075h-286v68h99v949q0 142 40.5 232t114 132.5t171.5 42.5h333l39 -66q-47 -55 -105 -125.5t-111 -140.5t-87.5 -125.5t-34.5 -82.5q0 -29 31.5 -66t78 -84t92.5 -107.5t77.5 -137t31.5 -172.5q0 -114 -35.5 -189.5t-94 -113
t-128.5 -37.5z" />
    <glyph glyph-name="uni1EA0" unicode="&#x1ea0;" horiz-adv-x="690" 
d="M5 0v70h80l185 1332h119l205 -1332h95v-70h-370v70h81l-121 936v0l-121 -936h73v-70h-226zM161 296v66h237v-66h-237zM324 -263q-32 0 -56.5 24t-24.5 55q0 33 24.5 57.5t56.5 24.5q31 0 55 -24.5t24 -57.5q0 -31 -24 -55t-55 -24z" />
    <glyph glyph-name="uni1EA1" unicode="&#x1ea1;" horiz-adv-x="728" 
d="M274 -21q-63 0 -113 31t-79 90t-29 143q0 94 37.5 155.5t93.5 104t111.5 77t93.5 71.5t38 90q0 75 -12 128.5t-38 82t-69 28.5q-49 0 -80.5 -30.5t-31.5 -69.5q0 -24 8 -39t16 -31.5t8 -44.5q0 -39 -20.5 -63t-55.5 -24t-55.5 30.5t-20.5 83.5q0 76 33.5 136.5t93 95
t138.5 34.5t138.5 -34.5t93.5 -109.5t34 -198v-569q0 -46 8.5 -61.5t26.5 -15.5q17 0 28.5 8t17.5 15l38 -57q-15 -18 -53 -34t-88 -16t-79.5 15t-44 38t-18.5 46q-5 -15 -23 -40.5t-53 -45.5t-93 -20zM327 76q32 0 54.5 26t34 63.5t11.5 70.5v370q-3 -28 -32 -54.5
t-65.5 -61t-64 -89t-27.5 -139.5q0 -92 23.5 -139t65.5 -47zM378 -263q-32 0 -56.5 24t-24.5 55q0 33 24.5 57.5t56.5 24.5q31 0 55 -24.5t24 -57.5q0 -31 -24 -55t-55 -24z" />
    <glyph glyph-name="uni1EA2" unicode="&#x1ea2;" horiz-adv-x="690" 
d="M5 0v70h80l185 1332h119l205 -1332h95v-70h-370v70h81l-121 936v0l-121 -936h73v-70h-226zM161 296v66h237v-66h-237zM325 1743q56 0 98.5 -24t42.5 -83q0 -44 -26.5 -72t-53 -49.5t-26.5 -47.5h-60q0 41 18 66.5t35.5 47.5t17.5 50q0 29 -16.5 39t-45.5 10
q-24 0 -43.5 -7.5t-33.5 -20.5l-47 46q18 20 57.5 32.5t82.5 12.5z" />
    <glyph glyph-name="uni1EA3" unicode="&#x1ea3;" horiz-adv-x="728" 
d="M274 -21q-63 0 -113 31t-79 90t-29 143q0 94 37.5 155.5t93.5 104t111.5 77t93.5 71.5t38 90q0 75 -12 128.5t-38 82t-69 28.5q-49 0 -80.5 -30.5t-31.5 -69.5q0 -24 8 -39t16 -31.5t8 -44.5q0 -39 -20.5 -63t-55.5 -24t-55.5 30.5t-20.5 83.5q0 76 33.5 136.5t93 95
t138.5 34.5t138.5 -34.5t93.5 -109.5t34 -198v-569q0 -46 8.5 -61.5t26.5 -15.5q17 0 28.5 8t17.5 15l38 -57q-15 -18 -53 -34t-88 -16t-79.5 15t-44 38t-18.5 46q-5 -15 -23 -40.5t-53 -45.5t-93 -20zM327 76q32 0 54.5 26t34 63.5t11.5 70.5v370q-3 -28 -32 -54.5
t-65.5 -61t-64 -89t-27.5 -139.5q0 -92 23.5 -139t65.5 -47zM344 1414q56 0 98.5 -24t42.5 -83q0 -44 -26.5 -72t-53 -49.5t-26.5 -47.5h-60q0 41 18 66.5t35.5 47.5t17.5 50q0 29 -16.5 39t-45.5 10q-24 0 -43.5 -7.5t-33.5 -20.5l-47 46q18 20 57.5 32.5t82.5 12.5z" />
    <glyph glyph-name="uni1EA4" unicode="&#x1ea4;" horiz-adv-x="690" 
d="M5 0v70h80l185 1332h119l205 -1332h95v-70h-370v70h81l-121 936v0l-121 -936h73v-70h-226zM161 296v66h237v-66h-237zM150 1468l147 165h71l146 -165h-79l-103 95l-103 -95h-79zM464 1607l-38 40l153 117q28 22 50 22q13 0 23 -6.5t15 -16.5q6 -10 6 -20q0 -16 -14 -30
t-35 -23z" />
    <glyph glyph-name="uni1EA5" unicode="&#x1ea5;" horiz-adv-x="728" 
d="M274 -21q-63 0 -113 31t-79 90t-29 143q0 94 37.5 155.5t93.5 104t111.5 77t93.5 71.5t38 90q0 75 -12 128.5t-38 82t-69 28.5q-49 0 -80.5 -30.5t-31.5 -69.5q0 -24 8 -39t16 -31.5t8 -44.5q0 -39 -20.5 -63t-55.5 -24t-55.5 30.5t-20.5 83.5q0 76 33.5 136.5t93 95
t138.5 34.5t138.5 -34.5t93.5 -109.5t34 -198v-569q0 -46 8.5 -61.5t26.5 -15.5q17 0 28.5 8t17.5 15l38 -57q-15 -18 -53 -34t-88 -16t-79.5 15t-44 38t-18.5 46q-5 -15 -23 -40.5t-53 -45.5t-93 -20zM327 76q32 0 54.5 26t34 63.5t11.5 70.5v370q-3 -28 -32 -54.5
t-65.5 -61t-64 -89t-27.5 -139.5q0 -92 23.5 -139t65.5 -47zM169 1115l147 205h71l146 -205h-79l-103 135l-103 -135h-79zM483 1294l-38 40l153 117q28 22 50 22q13 0 23 -6.5t15 -16.5q6 -10 6 -20q0 -16 -14 -30t-35 -23z" />
    <glyph glyph-name="uni1EA6" unicode="&#x1ea6;" horiz-adv-x="690" 
d="M5 0v70h80l185 1332h119l205 -1332h95v-70h-370v70h81l-121 936v0l-121 -936h73v-70h-226zM161 296v66h237v-66h-237zM150 1468l147 165h71l146 -165h-79l-103 95l-103 -95h-79zM526 1609l-174 82q-22 11 -34.5 22t-12.5 33q0 19 13.5 30.5t34.5 11.5q17 0 29 -6t24 -17
l149 -122z" />
    <glyph glyph-name="uni1EA7" unicode="&#x1ea7;" horiz-adv-x="728" 
d="M274 -21q-63 0 -113 31t-79 90t-29 143q0 94 37.5 155.5t93.5 104t111.5 77t93.5 71.5t38 90q0 75 -12 128.5t-38 82t-69 28.5q-49 0 -80.5 -30.5t-31.5 -69.5q0 -24 8 -39t16 -31.5t8 -44.5q0 -39 -20.5 -63t-55.5 -24t-55.5 30.5t-20.5 83.5q0 76 33.5 136.5t93 95
t138.5 34.5t138.5 -34.5t93.5 -109.5t34 -198v-569q0 -46 8.5 -61.5t26.5 -15.5q17 0 28.5 8t17.5 15l38 -57q-15 -18 -53 -34t-88 -16t-79.5 15t-44 38t-18.5 46q-5 -15 -23 -40.5t-53 -45.5t-93 -20zM327 76q32 0 54.5 26t34 63.5t11.5 70.5v370q-3 -28 -32 -54.5
t-65.5 -61t-64 -89t-27.5 -139.5q0 -92 23.5 -139t65.5 -47zM169 1115l147 205h71l146 -205h-79l-103 135l-103 -135h-79zM545 1296l-174 82q-22 11 -34.5 22t-12.5 33q0 19 13.5 30.5t34.5 11.5q17 0 29 -6t24 -17l149 -122z" />
    <glyph glyph-name="uni1EA8" unicode="&#x1ea8;" horiz-adv-x="690" 
d="M5 0v70h80l185 1332h119l205 -1332h95v-70h-370v70h81l-121 936v0l-121 -936h73v-70h-226zM161 296v66h237v-66h-237zM148 1469l147 165h71l146 -165h-79l-103 95l-103 -95h-79zM476 1809q45 0 78.5 -19t33.5 -66q0 -35 -21 -57.5t-42 -39.5t-21 -38h-48q0 33 14.5 53
t28.5 37.5t14 40.5q0 22 -13 30.5t-36 8.5q-20 0 -35.5 -6t-26.5 -17l-37 37q14 16 45.5 26t65.5 10z" />
    <glyph glyph-name="uni1EA9" unicode="&#x1ea9;" horiz-adv-x="728" 
d="M274 -21q-63 0 -113 31t-79 90t-29 143q0 94 37.5 155.5t93.5 104t111.5 77t93.5 71.5t38 90q0 75 -12 128.5t-38 82t-69 28.5q-49 0 -80.5 -30.5t-31.5 -69.5q0 -24 8 -39t16 -31.5t8 -44.5q0 -39 -20.5 -63t-55.5 -24t-55.5 30.5t-20.5 83.5q0 76 33.5 136.5t93 95
t138.5 34.5t138.5 -34.5t93.5 -109.5t34 -198v-569q0 -46 8.5 -61.5t26.5 -15.5q17 0 28.5 8t17.5 15l38 -57q-15 -18 -53 -34t-88 -16t-79.5 15t-44 38t-18.5 46q-5 -15 -23 -40.5t-53 -45.5t-93 -20zM327 76q32 0 54.5 26t34 63.5t11.5 70.5v370q-3 -28 -32 -54.5
t-65.5 -61t-64 -89t-27.5 -139.5q0 -92 23.5 -139t65.5 -47zM167 1116l147 205h71l146 -205h-79l-103 135l-103 -135h-79zM495 1496q45 0 78.5 -19t33.5 -66q0 -35 -21 -57.5t-42 -39.5t-21 -38h-48q0 33 14.5 53t28.5 37.5t14 40.5q0 22 -13 30.5t-36 8.5q-20 0 -35.5 -6
t-26.5 -17l-37 37q14 16 45.5 26t65.5 10z" />
    <glyph glyph-name="uni1EAA" unicode="&#x1eaa;" horiz-adv-x="690" 
d="M5 0v70h80l185 1332h119l205 -1332h95v-70h-370v70h81l-121 936v0l-121 -936h73v-70h-226zM161 296v66h237v-66h-237zM152 1469l147 165h71l146 -165h-79l-103 95l-103 -95h-79zM420 1669q-40 0 -67 15.5t-49.5 31t-46.5 15.5q-32 0 -50 -17.5t-23 -28.5l-66 28
q6 19 24 43.5t46 43t61 18.5q42 0 68.5 -15t48.5 -30.5t51 -15.5q33 0 47.5 15t19.5 26l66 -30q-4 -14 -22 -37.5t-45.5 -42.5t-62.5 -19z" />
    <glyph glyph-name="uni1EAB" unicode="&#x1eab;" horiz-adv-x="728" 
d="M274 -21q-63 0 -113 31t-79 90t-29 143q0 94 37.5 155.5t93.5 104t111.5 77t93.5 71.5t38 90q0 75 -12 128.5t-38 82t-69 28.5q-49 0 -80.5 -30.5t-31.5 -69.5q0 -24 8 -39t16 -31.5t8 -44.5q0 -39 -20.5 -63t-55.5 -24t-55.5 30.5t-20.5 83.5q0 76 33.5 136.5t93 95
t138.5 34.5t138.5 -34.5t93.5 -109.5t34 -198v-569q0 -46 8.5 -61.5t26.5 -15.5q17 0 28.5 8t17.5 15l38 -57q-15 -18 -53 -34t-88 -16t-79.5 15t-44 38t-18.5 46q-5 -15 -23 -40.5t-53 -45.5t-93 -20zM327 76q32 0 54.5 26t34 63.5t11.5 70.5v370q-3 -28 -32 -54.5
t-65.5 -61t-64 -89t-27.5 -139.5q0 -92 23.5 -139t65.5 -47zM171 1116l147 205h71l146 -205h-79l-103 135l-103 -135h-79zM439 1356q-40 0 -67 15.5t-49.5 31t-46.5 15.5q-32 0 -50 -17.5t-23 -28.5l-66 28q6 19 24 43.5t46 43t61 18.5q42 0 68.5 -15t48.5 -30.5t51 -15.5
q33 0 47.5 15t19.5 26l66 -30q-4 -14 -22 -37.5t-45.5 -42.5t-62.5 -19z" />
    <glyph glyph-name="uni1EAC" unicode="&#x1eac;" horiz-adv-x="690" 
d="M5 0v70h80l185 1332h119l205 -1332h95v-70h-370v70h81l-121 936v0l-121 -936h73v-70h-226zM161 296v66h237v-66h-237zM324 -263q-32 0 -56.5 24t-24.5 55q0 33 24.5 57.5t56.5 24.5q31 0 55 -24.5t24 -57.5q0 -31 -24 -55t-55 -24zM150 1463l147 205h71l146 -205h-79
l-103 135l-103 -135h-79z" />
    <glyph glyph-name="uni1EAD" unicode="&#x1ead;" horiz-adv-x="728" 
d="M274 -21q-63 0 -113 31t-79 90t-29 143q0 94 37.5 155.5t93.5 104t111.5 77t93.5 71.5t38 90q0 75 -12 128.5t-38 82t-69 28.5q-49 0 -80.5 -30.5t-31.5 -69.5q0 -24 8 -39t16 -31.5t8 -44.5q0 -39 -20.5 -63t-55.5 -24t-55.5 30.5t-20.5 83.5q0 76 33.5 136.5t93 95
t138.5 34.5t138.5 -34.5t93.5 -109.5t34 -198v-569q0 -46 8.5 -61.5t26.5 -15.5q17 0 28.5 8t17.5 15l38 -57q-15 -18 -53 -34t-88 -16t-79.5 15t-44 38t-18.5 46q-5 -15 -23 -40.5t-53 -45.5t-93 -20zM327 76q32 0 54.5 26t34 63.5t11.5 70.5v370q-3 -28 -32 -54.5
t-65.5 -61t-64 -89t-27.5 -139.5q0 -92 23.5 -139t65.5 -47zM378 -263q-32 0 -56.5 24t-24.5 55q0 33 24.5 57.5t56.5 24.5q31 0 55 -24.5t24 -57.5q0 -31 -24 -55t-55 -24zM169 1125l147 205h71l146 -205h-79l-103 135l-103 -135h-79z" />
    <glyph glyph-name="uni1EAE" unicode="&#x1eae;" horiz-adv-x="690" 
d="M5 0v70h80l185 1332h119l205 -1332h95v-70h-370v70h81l-121 936v0l-121 -936h73v-70h-226zM161 296v66h237v-66h-237zM330 1497q-61 0 -99 27t-55 71t-17 93h68q4 -61 31 -91t72 -30t72.5 30t31.5 91h68q0 -49 -17 -93t-55 -71t-100 -27zM226 1729l-45 48l180 137
q15 11 30 18.5t29 7.5q15 0 26.5 -7.5t18.5 -19.5q6 -11 6 -23q0 -19 -16 -35.5t-41 -27.5z" />
    <glyph glyph-name="uni1EAF" unicode="&#x1eaf;" horiz-adv-x="728" 
d="M274 -21q-63 0 -113 31t-79 90t-29 143q0 94 37.5 155.5t93.5 104t111.5 77t93.5 71.5t38 90q0 75 -12 128.5t-38 82t-69 28.5q-49 0 -80.5 -30.5t-31.5 -69.5q0 -24 8 -39t16 -31.5t8 -44.5q0 -39 -20.5 -63t-55.5 -24t-55.5 30.5t-20.5 83.5q0 76 33.5 136.5t93 95
t138.5 34.5t138.5 -34.5t93.5 -109.5t34 -198v-569q0 -46 8.5 -61.5t26.5 -15.5q17 0 28.5 8t17.5 15l38 -57q-15 -18 -53 -34t-88 -16t-79.5 15t-44 38t-18.5 46q-5 -15 -23 -40.5t-53 -45.5t-93 -20zM327 76q32 0 54.5 26t34 63.5t11.5 70.5v370q-3 -28 -32 -54.5
t-65.5 -61t-64 -89t-27.5 -139.5q0 -92 23.5 -139t65.5 -47zM349 1110q-61 0 -99 27.5t-55 71.5t-17 93h68q4 -62 31 -92t72 -30t72.5 30t31.5 92h68q0 -49 -17 -93t-55 -71.5t-100 -27.5zM253 1331l-45 48l181 137q14 11 29 18.5t29 7.5q15 0 26.5 -7.5t18.5 -19.5
q6 -11 6 -23q0 -19 -16 -35.5t-41 -27.5z" />
    <glyph glyph-name="uni1EB0" unicode="&#x1eb0;" horiz-adv-x="690" 
d="M5 0v70h80l185 1332h119l205 -1332h95v-70h-370v70h81l-121 936v0l-121 -936h73v-70h-226zM161 296v66h237v-66h-237zM330 1497q-61 0 -99 27t-55 71t-17 93h68q4 -61 31 -91t72 -30t72.5 30t31.5 91h68q0 -49 -17 -93t-55 -71t-100 -27zM440 1734l-202 96q-27 13 -41 26
t-14 38q0 22 15.5 35t39.5 13q20 0 33.5 -7.5t27.5 -18.5l174 -142z" />
    <glyph glyph-name="uni1EB1" unicode="&#x1eb1;" horiz-adv-x="728" 
d="M274 -21q-63 0 -113 31t-79 90t-29 143q0 94 37.5 155.5t93.5 104t111.5 77t93.5 71.5t38 90q0 75 -12 128.5t-38 82t-69 28.5q-49 0 -80.5 -30.5t-31.5 -69.5q0 -24 8 -39t16 -31.5t8 -44.5q0 -39 -20.5 -63t-55.5 -24t-55.5 30.5t-20.5 83.5q0 76 33.5 136.5t93 95
t138.5 34.5t138.5 -34.5t93.5 -109.5t34 -198v-569q0 -46 8.5 -61.5t26.5 -15.5q17 0 28.5 8t17.5 15l38 -57q-15 -18 -53 -34t-88 -16t-79.5 15t-44 38t-18.5 46q-5 -15 -23 -40.5t-53 -45.5t-93 -20zM327 76q32 0 54.5 26t34 63.5t11.5 70.5v370q-3 -28 -32 -54.5
t-65.5 -61t-64 -89t-27.5 -139.5q0 -92 23.5 -139t65.5 -47zM349 1130q-61 0 -99 27.5t-55 71.5t-17 93h68q4 -62 31 -92t72 -30t72.5 30t31.5 92h68q0 -49 -17 -93t-55 -71.5t-100 -27.5zM462 1350l-202 96q-27 13 -41 26t-14 38q0 22 16 35t39 13q20 0 34 -7.5t28 -18.5
l174 -142z" />
    <glyph glyph-name="uni1EB2" unicode="&#x1eb2;" horiz-adv-x="690" 
d="M5 0v70h80l185 1332h119l205 -1332h95v-70h-370v70h81l-121 936v0l-121 -936h73v-70h-226zM161 296v66h237v-66h-237zM330 1497q-61 0 -99 27t-55 71t-17 93h68q4 -61 31 -91t72 -30t72.5 30t31.5 91h68q0 -49 -17 -93t-55 -71t-100 -27zM325 2029q56 0 98.5 -24
t42.5 -83q0 -44 -26.5 -72t-53 -49.5t-26.5 -47.5h-60q0 41 18 66.5t35.5 47.5t17.5 50q0 29 -16.5 39t-45.5 10q-24 0 -43.5 -7.5t-33.5 -20.5l-47 46q18 20 57.5 32.5t82.5 12.5z" />
    <glyph glyph-name="uni1EB3" unicode="&#x1eb3;" horiz-adv-x="728" 
d="M274 -21q-63 0 -113 31t-79 90t-29 143q0 94 37.5 155.5t93.5 104t111.5 77t93.5 71.5t38 90q0 75 -12 128.5t-38 82t-69 28.5q-49 0 -80.5 -30.5t-31.5 -69.5q0 -24 8 -39t16 -31.5t8 -44.5q0 -39 -20.5 -63t-55.5 -24t-55.5 30.5t-20.5 83.5q0 76 33.5 136.5t93 95
t138.5 34.5t138.5 -34.5t93.5 -109.5t34 -198v-569q0 -46 8.5 -61.5t26.5 -15.5q17 0 28.5 8t17.5 15l38 -57q-15 -18 -53 -34t-88 -16t-79.5 15t-44 38t-18.5 46q-5 -15 -23 -40.5t-53 -45.5t-93 -20zM327 76q32 0 54.5 26t34 63.5t11.5 70.5v370q-3 -28 -32 -54.5
t-65.5 -61t-64 -89t-27.5 -139.5q0 -92 23.5 -139t65.5 -47zM350 1131q-61 0 -99 27.5t-55 71.5t-17 93h68q4 -62 31 -92t72 -30t72.5 30t31.5 92h68q0 -49 -17 -93t-55 -71.5t-100 -27.5zM344 1572q57 0 99 -24t42 -83q0 -44 -26 -72t-52.5 -49.5t-26.5 -47.5h-61
q0 41 18 66.5t35.5 47.5t17.5 50q0 29 -16 39t-45 10q-25 0 -44.5 -7.5t-33.5 -20.5l-47 46q19 20 58 32.5t82 12.5z" />
    </font>
</defs>
</svg>
