<?xml version="1.0" standalone="no"?>
<!DOCTYPE svg PUBLIC "-//W3C//DTD SVG 1.1//EN" "http://www.w3.org/Graphics/SVG/1.1/DTD/svg11.dtd" >
<svg xmlns="http://www.w3.org/2000/svg" xmlns:xlink="http://www.w3.org/1999/xlink" version="1.1">
<metadata>
Created by FontForge 20170731 at Tue Dec  1 16:59:51 2020
 By Aleksey,,,
Copyright 2020 The Imbue Project Authors (https://github.com/Etcetera-Type-Co/Imbue)
</metadata>
<defs>
<font id="Imbue11pt-Medium" horiz-adv-x="0" >
  <font-face 
    font-family="Imbue 11pt Medium"
    font-weight="500"
    font-stretch="normal"
    units-per-em="2000"
    panose-1="0 0 0 0 0 0 0 0 0 0"
    ascent="1600"
    descent="-400"
    x-height="1046"
    cap-height="1400"
    bbox="-368 -502 1519 2029"
    underline-thickness="50"
    underline-position="-175"
    unicode-range="U+000D-FB02"
  />
<missing-glyph horiz-adv-x="591" 
d="M136 133v947h317v-947h-317zM160 156h269v900h-269v-900zM297 889l-68 -69l-18 18l68 69l-68 69l18 19l68 -69l68 69l19 -19l-68 -69l68 -69l-19 -18zM297 582l-68 -69l-18 18l68 69l-68 69l18 18l68 -69l68 69l19 -18l-69 -69l69 -69l-19 -18zM297 274l-68 -69l-18 19
l68 69l-68 69l18 18l68 -69l68 69l19 -18l-68 -69l68 -69l-19 -19z" />
    <glyph glyph-name="f_f" unicode="ff" horiz-adv-x="949" 
d="M32 0v69h114v909h-119v69h119v81q0 135 36 219.5t99.5 124t146.5 39.5q57 0 98.5 -27.5t65.5 -67t25 -78.5l-48 -84q-1 44 -14.5 86t-40 69.5t-67.5 27.5q-38 0 -62 -28t-37 -77t-18 -113.5t-5 -138.5v-19.5v-13.5h157v-69h-157v-909h114v-69h-407zM437 0v69h110v909
h-126v69h126v127q0 104 28.5 179.5t86 116.5t142.5 41q90 0 137.5 -71.5t47.5 -182.5q0 -53 -19.5 -82t-59.5 -29q-41 0 -58.5 26.5t-17.5 64.5q0 32 12 50.5t24 33.5t12 37q0 35 -19 59t-46 24t-44.5 -20.5t-27.5 -56.5t-14 -85.5t-4 -108.5v-123h133v-69h-133v-909h113
v-69h-403z" />
    <glyph glyph-name="f_f_i" unicode="ffi" horiz-adv-x="1259" 
d="M32 0v69h114v909h-119v69h119v81q0 135 36 219.5t99.5 124t146.5 39.5q57 0 100.5 -28t68.5 -70t27 -86l-45 -95q0 53 -16.5 100t-45.5 76t-70 29q-38 0 -62 -28t-37 -77t-18 -113.5t-5 -138.5v-19.5v-13.5h157v-69h-157v-909h109v-69h-402zM842 0v69h105v909h-105v69
h285v-978h105v-69h-390zM438 0v69h115v909h-132v69h132v84q0 135 44.5 218.5t118 122.5t159.5 39q73 0 136 -28.5t101.5 -83t38.5 -132.5q0 -42 -14.5 -66t-37 -34.5t-46.5 -10.5q-36 0 -64.5 21t-28.5 66q0 29 10.5 44t21 29t10.5 39q0 32 -18 49.5t-44.5 24.5t-54.5 7
q-49 0 -83 -22t-51.5 -91.5t-17.5 -211.5v-64h198v-69h-198v-909h116v-69h-411z" />
    <glyph glyph-name="f_f_l" unicode="ffl" horiz-adv-x="1317" 
d="M32 0v69h116v909h-121v69h121v81q0 135 35.5 219.5t99 124t146.5 39.5q57 0 100.5 -28t69 -70t27.5 -85l-46 -96q-1 53 -17 100t-45 76t-70 29q-39 0 -63 -28t-36.5 -77t-17.5 -113.5t-5 -138.5v-19.5v-13.5h156v-69h-156v-909h108v-69h-402zM901 0v69h100v1362h-100v69
h279v-1431h100v-69h-379zM454 0v69h105v909h-122v69h122v39q0 118 26.5 197.5t73.5 127t109.5 68.5t132.5 21v-69q-52 0 -84 -26t-49.5 -71.5t-23.5 -107.5t-6 -134v-27.5v-17.5h156v-69h-156v-909h116v-69h-400z" />
    <glyph glyph-name="f_i" unicode="fi" horiz-adv-x="864" 
d="M44 0v69h114v909h-131v69h131v84q0 135 44.5 218.5t118 122.5t160.5 39q73 0 135.5 -28.5t101.5 -83t39 -132.5q0 -42 -15 -66t-37 -34.5t-46 -10.5q-36 0 -65 21t-29 66q0 29 11 44t21 29t10 39q0 32 -17.5 49.5t-44.5 24.5t-54 7q-50 0 -84 -22t-51.5 -91.5
t-17.5 -211.5v-64h198v-69h-198v-909h117v-69h-411zM448 0v69h104v909h-104v69h284v-978h105v-69h-389z" />
    <glyph glyph-name="f_l" unicode="fl" horiz-adv-x="907" 
d="M44 0v69h104v909h-121v69h121v39q0 118 27 197.5t74 127t109.5 68.5t132.5 21v-69q-52 0 -84.5 -26t-49.5 -71.5t-23.5 -107.5t-6.5 -134v-27.5v-17.5h156v-69h-156v-909h117v-69h-400zM491 0v69h99v1362h-99v69h278v-1431h101v-69h-379z" />
    <glyph glyph-name=".notdef" horiz-adv-x="591" 
d="M136 133v947h317v-947h-317zM160 156h269v900h-269v-900zM297 889l-68 -69l-18 18l68 69l-68 69l18 19l68 -69l68 69l19 -19l-68 -69l68 -69l-19 -18zM297 582l-68 -69l-18 18l68 69l-68 69l18 18l68 -69l68 69l19 -18l-69 -69l69 -69l-19 -18zM297 274l-68 -69l-18 19
l68 69l-68 69l18 18l68 -69l68 69l19 -18l-68 -69l68 -69l-19 -19z" />
    <glyph glyph-name=".null" 
 />
    <glyph glyph-name="nonmarkingreturn" horiz-adv-x="666" 
 />
    <glyph glyph-name="CR" unicode="&#xd;" horiz-adv-x="323" 
 />
    <glyph glyph-name="space" unicode=" " horiz-adv-x="323" 
 />
    <glyph glyph-name="exclam" unicode="!" horiz-adv-x="331" 
d="M134 325q0 129 -10 253.5t-22.5 241t-22 222t-9.5 197.5q0 78 22.5 127.5t70.5 49.5q47 0 70 -49.5t23 -127.5q0 -92 -9.5 -197.5t-22 -222t-22 -241t-9.5 -253.5h-59zM160 -26q-47 0 -80.5 34t-33.5 81q0 48 33.5 81.5t80.5 33.5t80 -33.5t33 -81.5q0 -47 -33 -81
t-80 -34z" />
    <glyph glyph-name="quotedbl" unicode="&#x22;" horiz-adv-x="515" 
d="M123 1174q-6 34 -15 79.5t-16 91t-7 78.5q0 56 21.5 78.5t48.5 22.5t48.5 -22.5t21.5 -78.5q0 -33 -7.5 -78.5t-17 -91t-16.5 -79.5h-61zM329 1174q-6 34 -15 79.5t-16 91t-7 78.5q0 56 21.5 78.5t48.5 22.5t48.5 -22.5t21.5 -78.5q0 -33 -7.5 -78.5t-17 -91t-16.5 -79.5
h-61z" />
    <glyph glyph-name="numbersign" unicode="#" horiz-adv-x="1119" 
d="M160 0l78 447h-176v69h190l70 417h-211v69h225l67 398h154l-68 -398h220l72 398h151l-71 -398h195v-69h-206l-73 -417h228v-69h-240l-79 -447h-152l81 447h-222l-80 -447h-153zM404 516h218l75 417h-219z" />
    <glyph glyph-name="dollar" unicode="$" horiz-adv-x="561" 
d="M249 -24v1442h55v-1442h-55zM280 63q-55 0 -83.5 18.5t-44 37t-30.5 18.5q-20 0 -20 -50h-54v282h60q1 -30 12.5 -70.5t33.5 -79.5t53.5 -65t73.5 -26q39 0 60 20t29.5 56t8.5 86q0 58 -22 117t-60.5 120t-86.5 126q-64 89 -98.5 161.5t-47.5 136t-13 123.5q0 88 28 150
t74 94t101 32q47 0 71.5 -16.5t38 -33t26.5 -16.5q9 0 14.5 10.5t6.5 35.5h53v-279h-58q-2 32 -11.5 72t-28 77.5t-45.5 61.5t-64 24q-48 0 -74 -36.5t-26 -103.5q0 -47 16 -97.5t50.5 -109.5t90.5 -134q81 -105 129 -211.5t48 -226.5q0 -82 -16 -140t-45 -94t-67.5 -53
t-82.5 -17z" />
    <glyph glyph-name="percent" unicode="%" horiz-adv-x="1070" 
d="M294 780q-56 0 -102.5 39t-74 109.5t-27.5 166.5q0 139 56 224t148 85q90 0 146.5 -79t56.5 -230q0 -148 -57.5 -231.5t-145.5 -83.5zM780 -11q-57 0 -104 39.5t-75 110.5t-28 165q0 140 57 225.5t150 85.5q88 0 144.5 -79.5t56.5 -231.5q0 -146 -57 -230.5t-144 -84.5z
M780 58q38 0 55.5 41.5t21.5 98.5t4 104q0 49 -4 107t-21.5 100t-55.5 42q-40 0 -58.5 -42.5t-23.5 -101t-5 -107.5q0 -48 4.5 -104.5t23 -97t59.5 -40.5zM294 847q41 0 58.5 42t22 99t4.5 105q0 49 -4.5 107t-22 100t-58.5 42q-39 0 -57 -43t-22.5 -101t-4.5 -107
t4.5 -105.5t22.5 -97.5t57 -41zM58 0l876 1400h80l-875 -1400h-81z" />
    <glyph glyph-name="ampersand" unicode="&#x26;" horiz-adv-x="972" 
d="M763 -14q-56 0 -101.5 27t-77.5 94l-305 662q-13 25 -31 70t-35 101t-28 115t-11 114q0 73 23 121.5t58.5 76t76 39.5t75.5 12t73 -11t71.5 -37.5t54 -71t20.5 -110.5q0 -76 -25 -137t-59.5 -106t-66.5 -73.5t-46 -41.5l-40 63q38 38 68.5 112.5t30.5 182.5
q0 82 -20 125.5t-62 43.5t-60.5 -39t-18.5 -114q0 -46 12.5 -100.5t29 -105.5t31 -87t18.5 -46l332 -709q24 -53 39.5 -67t33.5 -14q17 0 34 14t26 35l46 -47q-22 -43 -68.5 -67t-97.5 -24zM323 -18q-92 0 -159 46.5t-102.5 126.5t-35.5 182q0 116 39.5 207.5t98.5 159.5
t117 110l49 -56q-33 -31 -64 -83t-50.5 -116.5t-19.5 -132.5q0 -97 19 -177t59 -128t103 -48q40 0 73 25t57.5 64.5t38.5 80.5l41 -60q-11 -36 -40.5 -83t-83.5 -82.5t-140 -35.5zM851 274q-32 0 -47 19.5t-15 47.5q0 22 8 36t16 25.5t8 24.5q0 19 -6 27.5t-25 8.5
q-24 0 -47.5 -25.5t-42.5 -62t-29 -71.5l-56 53q13 34 38.5 74.5t61 70.5t77.5 30q67 0 96.5 -47t29.5 -108q0 -49 -17.5 -76t-49.5 -27z" />
    <glyph glyph-name="quotesingle" unicode="'" horiz-adv-x="345" 
d="M141 1174q-6 34 -15 79.5t-16 91t-7 78.5q0 56 21.5 78.5t48.5 22.5t48.5 -22.5t21.5 -78.5q0 -33 -7.5 -78.5t-17 -91t-16.5 -79.5h-61z" />
    <glyph glyph-name="parenleft" unicode="(" horiz-adv-x="417" 
d="M332 -431q-12 15 -54 90t-91.5 201t-85.5 295t-36 371q0 230 37 407t87 300.5t92.5 192t54.5 80.5l56 -62q-15 -17 -54.5 -82t-84 -179t-76.5 -278t-32 -379q0 -191 33 -348t77.5 -273t83.5 -185.5t51 -85.5z" />
    <glyph glyph-name="parenright" unicode=")" horiz-adv-x="417" 
d="M85 -431l-57 65q12 16 50.5 85.5t83.5 185.5t77.5 273t32.5 348q0 215 -32 379t-76 278t-83.5 179t-54.5 82l55 62q12 -12 55 -80.5t93 -192t87 -300.5t37 -407q0 -202 -36.5 -371t-86 -295t-91.5 -201t-54 -90z" />
    <glyph glyph-name="asterisk" unicode="*" horiz-adv-x="809" 
d="M388 882q-20 0 -35 13.5t-15 40.5q0 22 4 43t8.5 52t4.5 81q-31 -21 -55 -41.5t-43.5 -36t-38.5 -25.5q-9 -5 -17.5 -6.5t-15.5 -1.5q-20 0 -33.5 12t-13.5 31q0 13 7.5 26t24.5 23t38.5 16t50 16t69.5 33q-40 24 -68.5 35.5t-49.5 19t-41 18.5q-30 18 -30 46
q0 22 14.5 34t31.5 12q15 0 35 -10q28 -14 52 -41t83 -63q0 76 -8.5 109.5t-8.5 67.5q0 26 15 39t35 13t35 -13t15 -39q0 -23 -5.5 -45t-11.5 -52t-6 -80q65 38 91 63.5t53 40.5q18 10 33 10q21 0 33.5 -15t12.5 -33q0 -27 -31 -45q-20 -11 -42.5 -18t-52 -18.5t-72.5 -35.5
q41 -22 71.5 -32.5t53.5 -16.5t42 -16q17 -9 24.5 -21.5t7.5 -24.5q0 -20 -13.5 -33.5t-34.5 -13.5q-9 0 -18 2t-18 7q-18 11 -37.5 27t-43.5 35.5t-58 40.5q0 -51 5.5 -81t10.5 -51t5 -44q0 -27 -14.5 -40.5t-34.5 -13.5z" />
    <glyph glyph-name="plus" unicode="+" horiz-adv-x="827" 
d="M380 251v624h70v-624h-70zM102 528v69h622v-69h-622z" />
    <glyph glyph-name="comma" unicode="," horiz-adv-x="339" 
d="M131 -214l-51 64q22 12 47.5 36t44 50t18.5 45q0 10 -7 10q-5 0 -12 -5t-27 -5q-26 0 -49 14t-37.5 39.5t-14.5 58.5q0 50 34 81.5t90 31.5q55 0 93 -34.5t38 -94.5q0 -79 -26.5 -136t-65 -95t-75.5 -60z" />
    <glyph glyph-name="hyphen" unicode="-" horiz-adv-x="667" 
d="M102 528v69h462v-69h-462z" />
    <glyph glyph-name="period" unicode="." horiz-adv-x="344" 
d="M166 -27q-46 0 -79.5 34t-33.5 81q0 48 33.5 81.5t79.5 33.5q47 0 80.5 -33.5t33.5 -81.5q0 -47 -33.5 -81t-80.5 -34z" />
    <glyph glyph-name="slash" unicode="/" horiz-adv-x="625" 
d="M33 -104l498 1608h71l-495 -1608h-74z" />
    <glyph glyph-name="zero" unicode="0" horiz-adv-x="832" 
d="M416 -23q-83 0 -153.5 77t-113 236.5t-42.5 407.5q0 249 42.5 409t113 237.5t153.5 77.5q82 0 152.5 -77.5t113.5 -237.5t43 -409q0 -248 -43 -407.5t-113.5 -236.5t-152.5 -77zM416 48q27 0 50.5 51.5t41.5 141.5t28 207.5t10 249.5q0 133 -10 251t-28 208.5t-41.5 143
t-50.5 52.5q-29 0 -53 -51t-42 -140.5t-27 -208t-9 -255.5q0 -136 9.5 -254t27 -207t41.5 -139t53 -50z" />
    <glyph glyph-name="one" unicode="1" horiz-adv-x="559" 
d="M81 0v69h106v1091q-7 -12 -26 -24t-41.5 -20.5t-38.5 -10.5v80q29 6 63 26t66 52.5t56.5 77t32.5 101.5h68v-1373h111v-69h-397z" />
    <glyph glyph-name="two" unicode="2" horiz-adv-x="730" 
d="M475 -11q-40 0 -72 13.5t-61 31t-59.5 31t-66.5 13.5q-43 0 -65.5 -26.5t-26.5 -51.5h-67q0 163 29.5 284t76 212.5t99.5 164.5t99.5 139.5t76.5 138t30 160.5t-20 144.5t-54.5 82.5t-81.5 27q-34 0 -61 -15.5t-42.5 -38.5t-15.5 -47q0 -20 9.5 -35t19 -33t9.5 -47
q0 -47 -21.5 -67t-54.5 -20t-54.5 25.5t-21.5 84.5q0 71 31.5 130.5t92.5 95.5t148 36q50 0 101.5 -15t94.5 -51t69.5 -99t26.5 -159q0 -101 -23.5 -173.5t-63.5 -128t-89.5 -103t-100.5 -96.5t-97 -109.5t-80 -141t-48 -191.5q12 17 34.5 30.5t53.5 22t67 8.5
q46 0 83 -14.5t68.5 -29t57.5 -14.5q38 0 55.5 25.5t17.5 80.5h65v-37q0 -61 -16.5 -115.5t-53.5 -88.5t-98 -34z" />
    <glyph glyph-name="three" unicode="3" horiz-adv-x="737" 
d="M339 -24q-79 0 -137 36.5t-89 96.5t-31 131q0 59 27.5 87.5t60.5 28.5q32 0 50.5 -19.5t18.5 -62.5q0 -29 -11.5 -47t-23 -36.5t-11.5 -49.5q0 -35 33 -63.5t85 -28.5q42 0 76.5 25.5t55 93t20.5 193.5q0 113 -19 180t-48 100.5t-60 44t-54 10.5v73q24 0 56 9t63 41
t51 99.5t20 185.5q0 124 -42 185t-114 61q-52 0 -86.5 -27t-34.5 -62q0 -32 11.5 -51.5t22.5 -37.5t11 -47q0 -44 -18.5 -63t-51.5 -19q-32 0 -59.5 29t-27.5 88q0 71 32.5 130.5t92.5 95.5t143 36q82 0 149.5 -36.5t107.5 -108.5t40 -177q0 -95 -27 -163.5t-69 -113
t-87 -67t-80 -24.5q35 -3 81.5 -25.5t89.5 -67.5t71.5 -113.5t28.5 -162.5q0 -112 -37.5 -199.5t-108.5 -137.5t-171 -50z" />
    <glyph glyph-name="four" unicode="4" horiz-adv-x="677" 
d="M193 0v69h107v284h-256v70l240 815q44 40 73.5 90t54.5 104h68v-1009h17q34 0 45.5 42.5t11.5 111.5h65v-224h-139v-284h108v-69h-395zM117 416l-9 7h194v670l-12 -87z" />
    <glyph glyph-name="five" unicode="5" horiz-adv-x="794" 
d="M343 -24q-79 0 -133 36.5t-81 96.5t-27 131q0 59 24.5 87.5t57.5 28.5q32 0 53.5 -21t21.5 -68q0 -27 -12 -44.5t-24.5 -34.5t-12.5 -43q0 -23 9 -46t32.5 -37.5t66.5 -14.5q64 0 99.5 45t49.5 131t14 207t-11 195.5t-30 113.5t-44.5 53t-53.5 14q-45 0 -74.5 -21
t-47.5 -53t-29 -65l-72 11l65 722h67q7 -20 37 -39t72.5 -31t85.5 -12q71 0 109.5 25t39.5 57h58q0 -59 -24 -111t-70 -83.5t-111 -31.5q-50 0 -87.5 14.5t-61.5 34.5t-37 37t-16 22l-41 -486q7 18 29 38t58.5 34.5t86.5 14.5q51 0 102 -23t94 -74.5t68.5 -137.5t25.5 -213
q0 -140 -30 -230t-79 -139.5t-106 -69.5t-111 -20z" />
    <glyph glyph-name="six" unicode="6" horiz-adv-x="801" 
d="M408 -24q-89 0 -149 54t-96 150t-52 225t-16 279q0 133 21 264t64 238.5t108.5 171.5t154.5 64q62 0 111 -36t78 -95.5t29 -130.5q0 -66 -23 -91.5t-56 -25.5q-32 0 -54 22t-22 69q0 32 7 49.5t13.5 34.5t6.5 47q0 24 -12 44t-33 32t-51 12q-42 0 -70 -34t-45 -92.5
t-26 -134t-12 -159t-3 -166.5q3 15 23 43t57.5 52t91.5 24q44 0 89.5 -25t84.5 -77.5t62.5 -136.5t23.5 -202q0 -111 -22.5 -198.5t-63.5 -147.5t-96.5 -91.5t-122.5 -31.5zM405 44q39 0 66 35.5t41.5 122.5t14.5 241q0 135 -12 212t-38 109t-66 32q-35 0 -62 -29.5t-44 -80
t-23 -112.5q0 -138 6 -238.5t19.5 -165t37.5 -95.5t60 -31z" />
    <glyph glyph-name="seven" unicode="7" horiz-adv-x="698" 
d="M324 -20q-31 0 -54.5 18.5t-36.5 61.5t-13 117q0 149 34.5 282t85.5 253t102.5 228.5t86 209t34.5 195.5q-7 -25 -27 -45t-51.5 -31t-75.5 -11q-46 0 -73 8t-48 16t-47 8q-25 0 -43.5 -9.5t-30 -36.5t-13.5 -80h-68v236h550q0 -25 -3.5 -56.5t-9.5 -68t-14.5 -77.5
t-19 -85.5t-23.5 -91.5q-13 -52 -28.5 -109.5t-31.5 -119.5q-31 -122 -55.5 -273t-24.5 -342q0 -74 -12.5 -117t-35.5 -61.5t-54 -18.5z" />
    <glyph glyph-name="eight" unicode="8" horiz-adv-x="802" 
d="M384 -20q-50 0 -104.5 18.5t-101.5 59.5t-76.5 109t-29.5 167q0 94 28.5 162t69.5 113t81 71t61 37l65 -46q-29 -21 -64.5 -59.5t-61 -103t-25.5 -164.5q0 -151 44.5 -223t117.5 -72q72 0 117.5 61.5t45.5 173.5q0 78 -26 135.5t-76.5 111t-125.5 118.5
q-60 52 -109.5 120t-79 150t-29.5 173q0 109 41 182.5t107 111.5t142 38t139 -33.5t100.5 -102.5t37.5 -176q0 -82 -25.5 -144t-62.5 -106t-73.5 -71.5t-59.5 -39.5l-42 38q23 15 55.5 58t58.5 111.5t26 161.5q0 68 -17.5 122t-51 85t-83.5 31q-46 0 -82.5 -28t-57.5 -77
t-21 -114q0 -67 34 -134t83.5 -123.5t97.5 -94.5q45 -34 91.5 -76.5t85 -94.5t62.5 -116.5t24 -144.5q0 -100 -29.5 -171t-78.5 -116t-107 -66.5t-115 -21.5z" />
    <glyph glyph-name="nine" unicode="9" horiz-adv-x="802" 
d="M401 1422q88 0 148 -53.5t96 -150t52 -225t16 -278.5q0 -134 -21 -265t-63.5 -238t-108.5 -171.5t-155 -64.5q-61 0 -110.5 36.5t-78 96t-28.5 129.5q0 66 22.5 91.5t55.5 25.5t54.5 -22t21.5 -69q0 -32 -6 -49.5t-13 -34.5t-7 -47q0 -23 12 -43.5t33 -32.5t50 -12
q42 0 70 34t45.5 92.5t26 134t11.5 159t3 166.5q-2 -14 -22 -42.5t-57.5 -52t-92.5 -23.5q-44 0 -89.5 24.5t-84.5 77.5t-62.5 137t-23.5 202q0 111 22.5 198t63.5 147.5t97 91.5t123 31zM403 1354q-39 0 -66 -35.5t-41 -122t-14 -240.5q0 -136 12 -213t37.5 -109t66.5 -32
q34 0 61 29.5t44.5 80t22.5 112.5q0 138 -5.5 238.5t-19 165t-37.5 95.5t-61 31z" />
    <glyph glyph-name="colon" unicode=":" horiz-adv-x="527" 
d="M237 842q-46 0 -79.5 34t-33.5 81q0 48 33.5 81.5t79.5 33.5q47 0 80.5 -33.5t33.5 -81.5q0 -47 -33.5 -81t-80.5 -34zM237 -29q-46 0 -79.5 34t-33.5 81q0 48 33.5 81.5t79.5 33.5q47 0 80.5 -33.5t33.5 -81.5q0 -47 -33.5 -81t-80.5 -34z" />
    <glyph glyph-name="semicolon" unicode=";" horiz-adv-x="527" 
d="M247 842q-46 0 -79.5 34t-33.5 81q0 48 33.5 81.5t79.5 33.5q47 0 80.5 -33.5t33.5 -81.5q0 -47 -33.5 -81t-80.5 -34zM206 -214l-51 64q22 12 47.5 36t44 50t18.5 45q0 10 -7 10q-5 0 -12 -5t-27 -5q-26 0 -49 14t-37.5 39.5t-14.5 58.5q0 50 34 81.5t90 31.5
q55 0 93 -34.5t38 -94.5q0 -79 -26.5 -136t-65 -95t-75.5 -60z" />
    <glyph glyph-name="less" unicode="&#x3c;" horiz-adv-x="784" 
d="M626 95l-467 407v72l467 402v-84l-415 -356l415 -356v-85z" />
    <glyph glyph-name="equal" unicode="=" horiz-adv-x="818" 
d="M97 728v69h622v-69h-622zM97 328v69h622v-69h-622z" />
    <glyph glyph-name="greater" unicode="&#x3e;" horiz-adv-x="784" 
d="M166 95v85l416 356l-416 356v84l467 -402v-72z" />
    <glyph glyph-name="question" unicode="?" horiz-adv-x="627" 
d="M226 293q0 125 19 219.5t46.5 170t55.5 142.5t47 134.5t19 147.5q0 128 -40 187t-117 59q-51 0 -77 -28t-26 -63q0 -26 10.5 -45l21 -38t10.5 -49q0 -47 -20.5 -67t-52.5 -20q-33 0 -57 30t-24 96q0 76 31 133t88.5 88.5t133.5 31.5q50 0 101 -14.5t93.5 -49t68.5 -94
t26 -150.5t-29 -162.5t-71.5 -138t-85 -139.5t-71.5 -164.5t-29 -216.5h-71zM262 -26q-47 0 -80.5 34t-33.5 81q0 48 33.5 81.5t80.5 33.5q46 0 80 -33.5t34 -81.5q0 -47 -34 -81t-80 -34z" />
    <glyph glyph-name="at" unicode="@" horiz-adv-x="936" 
d="M465 -22q-67 0 -136.5 35.5t-128 112.5t-94.5 201.5t-36 301.5q0 226 43.5 377.5t112.5 241.5t149.5 129t153.5 39q102 0 178.5 -58.5t118.5 -186.5t42 -339q0 -86 -15.5 -172.5t-45.5 -158.5t-72.5 -115.5t-97.5 -43.5q-38 0 -59 18t-29 43t-8 47q-14 -61 -54 -89
t-87 -28q-36 0 -74.5 23t-64.5 84t-26 176q0 94 16 176t46.5 144.5t74.5 97.5t99 35q36 0 59 -15t35 -35.5t14 -37.5l5 66h107l-44 -514q-1 -18 -2 -31.5t-1 -23.5q0 -22 5 -35t20 -13q29 0 57 54.5t46.5 146t18.5 203.5q0 247 -59.5 379.5t-195.5 132.5q-77 0 -147.5 -42
t-125 -129.5t-86 -223.5t-31.5 -324q0 -171 42.5 -301.5t115 -203.5t161.5 -73q95 0 148 40.5t96 102.5l58 -43q-27 -38 -70 -77.5t-100.5 -66.5t-131.5 -27zM443 419q22 0 39 18t30 47t21.5 62.5t11.5 63.5l21 247q0 27 -9 55.5t-25.5 48t-40.5 19.5q-34 0 -57 -36
t-36 -93.5t-18.5 -123t-5.5 -123.5q0 -81 17.5 -133t51.5 -52z" />
    <glyph glyph-name="A" unicode="A" horiz-adv-x="689" 
d="M5 0v69h80l185 1333h118l205 -1333h96v-69h-371v69h82l-122 936h1l-122 -936h73v-69h-225zM161 296v65h237v-65h-237z" />
    <glyph glyph-name="B" unicode="B" horiz-adv-x="789" 
d="M51 0v69h94v1262h-94v69h354q57 0 110 -17t95 -54.5t66 -98t24 -146.5q0 -85 -20.5 -147t-54.5 -103t-72.5 -63.5t-74.5 -28.5q37 -1 80.5 -20.5t83 -60.5t65 -107t25.5 -162q0 -131 -41 -218t-107.5 -130.5t-144.5 -43.5h-388zM322 69h78q36 0 69 34t54 105.5t21 184.5
q0 122 -24.5 190t-61 95.5t-71.5 27.5h-65v-637zM322 775h65q37 0 67.5 29.5t48 97t17.5 182.5q0 104 -20.5 156.5t-52 71.5t-64.5 19h-61v-556z" />
    <glyph glyph-name="C" unicode="C" horiz-adv-x="679" 
d="M406 -20q-151 0 -246.5 184t-95.5 534q0 132 21.5 260.5t65.5 233t110 167.5t154 63q60 0 105.5 -41t70.5 -102.5t25 -122.5q0 -53 -18.5 -82.5t-57.5 -29.5q-42 0 -61 25t-19 69q0 29 11 49.5t22 41.5t11 53q0 35 -17 51.5t-41 16.5q-40 0 -71.5 -41.5t-54 -111.5
t-36.5 -155.5t-21 -174.5t-7 -167q0 -115 8 -215t23.5 -180t37 -137t48.5 -87.5t58 -30.5q37 0 61.5 22.5t40.5 59t27 76.5l60 -32q-18 -54 -46.5 -98t-69.5 -71t-98 -27z" />
    <glyph glyph-name="D" unicode="D" horiz-adv-x="799" 
d="M51 0v69h92v1262h-92v69h334q96 0 177 -76t130.5 -229t49.5 -384q0 -233 -49.5 -391t-131 -239t-176.5 -81h-334zM324 69h42q51 0 95.5 68.5t73 210.5t28.5 363q0 197 -26 335t-66.5 211.5t-84.5 73.5h-62v-1262z" />
    <glyph glyph-name="E" unicode="E" horiz-adv-x="702" 
d="M51 0v69h93v1262h-93v69h573v-304h-69q0 81 -11.5 133t-38 77t-73.5 25h-107v-596h186v96h67v-258h-67v93h-186v-597h107q47 0 73.5 26t38 78.5t11.5 133.5h69v-307h-573z" />
    <glyph glyph-name="F" unicode="F" horiz-adv-x="705" 
d="M76 0v69h93v1262h-93v69h545v-304h-70q0 81 -7 133t-31 77t-74 25h-89v-580h175v94h70v-258h-70v94h-175v-612h93v-69h-367z" />
    <glyph glyph-name="G" unicode="G" horiz-adv-x="770" 
d="M410 -20q-95 0 -172.5 80t-123.5 239.5t-46 398.5q0 234 52.5 395t135.5 244t172 83q71 0 120.5 -37t75.5 -97t26 -130q0 -55 -21 -83.5t-59 -28.5q-41 0 -60.5 28.5t-19.5 70.5q0 28 10.5 47.5t21 39.5t10.5 49q0 28 -24 51.5t-63 23.5q-52 0 -89 -61.5t-60 -160.5
t-34 -213.5t-11 -220.5q0 -157 13 -277.5t36 -203t52.5 -125t61.5 -42.5q24 0 40.5 9t25.5 18v487h-84v69h337v-69h-88v-564h-65q-1 3 -9.5 8.5t-22.5 5.5q-16 0 -32.5 -8.5t-41 -17t-64.5 -8.5z" />
    <glyph glyph-name="H" unicode="H" horiz-adv-x="880" 
d="M51 0v69h92v1262h-92v69h344v-69h-73v-576h238v576h-72v69h342v-69h-95v-1262h95v-69h-342v69h72v617h-238v-617h73v-69h-344z" />
    <glyph glyph-name="I" unicode="I" horiz-adv-x="501" 
d="M65 0v69h96v1262h-96v69h372v-69h-97v-1262h97v-69h-372z" />
    <glyph glyph-name="J" unicode="J" horiz-adv-x="660" 
d="M252 -24q-74 0 -118.5 33.5t-64.5 93t-20 139.5q0 61 23 86.5t59 25.5q34 0 56 -23t22 -76q0 -35 -10.5 -55t-21.5 -37.5t-11 -45.5q0 -32 19 -50t46 -18q47 0 75 37t28 136v1109h-102v69h380v-69h-98v-934q0 -118 -17.5 -198.5t-51.5 -130t-82.5 -71t-110.5 -21.5z" />
    <glyph glyph-name="K" unicode="K" horiz-adv-x="800" 
d="M36 0v69h93v1262h-93v69h370v-69h-99v-567l283 567h-87v69h242v-69h-74l-255 -516l12 67l257 -813h78v-69h-340v69h68l-209 655l25 -10v-645h77v-69h-348z" />
    <glyph glyph-name="L" unicode="L" horiz-adv-x="650" 
d="M59 0v69h90v1262h-90v69h361v-69h-92v-1262h86q34 0 57 26.5t34.5 79t11.5 132.5h70v-307h-528z" />
    <glyph glyph-name="M" unicode="M" horiz-adv-x="1010" 
d="M33 0v69h92v1262h-88v69h327l152 -937h-24l177 937h307v-69h-88v-1262h94v-69h-369v69h95v1254h24l-254 -1250h-78l-222 1275h16v-1279h87v-69h-248z" />
    <glyph glyph-name="N" unicode="N" horiz-adv-x="813" 
d="M31 0v69h93v1262h-93v69h308l292 -999h-9v930h-91v69h251v-69h-89v-1331h-133l-376 1280h11v-1211h97v-69h-261z" />
    <glyph glyph-name="O" unicode="O" horiz-adv-x="784" 
d="M393 -22q-101 0 -175 89t-114 250t-40 381q0 221 40 383.5t114 251.5t175 89q102 0 177 -89t116 -251.5t41 -383.5q0 -220 -41 -381t-116 -250t-177 -89zM393 47q37 0 63.5 45.5t44.5 130.5t26.5 205t8.5 270t-8.5 270.5t-26.5 206t-44.5 132t-63.5 46.5t-63 -46.5
t-42.5 -132t-24.5 -206t-8 -270.5t8 -270t24.5 -205t42.5 -130.5t63 -45.5z" />
    <glyph glyph-name="P" unicode="P" horiz-adv-x="778" 
d="M51 0v69h107v1262h-107v69h391q47 0 97.5 -19t94.5 -63t71 -118.5t27 -184.5q0 -113 -27.5 -198t-71.5 -142t-94.5 -85t-96.5 -28h-106v-493h107v-69h-392zM336 631h62q40 0 73 45t53 131t20 209q0 116 -18 185t-49 99.5t-71 30.5h-70v-700z" />
    <glyph glyph-name="Q" unicode="Q" horiz-adv-x="784" 
d="M643 -372q-39 0 -64.5 28.5t-25.5 79.5q0 41 16 72t32 61.5t16 68.5q0 27 -19.5 53t-55.5 26q-12 0 -28 -4.5t-26 -10.5l15 70q5 4 26.5 9t42.5 5q90 0 130 -83t40 -224q0 -76 -29 -113.5t-70 -37.5zM393 -22q-101 0 -175 89t-114 250t-40 381q0 221 40 383.5t114 251.5
t175 89q102 0 177 -89t116 -251.5t41 -383.5q0 -220 -41 -381t-116 -250t-177 -89zM393 47q37 0 63.5 45.5t44.5 130.5t26.5 205t8.5 270t-8.5 270.5t-26.5 206t-44.5 132t-63.5 46.5t-63 -46.5t-42.5 -132t-24.5 -206t-8 -270.5t8 -270t24.5 -205t42.5 -130.5t63 -45.5z
" />
    <glyph glyph-name="R" unicode="R" horiz-adv-x="858" 
d="M709 -16q-76 0 -111 37.5t-45 103.5t-10 148q0 52 1.5 102.5t1.5 89.5q0 91 -12 138t-46 65t-99 18h-53v-617h99v-69h-379v69h102v1262h-102v69h395q83 0 148 -33.5t103 -105t38 -186.5q0 -87 -22 -151.5t-58.5 -107t-81 -65.5t-89.5 -29q97 -3 148.5 -37.5t71 -103
t19.5 -173.5q0 -51 -2.5 -103.5t-2.5 -98.5q0 -31 2 -65t9.5 -58t21.5 -24q11 0 17 10.5t7 23.5h64q-4 -38 -22 -62t-47 -35.5t-66 -11.5zM336 755h70q53 0 86.5 42.5t49.5 114.5t16 159q0 82 -13.5 140t-45.5 89t-86 31h-77v-576z" />
    <glyph glyph-name="S" unicode="S" horiz-adv-x="639" 
d="M337 -27q-49 0 -79.5 12.5t-49.5 29t-32 29t-26 12.5q-24 0 -24 -56h-62v317h69q1 -26 10.5 -61.5t26 -72t41 -67.5t56 -51t71.5 -20q46 0 71 22.5t35 63.5t10 97q0 66 -26.5 132t-71.5 135t-101 142q-77 100 -118 182t-56 153.5t-15 138.5q0 100 33 169.5t87.5 105.5
t119.5 36q56 0 85 -18t44.5 -36.5t30.5 -18.5q13 0 19 11t7 40h63v-315h-70q-2 36 -13.5 81.5t-32.5 87.5t-53.5 69.5t-76.5 27.5q-55 0 -86 -41.5t-31 -116.5q0 -54 18.5 -110.5t60 -123t107.5 -151.5q64 -78 110.5 -157.5t72.5 -162.5t26 -173q0 -93 -19.5 -158
t-53.5 -105.5t-79.5 -59.5t-97.5 -19z" />
    <glyph glyph-name="T" unicode="T" horiz-adv-x="757" 
d="M175 0v69h114v1262h-58q-55 0 -81 -22t-34 -73t-8 -140h-70v304h681v-304h-70q0 89 -8 140t-34 73t-81 22h-58v-1262h119v-69h-412z" />
    <glyph glyph-name="U" unicode="U" horiz-adv-x="776" 
d="M405 -24q-46 0 -94 14.5t-88 52t-64.5 104.5t-24.5 171v1013h-98v69h383v-69h-103v-1013q0 -143 34.5 -202t95.5 -59q27 0 50 11.5t41.5 38.5t28.5 74t10 119v1031h-86v69h251v-69h-95v-1041q0 -120 -30.5 -188.5t-85 -97t-125.5 -28.5z" />
    <glyph glyph-name="V" unicode="V" horiz-adv-x="702" 
d="M304 -2l-206 1333h-85v69h358v-69h-80l126 -925h-14l126 925h-83v69h249v-69h-89l-201 -1333h-101z" />
    <glyph glyph-name="W" unicode="W" horiz-adv-x="1112" 
d="M311 -2l-194 1333h-103v69h388v-69h-77l106 -926l-25 -51l140 940l20 -155l-37 192h-87v69h372v-69h-87l120 -915l-18 -51l121 966h-81v69h242v-69h-84l-191 -1333h-93l-173 1125l33 55l-199 -1180h-93z" />
    <glyph glyph-name="X" unicode="X" horiz-adv-x="789" 
d="M374 0v69h103l-351 1262h-87v69h383v-69h-98l351 -1262h87v-69h-388zM18 0v69h90l211 618l70 -29l-205 -589h90v-69h-256zM454 735l-65 35l193 561h-85v69h247v-69h-85z" />
    <glyph glyph-name="Y" unicode="Y" horiz-adv-x="766" 
d="M196 0v69h103v519l-182 743h-95v69h375v-69h-76l153 -688h-57l169 688h-80v69h248v-69h-93l-182 -716v-546h99v-69h-382z" />
    <glyph glyph-name="Z" unicode="Z" horiz-adv-x="679" 
d="M59 0v69l341 1262h-79q-78 0 -115 -25t-48.5 -77t-11.5 -133h-69v304h520v-68l-344 -1263h107q70 0 111.5 26t60 78.5t18.5 133.5h70v-307h-561z" />
    <glyph glyph-name="bracketleft" unicode="[" horiz-adv-x="292" 
d="M38 -440v1940h216v-69h-146v-1802h146v-69h-216z" />
    <glyph glyph-name="backslash" unicode="\" horiz-adv-x="647" 
d="M613 -104h-73l-496 1608h72z" />
    <glyph glyph-name="bracketright" unicode="]" horiz-adv-x="371" 
d="M334 -440h-216v69h146v1802h-146v69h216v-1940z" />
    <glyph glyph-name="asciicircum" unicode="^" horiz-adv-x="852" 
d="M117 949l268 451h85l265 -451h-80l-228 386l-229 -386h-81z" />
    <glyph glyph-name="underscore" unicode="_" horiz-adv-x="957" 
d="M19 -217v69h921v-69h-921z" />
    <glyph glyph-name="grave" unicode="`" horiz-adv-x="596" 
d="M367 1264l-203 96q-27 13 -41 26t-14 38q0 22 16 35t39 13q20 0 33.5 -7.5t27.5 -19.5l175 -142z" />
    <glyph glyph-name="a" unicode="a" horiz-adv-x="728" 
d="M273 -21q-62 0 -112 30.5t-79 89.5t-29 143q0 94 37.5 156t93 104.5t111.5 76.5t93.5 71.5t37.5 90.5q0 74 -12 128t-37.5 82.5t-68.5 28.5q-50 0 -81.5 -30.5t-31.5 -69.5q0 -24 8.5 -39t16.5 -31.5t8 -44.5q0 -39 -20.5 -63t-55.5 -24q-36 0 -56.5 30.5t-20.5 83.5
q0 76 33.5 136t93.5 95t138 35q79 0 139 -34.5t93.5 -109.5t33.5 -198v-570q0 -46 9 -61.5t27 -15.5q17 0 28.5 8t16.5 15l38 -57q-14 -18 -52.5 -33.5t-88.5 -15.5q-49 0 -79 14.5t-44 38t-18 46.5q-5 -15 -23 -40.5t-53.5 -45.5t-93.5 -20zM326 75q33 0 55 26t33.5 63.5
t11.5 69.5v372q-3 -28 -32 -54.5t-65 -61t-63.5 -89.5t-27.5 -140q0 -91 23.5 -138.5t64.5 -47.5z" />
    <glyph glyph-name="b" unicode="b" horiz-adv-x="759" 
d="M433 -20q-49 0 -79 25t-44.5 58t-17.5 58l-15 -121h-260v69h104v1362h-104v69h287v-557q4 15 19 42.5t45 49.5t79 22q67 0 122.5 -54.5t89 -173t33.5 -311.5q0 -200 -35.5 -318t-94.5 -169t-129 -51zM400 90q29 0 50 27t34 81t19.5 133t6.5 183q0 98 -5.5 176t-18.5 133
t-33 84.5t-50 29.5q-27 0 -48 -28t-34 -71t-17 -90v-393q2 -63 14.5 -124.5t34 -101t47.5 -39.5z" />
    <glyph glyph-name="c" unicode="c" horiz-adv-x="637" 
d="M365 -21q-71 0 -128.5 42.5t-99 118t-63.5 176t-22 215.5q0 137 30 236t77.5 163.5t103.5 96t106 31.5q71 0 120 -39.5t74.5 -102t25.5 -131.5q0 -51 -20.5 -79t-54.5 -28q-35 0 -56.5 24.5t-21.5 64.5q0 26 9 41t18 31.5t9 42.5q0 50 -27 77t-66 27q-40 0 -67 -41
t-43 -107t-22.5 -145t-6.5 -155q0 -82 7 -167t23.5 -156.5t46.5 -115.5t77 -44q55 0 85 30.5t45 74.5l53 -45q-19 -48 -71.5 -92t-140.5 -44z" />
    <glyph glyph-name="d" unicode="d" horiz-adv-x="765" 
d="M326 -20q-70 0 -128.5 51t-94 169t-35.5 318q0 193 34.5 311.5t90.5 173t121 54.5q52 0 82 -19t44 -44t18 -42v478h-116v70h299v-1431h113v-69h-268l-16 122q-2 -27 -19 -60.5t-48 -57.5t-77 -24zM360 90q29 0 49.5 37.5t33.5 95t15 116.5v409q-4 51 -17.5 94.5t-35 70
t-48.5 26.5q-28 0 -48.5 -31t-33.5 -87.5t-19 -134.5t-6 -172q0 -102 6.5 -181.5t20 -133.5t34 -81.5t49.5 -27.5z" />
    <glyph glyph-name="e" unicode="e" horiz-adv-x="675" 
d="M352 -21q-74 0 -130.5 41t-94 114.5t-56 173.5t-18.5 218q0 137 25 237.5t68 165.5t96 97t108 32q65 0 115 -36.5t84 -99.5t51.5 -144.5t17.5 -172.5q0 -21 -0.5 -41.5t-1.5 -41.5h-395v70h223q0 133 -9.5 220.5t-30 131.5t-54.5 44t-60 -44t-40.5 -139t-14.5 -249
q0 -115 6.5 -207t22 -157.5t42 -100.5t66.5 -35q66 0 103 36t51 71l60 -37q-20 -56 -84 -101.5t-150 -45.5z" />
    <glyph glyph-name="f" unicode="f" horiz-adv-x="555" 
d="M43 0v69h110v909h-126v69h126v127q0 104 28.5 179.5t86 116.5t142.5 41q90 0 137.5 -71.5t47.5 -182.5q0 -53 -19.5 -82t-59.5 -29q-41 0 -58.5 26.5t-17.5 64.5q0 32 12 50.5t24 33.5t12 37q0 35 -19 59t-46 24t-44.5 -20.5t-27.5 -56.5t-14 -85.5t-4 -108.5v-123h133
v-69h-133v-909h113v-69h-403z" />
    <glyph glyph-name="g" unicode="g" horiz-adv-x="750" 
d="M370 -498q-89 0 -161.5 33t-115 93t-42.5 140q0 64 20.5 108t49.5 71t55 41t37 18q-8 2 -28.5 11t-43.5 27.5t-40 49.5t-17 77q0 38 14.5 65t35.5 43t40 20q4 1 10.5 2.5t8.5 0.5q-9 8 -26.5 30.5t-36 62.5t-31 100t-12.5 140q0 120 26 200.5t68.5 129.5t92.5 71t98 22
q90 0 151.5 -51t93.5 -142.5t32 -213.5q0 -121 -25.5 -202t-67.5 -129t-91.5 -68.5t-96.5 -20.5q-51 0 -81 11.5t-36 14.5q-1 0 -2 0.5t-4 0.5q-16 0 -33.5 -18t-17.5 -48q0 -43 43.5 -70t163.5 -47q144 -22 219 -89t75 -198q0 -79 -30 -133.5t-79 -88t-106 -49t-110 -15.5z
M370 -432q72 0 116 53t44 128q0 84 -24.5 125.5t-88.5 64.5q-20 9 -42.5 17.5t-41.5 15t-30 9.5q-27 -14 -49.5 -43.5t-35.5 -70.5t-13 -94q0 -56 18.5 -102t55.5 -74.5t91 -28.5zM368 302q27 0 49.5 25t36 99t13.5 221q0 142 -13.5 214.5t-35.5 98.5t-48 26t-49 -26
t-37.5 -100t-14.5 -218q0 -145 14.5 -217.5t37 -97.5t47.5 -25zM471 987q10 64 59 101t104 37q46 0 65 -21.5t19 -55.5q0 -32 -17.5 -50.5t-45.5 -18.5q-26 0 -37.5 12t-19.5 24t-28 12q-13 0 -23 -10t-10 -32z" />
    <glyph glyph-name="h" unicode="h" horiz-adv-x="829" 
d="M33 0v69h103v1362h-103v69h283v-557q1 12 23 40t61.5 52t94.5 24t102 -28t76 -98.5t29 -199.5v-664h103v-69h-359v69h76v647q0 125 -21.5 175t-66.5 50q-30 0 -56.5 -26.5t-43.5 -71t-18 -99.5v-675h78v-69h-361z" />
    <glyph glyph-name="i" unicode="i" horiz-adv-x="451" 
d="M32 0v69h106v909h-106v69h286v-978h106v-69h-392zM227 1217q-53 0 -90 36.5t-37 89.5q0 51 37 88t90 37q50 0 87 -37t37 -88q0 -53 -37 -89.5t-87 -36.5z" />
    <glyph glyph-name="j" unicode="j" horiz-adv-x="457" 
d="M87 -498q-56 0 -97 32t-63.5 87t-22.5 125q0 53 23.5 81.5t58.5 28.5q34 0 52 -24.5t18 -67.5q0 -28 -6.5 -48t-14 -38.5t-7.5 -41.5q0 -21 6.5 -35.5t18 -21t25.5 -6.5q52 0 73 59t21 172v1174h-113v69h293v-1118q0 -122 -23 -204.5t-61.5 -131.5t-85.5 -70t-95 -21z
M258 1217q-53 0 -90 36.5t-37 89.5q0 51 37 88t90 37q51 0 87.5 -37t36.5 -88q0 -53 -36.5 -89.5t-87.5 -36.5z" />
    <glyph glyph-name="k" unicode="k" horiz-adv-x="793" 
d="M33 0v69h103v1362h-103v69h283v-825l202 303h-92v69h274v-69h-99l-131 -215l237 -694h86v-69h-366v69h83l-178 524l-16 -40v-484h75v-69h-358z" />
    <glyph glyph-name="l" unicode="l" horiz-adv-x="455" 
d="M38 0v69h100v1362h-100v69h279v-1431h101v-69h-380z" />
    <glyph glyph-name="m" unicode="m" horiz-adv-x="1137" 
d="M32 0v69h97v909h-97v69h273v-112q2 17 21.5 46t58.5 52.5t96 23.5t92 -28t52 -61.5t20 -50.5q6 28 32.5 60.5t70 56t98.5 23.5q91 0 138 -74t47 -186v-728h94v-69h-351v69h77v625q0 83 -4 139t-20 85.5t-52 29.5q-37 0 -60.5 -30.5t-35 -79.5t-12.5 -107v-662h78v-69
h-332v69h76v625q0 124 -11.5 189t-65.5 65q-36 0 -59 -31t-33 -82.5t-11 -113.5v-652h75v-69h-352z" />
    <glyph glyph-name="n" unicode="n" horiz-adv-x="817" 
d="M33 0v69h104v909h-104v69h280v-105q4 19 26 46.5t60 48.5t89 21q52 0 98 -24.5t75 -92t29 -198.5v-674h103v-69h-364v69h81v661q0 116 -20 167.5t-64 51.5q-24 0 -43.5 -16.5t-34 -45t-22.5 -64.5t-9 -75v-679h79v-69h-363z" />
    <glyph glyph-name="o" unicode="o" horiz-adv-x="705" 
d="M349 -22q-57 0 -110 35.5t-95.5 105t-66.5 172t-24 236.5q0 147 25.5 248.5t68.5 163.5t95.5 90.5t106.5 28.5t106.5 -28.5t96 -90.5t69.5 -163.5t26 -248.5q0 -134 -24.5 -236.5t-67 -172t-96 -105t-110.5 -35.5zM349 54q51 0 82.5 113.5t31.5 359.5q0 244 -31.5 350
t-82.5 106q-50 0 -82 -106t-32 -350q0 -246 32 -359.5t82 -113.5z" />
    <glyph glyph-name="p" unicode="p" horiz-adv-x="742" 
d="M23 -500v69h103v1409h-103v69h282v-100q4 15 22.5 41t51 47.5t78.5 21.5q62 0 115 -54.5t85 -173t32 -311.5q0 -200 -34.5 -318t-91.5 -169t-125 -51q-41 0 -68.5 19t-42.5 42.5t-18 37.5v-510h102v-69h-388zM402 76q27 0 46 30.5t32.5 88t19.5 139t6 181.5q0 101 -6 182
t-18.5 138t-31.5 87t-45 30q-31 0 -50.5 -30.5t-30 -76t-15.5 -91.5v-449q2 -58 11.5 -110.5t29.5 -85.5t52 -33z" />
    <glyph glyph-name="q" unicode="q" horiz-adv-x="775" 
d="M364 -500v69h108v510q-3 -15 -18 -38.5t-42 -42t-68 -18.5q-68 0 -125.5 51t-92 169t-34.5 318q0 193 34 311.5t89 173t116 54.5q52 0 84 -22t49 -48.5t20 -43.5l13 104h157v-1478h105v-69h-395zM378 76q32 0 52 33.5t30 86t12 109.5v444q-3 49 -14.5 96t-31.5 77t-51 30
q-26 0 -45 -31t-31.5 -88.5t-19 -138.5t-6.5 -180q0 -100 6.5 -181t19.5 -138.5t32.5 -88t46.5 -30.5z" />
    <glyph glyph-name="r" unicode="r" horiz-adv-x="636" 
d="M25 0v69h105v909h-105v69h269l10 -95q4 13 22.5 38.5t50.5 46.5t75 21q54 0 87.5 -35.5t49.5 -95.5t16 -134q0 -56 -20.5 -85.5t-56.5 -29.5q-33 0 -53.5 24.5t-20.5 69.5q0 28 10.5 45t20 34.5t9.5 47.5q0 42 -15 61t-43 19q-34 0 -63 -31.5t-46 -85.5t-17 -122v-671
h105v-69h-390z" />
    <glyph glyph-name="s" unicode="s" horiz-adv-x="566" 
d="M292 -22q-55 0 -83.5 14t-43.5 27.5t-29 13.5q-13 0 -18 -8.5t-5 -24.5h-60v307h72q5 -58 17.5 -106t32.5 -82t48.5 -53t64.5 -19t57.5 18t31.5 46.5t10 59.5q0 48 -16.5 93t-49.5 92t-84 100q-73 78 -125.5 160t-52.5 201q0 83 31.5 136t81.5 79t106 26q42 0 67 -10.5
t40 -21.5t26 -11q8 0 12.5 7.5t5.5 24.5h62v-298h-71q-4 53 -14 97t-27 75.5t-41 48.5t-57 17q-48 0 -72.5 -35.5t-24.5 -88.5q0 -63 37 -118t107 -126q55 -58 97 -115.5t65.5 -121.5t23.5 -141q0 -85 -27 -143.5t-77 -89t-118 -30.5z" />
    <glyph glyph-name="t" unicode="t" horiz-adv-x="494" 
d="M329 -18q-49 0 -94 16.5t-73.5 61.5t-28.5 131v787h-131v69h131q30 20 52.5 66t37 105.5t18.5 119.5h72v-291h154v-69h-154v-852q0 -42 18 -56t36 -14q19 0 33.5 8t22.5 17l40 -55q-22 -19 -55.5 -31.5t-78.5 -12.5z" />
    <glyph glyph-name="u" unicode="u" horiz-adv-x="789" 
d="M335 -22q-57 0 -106 24t-78.5 89.5t-29.5 191.5v695h-103v68h283v-743q0 -93 10 -142t29.5 -66.5t45.5 -17.5q35 0 60.5 35t39 95.5t13.5 137.5v633h-96v68h276v-977h90v-69h-249l-9 113q-5 -26 -26.5 -57.5t-59 -54.5t-90.5 -23z" />
    <glyph glyph-name="v" unicode="v" horiz-adv-x="651" 
d="M286 -3l-186 981h-82v69h344v-69h-70l98 -634l100 634h-67v69h222v-69h-78l-178 -981h-103z" />
    <glyph glyph-name="w" unicode="w" horiz-adv-x="1045" 
d="M672 -3l-170 981h-80v69h338v-69h-71l91 -646l96 646h-65v69h220v-69h-77l-164 -981h-118zM259 -3l-164 981h-79v69h344v-69h-72l81 -646l101 646h-43v69h202v-69h-82l-169 -981h-119z" />
    <glyph glyph-name="x" unicode="x" horiz-adv-x="690" 
d="M16 0v69h92l172 476l67 11l149 422h-71v69h234v-69h-83l-174 -460l-62 -14l-150 -435h69v-69h-243zM335 0v69h73l-294 909h-84v69h259h88v-69h-71l295 -909h82v-69h-261h-87z" />
    <glyph glyph-name="y" unicode="y" horiz-adv-x="674" 
d="M198 -502q-44 0 -73.5 32.5t-43.5 88t-14 125.5q0 53 20 81.5t55 28.5q34 0 53.5 -25t19.5 -68q0 -33 -11.5 -53.5t-23 -39t-11.5 -45.5q0 -26 8.5 -47t27.5 -21q12 0 19.5 10t14 31t12.5 53l73 354l-224 975h-83v69h351v-69h-76l120 -573l110 573h-74v69h227v-69h-75
l-206 -985l-77 -361q-9 -43 -23.5 -73t-37.5 -45.5t-58 -15.5z" />
    <glyph glyph-name="z" unicode="z" horiz-adv-x="604" 
d="M75 0v69l267 909h-95q-48 0 -69 -18t-25.5 -67.5t-4.5 -143.5h-67v298h446v-69l-267 -909h91q52 0 73.5 19.5t26.5 71t5 147.5h69v-307h-450z" />
    <glyph glyph-name="braceleft" unicode="{" horiz-adv-x="417" 
d="M344 -320q-24 0 -58.5 10.5t-68 45t-56 105.5t-22.5 192q0 81 12 145.5t23.5 122.5t11.5 119q0 65 -14 101.5t-59 36.5v67q45 0 59 36t14 103q0 61 -11.5 118.5t-23.5 122t-12 144.5q0 121 22.5 192t56 105.5t68 45t58.5 10.5v-69q-12 0 -33.5 -8.5t-44.5 -36.5t-38 -86
t-15 -158q0 -78 12.5 -140.5t24.5 -120t12 -119.5q0 -95 -26 -129t-53 -42q27 -11 53 -45t26 -128q0 -62 -12 -120t-24.5 -121t-12.5 -141q0 -100 15 -158t38 -86t44.5 -36.5t33.5 -8.5v-69z" />
    <glyph glyph-name="bar" unicode="|" horiz-adv-x="205" 
d="M68 -329v1829h70v-1829h-70z" />
    <glyph glyph-name="braceright" unicode="}" horiz-adv-x="417" 
d="M73 -320v69q12 0 34 8.5t44.5 36.5t38 86t15.5 158q0 78 -12 141t-24.5 121t-12.5 120q0 94 26 128t53 45q-27 8 -53 42t-26 129q0 62 12.5 119.5t24.5 120t12 140.5q0 100 -15.5 158t-38 86t-44.5 36.5t-34 8.5v69q25 0 59 -10.5t67.5 -45t56 -105.5t22.5 -192
q0 -80 -11.5 -144.5t-23.5 -122t-12 -118.5q0 -67 14.5 -103t59.5 -36v-67q-45 0 -59.5 -36.5t-14.5 -101.5q0 -61 12 -119t23.5 -122.5t11.5 -145.5q0 -121 -22.5 -192t-56 -105.5t-67.5 -45t-59 -10.5z" />
    <glyph glyph-name="asciitilde" unicode="~" horiz-adv-x="741" 
d="M505 1270q-63 0 -108 22t-82.5 44t-83.5 22q-47 0 -80 -25.5t-41 -41.5l-60 46q10 17 31.5 40.5t59 42.5t93.5 19q65 0 108.5 -22t81 -44.5t82.5 -22.5q33 0 60 14t45 32.5t23 29.5l57 -49q-9 -19 -32.5 -44t-61.5 -44t-92 -19z" />
    <glyph glyph-name="uni00A0" unicode="&#xa0;" horiz-adv-x="323" 
 />
    <glyph glyph-name="exclamdown" unicode="&#xa1;" horiz-adv-x="320" 
d="M186 789q0 -128 9.5 -253t22.5 -241t22.5 -222t9.5 -198q0 -77 -22.5 -127t-71.5 -50q-47 0 -70 50t-23 127q0 92 9.5 198t22 222t22.5 241t10 253h59zM160 1141q46 0 79.5 -34.5t33.5 -80.5q0 -48 -33.5 -81.5t-79.5 -33.5q-47 0 -80.5 33.5t-33.5 81.5q0 46 33.5 80.5
t80.5 34.5z" />
    <glyph glyph-name="cent" unicode="&#xa2;" horiz-adv-x="620" 
d="M238 -116l115 1225h52l-113 -1225h-54zM365 -21q-71 0 -128.5 42.5t-99 118t-63.5 176t-22 215.5q0 137 30 236t77.5 163.5t103.5 96t106 31.5q71 0 120 -39.5t74.5 -102t25.5 -131.5q0 -51 -20.5 -79t-54.5 -28q-35 0 -56.5 24.5t-21.5 64.5q0 26 9 41t18 31.5t9 42.5
q0 50 -27 77t-66 27q-40 0 -67 -41t-43 -107t-22.5 -145t-6.5 -155q0 -82 7 -167t23.5 -156.5t46.5 -115.5t77 -44q55 0 85 30.5t45 74.5l53 -45q-19 -48 -71.5 -92t-140.5 -44z" />
    <glyph glyph-name="sterling" unicode="&#xa3;" horiz-adv-x="622" 
d="M15 718v69h464v-69h-464zM118 -25q-41 0 -67 27t-26 75q0 55 27 93t71 60.5t93 28.5q3 16 6.5 52.5t3.5 87.5q0 64 -22 144t-51 167t-50.5 172.5t-21.5 159.5q0 130 36 214.5t96.5 125t134.5 40.5q100 0 153 -72t53 -177q0 -53 -19.5 -83.5t-55.5 -30.5q-35 0 -56 28.5
t-21 71.5q0 29 10.5 48.5t20.5 36t10 36.5q0 39 -23 54t-55 15q-45 0 -71.5 -39t-37.5 -102t-11 -138q0 -81 19 -180t37.5 -205t18.5 -210q0 -50 -5.5 -96t-12 -78.5t-10.5 -44.5q37 -8 62 -30.5t44 -49t37.5 -45.5t39.5 -19q29 0 41 19t13 38h60q0 -59 -16 -100
t-45.5 -62.5t-69.5 -21.5q-38 0 -65 24t-48.5 55.5t-39.5 57.5t-38 30q-20 -90 -58 -133.5t-91 -43.5zM122 44q21 0 43.5 30t32.5 86q-37 0 -69 -27t-32 -62q0 -13 6.5 -20t18.5 -7z" />
    <glyph glyph-name="currency" unicode="&#xa4;" horiz-adv-x="867" 
d="M432 51q-49 0 -104 23.5t-102 77.5t-77 146t-30 229q0 139 30.5 228t78.5 138t102 68t102 19q47 0 101.5 -19t103 -68t79 -138t30.5 -228q0 -137 -30 -229t-78 -146t-102.5 -77.5t-103.5 -23.5zM432 114q28 0 56.5 18t52 62.5t38.5 125.5t15 207q0 123 -15 200t-38.5 118
t-52 56.5t-56.5 15.5t-57 -15.5t-53 -56.5t-38.5 -118t-14.5 -200q0 -126 14.5 -207t38.5 -125.5t53 -62.5t57 -18zM764 996l50 -50l-163 -158l-45 46zM773 45l-158 162l45 46l163 -158zM101 996l157 -162l-45 -46l-163 158zM92 45l-51 50l163 158l45 -46z" />
    <glyph glyph-name="yen" unicode="&#xa5;" horiz-adv-x="721" 
d="M151 554v69h467v-69h-467zM151 325v69h467v-69h-467zM196 0v69h103v519l-182 743h-95v69h375v-69h-76l153 -688h-57l169 688h-80v69h248v-69h-93l-182 -716v-546h99v-69h-382z" />
    <glyph glyph-name="brokenbar" unicode="&#xa6;" horiz-adv-x="205" 
d="M68 871v629h70v-629h-70zM68 -329v620h70v-620h-70z" />
    <glyph glyph-name="section" unicode="&#xa7;" horiz-adv-x="579" 
d="M262 -378q-54 0 -100 25.5t-73.5 72.5t-27.5 111q0 52 23 82t60 30q35 0 52.5 -20.5t17.5 -55.5q0 -29 -10 -44t-20.5 -27t-10.5 -34q0 -37 29.5 -54t55.5 -17q39 0 67 21.5t43 63.5t15 105q0 68 -34.5 124t-85 110.5t-101.5 117.5t-85.5 144.5t-34.5 191.5
q0 60 18.5 108.5t45.5 84.5t53 59.5t41 32.5q-36 44 -64.5 93t-45.5 106.5t-17 122.5q0 80 29.5 134t76.5 82t99 28q82 0 132.5 -56t50.5 -153q0 -50 -18 -80.5t-55 -30.5q-34 0 -52 20.5t-18 54.5q0 27 10 41.5t20.5 27.5t10.5 35q0 27 -11 42.5t-29.5 22.5t-39.5 7
q-45 0 -72 -32.5t-27 -99.5q0 -96 35 -161t86.5 -116t103 -105.5t86.5 -128.5t35 -187q0 -82 -30 -140.5t-68.5 -94t-65.5 -50.5q35 -39 66 -85t51 -103.5t20 -132.5q0 -92 -35 -157.5t-89 -100.5t-113 -35zM314 291q36 17 63.5 67.5t27.5 109.5q0 65 -18 119.5t-54 106.5
t-90 110q-34 -26 -62.5 -75t-28.5 -104q0 -53 13.5 -98t36.5 -84.5t52 -77t60 -74.5z" />
    <glyph glyph-name="dieresis" unicode="&#xa8;" horiz-adv-x="792" 
d="M517 1241q-33 0 -56.5 24t-23.5 55q0 34 23.5 59t56.5 25q32 0 56 -25t24 -59q0 -31 -24 -55t-56 -24zM281 1241q-31 0 -54.5 24t-23.5 55q0 34 23.5 59t54.5 25q33 0 57.5 -25t24.5 -59q0 -31 -24.5 -55t-57.5 -24z" />
    <glyph glyph-name="copyright" unicode="&#xa9;" horiz-adv-x="1187" 
d="M595 -22q-106 0 -199 54.5t-163.5 152.5t-110.5 228.5t-40 282.5t40 282t110.5 228t163.5 152.5t199 54.5q105 0 197 -54.5t162.5 -152.5t110 -228t39.5 -282t-39.5 -282.5t-110 -228.5t-162.5 -152.5t-197 -54.5zM590 236q-72 0 -123.5 63t-78.5 170t-27 237
q0 125 30.5 230.5t86.5 169t131 63.5t115 -60.5t40 -142.5q0 -41 -14.5 -65t-42.5 -24q-29 0 -42.5 18t-13.5 45q0 23 8 34.5t16 22t8 27.5q0 37 -18 56.5t-53 19.5q-38 0 -62 -37t-37.5 -95.5t-18.5 -126t-5 -129.5q0 -67 5 -137.5t18.5 -131t36.5 -98t58 -37.5
q44 0 75 36.5t45 68.5l46 -59q-26 -58 -73.5 -88t-109.5 -30zM595 49q93 0 172 50.5t138 139t92 205.5t33 252q0 134 -33 251t-92 205.5t-138 139t-172 50.5t-173 -50.5t-138.5 -139t-91.5 -205.5t-33 -251q0 -135 33 -252t91.5 -205.5t138.5 -139t173 -50.5z" />
    <glyph glyph-name="ordfeminine" unicode="&#xaa;" horiz-adv-x="517" 
d="M215 1133q-52 0 -83 23t-31 72q0 44 30.5 68t70.5 38.5t70.5 27t30.5 32.5q0 38 -6 49.5t-40 11.5q-23 0 -35.5 -5.5t-12.5 -13.5q0 -7 0.5 -15t0.5 -17q0 -17 -12 -30t-37 -13q-20 0 -32 15t-12 36q0 41 43 70t104 29q65 0 103.5 -28t38.5 -97v-162q0 -30 23 -30
q16 0 22 9l21 -44q-6 -9 -27.5 -16t-53.5 -7q-33 0 -54.5 11.5t-29.5 36.5q-3 -11 -24.5 -31t-67.5 -20zM251 1200q18 0 35 13t17 33v76q-3 -6 -17.5 -12.5t-31.5 -15t-30 -21.5t-13 -33q0 -22 9 -31t31 -9z" />
    <glyph glyph-name="guillemotleft" unicode="&#xab;" horiz-adv-x="742" 
d="M539 304l-223 232l223 233h77l-223 -233l226 -232h-80zM348 304l-223 232l223 233h77l-223 -233l226 -232h-80z" />
    <glyph glyph-name="logicalnot" unicode="&#xac;" horiz-adv-x="669" 
d="M476 328v234l31 -32h-418v65h452v-267h-65z" />
    <glyph glyph-name="uni00AD" unicode="&#xad;" horiz-adv-x="535" 
d="M102 528v69h330v-69h-330z" />
    <glyph glyph-name="registered" unicode="&#xae;" horiz-adv-x="900" 
d="M461 377q-111 0 -197 66t-134.5 183t-48.5 270q0 151 48.5 267.5t134.5 183t197 66.5t196 -66t133 -183t48 -268q0 -152 -48 -269.5t-133 -183.5t-196 -66zM461 431q99 0 171 60t111 165t39 240q0 133 -39 237.5t-111 164.5t-171 60t-171.5 -60t-111.5 -164.5t-39 -237.5
q0 -135 39 -240t111.5 -165t171.5 -60zM597 563q-34 0 -60 17.5t-26 71.5q0 45 1.5 87t1.5 74t-17.5 54t-58.5 22h-21v-269h49v-50h-191v50h56v568h-56v50h190q55 0 102 -37.5t47 -113.5q0 -71 -27.5 -118.5t-85.5 -53.5q54 -1 79.5 -29t25.5 -80q0 -48 -2 -91t-2 -75
q0 -13 6 -20t12 -7q15 0 15 18h43q-2 -33 -24 -50.5t-57 -17.5zM418 937h22q28 0 46 20.5t26.5 54t8.5 73.5q0 35 -6 58t-21.5 33.5t-43.5 10.5h-32v-250z" />
    <glyph glyph-name="macron" unicode="&#xaf;" horiz-adv-x="925" 
d="M230 1356v69h603v-69h-603z" />
    <glyph glyph-name="degree" unicode="&#xb0;" horiz-adv-x="584" 
d="M291 1160q-42 0 -81 22.5t-63.5 65.5t-24.5 105q0 90 50 138.5t119 48.5t119 -45t50 -142t-50.5 -145t-118.5 -48zM291 1224q34 0 53 29t19 98q0 68 -19 97.5t-53 29.5q-32 0 -52 -30.5t-20 -98.5q0 -69 20 -97t52 -28z" />
    <glyph glyph-name="plusminus" unicode="&#xb1;" horiz-adv-x="827" 
d="M380 369v624h70v-624h-70zM102 646v69h622v-69h-622zM112 246v69h605v-69h-605z" />
    <glyph glyph-name="uni00B2" unicode="&#xb2;" horiz-adv-x="658" 
d="M424 697q-47 0 -83 16.5t-70.5 33t-77.5 16.5q-37 0 -56 -20.5t-22 -39.5h-58q0 114 34.5 189t86 126t102.5 91t86 82.5t35 100.5q0 38 -15.5 66t-43 43.5t-65.5 15.5q-28 0 -49.5 -6t-34 -15.5t-12.5 -21.5q0 -10 9.5 -18t19 -20t9.5 -35q0 -33 -20.5 -49t-50.5 -16
q-31 0 -51.5 20.5t-20.5 62.5q0 63 62.5 105.5t169.5 42.5q44 0 89.5 -7t85 -27t63.5 -57.5t24 -98.5q0 -67 -28 -109t-73 -70.5t-98 -52t-103 -51t-88 -68t-53 -103.5q11 17 32.5 29t50.5 19t62 7q42 0 74.5 -12t60 -24.5t49.5 -12.5q32 0 45.5 14t13.5 40h56v-30
q0 -33 -14 -69t-46 -61.5t-87 -25.5z" />
    <glyph glyph-name="uni00B3" unicode="&#xb3;" horiz-adv-x="660" 
d="M298 690q-67 0 -115.5 20t-74.5 54t-26 75q0 42 20 66t54 24t50 -14t16 -42q0 -23 -11 -34t-21.5 -22t-10.5 -33q0 -17 26 -28t66 -11q33 0 61 11t45 44t17 100q0 54 -14.5 87.5t-37 51.5t-47.5 24.5t-46 6.5v53q22 0 47.5 4.5t49 20.5t39 49.5t15.5 92.5q0 47 -16 74
t-43.5 38t-65.5 11q-42 0 -68 -10.5t-26 -28.5q0 -22 10.5 -32.5t21 -21.5t10.5 -33q0 -30 -16.5 -44.5t-49.5 -14.5q-34 0 -54 25t-20 66q0 42 27 75.5t76.5 53t116.5 19.5q73 0 133.5 -18.5t97.5 -58.5t37 -105q0 -53 -25 -89t-62 -57.5t-76 -31.5t-67 -11q30 -1 70 -11.5
t78.5 -33t64 -61t25.5 -95.5q0 -87 -75.5 -146t-205.5 -59z" />
    <glyph glyph-name="acute" unicode="&#xb4;" horiz-adv-x="582" 
d="M204 1260l-44 47l181 138q30 26 59.5 24.5t42.5 -25.5q14 -23 -1.5 -47t-49.5 -39z" />
    <glyph glyph-name="uni00B5" unicode="&#xb5;" horiz-adv-x="789" 
d="M353 -22q-57 0 -110.5 24t-87.5 89.5t-34 191.5v758h180v-738q0 -93 11 -142t30.5 -66.5t43.5 -17.5q35 0 60.5 35t39 95.5t13.5 137.5v701h180v-977h90v-69h-249l-9 113q-5 -26 -23 -57.5t-51.5 -54.5t-83.5 -23zM121 706h180v-1199h-180v1199z" />
    <glyph glyph-name="paragraph" unicode="&#xb6;" horiz-adv-x="742" 
d="M277 -260q-60 0 -96.5 27.5t-52.5 68t-16 79.5q0 42 18.5 68.5t52.5 26.5q35 0 53 -21t18 -58q0 -28 -5 -41.5t-11 -23t-6 -26.5q0 -20 10 -29t33 -9q33 0 55 26t32.5 74.5t10.5 117.5v678q-7 -38 -41.5 -62.5t-70.5 -24.5h-2q-95 0 -157.5 112t-62.5 293q0 117 33.5 203
t90.5 133.5t126 47.5h429v-69h-87v-1236q0 -95 -28 -159.5t-72 -103.5t-92.5 -58.5t-92 -26.5t-69.5 -7zM386 -190q52 23 84 76.5t32 168.5v1276h-60v-1324q0 -71 -10 -117.5t-46 -79.5z" />
    <glyph glyph-name="periodcentered" unicode="&#xb7;" horiz-adv-x="394" 
d="M210 693q-46 0 -79.5 34t-33.5 81q0 48 33.5 81.5t79.5 33.5q47 0 80.5 -33.5t33.5 -81.5q0 -47 -33.5 -81t-80.5 -34z" />
    <glyph glyph-name="cedilla" unicode="&#xb8;" horiz-adv-x="605" 
d="M289 -273q-51 0 -90.5 12.5t-54.5 20.5l24 60q10 -7 45 -18t76 -11q32 0 47.5 10.5t15.5 31.5q0 23 -14.5 30.5t-32.5 7.5q-14 0 -33 -6t-29 -17l-66 4l55 137h70l-41 -91q8 9 28 18t52 9q50 0 75 -24.5t25 -67.5q0 -53 -43.5 -79.5t-108.5 -26.5z" />
    <glyph glyph-name="uni00B9" unicode="&#xb9;" horiz-adv-x="486" 
d="M81 704v51h76v543q-10 -7 -35.5 -14t-42.5 -8v54q29 2 60 16.5t59.5 37t49 50.5t26.5 58h53v-737h78v-51h-324z" />
    <glyph glyph-name="ordmasculine" unicode="&#xba;" horiz-adv-x="503" 
d="M251 1140q-77 0 -133 54.5t-56 136.5q0 80 56 134.5t133 54.5q79 0 134.5 -54.5t55.5 -134.5q0 -82 -55.5 -136.5t-134.5 -54.5zM251 1203q39 0 64 37t25 91q0 53 -25 90t-64 37q-38 0 -62.5 -37t-24.5 -90q0 -54 24.5 -91t62.5 -37z" />
    <glyph glyph-name="guillemotright" unicode="&#xbb;" horiz-adv-x="749" 
d="M323 304l225 232l-222 233h77l223 -233l-223 -232h-80zM125 304l225 232l-222 233h77l223 -233l-223 -232h-80z" />
    <glyph glyph-name="onequarter" unicode="&#xbc;" horiz-adv-x="1310" 
d="M81 649v51h76v543q-10 -7 -35.5 -14t-42.5 -8v54q29 2 60 16.5t59.5 37t49 50.5t26.5 58h53v-737h78v-51h-324zM118 0l876 1400h79l-874 -1400h-81zM861 0v51h97v120h-209v51l203 431q38 11 73.5 44t47.5 73h61v-548h11q29 0 39.5 29.5t10.5 79.5h56v-160h-117v-120h96
v-51h-369zM812 216l-9 6h157v322l-4 -27z" />
    <glyph glyph-name="onehalf" unicode="&#xbd;" horiz-adv-x="1363" 
d="M81 649v51h76v543q-10 -7 -35.5 -14t-42.5 -8v54q29 2 60 16.5t59.5 37t49 50.5t26.5 58h53v-737h78v-51h-324zM118 0l876 1400h79l-874 -1400h-81zM1129 -6q-47 0 -83 16.5t-70.5 33t-77.5 16.5q-37 0 -56 -20.5t-22 -39.5h-58q0 113 34.5 188.5t86 126.5t102.5 91
t86 82.5t35 100.5q0 38 -15.5 66t-43 43.5t-65.5 15.5q-28 0 -49.5 -6t-34 -15.5t-12.5 -21.5q0 -10 9.5 -18t19 -20t9.5 -35q0 -33 -20.5 -49t-50.5 -16q-31 0 -51.5 20.5t-20.5 62.5q0 63 62.5 105.5t169.5 42.5q44 0 89.5 -7t85 -27t63.5 -57.5t24 -98.5q0 -67 -28 -109
t-73 -70.5t-98 -52t-103 -51t-88 -68t-53 -103.5q11 17 32.5 29t50.5 19t62 7q42 0 74.5 -12t60 -24.5t49.5 -12.5q32 0 45.5 14t13.5 40h56v-30q0 -33 -14 -69t-46 -61.5t-87 -25.5z" />
    <glyph glyph-name="threequarters" unicode="&#xbe;" horiz-adv-x="1484" 
d="M298 635q-67 0 -115.5 20t-74.5 54t-26 75q0 42 20 66t54 24t50 -14t16 -42q0 -23 -11 -34t-21.5 -22t-10.5 -33q0 -17 26 -28t66 -11q33 0 61 11t45 44t17 100q0 54 -14.5 87.5t-37 51.5t-47.5 24.5t-46 6.5v53q22 0 47.5 4.5t49 20.5t39 49.5t15.5 92.5q0 47 -16 74
t-43.5 38t-65.5 11q-42 0 -68 -10.5t-26 -28.5q0 -22 10.5 -32.5t21 -21.5t10.5 -33q0 -30 -16.5 -44.5t-49.5 -14.5q-34 0 -54 25t-20 66q0 42 27 75.5t76.5 53t116.5 19.5q73 0 133.5 -18.5t97.5 -58.5t37 -105q0 -53 -25 -89t-62 -57.5t-76 -31.5t-67 -11q30 -1 70 -11.5
t78.5 -33t64 -61t25.5 -95.5q0 -87 -75.5 -146t-205.5 -59zM292 0l876 1400h79l-874 -1400h-81zM1035 0v51h97v120h-209v51l203 431q38 11 73.5 44t47.5 73h61v-548h11q29 0 39.5 29.5t10.5 79.5h56v-160h-117v-120h96v-51h-369zM986 216l-9 6h157v322l-4 -27z" />
    <glyph glyph-name="questiondown" unicode="&#xbf;" horiz-adv-x="627" 
d="M427 819q0 -124 -19 -219t-47 -171t-56 -142.5t-47 -134.5t-19 -148q0 -127 40 -186t117 -59q52 0 77.5 27.5t25.5 63.5q0 27 -10.5 45t-21 37.5t-10.5 48.5q0 48 20.5 68t52.5 20q33 0 57 -30t24 -96q0 -76 -31 -133t-88 -88.5t-134 -31.5q-50 0 -101 14t-93.5 48.5
t-68.5 94.5t-26 151t29 162.5t71.5 137.5t85 139t71.5 165.5t29 216.5h72zM390 1138q47 0 80.5 -34t33.5 -81q0 -48 -33.5 -81.5t-80.5 -33.5q-46 0 -80 33.5t-34 81.5q0 47 34 81t80 34z" />
    <glyph glyph-name="Agrave" unicode="&#xc0;" horiz-adv-x="689" 
d="M5 0v69h80l185 1333h118l205 -1333h96v-69h-371v69h82l-122 936h1l-122 -936h73v-69h-225zM161 296v65h237v-65h-237zM440 1448l-203 95q-27 13 -41 26t-14 38q0 23 16 36t39 13q20 0 34 -7.5t28 -19.5l174 -142z" />
    <glyph glyph-name="Aacute" unicode="&#xc1;" horiz-adv-x="689" 
d="M5 0v69h80l185 1333h118l205 -1333h96v-69h-371v69h82l-122 936h1l-122 -936h73v-69h-225zM161 296v65h237v-65h-237zM225 1443l-44 47l180 137q14 11 29.5 18.5t28.5 7.5q15 0 27 -7.5t18 -19.5q6 -10 6 -23q0 -19 -15.5 -35.5t-41.5 -27.5z" />
    <glyph glyph-name="Acircumflex" unicode="&#xc2;" horiz-adv-x="689" 
d="M5 0v69h80l185 1333h118l205 -1333h96v-69h-371v69h82l-122 936h1l-122 -936h73v-69h-225zM161 296v65h237v-65h-237zM149 1462l148 205h70l146 -205h-78l-104 135l-103 -135h-79z" />
    <glyph glyph-name="Atilde" unicode="&#xc3;" horiz-adv-x="689" 
d="M5 0v69h80l185 1333h118l205 -1333h96v-69h-371v69h82l-122 936h1l-122 -936h73v-69h-225zM161 296v65h237v-65h-237zM417 1483q-39 0 -65 15.5t-47 30.5t-45 15q-32 0 -49 -17t-22 -28l-68 30q6 19 22.5 42.5t43 41.5t60.5 18q42 0 68 -15t47.5 -30.5t50.5 -15.5
q30 0 43.5 15t19.5 26l66 -35q-4 -14 -20.5 -36t-42.5 -39.5t-62 -17.5z" />
    <glyph glyph-name="Adieresis" unicode="&#xc4;" horiz-adv-x="689" 
d="M5 0v69h80l185 1333h118l205 -1333h96v-69h-371v69h82l-122 936h1l-122 -936h73v-69h-225zM161 296v65h237v-65h-237zM448 1501q-33 0 -56.5 23.5t-23.5 54.5q0 35 23.5 59.5t56.5 24.5q32 0 56 -24.5t24 -59.5q0 -31 -24 -54.5t-56 -23.5zM212 1501q-31 0 -54.5 23.5
t-23.5 54.5q0 35 23.5 59.5t54.5 24.5q33 0 57.5 -24.5t24.5 -59.5q0 -31 -24.5 -54.5t-57.5 -23.5z" />
    <glyph glyph-name="Aring" unicode="&#xc5;" horiz-adv-x="689" 
d="M5 0v69h80l185 1333h118l205 -1333h96v-69h-371v69h82l-122 936h1l-122 -936h73v-69h-225zM161 296v65h237v-65h-237zM331 1465q-44 0 -76 32.5t-32 85.5q0 55 32 86t76 31t75.5 -31t31.5 -86q0 -53 -31.5 -85.5t-75.5 -32.5zM331 1518q26 0 37.5 20t11.5 47
q0 22 -11.5 42t-37.5 20q-25 0 -37 -20t-12 -42q0 -27 12 -47t37 -20z" />
    <glyph glyph-name="AE" unicode="&#xc6;" horiz-adv-x="1055" 
d="M392 0v69h81v1331h488v-304h-69q0 76 -7.5 128.5t-37.5 79.5t-96 27h-99v-576h230v96h68v-258h-68v93h-230v-617h93q69 0 100 28t39 81t8 129h69v-307h-569zM211 312l4 69h282l-4 -69h-282zM17 0v69h58l342 1331h73l-336 -1331h76v-69h-213z" />
    <glyph glyph-name="Ccedilla" unicode="&#xc7;" horiz-adv-x="679" 
d="M406 -20q-151 0 -246.5 184t-95.5 534q0 132 21.5 260.5t65.5 233t110 167.5t154 63q60 0 105.5 -41t70.5 -102.5t25 -122.5q0 -53 -18.5 -82.5t-57.5 -29.5q-42 0 -61 25t-19 69q0 29 11 49.5t22 41.5t11 53q0 35 -17 51.5t-41 16.5q-40 0 -71.5 -41.5t-54 -111.5
t-36.5 -155.5t-21 -174.5t-7 -167q0 -115 8 -215t23.5 -180t37 -137t48.5 -87.5t58 -30.5q37 0 61.5 22.5t40.5 59t27 76.5l60 -32q-18 -54 -46.5 -98t-69.5 -71t-98 -27zM419 -308q-51 0 -91.5 10.5t-55.5 18.5l25 62q11 -7 44 -17t74 -10q31 0 55 15.5t24 43.5
q0 31 -15.5 41t-37.5 10q-16 0 -33.5 -7t-29.5 -21l-66 4l61 158h70l-45 -105q5 6 29 15.5t56 9.5q38 0 71.5 -23.5t33.5 -82.5q0 -42 -24 -69.5t-62.5 -40t-82.5 -12.5z" />
    <glyph glyph-name="Egrave" unicode="&#xc8;" horiz-adv-x="702" 
d="M51 0v69h93v1262h-93v69h573v-304h-69q0 81 -11.5 133t-38 77t-73.5 25h-107v-596h186v96h67v-258h-67v93h-186v-597h107q47 0 73.5 26t38 78.5t11.5 133.5h69v-307h-573zM471 1448l-203 95q-27 13 -41 26t-14 38q0 23 16 36t39 13q20 0 34 -7.5t28 -19.5l174 -142z" />
    <glyph glyph-name="Eacute" unicode="&#xc9;" horiz-adv-x="702" 
d="M51 0v69h93v1262h-93v69h573v-304h-69q0 81 -11.5 133t-38 77t-73.5 25h-107v-596h186v96h67v-258h-67v93h-186v-597h107q47 0 73.5 26t38 78.5t11.5 133.5h69v-307h-573zM256 1443l-44 47l180 137q14 11 29.5 18.5t28.5 7.5q15 0 27 -7.5t18 -19.5q6 -10 6 -23
q0 -19 -15.5 -35.5t-41.5 -27.5z" />
    <glyph glyph-name="Ecircumflex" unicode="&#xca;" horiz-adv-x="702" 
d="M51 0v69h93v1262h-93v69h573v-304h-69q0 81 -11.5 133t-38 77t-73.5 25h-107v-596h186v96h67v-258h-67v93h-186v-597h107q47 0 73.5 26t38 78.5t11.5 133.5h69v-307h-573zM180 1462l148 205h70l146 -205h-78l-104 135l-103 -135h-79z" />
    <glyph glyph-name="Edieresis" unicode="&#xcb;" horiz-adv-x="702" 
d="M51 0v69h93v1262h-93v69h573v-304h-69q0 81 -11.5 133t-38 77t-73.5 25h-107v-596h186v96h67v-258h-67v93h-186v-597h107q47 0 73.5 26t38 78.5t11.5 133.5h69v-307h-573zM479 1501q-33 0 -56.5 23.5t-23.5 54.5q0 35 23.5 59.5t56.5 24.5q32 0 56 -24.5t24 -59.5
q0 -31 -24 -54.5t-56 -23.5zM243 1501q-31 0 -54.5 23.5t-23.5 54.5q0 35 23.5 59.5t54.5 24.5q33 0 57.5 -24.5t24.5 -59.5q0 -31 -24.5 -54.5t-57.5 -23.5z" />
    <glyph glyph-name="Igrave" unicode="&#xcc;" horiz-adv-x="501" 
d="M65 0v69h96v1262h-96v69h372v-69h-97v-1262h97v-69h-372zM361 1448l-203 95q-27 13 -41 26t-14 38q0 23 16 36t39 13q20 0 34 -7.5t28 -19.5l174 -142z" />
    <glyph glyph-name="Iacute" unicode="&#xcd;" horiz-adv-x="501" 
d="M65 0v69h96v1262h-96v69h372v-69h-97v-1262h97v-69h-372zM146 1443l-44 47l180 137q14 11 29.5 18.5t28.5 7.5q15 0 27 -7.5t18 -19.5q6 -10 6 -23q0 -19 -15.5 -35.5t-41.5 -27.5z" />
    <glyph glyph-name="Icircumflex" unicode="&#xce;" horiz-adv-x="501" 
d="M65 0v69h96v1262h-96v69h372v-69h-97v-1262h97v-69h-372zM69 1462l148 205h70l146 -205h-78l-104 135l-103 -135h-79z" />
    <glyph glyph-name="Idieresis" unicode="&#xcf;" horiz-adv-x="501" 
d="M65 0v69h96v1262h-96v69h372v-69h-97v-1262h97v-69h-372zM369 1501q-33 0 -56.5 23.5t-23.5 54.5q0 35 23.5 59.5t56.5 24.5q32 0 56 -24.5t24 -59.5q0 -31 -24 -54.5t-56 -23.5zM133 1501q-31 0 -54.5 23.5t-23.5 54.5q0 35 23.5 59.5t54.5 24.5q33 0 57.5 -24.5
t24.5 -59.5q0 -31 -24.5 -54.5t-57.5 -23.5z" />
    <glyph glyph-name="Eth" unicode="&#xd0;" horiz-adv-x="850" 
d="M48 683v69h416v-69h-416zM51 0v69h92v1262h-92v69h334q96 0 177 -76t130.5 -229t49.5 -384q0 -233 -49.5 -391t-131 -239t-176.5 -81h-334zM324 69h42q51 0 95.5 68.5t73 210.5t28.5 363q0 197 -26 335t-66.5 211.5t-84.5 73.5h-62v-1262z" />
    <glyph glyph-name="Ntilde" unicode="&#xd1;" horiz-adv-x="813" 
d="M31 0v69h93v1262h-93v69h308l292 -999h-9v930h-91v69h251v-69h-89v-1331h-133l-376 1280h11v-1211h97v-69h-261zM495 1483q-39 0 -65 15.5t-47 30.5t-45 15q-32 0 -49 -17t-22 -28l-68 30q6 19 22.5 42.5t43 41.5t60.5 18q42 0 68 -15t47.5 -30.5t50.5 -15.5
q30 0 43.5 15t19.5 26l66 -35q-4 -14 -20.5 -36t-42.5 -39.5t-62 -17.5z" />
    <glyph glyph-name="Ograve" unicode="&#xd2;" horiz-adv-x="784" 
d="M393 -22q-101 0 -175 89t-114 250t-40 381q0 221 40 383.5t114 251.5t175 89q102 0 177 -89t116 -251.5t41 -383.5q0 -220 -41 -381t-116 -250t-177 -89zM393 47q37 0 63.5 45.5t44.5 130.5t26.5 205t8.5 270t-8.5 270.5t-26.5 206t-44.5 132t-63.5 46.5t-63 -46.5
t-42.5 -132t-24.5 -206t-8 -270.5t8 -270t24.5 -205t42.5 -130.5t63 -45.5zM502 1448l-203 95q-27 13 -41 26t-14 38q0 23 16 36t39 13q20 0 34 -7.5t28 -19.5l174 -142z" />
    <glyph glyph-name="Oacute" unicode="&#xd3;" horiz-adv-x="784" 
d="M393 -22q-101 0 -175 89t-114 250t-40 381q0 221 40 383.5t114 251.5t175 89q102 0 177 -89t116 -251.5t41 -383.5q0 -220 -41 -381t-116 -250t-177 -89zM393 47q37 0 63.5 45.5t44.5 130.5t26.5 205t8.5 270t-8.5 270.5t-26.5 206t-44.5 132t-63.5 46.5t-63 -46.5
t-42.5 -132t-24.5 -206t-8 -270.5t8 -270t24.5 -205t42.5 -130.5t63 -45.5zM288 1443l-44 47l180 137q14 11 29.5 18.5t28.5 7.5q15 0 27 -7.5t18 -19.5q6 -10 6 -23q0 -19 -15.5 -35.5t-41.5 -27.5z" />
    <glyph glyph-name="Ocircumflex" unicode="&#xd4;" horiz-adv-x="784" 
d="M393 -22q-101 0 -175 89t-114 250t-40 381q0 221 40 383.5t114 251.5t175 89q102 0 177 -89t116 -251.5t41 -383.5q0 -220 -41 -381t-116 -250t-177 -89zM393 47q37 0 63.5 45.5t44.5 130.5t26.5 205t8.5 270t-8.5 270.5t-26.5 206t-44.5 132t-63.5 46.5t-63 -46.5
t-42.5 -132t-24.5 -206t-8 -270.5t8 -270t24.5 -205t42.5 -130.5t63 -45.5zM211 1462l148 205h70l146 -205h-78l-104 135l-103 -135h-79z" />
    <glyph glyph-name="Otilde" unicode="&#xd5;" horiz-adv-x="784" 
d="M393 -22q-101 0 -175 89t-114 250t-40 381q0 221 40 383.5t114 251.5t175 89q102 0 177 -89t116 -251.5t41 -383.5q0 -220 -41 -381t-116 -250t-177 -89zM393 47q37 0 63.5 45.5t44.5 130.5t26.5 205t8.5 270t-8.5 270.5t-26.5 206t-44.5 132t-63.5 46.5t-63 -46.5
t-42.5 -132t-24.5 -206t-8 -270.5t8 -270t24.5 -205t42.5 -130.5t63 -45.5zM479 1483q-39 0 -65 15.5t-47 30.5t-45 15q-32 0 -49 -17t-22 -28l-68 30q6 19 22.5 42.5t43 41.5t60.5 18q42 0 68 -15t47.5 -30.5t50.5 -15.5q30 0 43.5 15t19.5 26l66 -35q-4 -14 -20.5 -36
t-42.5 -39.5t-62 -17.5z" />
    <glyph glyph-name="Odieresis" unicode="&#xd6;" horiz-adv-x="784" 
d="M393 -22q-101 0 -175 89t-114 250t-40 381q0 221 40 383.5t114 251.5t175 89q102 0 177 -89t116 -251.5t41 -383.5q0 -220 -41 -381t-116 -250t-177 -89zM393 47q37 0 63.5 45.5t44.5 130.5t26.5 205t8.5 270t-8.5 270.5t-26.5 206t-44.5 132t-63.5 46.5t-63 -46.5
t-42.5 -132t-24.5 -206t-8 -270.5t8 -270t24.5 -205t42.5 -130.5t63 -45.5zM511 1501q-33 0 -56.5 23.5t-23.5 54.5q0 35 23.5 59.5t56.5 24.5q32 0 56 -24.5t24 -59.5q0 -31 -24 -54.5t-56 -23.5zM275 1501q-31 0 -54.5 23.5t-23.5 54.5q0 35 23.5 59.5t54.5 24.5
q33 0 57.5 -24.5t24.5 -59.5q0 -31 -24.5 -54.5t-57.5 -23.5z" />
    <glyph glyph-name="multiply" unicode="&#xd7;" horiz-adv-x="756" 
d="M609 293l-493 492l49 49l493 -492zM165 293l-45 45l490 491l46 -45z" />
    <glyph glyph-name="Oslash" unicode="&#xd8;" horiz-adv-x="811" 
d="M137 -104l497 1608h72l-496 -1608h-73zM393 -22q-101 0 -175 89t-114 250t-40 381q0 221 40 383.5t114 251.5t175 89q102 0 177 -89t116 -251.5t41 -383.5q0 -220 -41 -381t-116 -250t-177 -89zM393 47q37 0 63.5 45.5t44.5 130.5t26.5 205t8.5 270t-8.5 270.5t-26.5 206
t-44.5 132t-63.5 46.5t-63 -46.5t-42.5 -132t-24.5 -206t-8 -270.5t8 -270t24.5 -205t42.5 -130.5t63 -45.5z" />
    <glyph glyph-name="Ugrave" unicode="&#xd9;" horiz-adv-x="776" 
d="M405 -24q-46 0 -94 14.5t-88 52t-64.5 104.5t-24.5 171v1013h-98v69h383v-69h-103v-1013q0 -143 34.5 -202t95.5 -59q27 0 50 11.5t41.5 38.5t28.5 74t10 119v1031h-86v69h251v-69h-95v-1041q0 -120 -30.5 -188.5t-85 -97t-125.5 -28.5zM507 1448l-203 95q-27 13 -41 26
t-14 38q0 23 16 36t39 13q20 0 34 -7.5t28 -19.5l174 -142z" />
    <glyph glyph-name="Uacute" unicode="&#xda;" horiz-adv-x="776" 
d="M405 -24q-46 0 -94 14.5t-88 52t-64.5 104.5t-24.5 171v1013h-98v69h383v-69h-103v-1013q0 -143 34.5 -202t95.5 -59q27 0 50 11.5t41.5 38.5t28.5 74t10 119v1031h-86v69h251v-69h-95v-1041q0 -120 -30.5 -188.5t-85 -97t-125.5 -28.5zM292 1443l-44 47l180 137
q14 11 29.5 18.5t28.5 7.5q15 0 27 -7.5t18 -19.5q6 -10 6 -23q0 -19 -15.5 -35.5t-41.5 -27.5z" />
    <glyph glyph-name="Ucircumflex" unicode="&#xdb;" horiz-adv-x="776" 
d="M405 -24q-46 0 -94 14.5t-88 52t-64.5 104.5t-24.5 171v1013h-98v69h383v-69h-103v-1013q0 -143 34.5 -202t95.5 -59q27 0 50 11.5t41.5 38.5t28.5 74t10 119v1031h-86v69h251v-69h-95v-1041q0 -120 -30.5 -188.5t-85 -97t-125.5 -28.5zM216 1462l148 205h70l146 -205
h-78l-104 135l-103 -135h-79z" />
    <glyph glyph-name="Udieresis" unicode="&#xdc;" horiz-adv-x="776" 
d="M405 -24q-46 0 -94 14.5t-88 52t-64.5 104.5t-24.5 171v1013h-98v69h383v-69h-103v-1013q0 -143 34.5 -202t95.5 -59q27 0 50 11.5t41.5 38.5t28.5 74t10 119v1031h-86v69h251v-69h-95v-1041q0 -120 -30.5 -188.5t-85 -97t-125.5 -28.5zM515 1501q-33 0 -56.5 23.5
t-23.5 54.5q0 35 23.5 59.5t56.5 24.5q32 0 56 -24.5t24 -59.5q0 -31 -24 -54.5t-56 -23.5zM279 1501q-31 0 -54.5 23.5t-23.5 54.5q0 35 23.5 59.5t54.5 24.5q33 0 57.5 -24.5t24.5 -59.5q0 -31 -24.5 -54.5t-57.5 -23.5z" />
    <glyph glyph-name="Yacute" unicode="&#xdd;" horiz-adv-x="766" 
d="M196 0v69h103v519l-182 743h-95v69h375v-69h-76l153 -688h-57l169 688h-80v69h248v-69h-93l-182 -716v-546h99v-69h-382zM278 1443l-44 47l180 137q14 11 29.5 18.5t28.5 7.5q15 0 27 -7.5t18 -19.5q6 -10 6 -23q0 -19 -15.5 -35.5t-41.5 -27.5z" />
    <glyph glyph-name="Thorn" unicode="&#xde;" horiz-adv-x="856" 
d="M311 305v77h51q62 0 107.5 47t70 131t24.5 193q0 103 -22.5 180.5t-63 120.5t-94.5 43h-73v76h146q90 0 160 -51.5t110 -146t40 -223.5q0 -132 -41.5 -233t-114.5 -157.5t-168 -56.5h-132zM65 0v69h96v1262h-96v69h372v-69h-97v-1262h97v-69h-372z" />
    <glyph glyph-name="germandbls" unicode="&#xdf;" horiz-adv-x="900" 
d="M563 -23q-56 0 -97 35t-41 102q0 43 19.5 69t51.5 26q27 0 42 -17.5t15 -48.5q0 -20 -7 -31t-14 -19t-7 -19q0 -13 8.5 -21t29.5 -8q35 0 57 24.5t32.5 72t10.5 116.5q0 68 -22 120.5t-54 97.5t-65 88.5t-55 92.5t-22 111q0 60 17 104t42.5 79.5t50.5 71.5t42 78.5
t17 101.5q0 79 -31.5 116t-91.5 37q-62 0 -96.5 -46.5t-48.5 -121.5t-14 -162v-1026h-292v69h106v907q0 137 42 237.5t116 155.5t169 55t154 -57t59 -163q0 -74 -19.5 -130t-45.5 -100t-45.5 -81t-19.5 -74q0 -42 26.5 -84t65.5 -87.5t77.5 -96.5t65 -110t26.5 -131
q0 -107 -35 -182t-92.5 -113t-126.5 -38z" />
    <glyph glyph-name="agrave" unicode="&#xe0;" horiz-adv-x="728" 
d="M273 -21q-62 0 -112 30.5t-79 89.5t-29 143q0 94 37.5 156t93 104.5t111.5 76.5t93.5 71.5t37.5 90.5q0 74 -12 128t-37.5 82.5t-68.5 28.5q-50 0 -81.5 -30.5t-31.5 -69.5q0 -24 8.5 -39t16.5 -31.5t8 -44.5q0 -39 -20.5 -63t-55.5 -24q-36 0 -56.5 30.5t-20.5 83.5
q0 76 33.5 136t93.5 95t138 35q79 0 139 -34.5t93.5 -109.5t33.5 -198v-570q0 -46 9 -61.5t27 -15.5q17 0 28.5 8t16.5 15l38 -57q-14 -18 -52.5 -33.5t-88.5 -15.5q-49 0 -79 14.5t-44 38t-18 46.5q-5 -15 -23 -40.5t-53.5 -45.5t-93.5 -20zM326 75q33 0 55 26t33.5 63.5
t11.5 69.5v372q-3 -28 -32 -54.5t-65 -61t-63.5 -89.5t-27.5 -140q0 -91 23.5 -138.5t64.5 -47.5zM459 1104l-203 95q-27 13 -41 26t-14 38q0 23 16 36t39 13q20 0 34 -7.5t28 -19.5l174 -142z" />
    <glyph glyph-name="aacute" unicode="&#xe1;" horiz-adv-x="728" 
d="M273 -21q-62 0 -112 30.5t-79 89.5t-29 143q0 94 37.5 156t93 104.5t111.5 76.5t93.5 71.5t37.5 90.5q0 74 -12 128t-37.5 82.5t-68.5 28.5q-50 0 -81.5 -30.5t-31.5 -69.5q0 -24 8.5 -39t16.5 -31.5t8 -44.5q0 -39 -20.5 -63t-55.5 -24q-36 0 -56.5 30.5t-20.5 83.5
q0 76 33.5 136t93.5 95t138 35q79 0 139 -34.5t93.5 -109.5t33.5 -198v-570q0 -46 9 -61.5t27 -15.5q17 0 28.5 8t16.5 15l38 -57q-14 -18 -52.5 -33.5t-88.5 -15.5q-49 0 -79 14.5t-44 38t-18 46.5q-5 -15 -23 -40.5t-53.5 -45.5t-93.5 -20zM326 75q33 0 55 26t33.5 63.5
t11.5 69.5v372q-3 -28 -32 -54.5t-65 -61t-63.5 -89.5t-27.5 -140q0 -91 23.5 -138.5t64.5 -47.5zM244 1082l-44 47l180 138q15 11 30 18.5t28 7.5q15 0 27 -7.5t18 -19.5q6 -11 6 -23q0 -19 -15.5 -35.5t-41.5 -27.5z" />
    <glyph glyph-name="acircumflex" unicode="&#xe2;" horiz-adv-x="728" 
d="M273 -21q-62 0 -112 30.5t-79 89.5t-29 143q0 94 37.5 156t93 104.5t111.5 76.5t93.5 71.5t37.5 90.5q0 74 -12 128t-37.5 82.5t-68.5 28.5q-50 0 -81.5 -30.5t-31.5 -69.5q0 -24 8.5 -39t16.5 -31.5t8 -44.5q0 -39 -20.5 -63t-55.5 -24q-36 0 -56.5 30.5t-20.5 83.5
q0 76 33.5 136t93.5 95t138 35q79 0 139 -34.5t93.5 -109.5t33.5 -198v-570q0 -46 9 -61.5t27 -15.5q17 0 28.5 8t16.5 15l38 -57q-14 -18 -52.5 -33.5t-88.5 -15.5q-49 0 -79 14.5t-44 38t-18 46.5q-5 -15 -23 -40.5t-53.5 -45.5t-93.5 -20zM326 75q33 0 55 26t33.5 63.5
t11.5 69.5v372q-3 -28 -32 -54.5t-65 -61t-63.5 -89.5t-27.5 -140q0 -91 23.5 -138.5t64.5 -47.5zM168 1123l148 205h70l146 -205h-78l-104 135l-103 -135h-79z" />
    <glyph glyph-name="atilde" unicode="&#xe3;" horiz-adv-x="728" 
d="M273 -21q-62 0 -112 30.5t-79 89.5t-29 143q0 94 37.5 156t93 104.5t111.5 76.5t93.5 71.5t37.5 90.5q0 74 -12 128t-37.5 82.5t-68.5 28.5q-50 0 -81.5 -30.5t-31.5 -69.5q0 -24 8.5 -39t16.5 -31.5t8 -44.5q0 -39 -20.5 -63t-55.5 -24q-36 0 -56.5 30.5t-20.5 83.5
q0 76 33.5 136t93.5 95t138 35q79 0 139 -34.5t93.5 -109.5t33.5 -198v-570q0 -46 9 -61.5t27 -15.5q17 0 28.5 8t16.5 15l38 -57q-14 -18 -52.5 -33.5t-88.5 -15.5q-49 0 -79 14.5t-44 38t-18 46.5q-5 -15 -23 -40.5t-53.5 -45.5t-93.5 -20zM326 75q33 0 55 26t33.5 63.5
t11.5 69.5v372q-3 -28 -32 -54.5t-65 -61t-63.5 -89.5t-27.5 -140q0 -91 23.5 -138.5t64.5 -47.5zM436 1134q-39 0 -65 15.5t-47 30.5t-45 15q-32 0 -49 -17t-22 -28l-68 30q6 19 22.5 42.5t43 41.5t60.5 18q42 0 68 -15t47.5 -30.5t50.5 -15.5q30 0 43.5 15t19.5 26l66 -34
q-4 -15 -20.5 -37t-42.5 -39.5t-62 -17.5z" />
    <glyph glyph-name="adieresis" unicode="&#xe4;" horiz-adv-x="728" 
d="M273 -21q-62 0 -112 30.5t-79 89.5t-29 143q0 94 37.5 156t93 104.5t111.5 76.5t93.5 71.5t37.5 90.5q0 74 -12 128t-37.5 82.5t-68.5 28.5q-50 0 -81.5 -30.5t-31.5 -69.5q0 -24 8.5 -39t16.5 -31.5t8 -44.5q0 -39 -20.5 -63t-55.5 -24q-36 0 -56.5 30.5t-20.5 83.5
q0 76 33.5 136t93.5 95t138 35q79 0 139 -34.5t93.5 -109.5t33.5 -198v-570q0 -46 9 -61.5t27 -15.5q17 0 28.5 8t16.5 15l38 -57q-14 -18 -52.5 -33.5t-88.5 -15.5q-49 0 -79 14.5t-44 38t-18 46.5q-5 -15 -23 -40.5t-53.5 -45.5t-93.5 -20zM326 75q33 0 55 26t33.5 63.5
t11.5 69.5v372q-3 -28 -32 -54.5t-65 -61t-63.5 -89.5t-27.5 -140q0 -91 23.5 -138.5t64.5 -47.5zM467 1129q-33 0 -56.5 23.5t-23.5 54.5q0 35 23.5 59.5t56.5 24.5q32 0 56 -24.5t24 -59.5q0 -31 -24 -54.5t-56 -23.5zM231 1129q-31 0 -54.5 23.5t-23.5 54.5
q0 35 23.5 59.5t54.5 24.5q33 0 57.5 -24.5t24.5 -59.5q0 -31 -24.5 -54.5t-57.5 -23.5z" />
    <glyph glyph-name="aring" unicode="&#xe5;" horiz-adv-x="728" 
d="M273 -21q-62 0 -112 30.5t-79 89.5t-29 143q0 94 37.5 156t93 104.5t111.5 76.5t93.5 71.5t37.5 90.5q0 74 -12 128t-37.5 82.5t-68.5 28.5q-50 0 -81.5 -30.5t-31.5 -69.5q0 -24 8.5 -39t16.5 -31.5t8 -44.5q0 -39 -20.5 -63t-55.5 -24q-36 0 -56.5 30.5t-20.5 83.5
q0 76 33.5 136t93.5 95t138 35q79 0 139 -34.5t93.5 -109.5t33.5 -198v-570q0 -46 9 -61.5t27 -15.5q17 0 28.5 8t16.5 15l38 -57q-14 -18 -52.5 -33.5t-88.5 -15.5q-49 0 -79 14.5t-44 38t-18 46.5q-5 -15 -23 -40.5t-53.5 -45.5t-93.5 -20zM326 75q33 0 55 26t33.5 63.5
t11.5 69.5v372q-3 -28 -32 -54.5t-65 -61t-63.5 -89.5t-27.5 -140q0 -91 23.5 -138.5t64.5 -47.5zM350 1096q-44 0 -76 32.5t-32 85.5q0 55 32 86t76 31t75.5 -31t31.5 -86q0 -53 -31.5 -85.5t-75.5 -32.5zM350 1149q26 0 37.5 20t11.5 47q0 22 -11.5 42t-37.5 20
q-25 0 -37 -20t-12 -42q0 -27 12 -47t37 -20z" />
    <glyph glyph-name="ae" unicode="&#xe6;" horiz-adv-x="1046" 
d="M287 -19q-121 0 -177.5 66.5t-56.5 174.5q0 100 36.5 165.5t90 109.5t107.5 78t90.5 71.5t36.5 89.5q0 66 -11 121.5t-36 89t-66 33.5t-71 -23t-30 -66q0 -24 7.5 -40l15 -32t7.5 -45q0 -39 -20 -62.5t-55 -23.5q-36 0 -56 30.5t-20 83.5q0 71 31.5 129t89 92.5
t134.5 34.5q79 0 137.5 -39.5t90.5 -119.5t32 -203v-298q0 -79 -10.5 -138.5t-29.5 -103t-45 -77.5q-32 -39 -87.5 -68.5t-134.5 -29.5zM318 77q39 0 67.5 48t28.5 111v364q-3 -28 -30.5 -54.5t-61 -61.5t-59.5 -91t-26 -142q0 -54 8.5 -92.5t26.5 -60t46 -21.5zM723 -21
q-75 0 -131 41t-93.5 114.5t-56.5 173.5t-19 218q0 137 25.5 237.5t68.5 165.5t95.5 97t107.5 32q65 0 115 -36.5t84 -99.5t51.5 -144.5t17.5 -172.5v-41.5t-2 -41.5h-394v70h222q0 133 -9 220.5t-29.5 131.5t-55.5 44q-33 0 -59 -44t-41 -139t-15 -249q0 -115 6.5 -207
t22 -157.5t42 -100.5t67.5 -35q65 0 102 36t52 71l59 -37q-20 -56 -84 -101.5t-149 -45.5z" />
    <glyph glyph-name="ccedilla" unicode="&#xe7;" horiz-adv-x="637" 
d="M365 -21q-71 0 -128.5 42.5t-99 118t-63.5 176t-22 215.5q0 137 30 236t77.5 163.5t103.5 96t106 31.5q71 0 120 -39.5t74.5 -102t25.5 -131.5q0 -51 -20.5 -79t-54.5 -28q-35 0 -56.5 24.5t-21.5 64.5q0 26 9 41t18 31.5t9 42.5q0 50 -27 77t-66 27q-40 0 -67 -41
t-43 -107t-22.5 -145t-6.5 -155q0 -82 7 -167t23.5 -156.5t46.5 -115.5t77 -44q55 0 85 30.5t45 74.5l53 -45q-19 -48 -71.5 -92t-140.5 -44zM402 -307q-52 0 -92.5 10.5t-55.5 18.5l25 62q11 -7 44 -17t74 -10q31 0 55 15.5t24 43.5q0 31 -15.5 41t-37.5 10q-16 0 -33.5 -7
t-29.5 -21l-65 4l61 158h69l-45 -105q5 6 29 15.5t56 9.5q38 0 71.5 -23.5t33.5 -82.5q0 -42 -24 -69.5t-62.5 -40t-81.5 -12.5z" />
    <glyph glyph-name="egrave" unicode="&#xe8;" horiz-adv-x="675" 
d="M352 -21q-74 0 -130.5 41t-94 114.5t-56 173.5t-18.5 218q0 137 25 237.5t68 165.5t96 97t108 32q65 0 115 -36.5t84 -99.5t51.5 -144.5t17.5 -172.5q0 -21 -0.5 -41.5t-1.5 -41.5h-395v70h223q0 133 -9.5 220.5t-30 131.5t-54.5 44t-60 -44t-40.5 -139t-14.5 -249
q0 -115 6.5 -207t22 -157.5t42 -100.5t66.5 -35q66 0 103 36t51 71l60 -37q-20 -56 -84 -101.5t-150 -45.5zM455 1103l-203 95q-27 13 -41 26t-14 38q0 23 16 36t39 13q20 0 34 -7.5t28 -19.5l174 -142z" />
    <glyph glyph-name="eacute" unicode="&#xe9;" horiz-adv-x="675" 
d="M352 -21q-74 0 -130.5 41t-94 114.5t-56 173.5t-18.5 218q0 137 25 237.5t68 165.5t96 97t108 32q65 0 115 -36.5t84 -99.5t51.5 -144.5t17.5 -172.5q0 -21 -0.5 -41.5t-1.5 -41.5h-395v70h223q0 133 -9.5 220.5t-30 131.5t-54.5 44t-60 -44t-40.5 -139t-14.5 -249
q0 -115 6.5 -207t22 -157.5t42 -100.5t66.5 -35q66 0 103 36t51 71l60 -37q-20 -56 -84 -101.5t-150 -45.5zM240 1081l-44 47l180 138q15 11 30 18.5t28 7.5q15 0 27 -7.5t18 -19.5q6 -11 6 -23q0 -19 -15.5 -35.5t-41.5 -27.5z" />
    <glyph glyph-name="ecircumflex" unicode="&#xea;" horiz-adv-x="675" 
d="M352 -21q-74 0 -130.5 41t-94 114.5t-56 173.5t-18.5 218q0 137 25 237.5t68 165.5t96 97t108 32q65 0 115 -36.5t84 -99.5t51.5 -144.5t17.5 -172.5q0 -21 -0.5 -41.5t-1.5 -41.5h-395v70h223q0 133 -9.5 220.5t-30 131.5t-54.5 44t-60 -44t-40.5 -139t-14.5 -249
q0 -115 6.5 -207t22 -157.5t42 -100.5t66.5 -35q66 0 103 36t51 71l60 -37q-20 -56 -84 -101.5t-150 -45.5zM163 1123l148 205h70l146 -205h-78l-104 135l-103 -135h-79z" />
    <glyph glyph-name="edieresis" unicode="&#xeb;" horiz-adv-x="675" 
d="M352 -21q-74 0 -130.5 41t-94 114.5t-56 173.5t-18.5 218q0 137 25 237.5t68 165.5t96 97t108 32q65 0 115 -36.5t84 -99.5t51.5 -144.5t17.5 -172.5q0 -21 -0.5 -41.5t-1.5 -41.5h-395v70h223q0 133 -9.5 220.5t-30 131.5t-54.5 44t-60 -44t-40.5 -139t-14.5 -249
q0 -115 6.5 -207t22 -157.5t42 -100.5t66.5 -35q66 0 103 36t51 71l60 -37q-20 -56 -84 -101.5t-150 -45.5zM463 1128q-33 0 -56.5 23.5t-23.5 54.5q0 35 23.5 59.5t56.5 24.5q32 0 56 -24.5t24 -59.5q0 -31 -24 -54.5t-56 -23.5zM227 1128q-31 0 -54.5 23.5t-23.5 54.5
q0 35 23.5 59.5t54.5 24.5q33 0 57.5 -24.5t24.5 -59.5q0 -31 -24.5 -54.5t-57.5 -23.5z" />
    <glyph glyph-name="igrave" unicode="&#xec;" horiz-adv-x="448" 
d="M32 0v69h105v909h-105v69h285v-978h105v-69h-390zM335 1104l-203 95q-27 13 -41 26t-14 38q0 23 16 36t39 13q20 0 34 -7.5t28 -19.5l174 -142z" />
    <glyph glyph-name="iacute" unicode="&#xed;" horiz-adv-x="448" 
d="M32 0v69h105v909h-105v69h285v-978h105v-69h-390zM121 1082l-44 47l180 138q15 11 30 18.5t28 7.5q15 0 27 -7.5t18 -19.5q6 -11 6 -23q0 -19 -15.5 -35.5t-41.5 -27.5z" />
    <glyph glyph-name="icircumflex" unicode="&#xee;" horiz-adv-x="448" 
d="M32 0v69h105v909h-105v69h285v-978h105v-69h-390zM44 1123l148 205h70l146 -205h-78l-104 135l-103 -135h-79z" />
    <glyph glyph-name="idieresis" unicode="&#xef;" horiz-adv-x="448" 
d="M32 0v69h105v909h-105v69h285v-978h105v-69h-390zM344 1129q-33 0 -56.5 23.5t-23.5 54.5q0 35 23.5 59.5t56.5 24.5q32 0 56 -24.5t24 -59.5q0 -31 -24 -54.5t-56 -23.5zM108 1129q-31 0 -54.5 23.5t-23.5 54.5q0 35 23.5 59.5t54.5 24.5q33 0 57.5 -24.5t24.5 -59.5
q0 -31 -24.5 -54.5t-57.5 -23.5z" />
    <glyph glyph-name="eth" unicode="&#xf0;" horiz-adv-x="761" 
d="M370 -22q-77 0 -142.5 69.5t-105.5 193.5t-40 288q0 133 25 231.5t67 163.5t93 97t103 32q27 0 48.5 -11.5t36 -26.5t20.5 -27q-7 57 -21 107t-32.5 89t-38.5 60l-61 -94l-57 40l66 96q-18 18 -59.5 38.5t-74.5 31.5l24 65q14 -3 39 -13t51 -22.5t41 -22.5l17 -11l45 66
l56 -38l-47 -70q54 -44 97.5 -109t74.5 -158t47.5 -220t16.5 -296t-42 -292t-108 -190t-139 -67zM370 47q29 0 53 55t38.5 161.5t14.5 263.5q0 154 -14.5 255t-38.5 151.5t-53 50.5t-53.5 -50.5t-39.5 -151.5t-15 -255q0 -157 15 -263.5t39.5 -161.5t53.5 -55z" />
    <glyph glyph-name="ntilde" unicode="&#xf1;" horiz-adv-x="846" 
d="M33 0v69h104v909h-104v69h280v-105q4 19 26 46.5t60 48.5t89 21q52 0 98 -24.5t75 -92t29 -198.5v-674h103v-69h-364v69h81v661q0 116 -20 167.5t-64 51.5q-24 0 -43.5 -16.5t-34 -45t-22.5 -64.5t-9 -75v-679h79v-69h-363zM504 1134q-39 0 -65 15.5t-47 30.5t-45 15
q-32 0 -49 -17t-22 -28l-68 30q6 19 22.5 42.5t43 41.5t60.5 18q42 0 68 -15t47.5 -30.5t50.5 -15.5q30 0 43.5 15t19.5 26l66 -34q-4 -15 -20.5 -37t-42.5 -39.5t-62 -17.5z" />
    <glyph glyph-name="ograve" unicode="&#xf2;" horiz-adv-x="705" 
d="M349 -22q-57 0 -110 35.5t-95.5 105t-66.5 172t-24 236.5q0 147 25.5 248.5t68.5 163.5t95.5 90.5t106.5 28.5t106.5 -28.5t96 -90.5t69.5 -163.5t26 -248.5q0 -134 -24.5 -236.5t-67 -172t-96 -105t-110.5 -35.5zM349 54q51 0 82.5 113.5t31.5 359.5q0 244 -31.5 350
t-82.5 106q-50 0 -82 -106t-32 -350q0 -246 32 -359.5t82 -113.5zM459 1104l-203 95q-27 13 -41 26t-14 38q0 23 16 36t39 13q20 0 34 -7.5t28 -19.5l174 -142z" />
    <glyph glyph-name="oacute" unicode="&#xf3;" horiz-adv-x="705" 
d="M349 -22q-57 0 -110 35.5t-95.5 105t-66.5 172t-24 236.5q0 147 25.5 248.5t68.5 163.5t95.5 90.5t106.5 28.5t106.5 -28.5t96 -90.5t69.5 -163.5t26 -248.5q0 -134 -24.5 -236.5t-67 -172t-96 -105t-110.5 -35.5zM349 54q51 0 82.5 113.5t31.5 359.5q0 244 -31.5 350
t-82.5 106q-50 0 -82 -106t-32 -350q0 -246 32 -359.5t82 -113.5zM245 1082l-44 47l180 138q15 11 30 18.5t28 7.5q15 0 27 -7.5t18 -19.5q6 -11 6 -23q0 -19 -15.5 -35.5t-41.5 -27.5z" />
    <glyph glyph-name="ocircumflex" unicode="&#xf4;" horiz-adv-x="705" 
d="M349 -22q-57 0 -110 35.5t-95.5 105t-66.5 172t-24 236.5q0 147 25.5 248.5t68.5 163.5t95.5 90.5t106.5 28.5t106.5 -28.5t96 -90.5t69.5 -163.5t26 -248.5q0 -134 -24.5 -236.5t-67 -172t-96 -105t-110.5 -35.5zM349 54q51 0 82.5 113.5t31.5 359.5q0 244 -31.5 350
t-82.5 106q-50 0 -82 -106t-32 -350q0 -246 32 -359.5t82 -113.5zM168 1123l148 205h70l146 -205h-78l-104 135l-103 -135h-79z" />
    <glyph glyph-name="otilde" unicode="&#xf5;" horiz-adv-x="705" 
d="M349 -22q-57 0 -110 35.5t-95.5 105t-66.5 172t-24 236.5q0 147 25.5 248.5t68.5 163.5t95.5 90.5t106.5 28.5t106.5 -28.5t96 -90.5t69.5 -163.5t26 -248.5q0 -134 -24.5 -236.5t-67 -172t-96 -105t-110.5 -35.5zM349 54q51 0 82.5 113.5t31.5 359.5q0 244 -31.5 350
t-82.5 106q-50 0 -82 -106t-32 -350q0 -246 32 -359.5t82 -113.5zM436 1134q-39 0 -65 15.5t-47 30.5t-45 15q-32 0 -49 -17t-22 -28l-68 30q6 19 22.5 42.5t43 41.5t60.5 18q42 0 68 -15t47.5 -30.5t50.5 -15.5q30 0 43.5 15t19.5 26l66 -34q-4 -15 -20.5 -37t-42.5 -39.5
t-62 -17.5z" />
    <glyph glyph-name="odieresis" unicode="&#xf6;" horiz-adv-x="705" 
d="M349 -22q-57 0 -110 35.5t-95.5 105t-66.5 172t-24 236.5q0 147 25.5 248.5t68.5 163.5t95.5 90.5t106.5 28.5t106.5 -28.5t96 -90.5t69.5 -163.5t26 -248.5q0 -134 -24.5 -236.5t-67 -172t-96 -105t-110.5 -35.5zM349 54q51 0 82.5 113.5t31.5 359.5q0 244 -31.5 350
t-82.5 106q-50 0 -82 -106t-32 -350q0 -246 32 -359.5t82 -113.5zM468 1129q-33 0 -56.5 23.5t-23.5 54.5q0 35 23.5 59.5t56.5 24.5q32 0 56 -24.5t24 -59.5q0 -31 -24 -54.5t-56 -23.5zM232 1129q-31 0 -54.5 23.5t-23.5 54.5q0 35 23.5 59.5t54.5 24.5q33 0 57.5 -24.5
t24.5 -59.5q0 -31 -24.5 -54.5t-57.5 -23.5z" />
    <glyph glyph-name="divide" unicode="&#xf7;" horiz-adv-x="807" 
d="M406 289q-26 0 -45.5 19.5t-19.5 46.5q0 28 19.5 47t45.5 19q27 0 46.5 -19t19.5 -47q0 -27 -19.5 -46.5t-46.5 -19.5zM406 675q-26 0 -45.5 19.5t-19.5 46.5q0 28 19.5 47t45.5 19q27 0 46.5 -19t19.5 -47q0 -27 -19.5 -46.5t-46.5 -19.5zM103 514v69h605v-69h-605z" />
    <glyph glyph-name="oslash" unicode="&#xf8;" horiz-adv-x="720" 
d="M83 -104l478 1224h71l-479 -1224h-70zM349 -22q-57 0 -110 35.5t-95.5 105t-66.5 172t-24 236.5q0 147 25.5 248.5t68.5 163.5t95.5 90.5t106.5 28.5t106.5 -28.5t96 -90.5t69.5 -163.5t26 -248.5q0 -134 -24.5 -236.5t-67 -172t-96 -105t-110.5 -35.5zM349 54
q51 0 82.5 113.5t31.5 359.5q0 244 -31.5 350t-82.5 106q-50 0 -82 -106t-32 -350q0 -246 32 -359.5t82 -113.5z" />
    <glyph glyph-name="ugrave" unicode="&#xf9;" horiz-adv-x="789" 
d="M335 -22q-57 0 -106 24t-78.5 89.5t-29.5 191.5v695h-103v68h283v-743q0 -93 10 -142t29.5 -66.5t45.5 -17.5q35 0 60.5 35t39 95.5t13.5 137.5v633h-96v68h276v-977h90v-69h-249l-9 113q-5 -26 -26.5 -57.5t-59 -54.5t-90.5 -23zM511 1104l-203 95q-27 13 -41 26t-14 38
q0 23 16 36t39 13q20 0 34 -7.5t28 -19.5l174 -142z" />
    <glyph glyph-name="uacute" unicode="&#xfa;" horiz-adv-x="789" 
d="M335 -22q-57 0 -106 24t-78.5 89.5t-29.5 191.5v695h-103v68h283v-743q0 -93 10 -142t29.5 -66.5t45.5 -17.5q35 0 60.5 35t39 95.5t13.5 137.5v633h-96v68h276v-977h90v-69h-249l-9 113q-5 -26 -26.5 -57.5t-59 -54.5t-90.5 -23zM297 1082l-44 47l180 138q15 11 30 18.5
t28 7.5q15 0 27 -7.5t18 -19.5q6 -11 6 -23q0 -19 -15.5 -35.5t-41.5 -27.5z" />
    <glyph glyph-name="ucircumflex" unicode="&#xfb;" horiz-adv-x="789" 
d="M335 -22q-57 0 -106 24t-78.5 89.5t-29.5 191.5v695h-103v68h283v-743q0 -93 10 -142t29.5 -66.5t45.5 -17.5q35 0 60.5 35t39 95.5t13.5 137.5v633h-96v68h276v-977h90v-69h-249l-9 113q-5 -26 -26.5 -57.5t-59 -54.5t-90.5 -23zM220 1123l148 205h70l146 -205h-78
l-104 135l-103 -135h-79z" />
    <glyph glyph-name="udieresis" unicode="&#xfc;" horiz-adv-x="789" 
d="M335 -22q-57 0 -106 24t-78.5 89.5t-29.5 191.5v695h-103v68h283v-743q0 -93 10 -142t29.5 -66.5t45.5 -17.5q35 0 60.5 35t39 95.5t13.5 137.5v633h-96v68h276v-977h90v-69h-249l-9 113q-5 -26 -26.5 -57.5t-59 -54.5t-90.5 -23zM520 1129q-33 0 -56.5 23.5t-23.5 54.5
q0 35 23.5 59.5t56.5 24.5q32 0 56 -24.5t24 -59.5q0 -31 -24 -54.5t-56 -23.5zM284 1129q-31 0 -54.5 23.5t-23.5 54.5q0 35 23.5 59.5t54.5 24.5q33 0 57.5 -24.5t24.5 -59.5q0 -31 -24.5 -54.5t-57.5 -23.5z" />
    <glyph glyph-name="yacute" unicode="&#xfd;" horiz-adv-x="674" 
d="M198 -502q-44 0 -73.5 32.5t-43.5 88t-14 125.5q0 53 20 81.5t55 28.5q34 0 53.5 -25t19.5 -68q0 -33 -11.5 -53.5t-23 -39t-11.5 -45.5q0 -26 8.5 -47t27.5 -21q12 0 19.5 10t14 31t12.5 53l73 354l-224 975h-83v69h351v-69h-76l120 -573l110 573h-74v69h227v-69h-75
l-206 -985l-77 -361q-9 -43 -23.5 -73t-37.5 -45.5t-58 -15.5zM240 1081l-44 47l180 138q15 11 30 18.5t28 7.5q15 0 27 -7.5t18 -19.5q6 -11 6 -23q0 -19 -15.5 -35.5t-41.5 -27.5z" />
    <glyph glyph-name="thorn" unicode="&#xfe;" horiz-adv-x="820" 
d="M40 -500v69h103v1862h-103v69h283v-559q3 10 19.5 37t47.5 50t78 23q79 0 136 -57t88 -175t31 -302q0 -189 -34 -307.5t-94 -174t-139 -55.5q-36 0 -60.5 11.5t-40 28t-23 33t-9.5 25.5v-509h98v-69h-381zM430 72q36 0 57 42t31.5 109t14 144t3.5 146q0 53 -4 126
t-14 142.5t-29.5 115.5t-51.5 46q-25 0 -46 -24t-36 -61t-23.5 -76.5t-8.5 -68.5v-428q4 -47 16 -96t34.5 -83t56.5 -34z" />
    <glyph glyph-name="ydieresis" unicode="&#xff;" horiz-adv-x="674" 
d="M198 -502q-44 0 -73.5 32.5t-43.5 88t-14 125.5q0 53 20 81.5t55 28.5q34 0 53.5 -25t19.5 -68q0 -33 -11.5 -53.5t-23 -39t-11.5 -45.5q0 -26 8.5 -47t27.5 -21q12 0 19.5 10t14 31t12.5 53l73 354l-224 975h-83v69h351v-69h-76l120 -573l110 573h-74v69h227v-69h-75
l-206 -985l-77 -361q-9 -43 -23.5 -73t-37.5 -45.5t-58 -15.5zM463 1129q-33 0 -56.5 23.5t-23.5 54.5q0 35 23.5 59.5t56.5 24.5q32 0 56 -24.5t24 -59.5q0 -31 -24 -54.5t-56 -23.5zM227 1129q-31 0 -54.5 23.5t-23.5 54.5q0 35 23.5 59.5t54.5 24.5q33 0 57.5 -24.5
t24.5 -59.5q0 -31 -24.5 -54.5t-57.5 -23.5z" />
    <glyph glyph-name="Amacron" unicode="&#x100;" horiz-adv-x="689" 
d="M5 0v69h80l185 1333h118l205 -1333h96v-69h-371v69h82l-122 936h1l-122 -936h73v-69h-225zM161 296v65h237v-65h-237zM30 1538v70h603v-70h-603z" />
    <glyph glyph-name="amacron" unicode="&#x101;" horiz-adv-x="728" 
d="M273 -21q-62 0 -112 30.5t-79 89.5t-29 143q0 94 37.5 156t93 104.5t111.5 76.5t93.5 71.5t37.5 90.5q0 74 -12 128t-37.5 82.5t-68.5 28.5q-50 0 -81.5 -30.5t-31.5 -69.5q0 -24 8.5 -39t16.5 -31.5t8 -44.5q0 -39 -20.5 -63t-55.5 -24q-36 0 -56.5 30.5t-20.5 83.5
q0 76 33.5 136t93.5 95t138 35q79 0 139 -34.5t93.5 -109.5t33.5 -198v-570q0 -46 9 -61.5t27 -15.5q17 0 28.5 8t16.5 15l38 -57q-14 -18 -52.5 -33.5t-88.5 -15.5q-49 0 -79 14.5t-44 38t-18 46.5q-5 -15 -23 -40.5t-53.5 -45.5t-93.5 -20zM326 75q33 0 55 26t33.5 63.5
t11.5 69.5v372q-3 -28 -32 -54.5t-65 -61t-63.5 -89.5t-27.5 -140q0 -91 23.5 -138.5t64.5 -47.5zM132 1135v70h436v-70h-436z" />
    <glyph glyph-name="Abreve" unicode="&#x102;" horiz-adv-x="689" 
d="M5 0v69h80l185 1333h118l205 -1333h96v-69h-371v69h82l-122 936h1l-122 -936h73v-69h-225zM161 296v65h237v-65h-237zM329 1497q-61 0 -98.5 27t-55 71t-17.5 93h68q4 -62 31.5 -92t71.5 -30q46 0 73.5 30t31.5 92h68q0 -49 -17.5 -93t-55.5 -71t-100 -27z" />
    <glyph glyph-name="abreve" unicode="&#x103;" horiz-adv-x="728" 
d="M273 -21q-62 0 -112 30.5t-79 89.5t-29 143q0 94 37.5 156t93 104.5t111.5 76.5t93.5 71.5t37.5 90.5q0 74 -12 128t-37.5 82.5t-68.5 28.5q-50 0 -81.5 -30.5t-31.5 -69.5q0 -24 8.5 -39t16.5 -31.5t8 -44.5q0 -39 -20.5 -63t-55.5 -24q-36 0 -56.5 30.5t-20.5 83.5
q0 76 33.5 136t93.5 95t138 35q79 0 139 -34.5t93.5 -109.5t33.5 -198v-570q0 -46 9 -61.5t27 -15.5q17 0 28.5 8t16.5 15l38 -57q-14 -18 -52.5 -33.5t-88.5 -15.5q-49 0 -79 14.5t-44 38t-18 46.5q-5 -15 -23 -40.5t-53.5 -45.5t-93.5 -20zM326 75q33 0 55 26t33.5 63.5
t11.5 69.5v372q-3 -28 -32 -54.5t-65 -61t-63.5 -89.5t-27.5 -140q0 -91 23.5 -138.5t64.5 -47.5zM348 1103q-61 0 -98.5 27t-55 71t-17.5 93h68q4 -61 31.5 -91t71.5 -30q46 0 73.5 30t31.5 91h68q0 -49 -17.5 -93t-55.5 -71t-100 -27z" />
    <glyph glyph-name="Aogonek" unicode="&#x104;" horiz-adv-x="689" 
d="M5 0v69h80l185 1333h118l205 -1333h96v-69h-371v69h82l-122 936h1l-122 -936h73v-69h-225zM161 296v65h237v-65h-237zM689 -298q-41 0 -79 14t-61.5 45t-23.5 80t24 85t56 60t55 37l29 -23q-22 -23 -44 -57t-22 -82q0 -47 31 -60.5t60 -13.5q25 0 52.5 6.5t46.5 17.5
l33 -59q-24 -21 -65.5 -35.5t-91.5 -14.5z" />
    <glyph glyph-name="aogonek" unicode="&#x105;" horiz-adv-x="728" 
d="M273 -21q-62 0 -112 30.5t-79 89.5t-29 143q0 94 37.5 156t93 104.5t111.5 76.5t93.5 71.5t37.5 90.5q0 74 -12 128t-37.5 82.5t-68.5 28.5q-50 0 -80.5 -30.5t-30.5 -69.5q0 -24 8 -40.5t15.5 -34t7.5 -45.5q0 -39 -20.5 -62.5t-55.5 -23.5q-36 0 -57 30.5t-21 83.5
q0 75 34 136.5t94 97.5t138 36q79 0 139 -34.5t93.5 -109.5t33.5 -198v-570q0 -46 9 -61.5t27 -15.5q17 0 28.5 8t16.5 15l38 -57q-14 -18 -52.5 -33.5t-88.5 -15.5q-49 0 -80 11t-46.5 30.5t-19.5 42.5q-5 -15 -22 -36.5t-51 -38t-92 -16.5zM326 75q33 0 55 26t33.5 63.5
t11.5 69.5v372q-3 -28 -32 -54.5t-65 -61t-63.5 -89.5t-27.5 -140q0 -91 23.5 -138.5t64.5 -47.5zM726 -263q-42 0 -79.5 14t-61.5 45t-24 80q0 50 24 85.5t56 60t56 36.5l28 -23q-21 -23 -43 -56.5t-22 -82.5q0 -46 31 -60t60 -14q24 0 52 6.5t47 17.5l33 -59
q-24 -20 -65.5 -35t-91.5 -15z" />
    <glyph glyph-name="Cacute" unicode="&#x106;" horiz-adv-x="679" 
d="M406 -20q-151 0 -246.5 184t-95.5 534q0 132 21.5 260.5t65.5 233t110 167.5t154 63q60 0 105.5 -41t70.5 -102.5t25 -122.5q0 -53 -18.5 -82.5t-57.5 -29.5q-42 0 -61 25t-19 69q0 29 11 49.5t22 41.5t11 53q0 35 -17 51.5t-41 16.5q-40 0 -71.5 -41.5t-54 -111.5
t-36.5 -155.5t-21 -174.5t-7 -167q0 -115 8 -215t23.5 -180t37 -137t48.5 -87.5t58 -30.5q37 0 61.5 22.5t40.5 59t27 76.5l60 -32q-18 -54 -46.5 -98t-69.5 -71t-98 -27zM304 1443l-44 47l180 137q14 11 29.5 18.5t28.5 7.5q15 0 27 -7.5t18 -19.5q6 -10 6 -23
q0 -19 -15.5 -35.5t-41.5 -27.5z" />
    <glyph glyph-name="cacute" unicode="&#x107;" horiz-adv-x="637" 
d="M365 -21q-71 0 -128.5 42.5t-99 118t-63.5 176t-22 215.5q0 137 30 236t77.5 163.5t103.5 96t106 31.5q71 0 120 -39.5t74.5 -102t25.5 -131.5q0 -51 -20.5 -79t-54.5 -28q-35 0 -56.5 24.5t-21.5 64.5q0 26 9 41t18 31.5t9 42.5q0 50 -27 77t-66 27q-40 0 -67 -41
t-43 -107t-22.5 -145t-6.5 -155q0 -82 7 -167t23.5 -156.5t46.5 -115.5t77 -44q55 0 85 30.5t45 74.5l53 -45q-19 -48 -71.5 -92t-140.5 -44zM254 1082l-44 47l180 138q15 11 30 18.5t28 7.5q15 0 27 -7.5t18 -19.5q6 -11 6 -23q0 -19 -15.5 -35.5t-41.5 -27.5z" />
    <glyph glyph-name="ccircumflex" unicode="&#x109;" horiz-adv-x="637" 
d="M365 -21q-71 0 -128.5 42.5t-99 118t-63.5 176t-22 215.5q0 137 30 236t77.5 163.5t103.5 96t106 31.5q71 0 120 -39.5t74.5 -102t25.5 -131.5q0 -51 -20.5 -79t-54.5 -28q-35 0 -56.5 24.5t-21.5 64.5q0 26 9 41t18 31.5t9 42.5q0 50 -27 77t-66 27q-40 0 -67 -41
t-43 -107t-22.5 -145t-6.5 -155q0 -82 7 -167t23.5 -156.5t46.5 -115.5t77 -44q55 0 85 30.5t45 74.5l53 -45q-19 -48 -71.5 -92t-140.5 -44zM177 1123l148 205h70l146 -205h-78l-104 135l-103 -135h-79z" />
    <glyph glyph-name="Cdotaccent" unicode="&#x10a;" horiz-adv-x="679" 
d="M406 -20q-151 0 -246.5 184t-95.5 534q0 132 21.5 260.5t65.5 233t110 167.5t154 63q60 0 105.5 -41t70.5 -102.5t25 -122.5q0 -53 -18.5 -82.5t-57.5 -29.5q-42 0 -61 25t-19 69q0 29 11 49.5t22 41.5t11 53q0 35 -17 51.5t-41 16.5q-40 0 -71.5 -41.5t-54 -111.5
t-36.5 -155.5t-21 -174.5t-7 -167q0 -115 8 -215t23.5 -180t37 -137t48.5 -87.5t58 -30.5q37 0 61.5 22.5t40.5 59t27 76.5l60 -32q-18 -54 -46.5 -98t-69.5 -71t-98 -27zM410 1504q-33 0 -57 23.5t-24 55.5q0 33 24 57.5t57 24.5q31 0 55 -24.5t24 -57.5q0 -32 -24 -55.5
t-55 -23.5z" />
    <glyph glyph-name="cdotaccent" unicode="&#x10b;" horiz-adv-x="637" 
d="M365 -21q-71 0 -128.5 42.5t-99 118t-63.5 176t-22 215.5q0 137 30 236t77.5 163.5t103.5 96t106 31.5q71 0 120 -39.5t74.5 -102t25.5 -131.5q0 -51 -20.5 -79t-54.5 -28q-35 0 -56.5 24.5t-21.5 64.5q0 26 9 41t18 31.5t9 42.5q0 50 -27 77t-66 27q-40 0 -67 -41
t-43 -107t-22.5 -145t-6.5 -155q0 -82 7 -167t23.5 -156.5t46.5 -115.5t77 -44q55 0 85 30.5t45 74.5l53 -45q-19 -48 -71.5 -92t-140.5 -44zM360 1134q-33 0 -57 23.5t-24 55.5q0 33 24 57.5t57 24.5q31 0 55 -24.5t24 -57.5q0 -32 -24 -55.5t-55 -23.5z" />
    <glyph glyph-name="Ccaron" unicode="&#x10c;" horiz-adv-x="679" 
d="M406 -20q-151 0 -246.5 184t-95.5 534q0 132 21.5 260.5t65.5 233t110 167.5t154 63q60 0 105.5 -41t70.5 -102.5t25 -122.5q0 -53 -18.5 -82.5t-57.5 -29.5q-42 0 -61 25t-19 69q0 29 11 49.5t22 41.5t11 53q0 35 -17 51.5t-41 16.5q-40 0 -71.5 -41.5t-54 -111.5
t-36.5 -155.5t-21 -174.5t-7 -167q0 -115 8 -215t23.5 -180t37 -137t48.5 -87.5t58 -30.5q37 0 61.5 22.5t40.5 59t27 76.5l60 -32q-18 -54 -46.5 -98t-69.5 -71t-98 -27zM375 1469l-162 219h84l112 -148l113 148h84l-161 -219h-70z" />
    <glyph glyph-name="ccaron" unicode="&#x10d;" horiz-adv-x="637" 
d="M365 -21q-71 0 -128.5 42.5t-99 118t-63.5 176t-22 215.5q0 137 30 236t77.5 163.5t103.5 96t106 31.5q71 0 120 -39.5t74.5 -102t25.5 -131.5q0 -51 -20.5 -79t-54.5 -28q-35 0 -56.5 24.5t-21.5 64.5q0 26 9 41t18 31.5t9 42.5q0 50 -27 77t-66 27q-40 0 -67 -41
t-43 -107t-22.5 -145t-6.5 -155q0 -82 7 -167t23.5 -156.5t46.5 -115.5t77 -44q55 0 85 30.5t45 74.5l53 -45q-19 -48 -71.5 -92t-140.5 -44zM326 1106l-162 219h84l112 -148l113 148h84l-161 -219h-70z" />
    <glyph glyph-name="Dcaron" unicode="&#x10e;" horiz-adv-x="799" 
d="M51 0v69h92v1262h-92v69h334q96 0 177 -76t130.5 -229t49.5 -384q0 -233 -49.5 -391t-131 -239t-176.5 -81h-334zM324 69h42q51 0 95.5 68.5t73 210.5t28.5 363q0 197 -26 335t-66.5 211.5t-84.5 73.5h-62v-1262zM351 1469l-162 219h84l112 -148l113 148h84l-161 -219
h-70z" />
    <glyph glyph-name="dcaron" unicode="&#x10f;" horiz-adv-x="876" 
d="M709 1184q12 46 16.5 103t4.5 108q0 50 19 69t44 19t42 -17.5t17 -59.5q0 -62 -24.5 -129t-57.5 -118zM326 -20q-70 0 -128.5 51t-94 169t-35.5 318q0 193 34.5 311.5t90.5 173t121 54.5q52 0 82 -19t44 -44t18 -42v478h-116v70h299v-1431h113v-69h-268l-16 122
q-2 -27 -19 -60.5t-48 -57.5t-77 -24zM360 90q29 0 49.5 37.5t33.5 95t15 116.5v409q-4 51 -17.5 94.5t-35 70t-48.5 26.5q-28 0 -48.5 -31t-33.5 -87.5t-19 -134.5t-6 -172q0 -102 6.5 -181.5t20 -133.5t34 -81.5t49.5 -27.5z" />
    <glyph glyph-name="Dcroat" unicode="&#x110;" horiz-adv-x="850" 
d="M48 683v69h416v-69h-416zM51 0v69h92v1262h-92v69h334q96 0 177 -76t130.5 -229t49.5 -384q0 -233 -49.5 -391t-131 -239t-176.5 -81h-334zM324 69h42q51 0 95.5 68.5t73 210.5t28.5 363q0 197 -26 335t-66.5 211.5t-84.5 73.5h-62v-1262z" />
    <glyph glyph-name="dcroat" unicode="&#x111;" horiz-adv-x="765" 
d="M198 1243v70h544v-70h-544zM326 -20q-70 0 -128.5 51t-94 169t-35.5 318q0 193 34.5 311.5t90.5 173t121 54.5q52 0 82 -19t44 -44t18 -42v478h-116v70h299v-1431h113v-69h-268l-16 122q-2 -27 -19 -60.5t-48 -57.5t-77 -24zM360 90q29 0 49.5 37.5t33.5 95t15 116.5v409
q-4 51 -17.5 94.5t-35 70t-48.5 26.5q-28 0 -48.5 -31t-33.5 -87.5t-19 -134.5t-6 -172q0 -102 6.5 -181.5t20 -133.5t34 -81.5t49.5 -27.5z" />
    <glyph glyph-name="Emacron" unicode="&#x112;" horiz-adv-x="702" 
d="M51 0v69h93v1262h-93v69h573v-304h-69q0 81 -11.5 133t-38 77t-73.5 25h-107v-596h186v96h67v-258h-67v93h-186v-597h107q47 0 73.5 26t38 78.5t11.5 133.5h69v-307h-573zM61 1538v70h603v-70h-603z" />
    <glyph glyph-name="emacron" unicode="&#x113;" horiz-adv-x="675" 
d="M352 -21q-74 0 -130.5 41t-94 114.5t-56 173.5t-18.5 218q0 137 25 237.5t68 165.5t96 97t108 32q65 0 115 -36.5t84 -99.5t51.5 -144.5t17.5 -172.5q0 -21 -0.5 -41.5t-1.5 -41.5h-395v70h223q0 133 -9.5 220.5t-30 131.5t-54.5 44t-60 -44t-40.5 -139t-14.5 -249
q0 -115 6.5 -207t22 -157.5t42 -100.5t66.5 -35q66 0 103 36t51 71l60 -37q-20 -56 -84 -101.5t-150 -45.5zM128 1134v70h436v-70h-436z" />
    <glyph glyph-name="ebreve" unicode="&#x115;" horiz-adv-x="675" 
d="M352 -21q-74 0 -130.5 41t-94 114.5t-56 173.5t-18.5 218q0 137 25 237.5t68 165.5t96 97t108 32q65 0 115 -36.5t84 -99.5t51.5 -144.5t17.5 -172.5q0 -21 -0.5 -41.5t-1.5 -41.5h-395v70h223q0 133 -9.5 220.5t-30 131.5t-54.5 44t-60 -44t-40.5 -139t-14.5 -249
q0 -115 6.5 -207t22 -157.5t42 -100.5t66.5 -35q66 0 103 36t51 71l60 -37q-20 -56 -84 -101.5t-150 -45.5zM343 1102q-61 0 -98.5 27t-55 71t-17.5 93h68q4 -61 31.5 -91t71.5 -30q46 0 73.5 30t31.5 91h68q0 -49 -17.5 -93t-55.5 -71t-100 -27z" />
    <glyph glyph-name="Edotaccent" unicode="&#x116;" horiz-adv-x="702" 
d="M51 0v69h93v1262h-93v69h573v-304h-69q0 81 -11.5 133t-38 77t-73.5 25h-107v-596h186v96h67v-258h-67v93h-186v-597h107q47 0 73.5 26t38 78.5t11.5 133.5h69v-307h-573zM363 1504q-33 0 -57 23.5t-24 55.5q0 33 24 57.5t57 24.5q31 0 55 -24.5t24 -57.5
q0 -32 -24 -55.5t-55 -23.5z" />
    <glyph glyph-name="edotaccent" unicode="&#x117;" horiz-adv-x="675" 
d="M352 -21q-74 0 -130.5 41t-94 114.5t-56 173.5t-18.5 218q0 137 25 237.5t68 165.5t96 97t108 32q65 0 115 -36.5t84 -99.5t51.5 -144.5t17.5 -172.5q0 -21 -0.5 -41.5t-1.5 -41.5h-395v70h223q0 133 -9.5 220.5t-30 131.5t-54.5 44t-60 -44t-40.5 -139t-14.5 -249
q0 -115 6.5 -207t22 -157.5t42 -100.5t66.5 -35q66 0 103 36t51 71l60 -37q-20 -56 -84 -101.5t-150 -45.5zM346 1133q-33 0 -57 23.5t-24 55.5q0 33 24 57.5t57 24.5q31 0 55 -24.5t24 -57.5q0 -32 -24 -55.5t-55 -23.5z" />
    <glyph glyph-name="Eogonek" unicode="&#x118;" horiz-adv-x="702" 
d="M51 0v69h93v1262h-93v69h573v-304h-69q0 81 -11.5 133t-38 77t-73.5 25h-107v-596h186v96h67v-258h-67v93h-186v-597h107q47 0 73.5 26t38 78.5t11.5 133.5h69v-307h-573zM625 -298q-41 0 -79 14t-62 45t-24 80t24.5 85t56.5 60t55 37l28 -23q-21 -23 -43 -57t-22 -82
q0 -47 31 -60.5t60 -13.5q24 0 52 6.5t47 17.5l33 -59q-24 -21 -65.5 -35.5t-91.5 -14.5z" />
    <glyph glyph-name="eogonek" unicode="&#x119;" horiz-adv-x="675" 
d="M352 -21q-74 0 -130.5 41t-94 114.5t-56 173.5t-18.5 218q0 137 25 237.5t68 165.5t96 97t108 32q65 0 115 -37t84 -101.5t51.5 -150.5t17.5 -184q0 -21 -0.5 -41.5t-1.5 -41.5h-395v70h223q0 133 -9.5 225.5t-30 141.5t-54.5 49t-60 -49t-40.5 -149t-14.5 -254
q0 -114 6.5 -204t22 -152.5t42 -95.5t66.5 -33q66 0 103 38.5t51 73.5l60 -37q-20 -56 -84 -101.5t-150 -45.5zM479 -284q-41 0 -79 14t-62 45t-24 80q0 50 24.5 85.5t56.5 60t55 36.5l28 -23q-21 -23 -43 -56.5t-22 -82.5q0 -46 31 -60t60 -14q24 0 52 6.5t47 18.5l33 -60
q-24 -20 -65.5 -35t-91.5 -15z" />
    <glyph glyph-name="Ecaron" unicode="&#x11a;" horiz-adv-x="702" 
d="M51 0v69h93v1262h-93v69h573v-304h-69q0 81 -11.5 133t-38 77t-73.5 25h-107v-596h186v96h67v-258h-67v93h-186v-597h107q47 0 73.5 26t38 78.5t11.5 133.5h69v-307h-573zM328 1469l-162 219h84l112 -148l113 148h84l-161 -219h-70z" />
    <glyph glyph-name="ecaron" unicode="&#x11b;" horiz-adv-x="675" 
d="M352 -21q-74 0 -130.5 41t-94 114.5t-56 173.5t-18.5 218q0 137 25 237.5t68 165.5t96 97t108 32q65 0 115 -36.5t84 -99.5t51.5 -144.5t17.5 -172.5q0 -21 -0.5 -41.5t-1.5 -41.5h-395v70h223q0 133 -9.5 220.5t-30 131.5t-54.5 44t-60 -44t-40.5 -139t-14.5 -249
q0 -115 6.5 -207t22 -157.5t42 -100.5t66.5 -35q66 0 103 36t51 71l60 -37q-20 -56 -84 -101.5t-150 -45.5zM312 1105l-162 219h84l112 -148l113 148h84l-161 -219h-70z" />
    <glyph glyph-name="gcircumflex" unicode="&#x11d;" horiz-adv-x="750" 
d="M370 -498q-89 0 -161.5 33t-115 93t-42.5 140q0 64 20.5 108t49.5 71t55 41t37 18q-8 2 -28.5 11t-43.5 27.5t-40 49.5t-17 77q0 38 14.5 65t35.5 43t40 20q4 1 10.5 2.5t8.5 0.5q-9 8 -26.5 30.5t-36 62.5t-31 100t-12.5 140q0 120 26 200.5t68.5 129.5t92.5 71t98 22
q90 0 151.5 -51t93.5 -142.5t32 -213.5q0 -121 -25.5 -202t-67.5 -129t-91.5 -68.5t-96.5 -20.5q-51 0 -81 11.5t-36 14.5q-1 0 -2 0.5t-4 0.5q-16 0 -33.5 -18t-17.5 -48q0 -43 43.5 -70t163.5 -47q144 -22 219 -89t75 -198q0 -79 -30 -133.5t-79 -88t-106 -49t-110 -15.5z
M370 -432q72 0 116 53t44 128q0 84 -24.5 125.5t-88.5 64.5q-20 9 -42.5 17.5t-41.5 15t-30 9.5q-27 -14 -49.5 -43.5t-35.5 -70.5t-13 -94q0 -56 18.5 -102t55.5 -74.5t91 -28.5zM368 302q27 0 49.5 25t36 99t13.5 221q0 142 -13.5 214.5t-35.5 98.5t-48 26t-49 -26
t-37.5 -100t-14.5 -218q0 -145 14.5 -217.5t37 -97.5t47.5 -25zM471 987q10 64 59 101t104 37q46 0 65 -21.5t19 -55.5q0 -32 -17.5 -50.5t-45.5 -18.5q-26 0 -37.5 12t-19.5 24t-28 12q-13 0 -23 -10t-10 -32zM185 1123l148 205h70l146 -205h-78l-104 135l-103 -135h-79z
" />
    <glyph glyph-name="Gbreve" unicode="&#x11e;" horiz-adv-x="770" 
d="M410 -20q-95 0 -172.5 80t-123.5 239.5t-46 398.5q0 234 52.5 395t135.5 244t172 83q71 0 120.5 -37t75.5 -97t26 -130q0 -55 -21 -83.5t-59 -28.5q-41 0 -60.5 28.5t-19.5 70.5q0 28 10.5 47.5t21 39.5t10.5 49q0 28 -24 51.5t-63 23.5q-52 0 -89 -61.5t-60 -160.5
t-34 -213.5t-11 -220.5q0 -157 13 -277.5t36 -203t52.5 -125t61.5 -42.5q24 0 40.5 9t25.5 18v487h-84v69h337v-69h-88v-564h-65q-1 3 -9.5 8.5t-22.5 5.5q-16 0 -32.5 -8.5t-41 -17t-64.5 -8.5zM412 1497q-61 0 -98.5 27t-55 71t-17.5 93h68q4 -62 31.5 -92t71.5 -30
q46 0 73.5 30t31.5 92h68q0 -49 -17.5 -93t-55.5 -71t-100 -27z" />
    <glyph glyph-name="gbreve" unicode="&#x11f;" horiz-adv-x="750" 
d="M370 -498q-89 0 -161.5 33t-115 93t-42.5 140q0 64 20.5 108t49.5 71t55 41t37 18q-8 2 -28.5 11t-43.5 27.5t-40 49.5t-17 77q0 38 14.5 65t35.5 43t40 20q4 1 10.5 2.5t8.5 0.5q-9 8 -26.5 30.5t-36 62.5t-31 100t-12.5 140q0 120 26 200.5t68.5 129.5t92.5 71t98 22
q90 0 151.5 -51t93.5 -142.5t32 -213.5q0 -121 -25.5 -202t-67.5 -129t-91.5 -68.5t-96.5 -20.5q-51 0 -81 11.5t-36 14.5q-1 0 -2 0.5t-4 0.5q-16 0 -33.5 -18t-17.5 -48q0 -43 43.5 -70t163.5 -47q144 -22 219 -89t75 -198q0 -79 -30 -133.5t-79 -88t-106 -49t-110 -15.5z
M370 -432q72 0 116 53t44 128q0 84 -24.5 125.5t-88.5 64.5q-20 9 -42.5 17.5t-41.5 15t-30 9.5q-27 -14 -49.5 -43.5t-35.5 -70.5t-13 -94q0 -56 18.5 -102t55.5 -74.5t91 -28.5zM368 302q27 0 49.5 25t36 99t13.5 221q0 142 -13.5 214.5t-35.5 98.5t-48 26t-49 -26
t-37.5 -100t-14.5 -218q0 -145 14.5 -217.5t37 -97.5t47.5 -25zM471 987q10 64 59 101t104 37q46 0 65 -21.5t19 -55.5q0 -32 -17.5 -50.5t-45.5 -18.5q-26 0 -37.5 12t-19.5 24t-28 12q-13 0 -23 -10t-10 -32zM366 1103q-61 0 -98.5 27t-55 71t-17.5 93h68q4 -61 31.5 -91
t71.5 -30q46 0 73.5 30t31.5 91h68q0 -49 -17.5 -93t-55.5 -71t-100 -27z" />
    <glyph glyph-name="Gdotaccent" unicode="&#x120;" horiz-adv-x="770" 
d="M410 -20q-95 0 -172.5 80t-123.5 239.5t-46 398.5q0 234 52.5 395t135.5 244t172 83q71 0 120.5 -37t75.5 -97t26 -130q0 -55 -21 -83.5t-59 -28.5q-41 0 -60.5 28.5t-19.5 70.5q0 28 10.5 47.5t21 39.5t10.5 49q0 28 -24 51.5t-63 23.5q-52 0 -89 -61.5t-60 -160.5
t-34 -213.5t-11 -220.5q0 -157 13 -277.5t36 -203t52.5 -125t61.5 -42.5q24 0 40.5 9t25.5 18v487h-84v69h337v-69h-88v-564h-65q-1 3 -9.5 8.5t-22.5 5.5q-16 0 -32.5 -8.5t-41 -17t-64.5 -8.5zM415 1504q-33 0 -57 23.5t-24 55.5q0 33 24 57.5t57 24.5q31 0 55 -24.5
t24 -57.5q0 -32 -24 -55.5t-55 -23.5z" />
    <glyph glyph-name="gdotaccent" unicode="&#x121;" horiz-adv-x="750" 
d="M370 -498q-89 0 -161.5 33t-115 93t-42.5 140q0 64 20.5 108t49.5 71t55 41t37 18q-8 2 -28.5 11t-43.5 27.5t-40 49.5t-17 77q0 38 14.5 65t35.5 43t40 20q4 1 10.5 2.5t8.5 0.5q-9 8 -26.5 30.5t-36 62.5t-31 100t-12.5 140q0 120 26 200.5t68.5 129.5t92.5 71t98 22
q90 0 151.5 -51t93.5 -142.5t32 -213.5q0 -121 -25.5 -202t-67.5 -129t-91.5 -68.5t-96.5 -20.5q-51 0 -81 11.5t-36 14.5q-1 0 -2 0.5t-4 0.5q-16 0 -33.5 -18t-17.5 -48q0 -43 43.5 -70t163.5 -47q144 -22 219 -89t75 -198q0 -79 -30 -133.5t-79 -88t-106 -49t-110 -15.5z
M370 -432q72 0 116 53t44 128q0 84 -24.5 125.5t-88.5 64.5q-20 9 -42.5 17.5t-41.5 15t-30 9.5q-27 -14 -49.5 -43.5t-35.5 -70.5t-13 -94q0 -56 18.5 -102t55.5 -74.5t91 -28.5zM368 302q27 0 49.5 25t36 99t13.5 221q0 142 -13.5 214.5t-35.5 98.5t-48 26t-49 -26
t-37.5 -100t-14.5 -218q0 -145 14.5 -217.5t37 -97.5t47.5 -25zM471 987q10 64 59 101t104 37q46 0 65 -21.5t19 -55.5q0 -32 -17.5 -50.5t-45.5 -18.5q-26 0 -37.5 12t-19.5 24t-28 12q-13 0 -23 -10t-10 -32zM368 1134q-33 0 -57 23.5t-24 55.5q0 33 24 57.5t57 24.5
q31 0 55 -24.5t24 -57.5q0 -32 -24 -55.5t-55 -23.5z" />
    <glyph glyph-name="uni0122" unicode="&#x122;" horiz-adv-x="770" 
d="M410 -20q-95 0 -172.5 80t-123.5 239.5t-46 398.5q0 234 52.5 395t135.5 244t172 83q71 0 120.5 -37t75.5 -97t26 -130q0 -55 -21 -83.5t-59 -28.5q-41 0 -60.5 28.5t-19.5 70.5q0 28 10.5 47.5t21 39.5t10.5 49q0 28 -24 51.5t-63 23.5q-52 0 -89 -61.5t-60 -160.5
t-34 -213.5t-11 -220.5q0 -157 13 -277.5t36 -203t52.5 -125t61.5 -42.5q24 0 40.5 9t25.5 18v487h-84v69h337v-69h-88v-564h-65q-1 3 -9.5 8.5t-22.5 5.5q-16 0 -32.5 -8.5t-41 -17t-64.5 -8.5zM406 -350l-36 42q10 5 30 21.5t24 30.5q-2 -3 -11 -3q-30 0 -50.5 20.5
t-20.5 50.5q0 31 21 51.5t51 20.5q34 0 56.5 -22t22.5 -62q0 -39 -15 -68t-35.5 -49t-36.5 -33z" />
    <glyph glyph-name="uni0123" unicode="&#x123;" horiz-adv-x="750" 
d="M370 -498q-89 0 -161.5 33t-115 93t-42.5 140q0 64 20.5 108t49.5 71t55 41t37 18q-8 2 -28.5 11t-43.5 27.5t-40 49.5t-17 77q0 38 14.5 65t35.5 43t40 20q4 1 10.5 2.5t8.5 0.5q-9 8 -26.5 30.5t-36 62.5t-31 100t-12.5 140q0 120 26 200.5t68.5 129.5t92.5 71t98 22
q90 0 151.5 -51t93.5 -142.5t32 -213.5q0 -121 -25.5 -202t-67.5 -129t-91.5 -68.5t-96.5 -20.5q-51 0 -81 11.5t-36 14.5q-1 0 -2 0.5t-4 0.5q-16 0 -33.5 -18t-17.5 -48q0 -43 43.5 -70t163.5 -47q144 -22 219 -89t75 -198q0 -79 -30 -133.5t-79 -88t-106 -49t-110 -15.5z
M370 -432q72 0 116 53t44 128q0 84 -24.5 125.5t-88.5 64.5q-20 9 -42.5 17.5t-41.5 15t-30 9.5q-27 -14 -49.5 -43.5t-35.5 -70.5t-13 -94q0 -56 18.5 -102t55.5 -74.5t91 -28.5zM368 302q27 0 49.5 25t36 99t13.5 221q0 142 -13.5 214.5t-35.5 98.5t-48 26t-49 -26
t-37.5 -100t-14.5 -218q0 -145 14.5 -217.5t37 -97.5t47.5 -25zM471 987q10 64 59 101t104 37q46 0 65 -21.5t19 -55.5q0 -32 -17.5 -50.5t-45.5 -18.5q-26 0 -37.5 12t-19.5 24t-28 12q-13 0 -23 -10t-10 -32zM378 1349l37 -37q-10 -4 -32.5 -24t-26.5 -34q5 5 15 5
q30 0 50.5 -21t20.5 -51t-21 -50.5t-51 -20.5q-33 0 -57 21.5t-24 62.5q0 39 15.5 68t36.5 49.5t37 31.5z" />
    <glyph glyph-name="hcircumflex" unicode="&#x125;" horiz-adv-x="829" 
d="M33 0v69h103v1362h-103v69h283v-557q1 12 23 40t61.5 52t94.5 24t102 -28t76 -98.5t29 -199.5v-664h103v-69h-359v69h76v647q0 125 -21.5 175t-66.5 50q-30 0 -56.5 -26.5t-43.5 -71t-18 -99.5v-675h78v-69h-361zM234 1576l148 205h70l146 -205h-78l-104 135l-103 -135
h-79z" />
    <glyph glyph-name="Hbar" unicode="&#x126;" horiz-adv-x="885" 
d="M81 1014v69h740v-69h-740zM51 0v69h93v1262h-93v69h345v-69h-73v-576h237v576h-72v69h342v-69h-95v-1262h95v-69h-342v69h72v617h-237v-617h73v-69h-345z" />
    <glyph glyph-name="hbar" unicode="&#x127;" horiz-adv-x="829" 
d="M31 1243v70h544v-70h-544zM33 0v69h103v1362h-103v69h283v-557q1 12 23 40t61.5 52t94.5 24t102 -28t76 -98.5t29 -199.5v-664h103v-69h-359v69h76v647q0 125 -21.5 175t-66.5 50q-30 0 -56.5 -26.5t-43.5 -71t-18 -99.5v-675h78v-69h-361z" />
    <glyph glyph-name="Itilde" unicode="&#x128;" horiz-adv-x="501" 
d="M65 0v69h96v1262h-96v69h372v-69h-97v-1262h97v-69h-372zM338 1483q-39 0 -65 15.5t-47 30.5t-45 15q-32 0 -49 -17t-22 -28l-68 30q6 19 22.5 42.5t43 41.5t60.5 18q42 0 68 -15t47.5 -30.5t50.5 -15.5q30 0 43.5 15t19.5 26l66 -35q-4 -14 -20.5 -36t-42.5 -39.5
t-62 -17.5z" />
    <glyph glyph-name="itilde" unicode="&#x129;" horiz-adv-x="448" 
d="M32 0v69h105v909h-105v69h285v-978h105v-69h-390zM312 1134q-39 0 -65 15.5t-47 30.5t-45 15q-32 0 -49 -17t-22 -28l-68 30q6 19 22.5 42.5t43 41.5t60.5 18q42 0 68 -15t47.5 -30.5t50.5 -15.5q30 0 43.5 15t19.5 26l66 -34q-4 -15 -20.5 -37t-42.5 -39.5t-62 -17.5z
" />
    <glyph glyph-name="Imacron" unicode="&#x12a;" horiz-adv-x="501" 
d="M65 0v69h96v1262h-96v69h372v-69h-97v-1262h97v-69h-372zM-49 1538v70h603v-70h-603z" />
    <glyph glyph-name="imacron" unicode="&#x12b;" horiz-adv-x="448" 
d="M32 0v69h105v909h-105v69h285v-978h105v-69h-390zM9 1135v70h436v-70h-436z" />
    <glyph glyph-name="ibreve" unicode="&#x12d;" horiz-adv-x="448" 
d="M32 0v69h105v909h-105v69h285v-978h105v-69h-390zM224 1103q-61 0 -98.5 27t-55 71t-17.5 93h68q4 -61 31.5 -91t71.5 -30q46 0 73.5 30t31.5 91h68q0 -49 -17.5 -93t-55.5 -71t-100 -27z" />
    <glyph glyph-name="Iogonek" unicode="&#x12e;" horiz-adv-x="501" 
d="M65 0v69h96v1262h-96v69h372v-69h-97v-1262h97v-69h-372zM438 -298q-42 0 -80 14t-61.5 45t-23.5 80t24 85t56 60t56 37l28 -23q-22 -23 -43.5 -57t-21.5 -82q0 -47 31 -60.5t59 -13.5q25 0 53 6.5t47 17.5l32 -59q-24 -21 -65.5 -35.5t-90.5 -14.5z" />
    <glyph glyph-name="iogonek" unicode="&#x12f;" horiz-adv-x="487" 
d="M235 1210q-52 0 -90.5 37.5t-38.5 88.5q0 53 38.5 91.5t90.5 38.5q49 0 87.5 -38.5t38.5 -91.5q0 -33 -18 -62t-46.5 -46.5t-61.5 -17.5zM33 0v69h104v909h-104v69h284v-978h105v-69h-389zM423 -298q-41 0 -79 14t-62 45t-24 80t24.5 85t56 60t55.5 37l28 -23
q-21 -23 -43 -57t-22 -82q0 -47 31 -60.5t60 -13.5q24 0 52 6.5t47 17.5l33 -59q-24 -21 -65.5 -35.5t-91.5 -14.5z" />
    <glyph glyph-name="Idotaccent" unicode="&#x130;" horiz-adv-x="501" 
d="M65 0v69h96v1262h-96v69h372v-69h-97v-1262h97v-69h-372zM253 1504q-33 0 -57 23.5t-24 55.5q0 33 24 57.5t57 24.5q31 0 55 -24.5t24 -57.5q0 -32 -24 -55.5t-55 -23.5z" />
    <glyph glyph-name="dotlessi" unicode="&#x131;" horiz-adv-x="448" 
d="M32 0v69h105v909h-105v69h285v-978h105v-69h-390z" />
    <glyph glyph-name="jcircumflex" unicode="&#x135;" horiz-adv-x="457" 
d="M87 -498q-56 0 -97 32t-63.5 87t-22.5 125q0 53 23.5 81.5t58.5 28.5q34 0 52 -24.5t18 -67.5q0 -28 -6.5 -48t-14 -38.5t-7.5 -41.5q0 -21 6.5 -35.5t18 -21t25.5 -6.5q52 0 73 59t21 172v1174h-113v69h293v-1118q0 -122 -23 -204.5t-61.5 -131.5t-85.5 -70t-95 -21z
M69 1122l148 205h70l146 -205h-78l-104 135l-103 -135h-79z" />
    <glyph glyph-name="uni0136" unicode="&#x136;" horiz-adv-x="800" 
d="M36 0v69h93v1262h-93v69h370v-69h-99v-567l283 567h-87v69h242v-69h-74l-255 -516l12 67l257 -813h78v-69h-340v69h68l-209 655l25 -10v-645h77v-69h-348zM391 -350l-36 42q10 5 30 21.5t24 30.5q-2 -3 -11 -3q-30 0 -50.5 20.5t-20.5 50.5q0 31 21 51.5t51 20.5
q34 0 56.5 -22t22.5 -62q0 -39 -15 -68t-35.5 -49t-36.5 -33z" />
    <glyph glyph-name="uni0137" unicode="&#x137;" horiz-adv-x="793" 
d="M33 0v69h103v1362h-103v69h283v-825l202 303h-92v69h274v-69h-99l-131 -215l237 -694h86v-69h-366v69h83l-178 524l-16 -40v-484h75v-69h-358zM394 -350l-36 42q10 5 30 21.5t24 30.5q-2 -3 -11 -3q-30 0 -50.5 20.5t-20.5 50.5q0 31 21 51.5t51 20.5q34 0 56.5 -22
t22.5 -62q0 -39 -15 -68t-35.5 -49t-36.5 -33z" />
    <glyph glyph-name="kgreenlandic" unicode="&#x138;" horiz-adv-x="800" 
d="M36 0v69h93v908h-93v69h370v-69h-99v-395l285 395h-89v69h242v-69h-74l-255 -368l12 50l257 -590h78v-69h-340v69h69l-210 472l25 -7v-465h77v-69h-348z" />
    <glyph glyph-name="Lacute" unicode="&#x139;" horiz-adv-x="650" 
d="M59 0v69h90v1262h-90v69h361v-69h-92v-1262h86q34 0 57 26.5t34.5 79t11.5 132.5h70v-307h-528zM132 1443l-44 47l180 137q14 11 29.5 18.5t28.5 7.5q15 0 27 -7.5t18 -19.5q6 -10 6 -23q0 -19 -15.5 -35.5t-41.5 -27.5z" />
    <glyph glyph-name="lacute" unicode="&#x13a;" horiz-adv-x="455" 
d="M38 0v69h100v1362h-100v69h279v-1431h101v-69h-380zM124 1535l-44 47l180 138q15 11 30 18.5t28 7.5q15 0 27 -7.5t18 -19.5q6 -11 6 -23q0 -19 -15.5 -35.5t-41.5 -27.5z" />
    <glyph glyph-name="uni013B" unicode="&#x13b;" horiz-adv-x="650" 
d="M59 0v69h90v1262h-90v69h361v-69h-92v-1262h86q34 0 57 26.5t34.5 79t11.5 132.5h70v-307h-528zM326 -350l-36 42q10 5 30 21.5t24 30.5q-2 -3 -11 -3q-30 0 -50.5 20.5t-20.5 50.5q0 31 21 51.5t51 20.5q34 0 56.5 -22t22.5 -62q0 -39 -15 -68t-35.5 -49t-36.5 -33z" />
    <glyph glyph-name="uni013C" unicode="&#x13c;" horiz-adv-x="455" 
d="M38 0v69h100v1362h-100v69h279v-1431h101v-69h-380zM222 -350l-36 42q10 5 30 21.5t24 30.5q-2 -3 -11 -3q-30 0 -50.5 20.5t-20.5 50.5q0 31 21 51.5t51 20.5q34 0 56.5 -22t22.5 -62q0 -39 -15 -68t-35.5 -49t-36.5 -33z" />
    <glyph glyph-name="Lcaron" unicode="&#x13d;" horiz-adv-x="666" 
d="M502 1184q11 46 15.5 103t4.5 108q0 50 19.5 69t43.5 19q25 0 42.5 -17.5t17.5 -59.5q0 -62 -24.5 -129t-58.5 -118zM59 0v69h90v1262h-90v69h361v-69h-92v-1262h86q34 0 57 26.5t34.5 79t11.5 132.5h70v-307h-528z" />
    <glyph glyph-name="lcaron" unicode="&#x13e;" horiz-adv-x="549" 
d="M380 1184q12 46 16.5 103t4.5 108q0 50 19 69t44 19t42 -17.5t17 -59.5q0 -62 -24.5 -129t-57.5 -118zM38 0v69h100v1362h-100v69h279v-1431h101v-69h-380z" />
    <glyph glyph-name="ldot" unicode="&#x140;" horiz-adv-x="503" 
d="M38 0v69h100v1362h-100v69h279v-1431h101v-69h-380zM490 695q-46 0 -79.5 34t-33.5 81q0 48 33.5 81.5t79.5 33.5q47 0 80.5 -33.5t33.5 -81.5q0 -47 -33.5 -81t-80.5 -34z" />
    <glyph glyph-name="Lslash" unicode="&#x141;" horiz-adv-x="694" 
d="M44 431v80l465 360v-80zM59 0v69h90v1262h-90v69h361v-69h-92v-1262h86q34 0 57 26.5t34.5 79t11.5 132.5h70v-307h-528z" />
    <glyph glyph-name="lslash" unicode="&#x142;" horiz-adv-x="481" 
d="M27 427v85l387 352v-80zM38 0v69h100v1362h-100v69h279v-1431h101v-69h-380z" />
    <glyph glyph-name="Nacute" unicode="&#x143;" horiz-adv-x="813" 
d="M31 0v69h93v1262h-93v69h308l292 -999h-9v930h-91v69h251v-69h-89v-1331h-133l-376 1280h11v-1211h97v-69h-261zM303 1443l-44 47l180 137q14 11 29.5 18.5t28.5 7.5q15 0 27 -7.5t18 -19.5q6 -10 6 -23q0 -19 -15.5 -35.5t-41.5 -27.5z" />
    <glyph glyph-name="nacute" unicode="&#x144;" horiz-adv-x="817" 
d="M33 0v69h104v909h-104v69h280v-105q4 19 26 46.5t60 48.5t89 21q52 0 98 -24.5t75 -92t29 -198.5v-674h103v-69h-364v69h81v661q0 116 -20 167.5t-64 51.5q-24 0 -43.5 -16.5t-34 -45t-22.5 -64.5t-9 -75v-679h79v-69h-363zM313 1082l-44 47l180 138q15 11 30 18.5
t28 7.5q15 0 27 -7.5t18 -19.5q6 -11 6 -23q0 -19 -15.5 -35.5t-41.5 -27.5z" />
    <glyph glyph-name="uni0145" unicode="&#x145;" horiz-adv-x="813" 
d="M31 0v69h93v1262h-93v69h308l292 -999h-9v930h-91v69h251v-69h-89v-1331h-133l-376 1280h11v-1211h97v-69h-261zM401 -350l-36 42q10 5 30 21.5t24 30.5q-2 -3 -11 -3q-30 0 -50.5 20.5t-20.5 50.5q0 31 21 51.5t51 20.5q34 0 56.5 -22t22.5 -62q0 -39 -15 -68t-35.5 -49
t-36.5 -33z" />
    <glyph glyph-name="uni0146" unicode="&#x146;" horiz-adv-x="817" 
d="M33 0v69h104v909h-104v69h280v-105q4 19 26 46.5t60 48.5t89 21q52 0 98 -24.5t75 -92t29 -198.5v-674h103v-69h-364v69h81v661q0 116 -20 167.5t-64 51.5q-24 0 -43.5 -16.5t-34 -45t-22.5 -64.5t-9 -75v-679h79v-69h-363zM411 -350l-36 42q10 5 30 21.5t24 30.5
q-2 -3 -11 -3q-30 0 -50.5 20.5t-20.5 50.5q0 31 21 51.5t51 20.5q34 0 56.5 -22t22.5 -62q0 -39 -15 -68t-35.5 -49t-36.5 -33z" />
    <glyph glyph-name="Ncaron" unicode="&#x147;" horiz-adv-x="813" 
d="M31 0v69h93v1262h-93v69h308l292 -999h-9v930h-91v69h251v-69h-89v-1331h-133l-376 1280h11v-1211h97v-69h-261zM375 1469l-162 219h84l112 -148l113 148h84l-161 -219h-70z" />
    <glyph glyph-name="ncaron" unicode="&#x148;" horiz-adv-x="817" 
d="M33 0v69h104v909h-104v69h280v-105q4 19 26 46.5t60 48.5t89 21q52 0 98 -24.5t75 -92t29 -198.5v-674h103v-69h-364v69h81v661q0 116 -20 167.5t-64 51.5q-24 0 -43.5 -16.5t-34 -45t-22.5 -64.5t-9 -75v-679h79v-69h-363zM384 1106l-162 219h84l112 -148l113 148h84
l-161 -219h-70z" />
    <glyph glyph-name="Eng" unicode="&#x14a;" horiz-adv-x="813" 
d="M516 -393q-51 0 -85.5 27t-52.5 76.5t-18 117.5q0 50 21.5 72.5t50.5 22.5q24 0 44 -16.5t20 -58.5q0 -35 -11.5 -50.5t-11.5 -51.5q0 -29 13 -49.5t36 -20.5q33 0 55 28.5t33 79t11 115.5v171h72v-161q0 -84 -15.5 -141.5t-41 -93t-57 -51.5t-63.5 -16zM31 0v69h93v1262
h-93v69h308l292 -999h-9v930h-91v69h251v-69h-89v-1331h-133l-376 1280h11v-1211h97v-69h-261z" />
    <glyph glyph-name="eng" unicode="&#x14b;" horiz-adv-x="797" 
d="M430 -429q-77 0 -116.5 62.5t-39.5 158.5q0 47 18.5 74t50.5 27q30 0 46 -25.5t16 -63.5q0 -25 -8 -40.5t-16.5 -28t-8.5 -30.5q0 -25 8.5 -39t22 -20t29.5 -6q26 0 43.5 22.5t28 60.5t15 86t4.5 99v799q0 110 -17.5 170.5t-67.5 60.5q-27 0 -46.5 -20t-32 -50.5t-19 -63
t-6.5 -59.5v-676h89v-69h-371v69h102v909h-102v69h278v-101q7 16 29 41.5t56.5 45.5t77.5 20q65 0 112 -27t72.5 -97t25.5 -198v-799q0 -131 -37.5 -210.5t-100 -115t-135.5 -35.5z" />
    <glyph glyph-name="Omacron" unicode="&#x14c;" horiz-adv-x="784" 
d="M393 -22q-101 0 -175 89t-114 250t-40 381q0 221 40 383.5t114 251.5t175 89q102 0 177 -89t116 -251.5t41 -383.5q0 -220 -41 -381t-116 -250t-177 -89zM393 47q37 0 63.5 45.5t44.5 130.5t26.5 205t8.5 270t-8.5 270.5t-26.5 206t-44.5 132t-63.5 46.5t-63 -46.5
t-42.5 -132t-24.5 -206t-8 -270.5t8 -270t24.5 -205t42.5 -130.5t63 -45.5zM93 1538v70h603v-70h-603z" />
    <glyph glyph-name="omacron" unicode="&#x14d;" horiz-adv-x="705" 
d="M349 -22q-57 0 -110 35.5t-95.5 105t-66.5 172t-24 236.5q0 147 25.5 248.5t68.5 163.5t95.5 90.5t106.5 28.5t106.5 -28.5t96 -90.5t69.5 -163.5t26 -248.5q0 -134 -24.5 -236.5t-67 -172t-96 -105t-110.5 -35.5zM349 54q51 0 82.5 113.5t31.5 359.5q0 244 -31.5 350
t-82.5 106q-50 0 -82 -106t-32 -350q0 -246 32 -359.5t82 -113.5zM133 1135v70h436v-70h-436z" />
    <glyph glyph-name="obreve" unicode="&#x14f;" horiz-adv-x="705" 
d="M349 -22q-57 0 -110 35.5t-95.5 105t-66.5 172t-24 236.5q0 147 25.5 248.5t68.5 163.5t95.5 90.5t106.5 28.5t106.5 -28.5t96 -90.5t69.5 -163.5t26 -248.5q0 -134 -24.5 -236.5t-67 -172t-96 -105t-110.5 -35.5zM349 54q51 0 82.5 113.5t31.5 359.5q0 244 -31.5 350
t-82.5 106q-50 0 -82 -106t-32 -350q0 -246 32 -359.5t82 -113.5zM348 1103q-61 0 -98.5 27t-55 71t-17.5 93h68q4 -61 31.5 -91t71.5 -30q46 0 73.5 30t31.5 91h68q0 -49 -17.5 -93t-55.5 -71t-100 -27z" />
    <glyph glyph-name="Ohungarumlaut" unicode="&#x150;" horiz-adv-x="784" 
d="M393 -22q-101 0 -175 89t-114 250t-40 381q0 221 40 383.5t114 251.5t175 89q102 0 177 -89t116 -251.5t41 -383.5q0 -220 -41 -381t-116 -250t-177 -89zM393 47q37 0 63.5 45.5t44.5 130.5t26.5 205t8.5 270t-8.5 270.5t-26.5 206t-44.5 132t-63.5 46.5t-63 -46.5
t-42.5 -132t-24.5 -206t-8 -270.5t8 -270t24.5 -205t42.5 -130.5t63 -45.5zM364 1488l-44 44l117 140q14 17 26 25.5t24 8.5q18 0 30 -12.5t12 -30.5q0 -26 -30 -48zM380 1488l-43 44l115 140q14 17 26.5 25.5t24.5 8.5q18 0 30 -12.5t12 -30.5q0 -27 -30 -48z" />
    <glyph glyph-name="ohungarumlaut" unicode="&#x151;" horiz-adv-x="705" 
d="M349 -22q-57 0 -110 35.5t-95.5 105t-66.5 172t-24 236.5q0 147 25.5 248.5t68.5 163.5t95.5 90.5t106.5 28.5t106.5 -28.5t96 -90.5t69.5 -163.5t26 -248.5q0 -134 -24.5 -236.5t-67 -172t-96 -105t-110.5 -35.5zM349 54q51 0 82.5 113.5t31.5 359.5q0 244 -31.5 350
t-82.5 106q-50 0 -82 -106t-32 -350q0 -246 32 -359.5t82 -113.5zM275 1124l-44 44l117 140q14 17 26 25.5t24 8.5q18 0 30 -12.5t12 -30.5q0 -26 -30 -48zM291 1124l-43 44l115 140q14 17 26.5 25.5t24.5 8.5q18 0 30 -12.5t12 -30.5q0 -27 -30 -48z" />
    <glyph glyph-name="OE" unicode="&#x152;" horiz-adv-x="1063" 
d="M397 -22q-102 0 -177 95t-115.5 257.5t-40.5 367.5q0 206 41 369.5t116.5 259t176.5 95.5q46 0 91 -18.5t74 -57.5l-39 -65q-17 40 -48 56t-53 16q-50 0 -84 -53t-55 -144t-30 -209t-9 -249t9.5 -248.5t30.5 -208t54.5 -142.5t81.5 -52q29 0 51 13.5t37 34t20 40.5
l45 -63q-30 -47 -75.5 -70.5t-101.5 -23.5zM497 0v1400h488v-304h-69q0 81 -6.5 133t-33.5 77t-92 25h-108v-576h220v96h69v-258h-69v93h-220v-617h103q66 0 94.5 26t35.5 78.5t7 133.5h69v-307h-488z" />
    <glyph glyph-name="oe" unicode="&#x153;" horiz-adv-x="1095" 
d="M349 -22q-57 0 -110 35.5t-95.5 105t-66.5 172t-24 236.5q0 147 25.5 248.5t68.5 163.5t95.5 90.5t106.5 28.5t106.5 -28.5t96 -90.5t69.5 -163.5t26 -248.5q0 -134 -24.5 -236.5t-67 -172t-96 -105t-110.5 -35.5zM349 54q51 0 82.5 113.5t31.5 359.5q0 244 -31.5 350
t-82.5 106q-50 0 -82 -106t-32 -350q0 -246 32 -359.5t82 -113.5zM773 -21q-75 0 -131 41t-93.5 114.5t-56.5 173.5t-19 218q0 137 25.5 237.5t68.5 165.5t95.5 97t107.5 32q65 0 115 -36.5t84 -99.5t51.5 -145t17.5 -173v-40.5t-2 -41.5h-394v70h222q0 133 -9 220.5
t-29.5 131t-55.5 43.5q-33 0 -59 -43.5t-41 -138.5t-15 -249q0 -115 6.5 -207t22 -157.5t42 -100.5t67.5 -35q65 0 102 36t52 71l59 -37q-20 -56 -84 -101.5t-149 -45.5z" />
    <glyph glyph-name="Racute" unicode="&#x154;" horiz-adv-x="858" 
d="M709 -16q-76 0 -111 37.5t-45 103.5t-10 148q0 52 1.5 102.5t1.5 89.5q0 91 -12 138t-46 65t-99 18h-53v-617h99v-69h-379v69h102v1262h-102v69h395q83 0 148 -33.5t103 -105t38 -186.5q0 -87 -22 -151.5t-58.5 -107t-81 -65.5t-89.5 -29q97 -3 148.5 -37.5t71 -103
t19.5 -173.5q0 -51 -2.5 -103.5t-2.5 -98.5q0 -31 2 -65t9.5 -58t21.5 -24q11 0 17 10.5t7 23.5h64q-4 -38 -22 -62t-47 -35.5t-66 -11.5zM336 755h70q53 0 86.5 42.5t49.5 114.5t16 159q0 82 -13.5 140t-45.5 89t-86 31h-77v-576zM325 1443l-44 47l180 137q14 11 29.5 18.5
t28.5 7.5q15 0 27 -7.5t18 -19.5q6 -10 6 -23q0 -19 -15.5 -35.5t-41.5 -27.5z" />
    <glyph glyph-name="racute" unicode="&#x155;" horiz-adv-x="636" 
d="M25 0v69h105v909h-105v69h269l10 -95q4 13 22.5 38.5t50.5 46.5t75 21q54 0 87.5 -35.5t49.5 -95.5t16 -134q0 -56 -20.5 -85.5t-56.5 -29.5q-33 0 -53.5 24.5t-20.5 69.5q0 28 10.5 45t20 34.5t9.5 47.5q0 42 -15 61t-43 19q-34 0 -63 -31.5t-46 -85.5t-17 -122v-671
h105v-69h-390zM282 1082l-44 47l180 138q15 11 30 18.5t28 7.5q15 0 27 -7.5t18 -19.5q6 -11 6 -23q0 -19 -15.5 -35.5t-41.5 -27.5z" />
    <glyph glyph-name="uni0156" unicode="&#x156;" horiz-adv-x="858" 
d="M709 -16q-76 0 -111 37.5t-45 103.5t-10 148q0 52 1.5 102.5t1.5 89.5q0 91 -12 138t-46 65t-99 18h-53v-617h99v-69h-379v69h102v1262h-102v69h395q83 0 148 -33.5t103 -105t38 -186.5q0 -87 -22 -151.5t-58.5 -107t-81 -65.5t-89.5 -29q97 -3 148.5 -37.5t71 -103
t19.5 -173.5q0 -51 -2.5 -103.5t-2.5 -98.5q0 -31 2 -65t9.5 -58t21.5 -24q11 0 17 10.5t7 23.5h64q-4 -38 -22 -62t-47 -35.5t-66 -11.5zM336 755h70q53 0 86.5 42.5t49.5 114.5t16 159q0 82 -13.5 140t-45.5 89t-86 31h-77v-576zM423 -350l-36 42q10 5 30 21.5t24 30.5
q-2 -3 -11 -3q-30 0 -50.5 20.5t-20.5 50.5q0 31 21 51.5t51 20.5q34 0 56.5 -22t22.5 -62q0 -39 -15 -68t-35.5 -49t-36.5 -33z" />
    <glyph glyph-name="uni0157" unicode="&#x157;" horiz-adv-x="636" 
d="M25 0v69h105v909h-105v69h269l10 -95q4 13 22.5 38.5t50.5 46.5t75 21q54 0 87.5 -35.5t49.5 -95.5t16 -134q0 -56 -20.5 -85.5t-56.5 -29.5q-33 0 -53.5 24.5t-20.5 69.5q0 28 10.5 45t20 34.5t9.5 47.5q0 42 -15 61t-43 19q-34 0 -63 -31.5t-46 -85.5t-17 -122v-671
h105v-69h-390zM266 -350l-36 42q10 5 30 21.5t24 30.5q-2 -3 -11 -3q-30 0 -50.5 20.5t-20.5 50.5q0 31 21 51.5t51 20.5q34 0 56.5 -22t22.5 -62q0 -39 -15 -68t-35.5 -49t-36.5 -33z" />
    <glyph glyph-name="Rcaron" unicode="&#x158;" horiz-adv-x="858" 
d="M709 -16q-76 0 -111 37.5t-45 103.5t-10 148q0 52 1.5 102.5t1.5 89.5q0 91 -12 138t-46 65t-99 18h-53v-617h99v-69h-379v69h102v1262h-102v69h395q83 0 148 -33.5t103 -105t38 -186.5q0 -87 -22 -151.5t-58.5 -107t-81 -65.5t-89.5 -29q97 -3 148.5 -37.5t71 -103
t19.5 -173.5q0 -51 -2.5 -103.5t-2.5 -98.5q0 -31 2 -65t9.5 -58t21.5 -24q11 0 17 10.5t7 23.5h64q-4 -38 -22 -62t-47 -35.5t-66 -11.5zM336 755h70q53 0 86.5 42.5t49.5 114.5t16 159q0 82 -13.5 140t-45.5 89t-86 31h-77v-576zM397 1469l-162 219h84l112 -148l113 148
h84l-161 -219h-70z" />
    <glyph glyph-name="rcaron" unicode="&#x159;" horiz-adv-x="636" 
d="M25 0v69h105v909h-105v69h269l10 -95q4 13 22.5 38.5t50.5 46.5t75 21q54 0 87.5 -35.5t49.5 -95.5t16 -134q0 -56 -20.5 -85.5t-56.5 -29.5q-33 0 -53.5 24.5t-20.5 69.5q0 28 10.5 45t20 34.5t9.5 47.5q0 42 -15 61t-43 19q-34 0 -63 -31.5t-46 -85.5t-17 -122v-671
h105v-69h-390zM354 1106l-162 219h84l112 -148l113 148h84l-161 -219h-70z" />
    <glyph glyph-name="Sacute" unicode="&#x15a;" horiz-adv-x="639" 
d="M337 -27q-49 0 -79.5 12.5t-49.5 29t-32 29t-26 12.5q-24 0 -24 -56h-62v317h69q1 -26 10.5 -61.5t26 -72t41 -67.5t56 -51t71.5 -20q46 0 71 22.5t35 63.5t10 97q0 66 -26.5 132t-71.5 135t-101 142q-77 100 -118 182t-56 153.5t-15 138.5q0 100 33 169.5t87.5 105.5
t119.5 36q56 0 85 -18t44.5 -36.5t30.5 -18.5q13 0 19 11t7 40h63v-315h-70q-2 36 -13.5 81.5t-32.5 87.5t-53.5 69.5t-76.5 27.5q-55 0 -86 -41.5t-31 -116.5q0 -54 18.5 -110.5t60 -123t107.5 -151.5q64 -78 110.5 -157.5t72.5 -162.5t26 -173q0 -93 -19.5 -158
t-53.5 -105.5t-79.5 -59.5t-97.5 -19zM221 1443l-44 47l180 137q14 11 29.5 18.5t28.5 7.5q15 0 27 -7.5t18 -19.5q6 -10 6 -23q0 -19 -15.5 -35.5t-41.5 -27.5z" />
    <glyph glyph-name="sacute" unicode="&#x15b;" horiz-adv-x="566" 
d="M292 -22q-55 0 -83.5 14t-43.5 27.5t-29 13.5q-13 0 -18 -8.5t-5 -24.5h-60v307h72q5 -58 17.5 -106t32.5 -82t48.5 -53t64.5 -19t57.5 18t31.5 46.5t10 59.5q0 48 -16.5 93t-49.5 92t-84 100q-73 78 -125.5 160t-52.5 201q0 83 31.5 136t81.5 79t106 26q42 0 67 -10.5
t40 -21.5t26 -11q8 0 12.5 7.5t5.5 24.5h62v-298h-71q-4 53 -14 97t-27 75.5t-41 48.5t-57 17q-48 0 -72.5 -35.5t-24.5 -88.5q0 -63 37 -118t107 -126q55 -58 97 -115.5t65.5 -121.5t23.5 -141q0 -85 -27 -143.5t-77 -89t-118 -30.5zM187 1082l-44 47l180 138
q15 11 30 18.5t28 7.5q15 0 27 -7.5t18 -19.5q6 -11 6 -23q0 -19 -15.5 -35.5t-41.5 -27.5z" />
    <glyph glyph-name="scircumflex" unicode="&#x15d;" horiz-adv-x="566" 
d="M292 -22q-55 0 -83.5 14t-43.5 27.5t-29 13.5q-13 0 -18 -8.5t-5 -24.5h-60v307h72q5 -58 17.5 -106t32.5 -82t48.5 -53t64.5 -19t57.5 18t31.5 46.5t10 59.5q0 48 -16.5 93t-49.5 92t-84 100q-73 78 -125.5 160t-52.5 201q0 83 31.5 136t81.5 79t106 26q42 0 67 -10.5
t40 -21.5t26 -11q8 0 12.5 7.5t5.5 24.5h62v-298h-71q-4 53 -14 97t-27 75.5t-41 48.5t-57 17q-48 0 -72.5 -35.5t-24.5 -88.5q0 -63 37 -118t107 -126q55 -58 97 -115.5t65.5 -121.5t23.5 -141q0 -85 -27 -143.5t-77 -89t-118 -30.5zM110 1123l148 205h70l146 -205h-78
l-104 135l-103 -135h-79z" />
    <glyph glyph-name="Scedilla" unicode="&#x15e;" horiz-adv-x="639" 
d="M337 -27q-49 0 -79.5 12.5t-49.5 29t-32 29t-26 12.5q-24 0 -24 -56h-62v317h69q1 -26 10.5 -61.5t26 -72t41 -67.5t56 -51t71.5 -20q46 0 71 22.5t35 63.5t10 97q0 66 -26.5 132t-71.5 135t-101 142q-77 100 -118 182t-56 153.5t-15 138.5q0 100 33 169.5t87.5 105.5
t119.5 36q56 0 85 -18t44.5 -36.5t30.5 -18.5q13 0 19 11t7 40h63v-315h-70q-2 36 -13.5 81.5t-32.5 87.5t-53.5 69.5t-76.5 27.5q-55 0 -86 -41.5t-31 -116.5q0 -54 18.5 -110.5t60 -123t107.5 -151.5q64 -78 110.5 -157.5t72.5 -162.5t26 -173q0 -93 -19.5 -158
t-53.5 -105.5t-79.5 -59.5t-97.5 -19zM348 -308q-52 0 -92.5 10.5t-55.5 18.5l25 62q11 -7 44 -17t74 -10q31 0 55 15.5t24 43.5q0 31 -15.5 41t-37.5 10q-16 0 -33.5 -7t-29.5 -21l-65 4l61 158h69l-45 -105q5 6 29 15.5t56 9.5q38 0 71.5 -23.5t33.5 -82.5
q0 -42 -24 -69.5t-62.5 -40t-81.5 -12.5z" />
    <glyph glyph-name="scedilla" unicode="&#x15f;" horiz-adv-x="566" 
d="M292 -22q-55 0 -83.5 14t-43.5 27.5t-29 13.5q-13 0 -18 -8.5t-5 -24.5h-60v307h67q5 -58 17 -106t32 -82t49.5 -53t69.5 -19q36 0 57.5 18t31.5 46.5t10 59.5q0 48 -16.5 93t-49.5 92t-84 100q-73 78 -125.5 160t-52.5 201q0 75 31.5 129t81.5 83t106 29q42 0 67 -10.5
t40 -21.5t26 -11q8 0 12.5 7.5t5.5 24.5h62v-298h-66q-4 53 -13.5 97t-26.5 75.5t-42.5 48.5t-61.5 17q-48 0 -72.5 -35.5t-24.5 -88.5q0 -63 37 -118t107 -126q55 -58 97 -115.5t65.5 -121.5t23.5 -141q0 -117 -60 -190t-162 -73zM304 -308q-52 0 -92.5 10.5t-55.5 18.5
l25 62q11 -7 44 -17t74 -10q31 0 55 15.5t24 43.5q0 31 -15.5 41t-37.5 10q-16 0 -33.5 -7t-29.5 -21l-65 4l61 158h69l-45 -105q5 6 29 15.5t56 9.5q38 0 71.5 -23.5t33.5 -82.5q0 -42 -24 -69.5t-62.5 -40t-81.5 -12.5z" />
    <glyph glyph-name="Scaron" unicode="&#x160;" horiz-adv-x="639" 
d="M337 -27q-49 0 -79.5 12.5t-49.5 29t-32 29t-26 12.5q-24 0 -24 -56h-62v317h69q1 -26 10.5 -61.5t26 -72t41 -67.5t56 -51t71.5 -20q46 0 71 22.5t35 63.5t10 97q0 66 -26.5 132t-71.5 135t-101 142q-77 100 -118 182t-56 153.5t-15 138.5q0 100 33 169.5t87.5 105.5
t119.5 36q56 0 85 -18t44.5 -36.5t30.5 -18.5q13 0 19 11t7 40h63v-315h-70q-2 36 -13.5 81.5t-32.5 87.5t-53.5 69.5t-76.5 27.5q-55 0 -86 -41.5t-31 -116.5q0 -54 18.5 -110.5t60 -123t107.5 -151.5q64 -78 110.5 -157.5t72.5 -162.5t26 -173q0 -93 -19.5 -158
t-53.5 -105.5t-79.5 -59.5t-97.5 -19zM293 1469l-162 219h84l112 -148l113 148h84l-161 -219h-70z" />
    <glyph glyph-name="scaron" unicode="&#x161;" horiz-adv-x="566" 
d="M292 -22q-55 0 -83.5 14t-43.5 27.5t-29 13.5q-13 0 -18 -8.5t-5 -24.5h-60v307h72q5 -58 17.5 -106t32.5 -82t48.5 -53t64.5 -19t57.5 18t31.5 46.5t10 59.5q0 48 -16.5 93t-49.5 92t-84 100q-73 78 -125.5 160t-52.5 201q0 83 31.5 136t81.5 79t106 26q42 0 67 -10.5
t40 -21.5t26 -11q8 0 12.5 7.5t5.5 24.5h62v-298h-71q-4 53 -14 97t-27 75.5t-41 48.5t-57 17q-48 0 -72.5 -35.5t-24.5 -88.5q0 -63 37 -118t107 -126q55 -58 97 -115.5t65.5 -121.5t23.5 -141q0 -85 -27 -143.5t-77 -89t-118 -30.5zM258 1106l-162 219h84l112 -148
l113 148h84l-161 -219h-70z" />
    <glyph glyph-name="uni0162" unicode="&#x162;" horiz-adv-x="757" 
d="M175 0v69h114v1262h-58q-55 0 -81 -22t-34 -73t-8 -140h-70v304h681v-304h-70q0 89 -8 140t-34 73t-81 22h-58v-1262h119v-69h-412zM390 -308q-51 0 -92 10.5t-56 18.5l26 62q10 -7 43 -17t74 -10q32 0 55.5 15.5t23.5 43.5q0 31 -15.5 41t-37.5 10q-16 0 -33 -7t-29 -21
l-66 4l61 158h70l-45 -105q5 6 28.5 15.5t55.5 9.5q39 0 72.5 -23.5t33.5 -82.5q0 -42 -24 -69.5t-62.5 -40t-82.5 -12.5z" />
    <glyph glyph-name="uni0163" unicode="&#x163;" horiz-adv-x="494" 
d="M329 -18q-49 0 -94 16.5t-73.5 61.5t-28.5 131v787h-131v69h131q30 20 52.5 66t37 105.5t18.5 119.5h72v-291h154v-69h-154v-852q0 -42 18 -56t36 -14q19 0 33.5 8t22.5 17l40 -55q-22 -19 -55.5 -31.5t-78.5 -12.5zM326 -296q-52 0 -92.5 10.5t-55.5 18.5l26 62
q10 -7 43 -17t74 -10q31 0 55 15.5t24 43.5q0 31 -15.5 41t-37.5 10q-16 0 -33.5 -7t-29.5 -21l-65 4l61 158h69l-45 -105q5 6 29 15.5t56 9.5q38 0 71.5 -23.5t33.5 -82.5q0 -42 -24 -69.5t-62.5 -40t-81.5 -12.5z" />
    <glyph glyph-name="Tcaron" unicode="&#x164;" horiz-adv-x="757" 
d="M175 0v69h114v1262h-58q-55 0 -81 -22t-34 -73t-8 -140h-70v304h681v-304h-70q0 89 -8 140t-34 73t-81 22h-58v-1262h119v-69h-412zM347 1479l-162 219h84l112 -148l113 148h84l-161 -219h-70z" />
    <glyph glyph-name="tcaron" unicode="&#x165;" horiz-adv-x="555" 
d="M415 1184q12 46 16.5 103t4.5 108q0 50 19 69t44 19t42 -17.5t17 -59.5q0 -62 -24.5 -129t-58.5 -118zM329 -18q-49 0 -94 16.5t-73.5 61.5t-28.5 131v787h-131v69h131q30 20 52.5 66t37 105.5t18.5 119.5h72v-291h154v-69h-154v-852q0 -42 18 -56t36 -14q19 0 33.5 8
t22.5 17l40 -55q-22 -19 -55.5 -31.5t-78.5 -12.5z" />
    <glyph glyph-name="Tbar" unicode="&#x166;" horiz-adv-x="757" 
d="M122 666v70h511v-70h-511zM175 0v69h114v1262h-58q-55 0 -81 -22t-34 -73t-8 -140h-70v304h681v-304h-70q0 89 -8 140t-34 73t-81 22h-58v-1262h119v-69h-412z" />
    <glyph glyph-name="tbar" unicode="&#x167;" horiz-adv-x="494" 
d="M23 617v60h426v-60h-426zM329 -18q-49 0 -94 16.5t-73.5 61.5t-28.5 131v787h-131v69h131q30 20 52.5 66t37 105.5t18.5 119.5h72v-291h154v-69h-154v-852q0 -42 18 -56t36 -14q19 0 33.5 8t22.5 17l40 -55q-22 -19 -55.5 -31.5t-78.5 -12.5z" />
    <glyph glyph-name="Utilde" unicode="&#x168;" horiz-adv-x="776" 
d="M405 -24q-46 0 -94 14.5t-88 52t-64.5 104.5t-24.5 171v1013h-98v69h383v-69h-103v-1013q0 -143 34.5 -202t95.5 -59q27 0 50 11.5t41.5 38.5t28.5 74t10 119v1031h-86v69h251v-69h-95v-1041q0 -120 -30.5 -188.5t-85 -97t-125.5 -28.5zM484 1483q-39 0 -65 15.5
t-47 30.5t-45 15q-32 0 -49 -17t-22 -28l-68 30q6 19 22.5 42.5t43 41.5t60.5 18q42 0 68 -15t47.5 -30.5t50.5 -15.5q30 0 43.5 15t19.5 26l66 -35q-4 -14 -20.5 -36t-42.5 -39.5t-62 -17.5z" />
    <glyph glyph-name="utilde" unicode="&#x169;" horiz-adv-x="789" 
d="M335 -22q-57 0 -106 24t-78.5 89.5t-29.5 191.5v695h-103v68h283v-743q0 -93 10 -142t29.5 -66.5t45.5 -17.5q35 0 60.5 35t39 95.5t13.5 137.5v633h-96v68h276v-977h90v-69h-249l-9 113q-5 -26 -26.5 -57.5t-59 -54.5t-90.5 -23zM488 1134q-39 0 -65 15.5t-47 30.5
t-45 15q-32 0 -49 -17t-22 -28l-68 30q6 19 22.5 42.5t43 41.5t60.5 18q42 0 68 -15t47.5 -30.5t50.5 -15.5q30 0 43.5 15t19.5 26l66 -34q-4 -15 -20.5 -37t-42.5 -39.5t-62 -17.5z" />
    <glyph glyph-name="Umacron" unicode="&#x16a;" horiz-adv-x="776" 
d="M405 -24q-46 0 -94 14.5t-88 52t-64.5 104.5t-24.5 171v1013h-98v69h383v-69h-103v-1013q0 -143 34.5 -202t95.5 -59q27 0 50 11.5t41.5 38.5t28.5 74t10 119v1031h-86v69h251v-69h-95v-1041q0 -120 -30.5 -188.5t-85 -97t-125.5 -28.5zM97 1538v70h603v-70h-603z" />
    <glyph glyph-name="umacron" unicode="&#x16b;" horiz-adv-x="789" 
d="M335 -22q-57 0 -106 24t-78.5 89.5t-29.5 191.5v695h-103v68h283v-743q0 -93 10 -142t29.5 -66.5t45.5 -17.5q35 0 60.5 35t39 95.5t13.5 137.5v633h-96v68h276v-977h90v-69h-249l-9 113q-5 -26 -26.5 -57.5t-59 -54.5t-90.5 -23zM185 1135v70h436v-70h-436z" />
    <glyph glyph-name="ubreve" unicode="&#x16d;" horiz-adv-x="789" 
d="M335 -22q-57 0 -106 24t-78.5 89.5t-29.5 191.5v695h-103v68h283v-743q0 -93 10 -142t29.5 -66.5t45.5 -17.5q35 0 60.5 35t39 95.5t13.5 137.5v633h-96v68h276v-977h90v-69h-249l-9 113q-5 -26 -26.5 -57.5t-59 -54.5t-90.5 -23zM400 1103q-61 0 -98.5 27t-55 71
t-17.5 93h68q4 -61 31.5 -91t71.5 -30q46 0 73.5 30t31.5 91h68q0 -49 -17.5 -93t-55.5 -71t-100 -27z" />
    <glyph glyph-name="Uring" unicode="&#x16e;" horiz-adv-x="776" 
d="M405 -24q-46 0 -94 14.5t-88 52t-64.5 104.5t-24.5 171v1013h-98v69h383v-69h-103v-1013q0 -143 34.5 -202t95.5 -59q27 0 50 11.5t41.5 38.5t28.5 74t10 119v1031h-86v69h251v-69h-95v-1041q0 -120 -30.5 -188.5t-85 -97t-125.5 -28.5zM398 1465q-44 0 -76 32.5
t-32 85.5q0 55 32 86t76 31t75.5 -31t31.5 -86q0 -53 -31.5 -85.5t-75.5 -32.5zM398 1518q26 0 37.5 20t11.5 47q0 22 -11.5 42t-37.5 20q-25 0 -37 -20t-12 -42q0 -27 12 -47t37 -20z" />
    <glyph glyph-name="uring" unicode="&#x16f;" horiz-adv-x="789" 
d="M335 -22q-57 0 -106 24t-78.5 89.5t-29.5 191.5v695h-103v68h283v-743q0 -93 10 -142t29.5 -66.5t45.5 -17.5q35 0 60.5 35t39 95.5t13.5 137.5v633h-96v68h276v-977h90v-69h-249l-9 113q-5 -26 -26.5 -57.5t-59 -54.5t-90.5 -23zM403 1096q-44 0 -76 32.5t-32 85.5
q0 55 32 86t76 31t75.5 -31t31.5 -86q0 -53 -31.5 -85.5t-75.5 -32.5zM403 1149q26 0 37.5 20t11.5 47q0 22 -11.5 42t-37.5 20q-25 0 -37 -20t-12 -42q0 -27 12 -47t37 -20z" />
    <glyph glyph-name="Uhungarumlaut" unicode="&#x170;" horiz-adv-x="776" 
d="M405 -24q-46 0 -94 14.5t-88 52t-64.5 104.5t-24.5 171v1013h-98v69h383v-69h-103v-1013q0 -143 34.5 -202t95.5 -59q27 0 50 11.5t41.5 38.5t28.5 74t10 119v1031h-86v69h251v-69h-95v-1041q0 -120 -30.5 -188.5t-85 -97t-125.5 -28.5zM368 1488l-44 44l117 140
q14 17 26 25.5t24 8.5q18 0 30 -12.5t12 -30.5q0 -26 -30 -48zM384 1488l-43 44l115 140q14 17 26.5 25.5t24.5 8.5q18 0 30 -12.5t12 -30.5q0 -27 -30 -48z" />
    <glyph glyph-name="uhungarumlaut" unicode="&#x171;" horiz-adv-x="789" 
d="M335 -22q-57 0 -106 24t-78.5 89.5t-29.5 191.5v695h-103v68h283v-743q0 -93 10 -142t29.5 -66.5t45.5 -17.5q35 0 60.5 35t39 95.5t13.5 137.5v633h-96v68h276v-977h90v-69h-249l-9 113q-5 -26 -26.5 -57.5t-59 -54.5t-90.5 -23zM327 1124l-44 44l117 140q14 17 26 25.5
t24 8.5q18 0 30 -12.5t12 -30.5q0 -26 -30 -48zM343 1124l-43 44l115 140q14 17 26.5 25.5t24.5 8.5q18 0 30 -12.5t12 -30.5q0 -27 -30 -48z" />
    <glyph glyph-name="Uogonek" unicode="&#x172;" horiz-adv-x="776" 
d="M405 -24q-46 0 -94 14.5t-88 52t-64.5 104.5t-24.5 171v1013h-98v69h383v-69h-103v-1013q0 -143 34.5 -202t95.5 -59q27 0 50 11.5t41.5 38.5t28.5 74t10 119v1031h-86v69h251v-69h-95v-1041q0 -120 -30.5 -188.5t-85 -97t-125.5 -28.5zM552 -279q-41 0 -79 14t-61.5 45
t-23.5 80t24 85t56 60t55 37l29 -23q-22 -24 -44 -57.5t-22 -81.5q0 -47 31 -60.5t60 -13.5q25 0 52.5 6.5t46.5 17.5l33 -59q-24 -21 -65.5 -35.5t-91.5 -14.5z" />
    <glyph glyph-name="uogonek" unicode="&#x173;" horiz-adv-x="789" 
d="M335 -22q-57 0 -106 24t-78.5 89.5t-29.5 191.5v695h-103v68h283v-743q0 -93 10 -142t29.5 -66.5t45.5 -17.5q35 0 60.5 35t39 95.5t13.5 137.5v633h-96v68h276v-977h90v-69h-249l-9 113q-5 -26 -26.5 -57.5t-59 -54.5t-90.5 -23zM769 -298q-41 0 -79 14t-62 45t-24 80
t24.5 85t56.5 60t55 37l29 -23q-22 -23 -44 -57t-22 -82q0 -47 31 -60.5t60 -13.5q24 0 52 6.5t47 17.5l33 -59q-24 -21 -65.5 -35.5t-91.5 -14.5z" />
    <glyph glyph-name="Wcircumflex" unicode="&#x174;" horiz-adv-x="1112" 
d="M311 -2l-194 1333h-103v69h388v-69h-77l106 -926l-25 -51l140 940l20 -155l-37 192h-87v69h372v-69h-87l120 -915l-18 -51l121 966h-81v69h242v-69h-84l-191 -1333h-93l-173 1125l33 55l-199 -1180h-93zM398 1462l148 205h70l146 -205h-78l-104 135l-103 -135h-79z" />
    <glyph glyph-name="wcircumflex" unicode="&#x175;" horiz-adv-x="1045" 
d="M672 -3l-170 981h-80v69h338v-69h-71l91 -646l96 646h-65v69h220v-69h-77l-164 -981h-118zM259 -3l-164 981h-79v69h344v-69h-72l81 -646l101 646h-43v69h202v-69h-82l-169 -981h-119zM348 1123l148 205h70l146 -205h-78l-104 135l-103 -135h-79z" />
    <glyph glyph-name="Ycircumflex" unicode="&#x176;" horiz-adv-x="766" 
d="M196 0v69h103v519l-182 743h-95v69h375v-69h-76l153 -688h-57l169 688h-80v69h248v-69h-93l-182 -716v-546h99v-69h-382zM201 1462l148 205h70l146 -205h-78l-104 135l-103 -135h-79z" />
    <glyph glyph-name="ycircumflex" unicode="&#x177;" horiz-adv-x="674" 
d="M198 -502q-44 0 -73.5 32.5t-43.5 88t-14 125.5q0 53 20 81.5t55 28.5q34 0 53.5 -25t19.5 -68q0 -33 -11.5 -53.5t-23 -39t-11.5 -45.5q0 -26 8.5 -47t27.5 -21q12 0 19.5 10t14 31t12.5 53l73 354l-224 975h-83v69h351v-69h-76l120 -573l110 573h-74v69h227v-69h-75
l-206 -985l-77 -361q-9 -43 -23.5 -73t-37.5 -45.5t-58 -15.5zM163 1123l148 205h70l146 -205h-78l-104 135l-103 -135h-79z" />
    <glyph glyph-name="Ydieresis" unicode="&#x178;" horiz-adv-x="766" 
d="M196 0v69h103v519l-182 743h-95v69h375v-69h-76l153 -688h-57l169 688h-80v69h248v-69h-93l-182 -716v-546h99v-69h-382zM501 1501q-33 0 -56.5 23.5t-23.5 54.5q0 35 23.5 59.5t56.5 24.5q32 0 56 -24.5t24 -59.5q0 -31 -24 -54.5t-56 -23.5zM265 1501q-31 0 -54.5 23.5
t-23.5 54.5q0 35 23.5 59.5t54.5 24.5q33 0 57.5 -24.5t24.5 -59.5q0 -31 -24.5 -54.5t-57.5 -23.5z" />
    <glyph glyph-name="Zacute" unicode="&#x179;" horiz-adv-x="679" 
d="M59 0v69l341 1262h-79q-78 0 -115 -25t-48.5 -77t-11.5 -133h-69v304h520v-68l-344 -1263h107q70 0 111.5 26t60 78.5t18.5 133.5h70v-307h-561zM242 1443l-44 47l180 137q14 11 29.5 18.5t28.5 7.5q15 0 27 -7.5t18 -19.5q6 -10 6 -23q0 -19 -15.5 -35.5t-41.5 -27.5z
" />
    <glyph glyph-name="zacute" unicode="&#x17a;" horiz-adv-x="604" 
d="M75 0v69l267 909h-95q-48 0 -69 -18t-25.5 -67.5t-4.5 -143.5h-67v298h446v-69l-267 -909h91q52 0 73.5 19.5t26.5 71t5 147.5h69v-307h-450zM197 1082l-44 47l180 138q15 11 30 18.5t28 7.5q15 0 27 -7.5t18 -19.5q6 -11 6 -23q0 -19 -15.5 -35.5t-41.5 -27.5z" />
    <glyph glyph-name="Zdotaccent" unicode="&#x17b;" horiz-adv-x="679" 
d="M59 0v69l341 1262h-79q-78 0 -115 -25t-48.5 -77t-11.5 -133h-69v304h520v-68l-344 -1263h107q70 0 111.5 26t60 78.5t18.5 133.5h70v-307h-561zM348 1504q-33 0 -57 23.5t-24 55.5q0 33 24 57.5t57 24.5q31 0 55 -24.5t24 -57.5q0 -32 -24 -55.5t-55 -23.5z" />
    <glyph glyph-name="zdotaccent" unicode="&#x17c;" horiz-adv-x="604" 
d="M75 0v69l267 909h-95q-48 0 -69 -18t-25.5 -67.5t-4.5 -143.5h-67v298h446v-69l-267 -909h91q52 0 73.5 19.5t26.5 71t5 147.5h69v-307h-450zM303 1134q-33 0 -57 23.5t-24 55.5q0 33 24 57.5t57 24.5q31 0 55 -24.5t24 -57.5q0 -32 -24 -55.5t-55 -23.5z" />
    <glyph glyph-name="Zcaron" unicode="&#x17d;" horiz-adv-x="679" 
d="M59 0v69l341 1262h-79q-78 0 -115 -25t-48.5 -77t-11.5 -133h-69v304h520v-68l-344 -1263h107q70 0 111.5 26t60 78.5t18.5 133.5h70v-307h-561zM314 1469l-162 219h84l112 -148l113 148h84l-161 -219h-70z" />
    <glyph glyph-name="zcaron" unicode="&#x17e;" horiz-adv-x="604" 
d="M75 0v69l267 909h-95q-48 0 -69 -18t-25.5 -67.5t-4.5 -143.5h-67v298h446v-69l-267 -909h91q52 0 73.5 19.5t26.5 71t5 147.5h69v-307h-450zM269 1106l-162 219h84l112 -148l113 148h84l-161 -219h-70z" />
    <glyph glyph-name="uni018F" unicode="&#x18f;" horiz-adv-x="784" 
d="M383 -25q-77 0 -136 49.5t-99 139.5t-60.5 213.5t-20.5 272.5q0 28 0.5 56t2.5 55h482v-69h-293q0 -205 11.5 -349.5t38.5 -221.5t74 -77q45 0 79 71.5t52.5 211.5t18.5 348q0 155 -6 280.5t-23 214.5t-50.5 137t-88.5 48q-56 0 -97.5 -28t-68 -67t-39.5 -72l-70 45
q20 48 62.5 93t100.5 74.5t126 29.5q93 0 158.5 -55.5t107.5 -155.5t62 -235t20 -296q0 -182 -29 -316.5t-77.5 -222.5t-110 -131t-127.5 -43zM66 1188v212h69q0 -31 5.5 -62t17.5 -31l2 -119h-94z" />
    <glyph glyph-name="florin" unicode="&#x192;" horiz-adv-x="679" 
d="M29 -420q-51 0 -87 21.5t-55 61.5t-19 96q0 40 15.5 64t46.5 24q30 0 45 -17t15 -47q0 -22 -6.5 -32.5t-13.5 -20t-7 -28.5q0 -21 9 -38t29 -17q28 0 48 31.5t33.5 81.5t21.5 108.5t11 113.5l74 996h-105v69h108l4 52q13 164 51.5 253.5t95 124t123.5 34.5q57 0 99 -33.5
t65 -90.5t23 -127q0 -53 -20.5 -83.5t-55.5 -30.5q-34 0 -53.5 29t-19.5 72q0 29 10.5 48t21 35t10.5 36q0 38 -19 55t-50 17q-48 0 -73.5 -48t-36.5 -127.5t-19 -173.5l-3 -42h116v-69h-122l-69 -956q-4 -55 -12 -115.5t-23 -118.5t-41 -105t-66 -75t-99 -28z" />
    <glyph glyph-name="Ohorn" unicode="&#x1a0;" horiz-adv-x="784" 
d="M393 -22q-101 0 -175 89t-114 250t-40 381q0 221 40 383.5t114 251.5t175 89q102 0 177 -89t116 -251.5t41 -383.5q0 -220 -41 -381t-116 -250t-177 -89zM393 47q37 0 63.5 45.5t44.5 130.5t26.5 205t8.5 270t-8.5 270.5t-26.5 206t-44.5 132t-63.5 46.5t-63 -46.5
t-42.5 -132t-24.5 -206t-8 -270.5t8 -270t24.5 -205t42.5 -130.5t63 -45.5zM514 1314v69q48 0 86.5 13t38.5 62q0 19 -6 43.5t-6 43.5q0 33 17 52t48 19q30 0 46.5 -18.5t16.5 -52.5q0 -93 -39.5 -143t-95.5 -69t-106 -19z" />
    <glyph glyph-name="ohorn" unicode="&#x1a1;" horiz-adv-x="705" 
d="M349 -22q-57 0 -110 35.5t-95.5 105t-66.5 172t-24 236.5q0 147 25.5 248.5t68.5 163.5t95.5 90.5t106.5 28.5t106.5 -28.5t96 -90.5t69.5 -163.5t26 -248.5q0 -134 -24.5 -236.5t-67 -172t-96 -105t-110.5 -35.5zM349 54q51 0 82.5 113.5t31.5 359.5q0 244 -31.5 350
t-82.5 106q-50 0 -82 -106t-32 -350q0 -246 32 -359.5t82 -113.5zM475 947v69q48 0 86.5 13t38.5 61q0 19 -6 44t-6 44q0 32 17 51t48 19q30 0 46.5 -18.5t16.5 -51.5q0 -93 -39.5 -143t-95.5 -69t-106 -19z" />
    <glyph glyph-name="Uhorn" unicode="&#x1af;" horiz-adv-x="776" 
d="M405 -24q-46 0 -94 14.5t-88 52t-64.5 104.5t-24.5 171v1013h-98v69h383v-69h-103v-1013q0 -143 34.5 -202t95.5 -59q27 0 50 11.5t41.5 38.5t28.5 74t10 119v1031h-86v69h172v-69h-16v-1041q0 -120 -30.5 -188.5t-85 -97t-125.5 -28.5zM662 1331v69q48 0 86.5 13
t38.5 61q0 19 -6 44t-6 44q0 32 17 51t48 19q30 0 46.5 -18.5t16.5 -51.5q0 -93 -39.5 -143t-95.5 -69t-106 -19z" />
    <glyph glyph-name="uhorn" unicode="&#x1b0;" horiz-adv-x="789" 
d="M335 -22q-57 0 -106 24t-78.5 89.5t-29.5 191.5v695h-103v68h283v-743q0 -93 10 -142t29.5 -66.5t45.5 -17.5q35 0 60.5 35t39 95.5t13.5 137.5v633h-96v68h276v-977h90v-69h-249l-9 113q-5 -26 -26.5 -57.5t-59 -54.5t-90.5 -23zM639 977v69q47 0 85.5 13t38.5 61
q0 19 -5.5 44t-5.5 44q0 32 17 51t47 19q31 0 47.5 -18.5t16.5 -51.5q0 -93 -39.5 -143t-95.5 -69t-106 -19z" />
    <glyph glyph-name="uni01C6" unicode="&#x1c6;" horiz-adv-x="1369" 
d="M326 -20q-70 0 -128.5 51t-94 169t-35.5 318q0 193 34.5 311.5t90.5 173t121 54.5q52 0 82 -19t44 -44t18 -42v478h-116v70h299v-1431h113v-69h-268l-16 122q-2 -27 -19 -60.5t-48 -57.5t-77 -24zM360 90q29 0 49.5 37.5t33.5 95t15 116.5v409q-4 51 -17.5 94.5t-35 70
t-48.5 26.5q-28 0 -48.5 -31t-33.5 -87.5t-19 -134.5t-6 -172q0 -102 6.5 -181.5t20 -133.5t34 -81.5t49.5 -27.5zM840 0v69l267 909h-95q-48 0 -69 -18t-25.5 -67.5t-4.5 -143.5h-67v298h446v-69l-267 -909h91q52 0 73.5 19.5t26.5 71t5 147.5h69v-307h-450zM1034 1106
l-162 219h84l112 -148l113 148h84l-161 -219h-70z" />
    <glyph glyph-name="uni01C7" unicode="&#x1c7;" horiz-adv-x="1310" 
d="M59 0v69h90v1262h-90v69h361v-69h-92v-1262h86q34 0 57 26.5t34.5 79t11.5 132.5h70v-307h-528zM902 -24q-74 0 -118.5 33.5t-64.5 93t-20 139.5q0 61 23 86.5t59 25.5q34 0 56 -23t22 -76q0 -35 -10.5 -55t-21.5 -37.5t-11 -45.5q0 -32 19 -50t46 -18q47 0 75 37t28 136
v1109h-102v69h380v-69h-98v-934q0 -118 -17.5 -198.5t-51.5 -130t-82.5 -71t-110.5 -21.5z" />
    <glyph glyph-name="uni01C8" unicode="&#x1c8;" horiz-adv-x="1034" 
d="M59 0v69h90v1262h-90v69h361v-69h-92v-1262h86q34 0 57 26.5t34.5 79t11.5 132.5h70v-307h-528zM664 -498q-56 0 -97 32t-63.5 87t-22.5 125q0 53 23.5 81.5t58.5 28.5q34 0 52 -24.5t18 -67.5q0 -28 -6.5 -48t-14 -38.5t-7.5 -41.5q0 -21 6.5 -35.5t18 -21t25.5 -6.5
q52 0 73 59t21 172v1174h-113v69h293v-1118q0 -122 -23 -204.5t-61.5 -131.5t-85.5 -70t-95 -21zM835 1217q-53 0 -90 36.5t-37 89.5q0 51 37 88t90 37q51 0 87.5 -37t36.5 -88q0 -53 -36.5 -89.5t-87.5 -36.5z" />
    <glyph glyph-name="uni01C9" unicode="&#x1c9;" horiz-adv-x="857" 
d="M38 0v69h100v1362h-100v69h279v-1431h101v-69h-380zM487 -498q-56 0 -97 32t-63.5 87t-22.5 125q0 53 23.5 81.5t58.5 28.5q34 0 52 -24.5t18 -67.5q0 -28 -6.5 -48t-14 -38.5t-7.5 -41.5q0 -21 6.5 -35.5t18 -21t25.5 -6.5q52 0 73 59t21 172v1174h-113v69h293v-1118
q0 -122 -23 -204.5t-61.5 -131.5t-85.5 -70t-95 -21zM658 1217q-53 0 -90 36.5t-37 89.5q0 51 37 88t90 37q51 0 87.5 -37t36.5 -88q0 -53 -36.5 -89.5t-87.5 -36.5z" />
    <glyph glyph-name="uni01CA" unicode="&#x1ca;" horiz-adv-x="1428" 
d="M31 0v69h93v1262h-93v69h308l292 -999h-9v930h-91v69h251v-69h-89v-1331h-133l-376 1280h11v-1211h97v-69h-261zM1020 -24q-74 0 -118.5 33.5t-64.5 93t-20 139.5q0 61 23 86.5t59 25.5q34 0 56 -23t22 -76q0 -35 -10.5 -55t-21.5 -37.5t-11 -45.5q0 -32 19 -50t46 -18
q47 0 75 37t28 136v1109h-102v69h380v-69h-98v-934q0 -118 -17.5 -198.5t-51.5 -130t-82.5 -71t-110.5 -21.5z" />
    <glyph glyph-name="uni01CB" unicode="&#x1cb;" horiz-adv-x="1234" 
d="M31 0v69h93v1262h-93v69h308l292 -999h-9v930h-91v69h251v-69h-89v-1331h-133l-376 1280h11v-1211h97v-69h-261zM864 -498q-56 0 -97 32t-63.5 87t-22.5 125q0 53 23.5 81.5t58.5 28.5q34 0 52 -24.5t18 -67.5q0 -28 -6.5 -48t-14 -38.5t-7.5 -41.5q0 -21 6.5 -35.5
t18 -21t25.5 -6.5q52 0 73 59t21 172v1174h-113v69h293v-1118q0 -122 -23 -204.5t-61.5 -131.5t-85.5 -70t-95 -21zM1035 1217q-53 0 -90 36.5t-37 89.5q0 51 37 88t90 37q51 0 87.5 -37t36.5 -88q0 -53 -36.5 -89.5t-87.5 -36.5z" />
    <glyph glyph-name="uni01CC" unicode="&#x1cc;" horiz-adv-x="1210" 
d="M33 0v69h104v909h-104v69h280v-105q4 19 26 46.5t60 48.5t89 21q52 0 98 -24.5t75 -92t29 -198.5v-674h103v-69h-364v69h81v661q0 116 -20 167.5t-64 51.5q-24 0 -43.5 -16.5t-34 -45t-22.5 -64.5t-9 -75v-679h79v-69h-363zM840 -498q-56 0 -97 32t-63.5 87t-22.5 125
q0 53 23.5 81.5t58.5 28.5q34 0 52 -24.5t18 -67.5q0 -28 -6.5 -48t-14 -38.5t-7.5 -41.5q0 -21 6.5 -35.5t18 -21t25.5 -6.5q52 0 73 59t21 172v1174h-113v69h293v-1118q0 -122 -23 -204.5t-61.5 -131.5t-85.5 -70t-95 -21zM1011 1217q-53 0 -90 36.5t-37 89.5q0 51 37 88
t90 37q51 0 87.5 -37t36.5 -88q0 -53 -36.5 -89.5t-87.5 -36.5z" />
    <glyph glyph-name="uni01CE" unicode="&#x1ce;" horiz-adv-x="728" 
d="M273 -21q-62 0 -112 30.5t-79 89.5t-29 143q0 94 37.5 156t93 104.5t111.5 76.5t93.5 71.5t37.5 90.5q0 74 -12 128t-37.5 82.5t-68.5 28.5q-50 0 -81.5 -30.5t-31.5 -69.5q0 -24 8.5 -39t16.5 -31.5t8 -44.5q0 -39 -20.5 -63t-55.5 -24q-36 0 -56.5 30.5t-20.5 83.5
q0 76 33.5 136t93.5 95t138 35q79 0 139 -34.5t93.5 -109.5t33.5 -198v-570q0 -46 9 -61.5t27 -15.5q17 0 28.5 8t16.5 15l38 -57q-14 -18 -52.5 -33.5t-88.5 -15.5q-49 0 -79 14.5t-44 38t-18 46.5q-5 -15 -23 -40.5t-53.5 -45.5t-93.5 -20zM326 75q33 0 55 26t33.5 63.5
t11.5 69.5v372q-3 -28 -32 -54.5t-65 -61t-63.5 -89.5t-27.5 -140q0 -91 23.5 -138.5t64.5 -47.5zM316 1106l-162 219h84l112 -148l113 148h84l-161 -219h-70z" />
    <glyph glyph-name="uni01D0" unicode="&#x1d0;" horiz-adv-x="448" 
d="M32 0v69h105v909h-105v69h285v-978h105v-69h-390zM192 1106l-162 219h84l112 -148l113 148h84l-161 -219h-70z" />
    <glyph glyph-name="uni01D2" unicode="&#x1d2;" horiz-adv-x="705" 
d="M349 -22q-57 0 -110 35.5t-95.5 105t-66.5 172t-24 236.5q0 147 25.5 248.5t68.5 163.5t95.5 90.5t106.5 28.5t106.5 -28.5t96 -90.5t69.5 -163.5t26 -248.5q0 -134 -24.5 -236.5t-67 -172t-96 -105t-110.5 -35.5zM349 54q51 0 82.5 113.5t31.5 359.5q0 244 -31.5 350
t-82.5 106q-50 0 -82 -106t-32 -350q0 -246 32 -359.5t82 -113.5zM316 1106l-162 219h84l112 -148l113 148h84l-161 -219h-70z" />
    <glyph glyph-name="uni01D4" unicode="&#x1d4;" horiz-adv-x="789" 
d="M335 -22q-57 0 -106 24t-78.5 89.5t-29.5 191.5v695h-103v68h283v-743q0 -93 10 -142t29.5 -66.5t45.5 -17.5q35 0 60.5 35t39 95.5t13.5 137.5v633h-96v68h276v-977h90v-69h-249l-9 113q-5 -26 -26.5 -57.5t-59 -54.5t-90.5 -23zM369 1106l-162 219h84l112 -148l113 148
h84l-161 -219h-70z" />
    <glyph glyph-name="uni01D6" unicode="&#x1d6;" horiz-adv-x="789" 
d="M335 -22q-57 0 -106 24t-78.5 89.5t-29.5 191.5v695h-103v68h283v-743q0 -93 10 -142t29.5 -66.5t45.5 -17.5q35 0 60.5 35t39 95.5t13.5 137.5v633h-96v68h276v-977h90v-69h-249l-9 113q-5 -26 -26.5 -57.5t-59 -54.5t-90.5 -23zM520 1129q-33 0 -56.5 23.5t-23.5 54.5
q0 35 23.5 59.5t56.5 24.5q32 0 56 -24.5t24 -59.5q0 -31 -24 -54.5t-56 -23.5zM284 1129q-31 0 -54.5 23.5t-23.5 54.5q0 35 23.5 59.5t54.5 24.5q33 0 57.5 -24.5t24.5 -59.5q0 -31 -24.5 -54.5t-57.5 -23.5zM185 1380v70h436v-70h-436z" />
    <glyph glyph-name="uni01D8" unicode="&#x1d8;" horiz-adv-x="789" 
d="M335 -22q-57 0 -106 24t-78.5 89.5t-29.5 191.5v695h-103v68h283v-743q0 -93 10 -142t29.5 -66.5t45.5 -17.5q35 0 60.5 35t39 95.5t13.5 137.5v633h-96v68h276v-977h90v-69h-249l-9 113q-5 -26 -26.5 -57.5t-59 -54.5t-90.5 -23zM520 1129q-33 0 -56.5 23.5t-23.5 54.5
q0 35 23.5 59.5t56.5 24.5q32 0 56 -24.5t24 -59.5q0 -31 -24 -54.5t-56 -23.5zM284 1129q-31 0 -54.5 23.5t-23.5 54.5q0 35 23.5 59.5t54.5 24.5q33 0 57.5 -24.5t24.5 -59.5q0 -31 -24.5 -54.5t-57.5 -23.5zM297 1327l-44 47l180 138q15 11 30 18.5t28 7.5q15 0 27 -7.5
t18 -19.5q6 -11 6 -23q0 -19 -15.5 -35.5t-41.5 -27.5z" />
    <glyph glyph-name="uni01DA" unicode="&#x1da;" horiz-adv-x="789" 
d="M335 -22q-57 0 -106 24t-78.5 89.5t-29.5 191.5v695h-103v68h283v-743q0 -93 10 -142t29.5 -66.5t45.5 -17.5q35 0 60.5 35t39 95.5t13.5 137.5v633h-96v68h276v-977h90v-69h-249l-9 113q-5 -26 -26.5 -57.5t-59 -54.5t-90.5 -23zM520 1129q-33 0 -56.5 23.5t-23.5 54.5
q0 35 23.5 59.5t56.5 24.5q32 0 56 -24.5t24 -59.5q0 -31 -24 -54.5t-56 -23.5zM284 1129q-31 0 -54.5 23.5t-23.5 54.5q0 35 23.5 59.5t54.5 24.5q33 0 57.5 -24.5t24.5 -59.5q0 -31 -24.5 -54.5t-57.5 -23.5zM369 1351l-162 219h84l112 -148l113 148h84l-161 -219h-70z
" />
    <glyph glyph-name="uni01DC" unicode="&#x1dc;" horiz-adv-x="789" 
d="M335 -22q-57 0 -106 24t-78.5 89.5t-29.5 191.5v695h-103v68h283v-743q0 -93 10 -142t29.5 -66.5t45.5 -17.5q35 0 60.5 35t39 95.5t13.5 137.5v633h-96v68h276v-977h90v-69h-249l-9 113q-5 -26 -26.5 -57.5t-59 -54.5t-90.5 -23zM520 1129q-33 0 -56.5 23.5t-23.5 54.5
q0 35 23.5 59.5t56.5 24.5q32 0 56 -24.5t24 -59.5q0 -31 -24 -54.5t-56 -23.5zM284 1129q-31 0 -54.5 23.5t-23.5 54.5q0 35 23.5 59.5t54.5 24.5q33 0 57.5 -24.5t24.5 -59.5q0 -31 -24.5 -54.5t-57.5 -23.5zM511 1349l-203 95q-27 13 -41 26t-14 38q0 23 16 36t39 13
q20 0 34 -7.5t28 -19.5l174 -142z" />
    <glyph glyph-name="uni01DF" unicode="&#x1df;" horiz-adv-x="728" 
d="M273 -21q-62 0 -112 30.5t-79 89.5t-29 143q0 94 37.5 156t93 104.5t111.5 76.5t93.5 71.5t37.5 90.5q0 74 -12 128t-37.5 82.5t-68.5 28.5q-50 0 -81.5 -30.5t-31.5 -69.5q0 -24 8.5 -39t16.5 -31.5t8 -44.5q0 -39 -20.5 -63t-55.5 -24q-36 0 -56.5 30.5t-20.5 83.5
q0 76 33.5 136t93.5 95t138 35q79 0 139 -34.5t93.5 -109.5t33.5 -198v-570q0 -46 9 -61.5t27 -15.5q17 0 28.5 8t16.5 15l38 -57q-14 -18 -52.5 -33.5t-88.5 -15.5q-49 0 -79 14.5t-44 38t-18 46.5q-5 -15 -23 -40.5t-53.5 -45.5t-93.5 -20zM326 75q33 0 55 26t33.5 63.5
t11.5 69.5v372q-3 -28 -32 -54.5t-65 -61t-63.5 -89.5t-27.5 -140q0 -91 23.5 -138.5t64.5 -47.5zM467 1129q-33 0 -56.5 23.5t-23.5 54.5q0 35 23.5 59.5t56.5 24.5q32 0 56 -24.5t24 -59.5q0 -31 -24 -54.5t-56 -23.5zM231 1129q-31 0 -54.5 23.5t-23.5 54.5
q0 35 23.5 59.5t54.5 24.5q33 0 57.5 -24.5t24.5 -59.5q0 -31 -24.5 -54.5t-57.5 -23.5zM132 1380v70h436v-70h-436z" />
    <glyph glyph-name="gcaron" unicode="&#x1e7;" horiz-adv-x="750" 
d="M370 -498q-89 0 -161.5 33t-115 93t-42.5 140q0 64 20.5 108t49.5 71t55 41t37 18q-8 2 -28.5 11t-43.5 27.5t-40 49.5t-17 77q0 38 14.5 65t35.5 43t40 20q4 1 10.5 2.5t8.5 0.5q-9 8 -26.5 30.5t-36 62.5t-31 100t-12.5 140q0 120 26 200.5t68.5 129.5t92.5 71t98 22
q90 0 151.5 -51t93.5 -142.5t32 -213.5q0 -121 -25.5 -202t-67.5 -129t-91.5 -68.5t-96.5 -20.5q-51 0 -81 11.5t-36 14.5q-1 0 -2 0.5t-4 0.5q-16 0 -33.5 -18t-17.5 -48q0 -43 43.5 -70t163.5 -47q144 -22 219 -89t75 -198q0 -79 -30 -133.5t-79 -88t-106 -49t-110 -15.5z
M370 -432q72 0 116 53t44 128q0 84 -24.5 125.5t-88.5 64.5q-20 9 -42.5 17.5t-41.5 15t-30 9.5q-27 -14 -49.5 -43.5t-35.5 -70.5t-13 -94q0 -56 18.5 -102t55.5 -74.5t91 -28.5zM368 302q27 0 49.5 25t36 99t13.5 221q0 142 -13.5 214.5t-35.5 98.5t-48 26t-49 -26
t-37.5 -100t-14.5 -218q0 -145 14.5 -217.5t37 -97.5t47.5 -25zM471 987q10 64 59 101t104 37q46 0 65 -21.5t19 -55.5q0 -32 -17.5 -50.5t-45.5 -18.5q-26 0 -37.5 12t-19.5 24t-28 12q-13 0 -23 -10t-10 -32zM334 1106l-162 219h84l112 -148l113 148h84l-161 -219h-70z
" />
    <glyph glyph-name="uni01EA" unicode="&#x1ea;" horiz-adv-x="784" 
d="M393 -22q-101 0 -175 89t-114 250t-40 381q0 221 40 383.5t114 251.5t175 89q102 0 177 -89t116 -251.5t41 -383.5q0 -220 -41 -381t-116 -250t-177 -89zM393 47q37 0 63.5 45.5t44.5 130.5t26.5 205t8.5 270t-8.5 270.5t-26.5 206t-44.5 132t-63.5 46.5t-63 -46.5
t-42.5 -132t-24.5 -206t-8 -270.5t8 -270t24.5 -205t42.5 -130.5t63 -45.5zM498 -291q-41 0 -79 14t-61.5 45t-23.5 80t24 85t56 60t55 37l29 -23q-22 -23 -44 -57t-22 -82q0 -47 31 -60.5t60 -13.5q25 0 53 6.5t47 17.5l32 -59q-24 -21 -65.5 -35.5t-91.5 -14.5z" />
    <glyph glyph-name="uni01EB" unicode="&#x1eb;" horiz-adv-x="705" 
d="M349 -22q-57 0 -110 35.5t-95.5 105t-66.5 172t-24 236.5q0 147 25.5 248.5t68.5 163.5t95.5 90.5t106.5 28.5t106.5 -28.5t96 -90.5t69.5 -163.5t26 -248.5q0 -134 -24.5 -236.5t-67 -172t-96 -105t-110.5 -35.5zM349 54q51 0 82.5 113.5t31.5 359.5q0 244 -31.5 350
t-82.5 106q-50 0 -82 -106t-32 -350q0 -246 32 -359.5t82 -113.5zM464 -279q-41 0 -79 14t-62 45t-24 80t24.5 85t56.5 60t55 37l28 -23q-21 -24 -43 -57.5t-22 -81.5q0 -47 31 -60.5t60 -13.5q24 0 52 6.5t47 17.5l33 -59q-24 -21 -65.5 -35.5t-91.5 -14.5z" />
    <glyph glyph-name="aringacute" unicode="&#x1fb;" horiz-adv-x="728" 
d="M273 -21q-62 0 -112 30.5t-79 89.5t-29 143q0 94 37.5 156t93 104.5t111.5 76.5t93.5 71.5t37.5 90.5q0 74 -12 128t-37.5 82.5t-68.5 28.5q-50 0 -81.5 -30.5t-31.5 -69.5q0 -24 8.5 -39t16.5 -31.5t8 -44.5q0 -39 -20.5 -63t-55.5 -24q-36 0 -56.5 30.5t-20.5 83.5
q0 76 33.5 136t93.5 95t138 35q79 0 139 -34.5t93.5 -109.5t33.5 -198v-570q0 -46 9 -61.5t27 -15.5q17 0 28.5 8t16.5 15l38 -57q-14 -18 -52.5 -33.5t-88.5 -15.5q-49 0 -79 14.5t-44 38t-18 46.5q-5 -15 -23 -40.5t-53.5 -45.5t-93.5 -20zM326 75q33 0 55 26t33.5 63.5
t11.5 69.5v372q-3 -28 -32 -54.5t-65 -61t-63.5 -89.5t-27.5 -140q0 -91 23.5 -138.5t64.5 -47.5zM350 1096q-44 0 -76 32.5t-32 85.5q0 55 32 86t76 31t75.5 -31t31.5 -86q0 -53 -31.5 -85.5t-75.5 -32.5zM350 1149q26 0 37.5 20t11.5 47q0 22 -11.5 42t-37.5 20
q-25 0 -37 -20t-12 -42q0 -27 12 -47t37 -20zM245 1366l-44 47l180 138q15 11 30 18.5t28 7.5q15 0 27 -7.5t18 -19.5q6 -11 6 -23q0 -19 -15.5 -35.5t-41.5 -27.5z" />
    <glyph glyph-name="aeacute" unicode="&#x1fd;" horiz-adv-x="1046" 
d="M287 -19q-121 0 -177.5 66.5t-56.5 174.5q0 100 36.5 165.5t90 109.5t107.5 78t90.5 71.5t36.5 89.5q0 66 -11 121.5t-36 89t-66 33.5t-71 -23t-30 -66q0 -24 7.5 -40l15 -32t7.5 -45q0 -39 -20 -62.5t-55 -23.5q-36 0 -56 30.5t-20 83.5q0 71 31.5 129t89 92.5
t134.5 34.5q79 0 137.5 -39.5t90.5 -119.5t32 -203v-298q0 -79 -10.5 -138.5t-29.5 -103t-45 -77.5q-32 -39 -87.5 -68.5t-134.5 -29.5zM318 77q39 0 67.5 48t28.5 111v364q-3 -28 -30.5 -54.5t-61 -61.5t-59.5 -91t-26 -142q0 -54 8.5 -92.5t26.5 -60t46 -21.5zM723 -21
q-75 0 -131 41t-93.5 114.5t-56.5 173.5t-19 218q0 137 25.5 237.5t68.5 165.5t95.5 97t107.5 32q65 0 115 -36.5t84 -99.5t51.5 -144.5t17.5 -172.5v-41.5t-2 -41.5h-394v70h222q0 133 -9 220.5t-29.5 131.5t-55.5 44q-33 0 -59 -44t-41 -139t-15 -249q0 -115 6.5 -207
t22 -157.5t42 -100.5t67.5 -35q65 0 102 36t52 71l59 -37q-20 -56 -84 -101.5t-149 -45.5zM438 1082l-44 47l180 138q15 11 30 18.5t28 7.5q15 0 27 -7.5t18 -19.5q6 -11 6 -23q0 -19 -15.5 -35.5t-41.5 -27.5z" />
    <glyph glyph-name="Oslashacute" unicode="&#x1fe;" horiz-adv-x="811" 
d="M137 -104l497 1608h72l-496 -1608h-73zM393 -22q-101 0 -175 89t-114 250t-40 381q0 221 40 383.5t114 251.5t175 89q102 0 177 -89t116 -251.5t41 -383.5q0 -220 -41 -381t-116 -250t-177 -89zM393 47q37 0 63.5 45.5t44.5 130.5t26.5 205t8.5 270t-8.5 270.5t-26.5 206
t-44.5 132t-63.5 46.5t-63 -46.5t-42.5 -132t-24.5 -206t-8 -270.5t8 -270t24.5 -205t42.5 -130.5t63 -45.5zM288 1443l-44 47l180 137q14 11 29.5 18.5t28.5 7.5q15 0 27 -7.5t18 -19.5q6 -10 6 -23q0 -19 -15.5 -35.5t-41.5 -27.5z" />
    <glyph glyph-name="oslashacute" unicode="&#x1ff;" horiz-adv-x="720" 
d="M83 -104l478 1224h71l-479 -1224h-70zM349 -22q-57 0 -110 35.5t-95.5 105t-66.5 172t-24 236.5q0 147 25.5 248.5t68.5 163.5t95.5 90.5t106.5 28.5t106.5 -28.5t96 -90.5t69.5 -163.5t26 -248.5q0 -134 -24.5 -236.5t-67 -172t-96 -105t-110.5 -35.5zM349 54
q51 0 82.5 113.5t31.5 359.5q0 244 -31.5 350t-82.5 106q-50 0 -82 -106t-32 -350q0 -246 32 -359.5t82 -113.5zM245 1082l-44 47l180 138q15 11 30 18.5t28 7.5q15 0 27 -7.5t18 -19.5q6 -11 6 -23q0 -19 -15.5 -35.5t-41.5 -27.5z" />
    <glyph glyph-name="uni0201" unicode="&#x201;" horiz-adv-x="728" 
d="M273 -21q-62 0 -112 30.5t-79 89.5t-29 143q0 94 37.5 156t93 104.5t111.5 76.5t93.5 71.5t37.5 90.5q0 74 -12 128t-37.5 82.5t-68.5 28.5q-50 0 -81.5 -30.5t-31.5 -69.5q0 -24 8.5 -39t16.5 -31.5t8 -44.5q0 -39 -20.5 -63t-55.5 -24q-36 0 -56.5 30.5t-20.5 83.5
q0 76 33.5 136t93.5 95t138 35q79 0 139 -34.5t93.5 -109.5t33.5 -198v-570q0 -46 9 -61.5t27 -15.5q17 0 28.5 8t16.5 15l38 -57q-14 -18 -52.5 -33.5t-88.5 -15.5q-49 0 -79 14.5t-44 38t-18 46.5q-5 -15 -23 -40.5t-53.5 -45.5t-93.5 -20zM326 75q33 0 55 26t33.5 63.5
t11.5 69.5v372q-3 -28 -32 -54.5t-65 -61t-63.5 -89.5t-27.5 -140q0 -91 23.5 -138.5t64.5 -47.5zM461 1107l-157 158q-16 16 -25 29.5t-9 28.5q0 26 15.5 40t36.5 14q28 0 44 -16t27 -36l113 -193zM266 1107l-157 158q-16 17 -25 30t-9 28q0 26 15.5 40t36.5 14
q28 0 44 -16t27 -36l113 -193z" />
    <glyph glyph-name="uni0203" unicode="&#x203;" horiz-adv-x="728" 
d="M273 -21q-62 0 -112 30.5t-79 89.5t-29 143q0 94 37.5 156t93 104.5t111.5 76.5t93.5 71.5t37.5 90.5q0 74 -12 128t-37.5 82.5t-68.5 28.5q-50 0 -81.5 -30.5t-31.5 -69.5q0 -24 8.5 -39t16.5 -31.5t8 -44.5q0 -39 -20.5 -63t-55.5 -24q-36 0 -56.5 30.5t-20.5 83.5
q0 76 33.5 136t93.5 95t138 35q79 0 139 -34.5t93.5 -109.5t33.5 -198v-570q0 -46 9 -61.5t27 -15.5q17 0 28.5 8t16.5 15l38 -57q-14 -18 -52.5 -33.5t-88.5 -15.5q-49 0 -79 14.5t-44 38t-18 46.5q-5 -15 -23 -40.5t-53.5 -45.5t-93.5 -20zM326 75q33 0 55 26t33.5 63.5
t11.5 69.5v372q-3 -28 -32 -54.5t-65 -61t-63.5 -89.5t-27.5 -140q0 -91 23.5 -138.5t64.5 -47.5zM349 1311q62 0 100 -27t55.5 -71t17.5 -93h-68q-4 62 -31.5 91.5t-73.5 29.5q-44 0 -71 -29.5t-32 -91.5h-67q0 49 17 93t55 71t98 27z" />
    <glyph glyph-name="uni0205" unicode="&#x205;" horiz-adv-x="675" 
d="M352 -21q-74 0 -130.5 41t-94 114.5t-56 173.5t-18.5 218q0 137 25 237.5t68 165.5t96 97t108 32q65 0 115 -36.5t84 -99.5t51.5 -144.5t17.5 -172.5q0 -21 -0.5 -41.5t-1.5 -41.5h-395v70h223q0 133 -9.5 220.5t-30 131.5t-54.5 44t-60 -44t-40.5 -139t-14.5 -249
q0 -115 6.5 -207t22 -157.5t42 -100.5t66.5 -35q66 0 103 36t51 71l60 -37q-20 -56 -84 -101.5t-150 -45.5zM516 1106l-158 158q-16 16 -25 29.5t-9 28.5q0 26 15.5 40t36.5 14q28 0 44 -16t27 -36l113 -193zM321 1106l-158 158q-16 17 -25 30t-9 28q0 26 15.5 40t36.5 14
q28 0 44 -16t27 -36l113 -193z" />
    <glyph glyph-name="uni0207" unicode="&#x207;" horiz-adv-x="675" 
d="M352 -21q-74 0 -130.5 41t-94 114.5t-56 173.5t-18.5 218q0 137 25 237.5t68 165.5t96 97t108 32q65 0 115 -36.5t84 -99.5t51.5 -144.5t17.5 -172.5q0 -21 -0.5 -41.5t-1.5 -41.5h-395v70h223q0 133 -9.5 220.5t-30 131.5t-54.5 44t-60 -44t-40.5 -139t-14.5 -249
q0 -115 6.5 -207t22 -157.5t42 -100.5t66.5 -35q66 0 103 36t51 71l60 -37q-20 -56 -84 -101.5t-150 -45.5zM345 1310q62 0 100 -27t55.5 -71t17.5 -93h-68q-4 62 -31.5 91.5t-73.5 29.5q-44 0 -71 -29.5t-32 -91.5h-67q0 49 17 93t55 71t98 27z" />
    <glyph glyph-name="uni0209" unicode="&#x209;" horiz-adv-x="448" 
d="M32 0v69h105v909h-105v69h285v-978h105v-69h-390zM397 1107l-158 158q-16 16 -25 29.5t-9 28.5q0 26 15.5 40t36.5 14q28 0 44 -16t27 -36l113 -193zM202 1107l-158 158q-16 17 -25 30t-9 28q0 26 15.5 40t36.5 14q28 0 44 -16t27 -36l113 -193z" />
    <glyph glyph-name="uni020B" unicode="&#x20b;" horiz-adv-x="448" 
d="M32 0v69h105v909h-105v69h285v-978h105v-69h-390zM226 1311q62 0 100 -27t55.5 -71t17.5 -93h-68q-4 62 -31.5 91.5t-73.5 29.5q-44 0 -71 -29.5t-32 -91.5h-67q0 49 17 93t55 71t98 27z" />
    <glyph glyph-name="uni020D" unicode="&#x20d;" horiz-adv-x="705" 
d="M349 -22q-57 0 -110 35.5t-95.5 105t-66.5 172t-24 236.5q0 147 25.5 248.5t68.5 163.5t95.5 90.5t106.5 28.5t106.5 -28.5t96 -90.5t69.5 -163.5t26 -248.5q0 -134 -24.5 -236.5t-67 -172t-96 -105t-110.5 -35.5zM349 54q51 0 82.5 113.5t31.5 359.5q0 244 -31.5 350
t-82.5 106q-50 0 -82 -106t-32 -350q0 -246 32 -359.5t82 -113.5zM520 1107l-158 158q-16 16 -25 29.5t-9 28.5q0 26 15.5 40t36.5 14q28 0 44 -16t27 -36l113 -193zM325 1107l-158 158q-16 17 -25 30t-9 28q0 26 15.5 40t36.5 14q28 0 44 -16t27 -36l113 -193z" />
    <glyph glyph-name="uni020F" unicode="&#x20f;" horiz-adv-x="705" 
d="M349 -22q-57 0 -110 35.5t-95.5 105t-66.5 172t-24 236.5q0 147 25.5 248.5t68.5 163.5t95.5 90.5t106.5 28.5t106.5 -28.5t96 -90.5t69.5 -163.5t26 -248.5q0 -134 -24.5 -236.5t-67 -172t-96 -105t-110.5 -35.5zM349 54q51 0 82.5 113.5t31.5 359.5q0 244 -31.5 350
t-82.5 106q-50 0 -82 -106t-32 -350q0 -246 32 -359.5t82 -113.5zM350 1311q62 0 100 -27t55.5 -71t17.5 -93h-68q-4 62 -31.5 91.5t-73.5 29.5q-44 0 -71 -29.5t-32 -91.5h-67q0 49 17 93t55 71t98 27z" />
    <glyph glyph-name="uni0211" unicode="&#x211;" horiz-adv-x="636" 
d="M25 0v69h105v909h-105v69h269l10 -95q4 13 22.5 38.5t50.5 46.5t75 21q54 0 87.5 -35.5t49.5 -95.5t16 -134q0 -56 -20.5 -85.5t-56.5 -29.5q-33 0 -53.5 24.5t-20.5 69.5q0 28 10.5 45t20 34.5t9.5 47.5q0 42 -15 61t-43 19q-34 0 -63 -31.5t-46 -85.5t-17 -122v-671
h105v-69h-390zM558 1107l-158 158q-16 16 -25 29.5t-9 28.5q0 26 15.5 40t36.5 14q28 0 44 -16t27 -36l113 -193zM363 1107l-158 158q-16 17 -25 30t-9 28q0 26 15.5 40t36.5 14q28 0 44 -16t27 -36l113 -193z" />
    <glyph glyph-name="uni0213" unicode="&#x213;" horiz-adv-x="636" 
d="M25 0v69h105v909h-105v69h269l10 -95q4 13 22.5 38.5t50.5 46.5t75 21q54 0 87.5 -35.5t49.5 -95.5t16 -134q0 -56 -20.5 -85.5t-56.5 -29.5q-33 0 -53.5 24.5t-20.5 69.5q0 28 10.5 45t20 34.5t9.5 47.5q0 42 -15 61t-43 19q-34 0 -63 -31.5t-46 -85.5t-17 -122v-671
h105v-69h-390zM388 1311q62 0 100 -27t55.5 -71t17.5 -93h-68q-4 62 -31.5 91.5t-73.5 29.5q-44 0 -71 -29.5t-32 -91.5h-67q0 49 17 93t55 71t98 27z" />
    <glyph glyph-name="uni0215" unicode="&#x215;" horiz-adv-x="789" 
d="M335 -22q-57 0 -106 24t-78.5 89.5t-29.5 191.5v695h-103v68h283v-743q0 -93 10 -142t29.5 -66.5t45.5 -17.5q35 0 60.5 35t39 95.5t13.5 137.5v633h-96v68h276v-977h90v-69h-249l-9 113q-5 -26 -26.5 -57.5t-59 -54.5t-90.5 -23zM573 1107l-158 158q-16 16 -25 29.5
t-9 28.5q0 26 15.5 40t36.5 14q28 0 44 -16t27 -36l113 -193zM378 1107l-158 158q-16 17 -25 30t-9 28q0 26 15.5 40t36.5 14q28 0 44 -16t27 -36l113 -193z" />
    <glyph glyph-name="uni0217" unicode="&#x217;" horiz-adv-x="789" 
d="M335 -22q-57 0 -106 24t-78.5 89.5t-29.5 191.5v695h-103v68h283v-743q0 -93 10 -142t29.5 -66.5t45.5 -17.5q35 0 60.5 35t39 95.5t13.5 137.5v633h-96v68h276v-977h90v-69h-249l-9 113q-5 -26 -26.5 -57.5t-59 -54.5t-90.5 -23zM402 1311q62 0 100 -27t55.5 -71
t17.5 -93h-68q-4 62 -31.5 91.5t-73.5 29.5q-44 0 -71 -29.5t-32 -91.5h-67q0 49 17 93t55 71t98 27z" />
    <glyph glyph-name="uni0218" unicode="&#x218;" horiz-adv-x="639" 
d="M337 -27q-49 0 -79.5 12.5t-49.5 29t-32 29t-26 12.5q-24 0 -24 -56h-62v317h69q1 -26 10.5 -61.5t26 -72t41 -67.5t56 -51t71.5 -20q46 0 71 22.5t35 63.5t10 97q0 66 -26.5 132t-71.5 135t-101 142q-77 100 -118 182t-56 153.5t-15 138.5q0 100 33 169.5t87.5 105.5
t119.5 36q56 0 85 -18t44.5 -36.5t30.5 -18.5q13 0 19 11t7 40h63v-315h-70q-2 36 -13.5 81.5t-32.5 87.5t-53.5 69.5t-76.5 27.5q-55 0 -86 -41.5t-31 -116.5q0 -54 18.5 -110.5t60 -123t107.5 -151.5q64 -78 110.5 -157.5t72.5 -162.5t26 -173q0 -93 -19.5 -158
t-53.5 -105.5t-79.5 -59.5t-97.5 -19zM328 -350l-36 42q10 5 30 21.5t24 30.5q-2 -3 -11 -3q-30 0 -50.5 20.5t-20.5 50.5q0 31 21 51.5t51 20.5q34 0 56.5 -22t22.5 -62q0 -39 -15 -68t-35.5 -49t-36.5 -33z" />
    <glyph glyph-name="uni0219" unicode="&#x219;" horiz-adv-x="566" 
d="M292 -22q-55 0 -83.5 14t-43.5 27.5t-29 13.5q-13 0 -18 -8.5t-5 -24.5h-60v307h72q5 -58 17.5 -106t32.5 -82t48.5 -53t64.5 -19t57.5 18t31.5 46.5t10 59.5q0 48 -16.5 93t-49.5 92t-84 100q-73 78 -125.5 160t-52.5 201q0 83 31.5 136t81.5 79t106 26q42 0 67 -10.5
t40 -21.5t26 -11q8 0 12.5 7.5t5.5 24.5h62v-298h-71q-4 53 -14 97t-27 75.5t-41 48.5t-57 17q-48 0 -72.5 -35.5t-24.5 -88.5q0 -63 37 -118t107 -126q55 -58 97 -115.5t65.5 -121.5t23.5 -141q0 -85 -27 -143.5t-77 -89t-118 -30.5zM284 -350l-36 42q10 5 30 21.5t24 30.5
q-2 -3 -11 -3q-30 0 -50.5 20.5t-20.5 50.5q0 31 21 51.5t51 20.5q34 0 56.5 -22t22.5 -62q0 -39 -15 -68t-35.5 -49t-36.5 -33z" />
    <glyph glyph-name="uni021A" unicode="&#x21a;" horiz-adv-x="757" 
d="M175 0v69h114v1262h-58q-55 0 -81 -22t-34 -73t-8 -140h-70v304h681v-304h-70q0 89 -8 140t-34 73t-81 22h-58v-1262h119v-69h-412zM371 -350l-36 42q10 5 30 21.5t24 30.5q-2 -3 -11 -3q-30 0 -50.5 20.5t-20.5 50.5q0 31 21 51.5t51 20.5q34 0 56.5 -22t22.5 -62
q0 -39 -15 -68t-35.5 -49t-36.5 -33z" />
    <glyph glyph-name="uni021B" unicode="&#x21b;" horiz-adv-x="494" 
d="M329 -18q-49 0 -94 16.5t-73.5 61.5t-28.5 131v787h-131v69h131q30 20 52.5 66t37 105.5t18.5 119.5h72v-291h154v-69h-154v-852q0 -42 18 -56t36 -14q19 0 33.5 8t22.5 17l40 -55q-22 -19 -55.5 -31.5t-78.5 -12.5zM307 -338l-36 42q10 5 30 21.5t24 30.5q-2 -3 -11 -3
q-30 0 -50.5 20.5t-20.5 50.5q0 31 21 51.5t51 20.5q34 0 56.5 -22t22.5 -62q0 -39 -15 -68t-35.5 -49t-36.5 -33z" />
    <glyph glyph-name="uni0229" unicode="&#x229;" horiz-adv-x="675" 
d="M352 -21q-74 0 -130.5 41t-94 114.5t-56 173.5t-18.5 218q0 137 25 237.5t68 165.5t96 97t108 32q65 0 115 -37t84 -101.5t51.5 -150.5t17.5 -184q0 -21 -0.5 -41.5t-1.5 -41.5h-395v70h223q0 133 -9.5 225.5t-30 141.5t-54.5 49t-60 -49t-40.5 -149t-14.5 -254
q0 -114 6.5 -204t22 -152.5t42 -95.5t66.5 -33q66 0 103 38.5t51 73.5l60 -37q-20 -56 -84 -101.5t-150 -45.5zM395 -308q-52 0 -92.5 10.5t-55.5 18.5l26 62q10 -7 43 -17t74 -10q31 0 55 15.5t24 43.5q0 31 -15.5 41t-37.5 10q-16 0 -33.5 -7t-29.5 -21l-65 4l61 158h69
l-45 -105q5 6 29 15.5t56 9.5q38 0 71.5 -23.5t33.5 -82.5q0 -42 -24 -69.5t-62.5 -40t-81.5 -12.5z" />
    <glyph glyph-name="uni022B" unicode="&#x22b;" horiz-adv-x="705" 
d="M349 -22q-57 0 -110 35.5t-95.5 105t-66.5 172t-24 236.5q0 147 25.5 248.5t68.5 163.5t95.5 90.5t106.5 28.5t106.5 -28.5t96 -90.5t69.5 -163.5t26 -248.5q0 -134 -24.5 -236.5t-67 -172t-96 -105t-110.5 -35.5zM349 54q51 0 82.5 113.5t31.5 359.5q0 244 -31.5 350
t-82.5 106q-50 0 -82 -106t-32 -350q0 -246 32 -359.5t82 -113.5zM468 1129q-33 0 -56.5 23.5t-23.5 54.5q0 35 23.5 59.5t56.5 24.5q32 0 56 -24.5t24 -59.5q0 -31 -24 -54.5t-56 -23.5zM232 1129q-31 0 -54.5 23.5t-23.5 54.5q0 35 23.5 59.5t54.5 24.5q33 0 57.5 -24.5
t24.5 -59.5q0 -31 -24.5 -54.5t-57.5 -23.5zM133 1380v70h436v-70h-436z" />
    <glyph glyph-name="uni022D" unicode="&#x22d;" horiz-adv-x="705" 
d="M349 -22q-57 0 -110 35.5t-95.5 105t-66.5 172t-24 236.5q0 147 25.5 248.5t68.5 163.5t95.5 90.5t106.5 28.5t106.5 -28.5t96 -90.5t69.5 -163.5t26 -248.5q0 -134 -24.5 -236.5t-67 -172t-96 -105t-110.5 -35.5zM349 54q51 0 82.5 113.5t31.5 359.5q0 244 -31.5 350
t-82.5 106q-50 0 -82 -106t-32 -350q0 -246 32 -359.5t82 -113.5zM436 1134q-39 0 -65 15.5t-47 30.5t-45 15q-32 0 -49 -17t-22 -28l-68 30q6 19 22.5 42.5t43 41.5t60.5 18q42 0 68 -15t47.5 -30.5t50.5 -15.5q30 0 43.5 15t19.5 26l66 -34q-4 -15 -20.5 -37t-42.5 -39.5
t-62 -17.5zM84 1372v70h533v-70h-533z" />
    <glyph glyph-name="uni0231" unicode="&#x231;" horiz-adv-x="705" 
d="M349 -22q-57 0 -110 35.5t-95.5 105t-66.5 172t-24 236.5q0 147 25.5 248.5t68.5 163.5t95.5 90.5t106.5 28.5t106.5 -28.5t96 -90.5t69.5 -163.5t26 -248.5q0 -134 -24.5 -236.5t-67 -172t-96 -105t-110.5 -35.5zM349 54q51 0 82.5 113.5t31.5 359.5q0 244 -31.5 350
t-82.5 106q-50 0 -82 -106t-32 -350q0 -246 32 -359.5t82 -113.5zM351 1134q-33 0 -57 23.5t-24 55.5q0 33 24 57.5t57 24.5q31 0 55 -24.5t24 -57.5q0 -32 -24 -55.5t-55 -23.5zM85 1383v70h533v-70h-533z" />
    <glyph glyph-name="uni0233" unicode="&#x233;" horiz-adv-x="674" 
d="M198 -502q-44 0 -73.5 32.5t-43.5 88t-14 125.5q0 53 20 81.5t55 28.5q34 0 53.5 -25t19.5 -68q0 -33 -11.5 -53.5t-23 -39t-11.5 -45.5q0 -26 8.5 -47t27.5 -21q12 0 19.5 10t14 31t12.5 53l73 354l-224 975h-83v69h351v-69h-76l120 -573l110 573h-74v69h227v-69h-75
l-206 -985l-77 -361q-9 -43 -23.5 -73t-37.5 -45.5t-58 -15.5zM79 1135v70h533v-70h-533z" />
    <glyph glyph-name="uni0237" unicode="&#x237;" horiz-adv-x="457" 
d="M87 -498q-56 0 -97 32t-63.5 87t-22.5 125q0 53 23.5 81.5t58.5 28.5q34 0 52 -24.5t18 -67.5q0 -28 -6.5 -48t-14 -38.5t-7.5 -41.5q0 -21 6.5 -35.5t18 -21t25.5 -6.5q52 0 73 59t21 172v1174h-113v69h293v-1118q0 -122 -23 -204.5t-61.5 -131.5t-85.5 -70t-95 -21z
" />
    <glyph glyph-name="uni0244" unicode="&#x244;" horiz-adv-x="796" 
d="M78 832v69h666v-69h-666zM405 -24q-46 0 -94 14.5t-88 52t-64.5 104.5t-24.5 171v1013h-98v69h383v-69h-103v-1013q0 -143 34.5 -202t95.5 -59q27 0 50 11.5t41.5 38.5t28.5 74t10 119v1031h-86v69h251v-69h-95v-1041q0 -120 -30.5 -188.5t-85 -97t-125.5 -28.5z" />
    <glyph glyph-name="uni0259" unicode="&#x259;" horiz-adv-x="683" 
d="M61 1046h65q0 -30 5 -47.5t16 -17.5l7 -88h-93v153zM326 1067q75 0 131 -41t93.5 -114.5t56 -173.5t18.5 -218q0 -137 -25 -237.5t-68 -165.5t-96 -97t-108 -32q-65 0 -115 37t-84 101.5t-51.5 150.5t-17.5 184q0 21 0.5 41.5t1.5 41.5h395v-70h-223q0 -133 9.5 -225.5
t30 -141.5t54.5 -49t60 49t40.5 149.5t14.5 253.5q0 114 -6.5 204t-22 152.5t-42 95.5t-66.5 33q-66 0 -103 -38.5t-51 -73.5l-60 37q20 56 84.5 101.5t149.5 45.5z" />
    <glyph glyph-name="uni0289" unicode="&#x289;" horiz-adv-x="846" 
d="M37 596v69h731v-69h-731zM335 -22q-57 0 -106 24t-78.5 89.5t-29.5 191.5v695h-103v68h283v-743q0 -93 10 -142t29.5 -66.5t45.5 -17.5q35 0 60.5 35t39 95.5t13.5 137.5v633h-96v68h276v-977h90v-69h-249l-9 113q-5 -26 -26.5 -57.5t-59 -54.5t-90.5 -23z" />
    <glyph glyph-name="uni02BC" unicode="&#x2bc;" horiz-adv-x="542" 
d="M280 1174l-52 61q14 7 43.5 30t35.5 44q-2 -1 -6.5 -2.5t-10.5 -1.5q-43 0 -72.5 30t-29.5 73q0 44 30.5 73t72.5 29q49 0 81.5 -31t32.5 -90q0 -55 -21.5 -97t-51 -71t-52.5 -47z" />
    <glyph glyph-name="circumflex" unicode="&#x2c6;" horiz-adv-x="694" 
d="M202 1274l148 205h70l146 -205h-78l-104 135l-103 -135h-79z" />
    <glyph glyph-name="caron" unicode="&#x2c7;" horiz-adv-x="692" 
d="M350 1254l-162 219h84l112 -148l113 148h85l-162 -219h-70z" />
    <glyph glyph-name="uni02C9" unicode="&#x2c9;" horiz-adv-x="925" 
d="M230 1356v69h603v-69h-603z" />
    <glyph glyph-name="breve" unicode="&#x2d8;" horiz-adv-x="696" 
d="M346 1260q-61 0 -98.5 27t-55 71t-17.5 93h68q4 -61 31.5 -91t71.5 -30q46 0 73.5 30t31.5 91h68q0 -49 -17.5 -93t-55.5 -71t-100 -27z" />
    <glyph glyph-name="dotaccent" unicode="&#x2d9;" horiz-adv-x="659" 
d="M310 1306q-33 0 -57 23.5t-24 55.5q0 33 24 57.5t57 24.5q31 0 55 -24.5t24 -57.5q0 -32 -24 -55.5t-55 -23.5z" />
    <glyph glyph-name="ring" unicode="&#x2da;" horiz-adv-x="485" 
d="M248 1144q-44 0 -76 32.5t-32 85.5q0 55 32 86.5t76 31.5t75.5 -31.5t31.5 -86.5q0 -53 -31.5 -85.5t-75.5 -32.5zM248 1197q26 0 37.5 20t11.5 47q0 23 -11.5 43t-37.5 20q-25 0 -37 -20t-12 -43q0 -27 12 -47t37 -20z" />
    <glyph glyph-name="ogonek" unicode="&#x2db;" horiz-adv-x="645" 
d="M346 -298q-41 0 -79 14t-61.5 45t-23.5 80t24 85t56 60t55 37l29 -23q-22 -23 -44 -57t-22 -82q0 -47 31 -60.5t60 -13.5q25 0 53 6.5t47 17.5l32 -59q-24 -21 -65.5 -35.5t-91.5 -14.5z" />
    <glyph glyph-name="tilde" unicode="&#x2dc;" horiz-adv-x="705" 
d="M432 1282q-39 0 -66.5 15.5t-49.5 31t-46 15.5q-32 0 -50.5 -17.5t-23.5 -28.5l-65 28q6 18 24 42.5t45.5 43.5t61.5 19q42 0 68 -15.5t48.5 -31t51.5 -15.5q33 0 47.5 15t19.5 27l65 -30q-4 -15 -21.5 -38t-45 -42t-63.5 -19z" />
    <glyph glyph-name="hungarumlaut" unicode="&#x2dd;" horiz-adv-x="965" 
d="M410 1227l-44 44l118 140q19 31 41.5 34t37 -11.5t13 -37t-30.5 -42.5zM426 1227l-43 44l116 140q20 31 42 34t37 -11.5t13.5 -37t-30.5 -42.5z" />
    <glyph glyph-name="gravecomb" unicode="&#x300;" 
d="M367 1104l-203 95q-27 13 -41 26t-14 38q0 23 16 36t39 13q20 0 34 -7.5t28 -19.5l174 -142z" />
    <glyph glyph-name="acutecomb" unicode="&#x301;" 
d="M204 1101l-44 47l180 138q15 11 30 18.5t28 7.5q15 0 27 -7.5t18 -19.5q6 -11 6 -23q0 -19 -15.5 -35.5t-41.5 -27.5z" />
    <glyph glyph-name="uni0302" unicode="&#x302;" 
d="M162 1114l148 205h70l146 -205h-78l-104 135l-103 -135h-79z" />
    <glyph glyph-name="tildecomb" unicode="&#x303;" 
d="M432 1133q-39 0 -65 15.5t-47 30.5t-45 15q-32 0 -49 -17t-22 -28l-68 30q6 19 22.5 42.5t43 41.5t60.5 18q42 0 68 -15t47.5 -30.5t50.5 -15.5q30 0 43.5 15t19.5 26l66 -34q-4 -15 -20.5 -37t-42.5 -39.5t-62 -17.5z" />
    <glyph glyph-name="uni0304" unicode="&#x304;" 
d="M270 1134v70h533v-70h-533z" />
    <glyph glyph-name="uni0306" unicode="&#x306;" 
d="M344 1102q-61 0 -98.5 27t-55 71t-17.5 93h68q4 -61 31.5 -91t71.5 -30q46 0 73.5 30t31.5 91h68q0 -49 -17.5 -93t-55.5 -71t-100 -27z" />
    <glyph glyph-name="uni0307" unicode="&#x307;" 
d="M307 1133q-33 0 -57 23.5t-24 55.5q0 33 24 57.5t57 24.5q31 0 55 -24.5t24 -57.5q0 -32 -24 -55.5t-55 -23.5z" />
    <glyph glyph-name="uni0308" unicode="&#x308;" 
d="M517 1129q-33 0 -56.5 23.5t-23.5 54.5q0 35 23.5 59.5t56.5 24.5q32 0 56 -24.5t24 -59.5q0 -31 -24 -54.5t-56 -23.5zM281 1129q-31 0 -54.5 23.5t-23.5 54.5q0 35 23.5 59.5t54.5 24.5q33 0 57.5 -24.5t24.5 -59.5q0 -31 -24.5 -54.5t-57.5 -23.5z" />
    <glyph glyph-name="hookabovecomb" unicode="&#x309;" 
d="M299 1413q56 0 98 -24t42 -83q0 -44 -26 -72t-52.5 -49.5t-26.5 -47.5h-60q0 40 18 66t35 47.5t17 50.5t-16 39t-45 10q-25 0 -44.5 -7.5t-33.5 -20.5l-46 46q18 20 57.5 32.5t82.5 12.5z" />
    <glyph glyph-name="uni030A" unicode="&#x30a;" 
d="M248 1096q-44 0 -76 32.5t-32 85.5q0 55 32 86t76 31t75.5 -31t31.5 -86q0 -53 -31.5 -85.5t-75.5 -32.5zM248 1149q26 0 37.5 20t11.5 47q0 22 -11.5 42t-37.5 20q-25 0 -37 -20t-12 -42q0 -27 12 -47t37 -20z" />
    <glyph glyph-name="uni030B" unicode="&#x30b;" 
d="M410 1123l-44 44l117 140q14 17 26 25.5t24 8.5q18 0 30 -12.5t12 -30.5q0 -26 -30 -48zM426 1123l-43 44l115 140q14 17 26.5 25.5t24.5 8.5q18 0 30 -12.5t12 -30.5q0 -27 -30 -48z" />
    <glyph glyph-name="uni030C" unicode="&#x30c;" 
d="M315 1105l-162 219h84l112 -148l113 148h84l-161 -219h-70z" />
    <glyph glyph-name="uni030F" unicode="&#x30f;" 
d="M449 1106l-158 158q-16 16 -25 29.5t-9 28.5q0 26 15.5 40t36.5 14q28 0 44 -16t27 -36l113 -193zM254 1106l-158 158q-16 17 -25 30t-9 28q0 26 15.5 40t36.5 14q28 0 44 -16t27 -36l113 -193z" />
    <glyph glyph-name="uni0311" unicode="&#x311;" 
d="M331 1310q62 0 100 -27t55.5 -71t17.5 -93h-68q-4 62 -31.5 91.5t-73.5 29.5q-44 0 -71 -29.5t-32 -91.5h-67q0 49 17 93t55 71t98 27z" />
    <glyph glyph-name="uni0312" unicode="&#x312;" 
d="M250 1348l37 -37q-10 -4 -32.5 -24t-26.5 -34q5 5 15 5q30 0 50.5 -21t20.5 -51t-21 -50.5t-51 -20.5q-33 0 -57 21.5t-24 62.5q0 39 15.5 68t36.5 49.5t37 31.5z" />
    <glyph glyph-name="uni031B" unicode="&#x31b;" 
d="M236 977v69q48 0 86.5 13t38.5 61q0 19 -6 44t-6 44q0 32 17 51t47 19q31 0 47.5 -18.5t16.5 -51.5q0 -93 -39.5 -143t-95.5 -69t-106 -19z" />
    <glyph glyph-name="dotbelowcomb" unicode="&#x323;" 
d="M307 -263q-33 0 -57 24t-24 55q0 33 24 57.5t57 24.5q31 0 55 -24.5t24 -57.5q0 -31 -24 -55t-55 -24z" />
    <glyph glyph-name="uni0324" unicode="&#x324;" 
d="M405 -260q-32 0 -56 24t-24 55q0 34 24 59t56 25t56 -25t24 -59q0 -31 -24 -55t-56 -24zM170 -260q-32 0 -55.5 24t-23.5 55q0 34 23.5 59t55.5 25t56.5 -25t24.5 -59q0 -31 -24.5 -55t-56.5 -24z" />
    <glyph glyph-name="uni0326" unicode="&#x326;" 
d="M218 -350l-36 42q10 5 30 21.5t24 30.5q-2 -3 -11 -3q-30 0 -50.5 20.5t-20.5 50.5q0 31 21 51.5t51 20.5q34 0 56.5 -22t22.5 -62q0 -39 -15 -68t-35.5 -49t-36.5 -33z" />
    <glyph glyph-name="uni0327" unicode="&#x327;" 
d="M304 -308q-51 0 -92 10.5t-56 18.5l26 62q10 -7 43 -17t74 -10q32 0 55.5 15.5t23.5 43.5q0 31 -15.5 41t-37.5 10q-16 0 -33 -7t-29 -21l-66 4l61 158h70l-45 -105q5 6 28.5 15.5t55.5 9.5q39 0 72.5 -23.5t33.5 -82.5q0 -42 -24 -69.5t-62.5 -40t-82.5 -12.5z" />
    <glyph glyph-name="uni0328" unicode="&#x328;" 
d="M346 -298q-41 0 -79 14t-61.5 45t-23.5 80t24 85t56 60t55 37l29 -23q-22 -23 -44 -57t-22 -82q0 -47 31 -60.5t60 -13.5q25 0 53 6.5t47 17.5l32 -59q-24 -21 -65.5 -35.5t-91.5 -14.5z" />
    <glyph glyph-name="uni032E" unicode="&#x32e;" 
d="M262 -294q-61 0 -98.5 27t-55 71t-17.5 93h67q5 -61 32 -91t72 -30t72.5 30t31.5 91h68q0 -49 -17 -93t-55 -71t-100 -27z" />
    <glyph glyph-name="uni0331" unicode="&#x331;" 
d="M225 -206v60h604v-60h-604z" />
    <glyph glyph-name="uni0335" unicode="&#x335;" 
d="M102 528v69h462v-69h-462z" />
    <glyph glyph-name="uni0336" unicode="&#x336;" 
d="M102 528v69h462v-69h-462z" />
    <glyph glyph-name="uni0337" unicode="&#x337;" 
d="M33 -104l498 1608h71l-495 -1608h-74z" />
    <glyph glyph-name="uni0338" unicode="&#x338;" 
d="M33 -104l498 1608h71l-495 -1608h-74z" />
    <glyph glyph-name="uni1E05" unicode="&#x1e05;" horiz-adv-x="759" 
d="M433 -20q-49 0 -79 25t-44.5 58t-17.5 58l-15 -121h-260v69h104v1362h-104v69h287v-557q4 15 19 42.5t45 49.5t79 22q67 0 122.5 -54.5t89 -173t33.5 -311.5q0 -200 -35.5 -318t-94.5 -169t-129 -51zM400 90q29 0 50 27t34 81t19.5 133t6.5 183q0 98 -5.5 176t-18.5 133
t-33 84.5t-50 29.5q-27 0 -48 -28t-34 -71t-17 -90v-393q2 -63 14.5 -124.5t34 -101t47.5 -39.5zM379 -263q-33 0 -57 24t-24 55q0 33 24 57.5t57 24.5q31 0 55 -24.5t24 -57.5q0 -31 -24 -55t-55 -24z" />
    <glyph glyph-name="uni1E08" unicode="&#x1e08;" horiz-adv-x="679" 
d="M406 -20q-151 0 -246.5 184t-95.5 534q0 132 21.5 260.5t65.5 233t110 167.5t154 63q60 0 105.5 -41t70.5 -102.5t25 -122.5q0 -53 -18.5 -82.5t-57.5 -29.5q-42 0 -61 25t-19 69q0 29 11 49.5t22 41.5t11 53q0 35 -17 51.5t-41 16.5q-40 0 -71.5 -41.5t-54 -111.5
t-36.5 -155.5t-21 -174.5t-7 -167q0 -115 8 -215t23.5 -180t37 -137t48.5 -87.5t58 -30.5q37 0 61.5 22.5t40.5 59t27 76.5l60 -32q-18 -54 -46.5 -98t-69.5 -71t-98 -27zM419 -308q-51 0 -91.5 10.5t-55.5 18.5l25 62q11 -7 44 -17t74 -10q31 0 55 15.5t24 43.5
q0 31 -15.5 41t-37.5 10q-16 0 -33.5 -7t-29.5 -21l-66 4l61 158h70l-45 -105q5 6 29 15.5t56 9.5q38 0 71.5 -23.5t33.5 -82.5q0 -42 -24 -69.5t-62.5 -40t-82.5 -12.5zM292 1463l-44 47l180 137q14 11 29.5 18.5t28.5 7.5q15 0 27 -7.5t18 -19.5q6 -10 6 -23
q0 -19 -15.5 -35.5t-41.5 -27.5z" />
    <glyph glyph-name="uni1E09" unicode="&#x1e09;" horiz-adv-x="637" 
d="M254 1082l-44 47l180 138q15 11 30 18.5t28 7.5q15 0 27 -7.5t18 -19.5q6 -11 6 -23q0 -19 -15.5 -35.5t-41.5 -27.5zM365 -21q-71 0 -128.5 42.5t-99 118t-63.5 176t-22 215.5q0 137 30 236t77.5 163.5t103.5 96t106 31.5q71 0 120 -39.5t74.5 -102t25.5 -131.5
q0 -51 -20.5 -79t-54.5 -28q-35 0 -56.5 24.5t-21.5 64.5q0 26 9 41t18 31.5t9 42.5q0 50 -27 77t-66 27q-40 0 -67 -41t-43 -107t-22.5 -145t-6.5 -155q0 -82 7 -167t23.5 -156.5t46.5 -115.5t77 -44q55 0 85 30.5t45 74.5l53 -45q-19 -48 -71.5 -92t-140.5 -44zM402 -307
q-52 0 -92.5 10.5t-55.5 18.5l25 62q11 -7 44 -17t74 -10q31 0 55 15.5t24 43.5q0 31 -15.5 41t-37.5 10q-16 0 -33.5 -7t-29.5 -21l-65 4l61 158h69l-45 -105q5 6 29 15.5t56 9.5q38 0 71.5 -23.5t33.5 -82.5q0 -42 -24 -69.5t-62.5 -40t-81.5 -12.5z" />
    <glyph glyph-name="uni1E0D" unicode="&#x1e0d;" horiz-adv-x="765" 
d="M326 -20q-70 0 -128.5 51t-94 169t-35.5 318q0 193 34.5 311.5t90.5 173t121 54.5q52 0 82 -19t44 -44t18 -42v478h-116v70h299v-1431h113v-69h-268l-16 122q-2 -27 -19 -60.5t-48 -57.5t-77 -24zM360 90q29 0 49.5 37.5t33.5 95t15 116.5v409q-4 51 -17.5 94.5t-35 70
t-48.5 26.5q-28 0 -48.5 -31t-33.5 -87.5t-19 -134.5t-6 -172q0 -102 6.5 -181.5t20 -133.5t34 -81.5t49.5 -27.5zM386 -263q-33 0 -57 24t-24 55q0 33 24 57.5t57 24.5q31 0 55 -24.5t24 -57.5q0 -31 -24 -55t-55 -24z" />
    <glyph glyph-name="uni1E0F" unicode="&#x1e0f;" horiz-adv-x="765" 
d="M326 -20q-70 0 -128.5 51t-94 169t-35.5 318q0 193 34.5 311.5t90.5 173t121 54.5q52 0 82 -19t44 -44t18 -42v478h-116v70h299v-1431h113v-69h-268l-16 122q-2 -27 -19 -60.5t-48 -57.5t-77 -24zM360 90q29 0 49.5 37.5t33.5 95t15 116.5v409q-4 51 -17.5 94.5t-35 70
t-48.5 26.5q-28 0 -48.5 -31t-33.5 -87.5t-19 -134.5t-6 -172q0 -102 6.5 -181.5t20 -133.5t34 -81.5t49.5 -27.5zM67 -255v70h533v-70h-533z" />
    <glyph glyph-name="uni1E15" unicode="&#x1e15;" horiz-adv-x="675" 
d="M352 -21q-74 0 -130.5 41t-94 114.5t-56 173.5t-18.5 218q0 137 25 237.5t68 165.5t96 97t108 32q65 0 115 -36.5t84 -99.5t51.5 -144.5t17.5 -172.5q0 -21 -0.5 -41.5t-1.5 -41.5h-395v70h223q0 133 -9.5 220.5t-30 131.5t-54.5 44t-60 -44t-40.5 -139t-14.5 -249
q0 -115 6.5 -207t22 -157.5t42 -100.5t66.5 -35q66 0 103 36t51 71l60 -37q-20 -56 -84 -101.5t-150 -45.5zM80 1134v70h533v-70h-533zM455 1261l-203 95q-27 13 -41 26t-14 38q0 23 16 36t39 13q20 0 34 -7.5t28 -19.5l174 -142z" />
    <glyph glyph-name="uni1E17" unicode="&#x1e17;" horiz-adv-x="675" 
d="M352 -21q-74 0 -130.5 41t-94 114.5t-56 173.5t-18.5 218q0 137 25 237.5t68 165.5t96 97t108 32q65 0 115 -36.5t84 -99.5t51.5 -144.5t17.5 -172.5q0 -21 -0.5 -41.5t-1.5 -41.5h-395v70h223q0 133 -9.5 220.5t-30 131.5t-54.5 44t-60 -44t-40.5 -139t-14.5 -249
q0 -115 6.5 -207t22 -157.5t42 -100.5t66.5 -35q66 0 103 36t51 71l60 -37q-20 -56 -84 -101.5t-150 -45.5zM80 1134v70h533v-70h-533zM240 1239l-44 47l180 138q15 11 30 18.5t28 7.5q15 0 27 -7.5t18 -19.5q6 -11 6 -23q0 -19 -15.5 -35.5t-41.5 -27.5z" />
    <glyph glyph-name="uni1E1D" unicode="&#x1e1d;" horiz-adv-x="675" 
d="M343 1102q-61 0 -98.5 27t-55 71t-17.5 93h68q4 -61 31.5 -91t71.5 -30q46 0 73.5 30t31.5 91h68q0 -49 -17.5 -93t-55.5 -71t-100 -27zM352 -21q-74 0 -130.5 41t-94 114.5t-56 173.5t-18.5 218q0 137 25 237.5t68 165.5t96 97t108 32q65 0 115 -37t84 -101.5
t51.5 -150.5t17.5 -184q0 -21 -0.5 -41.5t-1.5 -41.5h-395v70h223q0 133 -9.5 225.5t-30 141.5t-54.5 49t-60 -49t-40.5 -149t-14.5 -254q0 -114 6.5 -204t22 -152.5t42 -95.5t66.5 -33q66 0 103 38.5t51 73.5l60 -37q-20 -56 -84 -101.5t-150 -45.5zM395 -308
q-52 0 -92.5 10.5t-55.5 18.5l26 62q10 -7 43 -17t74 -10q31 0 55 15.5t24 43.5q0 31 -15.5 41t-37.5 10q-16 0 -33.5 -7t-29.5 -21l-65 4l61 158h69l-45 -105q5 6 29 15.5t56 9.5q38 0 71.5 -23.5t33.5 -82.5q0 -42 -24 -69.5t-62.5 -40t-81.5 -12.5z" />
    <glyph glyph-name="uni1E21" unicode="&#x1e21;" horiz-adv-x="750" 
d="M370 -498q-89 0 -161.5 33t-115 93t-42.5 140q0 64 20.5 108t49.5 71t55 41t37 18q-8 2 -28.5 11t-43.5 27.5t-40 49.5t-17 77q0 38 14.5 65t35.5 43t40 20q4 1 10.5 2.5t8.5 0.5q-9 8 -26.5 30.5t-36 62.5t-31 100t-12.5 140q0 120 26 200.5t68.5 129.5t92.5 71t98 22
q90 0 151.5 -51t93.5 -142.5t32 -213.5q0 -121 -25.5 -202t-67.5 -129t-91.5 -68.5t-96.5 -20.5q-51 0 -81 11.5t-36 14.5q-1 0 -2 0.5t-4 0.5q-16 0 -33.5 -18t-17.5 -48q0 -43 43.5 -70t163.5 -47q144 -22 219 -89t75 -198q0 -79 -30 -133.5t-79 -88t-106 -49t-110 -15.5z
M370 -432q72 0 116 53t44 128q0 84 -24.5 125.5t-88.5 64.5q-20 9 -42.5 17.5t-41.5 15t-30 9.5q-27 -14 -49.5 -43.5t-35.5 -70.5t-13 -94q0 -56 18.5 -102t55.5 -74.5t91 -28.5zM368 302q27 0 49.5 25t36 99t13.5 221q0 142 -13.5 214.5t-35.5 98.5t-48 26t-49 -26
t-37.5 -100t-14.5 -218q0 -145 14.5 -217.5t37 -97.5t47.5 -25zM471 987q10 64 59 101t104 37q46 0 65 -21.5t19 -55.5q0 -32 -17.5 -50.5t-45.5 -18.5q-26 0 -37.5 12t-19.5 24t-28 12q-13 0 -23 -10t-10 -32zM102 1135v70h533v-70h-533z" />
    <glyph glyph-name="uni1E25" unicode="&#x1e25;" horiz-adv-x="829" 
d="M33 0v69h103v1362h-103v69h283v-557q1 12 23 40t61.5 52t94.5 24t102 -28t76 -98.5t29 -199.5v-664h103v-69h-359v69h76v647q0 125 -21.5 175t-66.5 50q-30 0 -56.5 -26.5t-43.5 -71t-18 -99.5v-675h78v-69h-361zM418 -263q-33 0 -57 24t-24 55q0 33 24 57.5t57 24.5
q31 0 55 -24.5t24 -57.5q0 -31 -24 -55t-55 -24z" />
    <glyph glyph-name="uni1E2B" unicode="&#x1e2b;" horiz-adv-x="829" 
d="M33 0v69h103v1362h-103v69h283v-557q1 12 23 40t61.5 52t94.5 24t102 -28t76 -98.5t29 -199.5v-664h103v-69h-359v69h76v647q0 125 -21.5 175t-66.5 50q-30 0 -56.5 -26.5t-43.5 -71t-18 -99.5v-675h78v-69h-361zM417 -294q-61 0 -98.5 27t-55 71t-17.5 93h67
q5 -61 32 -91t72 -30t72.5 30t31.5 91h68q0 -49 -17 -93t-55 -71t-100 -27z" />
    <glyph glyph-name="uni1E2F" unicode="&#x1e2f;" horiz-adv-x="448" 
d="M32 0v69h105v909h-105v69h285v-978h105v-69h-390zM344 1129q-33 0 -56.5 23.5t-23.5 54.5q0 35 23.5 59.5t56.5 24.5q32 0 56 -24.5t24 -59.5q0 -31 -24 -54.5t-56 -23.5zM108 1129q-31 0 -54.5 23.5t-23.5 54.5q0 35 23.5 59.5t54.5 24.5q33 0 57.5 -24.5t24.5 -59.5
q0 -31 -24.5 -54.5t-57.5 -23.5zM121 1327l-44 47l180 138q15 11 30 18.5t28 7.5q15 0 27 -7.5t18 -19.5q6 -11 6 -23q0 -19 -15.5 -35.5t-41.5 -27.5z" />
    <glyph glyph-name="uni1E37" unicode="&#x1e37;" horiz-adv-x="455" 
d="M38 0v69h100v1362h-100v69h279v-1431h101v-69h-380zM231 -263q-33 0 -57 24t-24 55q0 33 24 57.5t57 24.5q31 0 55 -24.5t24 -57.5q0 -31 -24 -55t-55 -24z" />
    <glyph glyph-name="uni1E3B" unicode="&#x1e3b;" horiz-adv-x="455" 
d="M38 0v69h100v1362h-100v69h279v-1431h101v-69h-380zM-72 -206v60h604v-60h-604z" />
    <glyph glyph-name="uni1E3F" unicode="&#x1e3f;" horiz-adv-x="1137" 
d="M32 0v69h97v909h-97v69h273v-112q2 17 21.5 46t58.5 52.5t96 23.5t92 -28t52 -61.5t20 -50.5q6 28 32.5 60.5t70 56t98.5 23.5q91 0 138 -74t47 -186v-728h94v-69h-351v69h77v625q0 83 -4 139t-20 85.5t-52 29.5q-37 0 -60.5 -30.5t-35 -79.5t-12.5 -107v-662h78v-69
h-332v69h76v625q0 124 -11.5 189t-65.5 65q-36 0 -59 -31t-33 -82.5t-11 -113.5v-652h75v-69h-352zM476 1082l-44 47l180 138q15 11 30 18.5t28 7.5q15 0 27 -7.5t18 -19.5q6 -11 6 -23q0 -19 -15.5 -35.5t-41.5 -27.5z" />
    <glyph glyph-name="uni1E43" unicode="&#x1e43;" horiz-adv-x="1137" 
d="M32 0v69h97v909h-97v69h273v-112q2 17 21.5 46t58.5 52.5t96 23.5t92 -28t52 -61.5t20 -50.5q6 28 32.5 60.5t70 56t98.5 23.5q91 0 138 -74t47 -186v-728h94v-69h-351v69h77v625q0 83 -4 139t-20 85.5t-52 29.5q-37 0 -60.5 -30.5t-35 -79.5t-12.5 -107v-662h78v-69
h-332v69h76v625q0 124 -11.5 189t-65.5 65q-36 0 -59 -31t-33 -82.5t-11 -113.5v-652h75v-69h-352zM582 -263q-33 0 -57 24t-24 55q0 33 24 57.5t57 24.5q31 0 55 -24.5t24 -57.5q0 -31 -24 -55t-55 -24z" />
    <glyph glyph-name="uni1E45" unicode="&#x1e45;" horiz-adv-x="817" 
d="M33 0v69h104v909h-104v69h280v-105q4 19 26 46.5t60 48.5t89 21q52 0 98 -24.5t75 -92t29 -198.5v-674h103v-69h-364v69h81v661q0 116 -20 167.5t-64 51.5q-24 0 -43.5 -16.5t-34 -45t-22.5 -64.5t-9 -75v-679h79v-69h-363zM419 1134q-33 0 -57 23.5t-24 55.5
q0 33 24 57.5t57 24.5q31 0 55 -24.5t24 -57.5q0 -32 -24 -55.5t-55 -23.5z" />
    <glyph glyph-name="uni1E47" unicode="&#x1e47;" horiz-adv-x="817" 
d="M33 0v69h104v909h-104v69h280v-105q4 19 26 46.5t60 48.5t89 21q52 0 98 -24.5t75 -92t29 -198.5v-674h103v-69h-364v69h81v661q0 116 -20 167.5t-64 51.5q-24 0 -43.5 -16.5t-34 -45t-22.5 -64.5t-9 -75v-679h79v-69h-363zM419 -263q-33 0 -57 24t-24 55q0 33 24 57.5
t57 24.5q31 0 55 -24.5t24 -57.5q0 -31 -24 -55t-55 -24z" />
    <glyph glyph-name="uni1E49" unicode="&#x1e49;" horiz-adv-x="817" 
d="M33 0v69h104v909h-104v69h280v-105q4 19 26 46.5t60 48.5t89 21q52 0 98 -24.5t75 -92t29 -198.5v-674h103v-69h-364v69h81v661q0 116 -20 167.5t-64 51.5q-24 0 -43.5 -16.5t-34 -45t-22.5 -64.5t-9 -75v-679h79v-69h-363zM116 -206v60h604v-60h-604z" />
    <glyph glyph-name="uni1E4D" unicode="&#x1e4d;" horiz-adv-x="705" 
d="M349 -22q-57 0 -110 35.5t-95.5 105t-66.5 172t-24 236.5q0 147 25.5 248.5t68.5 163.5t95.5 90.5t106.5 28.5t106.5 -28.5t96 -90.5t69.5 -163.5t26 -248.5q0 -134 -24.5 -236.5t-67 -172t-96 -105t-110.5 -35.5zM349 54q51 0 82.5 113.5t31.5 359.5q0 244 -31.5 350
t-82.5 106q-50 0 -82 -106t-32 -350q0 -246 32 -359.5t82 -113.5zM436 1134q-39 0 -65 15.5t-47 30.5t-45 15q-32 0 -49 -17t-22 -28l-68 30q6 19 22.5 42.5t43 41.5t60.5 18q42 0 68 -15t47.5 -30.5t50.5 -15.5q30 0 43.5 15t19.5 26l66 -34q-4 -15 -20.5 -37t-42.5 -39.5
t-62 -17.5zM245 1319l-44 47l180 138q15 11 30 18.5t28 7.5q15 0 27 -7.5t18 -19.5q6 -11 6 -23q0 -19 -15.5 -35.5t-41.5 -27.5z" />
    <glyph glyph-name="uni1E4F" unicode="&#x1e4f;" horiz-adv-x="705" 
d="M349 -22q-57 0 -110 35.5t-95.5 105t-66.5 172t-24 236.5q0 147 25.5 248.5t68.5 163.5t95.5 90.5t106.5 28.5t106.5 -28.5t96 -90.5t69.5 -163.5t26 -248.5q0 -134 -24.5 -236.5t-67 -172t-96 -105t-110.5 -35.5zM349 54q51 0 82.5 113.5t31.5 359.5q0 244 -31.5 350
t-82.5 106q-50 0 -82 -106t-32 -350q0 -246 32 -359.5t82 -113.5zM436 1134q-39 0 -65 15.5t-47 30.5t-45 15q-32 0 -49 -17t-22 -28l-68 30q6 19 22.5 42.5t43 41.5t60.5 18q42 0 68 -15t47.5 -30.5t50.5 -15.5q30 0 43.5 15t19.5 26l66 -34q-4 -15 -20.5 -37t-42.5 -39.5
t-62 -17.5zM468 1366q-33 0 -56.5 23.5t-23.5 54.5q0 35 23.5 59.5t56.5 24.5q32 0 56 -24.5t24 -59.5q0 -31 -24 -54.5t-56 -23.5zM232 1366q-31 0 -54.5 23.5t-23.5 54.5q0 35 23.5 59.5t54.5 24.5q33 0 57.5 -24.5t24.5 -59.5q0 -31 -24.5 -54.5t-57.5 -23.5z" />
    <glyph glyph-name="uni1E51" unicode="&#x1e51;" horiz-adv-x="705" 
d="M349 -22q-57 0 -110 35.5t-95.5 105t-66.5 172t-24 236.5q0 147 25.5 248.5t68.5 163.5t95.5 90.5t106.5 28.5t106.5 -28.5t96 -90.5t69.5 -163.5t26 -248.5q0 -134 -24.5 -236.5t-67 -172t-96 -105t-110.5 -35.5zM349 54q51 0 82.5 113.5t31.5 359.5q0 244 -31.5 350
t-82.5 106q-50 0 -82 -106t-32 -350q0 -246 32 -359.5t82 -113.5zM133 1135v70h436v-70h-436zM459 1262l-203 95q-27 13 -41 26t-14 38q0 23 16 36t39 13q20 0 34 -7.5t28 -19.5l174 -142z" />
    <glyph glyph-name="uni1E53" unicode="&#x1e53;" horiz-adv-x="705" 
d="M349 -22q-57 0 -110 35.5t-95.5 105t-66.5 172t-24 236.5q0 147 25.5 248.5t68.5 163.5t95.5 90.5t106.5 28.5t106.5 -28.5t96 -90.5t69.5 -163.5t26 -248.5q0 -134 -24.5 -236.5t-67 -172t-96 -105t-110.5 -35.5zM349 54q51 0 82.5 113.5t31.5 359.5q0 244 -31.5 350
t-82.5 106q-50 0 -82 -106t-32 -350q0 -246 32 -359.5t82 -113.5zM133 1135v70h436v-70h-436zM245 1240l-44 47l180 138q15 11 30 18.5t28 7.5q15 0 27 -7.5t18 -19.5q6 -11 6 -23q0 -19 -15.5 -35.5t-41.5 -27.5z" />
    <glyph glyph-name="uni1E5B" unicode="&#x1e5b;" horiz-adv-x="636" 
d="M25 0v69h105v909h-105v69h269l10 -95q4 13 22.5 38.5t50.5 46.5t75 21q54 0 87.5 -35.5t49.5 -95.5t16 -134q0 -56 -20.5 -85.5t-56.5 -29.5q-33 0 -53.5 24.5t-20.5 69.5q0 28 10.5 45t20 34.5t9.5 47.5q0 42 -15 61t-43 19q-34 0 -63 -31.5t-46 -85.5t-17 -122v-671
h105v-69h-390zM275 -263q-33 0 -57 24t-24 55q0 33 24 57.5t57 24.5q31 0 55 -24.5t24 -57.5q0 -31 -24 -55t-55 -24z" />
    <glyph glyph-name="uni1E5F" unicode="&#x1e5f;" horiz-adv-x="636" 
d="M25 0v69h105v909h-105v69h269l10 -95q4 13 22.5 38.5t50.5 46.5t75 21q54 0 87.5 -35.5t49.5 -95.5t16 -134q0 -56 -20.5 -85.5t-56.5 -29.5q-33 0 -53.5 24.5t-20.5 69.5q0 28 10.5 45t20 34.5t9.5 47.5q0 42 -15 61t-43 19q-34 0 -63 -31.5t-46 -85.5t-17 -122v-671
h105v-69h-390zM-28 -206v60h604v-60h-604z" />
    <glyph glyph-name="uni1E61" unicode="&#x1e61;" horiz-adv-x="566" 
d="M292 -22q-55 0 -83.5 14t-43.5 27.5t-29 13.5q-13 0 -18 -8.5t-5 -24.5h-60v307h72q5 -58 17.5 -106t32.5 -82t48.5 -53t64.5 -19t57.5 18t31.5 46.5t10 59.5q0 48 -16.5 93t-49.5 92t-84 100q-73 78 -125.5 160t-52.5 201q0 83 31.5 136t81.5 79t106 26q42 0 67 -10.5
t40 -21.5t26 -11q8 0 12.5 7.5t5.5 24.5h62v-298h-71q-4 53 -14 97t-27 75.5t-41 48.5t-57 17q-48 0 -72.5 -35.5t-24.5 -88.5q0 -63 37 -118t107 -126q55 -58 97 -115.5t65.5 -121.5t23.5 -141q0 -85 -27 -143.5t-77 -89t-118 -30.5zM293 1134q-33 0 -57 23.5t-24 55.5
q0 33 24 57.5t57 24.5q31 0 55 -24.5t24 -57.5q0 -32 -24 -55.5t-55 -23.5z" />
    <glyph glyph-name="uni1E63" unicode="&#x1e63;" horiz-adv-x="566" 
d="M292 -22q-55 0 -83.5 14t-43.5 27.5t-29 13.5q-13 0 -18 -8.5t-5 -24.5h-60v307h72q5 -58 17.5 -106t32.5 -82t48.5 -53t64.5 -19t57.5 18t31.5 46.5t10 59.5q0 48 -16.5 93t-49.5 92t-84 100q-73 78 -125.5 160t-52.5 201q0 83 31.5 136t81.5 79t106 26q42 0 67 -10.5
t40 -21.5t26 -11q8 0 12.5 7.5t5.5 24.5h62v-298h-71q-4 53 -14 97t-27 75.5t-41 48.5t-57 17q-48 0 -72.5 -35.5t-24.5 -88.5q0 -63 37 -118t107 -126q55 -58 97 -115.5t65.5 -121.5t23.5 -141q0 -85 -27 -143.5t-77 -89t-118 -30.5zM293 -263q-33 0 -57 24t-24 55
q0 33 24 57.5t57 24.5q31 0 55 -24.5t24 -57.5q0 -31 -24 -55t-55 -24z" />
    <glyph glyph-name="uni1E65" unicode="&#x1e65;" horiz-adv-x="566" 
d="M292 -22q-55 0 -83.5 14t-43.5 27.5t-29 13.5q-13 0 -18 -8.5t-5 -24.5h-60v307h72q5 -58 17.5 -106t32.5 -82t48.5 -53t64.5 -19t57.5 18t31.5 46.5t10 59.5q0 48 -16.5 93t-49.5 92t-84 100q-73 78 -125.5 160t-52.5 201q0 83 31.5 136t81.5 79t106 26q42 0 67 -10.5
t40 -21.5t26 -11q8 0 12.5 7.5t5.5 24.5h62v-298h-71q-4 53 -14 97t-27 75.5t-41 48.5t-57 17q-48 0 -72.5 -35.5t-24.5 -88.5q0 -63 37 -118t107 -126q55 -58 97 -115.5t65.5 -121.5t23.5 -141q0 -85 -27 -143.5t-77 -89t-118 -30.5zM187 1082l-44 47l180 138
q15 11 30 18.5t28 7.5q15 0 27 -7.5t18 -19.5q6 -11 6 -23q0 -19 -15.5 -35.5t-41.5 -27.5zM293 1378q-33 0 -57 23.5t-24 55.5q0 33 24 57.5t57 24.5q31 0 55 -24.5t24 -57.5q0 -32 -24 -55.5t-55 -23.5z" />
    <glyph glyph-name="uni1E67" unicode="&#x1e67;" horiz-adv-x="566" 
d="M292 -22q-55 0 -83.5 14t-43.5 27.5t-29 13.5q-13 0 -18 -8.5t-5 -24.5h-60v307h72q5 -58 17.5 -106t32.5 -82t48.5 -53t64.5 -19t57.5 18t31.5 46.5t10 59.5q0 48 -16.5 93t-49.5 92t-84 100q-73 78 -125.5 160t-52.5 201q0 83 31.5 136t81.5 79t106 26q42 0 67 -10.5
t40 -21.5t26 -11q8 0 12.5 7.5t5.5 24.5h62v-298h-71q-4 53 -14 97t-27 75.5t-41 48.5t-57 17q-48 0 -72.5 -35.5t-24.5 -88.5q0 -63 37 -118t107 -126q55 -58 97 -115.5t65.5 -121.5t23.5 -141q0 -85 -27 -143.5t-77 -89t-118 -30.5zM258 1106l-162 219h84l112 -148
l113 148h84l-161 -219h-70zM293 1386q-33 0 -57 23.5t-24 55.5q0 33 24 57.5t57 24.5q31 0 55 -24.5t24 -57.5q0 -32 -24 -55.5t-55 -23.5z" />
    <glyph glyph-name="uni1E69" unicode="&#x1e69;" horiz-adv-x="566" 
d="M292 -22q-55 0 -83.5 14t-43.5 27.5t-29 13.5q-13 0 -18 -8.5t-5 -24.5h-60v307h72q5 -58 17.5 -106t32.5 -82t48.5 -53t64.5 -19t57.5 18t31.5 46.5t10 59.5q0 48 -16.5 93t-49.5 92t-84 100q-73 78 -125.5 160t-52.5 201q0 83 31.5 136t81.5 79t106 26q42 0 67 -10.5
t40 -21.5t26 -11q8 0 12.5 7.5t5.5 24.5h62v-298h-71q-4 53 -14 97t-27 75.5t-41 48.5t-57 17q-48 0 -72.5 -35.5t-24.5 -88.5q0 -63 37 -118t107 -126q55 -58 97 -115.5t65.5 -121.5t23.5 -141q0 -85 -27 -143.5t-77 -89t-118 -30.5zM293 -263q-33 0 -57 24t-24 55
q0 33 24 57.5t57 24.5q31 0 55 -24.5t24 -57.5q0 -31 -24 -55t-55 -24zM293 1134q-33 0 -57 23.5t-24 55.5q0 33 24 57.5t57 24.5q31 0 55 -24.5t24 -57.5q0 -32 -24 -55.5t-55 -23.5z" />
    <glyph glyph-name="uni1E6D" unicode="&#x1e6d;" horiz-adv-x="494" 
d="M329 -18q-49 0 -94 16.5t-73.5 61.5t-28.5 131v787h-131v69h131q30 20 52.5 66t37 105.5t18.5 119.5h72v-291h154v-69h-154v-852q0 -42 18 -56t36 -14q19 0 33.5 8t22.5 17l40 -55q-22 -19 -55.5 -31.5t-78.5 -12.5zM315 -251q-33 0 -57 24t-24 55q0 33 24 57.5t57 24.5
q31 0 55 -24.5t24 -57.5q0 -31 -24 -55t-55 -24z" />
    <glyph glyph-name="uni1E6F" unicode="&#x1e6f;" horiz-adv-x="489" 
d="M62 -183v70h385v-70h-385zM329 -18q-49 0 -94 16.5t-73.5 61.5t-28.5 131v787h-131v69h131q30 20 52.5 66t37 105.5t18.5 119.5h72v-291h154v-69h-154v-852q0 -42 18 -56t36 -14q19 0 33.5 8t22.5 17l40 -55q-22 -19 -55.5 -31.5t-78.5 -12.5z" />
    <glyph glyph-name="uni1E79" unicode="&#x1e79;" horiz-adv-x="789" 
d="M335 -22q-57 0 -106 24t-78.5 89.5t-29.5 191.5v695h-103v68h283v-743q0 -93 10 -142t29.5 -66.5t45.5 -17.5q35 0 60.5 35t39 95.5t13.5 137.5v633h-96v68h276v-977h90v-69h-249l-9 113q-5 -26 -26.5 -57.5t-59 -54.5t-90.5 -23zM488 1134q-39 0 -65 15.5t-47 30.5
t-45 15q-32 0 -49 -17t-22 -28l-68 30q6 19 22.5 42.5t43 41.5t60.5 18q42 0 68 -15t47.5 -30.5t50.5 -15.5q30 0 43.5 15t19.5 26l66 -34q-4 -15 -20.5 -37t-42.5 -39.5t-62 -17.5zM297 1319l-44 47l180 138q15 11 30 18.5t28 7.5q15 0 27 -7.5t18 -19.5q6 -11 6 -23
q0 -19 -15.5 -35.5t-41.5 -27.5z" />
    <glyph glyph-name="uni1E7B" unicode="&#x1e7b;" horiz-adv-x="789" 
d="M335 -22q-57 0 -106 24t-78.5 89.5t-29.5 191.5v695h-103v68h283v-743q0 -93 10 -142t29.5 -66.5t45.5 -17.5q35 0 60.5 35t39 95.5t13.5 137.5v633h-96v68h276v-977h90v-69h-249l-9 113q-5 -26 -26.5 -57.5t-59 -54.5t-90.5 -23zM137 1135v70h533v-70h-533zM520 1287
q-33 0 -56.5 23.5t-23.5 54.5q0 35 23.5 59.5t56.5 24.5q32 0 56 -24.5t24 -59.5q0 -31 -24 -54.5t-56 -23.5zM284 1287q-31 0 -54.5 23.5t-23.5 54.5q0 35 23.5 59.5t54.5 24.5q33 0 57.5 -24.5t24.5 -59.5q0 -31 -24.5 -54.5t-57.5 -23.5z" />
    <glyph glyph-name="Wgrave" unicode="&#x1e80;" horiz-adv-x="1112" 
d="M311 -2l-194 1333h-103v69h388v-69h-77l106 -926l-25 -51l140 940l20 -155l-37 192h-87v69h372v-69h-87l120 -915l-18 -51l121 966h-81v69h242v-69h-84l-191 -1333h-93l-173 1125l33 55l-199 -1180h-93zM689 1448l-203 95q-27 13 -41 26t-14 38q0 23 16 36t39 13
q20 0 34 -7.5t28 -19.5l174 -142z" />
    <glyph glyph-name="wgrave" unicode="&#x1e81;" horiz-adv-x="1045" 
d="M672 -3l-170 981h-80v69h338v-69h-71l91 -646l96 646h-65v69h220v-69h-77l-164 -981h-118zM259 -3l-164 981h-79v69h344v-69h-72l81 -646l101 646h-43v69h202v-69h-82l-169 -981h-119zM639 1104l-203 95q-27 13 -41 26t-14 38q0 23 16 36t39 13q20 0 34 -7.5t28 -19.5
l174 -142z" />
    <glyph glyph-name="Wacute" unicode="&#x1e82;" horiz-adv-x="1112" 
d="M311 -2l-194 1333h-103v69h388v-69h-77l106 -926l-25 -51l140 940l20 -155l-37 192h-87v69h372v-69h-87l120 -915l-18 -51l121 966h-81v69h242v-69h-84l-191 -1333h-93l-173 1125l33 55l-199 -1180h-93zM474 1443l-44 47l180 137q14 11 29.5 18.5t28.5 7.5q15 0 27 -7.5
t18 -19.5q6 -10 6 -23q0 -19 -15.5 -35.5t-41.5 -27.5z" />
    <glyph glyph-name="wacute" unicode="&#x1e83;" horiz-adv-x="1045" 
d="M672 -3l-170 981h-80v69h338v-69h-71l91 -646l96 646h-65v69h220v-69h-77l-164 -981h-118zM259 -3l-164 981h-79v69h344v-69h-72l81 -646l101 646h-43v69h202v-69h-82l-169 -981h-119zM425 1082l-44 47l180 138q15 11 30 18.5t28 7.5q15 0 27 -7.5t18 -19.5q6 -11 6 -23
q0 -19 -15.5 -35.5t-41.5 -27.5z" />
    <glyph glyph-name="Wdieresis" unicode="&#x1e84;" horiz-adv-x="1112" 
d="M311 -2l-194 1333h-103v69h388v-69h-77l106 -926l-25 -51l140 940l20 -155l-37 192h-87v69h372v-69h-87l120 -915l-18 -51l121 966h-81v69h242v-69h-84l-191 -1333h-93l-173 1125l33 55l-199 -1180h-93zM697 1501q-33 0 -56.5 23.5t-23.5 54.5q0 35 23.5 59.5t56.5 24.5
q32 0 56 -24.5t24 -59.5q0 -31 -24 -54.5t-56 -23.5zM461 1501q-31 0 -54.5 23.5t-23.5 54.5q0 35 23.5 59.5t54.5 24.5q33 0 57.5 -24.5t24.5 -59.5q0 -31 -24.5 -54.5t-57.5 -23.5z" />
    <glyph glyph-name="wdieresis" unicode="&#x1e85;" horiz-adv-x="1045" 
d="M672 -3l-170 981h-80v69h338v-69h-71l91 -646l96 646h-65v69h220v-69h-77l-164 -981h-118zM259 -3l-164 981h-79v69h344v-69h-72l81 -646l101 646h-43v69h202v-69h-82l-169 -981h-119zM648 1129q-33 0 -56.5 23.5t-23.5 54.5q0 35 23.5 59.5t56.5 24.5q32 0 56 -24.5
t24 -59.5q0 -31 -24 -54.5t-56 -23.5zM412 1129q-31 0 -54.5 23.5t-23.5 54.5q0 35 23.5 59.5t54.5 24.5q33 0 57.5 -24.5t24.5 -59.5q0 -31 -24.5 -54.5t-57.5 -23.5z" />
    <glyph glyph-name="uni1E8F" unicode="&#x1e8f;" horiz-adv-x="674" 
d="M198 -502q-44 0 -73.5 32.5t-43.5 88t-14 125.5q0 53 20 81.5t55 28.5q34 0 53.5 -25t19.5 -68q0 -33 -11.5 -53.5t-23 -39t-11.5 -45.5q0 -26 8.5 -47t27.5 -21q12 0 19.5 10t14 31t12.5 53l73 354l-224 975h-83v69h351v-69h-76l120 -573l110 573h-74v69h227v-69h-75
l-206 -985l-77 -361q-9 -43 -23.5 -73t-37.5 -45.5t-58 -15.5zM346 1134q-33 0 -57 23.5t-24 55.5q0 33 24 57.5t57 24.5q31 0 55 -24.5t24 -57.5q0 -32 -24 -55.5t-55 -23.5z" />
    <glyph glyph-name="uni1E93" unicode="&#x1e93;" horiz-adv-x="604" 
d="M75 0v69l267 909h-95q-48 0 -69 -18t-25.5 -67.5t-4.5 -143.5h-67v298h446v-69l-267 -909h91q52 0 73.5 19.5t26.5 71t5 147.5h69v-307h-450zM304 -263q-33 0 -57 24t-24 55q0 33 24 57.5t57 24.5q31 0 55 -24.5t24 -57.5q0 -31 -24 -55t-55 -24z" />
    <glyph glyph-name="uni1E97" unicode="&#x1e97;" horiz-adv-x="494" 
d="M329 -18q-49 0 -94 16.5t-73.5 61.5t-28.5 131v787h-131v69h131q30 20 52.5 66t37 105.5t18.5 119.5h72v-291h154v-69h-154v-852q0 -42 18 -56t36 -14q19 0 33.5 8t22.5 17l40 -55q-22 -19 -55.5 -31.5t-78.5 -12.5zM362 1393q-33 0 -56.5 23.5t-23.5 54.5
q0 35 23.5 59.5t56.5 24.5q32 0 56 -24.5t24 -59.5q0 -31 -24 -54.5t-56 -23.5zM126 1393q-31 0 -54.5 23.5t-23.5 54.5q0 35 23.5 59.5t54.5 24.5q33 0 57.5 -24.5t24.5 -59.5q0 -31 -24.5 -54.5t-57.5 -23.5z" />
    <glyph glyph-name="uni1E9E" unicode="&#x1e9e;" horiz-adv-x="899" 
d="M563 -23q-57 0 -97 39.5t-40 115.5q0 47 20 72t49 25q28 0 45 -18.5t17 -52.5q0 -25 -7.5 -39t-15.5 -23.5t-8 -22.5q0 -12 8 -22t26 -10q37 0 62 27t38 77.5t13 121.5q0 94 -25 168t-62.5 133t-74.5 108.5t-62 95t-25 91.5q0 31 24 79t63 104.5t85 114t90 109.5l77 91
h-283q-62 0 -92.5 -31.5t-41 -94.5t-10.5 -160v-1075h-285v67h99v950q0 142 40.5 232t114 132.5t171.5 42.5h332l39 -65q-47 -55 -105 -126t-111 -141t-87.5 -125.5t-34.5 -82.5q0 -29 31.5 -66t78 -84.5t93 -107.5t78 -137t31.5 -172q0 -114 -35.5 -189.5t-94.5 -113
t-128 -37.5z" />
    <glyph glyph-name="uni1EA0" unicode="&#x1ea0;" horiz-adv-x="689" 
d="M5 0v69h80l185 1333h118l205 -1333h96v-69h-371v69h82l-122 936h1l-122 -936h73v-69h-225zM161 296v65h237v-65h-237zM324 -263q-33 0 -57 24t-24 55q0 33 24 57.5t57 24.5q31 0 55 -24.5t24 -57.5q0 -31 -24 -55t-55 -24z" />
    <glyph glyph-name="uni1EA1" unicode="&#x1ea1;" horiz-adv-x="728" 
d="M273 -21q-62 0 -112 30.5t-79 89.5t-29 143q0 94 37.5 156t93 104.5t111.5 76.5t93.5 71.5t37.5 90.5q0 74 -12 128t-37.5 82.5t-68.5 28.5q-50 0 -81.5 -30.5t-31.5 -69.5q0 -24 8.5 -39t16.5 -31.5t8 -44.5q0 -39 -20.5 -63t-55.5 -24q-36 0 -56.5 30.5t-20.5 83.5
q0 76 33.5 136t93.5 95t138 35q79 0 139 -34.5t93.5 -109.5t33.5 -198v-570q0 -46 9 -61.5t27 -15.5q17 0 28.5 8t16.5 15l38 -57q-14 -18 -52.5 -33.5t-88.5 -15.5q-49 0 -79 14.5t-44 38t-18 46.5q-5 -15 -23 -40.5t-53.5 -45.5t-93.5 -20zM326 75q33 0 55 26t33.5 63.5
t11.5 69.5v372q-3 -28 -32 -54.5t-65 -61t-63.5 -89.5t-27.5 -140q0 -91 23.5 -138.5t64.5 -47.5zM378 -263q-33 0 -57 24t-24 55q0 33 24 57.5t57 24.5q31 0 55 -24.5t24 -57.5q0 -31 -24 -55t-55 -24z" />
    <glyph glyph-name="uni1EA2" unicode="&#x1ea2;" horiz-adv-x="689" 
d="M5 0v69h80l185 1333h118l205 -1333h96v-69h-371v69h82l-122 936h1l-122 -936h73v-69h-225zM161 296v65h237v-65h-237zM325 1743q56 0 98 -24t42 -83q0 -44 -26 -72t-52.5 -49.5t-26.5 -47.5h-60q0 40 18 66t35 47.5t17 50.5t-16 39t-45 10q-25 0 -44.5 -7.5t-33.5 -20.5
l-46 46q18 20 57.5 32.5t82.5 12.5z" />
    <glyph glyph-name="uni1EA3" unicode="&#x1ea3;" horiz-adv-x="728" 
d="M273 -21q-62 0 -112 30.5t-79 89.5t-29 143q0 94 37.5 156t93 104.5t111.5 76.5t93.5 71.5t37.5 90.5q0 74 -12 128t-37.5 82.5t-68.5 28.5q-50 0 -81.5 -30.5t-31.5 -69.5q0 -24 8.5 -39t16.5 -31.5t8 -44.5q0 -39 -20.5 -63t-55.5 -24q-36 0 -56.5 30.5t-20.5 83.5
q0 76 33.5 136t93.5 95t138 35q79 0 139 -34.5t93.5 -109.5t33.5 -198v-570q0 -46 9 -61.5t27 -15.5q17 0 28.5 8t16.5 15l38 -57q-14 -18 -52.5 -33.5t-88.5 -15.5q-49 0 -79 14.5t-44 38t-18 46.5q-5 -15 -23 -40.5t-53.5 -45.5t-93.5 -20zM326 75q33 0 55 26t33.5 63.5
t11.5 69.5v372q-3 -28 -32 -54.5t-65 -61t-63.5 -89.5t-27.5 -140q0 -91 23.5 -138.5t64.5 -47.5zM344 1414q56 0 98 -24t42 -83q0 -44 -26 -72t-52.5 -49.5t-26.5 -47.5h-60q0 40 18 66t35 47.5t17 50.5t-16 39t-45 10q-25 0 -44.5 -7.5t-33.5 -20.5l-46 46
q18 20 57.5 32.5t82.5 12.5z" />
    <glyph glyph-name="uni1EA4" unicode="&#x1ea4;" horiz-adv-x="689" 
d="M5 0v69h80l185 1333h118l205 -1333h96v-69h-371v69h82l-122 936h1l-122 -936h73v-69h-225zM161 296v65h237v-65h-237zM149 1467l148 165h70l146 -165h-78l-104 95l-103 -95h-79zM463 1607l-37 40l153 117q27 22 50 22q12 0 22 -6.5t16 -16.5q5 -10 5 -20q0 -16 -13.5 -30
t-34.5 -23z" />
    <glyph glyph-name="uni1EA5" unicode="&#x1ea5;" horiz-adv-x="728" 
d="M273 -21q-62 0 -112 30.5t-79 89.5t-29 143q0 94 37.5 156t93 104.5t111.5 76.5t93.5 71.5t37.5 90.5q0 74 -12 128t-37.5 82.5t-68.5 28.5q-50 0 -81.5 -30.5t-31.5 -69.5q0 -24 8.5 -39t16.5 -31.5t8 -44.5q0 -39 -20.5 -63t-55.5 -24q-36 0 -56.5 30.5t-20.5 83.5
q0 76 33.5 136t93.5 95t138 35q79 0 139 -34.5t93.5 -109.5t33.5 -198v-570q0 -46 9 -61.5t27 -15.5q17 0 28.5 8t16.5 15l38 -57q-14 -18 -52.5 -33.5t-88.5 -15.5q-49 0 -79 14.5t-44 38t-18 46.5q-5 -15 -23 -40.5t-53.5 -45.5t-93.5 -20zM326 75q33 0 55 26t33.5 63.5
t11.5 69.5v372q-3 -28 -32 -54.5t-65 -61t-63.5 -89.5t-27.5 -140q0 -91 23.5 -138.5t64.5 -47.5zM168 1114l148 205h70l146 -205h-78l-104 135l-103 -135h-79zM482 1294l-37 40l153 117q27 22 50 22q12 0 22 -6.5t16 -16.5q5 -10 5 -20q0 -16 -13.5 -30t-34.5 -23z" />
    <glyph glyph-name="uni1EA6" unicode="&#x1ea6;" horiz-adv-x="689" 
d="M5 0v69h80l185 1333h118l205 -1333h96v-69h-371v69h82l-122 936h1l-122 -936h73v-69h-225zM161 296v65h237v-65h-237zM149 1467l148 165h70l146 -165h-78l-104 95l-103 -95h-79zM526 1609l-174 81q-23 11 -35 22.5t-12 33.5q0 19 13.5 30t33.5 11q17 0 29.5 -6t24.5 -16
l148 -122z" />
    <glyph glyph-name="uni1EA7" unicode="&#x1ea7;" horiz-adv-x="728" 
d="M273 -21q-62 0 -112 30.5t-79 89.5t-29 143q0 94 37.5 156t93 104.5t111.5 76.5t93.5 71.5t37.5 90.5q0 74 -12 128t-37.5 82.5t-68.5 28.5q-50 0 -81.5 -30.5t-31.5 -69.5q0 -24 8.5 -39t16.5 -31.5t8 -44.5q0 -39 -20.5 -63t-55.5 -24q-36 0 -56.5 30.5t-20.5 83.5
q0 76 33.5 136t93.5 95t138 35q79 0 139 -34.5t93.5 -109.5t33.5 -198v-570q0 -46 9 -61.5t27 -15.5q17 0 28.5 8t16.5 15l38 -57q-14 -18 -52.5 -33.5t-88.5 -15.5q-49 0 -79 14.5t-44 38t-18 46.5q-5 -15 -23 -40.5t-53.5 -45.5t-93.5 -20zM326 75q33 0 55 26t33.5 63.5
t11.5 69.5v372q-3 -28 -32 -54.5t-65 -61t-63.5 -89.5t-27.5 -140q0 -91 23.5 -138.5t64.5 -47.5zM168 1114l148 205h70l146 -205h-78l-104 135l-103 -135h-79zM545 1296l-174 81q-23 11 -35 22.5t-12 33.5q0 19 13.5 30t33.5 11q17 0 29.5 -6t24.5 -16l148 -122z" />
    <glyph glyph-name="uni1EA8" unicode="&#x1ea8;" horiz-adv-x="689" 
d="M5 0v69h80l185 1333h118l205 -1333h96v-69h-371v69h82l-122 936h1l-122 -936h73v-69h-225zM161 296v65h237v-65h-237zM147 1468l148 165h70l146 -165h-78l-104 95l-103 -95h-79zM476 1809q44 0 78 -19.5t34 -65.5q0 -35 -21 -57.5t-42.5 -39.5t-21.5 -38h-47
q0 32 14 52.5t28 38t14 40.5q0 22 -13 30.5t-36 8.5q-20 0 -35.5 -6t-26.5 -17l-37 37q15 16 46.5 26t65.5 10z" />
    <glyph glyph-name="uni1EA9" unicode="&#x1ea9;" horiz-adv-x="728" 
d="M273 -21q-62 0 -112 30.5t-79 89.5t-29 143q0 94 37.5 156t93 104.5t111.5 76.5t93.5 71.5t37.5 90.5q0 74 -12 128t-37.5 82.5t-68.5 28.5q-50 0 -81.5 -30.5t-31.5 -69.5q0 -24 8.5 -39t16.5 -31.5t8 -44.5q0 -39 -20.5 -63t-55.5 -24q-36 0 -56.5 30.5t-20.5 83.5
q0 76 33.5 136t93.5 95t138 35q79 0 139 -34.5t93.5 -109.5t33.5 -198v-570q0 -46 9 -61.5t27 -15.5q17 0 28.5 8t16.5 15l38 -57q-14 -18 -52.5 -33.5t-88.5 -15.5q-49 0 -79 14.5t-44 38t-18 46.5q-5 -15 -23 -40.5t-53.5 -45.5t-93.5 -20zM326 75q33 0 55 26t33.5 63.5
t11.5 69.5v372q-3 -28 -32 -54.5t-65 -61t-63.5 -89.5t-27.5 -140q0 -91 23.5 -138.5t64.5 -47.5zM166 1115l148 205h70l146 -205h-78l-104 135l-103 -135h-79zM495 1496q44 0 78 -19.5t34 -65.5q0 -35 -21 -57.5t-42.5 -39.5t-21.5 -38h-47q0 32 14 52.5t28 38t14 40.5
q0 22 -13 30.5t-36 8.5q-20 0 -35.5 -6t-26.5 -17l-37 37q15 16 46.5 26t65.5 10z" />
    <glyph glyph-name="uni1EAA" unicode="&#x1eaa;" horiz-adv-x="689" 
d="M5 0v69h80l185 1333h118l205 -1333h96v-69h-371v69h82l-122 936h1l-122 -936h73v-69h-225zM161 296v65h237v-65h-237zM151 1468l148 165h70l146 -165h-78l-104 95l-103 -95h-79zM419 1669q-40 0 -67 15.5t-49 31t-47 15.5q-32 0 -50 -17.5t-23 -28.5l-65 28
q5 18 23.5 42.5t46 43.5t61.5 19q42 0 68 -15.5t48.5 -31t51.5 -15.5q32 0 46.5 15t20.5 27l65 -30q-4 -15 -22 -38t-45.5 -42t-62.5 -19z" />
    <glyph glyph-name="uni1EAB" unicode="&#x1eab;" horiz-adv-x="728" 
d="M273 -21q-62 0 -112 30.5t-79 89.5t-29 143q0 94 37.5 156t93 104.5t111.5 76.5t93.5 71.5t37.5 90.5q0 74 -12 128t-37.5 82.5t-68.5 28.5q-50 0 -81.5 -30.5t-31.5 -69.5q0 -24 8.5 -39t16.5 -31.5t8 -44.5q0 -39 -20.5 -63t-55.5 -24q-36 0 -56.5 30.5t-20.5 83.5
q0 76 33.5 136t93.5 95t138 35q79 0 139 -34.5t93.5 -109.5t33.5 -198v-570q0 -46 9 -61.5t27 -15.5q17 0 28.5 8t16.5 15l38 -57q-14 -18 -52.5 -33.5t-88.5 -15.5q-49 0 -79 14.5t-44 38t-18 46.5q-5 -15 -23 -40.5t-53.5 -45.5t-93.5 -20zM326 75q33 0 55 26t33.5 63.5
t11.5 69.5v372q-3 -28 -32 -54.5t-65 -61t-63.5 -89.5t-27.5 -140q0 -91 23.5 -138.5t64.5 -47.5zM170 1115l148 205h70l146 -205h-78l-104 135l-103 -135h-79zM438 1356q-39 0 -66.5 15.5t-49.5 31t-46 15.5q-32 0 -50 -17.5t-23 -28.5l-66 28q6 18 24 42.5t45.5 43.5
t61.5 19q42 0 68 -15.5t48.5 -31t51.5 -15.5q33 0 47.5 15t19.5 27l65 -30q-4 -15 -21.5 -38t-45 -42t-63.5 -19z" />
    <glyph glyph-name="uni1EAC" unicode="&#x1eac;" horiz-adv-x="689" 
d="M5 0v69h80l185 1333h118l205 -1333h96v-69h-371v69h82l-122 936h1l-122 -936h73v-69h-225zM161 296v65h237v-65h-237zM324 -263q-33 0 -57 24t-24 55q0 33 24 57.5t57 24.5q31 0 55 -24.5t24 -57.5q0 -31 -24 -55t-55 -24zM149 1462l148 205h70l146 -205h-78l-104 135
l-103 -135h-79z" />
    <glyph glyph-name="uni1EAD" unicode="&#x1ead;" horiz-adv-x="728" 
d="M273 -21q-62 0 -112 30.5t-79 89.5t-29 143q0 94 37.5 156t93 104.5t111.5 76.5t93.5 71.5t37.5 90.5q0 74 -12 128t-37.5 82.5t-68.5 28.5q-50 0 -81.5 -30.5t-31.5 -69.5q0 -24 8.5 -39t16.5 -31.5t8 -44.5q0 -39 -20.5 -63t-55.5 -24q-36 0 -56.5 30.5t-20.5 83.5
q0 76 33.5 136t93.5 95t138 35q79 0 139 -34.5t93.5 -109.5t33.5 -198v-570q0 -46 9 -61.5t27 -15.5q17 0 28.5 8t16.5 15l38 -57q-14 -18 -52.5 -33.5t-88.5 -15.5q-49 0 -79 14.5t-44 38t-18 46.5q-5 -15 -23 -40.5t-53.5 -45.5t-93.5 -20zM326 75q33 0 55 26t33.5 63.5
t11.5 69.5v372q-3 -28 -32 -54.5t-65 -61t-63.5 -89.5t-27.5 -140q0 -91 23.5 -138.5t64.5 -47.5zM378 -263q-33 0 -57 24t-24 55q0 33 24 57.5t57 24.5q31 0 55 -24.5t24 -57.5q0 -31 -24 -55t-55 -24zM168 1123l148 205h70l146 -205h-78l-104 135l-103 -135h-79z" />
    <glyph glyph-name="uni1EAE" unicode="&#x1eae;" horiz-adv-x="689" 
d="M5 0v69h80l185 1333h118l205 -1333h96v-69h-371v69h82l-122 936h1l-122 -936h73v-69h-225zM161 296v65h237v-65h-237zM329 1497q-61 0 -98.5 27t-55 71t-17.5 93h68q4 -62 31.5 -92t71.5 -30q46 0 73.5 30t31.5 92h68q0 -49 -17.5 -93t-55.5 -71t-100 -27zM225 1729
l-44 47l180 137q14 11 29.5 18.5t28.5 7.5q15 0 27 -7.5t18 -19.5q6 -10 6 -23q0 -19 -15.5 -35.5t-41.5 -27.5z" />
    <glyph glyph-name="uni1EAF" unicode="&#x1eaf;" horiz-adv-x="728" 
d="M273 -21q-62 0 -112 30.5t-79 89.5t-29 143q0 94 37.5 156t93 104.5t111.5 76.5t93.5 71.5t37.5 90.5q0 74 -12 128t-37.5 82.5t-68.5 28.5q-50 0 -81.5 -30.5t-31.5 -69.5q0 -24 8.5 -39t16.5 -31.5t8 -44.5q0 -39 -20.5 -63t-55.5 -24q-36 0 -56.5 30.5t-20.5 83.5
q0 76 33.5 136t93.5 95t138 35q79 0 139 -34.5t93.5 -109.5t33.5 -198v-570q0 -46 9 -61.5t27 -15.5q17 0 28.5 8t16.5 15l38 -57q-14 -18 -52.5 -33.5t-88.5 -15.5q-49 0 -79 14.5t-44 38t-18 46.5q-5 -15 -23 -40.5t-53.5 -45.5t-93.5 -20zM326 75q33 0 55 26t33.5 63.5
t11.5 69.5v372q-3 -28 -32 -54.5t-65 -61t-63.5 -89.5t-27.5 -140q0 -91 23.5 -138.5t64.5 -47.5zM348 1110q-61 0 -98.5 27.5t-55 71t-17.5 92.5h68q4 -61 31.5 -91t71.5 -30q46 0 73.5 30t31.5 91h68q0 -49 -17.5 -92.5t-55.5 -71t-100 -27.5zM252 1331l-44 47l180 138
q15 11 30 18t28 7q15 0 27 -7.5t18 -19.5q6 -10 6 -23q0 -19 -15.5 -35.5t-41.5 -27.5z" />
    <glyph glyph-name="uni1EB0" unicode="&#x1eb0;" horiz-adv-x="689" 
d="M5 0v69h80l185 1333h118l205 -1333h96v-69h-371v69h82l-122 936h1l-122 -936h73v-69h-225zM161 296v65h237v-65h-237zM329 1497q-61 0 -98.5 27t-55 71t-17.5 93h68q4 -62 31.5 -92t71.5 -30q46 0 73.5 30t31.5 92h68q0 -49 -17.5 -93t-55.5 -71t-100 -27zM440 1734
l-203 95q-27 13 -41 26t-14 38q0 23 16 36t39 13q20 0 34 -7.5t28 -19.5l174 -142z" />
    </font>
</defs>
</svg>
