<?xml version="1.0" standalone="no"?>
<!DOCTYPE svg PUBLIC "-//W3C//DTD SVG 1.1//EN" "http://www.w3.org/Graphics/SVG/1.1/DTD/svg11.dtd" >
<svg xmlns="http://www.w3.org/2000/svg" xmlns:xlink="http://www.w3.org/1999/xlink" version="1.1">
<metadata>
Created by FontForge 20170731 at Tue Dec  1 16:59:51 2020
 By Aleksey,,,
Copyright 2020 The Imbue Project Authors (https://github.com/Etcetera-Type-Co/Imbue)
</metadata>
<defs>
<font id="Imbue10pt-Regular" horiz-adv-x="0" >
  <font-face 
    font-family="Imbue 10pt"
    font-weight="400"
    font-stretch="normal"
    units-per-em="2000"
    panose-1="0 0 0 0 0 0 0 0 0 0"
    ascent="1600"
    descent="-400"
    x-height="1046"
    cap-height="1400"
    bbox="-367 -502 1493 2026"
    underline-thickness="50"
    underline-position="-175"
    unicode-range="U+000D-FB02"
  />
<missing-glyph horiz-adv-x="587" 
d="M134 133v947h317v-947h-317zM158 156h269v900h-269v-900zM295 889l-68 -69l-18 18l68 69l-68 69l18 19l68 -69l68 69l19 -19l-68 -69l68 -69l-19 -18zM295 582l-68 -69l-18 18l68 69l-68 69l18 18l68 -69l68 69l19 -18l-69 -69l69 -69l-19 -18zM295 274l-68 -69l-18 19
l68 69l-68 69l18 18l68 -69l68 69l19 -18l-68 -69l68 -69l-19 -19z" />
    <glyph glyph-name="f_f" unicode="ff" horiz-adv-x="889" 
d="M35 0v68h113v912h-119v67h119v78q0 142 34 226.5t92.5 122t131.5 37.5q53 0 92.5 -28t62 -67t23.5 -73l-46 -86q0 45 -13.5 86.5t-39.5 69t-65 27.5q-38 0 -62 -27t-37.5 -75.5t-18.5 -114t-5 -142.5v-19.5v-14.5h152v-67h-152v-912h117v-68h-379zM412 0v68h109v912h-124
v67h124v137q0 105 26.5 178t78.5 111t127 38q83 0 127 -70t44 -179q0 -47 -17 -72.5t-51 -25.5q-36 0 -51.5 23.5t-15.5 57.5q0 28 10 44.5t19.5 31t9.5 35.5q0 35 -18.5 61t-46.5 26q-26 0 -43.5 -18.5t-28.5 -53t-15.5 -82.5t-4.5 -107v-135h130v-67h-130v-912h112v-68
h-371z" />
    <glyph glyph-name="f_f_i" unicode="ffi" horiz-adv-x="1185" 
d="M35 0v68h113v912h-119v67h119v78q0 142 34 226.5t92.5 122t131.5 37.5q53 0 94.5 -28.5t66 -71t25.5 -82.5l-41 -100q-1 57 -17.5 105t-45.5 77t-68 29q-38 0 -62 -27t-37.5 -75.5t-18.5 -114t-5 -142.5v-19.5v-14.5h152v-67h-152v-912h114v-68h-376zM796 0v68h106v912
h-106v67h256v-979h106v-68h-362zM417 0v68h113v912h-128v67h128v90q0 139 41 221t108 117.5t144 35.5q68 0 125 -27.5t91.5 -81t34.5 -132.5q0 -36 -12 -58t-31 -31.5t-40 -9.5q-32 0 -56 19.5t-24 59.5q0 25 9 38.5t17.5 27t8.5 37.5q0 34 -17.5 52.5t-44 26t-54.5 7.5
q-47 0 -80.5 -21t-51.5 -89.5t-18 -210.5v-71h198v-67h-198v-912h114v-68h-377z" />
    <glyph glyph-name="f_f_l" unicode="ffl" horiz-adv-x="1233" 
d="M35 0v68h115v912h-121v67h121v78q0 142 33.5 226.5t91.5 122t131 37.5q54 0 95.5 -28.5t66 -71t25.5 -82.5l-42 -100q0 57 -17 105t-46 77t-67 29q-39 0 -63 -27t-37 -75.5t-18 -114t-5 -142.5v-19.5v-14.5h151v-67h-151v-912h113v-68h-376zM849 0v68h97v1365h-97v67h246
v-1432h98v-68h-344zM429 0v68h105v912h-120v67h120v47q0 120 25.5 199t69 124t100.5 64t120 19v-67q-52 0 -84.5 -24.5t-50.5 -69.5t-24.5 -107t-6.5 -137v-28.5v-19.5h152v-67h-152v-912h115v-68h-369z" />
    <glyph glyph-name="f_i" unicode="fi" horiz-adv-x="813" 
d="M45 0v68h113v912h-129v67h129v90q0 139 41 221t107.5 117.5t144.5 35.5q68 0 125 -27.5t91.5 -81t34.5 -132.5q0 -36 -12 -58t-31 -31.5t-40 -9.5q-32 0 -56 19.5t-24 59.5q0 25 9 38.5t17 27t8 37.5q0 34 -17 52.5t-43.5 26t-54.5 7.5q-47 0 -80.5 -21t-51.5 -89.5
t-18 -210.5v-71h198v-67h-198v-912h114v-68h-377zM424 0v68h105v912h-105v67h255v-979h107v-68h-362z" />
    <glyph glyph-name="f_l" unicode="fl" horiz-adv-x="849" 
d="M45 0v68h105v912h-121v67h121v47q0 120 25.5 199t69 124t100.5 64t120 19v-67q-52 0 -84.5 -24.5t-50.5 -69.5t-24.5 -107t-6.5 -137v-28.5v-19.5h151v-67h-151v-912h114v-68h-368zM465 0v68h97v1365h-97v67h246v-1432h98v-68h-344z" />
    <glyph glyph-name=".notdef" horiz-adv-x="587" 
d="M134 133v947h317v-947h-317zM158 156h269v900h-269v-900zM295 889l-68 -69l-18 18l68 69l-68 69l18 19l68 -69l68 69l19 -19l-68 -69l68 -69l-19 -18zM295 582l-68 -69l-18 18l68 69l-68 69l18 18l68 -69l68 69l19 -18l-69 -69l69 -69l-19 -18zM295 274l-68 -69l-18 19
l68 69l-68 69l18 18l68 -69l68 69l19 -18l-68 -69l68 -69l-19 -19z" />
    <glyph glyph-name=".null" 
 />
    <glyph glyph-name="nonmarkingreturn" horiz-adv-x="666" 
 />
    <glyph glyph-name="CR" unicode="&#xd;" horiz-adv-x="307" 
 />
    <glyph glyph-name="space" unicode=" " horiz-adv-x="307" 
 />
    <glyph glyph-name="exclam" unicode="!" horiz-adv-x="309" 
d="M123 308q0 140 -8 270.5t-18.5 249.5t-18 224.5t-7.5 194.5q0 71 18.5 120t60.5 49q41 0 60.5 -49t19.5 -120q0 -89 -8 -194.5t-18.5 -224.5t-18 -249.5t-7.5 -270.5h-55zM147 -23q-42 0 -72.5 31.5t-30.5 73.5q0 44 30.5 74.5t72.5 30.5q43 0 73.5 -30.5t30.5 -74.5
q0 -42 -30.5 -73.5t-73.5 -31.5z" />
    <glyph glyph-name="quotedbl" unicode="&#x22;" horiz-adv-x="498" 
d="M120 1177q-5 35 -13 80.5t-14.5 91t-6.5 77.5q0 55 19 76.5t44 21.5t44 -21.5t19 -76.5q0 -32 -7 -77.5t-15 -91t-14 -80.5h-56zM321 1177q-5 35 -13 80.5t-14.5 91t-6.5 77.5q0 55 19 76.5t44 21.5t44 -21.5t19 -76.5q0 -32 -7 -77.5t-15 -91t-14 -80.5h-56z" />
    <glyph glyph-name="numbersign" unicode="#" horiz-adv-x="1089" 
d="M163 0l78 447h-180v68h194l71 420h-216v67h230l67 398h130l-68 -398h230l72 398h128l-71 -398h200v-67h-211l-74 -420h234v-68h-245l-79 -447h-129l81 447h-232l-80 -447h-130zM383 515h229l75 420h-229z" />
    <glyph glyph-name="dollar" unicode="$" horiz-adv-x="541" 
d="M241 -24v1442h52v-1442h-52zM272 63q-52 0 -80 18.5t-43.5 36.5t-29.5 18q-19 0 -19 -49h-50v270h57q2 -31 13 -71t32.5 -76.5t51.5 -60t69 -23.5q42 0 63.5 22t30 61.5t8.5 92.5q0 61 -22 122t-59.5 122.5t-83.5 123.5q-64 89 -98 161t-46.5 134t-12.5 119
q0 84 26 143.5t70.5 91t97.5 31.5q45 0 69 -16t36.5 -32.5t24.5 -16.5q9 0 14.5 10.5t5.5 34.5h51v-268h-57q-2 34 -11 73t-26.5 74t-43 57t-60.5 22q-49 0 -76 -38t-27 -107q0 -48 13.5 -98t46 -108.5t87.5 -136.5q78 -104 128.5 -213t50.5 -229q0 -76 -14 -132t-41 -92
t-64 -53.5t-82 -17.5z" />
    <glyph glyph-name="percent" unicode="%" horiz-adv-x="1053" 
d="M286 780q-55 0 -99.5 39t-71 109.5t-26.5 166.5q0 139 53 224t144 85q88 0 141.5 -79t53.5 -230q0 -148 -54.5 -231.5t-140.5 -83.5zM771 -11q-55 0 -100 39.5t-72 110.5t-27 165q0 140 54 225.5t145 85.5q87 0 140.5 -79.5t53.5 -231.5q0 -146 -54 -230.5t-140 -84.5z
M771 57q42 0 61 41t24 98.5t5 105.5q0 50 -5 108t-24 100.5t-61 42.5t-62.5 -42.5t-26 -101.5t-5.5 -109q0 -49 5 -105.5t25.5 -97t63.5 -40.5zM286 846q44 0 63 41.5t24 99.5t5 106q0 49 -5 107.5t-24 101t-63 42.5q-42 0 -62 -43t-25 -102t-5 -108t5 -106.5t24.5 -98
t62.5 -40.5zM51 0l878 1400h73l-876 -1400h-75z" />
    <glyph glyph-name="ampersand" unicode="&#x26;" horiz-adv-x="925" 
d="M729 -14q-52 0 -92.5 27t-70.5 92l-296 672q-11 21 -28 65.5t-34 102t-28.5 119t-11.5 115.5q0 70 20.5 116.5t52.5 73t69.5 38t70.5 11.5q32 0 66.5 -11t65 -36.5t49 -69t18.5 -107.5q0 -76 -22 -137.5t-54 -108t-62 -77t-45 -44.5l-37 61q42 44 72 122t30 184
q0 81 -19.5 123.5t-63.5 42.5q-43 0 -62 -39t-19 -114q0 -47 12 -102.5t28 -108t30.5 -90t18.5 -47.5l316 -706q24 -53 39 -68t35 -15q17 0 34 14t27 37l44 -45q-20 -42 -63 -66t-90 -24zM305 -18q-87 0 -149.5 46.5t-95.5 127t-33 181.5q0 117 37.5 210t95 163t115.5 115
l43 -56q-35 -33 -69 -88.5t-56 -124.5t-22 -144q0 -95 18 -174t57.5 -126t101.5 -47q42 0 75.5 29t58.5 74t39 93l41 -62q-12 -41 -40.5 -92t-80.5 -88t-136 -37zM809 281q-29 0 -42 18t-13 44q0 19 6.5 32.5t13 25.5t6.5 25q0 21 -6 30t-26 9q-23 0 -47 -26t-43 -64
t-29 -73l-53 51q12 34 36.5 76t59.5 72.5t77 30.5q65 0 92 -47.5t27 -107.5q0 -45 -15.5 -70.5t-43.5 -25.5z" />
    <glyph glyph-name="quotesingle" unicode="'" horiz-adv-x="334" 
d="M138 1177q-5 35 -13 80.5t-14.5 91t-6.5 77.5q0 55 19 76.5t44 21.5t44 -21.5t19 -76.5q0 -32 -7 -77.5t-15 -91t-14 -80.5h-56z" />
    <glyph glyph-name="parenleft" unicode="(" horiz-adv-x="415" 
d="M331 -430q-12 15 -53.5 89t-90.5 199.5t-85 294.5t-36 373q0 231 36.5 408.5t86.5 300.5t92 191t54 80l54 -61q-15 -16 -54 -81t-83 -178.5t-76 -278t-32 -381.5q0 -193 32.5 -350t77 -273t83 -185t50.5 -85z" />
    <glyph glyph-name="parenright" unicode=")" horiz-adv-x="415" 
d="M85 -430l-56 63q12 16 50.5 85t83 185t77 273t32.5 350q0 217 -32 381.5t-76 278t-83 178.5t-54 81l54 61q12 -12 54 -80t92 -191t86.5 -300.5t36.5 -408.5q0 -204 -36 -373t-85 -294.5t-90.5 -199.5t-53.5 -89z" />
    <glyph glyph-name="asterisk" unicode="*" horiz-adv-x="805" 
d="M386 882q-19 0 -33 13t-14 39q0 21 3.5 42t7.5 53t4 84q-31 -21 -56.5 -41t-46.5 -36t-38 -25q-10 -5 -18 -6.5t-15 -1.5q-18 0 -30 11t-12 28q0 13 7 25t23 22t37 16t51 17t73 36q-43 26 -72 38t-50 20t-40 19q-29 18 -29 44q0 20 13.5 31t28.5 11t35 -10q26 -13 51 -39
t88 -65q0 80 -7.5 114.5t-7.5 65.5q0 25 14 38t33 13q18 0 32.5 -13t14.5 -38q0 -21 -5.5 -42.5t-10.5 -53.5t-5 -84q68 40 95 65t53 39q19 10 33 10q19 0 30.5 -14t11.5 -30q0 -26 -31 -44q-18 -10 -40 -17.5t-52.5 -19.5t-75.5 -38q43 -24 74.5 -35.5t54.5 -18t41 -15.5
q16 -9 23 -20.5t7 -23.5q0 -18 -12.5 -30.5t-32.5 -12.5q-8 0 -17 1.5t-17 7.5q-17 11 -37.5 26.5t-46.5 35t-60 40.5q0 -53 5 -84.5t9 -52t4 -42.5q0 -26 -13.5 -39t-31.5 -13z" />
    <glyph glyph-name="plus" unicode="+" horiz-adv-x="825" 
d="M380 251v624h68v-624h-68zM101 529v67h622v-67h-622z" />
    <glyph glyph-name="comma" unicode="," horiz-adv-x="319" 
d="M123 -210l-47 59q22 12 46 36.5t41 51t17 44.5q0 10 -7 10q-5 0 -11.5 -4.5t-24.5 -4.5q-25 0 -46 13t-34 36.5t-13 53.5q0 45 30.5 74t83.5 29q51 0 85.5 -32t34.5 -86q0 -73 -24 -128t-60 -93t-71 -59z" />
    <glyph glyph-name="hyphen" unicode="-" horiz-adv-x="645" 
d="M101 529v67h442v-67h-442z" />
    <glyph glyph-name="period" unicode="." horiz-adv-x="322" 
d="M155 -23q-42 0 -72.5 31t-30.5 74q0 44 30.5 74t72.5 30q43 0 73.5 -30t30.5 -74q0 -43 -30.5 -74t-73.5 -31z" />
    <glyph glyph-name="slash" unicode="/" horiz-adv-x="623" 
d="M32 -104l500 1608h69l-497 -1608h-72z" />
    <glyph glyph-name="zero" unicode="0" horiz-adv-x="797" 
d="M399 -23q-79 0 -146 77t-107.5 236.5t-40.5 407.5q0 249 40.5 409t107.5 237.5t146 77.5q78 0 145 -77.5t107.5 -237.5t40.5 -409q0 -248 -40.5 -407.5t-107.5 -236.5t-145 -77zM399 47q29 0 55 49t46.5 138t31.5 207.5t11 256.5q0 139 -11 258t-31.5 208.5t-46.5 140
t-55 50.5q-31 0 -57.5 -49t-46.5 -138t-31 -208.5t-11 -261.5q0 -141 11.5 -260t31 -207t46 -136t57.5 -48z" />
    <glyph glyph-name="one" unicode="1" horiz-adv-x="534" 
d="M82 0v68h108v1118q-6 -14 -26 -27.5t-43 -23.5t-41 -13v79q27 7 57 25t58 48t49.5 71.5t28.5 96.5h67v-1374h111v-68h-369z" />
    <glyph glyph-name="two" unicode="2" horiz-adv-x="699" 
d="M454 -11q-38 0 -67.5 12.5t-56.5 28.5t-54.5 28t-62.5 12q-41 0 -62.5 -23.5t-25.5 -46.5h-67q0 161 29.5 281t75.5 211.5t98.5 165.5t99 141t76 139t29.5 162q0 93 -21 148.5t-57.5 80.5t-83.5 25q-35 0 -63 -16.5t-43.5 -41t-15.5 -48.5q0 -21 7.5 -34.5t14.5 -29
t7 -42.5q0 -43 -18.5 -61t-47.5 -18q-28 0 -47 23t-19 77q0 70 29.5 128.5t87.5 94.5t142 36q47 0 95.5 -14.5t89.5 -50.5t66 -98t25 -158q0 -97 -22.5 -168.5t-60.5 -128t-84.5 -105.5t-95 -101t-92 -115.5t-75 -146.5t-44.5 -197q9 14 28.5 25.5t47 19t60.5 7.5
q40 0 75.5 -14.5t66.5 -29t56 -14.5q37 0 55.5 26.5t18.5 89.5h65v-35q0 -61 -16.5 -112t-51.5 -82t-91 -31z" />
    <glyph glyph-name="three" unicode="3" horiz-adv-x="706" 
d="M326 -24q-78 0 -133 36t-83.5 96t-28.5 129q0 54 23.5 78.5t52.5 24.5q27 0 43.5 -17.5t16.5 -57.5q0 -27 -9 -43t-18 -32.5t-9 -45.5q0 -36 34 -66.5t88 -30.5q45 0 81.5 25.5t58.5 93.5t22 194q0 115 -21.5 182.5t-53.5 100.5t-63.5 43.5t-51.5 10.5v71q20 0 53 9
t66 41.5t55.5 101t22.5 187.5q0 121 -43.5 183t-118.5 62q-55 0 -91 -28.5t-36 -63.5q0 -31 9 -49l17 -34t8 -43q0 -41 -16 -58.5t-44 -17.5t-51.5 25.5t-23.5 79.5q0 70 30 128.5t87.5 94.5t138.5 36q80 0 144 -37.5t101 -108.5t37 -173q0 -91 -25 -160t-64 -115t-81.5 -70
t-78.5 -26q36 -2 79.5 -25.5t83.5 -70t66 -115t26 -160.5q0 -108 -34.5 -195t-101.5 -138.5t-164 -51.5z" />
    <glyph glyph-name="four" unicode="4" horiz-adv-x="645" 
d="M193 0v68h109v290h-259v68l235 818q36 39 61 88t46 99h67v-1005h19q31 0 41.5 38t10.5 106h63v-212h-134v-290h109v-68h-368zM114 420l-7 6h197v698l-20 -108z" />
    <glyph glyph-name="five" unicode="5" horiz-adv-x="770" 
d="M333 -24q-78 0 -129.5 36t-77 96t-25.5 129q0 54 21.5 78.5t49.5 24.5t46.5 -18.5t18.5 -62.5q0 -24 -9.5 -40t-19.5 -31t-10 -39t9.5 -48t34.5 -40.5t69 -16.5q67 0 104 44.5t52 131.5t15 211q0 120 -11.5 194t-31.5 114t-46.5 54.5t-56.5 14.5q-46 0 -75.5 -20.5
t-47.5 -52.5t-30 -68l-69 11l61 722h66q7 -20 36.5 -39.5t70.5 -32t84 -12.5q68 0 104.5 25t36.5 59h57q0 -59 -24 -106t-68 -74t-105 -27q-47 0 -82.5 13t-60 31.5t-37.5 34t-17 20.5l-39 -497q7 18 28 38.5t56.5 35t85.5 14.5q49 0 97.5 -23.5t88.5 -75t64 -137.5t24 -212
q0 -139 -28.5 -228.5t-74.5 -140t-100 -70.5t-105 -20z" />
    <glyph glyph-name="six" unicode="6" horiz-adv-x="765" 
d="M388 -24q-85 0 -142 55t-90 152t-47.5 224t-14.5 273q0 133 18.5 264t57.5 239.5t101 173.5t148 65q60 0 106 -36t73 -94.5t27 -128.5q0 -59 -20 -82t-48 -23t-47.5 21t-19.5 63q0 30 5.5 46.5t10.5 32t5 42.5q0 24 -12 45t-33.5 33.5t-52.5 12.5q-43 0 -72 -35
t-47 -95.5t-27.5 -137t-13 -160.5t-3.5 -165q3 17 24.5 46.5t60.5 53.5t93 24q47 0 91 -26t80 -79.5t57 -136.5t21 -198q0 -108 -20.5 -195t-58.5 -148t-91 -93.5t-119 -32.5zM386 43q41 0 71 36t46 123.5t16 241.5q0 134 -12 212t-40 111t-74 33q-38 0 -68 -30.5t-49 -81.5
t-25 -113q0 -130 7 -229.5t22 -167.5t41 -101.5t65 -33.5z" />
    <glyph glyph-name="seven" unicode="7" horiz-adv-x="679" 
d="M311 -20q-28 0 -47.5 17.5t-30 57.5t-10.5 108q0 150 32.5 285.5t80.5 258t96.5 233.5t81 212t32.5 193q-5 -19 -23.5 -35t-48 -25t-70.5 -9q-44 0 -70.5 8t-47 15.5t-45.5 7.5q-24 0 -43.5 -9t-32 -36t-15.5 -83h-65v221h533q0 -26 -3 -58t-9.5 -68.5t-15 -77t-19 -84
t-22.5 -88.5q-14 -55 -31 -113.5t-33 -119.5q-35 -123 -62 -278.5t-27 -349.5q0 -68 -10 -108t-29 -57.5t-46 -17.5z" />
    <glyph glyph-name="eight" unicode="8" horiz-adv-x="765" 
d="M366 -20q-49 0 -100.5 18.5t-94.5 59t-70 107.5t-27 164q0 94 27 163.5t66 116.5t78 75t61 41l59 -43q-29 -23 -66.5 -64t-65 -108.5t-27.5 -171.5q0 -151 45.5 -221t118.5 -70t120.5 62.5t47.5 182.5q0 82 -24.5 140.5t-73.5 113t-125 121.5q-56 50 -103.5 116
t-76.5 146.5t-29 170.5q0 103 37.5 175t99 110.5t134.5 38.5q71 0 130 -33t94.5 -101.5t35.5 -174.5q0 -83 -24.5 -146.5t-60 -108.5t-70.5 -73t-57 -41l-43 37q23 16 57.5 59.5t62 113.5t27.5 165q0 67 -16.5 121t-49.5 86t-84 32q-47 0 -83 -29.5t-56 -80t-20 -115.5
q0 -69 31 -136t78 -124t94 -96q44 -34 89 -76t82 -94t59.5 -116.5t22.5 -145.5q0 -97 -27 -166.5t-72.5 -113.5t-100.5 -65.5t-110 -21.5z" />
    <glyph glyph-name="nine" unicode="9" horiz-adv-x="765" 
d="M384 1422q85 0 141.5 -55t89.5 -151.5t47.5 -224t14.5 -273.5q0 -132 -18.5 -263.5t-57.5 -240t-101 -173.5t-148 -65q-59 0 -105.5 36t-73.5 95.5t-27 127.5q0 60 20 82.5t48 22.5q29 0 48 -20.5t19 -63.5q0 -30 -5 -46.5t-10.5 -32t-5.5 -42.5q0 -24 12 -44.5t34 -33.5
t52 -13q43 0 72 35t47.5 95.5t27.5 137.5t12.5 160.5t3.5 164.5q-2 -16 -23.5 -45.5t-60 -54t-94.5 -24.5q-46 0 -90.5 26t-80.5 79.5t-57 137t-21 197.5q0 108 20.5 195t59 148t91.5 93.5t119 32.5zM385 1356q-41 0 -71 -36.5t-46 -123.5t-16 -242q0 -134 12.5 -212
t40.5 -111t74 -33q38 0 67.5 30.5t49 81.5t24.5 113q0 130 -6.5 230t-21.5 167.5t-41 101.5t-66 34z" />
    <glyph glyph-name="colon" unicode=":" horiz-adv-x="525" 
d="M226 859q-42 0 -72.5 31t-30.5 74q0 44 30.5 74t72.5 30q43 0 73.5 -30t30.5 -74q0 -43 -30.5 -74t-73.5 -31zM226 -25q-42 0 -72.5 31t-30.5 74q0 44 30.5 74t72.5 30q43 0 73.5 -30t30.5 -74q0 -43 -30.5 -74t-73.5 -31z" />
    <glyph glyph-name="semicolon" unicode=";" horiz-adv-x="525" 
d="M239 859q-42 0 -72.5 31t-30.5 74q0 44 30.5 74t72.5 30q43 0 73.5 -30t30.5 -74q0 -43 -30.5 -74t-73.5 -31zM199 -210l-47 59q22 12 46 36.5t41 51t17 44.5q0 10 -7 10q-5 0 -11.5 -4.5t-24.5 -4.5q-25 0 -46 13t-34 36.5t-13 53.5q0 45 30.5 74t83.5 29q51 0 85.5 -32
t34.5 -86q0 -73 -24 -128t-60 -93t-71 -59z" />
    <glyph glyph-name="less" unicode="&#x3c;" horiz-adv-x="784" 
d="M625 95l-467 408v70l467 403v-82l-415 -358l415 -358v-83z" />
    <glyph glyph-name="equal" unicode="=" horiz-adv-x="818" 
d="M98 729v67h622v-67h-622zM98 329v67h622v-67h-622z" />
    <glyph glyph-name="greater" unicode="&#x3e;" horiz-adv-x="784" 
d="M165 95v83l416 358l-416 358v82l467 -403v-70z" />
    <glyph glyph-name="question" unicode="?" horiz-adv-x="599" 
d="M212 283q0 127 20 223.5t49.5 173.5t59 144.5t49.5 136.5t20 150q0 127 -39 185.5t-120 58.5q-54 0 -82 -29.5t-28 -65.5q0 -25 8.5 -42.5t16.5 -35t8 -44.5q0 -44 -18 -62t-46 -18t-49 26.5t-21 90.5q0 76 29.5 131.5t84 85.5t129.5 30q49 0 97 -14.5t87.5 -48.5t63 -93
t23.5 -149t-27.5 -162.5t-68 -140t-81 -142t-68 -168.5t-27.5 -221h-70zM247 -23q-42 0 -73 31.5t-31 73.5q0 44 31 74.5t73 30.5t73 -30.5t31 -74.5q0 -42 -31 -73.5t-73 -31.5z" />
    <glyph glyph-name="at" unicode="@" horiz-adv-x="930" 
d="M463 -22q-67 0 -136.5 35.5t-127.5 112.5t-93.5 201t-35.5 302q0 226 43 377.5t112 241.5t149 129t153 39q102 0 178 -58t118 -186.5t42 -339.5q0 -88 -16 -175t-46 -158.5t-73 -114t-98 -42.5q-36 0 -55.5 17.5t-27 43t-7.5 49.5q-14 -61 -53.5 -90t-87.5 -29
q-33 0 -70.5 21.5t-63 82t-25.5 173.5q0 89 15 171t44 147t72 103t99 38q37 0 59.5 -15.5t34 -37t13.5 -38.5l6 69h95l-44 -514q-1 -16 -2 -29.5t-1 -23.5q0 -24 5.5 -38.5t21.5 -14.5q34 0 63.5 55.5t48 147.5t18.5 204q0 250 -60.5 382t-194.5 132q-78 0 -148.5 -42
t-125 -130t-85.5 -224t-31 -325q0 -172 41.5 -302.5t114 -203.5t162.5 -73q95 0 149 40t97 102l56 -42q-26 -38 -69 -77.5t-101 -66t-132 -26.5zM437 414q22 0 40.5 19t32.5 49t23.5 64t11.5 63l21 243q0 30 -9.5 60.5t-28 51t-43.5 20.5q-35 0 -58.5 -38t-37.5 -97.5
t-20 -125.5t-6 -122q0 -82 18.5 -134.5t55.5 -52.5z" />
    <glyph glyph-name="A" unicode="A" horiz-adv-x="677" 
d="M8 0v68h79l184 1335h109l197 -1335h97v-68h-342v68h84l-128 1005v0l-130 -1005h74v-68h-224zM164 311v64h246v-64h-246z" />
    <glyph glyph-name="B" unicode="B" horiz-adv-x="755" 
d="M53 0v68h94v1265h-94v67h329q56 0 106.5 -17.5t90.5 -55t62.5 -97.5t22.5 -145q0 -84 -18.5 -146t-49.5 -103.5t-67.5 -64.5t-72.5 -29q37 -1 78.5 -21t79 -62t61 -108.5t23.5 -160.5q0 -128 -38 -215t-101 -131t-140 -44h-366zM295 68h92q39 0 74 32.5t57.5 103.5
t22.5 187q0 121 -27 190t-66.5 97.5t-78.5 28.5h-74v-639zM295 774h74q40 0 72.5 30t52 98t19.5 183q0 106 -22 159t-56 71t-68 18h-72v-559z" />
    <glyph glyph-name="C" unicode="C" horiz-adv-x="654" 
d="M393 -20q-145 0 -237.5 183t-92.5 535q0 131 21 259t63.5 233t106 168.5t147.5 63.5q58 0 100.5 -40t66 -100.5t23.5 -121.5q0 -50 -16.5 -75.5t-50.5 -25.5q-36 0 -53.5 22t-17.5 63q0 26 9 45t18 40t9 53q0 35 -18.5 53t-43.5 18q-42 0 -75 -41.5t-57.5 -111
t-40 -155.5t-23.5 -175.5t-8 -169.5q0 -118 9 -219t26 -181t40.5 -136t52 -86t61.5 -30q37 0 62 23.5t41.5 60t26.5 74.5l59 -30q-17 -52 -45 -96.5t-68.5 -72t-94.5 -27.5z" />
    <glyph glyph-name="D" unicode="D" horiz-adv-x="769" 
d="M53 0v68h92v1265h-92v67h309q95 0 174 -75.5t127 -228.5t48 -385q0 -234 -48 -392.5t-127.5 -238.5t-173.5 -80h-309zM296 68h45q57 0 106.5 67t81 209t31.5 367q0 198 -28.5 337t-72.5 212t-93 73h-70v-1265z" />
    <glyph glyph-name="E" unicode="E" horiz-adv-x="681" 
d="M53 0v68h93v1265h-93v67h550v-289h-67q0 81 -10 130t-33 70.5t-67 21.5h-129v-599h196v97h64v-258h-64v94h-196v-599h129q44 0 67 22t33 71.5t10 130.5h67v-292h-550z" />
    <glyph glyph-name="F" unicode="F" horiz-adv-x="683" 
d="M78 0v68h93v1265h-93v67h522v-289h-68q0 81 -6 130t-28 70.5t-69 21.5h-108v-587h184v96h67v-258h-67v95h-184v-611h93v-68h-336z" />
    <glyph glyph-name="G" unicode="G" horiz-adv-x="740" 
d="M394 -20q-90 0 -163.5 81.5t-116.5 241.5t-43 395t49.5 396t128 243.5t164.5 82.5q69 0 115 -36.5t70 -96t24 -127.5q0 -51 -18.5 -76t-51.5 -25q-35 0 -53 25t-18 64q0 25 9 43.5t18 38t9 48.5t-25 53t-66 24q-53 0 -91.5 -61t-63 -160.5t-36 -214t-11.5 -221.5
q0 -156 14 -277t38.5 -204t56 -126t66.5 -43q27 0 46.5 9.5t29.5 19.5v489h-87v67h315v-67h-89v-566h-61q-1 2 -8.5 7t-18.5 5q-14 0 -30 -8t-40 -16t-62 -8z" />
    <glyph glyph-name="H" unicode="H" horiz-adv-x="849" 
d="M53 0v68h92v1265h-92v67h318v-67h-77v-579h262v579h-76v67h317v-67h-94v-1265h94v-68h-317v68h76v619h-262v-619h77v-68h-318z" />
    <glyph glyph-name="I" unicode="I" horiz-adv-x="472" 
d="M66 0v68h95v1265h-95v67h341v-67h-96v-1265h96v-68h-341z" />
    <glyph glyph-name="J" unicode="J" horiz-adv-x="624" 
d="M238 -25q-69 0 -111 31.5t-61.5 90t-19.5 138.5q0 57 20.5 80.5t52.5 23.5q30 0 49 -21t19 -68q0 -30 -8.5 -49t-18 -37t-9.5 -47q0 -32 21 -51.5t50 -19.5q49 0 79 40.5t30 151.5v1095h-100v67h347v-67h-97v-948q0 -116 -16.5 -194.5t-48 -126t-76.5 -68.5t-102 -21z
" />
    <glyph glyph-name="K" unicode="K" horiz-adv-x="760" 
d="M38 0v68h93v1265h-93v67h339v-67h-98v-572l278 572h-86v67h236v-67h-72l-264 -549l6 65l263 -781h80v-68h-312v68h69l-219 646l21 -6v-640h82v-68h-323z" />
    <glyph glyph-name="L" unicode="L" horiz-adv-x="627" 
d="M62 0v68h90v1265h-90v67h331v-67h-92v-1265h103q31 0 51.5 22.5t31 72t10.5 129.5h68v-292h-503z" />
    <glyph glyph-name="M" unicode="M" horiz-adv-x="983" 
d="M37 0v68h91v1265h-86v67h295l164 -1021h-19l184 1021h279v-67h-86v-1265h94v-68h-338v68h94v1263h18l-245 -1259h-79l-220 1274h13v-1278h89v-68h-248z" />
    <glyph glyph-name="N" unicode="N" horiz-adv-x="801" 
d="M32 0v68h92v1265h-92v67h280l306 -1071h-7v1004h-91v67h249v-67h-89v-1333h-125l-370 1292h9v-1224h99v-68h-261z" />
    <glyph glyph-name="O" unicode="O" horiz-adv-x="754" 
d="M377 -22q-98 0 -168.5 90.5t-108 252t-37.5 377.5q0 217 37.5 379.5t108 253.5t168.5 91q100 0 171 -91t109.5 -253.5t38.5 -379.5q0 -216 -38.5 -377.5t-109.5 -252t-171 -90.5zM377 46q41 0 70.5 46t49.5 132.5t30 206.5t10 267t-10 267.5t-30 207.5t-49.5 134.5
t-70.5 47.5q-40 0 -69.5 -47.5t-48 -134.5t-28 -207.5t-9.5 -267.5t9.5 -267t28 -206.5t48 -132.5t69.5 -46z" />
    <glyph glyph-name="P" unicode="P" horiz-adv-x="743" 
d="M53 0v68h106v1265h-106v67h366q45 0 93.5 -19t90.5 -63t68 -118.5t26 -184.5q0 -113 -26.5 -198t-69 -141.5t-91 -84.5t-91.5 -28h-111v-495h106v-68h-361zM308 630h74q41 0 77 45t58.5 131t22.5 210q0 117 -20.5 186.5t-54.5 100t-76 30.5h-81v-703z" />
    <glyph glyph-name="Q" unicode="Q" horiz-adv-x="754" 
d="M628 -362q-34 0 -56.5 26.5t-22.5 71.5q0 38 13.5 67t27 58.5t13.5 70.5q0 28 -20 57.5t-59 29.5q-12 0 -28 -5t-27 -11l17 66q5 4 24.5 9.5t42.5 5.5q85 0 124.5 -81.5t39.5 -220.5q0 -72 -25.5 -108t-63.5 -36zM377 -22q-98 0 -168.5 90.5t-108 252t-37.5 377.5
q0 217 37.5 379.5t108 253.5t168.5 91q100 0 171 -91t109.5 -253.5t38.5 -379.5q0 -216 -38.5 -377.5t-109.5 -252t-171 -90.5zM377 46q41 0 70.5 46t49.5 132.5t30 206.5t10 267t-10 267.5t-30 207.5t-49.5 134.5t-70.5 47.5q-40 0 -69.5 -47.5t-48 -134.5t-28 -207.5
t-9.5 -267.5t9.5 -267t28 -206.5t48 -132.5t69.5 -46z" />
    <glyph glyph-name="R" unicode="R" horiz-adv-x="822" 
d="M684 -16q-67 0 -99 36t-41 97.5t-9 137.5q0 51 2 102.5t2 93.5q0 97 -13 147.5t-50.5 69.5t-110.5 19h-57v-619h97v-68h-345v68h99v1265h-99v67h368q80 0 142.5 -33.5t98 -105t35.5 -186.5q0 -87 -20 -151.5t-54 -107.5t-76.5 -66t-87.5 -28q92 -2 140.5 -37t66.5 -103.5
t18 -169.5q0 -51 -2.5 -103t-2.5 -100q0 -31 2.5 -67.5t10 -62.5t22.5 -26q9 0 15.5 11t7.5 24h62q-3 -36 -19.5 -58.5t-43.5 -34t-59 -11.5zM308 754h78q59 0 95.5 43t54 115t17.5 159q0 81 -14 140t-48.5 90.5t-95.5 31.5h-87v-579z" />
    <glyph glyph-name="S" unicode="S" horiz-adv-x="617" 
d="M327 -27q-46 0 -75 12.5t-48 29t-32 29t-25 12.5q-23 0 -23 -56h-59v305h67q2 -29 11 -64t25 -69.5t39.5 -63.5t54 -46.5t67.5 -17.5q49 0 75 24.5t35.5 69.5t9.5 104q0 69 -26.5 137.5t-70.5 137.5t-98 139q-75 101 -115.5 182t-55.5 151t-15 134q0 95 31 161.5
t83.5 102t115.5 35.5q54 0 81.5 -18t42.5 -36t29 -18q12 0 18 11t6 39h60v-302h-67q-2 38 -13 82.5t-31.5 83.5t-51 64t-71.5 25q-57 0 -89 -43t-32 -121q0 -55 15.5 -110.5t54.5 -121.5t104 -154q62 -78 109.5 -158t75 -165t27.5 -175q0 -87 -17.5 -149.5t-49 -102.5
t-75 -60t-97.5 -20z" />
    <glyph glyph-name="T" unicode="T" horiz-adv-x="730" 
d="M177 0v68h114v1265h-73q-51 0 -75 -19.5t-30.5 -67.5t-6.5 -135h-68v289h654v-289h-67q0 87 -7 135t-30.5 67.5t-75.5 19.5h-72v-1265h118v-68h-381z" />
    <glyph glyph-name="U" unicode="U" horiz-adv-x="754" 
d="M390 -24q-45 0 -90.5 15t-83 51.5t-60 101.5t-22.5 165v1024h-97v67h349v-67h-100v-1020q0 -145 36.5 -202.5t97.5 -57.5q28 0 52.5 11.5t43 39t29 75.5t10.5 120v1034h-85v67h248v-67h-95v-1045q0 -119 -30.5 -187t-83 -96.5t-119.5 -28.5z" />
    <glyph glyph-name="V" unicode="V" horiz-adv-x="688" 
d="M296 -2l-198 1335h-83v67h323v-67h-80l134 -1007h-11l133 1007h-86v67h251v-67h-91l-192 -1335h-100z" />
    <glyph glyph-name="W" unicode="W" horiz-adv-x="1078" 
d="M302 -2l-180 1335h-104v67h358v-67h-82l110 -1012l-21 -38l144 1023l20 -149l-33 176h-92v67h347v-67h-91l131 -1003l-15 -38l121 1041h-81v67h241v-67h-85l-179 -1335h-92l-168 1143l30 46l-188 -1189h-91z" />
    <glyph glyph-name="X" unicode="X" horiz-adv-x="767" 
d="M384 0v68h101l-353 1265h-88v67h349v-67h-97l353 -1265h89v-68h-354zM18 0v68h92l212 631l66 -33l-205 -598h91v-68h-256zM437 725l-61 39l192 569h-88v67h248v-67h-87z" />
    <glyph glyph-name="Y" unicode="Y" horiz-adv-x="734" 
d="M197 0v68h101v520l-181 745h-93v67h340v-67h-75l154 -697h-53l169 697h-79v67h244v-67h-93l-183 -725v-540h95v-68h-346z" />
    <glyph glyph-name="Z" unicode="Z" horiz-adv-x="649" 
d="M59 0v68l343 1265h-89q-78 0 -114 -21.5t-46.5 -70.5t-10.5 -130h-67v289h493v-66l-348 -1266h124q70 0 108.5 22t54 71.5t15.5 130.5h68v-292h-531z" />
    <glyph glyph-name="bracketleft" unicode="[" horiz-adv-x="290" 
d="M38 -440v1940h214v-67h-146v-1805h146v-68h-214z" />
    <glyph glyph-name="backslash" unicode="\" horiz-adv-x="645" 
d="M612 -104h-71l-498 1608h70z" />
    <glyph glyph-name="bracketright" unicode="]" horiz-adv-x="370" 
d="M333 -440h-214v68h146v1805h-146v67h214v-1940z" />
    <glyph glyph-name="asciicircum" unicode="^" horiz-adv-x="850" 
d="M116 949l269 451h83l266 -451h-78l-230 387l-231 -387h-79z" />
    <glyph glyph-name="underscore" unicode="_" horiz-adv-x="937" 
d="M18 -216v67h903v-67h-903z" />
    <glyph glyph-name="grave" unicode="`" horiz-adv-x="594" 
d="M367 1266l-200 95q-26 12 -39.5 24.5t-13.5 36.5q0 22 15 34t37 12q19 0 32.5 -7.5t27.5 -18.5l171 -139z" />
    <glyph glyph-name="a" unicode="a" horiz-adv-x="684" 
d="M266 -21q-61 0 -108.5 30t-75.5 88.5t-28 143.5q0 93 36.5 154.5t90 104t107.5 77t90 72t36 90.5q0 75 -11.5 129.5t-37.5 84t-70 29.5q-50 0 -82 -32t-32 -74q0 -22 7 -36t13.5 -28.5t6.5 -39.5q0 -35 -17.5 -57t-49.5 -22q-31 0 -48.5 27t-17.5 75q0 74 30.5 133.5
t86 94t127.5 34.5q74 0 129 -33.5t85.5 -106t30.5 -191.5v-588q0 -43 9 -58t27 -15q17 0 27.5 7.5t15.5 13.5l36 -57q-13 -15 -46.5 -28.5t-76.5 -13.5q-42 0 -69.5 13.5t-41 35.5t-16.5 48q-5 -17 -23 -42t-51.5 -44t-88.5 -19zM305 67q36 0 60.5 28.5t36.5 67.5t12 71v371
q-2 -28 -33.5 -55t-70.5 -63t-69 -91t-30 -141q0 -92 24.5 -140t69.5 -48z" />
    <glyph glyph-name="b" unicode="b" horiz-adv-x="714" 
d="M404 -20q-48 0 -77 25.5t-43.5 59.5t-17.5 59l-11 -124h-238v68h106v1365h-106v67h258v-563q4 16 19 44.5t45 51.5t78 23q65 0 117 -54t82.5 -172.5t30.5 -311.5q0 -198 -32.5 -316t-87.5 -170t-123 -52zM379 79q30 0 52 27.5t36 82t21 136t7 189.5q0 99 -6 179
t-19.5 136.5t-34.5 87t-52 30.5q-30 0 -53 -30t-37 -75t-18 -90v-400q3 -63 16 -126t36 -105t52 -42z" />
    <glyph glyph-name="c" unicode="c" horiz-adv-x="607" 
d="M347 -21q-70 0 -125 45t-93 122.5t-58 177t-20 208.5q0 133 27.5 231.5t71.5 163.5t97 97.5t103 32.5q67 0 113 -39t70 -100.5t24 -128.5q0 -46 -17.5 -71t-48.5 -25t-49 22t-18 58q0 24 7.5 37.5t15 28t7.5 38.5q0 52 -28 81t-69 29t-69.5 -40t-46 -105.5t-25 -145
t-7.5 -158.5q0 -81 7.5 -166.5t25 -158t48.5 -117t79 -44.5q54 0 83.5 29t44.5 73l51 -43q-18 -44 -67 -88t-134 -44z" />
    <glyph glyph-name="d" unicode="d" horiz-adv-x="720" 
d="M313 -20q-68 0 -123 52t-87 170t-32 316q0 193 31.5 311.5t84.5 172.5t116 54q50 0 79.5 -19.5t44 -45.5t18.5 -46v487h-115v68h267v-1432h112v-68h-243l-12 125q-2 -26 -19 -60.5t-47 -59.5t-75 -25zM340 79q30 0 52.5 39t36 98.5t16.5 118.5v417q-4 51 -19 96t-38.5 73
t-51.5 28q-31 0 -52.5 -32.5t-35 -91t-19.5 -138t-6 -173.5q0 -107 7 -188.5t21 -136.5t36 -82.5t53 -27.5z" />
    <glyph glyph-name="e" unicode="e" horiz-adv-x="630" 
d="M327 -21q-72 0 -124.5 43t-85.5 118.5t-49 174.5t-16 211q0 134 22.5 234t61 166t87.5 98.5t103 32.5q63 0 109.5 -37.5t76.5 -101.5t45 -144.5t15 -166.5q0 -21 -0.5 -41.5t-1.5 -40.5h-379v67h234q0 126 -9 214.5t-30.5 135.5t-59.5 47q-36 0 -63.5 -47t-42.5 -142.5
t-15 -243.5q0 -109 6 -201t21 -160t42 -105.5t68 -37.5q62 0 96.5 36t47.5 70l59 -34q-19 -56 -78.5 -100.5t-139.5 -44.5z" />
    <glyph glyph-name="f" unicode="f" horiz-adv-x="521" 
d="M44 0v68h110v912h-125v67h125v137q0 105 26 178t78 111t127 38q84 0 128 -70t44 -179q0 -47 -17 -72.5t-52 -25.5q-36 0 -51 23.5t-15 57.5q0 28 9.5 44.5t19 31t9.5 35.5q0 35 -18.5 61t-46.5 26q-26 0 -43.5 -18.5t-28 -53t-15 -82.5t-4.5 -107v-135h129v-67h-129v-912
h111v-68h-371z" />
    <glyph glyph-name="g" unicode="g" horiz-adv-x="704" 
d="M350 -498q-88 0 -155.5 35t-105.5 95t-38 136q0 64 18.5 107.5t45 71t51 42t37.5 19.5q-9 2 -28.5 11t-41 27t-37.5 48t-16 74q0 39 15 67t36 43.5t40 18.5q4 1 10 2t7 0q-10 9 -26.5 33t-33 65t-28 100t-11.5 137q0 119 23 200t61.5 130t85 71t93.5 22q84 0 140.5 -50.5
t85 -142t28.5 -213.5q0 -117 -22 -198t-59.5 -130t-83.5 -70.5t-93 -21.5q-48 0 -75 11.5t-32 13.5q-1 0 -2 0.5t-4 0.5q-18 0 -37.5 -20t-19.5 -52q0 -45 41.5 -71.5t154.5 -44.5q140 -20 210 -87t70 -195q0 -76 -27 -130.5t-72 -88.5t-98.5 -50t-106.5 -16zM350 -434
q74 0 119 54t45 133q0 92 -26.5 134.5t-95.5 63.5q-20 7 -41 14t-38.5 12.5t-27.5 8.5q-31 -17 -54 -48t-35.5 -72t-12.5 -91q0 -55 18.5 -102.5t55.5 -77t93 -29.5zM348 300q29 0 53 26t38 101t14 220q0 141 -14 214t-37.5 99.5t-51.5 26.5t-52.5 -26.5t-40 -101
t-15.5 -217.5q0 -144 15.5 -217t39.5 -99t51 -26zM442 989q9 60 55 95.5t97 35.5q43 0 60.5 -19.5t17.5 -52.5q0 -28 -16 -45t-42 -17q-23 0 -33.5 10.5t-18 21t-25.5 10.5q-13 0 -23 -10.5t-10 -31.5z" />
    <glyph glyph-name="h" unicode="h" horiz-adv-x="789" 
d="M34 0v68h102v1365h-102v67h252v-563q2 14 24 43t61 53.5t92 24.5q51 0 96 -26.5t73 -96t28 -199.5v-668h104v-68h-333v68h79v649q0 130 -23 183t-73 53q-33 0 -61.5 -29.5t-47 -76t-19.5 -99.5v-680h81v-68h-333z" />
    <glyph glyph-name="i" unicode="i" horiz-adv-x="425" 
d="M34 0v68h107v912h-107v67h257v-979h107v-68h-364zM214 1235q-47 0 -79.5 32.5t-32.5 78.5q0 47 32.5 79.5t79.5 32.5q45 0 77.5 -32.5t32.5 -79.5q0 -46 -32.5 -78.5t-77.5 -32.5z" />
    <glyph glyph-name="j" unicode="j" horiz-adv-x="421" 
d="M74 -498q-53 0 -91 31t-58.5 84t-20.5 120q0 48 20.5 73.5t51.5 25.5q30 0 46 -22.5t16 -59.5q0 -25 -5.5 -44t-11.5 -37t-6 -41q0 -22 7.5 -35.5t19.5 -19t26 -5.5q53 0 77 61.5t24 179.5v1167h-112v67h262v-1128q0 -117 -20.5 -197t-55.5 -128.5t-78.5 -70t-90.5 -21.5
zM240 1235q-47 0 -80 32.5t-33 78.5q0 47 33 79.5t80 32.5q45 0 77 -32.5t32 -79.5q0 -46 -32 -78.5t-77 -32.5z" />
    <glyph glyph-name="k" unicode="k" horiz-adv-x="752" 
d="M36 0v68h102v1365h-102v67h252v-833l199 313h-88v67h260v-67h-93l-141 -239l237 -673h86v-68h-335v68h84l-186 527l-23 -52v-475h80v-68h-332z" />
    <glyph glyph-name="l" unicode="l" horiz-adv-x="425" 
d="M41 0v68h97v1365h-97v67h246v-1432h98v-68h-344z" />
    <glyph glyph-name="m" unicode="m" horiz-adv-x="1081" 
d="M34 0v68h97v912h-97v67h244v-113q2 18 21 47t56.5 52t92.5 23q57 0 90.5 -28.5t49.5 -62t18 -48.5q6 28 31.5 60.5t67 55.5t95.5 23q88 0 131.5 -74t43.5 -182v-732h94v-68h-325v68h81v623q0 84 -4.5 143.5t-21.5 90.5t-56 31q-40 0 -66 -32.5t-38.5 -85t-13.5 -111.5
v-659h82v-68h-311v68h80v623q0 126 -12 195.5t-71 69.5q-39 0 -64 -33t-36 -87.5t-12 -116.5v-651h79v-68h-326z" />
    <glyph glyph-name="n" unicode="n" horiz-adv-x="774" 
d="M34 0v68h103v912h-103v67h250v-107q5 22 27 49.5t59 47.5t86 20q47 0 90.5 -23.5t72 -89.5t28.5 -195v-681h102v-68h-337v68h85v665q0 121 -22 173.5t-71 52.5q-25 0 -46.5 -18t-37 -48.5t-24 -67.5t-9.5 -75v-682h84v-68h-337z" />
    <glyph glyph-name="o" unicode="o" horiz-adv-x="665" 
d="M329 -22q-55 0 -105 36t-89 106t-61 172t-22 235q0 145 23.5 246t63 163.5t89 91.5t101.5 29t101.5 -29t89.5 -91.5t63.5 -163.5t23.5 -246q0 -133 -22 -235t-61 -172t-89.5 -106t-105.5 -36zM329 50q54 0 89 115.5t35 361.5q0 244 -35 351.5t-89 107.5t-89 -107.5
t-35 -351.5q0 -246 35 -361.5t89 -115.5z" />
    <glyph glyph-name="p" unicode="p" horiz-adv-x="697" 
d="M24 -500v68h102v1412h-102v67h252v-105q5 16 23 43t49.5 49t75.5 22q59 0 109.5 -54t81 -172.5t30.5 -311.5q0 -198 -32.5 -316t-86.5 -170t-118 -52q-41 0 -68.5 20t-42.5 46t-18 42v-520h101v-68h-356zM381 70q29 0 49.5 32t34.5 90.5t20.5 141t6.5 181.5
q0 100 -6.5 181.5t-19.5 140t-33.5 89.5t-47.5 31q-35 0 -56.5 -33t-33 -80.5t-16.5 -91.5v-438q2 -58 12.5 -114.5t32.5 -93t57 -36.5z" />
    <glyph glyph-name="q" unicode="q" horiz-adv-x="733" 
d="M352 -500v68h107v520q-2 -17 -17.5 -42.5t-42.5 -45.5t-68 -20q-64 0 -118.5 52t-87 170t-32.5 316q0 193 32 311.5t84 172.5t110 54q49 0 80 -22t48 -49.5t21 -46.5l10 109h133v-1479h106v-68h-365zM356 70q36 0 57.5 37t32.5 93t13 114v434q-3 47 -15.5 95.5t-34.5 81
t-56 32.5q-28 0 -48 -32t-33.5 -91t-20 -140.5t-6.5 -179.5q0 -99 6.5 -181t20.5 -141t35 -90.5t49 -31.5z" />
    <glyph glyph-name="r" unicode="r" horiz-adv-x="597" 
d="M25 0v68h104v912h-104v67h242l8 -98q3 12 21 38t49.5 48t75.5 22q51 0 82.5 -34.5t46.5 -93t15 -131.5q0 -52 -18 -78.5t-50 -26.5q-29 0 -46.5 21.5t-17.5 63.5q0 25 8.5 40t16 32t7.5 46q0 44 -15.5 64t-43.5 20q-36 0 -65 -32.5t-45.5 -85.5t-16.5 -114v-680h105v-68
h-359z" />
    <glyph glyph-name="s" unicode="s" horiz-adv-x="545" 
d="M282 -22q-53 0 -80.5 13.5t-42 26.5t-27.5 13q-12 0 -16.5 -8.5t-4.5 -22.5h-57v297h68q4 -61 15.5 -108t30.5 -78.5t46.5 -48t63.5 -16.5q37 0 59.5 20t32.5 51t10 63q0 51 -15.5 97.5t-48 95t-84.5 103.5q-69 75 -119.5 154.5t-50.5 195.5q0 78 29.5 129t76 76.5
t98.5 25.5q41 0 65.5 -10t38.5 -20t24 -10q9 0 13 7t4 23h59v-288h-67q-4 57 -13.5 100t-26 71.5t-40 43.5t-54.5 15q-48 0 -73.5 -36t-25.5 -92q0 -66 36 -122t105 -129q56 -61 96.5 -119t62.5 -120t22 -134q0 -80 -25 -138t-72.5 -89.5t-112.5 -31.5z" />
    <glyph glyph-name="t" unicode="t" horiz-adv-x="460" 
d="M302 -18q-42 0 -82 15t-65 55.5t-25 118.5v809h-127v67h127q22 25 39 72t27.5 103.5t14.5 110.5h69v-286h149v-67h-149v-858q0 -42 17.5 -56t34.5 -14q20 0 34 8.5t22 17.5l39 -53q-20 -18 -51.5 -30.5t-73.5 -12.5z" />
    <glyph glyph-name="u" unicode="u" horiz-adv-x="747" 
d="M324 -22q-53 0 -99.5 23t-75 87t-28.5 186v706h-103v66h253v-756q0 -91 12 -139t33 -65t48 -17q38 0 65 38.5t41.5 102t14.5 139.5v631h-98v66h248v-978h91v-68h-223l-8 119q-4 -28 -25 -60.5t-57.5 -56.5t-88.5 -24z" />
    <glyph glyph-name="v" unicode="v" horiz-adv-x="635" 
d="M281 -4l-177 984h-83v67h314v-67h-70l104 -699l105 699h-68v67h223v-67h-80l-170 -984h-98z" />
    <glyph glyph-name="w" unicode="w" horiz-adv-x="1006" 
d="M648 -4l-160 984h-85v67h311v-67h-71l97 -713l99 713h-68v67h220v-67h-78l-152 -984h-113zM250 -4l-153 984h-80v67h313v-67h-73l87 -713l105 713h-50v67h208v-67h-85l-159 -984h-113z" />
    <glyph glyph-name="x" unicode="x" horiz-adv-x="664" 
d="M17 0v68h93l167 480l52 12l145 420h-75v67h234v-67h-83l-169 -463l-47 -16l-146 -433h71v-68h-242zM335 0v68h73l-290 912h-84v67h228h88v-67h-71l291 -912h81v-68h-229h-87z" />
    <glyph glyph-name="y" unicode="y" horiz-adv-x="649" 
d="M188 -502q-42 0 -69 31t-39.5 84.5t-12.5 120.5q0 48 17 73.5t48 25.5q30 0 46.5 -22.5t16.5 -59.5q0 -29 -9.5 -47.5t-19 -35.5t-9.5 -42q0 -27 8.5 -50t27.5 -23q12 0 19.5 11.5t14 34.5t12.5 56l72 355l-209 970h-82v67h317v-67h-75l122 -618l113 618h-74v67h227v-67
h-77l-197 -987l-74 -355q-9 -46 -23 -77.5t-36 -47t-55 -15.5z" />
    <glyph glyph-name="z" unicode="z" horiz-adv-x="570" 
d="M74 0v68l265 912h-97q-47 0 -67 -16.5t-24.5 -64t-4.5 -140.5h-66v288h412v-67l-264 -912h91q52 0 73.5 17.5t26.5 67t5 144.5h67v-297h-417z" />
    <glyph glyph-name="braceleft" unicode="{" horiz-adv-x="415" 
d="M343 -320q-23 0 -57.5 10.5t-68 45t-56.5 105.5t-23 192q0 80 12 144.5t23.5 123.5t11.5 120q0 65 -14.5 101.5t-59.5 36.5v65q45 0 59.5 36t14.5 103q0 61 -11.5 119.5t-23.5 123.5t-12 143q0 121 23 192t56.5 105.5t68 45t57.5 10.5v-67q-12 0 -34 -8.5t-45 -37
t-38.5 -86.5t-15.5 -159q0 -76 12.5 -139t24.5 -121.5t12 -120.5q0 -94 -26 -128t-54 -42q28 -11 54 -44.5t26 -127.5q0 -62 -12 -121t-24.5 -122.5t-12.5 -139.5q0 -100 15.5 -158.5t38.5 -87t45 -36.5t34 -8v-68z" />
    <glyph glyph-name="bar" unicode="|" horiz-adv-x="203" 
d="M68 -329v1829h68v-1829h-68z" />
    <glyph glyph-name="braceright" unicode="}" horiz-adv-x="415" 
d="M72 -320v68q12 0 34.5 8t45.5 36.5t38.5 87t15.5 158.5q0 76 -12 139.5t-24.5 122.5t-12.5 121q0 94 26 127.5t53 44.5q-27 8 -53 42t-26 128q0 62 12.5 120.5t24.5 121.5t12 139q0 101 -15.5 159t-38.5 86.5t-45.5 37t-34.5 8.5v67q25 0 59 -10.5t67.5 -45t56 -105.5
t22.5 -192q0 -78 -11.5 -143t-23.5 -123.5t-12 -119.5q0 -67 15 -103t60 -36v-65q-45 0 -60 -36.5t-15 -101.5q0 -61 12 -120t23.5 -123.5t11.5 -144.5q0 -121 -22.5 -192t-56 -105.5t-67.5 -45t-59 -10.5z" />
    <glyph glyph-name="asciitilde" unicode="~" horiz-adv-x="742" 
d="M506 1271q-63 0 -107 22t-82.5 44t-85.5 22t-80 -26t-41 -42l-60 46q10 17 31.5 40.5t59 42t93.5 18.5q64 0 107 -22t81.5 -44.5t84.5 -22.5q32 0 59 14.5t45 33t23 29.5l58 -49q-9 -19 -32.5 -44t-61.5 -43.5t-92 -18.5z" />
    <glyph glyph-name="uni00A0" unicode="&#xa0;" horiz-adv-x="307" 
 />
    <glyph glyph-name="exclamdown" unicode="&#xa1;" horiz-adv-x="295" 
d="M171 811q0 -140 8 -271t18.5 -250t18 -224t7.5 -194q0 -72 -18.5 -121t-60.5 -49q-41 0 -60.5 49t-19.5 121q0 89 8 194t18.5 224t18 250t7.5 271h55zM147 1141q42 0 72.5 -31.5t30.5 -73.5q0 -44 -30.5 -74.5t-72.5 -30.5q-43 0 -73.5 30.5t-30.5 74.5q0 42 30.5 73.5
t73.5 31.5z" />
    <glyph glyph-name="cent" unicode="&#xa2;" horiz-adv-x="590" 
d="M229 -116l101 1225h52l-101 -1225h-52zM347 -21q-70 0 -125 45t-93 122.5t-58 177t-20 208.5q0 133 27.5 231.5t71.5 163.5t97 97.5t103 32.5q67 0 113 -39t70 -100.5t24 -128.5q0 -46 -17.5 -71t-48.5 -25t-49 22t-18 58q0 24 7.5 37.5t15 28t7.5 38.5q0 52 -28 81
t-69 29t-69.5 -40t-46 -105.5t-25 -145t-7.5 -158.5q0 -81 7.5 -166.5t25 -158t48.5 -117t79 -44.5q54 0 83.5 29t44.5 73l51 -43q-18 -44 -67 -88t-134 -44z" />
    <glyph glyph-name="sterling" unicode="&#xa3;" horiz-adv-x="605" 
d="M18 720v67h445v-67h-445zM110 -25q-41 0 -65.5 27t-24.5 72q0 53 26 90t68.5 59t90.5 26q3 17 7 58t4 96q0 66 -19 146t-44.5 166t-44.5 169.5t-19 155.5q0 128 32 213t88.5 127t127.5 42q97 0 146 -71.5t49 -172.5q0 -47 -16.5 -74t-48.5 -27q-31 0 -49 25t-18 62
q0 26 8 43.5t16 33t8 35.5q0 43 -24.5 59t-56.5 16q-46 0 -73 -39.5t-38.5 -105.5t-11.5 -144q0 -81 18.5 -181t37 -207t18.5 -211q0 -50 -5.5 -95t-11.5 -77t-9 -45q38 -7 64 -31t45 -51.5t37 -47.5t41 -20q30 0 41 20.5t13 39.5h59q0 -54 -15.5 -92t-44 -58.5t-66.5 -20.5
t-64.5 24t-47.5 56t-40 58t-44 31q-18 -91 -55.5 -135t-88.5 -44zM114 43q21 0 43 31t32 87q-37 0 -68.5 -27t-31.5 -63q0 -13 6.5 -20.5t18.5 -7.5z" />
    <glyph glyph-name="currency" unicode="&#xa4;" horiz-adv-x="865" 
d="M431 51q-49 0 -103.5 23.5t-101 77.5t-76 146t-29.5 229q0 139 30 228t77.5 138t101 68t101.5 19q47 0 101 -19t101.5 -68t77.5 -138t30 -228q0 -137 -29.5 -229t-76.5 -146t-101 -77.5t-103 -23.5zM431 112q29 0 60.5 18t58.5 62.5t44 126t17 208.5q0 124 -17 201.5
t-44 119t-58.5 56t-60.5 14.5t-61 -14.5t-59.5 -56t-44.5 -119t-17 -201.5q0 -127 17 -208.5t44.5 -126t59.5 -62.5t61 -18zM764 996l49 -49l-163 -158l-44 45zM773 45l-158 162l44 45l163 -158zM99 996l157 -162l-45 -45l-162 158zM90 45l-51 49l163 158l45 -45z" />
    <glyph glyph-name="yen" unicode="&#xa5;" horiz-adv-x="691" 
d="M144 555v67h448v-67h-448zM144 326v67h448v-67h-448zM197 0v68h101v520l-181 745h-93v67h340v-67h-75l154 -697h-53l169 697h-79v67h244v-67h-93l-183 -725v-540h95v-68h-346z" />
    <glyph glyph-name="brokenbar" unicode="&#xa6;" horiz-adv-x="203" 
d="M68 871v629h68v-629h-68zM68 -329v620h68v-620h-68z" />
    <glyph glyph-name="section" unicode="&#xa7;" horiz-adv-x="563" 
d="M254 -378q-53 0 -96.5 26t-68.5 73t-25 111q0 46 19 72.5t52 26.5q31 0 46 -19t15 -50q0 -26 -8 -40t-16 -25.5t-8 -32.5q0 -40 30.5 -57t56.5 -17q40 0 69 23.5t44.5 67.5t15.5 105q0 70 -34 127.5t-84 113.5t-100.5 118.5t-84 142.5t-33.5 187q0 59 17 107t42.5 85
t51 61.5t41.5 35.5q-38 48 -65 97.5t-41.5 105t-14.5 118.5q0 76 27.5 128t72 79.5t95.5 27.5q82 0 128.5 -57t46.5 -152q0 -45 -15.5 -72.5t-48.5 -27.5q-30 0 -45.5 19t-15.5 50q0 25 8 38.5t16 25.5t8 33q0 29 -12 45.5t-30.5 23.5t-38.5 7q-46 0 -73.5 -34t-27.5 -99
q0 -100 34.5 -167t84.5 -119t100.5 -106t85 -127.5t34.5 -185.5q0 -80 -28.5 -138t-66 -95t-66.5 -54q37 -42 67.5 -87.5t49 -101t18.5 -127.5q0 -87 -32.5 -152.5t-84.5 -101.5t-112 -36zM302 281q41 20 71 74.5t30 117.5q0 66 -17 119.5t-53.5 106.5t-95.5 116
q-37 -30 -66.5 -82.5t-29.5 -110.5q0 -53 11.5 -96.5t33 -82.5t51 -78.5t65.5 -83.5z" />
    <glyph glyph-name="dieresis" unicode="&#xa8;" horiz-adv-x="790" 
d="M514 1240q-32 0 -54.5 22.5t-22.5 52.5q0 32 22.5 55.5t54.5 23.5q30 0 52.5 -23.5t22.5 -55.5q0 -30 -22.5 -52.5t-52.5 -22.5zM283 1240q-29 0 -52 22.5t-23 52.5q0 32 23 55.5t52 23.5q31 0 54.5 -23.5t23.5 -55.5q0 -30 -23.5 -52.5t-54.5 -22.5z" />
    <glyph glyph-name="copyright" unicode="&#xa9;" horiz-adv-x="1185" 
d="M594 -22q-106 0 -199 54.5t-163.5 152.5t-110.5 228.5t-40 282.5t40 282t110.5 228t163.5 152.5t199 54.5q105 0 197 -54.5t162.5 -152.5t110 -228t39.5 -282t-39.5 -282.5t-110 -228.5t-162.5 -152.5t-197 -54.5zM589 236q-72 0 -122.5 65t-76 172.5t-25.5 233.5
q0 127 30 232t84.5 167.5t126.5 62.5q77 0 116 -63t39 -147q0 -39 -13 -61t-39 -22q-27 0 -39 17.5t-12 43.5q0 21 6 32.5t12.5 22t6.5 27.5q0 42 -20 62t-54 20q-40 0 -65.5 -37t-40 -95.5t-20.5 -125.5t-6 -128q0 -69 6 -140.5t20.5 -132.5t39 -98t62.5 -37
q45 0 77.5 36.5t46.5 69.5l44 -58q-27 -59 -75 -89t-109 -30zM594 48q93 0 172.5 50t139 139t92.5 206.5t33 252.5t-33 252t-92.5 206t-139 139.5t-172.5 50.5q-94 0 -173.5 -50.5t-139 -139.5t-92.5 -206t-33 -252t33 -252.5t92.5 -206.5t139 -139t173.5 -50z" />
    <glyph glyph-name="ordfeminine" unicode="&#xaa;" horiz-adv-x="513" 
d="M217 1132q-50 0 -82.5 22.5t-32.5 73.5q0 44 31 68.5t71 39t71 27t31 31.5q0 39 -6.5 51t-43.5 12q-25 0 -39 -5.5t-14 -15.5q0 -6 0.5 -13.5t0.5 -16.5q0 -16 -10.5 -28.5t-33.5 -12.5q-19 0 -30 14.5t-11 33.5q0 41 41.5 69.5t102.5 28.5q65 0 100.5 -29.5t35.5 -95.5
v-166q0 -29 24 -29q16 0 22 9l21 -44q-6 -8 -26.5 -15t-50.5 -7q-31 0 -52 12t-27 37q-4 -11 -26 -31t-67 -20zM247 1196q20 0 39.5 14.5t19.5 35.5v78q-4 -7 -20 -13.5t-35.5 -15.5t-34 -22.5t-14.5 -33.5q0 -24 10 -33.5t35 -9.5z" />
    <glyph glyph-name="guillemotleft" unicode="&#xab;" horiz-adv-x="740" 
d="M539 304l-223 232l223 233h75l-223 -233l226 -232h-78zM348 304l-223 232l223 233h75l-223 -233l226 -232h-78z" />
    <glyph glyph-name="logicalnot" unicode="&#xac;" horiz-adv-x="656" 
d="M465 329v233l31 -31h-407v63h439v-265h-63z" />
    <glyph glyph-name="uni00AD" unicode="&#xad;" horiz-adv-x="519" 
d="M101 529v67h316v-67h-316z" />
    <glyph glyph-name="registered" unicode="&#xae;" horiz-adv-x="884" 
d="M452 373q-109 0 -195 65.5t-135 183t-49 272.5q0 154 49 270.5t135 182.5t195 66t194 -65.5t133.5 -183t48.5 -270.5q0 -154 -48.5 -272t-133.5 -183.5t-194 -65.5zM452 427q97 0 169 59.5t112 165t40 242.5q0 136 -40 241t-112 164.5t-169 59.5t-169.5 -59.5
t-112.5 -164.5t-40 -241q0 -137 40 -242.5t112.5 -165t169.5 -59.5zM589 560q-30 0 -55 15.5t-25 69.5q0 46 1.5 86.5t1.5 76.5q0 35 -20 58.5t-67 23.5h-22v-276h50v-48h-183v48h56v577h-56v48h182q57 0 103.5 -38t46.5 -113q0 -73 -28 -121t-84 -52q52 -1 78 -29.5
t26 -82.5q0 -47 -1.5 -88.5t-1.5 -76.5q0 -14 5 -21.5t12 -7.5q15 0 15 19h43q-1 -35 -23.5 -51.5t-53.5 -16.5zM404 935h24q33 0 53 21.5t29 56t9 73.5q0 34 -6.5 57.5t-24 35.5t-50.5 12h-34v-256z" />
    <glyph glyph-name="macron" unicode="&#xaf;" horiz-adv-x="923" 
d="M229 1357v67h603v-67h-603z" />
    <glyph glyph-name="degree" unicode="&#xb0;" horiz-adv-x="572" 
d="M285 1160q-41 0 -79 22.5t-61.5 65.5t-23.5 105q0 90 48 138.5t116 48.5t116 -45t48 -142t-48.5 -145t-115.5 -48zM285 1223q37 0 56.5 29.5t19.5 98.5q0 67 -19.5 98t-56.5 31q-35 0 -55.5 -32t-20.5 -99q0 -69 20.5 -97.5t55.5 -28.5z" />
    <glyph glyph-name="plusminus" unicode="&#xb1;" horiz-adv-x="825" 
d="M380 369v624h68v-624h-68zM101 647v67h622v-67h-622zM111 247v67h605v-67h-605z" />
    <glyph glyph-name="uni00B2" unicode="&#xb2;" horiz-adv-x="627" 
d="M403 697q-44 0 -77 15t-64.5 29t-71.5 14q-35 0 -53.5 -17.5t-21.5 -34.5h-57q0 111 34.5 185.5t85.5 126t101.5 92t85 84t34.5 102.5q0 42 -16.5 69.5t-46 42t-67.5 14.5q-29 0 -51.5 -7t-35 -17.5t-12.5 -22.5q0 -10 7 -17.5t14.5 -17.5t7.5 -30q0 -30 -17.5 -44
t-43.5 -14q-27 0 -44.5 18t-17.5 55q0 61 58.5 103t162.5 42q40 0 83 -7.5t79.5 -26.5t59 -55.5t22.5 -95.5q0 -64 -26.5 -106t-69 -72t-92 -56t-96.5 -56.5t-82.5 -74t-48.5 -110.5q10 14 28 24.5t43 16.5t55 6q37 0 68 -11t57.5 -22t48.5 -11q31 0 45.5 13.5t14.5 43.5h55
v-26q0 -33 -14 -66t-44 -55.5t-80 -22.5z" />
    <glyph glyph-name="uni00B3" unicode="&#xb3;" horiz-adv-x="631" 
d="M285 690q-65 0 -111 20t-69.5 53t-23.5 73q0 37 18 57.5t46 20.5q29 0 43 -12.5t14 -37.5q0 -20 -8.5 -30l-17 -20t-8.5 -29q0 -18 26.5 -30.5t68.5 -12.5q36 0 66.5 11.5t49 45t18.5 100.5q0 55 -16 89t-40.5 52t-51 24.5t-46.5 6.5v51q21 0 47.5 5t52 21t42 50.5
t16.5 94.5q0 46 -16.5 72.5t-46.5 38.5t-70 12q-43 0 -70.5 -12t-27.5 -30q0 -20 8 -30t16.5 -19t8.5 -29q0 -27 -14.5 -40t-42.5 -13q-29 0 -46.5 21t-17.5 58q0 41 25 73.5t71.5 52t112.5 19.5q71 0 128 -19t91 -58.5t34 -101.5q0 -51 -22.5 -87t-57 -58.5t-71 -34
t-65.5 -12.5q30 -1 67.5 -12t73 -34.5t59 -61.5t23.5 -93q0 -85 -70.5 -145t-195.5 -60z" />
    <glyph glyph-name="acute" unicode="&#xb4;" horiz-adv-x="580" 
d="M202 1263l-40 43l178 135q28 25 57 25t42 -24q14 -23 -3 -46t-49 -38z" />
    <glyph glyph-name="uni00B5" unicode="&#xb5;" horiz-adv-x="747" 
d="M338 -22q-54 0 -104 23t-81.5 87t-31.5 186v768h150v-752q0 -91 12.5 -139t33.5 -65t47 -17q38 0 65 38.5t41.5 102t14.5 139.5v697h150v-978h91v-68h-223l-8 119q-4 -28 -22.5 -60.5t-51.5 -56.5t-83 -24zM121 620h150v-1113h-150v1113z" />
    <glyph glyph-name="paragraph" unicode="&#xb6;" horiz-adv-x="699" 
d="M255 -260q-61 0 -95 29t-48 69.5t-14 76.5q0 41 16 67t49 26t49 -21.5t16 -56.5q0 -28 -4.5 -41.5t-9.5 -23t-5 -26.5q0 -20 10 -29t34 -9q32 0 54 26t33 75t11 118v678q-7 -38 -39 -62.5t-68 -24.5h-2q-86 0 -144.5 112t-58.5 293q0 117 31 203t84 133.5t118 47.5h400
v-67h-84v-1248q0 -92 -25.5 -154t-66.5 -100t-86.5 -57.5t-87 -26.5t-67.5 -7zM359 -192q50 23 83.5 77.5t33.5 169.5v1278h-58v-1326q0 -72 -11 -119t-48 -80z" />
    <glyph glyph-name="periodcentered" unicode="&#xb7;" horiz-adv-x="372" 
d="M199 703q-42 0 -72.5 31t-30.5 74q0 44 30.5 74t72.5 30q43 0 73.5 -30t30.5 -74q0 -43 -30.5 -74t-73.5 -31z" />
    <glyph glyph-name="cedilla" unicode="&#xb8;" horiz-adv-x="603" 
d="M290 -270q-53 0 -91.5 12.5t-53.5 20.5l23 56q11 -7 45 -17.5t78 -10.5q32 0 48 10.5t16 32.5q0 23 -14.5 30.5t-34.5 7.5q-14 0 -34 -6.5t-31 -17.5l-64 4l55 137h68l-41 -93q8 10 28 19.5t51 9.5q47 0 72 -24t25 -67q0 -55 -43 -79.5t-102 -24.5z" />
    <glyph glyph-name="uni00B9" unicode="&#xb9;" horiz-adv-x="461" 
d="M81 704v49h78v564q-9 -8 -35.5 -17t-44.5 -11v53q26 3 53 15.5t51.5 33t41.5 46t24 54.5h50v-738h79v-49h-297z" />
    <glyph glyph-name="ordmasculine" unicode="&#xba;" horiz-adv-x="497" 
d="M248 1140q-76 0 -131.5 54.5t-55.5 136.5q0 80 55.5 134.5t131.5 54.5q78 0 132.5 -54.5t54.5 -134.5q0 -82 -54.5 -136.5t-132.5 -54.5zM248 1200q41 0 69 36.5t28 94.5q0 56 -28 93t-69 37q-40 0 -67.5 -37t-27.5 -93q0 -58 27.5 -94.5t67.5 -36.5z" />
    <glyph glyph-name="guillemotright" unicode="&#xbb;" horiz-adv-x="747" 
d="M323 304l225 232l-222 233h75l223 -233l-223 -232h-78zM125 304l225 232l-222 233h75l223 -233l-223 -232h-78z" />
    <glyph glyph-name="onequarter" unicode="&#xbc;" horiz-adv-x="1250" 
d="M81 649v49h78v564q-9 -8 -35.5 -17t-44.5 -11v53q26 3 53 15.5t51.5 33t41.5 46t24 54.5h50v-738h79v-49h-297zM94 0l878 1400h73l-876 -1400h-75zM834 0v49h99v126h-212v49l198 435q30 13 59.5 44t40.5 66h60v-545h13q26 0 35.5 26.5t9.5 74.5h55v-150h-113v-126h97v-49
h-342zM782 220l-7 4h160v344l-12 -41z" />
    <glyph glyph-name="onehalf" unicode="&#xbd;" horiz-adv-x="1305" 
d="M81 649v49h78v564q-9 -8 -35.5 -17t-44.5 -11v53q26 3 53 15.5t51.5 33t41.5 46t24 54.5h50v-738h79v-49h-297zM94 0l878 1400h73l-876 -1400h-75zM1081 -6q-44 0 -77 14.5t-64.5 29t-71.5 14.5q-35 0 -53.5 -17.5t-21.5 -34.5h-57q0 111 34.5 185.5t85.5 126t101.5 92
t85 84t34.5 102.5q0 42 -16.5 69.5t-46 42t-67.5 14.5q-29 0 -51.5 -7t-35 -17.5t-12.5 -22.5q0 -10 7 -17.5t14.5 -17.5t7.5 -30q0 -30 -17.5 -44t-43.5 -14q-27 0 -44.5 18t-17.5 55q0 61 58.5 103t162.5 42q40 0 83 -7.5t79.5 -26.5t59 -55.5t22.5 -95.5
q0 -64 -26.5 -106t-69 -72t-92 -56t-96.5 -56.5t-82.5 -74t-48.5 -110.5q10 14 28 24.5t43 16.5t55 6q37 0 68 -11t57.5 -22t48.5 -11q31 0 45.5 13.5t14.5 43.5h55v-26q0 -33 -14 -66t-44 -55.5t-80 -22.5z" />
    <glyph glyph-name="threequarters" unicode="&#xbe;" horiz-adv-x="1420" 
d="M285 635q-65 0 -111 20t-69.5 53t-23.5 73q0 37 18 57.5t46 20.5q29 0 43 -12.5t14 -37.5q0 -20 -8.5 -30l-17 -20t-8.5 -29q0 -18 26.5 -30.5t68.5 -12.5q36 0 66.5 11.5t49 45t18.5 100.5q0 55 -16 89t-40.5 52t-51 24.5t-46.5 6.5v51q21 0 47.5 5t52 21t42 50.5
t16.5 94.5q0 46 -16.5 72.5t-46.5 38.5t-70 12q-43 0 -70.5 -12t-27.5 -30q0 -20 8 -30t16.5 -19t8.5 -29q0 -27 -14.5 -40t-42.5 -13q-29 0 -46.5 21t-17.5 58q0 41 25 73.5t71.5 52t112.5 19.5q71 0 128 -19t91 -58.5t34 -101.5q0 -51 -22.5 -87t-57 -58.5t-71 -34
t-65.5 -12.5q30 -1 67.5 -12t73 -34.5t59 -61.5t23.5 -93q0 -85 -70.5 -145t-195.5 -60zM264 0l878 1400h73l-876 -1400h-75zM1003 0v49h99v126h-212v49l198 435q30 13 59.5 44t40.5 66h60v-545h13q26 0 35.5 26.5t9.5 74.5h55v-150h-113v-126h97v-49h-342zM951 220l-7 4
h160v344l-12 -41z" />
    <glyph glyph-name="questiondown" unicode="&#xbf;" horiz-adv-x="599" 
d="M404 833q0 -126 -20 -223t-49 -174t-59 -144.5t-50 -136.5t-20 -150q0 -126 39.5 -185t119.5 -59q55 0 82.5 29.5t27.5 65.5q0 26 -8.5 43t-16.5 34.5t-8 44.5q0 44 18 62t46 18t49.5 -26.5t21.5 -90.5q0 -75 -29.5 -131t-84.5 -86t-129 -30q-49 0 -97.5 14.5t-88 48.5
t-63 93t-23.5 149t27.5 162.5t68 140t81 142t68 169t27.5 220.5h70zM369 1139q43 0 73.5 -31.5t30.5 -73.5q0 -44 -30.5 -74.5t-73.5 -30.5q-42 0 -73 30.5t-31 74.5q0 42 31 73.5t73 31.5z" />
    <glyph glyph-name="Agrave" unicode="&#xc0;" horiz-adv-x="677" 
d="M8 0v68h79l184 1335h109l197 -1335h97v-68h-342v68h84l-128 1005v0l-130 -1005h74v-68h-224zM164 311v64h246v-64h-246zM437 1447l-200 94q-26 13 -39.5 25t-13.5 37q0 22 15 34t37 12q19 0 33 -7.5t27 -18.5l171 -140z" />
    <glyph glyph-name="Aacute" unicode="&#xc1;" horiz-adv-x="677" 
d="M8 0v68h79l184 1335h109l197 -1335h97v-68h-342v68h84l-128 1005v0l-130 -1005h74v-68h-224zM164 311v64h246v-64h-246zM220 1444l-40 42l177 135q14 11 29.5 19t29.5 8q13 0 24 -7t17 -18q6 -10 6 -22q0 -19 -16.5 -35t-41.5 -27z" />
    <glyph glyph-name="Acircumflex" unicode="&#xc2;" horiz-adv-x="677" 
d="M8 0v68h79l184 1335h109l197 -1335h97v-68h-342v68h84l-128 1005v0l-130 -1005h74v-68h-224zM164 311v64h246v-64h-246zM145 1461l148 206h70l146 -206h-74l-108 137l-107 -137h-75z" />
    <glyph glyph-name="Atilde" unicode="&#xc3;" horiz-adv-x="677" 
d="M8 0v68h79l184 1335h109l197 -1335h97v-68h-342v68h84l-128 1005v0l-130 -1005h74v-68h-224zM164 311v64h246v-64h-246zM413 1479q-39 0 -65 16.5t-47.5 32.5t-45.5 16q-32 0 -48 -18.5t-21 -30.5l-66 32q6 19 22 42t42 41t60 18q41 0 67.5 -16t48.5 -32.5t50 -16.5
t41.5 15.5t19.5 27.5l64 -36q-4 -15 -20 -36.5t-41.5 -38t-60.5 -16.5z" />
    <glyph glyph-name="Adieresis" unicode="&#xc4;" horiz-adv-x="677" 
d="M8 0v68h79l184 1335h109l197 -1335h97v-68h-342v68h84l-128 1005v0l-130 -1005h74v-68h-224zM164 311v64h246v-64h-246zM442 1500q-32 0 -54.5 22.5t-22.5 52.5q0 32 22.5 55.5t54.5 23.5q29 0 52 -23.5t23 -55.5q0 -30 -23 -52.5t-52 -22.5zM211 1500q-29 0 -52 22.5
t-23 52.5q0 32 23 55.5t52 23.5q31 0 54.5 -23.5t23.5 -55.5q0 -30 -23.5 -52.5t-54.5 -22.5z" />
    <glyph glyph-name="Aring" unicode="&#xc5;" horiz-adv-x="677" 
d="M8 0v68h79l184 1335h109l197 -1335h97v-68h-342v68h84l-128 1005v0l-130 -1005h74v-68h-224zM164 311v64h246v-64h-246zM328 1463q-45 0 -76 32.5t-31 85.5q0 55 31 86.5t76 31.5q44 0 75 -31.5t31 -86.5q0 -53 -31 -85.5t-75 -32.5zM328 1514q26 0 38 20.5t12 48.5
q0 25 -12 45.5t-38 20.5t-38 -20.5t-12 -45.5q0 -28 12 -48.5t38 -20.5z" />
    <glyph glyph-name="AE" unicode="&#xc6;" horiz-adv-x="1028" 
d="M389 0v68h83v1332h464v-289h-68q0 75 -7 124t-34.5 73.5t-91.5 24.5h-113v-579h234v97h66v-258h-66v94h-234v-619h106q67 0 96.5 24.5t36.5 74.5t7 125h68v-292h-547zM210 313l4 67h282l-4 -67h-282zM17 0v68h59l343 1332h70l-336 -1332h75v-68h-211z" />
    <glyph glyph-name="Ccedilla" unicode="&#xc7;" horiz-adv-x="654" 
d="M393 -20q-145 0 -237.5 183t-92.5 535q0 131 21 259t63.5 233t106 168.5t147.5 63.5q58 0 100.5 -40t66 -100.5t23.5 -121.5q0 -50 -16.5 -75.5t-50.5 -25.5q-36 0 -53.5 22t-17.5 63q0 26 9 45t18 40t9 53q0 35 -18.5 53t-43.5 18q-42 0 -75 -41.5t-57.5 -111
t-40 -155.5t-23.5 -175.5t-8 -169.5q0 -118 9 -219t26 -181t40.5 -136t52 -86t61.5 -30q37 0 62 23.5t41.5 60t26.5 74.5l59 -30q-17 -52 -45 -96.5t-68.5 -72t-94.5 -27.5zM407 -301q-53 0 -92 10t-54 18l24 59q11 -7 43.5 -16.5t75.5 -9.5q32 0 56.5 15t24.5 43
q0 31 -16.5 40.5t-38.5 9.5q-16 0 -34.5 -7t-31.5 -21l-64 4l62 156h67l-45 -104q4 6 27.5 15.5t54.5 9.5q38 0 71 -23t33 -81q0 -42 -24 -68.5t-62 -38t-77 -11.5z" />
    <glyph glyph-name="Egrave" unicode="&#xc8;" horiz-adv-x="681" 
d="M53 0v68h93v1265h-93v67h550v-289h-67q0 81 -10 130t-33 70.5t-67 21.5h-129v-599h196v97h64v-258h-64v94h-196v-599h129q44 0 67 22t33 71.5t10 130.5h67v-292h-550zM461 1447l-200 94q-26 13 -39.5 25t-13.5 37q0 22 15 34t37 12q19 0 33 -7.5t27 -18.5l171 -140z" />
    <glyph glyph-name="Eacute" unicode="&#xc9;" horiz-adv-x="681" 
d="M53 0v68h93v1265h-93v67h550v-289h-67q0 81 -10 130t-33 70.5t-67 21.5h-129v-599h196v97h64v-258h-64v94h-196v-599h129q44 0 67 22t33 71.5t10 130.5h67v-292h-550zM244 1444l-40 42l177 135q14 11 29.5 19t29.5 8q13 0 24 -7t17 -18q6 -10 6 -22q0 -19 -16.5 -35
t-41.5 -27z" />
    <glyph glyph-name="Ecircumflex" unicode="&#xca;" horiz-adv-x="681" 
d="M53 0v68h93v1265h-93v67h550v-289h-67q0 81 -10 130t-33 70.5t-67 21.5h-129v-599h196v97h64v-258h-64v94h-196v-599h129q44 0 67 22t33 71.5t10 130.5h67v-292h-550zM169 1461l148 206h70l146 -206h-74l-108 137l-107 -137h-75z" />
    <glyph glyph-name="Edieresis" unicode="&#xcb;" horiz-adv-x="681" 
d="M53 0v68h93v1265h-93v67h550v-289h-67q0 81 -10 130t-33 70.5t-67 21.5h-129v-599h196v97h64v-258h-64v94h-196v-599h129q44 0 67 22t33 71.5t10 130.5h67v-292h-550zM466 1500q-32 0 -54.5 22.5t-22.5 52.5q0 32 22.5 55.5t54.5 23.5q29 0 52 -23.5t23 -55.5
q0 -30 -23 -52.5t-52 -22.5zM235 1500q-29 0 -52 22.5t-23 52.5q0 32 23 55.5t52 23.5q31 0 54.5 -23.5t23.5 -55.5q0 -30 -23.5 -52.5t-54.5 -22.5z" />
    <glyph glyph-name="Igrave" unicode="&#xcc;" horiz-adv-x="472" 
d="M66 0v68h95v1265h-95v67h341v-67h-96v-1265h96v-68h-341zM347 1447l-200 94q-26 13 -39.5 25t-13.5 37q0 22 15 34t37 12q19 0 33 -7.5t27 -18.5l171 -140z" />
    <glyph glyph-name="Iacute" unicode="&#xcd;" horiz-adv-x="472" 
d="M66 0v68h95v1265h-95v67h341v-67h-96v-1265h96v-68h-341zM131 1444l-40 42l177 135q14 11 29.5 19t29.5 8q13 0 24 -7t17 -18q6 -10 6 -22q0 -19 -16.5 -35t-41.5 -27z" />
    <glyph glyph-name="Icircumflex" unicode="&#xce;" horiz-adv-x="472" 
d="M66 0v68h95v1265h-95v67h341v-67h-96v-1265h96v-68h-341zM55 1461l148 206h70l146 -206h-74l-108 137l-107 -137h-75z" />
    <glyph glyph-name="Idieresis" unicode="&#xcf;" horiz-adv-x="472" 
d="M66 0v68h95v1265h-95v67h341v-67h-96v-1265h96v-68h-341zM353 1500q-32 0 -54.5 22.5t-22.5 52.5q0 32 22.5 55.5t54.5 23.5q29 0 52 -23.5t23 -55.5q0 -30 -23 -52.5t-52 -22.5zM122 1500q-29 0 -52 22.5t-23 52.5q0 32 23 55.5t52 23.5q31 0 54.5 -23.5t23.5 -55.5
q0 -30 -23.5 -52.5t-54.5 -22.5z" />
    <glyph glyph-name="Eth" unicode="&#xd0;" horiz-adv-x="822" 
d="M47 684v67h398v-67h-398zM53 0v68h92v1265h-92v67h309q95 0 174 -75.5t127 -228.5t48 -385q0 -234 -48 -392.5t-127.5 -238.5t-173.5 -80h-309zM296 68h45q57 0 106.5 67t81 209t31.5 367q0 198 -28.5 337t-72.5 212t-93 73h-70v-1265z" />
    <glyph glyph-name="Ntilde" unicode="&#xd1;" horiz-adv-x="801" 
d="M32 0v68h92v1265h-92v67h280l306 -1071h-7v1004h-91v67h249v-67h-89v-1333h-125l-370 1292h9v-1224h99v-68h-261zM487 1479q-39 0 -65 16.5t-47.5 32.5t-45.5 16q-32 0 -48 -18.5t-21 -30.5l-66 32q6 19 22 42t42 41t60 18q41 0 67.5 -16t48.5 -32.5t50 -16.5t41.5 15.5
t19.5 27.5l64 -36q-4 -15 -20 -36.5t-41.5 -38t-60.5 -16.5z" />
    <glyph glyph-name="Ograve" unicode="&#xd2;" horiz-adv-x="754" 
d="M377 -22q-98 0 -168.5 90.5t-108 252t-37.5 377.5q0 217 37.5 379.5t108 253.5t168.5 91q100 0 171 -91t109.5 -253.5t38.5 -379.5q0 -216 -38.5 -377.5t-109.5 -252t-171 -90.5zM377 46q41 0 70.5 46t49.5 132.5t30 206.5t10 267t-10 267.5t-30 207.5t-49.5 134.5
t-70.5 47.5q-40 0 -69.5 -47.5t-48 -134.5t-28 -207.5t-9.5 -267.5t9.5 -267t28 -206.5t48 -132.5t69.5 -46zM488 1447l-200 94q-26 13 -39.5 25t-13.5 37q0 22 15 34t37 12q19 0 33 -7.5t27 -18.5l171 -140z" />
    <glyph glyph-name="Oacute" unicode="&#xd3;" horiz-adv-x="754" 
d="M377 -22q-98 0 -168.5 90.5t-108 252t-37.5 377.5q0 217 37.5 379.5t108 253.5t168.5 91q100 0 171 -91t109.5 -253.5t38.5 -379.5q0 -216 -38.5 -377.5t-109.5 -252t-171 -90.5zM377 46q41 0 70.5 46t49.5 132.5t30 206.5t10 267t-10 267.5t-30 207.5t-49.5 134.5
t-70.5 47.5q-40 0 -69.5 -47.5t-48 -134.5t-28 -207.5t-9.5 -267.5t9.5 -267t28 -206.5t48 -132.5t69.5 -46zM272 1444l-40 42l177 135q14 11 29.5 19t29.5 8q13 0 24 -7t17 -18q6 -10 6 -22q0 -19 -16.5 -35t-41.5 -27z" />
    <glyph glyph-name="Ocircumflex" unicode="&#xd4;" horiz-adv-x="754" 
d="M377 -22q-98 0 -168.5 90.5t-108 252t-37.5 377.5q0 217 37.5 379.5t108 253.5t168.5 91q100 0 171 -91t109.5 -253.5t38.5 -379.5q0 -216 -38.5 -377.5t-109.5 -252t-171 -90.5zM377 46q41 0 70.5 46t49.5 132.5t30 206.5t10 267t-10 267.5t-30 207.5t-49.5 134.5
t-70.5 47.5q-40 0 -69.5 -47.5t-48 -134.5t-28 -207.5t-9.5 -267.5t9.5 -267t28 -206.5t48 -132.5t69.5 -46zM196 1461l148 206h70l146 -206h-74l-108 137l-107 -137h-75z" />
    <glyph glyph-name="Otilde" unicode="&#xd5;" horiz-adv-x="754" 
d="M377 -22q-98 0 -168.5 90.5t-108 252t-37.5 377.5q0 217 37.5 379.5t108 253.5t168.5 91q100 0 171 -91t109.5 -253.5t38.5 -379.5q0 -216 -38.5 -377.5t-109.5 -252t-171 -90.5zM377 46q41 0 70.5 46t49.5 132.5t30 206.5t10 267t-10 267.5t-30 207.5t-49.5 134.5
t-70.5 47.5q-40 0 -69.5 -47.5t-48 -134.5t-28 -207.5t-9.5 -267.5t9.5 -267t28 -206.5t48 -132.5t69.5 -46zM464 1479q-39 0 -65 16.5t-47.5 32.5t-45.5 16q-32 0 -48 -18.5t-21 -30.5l-66 32q6 19 22 42t42 41t60 18q41 0 67.5 -16t48.5 -32.5t50 -16.5t41.5 15.5
t19.5 27.5l64 -36q-4 -15 -20 -36.5t-41.5 -38t-60.5 -16.5z" />
    <glyph glyph-name="Odieresis" unicode="&#xd6;" horiz-adv-x="754" 
d="M377 -22q-98 0 -168.5 90.5t-108 252t-37.5 377.5q0 217 37.5 379.5t108 253.5t168.5 91q100 0 171 -91t109.5 -253.5t38.5 -379.5q0 -216 -38.5 -377.5t-109.5 -252t-171 -90.5zM377 46q41 0 70.5 46t49.5 132.5t30 206.5t10 267t-10 267.5t-30 207.5t-49.5 134.5
t-70.5 47.5q-40 0 -69.5 -47.5t-48 -134.5t-28 -207.5t-9.5 -267.5t9.5 -267t28 -206.5t48 -132.5t69.5 -46zM494 1500q-32 0 -54.5 22.5t-22.5 52.5q0 32 22.5 55.5t54.5 23.5q29 0 52 -23.5t23 -55.5q0 -30 -23 -52.5t-52 -22.5zM263 1500q-29 0 -52 22.5t-23 52.5
q0 32 23 55.5t52 23.5q31 0 54.5 -23.5t23.5 -55.5q0 -30 -23.5 -52.5t-54.5 -22.5z" />
    <glyph glyph-name="multiply" unicode="&#xd7;" horiz-adv-x="758" 
d="M611 293l-493 492l49 49l493 -492zM167 293l-46 45l491 491l46 -45z" />
    <glyph glyph-name="Oslash" unicode="&#xd8;" horiz-adv-x="789" 
d="M125 -104l500 1608h69l-497 -1608h-72zM377 -22q-98 0 -168.5 90.5t-108 252t-37.5 377.5q0 217 37.5 379.5t108 253.5t168.5 91q100 0 171 -91t109.5 -253.5t38.5 -379.5q0 -216 -38.5 -377.5t-109.5 -252t-171 -90.5zM377 46q41 0 70.5 46t49.5 132.5t30 206.5t10 267
t-10 267.5t-30 207.5t-49.5 134.5t-70.5 47.5q-40 0 -69.5 -47.5t-48 -134.5t-28 -207.5t-9.5 -267.5t9.5 -267t28 -206.5t48 -132.5t69.5 -46z" />
    <glyph glyph-name="Ugrave" unicode="&#xd9;" horiz-adv-x="754" 
d="M390 -24q-45 0 -90.5 15t-83 51.5t-60 101.5t-22.5 165v1024h-97v67h349v-67h-100v-1020q0 -145 36.5 -202.5t97.5 -57.5q28 0 52.5 11.5t43 39t29 75.5t10.5 120v1034h-85v67h248v-67h-95v-1045q0 -119 -30.5 -187t-83 -96.5t-119.5 -28.5zM493 1447l-200 94
q-26 13 -39.5 25t-13.5 37q0 22 15 34t37 12q19 0 33 -7.5t27 -18.5l171 -140z" />
    <glyph glyph-name="Uacute" unicode="&#xda;" horiz-adv-x="754" 
d="M390 -24q-45 0 -90.5 15t-83 51.5t-60 101.5t-22.5 165v1024h-97v67h349v-67h-100v-1020q0 -145 36.5 -202.5t97.5 -57.5q28 0 52.5 11.5t43 39t29 75.5t10.5 120v1034h-85v67h248v-67h-95v-1045q0 -119 -30.5 -187t-83 -96.5t-119.5 -28.5zM277 1444l-40 42l177 135
q14 11 29.5 19t29.5 8q13 0 24 -7t17 -18q6 -10 6 -22q0 -19 -16.5 -35t-41.5 -27z" />
    <glyph glyph-name="Ucircumflex" unicode="&#xdb;" horiz-adv-x="754" 
d="M390 -24q-45 0 -90.5 15t-83 51.5t-60 101.5t-22.5 165v1024h-97v67h349v-67h-100v-1020q0 -145 36.5 -202.5t97.5 -57.5q28 0 52.5 11.5t43 39t29 75.5t10.5 120v1034h-85v67h248v-67h-95v-1045q0 -119 -30.5 -187t-83 -96.5t-119.5 -28.5zM201 1461l148 206h70
l146 -206h-74l-108 137l-107 -137h-75z" />
    <glyph glyph-name="Udieresis" unicode="&#xdc;" horiz-adv-x="754" 
d="M390 -24q-45 0 -90.5 15t-83 51.5t-60 101.5t-22.5 165v1024h-97v67h349v-67h-100v-1020q0 -145 36.5 -202.5t97.5 -57.5q28 0 52.5 11.5t43 39t29 75.5t10.5 120v1034h-85v67h248v-67h-95v-1045q0 -119 -30.5 -187t-83 -96.5t-119.5 -28.5zM499 1500q-32 0 -54.5 22.5
t-22.5 52.5q0 32 22.5 55.5t54.5 23.5q29 0 52 -23.5t23 -55.5q0 -30 -23 -52.5t-52 -22.5zM268 1500q-29 0 -52 22.5t-23 52.5q0 32 23 55.5t52 23.5q31 0 54.5 -23.5t23.5 -55.5q0 -30 -23.5 -52.5t-54.5 -22.5z" />
    <glyph glyph-name="Yacute" unicode="&#xdd;" horiz-adv-x="734" 
d="M197 0v68h101v520l-181 745h-93v67h340v-67h-75l154 -697h-53l169 697h-79v67h244v-67h-93l-183 -725v-540h95v-68h-346zM261 1444l-40 42l177 135q14 11 29.5 19t29.5 8q13 0 24 -7t17 -18q6 -10 6 -22q0 -19 -16.5 -35t-41.5 -27z" />
    <glyph glyph-name="Thorn" unicode="&#xde;" horiz-adv-x="817" 
d="M281 304v74h59q66 0 114.5 47t75 131.5t26.5 195.5q0 104 -24 181.5t-68 121t-102 43.5h-81v74h140q87 0 156 -51.5t109 -146.5t40 -223q0 -133 -41.5 -233.5t-113.5 -157t-164 -56.5h-126zM66 0v68h95v1265h-95v67h341v-67h-96v-1265h96v-68h-341z" />
    <glyph glyph-name="germandbls" unicode="&#xdf;" horiz-adv-x="861" 
d="M540 -23q-56 0 -93.5 32.5t-37.5 96.5q0 40 18 63t47 23q25 0 38.5 -15t13.5 -44q0 -18 -6 -28t-12 -17t-6 -18q0 -12 7.5 -19.5t28.5 -7.5q38 0 62 26.5t35.5 77.5t11.5 123q0 66 -21.5 118.5t-53.5 98t-64.5 89.5t-54 92t-21.5 107q0 55 15 97t37.5 77t44.5 71.5
t37 80.5t15 102q0 81 -30.5 118t-87.5 37q-61 0 -95.5 -46t-49 -121.5t-14.5 -161.5v-1029h-263v68h109v925q0 132 38 228.5t105.5 149.5t155.5 53t145 -57t57 -163q0 -75 -18 -131.5t-42 -101.5t-42.5 -83t-18.5 -74q0 -42 25.5 -84t62.5 -87.5t74 -96.5t62.5 -110
t25.5 -129q0 -103 -33 -177.5t-87 -113.5t-120 -39z" />
    <glyph glyph-name="agrave" unicode="&#xe0;" horiz-adv-x="684" 
d="M266 -21q-61 0 -108.5 30t-75.5 88.5t-28 143.5q0 93 36.5 154.5t90 104t107.5 77t90 72t36 90.5q0 75 -11.5 129.5t-37.5 84t-70 29.5q-50 0 -82 -32t-32 -74q0 -22 7 -36t13.5 -28.5t6.5 -39.5q0 -35 -17.5 -57t-49.5 -22q-31 0 -48.5 27t-17.5 75q0 74 30.5 133.5
t86 94t127.5 34.5q74 0 129 -33.5t85.5 -106t30.5 -191.5v-588q0 -43 9 -58t27 -15q17 0 27.5 7.5t15.5 13.5l36 -57q-13 -15 -46.5 -28.5t-76.5 -13.5q-42 0 -69.5 13.5t-41 35.5t-16.5 48q-5 -17 -23 -42t-51.5 -44t-88.5 -19zM305 67q36 0 60.5 28.5t36.5 67.5t12 71v371
q-2 -28 -33.5 -55t-70.5 -63t-69 -91t-30 -141q0 -92 24.5 -140t69.5 -48zM437 1103l-200 94q-26 13 -39.5 25t-13.5 37q0 22 15 34t37 12q19 0 33 -7.5t27 -18.5l171 -140z" />
    <glyph glyph-name="aacute" unicode="&#xe1;" horiz-adv-x="684" 
d="M266 -21q-61 0 -108.5 30t-75.5 88.5t-28 143.5q0 93 36.5 154.5t90 104t107.5 77t90 72t36 90.5q0 75 -11.5 129.5t-37.5 84t-70 29.5q-50 0 -82 -32t-32 -74q0 -22 7 -36t13.5 -28.5t6.5 -39.5q0 -35 -17.5 -57t-49.5 -22q-31 0 -48.5 27t-17.5 75q0 74 30.5 133.5
t86 94t127.5 34.5q74 0 129 -33.5t85.5 -106t30.5 -191.5v-588q0 -43 9 -58t27 -15q17 0 27.5 7.5t15.5 13.5l36 -57q-13 -15 -46.5 -28.5t-76.5 -13.5q-42 0 -69.5 13.5t-41 35.5t-16.5 48q-5 -17 -23 -42t-51.5 -44t-88.5 -19zM305 67q36 0 60.5 28.5t36.5 67.5t12 71v371
q-2 -28 -33.5 -55t-70.5 -63t-69 -91t-30 -141q0 -92 24.5 -140t69.5 -48zM221 1080l-40 42l177 135q15 12 30 19.5t29 7.5q13 0 24 -7t17 -18q6 -10 6 -21q0 -19 -16.5 -35.5t-41.5 -27.5z" />
    <glyph glyph-name="acircumflex" unicode="&#xe2;" horiz-adv-x="684" 
d="M266 -21q-61 0 -108.5 30t-75.5 88.5t-28 143.5q0 93 36.5 154.5t90 104t107.5 77t90 72t36 90.5q0 75 -11.5 129.5t-37.5 84t-70 29.5q-50 0 -82 -32t-32 -74q0 -22 7 -36t13.5 -28.5t6.5 -39.5q0 -35 -17.5 -57t-49.5 -22q-31 0 -48.5 27t-17.5 75q0 74 30.5 133.5
t86 94t127.5 34.5q74 0 129 -33.5t85.5 -106t30.5 -191.5v-588q0 -43 9 -58t27 -15q17 0 27.5 7.5t15.5 13.5l36 -57q-13 -15 -46.5 -28.5t-76.5 -13.5q-42 0 -69.5 13.5t-41 35.5t-16.5 48q-5 -17 -23 -42t-51.5 -44t-88.5 -19zM305 67q36 0 60.5 28.5t36.5 67.5t12 71v371
q-2 -28 -33.5 -55t-70.5 -63t-69 -91t-30 -141q0 -92 24.5 -140t69.5 -48zM145 1122l148 206h70l146 -206h-74l-108 137l-107 -137h-75z" />
    <glyph glyph-name="atilde" unicode="&#xe3;" horiz-adv-x="684" 
d="M266 -21q-61 0 -108.5 30t-75.5 88.5t-28 143.5q0 93 36.5 154.5t90 104t107.5 77t90 72t36 90.5q0 75 -11.5 129.5t-37.5 84t-70 29.5q-50 0 -82 -32t-32 -74q0 -22 7 -36t13.5 -28.5t6.5 -39.5q0 -35 -17.5 -57t-49.5 -22q-31 0 -48.5 27t-17.5 75q0 74 30.5 133.5
t86 94t127.5 34.5q74 0 129 -33.5t85.5 -106t30.5 -191.5v-588q0 -43 9 -58t27 -15q17 0 27.5 7.5t15.5 13.5l36 -57q-13 -15 -46.5 -28.5t-76.5 -13.5q-42 0 -69.5 13.5t-41 35.5t-16.5 48q-5 -17 -23 -42t-51.5 -44t-88.5 -19zM305 67q36 0 60.5 28.5t36.5 67.5t12 71v371
q-2 -28 -33.5 -55t-70.5 -63t-69 -91t-30 -141q0 -92 24.5 -140t69.5 -48zM413 1130q-39 0 -65 16.5t-47.5 32.5t-45.5 16q-32 0 -48 -18.5t-21 -30.5l-66 32q6 19 22 42t42 41t60 18q41 0 67.5 -16t48.5 -32.5t50 -16.5t41.5 15.5t19.5 27.5l64 -36q-4 -15 -20 -36.5
t-41.5 -38t-60.5 -16.5z" />
    <glyph glyph-name="adieresis" unicode="&#xe4;" horiz-adv-x="684" 
d="M266 -21q-61 0 -108.5 30t-75.5 88.5t-28 143.5q0 93 36.5 154.5t90 104t107.5 77t90 72t36 90.5q0 75 -11.5 129.5t-37.5 84t-70 29.5q-50 0 -82 -32t-32 -74q0 -22 7 -36t13.5 -28.5t6.5 -39.5q0 -35 -17.5 -57t-49.5 -22q-31 0 -48.5 27t-17.5 75q0 74 30.5 133.5
t86 94t127.5 34.5q74 0 129 -33.5t85.5 -106t30.5 -191.5v-588q0 -43 9 -58t27 -15q17 0 27.5 7.5t15.5 13.5l36 -57q-13 -15 -46.5 -28.5t-76.5 -13.5q-42 0 -69.5 13.5t-41 35.5t-16.5 48q-5 -17 -23 -42t-51.5 -44t-88.5 -19zM305 67q36 0 60.5 28.5t36.5 67.5t12 71v371
q-2 -28 -33.5 -55t-70.5 -63t-69 -91t-30 -141q0 -92 24.5 -140t69.5 -48zM443 1127q-32 0 -54.5 22.5t-22.5 51.5q0 33 22.5 56.5t54.5 23.5q29 0 52 -23.5t23 -56.5q0 -29 -23 -51.5t-52 -22.5zM212 1127q-29 0 -52 22.5t-23 51.5q0 33 23 56.5t52 23.5q31 0 54.5 -23.5
t23.5 -56.5q0 -29 -23.5 -51.5t-54.5 -22.5z" />
    <glyph glyph-name="aring" unicode="&#xe5;" horiz-adv-x="684" 
d="M266 -21q-61 0 -108.5 30t-75.5 88.5t-28 143.5q0 93 36.5 154.5t90 104t107.5 77t90 72t36 90.5q0 75 -11.5 129.5t-37.5 84t-70 29.5q-50 0 -82 -32t-32 -74q0 -22 7 -36t13.5 -28.5t6.5 -39.5q0 -35 -17.5 -57t-49.5 -22q-31 0 -48.5 27t-17.5 75q0 74 30.5 133.5
t86 94t127.5 34.5q74 0 129 -33.5t85.5 -106t30.5 -191.5v-588q0 -43 9 -58t27 -15q17 0 27.5 7.5t15.5 13.5l36 -57q-13 -15 -46.5 -28.5t-76.5 -13.5q-42 0 -69.5 13.5t-41 35.5t-16.5 48q-5 -17 -23 -42t-51.5 -44t-88.5 -19zM305 67q36 0 60.5 28.5t36.5 67.5t12 71v371
q-2 -28 -33.5 -55t-70.5 -63t-69 -91t-30 -141q0 -92 24.5 -140t69.5 -48zM328 1094q-45 0 -76 32.5t-31 85.5q0 55 31 86.5t76 31.5q44 0 75 -31.5t31 -86.5q0 -53 -31 -85.5t-75 -32.5zM328 1145q26 0 38 20.5t12 48.5q0 25 -12 45.5t-38 20.5t-38 -20.5t-12 -45.5
q0 -28 12 -48.5t38 -20.5z" />
    <glyph glyph-name="ae" unicode="&#xe6;" horiz-adv-x="982" 
d="M269 -18q-109 0 -162 65t-53 169q0 100 35 166t86 110.5t102.5 79t86.5 72t35 89.5q0 65 -10.5 122t-35 92t-67.5 35q-39 0 -69.5 -23t-30.5 -69q0 -23 6 -37.5l12 -29t6 -39.5q0 -35 -17 -56.5t-48 -21.5t-48.5 27t-17.5 74q0 69 28.5 125.5t80.5 90.5t124 34
q73 0 126 -39.5t82 -118.5t29 -198v-333q0 -70 -8.5 -123t-25.5 -93t-42 -75q-28 -35 -80 -65t-124 -30zM295 70q42 0 73 50t31 116v361q-3 -28 -32 -55t-65.5 -63t-64 -93t-27.5 -144q0 -52 8.5 -90.5t27.5 -60t49 -21.5zM679 -21q-72 0 -124.5 43t-85.5 118.5t-49 174.5
t-16 211q0 134 22.5 234t61 166t87.5 98.5t103 32.5q63 0 109.5 -37.5t76.5 -101.5t45 -144.5t15 -166.5q0 -21 -0.5 -41.5t-1.5 -40.5h-379v67h234q0 126 -9 214.5t-30.5 135.5t-59.5 47q-36 0 -63.5 -47t-42.5 -142.5t-15 -243.5q0 -109 6 -201t21 -160t42 -105.5
t68 -37.5q62 0 96.5 36t47.5 70l59 -34q-19 -56 -78.5 -100.5t-139.5 -44.5z" />
    <glyph glyph-name="ccedilla" unicode="&#xe7;" horiz-adv-x="607" 
d="M347 -21q-70 0 -125 45t-93 122.5t-58 177t-20 208.5q0 133 27.5 231.5t71.5 163.5t97 97.5t103 32.5q67 0 113 -39t70 -100.5t24 -128.5q0 -46 -17.5 -71t-48.5 -25t-49 22t-18 58q0 24 7.5 37.5t15 28t7.5 38.5q0 52 -28 81t-69 29t-69.5 -40t-46 -105.5t-25 -145
t-7.5 -158.5q0 -81 7.5 -166.5t25 -158t48.5 -117t79 -44.5q54 0 83.5 29t44.5 73l51 -43q-18 -44 -67 -88t-134 -44zM383 -300q-52 0 -91.5 10t-54.5 18l25 60q10 -7 42.5 -17t75.5 -10q32 0 56.5 15.5t24.5 43.5q0 30 -16 39.5t-39 9.5q-16 0 -34.5 -6.5t-31.5 -20.5
l-63 4l61 155h68l-46 -104q5 7 28.5 16.5t53.5 9.5q38 0 71 -23t33 -81q0 -43 -24 -69t-61.5 -38t-77.5 -12z" />
    <glyph glyph-name="egrave" unicode="&#xe8;" horiz-adv-x="630" 
d="M327 -21q-72 0 -124.5 43t-85.5 118.5t-49 174.5t-16 211q0 134 22.5 234t61 166t87.5 98.5t103 32.5q63 0 109.5 -37.5t76.5 -101.5t45 -144.5t15 -166.5q0 -21 -0.5 -41.5t-1.5 -40.5h-379v67h234q0 126 -9 214.5t-30.5 135.5t-59.5 47q-36 0 -63.5 -47t-42.5 -142.5
t-15 -243.5q0 -109 6 -201t21 -160t42 -105.5t68 -37.5q62 0 96.5 36t47.5 70l59 -34q-19 -56 -78.5 -100.5t-139.5 -44.5zM432 1102l-200 94q-26 13 -39.5 25t-13.5 37q0 22 15 34t37 12q19 0 33 -7.5t27 -18.5l171 -140z" />
    <glyph glyph-name="eacute" unicode="&#xe9;" horiz-adv-x="630" 
d="M327 -21q-72 0 -124.5 43t-85.5 118.5t-49 174.5t-16 211q0 134 22.5 234t61 166t87.5 98.5t103 32.5q63 0 109.5 -37.5t76.5 -101.5t45 -144.5t15 -166.5q0 -21 -0.5 -41.5t-1.5 -40.5h-379v67h234q0 126 -9 214.5t-30.5 135.5t-59.5 47q-36 0 -63.5 -47t-42.5 -142.5
t-15 -243.5q0 -109 6 -201t21 -160t42 -105.5t68 -37.5q62 0 96.5 36t47.5 70l59 -34q-19 -56 -78.5 -100.5t-139.5 -44.5zM216 1079l-40 42l177 135q15 12 30 19.5t29 7.5q13 0 24 -7t17 -18q6 -10 6 -21q0 -19 -16.5 -35.5t-41.5 -27.5z" />
    <glyph glyph-name="ecircumflex" unicode="&#xea;" horiz-adv-x="630" 
d="M327 -21q-72 0 -124.5 43t-85.5 118.5t-49 174.5t-16 211q0 134 22.5 234t61 166t87.5 98.5t103 32.5q63 0 109.5 -37.5t76.5 -101.5t45 -144.5t15 -166.5q0 -21 -0.5 -41.5t-1.5 -40.5h-379v67h234q0 126 -9 214.5t-30.5 135.5t-59.5 47q-36 0 -63.5 -47t-42.5 -142.5
t-15 -243.5q0 -109 6 -201t21 -160t42 -105.5t68 -37.5q62 0 96.5 36t47.5 70l59 -34q-19 -56 -78.5 -100.5t-139.5 -44.5zM140 1121l148 206h70l146 -206h-74l-108 137l-107 -137h-75z" />
    <glyph glyph-name="edieresis" unicode="&#xeb;" horiz-adv-x="630" 
d="M327 -21q-72 0 -124.5 43t-85.5 118.5t-49 174.5t-16 211q0 134 22.5 234t61 166t87.5 98.5t103 32.5q63 0 109.5 -37.5t76.5 -101.5t45 -144.5t15 -166.5q0 -21 -0.5 -41.5t-1.5 -40.5h-379v67h234q0 126 -9 214.5t-30.5 135.5t-59.5 47q-36 0 -63.5 -47t-42.5 -142.5
t-15 -243.5q0 -109 6 -201t21 -160t42 -105.5t68 -37.5q62 0 96.5 36t47.5 70l59 -34q-19 -56 -78.5 -100.5t-139.5 -44.5zM438 1126q-32 0 -54.5 22.5t-22.5 51.5q0 33 22.5 56.5t54.5 23.5q29 0 52 -23.5t23 -56.5q0 -29 -23 -51.5t-52 -22.5zM207 1126q-29 0 -52 22.5
t-23 51.5q0 33 23 56.5t52 23.5q31 0 54.5 -23.5t23.5 -56.5q0 -29 -23.5 -51.5t-54.5 -22.5z" />
    <glyph glyph-name="igrave" unicode="&#xec;" horiz-adv-x="424" 
d="M34 0v68h106v912h-106v67h256v-979h107v-68h-363zM325 1103l-200 94q-26 13 -39.5 25t-13.5 37q0 22 15 34t37 12q19 0 33 -7.5t27 -18.5l171 -140z" />
    <glyph glyph-name="iacute" unicode="&#xed;" horiz-adv-x="424" 
d="M34 0v68h106v912h-106v67h256v-979h107v-68h-363zM108 1080l-40 42l177 135q15 12 30 19.5t29 7.5q13 0 24 -7t17 -18q6 -10 6 -21q0 -19 -16.5 -35.5t-41.5 -27.5z" />
    <glyph glyph-name="icircumflex" unicode="&#xee;" horiz-adv-x="424" 
d="M34 0v68h106v912h-106v67h256v-979h107v-68h-363zM33 1122l148 206h70l146 -206h-74l-108 137l-107 -137h-75z" />
    <glyph glyph-name="idieresis" unicode="&#xef;" horiz-adv-x="424" 
d="M34 0v68h106v912h-106v67h256v-979h107v-68h-363zM330 1127q-32 0 -54.5 22.5t-22.5 51.5q0 33 22.5 56.5t54.5 23.5q29 0 52 -23.5t23 -56.5q0 -29 -23 -51.5t-52 -22.5zM99 1127q-29 0 -52 22.5t-23 51.5q0 33 23 56.5t52 23.5q31 0 54.5 -23.5t23.5 -56.5
q0 -29 -23.5 -51.5t-54.5 -22.5z" />
    <glyph glyph-name="eth" unicode="&#xf0;" horiz-adv-x="737" 
d="M358 -22q-76 0 -137.5 70.5t-98 195t-36.5 285.5q0 131 23 229t62 163.5t87.5 98.5t99.5 33q30 0 53 -13t38 -31t22 -33q-8 62 -24 115t-36 93.5t-43 62.5l-62 -95l-53 37l67 100q-19 19 -60 40t-74 32l23 60q15 -3 39.5 -13t49.5 -22.5t40 -22.5l18 -13l46 68l53 -36
l-48 -72q54 -46 95.5 -112.5t70.5 -159.5t43.5 -219t14.5 -292t-38.5 -289.5t-101 -191.5t-133.5 -68zM358 46q30 0 57 52t44 159t17 270q0 160 -17 261.5t-44 149.5t-57 48t-58 -48t-45.5 -149.5t-17.5 -261.5q0 -163 17.5 -270t45.5 -159t58 -52z" />
    <glyph glyph-name="ntilde" unicode="&#xf1;" horiz-adv-x="805" 
d="M34 0v68h103v912h-103v67h250v-107q5 22 27 49.5t59 47.5t86 20q47 0 90.5 -23.5t72 -89.5t28.5 -195v-681h102v-68h-337v68h85v665q0 121 -22 173.5t-71 52.5q-25 0 -46.5 -18t-37 -48.5t-24 -67.5t-9.5 -75v-682h84v-68h-337zM483 1130q-39 0 -65 16.5t-47.5 32.5
t-45.5 16q-32 0 -48 -18.5t-21 -30.5l-66 32q6 19 22 42t42 41t60 18q41 0 67.5 -16t48.5 -32.5t50 -16.5t41.5 15.5t19.5 27.5l64 -36q-4 -15 -20 -36.5t-41.5 -38t-60.5 -16.5z" />
    <glyph glyph-name="ograve" unicode="&#xf2;" horiz-adv-x="665" 
d="M329 -22q-55 0 -105 36t-89 106t-61 172t-22 235q0 145 23.5 246t63 163.5t89 91.5t101.5 29t101.5 -29t89.5 -91.5t63.5 -163.5t23.5 -246q0 -133 -22 -235t-61 -172t-89.5 -106t-105.5 -36zM329 50q54 0 89 115.5t35 361.5q0 244 -35 351.5t-89 107.5t-89 -107.5
t-35 -351.5q0 -246 35 -361.5t89 -115.5zM440 1103l-200 94q-26 13 -39.5 25t-13.5 37q0 22 15 34t37 12q19 0 33 -7.5t27 -18.5l171 -140z" />
    <glyph glyph-name="oacute" unicode="&#xf3;" horiz-adv-x="665" 
d="M329 -22q-55 0 -105 36t-89 106t-61 172t-22 235q0 145 23.5 246t63 163.5t89 91.5t101.5 29t101.5 -29t89.5 -91.5t63.5 -163.5t23.5 -246q0 -133 -22 -235t-61 -172t-89.5 -106t-105.5 -36zM329 50q54 0 89 115.5t35 361.5q0 244 -35 351.5t-89 107.5t-89 -107.5
t-35 -351.5q0 -246 35 -361.5t89 -115.5zM224 1080l-40 42l177 135q15 12 30 19.5t29 7.5q13 0 24 -7t17 -18q6 -10 6 -21q0 -19 -16.5 -35.5t-41.5 -27.5z" />
    <glyph glyph-name="ocircumflex" unicode="&#xf4;" horiz-adv-x="665" 
d="M329 -22q-55 0 -105 36t-89 106t-61 172t-22 235q0 145 23.5 246t63 163.5t89 91.5t101.5 29t101.5 -29t89.5 -91.5t63.5 -163.5t23.5 -246q0 -133 -22 -235t-61 -172t-89.5 -106t-105.5 -36zM329 50q54 0 89 115.5t35 361.5q0 244 -35 351.5t-89 107.5t-89 -107.5
t-35 -351.5q0 -246 35 -361.5t89 -115.5zM148 1122l148 206h70l146 -206h-74l-108 137l-107 -137h-75z" />
    <glyph glyph-name="otilde" unicode="&#xf5;" horiz-adv-x="665" 
d="M329 -22q-55 0 -105 36t-89 106t-61 172t-22 235q0 145 23.5 246t63 163.5t89 91.5t101.5 29t101.5 -29t89.5 -91.5t63.5 -163.5t23.5 -246q0 -133 -22 -235t-61 -172t-89.5 -106t-105.5 -36zM329 50q54 0 89 115.5t35 361.5q0 244 -35 351.5t-89 107.5t-89 -107.5
t-35 -351.5q0 -246 35 -361.5t89 -115.5zM416 1130q-39 0 -65 16.5t-47.5 32.5t-45.5 16q-32 0 -48 -18.5t-21 -30.5l-66 32q6 19 22 42t42 41t60 18q41 0 67.5 -16t48.5 -32.5t50 -16.5t41.5 15.5t19.5 27.5l64 -36q-4 -15 -20 -36.5t-41.5 -38t-60.5 -16.5z" />
    <glyph glyph-name="odieresis" unicode="&#xf6;" horiz-adv-x="665" 
d="M329 -22q-55 0 -105 36t-89 106t-61 172t-22 235q0 145 23.5 246t63 163.5t89 91.5t101.5 29t101.5 -29t89.5 -91.5t63.5 -163.5t23.5 -246q0 -133 -22 -235t-61 -172t-89.5 -106t-105.5 -36zM329 50q54 0 89 115.5t35 361.5q0 244 -35 351.5t-89 107.5t-89 -107.5
t-35 -351.5q0 -246 35 -361.5t89 -115.5zM446 1127q-32 0 -54.5 22.5t-22.5 51.5q0 33 22.5 56.5t54.5 23.5q29 0 52 -23.5t23 -56.5q0 -29 -23 -51.5t-52 -22.5zM215 1127q-29 0 -52 22.5t-23 51.5q0 33 23 56.5t52 23.5q31 0 54.5 -23.5t23.5 -56.5q0 -29 -23.5 -51.5
t-54.5 -22.5z" />
    <glyph glyph-name="divide" unicode="&#xf7;" horiz-adv-x="806" 
d="M405 293q-25 0 -43.5 18.5t-18.5 44.5q0 27 18.5 45t43.5 18q26 0 44 -18t18 -45q0 -26 -18 -44.5t-44 -18.5zM405 677q-25 0 -43.5 18.5t-18.5 44.5t18.5 44.5t43.5 18.5q26 0 44 -18.5t18 -44.5t-18 -44.5t-44 -18.5zM102 515v67h605v-67h-605z" />
    <glyph glyph-name="oslash" unicode="&#xf8;" horiz-adv-x="684" 
d="M77 -104l459 1224h67l-460 -1224h-66zM329 -22q-55 0 -105 36t-89 106t-61 172t-22 235q0 145 23.5 246t63 163.5t89 91.5t101.5 29t101.5 -29t89.5 -91.5t63.5 -163.5t23.5 -246q0 -133 -22 -235t-61 -172t-89.5 -106t-105.5 -36zM329 50q54 0 89 115.5t35 361.5
q0 244 -35 351.5t-89 107.5t-89 -107.5t-35 -351.5q0 -246 35 -361.5t89 -115.5z" />
    <glyph glyph-name="ugrave" unicode="&#xf9;" horiz-adv-x="747" 
d="M324 -22q-53 0 -99.5 23t-75 87t-28.5 186v706h-103v66h253v-756q0 -91 12 -139t33 -65t48 -17q38 0 65 38.5t41.5 102t14.5 139.5v631h-98v66h248v-978h91v-68h-223l-8 119q-4 -28 -25 -60.5t-57.5 -56.5t-88.5 -24zM490 1103l-200 94q-26 13 -39.5 25t-13.5 37
q0 22 15 34t37 12q19 0 33 -7.5t27 -18.5l171 -140z" />
    <glyph glyph-name="uacute" unicode="&#xfa;" horiz-adv-x="747" 
d="M324 -22q-53 0 -99.5 23t-75 87t-28.5 186v706h-103v66h253v-756q0 -91 12 -139t33 -65t48 -17q38 0 65 38.5t41.5 102t14.5 139.5v631h-98v66h248v-978h91v-68h-223l-8 119q-4 -28 -25 -60.5t-57.5 -56.5t-88.5 -24zM273 1080l-40 42l177 135q15 12 30 19.5t29 7.5
q13 0 24 -7t17 -18q6 -10 6 -21q0 -19 -16.5 -35.5t-41.5 -27.5z" />
    <glyph glyph-name="ucircumflex" unicode="&#xfb;" horiz-adv-x="747" 
d="M324 -22q-53 0 -99.5 23t-75 87t-28.5 186v706h-103v66h253v-756q0 -91 12 -139t33 -65t48 -17q38 0 65 38.5t41.5 102t14.5 139.5v631h-98v66h248v-978h91v-68h-223l-8 119q-4 -28 -25 -60.5t-57.5 -56.5t-88.5 -24zM198 1122l148 206h70l146 -206h-74l-108 137
l-107 -137h-75z" />
    <glyph glyph-name="udieresis" unicode="&#xfc;" horiz-adv-x="747" 
d="M324 -22q-53 0 -99.5 23t-75 87t-28.5 186v706h-103v66h253v-756q0 -91 12 -139t33 -65t48 -17q38 0 65 38.5t41.5 102t14.5 139.5v631h-98v66h248v-978h91v-68h-223l-8 119q-4 -28 -25 -60.5t-57.5 -56.5t-88.5 -24zM495 1127q-32 0 -54.5 22.5t-22.5 51.5
q0 33 22.5 56.5t54.5 23.5q29 0 52 -23.5t23 -56.5q0 -29 -23 -51.5t-52 -22.5zM264 1127q-29 0 -52 22.5t-23 51.5q0 33 23 56.5t52 23.5q31 0 54.5 -23.5t23.5 -56.5q0 -29 -23.5 -51.5t-54.5 -22.5z" />
    <glyph glyph-name="yacute" unicode="&#xfd;" horiz-adv-x="649" 
d="M188 -502q-42 0 -69 31t-39.5 84.5t-12.5 120.5q0 48 17 73.5t48 25.5q30 0 46.5 -22.5t16.5 -59.5q0 -29 -9.5 -47.5t-19 -35.5t-9.5 -42q0 -27 8.5 -50t27.5 -23q12 0 19.5 11.5t14 34.5t12.5 56l72 355l-209 970h-82v67h317v-67h-75l122 -618l113 618h-74v67h227v-67
h-77l-197 -987l-74 -355q-9 -46 -23 -77.5t-36 -47t-55 -15.5zM226 1080l-40 42l177 135q15 12 30 19.5t29 7.5q13 0 24 -7t17 -18q6 -10 6 -21q0 -19 -16.5 -35.5t-41.5 -27.5z" />
    <glyph glyph-name="thorn" unicode="&#xfe;" horiz-adv-x="772" 
d="M40 -500v68h105v1865h-105v67h255v-562q3 9 18.5 36.5t46.5 52t78 24.5q73 0 126.5 -56t82.5 -173.5t29 -304.5q0 -189 -31.5 -307.5t-87 -174.5t-129.5 -56q-37 0 -62 13.5t-40 32t-22.5 36t-8.5 26.5v-519h98v-68h-353zM407 65q37 0 59.5 41.5t33.5 108t15 145.5t4 153
q0 57 -4 131t-14.5 144.5t-31 117t-55.5 46.5q-27 0 -48.5 -24t-37.5 -61t-24.5 -77.5t-8.5 -73.5v-423q4 -50 16 -102.5t36 -89t60 -36.5z" />
    <glyph glyph-name="ydieresis" unicode="&#xff;" horiz-adv-x="649" 
d="M188 -502q-42 0 -69 31t-39.5 84.5t-12.5 120.5q0 48 17 73.5t48 25.5q30 0 46.5 -22.5t16.5 -59.5q0 -29 -9.5 -47.5t-19 -35.5t-9.5 -42q0 -27 8.5 -50t27.5 -23q12 0 19.5 11.5t14 34.5t12.5 56l72 355l-209 970h-82v67h317v-67h-75l122 -618l113 618h-74v67h227v-67
h-77l-197 -987l-74 -355q-9 -46 -23 -77.5t-36 -47t-55 -15.5zM448 1127q-32 0 -54.5 22.5t-22.5 51.5q0 33 22.5 56.5t54.5 23.5q29 0 52 -23.5t23 -56.5q0 -29 -23 -51.5t-52 -22.5zM217 1127q-29 0 -52 22.5t-23 51.5q0 33 23 56.5t52 23.5q31 0 54.5 -23.5t23.5 -56.5
q0 -29 -23.5 -51.5t-54.5 -22.5z" />
    <glyph glyph-name="Amacron" unicode="&#x100;" horiz-adv-x="677" 
d="M8 0v68h79l184 1335h109l197 -1335h97v-68h-342v68h84l-128 1005v0l-130 -1005h74v-68h-224zM164 311v64h246v-64h-246zM26 1537v67h603v-67h-603z" />
    <glyph glyph-name="amacron" unicode="&#x101;" horiz-adv-x="684" 
d="M266 -21q-61 0 -108.5 30t-75.5 88.5t-28 143.5q0 93 36.5 154.5t90 104t107.5 77t90 72t36 90.5q0 75 -11.5 129.5t-37.5 84t-70 29.5q-50 0 -82 -32t-32 -74q0 -22 7 -36t13.5 -28.5t6.5 -39.5q0 -35 -17.5 -57t-49.5 -22q-31 0 -48.5 27t-17.5 75q0 74 30.5 133.5
t86 94t127.5 34.5q74 0 129 -33.5t85.5 -106t30.5 -191.5v-588q0 -43 9 -58t27 -15q17 0 27.5 7.5t15.5 13.5l36 -57q-13 -15 -46.5 -28.5t-76.5 -13.5q-42 0 -69.5 13.5t-41 35.5t-16.5 48q-5 -17 -23 -42t-51.5 -44t-88.5 -19zM305 67q36 0 60.5 28.5t36.5 67.5t12 71v371
q-2 -28 -33.5 -55t-70.5 -63t-69 -91t-30 -141q0 -92 24.5 -140t69.5 -48zM119 1134v67h417v-67h-417z" />
    <glyph glyph-name="Abreve" unicode="&#x102;" horiz-adv-x="677" 
d="M8 0v68h79l184 1335h109l197 -1335h97v-68h-342v68h84l-128 1005v0l-130 -1005h74v-68h-224zM164 311v64h246v-64h-246zM325 1496q-59 0 -96 26.5t-54 69.5t-17 93h65q4 -61 30.5 -91t71.5 -30q47 0 73.5 30t30.5 91h66q0 -50 -17 -93t-54.5 -69.5t-98.5 -26.5z" />
    <glyph glyph-name="abreve" unicode="&#x103;" horiz-adv-x="684" 
d="M266 -21q-61 0 -108.5 30t-75.5 88.5t-28 143.5q0 93 36.5 154.5t90 104t107.5 77t90 72t36 90.5q0 75 -11.5 129.5t-37.5 84t-70 29.5q-50 0 -82 -32t-32 -74q0 -22 7 -36t13.5 -28.5t6.5 -39.5q0 -35 -17.5 -57t-49.5 -22q-31 0 -48.5 27t-17.5 75q0 74 30.5 133.5
t86 94t127.5 34.5q74 0 129 -33.5t85.5 -106t30.5 -191.5v-588q0 -43 9 -58t27 -15q17 0 27.5 7.5t15.5 13.5l36 -57q-13 -15 -46.5 -28.5t-76.5 -13.5q-42 0 -69.5 13.5t-41 35.5t-16.5 48q-5 -17 -23 -42t-51.5 -44t-88.5 -19zM305 67q36 0 60.5 28.5t36.5 67.5t12 71v371
q-2 -28 -33.5 -55t-70.5 -63t-69 -91t-30 -141q0 -92 24.5 -140t69.5 -48zM325 1102q-59 0 -96 26.5t-54 69.5t-17 93h65q4 -61 30.5 -91t71.5 -30q47 0 73.5 30t30.5 91h66q0 -50 -17 -93t-54.5 -69.5t-98.5 -26.5z" />
    <glyph glyph-name="Aogonek" unicode="&#x104;" horiz-adv-x="677" 
d="M8 0v68h79l184 1335h109l197 -1335h97v-68h-342v68h84l-128 1005v0l-130 -1005h74v-68h-224zM164 311v64h246v-64h-246zM676 -295q-40 0 -78 14t-62 44.5t-24 81.5q0 47 24 82t55.5 59t54.5 36l28 -22q-22 -22 -45 -56.5t-23 -82.5q0 -49 31.5 -62.5t61.5 -13.5
q24 0 53.5 6.5t49.5 17.5l31 -55q-23 -19 -64.5 -34t-92.5 -15z" />
    <glyph glyph-name="aogonek" unicode="&#x105;" horiz-adv-x="684" 
d="M266 -21q-61 0 -108.5 30t-75.5 88.5t-28 143.5q0 93 36.5 154.5t90 104t107.5 77t90 72t36 90.5q0 75 -11.5 129.5t-37.5 84t-70 29.5q-50 0 -81 -32t-31 -74q0 -22 6.5 -37.5t12.5 -31.5t6 -41q0 -35 -17.5 -57t-49.5 -22q-31 0 -49 27.5t-18 74.5q0 75 31 135.5
t86.5 96.5t127.5 36q74 0 129 -33.5t85.5 -106t30.5 -191.5v-588q0 -43 9 -58t27 -15q17 0 27.5 7.5t15.5 13.5l36 -57q-13 -15 -46.5 -28.5t-76.5 -13.5q-42 0 -70 10.5t-43 30t-18 45.5q-5 -17 -22 -39t-49.5 -38.5t-87.5 -16.5zM305 67q36 0 60.5 28.5t36.5 67.5t12 71
v371q-2 -28 -33.5 -55t-70.5 -63t-69 -91t-30 -141q0 -92 24.5 -140t69.5 -48zM682 -265q-40 0 -78 13.5t-62 44.5t-24 81q0 47 23.5 82t55.5 59t55 36l27 -22q-21 -22 -44 -56t-23 -83q0 -48 31.5 -62t61.5 -14q24 0 53.5 6.5t49.5 18.5l31 -56q-23 -19 -64.5 -33.5
t-92.5 -14.5z" />
    <glyph glyph-name="Cacute" unicode="&#x106;" horiz-adv-x="654" 
d="M393 -20q-145 0 -237.5 183t-92.5 535q0 131 21 259t63.5 233t106 168.5t147.5 63.5q58 0 100.5 -40t66 -100.5t23.5 -121.5q0 -50 -16.5 -75.5t-50.5 -25.5q-36 0 -53.5 22t-17.5 63q0 26 9 45t18 40t9 53q0 35 -18.5 53t-43.5 18q-42 0 -75 -41.5t-57.5 -111
t-40 -155.5t-23.5 -175.5t-8 -169.5q0 -118 9 -219t26 -181t40.5 -136t52 -86t61.5 -30q37 0 62 23.5t41.5 60t26.5 74.5l59 -30q-17 -52 -45 -96.5t-68.5 -72t-94.5 -27.5zM289 1444l-40 42l177 135q14 11 29.5 19t29.5 8q13 0 24 -7t17 -18q6 -10 6 -22q0 -19 -16.5 -35
t-41.5 -27z" />
    <glyph glyph-name="cacute" unicode="&#x107;" horiz-adv-x="607" 
d="M347 -21q-70 0 -125 45t-93 122.5t-58 177t-20 208.5q0 133 27.5 231.5t71.5 163.5t97 97.5t103 32.5q67 0 113 -39t70 -100.5t24 -128.5q0 -46 -17.5 -71t-48.5 -25t-49 22t-18 58q0 24 7.5 37.5t15 28t7.5 38.5q0 52 -28 81t-69 29t-69.5 -40t-46 -105.5t-25 -145
t-7.5 -158.5q0 -81 7.5 -166.5t25 -158t48.5 -117t79 -44.5q54 0 83.5 29t44.5 73l51 -43q-18 -44 -67 -88t-134 -44zM232 1080l-40 42l177 135q15 12 30 19.5t29 7.5q13 0 24 -7t17 -18q6 -10 6 -21q0 -19 -16.5 -35.5t-41.5 -27.5z" />
    <glyph glyph-name="ccircumflex" unicode="&#x109;" horiz-adv-x="607" 
d="M347 -21q-70 0 -125 45t-93 122.5t-58 177t-20 208.5q0 133 27.5 231.5t71.5 163.5t97 97.5t103 32.5q67 0 113 -39t70 -100.5t24 -128.5q0 -46 -17.5 -71t-48.5 -25t-49 22t-18 58q0 24 7.5 37.5t15 28t7.5 38.5q0 52 -28 81t-69 29t-69.5 -40t-46 -105.5t-25 -145
t-7.5 -158.5q0 -81 7.5 -166.5t25 -158t48.5 -117t79 -44.5q54 0 83.5 29t44.5 73l51 -43q-18 -44 -67 -88t-134 -44zM156 1122l148 206h70l146 -206h-74l-108 137l-107 -137h-75z" />
    <glyph glyph-name="Cdotaccent" unicode="&#x10a;" horiz-adv-x="654" 
d="M393 -20q-145 0 -237.5 183t-92.5 535q0 131 21 259t63.5 233t106 168.5t147.5 63.5q58 0 100.5 -40t66 -100.5t23.5 -121.5q0 -50 -16.5 -75.5t-50.5 -25.5q-36 0 -53.5 22t-17.5 63q0 26 9 45t18 40t9 53q0 35 -18.5 53t-43.5 18q-42 0 -75 -41.5t-57.5 -111
t-40 -155.5t-23.5 -175.5t-8 -169.5q0 -118 9 -219t26 -181t40.5 -136t52 -86t61.5 -30q37 0 62 23.5t41.5 60t26.5 74.5l59 -30q-17 -52 -45 -96.5t-68.5 -72t-94.5 -27.5zM396 1504q-31 0 -54 22.5t-23 52.5q0 31 23 54.5t54 23.5q29 0 52 -23.5t23 -54.5q0 -30 -23 -52.5
t-52 -22.5z" />
    <glyph glyph-name="cdotaccent" unicode="&#x10b;" horiz-adv-x="607" 
d="M347 -21q-70 0 -125 45t-93 122.5t-58 177t-20 208.5q0 133 27.5 231.5t71.5 163.5t97 97.5t103 32.5q67 0 113 -39t70 -100.5t24 -128.5q0 -46 -17.5 -71t-48.5 -25t-49 22t-18 58q0 24 7.5 37.5t15 28t7.5 38.5q0 52 -28 81t-69 29t-69.5 -40t-46 -105.5t-25 -145
t-7.5 -158.5q0 -81 7.5 -166.5t25 -158t48.5 -117t79 -44.5q54 0 83.5 29t44.5 73l51 -43q-18 -44 -67 -88t-134 -44zM339 1131q-31 0 -54 22.5t-23 52.5q0 31 23 54.5t54 23.5q29 0 52 -23.5t23 -54.5q0 -30 -23 -52.5t-52 -22.5z" />
    <glyph glyph-name="Ccaron" unicode="&#x10c;" horiz-adv-x="654" 
d="M393 -20q-145 0 -237.5 183t-92.5 535q0 131 21 259t63.5 233t106 168.5t147.5 63.5q58 0 100.5 -40t66 -100.5t23.5 -121.5q0 -50 -16.5 -75.5t-50.5 -25.5q-36 0 -53.5 22t-17.5 63q0 26 9 45t18 40t9 53q0 35 -18.5 53t-43.5 18q-42 0 -75 -41.5t-57.5 -111
t-40 -155.5t-23.5 -175.5t-8 -169.5q0 -118 9 -219t26 -181t40.5 -136t52 -86t61.5 -30q37 0 62 23.5t41.5 60t26.5 74.5l59 -30q-17 -52 -45 -96.5t-68.5 -72t-94.5 -27.5zM361 1468l-158 216h78l115 -147l114 147h79l-157 -216h-71z" />
    <glyph glyph-name="ccaron" unicode="&#x10d;" horiz-adv-x="607" 
d="M347 -21q-70 0 -125 45t-93 122.5t-58 177t-20 208.5q0 133 27.5 231.5t71.5 163.5t97 97.5t103 32.5q67 0 113 -39t70 -100.5t24 -128.5q0 -46 -17.5 -71t-48.5 -25t-49 22t-18 58q0 24 7.5 37.5t15 28t7.5 38.5q0 52 -28 81t-69 29t-69.5 -40t-46 -105.5t-25 -145
t-7.5 -158.5q0 -81 7.5 -166.5t25 -158t48.5 -117t79 -44.5q54 0 83.5 29t44.5 73l51 -43q-18 -44 -67 -88t-134 -44zM304 1105l-158 216h78l115 -147l114 147h79l-157 -216h-71z" />
    <glyph glyph-name="Dcaron" unicode="&#x10e;" horiz-adv-x="769" 
d="M53 0v68h92v1265h-92v67h309q95 0 174 -75.5t127 -228.5t48 -385q0 -234 -48 -392.5t-127.5 -238.5t-173.5 -80h-309zM296 68h45q57 0 106.5 67t81 209t31.5 367q0 198 -28.5 337t-72.5 212t-93 73h-70v-1265zM330 1468l-158 216h78l115 -147l114 147h79l-157 -216h-71z
" />
    <glyph glyph-name="dcaron" unicode="&#x10f;" horiz-adv-x="824" 
d="M664 1189q11 46 16.5 101t5.5 106q0 46 16 65.5t39 19.5q24 0 38.5 -17.5t14.5 -56.5q0 -57 -21 -122.5t-52 -118.5zM313 -20q-68 0 -123 52t-87 170t-32 316q0 193 31.5 311.5t84.5 172.5t116 54q50 0 79.5 -19.5t44 -45.5t18.5 -46v487h-115v68h267v-1432h112v-68h-243
l-12 125q-2 -26 -19 -60.5t-47 -59.5t-75 -25zM340 79q30 0 52.5 39t36 98.5t16.5 118.5v417q-4 51 -19 96t-38.5 73t-51.5 28q-31 0 -52.5 -32.5t-35 -91t-19.5 -138t-6 -173.5q0 -107 7 -188.5t21 -136.5t36 -82.5t53 -27.5z" />
    <glyph glyph-name="Dcroat" unicode="&#x110;" horiz-adv-x="822" 
d="M47 684v67h398v-67h-398zM53 0v68h92v1265h-92v67h309q95 0 174 -75.5t127 -228.5t48 -385q0 -234 -48 -392.5t-127.5 -238.5t-173.5 -80h-309zM296 68h45q57 0 106.5 67t81 209t31.5 367q0 198 -28.5 337t-72.5 212t-93 73h-70v-1265z" />
    <glyph glyph-name="dcroat" unicode="&#x111;" horiz-adv-x="720" 
d="M197 1246v68h504v-68h-504zM313 -20q-68 0 -123 52t-87 170t-32 316q0 193 31.5 311.5t84.5 172.5t116 54q50 0 79.5 -19.5t44 -45.5t18.5 -46v487h-115v68h267v-1432h112v-68h-243l-12 125q-2 -26 -19 -60.5t-47 -59.5t-75 -25zM340 79q30 0 52.5 39t36 98.5t16.5 118.5
v417q-4 51 -19 96t-38.5 73t-51.5 28q-31 0 -52.5 -32.5t-35 -91t-19.5 -138t-6 -173.5q0 -107 7 -188.5t21 -136.5t36 -82.5t53 -27.5z" />
    <glyph glyph-name="Emacron" unicode="&#x112;" horiz-adv-x="681" 
d="M53 0v68h93v1265h-93v67h550v-289h-67q0 81 -10 130t-33 70.5t-67 21.5h-129v-599h196v97h64v-258h-64v94h-196v-599h129q44 0 67 22t33 71.5t10 130.5h67v-292h-550zM50 1537v67h603v-67h-603z" />
    <glyph glyph-name="emacron" unicode="&#x113;" horiz-adv-x="630" 
d="M327 -21q-72 0 -124.5 43t-85.5 118.5t-49 174.5t-16 211q0 134 22.5 234t61 166t87.5 98.5t103 32.5q63 0 109.5 -37.5t76.5 -101.5t45 -144.5t15 -166.5q0 -21 -0.5 -41.5t-1.5 -40.5h-379v67h234q0 126 -9 214.5t-30.5 135.5t-59.5 47q-36 0 -63.5 -47t-42.5 -142.5
t-15 -243.5q0 -109 6 -201t21 -160t42 -105.5t68 -37.5q62 0 96.5 36t47.5 70l59 -34q-19 -56 -78.5 -100.5t-139.5 -44.5zM114 1133v67h417v-67h-417z" />
    <glyph glyph-name="ebreve" unicode="&#x115;" horiz-adv-x="630" 
d="M327 -21q-72 0 -124.5 43t-85.5 118.5t-49 174.5t-16 211q0 134 22.5 234t61 166t87.5 98.5t103 32.5q63 0 109.5 -37.5t76.5 -101.5t45 -144.5t15 -166.5q0 -21 -0.5 -41.5t-1.5 -40.5h-379v67h234q0 126 -9 214.5t-30.5 135.5t-59.5 47q-36 0 -63.5 -47t-42.5 -142.5
t-15 -243.5q0 -109 6 -201t21 -160t42 -105.5t68 -37.5q62 0 96.5 36t47.5 70l59 -34q-19 -56 -78.5 -100.5t-139.5 -44.5zM320 1101q-59 0 -96 26.5t-54 69.5t-17 93h65q4 -61 30.5 -91t71.5 -30q47 0 73.5 30t30.5 91h66q0 -50 -17 -93t-54.5 -69.5t-98.5 -26.5z" />
    <glyph glyph-name="Edotaccent" unicode="&#x116;" horiz-adv-x="681" 
d="M53 0v68h93v1265h-93v67h550v-289h-67q0 81 -10 130t-33 70.5t-67 21.5h-129v-599h196v97h64v-258h-64v94h-196v-599h129q44 0 67 22t33 71.5t10 130.5h67v-292h-550zM351 1504q-31 0 -54 22.5t-23 52.5q0 31 23 54.5t54 23.5q29 0 52 -23.5t23 -54.5q0 -30 -23 -52.5
t-52 -22.5z" />
    <glyph glyph-name="edotaccent" unicode="&#x117;" horiz-adv-x="630" 
d="M327 -21q-72 0 -124.5 43t-85.5 118.5t-49 174.5t-16 211q0 134 22.5 234t61 166t87.5 98.5t103 32.5q63 0 109.5 -37.5t76.5 -101.5t45 -144.5t15 -166.5q0 -21 -0.5 -41.5t-1.5 -40.5h-379v67h234q0 126 -9 214.5t-30.5 135.5t-59.5 47q-36 0 -63.5 -47t-42.5 -142.5
t-15 -243.5q0 -109 6 -201t21 -160t42 -105.5t68 -37.5q62 0 96.5 36t47.5 70l59 -34q-19 -56 -78.5 -100.5t-139.5 -44.5zM323 1130q-31 0 -54 22.5t-23 52.5q0 31 23 54.5t54 23.5q29 0 52 -23.5t23 -54.5q0 -30 -23 -52.5t-52 -22.5z" />
    <glyph glyph-name="Eogonek" unicode="&#x118;" horiz-adv-x="681" 
d="M53 0v68h93v1265h-93v67h550v-289h-67q0 81 -10 130t-33 70.5t-67 21.5h-129v-599h196v97h64v-258h-64v94h-196v-599h129q44 0 67 22t33 71.5t10 130.5h67v-292h-550zM606 -295q-40 0 -78 14t-62 44.5t-24 81.5q0 47 24 82t55.5 59t54.5 36l27 -22q-21 -22 -44 -56.5
t-23 -82.5q0 -49 31.5 -62.5t61.5 -13.5q24 0 53.5 6.5t49.5 17.5l31 -55q-23 -19 -64.5 -34t-92.5 -15z" />
    <glyph glyph-name="eogonek" unicode="&#x119;" horiz-adv-x="630" 
d="M327 -21q-72 0 -124.5 43t-85.5 118.5t-49 174.5t-16 211q0 134 22.5 234t61 166t87.5 98.5t103 32.5q63 0 109.5 -38t76.5 -103t45 -148.5t15 -175.5q0 -21 -0.5 -41.5t-1.5 -40.5h-379v67h234q0 126 -9 218t-30.5 143t-59.5 51q-36 0 -63.5 -51t-42.5 -150t-15 -247
q0 -109 6 -199t21 -156t42 -101.5t68 -35.5q62 0 96.5 37.5t47.5 71.5l59 -34q-19 -56 -78.5 -100.5t-139.5 -44.5zM450 -280q-41 0 -79 13.5t-62 44.5t-24 81q0 47 24 82t55.5 59t54.5 36l28 -22q-21 -22 -44.5 -56t-23.5 -83q0 -48 31.5 -62t61.5 -14q24 0 53.5 6.5
t49.5 18.5l32 -56q-24 -19 -65.5 -33.5t-91.5 -14.5z" />
    <glyph glyph-name="Ecaron" unicode="&#x11a;" horiz-adv-x="681" 
d="M53 0v68h93v1265h-93v67h550v-289h-67q0 81 -10 130t-33 70.5t-67 21.5h-129v-599h196v97h64v-258h-64v94h-196v-599h129q44 0 67 22t33 71.5t10 130.5h67v-292h-550zM316 1468l-158 216h78l115 -147l114 147h79l-157 -216h-71z" />
    <glyph glyph-name="ecaron" unicode="&#x11b;" horiz-adv-x="630" 
d="M327 -21q-72 0 -124.5 43t-85.5 118.5t-49 174.5t-16 211q0 134 22.5 234t61 166t87.5 98.5t103 32.5q63 0 109.5 -37.5t76.5 -101.5t45 -144.5t15 -166.5q0 -21 -0.5 -41.5t-1.5 -40.5h-379v67h234q0 126 -9 214.5t-30.5 135.5t-59.5 47q-36 0 -63.5 -47t-42.5 -142.5
t-15 -243.5q0 -109 6 -201t21 -160t42 -105.5t68 -37.5q62 0 96.5 36t47.5 70l59 -34q-19 -56 -78.5 -100.5t-139.5 -44.5zM288 1104l-158 216h78l115 -147l114 147h79l-157 -216h-71z" />
    <glyph glyph-name="gcircumflex" unicode="&#x11d;" horiz-adv-x="704" 
d="M350 -498q-88 0 -155.5 35t-105.5 95t-38 136q0 64 18.5 107.5t45 71t51 42t37.5 19.5q-9 2 -28.5 11t-41 27t-37.5 48t-16 74q0 39 15 67t36 43.5t40 18.5q4 1 10 2t7 0q-10 9 -26.5 33t-33 65t-28 100t-11.5 137q0 119 23 200t61.5 130t85 71t93.5 22q84 0 140.5 -50.5
t85 -142t28.5 -213.5q0 -117 -22 -198t-59.5 -130t-83.5 -70.5t-93 -21.5q-48 0 -75 11.5t-32 13.5q-1 0 -2 0.5t-4 0.5q-18 0 -37.5 -20t-19.5 -52q0 -45 41.5 -71.5t154.5 -44.5q140 -20 210 -87t70 -195q0 -76 -27 -130.5t-72 -88.5t-98.5 -50t-106.5 -16zM350 -434
q74 0 119 54t45 133q0 92 -26.5 134.5t-95.5 63.5q-20 7 -41 14t-38.5 12.5t-27.5 8.5q-31 -17 -54 -48t-35.5 -72t-12.5 -91q0 -55 18.5 -102.5t55.5 -77t93 -29.5zM348 300q29 0 53 26t38 101t14 220q0 141 -14 214t-37.5 99.5t-51.5 26.5t-52.5 -26.5t-40 -101
t-15.5 -217.5q0 -144 15.5 -217t39.5 -99t51 -26zM442 989q9 60 55 95.5t97 35.5q43 0 60.5 -19.5t17.5 -52.5q0 -28 -16 -45t-42 -17q-23 0 -33.5 10.5t-18 21t-25.5 10.5q-13 0 -23 -10.5t-10 -31.5zM165 1122l148 206h70l146 -206h-74l-108 137l-107 -137h-75z" />
    <glyph glyph-name="Gbreve" unicode="&#x11e;" horiz-adv-x="740" 
d="M394 -20q-90 0 -163.5 81.5t-116.5 241.5t-43 395t49.5 396t128 243.5t164.5 82.5q69 0 115 -36.5t70 -96t24 -127.5q0 -51 -18.5 -76t-51.5 -25q-35 0 -53 25t-18 64q0 25 9 43.5t18 38t9 48.5t-25 53t-66 24q-53 0 -91.5 -61t-63 -160.5t-36 -214t-11.5 -221.5
q0 -156 14 -277t38.5 -204t56 -126t66.5 -43q27 0 46.5 9.5t29.5 19.5v489h-87v67h315v-67h-89v-566h-61q-1 2 -8.5 7t-18.5 5q-14 0 -30 -8t-40 -16t-62 -8zM398 1496q-59 0 -96 26.5t-54 69.5t-17 93h65q4 -61 30.5 -91t71.5 -30q47 0 73.5 30t30.5 91h66q0 -50 -17 -93
t-54.5 -69.5t-98.5 -26.5z" />
    <glyph glyph-name="gbreve" unicode="&#x11f;" horiz-adv-x="704" 
d="M350 -498q-88 0 -155.5 35t-105.5 95t-38 136q0 64 18.5 107.5t45 71t51 42t37.5 19.5q-9 2 -28.5 11t-41 27t-37.5 48t-16 74q0 39 15 67t36 43.5t40 18.5q4 1 10 2t7 0q-10 9 -26.5 33t-33 65t-28 100t-11.5 137q0 119 23 200t61.5 130t85 71t93.5 22q84 0 140.5 -50.5
t85 -142t28.5 -213.5q0 -117 -22 -198t-59.5 -130t-83.5 -70.5t-93 -21.5q-48 0 -75 11.5t-32 13.5q-1 0 -2 0.5t-4 0.5q-18 0 -37.5 -20t-19.5 -52q0 -45 41.5 -71.5t154.5 -44.5q140 -20 210 -87t70 -195q0 -76 -27 -130.5t-72 -88.5t-98.5 -50t-106.5 -16zM350 -434
q74 0 119 54t45 133q0 92 -26.5 134.5t-95.5 63.5q-20 7 -41 14t-38.5 12.5t-27.5 8.5q-31 -17 -54 -48t-35.5 -72t-12.5 -91q0 -55 18.5 -102.5t55.5 -77t93 -29.5zM348 300q29 0 53 26t38 101t14 220q0 141 -14 214t-37.5 99.5t-51.5 26.5t-52.5 -26.5t-40 -101
t-15.5 -217.5q0 -144 15.5 -217t39.5 -99t51 -26zM442 989q9 60 55 95.5t97 35.5q43 0 60.5 -19.5t17.5 -52.5q0 -28 -16 -45t-42 -17q-23 0 -33.5 10.5t-18 21t-25.5 10.5q-13 0 -23 -10.5t-10 -31.5zM345 1102q-59 0 -96 26.5t-54 69.5t-17 93h65q4 -61 30.5 -91t71.5 -30
q47 0 73.5 30t30.5 91h66q0 -50 -17 -93t-54.5 -69.5t-98.5 -26.5z" />
    <glyph glyph-name="Gdotaccent" unicode="&#x120;" horiz-adv-x="740" 
d="M394 -20q-90 0 -163.5 81.5t-116.5 241.5t-43 395t49.5 396t128 243.5t164.5 82.5q69 0 115 -36.5t70 -96t24 -127.5q0 -51 -18.5 -76t-51.5 -25q-35 0 -53 25t-18 64q0 25 9 43.5t18 38t9 48.5t-25 53t-66 24q-53 0 -91.5 -61t-63 -160.5t-36 -214t-11.5 -221.5
q0 -156 14 -277t38.5 -204t56 -126t66.5 -43q27 0 46.5 9.5t29.5 19.5v489h-87v67h315v-67h-89v-566h-61q-1 2 -8.5 7t-18.5 5q-14 0 -30 -8t-40 -16t-62 -8zM401 1504q-31 0 -54 22.5t-23 52.5q0 31 23 54.5t54 23.5q29 0 52 -23.5t23 -54.5q0 -30 -23 -52.5t-52 -22.5z
" />
    <glyph glyph-name="gdotaccent" unicode="&#x121;" horiz-adv-x="704" 
d="M350 -498q-88 0 -155.5 35t-105.5 95t-38 136q0 64 18.5 107.5t45 71t51 42t37.5 19.5q-9 2 -28.5 11t-41 27t-37.5 48t-16 74q0 39 15 67t36 43.5t40 18.5q4 1 10 2t7 0q-10 9 -26.5 33t-33 65t-28 100t-11.5 137q0 119 23 200t61.5 130t85 71t93.5 22q84 0 140.5 -50.5
t85 -142t28.5 -213.5q0 -117 -22 -198t-59.5 -130t-83.5 -70.5t-93 -21.5q-48 0 -75 11.5t-32 13.5q-1 0 -2 0.5t-4 0.5q-18 0 -37.5 -20t-19.5 -52q0 -45 41.5 -71.5t154.5 -44.5q140 -20 210 -87t70 -195q0 -76 -27 -130.5t-72 -88.5t-98.5 -50t-106.5 -16zM350 -434
q74 0 119 54t45 133q0 92 -26.5 134.5t-95.5 63.5q-20 7 -41 14t-38.5 12.5t-27.5 8.5q-31 -17 -54 -48t-35.5 -72t-12.5 -91q0 -55 18.5 -102.5t55.5 -77t93 -29.5zM348 300q29 0 53 26t38 101t14 220q0 141 -14 214t-37.5 99.5t-51.5 26.5t-52.5 -26.5t-40 -101
t-15.5 -217.5q0 -144 15.5 -217t39.5 -99t51 -26zM442 989q9 60 55 95.5t97 35.5q43 0 60.5 -19.5t17.5 -52.5q0 -28 -16 -45t-42 -17q-23 0 -33.5 10.5t-18 21t-25.5 10.5q-13 0 -23 -10.5t-10 -31.5zM348 1131q-31 0 -54 22.5t-23 52.5q0 31 23 54.5t54 23.5
q29 0 52 -23.5t23 -54.5q0 -30 -23 -52.5t-52 -22.5z" />
    <glyph glyph-name="uni0122" unicode="&#x122;" horiz-adv-x="740" 
d="M394 -20q-90 0 -163.5 81.5t-116.5 241.5t-43 395t49.5 396t128 243.5t164.5 82.5q69 0 115 -36.5t70 -96t24 -127.5q0 -51 -18.5 -76t-51.5 -25q-35 0 -53 25t-18 64q0 25 9 43.5t18 38t9 48.5t-25 53t-66 24q-53 0 -91.5 -61t-63 -160.5t-36 -214t-11.5 -221.5
q0 -156 14 -277t38.5 -204t56 -126t66.5 -43q27 0 46.5 9.5t29.5 19.5v489h-87v67h315v-67h-89v-566h-61q-1 2 -8.5 7t-18.5 5q-14 0 -30 -8t-40 -16t-62 -8zM393 -343l-34 39q10 5 29 21.5t22 30.5q-2 -3 -11 -3q-28 0 -47 19.5t-19 47.5t20 47t47 19q33 0 53.5 -21
t20.5 -58q0 -36 -13.5 -63.5t-33 -47t-34.5 -31.5z" />
    <glyph glyph-name="uni0123" unicode="&#x123;" horiz-adv-x="704" 
d="M350 -498q-88 0 -155.5 35t-105.5 95t-38 136q0 64 18.5 107.5t45 71t51 42t37.5 19.5q-9 2 -28.5 11t-41 27t-37.5 48t-16 74q0 39 15 67t36 43.5t40 18.5q4 1 10 2t7 0q-10 9 -26.5 33t-33 65t-28 100t-11.5 137q0 119 23 200t61.5 130t85 71t93.5 22q84 0 140.5 -50.5
t85 -142t28.5 -213.5q0 -117 -22 -198t-59.5 -130t-83.5 -70.5t-93 -21.5q-48 0 -75 11.5t-32 13.5q-1 0 -2 0.5t-4 0.5q-18 0 -37.5 -20t-19.5 -52q0 -45 41.5 -71.5t154.5 -44.5q140 -20 210 -87t70 -195q0 -76 -27 -130.5t-72 -88.5t-98.5 -50t-106.5 -16zM350 -434
q74 0 119 54t45 133q0 92 -26.5 134.5t-95.5 63.5q-20 7 -41 14t-38.5 12.5t-27.5 8.5q-31 -17 -54 -48t-35.5 -72t-12.5 -91q0 -55 18.5 -102.5t55.5 -77t93 -29.5zM348 300q29 0 53 26t38 101t14 220q0 141 -14 214t-37.5 99.5t-51.5 26.5t-52.5 -26.5t-40 -101
t-15.5 -217.5q0 -144 15.5 -217t39.5 -99t51 -26zM442 989q9 60 55 95.5t97 35.5q43 0 60.5 -19.5t17.5 -52.5q0 -28 -16 -45t-42 -17q-23 0 -33.5 10.5t-18 21t-25.5 10.5q-13 0 -23 -10.5t-10 -31.5zM355 1340l35 -36q-10 -5 -31 -24t-24 -33q4 5 14 5q28 0 47.5 -19.5
t19.5 -47.5t-20 -47.5t-48 -19.5q-32 0 -54 21t-22 59q0 36 14 63.5t34 47.5t35 31z" />
    <glyph glyph-name="hcircumflex" unicode="&#x125;" horiz-adv-x="789" 
d="M34 0v68h102v1365h-102v67h252v-563q2 14 24 43t61 53.5t92 24.5q51 0 96 -26.5t73 -96t28 -199.5v-668h104v-68h-333v68h79v649q0 130 -23 183t-73 53q-33 0 -61.5 -29.5t-47 -76t-19.5 -99.5v-680h81v-68h-333zM215 1575l148 206h70l146 -206h-74l-108 137l-107 -137
h-75z" />
    <glyph glyph-name="Hbar" unicode="&#x126;" horiz-adv-x="855" 
d="M78 1015v67h715v-67h-715zM53 0v68h92v1265h-92v67h318v-67h-77v-579h262v579h-76v67h317v-67h-94v-1265h94v-68h-317v68h76v619h-262v-619h77v-68h-318z" />
    <glyph glyph-name="hbar" unicode="&#x127;" horiz-adv-x="789" 
d="M32 1246v68h503v-68h-503zM34 0v68h102v1365h-102v67h252v-563q2 14 24 43t61 53.5t92 24.5q51 0 96 -26.5t73 -96t28 -199.5v-668h104v-68h-333v68h79v649q0 130 -23 183t-73 53q-33 0 -61.5 -29.5t-47 -76t-19.5 -99.5v-680h81v-68h-333z" />
    <glyph glyph-name="Itilde" unicode="&#x128;" horiz-adv-x="472" 
d="M66 0v68h95v1265h-95v67h341v-67h-96v-1265h96v-68h-341zM323 1479q-39 0 -65 16.5t-47.5 32.5t-45.5 16q-32 0 -48 -18.5t-21 -30.5l-66 32q6 19 22 42t42 41t60 18q41 0 67.5 -16t48.5 -32.5t50 -16.5t41.5 15.5t19.5 27.5l64 -36q-4 -15 -20 -36.5t-41.5 -38
t-60.5 -16.5z" />
    <glyph glyph-name="itilde" unicode="&#x129;" horiz-adv-x="424" 
d="M34 0v68h106v912h-106v67h256v-979h107v-68h-363zM301 1130q-39 0 -65 16.5t-47.5 32.5t-45.5 16q-32 0 -48 -18.5t-21 -30.5l-66 32q6 19 22 42t42 41t60 18q41 0 67.5 -16t48.5 -32.5t50 -16.5t41.5 15.5t19.5 27.5l64 -36q-4 -15 -20 -36.5t-41.5 -38t-60.5 -16.5z
" />
    <glyph glyph-name="Imacron" unicode="&#x12a;" horiz-adv-x="472" 
d="M66 0v68h95v1265h-95v67h341v-67h-96v-1265h96v-68h-341zM-64 1537v67h603v-67h-603z" />
    <glyph glyph-name="imacron" unicode="&#x12b;" horiz-adv-x="424" 
d="M34 0v68h106v912h-106v67h256v-979h107v-68h-363zM7 1134v67h417v-67h-417z" />
    <glyph glyph-name="ibreve" unicode="&#x12d;" horiz-adv-x="424" 
d="M34 0v68h106v912h-106v67h256v-979h107v-68h-363zM213 1102q-59 0 -96 26.5t-54 69.5t-17 93h65q4 -61 30.5 -91t71.5 -30q47 0 73.5 30t30.5 91h66q0 -50 -17 -93t-54.5 -69.5t-98.5 -26.5z" />
    <glyph glyph-name="Iogonek" unicode="&#x12e;" horiz-adv-x="472" 
d="M66 0v68h95v1265h-95v67h341v-67h-96v-1265h96v-68h-341zM410 -295q-40 0 -78 14t-62.5 44.5t-24.5 81.5q0 47 24 82t55.5 59t54.5 36l28 -22q-21 -22 -44.5 -56.5t-23.5 -82.5q0 -49 31.5 -62.5t61.5 -13.5q24 0 53.5 6.5t49.5 17.5l32 -55q-24 -19 -65.5 -34t-91.5 -15
z" />
    <glyph glyph-name="iogonek" unicode="&#x12f;" horiz-adv-x="456" 
d="M224 1228q-45 0 -80 33.5t-35 79.5q0 47 35 81.5t80 34.5t79 -34.5t34 -81.5q0 -30 -16 -56t-41.5 -41.5t-55.5 -15.5zM34 0v68h106v912h-106v67h256v-979h107v-68h-363zM400 -295q-40 0 -78 14t-62.5 44.5t-24.5 81.5q0 47 24 82t55.5 59t55.5 36l27 -22
q-21 -22 -44.5 -56.5t-23.5 -82.5q0 -49 32 -62.5t61 -13.5q25 0 54.5 6.5t49.5 17.5l31 -55q-24 -19 -65.5 -34t-91.5 -15z" />
    <glyph glyph-name="Idotaccent" unicode="&#x130;" horiz-adv-x="472" 
d="M66 0v68h95v1265h-95v67h341v-67h-96v-1265h96v-68h-341zM238 1504q-31 0 -54 22.5t-23 52.5q0 31 23 54.5t54 23.5q29 0 52 -23.5t23 -54.5q0 -30 -23 -52.5t-52 -22.5z" />
    <glyph glyph-name="dotlessi" unicode="&#x131;" horiz-adv-x="424" 
d="M34 0v68h106v912h-106v67h256v-979h107v-68h-363z" />
    <glyph glyph-name="jcircumflex" unicode="&#x135;" horiz-adv-x="421" 
d="M74 -498q-53 0 -91 31t-58.5 84t-20.5 120q0 48 20.5 73.5t51.5 25.5q30 0 46 -22.5t16 -59.5q0 -25 -5.5 -44t-11.5 -37t-6 -41q0 -22 7.5 -35.5t19.5 -19t26 -5.5q53 0 77 61.5t24 179.5v1167h-112v67h262v-1128q0 -117 -20.5 -197t-55.5 -128.5t-78.5 -70t-90.5 -21.5
zM50 1121l148 206h70l146 -206h-74l-108 137l-107 -137h-75z" />
    <glyph glyph-name="uni0136" unicode="&#x136;" horiz-adv-x="760" 
d="M38 0v68h93v1265h-93v67h339v-67h-98v-572l278 572h-86v67h236v-67h-72l-264 -549l6 65l263 -781h80v-68h-312v68h69l-219 646l21 -6v-640h82v-68h-323zM372 -343l-34 39q10 5 29 21.5t22 30.5q-2 -3 -11 -3q-28 0 -47 19.5t-19 47.5t20 47t47 19q33 0 53.5 -21t20.5 -58
q0 -36 -13.5 -63.5t-33 -47t-34.5 -31.5z" />
    <glyph glyph-name="uni0137" unicode="&#x137;" horiz-adv-x="752" 
d="M36 0v68h102v1365h-102v67h252v-833l199 313h-88v67h260v-67h-93l-141 -239l237 -673h86v-68h-335v68h84l-186 527l-23 -52v-475h80v-68h-332zM376 -343l-34 39q10 5 29 21.5t22 30.5q-2 -3 -11 -3q-28 0 -47 19.5t-19 47.5t20 47t47 19q33 0 53.5 -21t20.5 -58
q0 -36 -13.5 -63.5t-33 -47t-34.5 -31.5z" />
    <glyph glyph-name="kgreenlandic" unicode="&#x138;" horiz-adv-x="760" 
d="M38 0v68h93v911h-93v67h339v-67h-98v-401l280 401h-88v67h236v-67h-72l-264 -394l6 49l263 -566h80v-68h-312v68h70l-220 466l21 -5v-461h82v-68h-323z" />
    <glyph glyph-name="Lacute" unicode="&#x139;" horiz-adv-x="627" 
d="M62 0v68h90v1265h-90v67h331v-67h-92v-1265h103q31 0 51.5 22.5t31 72t10.5 129.5h68v-292h-503zM119 1444l-40 42l177 135q14 11 29.5 19t29.5 8q13 0 24 -7t17 -18q6 -10 6 -22q0 -19 -16.5 -35t-41.5 -27z" />
    <glyph glyph-name="lacute" unicode="&#x13a;" horiz-adv-x="425" 
d="M41 0v68h97v1365h-97v67h246v-1432h98v-68h-344zM109 1533l-40 42l177 135q15 12 30 19.5t29 7.5q13 0 24 -7t17 -18q6 -10 6 -21q0 -19 -16.5 -35.5t-41.5 -27.5z" />
    <glyph glyph-name="uni013B" unicode="&#x13b;" horiz-adv-x="627" 
d="M62 0v68h90v1265h-90v67h331v-67h-92v-1265h103q31 0 51.5 22.5t31 72t10.5 129.5h68v-292h-503zM315 -343l-34 39q10 5 29 21.5t22 30.5q-2 -3 -11 -3q-28 0 -47 19.5t-19 47.5t20 47t47 19q33 0 53.5 -21t20.5 -58q0 -36 -13.5 -63.5t-33 -47t-34.5 -31.5z" />
    <glyph glyph-name="uni013C" unicode="&#x13c;" horiz-adv-x="425" 
d="M41 0v68h97v1365h-97v67h246v-1432h98v-68h-344zM208 -343l-34 39q10 5 29 21.5t22 30.5q-2 -3 -11 -3q-28 0 -47 19.5t-19 47.5t20 47t47 19q33 0 53.5 -21t20.5 -58q0 -36 -13.5 -63.5t-33 -47t-34.5 -31.5z" />
    <glyph glyph-name="Lcaron" unicode="&#x13d;" horiz-adv-x="639" 
d="M482 1189q12 46 17 101t5 106q0 46 16.5 65.5t39.5 19.5t37.5 -17.5t14.5 -56.5q0 -57 -21 -122.5t-52 -118.5zM62 0v68h90v1265h-90v67h331v-67h-92v-1265h103q31 0 51.5 22.5t31 72t10.5 129.5h68v-292h-503z" />
    <glyph glyph-name="lcaron" unicode="&#x13e;" horiz-adv-x="513" 
d="M351 1189q12 46 17 101t5 106q0 46 16 65.5t40 19.5q23 0 37.5 -17.5t14.5 -56.5q0 -57 -21 -122.5t-52 -118.5zM41 0v68h97v1365h-97v67h246v-1432h98v-68h-344z" />
    <glyph glyph-name="ldot" unicode="&#x140;" horiz-adv-x="461" 
d="M41 0v68h97v1365h-97v67h246v-1432h98v-68h-344zM450 708q-42 0 -72.5 31t-30.5 74q0 44 30.5 74t72.5 30q43 0 73.5 -30t30.5 -74q0 -43 -30.5 -74t-73.5 -31z" />
    <glyph glyph-name="Lslash" unicode="&#x141;" horiz-adv-x="669" 
d="M43 433v79l453 359v-79zM62 0v68h90v1265h-90v67h331v-67h-92v-1265h103q31 0 51.5 22.5t31 72t10.5 129.5h68v-292h-503z" />
    <glyph glyph-name="lslash" unicode="&#x142;" horiz-adv-x="449" 
d="M25 429v84l364 351v-79zM41 0v68h97v1365h-97v67h246v-1432h98v-68h-344z" />
    <glyph glyph-name="Nacute" unicode="&#x143;" horiz-adv-x="801" 
d="M32 0v68h92v1265h-92v67h280l306 -1071h-7v1004h-91v67h249v-67h-89v-1333h-125l-370 1292h9v-1224h99v-68h-261zM295 1444l-40 42l177 135q14 11 29.5 19t29.5 8q13 0 24 -7t17 -18q6 -10 6 -22q0 -19 -16.5 -35t-41.5 -27z" />
    <glyph glyph-name="nacute" unicode="&#x144;" horiz-adv-x="774" 
d="M34 0v68h103v912h-103v67h250v-107q5 22 27 49.5t59 47.5t86 20q47 0 90.5 -23.5t72 -89.5t28.5 -195v-681h102v-68h-337v68h85v665q0 121 -22 173.5t-71 52.5q-25 0 -46.5 -18t-37 -48.5t-24 -67.5t-9.5 -75v-682h84v-68h-337zM290 1080l-40 42l177 135q15 12 30 19.5
t29 7.5q13 0 24 -7t17 -18q6 -10 6 -21q0 -19 -16.5 -35.5t-41.5 -27.5z" />
    <glyph glyph-name="uni0145" unicode="&#x145;" horiz-adv-x="801" 
d="M32 0v68h92v1265h-92v67h280l306 -1071h-7v1004h-91v67h249v-67h-89v-1333h-125l-370 1292h9v-1224h99v-68h-261zM394 -343l-34 39q10 5 29 21.5t22 30.5q-2 -3 -11 -3q-28 0 -47 19.5t-19 47.5t20 47t47 19q33 0 53.5 -21t20.5 -58q0 -36 -13.5 -63.5t-33 -47
t-34.5 -31.5z" />
    <glyph glyph-name="uni0146" unicode="&#x146;" horiz-adv-x="774" 
d="M34 0v68h103v912h-103v67h250v-107q5 22 27 49.5t59 47.5t86 20q47 0 90.5 -23.5t72 -89.5t28.5 -195v-681h102v-68h-337v68h85v665q0 121 -22 173.5t-71 52.5q-25 0 -46.5 -18t-37 -48.5t-24 -67.5t-9.5 -75v-682h84v-68h-337zM390 -343l-34 39q10 5 29 21.5t22 30.5
q-2 -3 -11 -3q-28 0 -47 19.5t-19 47.5t20 47t47 19q33 0 53.5 -21t20.5 -58q0 -36 -13.5 -63.5t-33 -47t-34.5 -31.5z" />
    <glyph glyph-name="Ncaron" unicode="&#x147;" horiz-adv-x="801" 
d="M32 0v68h92v1265h-92v67h280l306 -1071h-7v1004h-91v67h249v-67h-89v-1333h-125l-370 1292h9v-1224h99v-68h-261zM367 1468l-158 216h78l115 -147l114 147h79l-157 -216h-71z" />
    <glyph glyph-name="ncaron" unicode="&#x148;" horiz-adv-x="774" 
d="M34 0v68h103v912h-103v67h250v-107q5 22 27 49.5t59 47.5t86 20q47 0 90.5 -23.5t72 -89.5t28.5 -195v-681h102v-68h-337v68h85v665q0 121 -22 173.5t-71 52.5q-25 0 -46.5 -18t-37 -48.5t-24 -67.5t-9.5 -75v-682h84v-68h-337zM363 1105l-158 216h78l115 -147l114 147
h79l-157 -216h-71z" />
    <glyph glyph-name="Eng" unicode="&#x14a;" horiz-adv-x="801" 
d="M502 -392q-51 0 -83 28.5t-47.5 79.5t-15.5 117q0 48 19 68.5t44 20.5q22 0 40 -15.5t18 -55.5q0 -33 -10.5 -47t-10.5 -53q0 -31 13.5 -53.5t36.5 -22.5q35 0 58 30t34.5 83.5t11.5 124.5v175h70v-158q0 -95 -16.5 -157t-43 -98t-58 -51.5t-60.5 -15.5zM32 0v68h92v1265
h-92v67h280l306 -1071h-7v1004h-91v67h249v-67h-89v-1333h-125l-370 1292h9v-1224h99v-68h-261z" />
    <glyph glyph-name="eng" unicode="&#x14b;" horiz-adv-x="756" 
d="M413 -429q-77 0 -113 62t-36 157q0 42 16 66.5t45 24.5q27 0 41.5 -23t14.5 -58q0 -22 -6.5 -35.5t-14 -25.5t-7.5 -30q0 -28 9 -43t23 -21t29 -6q27 0 46 21.5t30.5 58.5t17 84t5.5 98v812q0 109 -18.5 173t-71.5 64q-30 0 -52 -22t-36 -54.5t-21.5 -66t-7.5 -59.5v-680
h94v-68h-348v68h104v912h-104v67h251v-104q7 18 29 44t56 46t76 20q59 0 103.5 -25t70 -93t25.5 -197v-804q0 -132 -34 -212t-91 -115.5t-125 -35.5z" />
    <glyph glyph-name="Omacron" unicode="&#x14c;" horiz-adv-x="754" 
d="M377 -22q-98 0 -168.5 90.5t-108 252t-37.5 377.5q0 217 37.5 379.5t108 253.5t168.5 91q100 0 171 -91t109.5 -253.5t38.5 -379.5q0 -216 -38.5 -377.5t-109.5 -252t-171 -90.5zM377 46q41 0 70.5 46t49.5 132.5t30 206.5t10 267t-10 267.5t-30 207.5t-49.5 134.5
t-70.5 47.5q-40 0 -69.5 -47.5t-48 -134.5t-28 -207.5t-9.5 -267.5t9.5 -267t28 -206.5t48 -132.5t69.5 -46zM77 1537v67h603v-67h-603z" />
    <glyph glyph-name="omacron" unicode="&#x14d;" horiz-adv-x="665" 
d="M329 -22q-55 0 -105 36t-89 106t-61 172t-22 235q0 145 23.5 246t63 163.5t89 91.5t101.5 29t101.5 -29t89.5 -91.5t63.5 -163.5t23.5 -246q0 -133 -22 -235t-61 -172t-89.5 -106t-105.5 -36zM329 50q54 0 89 115.5t35 361.5q0 244 -35 351.5t-89 107.5t-89 -107.5
t-35 -351.5q0 -246 35 -361.5t89 -115.5zM122 1134v67h417v-67h-417z" />
    <glyph glyph-name="obreve" unicode="&#x14f;" horiz-adv-x="665" 
d="M329 -22q-55 0 -105 36t-89 106t-61 172t-22 235q0 145 23.5 246t63 163.5t89 91.5t101.5 29t101.5 -29t89.5 -91.5t63.5 -163.5t23.5 -246q0 -133 -22 -235t-61 -172t-89.5 -106t-105.5 -36zM329 50q54 0 89 115.5t35 361.5q0 244 -35 351.5t-89 107.5t-89 -107.5
t-35 -351.5q0 -246 35 -361.5t89 -115.5zM328 1102q-59 0 -96 26.5t-54 69.5t-17 93h65q4 -61 30.5 -91t71.5 -30q47 0 73.5 30t30.5 91h66q0 -50 -17 -93t-54.5 -69.5t-98.5 -26.5z" />
    <glyph glyph-name="Ohungarumlaut" unicode="&#x150;" horiz-adv-x="754" 
d="M377 -22q-98 0 -168.5 90.5t-108 252t-37.5 377.5q0 217 37.5 379.5t108 253.5t168.5 91q100 0 171 -91t109.5 -253.5t38.5 -379.5q0 -216 -38.5 -377.5t-109.5 -252t-171 -90.5zM377 46q41 0 70.5 46t49.5 132.5t30 206.5t10 267t-10 267.5t-30 207.5t-49.5 134.5
t-70.5 47.5q-40 0 -69.5 -47.5t-48 -134.5t-28 -207.5t-9.5 -267.5t9.5 -267t28 -206.5t48 -132.5t69.5 -46zM379 1491l-39 40l113 137q14 16 26 24.5t24 8.5q16 0 27.5 -11.5t11.5 -28.5q0 -25 -30 -47zM333 1491l-38 40l112 137q14 17 26 25t24 8q16 0 27.5 -11.5
t11.5 -28.5q0 -26 -29 -47z" />
    <glyph glyph-name="ohungarumlaut" unicode="&#x151;" horiz-adv-x="665" 
d="M329 -22q-55 0 -105 36t-89 106t-61 172t-22 235q0 145 23.5 246t63 163.5t89 91.5t101.5 29t101.5 -29t89.5 -91.5t63.5 -163.5t23.5 -246q0 -133 -22 -235t-61 -172t-89.5 -106t-105.5 -36zM329 50q54 0 89 115.5t35 361.5q0 244 -35 351.5t-89 107.5t-89 -107.5
t-35 -351.5q0 -246 35 -361.5t89 -115.5zM287 1127l-39 40l113 137q14 16 26 24.5t24 8.5q16 0 27.5 -11.5t11.5 -28.5q0 -25 -30 -47zM241 1127l-38 40l112 137q14 17 26 25t24 8q16 0 27.5 -11.5t11.5 -28.5q0 -26 -29 -47z" />
    <glyph glyph-name="OE" unicode="&#x152;" horiz-adv-x="1026" 
d="M384 -22q-99 0 -171 95t-111 257.5t-39 367.5q0 206 39.5 369.5t112.5 259t171 95.5q42 0 84.5 -15.5t69.5 -50.5l-32 -66q-18 37 -49 51t-54 14q-52 0 -88 -53.5t-59 -146t-33 -210.5t-10 -247t10.5 -246.5t33 -209t58 -144t86.5 -52.5q31 0 53 11.5t36.5 30t20.5 37.5
l39 -65q-28 -41 -71 -61.5t-97 -20.5zM484 0v1400h464v-289h-67q0 81 -6.5 130t-32.5 70.5t-88 21.5h-120v-579h222v97h67v-258h-67v94h-222v-619h114q63 0 91 22t35 71.5t7 130.5h67v-292h-464z" />
    <glyph glyph-name="oe" unicode="&#x153;" horiz-adv-x="1039" 
d="M329 -22q-55 0 -105 36t-89 106t-61 172t-22 235q0 145 23.5 246t63 163.5t89 91.5t101.5 29t101.5 -29t89.5 -91.5t63.5 -163.5t23.5 -246q0 -133 -22 -235t-61 -172t-89.5 -106t-105.5 -36zM329 50q54 0 89 115.5t35 361.5q0 244 -35 351.5t-89 107.5t-89 -107.5
t-35 -351.5q0 -246 35 -361.5t89 -115.5zM737 -21q-73 0 -125 43t-85.5 118.5t-49 174.5t-15.5 211q0 134 22 234t61 166t88 98.5t103 32.5q63 0 109.5 -37.5t76.5 -101.5t44.5 -144.5t14.5 -166.5v-41.5t-1 -40.5h-379v67h234q0 126 -9.5 214.5t-31 135.5t-58.5 47
q-36 0 -63.5 -47t-43 -142.5t-15.5 -243.5q0 -109 6.5 -201t21.5 -160t41.5 -105.5t68.5 -37.5q62 0 96.5 36t47.5 70l58 -34q-18 -56 -77.5 -100.5t-139.5 -44.5z" />
    <glyph glyph-name="Racute" unicode="&#x154;" horiz-adv-x="822" 
d="M684 -16q-67 0 -99 36t-41 97.5t-9 137.5q0 51 2 102.5t2 93.5q0 97 -13 147.5t-50.5 69.5t-110.5 19h-57v-619h97v-68h-345v68h99v1265h-99v67h368q80 0 142.5 -33.5t98 -105t35.5 -186.5q0 -87 -20 -151.5t-54 -107.5t-76.5 -66t-87.5 -28q92 -2 140.5 -37t66.5 -103.5
t18 -169.5q0 -51 -2.5 -103t-2.5 -100q0 -31 2.5 -67.5t10 -62.5t22.5 -26q9 0 15.5 11t7.5 24h62q-3 -36 -19.5 -58.5t-43.5 -34t-59 -11.5zM308 754h78q59 0 95.5 43t54 115t17.5 159q0 81 -14 140t-48.5 90.5t-95.5 31.5h-87v-579zM306 1444l-40 42l177 135
q14 11 29.5 19t29.5 8q13 0 24 -7t17 -18q6 -10 6 -22q0 -19 -16.5 -35t-41.5 -27z" />
    <glyph glyph-name="racute" unicode="&#x155;" horiz-adv-x="597" 
d="M25 0v68h104v912h-104v67h242l8 -98q3 12 21 38t49.5 48t75.5 22q51 0 82.5 -34.5t46.5 -93t15 -131.5q0 -52 -18 -78.5t-50 -26.5q-29 0 -46.5 21.5t-17.5 63.5q0 25 8.5 40t16 32t7.5 46q0 44 -15.5 64t-43.5 20q-36 0 -65 -32.5t-45.5 -85.5t-16.5 -114v-680h105v-68
h-359zM259 1080l-40 42l177 135q15 12 30 19.5t29 7.5q13 0 24 -7t17 -18q6 -10 6 -21q0 -19 -16.5 -35.5t-41.5 -27.5z" />
    <glyph glyph-name="uni0156" unicode="&#x156;" horiz-adv-x="822" 
d="M684 -16q-67 0 -99 36t-41 97.5t-9 137.5q0 51 2 102.5t2 93.5q0 97 -13 147.5t-50.5 69.5t-110.5 19h-57v-619h97v-68h-345v68h99v1265h-99v67h368q80 0 142.5 -33.5t98 -105t35.5 -186.5q0 -87 -20 -151.5t-54 -107.5t-76.5 -66t-87.5 -28q92 -2 140.5 -37t66.5 -103.5
t18 -169.5q0 -51 -2.5 -103t-2.5 -100q0 -31 2.5 -67.5t10 -62.5t22.5 -26q9 0 15.5 11t7.5 24h62q-3 -36 -19.5 -58.5t-43.5 -34t-59 -11.5zM308 754h78q59 0 95.5 43t54 115t17.5 159q0 81 -14 140t-48.5 90.5t-95.5 31.5h-87v-579zM406 -343l-34 39q10 5 29 21.5t22 30.5
q-2 -3 -11 -3q-28 0 -47 19.5t-19 47.5t20 47t47 19q33 0 53.5 -21t20.5 -58q0 -36 -13.5 -63.5t-33 -47t-34.5 -31.5z" />
    <glyph glyph-name="uni0157" unicode="&#x157;" horiz-adv-x="597" 
d="M25 0v68h104v912h-104v67h242l8 -98q3 12 21 38t49.5 48t75.5 22q51 0 82.5 -34.5t46.5 -93t15 -131.5q0 -52 -18 -78.5t-50 -26.5q-29 0 -46.5 21.5t-17.5 63.5q0 25 8.5 40t16 32t7.5 46q0 44 -15.5 64t-43.5 20q-36 0 -65 -32.5t-45.5 -85.5t-16.5 -114v-680h105v-68
h-359zM258 -343l-34 39q10 5 29 21.5t22 30.5q-2 -3 -11 -3q-28 0 -47 19.5t-19 47.5t20 47t47 19q33 0 53.5 -21t20.5 -58q0 -36 -13.5 -63.5t-33 -47t-34.5 -31.5z" />
    <glyph glyph-name="Rcaron" unicode="&#x158;" horiz-adv-x="822" 
d="M684 -16q-67 0 -99 36t-41 97.5t-9 137.5q0 51 2 102.5t2 93.5q0 97 -13 147.5t-50.5 69.5t-110.5 19h-57v-619h97v-68h-345v68h99v1265h-99v67h368q80 0 142.5 -33.5t98 -105t35.5 -186.5q0 -87 -20 -151.5t-54 -107.5t-76.5 -66t-87.5 -28q92 -2 140.5 -37t66.5 -103.5
t18 -169.5q0 -51 -2.5 -103t-2.5 -100q0 -31 2.5 -67.5t10 -62.5t22.5 -26q9 0 15.5 11t7.5 24h62q-3 -36 -19.5 -58.5t-43.5 -34t-59 -11.5zM308 754h78q59 0 95.5 43t54 115t17.5 159q0 81 -14 140t-48.5 90.5t-95.5 31.5h-87v-579zM378 1468l-158 216h78l115 -147
l114 147h79l-157 -216h-71z" />
    <glyph glyph-name="rcaron" unicode="&#x159;" horiz-adv-x="597" 
d="M25 0v68h104v912h-104v67h242l8 -98q3 12 21 38t49.5 48t75.5 22q51 0 82.5 -34.5t46.5 -93t15 -131.5q0 -52 -18 -78.5t-50 -26.5q-29 0 -46.5 21.5t-17.5 63.5q0 25 8.5 40t16 32t7.5 46q0 44 -15.5 64t-43.5 20q-36 0 -65 -32.5t-45.5 -85.5t-16.5 -114v-680h105v-68
h-359zM331 1105l-158 216h78l115 -147l114 147h79l-157 -216h-71z" />
    <glyph glyph-name="Sacute" unicode="&#x15a;" horiz-adv-x="617" 
d="M327 -27q-46 0 -75 12.5t-48 29t-32 29t-25 12.5q-23 0 -23 -56h-59v305h67q2 -29 11 -64t25 -69.5t39.5 -63.5t54 -46.5t67.5 -17.5q49 0 75 24.5t35.5 69.5t9.5 104q0 69 -26.5 137.5t-70.5 137.5t-98 139q-75 101 -115.5 182t-55.5 151t-15 134q0 95 31 161.5
t83.5 102t115.5 35.5q54 0 81.5 -18t42.5 -36t29 -18q12 0 18 11t6 39h60v-302h-67q-2 38 -13 82.5t-31.5 83.5t-51 64t-71.5 25q-57 0 -89 -43t-32 -121q0 -55 15.5 -110.5t54.5 -121.5t104 -154q62 -78 109.5 -158t75 -165t27.5 -175q0 -87 -17.5 -149.5t-49 -102.5
t-75 -60t-97.5 -20zM209 1444l-40 42l177 135q14 11 29.5 19t29.5 8q13 0 24 -7t17 -18q6 -10 6 -22q0 -19 -16.5 -35t-41.5 -27z" />
    <glyph glyph-name="sacute" unicode="&#x15b;" horiz-adv-x="545" 
d="M282 -22q-53 0 -80.5 13.5t-42 26.5t-27.5 13q-12 0 -16.5 -8.5t-4.5 -22.5h-57v297h68q4 -61 15.5 -108t30.5 -78.5t46.5 -48t63.5 -16.5q37 0 59.5 20t32.5 51t10 63q0 51 -15.5 97.5t-48 95t-84.5 103.5q-69 75 -119.5 154.5t-50.5 195.5q0 78 29.5 129t76 76.5
t98.5 25.5q41 0 65.5 -10t38.5 -20t24 -10q9 0 13 7t4 23h59v-288h-67q-4 57 -13.5 100t-26 71.5t-40 43.5t-54.5 15q-48 0 -73.5 -36t-25.5 -92q0 -66 36 -122t105 -129q56 -61 96.5 -119t62.5 -120t22 -134q0 -80 -25 -138t-72.5 -89.5t-112.5 -31.5zM173 1080l-40 42
l177 135q15 12 30 19.5t29 7.5q13 0 24 -7t17 -18q6 -10 6 -21q0 -19 -16.5 -35.5t-41.5 -27.5z" />
    <glyph glyph-name="scircumflex" unicode="&#x15d;" horiz-adv-x="545" 
d="M282 -22q-53 0 -80.5 13.5t-42 26.5t-27.5 13q-12 0 -16.5 -8.5t-4.5 -22.5h-57v297h68q4 -61 15.5 -108t30.5 -78.5t46.5 -48t63.5 -16.5q37 0 59.5 20t32.5 51t10 63q0 51 -15.5 97.5t-48 95t-84.5 103.5q-69 75 -119.5 154.5t-50.5 195.5q0 78 29.5 129t76 76.5
t98.5 25.5q41 0 65.5 -10t38.5 -20t24 -10q9 0 13 7t4 23h59v-288h-67q-4 57 -13.5 100t-26 71.5t-40 43.5t-54.5 15q-48 0 -73.5 -36t-25.5 -92q0 -66 36 -122t105 -129q56 -61 96.5 -119t62.5 -120t22 -134q0 -80 -25 -138t-72.5 -89.5t-112.5 -31.5zM97 1122l148 206h70
l146 -206h-74l-108 137l-107 -137h-75z" />
    <glyph glyph-name="Scedilla" unicode="&#x15e;" horiz-adv-x="617" 
d="M327 -27q-46 0 -75 12.5t-48 29t-32 29t-25 12.5q-23 0 -23 -56h-59v305h67q2 -29 11 -64t25 -69.5t39.5 -63.5t54 -46.5t67.5 -17.5q49 0 75 24.5t35.5 69.5t9.5 104q0 69 -26.5 137.5t-70.5 137.5t-98 139q-75 101 -115.5 182t-55.5 151t-15 134q0 95 31 161.5
t83.5 102t115.5 35.5q54 0 81.5 -18t42.5 -36t29 -18q12 0 18 11t6 39h60v-302h-67q-2 38 -13 82.5t-31.5 83.5t-51 64t-71.5 25q-57 0 -89 -43t-32 -121q0 -55 15.5 -110.5t54.5 -121.5t104 -154q62 -78 109.5 -158t75 -165t27.5 -175q0 -87 -17.5 -149.5t-49 -102.5
t-75 -60t-97.5 -20zM338 -301q-52 0 -91.5 10t-54.5 18l25 59q10 -7 42.5 -16.5t75.5 -9.5q32 0 56.5 15t24.5 43q0 31 -16 40.5t-39 9.5q-16 0 -34.5 -7t-31.5 -21l-63 4l61 156h68l-46 -104q5 6 28.5 15.5t53.5 9.5q38 0 71 -23t33 -81q0 -42 -24 -68.5t-61.5 -38
t-77.5 -11.5z" />
    <glyph glyph-name="scedilla" unicode="&#x15f;" horiz-adv-x="545" 
d="M282 -22q-53 0 -80.5 13.5t-42 26.5t-27.5 13q-12 0 -16.5 -8.5t-4.5 -22.5h-57v297h64q5 -61 16 -108t29.5 -78.5t47 -48t67.5 -16.5q37 0 59.5 20t32.5 51t10 63q0 51 -15.5 97.5t-48 95t-84.5 103.5q-69 75 -119.5 154.5t-50.5 195.5q0 72 29.5 124t76 79.5t98.5 27.5
q41 0 65.5 -10t38.5 -20t24 -10q9 0 13 7t4 23h59v-288h-63q-4 57 -13 100t-26 71.5t-41 43.5t-58 15q-48 0 -73.5 -36t-25.5 -92q0 -66 36 -122t105 -129q56 -61 96.5 -119t62.5 -120t22 -134q0 -112 -56 -185.5t-154 -73.5zM291 -301q-53 0 -92.5 10t-54.5 18l25 59
q11 -7 43 -16.5t76 -9.5q31 0 56 15t25 43q0 31 -16.5 40.5t-39.5 9.5q-16 0 -34.5 -7t-30.5 -21l-64 4l62 156h67l-45 -104q4 6 27.5 15.5t54.5 9.5q38 0 71 -23t33 -81q0 -42 -24.5 -68.5t-62 -38t-76.5 -11.5z" />
    <glyph glyph-name="Scaron" unicode="&#x160;" horiz-adv-x="617" 
d="M327 -27q-46 0 -75 12.5t-48 29t-32 29t-25 12.5q-23 0 -23 -56h-59v305h67q2 -29 11 -64t25 -69.5t39.5 -63.5t54 -46.5t67.5 -17.5q49 0 75 24.5t35.5 69.5t9.5 104q0 69 -26.5 137.5t-70.5 137.5t-98 139q-75 101 -115.5 182t-55.5 151t-15 134q0 95 31 161.5
t83.5 102t115.5 35.5q54 0 81.5 -18t42.5 -36t29 -18q12 0 18 11t6 39h60v-302h-67q-2 38 -13 82.5t-31.5 83.5t-51 64t-71.5 25q-57 0 -89 -43t-32 -121q0 -55 15.5 -110.5t54.5 -121.5t104 -154q62 -78 109.5 -158t75 -165t27.5 -175q0 -87 -17.5 -149.5t-49 -102.5
t-75 -60t-97.5 -20zM281 1468l-158 216h78l115 -147l114 147h79l-157 -216h-71z" />
    <glyph glyph-name="scaron" unicode="&#x161;" horiz-adv-x="545" 
d="M282 -22q-53 0 -80.5 13.5t-42 26.5t-27.5 13q-12 0 -16.5 -8.5t-4.5 -22.5h-57v297h68q4 -61 15.5 -108t30.5 -78.5t46.5 -48t63.5 -16.5q37 0 59.5 20t32.5 51t10 63q0 51 -15.5 97.5t-48 95t-84.5 103.5q-69 75 -119.5 154.5t-50.5 195.5q0 78 29.5 129t76 76.5
t98.5 25.5q41 0 65.5 -10t38.5 -20t24 -10q9 0 13 7t4 23h59v-288h-67q-4 57 -13.5 100t-26 71.5t-40 43.5t-54.5 15q-48 0 -73.5 -36t-25.5 -92q0 -66 36 -122t105 -129q56 -61 96.5 -119t62.5 -120t22 -134q0 -80 -25 -138t-72.5 -89.5t-112.5 -31.5zM245 1105l-158 216
h78l115 -147l114 147h79l-157 -216h-71z" />
    <glyph glyph-name="uni0162" unicode="&#x162;" horiz-adv-x="730" 
d="M177 0v68h114v1265h-73q-51 0 -75 -19.5t-30.5 -67.5t-6.5 -135h-68v289h654v-289h-67q0 87 -7 135t-30.5 67.5t-75.5 19.5h-72v-1265h118v-68h-381zM376 -301q-53 0 -92 10t-54 18l24 59q11 -7 43 -16.5t76 -9.5q32 0 56.5 15t24.5 43q0 31 -16.5 40.5t-39.5 9.5
q-16 0 -34 -7t-31 -21l-64 4l62 156h67l-45 -104q4 6 27.5 15.5t54.5 9.5q38 0 71 -23t33 -81q0 -42 -24 -68.5t-62 -38t-77 -11.5z" />
    <glyph glyph-name="uni0163" unicode="&#x163;" horiz-adv-x="460" 
d="M302 -18q-42 0 -82 15t-65 55.5t-25 118.5v809h-127v67h127q22 25 39 72t27.5 103.5t14.5 110.5h69v-286h149v-67h-149v-858q0 -42 17.5 -56t34.5 -14q20 0 34 8.5t22 17.5l39 -53q-20 -18 -51.5 -30.5t-73.5 -12.5zM305 -291q-52 0 -91.5 10t-54.5 18l25 59
q10 -7 42.5 -16.5t76.5 -9.5q31 0 56 15t25 43q0 31 -16.5 40.5t-39.5 9.5q-16 0 -34.5 -7t-30.5 -21l-64 4l61 156h68l-46 -104q5 6 28.5 15.5t54.5 9.5q38 0 71 -23t33 -81q0 -42 -24.5 -68.5t-62 -38t-77.5 -11.5z" />
    <glyph glyph-name="Tcaron" unicode="&#x164;" horiz-adv-x="730" 
d="M177 0v68h114v1265h-73q-51 0 -75 -19.5t-30.5 -67.5t-6.5 -135h-68v289h654v-289h-67q0 87 -7 135t-30.5 67.5t-75.5 19.5h-72v-1265h118v-68h-381zM334 1481l-158 216h78l115 -147l114 147h79l-157 -216h-71z" />
    <glyph glyph-name="tcaron" unicode="&#x165;" horiz-adv-x="505" 
d="M380 1189q11 46 16.5 101t5.5 106q0 46 16 65.5t39 19.5q24 0 38.5 -17.5t14.5 -56.5q0 -57 -21 -122.5t-52 -118.5zM302 -18q-42 0 -82 15t-65 55.5t-25 118.5v809h-127v67h127q22 25 39 72t27.5 103.5t14.5 110.5h69v-286h149v-67h-149v-858q0 -42 17.5 -56t34.5 -14
q20 0 34 8.5t22 17.5l39 -53q-20 -18 -51.5 -30.5t-73.5 -12.5z" />
    <glyph glyph-name="Tbar" unicode="&#x166;" horiz-adv-x="730" 
d="M126 667v67h479v-67h-479zM177 0v68h114v1265h-73q-51 0 -75 -19.5t-30.5 -67.5t-6.5 -135h-68v289h654v-289h-67q0 87 -7 135t-30.5 67.5t-75.5 19.5h-72v-1265h118v-68h-381z" />
    <glyph glyph-name="tbar" unicode="&#x167;" horiz-adv-x="460" 
d="M22 617v60h391v-60h-391zM302 -18q-42 0 -82 15t-65 55.5t-25 118.5v809h-127v67h127q22 25 39 72t27.5 103.5t14.5 110.5h69v-286h149v-67h-149v-858q0 -42 17.5 -56t34.5 -14q20 0 34 8.5t22 17.5l39 -53q-20 -18 -51.5 -30.5t-73.5 -12.5z" />
    <glyph glyph-name="Utilde" unicode="&#x168;" horiz-adv-x="754" 
d="M390 -24q-45 0 -90.5 15t-83 51.5t-60 101.5t-22.5 165v1024h-97v67h349v-67h-100v-1020q0 -145 36.5 -202.5t97.5 -57.5q28 0 52.5 11.5t43 39t29 75.5t10.5 120v1034h-85v67h248v-67h-95v-1045q0 -119 -30.5 -187t-83 -96.5t-119.5 -28.5zM469 1479q-39 0 -65 16.5
t-47.5 32.5t-45.5 16q-32 0 -48 -18.5t-21 -30.5l-66 32q6 19 22 42t42 41t60 18q41 0 67.5 -16t48.5 -32.5t50 -16.5t41.5 15.5t19.5 27.5l64 -36q-4 -15 -20 -36.5t-41.5 -38t-60.5 -16.5z" />
    <glyph glyph-name="utilde" unicode="&#x169;" horiz-adv-x="747" 
d="M324 -22q-53 0 -99.5 23t-75 87t-28.5 186v706h-103v66h253v-756q0 -91 12 -139t33 -65t48 -17q38 0 65 38.5t41.5 102t14.5 139.5v631h-98v66h248v-978h91v-68h-223l-8 119q-4 -28 -25 -60.5t-57.5 -56.5t-88.5 -24zM466 1130q-39 0 -65 16.5t-47.5 32.5t-45.5 16
q-32 0 -48 -18.5t-21 -30.5l-66 32q6 19 22 42t42 41t60 18q41 0 67.5 -16t48.5 -32.5t50 -16.5t41.5 15.5t19.5 27.5l64 -36q-4 -15 -20 -36.5t-41.5 -38t-60.5 -16.5z" />
    <glyph glyph-name="Umacron" unicode="&#x16a;" horiz-adv-x="754" 
d="M390 -24q-45 0 -90.5 15t-83 51.5t-60 101.5t-22.5 165v1024h-97v67h349v-67h-100v-1020q0 -145 36.5 -202.5t97.5 -57.5q28 0 52.5 11.5t43 39t29 75.5t10.5 120v1034h-85v67h248v-67h-95v-1045q0 -119 -30.5 -187t-83 -96.5t-119.5 -28.5zM82 1537v67h603v-67h-603z
" />
    <glyph glyph-name="umacron" unicode="&#x16b;" horiz-adv-x="747" 
d="M324 -22q-53 0 -99.5 23t-75 87t-28.5 186v706h-103v66h253v-756q0 -91 12 -139t33 -65t48 -17q38 0 65 38.5t41.5 102t14.5 139.5v631h-98v66h248v-978h91v-68h-223l-8 119q-4 -28 -25 -60.5t-57.5 -56.5t-88.5 -24zM172 1134v67h417v-67h-417z" />
    <glyph glyph-name="ubreve" unicode="&#x16d;" horiz-adv-x="747" 
d="M324 -22q-53 0 -99.5 23t-75 87t-28.5 186v706h-103v66h253v-756q0 -91 12 -139t33 -65t48 -17q38 0 65 38.5t41.5 102t14.5 139.5v631h-98v66h248v-978h91v-68h-223l-8 119q-4 -28 -25 -60.5t-57.5 -56.5t-88.5 -24zM378 1102q-59 0 -96 26.5t-54 69.5t-17 93h65
q4 -61 30.5 -91t71.5 -30q47 0 73.5 30t30.5 91h66q0 -50 -17 -93t-54.5 -69.5t-98.5 -26.5z" />
    <glyph glyph-name="Uring" unicode="&#x16e;" horiz-adv-x="754" 
d="M390 -24q-45 0 -90.5 15t-83 51.5t-60 101.5t-22.5 165v1024h-97v67h349v-67h-100v-1020q0 -145 36.5 -202.5t97.5 -57.5q28 0 52.5 11.5t43 39t29 75.5t10.5 120v1034h-85v67h248v-67h-95v-1045q0 -119 -30.5 -187t-83 -96.5t-119.5 -28.5zM384 1463q-45 0 -76 32.5
t-31 85.5q0 55 31 86.5t76 31.5q44 0 75 -31.5t31 -86.5q0 -53 -31 -85.5t-75 -32.5zM384 1514q26 0 38 20.5t12 48.5q0 25 -12 45.5t-38 20.5t-38 -20.5t-12 -45.5q0 -28 12 -48.5t38 -20.5z" />
    <glyph glyph-name="uring" unicode="&#x16f;" horiz-adv-x="747" 
d="M324 -22q-53 0 -99.5 23t-75 87t-28.5 186v706h-103v66h253v-756q0 -91 12 -139t33 -65t48 -17q38 0 65 38.5t41.5 102t14.5 139.5v631h-98v66h248v-978h91v-68h-223l-8 119q-4 -28 -25 -60.5t-57.5 -56.5t-88.5 -24zM381 1094q-45 0 -76 32.5t-31 85.5q0 55 31 86.5
t76 31.5q44 0 75 -31.5t31 -86.5q0 -53 -31 -85.5t-75 -32.5zM381 1145q26 0 38 20.5t12 48.5q0 25 -12 45.5t-38 20.5t-38 -20.5t-12 -45.5q0 -28 12 -48.5t38 -20.5z" />
    <glyph glyph-name="Uhungarumlaut" unicode="&#x170;" horiz-adv-x="754" 
d="M390 -24q-45 0 -90.5 15t-83 51.5t-60 101.5t-22.5 165v1024h-97v67h349v-67h-100v-1020q0 -145 36.5 -202.5t97.5 -57.5q28 0 52.5 11.5t43 39t29 75.5t10.5 120v1034h-85v67h248v-67h-95v-1045q0 -119 -30.5 -187t-83 -96.5t-119.5 -28.5zM384 1491l-39 40l113 137
q14 16 26 24.5t24 8.5q16 0 27.5 -11.5t11.5 -28.5q0 -25 -30 -47zM338 1491l-38 40l112 137q14 17 26 25t24 8q16 0 27.5 -11.5t11.5 -28.5q0 -26 -29 -47z" />
    <glyph glyph-name="uhungarumlaut" unicode="&#x171;" horiz-adv-x="747" 
d="M324 -22q-53 0 -99.5 23t-75 87t-28.5 186v706h-103v66h253v-756q0 -91 12 -139t33 -65t48 -17q38 0 65 38.5t41.5 102t14.5 139.5v631h-98v66h248v-978h91v-68h-223l-8 119q-4 -28 -25 -60.5t-57.5 -56.5t-88.5 -24zM337 1127l-39 40l113 137q14 16 26 24.5t24 8.5
q16 0 27.5 -11.5t11.5 -28.5q0 -25 -30 -47zM291 1127l-38 40l112 137q14 17 26 25t24 8q16 0 27.5 -11.5t11.5 -28.5q0 -26 -29 -47z" />
    <glyph glyph-name="Uogonek" unicode="&#x172;" horiz-adv-x="754" 
d="M390 -24q-45 0 -90.5 15t-83 51.5t-60 101.5t-22.5 165v1024h-97v67h349v-67h-100v-1020q0 -145 36.5 -202.5t97.5 -57.5q28 0 52.5 11.5t43 39t29 75.5t10.5 120v1034h-85v67h248v-67h-95v-1045q0 -119 -30.5 -187t-83 -96.5t-119.5 -28.5zM534 -275q-40 0 -78 13.5
t-62.5 44.5t-24.5 81q0 47 24 82t55.5 59t54.5 36l28 -22q-21 -22 -44.5 -56.5t-23.5 -82.5q0 -49 31.5 -62.5t61.5 -13.5q24 0 53.5 6.5t49.5 18.5l32 -56q-24 -19 -65.5 -33.5t-91.5 -14.5z" />
    <glyph glyph-name="uogonek" unicode="&#x173;" horiz-adv-x="747" 
d="M324 -22q-53 0 -99.5 23t-75 87t-28.5 186v706h-103v66h253v-756q0 -91 12 -139t33 -65t48 -17q38 0 65 38.5t41.5 102t14.5 139.5v631h-98v66h248v-978h91v-68h-223l-8 119q-4 -28 -25 -60.5t-57.5 -56.5t-88.5 -24zM729 -295q-40 0 -78 14t-62.5 44.5t-24.5 81.5
q0 47 24 82t55.5 59t54.5 36l28 -22q-21 -22 -44.5 -56.5t-23.5 -82.5q0 -49 31.5 -62.5t61.5 -13.5q24 0 53.5 6.5t49.5 17.5l32 -55q-24 -19 -65.5 -34t-91.5 -15z" />
    <glyph glyph-name="Wcircumflex" unicode="&#x174;" horiz-adv-x="1078" 
d="M302 -2l-180 1335h-104v67h358v-67h-82l110 -1012l-21 -38l144 1023l20 -149l-33 176h-92v67h347v-67h-91l131 -1003l-15 -38l121 1041h-81v67h241v-67h-85l-179 -1335h-92l-168 1143l30 46l-188 -1189h-91zM377 1461l148 206h70l146 -206h-74l-108 137l-107 -137h-75z
" />
    <glyph glyph-name="wcircumflex" unicode="&#x175;" horiz-adv-x="1006" 
d="M648 -4l-160 984h-85v67h311v-67h-71l97 -713l99 713h-68v67h220v-67h-78l-152 -984h-113zM250 -4l-153 984h-80v67h313v-67h-73l87 -713l105 713h-50v67h208v-67h-85l-159 -984h-113zM323 1122l148 206h70l146 -206h-74l-108 137l-107 -137h-75z" />
    <glyph glyph-name="Ycircumflex" unicode="&#x176;" horiz-adv-x="734" 
d="M197 0v68h101v520l-181 745h-93v67h340v-67h-75l154 -697h-53l169 697h-79v67h244v-67h-93l-183 -725v-540h95v-68h-346zM185 1461l148 206h70l146 -206h-74l-108 137l-107 -137h-75z" />
    <glyph glyph-name="ycircumflex" unicode="&#x177;" horiz-adv-x="649" 
d="M188 -502q-42 0 -69 31t-39.5 84.5t-12.5 120.5q0 48 17 73.5t48 25.5q30 0 46.5 -22.5t16.5 -59.5q0 -29 -9.5 -47.5t-19 -35.5t-9.5 -42q0 -27 8.5 -50t27.5 -23q12 0 19.5 11.5t14 34.5t12.5 56l72 355l-209 970h-82v67h317v-67h-75l122 -618l113 618h-74v67h227v-67
h-77l-197 -987l-74 -355q-9 -46 -23 -77.5t-36 -47t-55 -15.5zM151 1122l148 206h70l146 -206h-74l-108 137l-107 -137h-75z" />
    <glyph glyph-name="Ydieresis" unicode="&#x178;" horiz-adv-x="734" 
d="M197 0v68h101v520l-181 745h-93v67h340v-67h-75l154 -697h-53l169 697h-79v67h244v-67h-93l-183 -725v-540h95v-68h-346zM483 1500q-32 0 -54.5 22.5t-22.5 52.5q0 32 22.5 55.5t54.5 23.5q29 0 52 -23.5t23 -55.5q0 -30 -23 -52.5t-52 -22.5zM252 1500q-29 0 -52 22.5
t-23 52.5q0 32 23 55.5t52 23.5q31 0 54.5 -23.5t23.5 -55.5q0 -30 -23.5 -52.5t-54.5 -22.5z" />
    <glyph glyph-name="Zacute" unicode="&#x179;" horiz-adv-x="649" 
d="M59 0v68l343 1265h-89q-78 0 -114 -21.5t-46.5 -70.5t-10.5 -130h-67v289h493v-66l-348 -1266h124q70 0 108.5 22t54 71.5t15.5 130.5h68v-292h-531zM227 1444l-40 42l177 135q14 11 29.5 19t29.5 8q13 0 24 -7t17 -18q6 -10 6 -22q0 -19 -16.5 -35t-41.5 -27z" />
    <glyph glyph-name="zacute" unicode="&#x17a;" horiz-adv-x="570" 
d="M74 0v68l265 912h-97q-47 0 -67 -16.5t-24.5 -64t-4.5 -140.5h-66v288h412v-67l-264 -912h91q52 0 73.5 17.5t26.5 67t5 144.5h67v-297h-417zM179 1080l-40 42l177 135q15 12 30 19.5t29 7.5q13 0 24 -7t17 -18q6 -10 6 -21q0 -19 -16.5 -35.5t-41.5 -27.5z" />
    <glyph glyph-name="Zdotaccent" unicode="&#x17b;" horiz-adv-x="649" 
d="M59 0v68l343 1265h-89q-78 0 -114 -21.5t-46.5 -70.5t-10.5 -130h-67v289h493v-66l-348 -1266h124q70 0 108.5 22t54 71.5t15.5 130.5h68v-292h-531zM334 1504q-31 0 -54 22.5t-23 52.5q0 31 23 54.5t54 23.5q29 0 52 -23.5t23 -54.5q0 -30 -23 -52.5t-52 -22.5z" />
    <glyph glyph-name="zdotaccent" unicode="&#x17c;" horiz-adv-x="570" 
d="M74 0v68l265 912h-97q-47 0 -67 -16.5t-24.5 -64t-4.5 -140.5h-66v288h412v-67l-264 -912h91q52 0 73.5 17.5t26.5 67t5 144.5h67v-297h-417zM286 1131q-31 0 -54 22.5t-23 52.5q0 31 23 54.5t54 23.5q29 0 52 -23.5t23 -54.5q0 -30 -23 -52.5t-52 -22.5z" />
    <glyph glyph-name="Zcaron" unicode="&#x17d;" horiz-adv-x="649" 
d="M59 0v68l343 1265h-89q-78 0 -114 -21.5t-46.5 -70.5t-10.5 -130h-67v289h493v-66l-348 -1266h124q70 0 108.5 22t54 71.5t15.5 130.5h68v-292h-531zM299 1468l-158 216h78l115 -147l114 147h79l-157 -216h-71z" />
    <glyph glyph-name="zcaron" unicode="&#x17e;" horiz-adv-x="570" 
d="M74 0v68l265 912h-97q-47 0 -67 -16.5t-24.5 -64t-4.5 -140.5h-66v288h412v-67l-264 -912h91q52 0 73.5 17.5t26.5 67t5 144.5h67v-297h-417zM251 1105l-158 216h78l115 -147l114 147h79l-157 -216h-71z" />
    <glyph glyph-name="uni018F" unicode="&#x18f;" horiz-adv-x="738" 
d="M359 -25q-75 0 -130 51.5t-91 142t-53.5 211t-17.5 259.5q0 29 0.5 57t1.5 56h468v-68h-310q0 -196 11.5 -340t40.5 -222.5t80 -78.5q49 0 85 73.5t55.5 213t19.5 338.5q0 148 -6 274t-24 219.5t-52.5 145t-90.5 51.5q-54 0 -93 -28t-63.5 -66.5t-35.5 -69.5l-67 41
q20 49 59.5 93.5t93.5 73t116 28.5q91 0 153 -58.5t99.5 -161t54.5 -236.5t17 -286q0 -177 -25.5 -310.5t-69.5 -223t-102 -134.5t-124 -45zM65 1194v206h67q0 -29 5.5 -59.5t16.5 -30.5v-116h-89z" />
    <glyph glyph-name="florin" unicode="&#x192;" horiz-adv-x="659" 
d="M18 -420q-49 0 -82.5 21.5t-51 62t-17.5 98.5q0 37 14 59t42 22q27 0 40 -16.5t13 -43.5q0 -21 -5 -30.5t-10.5 -18t-5.5 -28.5q0 -21 9 -40.5t31 -19.5q30 0 51 32.5t35 83.5t22.5 108.5t11.5 107.5l79 1002h-105v67h107l4 50q15 166 51 256t88.5 124t116.5 34
q57 0 96.5 -33.5t60.5 -89.5t21 -123q0 -47 -17.5 -74t-49.5 -27q-29 0 -45 25.5t-16 64.5q0 25 8 41.5t16 31t8 34.5q0 42 -21 60.5t-53 18.5q-50 0 -76.5 -47t-38 -126.5t-19.5 -177.5l-4 -42h119v-67h-125l-72 -962q-5 -55 -13 -115.5t-23 -118t-39.5 -103.5t-62.5 -73.5
t-92 -27.5z" />
    <glyph glyph-name="Ohorn" unicode="&#x1a0;" horiz-adv-x="754" 
d="M377 -22q-98 0 -168.5 90.5t-108 252t-37.5 377.5q0 217 37.5 379.5t108 253.5t168.5 91q100 0 171 -91t109.5 -253.5t38.5 -379.5q0 -216 -38.5 -377.5t-109.5 -252t-171 -90.5zM377 46q41 0 70.5 46t49.5 132.5t30 206.5t10 267t-10 267.5t-30 207.5t-49.5 134.5
t-70.5 47.5q-40 0 -69.5 -47.5t-48 -134.5t-28 -207.5t-9.5 -267.5t9.5 -267t28 -206.5t48 -132.5t69.5 -46zM491 1318v68q49 0 88.5 13.5t39.5 62.5q0 19 -4.5 43.5t-4.5 42.5q0 32 16.5 50.5t44.5 18.5t44.5 -18t16.5 -51q0 -93 -39.5 -143t-95.5 -68.5t-106 -18.5z" />
    <glyph glyph-name="ohorn" unicode="&#x1a1;" horiz-adv-x="665" 
d="M329 -22q-55 0 -105 36t-89 106t-61 172t-22 235q0 145 23.5 246t63 163.5t89 91.5t101.5 29t101.5 -29t89.5 -91.5t63.5 -163.5t23.5 -246q0 -133 -22 -235t-61 -172t-89.5 -106t-105.5 -36zM329 50q54 0 89 115.5t35 361.5q0 244 -35 351.5t-89 107.5t-89 -107.5
t-35 -351.5q0 -246 35 -361.5t89 -115.5zM445 949v67q49 0 88.5 13.5t39.5 62.5q0 19 -4.5 43.5t-4.5 43.5q0 31 16.5 49.5t44.5 18.5t44.5 -18t16.5 -50q0 -93 -39.5 -143t-95.5 -68.5t-106 -18.5z" />
    <glyph glyph-name="Uhorn" unicode="&#x1af;" horiz-adv-x="754" 
d="M390 -24q-45 0 -90.5 15t-83 51.5t-60 101.5t-22.5 165v1024h-97v67h349v-67h-100v-1020q0 -145 36.5 -202.5t97.5 -57.5q28 0 52.5 11.5t43 39t29 75.5t10.5 120v1034h-85v67h171v-67h-18v-1045q0 -119 -30.5 -187t-83 -96.5t-119.5 -28.5zM641 1333v67q49 0 89 13.5
t40 62.5q0 19 -5 43.5t-5 43.5q0 31 16.5 49.5t45.5 18.5q28 0 44.5 -18t16.5 -50q0 -93 -40 -143t-96 -68.5t-106 -18.5z" />
    <glyph glyph-name="uhorn" unicode="&#x1b0;" horiz-adv-x="747" 
d="M324 -22q-53 0 -99.5 23t-75 87t-28.5 186v706h-103v66h253v-756q0 -91 12 -139t33 -65t48 -17q38 0 65 38.5t41.5 102t14.5 139.5v631h-98v66h248v-978h91v-68h-223l-8 119q-4 -28 -25 -60.5t-57.5 -56.5t-88.5 -24zM600 979v67q49 0 88.5 13.5t39.5 62.5
q0 19 -4.5 43.5t-4.5 43.5q0 31 16.5 49.5t44.5 18.5t44.5 -18t16.5 -50q0 -93 -39.5 -143t-95.5 -68.5t-106 -18.5z" />
    <glyph glyph-name="uni01C6" unicode="&#x1c6;" horiz-adv-x="1290" 
d="M313 -20q-68 0 -123 52t-87 170t-32 316q0 193 31.5 311.5t84.5 172.5t116 54q50 0 79.5 -19.5t44 -45.5t18.5 -46v487h-115v68h267v-1432h112v-68h-243l-12 125q-2 -26 -19 -60.5t-47 -59.5t-75 -25zM340 79q30 0 52.5 39t36 98.5t16.5 118.5v417q-4 51 -19 96t-38.5 73
t-51.5 28q-31 0 -52.5 -32.5t-35 -91t-19.5 -138t-6 -173.5q0 -107 7 -188.5t21 -136.5t36 -82.5t53 -27.5zM794 0v68l265 912h-97q-47 0 -67 -16.5t-24.5 -64t-4.5 -140.5h-66v288h412v-67l-264 -912h91q52 0 73.5 17.5t26.5 67t5 144.5h67v-297h-417zM971 1105l-158 216
h78l115 -147l114 147h79l-157 -216h-71z" />
    <glyph glyph-name="uni01C7" unicode="&#x1c7;" horiz-adv-x="1251" 
d="M62 0v68h90v1265h-90v67h331v-67h-92v-1265h103q31 0 51.5 22.5t31 72t10.5 129.5h68v-292h-503zM865 -25q-69 0 -111 31.5t-61.5 90t-19.5 138.5q0 57 20.5 80.5t52.5 23.5q30 0 49 -21t19 -68q0 -30 -8.5 -49t-18 -37t-9.5 -47q0 -32 21 -51.5t50 -19.5q49 0 79 40.5
t30 151.5v1095h-100v67h347v-67h-97v-948q0 -116 -16.5 -194.5t-48 -126t-76.5 -68.5t-102 -21z" />
    <glyph glyph-name="uni01C8" unicode="&#x1c8;" horiz-adv-x="975" 
d="M62 0v68h90v1265h-90v67h331v-67h-92v-1265h103q31 0 51.5 22.5t31 72t10.5 129.5h68v-292h-503zM628 -498q-53 0 -91 31t-58.5 84t-20.5 120q0 48 20.5 73.5t51.5 25.5q30 0 46 -22.5t16 -59.5q0 -25 -5.5 -44t-11.5 -37t-6 -41q0 -22 7.5 -35.5t19.5 -19t26 -5.5
q53 0 77 61.5t24 179.5v1167h-112v67h262v-1128q0 -117 -20.5 -197t-55.5 -128.5t-78.5 -70t-90.5 -21.5zM794 1235q-47 0 -80 32.5t-33 78.5q0 47 33 79.5t80 32.5q45 0 77 -32.5t32 -79.5q0 -46 -32 -78.5t-77 -32.5z" />
    <glyph glyph-name="uni01C9" unicode="&#x1c9;" horiz-adv-x="791" 
d="M41 0v68h97v1365h-97v67h246v-1432h98v-68h-344zM444 -498q-53 0 -91 31t-58.5 84t-20.5 120q0 48 20.5 73.5t51.5 25.5q30 0 46 -22.5t16 -59.5q0 -25 -5.5 -44t-11.5 -37t-6 -41q0 -22 7.5 -35.5t19.5 -19t26 -5.5q53 0 77 61.5t24 179.5v1167h-112v67h262v-1128
q0 -117 -20.5 -197t-55.5 -128.5t-78.5 -70t-90.5 -21.5zM610 1235q-47 0 -80 32.5t-33 78.5q0 47 33 79.5t80 32.5q45 0 77 -32.5t32 -79.5q0 -46 -32 -78.5t-77 -32.5z" />
    <glyph glyph-name="uni01CA" unicode="&#x1ca;" horiz-adv-x="1377" 
d="M32 0v68h92v1265h-92v67h280l306 -1071h-7v1004h-91v67h249v-67h-89v-1333h-125l-370 1292h9v-1224h99v-68h-261zM991 -25q-69 0 -111 31.5t-61.5 90t-19.5 138.5q0 57 20.5 80.5t52.5 23.5q30 0 49 -21t19 -68q0 -30 -8.5 -49t-18 -37t-9.5 -47q0 -32 21 -51.5t50 -19.5
q49 0 79 40.5t30 151.5v1095h-100v67h347v-67h-97v-948q0 -116 -16.5 -194.5t-48 -126t-76.5 -68.5t-102 -21z" />
    <glyph glyph-name="uni01CB" unicode="&#x1cb;" horiz-adv-x="1187" 
d="M32 0v68h92v1265h-92v67h280l306 -1071h-7v1004h-91v67h249v-67h-89v-1333h-125l-370 1292h9v-1224h99v-68h-261zM839 -498q-53 0 -91 31t-58.5 84t-20.5 120q0 48 20.5 73.5t51.5 25.5q30 0 46 -22.5t16 -59.5q0 -25 -5.5 -44t-11.5 -37t-6 -41q0 -22 7.5 -35.5
t19.5 -19t26 -5.5q53 0 77 61.5t24 179.5v1167h-112v67h262v-1128q0 -117 -20.5 -197t-55.5 -128.5t-78.5 -70t-90.5 -21.5zM1005 1235q-47 0 -80 32.5t-33 78.5q0 47 33 79.5t80 32.5q45 0 77 -32.5t32 -79.5q0 -46 -32 -78.5t-77 -32.5z" />
    <glyph glyph-name="uni01CC" unicode="&#x1cc;" horiz-adv-x="1134" 
d="M34 0v68h103v912h-103v67h250v-107q5 22 27 49.5t59 47.5t86 20q47 0 90.5 -23.5t72 -89.5t28.5 -195v-681h102v-68h-337v68h85v665q0 121 -22 173.5t-71 52.5q-25 0 -46.5 -18t-37 -48.5t-24 -67.5t-9.5 -75v-682h84v-68h-337zM787 -498q-53 0 -91 31t-58.5 84
t-20.5 120q0 48 20.5 73.5t51.5 25.5q30 0 46 -22.5t16 -59.5q0 -25 -5.5 -44t-11.5 -37t-6 -41q0 -22 7.5 -35.5t19.5 -19t26 -5.5q53 0 77 61.5t24 179.5v1167h-112v67h262v-1128q0 -117 -20.5 -197t-55.5 -128.5t-78.5 -70t-90.5 -21.5zM953 1235q-47 0 -80 32.5
t-33 78.5q0 47 33 79.5t80 32.5q45 0 77 -32.5t32 -79.5q0 -46 -32 -78.5t-77 -32.5z" />
    <glyph glyph-name="uni01CE" unicode="&#x1ce;" horiz-adv-x="684" 
d="M266 -21q-61 0 -108.5 30t-75.5 88.5t-28 143.5q0 93 36.5 154.5t90 104t107.5 77t90 72t36 90.5q0 75 -11.5 129.5t-37.5 84t-70 29.5q-50 0 -82 -32t-32 -74q0 -22 7 -36t13.5 -28.5t6.5 -39.5q0 -35 -17.5 -57t-49.5 -22q-31 0 -48.5 27t-17.5 75q0 74 30.5 133.5
t86 94t127.5 34.5q74 0 129 -33.5t85.5 -106t30.5 -191.5v-588q0 -43 9 -58t27 -15q17 0 27.5 7.5t15.5 13.5l36 -57q-13 -15 -46.5 -28.5t-76.5 -13.5q-42 0 -69.5 13.5t-41 35.5t-16.5 48q-5 -17 -23 -42t-51.5 -44t-88.5 -19zM305 67q36 0 60.5 28.5t36.5 67.5t12 71v371
q-2 -28 -33.5 -55t-70.5 -63t-69 -91t-30 -141q0 -92 24.5 -140t69.5 -48zM293 1105l-158 216h78l115 -147l114 147h79l-157 -216h-71z" />
    <glyph glyph-name="uni01D0" unicode="&#x1d0;" horiz-adv-x="424" 
d="M34 0v68h106v912h-106v67h256v-979h107v-68h-363zM180 1105l-158 216h78l115 -147l114 147h79l-157 -216h-71z" />
    <glyph glyph-name="uni01D2" unicode="&#x1d2;" horiz-adv-x="665" 
d="M329 -22q-55 0 -105 36t-89 106t-61 172t-22 235q0 145 23.5 246t63 163.5t89 91.5t101.5 29t101.5 -29t89.5 -91.5t63.5 -163.5t23.5 -246q0 -133 -22 -235t-61 -172t-89.5 -106t-105.5 -36zM329 50q54 0 89 115.5t35 361.5q0 244 -35 351.5t-89 107.5t-89 -107.5
t-35 -351.5q0 -246 35 -361.5t89 -115.5zM296 1105l-158 216h78l115 -147l114 147h79l-157 -216h-71z" />
    <glyph glyph-name="uni01D4" unicode="&#x1d4;" horiz-adv-x="747" 
d="M324 -22q-53 0 -99.5 23t-75 87t-28.5 186v706h-103v66h253v-756q0 -91 12 -139t33 -65t48 -17q38 0 65 38.5t41.5 102t14.5 139.5v631h-98v66h248v-978h91v-68h-223l-8 119q-4 -28 -25 -60.5t-57.5 -56.5t-88.5 -24zM345 1105l-158 216h78l115 -147l114 147h79
l-157 -216h-71z" />
    <glyph glyph-name="uni01D6" unicode="&#x1d6;" horiz-adv-x="747" 
d="M324 -22q-53 0 -99.5 23t-75 87t-28.5 186v706h-103v66h253v-756q0 -91 12 -139t33 -65t48 -17q38 0 65 38.5t41.5 102t14.5 139.5v631h-98v66h248v-978h91v-68h-223l-8 119q-4 -28 -25 -60.5t-57.5 -56.5t-88.5 -24zM495 1127q-32 0 -54.5 22.5t-22.5 51.5
q0 33 22.5 56.5t54.5 23.5q29 0 52 -23.5t23 -56.5q0 -29 -23 -51.5t-52 -22.5zM264 1127q-29 0 -52 22.5t-23 51.5q0 33 23 56.5t52 23.5q31 0 54.5 -23.5t23.5 -56.5q0 -29 -23.5 -51.5t-54.5 -22.5zM172 1369v67h417v-67h-417z" />
    <glyph glyph-name="uni01D8" unicode="&#x1d8;" horiz-adv-x="747" 
d="M324 -22q-53 0 -99.5 23t-75 87t-28.5 186v706h-103v66h253v-756q0 -91 12 -139t33 -65t48 -17q38 0 65 38.5t41.5 102t14.5 139.5v631h-98v66h248v-978h91v-68h-223l-8 119q-4 -28 -25 -60.5t-57.5 -56.5t-88.5 -24zM495 1127q-32 0 -54.5 22.5t-22.5 51.5
q0 33 22.5 56.5t54.5 23.5q29 0 52 -23.5t23 -56.5q0 -29 -23 -51.5t-52 -22.5zM264 1127q-29 0 -52 22.5t-23 51.5q0 33 23 56.5t52 23.5q31 0 54.5 -23.5t23.5 -56.5q0 -29 -23.5 -51.5t-54.5 -22.5zM273 1315l-40 42l177 135q15 12 30 19.5t29 7.5q13 0 24 -7t17 -18
q6 -10 6 -21q0 -19 -16.5 -35.5t-41.5 -27.5z" />
    <glyph glyph-name="uni01DA" unicode="&#x1da;" horiz-adv-x="747" 
d="M324 -22q-53 0 -99.5 23t-75 87t-28.5 186v706h-103v66h253v-756q0 -91 12 -139t33 -65t48 -17q38 0 65 38.5t41.5 102t14.5 139.5v631h-98v66h248v-978h91v-68h-223l-8 119q-4 -28 -25 -60.5t-57.5 -56.5t-88.5 -24zM495 1127q-32 0 -54.5 22.5t-22.5 51.5
q0 33 22.5 56.5t54.5 23.5q29 0 52 -23.5t23 -56.5q0 -29 -23 -51.5t-52 -22.5zM264 1127q-29 0 -52 22.5t-23 51.5q0 33 23 56.5t52 23.5q31 0 54.5 -23.5t23.5 -56.5q0 -29 -23.5 -51.5t-54.5 -22.5zM345 1340l-158 216h78l115 -147l114 147h79l-157 -216h-71z" />
    <glyph glyph-name="uni01DC" unicode="&#x1dc;" horiz-adv-x="747" 
d="M324 -22q-53 0 -99.5 23t-75 87t-28.5 186v706h-103v66h253v-756q0 -91 12 -139t33 -65t48 -17q38 0 65 38.5t41.5 102t14.5 139.5v631h-98v66h248v-978h91v-68h-223l-8 119q-4 -28 -25 -60.5t-57.5 -56.5t-88.5 -24zM495 1127q-32 0 -54.5 22.5t-22.5 51.5
q0 33 22.5 56.5t54.5 23.5q29 0 52 -23.5t23 -56.5q0 -29 -23 -51.5t-52 -22.5zM264 1127q-29 0 -52 22.5t-23 51.5q0 33 23 56.5t52 23.5q31 0 54.5 -23.5t23.5 -56.5q0 -29 -23.5 -51.5t-54.5 -22.5zM490 1338l-200 94q-26 13 -39.5 25t-13.5 37q0 22 15 34t37 12
q19 0 33 -7.5t27 -18.5l171 -140z" />
    <glyph glyph-name="uni01DF" unicode="&#x1df;" horiz-adv-x="684" 
d="M266 -21q-61 0 -108.5 30t-75.5 88.5t-28 143.5q0 93 36.5 154.5t90 104t107.5 77t90 72t36 90.5q0 75 -11.5 129.5t-37.5 84t-70 29.5q-50 0 -82 -32t-32 -74q0 -22 7 -36t13.5 -28.5t6.5 -39.5q0 -35 -17.5 -57t-49.5 -22q-31 0 -48.5 27t-17.5 75q0 74 30.5 133.5
t86 94t127.5 34.5q74 0 129 -33.5t85.5 -106t30.5 -191.5v-588q0 -43 9 -58t27 -15q17 0 27.5 7.5t15.5 13.5l36 -57q-13 -15 -46.5 -28.5t-76.5 -13.5q-42 0 -69.5 13.5t-41 35.5t-16.5 48q-5 -17 -23 -42t-51.5 -44t-88.5 -19zM305 67q36 0 60.5 28.5t36.5 67.5t12 71v371
q-2 -28 -33.5 -55t-70.5 -63t-69 -91t-30 -141q0 -92 24.5 -140t69.5 -48zM443 1127q-32 0 -54.5 22.5t-22.5 51.5q0 33 22.5 56.5t54.5 23.5q29 0 52 -23.5t23 -56.5q0 -29 -23 -51.5t-52 -22.5zM212 1127q-29 0 -52 22.5t-23 51.5q0 33 23 56.5t52 23.5q31 0 54.5 -23.5
t23.5 -56.5q0 -29 -23.5 -51.5t-54.5 -22.5zM119 1369v67h417v-67h-417z" />
    <glyph glyph-name="gcaron" unicode="&#x1e7;" horiz-adv-x="704" 
d="M350 -498q-88 0 -155.5 35t-105.5 95t-38 136q0 64 18.5 107.5t45 71t51 42t37.5 19.5q-9 2 -28.5 11t-41 27t-37.5 48t-16 74q0 39 15 67t36 43.5t40 18.5q4 1 10 2t7 0q-10 9 -26.5 33t-33 65t-28 100t-11.5 137q0 119 23 200t61.5 130t85 71t93.5 22q84 0 140.5 -50.5
t85 -142t28.5 -213.5q0 -117 -22 -198t-59.5 -130t-83.5 -70.5t-93 -21.5q-48 0 -75 11.5t-32 13.5q-1 0 -2 0.5t-4 0.5q-18 0 -37.5 -20t-19.5 -52q0 -45 41.5 -71.5t154.5 -44.5q140 -20 210 -87t70 -195q0 -76 -27 -130.5t-72 -88.5t-98.5 -50t-106.5 -16zM350 -434
q74 0 119 54t45 133q0 92 -26.5 134.5t-95.5 63.5q-20 7 -41 14t-38.5 12.5t-27.5 8.5q-31 -17 -54 -48t-35.5 -72t-12.5 -91q0 -55 18.5 -102.5t55.5 -77t93 -29.5zM348 300q29 0 53 26t38 101t14 220q0 141 -14 214t-37.5 99.5t-51.5 26.5t-52.5 -26.5t-40 -101
t-15.5 -217.5q0 -144 15.5 -217t39.5 -99t51 -26zM442 989q9 60 55 95.5t97 35.5q43 0 60.5 -19.5t17.5 -52.5q0 -28 -16 -45t-42 -17q-23 0 -33.5 10.5t-18 21t-25.5 10.5q-13 0 -23 -10.5t-10 -31.5zM313 1105l-158 216h78l115 -147l114 147h79l-157 -216h-71z" />
    <glyph glyph-name="uni01EA" unicode="&#x1ea;" horiz-adv-x="754" 
d="M377 -22q-98 0 -168.5 90.5t-108 252t-37.5 377.5q0 217 37.5 379.5t108 253.5t168.5 91q100 0 171 -91t109.5 -253.5t38.5 -379.5q0 -216 -38.5 -377.5t-109.5 -252t-171 -90.5zM377 46q41 0 70.5 46t49.5 132.5t30 206.5t10 267t-10 267.5t-30 207.5t-49.5 134.5
t-70.5 47.5q-40 0 -69.5 -47.5t-48 -134.5t-28 -207.5t-9.5 -267.5t9.5 -267t28 -206.5t48 -132.5t69.5 -46zM480 -289q-40 0 -78 14t-62 44.5t-24 81.5q0 47 24 82t55.5 59t54.5 36l28 -22q-22 -22 -45 -56.5t-23 -82.5q0 -49 31.5 -62.5t61.5 -13.5q24 0 53.5 6.5
t49.5 17.5l31 -55q-23 -19 -64.5 -34t-92.5 -15z" />
    <glyph glyph-name="uni01EB" unicode="&#x1eb;" horiz-adv-x="665" 
d="M329 -22q-55 0 -105 36t-89 106t-61 172t-22 235q0 145 23.5 246t63 163.5t89 91.5t101.5 29t101.5 -29t89.5 -91.5t63.5 -163.5t23.5 -246q0 -133 -22 -235t-61 -172t-89.5 -106t-105.5 -36zM329 50q54 0 89 115.5t35 361.5q0 244 -35 351.5t-89 107.5t-89 -107.5
t-35 -351.5q0 -246 35 -361.5t89 -115.5zM441 -275q-40 0 -78 14t-62 44.5t-24 81.5q0 47 24 82t55.5 59t54.5 36l27 -22q-21 -22 -44 -56.5t-23 -82.5q0 -49 31.5 -62.5t61.5 -13.5q24 0 53.5 6.5t49.5 17.5l31 -55q-23 -19 -64.5 -34t-92.5 -15z" />
    <glyph glyph-name="aringacute" unicode="&#x1fb;" horiz-adv-x="684" 
d="M266 -21q-61 0 -108.5 30t-75.5 88.5t-28 143.5q0 93 36.5 154.5t90 104t107.5 77t90 72t36 90.5q0 75 -11.5 129.5t-37.5 84t-70 29.5q-50 0 -82 -32t-32 -74q0 -22 7 -36t13.5 -28.5t6.5 -39.5q0 -35 -17.5 -57t-49.5 -22q-31 0 -48.5 27t-17.5 75q0 74 30.5 133.5
t86 94t127.5 34.5q74 0 129 -33.5t85.5 -106t30.5 -191.5v-588q0 -43 9 -58t27 -15q17 0 27.5 7.5t15.5 13.5l36 -57q-13 -15 -46.5 -28.5t-76.5 -13.5q-42 0 -69.5 13.5t-41 35.5t-16.5 48q-5 -17 -23 -42t-51.5 -44t-88.5 -19zM305 67q36 0 60.5 28.5t36.5 67.5t12 71v371
q-2 -28 -33.5 -55t-70.5 -63t-69 -91t-30 -141q0 -92 24.5 -140t69.5 -48zM328 1094q-45 0 -76 32.5t-31 85.5q0 55 31 86.5t76 31.5q44 0 75 -31.5t31 -86.5q0 -53 -31 -85.5t-75 -32.5zM328 1145q26 0 38 20.5t12 48.5q0 25 -12 45.5t-38 20.5t-38 -20.5t-12 -45.5
q0 -28 12 -48.5t38 -20.5zM221 1364l-40 42l177 135q15 12 30 19.5t29 7.5q13 0 24 -7t17 -18q6 -10 6 -21q0 -19 -16.5 -35.5t-41.5 -27.5z" />
    <glyph glyph-name="aeacute" unicode="&#x1fd;" horiz-adv-x="982" 
d="M269 -18q-109 0 -162 65t-53 169q0 100 35 166t86 110.5t102.5 79t86.5 72t35 89.5q0 65 -10.5 122t-35 92t-67.5 35q-39 0 -69.5 -23t-30.5 -69q0 -23 6 -37.5l12 -29t6 -39.5q0 -35 -17 -56.5t-48 -21.5t-48.5 27t-17.5 74q0 69 28.5 125.5t80.5 90.5t124 34
q73 0 126 -39.5t82 -118.5t29 -198v-333q0 -70 -8.5 -123t-25.5 -93t-42 -75q-28 -35 -80 -65t-124 -30zM295 70q42 0 73 50t31 116v361q-3 -28 -32 -55t-65.5 -63t-64 -93t-27.5 -144q0 -52 8.5 -90.5t27.5 -60t49 -21.5zM679 -21q-72 0 -124.5 43t-85.5 118.5t-49 174.5
t-16 211q0 134 22.5 234t61 166t87.5 98.5t103 32.5q63 0 109.5 -37.5t76.5 -101.5t45 -144.5t15 -166.5q0 -21 -0.5 -41.5t-1.5 -40.5h-379v67h234q0 126 -9 214.5t-30.5 135.5t-59.5 47q-36 0 -63.5 -47t-42.5 -142.5t-15 -243.5q0 -109 6 -201t21 -160t42 -105.5
t68 -37.5q62 0 96.5 36t47.5 70l59 -34q-19 -56 -78.5 -100.5t-139.5 -44.5zM405 1080l-40 42l177 135q15 12 30 19.5t29 7.5q13 0 24 -7t17 -18q6 -10 6 -21q0 -19 -16.5 -35.5t-41.5 -27.5z" />
    <glyph glyph-name="Oslashacute" unicode="&#x1fe;" horiz-adv-x="789" 
d="M125 -104l500 1608h69l-497 -1608h-72zM377 -22q-98 0 -168.5 90.5t-108 252t-37.5 377.5q0 217 37.5 379.5t108 253.5t168.5 91q100 0 171 -91t109.5 -253.5t38.5 -379.5q0 -216 -38.5 -377.5t-109.5 -252t-171 -90.5zM377 46q41 0 70.5 46t49.5 132.5t30 206.5t10 267
t-10 267.5t-30 207.5t-49.5 134.5t-70.5 47.5q-40 0 -69.5 -47.5t-48 -134.5t-28 -207.5t-9.5 -267.5t9.5 -267t28 -206.5t48 -132.5t69.5 -46zM272 1444l-40 42l177 135q14 11 29.5 19t29.5 8q13 0 24 -7t17 -18q6 -10 6 -22q0 -19 -16.5 -35t-41.5 -27z" />
    <glyph glyph-name="oslashacute" unicode="&#x1ff;" horiz-adv-x="684" 
d="M77 -104l459 1224h67l-460 -1224h-66zM329 -22q-55 0 -105 36t-89 106t-61 172t-22 235q0 145 23.5 246t63 163.5t89 91.5t101.5 29t101.5 -29t89.5 -91.5t63.5 -163.5t23.5 -246q0 -133 -22 -235t-61 -172t-89.5 -106t-105.5 -36zM329 50q54 0 89 115.5t35 361.5
q0 244 -35 351.5t-89 107.5t-89 -107.5t-35 -351.5q0 -246 35 -361.5t89 -115.5zM224 1080l-40 42l177 135q15 12 30 19.5t29 7.5q13 0 24 -7t17 -18q6 -10 6 -21q0 -19 -16.5 -35.5t-41.5 -27.5z" />
    <glyph glyph-name="uni0201" unicode="&#x201;" horiz-adv-x="684" 
d="M266 -21q-61 0 -108.5 30t-75.5 88.5t-28 143.5q0 93 36.5 154.5t90 104t107.5 77t90 72t36 90.5q0 75 -11.5 129.5t-37.5 84t-70 29.5q-50 0 -82 -32t-32 -74q0 -22 7 -36t13.5 -28.5t6.5 -39.5q0 -35 -17.5 -57t-49.5 -22q-31 0 -48.5 27t-17.5 75q0 74 30.5 133.5
t86 94t127.5 34.5q74 0 129 -33.5t85.5 -106t30.5 -191.5v-588q0 -43 9 -58t27 -15q17 0 27.5 7.5t15.5 13.5l36 -57q-13 -15 -46.5 -28.5t-76.5 -13.5q-42 0 -69.5 13.5t-41 35.5t-16.5 48q-5 -17 -23 -42t-51.5 -44t-88.5 -19zM305 67q36 0 60.5 28.5t36.5 67.5t12 71v371
q-2 -28 -33.5 -55t-70.5 -63t-69 -91t-30 -141q0 -92 24.5 -140t69.5 -48zM440 1107l-156 157q-16 16 -24.5 29t-8.5 27q0 25 14.5 38t33.5 13q28 0 43.5 -15.5t26.5 -34.5l111 -190zM250 1107l-156 157q-16 16 -24.5 29t-8.5 27q0 25 14.5 38t34.5 13q27 0 42.5 -15.5
t26.5 -34.5l111 -190z" />
    <glyph glyph-name="uni0203" unicode="&#x203;" horiz-adv-x="684" 
d="M266 -21q-61 0 -108.5 30t-75.5 88.5t-28 143.5q0 93 36.5 154.5t90 104t107.5 77t90 72t36 90.5q0 75 -11.5 129.5t-37.5 84t-70 29.5q-50 0 -82 -32t-32 -74q0 -22 7 -36t13.5 -28.5t6.5 -39.5q0 -35 -17.5 -57t-49.5 -22q-31 0 -48.5 27t-17.5 75q0 74 30.5 133.5
t86 94t127.5 34.5q74 0 129 -33.5t85.5 -106t30.5 -191.5v-588q0 -43 9 -58t27 -15q17 0 27.5 7.5t15.5 13.5l36 -57q-13 -15 -46.5 -28.5t-76.5 -13.5q-42 0 -69.5 13.5t-41 35.5t-16.5 48q-5 -17 -23 -42t-51.5 -44t-88.5 -19zM305 67q36 0 60.5 28.5t36.5 67.5t12 71v371
q-2 -28 -33.5 -55t-70.5 -63t-69 -91t-30 -141q0 -92 24.5 -140t69.5 -48zM327 1309q61 0 98.5 -26t54.5 -69t17 -93h-66q-4 61 -30.5 91t-73.5 30q-45 0 -71.5 -30t-30.5 -91h-65q0 50 17 93t54 69t96 26z" />
    <glyph glyph-name="uni0205" unicode="&#x205;" horiz-adv-x="630" 
d="M327 -21q-72 0 -124.5 43t-85.5 118.5t-49 174.5t-16 211q0 134 22.5 234t61 166t87.5 98.5t103 32.5q63 0 109.5 -37.5t76.5 -101.5t45 -144.5t15 -166.5q0 -21 -0.5 -41.5t-1.5 -40.5h-379v67h234q0 126 -9 214.5t-30.5 135.5t-59.5 47q-36 0 -63.5 -47t-42.5 -142.5
t-15 -243.5q0 -109 6 -201t21 -160t42 -105.5t68 -37.5q62 0 96.5 36t47.5 70l59 -34q-19 -56 -78.5 -100.5t-139.5 -44.5zM490 1106l-156 157q-15 16 -24 29t-9 27q0 25 14.5 38t34.5 13q28 0 43 -15.5t26 -34.5l111 -190zM300 1106l-156 157q-15 16 -24 29t-9 27
q0 25 15 38t34 13q28 0 43.5 -15.5t26.5 -34.5l111 -190z" />
    <glyph glyph-name="uni0207" unicode="&#x207;" horiz-adv-x="630" 
d="M327 -21q-72 0 -124.5 43t-85.5 118.5t-49 174.5t-16 211q0 134 22.5 234t61 166t87.5 98.5t103 32.5q63 0 109.5 -37.5t76.5 -101.5t45 -144.5t15 -166.5q0 -21 -0.5 -41.5t-1.5 -40.5h-379v67h234q0 126 -9 214.5t-30.5 135.5t-59.5 47q-36 0 -63.5 -47t-42.5 -142.5
t-15 -243.5q0 -109 6 -201t21 -160t42 -105.5t68 -37.5q62 0 96.5 36t47.5 70l59 -34q-19 -56 -78.5 -100.5t-139.5 -44.5zM322 1308q61 0 98.5 -26t54.5 -69t17 -93h-66q-4 61 -30.5 91t-73.5 30q-45 0 -71.5 -30t-30.5 -91h-65q0 50 17 93t54 69t96 26z" />
    <glyph glyph-name="uni0209" unicode="&#x209;" horiz-adv-x="424" 
d="M34 0v68h106v912h-106v67h256v-979h107v-68h-363zM383 1107l-156 157q-15 16 -24 29t-9 27q0 25 14.5 38t34.5 13q28 0 43 -15.5t26 -34.5l111 -190zM193 1107l-156 157q-15 16 -24 29t-9 27q0 25 15 38t34 13q28 0 43.5 -15.5t26.5 -34.5l111 -190z" />
    <glyph glyph-name="uni020B" unicode="&#x20b;" horiz-adv-x="424" 
d="M34 0v68h106v912h-106v67h256v-979h107v-68h-363zM215 1309q61 0 98.5 -26t54.5 -69t17 -93h-66q-4 61 -30.5 91t-73.5 30q-45 0 -71.5 -30t-30.5 -91h-65q0 50 17 93t54 69t96 26z" />
    <glyph glyph-name="uni020D" unicode="&#x20d;" horiz-adv-x="665" 
d="M329 -22q-55 0 -105 36t-89 106t-61 172t-22 235q0 145 23.5 246t63 163.5t89 91.5t101.5 29t101.5 -29t89.5 -91.5t63.5 -163.5t23.5 -246q0 -133 -22 -235t-61 -172t-89.5 -106t-105.5 -36zM329 50q54 0 89 115.5t35 361.5q0 244 -35 351.5t-89 107.5t-89 -107.5
t-35 -351.5q0 -246 35 -361.5t89 -115.5zM498 1107l-156 157q-15 16 -24 29t-9 27q0 25 14.5 38t34.5 13q28 0 43 -15.5t26 -34.5l111 -190zM308 1107l-156 157q-15 16 -24 29t-9 27q0 25 15 38t34 13q28 0 43.5 -15.5t26.5 -34.5l111 -190z" />
    <glyph glyph-name="uni020F" unicode="&#x20f;" horiz-adv-x="665" 
d="M329 -22q-55 0 -105 36t-89 106t-61 172t-22 235q0 145 23.5 246t63 163.5t89 91.5t101.5 29t101.5 -29t89.5 -91.5t63.5 -163.5t23.5 -246q0 -133 -22 -235t-61 -172t-89.5 -106t-105.5 -36zM329 50q54 0 89 115.5t35 361.5q0 244 -35 351.5t-89 107.5t-89 -107.5
t-35 -351.5q0 -246 35 -361.5t89 -115.5zM330 1309q61 0 98.5 -26t54.5 -69t17 -93h-66q-4 61 -30.5 91t-73.5 30q-45 0 -71.5 -30t-30.5 -91h-65q0 50 17 93t54 69t96 26z" />
    <glyph glyph-name="uni0211" unicode="&#x211;" horiz-adv-x="597" 
d="M25 0v68h104v912h-104v67h242l8 -98q3 12 21 38t49.5 48t75.5 22q51 0 82.5 -34.5t46.5 -93t15 -131.5q0 -52 -18 -78.5t-50 -26.5q-29 0 -46.5 21.5t-17.5 63.5q0 25 8.5 40t16 32t7.5 46q0 44 -15.5 64t-43.5 20q-36 0 -65 -32.5t-45.5 -85.5t-16.5 -114v-680h105v-68
h-359zM533 1107l-156 157q-15 16 -24 29t-9 27q0 25 14.5 38t34.5 13q28 0 43 -15.5t26 -34.5l111 -190zM343 1107l-156 157q-15 16 -24 29t-9 27q0 25 15 38t34 13q28 0 43.5 -15.5t26.5 -34.5l111 -190z" />
    <glyph glyph-name="uni0213" unicode="&#x213;" horiz-adv-x="597" 
d="M25 0v68h104v912h-104v67h242l8 -98q3 12 21 38t49.5 48t75.5 22q51 0 82.5 -34.5t46.5 -93t15 -131.5q0 -52 -18 -78.5t-50 -26.5q-29 0 -46.5 21.5t-17.5 63.5q0 25 8.5 40t16 32t7.5 46q0 44 -15.5 64t-43.5 20q-36 0 -65 -32.5t-45.5 -85.5t-16.5 -114v-680h105v-68
h-359zM365 1309q61 0 98.5 -26t54.5 -69t17 -93h-66q-4 61 -30.5 91t-73.5 30q-45 0 -71.5 -30t-30.5 -91h-65q0 50 17 93t54 69t96 26z" />
    <glyph glyph-name="uni0215" unicode="&#x215;" horiz-adv-x="747" 
d="M324 -22q-53 0 -99.5 23t-75 87t-28.5 186v706h-103v66h253v-756q0 -91 12 -139t33 -65t48 -17q38 0 65 38.5t41.5 102t14.5 139.5v631h-98v66h248v-978h91v-68h-223l-8 119q-4 -28 -25 -60.5t-57.5 -56.5t-88.5 -24zM548 1107l-156 157q-15 16 -24 29t-9 27
q0 25 14.5 38t34.5 13q28 0 43 -15.5t26 -34.5l111 -190zM358 1107l-156 157q-15 16 -24 29t-9 27q0 25 15 38t34 13q28 0 43.5 -15.5t26.5 -34.5l111 -190z" />
    <glyph glyph-name="uni0217" unicode="&#x217;" horiz-adv-x="747" 
d="M324 -22q-53 0 -99.5 23t-75 87t-28.5 186v706h-103v66h253v-756q0 -91 12 -139t33 -65t48 -17q38 0 65 38.5t41.5 102t14.5 139.5v631h-98v66h248v-978h91v-68h-223l-8 119q-4 -28 -25 -60.5t-57.5 -56.5t-88.5 -24zM380 1309q61 0 98.5 -26t54.5 -69t17 -93h-66
q-4 61 -30.5 91t-73.5 30q-45 0 -71.5 -30t-30.5 -91h-65q0 50 17 93t54 69t96 26z" />
    <glyph glyph-name="uni0218" unicode="&#x218;" horiz-adv-x="617" 
d="M327 -27q-46 0 -75 12.5t-48 29t-32 29t-25 12.5q-23 0 -23 -56h-59v305h67q2 -29 11 -64t25 -69.5t39.5 -63.5t54 -46.5t67.5 -17.5q49 0 75 24.5t35.5 69.5t9.5 104q0 69 -26.5 137.5t-70.5 137.5t-98 139q-75 101 -115.5 182t-55.5 151t-15 134q0 95 31 161.5
t83.5 102t115.5 35.5q54 0 81.5 -18t42.5 -36t29 -18q12 0 18 11t6 39h60v-302h-67q-2 38 -13 82.5t-31.5 83.5t-51 64t-71.5 25q-57 0 -89 -43t-32 -121q0 -55 15.5 -110.5t54.5 -121.5t104 -154q62 -78 109.5 -158t75 -165t27.5 -175q0 -87 -17.5 -149.5t-49 -102.5
t-75 -60t-97.5 -20zM320 -343l-34 39q10 5 29 21.5t22 30.5q-2 -3 -11 -3q-28 0 -47 19.5t-19 47.5t20 47t47 19q33 0 53.5 -21t20.5 -58q0 -36 -13.5 -63.5t-33 -47t-34.5 -31.5z" />
    <glyph glyph-name="uni0219" unicode="&#x219;" horiz-adv-x="545" 
d="M282 -22q-53 0 -80.5 13.5t-42 26.5t-27.5 13q-12 0 -16.5 -8.5t-4.5 -22.5h-57v297h68q4 -61 15.5 -108t30.5 -78.5t46.5 -48t63.5 -16.5q37 0 59.5 20t32.5 51t10 63q0 51 -15.5 97.5t-48 95t-84.5 103.5q-69 75 -119.5 154.5t-50.5 195.5q0 78 29.5 129t76 76.5
t98.5 25.5q41 0 65.5 -10t38.5 -20t24 -10q9 0 13 7t4 23h59v-288h-67q-4 57 -13.5 100t-26 71.5t-40 43.5t-54.5 15q-48 0 -73.5 -36t-25.5 -92q0 -66 36 -122t105 -129q56 -61 96.5 -119t62.5 -120t22 -134q0 -80 -25 -138t-72.5 -89.5t-112.5 -31.5zM272 -343l-34 39
q10 5 29 21.5t22 30.5q-2 -3 -11 -3q-28 0 -47 19.5t-19 47.5t20 47t47 19q33 0 53.5 -21t20.5 -58q0 -36 -13.5 -63.5t-33 -47t-34.5 -31.5z" />
    <glyph glyph-name="uni021A" unicode="&#x21a;" horiz-adv-x="730" 
d="M177 0v68h114v1265h-73q-51 0 -75 -19.5t-30.5 -67.5t-6.5 -135h-68v289h654v-289h-67q0 87 -7 135t-30.5 67.5t-75.5 19.5h-72v-1265h118v-68h-381zM357 -343l-34 39q10 5 29 21.5t22 30.5q-2 -3 -11 -3q-28 0 -47 19.5t-19 47.5t20 47t47 19q33 0 53.5 -21t20.5 -58
q0 -36 -13.5 -63.5t-33 -47t-34.5 -31.5z" />
    <glyph glyph-name="uni021B" unicode="&#x21b;" horiz-adv-x="460" 
d="M302 -18q-42 0 -82 15t-65 55.5t-25 118.5v809h-127v67h127q22 25 39 72t27.5 103.5t14.5 110.5h69v-286h149v-67h-149v-858q0 -42 17.5 -56t34.5 -14q20 0 34 8.5t22 17.5l39 -53q-20 -18 -51.5 -30.5t-73.5 -12.5zM287 -333l-34 39q10 5 29 21.5t22 30.5q-2 -3 -11 -3
q-28 0 -47 19.5t-19 47.5t20 47t47 19q33 0 53.5 -21t20.5 -58q0 -36 -13.5 -63.5t-33 -47t-34.5 -31.5z" />
    <glyph glyph-name="uni0229" unicode="&#x229;" horiz-adv-x="630" 
d="M327 -21q-72 0 -124.5 43t-85.5 118.5t-49 174.5t-16 211q0 134 22.5 234t61 166t87.5 98.5t103 32.5q63 0 109.5 -38t76.5 -103t45 -148.5t15 -175.5q0 -21 -0.5 -41.5t-1.5 -40.5h-379v67h234q0 126 -9 218t-30.5 143t-59.5 51q-36 0 -63.5 -51t-42.5 -150t-15 -247
q0 -109 6 -199t21 -156t42 -101.5t68 -35.5q62 0 96.5 37.5t47.5 71.5l59 -34q-19 -56 -78.5 -100.5t-139.5 -44.5zM368 -301q-53 0 -92 10t-54 18l24 59q11 -7 43.5 -16.5t75.5 -9.5q32 0 56.5 15t24.5 43q0 31 -16.5 40.5t-38.5 9.5q-16 0 -34.5 -7t-31.5 -21l-64 4
l62 156h67l-45 -104q4 6 27.5 15.5t54.5 9.5q38 0 71 -23t33 -81q0 -42 -24 -68.5t-62 -38t-77 -11.5z" />
    <glyph glyph-name="uni022B" unicode="&#x22b;" horiz-adv-x="665" 
d="M329 -22q-55 0 -105 36t-89 106t-61 172t-22 235q0 145 23.5 246t63 163.5t89 91.5t101.5 29t101.5 -29t89.5 -91.5t63.5 -163.5t23.5 -246q0 -133 -22 -235t-61 -172t-89.5 -106t-105.5 -36zM329 50q54 0 89 115.5t35 361.5q0 244 -35 351.5t-89 107.5t-89 -107.5
t-35 -351.5q0 -246 35 -361.5t89 -115.5zM446 1127q-32 0 -54.5 22.5t-22.5 51.5q0 33 22.5 56.5t54.5 23.5q29 0 52 -23.5t23 -56.5q0 -29 -23 -51.5t-52 -22.5zM215 1127q-29 0 -52 22.5t-23 51.5q0 33 23 56.5t52 23.5q31 0 54.5 -23.5t23.5 -56.5q0 -29 -23.5 -51.5
t-54.5 -22.5zM122 1369v67h417v-67h-417z" />
    <glyph glyph-name="uni022D" unicode="&#x22d;" horiz-adv-x="665" 
d="M329 -22q-55 0 -105 36t-89 106t-61 172t-22 235q0 145 23.5 246t63 163.5t89 91.5t101.5 29t101.5 -29t89.5 -91.5t63.5 -163.5t23.5 -246q0 -133 -22 -235t-61 -172t-89.5 -106t-105.5 -36zM329 50q54 0 89 115.5t35 361.5q0 244 -35 351.5t-89 107.5t-89 -107.5
t-35 -351.5q0 -246 35 -361.5t89 -115.5zM416 1130q-39 0 -65 16.5t-47.5 32.5t-45.5 16q-32 0 -48 -18.5t-21 -30.5l-66 32q6 19 22 42t42 41t60 18q41 0 67.5 -16t48.5 -32.5t50 -16.5t41.5 15.5t19.5 27.5l64 -36q-4 -15 -20 -36.5t-41.5 -38t-60.5 -16.5zM65 1367v67
h531v-67h-531z" />
    <glyph glyph-name="uni0231" unicode="&#x231;" horiz-adv-x="665" 
d="M329 -22q-55 0 -105 36t-89 106t-61 172t-22 235q0 145 23.5 246t63 163.5t89 91.5t101.5 29t101.5 -29t89.5 -91.5t63.5 -163.5t23.5 -246q0 -133 -22 -235t-61 -172t-89.5 -106t-105.5 -36zM329 50q54 0 89 115.5t35 361.5q0 244 -35 351.5t-89 107.5t-89 -107.5
t-35 -351.5q0 -246 35 -361.5t89 -115.5zM331 1131q-31 0 -54 22.5t-23 52.5q0 31 23 54.5t54 23.5q29 0 52 -23.5t23 -54.5q0 -30 -23 -52.5t-52 -22.5zM66 1371v67h531v-67h-531z" />
    <glyph glyph-name="uni0233" unicode="&#x233;" horiz-adv-x="649" 
d="M188 -502q-42 0 -69 31t-39.5 84.5t-12.5 120.5q0 48 17 73.5t48 25.5q30 0 46.5 -22.5t16.5 -59.5q0 -29 -9.5 -47.5t-19 -35.5t-9.5 -42q0 -27 8.5 -50t27.5 -23q12 0 19.5 11.5t14 34.5t12.5 56l72 355l-209 970h-82v67h317v-67h-75l122 -618l113 618h-74v67h227v-67
h-77l-197 -987l-74 -355q-9 -46 -23 -77.5t-36 -47t-55 -15.5zM68 1134v67h531v-67h-531z" />
    <glyph glyph-name="uni0237" unicode="&#x237;" horiz-adv-x="421" 
d="M74 -498q-53 0 -91 31t-58.5 84t-20.5 120q0 48 20.5 73.5t51.5 25.5q30 0 46 -22.5t16 -59.5q0 -25 -5.5 -44t-11.5 -37t-6 -41q0 -22 7.5 -35.5t19.5 -19t26 -5.5q53 0 77 61.5t24 179.5v1167h-112v67h262v-1128q0 -117 -20.5 -197t-55.5 -128.5t-78.5 -70t-90.5 -21.5
z" />
    <glyph glyph-name="uni0244" unicode="&#x244;" horiz-adv-x="779" 
d="M76 833v67h652v-67h-652zM390 -24q-45 0 -90.5 15t-83 51.5t-60 101.5t-22.5 165v1024h-97v67h349v-67h-100v-1020q0 -145 36.5 -202.5t97.5 -57.5q28 0 52.5 11.5t43 39t29 75.5t10.5 120v1034h-85v67h248v-67h-95v-1045q0 -119 -30.5 -187t-83 -96.5t-119.5 -28.5z" />
    <glyph glyph-name="uni0259" unicode="&#x259;" horiz-adv-x="639" 
d="M58 1046h61q0 -28 5 -46.5t13 -18.5l8 -85h-87v150zM306 1067q73 0 125 -43t85.5 -118.5t49 -174.5t15.5 -211q0 -134 -22 -234t-61 -166t-88 -98.5t-103 -32.5q-63 0 -109.5 38t-76.5 103t-44.5 148.5t-14.5 175.5v41.5t1 41.5h379v-68h-234q0 -125 9.5 -217.5t31 -143
t58.5 -50.5t64 50.5t42.5 150.5t15.5 246q0 109 -6.5 199.5t-21.5 156t-41.5 101t-68.5 35.5q-62 0 -96.5 -37t-47.5 -72l-58 34q18 56 78 100.5t139 44.5z" />
    <glyph glyph-name="uni0289" unicode="&#x289;" horiz-adv-x="807" 
d="M36 597v67h693v-67h-693zM324 -22q-53 0 -99.5 23t-75 87t-28.5 186v706h-103v66h253v-756q0 -91 12 -139t33 -65t48 -17q38 0 65 38.5t41.5 102t14.5 139.5v631h-98v66h248v-978h91v-68h-223l-8 119q-4 -28 -25 -60.5t-57.5 -56.5t-88.5 -24z" />
    <glyph glyph-name="uni02BC" unicode="&#x2bc;" horiz-adv-x="540" 
d="M285 1183l-49 57q14 8 42 31.5t32 42.5q-1 -1 -5.5 -2t-10.5 -1q-41 0 -68.5 28t-27.5 68q0 41 29 68t68 27q47 0 77 -30t30 -84q0 -52 -20 -91.5t-47.5 -67.5t-49.5 -46z" />
    <glyph glyph-name="circumflex" unicode="&#x2c6;" horiz-adv-x="692" 
d="M201 1277l148 206h70l146 -206h-74l-108 137l-107 -137h-75z" />
    <glyph glyph-name="caron" unicode="&#x2c7;" horiz-adv-x="690" 
d="M349 1252l-158 216h78l114 -147l115 147h79l-158 -216h-70z" />
    <glyph glyph-name="uni02C9" unicode="&#x2c9;" horiz-adv-x="923" 
d="M229 1357v67h603v-67h-603z" />
    <glyph glyph-name="breve" unicode="&#x2d8;" horiz-adv-x="694" 
d="M345 1259q-59 0 -96 26.5t-54 69.5t-17 93h65q4 -61 30.5 -91t71.5 -30q47 0 73.5 30t30.5 91h66q0 -50 -17 -93t-54.5 -69.5t-98.5 -26.5z" />
    <glyph glyph-name="dotaccent" unicode="&#x2d9;" horiz-adv-x="657" 
d="M309 1306q-31 0 -54 22.5t-23 52.5q0 31 23 54.5t54 23.5q29 0 52 -23.5t23 -54.5q0 -30 -23 -52.5t-52 -22.5z" />
    <glyph glyph-name="ring" unicode="&#x2da;" horiz-adv-x="483" 
d="M247 1144q-45 0 -76 32.5t-31 85.5q0 55 31 86.5t76 31.5q44 0 75 -31.5t31 -86.5q0 -53 -31 -85.5t-75 -32.5zM247 1194q26 0 38 21t12 49q0 24 -12 45t-38 21t-38 -21t-12 -45q0 -28 12 -49t38 -21z" />
    <glyph glyph-name="ogonek" unicode="&#x2db;" horiz-adv-x="643" 
d="M346 -295q-40 0 -78 14t-62 44.5t-24 81.5q0 47 24 82t55.5 59t54.5 36l28 -22q-22 -22 -45 -56.5t-23 -82.5q0 -49 31.5 -62.5t61.5 -13.5q24 0 53.5 6.5t49.5 17.5l31 -55q-23 -19 -64.5 -34t-92.5 -15z" />
    <glyph glyph-name="tilde" unicode="&#x2dc;" horiz-adv-x="703" 
d="M431 1280q-39 0 -66.5 16t-50.5 32t-48 16q-31 0 -49 -18t-23 -30l-62 28q5 18 23 42.5t45.5 43t61.5 18.5q41 0 67.5 -16t49.5 -32.5t52 -16.5q31 0 45.5 15.5t20.5 27.5l62 -30q-4 -15 -21.5 -38t-44.5 -40.5t-62 -17.5z" />
    <glyph glyph-name="hungarumlaut" unicode="&#x2dd;" horiz-adv-x="963" 
d="M440 1229l-39 40l114 137q19 30 40.5 33.5t35.5 -10t12 -35t-30 -42.5zM394 1229l-38 40l113 137q18 30 40 33.5t36 -10t12.5 -35t-29.5 -42.5z" />
    <glyph glyph-name="gravecomb" unicode="&#x300;" 
d="M367 1103l-200 94q-26 13 -39.5 25t-13.5 37q0 22 15 34t37 12q19 0 33 -7.5t27 -18.5l171 -140z" />
    <glyph glyph-name="acutecomb" unicode="&#x301;" 
d="M202 1104l-40 42l177 135q15 12 30 19.5t29 7.5q13 0 24 -7t17 -18q6 -10 6 -21q0 -19 -16.5 -35.5t-41.5 -27.5z" />
    <glyph glyph-name="uni0302" unicode="&#x302;" 
d="M161 1113l148 206h70l146 -206h-74l-108 137l-107 -137h-75z" />
    <glyph glyph-name="tildecomb" unicode="&#x303;" 
d="M431 1129q-39 0 -65 16.5t-47.5 32.5t-45.5 16q-32 0 -48 -18.5t-21 -30.5l-66 32q6 19 22 42t42 41t60 18q41 0 67.5 -16t48.5 -32.5t50 -16.5t41.5 15.5t19.5 27.5l64 -36q-4 -15 -20 -36.5t-41.5 -38t-60.5 -16.5z" />
    <glyph glyph-name="uni0304" unicode="&#x304;" 
d="M269 1133v67h531v-67h-531z" />
    <glyph glyph-name="uni0306" unicode="&#x306;" 
d="M343 1101q-59 0 -96 26.5t-54 69.5t-17 93h65q4 -61 30.5 -91t71.5 -30q47 0 73.5 30t30.5 91h66q0 -50 -17 -93t-54.5 -69.5t-98.5 -26.5z" />
    <glyph glyph-name="uni0307" unicode="&#x307;" 
d="M306 1130q-31 0 -54 22.5t-23 52.5q0 31 23 54.5t54 23.5q29 0 52 -23.5t23 -54.5q0 -30 -23 -52.5t-52 -22.5z" />
    <glyph glyph-name="uni0308" unicode="&#x308;" 
d="M514 1127q-32 0 -54.5 22.5t-22.5 51.5q0 33 22.5 56.5t54.5 23.5q29 0 52 -23.5t23 -56.5q0 -29 -23 -51.5t-52 -22.5zM283 1127q-29 0 -52 22.5t-23 51.5q0 33 23 56.5t52 23.5q31 0 54.5 -23.5t23.5 -56.5q0 -29 -23.5 -51.5t-54.5 -22.5z" />
    <glyph glyph-name="hookabovecomb" unicode="&#x309;" 
d="M300 1412q55 0 96.5 -24.5t41.5 -82.5q0 -44 -25.5 -72t-52 -49.5t-26.5 -47.5h-59q0 41 19 66.5t37.5 47t18.5 50.5q0 31 -17.5 41t-48.5 10q-25 0 -45.5 -8t-34.5 -20l-45 44q19 20 58.5 32.5t82.5 12.5z" />
    <glyph glyph-name="uni030A" unicode="&#x30a;" 
d="M247 1094q-45 0 -76 32.5t-31 85.5q0 55 31 86.5t76 31.5q44 0 75 -31.5t31 -86.5q0 -53 -31 -85.5t-75 -32.5zM247 1145q26 0 38 20.5t12 48.5q0 25 -12 45.5t-38 20.5t-38 -20.5t-12 -45.5q0 -28 12 -48.5t38 -20.5z" />
    <glyph glyph-name="uni030B" unicode="&#x30b;" 
d="M440 1126l-39 40l113 137q14 16 26 24.5t24 8.5q16 0 27.5 -11.5t11.5 -28.5q0 -25 -30 -47zM394 1126l-38 40l112 137q14 17 26 25t24 8q16 0 27.5 -11.5t11.5 -28.5q0 -26 -29 -47z" />
    <glyph glyph-name="uni030C" unicode="&#x30c;" 
d="M315 1104l-158 216h78l115 -147l114 147h79l-157 -216h-71z" />
    <glyph glyph-name="uni030F" unicode="&#x30f;" 
d="M448 1106l-156 157q-15 16 -24 29t-9 27q0 25 14.5 38t34.5 13q28 0 43 -15.5t26 -34.5l111 -190zM258 1106l-156 157q-15 16 -24 29t-9 27q0 25 15 38t34 13q28 0 43.5 -15.5t26.5 -34.5l111 -190z" />
    <glyph glyph-name="uni0311" unicode="&#x311;" 
d="M327 1308q61 0 98.5 -26t54.5 -69t17 -93h-66q-4 61 -30.5 91t-73.5 30q-45 0 -71.5 -30t-30.5 -91h-65q0 50 17 93t54 69t96 26z" />
    <glyph glyph-name="uni0312" unicode="&#x312;" 
d="M248 1339l35 -36q-10 -5 -31 -24t-24 -33q4 5 14 5q28 0 47.5 -19.5t19.5 -47.5t-20 -47.5t-48 -19.5q-32 0 -54 21t-22 59q0 36 14 63.5t34 47.5t35 31z" />
    <glyph glyph-name="uni031B" unicode="&#x31b;" 
d="M236 979v67q49 0 88.5 13.5t39.5 62.5q0 19 -4.5 43.5t-4.5 43.5q0 31 16.5 49.5t44.5 18.5q29 0 45 -18t16 -50q0 -93 -39.5 -143t-95.5 -68.5t-106 -18.5z" />
    <glyph glyph-name="dotbelowcomb" unicode="&#x323;" 
d="M306 -260q-31 0 -54 22.5t-23 52.5q0 31 23 54.5t54 23.5q29 0 52 -23.5t23 -54.5q0 -30 -23 -52.5t-52 -22.5z" />
    <glyph glyph-name="uni0324" unicode="&#x324;" 
d="M396 -256q-31 0 -53.5 22.5t-22.5 52.5q0 32 22.5 55.5t53.5 23.5q30 0 53 -23.5t23 -55.5q0 -30 -23 -52.5t-53 -22.5zM166 -256q-30 0 -52.5 22.5t-22.5 52.5q0 32 22.5 55.5t52.5 23.5q31 0 54 -23.5t23 -55.5q0 -30 -23 -52.5t-54 -22.5z" />
    <glyph glyph-name="uni0326" unicode="&#x326;" 
d="M221 -343l-34 39q10 5 29 21.5t22 30.5q-2 -3 -11 -3q-28 0 -47 19.5t-19 47.5t20 47t47 19q33 0 53.5 -21t20.5 -58q0 -36 -13.5 -63.5t-33 -47t-34.5 -31.5z" />
    <glyph glyph-name="uni0327" unicode="&#x327;" 
d="M304 -301q-53 0 -92 10t-54 18l24 59q11 -7 43 -16.5t76 -9.5q32 0 56.5 15t24.5 43q0 31 -16.5 40.5t-39.5 9.5q-16 0 -34 -7t-31 -21l-64 4l62 156h67l-45 -104q4 6 27.5 15.5t54.5 9.5q38 0 71 -23t33 -81q0 -42 -24 -68.5t-62 -38t-77 -11.5z" />
    <glyph glyph-name="uni0328" unicode="&#x328;" 
d="M346 -295q-40 0 -78 14t-62 44.5t-24 81.5q0 47 24 82t55.5 59t54.5 36l28 -22q-22 -22 -45 -56.5t-23 -82.5q0 -49 31.5 -62.5t61.5 -13.5q24 0 53.5 6.5t49.5 17.5l31 -55q-23 -19 -64.5 -34t-92.5 -15z" />
    <glyph glyph-name="uni032E" unicode="&#x32e;" 
d="M259 -291q-60 0 -97 26.5t-54 69.5t-17 93h65q4 -61 30.5 -91t72.5 -30t73 30t31 91h65q0 -50 -17 -93t-54 -69.5t-98 -26.5z" />
    <glyph glyph-name="uni0331" unicode="&#x331;" 
d="M225 -206v60h604v-60h-604z" />
    <glyph glyph-name="uni0335" unicode="&#x335;" 
d="M101 529v67h442v-67h-442z" />
    <glyph glyph-name="uni0336" unicode="&#x336;" 
d="M101 529v67h442v-67h-442z" />
    <glyph glyph-name="uni0337" unicode="&#x337;" 
d="M32 -104l500 1608h69l-497 -1608h-72z" />
    <glyph glyph-name="uni0338" unicode="&#x338;" 
d="M32 -104l500 1608h69l-497 -1608h-72z" />
    <glyph glyph-name="uni1E05" unicode="&#x1e05;" horiz-adv-x="714" 
d="M404 -20q-48 0 -77 25.5t-43.5 59.5t-17.5 59l-11 -124h-238v68h106v1365h-106v67h258v-563q4 16 19 44.5t45 51.5t78 23q65 0 117 -54t82.5 -172.5t30.5 -311.5q0 -198 -32.5 -316t-87.5 -170t-123 -52zM379 79q30 0 52 27.5t36 82t21 136t7 189.5q0 99 -6 179
t-19.5 136.5t-34.5 87t-52 30.5q-30 0 -53 -30t-37 -75t-18 -90v-400q3 -63 16 -126t36 -105t52 -42zM358 -260q-31 0 -54 22.5t-23 52.5q0 31 23 54.5t54 23.5q29 0 52 -23.5t23 -54.5q0 -30 -23 -52.5t-52 -22.5z" />
    <glyph glyph-name="uni1E08" unicode="&#x1e08;" horiz-adv-x="654" 
d="M393 -20q-145 0 -237.5 183t-92.5 535q0 131 21 259t63.5 233t106 168.5t147.5 63.5q58 0 100.5 -40t66 -100.5t23.5 -121.5q0 -50 -16.5 -75.5t-50.5 -25.5q-36 0 -53.5 22t-17.5 63q0 26 9 45t18 40t9 53q0 35 -18.5 53t-43.5 18q-42 0 -75 -41.5t-57.5 -111
t-40 -155.5t-23.5 -175.5t-8 -169.5q0 -118 9 -219t26 -181t40.5 -136t52 -86t61.5 -30q37 0 62 23.5t41.5 60t26.5 74.5l59 -30q-17 -52 -45 -96.5t-68.5 -72t-94.5 -27.5zM407 -301q-53 0 -92 10t-54 18l24 59q11 -7 43.5 -16.5t75.5 -9.5q32 0 56.5 15t24.5 43
q0 31 -16.5 40.5t-38.5 9.5q-16 0 -34.5 -7t-31.5 -21l-64 4l62 156h67l-45 -104q4 6 27.5 15.5t54.5 9.5q38 0 71 -23t33 -81q0 -42 -24 -68.5t-62 -38t-77 -11.5zM278 1464l-40 42l177 135q14 11 29.5 19t29.5 8q13 0 24 -7t17 -18q6 -10 6 -22q0 -19 -16.5 -35t-41.5 -27
z" />
    <glyph glyph-name="uni1E09" unicode="&#x1e09;" horiz-adv-x="607" 
d="M232 1080l-40 42l177 135q15 12 30 19.5t29 7.5q13 0 24 -7t17 -18q6 -10 6 -21q0 -19 -16.5 -35.5t-41.5 -27.5zM347 -21q-70 0 -125 45t-93 122.5t-58 177t-20 208.5q0 133 27.5 231.5t71.5 163.5t97 97.5t103 32.5q67 0 113 -39t70 -100.5t24 -128.5q0 -46 -17.5 -71
t-48.5 -25t-49 22t-18 58q0 24 7.5 37.5t15 28t7.5 38.5q0 52 -28 81t-69 29t-69.5 -40t-46 -105.5t-25 -145t-7.5 -158.5q0 -81 7.5 -166.5t25 -158t48.5 -117t79 -44.5q54 0 83.5 29t44.5 73l51 -43q-18 -44 -67 -88t-134 -44zM383 -300q-52 0 -91.5 10t-54.5 18l25 60
q10 -7 42.5 -17t75.5 -10q32 0 56.5 15.5t24.5 43.5q0 30 -16 39.5t-39 9.5q-16 0 -34.5 -6.5t-31.5 -20.5l-63 4l61 155h68l-46 -104q5 7 28.5 16.5t53.5 9.5q38 0 71 -23t33 -81q0 -43 -24 -69t-61.5 -38t-77.5 -12z" />
    <glyph glyph-name="uni1E0D" unicode="&#x1e0d;" horiz-adv-x="720" 
d="M313 -20q-68 0 -123 52t-87 170t-32 316q0 193 31.5 311.5t84.5 172.5t116 54q50 0 79.5 -19.5t44 -45.5t18.5 -46v487h-115v68h267v-1432h112v-68h-243l-12 125q-2 -26 -19 -60.5t-47 -59.5t-75 -25zM340 79q30 0 52.5 39t36 98.5t16.5 118.5v417q-4 51 -19 96t-38.5 73
t-51.5 28q-31 0 -52.5 -32.5t-35 -91t-19.5 -138t-6 -173.5q0 -107 7 -188.5t21 -136.5t36 -82.5t53 -27.5zM364 -260q-31 0 -54 22.5t-23 52.5q0 31 23 54.5t54 23.5q29 0 52 -23.5t23 -54.5q0 -30 -23 -52.5t-52 -22.5z" />
    <glyph glyph-name="uni1E0F" unicode="&#x1e0f;" horiz-adv-x="720" 
d="M313 -20q-68 0 -123 52t-87 170t-32 316q0 193 31.5 311.5t84.5 172.5t116 54q50 0 79.5 -19.5t44 -45.5t18.5 -46v487h-115v68h267v-1432h112v-68h-243l-12 125q-2 -26 -19 -60.5t-47 -59.5t-75 -25zM340 79q30 0 52.5 39t36 98.5t16.5 118.5v417q-4 51 -19 96t-38.5 73
t-51.5 28q-31 0 -52.5 -32.5t-35 -91t-19.5 -138t-6 -173.5q0 -107 7 -188.5t21 -136.5t36 -82.5t53 -27.5zM46 -256v67h531v-67h-531z" />
    <glyph glyph-name="uni1E15" unicode="&#x1e15;" horiz-adv-x="630" 
d="M327 -21q-72 0 -124.5 43t-85.5 118.5t-49 174.5t-16 211q0 134 22.5 234t61 166t87.5 98.5t103 32.5q63 0 109.5 -37.5t76.5 -101.5t45 -144.5t15 -166.5q0 -21 -0.5 -41.5t-1.5 -40.5h-379v67h234q0 126 -9 214.5t-30.5 135.5t-59.5 47q-36 0 -63.5 -47t-42.5 -142.5
t-15 -243.5q0 -109 6 -201t21 -160t42 -105.5t68 -37.5q62 0 96.5 36t47.5 70l59 -34q-19 -56 -78.5 -100.5t-139.5 -44.5zM57 1133v67h531v-67h-531zM432 1256l-200 94q-26 13 -39.5 25t-13.5 37q0 22 15 34t37 12q19 0 33 -7.5t27 -18.5l171 -140z" />
    <glyph glyph-name="uni1E17" unicode="&#x1e17;" horiz-adv-x="630" 
d="M327 -21q-72 0 -124.5 43t-85.5 118.5t-49 174.5t-16 211q0 134 22.5 234t61 166t87.5 98.5t103 32.5q63 0 109.5 -37.5t76.5 -101.5t45 -144.5t15 -166.5q0 -21 -0.5 -41.5t-1.5 -40.5h-379v67h234q0 126 -9 214.5t-30.5 135.5t-59.5 47q-36 0 -63.5 -47t-42.5 -142.5
t-15 -243.5q0 -109 6 -201t21 -160t42 -105.5t68 -37.5q62 0 96.5 36t47.5 70l59 -34q-19 -56 -78.5 -100.5t-139.5 -44.5zM57 1133v67h531v-67h-531zM216 1233l-40 42l177 135q15 12 30 19.5t29 7.5q13 0 24 -7t17 -18q6 -10 6 -21q0 -19 -16.5 -35.5t-41.5 -27.5z" />
    <glyph glyph-name="uni1E1D" unicode="&#x1e1d;" horiz-adv-x="630" 
d="M320 1101q-59 0 -96 26.5t-54 69.5t-17 93h65q4 -61 30.5 -91t71.5 -30q47 0 73.5 30t30.5 91h66q0 -50 -17 -93t-54.5 -69.5t-98.5 -26.5zM327 -21q-72 0 -124.5 43t-85.5 118.5t-49 174.5t-16 211q0 134 22.5 234t61 166t87.5 98.5t103 32.5q63 0 109.5 -38t76.5 -103
t45 -148.5t15 -175.5q0 -21 -0.5 -41.5t-1.5 -40.5h-379v67h234q0 126 -9 218t-30.5 143t-59.5 51q-36 0 -63.5 -51t-42.5 -150t-15 -247q0 -109 6 -199t21 -156t42 -101.5t68 -35.5q62 0 96.5 37.5t47.5 71.5l59 -34q-19 -56 -78.5 -100.5t-139.5 -44.5zM368 -301
q-53 0 -92 10t-54 18l24 59q11 -7 43.5 -16.5t75.5 -9.5q32 0 56.5 15t24.5 43q0 31 -16.5 40.5t-38.5 9.5q-16 0 -34.5 -7t-31.5 -21l-64 4l62 156h67l-45 -104q4 6 27.5 15.5t54.5 9.5q38 0 71 -23t33 -81q0 -42 -24 -68.5t-62 -38t-77 -11.5z" />
    <glyph glyph-name="uni1E21" unicode="&#x1e21;" horiz-adv-x="704" 
d="M350 -498q-88 0 -155.5 35t-105.5 95t-38 136q0 64 18.5 107.5t45 71t51 42t37.5 19.5q-9 2 -28.5 11t-41 27t-37.5 48t-16 74q0 39 15 67t36 43.5t40 18.5q4 1 10 2t7 0q-10 9 -26.5 33t-33 65t-28 100t-11.5 137q0 119 23 200t61.5 130t85 71t93.5 22q84 0 140.5 -50.5
t85 -142t28.5 -213.5q0 -117 -22 -198t-59.5 -130t-83.5 -70.5t-93 -21.5q-48 0 -75 11.5t-32 13.5q-1 0 -2 0.5t-4 0.5q-18 0 -37.5 -20t-19.5 -52q0 -45 41.5 -71.5t154.5 -44.5q140 -20 210 -87t70 -195q0 -76 -27 -130.5t-72 -88.5t-98.5 -50t-106.5 -16zM350 -434
q74 0 119 54t45 133q0 92 -26.5 134.5t-95.5 63.5q-20 7 -41 14t-38.5 12.5t-27.5 8.5q-31 -17 -54 -48t-35.5 -72t-12.5 -91q0 -55 18.5 -102.5t55.5 -77t93 -29.5zM348 300q29 0 53 26t38 101t14 220q0 141 -14 214t-37.5 99.5t-51.5 26.5t-52.5 -26.5t-40 -101
t-15.5 -217.5q0 -144 15.5 -217t39.5 -99t51 -26zM442 989q9 60 55 95.5t97 35.5q43 0 60.5 -19.5t17.5 -52.5q0 -28 -16 -45t-42 -17q-23 0 -33.5 10.5t-18 21t-25.5 10.5q-13 0 -23 -10.5t-10 -31.5zM82 1134v67h531v-67h-531z" />
    <glyph glyph-name="uni1E25" unicode="&#x1e25;" horiz-adv-x="789" 
d="M34 0v68h102v1365h-102v67h252v-563q2 14 24 43t61 53.5t92 24.5q51 0 96 -26.5t73 -96t28 -199.5v-668h104v-68h-333v68h79v649q0 130 -23 183t-73 53q-33 0 -61.5 -29.5t-47 -76t-19.5 -99.5v-680h81v-68h-333zM398 -260q-31 0 -54 22.5t-23 52.5q0 31 23 54.5t54 23.5
q29 0 52 -23.5t23 -54.5q0 -30 -23 -52.5t-52 -22.5z" />
    <glyph glyph-name="uni1E2B" unicode="&#x1e2b;" horiz-adv-x="789" 
d="M34 0v68h102v1365h-102v67h252v-563q2 14 24 43t61 53.5t92 24.5q51 0 96 -26.5t73 -96t28 -199.5v-668h104v-68h-333v68h79v649q0 130 -23 183t-73 53q-33 0 -61.5 -29.5t-47 -76t-19.5 -99.5v-680h81v-68h-333zM398 -291q-60 0 -97 26.5t-54 69.5t-17 93h65
q4 -61 30.5 -91t72.5 -30t73 30t31 91h65q0 -50 -17 -93t-54 -69.5t-98 -26.5z" />
    <glyph glyph-name="uni1E2F" unicode="&#x1e2f;" horiz-adv-x="424" 
d="M34 0v68h106v912h-106v67h256v-979h107v-68h-363zM330 1127q-32 0 -54.5 22.5t-22.5 51.5q0 33 22.5 56.5t54.5 23.5q29 0 52 -23.5t23 -56.5q0 -29 -23 -51.5t-52 -22.5zM99 1127q-29 0 -52 22.5t-23 51.5q0 33 23 56.5t52 23.5q31 0 54.5 -23.5t23.5 -56.5
q0 -29 -23.5 -51.5t-54.5 -22.5zM108 1315l-40 42l177 135q15 12 30 19.5t29 7.5q13 0 24 -7t17 -18q6 -10 6 -21q0 -19 -16.5 -35.5t-41.5 -27.5z" />
    <glyph glyph-name="uni1E37" unicode="&#x1e37;" horiz-adv-x="425" 
d="M41 0v68h97v1365h-97v67h246v-1432h98v-68h-344zM216 -260q-31 0 -54 22.5t-23 52.5q0 31 23 54.5t54 23.5q29 0 52 -23.5t23 -54.5q0 -30 -23 -52.5t-52 -22.5z" />
    <glyph glyph-name="uni1E3B" unicode="&#x1e3b;" horiz-adv-x="425" 
d="M41 0v68h97v1365h-97v67h246v-1432h98v-68h-344zM-87 -206v60h604v-60h-604z" />
    <glyph glyph-name="uni1E3F" unicode="&#x1e3f;" horiz-adv-x="1081" 
d="M34 0v68h97v912h-97v67h244v-113q2 18 21 47t56.5 52t92.5 23q57 0 90.5 -28.5t49.5 -62t18 -48.5q6 28 31.5 60.5t67 55.5t95.5 23q88 0 131.5 -74t43.5 -182v-732h94v-68h-325v68h81v623q0 84 -4.5 143.5t-21.5 90.5t-56 31q-40 0 -66 -32.5t-38.5 -85t-13.5 -111.5
v-659h82v-68h-311v68h80v623q0 126 -12 195.5t-71 69.5q-39 0 -64 -33t-36 -87.5t-12 -116.5v-651h79v-68h-326zM448 1080l-40 42l177 135q15 12 30 19.5t29 7.5q13 0 24 -7t17 -18q6 -10 6 -21q0 -19 -16.5 -35.5t-41.5 -27.5z" />
    <glyph glyph-name="uni1E43" unicode="&#x1e43;" horiz-adv-x="1081" 
d="M34 0v68h97v912h-97v67h244v-113q2 18 21 47t56.5 52t92.5 23q57 0 90.5 -28.5t49.5 -62t18 -48.5q6 28 31.5 60.5t67 55.5t95.5 23q88 0 131.5 -74t43.5 -182v-732h94v-68h-325v68h81v623q0 84 -4.5 143.5t-21.5 90.5t-56 31q-40 0 -66 -32.5t-38.5 -85t-13.5 -111.5
v-659h82v-68h-311v68h80v623q0 126 -12 195.5t-71 69.5q-39 0 -64 -33t-36 -87.5t-12 -116.5v-651h79v-68h-326zM555 -260q-31 0 -54 22.5t-23 52.5q0 31 23 54.5t54 23.5q29 0 52 -23.5t23 -54.5q0 -30 -23 -52.5t-52 -22.5z" />
    <glyph glyph-name="uni1E45" unicode="&#x1e45;" horiz-adv-x="774" 
d="M34 0v68h103v912h-103v67h250v-107q5 22 27 49.5t59 47.5t86 20q47 0 90.5 -23.5t72 -89.5t28.5 -195v-681h102v-68h-337v68h85v665q0 121 -22 173.5t-71 52.5q-25 0 -46.5 -18t-37 -48.5t-24 -67.5t-9.5 -75v-682h84v-68h-337zM398 1131q-31 0 -54 22.5t-23 52.5
q0 31 23 54.5t54 23.5q29 0 52 -23.5t23 -54.5q0 -30 -23 -52.5t-52 -22.5z" />
    <glyph glyph-name="uni1E47" unicode="&#x1e47;" horiz-adv-x="774" 
d="M34 0v68h103v912h-103v67h250v-107q5 22 27 49.5t59 47.5t86 20q47 0 90.5 -23.5t72 -89.5t28.5 -195v-681h102v-68h-337v68h85v665q0 121 -22 173.5t-71 52.5q-25 0 -46.5 -18t-37 -48.5t-24 -67.5t-9.5 -75v-682h84v-68h-337zM398 -260q-31 0 -54 22.5t-23 52.5
q0 31 23 54.5t54 23.5q29 0 52 -23.5t23 -54.5q0 -30 -23 -52.5t-52 -22.5z" />
    <glyph glyph-name="uni1E49" unicode="&#x1e49;" horiz-adv-x="774" 
d="M34 0v68h103v912h-103v67h250v-107q5 22 27 49.5t59 47.5t86 20q47 0 90.5 -23.5t72 -89.5t28.5 -195v-681h102v-68h-337v68h85v665q0 121 -22 173.5t-71 52.5q-25 0 -46.5 -18t-37 -48.5t-24 -67.5t-9.5 -75v-682h84v-68h-337zM95 -206v60h604v-60h-604z" />
    <glyph glyph-name="uni1E4D" unicode="&#x1e4d;" horiz-adv-x="665" 
d="M329 -22q-55 0 -105 36t-89 106t-61 172t-22 235q0 145 23.5 246t63 163.5t89 91.5t101.5 29t101.5 -29t89.5 -91.5t63.5 -163.5t23.5 -246q0 -133 -22 -235t-61 -172t-89.5 -106t-105.5 -36zM329 50q54 0 89 115.5t35 361.5q0 244 -35 351.5t-89 107.5t-89 -107.5
t-35 -351.5q0 -246 35 -361.5t89 -115.5zM416 1130q-39 0 -65 16.5t-47.5 32.5t-45.5 16q-32 0 -48 -18.5t-21 -30.5l-66 32q6 19 22 42t42 41t60 18q41 0 67.5 -16t48.5 -32.5t50 -16.5t41.5 15.5t19.5 27.5l64 -36q-4 -15 -20 -36.5t-41.5 -38t-60.5 -16.5zM224 1314
l-40 42l177 135q15 12 30 19.5t29 7.5q13 0 24 -7t17 -18q6 -10 6 -21q0 -19 -16.5 -35.5t-41.5 -27.5z" />
    <glyph glyph-name="uni1E4F" unicode="&#x1e4f;" horiz-adv-x="665" 
d="M329 -22q-55 0 -105 36t-89 106t-61 172t-22 235q0 145 23.5 246t63 163.5t89 91.5t101.5 29t101.5 -29t89.5 -91.5t63.5 -163.5t23.5 -246q0 -133 -22 -235t-61 -172t-89.5 -106t-105.5 -36zM329 50q54 0 89 115.5t35 361.5q0 244 -35 351.5t-89 107.5t-89 -107.5
t-35 -351.5q0 -246 35 -361.5t89 -115.5zM416 1130q-39 0 -65 16.5t-47.5 32.5t-45.5 16q-32 0 -48 -18.5t-21 -30.5l-66 32q6 19 22 42t42 41t60 18q41 0 67.5 -16t48.5 -32.5t50 -16.5t41.5 15.5t19.5 27.5l64 -36q-4 -15 -20 -36.5t-41.5 -38t-60.5 -16.5zM446 1360
q-32 0 -54.5 22.5t-22.5 51.5q0 33 22.5 56.5t54.5 23.5q29 0 52 -23.5t23 -56.5q0 -29 -23 -51.5t-52 -22.5zM215 1360q-29 0 -52 22.5t-23 51.5q0 33 23 56.5t52 23.5q31 0 54.5 -23.5t23.5 -56.5q0 -29 -23.5 -51.5t-54.5 -22.5z" />
    <glyph glyph-name="uni1E51" unicode="&#x1e51;" horiz-adv-x="665" 
d="M329 -22q-55 0 -105 36t-89 106t-61 172t-22 235q0 145 23.5 246t63 163.5t89 91.5t101.5 29t101.5 -29t89.5 -91.5t63.5 -163.5t23.5 -246q0 -133 -22 -235t-61 -172t-89.5 -106t-105.5 -36zM329 50q54 0 89 115.5t35 361.5q0 244 -35 351.5t-89 107.5t-89 -107.5
t-35 -351.5q0 -246 35 -361.5t89 -115.5zM122 1134v67h417v-67h-417zM440 1257l-200 94q-26 13 -39.5 25t-13.5 37q0 22 15 34t37 12q19 0 33 -7.5t27 -18.5l171 -140z" />
    <glyph glyph-name="uni1E53" unicode="&#x1e53;" horiz-adv-x="665" 
d="M329 -22q-55 0 -105 36t-89 106t-61 172t-22 235q0 145 23.5 246t63 163.5t89 91.5t101.5 29t101.5 -29t89.5 -91.5t63.5 -163.5t23.5 -246q0 -133 -22 -235t-61 -172t-89.5 -106t-105.5 -36zM329 50q54 0 89 115.5t35 361.5q0 244 -35 351.5t-89 107.5t-89 -107.5
t-35 -351.5q0 -246 35 -361.5t89 -115.5zM122 1134v67h417v-67h-417zM224 1234l-40 42l177 135q15 12 30 19.5t29 7.5q13 0 24 -7t17 -18q6 -10 6 -21q0 -19 -16.5 -35.5t-41.5 -27.5z" />
    <glyph glyph-name="uni1E5B" unicode="&#x1e5b;" horiz-adv-x="597" 
d="M25 0v68h104v912h-104v67h242l8 -98q3 12 21 38t49.5 48t75.5 22q51 0 82.5 -34.5t46.5 -93t15 -131.5q0 -52 -18 -78.5t-50 -26.5q-29 0 -46.5 21.5t-17.5 63.5q0 25 8.5 40t16 32t7.5 46q0 44 -15.5 64t-43.5 20q-36 0 -65 -32.5t-45.5 -85.5t-16.5 -114v-680h105v-68
h-359zM266 -260q-31 0 -54 22.5t-23 52.5q0 31 23 54.5t54 23.5q29 0 52 -23.5t23 -54.5q0 -30 -23 -52.5t-52 -22.5z" />
    <glyph glyph-name="uni1E5F" unicode="&#x1e5f;" horiz-adv-x="597" 
d="M25 0v68h104v912h-104v67h242l8 -98q3 12 21 38t49.5 48t75.5 22q51 0 82.5 -34.5t46.5 -93t15 -131.5q0 -52 -18 -78.5t-50 -26.5q-29 0 -46.5 21.5t-17.5 63.5q0 25 8.5 40t16 32t7.5 46q0 44 -15.5 64t-43.5 20q-36 0 -65 -32.5t-45.5 -85.5t-16.5 -114v-680h105v-68
h-359zM-37 -206v60h604v-60h-604z" />
    <glyph glyph-name="uni1E61" unicode="&#x1e61;" horiz-adv-x="545" 
d="M282 -22q-53 0 -80.5 13.5t-42 26.5t-27.5 13q-12 0 -16.5 -8.5t-4.5 -22.5h-57v297h68q4 -61 15.5 -108t30.5 -78.5t46.5 -48t63.5 -16.5q37 0 59.5 20t32.5 51t10 63q0 51 -15.5 97.5t-48 95t-84.5 103.5q-69 75 -119.5 154.5t-50.5 195.5q0 78 29.5 129t76 76.5
t98.5 25.5q41 0 65.5 -10t38.5 -20t24 -10q9 0 13 7t4 23h59v-288h-67q-4 57 -13.5 100t-26 71.5t-40 43.5t-54.5 15q-48 0 -73.5 -36t-25.5 -92q0 -66 36 -122t105 -129q56 -61 96.5 -119t62.5 -120t22 -134q0 -80 -25 -138t-72.5 -89.5t-112.5 -31.5zM280 1131
q-31 0 -54 22.5t-23 52.5q0 31 23 54.5t54 23.5q29 0 52 -23.5t23 -54.5q0 -30 -23 -52.5t-52 -22.5z" />
    <glyph glyph-name="uni1E63" unicode="&#x1e63;" horiz-adv-x="545" 
d="M282 -22q-53 0 -80.5 13.5t-42 26.5t-27.5 13q-12 0 -16.5 -8.5t-4.5 -22.5h-57v297h68q4 -61 15.5 -108t30.5 -78.5t46.5 -48t63.5 -16.5q37 0 59.5 20t32.5 51t10 63q0 51 -15.5 97.5t-48 95t-84.5 103.5q-69 75 -119.5 154.5t-50.5 195.5q0 78 29.5 129t76 76.5
t98.5 25.5q41 0 65.5 -10t38.5 -20t24 -10q9 0 13 7t4 23h59v-288h-67q-4 57 -13.5 100t-26 71.5t-40 43.5t-54.5 15q-48 0 -73.5 -36t-25.5 -92q0 -66 36 -122t105 -129q56 -61 96.5 -119t62.5 -120t22 -134q0 -80 -25 -138t-72.5 -89.5t-112.5 -31.5zM280 -260
q-31 0 -54 22.5t-23 52.5q0 31 23 54.5t54 23.5q29 0 52 -23.5t23 -54.5q0 -30 -23 -52.5t-52 -22.5z" />
    <glyph glyph-name="uni1E65" unicode="&#x1e65;" horiz-adv-x="545" 
d="M282 -22q-53 0 -80.5 13.5t-42 26.5t-27.5 13q-12 0 -16.5 -8.5t-4.5 -22.5h-57v297h68q4 -61 15.5 -108t30.5 -78.5t46.5 -48t63.5 -16.5q37 0 59.5 20t32.5 51t10 63q0 51 -15.5 97.5t-48 95t-84.5 103.5q-69 75 -119.5 154.5t-50.5 195.5q0 78 29.5 129t76 76.5
t98.5 25.5q41 0 65.5 -10t38.5 -20t24 -10q9 0 13 7t4 23h59v-288h-67q-4 57 -13.5 100t-26 71.5t-40 43.5t-54.5 15q-48 0 -73.5 -36t-25.5 -92q0 -66 36 -122t105 -129q56 -61 96.5 -119t62.5 -120t22 -134q0 -80 -25 -138t-72.5 -89.5t-112.5 -31.5zM173 1080l-40 42
l177 135q15 12 30 19.5t29 7.5q13 0 24 -7t17 -18q6 -10 6 -21q0 -19 -16.5 -35.5t-41.5 -27.5zM280 1367q-31 0 -54 22.5t-23 52.5q0 31 23 54.5t54 23.5q29 0 52 -23.5t23 -54.5q0 -30 -23 -52.5t-52 -22.5z" />
    <glyph glyph-name="uni1E67" unicode="&#x1e67;" horiz-adv-x="545" 
d="M282 -22q-53 0 -80.5 13.5t-42 26.5t-27.5 13q-12 0 -16.5 -8.5t-4.5 -22.5h-57v297h68q4 -61 15.5 -108t30.5 -78.5t46.5 -48t63.5 -16.5q37 0 59.5 20t32.5 51t10 63q0 51 -15.5 97.5t-48 95t-84.5 103.5q-69 75 -119.5 154.5t-50.5 195.5q0 78 29.5 129t76 76.5
t98.5 25.5q41 0 65.5 -10t38.5 -20t24 -10q9 0 13 7t4 23h59v-288h-67q-4 57 -13.5 100t-26 71.5t-40 43.5t-54.5 15q-48 0 -73.5 -36t-25.5 -92q0 -66 36 -122t105 -129q56 -61 96.5 -119t62.5 -120t22 -134q0 -80 -25 -138t-72.5 -89.5t-112.5 -31.5zM245 1105l-158 216
h78l115 -147l114 147h79l-157 -216h-71zM280 1381q-31 0 -54 22.5t-23 52.5q0 31 23 54.5t54 23.5q29 0 52 -23.5t23 -54.5q0 -30 -23 -52.5t-52 -22.5z" />
    <glyph glyph-name="uni1E69" unicode="&#x1e69;" horiz-adv-x="545" 
d="M282 -22q-53 0 -80.5 13.5t-42 26.5t-27.5 13q-12 0 -16.5 -8.5t-4.5 -22.5h-57v297h68q4 -61 15.5 -108t30.5 -78.5t46.5 -48t63.5 -16.5q37 0 59.5 20t32.5 51t10 63q0 51 -15.5 97.5t-48 95t-84.5 103.5q-69 75 -119.5 154.5t-50.5 195.5q0 78 29.5 129t76 76.5
t98.5 25.5q41 0 65.5 -10t38.5 -20t24 -10q9 0 13 7t4 23h59v-288h-67q-4 57 -13.5 100t-26 71.5t-40 43.5t-54.5 15q-48 0 -73.5 -36t-25.5 -92q0 -66 36 -122t105 -129q56 -61 96.5 -119t62.5 -120t22 -134q0 -80 -25 -138t-72.5 -89.5t-112.5 -31.5zM280 -260
q-31 0 -54 22.5t-23 52.5q0 31 23 54.5t54 23.5q29 0 52 -23.5t23 -54.5q0 -30 -23 -52.5t-52 -22.5zM280 1131q-31 0 -54 22.5t-23 52.5q0 31 23 54.5t54 23.5q29 0 52 -23.5t23 -54.5q0 -30 -23 -52.5t-52 -22.5z" />
    <glyph glyph-name="uni1E6D" unicode="&#x1e6d;" horiz-adv-x="460" 
d="M302 -18q-42 0 -82 15t-65 55.5t-25 118.5v809h-127v67h127q22 25 39 72t27.5 103.5t14.5 110.5h69v-286h149v-67h-149v-858q0 -42 17.5 -56t34.5 -14q20 0 34 8.5t22 17.5l39 -53q-20 -18 -51.5 -30.5t-73.5 -12.5zM295 -250q-31 0 -54 22.5t-23 52.5q0 31 23 54.5
t54 23.5q29 0 52 -23.5t23 -54.5q0 -30 -23 -52.5t-52 -22.5z" />
    <glyph glyph-name="uni1E6F" unicode="&#x1e6f;" horiz-adv-x="456" 
d="M60 -182v68h354v-68h-354zM302 -18q-42 0 -82 15t-65 55.5t-25 118.5v809h-127v67h127q22 25 39 72t27.5 103.5t14.5 110.5h69v-286h149v-67h-149v-858q0 -42 17.5 -56t34.5 -14q20 0 34 8.5t22 17.5l39 -53q-20 -18 -51.5 -30.5t-73.5 -12.5z" />
    <glyph glyph-name="uni1E79" unicode="&#x1e79;" horiz-adv-x="747" 
d="M324 -22q-53 0 -99.5 23t-75 87t-28.5 186v706h-103v66h253v-756q0 -91 12 -139t33 -65t48 -17q38 0 65 38.5t41.5 102t14.5 139.5v631h-98v66h248v-978h91v-68h-223l-8 119q-4 -28 -25 -60.5t-57.5 -56.5t-88.5 -24zM466 1130q-39 0 -65 16.5t-47.5 32.5t-45.5 16
q-32 0 -48 -18.5t-21 -30.5l-66 32q6 19 22 42t42 41t60 18q41 0 67.5 -16t48.5 -32.5t50 -16.5t41.5 15.5t19.5 27.5l64 -36q-4 -15 -20 -36.5t-41.5 -38t-60.5 -16.5zM273 1314l-40 42l177 135q15 12 30 19.5t29 7.5q13 0 24 -7t17 -18q6 -10 6 -21q0 -19 -16.5 -35.5
t-41.5 -27.5z" />
    <glyph glyph-name="uni1E7B" unicode="&#x1e7b;" horiz-adv-x="747" 
d="M324 -22q-53 0 -99.5 23t-75 87t-28.5 186v706h-103v66h253v-756q0 -91 12 -139t33 -65t48 -17q38 0 65 38.5t41.5 102t14.5 139.5v631h-98v66h248v-978h91v-68h-223l-8 119q-4 -28 -25 -60.5t-57.5 -56.5t-88.5 -24zM115 1134v67h531v-67h-531zM495 1281
q-32 0 -54.5 22.5t-22.5 51.5q0 33 22.5 56.5t54.5 23.5q29 0 52 -23.5t23 -56.5q0 -29 -23 -51.5t-52 -22.5zM264 1281q-29 0 -52 22.5t-23 51.5q0 33 23 56.5t52 23.5q31 0 54.5 -23.5t23.5 -56.5q0 -29 -23.5 -51.5t-54.5 -22.5z" />
    <glyph glyph-name="Wgrave" unicode="&#x1e80;" horiz-adv-x="1078" 
d="M302 -2l-180 1335h-104v67h358v-67h-82l110 -1012l-21 -38l144 1023l20 -149l-33 176h-92v67h347v-67h-91l131 -1003l-15 -38l121 1041h-81v67h241v-67h-85l-179 -1335h-92l-168 1143l30 46l-188 -1189h-91zM669 1447l-200 94q-26 13 -39.5 25t-13.5 37q0 22 15 34t37 12
q19 0 33 -7.5t27 -18.5l171 -140z" />
    <glyph glyph-name="wgrave" unicode="&#x1e81;" horiz-adv-x="1006" 
d="M648 -4l-160 984h-85v67h311v-67h-71l97 -713l99 713h-68v67h220v-67h-78l-152 -984h-113zM250 -4l-153 984h-80v67h313v-67h-73l87 -713l105 713h-50v67h208v-67h-85l-159 -984h-113zM615 1103l-200 94q-26 13 -39.5 25t-13.5 37q0 22 15 34t37 12q19 0 33 -7.5
t27 -18.5l171 -140z" />
    <glyph glyph-name="Wacute" unicode="&#x1e82;" horiz-adv-x="1078" 
d="M302 -2l-180 1335h-104v67h358v-67h-82l110 -1012l-21 -38l144 1023l20 -149l-33 176h-92v67h347v-67h-91l131 -1003l-15 -38l121 1041h-81v67h241v-67h-85l-179 -1335h-92l-168 1143l30 46l-188 -1189h-91zM452 1444l-40 42l177 135q14 11 29.5 19t29.5 8q13 0 24 -7
t17 -18q6 -10 6 -22q0 -19 -16.5 -35t-41.5 -27z" />
    <glyph glyph-name="wacute" unicode="&#x1e83;" horiz-adv-x="1006" 
d="M648 -4l-160 984h-85v67h311v-67h-71l97 -713l99 713h-68v67h220v-67h-78l-152 -984h-113zM250 -4l-153 984h-80v67h313v-67h-73l87 -713l105 713h-50v67h208v-67h-85l-159 -984h-113zM399 1080l-40 42l177 135q15 12 30 19.5t29 7.5q13 0 24 -7t17 -18q6 -10 6 -21
q0 -19 -16.5 -35.5t-41.5 -27.5z" />
    <glyph glyph-name="Wdieresis" unicode="&#x1e84;" horiz-adv-x="1078" 
d="M302 -2l-180 1335h-104v67h358v-67h-82l110 -1012l-21 -38l144 1023l20 -149l-33 176h-92v67h347v-67h-91l131 -1003l-15 -38l121 1041h-81v67h241v-67h-85l-179 -1335h-92l-168 1143l30 46l-188 -1189h-91zM674 1500q-32 0 -54.5 22.5t-22.5 52.5q0 32 22.5 55.5
t54.5 23.5q29 0 52 -23.5t23 -55.5q0 -30 -23 -52.5t-52 -22.5zM443 1500q-29 0 -52 22.5t-23 52.5q0 32 23 55.5t52 23.5q31 0 54.5 -23.5t23.5 -55.5q0 -30 -23.5 -52.5t-54.5 -22.5z" />
    <glyph glyph-name="wdieresis" unicode="&#x1e85;" horiz-adv-x="1006" 
d="M648 -4l-160 984h-85v67h311v-67h-71l97 -713l99 713h-68v67h220v-67h-78l-152 -984h-113zM250 -4l-153 984h-80v67h313v-67h-73l87 -713l105 713h-50v67h208v-67h-85l-159 -984h-113zM621 1127q-32 0 -54.5 22.5t-22.5 51.5q0 33 22.5 56.5t54.5 23.5q29 0 52 -23.5
t23 -56.5q0 -29 -23 -51.5t-52 -22.5zM390 1127q-29 0 -52 22.5t-23 51.5q0 33 23 56.5t52 23.5q31 0 54.5 -23.5t23.5 -56.5q0 -29 -23.5 -51.5t-54.5 -22.5z" />
    <glyph glyph-name="uni1E8F" unicode="&#x1e8f;" horiz-adv-x="649" 
d="M188 -502q-42 0 -69 31t-39.5 84.5t-12.5 120.5q0 48 17 73.5t48 25.5q30 0 46.5 -22.5t16.5 -59.5q0 -29 -9.5 -47.5t-19 -35.5t-9.5 -42q0 -27 8.5 -50t27.5 -23q12 0 19.5 11.5t14 34.5t12.5 56l72 355l-209 970h-82v67h317v-67h-75l122 -618l113 618h-74v67h227v-67
h-77l-197 -987l-74 -355q-9 -46 -23 -77.5t-36 -47t-55 -15.5zM334 1131q-31 0 -54 22.5t-23 52.5q0 31 23 54.5t54 23.5q29 0 52 -23.5t23 -54.5q0 -30 -23 -52.5t-52 -22.5z" />
    <glyph glyph-name="uni1E93" unicode="&#x1e93;" horiz-adv-x="570" 
d="M74 0v68l265 912h-97q-47 0 -67 -16.5t-24.5 -64t-4.5 -140.5h-66v288h412v-67l-264 -912h91q52 0 73.5 17.5t26.5 67t5 144.5h67v-297h-417zM286 -260q-31 0 -54 22.5t-23 52.5q0 31 23 54.5t54 23.5q29 0 52 -23.5t23 -54.5q0 -30 -23 -52.5t-52 -22.5z" />
    <glyph glyph-name="uni1E97" unicode="&#x1e97;" horiz-adv-x="460" 
d="M302 -18q-42 0 -82 15t-65 55.5t-25 118.5v809h-127v67h127q22 25 39 72t27.5 103.5t14.5 110.5h69v-286h149v-67h-149v-858q0 -42 17.5 -56t34.5 -14q20 0 34 8.5t22 17.5l39 -53q-20 -18 -51.5 -30.5t-73.5 -12.5zM340 1393q-32 0 -54.5 22.5t-22.5 51.5
q0 33 22.5 56.5t54.5 23.5q29 0 52 -23.5t23 -56.5q0 -29 -23 -51.5t-52 -22.5zM109 1393q-29 0 -52 22.5t-23 51.5q0 33 23 56.5t52 23.5q31 0 54.5 -23.5t23.5 -56.5q0 -29 -23.5 -51.5t-54.5 -22.5z" />
    <glyph glyph-name="uni1E9E" unicode="&#x1e9e;" horiz-adv-x="862" 
d="M538 -23q-56 0 -92.5 38.5t-36.5 113.5q0 45 18.5 66.5t44.5 21.5q25 0 41 -16.5t16 -48.5q0 -23 -6.5 -36t-13.5 -22t-7 -21t8 -22.5t26 -10.5q39 0 66 27.5t41.5 80.5t14.5 129q0 91 -25.5 165t-64 134t-77 111t-64 96t-25.5 89q0 28 23 74t60.5 101.5t82 113.5
t87.5 110t75 92h-274q-61 0 -93 -28.5t-43.5 -89t-11.5 -155.5v-1090h-255v66h101v978q0 138 36.5 221.5t104 121t159.5 37.5h318l38 -63q-45 -55 -102 -126t-108.5 -141.5t-85 -125t-33.5 -79.5q0 -27 30.5 -65t75.5 -87.5t90 -111.5t76 -139.5t31 -170.5
q0 -111 -33.5 -186.5t-89 -113.5t-123.5 -38z" />
    <glyph glyph-name="uni1EA0" unicode="&#x1ea0;" horiz-adv-x="677" 
d="M8 0v68h79l184 1335h109l197 -1335h97v-68h-342v68h84l-128 1005v0l-130 -1005h74v-68h-224zM164 311v64h246v-64h-246zM323 -260q-31 0 -54 22.5t-23 52.5q0 31 23 54.5t54 23.5q29 0 52 -23.5t23 -54.5q0 -30 -23 -52.5t-52 -22.5z" />
    <glyph glyph-name="uni1EA1" unicode="&#x1ea1;" horiz-adv-x="684" 
d="M266 -21q-61 0 -108.5 30t-75.5 88.5t-28 143.5q0 93 36.5 154.5t90 104t107.5 77t90 72t36 90.5q0 75 -11.5 129.5t-37.5 84t-70 29.5q-50 0 -82 -32t-32 -74q0 -22 7 -36t13.5 -28.5t6.5 -39.5q0 -35 -17.5 -57t-49.5 -22q-31 0 -48.5 27t-17.5 75q0 74 30.5 133.5
t86 94t127.5 34.5q74 0 129 -33.5t85.5 -106t30.5 -191.5v-588q0 -43 9 -58t27 -15q17 0 27.5 7.5t15.5 13.5l36 -57q-13 -15 -46.5 -28.5t-76.5 -13.5q-42 0 -69.5 13.5t-41 35.5t-16.5 48q-5 -17 -23 -42t-51.5 -44t-88.5 -19zM305 67q36 0 60.5 28.5t36.5 67.5t12 71v371
q-2 -28 -33.5 -55t-70.5 -63t-69 -91t-30 -141q0 -92 24.5 -140t69.5 -48zM357 -260q-31 0 -54 22.5t-23 52.5q0 31 23 54.5t54 23.5q29 0 52 -23.5t23 -54.5q0 -30 -23 -52.5t-52 -22.5z" />
    <glyph glyph-name="uni1EA2" unicode="&#x1ea2;" horiz-adv-x="677" 
d="M8 0v68h79l184 1335h109l197 -1335h97v-68h-342v68h84l-128 1005v0l-130 -1005h74v-68h-224zM164 311v64h246v-64h-246zM321 1742q55 0 96.5 -24.5t41.5 -82.5q0 -44 -25.5 -72t-52 -49.5t-26.5 -47.5h-59q0 41 19 66.5t37.5 47t18.5 50.5q0 31 -17.5 41t-48.5 10
q-25 0 -45.5 -8t-34.5 -20l-45 44q19 20 58.5 32.5t82.5 12.5z" />
    <glyph glyph-name="uni1EA3" unicode="&#x1ea3;" horiz-adv-x="684" 
d="M266 -21q-61 0 -108.5 30t-75.5 88.5t-28 143.5q0 93 36.5 154.5t90 104t107.5 77t90 72t36 90.5q0 75 -11.5 129.5t-37.5 84t-70 29.5q-50 0 -82 -32t-32 -74q0 -22 7 -36t13.5 -28.5t6.5 -39.5q0 -35 -17.5 -57t-49.5 -22q-31 0 -48.5 27t-17.5 75q0 74 30.5 133.5
t86 94t127.5 34.5q74 0 129 -33.5t85.5 -106t30.5 -191.5v-588q0 -43 9 -58t27 -15q17 0 27.5 7.5t15.5 13.5l36 -57q-13 -15 -46.5 -28.5t-76.5 -13.5q-42 0 -69.5 13.5t-41 35.5t-16.5 48q-5 -17 -23 -42t-51.5 -44t-88.5 -19zM305 67q36 0 60.5 28.5t36.5 67.5t12 71v371
q-2 -28 -33.5 -55t-70.5 -63t-69 -91t-30 -141q0 -92 24.5 -140t69.5 -48zM322 1413q55 0 96.5 -24.5t41.5 -82.5q0 -44 -25.5 -72t-52 -49.5t-26.5 -47.5h-59q0 41 19 66.5t37.5 47t18.5 50.5q0 31 -17.5 41t-48.5 10q-25 0 -45.5 -8t-34.5 -20l-45 44q19 20 58.5 32.5
t82.5 12.5z" />
    <glyph glyph-name="uni1EA4" unicode="&#x1ea4;" horiz-adv-x="677" 
d="M8 0v68h79l184 1335h109l197 -1335h97v-68h-342v68h84l-128 1005v0l-130 -1005h74v-68h-224zM164 311v64h246v-64h-246zM145 1466l148 166h70l146 -166h-74l-108 97l-107 -97h-75zM459 1609l-34 36l150 115q27 22 50 22q12 0 21 -5.5t15 -15.5q5 -8 5 -18
q0 -16 -14.5 -30t-35.5 -23z" />
    <glyph glyph-name="uni1EA5" unicode="&#x1ea5;" horiz-adv-x="684" 
d="M266 -21q-61 0 -108.5 30t-75.5 88.5t-28 143.5q0 93 36.5 154.5t90 104t107.5 77t90 72t36 90.5q0 75 -11.5 129.5t-37.5 84t-70 29.5q-50 0 -82 -32t-32 -74q0 -22 7 -36t13.5 -28.5t6.5 -39.5q0 -35 -17.5 -57t-49.5 -22q-31 0 -48.5 27t-17.5 75q0 74 30.5 133.5
t86 94t127.5 34.5q74 0 129 -33.5t85.5 -106t30.5 -191.5v-588q0 -43 9 -58t27 -15q17 0 27.5 7.5t15.5 13.5l36 -57q-13 -15 -46.5 -28.5t-76.5 -13.5q-42 0 -69.5 13.5t-41 35.5t-16.5 48q-5 -17 -23 -42t-51.5 -44t-88.5 -19zM305 67q36 0 60.5 28.5t36.5 67.5t12 71v371
q-2 -28 -33.5 -55t-70.5 -63t-69 -91t-30 -141q0 -92 24.5 -140t69.5 -48zM145 1113l148 206h70l146 -206h-74l-108 137l-107 -137h-75zM459 1296l-34 36l150 115q27 22 50 22q12 0 21 -5.5t15 -15.5q5 -8 5 -18q0 -16 -14.5 -30t-35.5 -23z" />
    <glyph glyph-name="uni1EA6" unicode="&#x1ea6;" horiz-adv-x="677" 
d="M8 0v68h79l184 1335h109l197 -1335h97v-68h-342v68h84l-128 1005v0l-130 -1005h74v-68h-224zM164 311v64h246v-64h-246zM145 1466l148 166h70l146 -166h-74l-108 97l-107 -97h-75zM524 1608l-173 81q-21 10 -33 21t-12 32q0 18 12.5 28.5t32.5 10.5q16 0 28.5 -5.5
t23.5 -16.5l146 -119z" />
    <glyph glyph-name="uni1EA7" unicode="&#x1ea7;" horiz-adv-x="684" 
d="M266 -21q-61 0 -108.5 30t-75.5 88.5t-28 143.5q0 93 36.5 154.5t90 104t107.5 77t90 72t36 90.5q0 75 -11.5 129.5t-37.5 84t-70 29.5q-50 0 -82 -32t-32 -74q0 -22 7 -36t13.5 -28.5t6.5 -39.5q0 -35 -17.5 -57t-49.5 -22q-31 0 -48.5 27t-17.5 75q0 74 30.5 133.5
t86 94t127.5 34.5q74 0 129 -33.5t85.5 -106t30.5 -191.5v-588q0 -43 9 -58t27 -15q17 0 27.5 7.5t15.5 13.5l36 -57q-13 -15 -46.5 -28.5t-76.5 -13.5q-42 0 -69.5 13.5t-41 35.5t-16.5 48q-5 -17 -23 -42t-51.5 -44t-88.5 -19zM305 67q36 0 60.5 28.5t36.5 67.5t12 71v371
q-2 -28 -33.5 -55t-70.5 -63t-69 -91t-30 -141q0 -92 24.5 -140t69.5 -48zM145 1113l148 206h70l146 -206h-74l-108 137l-107 -137h-75zM524 1295l-173 81q-21 10 -33 21t-12 32q0 18 12.5 28.5t32.5 10.5q16 0 28.5 -5.5t23.5 -16.5l146 -119z" />
    <glyph glyph-name="uni1EA8" unicode="&#x1ea8;" horiz-adv-x="677" 
d="M8 0v68h79l184 1335h109l197 -1335h97v-68h-342v68h84l-128 1005v0l-130 -1005h74v-68h-224zM164 311v64h246v-64h-246zM143 1467l148 166h70l146 -166h-74l-108 97l-107 -97h-75zM473 1807q43 0 76.5 -19.5t33.5 -64.5q0 -35 -21 -57.5t-42 -39.5t-21 -38h-46
q0 32 15 52t30 37.5t15 41.5q0 23 -14.5 31.5t-38.5 8.5q-20 0 -36 -6.5t-27 -16.5l-36 36q14 16 46 25.5t66 9.5z" />
    <glyph glyph-name="uni1EA9" unicode="&#x1ea9;" horiz-adv-x="684" 
d="M266 -21q-61 0 -108.5 30t-75.5 88.5t-28 143.5q0 93 36.5 154.5t90 104t107.5 77t90 72t36 90.5q0 75 -11.5 129.5t-37.5 84t-70 29.5q-50 0 -82 -32t-32 -74q0 -22 7 -36t13.5 -28.5t6.5 -39.5q0 -35 -17.5 -57t-49.5 -22q-31 0 -48.5 27t-17.5 75q0 74 30.5 133.5
t86 94t127.5 34.5q74 0 129 -33.5t85.5 -106t30.5 -191.5v-588q0 -43 9 -58t27 -15q17 0 27.5 7.5t15.5 13.5l36 -57q-13 -15 -46.5 -28.5t-76.5 -13.5q-42 0 -69.5 13.5t-41 35.5t-16.5 48q-5 -17 -23 -42t-51.5 -44t-88.5 -19zM305 67q36 0 60.5 28.5t36.5 67.5t12 71v371
q-2 -28 -33.5 -55t-70.5 -63t-69 -91t-30 -141q0 -92 24.5 -140t69.5 -48zM143 1114l148 206h70l146 -206h-74l-108 137l-107 -137h-75zM473 1494q43 0 76.5 -19.5t33.5 -64.5q0 -35 -21 -57.5t-42 -39.5t-21 -38h-46q0 32 15 52t30 37.5t15 41.5q0 23 -14.5 31.5t-38.5 8.5
q-20 0 -36 -6.5t-27 -16.5l-36 36q14 16 46 25.5t66 9.5z" />
    <glyph glyph-name="uni1EAA" unicode="&#x1eaa;" horiz-adv-x="677" 
d="M8 0v68h79l184 1335h109l197 -1335h97v-68h-342v68h84l-128 1005v0l-130 -1005h74v-68h-224zM164 311v64h246v-64h-246zM146 1467l148 166h70l146 -166h-74l-108 97l-108 -97h-74zM414 1669q-39 0 -66.5 16.5t-50.5 32.5t-48 16q-31 0 -49 -18.5t-23 -30.5l-62 28
q5 19 23 43t45.5 43t60.5 19q41 0 68 -16.5t50 -32.5t52 -16q31 0 45.5 15.5t20.5 27.5l62 -30q-4 -15 -21.5 -38t-44.5 -41t-62 -18z" />
    <glyph glyph-name="uni1EAB" unicode="&#x1eab;" horiz-adv-x="684" 
d="M266 -21q-61 0 -108.5 30t-75.5 88.5t-28 143.5q0 93 36.5 154.5t90 104t107.5 77t90 72t36 90.5q0 75 -11.5 129.5t-37.5 84t-70 29.5q-50 0 -82 -32t-32 -74q0 -22 7 -36t13.5 -28.5t6.5 -39.5q0 -35 -17.5 -57t-49.5 -22q-31 0 -48.5 27t-17.5 75q0 74 30.5 133.5
t86 94t127.5 34.5q74 0 129 -33.5t85.5 -106t30.5 -191.5v-588q0 -43 9 -58t27 -15q17 0 27.5 7.5t15.5 13.5l36 -57q-13 -15 -46.5 -28.5t-76.5 -13.5q-42 0 -69.5 13.5t-41 35.5t-16.5 48q-5 -17 -23 -42t-51.5 -44t-88.5 -19zM305 67q36 0 60.5 28.5t36.5 67.5t12 71v371
q-2 -28 -33.5 -55t-70.5 -63t-69 -91t-30 -141q0 -92 24.5 -140t69.5 -48zM147 1114l148 206h70l146 -206h-74l-108 137l-107 -137h-75zM415 1357q-39 0 -66.5 16t-50.5 32t-48 16q-31 0 -49 -18.5t-23 -29.5l-62 27q5 19 23 43.5t45.5 43t61.5 18.5q41 0 67.5 -16
t49.5 -32.5t52 -16.5q31 0 45.5 15.5t20.5 27.5l62 -30q-4 -15 -21.5 -38t-44.5 -40.5t-62 -17.5z" />
    <glyph glyph-name="uni1EAC" unicode="&#x1eac;" horiz-adv-x="677" 
d="M8 0v68h79l184 1335h109l197 -1335h97v-68h-342v68h84l-128 1005v0l-130 -1005h74v-68h-224zM164 311v64h246v-64h-246zM323 -260q-31 0 -54 22.5t-23 52.5q0 31 23 54.5t54 23.5q29 0 52 -23.5t23 -54.5q0 -30 -23 -52.5t-52 -22.5zM145 1461l148 206h70l146 -206h-74
l-108 137l-107 -137h-75z" />
    <glyph glyph-name="uni1EAD" unicode="&#x1ead;" horiz-adv-x="684" 
d="M266 -21q-61 0 -108.5 30t-75.5 88.5t-28 143.5q0 93 36.5 154.5t90 104t107.5 77t90 72t36 90.5q0 75 -11.5 129.5t-37.5 84t-70 29.5q-50 0 -82 -32t-32 -74q0 -22 7 -36t13.5 -28.5t6.5 -39.5q0 -35 -17.5 -57t-49.5 -22q-31 0 -48.5 27t-17.5 75q0 74 30.5 133.5
t86 94t127.5 34.5q74 0 129 -33.5t85.5 -106t30.5 -191.5v-588q0 -43 9 -58t27 -15q17 0 27.5 7.5t15.5 13.5l36 -57q-13 -15 -46.5 -28.5t-76.5 -13.5q-42 0 -69.5 13.5t-41 35.5t-16.5 48q-5 -17 -23 -42t-51.5 -44t-88.5 -19zM305 67q36 0 60.5 28.5t36.5 67.5t12 71v371
q-2 -28 -33.5 -55t-70.5 -63t-69 -91t-30 -141q0 -92 24.5 -140t69.5 -48zM357 -260q-31 0 -54 22.5t-23 52.5q0 31 23 54.5t54 23.5q29 0 52 -23.5t23 -54.5q0 -30 -23 -52.5t-52 -22.5zM145 1122l148 206h70l146 -206h-74l-108 137l-107 -137h-75z" />
    <glyph glyph-name="uni1EAE" unicode="&#x1eae;" horiz-adv-x="677" 
d="M8 0v68h79l184 1335h109l197 -1335h97v-68h-342v68h84l-128 1005v0l-130 -1005h74v-68h-224zM164 311v64h246v-64h-246zM325 1496q-59 0 -96 26.5t-54 69.5t-17 93h65q4 -61 30.5 -91t71.5 -30q47 0 73.5 30t30.5 91h66q0 -50 -17 -93t-54.5 -69.5t-98.5 -26.5zM220 1728
l-40 42l177 135q14 11 29.5 19t29.5 8q13 0 24 -7t17 -18q6 -10 6 -22q0 -19 -16.5 -35t-41.5 -27z" />
    <glyph glyph-name="uni1EAF" unicode="&#x1eaf;" horiz-adv-x="684" 
d="M266 -21q-61 0 -108.5 30t-75.5 88.5t-28 143.5q0 93 36.5 154.5t90 104t107.5 77t90 72t36 90.5q0 75 -11.5 129.5t-37.5 84t-70 29.5q-50 0 -82 -32t-32 -74q0 -22 7 -36t13.5 -28.5t6.5 -39.5q0 -35 -17.5 -57t-49.5 -22q-31 0 -48.5 27t-17.5 75q0 74 30.5 133.5
t86 94t127.5 34.5q74 0 129 -33.5t85.5 -106t30.5 -191.5v-588q0 -43 9 -58t27 -15q17 0 27.5 7.5t15.5 13.5l36 -57q-13 -15 -46.5 -28.5t-76.5 -13.5q-42 0 -69.5 13.5t-41 35.5t-16.5 48q-5 -17 -23 -42t-51.5 -44t-88.5 -19zM305 67q36 0 60.5 28.5t36.5 67.5t12 71v371
q-2 -28 -33.5 -55t-70.5 -63t-69 -91t-30 -141q0 -92 24.5 -140t69.5 -48zM325 1109q-59 0 -96 26t-54 69.5t-17 92.5h65q4 -60 30.5 -90.5t71.5 -30.5q47 0 73.5 30.5t30.5 90.5h66q0 -49 -17 -92.5t-54.5 -69.5t-98.5 -26zM228 1327l-40 42l177 136q15 11 30 18.5t29 7.5
q13 0 24 -7t17 -18q6 -10 6 -22q0 -19 -16.5 -35t-41.5 -27z" />
    <glyph glyph-name="uni1EB0" unicode="&#x1eb0;" horiz-adv-x="677" 
d="M8 0v68h79l184 1335h109l197 -1335h97v-68h-342v68h84l-128 1005v0l-130 -1005h74v-68h-224zM164 311v64h246v-64h-246zM325 1496q-59 0 -96 26.5t-54 69.5t-17 93h65q4 -61 30.5 -91t71.5 -30q47 0 73.5 30t30.5 91h66q0 -50 -17 -93t-54.5 -69.5t-98.5 -26.5zM437 1731
l-200 94q-26 13 -39.5 25t-13.5 37q0 22 15 34t37 12q19 0 33 -7.5t27 -18.5l171 -140z" />
    <glyph glyph-name="uni1EB1" unicode="&#x1eb1;" horiz-adv-x="684" 
d="M266 -21q-61 0 -108.5 30t-75.5 88.5t-28 143.5q0 93 36.5 154.5t90 104t107.5 77t90 72t36 90.5q0 75 -11.5 129.5t-37.5 84t-70 29.5q-50 0 -82 -32t-32 -74q0 -22 7 -36t13.5 -28.5t6.5 -39.5q0 -35 -17.5 -57t-49.5 -22q-31 0 -48.5 27t-17.5 75q0 74 30.5 133.5
t86 94t127.5 34.5q74 0 129 -33.5t85.5 -106t30.5 -191.5v-588q0 -43 9 -58t27 -15q17 0 27.5 7.5t15.5 13.5l36 -57q-13 -15 -46.5 -28.5t-76.5 -13.5q-42 0 -69.5 13.5t-41 35.5t-16.5 48q-5 -17 -23 -42t-51.5 -44t-88.5 -19zM305 67q36 0 60.5 28.5t36.5 67.5t12 71v371
q-2 -28 -33.5 -55t-70.5 -63t-69 -91t-30 -141q0 -92 24.5 -140t69.5 -48zM325 1129q-59 0 -96 26t-54 69.5t-17 92.5h65q4 -60 30.5 -90.5t71.5 -30.5q47 0 73.5 30.5t30.5 90.5h66q0 -49 -17 -92.5t-54.5 -69.5t-98.5 -26zM439 1346l-200 94q-26 12 -39.5 24.5t-13.5 36.5
q0 22 14.5 34t37.5 12q19 0 32.5 -7t27.5 -19l171 -139z" />
    <glyph glyph-name="uni1EB2" unicode="&#x1eb2;" horiz-adv-x="677" 
d="M8 0v68h79l184 1335h109l197 -1335h97v-68h-342v68h84l-128 1005v0l-130 -1005h74v-68h-224zM164 311v64h246v-64h-246zM325 1496q-59 0 -96 26.5t-54 69.5t-17 93h65q4 -61 30.5 -91t71.5 -30q47 0 73.5 30t30.5 91h66q0 -50 -17 -93t-54.5 -69.5t-98.5 -26.5zM321 2026
q55 0 96.5 -24.5t41.5 -82.5q0 -44 -25.5 -72t-52 -49.5t-26.5 -47.5h-59q0 41 19 66.5t37.5 47t18.5 50.5q0 31 -17.5 41t-48.5 10q-25 0 -45.5 -8t-34.5 -20l-45 44q19 20 58.5 32.5t82.5 12.5z" />
    </font>
</defs>
</svg>
